M48
;Layer_Color=9474304
;FILE_FORMAT=2:5
INCH,LZ
;TYPE=PLATED
T1F00S00C0.01181
T2F00S00C0.01378
T3F00S00C0.01968
T4F00S00C0.03150
T5F00S00C0.03425
T6F00S00C0.03543
T7F00S00C0.03937
T9F00S00C0.04331
T11F00S00C0.05118
T12F00S00C0.06890
;TYPE=NON_PLATED
T13F00S00C0.08268
%
T01
X0010433Y0011319
X002185Y0010236
X0020276Y0006201
X0004921Y0021555
X0006102Y0029921
X0042421Y0021161
X0054528Y0005315
X009685Y0050787
X0177067Y005374
X0187894Y004498
X0187795Y0027264
X0206299Y0051575
X0233465Y0042913
Y0025295
Y0010531
X0261024
Y0025295
Y0042913
X0301083Y0023031
X0301181Y0015748
X03Y00064
X0311024Y0005906
X0331102Y0006299
X0344488Y0005906
X0338189Y0014961
X0332283Y0019291
X0344488Y0021654
Y0035433
X0337008Y0035827
X0331102Y0044488
X0323228Y0050394
X0344488Y0047244
X0362205
Y0035433
Y0021654
Y0005906
X0352362Y001378
X0287402Y0007874
X0295276Y0061024
X0299213Y0076772
X0284933Y0075303
X0285531Y0088583
X02918Y00928
X0286669Y010445
X0287282Y0114906
X02934Y01168
X0330709Y0114173
Y0098425
X03155Y0082
X0316929Y0064961
X0344488Y0059055
X0362205
Y0068898
X03486Y00731
X0360236Y0088583
Y0120079
X034252
X0261122Y0108661
Y0087008
X0260982Y0069451
X0233423
X0233563Y0087008
Y0108661
X0227165Y0130217
X0218209Y0146653
X0235335Y0150295
X023937
X0240059Y0156201
X0244193Y0165256
Y0168012
X0242913Y0188386
X0236221
X025
X0240158Y020315
X0222146Y0193012
X0266535Y0199902
X0270472Y0173622
X0260433Y0139272
X0206626Y0135858
X0197343Y0130905
X0187795Y0131102
X0183366Y0118996
X0182717Y0100197
X0177165
X0171811Y0100157
X0172087Y0104331
X0188287Y0097342
X0187795Y0086713
X0184055Y0081004
X0189055Y0074528
X0197638Y0078937
X0177067Y0056496
X0102362Y0064665
X0095768Y0111221
X0083366Y0125394
X0065748Y012126
X0057087Y0136614
X0057284Y0165748
X0086614Y0174311
X0106595Y0182382
X0108563Y0204232
X0131398Y0196358
X0149803Y0191634
X0167421Y0195276
X0181693Y0189567
Y0185531
X0185925
Y0189567
X0193504Y0184153
X0199545Y0189459
X0202234Y0187612
X0206201Y0171949
Y0158366
X0193405Y0155118
X0191043Y0168012
X0177461Y0152756
X019626Y0140059
X0151083Y0143405
X0134744Y014124
X0134547Y0132677
X0127362Y0136713
X0133532Y0104842
X0145768Y0115748
X0147146Y0170177
X0156102Y0167126
X0192815Y0201575
X0048327Y0149606
X0043996Y0127264
X0035433Y0111417
X0030315Y0106004
X0014567Y0159547
X0158071Y0228543
X0184153Y022874
X0175295Y0216339
X0195177Y0256791
X0214543Y0259965
X0227185Y0267008
X0243878Y0261004
X0262008Y0249016
X0263681Y0227165
X0239567Y0217717
X0229724Y024252
T02
X0080709Y0155285
X0084646
X0088583
X009252
X0070866Y0191339
X0066929
X0062992
X0059055
X0054724Y0217323
X0050787
X0058661
T03
X0317528Y0074622
X0331701
X0331693Y0060457
T04
X0023228Y0116929
Y0136614
T05
X0289968Y0020882
Y0026787
Y0032693
Y0038598
Y0044504
Y0050409
X0259842Y0155118
Y0161024
Y0166929
Y0172835
Y017874
Y0184646
T06
X0069882Y0010433
X0081693
T07
X0108661Y0087795
Y010748
X0035039Y0267717
X0015354
Y0313779
X0035039
X0075984Y0334252
X0154724
X0135039Y0255512
X0095669
T09
X0162598Y0371654
X0044488
T11
X0191732Y0284252
Y0323622
Y0351181
X0219291Y0343307
X0235039Y0351575
Y0324016
Y0284646
X0219291Y0284252
X0262598Y0284646
Y0343701
T12
X0021654Y0351811
X0240787Y0372047
X0260787
X0210787Y0372047
X0190787
X0021654Y0371811
T13
X0130315Y001624
X0012697Y0203937
M30
