M48
;Layer_Color=9474304
;FILE_FORMAT=2:5
INCH,LZ
;TYPE=PLATED
T1F00S00C0.01181
;TYPE=NON_PLATED
%
T01
X0052461Y0023031
X009685Y0050787
X0177067Y005374
X023937Y0150295
X0244193Y0165256
Y0168012
X0193504Y0184153
X019626Y0140059
X0197343Y0130905
X0187795Y0131102
X0183366Y0118996
X0188287Y0097342
X0177067Y0056496
X0177461Y0152756
X0151083Y0143405
X0206626Y0135858
X0057087Y0136614
X0035433Y0111417
X0030315Y0106004
X0191732Y0351181
M30
