G04*
G04 #@! TF.GenerationSoftware,Altium Limited,Altium Designer,22.3.1 (43)*
G04*
G04 Layer_Physical_Order=4*
G04 Layer_Color=16711680*
%FSLAX25Y25*%
%MOIN*%
G70*
G04*
G04 #@! TF.SameCoordinates,03762554-53E0-4DA3-B020-D50B0D98B1FC*
G04*
G04*
G04 #@! TF.FilePolarity,Positive*
G04*
G01*
G75*
%ADD28C,0.16142*%
%ADD29C,0.02362*%
G36*
X125273Y71136D02*
X127748Y70542D01*
X130099Y69569D01*
X132269Y68239D01*
X134204Y66586D01*
X135857Y64651D01*
X137187Y62481D01*
X138161Y60130D01*
X138755Y57655D01*
X138947Y55217D01*
X138927Y55118D01*
Y253D01*
X138945Y161D01*
X138760Y-2185D01*
X138190Y-4563D01*
X137254Y-6822D01*
X135976Y-8907D01*
X134388Y-10766D01*
X132529Y-12354D01*
X130444Y-13632D01*
X128185Y-14568D01*
X125807Y-15138D01*
X123461Y-15323D01*
X123369Y-15305D01*
X79D01*
X-11Y-15323D01*
X-2332Y-15140D01*
X-4683Y-14576D01*
X-6916Y-13650D01*
X-8978Y-12387D01*
X-10817Y-10817D01*
X-12387Y-8978D01*
X-13650Y-6916D01*
X-14576Y-4683D01*
X-15140Y-2332D01*
X-15323Y-11D01*
X-15305Y79D01*
Y55986D01*
X-15323Y56075D01*
X-15141Y58386D01*
X-14578Y60728D01*
X-13657Y62953D01*
X-12398Y65007D01*
X-10834Y66838D01*
X-9003Y68402D01*
X-6949Y69661D01*
X-4724Y70582D01*
X-2383Y71145D01*
X-71Y71327D01*
X18Y71309D01*
X122736D01*
X122835Y71328D01*
X125273Y71136D01*
D02*
G37*
%LPC*%
G36*
X124506Y64975D02*
X122739D01*
X121005Y64630D01*
X119373Y63954D01*
X117903Y62972D01*
X116654Y61722D01*
X115672Y60253D01*
X114996Y58621D01*
X114651Y56888D01*
Y55120D01*
X114996Y53387D01*
X115672Y51755D01*
X116654Y50285D01*
X117903Y49036D01*
X119373Y48054D01*
X121005Y47378D01*
X122739Y47033D01*
X124506D01*
X126239Y47378D01*
X127871Y48054D01*
X129341Y49036D01*
X130590Y50285D01*
X131572Y51755D01*
X132248Y53387D01*
X132593Y55120D01*
Y56888D01*
X132248Y58621D01*
X131572Y60253D01*
X130590Y61722D01*
X129341Y62972D01*
X127871Y63954D01*
X126239Y64630D01*
X124506Y64975D01*
D02*
G37*
G36*
X883D02*
X-883D01*
X-2617Y64630D01*
X-4249Y63954D01*
X-5719Y62972D01*
X-6968Y61722D01*
X-7950Y60253D01*
X-8626Y58621D01*
X-8971Y56888D01*
Y55120D01*
X-8626Y53387D01*
X-7950Y51755D01*
X-6968Y50285D01*
X-5719Y49036D01*
X-4249Y48054D01*
X-2617Y47378D01*
X-883Y47033D01*
X883D01*
X2617Y47378D01*
X4249Y48054D01*
X5719Y49036D01*
X6968Y50285D01*
X7950Y51755D01*
X8626Y53387D01*
X8971Y55120D01*
Y56888D01*
X8626Y58621D01*
X7950Y60253D01*
X6968Y61722D01*
X5719Y62972D01*
X4249Y63954D01*
X2617Y64630D01*
X883Y64975D01*
D02*
G37*
G36*
X80729Y42829D02*
X79901D01*
X79136Y42512D01*
X78551Y41927D01*
X78234Y41162D01*
Y40334D01*
X78551Y39569D01*
X79136Y38984D01*
X79901Y38667D01*
X80729D01*
X81494Y38984D01*
X82079Y39569D01*
X82396Y40334D01*
Y41162D01*
X82079Y41927D01*
X81494Y42512D01*
X80729Y42829D01*
D02*
G37*
G36*
X75611D02*
X74783D01*
X74018Y42512D01*
X73433Y41927D01*
X73116Y41162D01*
Y40334D01*
X73433Y39569D01*
X74018Y38984D01*
X74783Y38667D01*
X75611D01*
X76376Y38984D01*
X76961Y39569D01*
X77278Y40334D01*
Y41162D01*
X76961Y41927D01*
X76376Y42512D01*
X75611Y42829D01*
D02*
G37*
G36*
X70493D02*
X69665D01*
X68900Y42512D01*
X68314Y41927D01*
X67998Y41162D01*
Y40334D01*
X68314Y39569D01*
X68900Y38984D01*
X69665Y38667D01*
X70493D01*
X71258Y38984D01*
X71843Y39569D01*
X72160Y40334D01*
Y41162D01*
X71843Y41927D01*
X71258Y42512D01*
X70493Y42829D01*
D02*
G37*
G36*
X65375D02*
X64547D01*
X63782Y42512D01*
X63196Y41927D01*
X62880Y41162D01*
Y40334D01*
X63196Y39569D01*
X63782Y38984D01*
X64547Y38667D01*
X65375D01*
X66140Y38984D01*
X66725Y39569D01*
X67042Y40334D01*
Y41162D01*
X66725Y41927D01*
X66140Y42512D01*
X65375Y42829D01*
D02*
G37*
G36*
X60256D02*
X59429D01*
X58664Y42512D01*
X58078Y41927D01*
X57761Y41162D01*
Y40334D01*
X58078Y39569D01*
X58664Y38984D01*
X59429Y38667D01*
X60256D01*
X61021Y38984D01*
X61607Y39569D01*
X61924Y40334D01*
Y41162D01*
X61607Y41927D01*
X61021Y42512D01*
X60256Y42829D01*
D02*
G37*
G36*
X80729Y37809D02*
X79901D01*
X79136Y37493D01*
X78551Y36907D01*
X78234Y36142D01*
Y35314D01*
X78551Y34549D01*
X79136Y33964D01*
X79901Y33647D01*
X80729D01*
X81494Y33964D01*
X82079Y34549D01*
X82396Y35314D01*
Y36142D01*
X82079Y36907D01*
X81494Y37493D01*
X80729Y37809D01*
D02*
G37*
G36*
X75611D02*
X74783D01*
X74018Y37493D01*
X73433Y36907D01*
X73116Y36142D01*
Y35314D01*
X73433Y34549D01*
X74018Y33964D01*
X74783Y33647D01*
X75611D01*
X76376Y33964D01*
X76961Y34549D01*
X77278Y35314D01*
Y36142D01*
X76961Y36907D01*
X76376Y37493D01*
X75611Y37809D01*
D02*
G37*
G36*
X70493D02*
X69665D01*
X68900Y37493D01*
X68314Y36907D01*
X67998Y36142D01*
Y35314D01*
X68314Y34549D01*
X68900Y33964D01*
X69665Y33647D01*
X70493D01*
X71258Y33964D01*
X71843Y34549D01*
X72160Y35314D01*
Y36142D01*
X71843Y36907D01*
X71258Y37493D01*
X70493Y37809D01*
D02*
G37*
G36*
X65375D02*
X64547D01*
X63782Y37493D01*
X63196Y36907D01*
X62880Y36142D01*
Y35314D01*
X63196Y34549D01*
X63782Y33964D01*
X64547Y33647D01*
X65375D01*
X66140Y33964D01*
X66725Y34549D01*
X67042Y35314D01*
Y36142D01*
X66725Y36907D01*
X66140Y37493D01*
X65375Y37809D01*
D02*
G37*
G36*
X60256D02*
X59429D01*
X58664Y37493D01*
X58078Y36907D01*
X57761Y36142D01*
Y35314D01*
X58078Y34549D01*
X58664Y33964D01*
X59429Y33647D01*
X60256D01*
X61021Y33964D01*
X61607Y34549D01*
X61924Y35314D01*
Y36142D01*
X61607Y36907D01*
X61021Y37493D01*
X60256Y37809D01*
D02*
G37*
G36*
X25119Y35447D02*
X24291D01*
X23526Y35130D01*
X22941Y34545D01*
X22624Y33780D01*
Y32952D01*
X22941Y32187D01*
X23526Y31602D01*
X24291Y31285D01*
X25119D01*
X25884Y31602D01*
X26469Y32187D01*
X26786Y32952D01*
Y33780D01*
X26469Y34545D01*
X25884Y35130D01*
X25119Y35447D01*
D02*
G37*
G36*
X30237Y35152D02*
X29409D01*
X28644Y34835D01*
X28059Y34250D01*
X27742Y33485D01*
Y32657D01*
X28059Y31892D01*
X28644Y31307D01*
X29409Y30990D01*
X30237D01*
X31002Y31307D01*
X31587Y31892D01*
X31904Y32657D01*
Y33485D01*
X31587Y34250D01*
X31002Y34835D01*
X30237Y35152D01*
D02*
G37*
G36*
X80729Y32790D02*
X79901D01*
X79136Y32473D01*
X78551Y31888D01*
X78234Y31123D01*
Y30295D01*
X78551Y29530D01*
X79136Y28944D01*
X79901Y28628D01*
X80729D01*
X81494Y28944D01*
X82079Y29530D01*
X82396Y30295D01*
Y31123D01*
X82079Y31888D01*
X81494Y32473D01*
X80729Y32790D01*
D02*
G37*
G36*
X75611D02*
X74783D01*
X74018Y32473D01*
X73433Y31888D01*
X73116Y31123D01*
Y30295D01*
X73433Y29530D01*
X74018Y28944D01*
X74783Y28628D01*
X75611D01*
X76376Y28944D01*
X76961Y29530D01*
X77278Y30295D01*
Y31123D01*
X76961Y31888D01*
X76376Y32473D01*
X75611Y32790D01*
D02*
G37*
G36*
X70493D02*
X69665D01*
X68900Y32473D01*
X68314Y31888D01*
X67998Y31123D01*
Y30295D01*
X68314Y29530D01*
X68900Y28944D01*
X69665Y28628D01*
X70493D01*
X71258Y28944D01*
X71843Y29530D01*
X72160Y30295D01*
Y31123D01*
X71843Y31888D01*
X71258Y32473D01*
X70493Y32790D01*
D02*
G37*
G36*
X65375D02*
X64547D01*
X63782Y32473D01*
X63196Y31888D01*
X62880Y31123D01*
Y30295D01*
X63196Y29530D01*
X63782Y28944D01*
X64547Y28628D01*
X65375D01*
X66140Y28944D01*
X66725Y29530D01*
X67042Y30295D01*
Y31123D01*
X66725Y31888D01*
X66140Y32473D01*
X65375Y32790D01*
D02*
G37*
G36*
X60256D02*
X59429D01*
X58664Y32473D01*
X58078Y31888D01*
X57761Y31123D01*
Y30295D01*
X58078Y29530D01*
X58664Y28944D01*
X59429Y28628D01*
X60256D01*
X61021Y28944D01*
X61607Y29530D01*
X61924Y30295D01*
Y31123D01*
X61607Y31888D01*
X61021Y32473D01*
X60256Y32790D01*
D02*
G37*
G36*
X30237Y29640D02*
X29409D01*
X28644Y29323D01*
X28059Y28738D01*
X27742Y27973D01*
Y27145D01*
X28059Y26380D01*
X28644Y25795D01*
X29409Y25478D01*
X30237D01*
X31002Y25795D01*
X31587Y26380D01*
X31904Y27145D01*
Y27973D01*
X31587Y28738D01*
X31002Y29323D01*
X30237Y29640D01*
D02*
G37*
G36*
X25119D02*
X24291D01*
X23526Y29323D01*
X22941Y28738D01*
X22624Y27973D01*
Y27145D01*
X22941Y26380D01*
X23526Y25795D01*
X24291Y25478D01*
X25119D01*
X25884Y25795D01*
X26469Y26380D01*
X26786Y27145D01*
Y27973D01*
X26469Y28738D01*
X25884Y29323D01*
X25119Y29640D01*
D02*
G37*
G36*
X80729Y27770D02*
X79901D01*
X79136Y27453D01*
X78551Y26868D01*
X78234Y26103D01*
Y25275D01*
X78551Y24510D01*
X79136Y23925D01*
X79901Y23608D01*
X80729D01*
X81494Y23925D01*
X82079Y24510D01*
X82396Y25275D01*
Y26103D01*
X82079Y26868D01*
X81494Y27453D01*
X80729Y27770D01*
D02*
G37*
G36*
X75611D02*
X74783D01*
X74018Y27453D01*
X73433Y26868D01*
X73116Y26103D01*
Y25275D01*
X73433Y24510D01*
X74018Y23925D01*
X74783Y23608D01*
X75611D01*
X76376Y23925D01*
X76961Y24510D01*
X77278Y25275D01*
Y26103D01*
X76961Y26868D01*
X76376Y27453D01*
X75611Y27770D01*
D02*
G37*
G36*
X70493D02*
X69665D01*
X68900Y27453D01*
X68314Y26868D01*
X67998Y26103D01*
Y25275D01*
X68314Y24510D01*
X68900Y23925D01*
X69665Y23608D01*
X70493D01*
X71258Y23925D01*
X71843Y24510D01*
X72160Y25275D01*
Y26103D01*
X71843Y26868D01*
X71258Y27453D01*
X70493Y27770D01*
D02*
G37*
G36*
X65375D02*
X64547D01*
X63782Y27453D01*
X63196Y26868D01*
X62880Y26103D01*
Y25275D01*
X63196Y24510D01*
X63782Y23925D01*
X64547Y23608D01*
X65375D01*
X66140Y23925D01*
X66725Y24510D01*
X67042Y25275D01*
Y26103D01*
X66725Y26868D01*
X66140Y27453D01*
X65375Y27770D01*
D02*
G37*
G36*
X60256D02*
X59429D01*
X58664Y27453D01*
X58078Y26868D01*
X57761Y26103D01*
Y25275D01*
X58078Y24510D01*
X58664Y23925D01*
X59429Y23608D01*
X60256D01*
X61021Y23925D01*
X61607Y24510D01*
X61924Y25275D01*
Y26103D01*
X61607Y26868D01*
X61021Y27453D01*
X60256Y27770D01*
D02*
G37*
G36*
X80729Y22750D02*
X79901D01*
X79136Y22434D01*
X78551Y21848D01*
X78234Y21083D01*
Y20255D01*
X78551Y19490D01*
X79136Y18905D01*
X79901Y18588D01*
X80729D01*
X81494Y18905D01*
X82079Y19490D01*
X82396Y20255D01*
Y21083D01*
X82079Y21848D01*
X81494Y22434D01*
X80729Y22750D01*
D02*
G37*
G36*
X75611D02*
X74783D01*
X74018Y22434D01*
X73433Y21848D01*
X73116Y21083D01*
Y20255D01*
X73433Y19490D01*
X74018Y18905D01*
X74783Y18588D01*
X75611D01*
X76376Y18905D01*
X76961Y19490D01*
X77278Y20255D01*
Y21083D01*
X76961Y21848D01*
X76376Y22434D01*
X75611Y22750D01*
D02*
G37*
G36*
X70493D02*
X69665D01*
X68900Y22434D01*
X68314Y21848D01*
X67998Y21083D01*
Y20255D01*
X68314Y19490D01*
X68900Y18905D01*
X69665Y18588D01*
X70493D01*
X71258Y18905D01*
X71843Y19490D01*
X72160Y20255D01*
Y21083D01*
X71843Y21848D01*
X71258Y22434D01*
X70493Y22750D01*
D02*
G37*
G36*
X65375D02*
X64547D01*
X63782Y22434D01*
X63196Y21848D01*
X62880Y21083D01*
Y20255D01*
X63196Y19490D01*
X63782Y18905D01*
X64547Y18588D01*
X65375D01*
X66140Y18905D01*
X66725Y19490D01*
X67042Y20255D01*
Y21083D01*
X66725Y21848D01*
X66140Y22434D01*
X65375Y22750D01*
D02*
G37*
G36*
X60256D02*
X59429D01*
X58664Y22434D01*
X58078Y21848D01*
X57761Y21083D01*
Y20255D01*
X58078Y19490D01*
X58664Y18905D01*
X59429Y18588D01*
X60256D01*
X61021Y18905D01*
X61607Y19490D01*
X61924Y20255D01*
Y21083D01*
X61607Y21848D01*
X61021Y22434D01*
X60256Y22750D01*
D02*
G37*
G36*
X104095Y8321D02*
X103267D01*
X102502Y8004D01*
X101917Y7419D01*
X101600Y6654D01*
Y5826D01*
X101917Y5061D01*
X102502Y4476D01*
X103267Y4159D01*
X104095D01*
X104860Y4476D01*
X105445Y5061D01*
X105762Y5826D01*
Y6654D01*
X105445Y7419D01*
X104860Y8004D01*
X104095Y8321D01*
D02*
G37*
G36*
X2500Y8751D02*
Y2500D01*
X8751D01*
X8722Y2646D01*
X8038Y4297D01*
X7046Y5782D01*
X5782Y7046D01*
X4297Y8038D01*
X2646Y8722D01*
X2500Y8751D01*
D02*
G37*
G36*
X-2500D02*
X-2646Y8722D01*
X-4297Y8038D01*
X-5782Y7046D01*
X-7046Y5782D01*
X-8038Y4297D01*
X-8722Y2646D01*
X-8751Y2500D01*
X-2500D01*
Y8751D01*
D02*
G37*
G36*
X125122Y8950D02*
Y1500D01*
X132572D01*
X132344Y2646D01*
X131660Y4297D01*
X130668Y5782D01*
X129404Y7046D01*
X127919Y8038D01*
X126268Y8722D01*
X125122Y8950D01*
D02*
G37*
G36*
X122122D02*
X120976Y8722D01*
X119325Y8038D01*
X117840Y7046D01*
X116576Y5782D01*
X115584Y4297D01*
X114900Y2646D01*
X114672Y1500D01*
X122122D01*
Y8950D01*
D02*
G37*
G36*
X8751Y-2500D02*
X2500D01*
Y-8751D01*
X2646Y-8722D01*
X4297Y-8038D01*
X5782Y-7046D01*
X7046Y-5782D01*
X8038Y-4297D01*
X8722Y-2646D01*
X8751Y-2500D01*
D02*
G37*
G36*
X-2500D02*
X-8751D01*
X-8722Y-2646D01*
X-8038Y-4297D01*
X-7046Y-5782D01*
X-5782Y-7046D01*
X-4297Y-8038D01*
X-2646Y-8722D01*
X-2500Y-8751D01*
Y-2500D01*
D02*
G37*
G36*
X132572Y-1500D02*
X125122D01*
Y-8950D01*
X126268Y-8722D01*
X127919Y-8038D01*
X129404Y-7046D01*
X130668Y-5782D01*
X131660Y-4297D01*
X132344Y-2646D01*
X132572Y-1500D01*
D02*
G37*
G36*
X122122D02*
X114672D01*
X114900Y-2646D01*
X115584Y-4297D01*
X116576Y-5782D01*
X117840Y-7046D01*
X119325Y-8038D01*
X120976Y-8722D01*
X122122Y-8950D01*
Y-1500D01*
D02*
G37*
%LPD*%
D28*
X123622Y56004D02*
D03*
X0D02*
D03*
X123622Y0D02*
D03*
X0D02*
D03*
D29*
X80315Y40748D02*
D03*
Y20669D02*
D03*
X59842D02*
D03*
Y40748D02*
D03*
X75197D02*
D03*
X70079D02*
D03*
X64961D02*
D03*
X75197Y20669D02*
D03*
X70079D02*
D03*
X64961D02*
D03*
X64961Y30709D02*
D03*
X64961Y25689D02*
D03*
X70079Y30709D02*
D03*
X70079Y25689D02*
D03*
X75197Y30709D02*
D03*
X75197Y25689D02*
D03*
X80315D02*
D03*
X-9547Y30315D02*
D03*
X-10728Y47638D02*
D03*
X-10335Y9449D02*
D03*
X2264Y14567D02*
D03*
X91634Y13780D02*
D03*
X100689Y64173D02*
D03*
X41240Y59449D02*
D03*
X38484Y67323D02*
D03*
X59350Y66535D02*
D03*
X70768Y66929D02*
D03*
X88090Y64173D02*
D03*
X107382Y57480D02*
D03*
X104232Y31496D02*
D03*
X113681Y28740D02*
D03*
X132579Y30709D02*
D03*
X132972Y43307D02*
D03*
X134547Y9055D02*
D03*
X96752Y-11024D02*
D03*
X110138Y-7480D02*
D03*
X117618Y-11811D02*
D03*
X106890Y-11417D02*
D03*
X86122Y-11024D02*
D03*
X46358Y-11811D02*
D03*
X62894Y-5118D02*
D03*
X74705Y-9843D02*
D03*
X58169D02*
D03*
X49902Y394D02*
D03*
X40846Y-7874D02*
D03*
X23917Y-4724D02*
D03*
X31890Y-11417D02*
D03*
X13287Y-9449D02*
D03*
X16043Y19685D02*
D03*
X20374Y11417D02*
D03*
X17224Y394D02*
D03*
X-492Y26772D02*
D03*
X-8760Y20866D02*
D03*
X-8366Y39370D02*
D03*
X25098Y62992D02*
D03*
X14075Y64567D02*
D03*
X16043Y54724D02*
D03*
X18012Y46063D02*
D03*
X9350Y41732D02*
D03*
X16043Y37402D02*
D03*
X46752Y64173D02*
D03*
X35335Y50000D02*
D03*
X31791Y62598D02*
D03*
X26673Y51181D02*
D03*
X34154Y41339D02*
D03*
X42815Y40157D02*
D03*
X45965Y51968D02*
D03*
X55413Y60630D02*
D03*
X67224Y61024D02*
D03*
X79823Y59842D02*
D03*
X93996Y52756D02*
D03*
X105020Y46850D02*
D03*
X97539Y24016D02*
D03*
X114469Y38189D02*
D03*
X109744Y20472D02*
D03*
X101476Y14173D02*
D03*
X96358Y38189D02*
D03*
X105413Y394D02*
D03*
X101476Y-4724D02*
D03*
X95965D02*
D03*
X90059Y-4331D02*
D03*
X78642Y-3543D02*
D03*
X74311Y-2756D02*
D03*
X84547Y-3543D02*
D03*
X68405Y787D02*
D03*
Y7874D02*
D03*
X53445Y10236D02*
D03*
X46752Y18504D02*
D03*
X37303Y19291D02*
D03*
X30610Y20472D02*
D03*
X124906Y15197D02*
D03*
X29823Y33071D02*
D03*
Y27559D02*
D03*
X103681Y6240D02*
D03*
X24705Y27559D02*
D03*
Y33366D02*
D03*
X75197Y35728D02*
D03*
X70079D02*
D03*
X64961D02*
D03*
X59842D02*
D03*
Y30709D02*
D03*
Y25689D02*
D03*
X80315Y30709D02*
D03*
Y35728D02*
D03*
M02*
