G04*
G04 #@! TF.GenerationSoftware,Altium Limited,Altium Designer,22.3.1 (43)*
G04*
G04 Layer_Physical_Order=1*
G04 Layer_Color=255*
%FSLAX25Y25*%
%MOIN*%
G70*
G04*
G04 #@! TF.SameCoordinates,03762554-53E0-4DA3-B020-D50B0D98B1FC*
G04*
G04*
G04 #@! TF.FilePolarity,Positive*
G04*
G01*
G75*
%ADD13R,0.05118X0.03543*%
%ADD14R,0.05118X0.04331*%
%ADD15R,0.05118X0.03150*%
%ADD16R,0.24803X0.24016*%
%ADD17R,0.05906X0.11024*%
%ADD25C,0.01000*%
%ADD26C,0.03000*%
%ADD27C,0.00787*%
%ADD28C,0.16142*%
%ADD29C,0.02362*%
G36*
X125273Y71136D02*
X127748Y70542D01*
X130099Y69569D01*
X132269Y68239D01*
X134204Y66586D01*
X135857Y64651D01*
X137187Y62481D01*
X138161Y60130D01*
X138755Y57655D01*
X138947Y55217D01*
X138927Y55118D01*
Y253D01*
X138945Y161D01*
X138760Y-2185D01*
X138190Y-4563D01*
X137254Y-6822D01*
X135976Y-8907D01*
X134388Y-10766D01*
X132529Y-12354D01*
X130444Y-13632D01*
X128185Y-14568D01*
X125807Y-15138D01*
X123461Y-15323D01*
X123369Y-15305D01*
X79D01*
X-11Y-15323D01*
X-2332Y-15140D01*
X-4683Y-14576D01*
X-6916Y-13650D01*
X-8978Y-12387D01*
X-10817Y-10817D01*
X-12387Y-8978D01*
X-13650Y-6916D01*
X-14576Y-4683D01*
X-15140Y-2332D01*
X-15323Y-11D01*
X-15305Y79D01*
Y55986D01*
X-15323Y56075D01*
X-15141Y58386D01*
X-14578Y60728D01*
X-13657Y62953D01*
X-12398Y65007D01*
X-10834Y66838D01*
X-9003Y68402D01*
X-6949Y69661D01*
X-4724Y70582D01*
X-2383Y71145D01*
X-71Y71327D01*
X18Y71309D01*
X122736D01*
X122835Y71328D01*
X125273Y71136D01*
D02*
G37*
%LPC*%
G36*
X883Y64975D02*
X-883D01*
X-2617Y64630D01*
X-4249Y63954D01*
X-5719Y62972D01*
X-6968Y61722D01*
X-7950Y60253D01*
X-8626Y58621D01*
X-8971Y56888D01*
Y55120D01*
X-8626Y53387D01*
X-7950Y51755D01*
X-6968Y50285D01*
X-5719Y49036D01*
X-4249Y48054D01*
X-2617Y47378D01*
X-2447Y47344D01*
Y40551D01*
X-2261Y39615D01*
X-1730Y38821D01*
X8900Y28191D01*
X9693Y27661D01*
X10630Y27474D01*
X20841D01*
Y26476D01*
X20896Y26203D01*
X21050Y25972D01*
X23019Y24003D01*
X23250Y23848D01*
X23524Y23794D01*
X24065D01*
Y20079D01*
X24065Y20079D01*
X24173Y19533D01*
X24483Y19069D01*
X29466Y14086D01*
X29222Y13495D01*
X28139D01*
Y8946D01*
X34657D01*
Y13495D01*
X32825D01*
Y14173D01*
X32825Y14173D01*
X32716Y14719D01*
X32407Y15183D01*
X32407Y15183D01*
X26919Y20670D01*
Y23794D01*
X30413D01*
X30687Y23848D01*
X30918Y24003D01*
X33367Y26452D01*
X52460D01*
X56879Y22033D01*
Y18001D01*
X83082D01*
Y43417D01*
X56879D01*
Y39076D01*
X52317Y33785D01*
X33367Y33785D01*
X30721Y36430D01*
X30490Y36585D01*
X30217Y36639D01*
X23622D01*
X23349Y36585D01*
X23117Y36430D01*
X21050Y34363D01*
X20896Y34131D01*
X20841Y33858D01*
Y32368D01*
X11643D01*
X2447Y41565D01*
Y47344D01*
X2617Y47378D01*
X4249Y48054D01*
X5719Y49036D01*
X6968Y50285D01*
X7950Y51755D01*
X8626Y53387D01*
X8971Y55120D01*
Y56888D01*
X8626Y58621D01*
X7950Y60253D01*
X6968Y61722D01*
X5719Y62972D01*
X4249Y63954D01*
X2617Y64630D01*
X883Y64975D01*
D02*
G37*
G36*
X124506D02*
X122739D01*
X121005Y64630D01*
X119373Y63954D01*
X117903Y62972D01*
X116654Y61722D01*
X115672Y60253D01*
X114996Y58621D01*
X114651Y56888D01*
Y55120D01*
X114996Y53387D01*
X115672Y51755D01*
X116654Y50285D01*
X117903Y49036D01*
X119373Y48054D01*
X121005Y47378D01*
X121175Y47344D01*
Y24045D01*
X105817Y8687D01*
X105008D01*
X104332Y9363D01*
X104332Y9363D01*
X104101Y9518D01*
X103828Y9572D01*
X86122Y9572D01*
X85556Y10138D01*
Y10974D01*
X85502Y11248D01*
X85347Y11479D01*
X83692Y13135D01*
X83460Y13289D01*
X83187Y13344D01*
X74195D01*
X73922Y13289D01*
X73690Y13135D01*
X72133Y11577D01*
X71978Y11346D01*
X71924Y11073D01*
Y3100D01*
Y1821D01*
X71978Y1548D01*
X72133Y1316D01*
X74397Y-948D01*
X74628Y-1102D01*
X74902Y-1157D01*
X82579D01*
X82852Y-1102D01*
X83083Y-948D01*
X85347Y1316D01*
X85502Y1548D01*
X85556Y1821D01*
Y2559D01*
X86122Y3125D01*
X104232D01*
X104505Y3179D01*
X104737Y3334D01*
X105196Y3793D01*
X106831D01*
X107767Y3979D01*
X108561Y4510D01*
X125352Y21301D01*
X125883Y22095D01*
X126069Y23031D01*
Y47344D01*
X126239Y47378D01*
X127871Y48054D01*
X129341Y49036D01*
X130590Y50285D01*
X131572Y51755D01*
X132248Y53387D01*
X132593Y55120D01*
Y56888D01*
X132248Y58621D01*
X131572Y60253D01*
X130590Y61722D01*
X129341Y62972D01*
X127871Y63954D01*
X126239Y64630D01*
X124506Y64975D01*
D02*
G37*
G36*
X64878Y12614D02*
X61825D01*
Y7002D01*
X64878D01*
Y12614D01*
D02*
G37*
G36*
X60025D02*
X56972D01*
Y7002D01*
X60025D01*
Y12614D01*
D02*
G37*
G36*
X43318Y7196D02*
X36800D01*
Y5168D01*
X34657D01*
Y6015D01*
X28139D01*
Y1465D01*
X34657D01*
Y2313D01*
X36800D01*
Y1465D01*
X43318D01*
Y7196D01*
D02*
G37*
G36*
X2500Y8751D02*
Y2500D01*
X8751D01*
X8722Y2646D01*
X8038Y4297D01*
X7046Y5782D01*
X5782Y7046D01*
X4297Y8038D01*
X2646Y8722D01*
X2500Y8751D01*
D02*
G37*
G36*
X-2500D02*
X-2646Y8722D01*
X-4297Y8038D01*
X-5782Y7046D01*
X-7046Y5782D01*
X-8038Y4297D01*
X-8722Y2646D01*
X-8751Y2500D01*
X-2500D01*
Y8751D01*
D02*
G37*
G36*
X125122Y8950D02*
Y1500D01*
X132572D01*
X132344Y2646D01*
X131660Y4297D01*
X130668Y5782D01*
X129404Y7046D01*
X127919Y8038D01*
X126268Y8722D01*
X125122Y8950D01*
D02*
G37*
G36*
X122122D02*
X120976Y8722D01*
X119325Y8038D01*
X117840Y7046D01*
X116576Y5782D01*
X115584Y4297D01*
X114900Y2646D01*
X114672Y1500D01*
X122122D01*
Y8950D01*
D02*
G37*
G36*
X64878Y5202D02*
X61825D01*
Y-410D01*
X64878D01*
Y5202D01*
D02*
G37*
G36*
X60025D02*
X56972D01*
Y-410D01*
X60025D01*
Y5202D01*
D02*
G37*
G36*
X8751Y-2500D02*
X2500D01*
Y-8751D01*
X2646Y-8722D01*
X4297Y-8038D01*
X5782Y-7046D01*
X7046Y-5782D01*
X8038Y-4297D01*
X8722Y-2646D01*
X8751Y-2500D01*
D02*
G37*
G36*
X-2500D02*
X-8751D01*
X-8722Y-2646D01*
X-8038Y-4297D01*
X-7046Y-5782D01*
X-5782Y-7046D01*
X-4297Y-8038D01*
X-2646Y-8722D01*
X-2500Y-8751D01*
Y-2500D01*
D02*
G37*
G36*
X132572Y-1500D02*
X125122D01*
Y-8950D01*
X126268Y-8722D01*
X127919Y-8038D01*
X129404Y-7046D01*
X130668Y-5782D01*
X131660Y-4297D01*
X132344Y-2646D01*
X132572Y-1500D01*
D02*
G37*
G36*
X122122D02*
X114672D01*
X114900Y-2646D01*
X115584Y-4297D01*
X116576Y-5782D01*
X117840Y-7046D01*
X119325Y-8038D01*
X120976Y-8722D01*
X122122Y-8950D01*
Y-1500D01*
D02*
G37*
%LPD*%
G36*
X57677Y22244D02*
X52756Y27165D01*
X33071D01*
X30413Y24508D01*
X23524D01*
X21555Y26476D01*
Y33858D01*
X23622Y35925D01*
X30217D01*
X33071Y33071D01*
X52644Y33071D01*
X57677Y38909D01*
X57677Y22244D01*
D02*
G37*
G36*
X84842Y10974D02*
Y9843D01*
X85827Y8858D01*
X103828Y8858D01*
X105217Y7469D01*
X105217Y4823D01*
X104232Y3839D01*
X85827D01*
X84842Y2854D01*
Y1821D01*
X82579Y-443D01*
X74902D01*
X72638Y1821D01*
Y3100D01*
Y11073D01*
X74195Y12630D01*
X83187D01*
X84842Y10974D01*
D02*
G37*
D13*
X37279Y29673D02*
D03*
Y24555D02*
D03*
X46279D02*
D03*
Y29673D02*
D03*
X98787Y1122D02*
D03*
Y6240D02*
D03*
X90787Y6299D02*
D03*
Y1181D02*
D03*
D14*
X40059Y13386D02*
D03*
Y4331D02*
D03*
D15*
X31398Y3740D02*
D03*
Y11220D02*
D03*
D16*
X69980Y30709D02*
D03*
D17*
X79035Y6102D02*
D03*
X60925D02*
D03*
D25*
X25492Y20079D02*
Y26403D01*
X24705Y27190D02*
Y29921D01*
X25492Y20079D02*
X31398Y14173D01*
X24705Y27190D02*
X25492Y26403D01*
X31398Y3740D02*
X39469D01*
X31398Y11220D02*
Y14173D01*
D26*
X123622Y23031D02*
Y56004D01*
X106831Y6240D02*
X123622Y23031D01*
X103681Y6240D02*
X106831D01*
X0Y40551D02*
Y56004D01*
X24705Y29921D02*
X26673D01*
X10630D02*
X24705D01*
X98787Y6240D02*
X103681D01*
X0Y40551D02*
X10630Y29921D01*
D27*
X0Y0D02*
Y2067D01*
D28*
X123622Y56004D02*
D03*
X0D02*
D03*
X123622Y0D02*
D03*
X0D02*
D03*
D29*
X80315Y40748D02*
D03*
Y20669D02*
D03*
X59842D02*
D03*
Y40748D02*
D03*
X75197D02*
D03*
X70079D02*
D03*
X64961D02*
D03*
X75197Y20669D02*
D03*
X70079D02*
D03*
X64961D02*
D03*
X64961Y30709D02*
D03*
X64961Y25689D02*
D03*
X70079Y30709D02*
D03*
X70079Y25689D02*
D03*
X75197Y30709D02*
D03*
X75197Y25689D02*
D03*
X80315D02*
D03*
X-9547Y30315D02*
D03*
X-10728Y47638D02*
D03*
X-10335Y9449D02*
D03*
X2264Y14567D02*
D03*
X91634Y13780D02*
D03*
X100689Y64173D02*
D03*
X41240Y59449D02*
D03*
X38484Y67323D02*
D03*
X59350Y66535D02*
D03*
X70768Y66929D02*
D03*
X88090Y64173D02*
D03*
X107382Y57480D02*
D03*
X104232Y31496D02*
D03*
X113681Y28740D02*
D03*
X132579Y30709D02*
D03*
X132972Y43307D02*
D03*
X134547Y9055D02*
D03*
X96752Y-11024D02*
D03*
X110138Y-7480D02*
D03*
X117618Y-11811D02*
D03*
X106890Y-11417D02*
D03*
X86122Y-11024D02*
D03*
X46358Y-11811D02*
D03*
X62894Y-5118D02*
D03*
X74705Y-9843D02*
D03*
X58169D02*
D03*
X49902Y394D02*
D03*
X40846Y-7874D02*
D03*
X23917Y-4724D02*
D03*
X31890Y-11417D02*
D03*
X13287Y-9449D02*
D03*
X16043Y19685D02*
D03*
X20374Y11417D02*
D03*
X17224Y394D02*
D03*
X-492Y26772D02*
D03*
X-8760Y20866D02*
D03*
X-8366Y39370D02*
D03*
X25098Y62992D02*
D03*
X14075Y64567D02*
D03*
X16043Y54724D02*
D03*
X18012Y46063D02*
D03*
X9350Y41732D02*
D03*
X16043Y37402D02*
D03*
X46752Y64173D02*
D03*
X35335Y50000D02*
D03*
X31791Y62598D02*
D03*
X26673Y51181D02*
D03*
X34154Y41339D02*
D03*
X42815Y40157D02*
D03*
X45965Y51968D02*
D03*
X55413Y60630D02*
D03*
X67224Y61024D02*
D03*
X79823Y59842D02*
D03*
X93996Y52756D02*
D03*
X105020Y46850D02*
D03*
X97539Y24016D02*
D03*
X114469Y38189D02*
D03*
X109744Y20472D02*
D03*
X101476Y14173D02*
D03*
X96358Y38189D02*
D03*
X105413Y394D02*
D03*
X101476Y-4724D02*
D03*
X95965D02*
D03*
X90059Y-4331D02*
D03*
X78642Y-3543D02*
D03*
X74311Y-2756D02*
D03*
X84547Y-3543D02*
D03*
X68405Y787D02*
D03*
Y7874D02*
D03*
X53445Y10236D02*
D03*
X46752Y18504D02*
D03*
X37303Y19291D02*
D03*
X30610Y20472D02*
D03*
X124906Y15197D02*
D03*
X29823Y33071D02*
D03*
Y27559D02*
D03*
X103681Y6240D02*
D03*
X24705Y27559D02*
D03*
Y33366D02*
D03*
X75197Y35728D02*
D03*
X70079D02*
D03*
X64961D02*
D03*
X59842D02*
D03*
Y30709D02*
D03*
Y25689D02*
D03*
X80315Y30709D02*
D03*
Y35728D02*
D03*
M02*
