%FSLAX44Y44*%
%MOMM*%
G71*
G01*
G75*
G04 Layer_Color=32896*
%ADD10C,0.3500*%
%ADD11R,1.6000X3.9000*%
%ADD12R,5.2000X5.2000*%
%ADD13R,0.6000X0.2500*%
%ADD14R,0.2500X0.6000*%
%ADD15R,0.5000X0.6000*%
%ADD16R,0.2500X0.5000*%
%ADD17R,2.4000X0.8400*%
%ADD18R,3.4000X4.0000*%
%ADD19R,0.9000X0.4500*%
%ADD20R,0.6000X0.5000*%
%ADD21R,0.5000X0.5000*%
%ADD22R,0.5000X0.5000*%
%ADD23R,0.8000X0.8000*%
%ADD24R,0.7500X1.4000*%
%ADD25R,0.8000X0.8000*%
%ADD26R,1.8288X3.4290*%
%ADD27R,3.4290X1.8288*%
%ADD28R,0.9000X1.6000*%
%ADD29R,1.6000X0.9000*%
%ADD30R,1.2000X0.5800*%
%ADD31C,1.0160*%
%ADD32C,0.4000*%
%ADD33C,0.6350*%
%ADD34R,0.7000X0.9000*%
%ADD35C,0.0930*%
%ADD36C,0.3000*%
%ADD37C,0.0900*%
%ADD38C,0.2500*%
%ADD39C,0.4000*%
%ADD40C,0.1010*%
%ADD41C,0.2000*%
%ADD42C,0.5000*%
%ADD43C,0.7000*%
%ADD44C,5.0000*%
%ADD45C,0.2700*%
%ADD46C,0.4500*%
%ADD47C,0.1000*%
%ADD48C,3.6830*%
%ADD49C,0.0800*%
%ADD50C,0.6000*%
%ADD51C,0.8000*%
%ADD52C,0.0850*%
%ADD53C,1.2500*%
%ADD54R,1.9000X2.6000*%
%ADD55R,0.2800X2.2700*%
%ADD56R,2.5400X0.4300*%
%ADD57R,4.7000X0.4300*%
%ADD58R,1.3000X0.9000*%
%ADD59R,0.9000X1.3000*%
%ADD60R,0.5588X0.6858*%
%ADD61R,0.9000X0.7000*%
%ADD62R,1.8000X1.1250*%
%ADD63R,0.4800X0.2300*%
%ADD64R,0.4000X1.1900*%
%ADD65R,0.9000X1.1900*%
%ADD66R,3.3000X3.3000*%
%ADD67R,0.6000X0.2300*%
%ADD68R,0.2300X0.6000*%
%ADD69R,2.6000X1.9000*%
%ADD70R,1.0000X0.5500*%
%ADD71R,0.5500X1.0000*%
%ADD72C,0.3500*%
%ADD73C,0.2800*%
%ADD74C,0.2200*%
%ADD75C,0.4500*%
%ADD76C,0.1500*%
%ADD77C,0.2540*%
%ADD78C,0.1270*%
%ADD79R,2.4000X2.4000*%
%ADD80R,5.2508X5.2508*%
%ADD81R,0.6600X0.3100*%
%ADD82R,0.3100X0.6600*%
%ADD83R,0.7032X0.8032*%
%ADD84R,0.3900X0.6400*%
%ADD85R,2.5400X0.9800*%
%ADD86R,3.6032X4.2032*%
%ADD87R,1.1032X0.6532*%
%ADD88R,0.8032X0.7032*%
%ADD89R,0.7032X0.7032*%
%ADD90R,0.7032X0.7032*%
%ADD91R,1.0032X1.0032*%
%ADD92R,0.9532X1.6032*%
%ADD93R,1.0032X1.0032*%
%ADD94R,2.0320X3.6322*%
%ADD95R,3.6322X2.0320*%
%ADD96R,1.1032X1.8032*%
%ADD97R,1.8032X1.1032*%
%ADD98R,1.4032X0.7832*%
%ADD99C,1.3160*%
%ADD100C,0.5000*%
%ADD101C,0.7366*%
%ADD102R,0.9032X1.1032*%
%ADD103C,5.2032*%
%ADD104C,0.2032*%
%ADD105R,2.1032X2.8032*%
%ADD106R,0.3816X2.3716*%
%ADD107R,2.6924X0.5824*%
%ADD108R,4.8524X0.5824*%
%ADD109R,1.5032X1.1032*%
%ADD110R,1.1032X1.5032*%
%ADD111R,0.7112X0.8382*%
%ADD112R,1.1032X0.9032*%
%ADD113R,1.8508X1.1758*%
%ADD114R,0.6324X0.3824*%
%ADD115R,0.5524X1.3424*%
%ADD116R,0.9508X1.2408*%
%ADD117R,3.4016X3.4016*%
%ADD118R,0.7016X0.3316*%
%ADD119R,0.3316X0.7016*%
%ADD120R,2.8032X2.1032*%
%ADD121R,1.2032X0.7532*%
%ADD122R,0.7532X1.2032*%
%ADD123R,1.4000X1.4000*%
G36*
X395280Y136000D02*
X395000D01*
Y151500D01*
X410780D01*
X395280Y136000D01*
D02*
G37*
G36*
Y356000D02*
X395000D01*
Y371500D01*
X410780D01*
X395280Y356000D01*
D02*
G37*
D39*
X104000Y79000D02*
Y83000D01*
D41*
X395000Y135720D02*
X410780Y151500D01*
X605000Y28500D02*
Y151500D01*
X395000D02*
X605000D01*
X395000Y28500D02*
Y151500D01*
Y28500D02*
X605000D01*
X395000Y355720D02*
X410780Y371500D01*
X605000Y248500D02*
Y371500D01*
X395000D02*
X605000D01*
X395000Y248500D02*
Y371500D01*
Y248500D02*
X605000D01*
X83500Y296500D02*
X151500D01*
Y260500D02*
Y296500D01*
X83500Y260500D02*
X151500D01*
X83500D02*
Y296500D01*
X256750Y284750D02*
Y296750D01*
X236750D02*
X256750D01*
X236750Y284750D02*
Y296750D01*
Y284750D02*
X256750D01*
X94000Y36000D02*
X114000D01*
X94000D02*
Y48000D01*
X114000D01*
Y36000D02*
Y48000D01*
X516000Y16000D02*
Y26000D01*
X536000D01*
Y16000D02*
Y26000D01*
X516000Y16000D02*
X536000D01*
X188000Y205000D02*
Y219000D01*
X160000D02*
X188000D01*
X160000Y205000D02*
Y219000D01*
Y205000D02*
X188000D01*
X320000Y131000D02*
X340000D01*
X320000Y121000D02*
Y131000D01*
Y121000D02*
X340000D01*
Y131000D01*
X68000Y240000D02*
X88000D01*
X68000D02*
Y252000D01*
X88000D01*
Y240000D02*
Y252000D01*
X62500Y254000D02*
Y266000D01*
Y254000D02*
X82500D01*
Y266000D01*
X62500D02*
X82500D01*
X149000Y112000D02*
X161000D01*
Y132000D01*
X149000D02*
X161000D01*
X149000Y112000D02*
Y132000D01*
X128000Y42000D02*
Y62000D01*
X140000D01*
Y42000D02*
Y62000D01*
X128000Y42000D02*
X140000D01*
X85000Y113000D02*
Y125000D01*
X65000D02*
X85000D01*
X65000Y113000D02*
Y125000D01*
Y113000D02*
X85000D01*
X310000Y290000D02*
X330000D01*
Y278000D02*
Y290000D01*
X310000Y278000D02*
X330000D01*
X310000D02*
Y290000D01*
X222000Y269000D02*
X236000D01*
Y297000D01*
X222000D02*
X236000D01*
X222000Y269000D02*
Y297000D01*
X315000Y219000D02*
X343000D01*
Y205000D02*
Y219000D01*
X315000Y205000D02*
X343000D01*
X315000D02*
Y219000D01*
X172000Y54300D02*
X202530Y84830D01*
X172000Y48000D02*
Y54300D01*
X357470Y84830D02*
X388000Y54300D01*
Y48000D02*
Y54300D01*
X357470Y11170D02*
X388000D01*
X172000D02*
X202530D01*
X174590Y84830D02*
X202530D01*
X357470D02*
X385000D01*
X388000Y11170D02*
Y68000D01*
X172000Y11170D02*
Y68000D01*
X252000Y93000D02*
Y103000D01*
X232000Y93000D02*
X252000D01*
X232000D02*
Y103000D01*
X252000D01*
X495000Y154000D02*
X515000D01*
Y164000D01*
X495000D02*
X515000D01*
X495000Y154000D02*
Y164000D01*
X342000Y122000D02*
X362000D01*
X342000Y112000D02*
Y122000D01*
Y112000D02*
X362000D01*
Y122000D01*
X495000Y236000D02*
Y246000D01*
X515000D01*
Y236000D02*
Y246000D01*
X495000Y236000D02*
X515000D01*
X427000Y26000D02*
X447000D01*
X427000Y16000D02*
Y26000D01*
Y16000D02*
X447000D01*
Y26000D01*
X471000Y16000D02*
Y26000D01*
X491000D01*
Y16000D02*
Y26000D01*
X471000Y16000D02*
X491000D01*
X449000D02*
X469000D01*
Y26000D01*
X449000D02*
X469000D01*
X449000Y16000D02*
Y26000D01*
X558000Y16000D02*
Y26000D01*
X538000Y16000D02*
X558000D01*
X538000D02*
Y26000D01*
X558000D01*
X580000Y374000D02*
Y384000D01*
X560000Y374000D02*
X580000D01*
X560000D02*
Y384000D01*
X580000D01*
X449000Y374000D02*
X469000D01*
Y384000D01*
X449000D02*
X469000D01*
X449000Y374000D02*
Y384000D01*
X427000Y374000D02*
Y384000D01*
X447000D01*
Y374000D02*
Y384000D01*
X427000Y374000D02*
X447000D01*
X538000Y384000D02*
X558000D01*
X538000Y374000D02*
Y384000D01*
Y374000D02*
X558000D01*
Y384000D01*
X471000Y374000D02*
Y384000D01*
X491000D01*
Y374000D02*
Y384000D01*
X471000Y374000D02*
X491000D01*
X385000Y236000D02*
X405000D01*
Y246000D01*
X385000D02*
X405000D01*
X385000Y236000D02*
Y246000D01*
X580000Y16000D02*
Y26000D01*
X560000Y16000D02*
X580000D01*
X560000D02*
Y26000D01*
X580000D01*
X538000Y164000D02*
X558000D01*
X538000Y154000D02*
Y164000D01*
Y154000D02*
X558000D01*
Y164000D01*
X407000Y154000D02*
Y164000D01*
X427000D01*
Y154000D02*
Y164000D01*
X407000Y154000D02*
X427000D01*
X451000D02*
X471000D01*
Y164000D01*
X451000D02*
X471000D01*
X451000Y154000D02*
Y164000D01*
X429000Y154000D02*
Y164000D01*
X449000D01*
Y154000D02*
Y164000D01*
X429000Y154000D02*
X449000D01*
X385000D02*
X405000D01*
Y164000D01*
X385000D02*
X405000D01*
X385000Y154000D02*
Y164000D01*
X407000Y236000D02*
Y246000D01*
X427000D01*
Y236000D02*
Y246000D01*
X407000Y236000D02*
X427000D01*
X451000D02*
X471000D01*
Y246000D01*
X451000D02*
X471000D01*
X451000Y236000D02*
Y246000D01*
X429000Y236000D02*
Y246000D01*
X449000D01*
Y236000D02*
Y246000D01*
X429000Y236000D02*
X449000D01*
X538000Y246000D02*
X558000D01*
X538000Y236000D02*
Y246000D01*
Y236000D02*
X558000D01*
Y246000D01*
X210000Y127000D02*
X220000D01*
X210000D02*
Y147000D01*
X220000D01*
Y127000D02*
Y147000D01*
X224000Y159000D02*
X244000D01*
X224000Y149000D02*
Y159000D01*
Y149000D02*
X244000D01*
Y159000D01*
X208000Y127000D02*
Y147000D01*
X198000D02*
X208000D01*
X198000Y127000D02*
Y147000D01*
Y127000D02*
X208000D01*
X192000Y207000D02*
X212000D01*
Y217000D01*
X192000D02*
X212000D01*
X192000Y207000D02*
Y217000D01*
X192000Y177000D02*
X202000D01*
X192000D02*
Y197000D01*
X202000D01*
Y177000D02*
Y197000D01*
X222000Y307000D02*
X242000D01*
X222000Y297000D02*
Y307000D01*
Y297000D02*
X242000D01*
Y307000D01*
X234000Y129000D02*
X244000D01*
X234000D02*
Y149000D01*
X244000D01*
Y129000D02*
Y149000D01*
X272000Y119000D02*
Y139000D01*
X262000D02*
X272000D01*
X262000Y119000D02*
Y139000D01*
Y119000D02*
X272000D01*
X308000D02*
X318000D01*
X308000D02*
Y139000D01*
X318000D01*
Y119000D02*
Y139000D01*
X176000Y159000D02*
Y169000D01*
X196000D01*
Y159000D02*
Y169000D01*
X176000Y159000D02*
X196000D01*
X173000Y132000D02*
Y160000D01*
X159000Y132000D02*
X173000D01*
X159000D02*
Y160000D01*
X173000D01*
X180000Y149000D02*
X200000D01*
Y159000D01*
X180000D02*
X200000D01*
X180000Y149000D02*
Y159000D01*
X158000Y169000D02*
Y179000D01*
X178000D01*
Y169000D02*
Y179000D01*
X158000Y169000D02*
X178000D01*
X665000Y63000D02*
Y83000D01*
X655000D02*
X665000D01*
X655000Y63000D02*
Y83000D01*
Y63000D02*
X665000D01*
X609000D02*
X619000D01*
X609000D02*
Y83000D01*
X619000D01*
Y63000D02*
Y83000D01*
X54000Y63000D02*
Y83000D01*
Y63000D02*
X64000D01*
Y83000D01*
X54000D02*
X64000D01*
X250000Y149000D02*
X260000D01*
X250000D02*
Y169000D01*
X260000D01*
Y149000D02*
Y169000D01*
X246000Y179000D02*
X266000D01*
X246000Y169000D02*
Y179000D01*
Y169000D02*
X266000D01*
Y179000D01*
X216000Y218000D02*
X226000D01*
Y198000D02*
Y218000D01*
X216000Y198000D02*
X226000D01*
X216000D02*
Y218000D01*
X232000Y199000D02*
Y219000D01*
Y199000D02*
X242000D01*
Y219000D01*
X232000D02*
X242000D01*
X248000Y199000D02*
X258000D01*
X248000D02*
Y219000D01*
X258000D01*
Y199000D02*
Y219000D01*
X264000Y201000D02*
Y221000D01*
Y201000D02*
X274000D01*
Y221000D01*
X264000D02*
X274000D01*
X294000Y143000D02*
X308000D01*
X294000Y115000D02*
Y143000D01*
Y115000D02*
X308000D01*
Y143000D01*
X278000Y221000D02*
X288000D01*
Y201000D02*
Y221000D01*
X278000Y201000D02*
X288000D01*
X278000D02*
Y221000D01*
X192000Y197000D02*
X212000D01*
Y207000D01*
X192000D02*
X212000D01*
X192000Y197000D02*
Y207000D01*
X248000Y179000D02*
X258000D01*
X248000D02*
Y199000D01*
X258000D01*
Y179000D02*
Y199000D01*
X224000Y179000D02*
X244000D01*
X224000Y169000D02*
Y179000D01*
Y169000D02*
X244000D01*
Y179000D01*
X160000Y191000D02*
X188000D01*
X160000D02*
Y205000D01*
X188000D01*
Y191000D02*
Y205000D01*
X308000Y181000D02*
Y191000D01*
X288000Y181000D02*
X308000D01*
X288000D02*
Y191000D01*
X308000D01*
X224000Y178000D02*
Y198000D01*
X214000D02*
X224000D01*
X214000Y178000D02*
Y198000D01*
Y178000D02*
X224000D01*
X234000Y179000D02*
X244000D01*
X234000D02*
Y199000D01*
X244000D01*
Y179000D02*
Y199000D01*
X278000Y181000D02*
Y201000D01*
Y181000D02*
X288000D01*
Y201000D01*
X278000D02*
X288000D01*
X294000Y181000D02*
X308000D01*
X294000Y153000D02*
Y181000D01*
Y153000D02*
X308000D01*
Y181000D01*
X262000Y141000D02*
X272000D01*
X262000D02*
Y161000D01*
X272000D01*
Y141000D02*
Y161000D01*
X282000Y141000D02*
Y161000D01*
X272000D02*
X282000D01*
X272000Y141000D02*
Y161000D01*
Y141000D02*
X282000D01*
X282000D02*
X292000D01*
X282000D02*
Y161000D01*
X292000D01*
Y141000D02*
Y161000D01*
X293000Y153000D02*
X313000D01*
X293000Y143000D02*
Y153000D01*
Y143000D02*
X313000D01*
Y153000D01*
X314000Y191000D02*
Y201000D01*
X294000Y191000D02*
X314000D01*
X294000D02*
Y201000D01*
X314000D01*
X272000Y221000D02*
X292000D01*
Y231000D01*
X272000D02*
X292000D01*
X272000Y221000D02*
Y231000D01*
X294000Y235000D02*
X304000D01*
Y215000D02*
Y235000D01*
X294000Y215000D02*
X304000D01*
X294000D02*
Y235000D01*
X288000Y161000D02*
Y181000D01*
X278000D02*
X288000D01*
X278000Y161000D02*
Y181000D01*
Y161000D02*
X288000D01*
X266000D02*
X276000D01*
X266000D02*
Y181000D01*
X276000D01*
Y161000D02*
Y181000D01*
X293000Y215000D02*
X313000D01*
X293000Y205000D02*
Y215000D01*
Y205000D02*
X313000D01*
Y215000D01*
X292000Y245000D02*
Y255000D01*
X272000Y245000D02*
X292000D01*
X272000D02*
Y255000D01*
X292000D01*
X262000Y221000D02*
Y241000D01*
Y221000D02*
X272000D01*
Y241000D01*
X262000D02*
X272000D01*
Y231000D02*
Y241000D01*
X292000D01*
Y231000D02*
Y241000D01*
X272000Y231000D02*
X292000D01*
X214000Y239000D02*
Y259000D01*
Y239000D02*
X224000D01*
Y259000D01*
X214000D02*
X224000D01*
X232000Y219000D02*
X242000D01*
X232000D02*
Y239000D01*
X242000D01*
Y219000D02*
Y239000D01*
X258000Y219000D02*
Y239000D01*
X248000D02*
X258000D01*
X248000Y219000D02*
Y239000D01*
Y219000D02*
X258000D01*
X222000Y260000D02*
Y270000D01*
X202000Y260000D02*
X222000D01*
X202000D02*
Y270000D01*
X222000D01*
X226000Y218000D02*
Y238000D01*
X216000D02*
X226000D01*
X216000Y218000D02*
Y238000D01*
Y218000D02*
X226000D01*
X192000Y295000D02*
X220000D01*
Y281000D02*
Y295000D01*
X192000Y281000D02*
X220000D01*
X192000D02*
Y295000D01*
X155000Y271000D02*
X169000D01*
X155000Y243000D02*
Y271000D01*
Y243000D02*
X169000D01*
Y271000D01*
X278000Y256000D02*
Y284000D01*
X292000D01*
Y256000D02*
Y284000D01*
X278000Y256000D02*
X292000D01*
X262000Y261000D02*
X272000D01*
Y241000D02*
Y261000D01*
X262000Y241000D02*
X272000D01*
X262000D02*
Y261000D01*
X224000Y247000D02*
Y267000D01*
Y247000D02*
X234000D01*
Y267000D01*
X224000D02*
X234000D01*
X202000Y270000D02*
Y280000D01*
X222000D01*
Y270000D02*
Y280000D01*
X202000Y270000D02*
X222000D01*
X248000Y239000D02*
Y259000D01*
Y239000D02*
X258000D01*
Y259000D01*
X248000D02*
X258000D01*
X234000D02*
X244000D01*
Y239000D02*
Y259000D01*
X234000Y239000D02*
X244000D01*
X234000D02*
Y259000D01*
X224000Y169000D02*
X244000D01*
X224000Y159000D02*
Y169000D01*
Y159000D02*
X244000D01*
Y169000D01*
X137840Y180220D02*
X158160D01*
Y215780D01*
X137840D02*
X158160D01*
X137840Y180220D02*
Y215780D01*
X264000Y181000D02*
X274000D01*
X264000D02*
Y201000D01*
X274000D01*
Y181000D02*
Y201000D01*
X200000Y175000D02*
X220000D01*
X200000Y165000D02*
Y175000D01*
Y165000D02*
X220000D01*
Y175000D01*
X178000Y190000D02*
X188000D01*
Y170000D02*
Y190000D01*
X178000Y170000D02*
X188000D01*
X178000D02*
Y190000D01*
X157160Y140220D02*
Y175780D01*
X136840Y140220D02*
X157160D01*
X136840D02*
Y175780D01*
X157160D01*
X212000Y175000D02*
Y195000D01*
X202000D02*
X212000D01*
X202000Y175000D02*
Y195000D01*
Y175000D02*
X212000D01*
X200000Y149000D02*
Y159000D01*
X220000D01*
Y149000D02*
Y159000D01*
X200000Y149000D02*
X220000D01*
X257000Y261000D02*
Y281000D01*
Y261000D02*
X267000D01*
Y281000D01*
X257000D02*
X267000D01*
X274000Y119000D02*
X284000D01*
X274000D02*
Y139000D01*
X284000D01*
Y119000D02*
Y139000D01*
X247000Y261000D02*
Y281000D01*
Y261000D02*
X257000D01*
Y281000D01*
X247000D02*
X257000D01*
X292220Y93840D02*
Y114160D01*
Y93840D02*
X327780D01*
Y114160D01*
X292220D02*
X327780D01*
X157840Y271220D02*
Y306780D01*
X178160D01*
Y271220D02*
Y306780D01*
X157840Y271220D02*
X178160D01*
X246000Y129000D02*
X256000D01*
X246000D02*
Y149000D01*
X256000D01*
Y129000D02*
Y149000D01*
X196000Y129000D02*
Y149000D01*
X186000D02*
X196000D01*
X186000Y129000D02*
Y149000D01*
Y129000D02*
X196000D01*
X161000Y115000D02*
X189000D01*
X161000D02*
Y129000D01*
X189000D01*
Y115000D02*
Y129000D01*
X191000Y249000D02*
X211000D01*
Y259000D01*
X191000D02*
X211000D01*
X191000Y249000D02*
Y259000D01*
X169000Y259000D02*
X179000D01*
Y239000D02*
Y259000D01*
X169000Y239000D02*
X179000D01*
X169000D02*
Y259000D01*
X192000Y227000D02*
X212000D01*
Y237000D01*
X192000D02*
X212000D01*
X192000Y227000D02*
Y237000D01*
X267000Y281000D02*
X277000D01*
Y261000D02*
Y281000D01*
X267000Y261000D02*
X277000D01*
X267000D02*
Y281000D01*
X292780Y284840D02*
Y305160D01*
X257220D02*
X292780D01*
X257220Y284840D02*
Y305160D01*
Y284840D02*
X292780D01*
X304000Y231000D02*
Y251000D01*
Y231000D02*
X314000D01*
Y251000D01*
X304000D02*
X314000D01*
X331000Y161000D02*
Y171000D01*
X311000Y161000D02*
X331000D01*
X311000D02*
Y171000D01*
X331000D01*
X294000Y237000D02*
Y257000D01*
Y237000D02*
X304000D01*
Y257000D01*
X294000D02*
X304000D01*
X294000Y281000D02*
X304000D01*
Y261000D02*
Y281000D01*
X294000Y261000D02*
X304000D01*
X294000D02*
Y281000D01*
X324000Y141000D02*
Y161000D01*
X314000D02*
X324000D01*
X314000Y141000D02*
Y161000D01*
Y141000D02*
X324000D01*
X331000Y173000D02*
Y183000D01*
X311000Y173000D02*
X331000D01*
X311000D02*
Y183000D01*
X331000D01*
X294000Y119000D02*
Y139000D01*
X284000D02*
X294000D01*
X284000Y119000D02*
Y139000D01*
Y119000D02*
X294000D01*
X192000Y217000D02*
Y227000D01*
X212000D01*
Y217000D02*
Y227000D01*
X192000Y217000D02*
X212000D01*
X191000Y237000D02*
X211000D01*
Y247000D01*
X191000D02*
X211000D01*
X191000Y237000D02*
Y247000D01*
X237000Y281000D02*
X247000D01*
Y261000D02*
Y281000D01*
X237000Y261000D02*
X247000D01*
X237000D02*
Y281000D01*
X304000Y264000D02*
X324000D01*
X304000Y254000D02*
Y264000D01*
Y254000D02*
X324000D01*
Y264000D01*
X325000Y221000D02*
Y231000D01*
X305000Y221000D02*
X325000D01*
X305000D02*
Y231000D01*
X325000D01*
X314000Y193000D02*
X334000D01*
X314000Y183000D02*
Y193000D01*
Y183000D02*
X334000D01*
Y193000D01*
Y193000D02*
Y203000D01*
X314000Y193000D02*
X334000D01*
X314000D02*
Y203000D01*
X334000D01*
X325000Y234000D02*
X345000D01*
X325000Y224000D02*
Y234000D01*
Y224000D02*
X345000D01*
Y234000D01*
X343000Y189000D02*
Y203000D01*
Y189000D02*
X371000D01*
Y203000D01*
X343000D02*
X371000D01*
X304000Y278000D02*
X332000D01*
Y264000D02*
Y278000D01*
X304000Y264000D02*
X332000D01*
X304000D02*
Y278000D01*
X222000Y127000D02*
X232000D01*
X222000D02*
Y147000D01*
X232000D01*
Y127000D02*
Y147000D01*
X134000Y307000D02*
X154000D01*
X134000Y297000D02*
Y307000D01*
Y297000D02*
X154000D01*
Y307000D01*
X112000Y297000D02*
Y307000D01*
X132000D01*
Y297000D02*
Y307000D01*
X112000Y297000D02*
X132000D01*
X10000Y289000D02*
Y303000D01*
Y289000D02*
X38000D01*
Y303000D01*
X10000D02*
X38000D01*
X43000Y326000D02*
Y354000D01*
X57000D01*
Y326000D02*
Y354000D01*
X43000Y326000D02*
X57000D01*
X53000Y304000D02*
Y324000D01*
X43000D02*
X53000D01*
X43000Y304000D02*
Y324000D01*
Y304000D02*
X53000D01*
X81000Y370000D02*
Y384000D01*
X53000D02*
X81000D01*
X53000Y370000D02*
Y384000D01*
Y370000D02*
X81000D01*
X56000Y385000D02*
Y395000D01*
X76000D01*
Y385000D02*
Y395000D01*
X56000Y385000D02*
X76000D01*
X102000Y309000D02*
Y329000D01*
Y309000D02*
X112000D01*
Y329000D01*
X102000D02*
X112000D01*
X104000Y346000D02*
Y356000D01*
X84000Y346000D02*
X104000D01*
X84000D02*
Y356000D01*
X104000D01*
X84000Y363000D02*
Y383000D01*
Y363000D02*
X94000D01*
Y383000D01*
X84000D02*
X94000D01*
X148000Y372000D02*
X158000D01*
X148000D02*
Y392000D01*
X158000D01*
Y372000D02*
Y392000D01*
X117000Y347000D02*
X145000D01*
X117000D02*
Y361000D01*
X145000D01*
Y347000D02*
Y361000D01*
X148000Y352000D02*
X168000D01*
Y362000D01*
X148000D02*
X168000D01*
X148000Y352000D02*
Y362000D01*
X148000Y339000D02*
Y349000D01*
X168000D01*
Y339000D02*
Y349000D01*
X148000Y339000D02*
X168000D01*
X148000Y362000D02*
X168000D01*
Y372000D01*
X148000D02*
X168000D01*
X148000Y362000D02*
Y372000D01*
X155000Y329000D02*
X165000D01*
Y309000D02*
Y329000D01*
X155000Y309000D02*
X165000D01*
X155000D02*
Y329000D01*
X117000Y333000D02*
Y347000D01*
Y333000D02*
X145000D01*
Y347000D01*
X117000D02*
X145000D01*
X135000Y310000D02*
Y330000D01*
Y310000D02*
X145000D01*
Y330000D01*
X135000D02*
X145000D01*
X122000D02*
X132000D01*
Y310000D02*
Y330000D01*
X122000Y310000D02*
X132000D01*
X122000D02*
Y330000D01*
X77000Y345000D02*
X105000D01*
Y331000D02*
Y345000D01*
X77000Y331000D02*
X105000D01*
X77000D02*
Y345000D01*
X82000Y320000D02*
X102000D01*
X82000Y310000D02*
Y320000D01*
Y310000D02*
X102000D01*
Y320000D01*
X137000Y372000D02*
X147000D01*
X137000D02*
Y392000D01*
X147000D01*
Y372000D02*
Y392000D01*
X82000Y330000D02*
X102000D01*
X82000Y320000D02*
Y330000D01*
Y320000D02*
X102000D01*
Y330000D01*
X112000D02*
X122000D01*
Y310000D02*
Y330000D01*
X112000Y310000D02*
X122000D01*
X112000D02*
Y330000D01*
X192000Y295000D02*
Y309000D01*
Y295000D02*
X220000D01*
Y309000D01*
X192000D02*
X220000D01*
X148000Y329000D02*
X168000D01*
Y339000D01*
X148000D02*
X168000D01*
X148000Y329000D02*
Y339000D01*
X158000Y372000D02*
X168000D01*
X158000D02*
Y392000D01*
X168000D01*
Y372000D02*
Y392000D01*
X145000Y309000D02*
Y329000D01*
Y309000D02*
X155000D01*
Y329000D01*
X145000D02*
X155000D01*
X92000Y140000D02*
Y168000D01*
X78000Y140000D02*
X92000D01*
X78000D02*
Y168000D01*
X92000D01*
X84000Y181000D02*
X104000D01*
X84000Y171000D02*
Y181000D01*
Y171000D02*
X104000D01*
Y181000D01*
X8000Y211000D02*
X18000D01*
Y191000D02*
Y211000D01*
X8000Y191000D02*
X18000D01*
X8000D02*
Y211000D01*
X94000Y225000D02*
X114000D01*
X94000Y215000D02*
Y225000D01*
Y215000D02*
X114000D01*
Y225000D01*
X89220Y202160D02*
X124780D01*
Y181840D02*
Y202160D01*
X89220Y181840D02*
X124780D01*
X89220D02*
Y202160D01*
X9000Y159000D02*
Y169000D01*
X29000D01*
Y159000D02*
Y169000D01*
X9000Y159000D02*
X29000D01*
X8000Y243000D02*
X28000D01*
X8000Y233000D02*
Y243000D01*
Y233000D02*
X28000D01*
Y243000D01*
X114000Y204000D02*
Y214000D01*
X94000Y204000D02*
X114000D01*
X94000D02*
Y214000D01*
X114000D01*
X89000Y240000D02*
X109000D01*
X89000Y230000D02*
Y240000D01*
Y230000D02*
X109000D01*
Y240000D01*
X610000Y230000D02*
Y244000D01*
X582000D02*
X610000D01*
X582000Y230000D02*
Y244000D01*
Y230000D02*
X610000D01*
X611000Y250000D02*
X621000D01*
Y230000D02*
Y250000D01*
X611000Y230000D02*
X621000D01*
X611000D02*
Y250000D01*
X690000Y190000D02*
Y210000D01*
X680000D02*
X690000D01*
X680000Y190000D02*
Y210000D01*
Y190000D02*
X690000D01*
X592000Y180000D02*
Y190000D01*
X612000D01*
Y180000D02*
Y190000D01*
X592000Y180000D02*
X612000D01*
X610780Y206840D02*
Y227160D01*
X575220D02*
X610780D01*
X575220Y206840D02*
Y227160D01*
Y206840D02*
X610780D01*
X670000Y251000D02*
X690000D01*
X670000Y241000D02*
Y251000D01*
Y241000D02*
X690000D01*
Y251000D01*
X672000Y156000D02*
Y166000D01*
X692000D01*
Y156000D02*
Y166000D01*
X672000Y156000D02*
X692000D01*
X592000Y195000D02*
X612000D01*
Y205000D01*
X592000D02*
X612000D01*
X592000Y195000D02*
Y205000D01*
Y168000D02*
Y178000D01*
X612000D01*
Y168000D02*
Y178000D01*
X592000Y168000D02*
X612000D01*
X200000Y107000D02*
X228000D01*
Y93000D02*
Y107000D01*
X200000Y93000D02*
X228000D01*
X200000D02*
Y107000D01*
X178000Y285000D02*
X192000D01*
Y313000D01*
X178000D02*
X192000D01*
X178000Y285000D02*
Y313000D01*
X53000Y354000D02*
X81000D01*
X53000D02*
Y368000D01*
X81000D01*
Y354000D02*
Y368000D01*
X96000Y363000D02*
Y377000D01*
Y363000D02*
X124000D01*
Y377000D01*
X96000D02*
X124000D01*
X116000Y336000D02*
Y356000D01*
X106000D02*
X116000D01*
X106000Y336000D02*
Y356000D01*
Y336000D02*
X116000D01*
X62000Y268000D02*
Y296000D01*
X76000D01*
Y268000D02*
Y296000D01*
X62000Y268000D02*
X76000D01*
X172000Y358300D02*
X202530Y388830D01*
X172000Y352000D02*
Y358300D01*
X357470Y388830D02*
X388000Y358300D01*
Y352000D02*
Y358300D01*
X357470Y315170D02*
X388000D01*
X172000D02*
X202530D01*
X174590Y388830D02*
X202530D01*
X357470D02*
X385000D01*
X388000Y315170D02*
Y372000D01*
X172000Y315170D02*
Y372000D01*
X79015Y10300D02*
X92985D01*
X79015Y35700D02*
X92985D01*
Y10300D02*
Y16650D01*
Y29350D02*
Y35700D01*
X20015Y133300D02*
X33985D01*
X20015Y158700D02*
X33985D01*
Y133300D02*
Y139650D01*
Y152350D02*
Y158700D01*
X494000Y26000D02*
X514000D01*
Y14000D02*
Y26000D01*
X494000Y14000D02*
X514000D01*
X494000D02*
Y26000D01*
X325000Y135000D02*
X345000D01*
X325000D02*
Y147000D01*
X345000D01*
Y135000D02*
Y147000D01*
X517000Y234000D02*
X537000D01*
X517000D02*
Y246000D01*
X537000D01*
Y234000D02*
Y246000D01*
X646000Y316000D02*
Y336000D01*
X658000D01*
Y316000D02*
Y336000D01*
X646000Y316000D02*
X658000D01*
X646000Y294000D02*
X658000D01*
Y314000D01*
X646000D02*
X658000D01*
X646000Y294000D02*
Y314000D01*
X200000Y107000D02*
Y127000D01*
X212000D01*
Y107000D02*
Y127000D01*
X200000Y107000D02*
X212000D01*
X168000Y95000D02*
Y107000D01*
Y95000D02*
X188000D01*
Y107000D01*
X168000D02*
X188000D01*
X160000Y219000D02*
Y239000D01*
X172000D01*
Y219000D02*
Y239000D01*
X160000Y219000D02*
X172000D01*
X158000Y179000D02*
Y191000D01*
Y179000D02*
X178000D01*
Y191000D01*
X158000D02*
X178000D01*
X172000Y221000D02*
X192000D01*
X172000D02*
Y233000D01*
X192000D01*
Y221000D02*
Y233000D01*
X242000Y109000D02*
X254000D01*
Y129000D01*
X242000D02*
X254000D01*
X242000Y109000D02*
Y129000D01*
X268000Y94000D02*
X280000D01*
Y114000D01*
X268000D02*
X280000D01*
X268000Y94000D02*
Y114000D01*
X242000Y103000D02*
Y123000D01*
X230000Y103000D02*
X242000D01*
X230000D02*
Y123000D01*
X242000D01*
X328000Y101000D02*
X340000D01*
Y121000D01*
X328000D02*
X340000D01*
X328000Y101000D02*
Y121000D01*
X183000Y261000D02*
Y281000D01*
X195000D01*
Y261000D02*
Y281000D01*
X183000Y261000D02*
X195000D01*
X48000Y105000D02*
X60000D01*
X48000Y85000D02*
Y105000D01*
Y85000D02*
X60000D01*
Y105000D01*
X65000Y125000D02*
X85000D01*
X65000D02*
Y137000D01*
X85000D01*
Y125000D02*
Y137000D01*
X92000Y88000D02*
Y100000D01*
X72000D02*
X92000D01*
X72000Y88000D02*
Y100000D01*
Y88000D02*
X92000D01*
X65000Y101000D02*
X85000D01*
X65000D02*
Y113000D01*
X85000D01*
Y101000D02*
Y113000D01*
X115000Y62000D02*
X127000D01*
X115000Y42000D02*
Y62000D01*
Y42000D02*
X127000D01*
Y62000D01*
X620000Y87000D02*
Y107000D01*
X608000Y87000D02*
X620000D01*
X608000D02*
Y107000D01*
X620000D01*
X611000Y35000D02*
X623000D01*
X611000Y15000D02*
Y35000D01*
Y15000D02*
X623000D01*
Y35000D01*
X214000Y107000D02*
Y127000D01*
X226000D01*
Y107000D02*
Y127000D01*
X214000Y107000D02*
X226000D01*
X648000Y96000D02*
Y108000D01*
X628000D02*
X648000D01*
X628000Y96000D02*
Y108000D01*
Y96000D02*
X648000D01*
X8000Y85000D02*
Y105000D01*
X20000D01*
Y85000D02*
Y105000D01*
X8000Y85000D02*
X20000D01*
X22000D02*
X34000D01*
Y105000D01*
X22000D02*
X34000D01*
X22000Y85000D02*
Y105000D01*
X70000Y62000D02*
X90000D01*
X70000D02*
Y74000D01*
X90000D01*
Y62000D02*
Y74000D01*
X36000Y105000D02*
X48000D01*
X36000Y85000D02*
Y105000D01*
Y85000D02*
X48000D01*
Y105000D01*
X294000Y281000D02*
Y301000D01*
X306000D01*
Y281000D02*
Y301000D01*
X294000Y281000D02*
X306000D01*
X292000Y94000D02*
Y114000D01*
X280000Y94000D02*
X292000D01*
X280000D02*
Y114000D01*
X292000D01*
X134000Y90000D02*
X146000D01*
Y110000D01*
X134000D02*
X146000D01*
X134000Y90000D02*
Y110000D01*
X266000Y94000D02*
Y114000D01*
X254000Y94000D02*
X266000D01*
X254000D02*
Y114000D01*
X266000D01*
X137000Y132000D02*
X149000D01*
X137000Y112000D02*
Y132000D01*
Y112000D02*
X149000D01*
Y132000D01*
X191000Y239000D02*
Y259000D01*
X179000Y239000D02*
X191000D01*
X179000D02*
Y259000D01*
X191000D01*
X87000Y297000D02*
Y309000D01*
X67000D02*
X87000D01*
X67000Y297000D02*
Y309000D01*
Y297000D02*
X87000D01*
X68000Y309000D02*
X80000D01*
Y329000D01*
X68000D02*
X80000D01*
X68000Y309000D02*
Y329000D01*
X70000Y38000D02*
X90000D01*
X70000D02*
Y50000D01*
X90000D01*
Y38000D02*
Y50000D01*
X126000Y202000D02*
X138000D01*
X126000Y182000D02*
Y202000D01*
Y182000D02*
X138000D01*
Y202000D01*
X116000Y218000D02*
X136000D01*
Y206000D02*
Y218000D01*
X116000Y206000D02*
X136000D01*
X116000D02*
Y218000D01*
X128000Y219000D02*
X140000D01*
Y239000D01*
X128000D02*
X140000D01*
X128000Y219000D02*
Y239000D01*
X8000Y212000D02*
Y232000D01*
X20000D01*
Y212000D02*
Y232000D01*
X8000Y212000D02*
X20000D01*
X9000Y169000D02*
X21000D01*
Y189000D01*
X9000D02*
X21000D01*
X9000Y169000D02*
Y189000D01*
X55000Y170000D02*
X75000D01*
Y158000D02*
Y170000D01*
X55000Y158000D02*
X75000D01*
X55000D02*
Y170000D01*
X56000Y233000D02*
X68000D01*
Y253000D01*
X56000D02*
X68000D01*
X56000Y233000D02*
Y253000D01*
X43000Y145000D02*
Y165000D01*
X55000D01*
Y145000D02*
Y165000D01*
X43000Y145000D02*
X55000D01*
Y145000D02*
Y157000D01*
Y145000D02*
X75000D01*
Y157000D01*
X55000D02*
X75000D01*
X116000Y219000D02*
Y239000D01*
X128000D01*
Y219000D02*
Y239000D01*
X116000Y219000D02*
X128000D01*
X109000Y260000D02*
X121000D01*
X109000Y240000D02*
Y260000D01*
Y240000D02*
X121000D01*
Y260000D01*
X50000Y50000D02*
X70000D01*
Y38000D02*
Y50000D01*
X50000Y38000D02*
X70000D01*
X50000D02*
Y50000D01*
X28000Y238000D02*
X40000D01*
Y258000D01*
X28000D02*
X40000D01*
X28000Y238000D02*
Y258000D01*
X43000Y133000D02*
X63000D01*
Y121000D02*
Y133000D01*
X43000Y121000D02*
X63000D01*
X43000D02*
Y133000D01*
Y133000D02*
Y145000D01*
Y133000D02*
X63000D01*
Y145000D01*
X43000D02*
X63000D01*
X89000Y244000D02*
X109000D01*
X89000D02*
Y256000D01*
X109000D01*
Y244000D02*
Y256000D01*
X627000Y140000D02*
Y152000D01*
X607000D02*
X627000D01*
X607000Y140000D02*
Y152000D01*
Y140000D02*
X627000D01*
X607000Y153000D02*
X627000D01*
X607000D02*
Y165000D01*
X627000D01*
Y153000D02*
Y165000D01*
X42000Y254000D02*
Y266000D01*
Y254000D02*
X62000D01*
Y266000D01*
X42000D02*
X62000D01*
X562000Y207000D02*
Y227000D01*
X574000D01*
Y207000D02*
Y227000D01*
X562000Y207000D02*
X574000D01*
X563000Y201000D02*
X575000D01*
X563000Y181000D02*
Y201000D01*
Y181000D02*
X575000D01*
Y201000D01*
X570000Y154000D02*
Y174000D01*
X558000Y154000D02*
X570000D01*
X558000D02*
Y174000D01*
X570000D01*
X678000Y240000D02*
X690000D01*
X678000Y220000D02*
Y240000D01*
Y220000D02*
X690000D01*
Y240000D01*
X692000Y168000D02*
Y188000D01*
X680000Y168000D02*
X692000D01*
X680000D02*
Y188000D01*
X692000D01*
X642000Y234000D02*
Y246000D01*
X622000D02*
X642000D01*
X622000Y234000D02*
Y246000D01*
Y234000D02*
X642000D01*
X641000Y145000D02*
Y165000D01*
X629000Y145000D02*
X641000D01*
X629000D02*
Y165000D01*
X641000D01*
X643000Y254000D02*
X655000D01*
X643000Y234000D02*
Y254000D01*
Y234000D02*
X655000D01*
Y254000D01*
X622000Y260000D02*
X642000D01*
Y248000D02*
Y260000D01*
X622000Y248000D02*
X642000D01*
X622000D02*
Y260000D01*
X576000Y201000D02*
X588000D01*
X576000Y181000D02*
Y201000D01*
Y181000D02*
X588000D01*
Y201000D01*
X573000Y154000D02*
Y174000D01*
X585000D01*
Y154000D02*
Y174000D01*
X573000Y154000D02*
X585000D01*
X663000Y255000D02*
Y267000D01*
X643000D02*
X663000D01*
X643000Y255000D02*
Y267000D01*
Y255000D02*
X663000D01*
X667000Y145000D02*
Y165000D01*
X655000Y145000D02*
X667000D01*
X655000D02*
Y165000D01*
X667000D01*
X605000Y154000D02*
Y166000D01*
X585000D02*
X605000D01*
X585000Y154000D02*
Y166000D01*
Y154000D02*
X605000D01*
X607000Y138000D02*
X627000D01*
Y126000D02*
Y138000D01*
X607000Y126000D02*
X627000D01*
X607000D02*
Y138000D01*
X9760Y305490D02*
X40240D01*
X9760Y338510D02*
X40240D01*
X27600Y225400D02*
X31090D01*
X74590D02*
X78400Y221590D01*
X27600D02*
Y225400D01*
Y174600D02*
X31090D01*
X74590D02*
X78080D01*
X78400D02*
Y178410D01*
X27600Y174600D02*
Y178410D01*
X668910Y174600D02*
X672400D01*
X621600Y178410D02*
X625410Y174600D01*
X672400D02*
Y178410D01*
X668910Y225400D02*
X672400D01*
X621920D02*
X625410D01*
X621600Y221590D02*
Y225400D01*
X672400Y221590D02*
Y225400D01*
X134000Y98000D02*
Y166000D01*
X98000Y98000D02*
X134000D01*
X98000D02*
Y166000D01*
X134000D01*
X43160Y64190D02*
Y71810D01*
X24000Y83900D02*
X42000D01*
X24000Y52150D02*
X42000D01*
X516000Y374000D02*
Y386000D01*
Y374000D02*
X536000D01*
Y386000D01*
X516000D02*
X536000D01*
X146000Y90000D02*
X158000D01*
Y110000D01*
X146000D02*
X158000D01*
X146000Y90000D02*
Y110000D01*
X94000Y50000D02*
Y62000D01*
Y50000D02*
X114000D01*
Y62000D01*
X94000D02*
X114000D01*
X108000Y65000D02*
X128000D01*
X108000D02*
Y77000D01*
X128000D01*
Y65000D02*
Y77000D01*
Y77000D02*
Y89000D01*
X108000D02*
X128000D01*
X108000Y77000D02*
Y89000D01*
Y77000D02*
X128000D01*
X494000Y374000D02*
Y384000D01*
X514000D01*
Y374000D02*
Y384000D01*
X494000Y374000D02*
X514000D01*
X644000Y316000D02*
Y336000D01*
X634000D02*
X644000D01*
X634000Y316000D02*
Y336000D01*
Y316000D02*
X644000D01*
X672000Y300000D02*
Y328000D01*
X658000Y300000D02*
X672000D01*
X658000D02*
Y328000D01*
X672000D01*
X634000Y294000D02*
X644000D01*
X634000D02*
Y314000D01*
X644000D01*
Y294000D02*
Y314000D01*
X20015Y106300D02*
X33985D01*
X20015Y131700D02*
X33985D01*
Y106300D02*
Y112650D01*
Y125350D02*
Y131700D01*
X70000Y50000D02*
X90000D01*
X70000D02*
Y62000D01*
X90000D01*
Y50000D02*
Y62000D01*
X43000Y107000D02*
Y119000D01*
Y107000D02*
X63000D01*
Y119000D01*
X43000D02*
X63000D01*
X122000Y260000D02*
X134000D01*
X122000Y240000D02*
Y260000D01*
Y240000D02*
X134000D01*
Y260000D01*
X148000Y240000D02*
Y260000D01*
X136000Y240000D02*
X148000D01*
X136000D02*
Y260000D01*
X148000D01*
X189000Y123000D02*
X199000D01*
Y103000D02*
Y123000D01*
X189000Y103000D02*
X199000D01*
X189000D02*
Y123000D01*
X158000Y110000D02*
X168000D01*
Y90000D02*
Y110000D01*
X158000Y90000D02*
X168000D01*
X158000D02*
Y110000D01*
X362000Y101000D02*
Y111000D01*
X342000Y101000D02*
X362000D01*
X342000D02*
Y111000D01*
X362000D01*
X140000Y219000D02*
Y229000D01*
X160000D01*
Y219000D02*
Y229000D01*
X140000Y219000D02*
X160000D01*
X140000Y229000D02*
Y239000D01*
X160000D01*
Y229000D02*
Y239000D01*
X140000Y229000D02*
X160000D01*
X127000Y372000D02*
X137000D01*
X127000D02*
Y392000D01*
X137000D01*
Y372000D02*
Y392000D01*
X120000Y382000D02*
Y392000D01*
X100000Y382000D02*
X120000D01*
X100000D02*
Y392000D01*
X120000D01*
X643000Y145000D02*
X655000D01*
Y165000D01*
X643000D02*
X655000D01*
X643000Y145000D02*
Y165000D01*
X42000Y253000D02*
X54000D01*
X42000Y233000D02*
Y253000D01*
Y233000D02*
X54000D01*
Y253000D01*
X656000Y254000D02*
X668000D01*
X656000Y234000D02*
Y254000D01*
Y234000D02*
X668000D01*
Y254000D01*
X54000Y12000D02*
X66000D01*
Y32000D01*
X54000D02*
X66000D01*
X54000Y12000D02*
Y32000D01*
X120015Y35700D02*
X133985D01*
X120015Y10300D02*
X133985D01*
X120015Y29350D02*
Y35700D01*
Y10300D02*
Y16650D01*
X142000Y42000D02*
X154000D01*
Y62000D01*
X142000D02*
X154000D01*
X142000Y42000D02*
Y62000D01*
X67000Y298000D02*
Y326000D01*
X53000Y298000D02*
X67000D01*
X53000D02*
Y326000D01*
X67000D01*
X652850Y65000D02*
Y83000D01*
X621100Y65000D02*
Y83000D01*
X377000Y190000D02*
X514500D01*
X377000Y170000D02*
Y190000D01*
X377000Y170000D02*
X514500D01*
Y190000D01*
X404500Y170000D02*
Y190000D01*
X432000Y170000D02*
Y190000D01*
X459500Y170000D02*
Y190000D01*
X487000Y170000D02*
Y190000D01*
D74*
X532500Y217500D02*
X528668D01*
X530584D01*
Y225164D01*
X532500D01*
X522920Y217500D02*
Y228996D01*
X519088Y225164D01*
X515256Y228996D01*
Y217500D01*
X511423Y228996D02*
X503759Y217500D01*
Y228996D02*
X511423Y217500D01*
X492263Y228996D02*
X496095Y227080D01*
X499927Y223248D01*
Y219416D01*
X498011Y217500D01*
X494179D01*
X492263Y219416D01*
Y221332D01*
X494179Y223248D01*
X499927D01*
X476935Y217500D02*
Y228996D01*
X471186D01*
X469270Y227080D01*
Y223248D01*
X471186Y221332D01*
X476935D01*
X473102D02*
X469270Y217500D01*
X459690D02*
X463522D01*
X465438Y219416D01*
Y223248D01*
X463522Y225164D01*
X459690D01*
X457774Y223248D01*
Y221332D01*
X465438D01*
X453942Y225164D02*
X446278Y217500D01*
X450110Y221332D01*
X446278Y225164D01*
X453942Y217500D01*
X430949Y228996D02*
Y221332D01*
X427117Y217500D01*
X423285Y221332D01*
Y228996D01*
X419453Y217500D02*
X415621D01*
X417537D01*
Y228996D01*
X419453Y227080D01*
X409873Y228996D02*
X406041D01*
X407957D01*
Y217500D01*
X409873D01*
X406041D01*
X400293D02*
X396460D01*
X398377D01*
Y228996D01*
X400293Y227080D01*
X553000Y174000D02*
Y185496D01*
X549168Y181664D01*
X545336Y185496D01*
Y174000D01*
X535756Y185496D02*
X539588D01*
X541504Y183580D01*
Y175916D01*
X539588Y174000D01*
X535756D01*
X533839Y175916D01*
Y183580D01*
X535756Y185496D01*
X530007D02*
Y174000D01*
X524259D01*
X522343Y175916D01*
Y183580D01*
X524259Y185496D01*
X530007D01*
X504500Y175000D02*
Y182664D01*
X500668Y186496D01*
X496836Y182664D01*
Y175000D01*
Y180748D01*
X504500D01*
X477000Y186496D02*
Y175000D01*
X471252D01*
X469336Y176916D01*
Y178832D01*
X471252Y180748D01*
X477000D01*
X471252D01*
X469336Y182664D01*
Y184580D01*
X471252Y186496D01*
X477000D01*
X441836Y184580D02*
X443752Y186496D01*
X447584D01*
X449500Y184580D01*
Y176916D01*
X447584Y175000D01*
X443752D01*
X441836Y176916D01*
X422000Y186496D02*
Y175000D01*
X416252D01*
X414336Y176916D01*
Y184580D01*
X416252Y186496D01*
X422000D01*
X386836D02*
X394500D01*
Y175000D01*
X386836D01*
X394500Y180748D02*
X390668D01*
X380336Y105496D02*
X384168D01*
X382252D01*
Y95916D01*
X384168Y94000D01*
X386084D01*
X388000Y95916D01*
X368839Y94000D02*
X376504D01*
X368839Y101664D01*
Y103580D01*
X370756Y105496D01*
X374588D01*
X376504Y103580D01*
X380336Y305496D02*
X384168D01*
X382252D01*
Y295916D01*
X384168Y294000D01*
X386084D01*
X388000Y295916D01*
X376504Y294000D02*
X372672D01*
X374588D01*
Y305496D01*
X376504Y303580D01*
D77*
X362500Y7500D02*
G03*
X362500Y7500I-1000J0D01*
G01*
X360000Y310000D02*
G03*
X360000Y310000I-1000J0D01*
G01*
X7000Y304000D02*
G03*
X7000Y304000I-1000J0D01*
G01*
X80000Y227500D02*
G03*
X80000Y227500I-1270J0D01*
G01*
X621600Y174600D02*
G03*
X621600Y174600I-1270J0D01*
G01*
X655000Y57500D02*
G03*
X655000Y57500I-1000J0D01*
G01*
X67000Y88000D02*
X104000D01*
X67000Y74000D02*
X104000D01*
X67000D02*
Y88000D01*
M02*
