%FSLAX44Y44*%
%MOMM*%
G71*
G01*
G75*
G04 Layer_Color=8388736*
%ADD10C,0.3500*%
%ADD11R,1.6000X3.9000*%
%ADD12R,5.2000X5.2000*%
%ADD13R,0.6000X0.2500*%
%ADD14R,0.2500X0.6000*%
%ADD15R,0.5000X0.6000*%
%ADD16R,0.2500X0.5000*%
%ADD17R,2.4000X0.8400*%
%ADD18R,3.4000X4.0000*%
%ADD19R,0.9000X0.4500*%
%ADD20R,0.6000X0.5000*%
%ADD21R,0.5000X0.5000*%
%ADD22R,0.5000X0.5000*%
%ADD23R,0.8000X0.8000*%
%ADD24R,0.7500X1.4000*%
%ADD25R,0.8000X0.8000*%
%ADD26R,1.8288X3.4290*%
%ADD27R,3.4290X1.8288*%
%ADD28R,0.9000X1.6000*%
%ADD29R,1.6000X0.9000*%
%ADD30R,1.2000X0.5800*%
%ADD31C,1.0160*%
%ADD32C,0.4000*%
%ADD33C,0.6350*%
%ADD34R,0.7000X0.9000*%
%ADD35C,0.0930*%
%ADD36C,0.3000*%
%ADD37C,0.0900*%
%ADD38C,0.2500*%
%ADD39C,0.4000*%
%ADD40C,0.1010*%
%ADD41C,0.2000*%
%ADD42C,0.5000*%
%ADD43C,0.7000*%
%ADD44C,5.0000*%
%ADD45C,0.2700*%
%ADD46C,0.4500*%
%ADD47C,0.1000*%
%ADD48C,3.6830*%
%ADD49C,0.0800*%
%ADD50C,0.6000*%
%ADD51C,0.8000*%
%ADD52C,0.0850*%
%ADD53C,1.2500*%
%ADD54R,1.9000X2.6000*%
%ADD55R,0.2800X2.2700*%
%ADD56R,2.5400X0.4300*%
%ADD57R,4.7000X0.4300*%
%ADD58R,1.3000X0.9000*%
%ADD59R,0.9000X1.3000*%
%ADD60R,0.5588X0.6858*%
%ADD61R,0.9000X0.7000*%
%ADD62R,1.8000X1.1250*%
%ADD63R,0.4800X0.2300*%
%ADD64R,0.4000X1.1900*%
%ADD65R,0.9000X1.1900*%
%ADD66R,3.3000X3.3000*%
%ADD67R,0.6000X0.2300*%
%ADD68R,0.2300X0.6000*%
%ADD69R,2.6000X1.9000*%
%ADD70R,1.0000X0.5500*%
%ADD71R,0.5500X1.0000*%
%ADD72C,0.3500*%
%ADD73C,0.2800*%
%ADD74C,0.2200*%
%ADD75C,0.4500*%
%ADD76C,0.1500*%
%ADD77C,0.2540*%
%ADD78C,0.1270*%
%ADD79R,2.4000X2.4000*%
%ADD80R,5.2508X5.2508*%
%ADD81R,0.6600X0.3100*%
%ADD82R,0.3100X0.6600*%
%ADD83R,0.7032X0.8032*%
%ADD84R,0.3900X0.6400*%
%ADD85R,2.5400X0.9800*%
%ADD86R,3.6032X4.2032*%
%ADD87R,1.1032X0.6532*%
%ADD88R,0.8032X0.7032*%
%ADD89R,0.7032X0.7032*%
%ADD90R,0.7032X0.7032*%
%ADD91R,1.0032X1.0032*%
%ADD92R,0.9532X1.6032*%
%ADD93R,1.0032X1.0032*%
%ADD94R,2.0320X3.6322*%
%ADD95R,3.6322X2.0320*%
%ADD96R,1.1032X1.8032*%
%ADD97R,1.8032X1.1032*%
%ADD98R,1.4032X0.7832*%
%ADD99C,1.3160*%
%ADD100C,0.5000*%
%ADD101C,0.7366*%
%ADD102R,0.9032X1.1032*%
%ADD103C,5.2032*%
%ADD104C,0.2032*%
%ADD105R,2.1032X2.8032*%
%ADD106R,0.3816X2.3716*%
%ADD107R,2.6924X0.5824*%
%ADD108R,4.8524X0.5824*%
%ADD109R,1.5032X1.1032*%
%ADD110R,1.1032X1.5032*%
%ADD111R,0.7112X0.8382*%
%ADD112R,1.1032X0.9032*%
%ADD113R,1.8508X1.1758*%
%ADD114R,0.6324X0.3824*%
%ADD115R,0.5524X1.3424*%
%ADD116R,0.9508X1.2408*%
%ADD117R,3.4016X3.4016*%
%ADD118R,0.7016X0.3316*%
%ADD119R,0.3316X0.7016*%
%ADD120R,2.8032X2.1032*%
%ADD121R,1.2032X0.7532*%
%ADD122R,0.7532X1.2032*%
%ADD123R,1.4000X1.4000*%
%ADD124C,0.1524*%
D41*
X184350Y74700D02*
G03*
X184350Y74700I-5000J0D01*
G01*
Y378700D02*
G03*
X184350Y378700I-5000J0D01*
G01*
X385900D02*
G03*
X385900Y378700I-5250J0D01*
G01*
X385650Y74700D02*
G03*
X385650Y74700I-5000J0D01*
G01*
D50*
X686000Y25000D02*
G03*
X686000Y25000I-11000J0D01*
G01*
X36000Y25000D02*
G03*
X36000Y25000I-11000J0D01*
G01*
X686000Y375000D02*
G03*
X686000Y375000I-11000J0D01*
G01*
X36000Y375000D02*
G03*
X36000Y375000I-11000J0D01*
G01*
X0Y0D02*
X700000D01*
X0Y400000D02*
X5000D01*
X699000D01*
X0Y0D02*
Y400000D01*
X679000D02*
X700000D01*
Y0D02*
Y400000D01*
D77*
X-252540D02*
X-5540D01*
X-252540Y0D02*
X0D01*
X-250000Y235548D02*
Y400000D01*
Y0D02*
Y156323D01*
X-255080Y384760D02*
X-250000Y400000D01*
X-244920Y384760D01*
X-250000Y0D02*
X-244920Y15240D01*
X-255080D02*
X-250000Y0D01*
X-202540D02*
X-5540D01*
X-202540Y25000D02*
X25000D01*
X-200000D02*
Y50400D01*
Y-25400D02*
Y0D01*
Y25000D02*
X-194920Y40240D01*
X-205080D02*
X-200000Y25000D01*
X-205080Y-15240D02*
X-200000Y0D01*
X-194920Y-15240D01*
X675000Y-102540D02*
Y25000D01*
X25000Y-102540D02*
Y25000D01*
X385549Y-100000D02*
X675000D01*
X25000D02*
X306324D01*
X659760Y-94920D02*
X675000Y-100000D01*
X659760Y-105080D02*
X675000Y-100000D01*
X25000D02*
X40240Y-105080D01*
X25000Y-100000D02*
X40240Y-94920D01*
X649261Y349261D02*
X667222Y367222D01*
X652853Y360038D02*
X667222Y367222D01*
X660038Y352853D02*
X667222Y367222D01*
X719385Y419385D02*
X745254D01*
X682778Y382778D02*
X719385Y419385D01*
X682778Y382778D02*
X697147Y389962D01*
X682778Y382778D02*
X689962Y397147D01*
X-152540Y25000D02*
X-5000D01*
X-152540Y74700D02*
X400650D01*
X-150000D02*
Y100100D01*
Y-400D02*
Y25000D01*
Y74700D02*
X-144920Y89940D01*
X-155080D02*
X-150000Y74700D01*
X-155080Y9760D02*
X-150000Y25000D01*
X-144920Y9760D01*
X-102540Y74700D02*
X400650D01*
X-102540Y378700D02*
X400650D01*
X-100000Y74700D02*
Y183023D01*
Y262248D02*
Y378700D01*
Y74700D02*
X-94920Y89940D01*
X-105080D02*
X-100000Y74700D01*
X-105080Y363460D02*
X-100000Y378700D01*
X-94920Y363460D01*
X675000Y25000D02*
X802540D01*
X675000Y375000D02*
X802540D01*
X800000Y25000D02*
Y156323D01*
Y235548D02*
Y375000D01*
Y25000D02*
X805080Y40240D01*
X794920D02*
X800000Y25000D01*
X794920Y359760D02*
X800000Y375000D01*
X805080Y359760D01*
X700000Y-152540D02*
Y-2540D01*
X0Y-152540D02*
Y-2540D01*
X385549Y-150000D02*
X700000D01*
X0D02*
X306324D01*
X684760Y-144920D02*
X700000Y-150000D01*
X684760Y-155080D02*
X700000Y-150000D01*
X0D02*
X15240Y-155080D01*
X0Y-150000D02*
X15240Y-144920D01*
X25000Y-52540D02*
Y-5000D01*
X0Y-52540D02*
Y-2540D01*
X-25400Y-50000D02*
X0D01*
X25000D02*
X50400D01*
X-15240Y-44920D02*
X0Y-50000D01*
X-15240Y-55080D02*
X0Y-50000D01*
X25000D02*
X40240Y-55080D01*
X25000Y-50000D02*
X40240Y-44920D01*
X25000Y-52540D02*
Y25000D01*
X179350Y-52540D02*
Y391000D01*
X25000Y-50000D02*
X52151D01*
X144071D02*
X179350D01*
X25000D02*
X40240Y-55080D01*
X25000Y-50000D02*
X40240Y-44920D01*
X164110D02*
X179350Y-50000D01*
X164110Y-55080D02*
X179350Y-50000D01*
X380650Y-52540D02*
Y390700D01*
X179350Y-52540D02*
Y379000D01*
X314279Y-50000D02*
X380650D01*
X179350D02*
X237593D01*
X365410Y-44920D02*
X380650Y-50000D01*
X365410Y-55080D02*
X380650Y-50000D01*
X179350D02*
X194590Y-55080D01*
X179350Y-50000D02*
X194590Y-44920D01*
X358977Y357027D02*
X376938Y374988D01*
X362569Y367803D02*
X376938Y374988D01*
X369753Y360619D02*
X376938Y374988D01*
X439836Y437886D02*
X461018D01*
X384362Y382412D02*
X439836Y437886D01*
X384362Y382412D02*
X398731Y389596D01*
X384362Y382412D02*
X391547Y396781D01*
X608000Y490235D02*
Y480078D01*
X613078Y475000D01*
X618157Y480078D01*
Y490235D01*
X623235Y475000D02*
X628313D01*
X625774D01*
Y490235D01*
X623235Y487696D01*
X635931Y490235D02*
X641009D01*
X638470D01*
Y475000D01*
X635931D01*
X641009D01*
X648627D02*
X653705D01*
X651166D01*
Y490235D01*
X648627Y487696D01*
X33000Y475000D02*
Y490235D01*
X38078Y485157D01*
X43157Y490235D01*
Y475000D01*
X55853D02*
X50774D01*
X48235Y477539D01*
Y482617D01*
X50774Y485157D01*
X55853D01*
X58392Y482617D01*
Y480078D01*
X48235D01*
X73627Y485157D02*
X66009D01*
X63470Y482617D01*
Y477539D01*
X66009Y475000D01*
X73627D01*
X78705Y490235D02*
Y475000D01*
Y482617D01*
X81244Y485157D01*
X86323D01*
X88862Y482617D01*
Y475000D01*
X96480Y485157D02*
X101558D01*
X104097Y482617D01*
Y475000D01*
X96480D01*
X93940Y477539D01*
X96480Y480078D01*
X104097D01*
X109175Y475000D02*
Y485157D01*
X116793D01*
X119332Y482617D01*
Y475000D01*
X124410D02*
X129489D01*
X126950D01*
Y485157D01*
X124410D01*
X147263D02*
X139646D01*
X137106Y482617D01*
Y477539D01*
X139646Y475000D01*
X147263D01*
X154881Y485157D02*
X159959D01*
X162498Y482617D01*
Y475000D01*
X154881D01*
X152341Y477539D01*
X154881Y480078D01*
X162498D01*
X167577Y475000D02*
X172655D01*
X170116D01*
Y490235D01*
X167577D01*
X195507D02*
Y475000D01*
X203125D01*
X205664Y477539D01*
Y487696D01*
X203125Y490235D01*
X195507D01*
X210742Y485157D02*
Y475000D01*
Y480078D01*
X213282Y482617D01*
X215821Y485157D01*
X218360D01*
X228517D02*
X233595D01*
X236134Y482617D01*
Y475000D01*
X228517D01*
X225978Y477539D01*
X228517Y480078D01*
X236134D01*
X241213Y485157D02*
Y477539D01*
X243752Y475000D01*
X246291Y477539D01*
X248830Y475000D01*
X251369Y477539D01*
Y485157D01*
X256448Y475000D02*
X261526D01*
X258987D01*
Y485157D01*
X256448D01*
X269144Y475000D02*
Y485157D01*
X276761D01*
X279300Y482617D01*
Y475000D01*
X289457Y469922D02*
X291996D01*
X294535Y472461D01*
Y485157D01*
X286918D01*
X284379Y482617D01*
Y477539D01*
X286918Y475000D01*
X294535D01*
X317388D02*
X322466D01*
X325005Y477539D01*
Y482617D01*
X322466Y485157D01*
X317388D01*
X314849Y482617D01*
Y477539D01*
X317388Y475000D01*
X332623D02*
Y487696D01*
Y482617D01*
X330084D01*
X335162D01*
X332623D01*
Y487696D01*
X335162Y490235D01*
X358015Y475000D02*
X363093D01*
X360554D01*
Y485157D01*
X358015D01*
X370711Y475000D02*
Y490235D01*
X375789Y485157D01*
X380868Y490235D01*
Y475000D01*
X385946Y490235D02*
X396102Y475000D01*
Y490235D02*
X385946Y475000D01*
X411338Y490235D02*
X406259Y487696D01*
X401181Y482617D01*
Y477539D01*
X403720Y475000D01*
X408798D01*
X411338Y477539D01*
Y480078D01*
X408798Y482617D01*
X401181D01*
X431651Y475000D02*
Y490235D01*
X439269D01*
X441808Y487696D01*
Y482617D01*
X439269Y480078D01*
X431651D01*
X436729D02*
X441808Y475000D01*
X454504D02*
X449425D01*
X446886Y477539D01*
Y482617D01*
X449425Y485157D01*
X454504D01*
X457043Y482617D01*
Y480078D01*
X446886D01*
X462121Y485157D02*
X472278Y475000D01*
X467200Y480078D01*
X472278Y485157D01*
X462121Y475000D01*
X492591D02*
Y490235D01*
X497670Y485157D01*
X502748Y490235D01*
Y475000D01*
X510366D02*
X515444D01*
X517983Y477539D01*
Y482617D01*
X515444Y485157D01*
X510366D01*
X507826Y482617D01*
Y477539D01*
X510366Y475000D01*
X533218Y490235D02*
Y475000D01*
X525601D01*
X523061Y477539D01*
Y482617D01*
X525601Y485157D01*
X533218D01*
X538297D02*
Y477539D01*
X540836Y475000D01*
X548453D01*
Y485157D01*
X553532Y475000D02*
X558610D01*
X556071D01*
Y490235D01*
X553532D01*
X573845Y475000D02*
X568767D01*
X566227Y477539D01*
Y482617D01*
X568767Y485157D01*
X573845D01*
X576384Y482617D01*
Y480078D01*
X566227D01*
D124*
X-238319Y168005D02*
X-253554D01*
X-245937Y160387D01*
Y170544D01*
X-251015Y175623D02*
X-253554Y178162D01*
Y183240D01*
X-251015Y185779D01*
X-240858D01*
X-238319Y183240D01*
Y178162D01*
X-240858Y175623D01*
X-251015D01*
X-235780Y193397D02*
X-238319Y195936D01*
X-240858D01*
Y193397D01*
X-238319D01*
Y195936D01*
X-235780Y193397D01*
X-233241Y190858D01*
X-251015Y206093D02*
X-253554Y208632D01*
Y213710D01*
X-251015Y216249D01*
X-240858D01*
X-238319Y213710D01*
Y208632D01*
X-240858Y206093D01*
X-251015D01*
Y221328D02*
X-253554Y223867D01*
Y228945D01*
X-251015Y231485D01*
X-240858D01*
X-238319Y228945D01*
Y223867D01*
X-240858Y221328D01*
X-251015D01*
X-188319Y-76693D02*
Y-86850D01*
X-198476Y-76693D01*
X-201015D01*
X-203554Y-79232D01*
Y-84311D01*
X-201015Y-86850D01*
X-185780Y-69076D02*
X-188319Y-66536D01*
X-190858D01*
Y-69076D01*
X-188319D01*
Y-66536D01*
X-185780Y-69076D01*
X-183241Y-71615D01*
X-203554Y-46223D02*
Y-56380D01*
X-195937D01*
X-198476Y-51301D01*
Y-48762D01*
X-195937Y-46223D01*
X-190858D01*
X-188319Y-48762D01*
Y-53841D01*
X-190858Y-56380D01*
X-201015Y-41145D02*
X-203554Y-38605D01*
Y-33527D01*
X-201015Y-30988D01*
X-190858D01*
X-188319Y-33527D01*
Y-38605D01*
X-190858Y-41145D01*
X-201015D01*
X320544Y-96446D02*
X315466Y-98985D01*
X310387Y-104063D01*
Y-109142D01*
X312927Y-111681D01*
X318005D01*
X320544Y-109142D01*
Y-106602D01*
X318005Y-104063D01*
X310387D01*
X335779Y-96446D02*
X325623D01*
Y-104063D01*
X330701Y-101524D01*
X333240D01*
X335779Y-104063D01*
Y-109142D01*
X333240Y-111681D01*
X328162D01*
X325623Y-109142D01*
X343397Y-114220D02*
X345936Y-111681D01*
Y-109142D01*
X343397D01*
Y-111681D01*
X345936D01*
X343397Y-114220D01*
X340858Y-116759D01*
X356093Y-98985D02*
X358632Y-96446D01*
X363710D01*
X366249Y-98985D01*
Y-109142D01*
X363710Y-111681D01*
X358632D01*
X356093Y-109142D01*
Y-98985D01*
X371328D02*
X373867Y-96446D01*
X378945D01*
X381484Y-98985D01*
Y-109142D01*
X378945Y-111681D01*
X373867D01*
X371328Y-109142D01*
Y-98985D01*
X750333Y407704D02*
X755411D01*
X757951Y410243D01*
Y415322D01*
X755411Y417861D01*
X750333D01*
X747794Y415322D01*
Y410243D01*
X750333Y407704D01*
X747794D02*
X757951Y417861D01*
X788421Y407704D02*
X778264D01*
X788421Y417861D01*
Y420400D01*
X785882Y422939D01*
X780803D01*
X778264Y420400D01*
X796038Y405165D02*
X798577Y407704D01*
Y410243D01*
X796038D01*
Y407704D01*
X798577D01*
X796038Y405165D01*
X793499Y402626D01*
X818891Y407704D02*
X808734D01*
X818891Y417861D01*
Y420400D01*
X816352Y422939D01*
X811273D01*
X808734Y420400D01*
X823969D02*
X826508Y422939D01*
X831587D01*
X834126Y420400D01*
Y410243D01*
X831587Y407704D01*
X826508D01*
X823969Y410243D01*
Y420400D01*
X-138319Y110257D02*
X-153554D01*
X-145937Y102640D01*
Y112797D01*
X-135780Y120414D02*
X-138319Y122953D01*
X-140858D01*
Y120414D01*
X-138319D01*
Y122953D01*
X-135780Y120414D01*
X-133241Y117875D01*
X-140858Y133110D02*
X-138319Y135649D01*
Y140728D01*
X-140858Y143267D01*
X-151015D01*
X-153554Y140728D01*
Y135649D01*
X-151015Y133110D01*
X-148476D01*
X-145937Y135649D01*
Y143267D01*
X-153554Y148345D02*
Y158502D01*
X-151015D01*
X-140858Y148345D01*
X-138319D01*
X-101015Y187087D02*
X-103554Y189627D01*
Y194705D01*
X-101015Y197244D01*
X-98476D01*
X-95937Y194705D01*
Y192166D01*
Y194705D01*
X-93398Y197244D01*
X-90858D01*
X-88319Y194705D01*
Y189627D01*
X-90858Y187087D01*
X-101015Y202323D02*
X-103554Y204862D01*
Y209940D01*
X-101015Y212479D01*
X-90858D01*
X-88319Y209940D01*
Y204862D01*
X-90858Y202323D01*
X-101015D01*
X-85780Y220097D02*
X-88319Y222636D01*
X-90858D01*
Y220097D01*
X-88319D01*
Y222636D01*
X-85780Y220097D01*
X-83241Y217558D01*
X-88319Y240410D02*
X-103554D01*
X-95937Y232793D01*
Y242949D01*
X-101015Y248028D02*
X-103554Y250567D01*
Y255645D01*
X-101015Y258184D01*
X-90858D01*
X-88319Y255645D01*
Y250567D01*
X-90858Y248028D01*
X-101015D01*
X798985Y160387D02*
X796446Y162927D01*
Y168005D01*
X798985Y170544D01*
X801524D01*
X804063Y168005D01*
Y165466D01*
Y168005D01*
X806602Y170544D01*
X809141D01*
X811681Y168005D01*
Y162927D01*
X809141Y160387D01*
X796446Y185779D02*
Y175623D01*
X804063D01*
X801524Y180701D01*
Y183240D01*
X804063Y185779D01*
X809141D01*
X811681Y183240D01*
Y178162D01*
X809141Y175623D01*
X814220Y193397D02*
X811681Y195936D01*
X809141D01*
Y193397D01*
X811681D01*
Y195936D01*
X814220Y193397D01*
X816759Y190858D01*
X798985Y206093D02*
X796446Y208632D01*
Y213710D01*
X798985Y216249D01*
X809141D01*
X811681Y213710D01*
Y208632D01*
X809141Y206093D01*
X798985D01*
Y221328D02*
X796446Y223867D01*
Y228945D01*
X798985Y231485D01*
X809141D01*
X811681Y228945D01*
Y223867D01*
X809141Y221328D01*
X798985D01*
X310387Y-146446D02*
X320544D01*
Y-148985D01*
X310387Y-159142D01*
Y-161681D01*
X325623Y-148985D02*
X328162Y-146446D01*
X333240D01*
X335779Y-148985D01*
Y-159142D01*
X333240Y-161681D01*
X328162D01*
X325623Y-159142D01*
Y-148985D01*
X343397Y-164220D02*
X345936Y-161681D01*
Y-159142D01*
X343397D01*
Y-161681D01*
X345936D01*
X343397Y-164220D01*
X340858Y-166759D01*
X356093Y-148985D02*
X358632Y-146446D01*
X363710D01*
X366249Y-148985D01*
Y-159142D01*
X363710Y-161681D01*
X358632D01*
X356093Y-159142D01*
Y-148985D01*
X371328D02*
X373867Y-146446D01*
X378945D01*
X381484Y-148985D01*
Y-159142D01*
X378945Y-161681D01*
X373867D01*
X371328Y-159142D01*
Y-148985D01*
X-76693Y-61681D02*
X-86850D01*
X-76693Y-51524D01*
Y-48985D01*
X-79232Y-46446D01*
X-84311D01*
X-86850Y-48985D01*
X-69076Y-64220D02*
X-66536Y-61681D01*
Y-59142D01*
X-69076D01*
Y-61681D01*
X-66536D01*
X-69076Y-64220D01*
X-71615Y-66759D01*
X-46223Y-46446D02*
X-56380D01*
Y-54063D01*
X-51301Y-51524D01*
X-48762D01*
X-46223Y-54063D01*
Y-59142D01*
X-48762Y-61681D01*
X-53841D01*
X-56380Y-59142D01*
X-41145Y-48985D02*
X-38605Y-46446D01*
X-33527D01*
X-30988Y-48985D01*
Y-59142D01*
X-33527Y-61681D01*
X-38605D01*
X-41145Y-59142D01*
Y-48985D01*
X56214Y-61681D02*
X61293D01*
X58754D01*
Y-46446D01*
X56214Y-48985D01*
X79067Y-46446D02*
X68910D01*
Y-54063D01*
X73989Y-51524D01*
X76528D01*
X79067Y-54063D01*
Y-59142D01*
X76528Y-61681D01*
X71450D01*
X68910Y-59142D01*
X86685Y-64220D02*
X89224Y-61681D01*
Y-59142D01*
X86685D01*
Y-61681D01*
X89224D01*
X86685Y-64220D01*
X84145Y-66759D01*
X106998Y-61681D02*
Y-46446D01*
X99381Y-54063D01*
X109537D01*
X114616Y-48985D02*
X117155Y-46446D01*
X122233D01*
X124772Y-48985D01*
Y-51524D01*
X122233Y-54063D01*
X119694D01*
X122233D01*
X124772Y-56602D01*
Y-59142D01*
X122233Y-61681D01*
X117155D01*
X114616Y-59142D01*
X140007Y-46446D02*
X129851D01*
Y-54063D01*
X134929Y-51524D01*
X137468D01*
X140007Y-54063D01*
Y-59142D01*
X137468Y-61681D01*
X132390D01*
X129851Y-59142D01*
X251814Y-61681D02*
X241657D01*
X251814Y-51524D01*
Y-48985D01*
X249275Y-46446D01*
X244196D01*
X241657Y-48985D01*
X256892D02*
X259431Y-46446D01*
X264510D01*
X267049Y-48985D01*
Y-59142D01*
X264510Y-61681D01*
X259431D01*
X256892Y-59142D01*
Y-48985D01*
X274666Y-64220D02*
X277206Y-61681D01*
Y-59142D01*
X274666D01*
Y-61681D01*
X277206D01*
X274666Y-64220D01*
X272127Y-66759D01*
X287362Y-61681D02*
X292441D01*
X289902D01*
Y-46446D01*
X287362Y-48985D01*
X300058D02*
X302597Y-46446D01*
X307676D01*
X310215Y-48985D01*
Y-51524D01*
X307676Y-54063D01*
X305137D01*
X307676D01*
X310215Y-56602D01*
Y-59142D01*
X307676Y-61681D01*
X302597D01*
X300058Y-59142D01*
X466098Y426205D02*
X471176D01*
X473715Y428744D01*
Y433823D01*
X471176Y436362D01*
X466098D01*
X463559Y433823D01*
Y428744D01*
X466098Y426205D01*
X463559D02*
X473715Y436362D01*
X494029Y426205D02*
X499107D01*
X496568D01*
Y441440D01*
X494029Y438901D01*
X509264Y423666D02*
X511803Y426205D01*
Y428744D01*
X509264D01*
Y426205D01*
X511803D01*
X509264Y423666D01*
X506725Y421127D01*
X521960Y438901D02*
X524499Y441440D01*
X529577D01*
X532116Y438901D01*
Y428744D01*
X529577Y426205D01*
X524499D01*
X521960Y428744D01*
Y438901D01*
X547351Y441440D02*
X537195D01*
Y433823D01*
X542273Y436362D01*
X544812D01*
X547351Y433823D01*
Y428744D01*
X544812Y426205D01*
X539734D01*
X537195Y428744D01*
M02*
