%FSLAX44Y44*%
%MOMM*%
G71*
G01*
G75*
G04 Layer_Physical_Order=3*
G04 Layer_Color=36540*
%ADD10C,0.3500*%
%ADD11R,1.6000X3.9000*%
%ADD12R,5.2000X5.2000*%
%ADD13R,0.6000X0.2500*%
%ADD14R,0.2500X0.6000*%
%ADD15R,0.5000X0.6000*%
%ADD16R,0.2500X0.5000*%
%ADD17R,2.4000X0.8400*%
%ADD18R,3.4000X4.0000*%
%ADD19R,0.9000X0.4500*%
%ADD20R,0.6000X0.5000*%
%ADD21R,0.5000X0.5000*%
%ADD22R,0.5000X0.5000*%
%ADD23R,0.8000X0.8000*%
%ADD24R,0.7500X1.4000*%
%ADD25R,0.8000X0.8000*%
%ADD26R,1.8288X3.4290*%
%ADD27R,3.4290X1.8288*%
%ADD28R,0.9000X1.6000*%
%ADD29R,1.6000X0.9000*%
%ADD30R,1.2000X0.5800*%
%ADD31C,1.0160*%
%ADD32C,0.4000*%
%ADD33C,0.6350*%
%ADD34R,0.7000X0.9000*%
%ADD35C,0.0930*%
%ADD36C,0.3000*%
%ADD37C,0.0900*%
%ADD38C,0.2500*%
%ADD39C,0.4000*%
%ADD40C,0.1010*%
%ADD41C,0.2000*%
%ADD42C,0.5000*%
%ADD43C,0.7000*%
%ADD44C,5.0000*%
%ADD45C,0.2700*%
%ADD46C,0.4500*%
%ADD47C,0.1000*%
%ADD48C,3.6830*%
%ADD49C,0.0800*%
%ADD50C,0.6000*%
%ADD51C,0.8000*%
%ADD52C,0.0850*%
D38*
X334825Y17000D02*
X336000Y18175D01*
X332000Y17000D02*
X334825D01*
X336000Y18175D02*
Y20175D01*
X333100Y23075D02*
X336000Y20175D01*
X328875Y23075D02*
X333100D01*
X298750Y379000D02*
X298889D01*
X301889Y376000D01*
X306000D01*
X266000Y23000D02*
X270000D01*
X271000Y24000D01*
X263000Y320000D02*
X265000D01*
X260000Y323000D02*
X263000Y320000D01*
X263000Y326000D02*
X265000D01*
X260000Y323000D02*
X263000Y326000D01*
X300750Y381000D02*
X303000D01*
X298750Y379000D02*
X299000Y379250D01*
X300750Y381000D01*
X253000Y377000D02*
X254000Y376000D01*
X253000Y377000D02*
Y380000D01*
X254000Y381000D01*
X257000D01*
D39*
X55000Y245000D02*
X71000Y229000D01*
X80000D01*
D41*
X298750Y379500D02*
X299000Y379250D01*
X299000D01*
D42*
X677000Y184000D02*
Y186000D01*
X679000Y188000D01*
X687000Y220000D02*
X689000Y218000D01*
X623000Y180000D02*
X654868D01*
X613000Y190000D02*
X623000Y180000D01*
X654868D02*
X677934Y203066D01*
X104750Y196000D02*
X125000D01*
X84000Y193250D02*
X102000D01*
X104750Y196000D01*
X80000Y214000D02*
X84000Y210000D01*
X85000Y209000D01*
X31868Y195000D02*
X35618Y198750D01*
X78500D01*
X84000Y193250D01*
X22000Y195000D02*
X31868D01*
X597000Y175000D02*
X604000Y182000D01*
X575000Y175000D02*
X597000D01*
X604000Y182000D02*
Y190000D01*
X641626Y196000D02*
X645376Y199750D01*
X604000Y190000D02*
X610000Y196000D01*
X641626D01*
X645376Y199750D02*
X658750D01*
X35753Y162000D02*
X42000D01*
X32000Y158247D02*
X35753Y162000D01*
X27000Y203000D02*
X38000Y214000D01*
X80000D01*
X22132Y203000D02*
X27000D01*
X22000D02*
X22066D01*
X658750Y199750D02*
X671000Y212000D01*
X689000D01*
D45*
X385000Y178000D02*
D03*
X126000Y252000D02*
D03*
X332000Y17000D02*
D03*
X306000Y376000D02*
D03*
X101500Y380500D02*
D03*
X184000Y159000D02*
D03*
X192000Y159000D02*
D03*
X266000Y23000D02*
D03*
X191000Y46000D02*
D03*
Y50000D02*
D03*
X234000Y121000D02*
D03*
X232000Y127000D02*
D03*
X248000Y113000D02*
D03*
X248000Y121000D02*
D03*
X161000Y236000D02*
D03*
X122000Y234000D02*
D03*
X105000Y275000D02*
D03*
X144000Y279000D02*
D03*
Y240000D02*
D03*
X107500Y388000D02*
D03*
X87000Y350500D02*
D03*
X184000Y279000D02*
D03*
X186000Y273000D02*
D03*
X488000Y74000D02*
D03*
X373000Y113000D02*
D03*
X480000Y74000D02*
D03*
X371000Y117000D02*
D03*
X456000Y106000D02*
D03*
X376000Y108000D02*
D03*
X379000Y105000D02*
D03*
X448000Y106000D02*
D03*
X368000Y273000D02*
D03*
X448000Y326000D02*
D03*
X389000Y319000D02*
D03*
X456000Y326000D02*
D03*
X389000Y313000D02*
D03*
X346000Y287000D02*
D03*
X370000Y193000D02*
D03*
X338000Y217000D02*
D03*
X322000Y231000D02*
D03*
X362000Y231000D02*
D03*
X205000Y296000D02*
D03*
X280000Y279000D02*
D03*
X265000Y326000D02*
D03*
X242000Y387000D02*
D03*
X257000Y381000D02*
D03*
X254000Y376000D02*
D03*
X176000Y113000D02*
D03*
Y105000D02*
D03*
X216000Y113000D02*
D03*
X280000Y121000D02*
D03*
X266000Y263000D02*
D03*
X197000Y216000D02*
D03*
X138000Y234000D02*
D03*
X119000Y255000D02*
D03*
X144000Y254000D02*
D03*
Y267000D02*
D03*
X127000Y245000D02*
D03*
Y265000D02*
D03*
X306000Y271000D02*
D03*
X224000Y271000D02*
D03*
X201000Y233000D02*
D03*
X170000Y241000D02*
D03*
X184000Y247000D02*
D03*
X169000Y252000D02*
D03*
X203000Y264000D02*
D03*
X193000Y292000D02*
D03*
X192000Y303000D02*
D03*
X168000Y288000D02*
D03*
Y280000D02*
D03*
Y272000D02*
D03*
X330000Y143000D02*
D03*
X163000Y309000D02*
D03*
X309750Y333700D02*
D03*
X343000Y18000D02*
D03*
X373000Y23000D02*
D03*
X368800Y13950D02*
D03*
X108000Y216000D02*
D03*
X210000Y135000D02*
D03*
X282000Y249000D02*
D03*
X205000Y120000D02*
D03*
X258000Y24000D02*
D03*
X194000Y247000D02*
D03*
X194000Y239000D02*
D03*
X211000Y24000D02*
D03*
X304000Y143000D02*
D03*
X321125Y81725D02*
D03*
Y69850D02*
D03*
X124000Y214000D02*
D03*
X186000Y207000D02*
D03*
X248000Y391000D02*
D03*
X228000Y382000D02*
D03*
X283000Y379000D02*
D03*
X210000Y287000D02*
D03*
X303000Y381000D02*
D03*
X88000Y342500D02*
D03*
X208000Y223000D02*
D03*
X184000Y263000D02*
D03*
X286000Y347050D02*
D03*
X232000Y263000D02*
D03*
X224000Y249000D02*
D03*
X298000Y255000D02*
D03*
X208000Y231000D02*
D03*
X194000D02*
D03*
X184000Y239000D02*
D03*
Y231000D02*
D03*
X200000Y249000D02*
D03*
X178000Y255000D02*
D03*
X202000Y271000D02*
D03*
X89000Y377500D02*
D03*
X122500Y387000D02*
D03*
X112500Y384500D02*
D03*
X117500D02*
D03*
X147000Y288000D02*
D03*
X176000Y297000D02*
D03*
X176000Y273000D02*
D03*
X322000Y295000D02*
D03*
X142500Y387000D02*
D03*
X132500D02*
D03*
X264000Y135000D02*
D03*
X208000Y199000D02*
D03*
X304000Y279000D02*
D03*
X216000Y143000D02*
D03*
X314000Y135000D02*
D03*
X346000Y143000D02*
D03*
X338000Y134999D02*
D03*
X346000Y217000D02*
D03*
X330000Y209000D02*
D03*
X352250Y192750D02*
D03*
X352000Y207000D02*
D03*
X336000Y201000D02*
D03*
Y193000D02*
D03*
X328000D02*
D03*
X352000Y225000D02*
D03*
X320000Y191000D02*
D03*
X314000Y193000D02*
D03*
X330000Y223000D02*
D03*
X76000Y337500D02*
D03*
X88000Y367500D02*
D03*
X84000Y362500D02*
D03*
X432000Y286000D02*
D03*
Y334000D02*
D03*
X496000D02*
D03*
X496000Y326000D02*
D03*
X480000Y334000D02*
D03*
Y326000D02*
D03*
X472000D02*
D03*
X480000Y286000D02*
D03*
X488000D02*
D03*
X496000Y294000D02*
D03*
X472000D02*
D03*
X464000D02*
D03*
X456000D02*
D03*
Y286000D02*
D03*
X440000Y294000D02*
D03*
X464000Y326000D02*
D03*
X456000Y334000D02*
D03*
X448000D02*
D03*
X352000Y295000D02*
D03*
X360000Y297000D02*
D03*
X320000Y265000D02*
D03*
X336000Y279000D02*
D03*
X344000Y273000D02*
D03*
X346000Y279000D02*
D03*
X338000Y289000D02*
D03*
X354000D02*
D03*
X362000D02*
D03*
X328000Y281000D02*
D03*
X320000D02*
D03*
Y273000D02*
D03*
X328000Y265000D02*
D03*
X338000Y297000D02*
D03*
X472000Y74000D02*
D03*
X336000Y129000D02*
D03*
X368000Y151000D02*
D03*
X336000Y121000D02*
D03*
X366000Y125000D02*
D03*
X440000Y66000D02*
D03*
X354000Y103000D02*
D03*
X344000Y105000D02*
D03*
X346000Y121000D02*
D03*
Y113000D02*
D03*
X352000Y111000D02*
D03*
X360000D02*
D03*
X362000Y135000D02*
D03*
X354000D02*
D03*
X346000D02*
D03*
X352000Y145000D02*
D03*
X338000Y143000D02*
D03*
X496000Y114000D02*
D03*
X496000Y106000D02*
D03*
X440000D02*
D03*
X448000Y114000D02*
D03*
X480000D02*
D03*
X472000Y106000D02*
D03*
X480000Y106000D02*
D03*
X456000Y114000D02*
D03*
X464000Y106000D02*
D03*
X432000Y66000D02*
D03*
X456000Y66000D02*
D03*
Y74000D02*
D03*
X464000D02*
D03*
X480000Y66000D02*
D03*
X488000Y58000D02*
D03*
X496000Y74000D02*
D03*
X130000Y206000D02*
D03*
X208000Y207000D02*
D03*
X208000Y191000D02*
D03*
X192000Y191000D02*
D03*
X209000Y250000D02*
D03*
X312000Y257000D02*
D03*
X170000Y225000D02*
D03*
X208000Y215000D02*
D03*
X200000Y207000D02*
D03*
X292500Y66800D02*
D03*
X210000Y279000D02*
D03*
X264000Y257000D02*
D03*
X224000Y263000D02*
D03*
X216000Y263000D02*
D03*
X210000Y265000D02*
D03*
X312000Y273000D02*
D03*
X298000Y265000D02*
D03*
X290000Y151000D02*
D03*
X200000Y191000D02*
D03*
X176000Y217000D02*
D03*
X168000Y217000D02*
D03*
X279000Y103000D02*
D03*
X234000Y105000D02*
D03*
X234000Y113000D02*
D03*
X218000Y135000D02*
D03*
X264000Y143000D02*
D03*
X269000Y128000D02*
D03*
X273000Y132000D02*
D03*
X282000Y137000D02*
D03*
X200000Y199000D02*
D03*
X184000Y193000D02*
D03*
X176000Y201150D02*
D03*
X178000Y183000D02*
D03*
X194000Y183000D02*
D03*
X265000Y300000D02*
D03*
X250000Y103000D02*
D03*
X242000D02*
D03*
X258125Y88675D02*
D03*
X251000Y94000D02*
D03*
X286875Y66800D02*
D03*
X248000Y257000D02*
D03*
X344000Y231000D02*
D03*
Y201000D02*
D03*
X338000Y209000D02*
D03*
X376000Y183000D02*
D03*
X380000Y188000D02*
D03*
X322000Y215000D02*
D03*
X314000Y215000D02*
D03*
X314000Y225000D02*
D03*
X368000Y304000D02*
D03*
X480000Y294000D02*
D03*
X368000Y310000D02*
D03*
X488000Y294000D02*
D03*
X320000Y303000D02*
D03*
X306000Y215000D02*
D03*
X282000Y129000D02*
D03*
X314000Y103000D02*
D03*
Y111000D02*
D03*
X290000Y112999D02*
D03*
X296000Y111000D02*
D03*
X306000Y111000D02*
D03*
Y103000D02*
D03*
X306000Y119000D02*
D03*
Y127000D02*
D03*
X298000Y129000D02*
D03*
Y121000D02*
D03*
X199750Y386800D02*
D03*
X265000Y320000D02*
D03*
X232000Y143000D02*
D03*
Y135000D02*
D03*
X241000Y136000D02*
D03*
X241000Y144000D02*
D03*
X288000Y127000D02*
D03*
X202000Y175000D02*
D03*
X208000Y177000D02*
D03*
X176000Y191000D02*
D03*
X168000D02*
D03*
X328875Y23075D02*
D03*
X168000Y143000D02*
D03*
X176000Y143000D02*
D03*
X168000Y209000D02*
D03*
X176000D02*
D03*
X342875Y11075D02*
D03*
X224000Y24000D02*
D03*
X272132Y105000D02*
D03*
D46*
X187000Y156000D02*
D03*
X195000Y156000D02*
D03*
X271000Y24000D02*
D03*
X80000Y229000D02*
D03*
X207000Y254000D02*
D03*
X288500Y15000D02*
D03*
X282500Y20000D02*
D03*
X122000Y50000D02*
D03*
X103000Y14000D02*
D03*
X130000Y39000D02*
D03*
X224000Y254000D02*
D03*
X95000Y128000D02*
D03*
X205000Y236000D02*
D03*
X68000Y17000D02*
D03*
X237000Y124000D02*
D03*
X229000Y124000D02*
D03*
X251000Y116000D02*
D03*
X245000Y118000D02*
D03*
X277500Y385825D02*
D03*
X59000Y295000D02*
D03*
X50000Y285000D02*
D03*
X197000Y276000D02*
D03*
X128000Y351000D02*
D03*
X539000Y196000D02*
D03*
X514000Y199000D02*
D03*
X477000Y210000D02*
D03*
X507000Y211000D02*
D03*
X91000Y71000D02*
D03*
X123000Y77000D02*
D03*
X664000Y320000D02*
D03*
X285500Y385425D02*
D03*
X128000Y361000D02*
D03*
X132000Y337000D02*
D03*
X253000Y380000D02*
D03*
X205000Y386000D02*
D03*
X192000Y108000D02*
D03*
X192000Y114000D02*
D03*
X94000Y111000D02*
D03*
X83000Y125000D02*
D03*
X205000Y212000D02*
D03*
X210000Y269000D02*
D03*
X203000Y246000D02*
D03*
X166000Y241000D02*
D03*
X166000Y255000D02*
D03*
X190000Y248000D02*
D03*
X180000D02*
D03*
X180000Y273000D02*
D03*
X196000Y289000D02*
D03*
X187000Y266000D02*
D03*
X205000Y300000D02*
D03*
X164000Y280000D02*
D03*
X659000Y314000D02*
D03*
X640000Y340000D02*
D03*
X638000Y93000D02*
D03*
X329000Y41000D02*
D03*
X89000Y60000D02*
D03*
X129000Y71000D02*
D03*
X277500Y71975D02*
D03*
X112000Y39000D02*
D03*
X115000Y56000D02*
D03*
X211000Y28000D02*
D03*
X289000Y24000D02*
D03*
X302500Y14575D02*
D03*
X297000Y20000D02*
D03*
X282500Y62175D02*
D03*
X272500Y55175D02*
D03*
X211000Y130000D02*
D03*
X255500Y28000D02*
D03*
X197000Y236000D02*
D03*
X219500Y28000D02*
D03*
X267500Y72975D02*
D03*
X317500Y17575D02*
D03*
X342500Y44550D02*
D03*
X208000Y117000D02*
D03*
X270500Y43680D02*
D03*
X287500Y56175D02*
D03*
X291875Y61800D02*
D03*
X301000Y159000D02*
D03*
X317000Y160000D02*
D03*
Y152000D02*
D03*
X312500Y62425D02*
D03*
X296875Y91800D02*
D03*
X310500Y14575D02*
D03*
X137000Y363000D02*
D03*
X122000Y356000D02*
D03*
X122000Y366000D02*
D03*
X122000Y346000D02*
D03*
X141000Y337000D02*
D03*
X116000Y371000D02*
D03*
X155000Y371000D02*
D03*
X138000Y351000D02*
D03*
X153000Y322000D02*
D03*
X145000D02*
D03*
X176000Y362000D02*
D03*
X153000Y352000D02*
D03*
X161000D02*
D03*
X196000Y380000D02*
D03*
X55000Y279000D02*
D03*
X43000Y290000D02*
D03*
X62000Y318000D02*
D03*
X45000Y268000D02*
D03*
X68000Y284000D02*
D03*
X49000Y261000D02*
D03*
X133000Y176000D02*
D03*
X64000Y122000D02*
D03*
X327500Y360175D02*
D03*
X322500Y366175D02*
D03*
X290000Y348050D02*
D03*
X260000Y323000D02*
D03*
X224000Y382000D02*
D03*
X272500Y379425D02*
D03*
X234250Y382000D02*
D03*
X322500Y341675D02*
D03*
X312500D02*
D03*
X332500Y329675D02*
D03*
X327500Y335680D02*
D03*
X322500Y329675D02*
D03*
X317500Y335675D02*
D03*
X298750Y379000D02*
D03*
X48000Y106000D02*
D03*
X616000Y53000D02*
D03*
X61000Y96000D02*
D03*
X342500Y379425D02*
D03*
X337500Y385425D02*
D03*
X197000Y226000D02*
D03*
X220000Y274000D02*
D03*
X181000Y236000D02*
D03*
X175000Y252000D02*
D03*
X103000Y301000D02*
D03*
X303750Y332800D02*
D03*
X164000Y272000D02*
D03*
X86000Y117000D02*
D03*
Y109000D02*
D03*
X287500Y325575D02*
D03*
X274000Y323000D02*
D03*
X272500Y308200D02*
D03*
X268125Y337925D02*
D03*
X262875Y340925D02*
D03*
X88000Y300000D02*
D03*
X608000Y204000D02*
D03*
X525000Y175000D02*
D03*
X581000Y205000D02*
D03*
X559000Y210000D02*
D03*
X500000Y213000D02*
D03*
X472000Y181000D02*
D03*
X465000Y191000D02*
D03*
X464000Y220000D02*
D03*
X447000Y215000D02*
D03*
X16000Y190000D02*
D03*
X22000Y195000D02*
D03*
Y203000D02*
D03*
Y214000D02*
D03*
X621000Y342000D02*
D03*
X663000Y233000D02*
D03*
X678000Y203000D02*
D03*
X679000Y188000D02*
D03*
X613000Y190000D02*
D03*
X689000Y212000D02*
D03*
Y218000D02*
D03*
X660000Y169000D02*
D03*
X621000Y304000D02*
D03*
X29000Y236000D02*
D03*
X42000Y162000D02*
D03*
X55000Y245000D02*
D03*
X59000Y59000D02*
D03*
X677000Y58000D02*
D03*
Y96000D02*
D03*
X23000Y304000D02*
D03*
Y342000D02*
D03*
X125000Y196000D02*
D03*
X85000Y209000D02*
D03*
X317000Y140000D02*
D03*
X575000Y175000D02*
D03*
X303000Y267000D02*
D03*
X173000Y222000D02*
D03*
X204000Y228000D02*
D03*
X205000Y220000D02*
D03*
X197000Y212000D02*
D03*
X211000Y140000D02*
D03*
X221000Y108000D02*
D03*
X342500Y56800D02*
D03*
X327500D02*
D03*
X323125Y62425D02*
D03*
X336000Y18175D02*
D03*
X105000Y129000D02*
D03*
X135000Y45000D02*
D03*
X139000Y38000D02*
D03*
X131000Y63000D02*
D03*
X259692Y55867D02*
D03*
X310500Y387100D02*
D03*
X229000Y164000D02*
D03*
X219000Y130000D02*
D03*
X229000Y172000D02*
D03*
X99000Y119000D02*
D03*
X68000Y98000D02*
D03*
X245000Y100000D02*
D03*
X118000Y88000D02*
D03*
X608000Y36000D02*
D03*
X282500Y333425D02*
D03*
X186000Y51250D02*
D03*
Y45250D02*
D03*
X253000Y100000D02*
D03*
X631000Y85000D02*
D03*
X634000Y375000D02*
D03*
X594000Y207000D02*
D03*
X492789Y193000D02*
D03*
X566000Y208000D02*
D03*
X529000Y186000D02*
D03*
X451000Y167000D02*
D03*
X544000Y187000D02*
D03*
X555000Y188000D02*
D03*
X549000Y210000D02*
D03*
X560000Y194000D02*
D03*
X587000Y209000D02*
D03*
X577000Y197000D02*
D03*
X598000Y200000D02*
D03*
X533000Y204000D02*
D03*
X317000Y100000D02*
D03*
Y108000D02*
D03*
X286000Y108999D02*
D03*
X292000Y107000D02*
D03*
X303000Y108000D02*
D03*
Y100000D02*
D03*
X309000Y122000D02*
D03*
X303000Y124000D02*
D03*
X293000Y129000D02*
D03*
Y123000D02*
D03*
X229000Y140000D02*
D03*
Y132000D02*
D03*
X238000Y139000D02*
D03*
X244000Y141000D02*
D03*
X640000Y348000D02*
D03*
X643000Y85000D02*
D03*
X245875Y85925D02*
D03*
Y80300D02*
D03*
X173000Y188000D02*
D03*
X165000D02*
D03*
X337500Y338200D02*
D03*
X86000Y133000D02*
D03*
X192000Y352000D02*
D03*
X296875Y365800D02*
D03*
X86000Y139000D02*
D03*
X192000Y346000D02*
D03*
X303125Y365800D02*
D03*
X171000Y206000D02*
D03*
X179000D02*
D03*
X292500Y338200D02*
D03*
X301875Y62425D02*
D03*
D49*
X367250Y175553D02*
X369697Y178000D01*
X385000D01*
X450000Y167000D02*
X451000D01*
X122119Y252150D02*
X124819Y254850D01*
X115000Y254970D02*
X117819Y252150D01*
X122119D01*
X115000Y254970D02*
Y258303D01*
X126000Y252000D02*
X127000Y251000D01*
X133000Y254000D02*
X144000D01*
X124819Y254850D02*
X132150D01*
X133000Y254000D01*
X307859Y371000D02*
X311159Y374300D01*
X300172Y371000D02*
X307859D01*
X307180Y373150D02*
X311530Y377500D01*
X338500D01*
X300850Y373150D02*
X307180D01*
X299000Y375000D02*
X300850Y373150D01*
X290450Y375000D02*
X299000D01*
X298172Y373000D02*
X300172Y371000D01*
X311159Y374300D02*
X336700D01*
X143000Y280000D02*
X143000Y280000D01*
X92000Y314000D02*
Y317750D01*
X90000Y312000D02*
X92000Y314000D01*
X85750Y312000D02*
X90000D01*
X82000Y308250D02*
X85750Y312000D01*
X88750Y337250D02*
Y338900D01*
Y337250D02*
X91000Y335000D01*
Y333000D02*
Y335000D01*
X88750Y330750D02*
X91000Y333000D01*
X88750Y329250D02*
Y330750D01*
Y329250D02*
X91000Y327000D01*
Y325250D02*
Y327000D01*
X88750Y323000D02*
X91000Y325250D01*
X88750Y321000D02*
Y323000D01*
Y321000D02*
X92000Y317750D01*
X127000Y280000D02*
X143000D01*
X125000Y278000D02*
X127000Y280000D01*
X125000Y274000D02*
Y278000D01*
X85750Y319750D02*
Y340250D01*
X84000Y318000D02*
X85750Y319750D01*
X80000Y318000D02*
X84000D01*
X149250Y269250D02*
Y274000D01*
X147150Y267150D02*
X149250Y269250D01*
X146180Y265150D02*
X164650D01*
X166000Y266500D01*
X144500Y276000D02*
X147250D01*
X149250Y274000D01*
X141000Y337000D02*
X142750Y335250D01*
X150000D01*
X132000Y328000D02*
X134250Y325750D01*
X132000Y328000D02*
Y337000D01*
X131697Y307000D02*
X140697Y298000D01*
X131697Y307000D02*
Y309303D01*
X128250Y312750D02*
X131697Y309303D01*
X119250Y312750D02*
X128250D01*
X108000Y324000D02*
X119250Y312750D01*
X119607Y307697D02*
X121000D01*
X124447Y304250D01*
X130235D01*
X129303Y289000D02*
X146000D01*
X147000Y288000D01*
X143000Y273000D02*
Y274500D01*
X141500Y271500D02*
X143000Y273000D01*
X144150Y267150D02*
X147150D01*
X144000Y267000D02*
X144150Y267150D01*
X130000Y268000D02*
X138969D01*
X142819Y264150D01*
X145181D02*
X146180Y265150D01*
X142819Y264150D02*
X145181D01*
X145000Y322000D02*
X149000Y318000D01*
X117303Y301000D02*
X129303Y289000D01*
X103000Y301000D02*
X117303D01*
X48000Y106000D02*
X55000Y113000D01*
X93000Y386000D02*
X95000Y388000D01*
X107500D01*
X100150Y385150D02*
X108680D01*
X97000Y382000D02*
X100150Y385150D01*
X97000Y361000D02*
Y382000D01*
X138750Y61750D02*
X143250D01*
X133172Y59000D02*
X137922Y63750D01*
X133697Y56697D02*
X138750Y61750D01*
X132750Y64750D02*
Y71750D01*
X131000Y63000D02*
X132750Y64750D01*
X121303Y88000D02*
X127053Y93750D01*
X118000Y88000D02*
X121303D01*
X159250Y84447D02*
X161447Y82250D01*
X160618Y80250D02*
X168250D01*
X161447Y82250D02*
X167422D01*
X168250Y80250D02*
X171000Y83000D01*
X167422Y82250D02*
X170172Y85000D01*
X222675Y87325D02*
X233575Y76425D01*
X215675Y87325D02*
X222675D01*
X239150Y97953D02*
Y104900D01*
X352050Y13950D02*
X368800D01*
X274000Y20000D02*
X278000Y24000D01*
X257970Y20000D02*
X274000D01*
X199550Y363550D02*
X217822D01*
X196000Y360000D02*
X199550Y363550D01*
X179303Y360000D02*
X196000D01*
X205322Y361550D02*
X216500D01*
X180132Y358000D02*
X201772D01*
X205322Y361550D01*
X194800Y365800D02*
X217250D01*
X191000Y362000D02*
X194800Y365800D01*
X176000Y362000D02*
X191000D01*
X92000Y226000D02*
Y236303D01*
X86303Y242000D02*
X92000Y236303D01*
X71303Y242000D02*
X86303D01*
X216000Y387750D02*
X241250D01*
X214250Y386000D02*
X216000Y387750D01*
X205000Y386000D02*
X214250D01*
X215225Y382075D02*
X218900Y385750D01*
X198075Y382075D02*
X215225D01*
X110500Y99500D02*
X113000D01*
X109000Y101000D02*
X110500Y99500D01*
X109000Y101000D02*
X109000Y101000D01*
X109000Y101000D02*
Y103500D01*
X103500Y103500D02*
X105000Y105000D01*
X107500D01*
X109000Y103500D01*
X103500Y101000D02*
Y103500D01*
X99500Y99500D02*
X102000D01*
X103500Y101000D01*
X81250Y102250D02*
X83750Y104750D01*
X81250Y81750D02*
Y102250D01*
X86000Y101000D02*
X90000D01*
X84500Y99500D02*
X86000Y101000D01*
X84500Y97000D02*
Y99500D01*
Y97000D02*
X86000Y95500D01*
X90000Y101000D02*
X94000Y105000D01*
X81250Y81750D02*
X83750Y79250D01*
X91750Y82250D02*
X94750Y79250D01*
X98750Y80750D02*
Y82750D01*
X97250Y79250D02*
X98750Y80750D01*
X94750Y79250D02*
X97250D01*
X94750D02*
Y79250D01*
X89250Y82250D02*
X91750D01*
X86250Y79250D02*
X89250Y82250D01*
X86250Y79250D02*
Y79250D01*
X86000Y90000D02*
X87500D01*
X84500Y88500D02*
X86000Y90000D01*
X84500Y86000D02*
Y88500D01*
Y86000D02*
X86000Y84500D01*
X87500Y90000D02*
X89000Y91500D01*
Y94000D01*
X87500Y95500D02*
X89000Y94000D01*
X86000Y95500D02*
X87500D01*
X94000Y105000D02*
Y111000D01*
X83750Y79250D02*
X86250D01*
X93500Y122500D02*
X95000Y121000D01*
X90000Y122500D02*
X93500D01*
X88500Y126500D02*
X90000Y128000D01*
X88500Y124000D02*
Y126500D01*
Y124000D02*
X90000Y122500D01*
X90000Y128000D02*
X95000D01*
X83750Y104750D02*
X88250D01*
X89750Y106250D01*
X265550Y74925D02*
X267500Y72975D01*
X258925Y76425D02*
Y79675D01*
X253425Y79675D02*
X254925Y81175D01*
X257425D01*
X258925Y79675D01*
X112000Y140000D02*
X121000D01*
X105000Y129000D02*
Y133000D01*
X112000Y140000D01*
X114000Y134500D02*
X121000D01*
X110000Y121000D02*
Y130500D01*
X114000Y134500D01*
X140197Y119697D02*
Y131500D01*
X137750Y117250D02*
X140197Y119697D01*
X134447Y117250D02*
X137750D01*
X132000Y119697D02*
X134447Y117250D01*
X132000Y119697D02*
Y128500D01*
X130500Y130000D02*
X132000Y128500D01*
X128000Y130000D02*
X130500D01*
X126500Y128500D02*
X128000Y130000D01*
X126500Y121000D02*
Y128500D01*
X125000Y119500D02*
X126500Y121000D01*
X122500Y119500D02*
X125000D01*
X121000Y121000D02*
X122500Y119500D01*
X121000Y121000D02*
Y128500D01*
X119500Y130000D02*
X121000Y128500D01*
X117000Y130000D02*
X119500D01*
X115500Y128500D02*
X117000Y130000D01*
X115500Y121000D02*
Y128500D01*
X114000Y119500D02*
X115500Y121000D01*
X111500Y119500D02*
X114000D01*
X110000Y121000D02*
X111500Y119500D01*
X121000Y140000D02*
X122500Y138500D01*
Y136000D02*
Y138500D01*
X121000Y134500D02*
X122500Y136000D01*
X99750Y60000D02*
X105000D01*
X113000Y62000D02*
X115000Y60000D01*
X107000Y62000D02*
X113000D01*
X105000Y60000D02*
X107000Y62000D01*
X131000Y27000D02*
Y29000D01*
X129000Y25000D02*
X131000Y27000D01*
X129000Y22000D02*
Y25000D01*
Y22000D02*
X131000Y20000D01*
X130000Y37000D02*
Y39000D01*
X297000Y16000D02*
Y20000D01*
X296000Y15000D02*
X297000Y16000D01*
X293803Y15000D02*
X296000D01*
X290053Y18750D02*
X293803Y15000D01*
X278000Y24000D02*
X289000D01*
X127000Y25000D02*
Y27500D01*
X114500Y45500D02*
X122500D01*
X113000Y49500D02*
X114500Y51000D01*
X113000Y47000D02*
X114500Y45500D01*
X113000Y47000D02*
Y49500D01*
X106875Y41000D02*
X108875Y43000D01*
X100000Y39000D02*
X112000D01*
X96750Y42250D02*
X100000Y39000D01*
X96750Y42250D02*
Y57000D01*
X99750Y60000D01*
X100000Y30500D02*
Y33000D01*
X101500Y34500D01*
X125500Y23500D02*
X127000Y25000D01*
X113000Y23500D02*
X125500D01*
X111500Y19500D02*
X113000Y18000D01*
X111500Y19500D02*
Y22000D01*
X113000Y23500D01*
X76000Y77000D02*
X82000Y71000D01*
X91000D01*
X72250Y50000D02*
Y103053D01*
X225181Y21150D02*
X228030Y24000D01*
X96697Y25000D02*
X100000D01*
X89000Y32697D02*
Y60000D01*
Y32697D02*
X96697Y25000D01*
X203141Y25000D02*
X208991Y19150D01*
X280500Y18000D02*
X282500Y20000D01*
X203970Y27000D02*
X209820Y21150D01*
X225181D01*
X84303Y124000D02*
X89750Y118553D01*
X83000Y124000D02*
X84303D01*
X612250Y49250D02*
X616000Y53000D01*
X612250Y40447D02*
Y49250D01*
Y40447D02*
X614000Y38697D01*
X249298Y29930D02*
X253118Y33750D01*
X250127Y27930D02*
X253947Y31750D01*
X100250Y16750D02*
X103000Y14000D01*
X80750Y16750D02*
X100250D01*
X77000Y13000D02*
X80750Y16750D01*
X231031Y258000D02*
X234850Y261819D01*
X224000Y254000D02*
X224000Y254000D01*
Y249000D02*
Y254000D01*
X205000Y234000D02*
Y236000D01*
Y234000D02*
X208000Y231000D01*
X201000Y231000D02*
X204000Y228000D01*
X201000Y231000D02*
Y233000D01*
X194000Y229000D02*
Y231000D01*
Y229000D02*
X197000Y226000D01*
X76000Y77000D02*
Y106250D01*
X68000Y17000D02*
X83000Y32000D01*
X64000Y15000D02*
Y41750D01*
Y15000D02*
X66000Y13000D01*
X77000D01*
X64000Y41750D02*
X72250Y50000D01*
X131697Y216000D02*
X134697D01*
X136697Y214000D01*
X130566Y213434D02*
X133000D01*
X135434Y211000D01*
X298368Y305825D02*
X318750Y326207D01*
X300782Y304911D02*
X322500Y326628D01*
X300782Y298782D02*
Y304911D01*
X302782Y303582D02*
X326250Y327050D01*
X302782Y296479D02*
Y303582D01*
X305250Y302722D02*
X332203Y329675D01*
X305250Y295250D02*
Y302722D01*
X312750Y304450D02*
X341250Y332950D01*
X312750Y290447D02*
Y304450D01*
X295711Y309825D02*
X314750Y328864D01*
X295522Y305825D02*
X298368D01*
X277200Y298000D02*
X309750Y330550D01*
X276547Y300175D02*
X300000Y323628D01*
X297000Y323457D02*
Y332000D01*
X275718Y302175D02*
X297000Y323457D01*
X274890Y304175D02*
X294000Y323285D01*
Y332500D01*
X183250Y180891D02*
Y182382D01*
X174609Y172250D02*
X183250Y180891D01*
X174031Y175000D02*
X181250Y182219D01*
Y183210D01*
X175000Y169313D02*
X185250Y179562D01*
X132564Y172250D02*
X174609D01*
X164616Y169313D02*
X175000D01*
X159303Y164000D02*
X164616Y169313D01*
X130000Y164000D02*
X159303D01*
X93382Y170250D02*
X115250D01*
X81000Y157868D02*
X93382Y170250D01*
X94593Y167250D02*
X116078D01*
X82647Y155303D02*
X94593Y167250D01*
X95172Y164000D02*
X116657D01*
X84475Y153303D02*
X95172Y164000D01*
X96000Y161000D02*
X117485D01*
X85803Y150803D02*
X96000Y161000D01*
X104303Y158000D02*
X118314D01*
X94553Y148250D02*
X104303Y158000D01*
X105132Y155000D02*
X121000D01*
X95882Y145750D02*
X105132Y155000D01*
X121000D02*
X130000Y164000D01*
X118314Y158000D02*
X132564Y172250D01*
X117485Y161000D02*
X127500Y171015D01*
X116657Y164000D02*
X125000Y172343D01*
X115250Y170250D02*
X120000Y175000D01*
X116078Y167250D02*
X122500Y173672D01*
X120000Y179657D02*
X132343Y192000D01*
X120000Y175000D02*
Y179657D01*
X156343Y195000D02*
X159343Y198000D01*
X182868D01*
X123265Y186750D02*
X131515Y195000D01*
X156343D01*
X132343Y192000D02*
X157172D01*
X161172Y196000D02*
X183697D01*
X157172Y192000D02*
X161172Y196000D01*
X122500Y173672D02*
Y178328D01*
X133172Y189000D01*
X127500Y171015D02*
Y175803D01*
X125000Y172343D02*
Y177000D01*
X133750Y185750D01*
X158000Y189000D02*
X163000Y194000D01*
X133172Y189000D02*
X158000D01*
X133750Y185750D02*
X160250D01*
X134447Y182750D02*
X159000D01*
X163000Y194000D02*
X183000D01*
X160250Y185750D02*
X163000Y183000D01*
X173750D01*
X175000Y180000D02*
X178000Y183000D01*
X161750Y180000D02*
X175000D01*
X159000Y182750D02*
X161750Y180000D01*
X127500Y175803D02*
X134447Y182750D01*
X150697Y180000D02*
X155697Y175000D01*
X137000Y180000D02*
X150697D01*
X133000Y176000D02*
X137000Y180000D01*
X155697Y175000D02*
X174031D01*
X181250Y183210D02*
X186040Y188000D01*
X185250Y179562D02*
Y181553D01*
X186040Y188000D02*
X205000D01*
X183250Y182382D02*
X186868Y186000D01*
X187446Y183750D02*
X193250D01*
X185250Y181553D02*
X187446Y183750D01*
X186868Y186000D02*
X206000D01*
X205000Y188000D02*
X208000Y191000D01*
X206000Y186000D02*
X208000Y184000D01*
X193250Y183750D02*
X194000Y183000D01*
X180750Y190000D02*
X191000D01*
X173750Y183000D02*
X180750Y190000D01*
X208000Y184000D02*
X216000D01*
X218000Y186000D01*
Y189000D01*
X215000Y192000D02*
X218000Y189000D01*
X211697Y192000D02*
X215000D01*
X208000Y195697D02*
X211697Y192000D01*
X208000Y195697D02*
Y199000D01*
X113447Y186750D02*
X123265D01*
X92553Y173250D02*
X107000D01*
X110000Y183303D02*
X113447Y186750D01*
X110000Y176250D02*
Y183303D01*
X107000Y173250D02*
X110000Y176250D01*
X61750Y102250D02*
X66750D01*
X68000Y98000D02*
Y101000D01*
X66750Y102250D02*
X68000Y101000D01*
X57500Y106500D02*
X61750Y102250D01*
X70250Y112000D02*
X76000Y106250D01*
X65303Y110000D02*
X72250Y103053D01*
X70250Y112000D02*
Y138382D01*
X85750Y145750D02*
X95882D01*
X79263Y155303D02*
X82647D01*
X55000Y138697D02*
X77000Y160697D01*
X80000D01*
X57500Y137368D02*
X78000Y157868D01*
X81000D01*
X60000Y136040D02*
X79263Y155303D01*
X70250Y138382D02*
X82672Y150803D01*
X85803D01*
X64000Y136000D02*
X81303Y153303D01*
X84475D01*
X83947Y148250D02*
X94553D01*
X74000Y138303D02*
X83947Y148250D01*
X78000Y138000D02*
X85750Y145750D01*
X78000Y120000D02*
Y138000D01*
Y120000D02*
X81000Y117000D01*
X86000D01*
X74000Y114000D02*
Y138303D01*
Y114000D02*
X79000Y109000D01*
X86000D01*
X55000Y113000D02*
Y138697D01*
X57500Y106500D02*
Y137368D01*
X60000Y112697D02*
Y136040D01*
X64000Y122000D02*
Y136000D01*
X60000Y112697D02*
X62697Y110000D01*
X65303D01*
X171447Y232250D02*
X182750D01*
X184000Y231000D01*
X171447Y256250D02*
X175219D01*
X221500Y245000D02*
X224250D01*
X235000Y252000D02*
Y255500D01*
X232750Y249750D02*
X235000Y252000D01*
X232750Y242447D02*
Y249750D01*
X230303Y240000D02*
X232750Y242447D01*
X224250Y245000D02*
X233000Y253750D01*
Y256329D01*
X223000Y240000D02*
X230303D01*
X234000Y232000D02*
X238500Y236500D01*
X223000Y232000D02*
X234000D01*
Y224000D02*
X241000Y231000D01*
X223000Y224000D02*
X234000D01*
X289000Y264000D02*
X298000Y255000D01*
X281828Y264000D02*
X289000D01*
X309000D02*
Y274000D01*
X304000Y279000D02*
X309000Y274000D01*
X290000Y279750D02*
X297750D01*
X289250Y279000D02*
X290000Y279750D01*
X280000Y279000D02*
X289250D01*
X300050Y338550D02*
X303550D01*
X294000Y332500D02*
X300050Y338550D01*
X301550Y336550D02*
X305550D01*
X297000Y332000D02*
X301550Y336550D01*
X308750Y339750D02*
Y343485D01*
X305550Y336550D02*
X308750Y339750D01*
X306750Y341750D02*
Y344313D01*
X303550Y338550D02*
X306750Y341750D01*
X300000Y329050D02*
X303750Y332800D01*
X300000Y323628D02*
Y329050D01*
X248697Y283000D02*
X251447Y280250D01*
X242000Y283000D02*
X248697D01*
X239250Y280250D02*
X242000Y283000D01*
X251447Y280250D02*
X255250D01*
X258000Y283000D01*
X261000D01*
X263750Y280250D01*
Y280250D02*
Y280250D01*
Y280250D02*
X265750Y278250D01*
X262447Y285250D02*
X267447Y280250D01*
X258500Y285250D02*
X262447D01*
X256000Y287750D02*
X258500Y285250D01*
X233579Y285883D02*
X235447Y287750D01*
X228852Y285883D02*
X233579D01*
X222719Y279750D02*
X228852Y285883D01*
X259110Y298250D02*
X263360Y294000D01*
X231750Y298250D02*
X259110D01*
X260703Y290000D02*
X282368D01*
X257703Y293000D02*
X260703Y290000D01*
X263360Y294000D02*
X279672D01*
X228000Y293000D02*
X257703D01*
X224678Y290375D02*
X257000D01*
X259625Y287750D01*
X283447D01*
X291803Y285500D02*
X302782Y296479D01*
X277500Y285500D02*
X291803D01*
X272250Y280250D02*
X277500Y285500D01*
X299000Y297000D02*
X300782Y298782D01*
X292697Y297000D02*
X299000D01*
X283447Y287750D02*
X292697Y297000D01*
X293250Y303553D02*
X295522Y305825D01*
X293250Y300882D02*
Y303553D01*
X282368Y290000D02*
X293250Y300882D01*
X289250Y303578D02*
Y305210D01*
X279672Y294000D02*
X289250Y303578D01*
Y305210D02*
X293865Y309825D01*
X293000Y283000D02*
X305250Y295250D01*
X277828Y283000D02*
X293000D01*
X322500Y326628D02*
Y329675D01*
X326250Y327050D02*
Y329878D01*
X332203Y329675D02*
X332500D01*
X318750Y326207D02*
Y331622D01*
X316750Y328035D02*
Y334925D01*
X314750Y328864D02*
Y332300D01*
X293865Y309825D02*
X295711D01*
X310553Y288250D02*
X312750Y290447D01*
X306250Y288250D02*
X310553D01*
X297750Y279750D02*
X306250Y288250D01*
X216141Y300000D02*
X230000D01*
X231750Y298250D01*
X219000Y296000D02*
X225000D01*
X228000Y293000D01*
X222553Y288250D02*
X224678Y290375D01*
X216250Y268450D02*
X221700Y263000D01*
X216250Y277000D02*
X219000Y279750D01*
X216250Y268450D02*
Y277000D01*
X219000Y279750D02*
X222719D01*
X235447Y287750D02*
X256000D01*
X233250Y280250D02*
X239250D01*
X234850Y268850D02*
X242000Y276000D01*
X261000D02*
X262000Y275000D01*
X242000Y276000D02*
X261000D01*
X289250Y250447D02*
Y257750D01*
X286697Y260303D02*
X289250Y257750D01*
X282000Y260303D02*
X286697D01*
X302000Y254753D02*
X306000Y258753D01*
X302000Y252000D02*
Y254753D01*
X298000Y248000D02*
X302000Y252000D01*
X306000Y261000D02*
X309000Y264000D01*
X306000Y258753D02*
Y261000D01*
X309000Y258925D02*
X312000Y261925D01*
X305250Y253553D02*
X309000Y257303D01*
Y258925D01*
X305250Y250500D02*
Y253553D01*
X308606Y246303D02*
X313250Y250947D01*
X312000Y257000D02*
X313250Y255750D01*
Y250947D02*
Y255750D01*
X297000Y222000D02*
X298856Y223856D01*
X302856D01*
X281531Y253500D02*
X285000Y250031D01*
X274500Y253500D02*
X281531D01*
X270250Y257750D02*
X274500Y253500D01*
X273250Y257750D02*
Y262750D01*
Y257750D02*
X275000Y256000D01*
X270250Y257750D02*
Y262780D01*
X267181Y265850D02*
X270250Y262780D01*
X261350Y267850D02*
X268150D01*
X259859Y266359D02*
X261350Y267850D01*
X250500Y266359D02*
X259859D01*
X238500Y254359D02*
X250500Y266359D01*
X262678Y265850D02*
X267181D01*
X260578Y263750D02*
X262678Y265850D01*
X250719Y263750D02*
X260578D01*
X241000Y254031D02*
X250719Y263750D01*
X238500Y236500D02*
Y254359D01*
X197000Y241850D02*
X199100Y239750D01*
X177546Y244150D02*
X198850D01*
X147000Y244750D02*
X173250D01*
X174196Y247500D02*
X177546Y244150D01*
X149328Y247500D02*
X174196D01*
X145828Y251000D02*
X149328Y247500D01*
X123000Y259000D02*
X129078D01*
X119000Y255000D02*
X123000Y259000D01*
X129078D02*
X131828Y261750D01*
X128750Y262000D02*
X131000Y264250D01*
X118000Y262000D02*
X128750D01*
X168947Y261250D02*
X171447Y263750D01*
X224000Y271000D02*
X233250Y280250D01*
X329900Y345800D02*
X337500Y338200D01*
X310737Y348300D02*
X332703D01*
X341250Y339753D01*
X306750Y344313D02*
X310737Y348300D01*
X218550Y307550D02*
X225600D01*
X214750Y303750D02*
X218550Y307550D01*
X198500Y303750D02*
X214750D01*
X204750Y308000D02*
X215000D01*
X216550Y309550D01*
X199447Y306250D02*
X203000D01*
X204750Y308000D01*
X153000Y318000D02*
X156000Y315000D01*
X159000D01*
X149000Y318000D02*
X153000D01*
X153000Y322000D02*
X158000Y317000D01*
X159000Y315000D02*
X160000Y314000D01*
X368700Y359500D02*
X378632D01*
X365000Y355800D02*
X368700Y359500D01*
X378632D02*
X384250Y365118D01*
X331947Y355800D02*
X365000D01*
X378303Y362000D02*
X382250Y365947D01*
X332318Y359000D02*
X364000D01*
X367000Y362000D02*
X378303D01*
X364000Y359000D02*
X367000Y362000D01*
X658750Y314250D02*
Y339250D01*
Y314250D02*
X659000Y314000D01*
X667000Y323000D02*
Y336000D01*
X517000Y383500D02*
X524000Y376500D01*
X388500Y383500D02*
X517000D01*
X519000Y386000D02*
X525000Y380000D01*
X513303Y361697D02*
X524000Y351000D01*
X513303Y361697D02*
Y373000D01*
X510553Y375750D02*
X513303Y373000D01*
X392000Y389000D02*
X523000D01*
X527000Y385000D01*
X390000Y386000D02*
X519000D01*
X385000Y387000D02*
X388500Y383500D01*
X387000Y389000D02*
X390000Y386000D01*
X366450Y391000D02*
X390000D01*
X392000Y389000D01*
X385447Y369750D02*
X390000D01*
X396000Y375750D01*
X384250Y368553D02*
X385447Y369750D01*
X384618Y371750D02*
X389000D01*
X382250Y369382D02*
X384618Y371750D01*
X382250Y365947D02*
Y369382D01*
X384250Y365118D02*
Y368553D01*
X322682Y359000D02*
X325257Y356425D01*
X320318Y359000D02*
X322682D01*
X315868Y354550D02*
X320318Y359000D01*
X329743Y356425D02*
X332318Y359000D01*
X325257Y356425D02*
X329743D01*
X306853Y354550D02*
X315868D01*
X319947Y355800D02*
X323053D01*
X317750Y353603D02*
X319947Y355800D01*
X317750Y353550D02*
Y353603D01*
X316250Y352050D02*
X317750Y353550D01*
X296503Y344200D02*
X306853Y354550D01*
X308050Y352050D02*
X316250D01*
X297950Y341950D02*
X308050Y352050D01*
X273797Y341675D02*
X276322Y344200D01*
X266572Y341675D02*
X273797D01*
X270328Y345300D02*
X275028Y350000D01*
X255628Y345300D02*
X270328D01*
X246828Y336500D02*
X255628Y345300D01*
X269500Y347800D02*
X274200Y352500D01*
X254800Y347800D02*
X269500D01*
X246000Y339000D02*
X254800Y347800D01*
X273375Y337925D02*
X277400Y341950D01*
X268125Y337925D02*
X273375D01*
X265822Y340925D02*
X266572Y341675D01*
X262875Y340925D02*
X265822D01*
X313075Y368575D02*
X320100D01*
X322500Y366175D01*
X302250Y357750D02*
X313075Y368575D01*
X296618Y357750D02*
X302250D01*
X267000Y332850D02*
X274550D01*
X235700Y331000D02*
X250000D01*
X263850Y336000D02*
X267000Y332850D01*
X255000Y336000D02*
X263850D01*
X250000Y331000D02*
X255000Y336000D01*
X68000Y282000D02*
X70000Y280000D01*
X68000Y282000D02*
Y284000D01*
X88400Y222400D02*
X92000Y226000D01*
X88400Y219168D02*
Y222400D01*
Y219168D02*
X90168Y217400D01*
X92600D01*
X94800Y219600D01*
X99000Y215400D02*
Y217832D01*
X97232Y219600D02*
X99000Y217832D01*
X94800Y219600D02*
X97232D01*
X96800Y213200D02*
X99000Y215400D01*
X96800Y210768D02*
Y213200D01*
Y210768D02*
X98568Y209000D01*
X101000D01*
X108000Y216000D01*
X108000D01*
X172697Y326000D02*
X173697Y327000D01*
X176303D01*
X183303Y320000D01*
X171000Y326000D02*
X172697D01*
X167000Y330000D02*
X171000Y326000D01*
X149000Y326250D02*
X152750Y330000D01*
X155697D01*
X165000D02*
X167000D01*
X159000Y322500D02*
X161697D01*
X145447Y326250D02*
X149000D01*
X257141Y315000D02*
X270000D01*
X272500Y308200D02*
Y312500D01*
X270000Y315000D02*
X272500Y312500D01*
X150000Y335250D02*
X151250Y334000D01*
X257350Y328850D02*
X277650D01*
X279500Y327000D01*
Y324500D02*
Y327000D01*
X278000Y323000D02*
X279500Y324500D01*
X274000Y323000D02*
X278000D01*
X289300Y335000D02*
X292500Y338200D01*
X286228Y335000D02*
X289300D01*
X283028Y338200D02*
X286228Y335000D01*
X279900Y338200D02*
X283028D01*
X50000Y277848D02*
Y285000D01*
X167697Y236000D02*
X171447Y232250D01*
X150329Y233150D02*
X162181D01*
X165030Y236000D02*
X167697D01*
X162181Y233150D02*
X165030Y236000D01*
X131000Y380500D02*
X132500Y379000D01*
Y377250D02*
Y379000D01*
Y377250D02*
X134000Y375750D01*
X136447D01*
X140447Y379750D01*
X128500Y380500D02*
X131000D01*
X127000Y379000D02*
X128500Y380500D01*
X122697Y371000D02*
X127000Y375303D01*
Y379000D01*
X116000Y371000D02*
X122697D01*
X172030Y217000D02*
X176000D01*
X154750Y216447D02*
Y220053D01*
X136697Y214000D02*
X152303D01*
X154750Y216447D01*
X156000Y202250D02*
X169447D01*
X155000Y201250D02*
X156000Y202250D01*
X127000Y201250D02*
X155000D01*
X169447Y202250D02*
X170547Y201150D01*
X176000D01*
X157447Y209750D02*
X164500D01*
X166600Y211850D01*
X129000Y224828D02*
X152172D01*
X157193Y229850D01*
X135434Y211000D02*
X153000D01*
X163882Y215250D02*
X165632Y217000D01*
X157250Y215250D02*
X163882D01*
X153000Y211000D02*
X157250Y215250D01*
X166280Y222750D02*
X172030Y217000D01*
X157447Y222750D02*
X166280D01*
X154750Y220053D02*
X157447Y222750D01*
X157193Y229850D02*
X176453D01*
X159022Y227850D02*
X173000D01*
X152922Y221750D02*
X159022Y227850D01*
X129078Y221750D02*
X152922D01*
X103250Y237000D02*
X112250Y228000D01*
X117218D01*
X103250Y237000D02*
Y239093D01*
X201250Y210447D02*
Y215781D01*
X179303Y227000D02*
X190030D01*
X201250Y215781D01*
X182152Y224152D02*
X184750Y221553D01*
X176698Y224152D02*
X182152D01*
X173000Y227850D02*
X176698Y224152D01*
X127828Y226000D02*
X129000Y224828D01*
X165632Y217000D02*
X168000D01*
X118000Y219697D02*
X128000D01*
X131697Y216000D01*
X118132Y217000D02*
X127000D01*
X130566Y213434D01*
X62000Y280000D02*
Y290000D01*
Y280000D02*
X71000Y271000D01*
X69000Y343000D02*
X74000D01*
X67000Y341000D02*
X69000Y343000D01*
X67000Y307633D02*
Y341000D01*
X81000Y284000D02*
X109343Y255657D01*
X74750Y284000D02*
X81000D01*
X69750Y289000D02*
X74750Y284000D01*
X69750Y289000D02*
Y304883D01*
X48712Y268000D02*
X65711Y251000D01*
X45000Y268000D02*
X48712D01*
X55000Y271697D02*
Y279000D01*
X46000Y274040D02*
Y287000D01*
Y274040D02*
X67040Y253000D01*
X65711Y251000D02*
X74343D01*
X67040Y253000D02*
X75172D01*
X68368Y255000D02*
X76697D01*
X52750Y270618D02*
X68368Y255000D01*
X53697Y249000D02*
X64303D01*
X49000Y253697D02*
X53697Y249000D01*
X49000Y253697D02*
Y261000D01*
X64303Y249000D02*
X71303Y242000D01*
X71000Y266000D02*
Y271000D01*
X86618Y259250D02*
X112618Y233250D01*
X75750Y261250D02*
X87447D01*
X71000Y266000D02*
X75750Y261250D01*
X87447D02*
X113447Y235250D01*
X112618Y233250D02*
X114797D01*
X113447Y235250D02*
X115625D01*
X101250Y233750D02*
X109250Y225750D01*
X116640D01*
X118890Y223500D01*
X96000Y230000D02*
X106000Y220000D01*
X89686Y247000D02*
X98500Y238186D01*
Y232500D02*
Y238186D01*
X101250Y233750D02*
Y238265D01*
X90265Y249250D02*
X101250Y238265D01*
X96000Y230000D02*
Y237858D01*
X106000Y220000D02*
X108172D01*
X98500Y232500D02*
X112750Y218250D01*
X85343Y257000D02*
X103250Y239093D01*
X99750Y257402D02*
X104152Y253000D01*
Y250848D02*
Y253000D01*
Y250848D02*
X112250Y242750D01*
X99750Y257402D02*
Y259553D01*
X109343Y252000D02*
X114343Y247000D01*
X109343Y252000D02*
Y255657D01*
X112172Y253000D02*
X116000Y249172D01*
X112172Y253000D02*
Y256828D01*
X82000Y287000D02*
X112172Y256828D01*
X74750Y298553D02*
X115000Y258303D01*
X115625Y235250D02*
X119725Y231150D01*
X114797Y233250D02*
X119397Y228650D01*
X117218Y228000D02*
X119218Y226000D01*
X108172Y220000D02*
X112172Y216000D01*
X183868Y311000D02*
X188618Y306250D01*
X132750Y356250D02*
X148553D01*
X128000Y361000D02*
X132750Y356250D01*
X62000Y290000D02*
X65000Y293000D01*
X59000Y303000D02*
X65000Y297000D01*
Y293000D02*
Y297000D01*
X239500Y321500D02*
X254500D01*
X259000Y317000D01*
X238000Y320000D02*
X239500Y321500D01*
X200800Y320000D02*
X238000D01*
X206000Y317050D02*
X242050D01*
X196000Y320000D02*
X198000Y318000D01*
X205050D02*
X206000Y317050D01*
X198000Y318000D02*
X205050D01*
X259000Y317000D02*
X278925D01*
X254500Y326000D02*
X257350Y328850D01*
X237357Y326000D02*
X254500D01*
X255521Y330850D02*
X279925D01*
X253172Y328500D02*
X255521Y330850D01*
X236528Y328500D02*
X253172D01*
X202832Y326300D02*
X234328D01*
X236528Y328500D01*
X202003Y324300D02*
X235657D01*
X237357Y326000D01*
X203660Y328300D02*
X233000D01*
X235700Y331000D01*
X235903Y336500D02*
X246828D01*
X231328Y331925D02*
X235903Y336500D01*
X198550Y322250D02*
X200800Y320000D01*
X242050Y317050D02*
X243750Y318750D01*
X175000Y334000D02*
X184000Y325000D01*
X151250Y334000D02*
X175000D01*
X154000Y345000D02*
X163040D01*
X150000Y349000D02*
X154000Y345000D01*
X141303Y349000D02*
X150000D01*
X152250Y342500D02*
X163368D01*
X165618Y344750D01*
X149000Y345750D02*
X152250Y342500D01*
X156750Y348250D02*
X162553D01*
X164303Y350000D01*
X163368Y356500D02*
X165618Y354250D01*
X151632Y356500D02*
X163368D01*
X149382Y354250D02*
X151632Y356500D01*
X189368Y338500D02*
X197918D01*
X181618Y346250D02*
X189368Y338500D01*
X197918D02*
X204493Y331925D01*
X174114Y344750D02*
X187114Y331750D01*
X188442Y333750D02*
X198210D01*
X175442Y346750D02*
X188442Y333750D01*
X164790Y346750D02*
X175442D01*
X180225Y346250D02*
X181618D01*
X176475Y350000D02*
X180225Y346250D01*
X181053Y348250D02*
X182947D01*
X177303Y352000D02*
X181053Y348250D01*
X164303Y350000D02*
X176475D01*
X182947Y348250D02*
X190197Y341000D01*
X198247D01*
X172785Y342750D02*
X185786Y329750D01*
X187114Y331750D02*
X197382D01*
X185786Y329750D02*
X196553D01*
X165618Y344750D02*
X174114D01*
X197382Y331750D02*
X202832Y326300D01*
X198210Y333750D02*
X203660Y328300D01*
X166447Y342750D02*
X172785D01*
X193447Y322250D02*
X198550D01*
X190697Y325000D02*
X193447Y322250D01*
X184000Y325000D02*
X190697D01*
X163040Y345000D02*
X164790Y346750D01*
X135447Y347250D02*
X139553D01*
X141303Y349000D01*
X122000Y356000D02*
X128697D01*
X142485Y341000D02*
X145235Y338250D01*
X127000Y341000D02*
X142485D01*
X142500Y345750D02*
X149000D01*
X140750Y344000D02*
X142500Y345750D01*
X141250Y354250D02*
X149382D01*
X138000Y351000D02*
X141250Y354250D01*
X163697Y359000D02*
X166447Y356250D01*
X151303Y359000D02*
X163697D01*
X148553Y356250D02*
X151303Y359000D01*
X153000Y352000D02*
X156750Y348250D01*
X163697Y340000D02*
X166447Y342750D01*
X165618Y354250D02*
X179210D01*
X166447Y356250D02*
X178382D01*
X150303Y340000D02*
X163697D01*
X148553Y338250D02*
X150303Y340000D01*
X145235Y338250D02*
X148553D01*
X325250Y362425D02*
X327500Y360175D01*
X320947Y362425D02*
X325250D01*
X260066Y369550D02*
X288550D01*
X292000Y373000D01*
X298172D01*
X287000Y371550D02*
X290450Y375000D01*
X283082Y350000D02*
X284882Y351800D01*
X275028Y350000D02*
X283082D01*
X274200Y352500D02*
X282753D01*
X284053Y353800D01*
X284882Y351800D02*
X293497D01*
X284053Y353800D02*
X292668D01*
X296618Y357750D01*
X293497Y351800D02*
X297447Y355750D01*
X303578D02*
X313903Y366075D01*
X297447Y355750D02*
X303578D01*
X259238Y371550D02*
X287000D01*
X295500Y387000D02*
X305000D01*
X284050Y375550D02*
X295500Y387000D01*
X295850Y383850D02*
X304180D01*
X285550Y373550D02*
X295850Y383850D01*
X258409Y373550D02*
X285550D01*
X257581Y375550D02*
X284050D01*
X308750Y343485D02*
X311065Y345800D01*
X204493Y331925D02*
X231328D01*
X205322Y333925D02*
X230000D01*
X313903Y366075D02*
X317297D01*
X186725Y368000D02*
X192182Y373457D01*
X171672Y370750D02*
X174422Y368000D01*
X186725D01*
X185397Y370000D02*
X191397Y376000D01*
X175250Y370000D02*
X185397D01*
X172000Y373250D02*
X175250Y370000D01*
X173843Y365750D02*
X187803D01*
X193010Y370957D01*
X166750Y370750D02*
X171672D01*
X160250Y377250D02*
X166750Y370750D01*
X146250Y377250D02*
X160250D01*
X171343Y368250D02*
X173843Y365750D01*
X165922Y368250D02*
X171343D01*
X159422Y374750D02*
X165922Y368250D01*
X153447Y374750D02*
X159422D01*
X164223Y363777D02*
X170223D01*
X157000Y371000D02*
X164223Y363777D01*
X155000Y371000D02*
X157000D01*
X143250Y374250D02*
X146250Y377250D01*
X143250Y369250D02*
Y374250D01*
X171750Y360947D02*
Y362250D01*
X170223Y363777D02*
X171750Y362250D01*
X174447Y358250D02*
X177553D01*
X171750Y360947D02*
X174447Y358250D01*
X220000Y368550D02*
X237761D01*
X217250Y365800D02*
X220000Y368550D01*
X219000Y359050D02*
X235050D01*
X216500Y361550D02*
X219000Y359050D01*
X243490Y370950D02*
X255809D01*
X238500Y365960D02*
X243490Y370950D01*
X234960Y365960D02*
X238500D01*
X237761Y368550D02*
X242361Y373150D01*
X255181D01*
X244750Y368750D02*
X256438D01*
X235050Y359050D02*
X244750Y368750D01*
X256438D02*
X259238Y371550D01*
X255809Y370950D02*
X258409Y373550D01*
X230050Y361050D02*
X234960Y365960D01*
X220322Y361050D02*
X230050D01*
X370550Y389000D02*
X387000D01*
X372550Y387000D02*
X385000D01*
X356100Y374550D02*
X370550Y389000D01*
X356550Y371000D02*
X372550Y387000D01*
X340000Y371000D02*
X356550D01*
X336700Y374300D02*
X340000Y371000D01*
X338500Y377500D02*
X341450Y374550D01*
X356100D01*
X307000Y381000D02*
X340925D01*
X305000Y387000D02*
X308650Y383350D01*
X340925Y381000D02*
X342500Y379425D01*
X305850Y382150D02*
X307000Y381000D01*
X305850Y382150D02*
Y382180D01*
X304180Y383850D02*
X305850Y382180D01*
X308650Y383350D02*
X314350D01*
X316425Y385425D02*
X337500D01*
X314350Y383350D02*
X316425Y385425D01*
X312575Y389175D02*
X342875D01*
X310500Y387100D02*
X312575Y389175D01*
X192182Y373457D02*
X202328D01*
X202657Y370957D02*
X204700Y373000D01*
X193010Y370957D02*
X202657D01*
X202328Y373457D02*
X204372Y375500D01*
X202000Y375957D02*
X204293Y378250D01*
X201957Y376000D02*
X202000Y375957D01*
X191397Y376000D02*
X201957D01*
X241882Y381500D02*
X245672D01*
X235882Y375500D02*
X241882Y381500D01*
X245672D02*
X250521Y386350D01*
X242607Y379000D02*
X246000D01*
X236607Y373000D02*
X242607Y379000D01*
X262134Y388850D02*
X265159Y385825D01*
X277500D01*
X274000Y383228D02*
X275553Y381675D01*
X250193Y388850D02*
X262134D01*
X250521Y386350D02*
X261000D01*
X264121Y383228D02*
X274000D01*
X261000Y386350D02*
X264121Y383228D01*
X245343Y384000D02*
X250193Y388850D01*
X245947Y366550D02*
X257066D01*
X260066Y369550D01*
X236447Y357050D02*
X245947Y366550D01*
X246000Y379000D02*
X250850Y383850D01*
X241553Y384000D02*
X245343D01*
X235803Y378250D02*
X241553Y384000D01*
X204372Y375500D02*
X235882D01*
X204700Y373000D02*
X236607D01*
X219493Y357050D02*
X236447D01*
X204293Y378250D02*
X235803D01*
X196000Y380000D02*
X198075Y382075D01*
X194153Y389850D02*
X246851D01*
X191382Y384250D02*
X194132Y387000D01*
X190553Y386250D02*
X194153Y389850D01*
X228000Y382000D02*
X228000Y382000D01*
X224000Y382000D02*
X228000D01*
X218900Y385750D02*
X230500D01*
X241250Y387750D02*
X242000Y387000D01*
X180960Y356000D02*
X201800D01*
X203750Y354050D01*
X216493D01*
X219493Y357050D01*
X217822Y363550D02*
X220322Y361050D01*
X250850Y383850D02*
X259000D01*
X263425Y379425D01*
X272500D01*
X255181Y373150D02*
X257581Y375550D01*
X230500Y385750D02*
X234250Y382000D01*
X182868Y388000D02*
X186618Y384250D01*
X174000Y388000D02*
X182868D01*
X183697Y390000D02*
X187447Y386250D01*
X173000Y390000D02*
X183697D01*
X171000Y388000D02*
X173000Y390000D01*
X171500Y385500D02*
X174000Y388000D01*
X145030Y385500D02*
X171500D01*
X143500Y388000D02*
X171000D01*
X143680Y384150D02*
X145030Y385500D01*
X142500Y387000D02*
X143500Y388000D01*
X186618Y384250D02*
X191382D01*
X187447Y386250D02*
X190553D01*
X88000Y264000D02*
X92303D01*
X86500Y265500D02*
X88000Y264000D01*
X86500Y265500D02*
Y272500D01*
X85000Y274000D02*
X86500Y272500D01*
X82500Y274000D02*
X85000D01*
X81000Y272500D02*
X82500Y274000D01*
X81000Y267500D02*
Y272500D01*
X75500Y267500D02*
X77000Y266000D01*
X79500D01*
X81000Y267500D01*
X92303Y264000D02*
X94553Y261750D01*
X43000Y290000D02*
X46000Y287000D01*
X50000Y277848D02*
X52750Y275098D01*
X112250Y242750D02*
X116553D01*
X145828Y228650D02*
X150329Y233150D01*
X119397Y228650D02*
X145828D01*
X149850Y236000D02*
X161000D01*
X145000Y231150D02*
X149850Y236000D01*
X119725Y231150D02*
X145000D01*
X116553Y218250D02*
X118000Y219697D01*
X129000Y235000D02*
X131000D01*
X117000Y247000D02*
X129000Y235000D01*
X116553Y242750D02*
X119000Y240303D01*
Y237000D02*
Y240303D01*
Y237000D02*
X122000Y234000D01*
X116000Y249172D02*
X118798D01*
X131000Y235000D02*
X133000Y237000D01*
X114343Y247000D02*
X117000D01*
X118798Y249172D02*
X127970Y240000D01*
X144000D01*
X105000Y275000D02*
X118000Y262000D01*
X97553Y261750D02*
X99750Y259553D01*
X94553Y261750D02*
X97553D01*
X112750Y218250D02*
X116553D01*
X117132Y216000D02*
X118132Y217000D01*
X124000Y204250D02*
X127000Y201250D01*
X124000Y204250D02*
Y214000D01*
X83000Y337641D02*
Y342000D01*
X76359Y331000D02*
X83000Y337641D01*
X76359Y318609D02*
Y331000D01*
X80000Y343500D02*
X87000Y350500D01*
X80000Y337469D02*
Y343500D01*
X75531Y333000D02*
X80000Y337469D01*
X83000Y342000D02*
X90000Y349000D01*
X147500Y284000D02*
X149000Y282500D01*
Y280500D02*
Y282500D01*
Y280500D02*
X150500Y279000D01*
X121703Y284000D02*
X147500D01*
X174500Y268500D02*
X184197D01*
X184750Y282281D02*
X187031Y280000D01*
X192000Y272000D02*
Y278000D01*
X190000Y280000D02*
X192000Y278000D01*
X187031Y280000D02*
X190000D01*
X153000Y279000D02*
X156500Y282500D01*
X158500D01*
X185847Y270150D02*
X190150D01*
X192000Y272000D01*
X108000Y282000D02*
X118000Y272000D01*
X97960Y282000D02*
X108000D01*
X117000Y269000D02*
X124500D01*
X107000Y279000D02*
X117000Y269000D01*
X97632Y279000D02*
X107000D01*
X135000Y237000D02*
X138000Y234000D01*
X133000Y237000D02*
X135000D01*
X85750Y340250D02*
X88000Y342500D01*
X88750Y338900D02*
X90850Y341000D01*
Y346600D01*
X124500Y269000D02*
X127000Y271500D01*
X130500D01*
X132000Y273000D01*
Y275500D01*
X137500Y273000D02*
Y275500D01*
X132000D02*
X133500Y277000D01*
X136000D01*
X137500Y275500D01*
X139000Y271500D02*
X141500D01*
X137500Y273000D02*
X139000Y271500D01*
X74750Y298553D02*
Y317000D01*
X76359Y318609D01*
X87000Y358250D02*
Y364000D01*
X88000Y365000D01*
Y367500D01*
X73000Y333000D02*
X75531D01*
X71000Y331000D02*
X73000Y333000D01*
X71000Y307211D02*
X72250Y305961D01*
X71000Y307211D02*
Y331000D01*
X72250Y289750D02*
Y305961D01*
X79000Y297632D02*
X97632Y279000D01*
X77250Y310750D02*
Y315250D01*
X79000Y297632D02*
Y309000D01*
X77250Y310750D02*
X79000Y309000D01*
X75000Y287000D02*
X82000D01*
X72250Y289750D02*
X75000Y287000D01*
X77250Y315250D02*
X80000Y318000D01*
X82000Y297960D02*
Y308250D01*
Y297960D02*
X97960Y282000D01*
X101000Y374000D02*
X105000Y370000D01*
Y367375D02*
Y370000D01*
X148796Y300204D02*
X160796D01*
X140250Y306000D02*
Y309053D01*
X144750Y304250D02*
X148796Y300204D01*
X142000Y304250D02*
X144750D01*
X140250Y306000D02*
X142000Y304250D01*
X138985Y295500D02*
X150672D01*
X157172Y289000D01*
X130235Y304250D02*
X138985Y295500D01*
X149000Y293000D02*
X156000Y286000D01*
X135828Y293000D02*
X149000D01*
X128578Y300250D02*
X135828Y293000D01*
X115500Y341000D02*
Y352868D01*
X109500Y358868D02*
X115500Y352868D01*
X109500Y358868D02*
Y371200D01*
X157172Y289000D02*
X163000D01*
X120790Y304250D02*
X124790Y300250D01*
X105750Y304250D02*
X120790D01*
X86500Y374000D02*
X90000D01*
X82250Y378250D02*
X86500Y374000D01*
X82250Y378250D02*
Y386250D01*
X89000Y388250D02*
X91250Y386000D01*
X84250Y388250D02*
X89000D01*
X82250Y386250D02*
X84250Y388250D01*
X166000Y286000D02*
X168000Y288000D01*
X176000Y294303D02*
X184750Y285553D01*
X176000Y294303D02*
Y297000D01*
X184750Y282281D02*
Y285553D01*
X122375Y315625D02*
X133678D01*
X112250Y325750D02*
X122375Y315625D01*
X112250Y325750D02*
Y347750D01*
X101000Y374000D02*
Y380000D01*
X171796Y298000D02*
X174000Y300204D01*
X160796D02*
X163000Y298000D01*
X171796D01*
X105900Y374800D02*
Y377232D01*
X107668Y379000D01*
X110100D01*
X112300Y376800D02*
X114732D01*
X116500Y378568D01*
Y381000D01*
X113000Y384500D02*
X116500Y381000D01*
X112500Y384500D02*
X113000D01*
X202750Y274280D02*
X205000Y272030D01*
Y266000D02*
Y272030D01*
X121000Y376750D02*
Y382000D01*
X119000Y374750D02*
X121000Y376750D01*
X112000Y373000D02*
X113750Y374750D01*
X119000D01*
X133678Y315625D02*
X140250Y309053D01*
X137803Y319500D02*
X147750Y309553D01*
X180697Y279000D02*
X184000D01*
X175697Y284000D02*
Y289303D01*
Y284000D02*
X180697Y279000D01*
X157447Y292250D02*
X162250D01*
X151697Y298000D02*
X157447Y292250D01*
X162250D02*
X164000Y294000D01*
X171000D01*
X117500Y384500D02*
X118500D01*
X121000Y382000D01*
X115303Y312000D02*
X119607Y307697D01*
X103000Y312000D02*
X115303D01*
X100250Y327000D02*
Y332000D01*
Y314750D02*
Y318000D01*
X103000Y320750D01*
Y324250D01*
X100250Y327000D02*
X103000Y324250D01*
X100250Y341000D02*
Y354000D01*
Y341000D02*
X103000Y338250D01*
Y334750D02*
Y338250D01*
X100250Y332000D02*
X103000Y334750D01*
X100250Y314750D02*
X103000Y312000D01*
X91250Y386000D02*
X93000D01*
X90000Y374000D02*
X92000Y372000D01*
X160053Y305250D02*
X183750D01*
X153303Y312000D02*
X160053Y305250D01*
X183750D02*
X192000Y297000D01*
X122250Y328447D02*
X128697Y322000D01*
X122250Y328447D02*
Y337750D01*
X128697Y322000D02*
X139000D01*
X112000Y359697D02*
Y373000D01*
X90500Y382500D02*
X93000D01*
X97000Y361000D02*
X102750Y355250D01*
X92000Y359000D02*
X97500Y353500D01*
X92000Y359000D02*
Y372000D01*
X94500Y359750D02*
X100250Y354000D01*
X108000Y352000D02*
X112250Y347750D01*
X112000Y359697D02*
X118000Y353697D01*
Y342000D02*
Y353697D01*
X115500Y341000D02*
X119750Y336750D01*
X118000Y342000D02*
X122250Y337750D01*
X122000Y346000D02*
X127000Y341000D01*
X133000Y349697D02*
X135447Y347250D01*
X133000Y349697D02*
Y351697D01*
X128697Y356000D02*
X133000Y351697D01*
X140553Y359250D02*
X151250Y369947D01*
X135447Y359250D02*
X140553D01*
X128697Y366000D02*
X135447Y359250D01*
X137000Y363000D02*
X143250Y369250D01*
X97500Y312500D02*
Y353500D01*
X92250Y348000D02*
Y353000D01*
X87000Y358250D02*
X92250Y353000D01*
X90000Y349000D02*
Y352000D01*
X84000Y358000D02*
Y362500D01*
Y358000D02*
X90000Y352000D01*
X97500Y312500D02*
X105750Y304250D01*
X156000Y286000D02*
X166000D01*
X90850Y346600D02*
X92250Y348000D01*
X140697Y298000D02*
X151697D01*
X172000Y280000D02*
Y289000D01*
X170000Y291000D02*
X172000Y289000D01*
X165000Y291000D02*
X170000D01*
X163000Y289000D02*
X165000Y291000D01*
X171000Y294000D02*
X175697Y289303D01*
X160000Y277350D02*
Y281000D01*
X172000Y280000D02*
X175000Y277000D01*
X181969D01*
X151250Y372553D02*
X153447Y374750D01*
X151250Y369947D02*
Y372553D01*
X52750Y270618D02*
Y275098D01*
X76697Y255000D02*
X82447Y249250D01*
X90265D01*
X118890Y223500D02*
X127328D01*
X129078Y221750D01*
X176453Y229850D02*
X179303Y227000D01*
X184750Y218947D02*
Y221553D01*
Y218947D02*
X187947Y215750D01*
X190553D01*
X192750Y213553D01*
X201250Y210447D02*
X204697Y207000D01*
X208000D01*
X119218Y226000D02*
X127828D01*
X55000Y271697D02*
X69697Y257000D01*
X85343D01*
X67000Y307633D02*
X69750Y304883D01*
X143000Y274500D02*
X144500Y276000D01*
X158500Y282500D02*
X160000Y281000D01*
X150500Y279000D02*
X153000D01*
X117503Y279800D02*
X121703Y284000D01*
X113303Y281568D02*
Y284000D01*
Y281568D02*
X115071Y279800D01*
X117503D01*
X113303Y284000D02*
X117152Y287848D01*
X112952Y292048D02*
X115384D01*
X117152Y290281D01*
Y287848D02*
Y290281D01*
X106200Y285297D02*
X112952Y292048D01*
X103768Y285297D02*
X106200D01*
X102000Y287065D02*
X103768Y285297D01*
X101536Y295000D02*
X103303Y293232D01*
X92000Y293864D02*
X93768Y292097D01*
X92000Y293864D02*
Y296297D01*
X98503Y302800D01*
X88000Y300697D02*
X94303Y307000D01*
X88000Y300000D02*
Y300697D01*
X94303Y307000D02*
X96735D01*
X98503Y305232D01*
Y302800D02*
Y305232D01*
X196553Y329750D02*
X202003Y324300D01*
X124790Y300250D02*
X128578D01*
X151697Y303000D02*
X182000D01*
X147750Y306947D02*
X151697Y303000D01*
X147750Y306947D02*
Y309553D01*
X181969Y277000D02*
X185969Y273000D01*
X186000D01*
X160000Y277350D02*
X161350Y276000D01*
X127000Y251000D02*
X145828D01*
X132000Y247750D02*
X144000D01*
X129250Y245000D02*
X132000Y247750D01*
X127000Y245000D02*
X129250D01*
X342820Y270150D02*
X346000D01*
X347600Y271750D02*
X358553D01*
X346000Y270150D02*
X347600Y271750D01*
X348420Y265883D02*
X354179Y260125D01*
X334000Y272303D02*
X340420Y265883D01*
X348420D01*
X341983Y268017D02*
X351640D01*
X336000Y274000D02*
X341983Y268017D01*
X351640D02*
X357407Y262250D01*
X344750Y258500D02*
Y261553D01*
X342553Y263750D02*
X344750Y261553D01*
X443726Y183000D02*
X459102D01*
X443226Y182500D02*
X443726Y183000D01*
X443555Y180000D02*
X444305Y180750D01*
X443883Y177500D02*
X445133Y178750D01*
X444212Y175000D02*
X445961Y176750D01*
X444540Y172500D02*
X446790Y174750D01*
X444868Y170000D02*
X447618Y172750D01*
X445197Y167500D02*
X448447Y170750D01*
X461250Y254250D02*
X468518Y261518D01*
X375000Y254250D02*
X461250D01*
X373250Y251750D02*
X464000D01*
X496250Y264250D02*
Y275553D01*
X493553Y278250D02*
X496250Y275553D01*
X484000Y264500D02*
Y268000D01*
X482759Y263259D02*
X484000Y264500D01*
Y268000D02*
X485500Y269500D01*
X504500Y291500D02*
Y293500D01*
X501850Y288850D02*
X504500Y291500D01*
X502000Y296000D02*
X504500Y293500D01*
X498000Y296000D02*
X502000D01*
X496000Y294000D02*
X498000Y296000D01*
X496500Y260500D02*
X499000Y263000D01*
X458902Y257000D02*
X465937Y264036D01*
X400000Y257000D02*
X458902D01*
X480000Y272000D02*
Y276000D01*
X456000Y262500D02*
Y275303D01*
X453500Y260000D02*
X456000Y262500D01*
X401000Y260000D02*
X453500D01*
X464000Y269000D02*
X466447Y266553D01*
Y266553D02*
X469553D01*
Y266553D02*
X472000Y269000D01*
X464000Y269000D02*
Y275303D01*
X461553Y277750D02*
X464000Y275303D01*
X458447Y277750D02*
X461553D01*
X456000Y275303D02*
X458447Y277750D01*
X510500Y108500D02*
X511980Y109980D01*
X521000Y112000D02*
X528000D01*
X519500Y113500D02*
X521000Y112000D01*
X519500Y113500D02*
Y116500D01*
X334819Y131850D02*
X339000D01*
X340850Y130000D01*
X472000Y68000D02*
Y74000D01*
X470000Y66000D02*
X472000Y68000D01*
X466000Y66000D02*
X470000D01*
X461625Y48625D02*
X464000Y51000D01*
X458375Y48625D02*
X461625D01*
X456000Y51000D02*
X458375Y48625D01*
X456000Y51000D02*
Y56000D01*
X464000Y51000D02*
Y64000D01*
X454000Y58000D02*
X456000Y56000D01*
X448000D02*
X450000Y58000D01*
X454000D01*
X448000Y49000D02*
Y56000D01*
X446000Y47000D02*
X448000Y49000D01*
X387000Y47000D02*
X446000D01*
X449000Y68000D02*
X455000D01*
X447750Y66750D02*
X449000Y68000D01*
X447750Y59750D02*
Y66750D01*
X456000Y66000D02*
Y67000D01*
X455000Y68000D02*
X456000Y67000D01*
X445750Y57750D02*
X447750Y59750D01*
X441250Y57750D02*
X445750D01*
X340250Y93750D02*
X387000Y47000D01*
X340250Y93750D02*
Y100750D01*
X330000Y111000D02*
X340250Y100750D01*
X456000Y114000D02*
X461303D01*
X430000Y122000D02*
Y126500D01*
X432250Y116447D02*
X434447Y114250D01*
X430000Y122000D02*
X432250Y119750D01*
Y116447D02*
Y119750D01*
X371526Y126333D02*
X392483D01*
X368009Y129850D02*
X371526Y126333D01*
X371687Y129000D02*
X392000D01*
X368837Y131850D02*
X371687Y129000D01*
X351623Y131850D02*
X368837D01*
X354718Y129850D02*
X368009D01*
X428000Y117000D02*
Y125172D01*
X425322Y127850D02*
X428000Y125172D01*
X408850Y127850D02*
X425322D01*
X426075Y130425D02*
X430000Y126500D01*
X396575Y130425D02*
X426075D01*
X432000Y124000D02*
X434000Y122000D01*
X432000Y124000D02*
Y130000D01*
X429000Y133000D02*
X432000Y130000D01*
X407000Y126000D02*
X408850Y127850D01*
X403150D02*
X405000Y126000D01*
X407000D01*
X398000Y127850D02*
X403150D01*
X359672Y120000D02*
X361000Y118672D01*
Y116150D02*
Y118672D01*
X359850Y115000D02*
X361000Y116150D01*
X356000Y115000D02*
X359850D01*
X354000Y120000D02*
X359672D01*
X352250Y121750D02*
X354000Y120000D01*
X352250Y121750D02*
Y124553D01*
X431000Y109000D02*
X437000D01*
X425500Y114500D02*
X431000Y109000D01*
X425500Y114500D02*
Y124303D01*
X361250Y121750D02*
Y123500D01*
Y121750D02*
X362500Y120500D01*
X388500D01*
X362750Y125000D02*
X366000D01*
X361250Y123500D02*
X362750Y125000D01*
X388500Y120500D02*
X390000Y119000D01*
X354850Y113850D02*
X356000Y115000D01*
X437000Y109000D02*
X440000Y106000D01*
X433375Y111625D02*
X440322D01*
X428000Y117000D02*
X433375Y111625D01*
X398000Y71000D02*
X417500D01*
Y71000D02*
X419000Y69500D01*
X423000D02*
X429250Y75750D01*
X419000Y69500D02*
X423000D01*
X396000Y63000D02*
X399000D01*
X393000Y66000D02*
X396000Y63000D01*
X393000Y66000D02*
Y80132D01*
X423500Y65500D02*
X431000Y73000D01*
X423500Y63500D02*
Y65500D01*
X422000Y62000D02*
X423500Y63500D01*
X420000Y62000D02*
X422000D01*
X445553Y73750D02*
X448803Y70500D01*
X452500D01*
X456000Y74000D01*
X399000Y63000D02*
X400500Y64500D01*
X400500D02*
Y66500D01*
X402000Y68000D01*
X405000D01*
X406500Y66500D01*
Y63500D02*
Y66500D01*
Y63500D02*
X408000Y62000D01*
X411000D01*
X412500Y63500D01*
Y66500D01*
X414000Y68000D01*
X417000D01*
X418500Y66500D01*
Y63500D02*
Y66500D01*
Y63500D02*
X420000Y62000D01*
X429250Y75750D02*
X446382D01*
X396000Y73000D02*
X398000Y71000D01*
X431000Y73000D02*
X441697D01*
X468000Y105440D02*
X470290Y103150D01*
X465500Y109380D02*
X468000Y106880D01*
Y105440D02*
Y106880D01*
X470290Y103150D02*
X485150D01*
X467000Y114000D02*
X471000D01*
X465500Y109380D02*
Y112500D01*
X467000Y114000D01*
X493553Y66250D02*
X496000Y68697D01*
X483150Y68850D02*
X485750Y66250D01*
X496000Y68697D02*
Y74000D01*
X485750Y66250D02*
X493553D01*
X478820Y68850D02*
X483150D01*
X471750Y61781D02*
X478820Y68850D01*
X471750Y52447D02*
Y61781D01*
X385592Y44333D02*
X463637D01*
X471750Y52447D01*
X396000Y133000D02*
X429000D01*
X464250Y116947D02*
Y119750D01*
X462000Y122000D02*
X464250Y119750D01*
X458000Y122000D02*
X462000D01*
X434447Y114250D02*
X440118D01*
X477150Y108150D02*
Y115000D01*
X475000Y117150D02*
X477150Y115000D01*
X475000Y117150D02*
Y119697D01*
X505750Y124500D02*
X508250D01*
X504250Y126000D02*
X505750Y124500D01*
X508250D02*
X509750Y126000D01*
X521000Y121000D02*
X523000D01*
X525000Y123000D01*
X496000Y114000D02*
X504000D01*
X496000Y114000D02*
Y114000D01*
X346000Y140000D02*
Y143000D01*
Y140000D02*
X348000Y138000D01*
X333652Y137849D02*
X340828D01*
X343678Y135000D01*
X346000D01*
X357250Y142250D02*
X364000D01*
X353000Y138000D02*
X357250Y142250D01*
X348000Y138000D02*
X353000D01*
X357500Y136500D02*
Y138500D01*
Y136500D02*
X359000Y135000D01*
X362000D01*
X363000Y140000D02*
X367000Y136000D01*
X359000Y140000D02*
X363000D01*
X357500Y138500D02*
X359000Y140000D01*
X471000Y114000D02*
X472250Y115250D01*
X467000Y130803D02*
Y136000D01*
X468500Y137500D01*
X456000Y124000D02*
Y136000D01*
X457500Y137500D01*
X460000D02*
X461500Y136000D01*
X457500Y137500D02*
X460000D01*
X461500Y130803D02*
Y136000D01*
Y130803D02*
X463000Y129303D01*
X465500D02*
X467000Y130803D01*
X463000Y129303D02*
X465500D01*
X437000Y130803D02*
Y136000D01*
X437000Y136000D01*
X435000Y138000D02*
X437000Y136000D01*
X392000Y138000D02*
X435000D01*
X438500Y129303D02*
X441000D01*
X437000Y130803D02*
X438500Y129303D01*
X441000D02*
X442500Y130803D01*
Y136000D01*
X444000Y137500D02*
X446500D01*
X442500Y136000D02*
X444000Y137500D01*
X446500D02*
X448000Y136000D01*
Y124000D02*
Y136000D01*
X454000Y122000D02*
X456000Y124000D01*
X448000D02*
X450000Y122000D01*
X454000D01*
X475000Y119697D02*
X479750Y124447D01*
X440000Y119500D02*
X455500D01*
X440322Y111625D02*
X443697Y115000D01*
X447000D02*
X448000Y114000D01*
X443697Y115000D02*
X447000D01*
X455500Y119500D02*
X458000Y122000D01*
X437500D02*
X440000Y119500D01*
X434000Y122000D02*
X437500D01*
X346000Y121000D02*
Y126227D01*
X526000Y118000D02*
X528000Y120000D01*
X521000Y118000D02*
X526000D01*
X529500Y107500D02*
Y110500D01*
X528000Y112000D02*
X529500Y110500D01*
X352250Y124553D02*
X355547Y127850D01*
X354850Y109150D02*
Y113850D01*
Y109150D02*
X357000Y107000D01*
X359000D01*
X360000Y108000D01*
Y111000D01*
X354484Y106687D02*
X361250Y99922D01*
X352000Y106687D02*
X354484D01*
X361250Y98447D02*
Y99922D01*
Y98447D02*
X363447Y96250D01*
X440118Y114250D02*
X442868Y117000D01*
X436697Y60000D02*
X439000D01*
X441250Y57750D01*
X430697Y54000D02*
X436697Y60000D01*
X464000Y73000D02*
Y74000D01*
X462000Y71000D02*
X464000Y73000D01*
X458850Y72150D02*
X460000Y71000D01*
X462000D01*
X458850Y72150D02*
Y75181D01*
X457180Y76850D02*
X458850Y75181D01*
X454819Y76850D02*
X457180D01*
X446382Y75750D02*
X448132Y74000D01*
X451969D01*
X442447Y73750D02*
X445553D01*
X441697Y73000D02*
X442447Y73750D01*
X451969Y74000D02*
X454819Y76850D01*
X431969Y70000D02*
X436000D01*
X428000Y66031D02*
X431969Y70000D01*
X387000Y90000D02*
X396000Y81000D01*
Y73000D02*
Y81000D01*
X371172Y90000D02*
X387000D01*
X364922Y96250D02*
X371172Y90000D01*
X363447Y96250D02*
X364922D01*
X394500Y59500D02*
X425750D01*
X390000Y64000D02*
X394500Y59500D01*
X390000Y64000D02*
Y79000D01*
X436000Y70000D02*
X440000Y66000D01*
X428000Y61750D02*
Y66031D01*
X425750Y59500D02*
X428000Y61750D01*
X429000Y57000D02*
X433000Y61000D01*
Y65000D01*
X432000Y66000D02*
X433000Y65000D01*
X392000Y57000D02*
X429000D01*
X385000Y64000D02*
X392000Y57000D01*
X377828Y64000D02*
X385000D01*
X391000Y54000D02*
X430697D01*
X384000Y61000D02*
X391000Y54000D01*
X378000Y61000D02*
X384000D01*
X461303Y114000D02*
X464250Y116947D01*
X346000Y126227D02*
X351623Y131850D01*
X449030Y117000D02*
X452000Y114031D01*
Y112000D02*
X455000Y109000D01*
X452000Y112000D02*
Y114031D01*
X461000Y109000D02*
X464000Y106000D01*
X455000Y109000D02*
X461000D01*
X442868Y117000D02*
X449030D01*
X369000Y136000D02*
X372000Y133000D01*
X367000Y136000D02*
X369000D01*
X371343Y140000D02*
X373718Y137625D01*
X365750Y144250D02*
X370000Y140000D01*
X371343D01*
X364000Y142250D02*
X368250Y138000D01*
X370515D01*
X373202Y135312D01*
X381937Y139937D02*
X387500Y145500D01*
X383625Y137625D02*
X389000Y143000D01*
X385312Y135312D02*
X390500Y140500D01*
X392483Y126333D02*
X396575Y130425D01*
X392000Y129000D02*
X396000Y133000D01*
X387000D02*
X392000Y138000D01*
X372000Y133000D02*
X387000D01*
X373202Y135312D02*
X385312D01*
X373718Y137625D02*
X383625D01*
X374234Y139937D02*
X381937D01*
X393817Y123667D02*
X398000Y127850D01*
X371364Y123667D02*
X393817D01*
X367180Y127850D02*
X371364Y123667D01*
X399500Y125500D02*
X402000D01*
X398000Y124000D02*
X399500Y125500D01*
X398000Y116697D02*
Y124000D01*
X355547Y127850D02*
X367180D01*
X350000Y125132D02*
X354718Y129850D01*
X350000Y113000D02*
Y125132D01*
X420000Y116697D02*
Y124303D01*
X421500Y125803D01*
X424000D02*
X425500Y124303D01*
X421500Y125803D02*
X424000D01*
X414500Y116697D02*
Y124000D01*
Y116697D02*
X416000Y115197D01*
X418500D02*
X420000Y116697D01*
X416000Y115197D02*
X418500D01*
X409000Y115697D02*
Y124000D01*
X410500Y125500D01*
X413000D02*
X414500Y124000D01*
X410500Y125500D02*
X413000D01*
X403500Y115697D02*
Y124000D01*
Y115697D02*
X405000Y114197D01*
X407500D02*
X409000Y115697D01*
X405000Y114197D02*
X407500D01*
X402000Y125500D02*
X403500Y124000D01*
X390000Y116697D02*
Y119000D01*
Y116697D02*
X392447Y114250D01*
X336000Y115697D02*
Y121000D01*
Y115697D02*
X339447Y112250D01*
X384508Y41667D02*
X473667D01*
X386132Y87000D02*
X393000Y80132D01*
X369000Y87000D02*
X386132D01*
X385000Y84000D02*
X390000Y79000D01*
X368000Y84000D02*
X385000D01*
X351750Y100250D02*
X368000Y84000D01*
X354000Y102000D02*
X369000Y87000D01*
X354000Y102000D02*
Y103000D01*
X351750Y100250D02*
Y101210D01*
X346000Y112687D02*
X352000Y106687D01*
X349750Y97675D02*
Y100382D01*
X347000Y103132D02*
X349750Y100382D01*
X347750Y95925D02*
Y99553D01*
X344000Y103303D02*
X347750Y99553D01*
X337583Y92342D02*
Y99417D01*
X327083Y109917D02*
X337583Y99417D01*
X335000Y91175D02*
Y98343D01*
X324167Y109177D02*
X335000Y98343D01*
X332750Y89250D02*
Y96553D01*
X326803Y102500D02*
X332750Y96553D01*
X347000Y103132D02*
Y106031D01*
X349750Y97675D02*
X370000Y77425D01*
X337583Y92342D02*
X385592Y44333D01*
X335000Y91175D02*
X384508Y41667D01*
X332750Y89250D02*
X383000Y39000D01*
X349000Y103960D02*
X351750Y101210D01*
X349000Y103960D02*
Y106859D01*
X346009Y109850D02*
X349000Y106859D01*
X345181Y107850D02*
X347000Y106031D01*
X344000Y103303D02*
Y105000D01*
X347750Y95925D02*
X367000Y76675D01*
Y72000D02*
Y76675D01*
Y72000D02*
X378000Y61000D01*
X370000Y71828D02*
Y77425D01*
X327083Y109917D02*
Y125013D01*
X330000Y111000D02*
Y124000D01*
X464000Y64000D02*
X466000Y66000D01*
X488000Y52500D02*
Y58000D01*
X480000Y39000D02*
X484000Y43000D01*
Y48500D02*
X488000Y52500D01*
X484000Y43000D02*
Y48500D01*
X383000Y39000D02*
X480000D01*
X323000Y102500D02*
X326803D01*
X321250Y104250D02*
X323000Y102500D01*
X321250Y104250D02*
Y134250D01*
X476000Y44000D02*
Y48697D01*
X473667Y41667D02*
X476000Y44000D01*
X321250Y134250D02*
X330000Y143000D01*
X312750Y136250D02*
Y147750D01*
X334641Y134999D02*
X338000D01*
X330750Y131109D02*
X334641Y134999D01*
X330750Y128679D02*
Y131109D01*
X328750Y130447D02*
Y132947D01*
X333652Y137849D01*
X333000Y127000D02*
Y130030D01*
X334819Y131850D01*
X330000Y124000D02*
X333000Y127000D01*
X327083Y125013D02*
X330750Y128679D01*
X333150Y115718D02*
Y122181D01*
X336000Y125031D01*
Y129000D01*
X324167Y109177D02*
Y125863D01*
X328750Y130447D01*
X326750Y81850D02*
Y84425D01*
X324250Y86925D02*
X326750Y84425D01*
X328750Y83675D02*
X354000Y58425D01*
Y44000D02*
Y58425D01*
X316046Y86925D02*
X324250D01*
X315218Y84925D02*
X321955D01*
X324375Y82505D01*
Y80228D02*
Y82505D01*
X361827Y41477D02*
X366303Y37000D01*
X354000Y44000D02*
X356523Y41477D01*
X324375Y80228D02*
X346250Y58353D01*
X485000Y355000D02*
Y361500D01*
X482500Y364000D02*
X485000Y361500D01*
X393000Y364000D02*
X482500D01*
X472000Y334000D02*
Y350500D01*
X395000Y355000D02*
X467500D01*
X472000Y350500D01*
X490000Y264000D02*
Y268000D01*
X488500Y269500D02*
X490000Y268000D01*
X485500Y269500D02*
X488500D01*
X494500Y262500D02*
X496250Y264250D01*
X491500Y262500D02*
X494500D01*
X490000Y264000D02*
X491500Y262500D01*
X357407Y262250D02*
X370750D01*
X366553Y264250D02*
X367553Y265250D01*
X363447Y264250D02*
X366553D01*
X360750Y266947D02*
X363447Y264250D01*
X367553Y265250D02*
X395750D01*
X501000Y270000D02*
X504000D01*
X507000Y273000D01*
X499000Y268000D02*
X501000Y270000D01*
X499000Y263000D02*
Y268000D01*
X488250Y333750D02*
Y347553D01*
X394000Y361000D02*
X474803D01*
X488250Y347553D01*
X464000Y344697D02*
Y348000D01*
X460000Y352000D02*
X464000Y348000D01*
X396000Y352000D02*
X460000D01*
X464000Y334000D02*
Y339303D01*
X465848Y341152D01*
Y342848D01*
X464000Y344697D02*
X465848Y342848D01*
X316500Y282500D02*
Y286500D01*
X318000Y288000D01*
X316500Y282500D02*
X318000Y281000D01*
X472000Y269000D02*
Y275750D01*
X338000Y293030D02*
Y297000D01*
X335150Y293150D02*
Y300950D01*
X325150Y283150D02*
X335150Y293150D01*
X333000Y295000D02*
Y302550D01*
X323150Y285150D02*
X333000Y295000D01*
X323150Y278991D02*
Y285150D01*
X335150Y290180D02*
X338000Y293030D01*
X335150Y287153D02*
Y290180D01*
X331000Y297000D02*
Y304893D01*
X322000Y288000D02*
X331000Y297000D01*
X325150Y279820D02*
Y283150D01*
X318000Y288000D02*
X322000D01*
X325303Y295000D02*
X328750Y298447D01*
Y306750D01*
X365000Y275850D02*
X371475D01*
X360950Y279900D02*
X365000Y275850D01*
X357100Y279900D02*
X360950D01*
X374000Y278375D02*
X387468D01*
X371475Y275850D02*
X374000Y278375D01*
X440000Y283303D02*
X442447Y285750D01*
X445553D01*
X447303Y284000D01*
X425730Y278730D02*
X438730D01*
X424000Y277000D02*
X425730Y278730D01*
X424000Y269000D02*
Y277000D01*
X465000Y289000D02*
Y293000D01*
X463000Y287000D02*
X465000Y289000D01*
X460700Y287000D02*
X463000D01*
X464000Y294000D02*
X465000Y293000D01*
X458850Y288850D02*
X460700Y287000D01*
X440000Y280000D02*
Y283303D01*
X438730Y278730D02*
X440000Y280000D01*
X358000Y285500D02*
X360500Y283000D01*
X375000D01*
X377000Y281000D01*
X444500Y263500D02*
X447000D01*
X443000Y265000D02*
X444500Y263500D01*
X443000Y265000D02*
Y269697D01*
X437500Y265500D02*
Y269697D01*
X439250Y271446D01*
Y271447D01*
X432000Y265500D02*
Y274500D01*
X441250Y271447D02*
X443000Y269697D01*
X439250Y271447D02*
X441250D01*
X436000Y264000D02*
X437500Y265500D01*
X433500Y264000D02*
X436000D01*
X432000Y265500D02*
X433500Y264000D01*
X371000Y270000D02*
X375250D01*
X368000Y273000D02*
X371000Y270000D01*
X375969Y323000D02*
X396000D01*
X349150Y296181D02*
X375969Y323000D01*
X354000Y297000D02*
X355969D01*
X352000Y295000D02*
X354000Y297000D01*
X352000Y295000D02*
X352000D01*
X355969Y297000D02*
X360469Y292500D01*
X362530D01*
X349150Y282150D02*
Y296181D01*
X346000Y287000D02*
Y296954D01*
X343000Y274000D02*
Y298000D01*
X341000Y292000D02*
Y300550D01*
X392083Y328333D02*
X394750Y331000D01*
X393667Y325667D02*
X398000Y330000D01*
X354000Y283000D02*
Y289000D01*
X354000Y283000D02*
X357100Y279900D01*
X375250Y270000D02*
X377250Y272000D01*
Y274250D02*
X378750Y275750D01*
X377250Y272000D02*
Y274250D01*
X378750Y275750D02*
X386553D01*
X370750Y262250D02*
X376500Y256500D01*
X369125Y260125D02*
X375000Y254250D01*
X354179Y260125D02*
X369125D01*
X360750Y266947D02*
Y269553D01*
X358553Y271750D02*
X360750Y269553D01*
X398000Y331172D02*
X401828Y335000D01*
X398000Y330000D02*
Y331172D01*
X452850Y290850D02*
X456000Y294000D01*
X449350Y290850D02*
X452850D01*
X358000Y285500D02*
Y287000D01*
X377000Y281000D02*
X388250D01*
X362530Y292500D02*
X365000Y290030D01*
X394750Y331000D02*
Y332447D01*
X403803Y341500D01*
X343000Y274000D02*
X344000Y273000D01*
X403803Y341500D02*
X418500D01*
X460414Y330586D02*
X464000Y327000D01*
X455414Y330586D02*
X460414D01*
X453678Y328850D02*
X455414Y330586D01*
X446225Y328850D02*
X453678D01*
X497500Y340803D02*
Y343197D01*
X496000Y339303D02*
X497500Y340803D01*
X496000Y344697D02*
X497500Y343197D01*
X496000Y334000D02*
Y339303D01*
Y344697D02*
Y351000D01*
X320000Y303000D02*
X320950D01*
X487000Y353000D02*
X494000D01*
X485000Y355000D02*
X487000Y353000D01*
X494000D02*
X496000Y351000D01*
X448750Y342250D02*
X450500Y340500D01*
Y336000D02*
Y340500D01*
X448000Y334000D02*
X448500D01*
X450500Y336000D01*
X433750Y342250D02*
X448750D01*
X464000Y326000D02*
Y327000D01*
X464000Y327000D01*
X401000Y328000D02*
X445375D01*
X396000Y323000D02*
X401000Y328000D01*
X445375D02*
X446225Y328850D01*
X421500Y266500D02*
X424000Y269000D01*
X403500Y266500D02*
X421500D01*
X320000Y273000D02*
X323000D01*
X325141Y275141D02*
Y277000D01*
X323000Y273000D02*
X325141Y275141D01*
X469750Y278000D02*
X472000Y275750D01*
X466197Y278000D02*
X469750D01*
X472000Y288000D02*
Y294000D01*
X470000Y286000D02*
X472000Y288000D01*
X466000Y286000D02*
X470000D01*
X463750Y283750D02*
X466000Y286000D01*
X463750Y280447D02*
X466197Y278000D01*
X463750Y280447D02*
Y283750D01*
X476000Y280000D02*
X480000Y276000D01*
X476000Y287000D02*
X477850Y288850D01*
X476000Y280000D02*
Y287000D01*
X387468Y278375D02*
X389843Y276000D01*
X394000D02*
X403500Y266500D01*
X395750Y265250D02*
X401000Y260000D01*
X394000Y263000D02*
X400000Y257000D01*
X336000Y274000D02*
Y279000D01*
X361500Y294500D02*
X365500D01*
X360000Y296000D02*
Y297000D01*
Y296000D02*
X361500Y294500D01*
X365500D02*
X371000Y300000D01*
X405000Y335000D02*
X407500Y332500D01*
X401828Y335000D02*
X405000D01*
X392447Y281250D02*
X396578D01*
X388868Y284828D02*
Y293000D01*
Y284828D02*
X392447Y281250D01*
X365000Y288000D02*
Y290030D01*
X407200Y287428D02*
X411128Y283500D01*
X429500D02*
X432000Y286000D01*
X411128Y283500D02*
X429500D01*
X407000Y295000D02*
X408500Y296500D01*
X407000Y291000D02*
Y295000D01*
X401500Y291000D02*
Y292500D01*
X400000Y294000D02*
X401500Y292500D01*
X404768Y287428D02*
X407200D01*
X403000Y285661D02*
X404768Y287428D01*
X403000Y283228D02*
Y285661D01*
Y283228D02*
X407514Y278714D01*
Y276282D02*
Y278714D01*
X405746Y274514D02*
X407514Y276282D01*
X403314Y274514D02*
X405746D01*
X390250Y279000D02*
X395000D01*
X405000Y269000D01*
X389843Y276000D02*
X394000D01*
X402303Y264000D02*
X425000D01*
X393303Y273000D02*
X402303Y264000D01*
X389303Y273000D02*
X393303D01*
X444350Y293350D02*
X446850D01*
X449350Y290850D01*
X442850Y291850D02*
X444350Y293350D01*
X358000Y287000D02*
X360000Y289000D01*
X362000D01*
X432322Y283150D02*
X436150D01*
X430172Y281000D02*
X432322Y283150D01*
X453000Y331000D02*
X456000Y334000D01*
X419000Y331000D02*
X453000D01*
X417000Y333000D02*
X419000Y331000D01*
X420000Y335000D02*
Y340000D01*
X420000Y340000D01*
X418500Y341500D02*
X420000Y340000D01*
X420000Y335000D02*
X421500Y333500D01*
X424500D02*
X426000Y335000D01*
X421500Y333500D02*
X424500D01*
X426000Y335000D02*
X426000Y335000D01*
X426000Y335000D02*
Y339000D01*
X427500Y340500D02*
X430500D01*
X426000Y339000D02*
X427500Y340500D01*
X430500D02*
X432000Y339000D01*
Y334000D02*
Y339000D01*
Y334000D02*
X432000Y334000D01*
X431000Y345000D02*
X433750Y342250D01*
X456000Y282000D02*
Y286000D01*
X450000Y281000D02*
X455000D01*
X456000Y282000D01*
X448250Y279250D02*
X450000Y281000D01*
X448250Y264750D02*
Y279250D01*
X346000Y279000D02*
X349150Y282150D01*
X338000Y289000D02*
X341000Y292000D01*
X335150Y287153D02*
X338850Y283453D01*
X447000Y263500D02*
X448250Y264750D01*
X428000Y276000D02*
X430500D01*
X432000Y274500D01*
X426500D02*
X428000Y276000D01*
X425000Y264000D02*
X426500Y265500D01*
Y274500D01*
X396578Y281250D02*
X403314Y274514D01*
X388250Y281000D02*
X390250Y279000D01*
X405000Y269000D02*
X420000D01*
X396000Y292500D02*
X397500Y294000D01*
X396000Y290000D02*
Y292500D01*
X397500Y294000D02*
X400000D01*
X392250Y288750D02*
X394750D01*
X396000Y290000D01*
X401500Y291000D02*
X403000Y289500D01*
X405500D02*
X407000Y291000D01*
X403000Y289500D02*
X405500D01*
X412500Y287000D02*
Y295000D01*
X411000Y296500D02*
X412500Y295000D01*
X408500Y296500D02*
X411000D01*
X418000Y287000D02*
Y295000D01*
X412500Y287000D02*
X414000Y285500D01*
X416500D02*
X418000Y287000D01*
X414000Y285500D02*
X416500D01*
X423500Y287000D02*
Y295000D01*
X418000D02*
X419500Y296500D01*
X422000D02*
X423500Y295000D01*
X419500Y296500D02*
X422000D01*
X425000Y285500D02*
X427500D01*
X429000Y287000D01*
X423500D02*
X425000Y285500D01*
X429000Y287000D02*
Y295000D01*
X434500Y290000D02*
Y295000D01*
X429000D02*
X430500Y296500D01*
X433000D02*
X434500Y295000D01*
X430500Y296500D02*
X433000D01*
X436000Y288500D02*
X438500D01*
X440000Y290000D01*
X434500D02*
X436000Y288500D01*
X391000Y290000D02*
Y293697D01*
Y290000D02*
X392250Y288750D01*
X387000Y297697D02*
X391000Y293697D01*
X381000Y297697D02*
X387000D01*
X378697Y300000D02*
X381000Y297697D01*
X371000Y300000D02*
X378697D01*
X387368Y294500D02*
X388868Y293000D01*
X386553Y275750D02*
X389303Y273000D01*
X384500Y294500D02*
X387368D01*
X383000Y293000D02*
X384500Y294500D01*
X383000Y285000D02*
Y293000D01*
X381500Y283500D02*
X383000Y285000D01*
X378500Y283500D02*
X381500D01*
X377000Y285000D02*
X378500Y283500D01*
X377000Y285000D02*
Y296000D01*
X371000Y288000D02*
Y296000D01*
X372500Y297500D01*
X375500D01*
X377000Y296000D01*
X366500Y286500D02*
X369500D01*
X365000Y288000D02*
X366500Y286500D01*
X369500D02*
X371000Y288000D01*
X383000Y263000D02*
X394000D01*
X381000Y261000D02*
X383000Y263000D01*
X381000Y258000D02*
Y261000D01*
X338850Y274120D02*
X342820Y270150D01*
X250000Y305750D02*
X252000Y307750D01*
X227400Y305750D02*
X250000D01*
X245118Y315300D02*
X249882D01*
X267000Y298000D02*
X277200D01*
X213000Y271303D02*
Y281303D01*
Y271303D02*
X213750Y270553D01*
Y265250D02*
Y270553D01*
X213000Y281303D02*
X219947Y288250D01*
X183303Y320000D02*
X196000D01*
X197382Y313750D02*
X203300D01*
X205500Y311550D02*
X241368D01*
X203300Y313750D02*
X205500Y311550D01*
X198247Y341000D02*
X205322Y333925D01*
X440000Y290000D02*
Y294000D01*
X412000Y281000D02*
X430172D01*
X442850Y289850D02*
Y291850D01*
X436150Y283150D02*
X442850Y289850D01*
X410500Y276500D02*
X412000Y275000D01*
X410500Y279500D02*
X412000Y281000D01*
X410500Y276500D02*
Y279500D01*
X412000Y275000D02*
X420000D01*
Y269000D02*
X421500Y270500D01*
X420000Y275000D02*
X421500Y273500D01*
Y270500D02*
Y273500D01*
X379500Y256500D02*
X381000Y258000D01*
X376500Y256500D02*
X379500D01*
X480000Y344000D02*
Y351000D01*
X477000Y336000D02*
Y341000D01*
X480000Y344000D01*
X323150Y278991D02*
X325141Y277000D01*
X320000Y273000D02*
Y273000D01*
X334000Y272303D02*
Y275000D01*
X328000Y281000D02*
X334000Y275000D01*
X464000Y334000D02*
X466000Y332000D01*
X472000Y326000D02*
Y330000D01*
X470000Y332000D02*
X472000Y330000D01*
X466000Y332000D02*
X470000D01*
X325150Y279820D02*
X330000Y274970D01*
X320000Y265000D02*
X323000D01*
X338850Y274120D02*
Y283453D01*
X89750Y106250D02*
Y118553D01*
X241368Y311550D02*
X245118Y315300D01*
X196000Y306250D02*
X198500Y303750D01*
X197250Y308447D02*
X199447Y306250D01*
X216550Y309550D02*
X242197D01*
X197250Y308447D02*
Y311053D01*
X188618Y306250D02*
X196000D01*
X204820Y292150D02*
X208291D01*
X216141Y300000D01*
X192000Y303000D02*
X193970D01*
X204820Y292150D01*
X207000Y282000D02*
Y288030D01*
X242197Y309550D02*
X245947Y313300D01*
X234850Y261819D02*
Y268850D01*
X341250Y332950D02*
Y339753D01*
X273078Y278250D02*
X277828Y283000D01*
X265750Y278250D02*
X273078D01*
X309750Y330550D02*
Y333700D01*
X219947Y288250D02*
X222553D01*
X210000Y287000D02*
X219000Y296000D01*
X245947Y313300D02*
X249053D01*
X225600Y307550D02*
X227400Y305750D01*
X267447Y280250D02*
X272250D01*
X285000Y238000D02*
X290750Y232250D01*
X285000Y238000D02*
Y250031D01*
X287000Y244250D02*
X291000Y240250D01*
X287000Y244250D02*
Y251000D01*
X289250Y250447D02*
X291697Y248000D01*
X282000Y256000D02*
X287000Y251000D01*
X291697Y248000D02*
X298000D01*
X275000Y256000D02*
X282000D01*
X268150Y267850D02*
X273250Y262750D01*
X664000Y320000D02*
X667000Y323000D01*
X139000Y322000D02*
X149000Y312000D01*
X178382Y356250D02*
X180132Y358000D01*
X177553Y358250D02*
X179303Y360000D01*
X179210Y354250D02*
X180960Y356000D01*
X246851Y389850D02*
X248000Y391000D01*
X221000Y108000D02*
Y108000D01*
X216000Y113000D02*
X221000Y108000D01*
X205000Y120000D02*
X208000Y117000D01*
X112172Y216000D02*
X117132D01*
X144000Y247750D02*
X147000Y244750D01*
X186618Y201750D02*
X197250D01*
X182868Y198000D02*
X186618Y201750D01*
X149000Y312000D02*
X153303D01*
X74343Y251000D02*
X80343Y245000D01*
X75172Y253000D02*
X81172Y247000D01*
X89686D01*
X80343Y245000D02*
X88858D01*
X187447Y199750D02*
X191250D01*
X183697Y196000D02*
X187447Y199750D01*
X197250Y201750D02*
X200000Y199000D01*
X191250Y199750D02*
X200000Y191000D01*
X197000Y212000D02*
Y216000D01*
X205000Y212000D02*
X208000Y215000D01*
X131000Y264250D02*
X139078D01*
X241000Y231000D02*
Y254031D01*
X131828Y261750D02*
X138250D01*
X312000Y261925D02*
Y273000D01*
X210000Y265000D02*
Y269000D01*
X213750Y265250D02*
X216000Y263000D01*
X225180Y265850D02*
X228030Y263000D01*
X225119Y265850D02*
X225180D01*
X221700Y263000D02*
X224000D01*
X200000Y249000D02*
X203000Y246000D01*
X166000Y241000D02*
X170000D01*
X166000Y255000D02*
X169000Y252000D01*
X190000Y248000D02*
X191000Y247000D01*
X194000D01*
X180000Y248000D02*
X181000Y247000D01*
X184000D01*
X184197Y268500D02*
X185847Y270150D01*
X176000Y273000D02*
X180000D01*
X182000Y303000D02*
X190000Y295000D01*
X195303D01*
X200750Y289553D01*
Y272250D02*
Y289553D01*
X193000Y292000D02*
X196000Y289000D01*
X184000Y263000D02*
X187000Y266000D01*
X205000Y296000D02*
Y300000D01*
X164000Y280000D02*
X168000D01*
X164000Y272000D02*
X168000D01*
X278925Y317000D02*
X287500Y325575D01*
X228030Y263000D02*
X232000D01*
X317000Y145303D02*
X323947Y152250D01*
X317000Y140000D02*
Y145303D01*
X338000Y143000D02*
X341304D01*
X311065Y345800D02*
X329900D01*
X317297Y366075D02*
X320947Y362425D01*
X342250Y44300D02*
X342500Y44550D01*
X314375Y88596D02*
X316046Y86925D01*
X329447Y353300D02*
X331947Y355800D01*
X325553Y353300D02*
X329447D01*
X323053Y355800D02*
X325553Y353300D01*
X312500Y334550D02*
Y341675D01*
X312500Y334550D02*
X314750Y332300D01*
X316750Y334925D02*
X317500Y335675D01*
X318750Y331622D02*
X322500Y335372D01*
X315000Y21800D02*
X319375D01*
X277803Y56175D02*
X287500D01*
X211000Y24000D02*
Y28000D01*
X194000Y239000D02*
X197000Y236000D01*
X322500Y335372D02*
Y341675D01*
X200750Y272250D02*
X202000Y271000D01*
X181000Y236000D02*
X184000Y239000D01*
X175000Y252000D02*
X178000Y255000D01*
X488250Y333750D02*
X496000Y326000D01*
X88858Y245000D02*
X96000Y237858D01*
X170000Y225000D02*
X173000Y222000D01*
X205000Y220000D02*
X208000Y223000D01*
X173250Y62618D02*
Y65053D01*
X175250Y63447D02*
Y65882D01*
Y63447D02*
X177447Y61250D01*
X173250Y62618D02*
X176618Y59250D01*
X207000Y282000D02*
X210000Y279000D01*
X135350Y384150D02*
X143680D01*
X132500Y387000D02*
X135350Y384150D01*
X312750Y147750D02*
X317000Y152000D01*
X303750Y90247D02*
X305947Y88050D01*
X312093D01*
X315218Y84925D01*
X218000Y135000D02*
X219000Y134000D01*
Y130000D02*
Y134000D01*
X317500Y17575D02*
X323900Y11175D01*
X319375Y21800D02*
X327175Y14000D01*
X200000Y191000D02*
X200000D01*
X183000Y194000D02*
X184000Y193000D01*
X191000Y190000D02*
X192000Y191000D01*
X80000Y160697D02*
X92553Y173250D01*
X243750Y318750D02*
X253391D01*
X192000Y297000D02*
X196132D01*
X202750Y290382D01*
Y274280D02*
Y290382D01*
X274550Y332850D02*
X279900Y338200D01*
X279925Y330850D02*
X282500Y333425D01*
X286000Y347050D02*
X289000D01*
X290000Y348050D01*
X269684Y302175D02*
X275718D01*
X270512Y304175D02*
X274890D01*
X268855Y300175D02*
X276547D01*
X265000Y300000D02*
Y300000D01*
Y300000D02*
X267000Y298000D01*
X250000Y103000D02*
X253000Y100000D01*
X242000Y103000D02*
X245000Y100000D01*
X239150Y104900D02*
X241250Y107000D01*
X239150Y97953D02*
X251678Y85425D01*
X260848Y139848D02*
X264000Y143000D01*
X260848Y134121D02*
Y139848D01*
Y134121D02*
X263250Y131720D01*
Y100053D02*
Y131720D01*
X269000Y121303D02*
Y128000D01*
Y121303D02*
X272750Y117553D01*
Y111750D02*
Y117553D01*
X269000Y108000D02*
X272750Y111750D01*
X269000Y104000D02*
Y108000D01*
X263250Y100053D02*
X267750Y95553D01*
Y90300D02*
Y95553D01*
X264000Y135000D02*
X265250Y133750D01*
Y100882D02*
X269750Y96382D01*
Y91128D02*
Y96382D01*
X297625Y61372D02*
X300322Y58675D01*
X295625Y59925D02*
X298875Y56675D01*
X265250Y100882D02*
Y133750D01*
X327375Y56675D02*
X327500Y56800D01*
X298875Y56675D02*
X327375D01*
X300322Y58675D02*
X319375D01*
X323125Y62425D01*
X274250Y91918D02*
X277743Y88425D01*
X312500Y62425D02*
Y64275D01*
X304500Y72275D02*
X312500Y64275D01*
X277743Y88425D02*
X285521D01*
X289896Y84050D01*
X291553Y88050D02*
X295657D01*
X269750Y91128D02*
X276878Y84000D01*
X272000Y244303D02*
X276697Y249000D01*
X282000D01*
X264000Y168000D02*
X272000Y176000D01*
Y244303D01*
X258000Y171000D02*
X263000D01*
X257171Y174000D02*
X262007D01*
X259447Y248250D02*
X262750D01*
X257250Y250447D02*
X259447Y248250D01*
X257250Y250447D02*
Y254280D01*
X265969Y263000D01*
X266000D01*
X248000Y257000D02*
X253000Y252000D01*
X396000Y375750D02*
X510553D01*
X342875Y389175D02*
X347500Y384550D01*
X360000D01*
X366450Y391000D01*
X295000Y240250D02*
X305250Y250500D01*
X291000Y240250D02*
X295000D01*
X290750Y232250D02*
X294553D01*
X297250Y234947D01*
Y237553D01*
X306000Y246303D01*
X308606D01*
X361000Y170000D02*
Y180000D01*
X313000Y192000D02*
X314000Y193000D01*
X310507Y223796D02*
X312750Y221553D01*
Y216250D02*
Y221553D01*
Y216250D02*
X314000Y215000D01*
X350031Y135000D02*
X354000D01*
X333150Y115718D02*
X341018Y107850D01*
X341631Y112250D02*
X344030Y109850D01*
X339447Y112250D02*
X341631D01*
X350000Y113000D02*
X352000Y111000D01*
X341018Y107850D02*
X345181D01*
X344030Y109850D02*
X346009D01*
X480000Y114000D02*
Y119303D01*
X482947Y122250D01*
X392447Y114250D02*
X395553D01*
X398000Y116697D01*
X341304Y143000D02*
X344304Y146000D01*
X485150Y103150D02*
X487000Y105000D01*
X472000Y106000D02*
X475000D01*
X477150Y108150D01*
X480000Y106000D02*
Y110000D01*
X481000Y111000D01*
X485000D01*
X487000Y109000D01*
Y105000D02*
Y109000D01*
X519500Y116500D02*
X521000Y118000D01*
X346000Y112687D02*
Y113000D01*
X394657Y358000D02*
X473000D01*
X480000Y351000D01*
X472000Y334000D02*
X480000Y326000D01*
X318000Y281000D02*
X320000D01*
X477000Y336000D02*
X479000Y334000D01*
X480000D01*
X322000Y295000D02*
X325303D01*
X323000Y265000D02*
X330000Y272000D01*
Y274970D01*
X484600Y136000D02*
X489100Y140500D01*
X479750Y124447D02*
Y127053D01*
X482447Y129750D01*
X502000D02*
X504250Y127500D01*
Y126000D02*
Y127500D01*
X489100Y140500D02*
X506500D01*
X509750Y137250D01*
Y126000D02*
Y137250D01*
X482447Y129750D02*
X493553D01*
X495152Y128152D01*
X496848D01*
X498447Y129750D01*
X502000D01*
X476000Y136000D02*
X484600D01*
X468500Y137500D02*
X470500D01*
X472250Y135750D01*
Y115250D02*
Y135750D01*
X390500Y140500D02*
X471500D01*
X476000Y136000D01*
X387500Y145500D02*
X473000D01*
X386303Y148000D02*
X473697D01*
X389000Y143000D02*
X472303D01*
X473697Y148000D02*
X477697Y144000D01*
X481303D01*
X473000Y145500D02*
X477167Y141333D01*
X482333D01*
X486500Y145500D01*
X472303Y143000D02*
X476637Y138667D01*
X483667D02*
X488000Y143000D01*
X476637Y138667D02*
X483667D01*
X488000Y143000D02*
X515108D01*
X368000Y149697D02*
Y151000D01*
X380553Y142250D02*
X386303Y148000D01*
X368000Y149697D02*
X375447Y142250D01*
X380553Y142250D01*
X520000Y148000D02*
X528000Y140000D01*
Y120000D02*
Y140000D01*
X528000Y106000D02*
X529500Y107500D01*
X496000Y106000D02*
X528000D01*
X504000Y114000D02*
X506000Y112000D01*
Y110000D02*
Y112000D01*
Y110000D02*
X507500Y108500D01*
X510500D01*
X380000Y184000D02*
Y188000D01*
X382850Y185150D02*
Y189181D01*
X370000Y193000D02*
X370030Y193030D01*
X381828D02*
X385250Y189609D01*
Y187447D02*
Y189609D01*
X337150Y216150D02*
X338000Y217000D01*
X354719Y200250D02*
X358593D01*
X367150Y191820D02*
Y194181D01*
X370030Y193030D02*
X381828D01*
X361000Y180000D02*
X363250Y182250D01*
X363000Y178000D02*
X365250Y180250D01*
X367150Y191820D02*
X368750Y190220D01*
X363684Y147000D02*
X367172D01*
X358934Y151750D02*
X363684Y147000D01*
X367172D02*
X374234Y139937D01*
X339000Y168000D02*
X359000D01*
X361000Y170000D01*
X361250Y162447D02*
Y166250D01*
X363447Y160250D02*
X366553D01*
X360619Y160250D02*
X362618Y158250D01*
X361250Y162447D02*
X363447Y160250D01*
X362618Y158250D02*
X367382D01*
X369132Y160000D01*
X385250Y187447D02*
X387447Y185250D01*
X382850Y185150D02*
X385000Y183000D01*
X380000Y184000D02*
X383250Y180750D01*
X349303Y231000D02*
X354803Y236500D01*
X358593Y200250D02*
X364343Y206000D01*
X416507Y206993D02*
X419007D01*
X420507Y205493D01*
X415000Y218007D02*
Y230000D01*
X416500Y231500D02*
X419000D01*
X420500Y230000D01*
X415000D02*
X416500Y231500D01*
X409500Y218007D02*
Y230000D01*
X411000Y216507D02*
X413500D01*
X415000Y218007D01*
X409500D02*
X411000Y216507D01*
X404000Y226507D02*
Y230000D01*
X405500Y231500D02*
X408000D01*
X409500Y230000D01*
X404000D02*
X405500Y231500D01*
X402500Y225007D02*
X404000Y226507D01*
X420500Y218007D02*
X422000Y216507D01*
X424500D02*
X426000Y218007D01*
X422000Y216507D02*
X424500D01*
X420500Y218007D02*
Y230000D01*
X426000D02*
X427500Y231500D01*
X430000D02*
X431500Y230000D01*
X427500Y231500D02*
X430000D01*
X426000Y218007D02*
Y230000D01*
X431500Y218007D02*
X433000Y216507D01*
X431500Y218007D02*
Y230000D01*
X375447Y155750D02*
X555578D01*
X571000Y171172D01*
X551000Y165000D02*
X553000Y167000D01*
X448447Y170750D02*
X454382D01*
X460132Y165000D01*
X551000D01*
X455210Y172750D02*
X460460Y167500D01*
X456039Y174750D02*
X460788Y170000D01*
X456867Y176750D02*
X461117Y172500D01*
X457695Y178750D02*
X461445Y175000D01*
X458524Y180750D02*
X462024Y177250D01*
X447618Y172750D02*
X455210D01*
X446790Y174750D02*
X456039D01*
X445961Y176750D02*
X456867D01*
X445133Y178750D02*
X457695D01*
X444305Y180750D02*
X458524D01*
X460588Y190000D02*
X463338Y187250D01*
X460259Y187500D02*
X463009Y184750D01*
X459931Y185000D02*
X462681Y182250D01*
X459102Y183000D02*
X462352Y179750D01*
X366553Y160250D02*
X368803Y162500D01*
X363250Y182250D02*
X367382D01*
X387447Y185250D02*
X394725D01*
X385000Y183000D02*
X393647D01*
X408303Y175000D02*
X444212D01*
X394725Y185250D02*
X407475Y172500D01*
X444540D01*
X393647Y183000D02*
X406646Y170000D01*
X444868D01*
X406132Y167500D02*
X445197D01*
X391000Y180750D02*
X392750Y179000D01*
X399507Y174125D02*
X406132Y167500D01*
X383250Y180750D02*
X391000D01*
X392750Y176250D02*
Y179000D01*
Y176250D02*
X394875Y174125D01*
X399507D01*
X438500Y231500D02*
X441000D01*
X437000Y230000D02*
X438500Y231500D01*
X412694Y187500D02*
X460259D01*
X411865Y185000D02*
X459931D01*
X411037Y182500D02*
X443226D01*
X410208Y180000D02*
X443555D01*
X409132Y177500D02*
X443883D01*
X387303Y196000D02*
X408303Y175000D01*
X388132Y198500D02*
X409132Y177500D01*
X365000Y201000D02*
X389208D01*
X410208Y180000D01*
X364672Y203500D02*
X390037D01*
X411037Y182500D01*
X364343Y206000D02*
X390865D01*
X411865Y185000D01*
X391694Y208500D02*
X412694Y187500D01*
X413522Y190000D02*
X460588D01*
X392522Y211000D02*
X413522Y190000D01*
X393350Y213500D02*
X414351Y192500D01*
X394179Y216000D02*
X415179Y195000D01*
X400000Y225007D02*
X402500D01*
X352000Y225000D02*
X352750Y224250D01*
X358553D01*
X349120Y223850D02*
X350819Y222150D01*
X306000Y215000D02*
X308850Y212150D01*
X298000Y208000D02*
X324970D01*
X308850Y212150D02*
X323462D01*
X448500Y215000D02*
X450000Y213500D01*
X447000Y215000D02*
X448500D01*
X344000Y231000D02*
X349303D01*
X448000Y165000D02*
X450000Y167000D01*
X377500Y172303D02*
X379000Y170803D01*
Y166500D02*
Y170803D01*
Y166500D02*
X380500Y165000D01*
X383000D01*
X384500Y166500D01*
Y170803D01*
X386000Y172303D01*
X388500D01*
X390000Y170803D01*
Y166500D02*
Y170803D01*
Y166500D02*
X391500Y165000D01*
X394000D01*
X395500Y166500D01*
Y169803D01*
X397000Y171303D01*
X401000Y166500D02*
X402500Y165000D01*
X448000D01*
X397000Y171303D02*
X399500D01*
X401000Y166500D02*
Y169803D01*
X399500Y171303D02*
X401000Y169803D01*
X369500Y165000D02*
X372000D01*
X373500Y166500D01*
Y170803D02*
X375000Y172303D01*
X377500D01*
X373500Y166500D02*
Y170803D01*
X367250Y167250D02*
X369500Y165000D01*
X463009Y184750D02*
X466882D01*
X468882Y186750D01*
X473553Y184750D02*
X478553Y179750D01*
X470447Y184750D02*
X473553D01*
X462681Y182250D02*
X467947D01*
X470447Y184750D01*
X470750Y179750D02*
X472000Y181000D01*
X462352Y179750D02*
X470750D01*
X319000Y167000D02*
X321000Y169000D01*
X313000D02*
X315000Y167000D01*
X319000D01*
X307000Y176000D02*
X311000D01*
X313000Y174000D01*
X305000D02*
X307000Y176000D01*
X313000Y169000D02*
Y174000D01*
X332850Y207819D02*
Y207880D01*
X333150Y198150D02*
Y202180D01*
X299000Y169500D02*
X300500Y168000D01*
X303500D01*
X305000Y169500D01*
Y174000D01*
X315000Y186000D02*
Y189000D01*
X317000Y191000D01*
X320000D01*
X313000Y184000D02*
X315000Y186000D01*
X299000Y169500D02*
Y180000D01*
X303000Y184000D01*
X313000D01*
X350819Y222150D02*
X359282D01*
X349991Y220150D02*
X360110D01*
X360960Y221000D01*
X395336D01*
X406836Y209500D01*
X395664Y223500D02*
X407164Y212000D01*
X395993Y226000D02*
X407493Y214500D01*
X360632Y223500D02*
X395664D01*
X359282Y222150D02*
X360632Y223500D01*
X360303Y226000D02*
X395993D01*
X358553Y224250D02*
X360303Y226000D01*
X367000Y228500D02*
X369500D01*
X372500Y231500D01*
X375000D02*
X378000Y228500D01*
X372500Y231500D02*
X375000D01*
X378000Y228500D02*
X380500D01*
X383500Y231500D01*
X386000D02*
X389000Y228500D01*
X383500Y231500D02*
X386000D01*
X362000Y231000D02*
X364500D01*
X367000Y228500D01*
X468882Y186750D02*
X474882D01*
X479382Y182250D01*
X489500Y217500D02*
X491000Y219000D01*
X485500D02*
X487000Y217500D01*
X489500D01*
X485500Y219000D02*
Y226500D01*
X484000Y228000D02*
X485500Y226500D01*
X480000D02*
X481500Y228000D01*
X484000D01*
X476000Y217500D02*
X478500D01*
X474500Y219000D02*
X476000Y217500D01*
X478500D02*
X480000Y219000D01*
Y226500D01*
X473000Y228000D02*
X474500Y226500D01*
Y219000D02*
Y226500D01*
X457000Y222000D02*
X459000Y220000D01*
X457000Y222000D02*
Y226000D01*
X459000Y228000D01*
Y220000D02*
X464000D01*
X487000Y215000D02*
X488500Y213500D01*
Y210500D02*
Y213500D01*
X487000Y209000D02*
X488500Y210500D01*
X477000Y210000D02*
X478000Y209000D01*
X487000D01*
X444000Y219007D02*
X446500D01*
X449500Y231500D02*
X452000D01*
X453500Y230000D01*
X448000D02*
X449500Y231500D01*
X441000D02*
X442500Y230000D01*
X448000Y220507D02*
Y230000D01*
X446500Y219007D02*
X448000Y220507D01*
X442500D02*
Y230000D01*
Y220507D02*
X444000Y219007D01*
X453500Y217750D02*
Y230000D01*
Y217750D02*
X455000Y216250D01*
X398500Y226507D02*
X400000Y225007D01*
X398500Y230000D02*
X398500Y226507D01*
X332850Y207880D02*
X337119Y212150D01*
X330000Y209000D02*
X335150Y214150D01*
X333119Y216150D02*
X337150D01*
X332313Y221000D02*
X335141D01*
X333141Y219000D02*
X335969D01*
X344819Y219850D02*
X347180D01*
X343150Y218180D02*
X344819Y219850D01*
X343150Y218119D02*
Y218180D01*
X348291Y221850D02*
X349991Y220150D01*
X343850Y221850D02*
X348291D01*
X341850Y219850D02*
X343850Y221850D01*
X336819Y219850D02*
X341850D01*
X335969Y219000D02*
X336819Y219850D01*
X337991Y223850D02*
X349120D01*
X335141Y221000D02*
X337991Y223850D01*
X346981Y225850D02*
X355132Y234000D01*
X368750Y256250D02*
X373250Y251750D01*
X344750Y258500D02*
X347000Y256250D01*
X368750D01*
X389000Y228500D02*
X391500D01*
X394500Y231500D01*
X397000D01*
X398500Y230000D01*
X491000Y219000D02*
Y230000D01*
X321250Y245553D02*
X323947Y248250D01*
X326553D01*
X329250Y253553D02*
X331447Y255750D01*
X342553D01*
X348053Y250250D01*
X367382D01*
X373382Y244250D01*
X366553Y247750D02*
X372804Y241500D01*
X329000Y245303D02*
X331447Y247750D01*
X366553D01*
X515000Y229000D02*
X516500Y230500D01*
X512500Y229000D02*
X515000D01*
X511000Y224500D02*
Y227500D01*
X512500Y229000D01*
X511000Y224500D02*
X512500Y223000D01*
X515000Y217000D02*
X516500Y218500D01*
X515000Y223000D02*
X516500Y221500D01*
Y218500D02*
Y221500D01*
X512500Y223000D02*
X515000D01*
X322000Y231000D02*
Y233250D01*
X321250Y234000D02*
X322000Y233250D01*
X321250Y234000D02*
Y245553D01*
X326553Y248250D02*
X329250Y250947D01*
Y253553D01*
X481500Y187250D02*
X507500D01*
X509000Y188750D01*
X522750Y179250D02*
X526750D01*
X513500Y170000D02*
X522750Y179250D01*
X480210Y184750D02*
X508279D01*
X479382Y182250D02*
X509108D01*
X478553Y179750D02*
X509936D01*
X462024Y177250D02*
X510765D01*
X461117Y172500D02*
X512672D01*
X460788Y170000D02*
X513500D01*
X309007Y230993D02*
X310507Y229493D01*
X306507Y230993D02*
X309007D01*
X461445Y175000D02*
X511843D01*
X510765Y177250D02*
X525765Y192250D01*
X333150Y202180D02*
X334970Y204000D01*
X334291Y206150D02*
X339180D01*
X336000Y201000D02*
X339969D01*
X336750Y170250D02*
X339000Y168000D01*
X526750Y179250D02*
X529000Y177000D01*
Y169000D02*
Y177000D01*
X511843Y175000D02*
X526843Y190000D01*
X545000Y167500D02*
X546500Y169000D01*
Y171500D01*
X533500Y174500D02*
X535000Y173000D01*
X533500Y174500D02*
Y186500D01*
X537500Y188000D02*
X539000Y186500D01*
X533500D02*
X535000Y188000D01*
X537500D01*
X543000Y177500D02*
X544500Y179000D01*
X529000Y169000D02*
X530500Y167500D01*
X460507Y204000D02*
X463007D01*
X464507Y202500D01*
X415179Y195000D02*
X467000D01*
X481500Y196000D02*
X483000Y194500D01*
X298500Y193500D02*
Y196500D01*
X331000Y196000D02*
X333150Y198150D01*
X324970Y208000D02*
X333119Y216150D01*
X324141Y210000D02*
X333141Y219000D01*
X323462Y212150D02*
X332313Y221000D01*
X321250Y215750D02*
X322000Y215000D01*
X509936Y179750D02*
X524436Y194250D01*
X509108Y182250D02*
X523858Y197000D01*
X508279Y184750D02*
X522529Y199000D01*
X547000Y212000D02*
X549000Y210000D01*
X328153Y225850D02*
X337250Y234947D01*
Y237553D01*
X321250Y221553D02*
X325546Y225850D01*
X321250Y215750D02*
Y221553D01*
X325546Y225850D02*
X328153D01*
X369132Y160000D02*
X554257D01*
X566750Y172493D01*
X367250Y167250D02*
Y175553D01*
X361250Y166250D02*
X365000Y170000D01*
Y173000D01*
X363000Y175000D02*
X365000Y173000D01*
X363000Y175000D02*
Y178000D01*
X541697Y190000D02*
X547447Y195750D01*
X525765Y192250D02*
X540553D01*
X546053Y197750D01*
X526843Y190000D02*
X541697D01*
X547447Y195750D02*
X555750D01*
X556553Y191750D02*
X559303Y189000D01*
X569000D01*
X550750Y191750D02*
X556553D01*
X570500Y190500D02*
Y193000D01*
X569000Y189000D02*
X570500Y190500D01*
X569000Y189000D02*
X569000Y189000D01*
X560000Y194000D02*
X560500Y194500D01*
X496000Y211697D02*
Y232000D01*
Y211697D02*
X500447Y207250D01*
X334970Y204000D02*
X339859D01*
X339969Y201000D02*
X342820Y203850D01*
X345462D01*
X339859Y204000D02*
X341930Y206070D01*
X346070D01*
X339180Y206150D02*
X341101Y208071D01*
X346899D01*
X354719Y200250D01*
X335150Y214150D02*
X339180D01*
X343150Y218119D01*
X337119Y212150D02*
X340009D01*
X536553Y202250D02*
X552462D01*
X555750Y195750D02*
X557750Y197750D01*
X546053D02*
X554922D01*
X557172Y200000D01*
X569000Y194500D02*
X570500Y193000D01*
X560500Y194500D02*
X569000D01*
X557750Y197750D02*
X570750D01*
X537132Y200000D02*
X554343D01*
X556343Y202000D01*
X552462Y202250D02*
X554462Y204250D01*
X555000Y210697D02*
Y223303D01*
X559447Y227750D01*
X570250D01*
X578000Y220000D01*
X522529Y199000D02*
X533303D01*
X536553Y202250D01*
X534132Y197000D02*
X537132Y200000D01*
X523858Y197000D02*
X534132D01*
X537250Y194250D02*
X539000Y196000D01*
X524436Y194250D02*
X537250D01*
X529500Y206500D02*
X531000Y208000D01*
X515157Y206500D02*
X529500D01*
X528000Y209000D02*
X529000Y210000D01*
X531000Y208000D02*
X534303D01*
X529000Y210000D02*
X543697D01*
X569000Y216500D02*
X570500Y215000D01*
X565000D02*
X566500Y216500D01*
X569000D01*
X570500Y207197D02*
Y215000D01*
X562000Y210000D02*
X565000Y213000D01*
Y215000D01*
X559000Y210000D02*
X562000D01*
X554462Y204250D02*
X567553D01*
X556343Y202000D02*
X568132D01*
X567553Y204250D02*
X570500Y207197D01*
X557172Y200000D02*
X570000D01*
X534303Y208000D02*
X538053Y204250D01*
X566000Y187000D02*
X567750Y185250D01*
X548000Y189000D02*
X550750Y191750D01*
X548000Y179500D02*
Y189000D01*
Y179500D02*
X549500Y178000D01*
X551500D02*
X553000Y176500D01*
X549500Y178000D02*
X551500D01*
X565500Y178750D02*
X567750Y181000D01*
Y185250D01*
X368803Y162500D02*
X553500D01*
X583000Y182000D02*
X589000Y188000D01*
X566750Y172493D02*
Y177000D01*
X553500Y162500D02*
X559000Y168000D01*
X353181Y142150D02*
X355280Y144250D01*
X365750D01*
X344304Y146000D02*
X347030D01*
X348850Y144180D01*
Y143150D02*
Y144180D01*
Y143150D02*
X349850Y142150D01*
X353181D01*
X512000Y129000D02*
X514000Y131000D01*
X517451D02*
X519451Y133000D01*
X514000Y131000D02*
X517451D01*
X519451Y133000D02*
Y138657D01*
X515108Y143000D02*
X519451Y138657D01*
X509250Y122250D02*
X512000Y125000D01*
X482947Y122250D02*
X509250D01*
X512000Y125000D02*
Y129000D01*
X518000Y124000D02*
X521000Y121000D01*
X515000Y124000D02*
X518000D01*
X511980Y120980D02*
X515000Y124000D01*
X511980Y109980D02*
Y120980D01*
X486500Y145500D02*
X518500D01*
X525000Y139000D01*
Y123000D02*
Y139000D01*
X352000Y145000D02*
Y148500D01*
X355250Y151750D02*
X358934D01*
X352000Y148500D02*
X355250Y151750D01*
X323947Y152250D02*
X351250D01*
X353000Y154000D01*
X373697D02*
X375447Y155750D01*
X353000Y154000D02*
X373697D01*
X328750Y162250D02*
X330750Y160250D01*
X360619D01*
X578000Y220000D02*
X594000D01*
X345250Y186447D02*
X347447Y184250D01*
X358553D02*
X361250Y186947D01*
X347447Y184250D02*
X358553D01*
X331150Y203009D02*
X334291Y206150D01*
X326303Y196000D02*
X331000D01*
X336750Y170250D02*
Y173553D01*
X324303Y194000D02*
X326303Y196000D01*
X321000Y169000D02*
Y177697D01*
X324303Y181000D01*
Y194000D01*
X327000Y192000D02*
X328000Y193000D01*
X327000Y175303D02*
Y192000D01*
Y175303D02*
X328750Y173553D01*
Y162250D02*
Y173553D01*
X334553Y175750D02*
X336750Y173553D01*
X331250Y175750D02*
X334553D01*
X329000Y178000D02*
X331250Y175750D01*
X381180Y190850D02*
X382850Y189181D01*
X366553Y184250D02*
X368750Y186447D01*
Y190220D01*
X365250Y180250D02*
X369000D01*
X371750Y183000D01*
X376000D01*
X329000Y178000D02*
Y189969D01*
X332031Y193000D02*
X336000D01*
X329000Y189969D02*
X332031Y193000D01*
X521500Y167500D02*
X525000Y171000D01*
Y175000D01*
X460460Y167500D02*
X521500D01*
X342500Y177500D02*
X344000Y176000D01*
X346500D01*
X348000Y180500D02*
X349500Y182000D01*
X352000D01*
X353500Y180500D01*
Y177500D02*
Y180500D01*
Y177500D02*
X355000Y176000D01*
X357500D01*
X359000Y177500D01*
X362422Y184250D02*
X366553D01*
X341000Y182000D02*
X342500Y180500D01*
X339031Y192000D02*
X342304D01*
X342500Y177500D02*
Y180500D01*
X346500Y176000D02*
X348000Y177500D01*
Y180500D01*
X512672Y172500D02*
X526171Y186000D01*
X529000D01*
X331250Y183250D02*
X332500Y182000D01*
X331250Y183250D02*
Y187000D01*
X332500Y182000D02*
X341000D01*
X331250Y187000D02*
X332500Y188250D01*
X335281D01*
X339031Y192000D01*
X570750Y197750D02*
X573750Y200750D01*
X583750D01*
X585250Y202250D02*
Y204750D01*
X583750Y206250D02*
X585250Y204750D01*
X583750Y200750D02*
X585250Y202250D01*
X570000Y180250D02*
Y186000D01*
X566750Y177000D02*
X570000Y180250D01*
Y186000D02*
X572500Y188500D01*
X581000Y205000D02*
X582250Y206250D01*
X583750D01*
X361250Y186947D02*
Y191250D01*
X368500Y198500D02*
X388132D01*
X345250Y189553D02*
X348447Y192750D01*
X345250Y186447D02*
Y189553D01*
X348447Y192750D02*
X352250D01*
X568132Y202000D02*
X581132Y215000D01*
X352000Y207000D02*
X353500Y208500D01*
X391694D01*
X581132Y215000D02*
X592000D01*
X594000Y213000D01*
Y207000D02*
Y213000D01*
Y220000D02*
X598000Y216000D01*
Y200000D02*
Y216000D01*
X589000Y188000D02*
X592000D01*
X608000Y204000D01*
X571000Y171172D02*
Y177000D01*
X576000Y182000D01*
X583000D01*
X348880Y218150D02*
X360939D01*
X361288Y218500D01*
X395007D01*
X347180Y219850D02*
X348880Y218150D01*
X346000Y217000D02*
X347000Y216000D01*
X394179D01*
X340758Y210070D02*
X341687Y211000D01*
X392522D01*
X338000Y209000D02*
X339071Y210070D01*
X340758D01*
X340009Y212150D02*
X341359Y213500D01*
X393350D01*
X345462Y203850D02*
X354062Y195250D01*
X359250D01*
X365000Y201000D01*
X346070Y206070D02*
X354390Y197750D01*
X358922D01*
X364672Y203500D01*
X329000Y198000D02*
X331150Y200150D01*
Y203009D01*
X327000Y200250D02*
X328750Y202000D01*
Y203720D01*
X332850Y207819D01*
X337250Y237553D02*
X339947Y240250D01*
X367750D01*
X369000Y239000D01*
X512000Y217000D02*
X515000D01*
X507000Y211000D02*
Y212000D01*
X512000Y217000D01*
X505000Y215500D02*
Y218000D01*
X498500Y221000D02*
Y223500D01*
X504000Y230500D02*
X505500Y229000D01*
Y226500D02*
Y229000D01*
X504000Y225000D02*
X505500Y226500D01*
X498500Y232000D02*
Y234500D01*
X504000Y236000D02*
X505500Y237500D01*
Y240000D01*
X503500Y214000D02*
X505000Y215500D01*
X503500Y219500D02*
X505000Y218000D01*
X314000Y225000D02*
X317150Y228150D01*
X504001Y241500D02*
X505500Y240000D01*
X498500Y234500D02*
X500000Y236000D01*
X504000D01*
X498500Y232000D02*
X500000Y230500D01*
X504000D01*
X500000Y225000D02*
X504000D01*
X498500Y223500D02*
X500000Y225000D01*
X498500Y221000D02*
X500000Y219500D01*
X503500D01*
X501000Y214000D02*
X503500D01*
X500000Y213000D02*
X501000Y214000D01*
X317150Y228150D02*
X324150D01*
X329000Y233000D01*
Y245303D01*
X415000Y205485D02*
X416507Y206993D01*
X395007Y218500D02*
X411507Y202000D01*
X492789Y193000D02*
X494539Y194750D01*
X506421D02*
X509000Y192171D01*
X494539Y194750D02*
X506421D01*
X509000Y188750D02*
Y192171D01*
X411507Y202000D02*
X413507D01*
X415000Y203493D01*
Y205485D01*
X464507Y198507D02*
Y202500D01*
X468828Y196000D02*
X481500D01*
X464507Y198507D02*
X466007Y197008D01*
X467821D01*
X468828Y196000D01*
X484493Y189500D02*
X487000D01*
X488500Y191000D01*
Y195500D01*
X489750Y196750D01*
X330000Y223000D02*
X337000Y230000D01*
X339850D01*
X344000Y225850D01*
X346981D01*
X459000Y228000D02*
X473000D01*
X564250Y206250D02*
X566000Y208000D01*
X475086Y206250D02*
X489250D01*
X342304Y192000D02*
X346000Y195697D01*
Y199000D01*
X344000Y201000D02*
X346000Y199000D01*
X469000Y193000D02*
X475750D01*
X481500Y187250D01*
X467000Y195000D02*
X469000Y193000D01*
X469303Y190000D02*
X474960D01*
X480210Y184750D01*
X470000Y264036D02*
X472964Y267000D01*
X475000D01*
X465937Y264036D02*
X470000D01*
X475000Y267000D02*
X480000Y272000D01*
X468518Y261518D02*
X470518D01*
X474000Y265000D01*
X479259D01*
X481000Y263259D01*
X482759D01*
X464000Y251750D02*
X474000Y261750D01*
X477750D01*
X479000Y260500D01*
X496500D01*
X355132Y234000D02*
X487000D01*
X491000Y230000D01*
X354803Y236500D02*
X488328D01*
X493500Y231329D01*
X369000Y239000D02*
X489000D01*
X496000Y232000D01*
X372804Y241500D02*
X504001D01*
X481303Y144000D02*
X485303Y148000D01*
X520000D01*
X312750Y136250D02*
X314000Y135000D01*
X304000Y143000D02*
Y145697D01*
X308669Y136250D02*
X316500Y128419D01*
X275000Y111172D02*
Y118132D01*
X286350Y90425D02*
X290725Y86050D01*
X278572Y90425D02*
X286350D01*
X276250Y92747D02*
X278572Y90425D01*
X269000Y104000D02*
X274250Y98750D01*
Y91918D02*
Y98750D01*
X275000Y111172D02*
X282000Y104172D01*
X279000Y100603D02*
Y103000D01*
Y100603D02*
X291553Y88050D01*
X300625Y87925D02*
X309550Y79000D01*
X292282Y101697D02*
X300625Y93353D01*
Y87925D02*
Y93353D01*
X282250Y107446D02*
Y111750D01*
X309150Y116281D02*
X312750Y119881D01*
X311150Y115453D02*
X316500Y120803D01*
X331000Y304893D02*
X368107Y342000D01*
X396697Y345000D02*
X431000D01*
X320950Y303000D02*
X365950Y348000D01*
X328750Y306750D02*
X367000Y345000D01*
X333000Y302550D02*
X369450Y339000D01*
X335150Y300950D02*
X370200Y336000D01*
X341000Y300550D02*
X371450Y331000D01*
X343000Y298000D02*
X373333Y328333D01*
X346000Y296954D02*
X374712Y325667D01*
X373333Y328333D02*
X392083D01*
X374712Y325667D02*
X393667D01*
X365950Y348000D02*
X377000D01*
X393000Y364000D01*
X367000Y345000D02*
X378000D01*
X394000Y361000D01*
X368107Y342000D02*
X378657D01*
X394657Y358000D01*
X369450Y339000D02*
X379000D01*
X395000Y355000D01*
X370200Y336000D02*
X380000D01*
X396000Y352000D01*
X371450Y331000D02*
X382697D01*
X396697Y345000D01*
X298000Y265000D02*
X301000D01*
X303000Y267000D01*
X220000Y270969D02*
X225119Y265850D01*
X220000Y270969D02*
Y274000D01*
X222303Y160000D02*
X225250Y162947D01*
X211000Y140000D02*
X214000Y143000D01*
X216000D01*
X259000Y168000D02*
X264000D01*
X240000Y172303D02*
X243447Y175750D01*
X249000Y165828D02*
X257171Y174000D01*
X249882Y315300D02*
X252882Y312300D01*
X249053Y313300D02*
X252053Y310300D01*
X252000Y307750D02*
X261280D01*
X268855Y300175D01*
X252053Y310300D02*
X261559D01*
X269684Y302175D01*
X252882Y312300D02*
X262387D01*
X270512Y304175D01*
X253391Y318750D02*
X257141Y315000D01*
X316500Y120803D02*
Y128419D01*
X282000Y129000D02*
X284030D01*
X288000Y127000D02*
Y130000D01*
X299000Y98697D02*
X303750Y93947D01*
Y90247D02*
Y93947D01*
X290000Y117000D02*
X296000D01*
X299000Y114000D01*
Y98697D02*
Y114000D01*
X359000Y177500D02*
Y180829D01*
X362422Y184250D01*
X361250Y191250D02*
X368500Y198500D01*
X367150Y194181D02*
X368969Y196000D01*
X387303D01*
X463338Y187250D02*
X466553D01*
X469303Y190000D01*
X453507Y198500D02*
X455007Y197000D01*
X457507D01*
X459007Y198500D01*
Y202500D02*
X460507Y204000D01*
X459007Y198500D02*
Y202500D01*
X420507Y198500D02*
Y205493D01*
Y198500D02*
X422007Y197000D01*
X424507D01*
X426007Y198500D01*
X427493Y206993D02*
X430007D01*
X431507Y205493D01*
Y198500D02*
Y205493D01*
Y198500D02*
X433007Y197000D01*
X435507D01*
X437007Y198500D01*
X465000Y206000D02*
X472250Y198750D01*
X466000Y208500D02*
X473250Y201250D01*
X467000Y211007D02*
X474258Y203750D01*
X445689Y211007D02*
X467000D01*
X445368Y208500D02*
X466000D01*
X445040Y206000D02*
X465000D01*
X441540Y209500D02*
X445040Y206000D01*
X433000Y216507D02*
X435500D01*
X437000Y218007D01*
Y230000D01*
X407493Y214500D02*
X442197D01*
X445689Y211007D01*
X407164Y212000D02*
X441868D01*
X445368Y208500D01*
X406836Y209500D02*
X441540D01*
X438493Y206993D02*
X441007D01*
X442507Y205493D01*
Y198500D02*
Y205493D01*
Y198500D02*
X444007Y197000D01*
X446507D01*
X448007Y198500D01*
X448000Y202500D02*
X448007Y202493D01*
X448000Y202500D02*
X449493Y203993D01*
X452007D01*
X453507Y202493D01*
Y198500D02*
Y202493D01*
X448007Y198500D02*
Y202493D01*
X437007Y205507D02*
X438493Y206993D01*
X437007Y198500D02*
Y205507D01*
X426007Y198500D02*
Y205493D01*
X426000Y205500D02*
X426007Y205493D01*
X426000Y205500D02*
X427493Y206993D01*
X483000Y190993D02*
X484493Y189500D01*
X483000Y190993D02*
Y194500D01*
X305007Y229493D02*
X306507Y230993D01*
X514829Y209000D02*
X528000D01*
X515000Y212000D02*
X547000D01*
X500447Y207250D02*
X510250D01*
X515000Y212000D01*
X492579Y204750D02*
X510579D01*
X514829Y209000D01*
X511407Y202750D02*
X515157Y206500D01*
X305000Y210000D02*
X324141D01*
X297000Y218000D02*
Y222000D01*
Y218000D02*
X305000Y210000D01*
X310507Y223796D02*
Y229493D01*
X302856Y223856D02*
X305007Y226007D01*
Y229493D01*
X510750Y195000D02*
X515500D01*
X509000Y196750D02*
X510750Y195000D01*
X474258Y203750D02*
X491578D01*
X492579Y204750D01*
X501500Y202750D02*
X511407D01*
X473250Y201250D02*
X500000D01*
X501500Y202750D01*
X472250Y198750D02*
X500328D01*
X502329Y200750D01*
X489750Y196750D02*
X509000D01*
X524500Y204000D02*
X533000D01*
X515500Y195000D02*
X524500Y204000D01*
X512250Y200750D02*
X514000Y199000D01*
X502329Y200750D02*
X512250D01*
X543697Y210000D02*
X547447Y206250D01*
X538053Y204250D02*
X551633D01*
X551633Y204250D01*
X553633Y206250D01*
X564250D01*
X545000Y173000D02*
X546500Y171500D01*
X535000Y173000D02*
X545000D01*
X545000Y167500D02*
X545000Y167500D01*
X530500Y167500D02*
X545000D01*
X539000Y179000D02*
Y186500D01*
X539000Y179000D02*
X539000Y179000D01*
X539000Y179000D02*
X540500Y177500D01*
X543000D01*
X544500Y179000D02*
Y186500D01*
X544000Y187000D02*
X544500Y186500D01*
X300000Y192000D02*
X313000D01*
X298500Y193500D02*
X300000Y192000D01*
X300000Y198000D02*
X329000D01*
X298500Y196500D02*
X300000Y198000D01*
X570000Y200000D02*
X579000Y209000D01*
X587000D01*
X555000Y188000D02*
X556000Y187000D01*
X566000D01*
X556000Y173697D02*
Y177000D01*
X557750Y178750D01*
X556000Y173697D02*
X559000Y170697D01*
Y168000D02*
Y170697D01*
X557750Y178750D02*
X565500D01*
X552000Y170000D02*
X553000Y169000D01*
X552000Y170000D02*
Y172000D01*
X553000Y173000D01*
Y167000D02*
Y169000D01*
Y173000D02*
Y176500D01*
X547447Y206250D02*
X550553D01*
X555000Y210697D01*
X572500Y188500D02*
Y192500D01*
X577000Y197000D01*
X281500Y201500D02*
Y204000D01*
Y201500D02*
X282750Y200250D01*
X327000D01*
X281250Y211750D02*
Y214250D01*
X282750Y215750D01*
X294553D01*
X296750Y213553D01*
Y209250D02*
X298000Y208000D01*
X296750Y209250D02*
Y213553D01*
X463500Y192500D02*
X465000Y191000D01*
X414351Y192500D02*
X463500D01*
X281500Y204000D02*
X283000Y205500D01*
Y210000D01*
X281250Y211750D02*
X283000Y210000D01*
X376330Y189181D02*
X378000Y190850D01*
X381180D01*
X376330Y187330D02*
Y189181D01*
X375000Y186000D02*
X376330Y187330D01*
X371132Y186000D02*
X375000D01*
X367382Y182250D02*
X371132Y186000D01*
X373382Y244250D02*
X511750D01*
X516500Y239500D01*
Y230500D02*
Y239500D01*
X473750Y216250D02*
X475000Y215000D01*
X455000Y216250D02*
X473750D01*
X475000Y215000D02*
X487000D01*
X450000Y213500D02*
X471500D01*
X473000Y212000D01*
Y208336D02*
Y212000D01*
Y208336D02*
X475086Y206250D01*
X489250D02*
X493500Y210500D01*
Y231329D01*
X370000Y71828D02*
X377828Y64000D01*
X340850Y130000D02*
X345031D01*
X350031Y135000D01*
X476000Y48697D02*
X480000Y52697D01*
Y66000D01*
X407500Y332500D02*
X409500D01*
X411000Y334000D01*
X411000Y334000D02*
X411000Y334000D01*
X411000Y334000D02*
Y338000D01*
X412500Y339500D01*
X415500D01*
Y339500D02*
Y339500D01*
Y339500D02*
X417000Y338000D01*
Y333000D02*
Y338000D01*
X449969Y284000D02*
X454819Y288850D01*
X447303Y284000D02*
X449969D01*
X454819Y288850D02*
X458850D01*
X342553Y263750D02*
X342553Y263750D01*
X328000Y265000D02*
X329250Y263750D01*
X342553D01*
X488000Y286000D02*
X503000D01*
X507000Y282000D01*
Y273000D02*
Y282000D01*
X477850Y288850D02*
X501850D01*
X480000Y286000D02*
X487750Y278250D01*
X493553D01*
X263435Y54117D02*
X268255D01*
X271197Y51175D01*
X262862Y58000D02*
X269675D01*
X272500Y55175D01*
X275635Y65500D02*
X278960Y62175D01*
X282500D01*
X273478Y60500D02*
X277803Y56175D01*
X273807Y63000D02*
X278632Y58175D01*
X283803D01*
X287428Y61800D01*
X291875D01*
X264568Y63000D02*
X273807D01*
X226000Y59500D02*
X256059D01*
X259692Y55867D01*
X263691Y60500D02*
X273478D01*
X258925Y76425D02*
X260425Y74925D01*
X265550D01*
X265348Y65500D02*
X275635D01*
X226828Y62000D02*
X258862D01*
X262862Y58000D01*
X227657Y64500D02*
X259691D01*
X263691Y60500D01*
X228485Y67000D02*
X260568D01*
X264568Y63000D01*
X229314Y69500D02*
X261348D01*
X265348Y65500D01*
X230142Y72000D02*
X262176D01*
X266176Y68000D01*
X163553Y89750D02*
X164553D01*
X167303Y87000D01*
X127053Y93750D02*
X130947D01*
X123000Y77000D02*
Y81303D01*
X127697Y86000D01*
X147882Y109250D02*
X168132Y89000D01*
X156750Y84118D02*
X160618Y80250D01*
X156750Y84118D02*
Y88250D01*
X101000Y85000D02*
X107697D01*
X98750Y82750D02*
X101000Y85000D01*
X218000Y67500D02*
X226000Y59500D01*
X192000Y70000D02*
X218828D01*
X226828Y62000D01*
X218657Y73500D02*
X227657Y64500D01*
X179750Y52000D02*
X183000Y55250D01*
X226898Y29930D02*
X249298D01*
X229013Y35930D02*
X234053D01*
X235553Y37430D01*
X245947D02*
X249447D01*
X235553D02*
X239447D01*
X240947Y35930D01*
X244447D01*
X245947Y37430D01*
X249447D02*
X250947Y35930D01*
X254053D01*
X256062Y37938D01*
X255956Y54300D02*
X258528Y51728D01*
X261047D02*
X263435Y54117D01*
X258528Y51728D02*
X261047D01*
X257472Y49000D02*
X261147D01*
X263947Y51800D01*
X254672D02*
X257472Y49000D01*
X263947Y51800D02*
X267243D01*
X270368Y48675D01*
X290372D01*
X293447Y51750D01*
X271197Y51175D02*
X289543D01*
X292118Y53750D01*
X319000Y51247D02*
X332822D01*
X338375Y56800D01*
X342500D01*
X333832Y44300D02*
X342250D01*
X315050Y51750D02*
X318053Y48747D01*
X329385D01*
X333832Y44300D01*
X283828Y16000D02*
X286578Y18750D01*
X290053D01*
X129525Y59000D02*
X133172D01*
X121000Y51000D02*
X122000Y50000D01*
X114500Y51000D02*
X121000D01*
X122500Y45500D02*
X124000Y44000D01*
Y38000D02*
Y44000D01*
X129000Y31000D02*
X131000Y29000D01*
X122000Y36000D02*
X124000Y38000D01*
X122000Y33000D02*
Y36000D01*
Y33000D02*
X124000Y31000D01*
X100000Y30500D02*
X101500Y29000D01*
X125500D02*
X127000Y27500D01*
X124000Y31000D02*
X129000D01*
X101500Y29000D02*
X125500D01*
X118000Y43000D02*
X119700Y41300D01*
Y36200D02*
Y41300D01*
X97000Y92000D02*
X98500Y93500D01*
X101000D01*
X102500Y92000D01*
Y90197D02*
Y92000D01*
Y90197D02*
X104000Y88697D01*
X86000Y84500D02*
X94500D01*
X97000Y87000D01*
Y92000D01*
X219485Y76000D02*
X228485Y67000D01*
X221142Y81000D02*
X230142Y72000D01*
X220314Y78500D02*
X229314Y69500D01*
X199097Y81000D02*
Y85500D01*
X193597Y81000D02*
X195097Y79500D01*
X197597D01*
X199097Y81000D01*
X193597Y81000D02*
Y85500D01*
X194440Y73500D02*
X218657D01*
X195268Y76000D02*
X219485D01*
X171000Y83000D02*
X184940D01*
X194440Y73500D01*
X170172Y85000D02*
X186268D01*
X195268Y76000D01*
X167303Y87000D02*
X192097D01*
X193597Y85500D01*
X203097Y87000D02*
X204597Y85500D01*
X200597Y87000D02*
X203097D01*
X199097Y85500D02*
X200597Y87000D01*
X204597Y81000D02*
Y85500D01*
X211925Y81000D02*
X221142D01*
X204597Y81000D02*
X207097Y78500D01*
X220314D01*
X98000Y101000D02*
X99500Y99500D01*
X95000Y117000D02*
Y121000D01*
X98000Y101000D02*
Y114000D01*
X95000Y117000D02*
X98000Y114000D01*
X99000Y119000D02*
X102000Y116000D01*
Y110000D02*
X103500Y108500D01*
X106000D01*
X107500Y110000D01*
Y113500D01*
X102000Y110000D02*
Y116000D01*
X107500Y113500D02*
X109000Y115000D01*
X111500D01*
X113000Y113500D01*
Y110000D02*
Y113500D01*
Y110000D02*
X114500Y108500D01*
X117000D01*
X118500Y110000D01*
Y113500D01*
X120000Y115000D01*
X122500D01*
X124000Y113500D01*
X125750Y109250D02*
X147882D01*
X124000Y111000D02*
X125750Y109250D01*
X124000Y111000D02*
Y113500D01*
X159250Y84447D02*
Y89750D01*
X104000Y88697D02*
X106697D01*
X107697Y85000D02*
X123947Y101250D01*
X106697Y88697D02*
X122000Y104000D01*
X113000Y99500D02*
X120000Y106500D01*
X123947Y101250D02*
X143750D01*
X156750Y88250D01*
X122000Y104000D02*
X145000D01*
X159250Y89750D01*
X120000Y106500D02*
X146803D01*
X163553Y89750D01*
X127697Y86000D02*
X147500D01*
X162750Y70750D01*
X167553D01*
X173250Y65053D01*
X168132Y73000D02*
X175250Y65882D01*
X163829Y73000D02*
X168132D01*
X132750Y71750D02*
X139000Y78000D01*
X136500Y80500D02*
X146328D01*
X155172Y71657D01*
X174672Y52000D02*
X179750D01*
X175500Y54500D02*
X178922D01*
X177447Y61250D02*
X183250D01*
X192000Y70000D01*
X178922Y54500D02*
X181672Y57250D01*
X311447Y51750D02*
X315050D01*
X307697Y48000D02*
X311447Y51750D01*
X293447D02*
X297000D01*
X300750Y48000D01*
X307697D01*
X301578Y50500D02*
X306868D01*
X316497Y53750D02*
X319000Y51247D01*
X292118Y53750D02*
X298328D01*
X301578Y50500D01*
X306868D02*
X310118Y53750D01*
X316497D01*
X155172Y64078D02*
Y71657D01*
X153172Y62250D02*
Y70328D01*
X139000Y78000D02*
X145500D01*
X153172Y70328D01*
X129000Y71000D02*
Y73000D01*
X136500Y80500D01*
X310925Y41925D02*
X314553D01*
X176618Y59250D02*
X185078D01*
X193328Y67500D01*
X218000D01*
X96828Y67000D02*
X103828Y74000D01*
X91000Y71000D02*
X97000D01*
X103000Y77000D01*
X114132D01*
X124750Y66382D01*
X103828Y74000D02*
X113303D01*
X121750Y65553D01*
X124750Y63775D02*
Y66382D01*
Y63775D02*
X129525Y59000D01*
X118000Y60000D02*
X125000Y53000D01*
X115000Y60000D02*
X118000D01*
X121750Y63447D02*
Y65553D01*
Y63447D02*
X128500Y56697D01*
X133697D01*
X83000Y32000D02*
Y62000D01*
X88000Y67000D01*
X96828D01*
X100000Y25000D02*
X110000Y15000D01*
X189250Y57250D02*
X192000Y60000D01*
X202000D01*
X204000Y58000D01*
X181672Y57250D02*
X189250D01*
X224892Y54300D02*
X255956D01*
X190078Y55250D02*
X192828Y58000D01*
X201172D01*
X203172Y56000D01*
X183000Y55250D02*
X190078D01*
X182250Y29250D02*
X185590Y32590D01*
X200000Y52000D02*
X205000D01*
X179632Y40500D02*
X190500D01*
X195000Y45000D01*
X198000Y50000D02*
X200000Y52000D01*
X195000Y45000D02*
Y50828D01*
X198172Y54000D01*
X206828D01*
X211828Y57000D02*
X222192D01*
X224892Y54300D01*
X210000Y56000D02*
X212000Y54000D01*
X203172Y56000D02*
X210000D01*
X204000Y58000D02*
X210828D01*
X211828Y57000D01*
X221364Y54000D02*
X223564Y51800D01*
X212000Y54000D02*
X221364D01*
X223564Y51800D02*
X254672D01*
X206828Y54000D02*
X210828Y50000D01*
X218771D02*
X225000Y43771D01*
X210828Y50000D02*
X218771D01*
X198000Y44172D02*
Y50000D01*
X178853Y37450D02*
X191278D01*
X198000Y44172D01*
X209500Y47500D02*
X217443D01*
X205000Y52000D02*
X209500Y47500D01*
X217443D02*
X229013Y35930D01*
X263159Y43771D02*
X267000Y39930D01*
X225000Y43771D02*
X263159D01*
X308930Y39930D02*
X310925Y41925D01*
X267000Y39930D02*
X308930D01*
X256062Y37938D02*
X256070Y37930D01*
X267000D01*
X268000Y36930D01*
X308942D01*
X311447Y34425D01*
X314553Y41925D02*
X318478Y38000D01*
X340000Y23000D02*
X343000D01*
X352050Y13950D01*
X370000Y23000D02*
X373000D01*
X340414Y25414D02*
X345000D01*
X324000Y26000D02*
X337000D01*
X340000Y23000D01*
X337828Y28000D02*
X340414Y25414D01*
X325000Y34425D02*
X327600Y31825D01*
X311447Y34425D02*
X325000D01*
X333000Y37000D02*
X347000D01*
X350000Y40000D01*
Y58600D01*
X326750Y81850D02*
X350000Y58600D01*
X329000Y41000D02*
X333000Y37000D01*
X270500Y43680D02*
X271070Y44250D01*
X314553D01*
X315853Y45550D02*
X329753D01*
X335303Y40000D01*
X314553Y44250D02*
X315853Y45550D01*
X335303Y40000D02*
X344253D01*
X346250Y41997D01*
Y58353D01*
X318478Y38000D02*
X325000D01*
X329175Y33825D01*
X327600Y31825D02*
X344000D01*
X345000Y30825D01*
X373175D01*
X374003Y33825D02*
X383578Y24250D01*
X329175Y33825D02*
X374003D01*
X366303Y37000D02*
X375950D01*
X380950Y32000D01*
X610750Y31750D02*
X614000Y35000D01*
Y38697D01*
X523697Y36000D02*
X608000D01*
X540053Y31750D02*
X542000D01*
X542000Y31750D01*
X610750D01*
X577000Y43000D02*
X611000Y77000D01*
X515000Y43000D02*
X577000D01*
X379000Y17000D02*
X607303D01*
X504000Y32000D02*
X515000Y43000D01*
X380950Y32000D02*
X504000D01*
X383578Y24250D02*
X511947D01*
X523697Y36000D01*
X530053Y21750D02*
X540053Y31750D01*
X511632Y378500D02*
X517303Y372828D01*
Y362525D02*
Y372828D01*
Y362525D02*
X524828Y355000D01*
X368800Y13950D02*
X609082D01*
X607303Y17000D02*
X627152Y36848D01*
X609082Y13950D02*
X631000Y35868D01*
X617000Y77000D02*
X625000Y85000D01*
X631000D01*
X611000Y77000D02*
X617000D01*
X627152Y36848D02*
Y68152D01*
X631000Y35868D02*
Y67000D01*
X373175Y30825D02*
X382250Y21750D01*
X530053D01*
X197000Y27000D02*
X203970D01*
X197828Y25000D02*
X203141D01*
X198657Y23000D02*
X202190D01*
X192650Y22650D02*
X197000Y27000D01*
X161850Y20150D02*
X192978D01*
X197828Y25000D01*
X161350Y17650D02*
X193307D01*
X198657Y23000D01*
X208991Y19150D02*
X226509D01*
X228859Y21500D01*
X229166Y15150D02*
X230516Y16500D01*
X227837Y17150D02*
X229687Y19000D01*
X160850Y15150D02*
X229166D01*
X228030Y24000D02*
X253970D01*
X257970Y20000D01*
X260000Y18000D02*
X260000Y18000D01*
X280500D01*
X230837Y16500D02*
X251484D01*
X229687Y19000D02*
X252313D01*
X256641Y18000D02*
X260000D01*
X253141Y21500D02*
X256641Y18000D01*
X228859Y21500D02*
X253141D01*
X252313Y19000D02*
X255313Y16000D01*
X283828D01*
X251484Y16500D02*
X253985Y14000D01*
X162178Y22650D02*
X192650D01*
X155000Y15000D02*
X158825Y11175D01*
X110000Y15000D02*
X155000D01*
X158000Y18000D02*
X160850Y15150D01*
X113000Y18000D02*
X158000D01*
X159000Y20000D02*
X161350Y17650D01*
X131000Y20000D02*
X159000D01*
X160000Y22000D02*
X161850Y20150D01*
X130000Y37000D02*
X143000Y24000D01*
X160828D01*
X162178Y22650D01*
X185590Y32590D02*
X196762D01*
X184078Y27250D02*
X186919Y30090D01*
X198090D01*
X202500Y34500D01*
X218303D01*
X224873Y27930D01*
X250127D01*
X196762Y32590D02*
X201172Y37000D01*
X219828D02*
X226898Y29930D01*
X201172Y37000D02*
X219828D01*
X259000Y31750D02*
X262750Y28000D01*
X253947Y31750D02*
X259000D01*
X261000Y33750D02*
X263750Y31000D01*
X253118Y33750D02*
X261000D01*
X292000Y28000D02*
X295000Y25000D01*
X323000D01*
X324000Y26000D01*
X262750Y28000D02*
X292000D01*
X263750Y31000D02*
X292828D01*
X295828Y28000D01*
X337828D01*
X373000Y23000D02*
X379000Y17000D01*
X345000Y25414D02*
X353414Y17000D01*
X364000D02*
X370000Y23000D01*
X353414Y17000D02*
X364000D01*
X147750Y29250D02*
X157250D01*
X162000Y34000D01*
X173250D01*
X178000Y29250D01*
X182250D01*
X159078Y27250D02*
X163329Y31500D01*
X171921D01*
X176172Y27250D01*
X184078D01*
X137922Y63750D02*
X145250D01*
X328750Y83675D02*
Y85650D01*
X324139Y90261D02*
X328750Y85650D01*
X321000Y96000D02*
X324139Y92861D01*
Y90261D02*
Y92861D01*
X309150Y96850D02*
X314375Y91625D01*
Y88596D02*
Y91625D01*
X311150Y98800D02*
Y115453D01*
Y98800D02*
X313950Y96000D01*
X321000D01*
X309150Y96850D02*
Y116281D01*
X284030Y129000D02*
X291281Y136250D01*
X308669D01*
X288000Y130000D02*
X291500Y133500D01*
X309550Y79000D02*
X318400D01*
X321125Y81725D01*
X233250Y112250D02*
X234000Y113000D01*
X217000Y120000D02*
X224750Y112250D01*
X233250D01*
X205000Y140850D02*
X209000Y144850D01*
Y154000D01*
X225250Y162947D02*
Y168250D01*
X229000Y172000D01*
X234000Y105000D02*
X236850Y107850D01*
Y115150D01*
X225250Y151000D02*
X229000Y154750D01*
Y164000D01*
X232153Y118150D02*
X233850D01*
X230553Y119750D02*
X232153Y118150D01*
X233850D02*
X236850Y115150D01*
X226250Y119750D02*
X230553D01*
X225250Y137000D02*
Y151000D01*
X224000Y122000D02*
Y135750D01*
Y122000D02*
X226250Y119750D01*
X224000Y135750D02*
X225250Y137000D01*
X266176Y68000D02*
X273525D01*
X277500Y71975D01*
X251678Y85425D02*
X260575D01*
X279053Y75725D02*
X281250Y73528D01*
X270275Y75725D02*
X279053D01*
X260575Y85425D02*
X270275Y75725D01*
X284200Y66800D02*
X286875D01*
X281250Y69750D02*
X284200Y66800D01*
X281250Y69750D02*
Y73528D01*
X267750Y90300D02*
X276050Y82000D01*
X255000Y111303D02*
X256750Y109553D01*
X257000Y112132D02*
X258750Y110382D01*
Y97618D02*
Y110382D01*
X256750Y98447D02*
Y109553D01*
X249000Y127000D02*
X255000Y121000D01*
Y111303D02*
Y121000D01*
X259980Y92717D02*
Y96020D01*
X260750Y96790D01*
X259980Y92717D02*
X273697Y79000D01*
X257000Y95868D02*
X258750Y97618D01*
X307500Y133500D02*
X312750Y128250D01*
X291500Y133500D02*
X307500D01*
X312750Y119881D02*
Y128250D01*
X277000Y132000D02*
X282000Y137000D01*
X277000Y117000D02*
X282250Y111750D01*
X277000Y117000D02*
Y132000D01*
X288000Y101697D02*
X292282D01*
X282250Y107446D02*
X282250D01*
X288000Y101697D01*
X282000Y101432D02*
Y104172D01*
X291632Y91800D02*
X296875D01*
X282000Y101432D02*
X291632Y91800D01*
X276050Y82000D02*
X283000D01*
X276878Y84000D02*
X284000D01*
X280000Y121000D02*
X286000D01*
X290000Y117000D01*
X273000Y120132D02*
Y132000D01*
Y120132D02*
X275000Y118132D01*
X289000Y79000D02*
X292000D01*
X297625Y73375D01*
Y61372D02*
Y73375D01*
X284000Y84000D02*
X289000Y79000D01*
X288000Y77000D02*
X291172D01*
X295625Y72547D01*
X283000Y82000D02*
X288000Y77000D01*
X295625Y59925D02*
Y72547D01*
X289896Y84050D02*
X293000D01*
X290725Y86050D02*
X294328D01*
X304500Y72275D02*
Y75879D01*
X294328Y86050D02*
X304500Y75879D01*
X255000Y164000D02*
X259000Y168000D01*
X255000Y128657D02*
Y164000D01*
X252000Y127828D02*
X257000Y122828D01*
Y112132D02*
Y122828D01*
X259000Y113000D02*
Y124657D01*
X255000Y128657D02*
X259000Y124657D01*
X252000Y165000D02*
X258000Y171000D01*
X249000Y127000D02*
Y165828D01*
X252000Y127828D02*
Y165000D01*
X262007Y174000D02*
X266000Y177993D01*
X263000Y171000D02*
X269000Y177000D01*
X266000Y177993D02*
Y245000D01*
X262750Y248250D02*
X266000Y245000D01*
X269000Y177000D02*
Y252000D01*
X264000Y257000D02*
X269000Y252000D01*
X140197Y131500D02*
X141697Y133000D01*
X144197D01*
X145697Y131500D01*
X149697Y120197D02*
X151197Y121697D01*
X147197Y120197D02*
X149697D01*
X145697Y121697D02*
X147197Y120197D01*
X145697Y121697D02*
Y131500D01*
X152697Y133000D02*
X155197D01*
X151197Y131500D02*
X152697Y133000D01*
X151197Y121697D02*
Y131500D01*
X156697Y114447D02*
Y131500D01*
X155000Y112750D02*
X156697Y114447D01*
X155197Y133000D02*
X156697Y131500D01*
X155000Y110000D02*
Y112750D01*
X168132Y89000D02*
X185000D01*
X186000Y90000D01*
X202925D01*
X211925Y81000D01*
X144447Y27250D02*
X159078D01*
X135000Y36697D02*
X144447Y27250D01*
X139000Y38000D02*
X147750Y29250D01*
X131500Y49000D02*
Y51000D01*
X129500Y53000D02*
X131500Y51000D01*
X125000Y53000D02*
X129500D01*
X126250Y36750D02*
X141000Y22000D01*
X160000D01*
X126250Y36750D02*
Y43750D01*
X155172Y64078D02*
X158000Y61250D01*
X153172Y62250D02*
X156172Y59250D01*
X145250Y63750D02*
X152250Y56750D01*
X143250Y61750D02*
X150250Y54750D01*
X158000Y61250D02*
X168750D01*
X156172Y59250D02*
X167422D01*
X168750Y61250D02*
X175500Y54500D01*
X167422Y59250D02*
X174672Y52000D01*
X163303Y54750D02*
X166303Y51750D01*
X152250Y56750D02*
X164132D01*
X166303Y50000D02*
Y51750D01*
X168303Y51828D02*
Y52578D01*
Y51828D02*
X179632Y40500D01*
X164132Y56750D02*
X168303Y52578D01*
X150250Y54750D02*
X163303D01*
X166303Y50000D02*
X178853Y37450D01*
X164000Y101000D02*
X202000D01*
X215675Y87325D01*
X155000Y110000D02*
X164000Y101000D01*
X102750Y352250D02*
Y355250D01*
Y352250D02*
X108000Y347000D01*
Y324000D02*
Y347000D01*
X192750Y210947D02*
X196696Y207000D01*
X192750Y210947D02*
Y213553D01*
X196696Y207000D02*
X200000D01*
X144822Y326875D02*
X145447Y326250D01*
X141375Y325750D02*
X142500Y326875D01*
X144822D01*
X134250Y325750D02*
X141375D01*
X167078Y373250D02*
X172000D01*
X140447Y379750D02*
X160578D01*
X167078Y373250D01*
X166600Y211850D02*
X181150D01*
X186000Y207000D01*
X108875Y43000D02*
X118000D01*
X101500Y34500D02*
X118000D01*
X119700Y36200D01*
X194132Y387000D02*
X199750D01*
X160000Y314000D02*
X165172D01*
X166172Y315000D01*
X194553Y313750D02*
X197250Y311053D01*
X163000Y309000D02*
X166750Y312750D01*
X178836D01*
X195382Y315750D02*
X197382Y313750D01*
X158000Y317000D02*
X180750D01*
X182000Y315750D01*
X195382D01*
X166172Y315000D02*
X179750D01*
X181000Y313750D01*
X194553D01*
X178836Y312750D02*
X180586Y311000D01*
X183868D01*
X213250Y260750D02*
X216000Y258000D01*
X231031D01*
X209250Y234447D02*
X211447Y232250D01*
X214750D01*
X223000Y224000D01*
X198850Y244150D02*
X200750Y242250D01*
X199100Y239750D02*
X207550D01*
X209250Y238050D01*
Y234447D02*
Y238050D01*
X200750Y242250D02*
X208750D01*
X211000Y240000D01*
X215000D01*
X223000Y232000D01*
X210781Y247750D02*
X215250D01*
X223000Y240000D01*
X210180Y247150D02*
X210781Y247750D01*
X207154Y247150D02*
X210180D01*
X202453Y251850D02*
X207154Y247150D01*
X208750Y257750D02*
X221500Y245000D01*
X205447Y257750D02*
X208750D01*
X201547Y253850D02*
X205447Y257750D01*
X207000Y252000D02*
X209000Y250000D01*
X207000Y252000D02*
Y254000D01*
X198553Y263750D02*
X201553Y260750D01*
X195447Y263750D02*
X198553D01*
X192750Y261053D02*
X195447Y263750D01*
X192750Y258447D02*
Y261053D01*
X201553Y260750D02*
X213250D01*
X175219Y256250D02*
X176819Y257850D01*
X174553Y263750D02*
X178453Y259850D01*
X171447Y263750D02*
X174553D01*
X190553Y256250D02*
X192750Y258447D01*
X183625Y251850D02*
X202453D01*
X186720Y256250D02*
X190553D01*
X184453Y253850D02*
X201547D01*
X176819Y257850D02*
X179180D01*
X180850Y256180D01*
Y254625D02*
Y256180D01*
Y254625D02*
X183625Y251850D01*
X178453Y259850D02*
X180009D01*
X182850Y257009D01*
Y255454D02*
Y257009D01*
Y255454D02*
X184453Y253850D01*
X627152Y68152D02*
X638000Y79000D01*
Y93000D01*
X643000Y79000D02*
Y85000D01*
X631000Y67000D02*
X643000Y79000D01*
X527000Y385000D02*
X624000D01*
X634000Y375000D01*
X525000Y380000D02*
X623000D01*
X667000Y336000D01*
X524000Y376500D02*
X621500D01*
X658750Y339250D01*
X633000Y355000D02*
X640000Y348000D01*
X629000Y351000D02*
X640000Y340000D01*
X524828Y355000D02*
X633000D01*
X524000Y351000D02*
X629000D01*
X138250Y261750D02*
X143150Y256850D01*
X162547D01*
X164446Y258750D01*
X168947D01*
X171447Y256250D01*
X164118Y261250D02*
X168947D01*
X162218Y259350D02*
X164118Y261250D01*
X139078Y264250D02*
X143978Y259350D01*
X162218D01*
X166000Y266500D02*
X176500D01*
X262000Y275000D02*
X277000D01*
X356523Y41477D02*
X361827D01*
X161000Y352000D02*
X161000Y352000D01*
X177303D01*
X230000Y333925D02*
X235075Y339000D01*
X246000D01*
X297040Y307825D02*
X316750Y327535D01*
X294693Y307825D02*
X297040D01*
X291250Y304382D02*
X294693Y307825D01*
X291250Y302250D02*
Y304382D01*
X281000Y292000D02*
X291250Y302250D01*
X262032Y292000D02*
X281000D01*
X258407Y295625D02*
X262032Y292000D01*
X229961Y295625D02*
X258407D01*
X227586Y298000D02*
X229961Y295625D01*
X227586Y298000D02*
Y298000D01*
X207000Y288030D02*
X216970Y298000D01*
X227586D01*
X327500Y331128D02*
Y335680D01*
X326250Y329878D02*
X327500Y331128D01*
X243447Y175750D02*
X246750D01*
X253000Y182000D01*
Y252000D01*
X236000Y147000D02*
X240000Y151000D01*
X234250Y141220D02*
X236000Y142969D01*
Y147000D01*
X240000Y151000D02*
Y172303D01*
X234250Y136780D02*
Y141220D01*
Y136780D02*
X241250Y129781D01*
Y107000D02*
Y129781D01*
X280300Y79000D02*
X292500Y66800D01*
X273697Y79000D02*
X280300D01*
X251000Y94000D02*
X252303D01*
X256750Y98447D01*
X257000Y89800D02*
Y95868D01*
Y89800D02*
X258125Y88675D01*
X260750Y96790D02*
Y111250D01*
X259000Y113000D02*
X260750Y111250D01*
X276322Y344200D02*
X296503D01*
X277400Y341950D02*
X297950D01*
X272500Y379425D02*
X282575D01*
X283000Y379000D01*
X122000Y366000D02*
X128697D01*
X130000Y206000D02*
X153697D01*
X157447Y209750D01*
X155697Y330000D02*
X157500Y328197D01*
Y324000D02*
X159000Y322500D01*
X157500Y324000D02*
Y328197D01*
X163197D02*
X165000Y330000D01*
X161697Y322500D02*
X163197Y324000D01*
Y328197D01*
X70000Y280000D02*
X73000D01*
X75500Y277500D01*
Y267500D02*
Y277500D01*
X59000Y315000D02*
X62000Y318000D01*
X59000Y303000D02*
Y315000D01*
Y278303D02*
X69000Y268303D01*
X59000Y278303D02*
Y295000D01*
X69000Y264652D02*
X74402Y259250D01*
X86618D01*
X69000Y264652D02*
Y268303D01*
X132500Y344000D02*
X140750D01*
X128000Y348500D02*
Y351000D01*
Y348500D02*
X132500Y344000D01*
X275553Y381675D02*
X280675D01*
X284425Y385425D01*
X285500D01*
X182000Y294000D02*
X183000Y295000D01*
X179796Y300204D02*
X183000Y297000D01*
X174000Y300204D02*
X179796D01*
X183000Y295000D02*
Y297000D01*
X182000Y292000D02*
Y294000D01*
Y292000D02*
X183000Y291000D01*
X185000D01*
X186000Y292000D02*
X188000D01*
X185000Y291000D02*
X186000Y292000D01*
X188000D02*
X191969Y288031D01*
Y287115D02*
Y288031D01*
X197000Y276000D02*
Y282084D01*
X191969Y287115D02*
X197000Y282084D01*
X108000Y352000D02*
Y354750D01*
X101500Y361250D02*
X108000Y354750D01*
X101500Y361250D02*
Y363875D01*
X105000Y367375D01*
X108680Y385150D02*
X112531Y389000D01*
X120500D01*
X122500Y387000D01*
X110100Y379000D02*
X112300Y376800D01*
X105900Y374800D02*
X109500Y371200D01*
X119750Y326250D02*
Y336750D01*
Y326250D02*
X126500Y319500D01*
X137803D01*
X203000Y264000D02*
X205000Y266000D01*
X94500Y359750D02*
Y381000D01*
X93000Y382500D02*
X94500Y381000D01*
X101000Y380000D02*
X101500Y380500D01*
X89000Y377500D02*
Y381000D01*
X89000Y381000D02*
X89000Y381000D01*
X89000Y381000D02*
X90500Y382500D01*
X118000Y272000D02*
X123000D01*
X125000Y274000D01*
X99103Y295000D02*
X101536D01*
X93768Y292097D02*
X96200D01*
X99103Y295000D01*
X103303Y290800D02*
Y293232D01*
X102000Y287065D02*
Y289497D01*
X103303Y290800D01*
X172000Y271000D02*
X174500Y268500D01*
X170000Y276000D02*
X172000Y274000D01*
X161350Y276000D02*
X170000D01*
X172000Y271000D02*
Y274000D01*
X74000Y343000D02*
X76000Y341000D01*
Y337500D02*
Y341000D01*
X289500Y273500D02*
X291250Y271750D01*
X278500Y273500D02*
X289500D01*
X277000Y275000D02*
X278500Y273500D01*
X272303Y270000D02*
X282000Y260303D01*
X273828Y272000D02*
X281828Y264000D01*
X235000Y255500D02*
X249500Y270000D01*
X272303D01*
X248671Y272000D02*
X273828D01*
X233000Y256329D02*
X248671Y272000D01*
X305250Y271750D02*
X306000Y271000D01*
X291250Y271750D02*
X305250D01*
X127000Y265000D02*
X130000Y268000D01*
X176500Y266470D02*
Y266500D01*
Y266470D02*
X186720Y256250D01*
X176150Y241850D02*
X197000D01*
X173250Y244750D02*
X176150Y241850D01*
X252425Y76425D02*
X253425Y77425D01*
Y79675D01*
X233575Y76425D02*
X252425D01*
X158825Y11175D02*
X299100D01*
X302500Y14575D01*
X202190Y23000D02*
X208040Y17150D01*
X227837D01*
X110500Y52500D02*
X112500D01*
X115000Y55000D02*
Y56000D01*
X112500Y52500D02*
X115000Y55000D01*
X287500Y14000D02*
X288500Y15000D01*
X253985Y14000D02*
X287500D01*
X105500Y57500D02*
X110500Y52500D01*
X101000Y57500D02*
X105500D01*
X99500Y53500D02*
X102500Y50500D01*
Y48000D02*
Y50500D01*
X99500Y45000D02*
X102500Y48000D01*
X101000Y41000D02*
X106875D01*
X99500Y42500D02*
X101000Y41000D01*
X99500Y42500D02*
Y45000D01*
Y56000D02*
X101000Y57500D01*
X99500Y53500D02*
Y56000D01*
X126250Y43750D02*
X131500Y49000D01*
X130947Y93750D02*
X134697Y90000D01*
X146828D01*
X163829Y73000D01*
X310500Y14575D02*
Y17300D01*
X315000Y21800D01*
X339000Y14000D02*
X343000Y18000D01*
X327175Y14000D02*
X339000D01*
X255500Y26500D02*
Y28000D01*
Y26500D02*
X258000Y24000D01*
X210000Y131000D02*
Y135000D01*
Y131000D02*
X211000Y130000D01*
X219500Y28000D02*
X220000D01*
X224000Y24000D01*
X389000Y371750D02*
X395750Y378500D01*
X511632D01*
X135000Y36697D02*
Y45000D01*
X209000Y154000D02*
X215000Y160000D01*
X222303D01*
X205000Y126000D02*
Y140850D01*
Y126000D02*
X211000Y120000D01*
X217000D01*
X314303Y156000D02*
X317000Y158697D01*
Y160000D01*
X304000Y145697D02*
X314303Y156000D01*
X290000Y151000D02*
X297000D01*
X301000Y155000D01*
X301000Y155000D02*
X301000Y155000D01*
X301000Y155000D02*
Y159000D01*
X272132Y105000D02*
X276250Y100882D01*
Y92747D02*
Y100882D01*
X313857Y69850D02*
X321125D01*
X295657Y88050D02*
X313857Y69850D01*
X301875Y62425D02*
Y75175D01*
X293000Y84050D02*
X301875Y75175D01*
X342775Y11175D02*
X342875Y11075D01*
X323900Y11175D02*
X342775D01*
D50*
X56000Y59000D02*
X59000D01*
X684000Y223000D02*
X687000Y220000D01*
X652000Y223000D02*
X684000D01*
X16000Y190000D02*
X16000D01*
X20000Y186000D01*
X22000Y214000D02*
X22000D01*
X19000Y217000D02*
X22000Y214000D01*
X23000Y300000D02*
Y304000D01*
X31000Y238000D02*
Y246000D01*
X29000Y236000D02*
X31000Y238000D01*
X34000Y296747D02*
X38250Y300997D01*
X34000Y280000D02*
Y296747D01*
X31000Y277000D02*
X34000Y280000D01*
X31000Y277000D02*
X31000D01*
X31000Y271000D02*
Y277000D01*
X58000Y93000D02*
X61000Y96000D01*
X658000Y167000D02*
X660000Y169000D01*
X675747Y58000D02*
X677000D01*
X671747Y62000D02*
X675747Y58000D01*
X677000Y96000D02*
Y99000D01*
X663000Y233000D02*
Y236000D01*
X621000Y342000D02*
X624000Y339000D01*
X643000Y232000D02*
X652000Y223000D01*
X621000Y301000D02*
Y304000D01*
X38250Y300997D02*
Y306000D01*
X23000Y342000D02*
X25000Y340000D01*
D51*
X34000Y59000D02*
X56000D01*
X677000Y99000D02*
Y184000D01*
X20000Y73000D02*
X34000Y59000D01*
X12000Y101000D02*
Y108000D01*
X20000Y73000D02*
Y93000D01*
X12000Y101000D02*
X20000Y93000D01*
X34000Y99000D02*
X43000Y90000D01*
X54000Y155000D02*
Y170000D01*
X44000Y180000D02*
X54000Y170000D01*
X34000Y135000D02*
X54000Y155000D01*
X26000Y180000D02*
X44000D01*
X20000Y186000D02*
X26000Y180000D01*
X15750Y220250D02*
X19000Y217000D01*
X15750Y220250D02*
Y279750D01*
X23000Y287000D01*
Y300000D01*
X31000Y246000D02*
Y271000D01*
X12000Y108000D02*
X18000Y114000D01*
Y144247D01*
X32000Y158247D01*
X43000Y90000D02*
X55000D01*
X58000Y93000D01*
X650750Y108250D02*
Y159750D01*
X658000Y167000D01*
X650750Y108250D02*
X658750Y100250D01*
Y74997D02*
X671747Y62000D01*
X658750Y74997D02*
Y100250D01*
X663000Y236000D02*
Y263000D01*
X637000Y289000D02*
X663000Y263000D01*
X637000Y289000D02*
Y326000D01*
X624000Y339000D02*
X637000Y326000D01*
X621000Y254000D02*
X643000Y232000D01*
X621000Y254000D02*
Y301000D01*
X38250Y306000D02*
Y326750D01*
X25000Y340000D02*
X38250Y326750D01*
X34000Y99000D02*
Y135000D01*
D52*
X181225Y162397D02*
X197828Y179000D01*
X204000Y181000D02*
X208000Y177000D01*
X197000Y181000D02*
X204000D01*
X169000Y109828D02*
Y117000D01*
Y109828D02*
X171828Y107000D01*
X167000Y109000D02*
Y117829D01*
Y109000D02*
X171000Y105000D01*
X176000D01*
X184000Y159000D02*
X187000Y156000D01*
X192000Y159000D02*
X195000Y156000D01*
X234000Y121000D02*
X237000Y124000D01*
X229000Y124000D02*
X232000Y127000D01*
X248000Y113000D02*
X251000Y116000D01*
X245000Y118000D02*
X248000Y121000D01*
X490040Y303000D02*
X493000Y305960D01*
X488200Y300200D02*
X491200D01*
X495800Y304800D01*
X439100Y317100D02*
X442000Y314200D01*
X438000Y318200D02*
X439100Y317100D01*
X407160Y318200D02*
X438000D01*
X401960Y313000D02*
X407160Y318200D01*
X465700Y97000D02*
X467200Y95500D01*
Y87040D02*
Y95500D01*
X390325Y109475D02*
X399405D01*
X405800Y98000D02*
Y103080D01*
X399405Y109475D02*
X405800Y103080D01*
X389165Y106675D02*
X398245D01*
X403000Y101920D01*
Y96840D02*
Y101920D01*
X380965Y112725D02*
X387075D01*
X376240Y108000D02*
X380965Y112725D01*
X376000Y108000D02*
X376240D01*
X379725Y107525D02*
X382125Y109925D01*
X385915D01*
X452000Y101960D02*
Y104000D01*
X448000Y96160D02*
Y97960D01*
X452000Y101960D01*
X450800Y95000D02*
Y96800D01*
X456000Y102000D01*
X406840Y78000D02*
X421160D01*
X401000Y83840D02*
X406840Y78000D01*
X401000Y83840D02*
Y86040D01*
X403800Y85000D02*
X408000Y80800D01*
X420000D01*
X403800Y85000D02*
Y87200D01*
X390000Y101000D02*
X403800Y87200D01*
X388840Y98200D02*
X401000Y86040D01*
X454360Y83000D02*
X461200Y89840D01*
X426160Y83000D02*
X454360D01*
X453200Y85800D02*
X458400Y91000D01*
X425000Y85800D02*
X453200D01*
X420000Y80800D02*
X425000Y85800D01*
X421160Y78000D02*
X426160Y83000D01*
X479180Y98180D02*
X492780D01*
X496325Y94635D01*
Y87365D02*
Y94635D01*
X466860Y99800D02*
X470000Y96660D01*
Y88000D02*
Y96660D01*
X461540Y99800D02*
X466860D01*
X470000Y88000D02*
X471500Y86500D01*
X474500D01*
X458400Y91000D02*
Y96660D01*
X487660Y83200D02*
X492160D01*
X496325Y87365D01*
X484000Y79540D02*
X487660Y83200D01*
X484000Y75000D02*
Y79540D01*
Y75000D02*
X485000Y74000D01*
X488000D01*
X369725Y113000D02*
X373000D01*
X458400Y96660D02*
X461540Y99800D01*
X368400Y111675D02*
X369725Y113000D01*
X368400Y105943D02*
X373343Y101000D01*
X390000D01*
X368400Y105943D02*
Y111675D01*
X480340Y95380D02*
X491620D01*
X493525Y93475D01*
X479000Y94040D02*
X480340Y95380D01*
X493525Y88525D02*
Y93475D01*
X491000Y86000D02*
X493525Y88525D01*
X486500Y86000D02*
X491000D01*
X462700Y97000D02*
X465700D01*
X479000Y87040D02*
Y94040D01*
X461200Y89840D02*
Y95500D01*
X470340Y83700D02*
X475660D01*
X479000Y87040D01*
X467200Y86840D02*
X470340Y83700D01*
X369765Y117000D02*
X371000D01*
X461200Y95500D02*
X462700Y97000D01*
X365600Y112835D02*
X369765Y117000D01*
X365600Y104783D02*
Y112835D01*
X372183Y98200D02*
X388840D01*
X365600Y104783D02*
X372183Y98200D01*
X448000Y106000D02*
X450000D01*
X452000Y104000D01*
X456000Y102000D02*
Y106000D01*
X385915Y109925D02*
X389165Y106675D01*
X387075Y112725D02*
X390325Y109475D01*
X416100Y105920D02*
X419100D01*
X433700Y100500D02*
X436700D01*
X432200Y99000D02*
X433700Y100500D01*
X419100Y105920D02*
X420600Y104420D01*
X438200Y95000D02*
Y99000D01*
X436700Y100500D02*
X438200Y99000D01*
X441840Y91360D02*
X447160D01*
X450800Y95000D01*
X438200D02*
X441840Y91360D01*
X432200Y95840D02*
Y99000D01*
X429060Y92700D02*
X432200Y95840D01*
X420600D02*
Y104420D01*
X423740Y92700D02*
X429060D01*
X420600Y95840D02*
X423740Y92700D01*
X414600Y104420D02*
X416100Y105920D01*
X414600Y96840D02*
Y104420D01*
X406140Y93700D02*
X411460D01*
X414600Y96840D01*
X403000D02*
X406140Y93700D01*
X414940Y108720D02*
X420260D01*
X423400Y105580D01*
X411800D02*
X414940Y108720D01*
X432540Y103300D02*
X437860D01*
X441000Y100160D01*
X429400D02*
X432540Y103300D01*
X446000Y94160D02*
X448000Y96160D01*
X423400Y97000D02*
Y105580D01*
X429400Y97000D02*
Y100160D01*
X411800Y98000D02*
Y105420D01*
X424900Y95500D02*
X427900D01*
X429400Y97000D01*
X423400D02*
X424900Y95500D01*
X407300Y96500D02*
X410300D01*
X411800Y98000D01*
X405800D02*
X407300Y96500D01*
X482220Y294000D02*
X484400Y296180D01*
Y300360D01*
X487040Y303000D01*
X487200Y294800D02*
Y299200D01*
Y294800D02*
X488000Y294000D01*
X487200Y299200D02*
X488200Y300200D01*
X478800Y302340D02*
Y316000D01*
X475460Y299000D02*
X478800Y302340D01*
X448340Y299000D02*
X475460D01*
X449500Y301800D02*
X474300D01*
X476000Y303500D01*
Y317160D01*
X445300Y306000D02*
X449500Y301800D01*
X386000Y306000D02*
X445300D01*
X384840Y303200D02*
X444140D01*
X448240Y299100D01*
X370508Y307200D02*
X380840D01*
X368000Y304692D02*
X370508Y307200D01*
X368000Y310000D02*
X382000D01*
X487040Y303000D02*
X490040D01*
X480000Y294000D02*
X482220D01*
X380840Y307200D02*
X384840Y303200D01*
X368000Y304000D02*
Y304692D01*
X382000Y310000D02*
X386000Y306000D01*
X453000Y320740D02*
X457550Y316190D01*
X450732Y326000D02*
X453000Y323732D01*
Y320740D02*
Y323732D01*
X455800Y321900D02*
Y325800D01*
X456000Y326000D01*
X455800Y321900D02*
X460350Y317350D01*
X448000Y326000D02*
X450732D01*
X392200Y315800D02*
X400800D01*
X389000Y313000D02*
X401960D01*
X389000Y319000D02*
X392200Y315800D01*
X400800D02*
X406000Y321000D01*
X460350Y311840D02*
Y317350D01*
X457550Y313000D02*
Y316190D01*
X457010Y308500D02*
X460350Y311840D01*
X451500Y308500D02*
X457010D01*
X445800Y314200D02*
X451500Y308500D01*
X442000Y314200D02*
X445800D01*
X452660Y311300D02*
X455850D01*
X446960Y317000D02*
X452660Y311300D01*
X455850D02*
X457550Y313000D01*
X443160Y317000D02*
X446960D01*
X439160Y321000D02*
X443160Y317000D01*
X406000Y321000D02*
X439160D01*
X478800Y316000D02*
X480800Y318000D01*
X476000Y317160D02*
X479640Y320800D01*
X491000Y318000D02*
X493000Y316000D01*
X480800Y318000D02*
X491000D01*
X479640Y320800D02*
X492160D01*
X495800Y317160D01*
Y304800D02*
Y317160D01*
X493000Y305960D02*
Y316000D01*
X314000Y103000D02*
X317000Y100000D01*
X314000Y111000D02*
X317000Y108000D01*
X303000D02*
X306000Y111000D01*
X303000Y100000D02*
X306000Y103000D01*
X306000Y119000D02*
X309000Y122000D01*
X303000Y124000D02*
X306000Y127000D01*
X293000Y123000D02*
X296000D01*
X298000Y121000D01*
X229000Y140000D02*
X232000Y143000D01*
X229000Y132000D02*
X232000Y135000D01*
X238000Y139000D02*
X241000Y136000D01*
X241000Y144000D02*
X244000Y141000D01*
X441000Y96160D02*
Y100160D01*
Y96160D02*
X443000Y94160D01*
X446000D01*
X379000Y105000D02*
X379725Y105725D01*
Y107525D01*
X476200Y88200D02*
Y95200D01*
X479180Y98180D01*
X474500Y86500D02*
X476200Y88200D01*
X481200Y75200D02*
Y80700D01*
X480000Y74000D02*
X481200Y75200D01*
Y80700D02*
X486500Y86000D01*
X187000Y130325D02*
Y147974D01*
X193325Y122478D02*
Y126828D01*
X181225Y156577D02*
Y162397D01*
Y156577D02*
X189000Y148802D01*
X195478Y120325D02*
X197504D01*
X204000Y111803D02*
X217803Y98000D01*
X204000Y111803D02*
Y113828D01*
X189000Y131153D02*
X193325Y126828D01*
X197504Y120325D02*
X204000Y113828D01*
X193325Y122478D02*
X195478Y120325D01*
X202000Y173500D02*
X203000Y172500D01*
X202000Y173500D02*
Y175000D01*
X203000Y172500D02*
X205000D01*
X241000Y84000D02*
X243950D01*
X229000Y96000D02*
X241000Y84000D01*
X243950D02*
X245875Y85925D01*
X205000Y172500D02*
X205932Y173432D01*
X223829Y98000D02*
X225828Y96000D01*
X217803Y98000D02*
X223829D01*
X205075Y175788D02*
Y177097D01*
X205932Y173432D02*
Y174932D01*
X205075Y175788D02*
X205932Y174932D01*
X225828Y96000D02*
X229000D01*
X187000Y130325D02*
X191325Y126000D01*
Y121649D02*
Y126000D01*
X179225Y155749D02*
X187000Y147974D01*
X202000Y110974D02*
Y113000D01*
Y110974D02*
X216974Y96000D01*
X191325Y121649D02*
X194649Y118325D01*
X196675D02*
X202000Y113000D01*
X194649Y118325D02*
X196675D01*
X179225Y155749D02*
Y163225D01*
X197000Y181000D01*
X244175Y82000D02*
X245875Y80300D01*
X225000Y94000D02*
X228172D01*
X240172Y82000D01*
X223000Y96000D02*
X225000Y94000D01*
X216974Y96000D02*
X223000D01*
X240172Y82000D02*
Y82000D01*
Y82000D02*
X244175D01*
X189000Y131153D02*
Y148802D01*
X173000Y188000D02*
X176000Y191000D01*
X165000Y188000D02*
X168000Y191000D01*
X187250Y50000D02*
X191000D01*
X186000Y51250D02*
X187250Y50000D01*
X186000Y45250D02*
X186750Y46000D01*
X191000D01*
X169000Y117000D02*
X171500Y119500D01*
X177500D01*
X167000Y117829D02*
X170672Y121500D01*
X178328D01*
X171828Y107000D02*
X173864D01*
X176000Y109136D02*
Y113000D01*
X173864Y107000D02*
X176000Y109136D01*
X178328Y121500D02*
X185828Y114000D01*
X192000D01*
X177500Y119500D02*
X185000Y112000D01*
X86000Y133000D02*
X88000Y135000D01*
X97000D01*
X108197Y146197D01*
X128000D01*
X134803Y153000D01*
X160000D01*
X163000Y150000D02*
X171172D01*
X160000Y153000D02*
X163000Y150000D01*
X168000Y143000D02*
X170863D01*
X173000Y145137D01*
X171172Y150000D02*
X173000Y148172D01*
Y145137D02*
Y148172D01*
X199978Y347350D02*
X242800D01*
X254575Y359125D01*
X272075D01*
X284978Y362125D02*
X292125D01*
X272075Y359125D02*
X276425Y363475D01*
X283628D01*
X284978Y362125D01*
X292125D02*
X293000Y363000D01*
X86000Y139000D02*
X88000Y137000D01*
X96172D01*
X107369Y148197D01*
X127172D01*
X133974Y155000D01*
X163829Y152000D02*
X172000D01*
X133974Y155000D02*
X160828D01*
X163829Y152000D01*
X175000Y144000D02*
X176000Y143000D01*
X172000Y152000D02*
X175000Y149000D01*
Y144000D02*
Y149000D01*
X243628Y345350D02*
X255403Y357125D01*
X272903D01*
X277253Y361475D01*
X282799D02*
X284149Y360125D01*
X277253Y361475D02*
X282799D01*
X284149Y360125D02*
X292953D01*
X294803Y361975D01*
X299300D01*
X303125Y365800D01*
X203172Y179000D02*
X205075Y177097D01*
X197828Y179000D02*
X203172D01*
X168000Y209000D02*
X171000Y206000D01*
X176000Y209000D02*
X179000Y206000D01*
X293000Y368000D02*
X294000Y369000D01*
X296000D01*
X296875Y368125D01*
X197503Y349825D02*
X199978Y347350D01*
X193825Y347825D02*
X196675D01*
X199150Y345350D01*
X243628D01*
X192000Y346000D02*
X193825Y347825D01*
X192000Y352000D02*
X194175Y349825D01*
X197503D01*
X293000Y363000D02*
Y368000D01*
X296875Y365800D02*
Y368125D01*
X192000Y108000D02*
Y108500D01*
X185000Y112000D02*
X188500D01*
X192000Y108500D01*
X286000Y108999D02*
X290000Y112999D01*
X292000Y107000D02*
X292000D01*
X296000Y111000D01*
X298000Y129000D02*
X298000D01*
X297000Y128000D02*
X298000Y129000D01*
X294000Y128000D02*
X297000D01*
X293000Y129000D02*
X294000Y128000D01*
M02*
