%FSLAX44Y44*%
%MOMM*%
G71*
G01*
G75*
G04 Layer_Physical_Order=12*
G04 Layer_Color=16711680*
%ADD10C,0.3500*%
%ADD11R,1.6000X3.9000*%
%ADD12R,5.2000X5.2000*%
%ADD13R,0.6000X0.2500*%
%ADD14R,0.2500X0.6000*%
%ADD15R,0.5000X0.6000*%
%ADD16R,0.2500X0.5000*%
%ADD17R,2.4000X0.8400*%
%ADD18R,3.4000X4.0000*%
%ADD19R,0.9000X0.4500*%
%ADD20R,0.6000X0.5000*%
%ADD21R,0.5000X0.5000*%
%ADD22R,0.5000X0.5000*%
%ADD23R,0.8000X0.8000*%
%ADD24R,0.7500X1.4000*%
%ADD25R,0.8000X0.8000*%
%ADD26R,1.8288X3.4290*%
%ADD27R,3.4290X1.8288*%
%ADD28R,0.9000X1.6000*%
%ADD29R,1.6000X0.9000*%
%ADD30R,1.2000X0.5800*%
%ADD31C,1.0160*%
%ADD32C,0.4000*%
%ADD33C,0.6350*%
%ADD34R,0.7000X0.9000*%
%ADD35C,0.0930*%
%ADD36C,0.3000*%
%ADD37C,0.0900*%
%ADD38C,0.2500*%
%ADD39C,0.4000*%
%ADD40C,0.1010*%
%ADD41C,0.2000*%
%ADD42C,0.5000*%
%ADD43C,0.7000*%
%ADD44C,5.0000*%
%ADD45C,0.2700*%
%ADD46C,0.4500*%
%ADD47C,0.1000*%
%ADD48C,3.6830*%
%ADD49C,0.0800*%
%ADD50C,0.6000*%
%ADD51C,0.8000*%
%ADD52C,0.0850*%
%ADD53C,1.2500*%
%ADD54R,1.9000X2.6000*%
%ADD55R,0.2800X2.2700*%
%ADD56R,2.5400X0.4300*%
%ADD57R,4.7000X0.4300*%
%ADD58R,1.3000X0.9000*%
%ADD59R,0.9000X1.3000*%
%ADD60R,0.5588X0.6858*%
%ADD61R,0.9000X0.7000*%
%ADD62R,1.8000X1.1250*%
%ADD63R,0.4800X0.2300*%
%ADD64R,0.4000X1.1900*%
%ADD65R,0.9000X1.1900*%
%ADD66R,3.3000X3.3000*%
%ADD67R,0.6000X0.2300*%
%ADD68R,0.2300X0.6000*%
%ADD69R,2.6000X1.9000*%
%ADD70R,1.0000X0.5500*%
%ADD71R,0.5500X1.0000*%
%ADD72C,0.3500*%
%ADD73C,0.2800*%
%ADD74C,0.2200*%
%ADD75C,0.4500*%
%ADD76C,0.1500*%
G36*
X102000Y185000D02*
X88000D01*
X86000Y187000D01*
Y194000D01*
X87000Y195000D01*
X90000D01*
X93000Y198000D01*
Y199000D01*
X102000D01*
Y185000D01*
D02*
G37*
G36*
X263000Y205000D02*
Y202000D01*
X261000Y200000D01*
X260143Y199143D01*
X259732Y199061D01*
X258657Y198343D01*
X257938Y197268D01*
X257686Y196000D01*
X257938Y194732D01*
X258000Y194640D01*
Y194000D01*
X262000Y190000D01*
X263000Y189000D01*
Y187000D01*
X262000Y186000D01*
X260000D01*
X259000Y187000D01*
Y188000D01*
X256000Y191000D01*
X251000D01*
X248000Y188000D01*
X247000Y187000D01*
X246000Y186000D01*
X244000D01*
X243000Y187000D01*
Y189000D01*
X241000Y191000D01*
X237000D01*
X235000Y189000D01*
Y178000D01*
X233000Y176000D01*
Y173000D01*
X232000Y172000D01*
X226000D01*
Y177000D01*
X227640D01*
X227732Y176939D01*
X229000Y176686D01*
X230268Y176939D01*
X231343Y177657D01*
X232061Y178732D01*
X232313Y180000D01*
X232061Y181268D01*
X232000Y181360D01*
Y183000D01*
X229000Y186000D01*
X226000D01*
X222000Y190000D01*
X216000D01*
Y194640D01*
X216061Y194732D01*
X216143Y195143D01*
X218000Y197000D01*
X222000D01*
X226000Y201000D01*
Y204000D01*
X228000Y206000D01*
X230000D01*
X232000Y204000D01*
Y202000D01*
X235000Y199000D01*
X239000D01*
X242000Y202000D01*
Y204000D01*
X244000Y206000D01*
X246000D01*
X247000Y205000D01*
Y202000D01*
X244143Y199143D01*
X243732Y199062D01*
X242657Y198343D01*
X241938Y197268D01*
X241686Y196000D01*
X241938Y194732D01*
X242657Y193657D01*
X243732Y192939D01*
X245000Y192686D01*
X246268Y192939D01*
X247343Y193657D01*
X248061Y194732D01*
X248241Y195637D01*
X249605Y197000D01*
X253000D01*
X256500Y200500D01*
X256500D01*
Y200500D01*
X258000Y202000D01*
Y204000D01*
X260000Y206000D01*
X262000D01*
X263000Y205000D01*
D02*
G37*
G36*
X148000Y221000D02*
X149000Y220000D01*
X152000D01*
X153000Y219000D01*
Y217000D01*
X154000Y216000D01*
X157640D01*
X157732Y215939D01*
X159000Y215686D01*
X160268Y215939D01*
X160360Y216000D01*
X171000D01*
Y194000D01*
X162000D01*
X153000Y203000D01*
X141000D01*
X139000Y205000D01*
Y215000D01*
X137000Y217000D01*
Y219000D01*
X138000Y220000D01*
X139000D01*
X141000Y222000D01*
Y237000D01*
X148000D01*
Y221000D01*
D02*
G37*
G36*
X189000Y185000D02*
X201000D01*
X203000Y183000D01*
X213000D01*
X216000Y186000D01*
X222000D01*
Y181000D01*
X221000Y180000D01*
X216000D01*
X214000Y178000D01*
X202000D01*
X200000Y180000D01*
X192000D01*
X191000Y179000D01*
X187000D01*
Y181000D01*
X186000Y182000D01*
X180000D01*
Y187951D01*
X186049D01*
X189000Y185000D01*
D02*
G37*
G36*
X121000D02*
X117000Y181000D01*
X113000D01*
X112000Y182000D01*
Y199000D01*
X121000D01*
Y185000D01*
D02*
G37*
G36*
X279000Y189000D02*
Y187000D01*
X278000Y186000D01*
X276000D01*
X273000Y183000D01*
X269000D01*
X264000Y178000D01*
Y171000D01*
X258000D01*
Y178000D01*
X257000Y179000D01*
X248000D01*
X247000Y178000D01*
X244000D01*
X242000Y176000D01*
Y173360D01*
X241939Y173268D01*
X241686Y172000D01*
X241939Y170732D01*
X242000Y170640D01*
Y168000D01*
X243000Y167000D01*
X246000D01*
X247000Y166000D01*
Y162000D01*
X246000Y161000D01*
X244000D01*
X242000Y159000D01*
Y157360D01*
X241938Y157268D01*
X241686Y156000D01*
X241938Y154732D01*
X242000Y154640D01*
Y151000D01*
X236000D01*
Y176000D01*
X237000Y177000D01*
Y187000D01*
X241000D01*
X244000Y184000D01*
Y184000D01*
X247000D01*
X250000Y187000D01*
X256000D01*
X259000Y184000D01*
X264000D01*
X266000Y186000D01*
Y189000D01*
X272000D01*
X273000Y190000D01*
X278000D01*
X279000Y189000D01*
D02*
G37*
G36*
X199000Y239000D02*
X200000Y238000D01*
Y199000D01*
X193000D01*
Y213000D01*
X186000Y220000D01*
Y222000D01*
X184000Y224000D01*
Y230000D01*
X187000Y233000D01*
Y237000D01*
X193000Y243000D01*
Y245000D01*
X199000D01*
Y239000D01*
D02*
G37*
G36*
X295000Y221000D02*
Y219000D01*
X294000Y218000D01*
X292000D01*
X287000Y213000D01*
X281000D01*
X278000Y210000D01*
X275000D01*
X272000Y213000D01*
X267000D01*
X266000Y214000D01*
Y218000D01*
X267000Y219000D01*
X271801D01*
X272000Y218918D01*
X272082D01*
X275000Y216000D01*
X279000D01*
X280000Y217000D01*
Y218640D01*
X280061Y218732D01*
X280143Y219143D01*
X283000Y222000D01*
X294000D01*
X295000Y221000D01*
D02*
G37*
G36*
X209000Y244000D02*
Y236000D01*
X209000D01*
X209857Y235143D01*
X209939Y234732D01*
X210000Y234640D01*
Y233000D01*
X213000Y230000D01*
X214000D01*
X215000Y229000D01*
Y219000D01*
X214000Y218000D01*
X206000D01*
X204000Y220000D01*
Y238000D01*
X203000Y239000D01*
Y244000D01*
X204000Y245000D01*
X208000D01*
X209000Y244000D01*
D02*
G37*
G36*
X256000Y221000D02*
X251000D01*
X247059Y217059D01*
X247000D01*
X247000Y217059D01*
X246704Y217000D01*
X242000D01*
X240000Y215000D01*
Y212000D01*
X234000D01*
Y215000D01*
X232000Y217000D01*
X225000D01*
X223000Y215000D01*
Y210083D01*
X222917Y210000D01*
X218000D01*
Y226000D01*
X224000D01*
Y224000D01*
X225000Y223000D01*
X233000D01*
X234000Y224000D01*
Y227000D01*
X240000D01*
Y224000D01*
X241000Y223000D01*
X248000D01*
X250000Y225000D01*
Y227000D01*
X256000D01*
Y221000D01*
D02*
G37*
G36*
X322000Y185000D02*
X319000Y182000D01*
Y176157D01*
X318330Y175154D01*
X318227Y175070D01*
X317000Y175314D01*
X315732Y175061D01*
X315640Y175000D01*
X313000D01*
Y181000D01*
X307000Y187000D01*
Y189000D01*
X309000Y191000D01*
X313000D01*
X314000Y192000D01*
Y201000D01*
X315640D01*
X315732Y200939D01*
X317000Y200686D01*
X318268Y200939D01*
X318360Y201000D01*
X322000D01*
Y185000D01*
D02*
G37*
G36*
X302000Y220000D02*
X305000Y217000D01*
X307640D01*
X307732Y216939D01*
X309000Y216686D01*
X310268Y216939D01*
X310360Y217000D01*
X315640D01*
X315732Y216939D01*
X316143Y216857D01*
X317000Y216000D01*
X326000D01*
Y208000D01*
X317000D01*
Y209000D01*
X312000Y214000D01*
X301000D01*
Y193000D01*
X297000D01*
X296000Y194000D01*
Y194640D01*
X296061Y194732D01*
X296314Y196000D01*
X296061Y197268D01*
X296000Y197360D01*
Y200000D01*
X294000Y202000D01*
X292000D01*
X291000Y203000D01*
Y213000D01*
X293000Y215000D01*
X296000D01*
Y218640D01*
X296061Y218732D01*
X296314Y220000D01*
X296061Y221268D01*
X296000Y221360D01*
Y223000D01*
X302000D01*
Y220000D01*
D02*
G37*
G36*
X593000Y233000D02*
X589000Y229000D01*
X588000Y228000D01*
Y210000D01*
X579000D01*
Y220000D01*
X574000Y225000D01*
Y231000D01*
X584000Y241000D01*
X593000D01*
Y233000D01*
D02*
G37*
G36*
X199000Y141000D02*
Y139000D01*
Y136000D01*
X200000Y135000D01*
X206000D01*
Y129000D01*
X201000D01*
X199000Y127000D01*
Y126000D01*
Y123000D01*
X197000Y121000D01*
Y115000D01*
X191000D01*
Y128000D01*
X188000Y131000D01*
Y136000D01*
X189000Y137000D01*
X194000D01*
X195000Y138000D01*
Y140000D01*
Y141000D01*
X196000Y142000D01*
X198000D01*
X199000Y141000D01*
D02*
G37*
G36*
X166000Y171000D02*
X171000Y166000D01*
X184000D01*
Y160000D01*
X188000Y156000D01*
Y151000D01*
X183000Y146000D01*
Y139000D01*
X172000Y128000D01*
Y118000D01*
X163322D01*
X163000Y118322D01*
Y128000D01*
X165000Y130000D01*
Y132000D01*
X162000Y135000D01*
Y143000D01*
X171000D01*
X176000Y148000D01*
Y154640D01*
X176061Y154732D01*
X176314Y156000D01*
X176061Y157268D01*
X176000Y157360D01*
Y158000D01*
X174000Y160000D01*
X162000D01*
X160000Y158000D01*
X158000D01*
X157000Y159000D01*
Y162000D01*
X158000Y163000D01*
X159000Y164000D01*
X161000Y166000D01*
Y166640D01*
X161061Y166732D01*
X161314Y168000D01*
X161061Y169268D01*
X161000Y169360D01*
Y177000D01*
X166000D01*
Y171000D01*
D02*
G37*
G36*
X317000Y120000D02*
X325000Y112000D01*
Y103000D01*
X331000Y97000D01*
Y94000D01*
X330000Y93000D01*
X326000D01*
X322000Y97000D01*
X315000D01*
X314000Y98000D01*
Y111000D01*
X308000Y117000D01*
X289000D01*
X286000Y114000D01*
X284000D01*
X283000Y115000D01*
Y116000D01*
X278000Y121000D01*
X276000D01*
Y127000D01*
X292000D01*
X293000Y126000D01*
X306000D01*
X307000Y127000D01*
X317000D01*
Y120000D01*
D02*
G37*
G36*
X62000Y65000D02*
X57000D01*
X56000Y64000D01*
X53000Y61000D01*
Y56000D01*
X52000Y55000D01*
X41000D01*
Y65000D01*
X45000Y69000D01*
X47000Y71000D01*
Y71000D01*
X62000D01*
Y65000D01*
D02*
G37*
G36*
X82000Y107000D02*
X88000Y101000D01*
X94000D01*
X95000Y100000D01*
Y88000D01*
X94000Y87000D01*
X85000D01*
X84000Y88000D01*
Y98000D01*
X79000Y103000D01*
X78000D01*
X77000Y104000D01*
Y110000D01*
X82000D01*
Y107000D01*
D02*
G37*
G36*
X230000Y124000D02*
X233000Y121000D01*
X239000D01*
Y115000D01*
X232000D01*
X231000Y114000D01*
X228000D01*
X227000Y115000D01*
X226000Y116000D01*
Y123000D01*
Y128000D01*
X224000Y130000D01*
Y135000D01*
X230000D01*
Y124000D01*
D02*
G37*
G36*
X254000Y131132D02*
X253911Y131000D01*
X248000D01*
X247000Y130000D01*
X243000D01*
X242000Y131000D01*
X236000D01*
Y137000D01*
X254000D01*
Y131132D01*
D02*
G37*
G36*
X311000Y165000D02*
Y158000D01*
X312000Y157000D01*
X312000D01*
Y151000D01*
X314000Y149000D01*
X321000D01*
Y144000D01*
X313000D01*
X312000Y145000D01*
X305000D01*
Y153000D01*
X304000Y154000D01*
X292091D01*
X291816Y154184D01*
X291184Y154816D01*
X291000Y155091D01*
Y157000D01*
X296000Y162000D01*
Y162640D01*
X296061Y162732D01*
X296143Y163143D01*
X297000Y164000D01*
X306000D01*
X308000Y166000D01*
X310000D01*
X311000Y165000D01*
D02*
G37*
G36*
X315732Y168939D02*
X317000Y168686D01*
X318227Y168930D01*
X318330Y168846D01*
X319000Y167843D01*
Y163000D01*
Y162000D01*
X322000Y159000D01*
Y157360D01*
X321939Y157268D01*
X321686Y156000D01*
X321939Y154732D01*
X322000Y154640D01*
Y153000D01*
X316000D01*
Y160000D01*
X313000Y163000D01*
Y169000D01*
X315640D01*
X315732Y168939D01*
D02*
G37*
G36*
X155000Y183000D02*
X150000Y178000D01*
Y176000D01*
X149000Y175000D01*
X142000D01*
X141000Y176000D01*
Y193000D01*
X155000D01*
Y183000D01*
D02*
G37*
G36*
X254000Y171000D02*
X259000Y166000D01*
X263000D01*
X270000Y159000D01*
X274000D01*
X275000Y160000D01*
Y165000D01*
X276000Y166000D01*
X278000D01*
X279000Y165000D01*
Y160000D01*
X280000Y159000D01*
X285000D01*
X286000Y160000D01*
X292000Y166000D01*
X294000D01*
X295000Y165000D01*
Y163000D01*
X290000Y158000D01*
Y157360D01*
X289938Y157268D01*
X289686Y156000D01*
X289938Y154732D01*
X290657Y153657D01*
X291732Y152938D01*
X292143Y152857D01*
X294000Y151000D01*
X301000D01*
Y145000D01*
X305000Y141000D01*
Y132000D01*
X297000D01*
Y142000D01*
X295000Y144000D01*
Y146000D01*
X290000Y151000D01*
X289000D01*
X287000Y153000D01*
X265000D01*
Y157000D01*
X264000Y158000D01*
X261000Y161000D01*
X252000D01*
Y166000D01*
X248000Y170000D01*
Y177000D01*
X254000D01*
Y171000D01*
D02*
G37*
G36*
X267000Y149000D02*
X290469D01*
X291000Y148469D01*
Y145000D01*
X295000Y141000D01*
Y139000D01*
X294000Y138000D01*
X292000D01*
X291000Y139000D01*
Y140000D01*
X288000Y143000D01*
X278360D01*
X278268Y143061D01*
X277000Y143314D01*
X275732Y143061D01*
X275640Y143000D01*
X270360D01*
X270268Y143061D01*
X269000Y143314D01*
X267732Y143061D01*
X267640Y143000D01*
X264000D01*
Y146640D01*
X264061Y146732D01*
X264314Y148000D01*
X264061Y149268D01*
X264000Y149360D01*
Y150000D01*
X266000D01*
X267000Y149000D01*
D02*
G37*
G36*
X138000Y160000D02*
Y158000D01*
X142000Y154000D01*
X153000D01*
X154000Y153000D01*
Y144000D01*
X140000D01*
X137000Y147000D01*
X135000D01*
Y161000D01*
X137000D01*
X138000Y160000D01*
D02*
G37*
G36*
X343000Y225000D02*
X342000Y224000D01*
Y209000D01*
X341076Y208076D01*
X332000Y199000D01*
Y184000D01*
X329000Y181000D01*
Y163000D01*
X323000D01*
Y182000D01*
X326000Y185000D01*
Y201000D01*
X324000Y203000D01*
X315000D01*
Y205000D01*
X316000Y206000D01*
X329000D01*
X332000Y209000D01*
Y216000D01*
X330000Y218000D01*
X316000D01*
X315000Y219000D01*
Y221000D01*
X317000Y223000D01*
Y228000D01*
X323000D01*
Y225000D01*
X325000Y223000D01*
X335000D01*
X337000Y225000D01*
Y232000D01*
X343000D01*
Y225000D01*
D02*
G37*
G36*
X187000Y313000D02*
X189000Y311000D01*
Y302000D01*
X181000D01*
X177000Y306000D01*
X168000D01*
X167000Y307000D01*
Y312000D01*
X168000Y313000D01*
X187000D01*
Y313000D01*
D02*
G37*
G36*
X103000Y349000D02*
X106000Y346000D01*
Y344000D01*
X104000Y342000D01*
Y333000D01*
X105000Y332000D01*
X127000D01*
X130000Y329000D01*
Y321000D01*
X101000D01*
X100000Y320000D01*
Y312000D01*
X94000D01*
Y342000D01*
X96000Y344000D01*
Y354000D01*
X103000D01*
Y349000D01*
D02*
G37*
G36*
X79000Y357000D02*
X75000Y353000D01*
Y339000D01*
X70000Y334000D01*
X64000Y328000D01*
Y315000D01*
X52000D01*
X51000Y316000D01*
X46000D01*
X44000Y318000D01*
X36000D01*
Y321000D01*
X44000D01*
X47000Y324000D01*
Y328000D01*
X34000D01*
Y323000D01*
X25000D01*
Y337000D01*
X55000D01*
X60000Y342000D01*
Y349000D01*
X64000Y353000D01*
X70000Y359000D01*
Y365000D01*
X79000D01*
Y357000D01*
D02*
G37*
G36*
X14000Y305000D02*
X18000Y301000D01*
X19000Y300000D01*
X21000D01*
Y291000D01*
X16000Y286000D01*
X12000D01*
X11000Y287000D01*
Y288000D01*
Y300000D01*
X9000Y302000D01*
Y311000D01*
X14000D01*
Y305000D01*
D02*
G37*
G36*
X34000Y311000D02*
X41000D01*
Y292000D01*
X27000D01*
Y300000D01*
X29000D01*
Y306000D01*
X26000Y309000D01*
X16000D01*
Y321000D01*
X34000D01*
Y311000D01*
D02*
G37*
G36*
X669000Y300000D02*
X665000Y296000D01*
X636000D01*
Y302000D01*
X660000D01*
X661000Y303000D01*
Y311000D01*
X669000D01*
Y300000D01*
D02*
G37*
G36*
X655000Y306000D02*
X649000D01*
Y310000D01*
X646000Y313000D01*
X644000D01*
X642000Y311000D01*
Y306000D01*
X636000D01*
Y324000D01*
X642000D01*
Y319000D01*
X644000Y317000D01*
X646000D01*
X649000Y320000D01*
Y324000D01*
X655000D01*
Y306000D01*
D02*
G37*
G36*
X170000Y368000D02*
Y338000D01*
X169000Y337000D01*
X167000D01*
X166000Y338000D01*
Y339000D01*
X164000Y341000D01*
X160000D01*
Y370000D01*
X168000D01*
X170000Y368000D01*
D02*
G37*
G36*
X165000Y374000D02*
X157000D01*
X156000Y373000D01*
Y354000D01*
X150000D01*
Y356000D01*
X149000Y357000D01*
X147000D01*
X145000Y359000D01*
Y368000D01*
X144000Y369000D01*
X127000D01*
X126000Y370000D01*
Y380000D01*
X165000D01*
Y374000D01*
D02*
G37*
G36*
X64000Y373000D02*
X54000D01*
Y382000D01*
X51000Y385000D01*
Y393000D01*
X52000Y394000D01*
X64000D01*
Y373000D01*
D02*
G37*
G36*
X669000Y326000D02*
Y317000D01*
X661000D01*
Y325000D01*
X658000Y328000D01*
X636000D01*
Y334000D01*
X661000D01*
X669000Y326000D01*
D02*
G37*
G36*
X20000Y323000D02*
X14000D01*
Y318000D01*
X9000D01*
Y336000D01*
X20000D01*
Y323000D01*
D02*
G37*
G36*
X156000Y329000D02*
X158000Y327000D01*
X163000D01*
Y321000D01*
X137000D01*
Y333000D01*
X135000Y335000D01*
Y344000D01*
X147000D01*
X150000Y347000D01*
X156000D01*
Y329000D01*
D02*
G37*
G36*
X192000Y294000D02*
X201000D01*
X203000Y292000D01*
Y284000D01*
X201000Y282000D01*
X180000D01*
X179000Y283000D01*
Y295000D01*
X180000Y296000D01*
X190000D01*
X192000Y294000D01*
D02*
G37*
G36*
X239000Y247000D02*
X242000D01*
Y245360D01*
X241938Y245268D01*
X241686Y244000D01*
X241938Y242732D01*
X242657Y241657D01*
X243732Y240939D01*
X245000Y240686D01*
X246268Y240939D01*
X247343Y241657D01*
X248061Y242732D01*
X248314Y244000D01*
X248262Y244261D01*
X249000Y245000D01*
Y247000D01*
X256000D01*
X258000Y249000D01*
X259640D01*
X259732Y248939D01*
X261000Y248686D01*
X262268Y248939D01*
X262360Y249000D01*
X269000D01*
Y242000D01*
X267000Y240000D01*
X264000D01*
X263000Y239000D01*
Y236000D01*
X259000D01*
Y237000D01*
X257000Y239000D01*
X249000D01*
X247000Y237000D01*
Y236000D01*
X243000D01*
Y238000D01*
X242000Y239000D01*
X235000D01*
X233000Y237000D01*
X233000D01*
X230000Y234000D01*
X228000D01*
Y234000D01*
X227000Y235000D01*
Y237000D01*
X233000Y243000D01*
Y247000D01*
X230000Y250000D01*
X227000D01*
Y255000D01*
X231000D01*
X239000Y247000D01*
D02*
G37*
G36*
X177000Y251000D02*
X170000D01*
X167000Y248000D01*
Y246000D01*
X166000Y245000D01*
X158000D01*
Y245000D01*
X152000Y251000D01*
Y253000D01*
X153000Y254000D01*
X166000D01*
X169000Y256000D01*
X177000D01*
Y251000D01*
D02*
G37*
G36*
X335000Y271000D02*
Y267000D01*
X333000Y265000D01*
X325000D01*
X322000Y262000D01*
Y261360D01*
X321939Y261268D01*
X321686Y260000D01*
X321939Y258732D01*
X322000Y258640D01*
Y257000D01*
X321000Y256000D01*
X317000D01*
X316143Y255143D01*
X315732Y255061D01*
X314657Y254343D01*
X313939Y253268D01*
X313686Y252000D01*
X313939Y250732D01*
X314000Y250640D01*
Y246000D01*
X319000Y241000D01*
Y235000D01*
X318000Y234000D01*
X316000D01*
X315000Y235000D01*
Y239000D01*
X311000Y243000D01*
X306000D01*
Y246000D01*
X303000Y249000D01*
X292000D01*
X290000Y247000D01*
X285000D01*
Y254000D01*
X293000D01*
X294000Y255000D01*
X302000D01*
X303000Y254000D01*
X311000D01*
X312500Y255500D01*
X312500D01*
Y255500D01*
X316000Y259000D01*
Y262000D01*
X321000Y267000D01*
Y275000D01*
X331000D01*
X335000Y271000D01*
D02*
G37*
G36*
X280000Y244000D02*
Y224000D01*
X274000D01*
Y231000D01*
X272000Y233000D01*
X265000D01*
Y238000D01*
X269000D01*
X271000Y240000D01*
Y245000D01*
X272000Y246000D01*
X278000D01*
X280000Y244000D01*
D02*
G37*
G36*
X296000Y245000D02*
X302000D01*
Y243000D01*
X306000Y239000D01*
X312000D01*
Y234000D01*
X313000Y233000D01*
X315640D01*
X315732Y232939D01*
X317000Y232686D01*
X318268Y232939D01*
X318360Y233000D01*
X323640D01*
X323732Y232938D01*
X325000Y232686D01*
X325262Y232738D01*
X326000Y232000D01*
X333000D01*
Y226000D01*
X327000D01*
Y227000D01*
X324000Y230000D01*
X315000D01*
X313000Y228000D01*
Y221000D01*
X310453Y218453D01*
X309897Y218633D01*
X311000Y219000D01*
X307000D01*
X306000Y220000D01*
Y230000D01*
X302500Y233500D01*
Y233500D01*
X302500D01*
X302000Y234000D01*
X300000D01*
X291000Y243000D01*
Y245000D01*
X292000Y246000D01*
X295000D01*
X296000Y245000D01*
D02*
G37*
G36*
X256000Y235000D02*
X260000Y231000D01*
X262000D01*
X264000Y229000D01*
X270000D01*
Y226000D01*
X274000Y222000D01*
X278000D01*
X279000Y221000D01*
Y219000D01*
X278000Y218000D01*
X275000D01*
X273000Y220000D01*
X272000D01*
X271000Y221000D01*
X265000D01*
X259000Y227000D01*
X259000D01*
X255000Y231000D01*
X250000D01*
X247000Y228000D01*
X247000D01*
Y227000D01*
X246000Y226000D01*
X244000D01*
X243000Y227000D01*
Y228000D01*
X240000Y231000D01*
X236000D01*
X231000Y226000D01*
X227000D01*
X223000Y230000D01*
X218000D01*
X217000Y231000D01*
Y236000D01*
X224000D01*
X225000Y235000D01*
X228000Y232000D01*
X232000D01*
X234000Y234000D01*
Y236469D01*
X234531Y237000D01*
X240000D01*
Y236000D01*
X244000Y232000D01*
X246000D01*
X250000Y236000D01*
Y237000D01*
X256000D01*
Y235000D01*
D02*
G37*
G36*
X217000Y302000D02*
X219000Y300000D01*
X223000D01*
X225000Y302000D01*
Y305000D01*
X229000D01*
X230000Y304000D01*
Y298000D01*
X233000Y295000D01*
Y286000D01*
X226000D01*
X222000Y282000D01*
X213000D01*
X210000Y279000D01*
Y272000D01*
X205000D01*
X199000Y266000D01*
X196000D01*
X195000Y267000D01*
Y269000D01*
X197000Y271000D01*
X199000Y273000D01*
X202000Y276000D01*
Y279000D01*
X205000Y282000D01*
X206000D01*
X209000Y285000D01*
Y306000D01*
X217000D01*
Y302000D01*
D02*
G37*
G36*
X265000Y263000D02*
X262000Y260000D01*
X258000D01*
X255000Y263000D01*
X254360D01*
X254268Y263061D01*
X253000Y263314D01*
X251732Y263061D01*
X251640Y263000D01*
X251000D01*
X247000Y259000D01*
X243000D01*
X239000Y263000D01*
Y269000D01*
X265000D01*
Y263000D01*
D02*
G37*
G36*
X270000Y292000D02*
Y287000D01*
X271000Y286000D01*
X272000Y285000D01*
Y284000D01*
Y281000D01*
X273000Y280000D01*
X274000Y279000D01*
X274000D01*
Y273000D01*
X239000D01*
Y279000D01*
X245000D01*
X250000Y284000D01*
X252000Y286000D01*
Y286000D01*
X260000D01*
X261000Y287000D01*
Y302000D01*
X270000D01*
Y292000D01*
D02*
G37*
G36*
X315000Y267000D02*
X312000Y264000D01*
Y257000D01*
X312000D01*
X311000Y256000D01*
X307000D01*
X306000Y257000D01*
X301000D01*
X297000Y261000D01*
Y269000D01*
X303000D01*
X306000Y272000D01*
Y275000D01*
X315000D01*
Y267000D01*
D02*
G37*
G36*
X295000Y269000D02*
Y266000D01*
X294000Y265000D01*
Y261000D01*
X292000Y259000D01*
X281000D01*
Y267000D01*
X288000D01*
X291000Y270000D01*
X294000D01*
X295000Y269000D01*
D02*
G37*
%LPC*%
G36*
X261000Y247314D02*
X259732Y247061D01*
X258657Y246343D01*
X257938Y245268D01*
X257686Y244000D01*
X257938Y242732D01*
X258657Y241657D01*
X259732Y240939D01*
X261000Y240686D01*
X262268Y240939D01*
X263343Y241657D01*
X264061Y242732D01*
X264314Y244000D01*
X264061Y245268D01*
X263343Y246343D01*
X262268Y247061D01*
X261000Y247314D01*
D02*
G37*
G36*
X229000Y199314D02*
X227732Y199062D01*
X226657Y198343D01*
X225938Y197268D01*
X225686Y196000D01*
X225938Y194732D01*
X226657Y193657D01*
X227732Y192939D01*
X229000Y192686D01*
X230268Y192939D01*
X231343Y193657D01*
X232061Y194732D01*
X232314Y196000D01*
X232061Y197268D01*
X231343Y198343D01*
X230268Y199062D01*
X229000Y199314D01*
D02*
G37*
%LPD*%
D10*
X560000Y58000D02*
D03*
X552000D02*
D03*
X544000D02*
D03*
X536000D02*
D03*
X528000D02*
D03*
X520000D02*
D03*
X512000D02*
D03*
X504000D02*
D03*
X496000D02*
D03*
X488000D02*
D03*
X480000D02*
D03*
X472000D02*
D03*
X464000D02*
D03*
X456000D02*
D03*
X448000D02*
D03*
X440000D02*
D03*
X560000Y66000D02*
D03*
X552000D02*
D03*
X544000D02*
D03*
X536000D02*
D03*
X528000D02*
D03*
X520000D02*
D03*
X512000D02*
D03*
X504000D02*
D03*
X496000D02*
D03*
X488000D02*
D03*
X480000D02*
D03*
X472000D02*
D03*
X464000D02*
D03*
X456000D02*
D03*
X448000D02*
D03*
X440000D02*
D03*
X560000Y74000D02*
D03*
X552000D02*
D03*
X544000D02*
D03*
X536000D02*
D03*
X528000D02*
D03*
X520000D02*
D03*
X512000D02*
D03*
X504000D02*
D03*
X496000D02*
D03*
X488000D02*
D03*
X480000D02*
D03*
X472000D02*
D03*
X464000D02*
D03*
X456000D02*
D03*
X448000D02*
D03*
X440000D02*
D03*
X560000Y106000D02*
D03*
X552000D02*
D03*
X544000D02*
D03*
X536000D02*
D03*
X528000D02*
D03*
X520000D02*
D03*
X512000D02*
D03*
X504000D02*
D03*
X496000D02*
D03*
X488000D02*
D03*
X480000D02*
D03*
X472000D02*
D03*
X464000D02*
D03*
X456000D02*
D03*
X448000D02*
D03*
X440000D02*
D03*
X560000Y114000D02*
D03*
X552000D02*
D03*
X544000D02*
D03*
X536000D02*
D03*
X528000D02*
D03*
X520000D02*
D03*
X512000D02*
D03*
X504000D02*
D03*
X496000D02*
D03*
X488000D02*
D03*
X480000D02*
D03*
X472000D02*
D03*
X464000D02*
D03*
X456000D02*
D03*
X448000D02*
D03*
X440000D02*
D03*
X560000Y122000D02*
D03*
X552000D02*
D03*
X544000D02*
D03*
X536000D02*
D03*
X528000D02*
D03*
X520000D02*
D03*
X512000D02*
D03*
X504000D02*
D03*
X496000D02*
D03*
X488000D02*
D03*
X480000D02*
D03*
X472000D02*
D03*
X464000D02*
D03*
X456000D02*
D03*
X448000D02*
D03*
X440000D02*
D03*
Y130000D02*
D03*
Y50000D02*
D03*
X560000D02*
D03*
Y130000D02*
D03*
X584000Y74000D02*
D03*
Y106000D02*
D03*
X416000Y74000D02*
D03*
Y106000D02*
D03*
Y130000D02*
D03*
Y122000D02*
D03*
Y50000D02*
D03*
Y58000D02*
D03*
X584000D02*
D03*
Y50000D02*
D03*
Y122000D02*
D03*
Y130000D02*
D03*
X560000Y278000D02*
D03*
X552000D02*
D03*
X544000D02*
D03*
X536000D02*
D03*
X528000D02*
D03*
X520000D02*
D03*
X512000D02*
D03*
X504000D02*
D03*
X496000D02*
D03*
X488000D02*
D03*
X480000D02*
D03*
X472000D02*
D03*
X464000D02*
D03*
X456000D02*
D03*
X448000D02*
D03*
X440000D02*
D03*
X560000Y286000D02*
D03*
X552000D02*
D03*
X544000D02*
D03*
X536000D02*
D03*
X528000D02*
D03*
X520000D02*
D03*
X512000D02*
D03*
X504000D02*
D03*
X496000D02*
D03*
X488000D02*
D03*
X480000D02*
D03*
X472000D02*
D03*
X464000D02*
D03*
X456000D02*
D03*
X448000D02*
D03*
X440000D02*
D03*
X560000Y294000D02*
D03*
X552000D02*
D03*
X544000D02*
D03*
X536000D02*
D03*
X528000D02*
D03*
X520000D02*
D03*
X512000D02*
D03*
X504000D02*
D03*
X496000D02*
D03*
X488000D02*
D03*
X480000D02*
D03*
X472000D02*
D03*
X464000D02*
D03*
X456000D02*
D03*
X448000D02*
D03*
X440000D02*
D03*
X560000Y326000D02*
D03*
X552000D02*
D03*
X544000D02*
D03*
X536000D02*
D03*
X528000D02*
D03*
X520000D02*
D03*
X512000D02*
D03*
X504000D02*
D03*
X496000D02*
D03*
X488000D02*
D03*
X480000D02*
D03*
X472000D02*
D03*
X464000D02*
D03*
X456000D02*
D03*
X448000D02*
D03*
X440000D02*
D03*
X560000Y334000D02*
D03*
X552000D02*
D03*
X544000D02*
D03*
X536000D02*
D03*
X528000D02*
D03*
X520000D02*
D03*
X512000D02*
D03*
X504000D02*
D03*
X496000D02*
D03*
X488000D02*
D03*
X480000D02*
D03*
X472000D02*
D03*
X464000D02*
D03*
X456000D02*
D03*
X448000D02*
D03*
X440000D02*
D03*
X560000Y342000D02*
D03*
X552000D02*
D03*
X544000D02*
D03*
X536000D02*
D03*
X528000D02*
D03*
X520000D02*
D03*
X512000D02*
D03*
X504000D02*
D03*
X496000D02*
D03*
X488000D02*
D03*
X480000D02*
D03*
X472000D02*
D03*
X464000D02*
D03*
X456000D02*
D03*
X448000D02*
D03*
X440000D02*
D03*
Y350000D02*
D03*
Y270000D02*
D03*
X560000D02*
D03*
Y350000D02*
D03*
X584000Y294000D02*
D03*
Y326000D02*
D03*
X416000Y294000D02*
D03*
Y326000D02*
D03*
Y350000D02*
D03*
Y342000D02*
D03*
Y270000D02*
D03*
Y278000D02*
D03*
X584000D02*
D03*
Y270000D02*
D03*
Y342000D02*
D03*
Y350000D02*
D03*
D15*
X241750Y290750D02*
D03*
X251750D02*
D03*
X109000Y42000D02*
D03*
X99000D02*
D03*
X83000Y246000D02*
D03*
X73000D02*
D03*
X77500Y260000D02*
D03*
X67500D02*
D03*
X70000Y119000D02*
D03*
X80000D02*
D03*
X315000Y284000D02*
D03*
X325000D02*
D03*
X499000Y20000D02*
D03*
X509000D02*
D03*
X340000Y141000D02*
D03*
X330000D02*
D03*
X532000Y240000D02*
D03*
X522000D02*
D03*
X183000Y101000D02*
D03*
X173000D02*
D03*
Y185000D02*
D03*
X163000D02*
D03*
X187000Y227000D02*
D03*
X177000D02*
D03*
X80000Y131000D02*
D03*
X70000D02*
D03*
X77000Y94000D02*
D03*
X87000D02*
D03*
X80000Y107000D02*
D03*
X70000D02*
D03*
X633000Y102000D02*
D03*
X643000D02*
D03*
X85000Y68000D02*
D03*
X75000D02*
D03*
X72000Y303000D02*
D03*
X82000D02*
D03*
X85000Y44000D02*
D03*
X75000D02*
D03*
X121000Y212000D02*
D03*
X131000D02*
D03*
X60000Y164000D02*
D03*
X70000D02*
D03*
Y151000D02*
D03*
X60000D02*
D03*
X55000Y44000D02*
D03*
X65000D02*
D03*
X48000Y127000D02*
D03*
X58000D02*
D03*
Y139000D02*
D03*
X48000D02*
D03*
X104000Y250000D02*
D03*
X94000D02*
D03*
X612000Y146000D02*
D03*
X622000D02*
D03*
Y159000D02*
D03*
X612000D02*
D03*
X57000Y260000D02*
D03*
X47000D02*
D03*
X627000Y240000D02*
D03*
X637000D02*
D03*
X627000Y254000D02*
D03*
X637000D02*
D03*
X648000Y261000D02*
D03*
X658000D02*
D03*
X590000Y160000D02*
D03*
X600000D02*
D03*
X612000Y132000D02*
D03*
X622000D02*
D03*
X531000Y380000D02*
D03*
X521000D02*
D03*
X109000Y56000D02*
D03*
X99000D02*
D03*
X123000Y71000D02*
D03*
X113000D02*
D03*
Y83000D02*
D03*
X123000D02*
D03*
X85000Y56000D02*
D03*
X75000D02*
D03*
X58000Y113000D02*
D03*
X48000D02*
D03*
D20*
X155000Y127000D02*
D03*
Y117000D02*
D03*
X134000Y47000D02*
D03*
Y57000D02*
D03*
X652000Y321000D02*
D03*
Y331000D02*
D03*
Y309000D02*
D03*
Y299000D02*
D03*
X206000Y112000D02*
D03*
Y122000D02*
D03*
X166000Y224000D02*
D03*
Y234000D02*
D03*
X248000Y124000D02*
D03*
Y114000D02*
D03*
X274000Y109000D02*
D03*
Y99000D02*
D03*
X236000Y118000D02*
D03*
Y108000D02*
D03*
X334000Y116000D02*
D03*
Y106000D02*
D03*
X189000Y266000D02*
D03*
Y276000D02*
D03*
X54000Y90000D02*
D03*
Y100000D02*
D03*
X121000Y47000D02*
D03*
Y57000D02*
D03*
X614000Y102000D02*
D03*
Y92000D02*
D03*
X617000Y20000D02*
D03*
Y30000D02*
D03*
X220000Y112000D02*
D03*
Y122000D02*
D03*
X14000Y90000D02*
D03*
Y100000D02*
D03*
X28000D02*
D03*
Y90000D02*
D03*
X42000Y90000D02*
D03*
Y100000D02*
D03*
X300000Y286000D02*
D03*
Y296000D02*
D03*
X286000Y109000D02*
D03*
Y99000D02*
D03*
X140000Y105000D02*
D03*
Y95000D02*
D03*
X260000Y109000D02*
D03*
Y99000D02*
D03*
X143000Y117000D02*
D03*
Y127000D02*
D03*
X185000Y254000D02*
D03*
Y244000D02*
D03*
X74000Y324000D02*
D03*
Y314000D02*
D03*
X132000Y187000D02*
D03*
Y197000D02*
D03*
X134000Y234000D02*
D03*
Y224000D02*
D03*
X14000Y217000D02*
D03*
Y227000D02*
D03*
X15000Y184000D02*
D03*
Y174000D02*
D03*
X62000Y248000D02*
D03*
Y238000D02*
D03*
X49000Y150000D02*
D03*
Y160000D02*
D03*
X122000Y224000D02*
D03*
Y234000D02*
D03*
X115000Y245000D02*
D03*
Y255000D02*
D03*
X34000Y253000D02*
D03*
Y243000D02*
D03*
X568000Y212000D02*
D03*
Y222000D02*
D03*
X569000Y186000D02*
D03*
Y196000D02*
D03*
X564000Y169000D02*
D03*
Y159000D02*
D03*
X684000Y225000D02*
D03*
Y235000D02*
D03*
X686000Y183000D02*
D03*
Y173000D02*
D03*
X635000Y160000D02*
D03*
Y150000D02*
D03*
X649000Y239000D02*
D03*
Y249000D02*
D03*
X582000Y186000D02*
D03*
Y196000D02*
D03*
X579000Y159000D02*
D03*
Y169000D02*
D03*
X661000Y160000D02*
D03*
Y150000D02*
D03*
X152000Y105000D02*
D03*
Y95000D02*
D03*
X128000Y245000D02*
D03*
Y255000D02*
D03*
X142000D02*
D03*
Y245000D02*
D03*
X649000Y160000D02*
D03*
Y150000D02*
D03*
X48000Y238000D02*
D03*
Y248000D02*
D03*
X662000Y239000D02*
D03*
Y249000D02*
D03*
X60000Y27000D02*
D03*
Y17000D02*
D03*
X148000Y57000D02*
D03*
Y47000D02*
D03*
D21*
X531000Y21000D02*
D03*
X521000D02*
D03*
X335000Y126000D02*
D03*
X325000D02*
D03*
X237000Y98000D02*
D03*
X247000D02*
D03*
X500000Y159000D02*
D03*
X510000D02*
D03*
X357000Y117000D02*
D03*
X347000D02*
D03*
X510000Y241000D02*
D03*
X500000D02*
D03*
X442000Y21000D02*
D03*
X432000D02*
D03*
X486000D02*
D03*
X476000D02*
D03*
X454000D02*
D03*
X464000D02*
D03*
X543000D02*
D03*
X553000D02*
D03*
X565000Y379000D02*
D03*
X575000D02*
D03*
X454000D02*
D03*
X464000D02*
D03*
X442000D02*
D03*
X432000D02*
D03*
X553000D02*
D03*
X543000D02*
D03*
X486000D02*
D03*
X476000D02*
D03*
X390000Y241000D02*
D03*
X400000D02*
D03*
X565000Y21000D02*
D03*
X575000D02*
D03*
X553000Y159000D02*
D03*
X543000D02*
D03*
X422000D02*
D03*
X412000D02*
D03*
X456000D02*
D03*
X466000D02*
D03*
X444000D02*
D03*
X434000D02*
D03*
X390000D02*
D03*
X400000D02*
D03*
X422000Y241000D02*
D03*
X412000D02*
D03*
X456000D02*
D03*
X466000D02*
D03*
X444000D02*
D03*
X434000D02*
D03*
X553000D02*
D03*
X543000D02*
D03*
X239000Y154000D02*
D03*
X229000D02*
D03*
X197000Y212000D02*
D03*
X207000D02*
D03*
X237000Y302000D02*
D03*
X227000D02*
D03*
X191000Y164000D02*
D03*
X181000D02*
D03*
X185000Y154000D02*
D03*
X195000D02*
D03*
X173000Y174000D02*
D03*
X163000D02*
D03*
X261000D02*
D03*
X251000D02*
D03*
X197000Y202000D02*
D03*
X207000D02*
D03*
X239000Y174000D02*
D03*
X229000D02*
D03*
X293000Y186000D02*
D03*
X303000D02*
D03*
X308000Y148000D02*
D03*
X298000D02*
D03*
X299000Y196000D02*
D03*
X309000D02*
D03*
X277000Y226000D02*
D03*
X287000D02*
D03*
X308000Y210000D02*
D03*
X298000D02*
D03*
X277000Y250000D02*
D03*
X287000D02*
D03*
X287000Y236000D02*
D03*
X277000D02*
D03*
X207000Y265000D02*
D03*
X217000D02*
D03*
X217000Y275000D02*
D03*
X207000D02*
D03*
X239000Y164000D02*
D03*
X229000D02*
D03*
X215000Y170000D02*
D03*
X205000D02*
D03*
X215000Y154000D02*
D03*
X205000D02*
D03*
X196000Y254000D02*
D03*
X206000D02*
D03*
X197000Y232000D02*
D03*
X207000D02*
D03*
X316000Y166000D02*
D03*
X326000D02*
D03*
X316000Y178000D02*
D03*
X326000D02*
D03*
X207000Y222000D02*
D03*
X197000D02*
D03*
X196000Y242000D02*
D03*
X206000D02*
D03*
X319000Y259000D02*
D03*
X309000D02*
D03*
X310000Y226000D02*
D03*
X320000D02*
D03*
X329000Y188000D02*
D03*
X319000D02*
D03*
Y198000D02*
D03*
X329000D02*
D03*
X340000Y229000D02*
D03*
X330000D02*
D03*
X149000Y302000D02*
D03*
X139000D02*
D03*
X127000D02*
D03*
X117000D02*
D03*
X71000Y390000D02*
D03*
X61000D02*
D03*
X89000Y351000D02*
D03*
X99000D02*
D03*
X153000Y357000D02*
D03*
X163000D02*
D03*
X163000Y344000D02*
D03*
X153000D02*
D03*
X153000Y367000D02*
D03*
X163000D02*
D03*
X97000Y315000D02*
D03*
X87000D02*
D03*
X97000Y325000D02*
D03*
X87000D02*
D03*
X153000Y334000D02*
D03*
X163000D02*
D03*
X99000Y176000D02*
D03*
X89000D02*
D03*
X109000Y220000D02*
D03*
X99000D02*
D03*
X24000Y164000D02*
D03*
X14000D02*
D03*
X23000Y238000D02*
D03*
X13000D02*
D03*
X99000Y209000D02*
D03*
X109000D02*
D03*
X104000Y235000D02*
D03*
X94000D02*
D03*
X607000Y185000D02*
D03*
X597000D02*
D03*
X685000Y246000D02*
D03*
X675000D02*
D03*
X687000Y161000D02*
D03*
X677000D02*
D03*
X597000Y200000D02*
D03*
X607000D02*
D03*
Y173000D02*
D03*
X597000D02*
D03*
X509000Y379000D02*
D03*
X499000D02*
D03*
X347000Y106000D02*
D03*
X357000D02*
D03*
X155000Y224000D02*
D03*
X145000D02*
D03*
X155000Y234000D02*
D03*
X145000D02*
D03*
X105000Y387000D02*
D03*
X115000D02*
D03*
D22*
X215000Y142000D02*
D03*
Y132000D02*
D03*
X203000D02*
D03*
Y142000D02*
D03*
X197000Y192000D02*
D03*
Y182000D02*
D03*
X239000Y144000D02*
D03*
Y134000D02*
D03*
X267000Y124000D02*
D03*
Y134000D02*
D03*
X313000D02*
D03*
Y124000D02*
D03*
X660000Y68000D02*
D03*
Y78000D02*
D03*
X614000D02*
D03*
Y68000D02*
D03*
X59000Y78000D02*
D03*
Y68000D02*
D03*
X255000Y164000D02*
D03*
Y154000D02*
D03*
X221000Y203000D02*
D03*
Y213000D02*
D03*
X237000Y214000D02*
D03*
Y204000D02*
D03*
X253000Y214000D02*
D03*
Y204000D02*
D03*
X269000Y216000D02*
D03*
Y206000D02*
D03*
X283000D02*
D03*
Y216000D02*
D03*
X253000Y194000D02*
D03*
Y184000D02*
D03*
X219000Y183000D02*
D03*
Y193000D02*
D03*
X239000Y194000D02*
D03*
Y184000D02*
D03*
X283000Y196000D02*
D03*
Y186000D02*
D03*
X267000Y156000D02*
D03*
Y146000D02*
D03*
X277000D02*
D03*
Y156000D02*
D03*
X287000D02*
D03*
Y146000D02*
D03*
X299000Y220000D02*
D03*
Y230000D02*
D03*
X283000Y166000D02*
D03*
Y176000D02*
D03*
X271000D02*
D03*
Y166000D02*
D03*
X267000Y236000D02*
D03*
Y226000D02*
D03*
X219000Y254000D02*
D03*
Y244000D02*
D03*
X237000Y234000D02*
D03*
Y224000D02*
D03*
X253000D02*
D03*
Y234000D02*
D03*
X221000Y223000D02*
D03*
Y233000D02*
D03*
X267000Y246000D02*
D03*
Y256000D02*
D03*
X229000Y262000D02*
D03*
Y252000D02*
D03*
X253000Y254000D02*
D03*
Y244000D02*
D03*
X239000D02*
D03*
Y254000D02*
D03*
X269000Y196000D02*
D03*
Y186000D02*
D03*
X183000Y175000D02*
D03*
Y185000D02*
D03*
X207000Y180000D02*
D03*
Y190000D02*
D03*
X262000Y276000D02*
D03*
Y266000D02*
D03*
X279000Y134000D02*
D03*
Y124000D02*
D03*
X252000Y276000D02*
D03*
Y266000D02*
D03*
X251000Y144000D02*
D03*
Y134000D02*
D03*
X191000D02*
D03*
Y144000D02*
D03*
X174000Y244000D02*
D03*
Y254000D02*
D03*
X272000Y266000D02*
D03*
Y276000D02*
D03*
X309000Y246000D02*
D03*
Y236000D02*
D03*
X299000Y252000D02*
D03*
Y242000D02*
D03*
Y266000D02*
D03*
Y276000D02*
D03*
X319000Y146000D02*
D03*
Y156000D02*
D03*
X289000Y124000D02*
D03*
Y134000D02*
D03*
X242000Y266000D02*
D03*
Y276000D02*
D03*
X227000Y142000D02*
D03*
Y132000D02*
D03*
X48000Y309000D02*
D03*
Y319000D02*
D03*
X107000Y324000D02*
D03*
Y314000D02*
D03*
X89000Y378000D02*
D03*
Y368000D02*
D03*
X153000Y387000D02*
D03*
Y377000D02*
D03*
X160000Y314000D02*
D03*
Y324000D02*
D03*
X140000Y325000D02*
D03*
Y315000D02*
D03*
X127000D02*
D03*
Y325000D02*
D03*
X142000Y387000D02*
D03*
Y377000D02*
D03*
X117000Y315000D02*
D03*
Y325000D02*
D03*
X163000Y387000D02*
D03*
Y377000D02*
D03*
X150000Y324000D02*
D03*
Y314000D02*
D03*
X13000Y196000D02*
D03*
Y206000D02*
D03*
X616000Y235000D02*
D03*
Y245000D02*
D03*
X685000Y195000D02*
D03*
Y205000D02*
D03*
X111000Y341000D02*
D03*
Y351000D02*
D03*
X639000Y321000D02*
D03*
Y331000D02*
D03*
Y309000D02*
D03*
Y299000D02*
D03*
X194000Y108000D02*
D03*
Y118000D02*
D03*
X163000Y95000D02*
D03*
Y105000D02*
D03*
X132000Y387000D02*
D03*
Y377000D02*
D03*
D23*
X166500Y212000D02*
D03*
X181500D02*
D03*
X321500D02*
D03*
X336500D02*
D03*
X181500Y198000D02*
D03*
X166500D02*
D03*
X198500Y288000D02*
D03*
X213500D02*
D03*
X182500Y122000D02*
D03*
X167500D02*
D03*
X364500Y196000D02*
D03*
X349500D02*
D03*
X310500Y271000D02*
D03*
X325500D02*
D03*
X31500Y296000D02*
D03*
X16500D02*
D03*
X59500Y377000D02*
D03*
X74500D02*
D03*
X138500Y354000D02*
D03*
X123500D02*
D03*
X138500Y340000D02*
D03*
X123500D02*
D03*
X83500Y338000D02*
D03*
X98500D02*
D03*
X213500Y302000D02*
D03*
X198500D02*
D03*
X588500Y237000D02*
D03*
X603500D02*
D03*
X206500Y100000D02*
D03*
X221500D02*
D03*
X74500Y361000D02*
D03*
X59500D02*
D03*
X117500Y370000D02*
D03*
X102500D02*
D03*
D25*
X229000Y290500D02*
D03*
Y275500D02*
D03*
X166000Y153500D02*
D03*
Y138500D02*
D03*
X301000Y121500D02*
D03*
Y136500D02*
D03*
Y159500D02*
D03*
Y174500D02*
D03*
X162000Y249500D02*
D03*
Y264500D02*
D03*
X285000Y262500D02*
D03*
Y277500D02*
D03*
X50000Y332500D02*
D03*
Y347500D02*
D03*
X85000Y161500D02*
D03*
Y146500D02*
D03*
X185000Y306500D02*
D03*
Y291500D02*
D03*
X69000Y274500D02*
D03*
Y289500D02*
D03*
X665000Y321500D02*
D03*
Y306500D02*
D03*
X60000Y319500D02*
D03*
Y304500D02*
D03*
D31*
X10000Y270000D02*
D03*
X640000Y25000D02*
D03*
D33*
X70000Y339000D02*
D03*
X128000Y172000D02*
D03*
D35*
X100000Y256000D02*
X108000D01*
X109000Y255000D01*
X115000D01*
X89000Y250000D02*
X94000D01*
X100000Y256000D01*
X85000Y303000D02*
X88000Y300000D01*
X82000Y303000D02*
X85000D01*
X67500Y319500D02*
X72000Y324000D01*
X74000D01*
X67500Y306500D02*
Y319500D01*
Y306500D02*
X71000Y303000D01*
X72000D01*
X93000Y56000D02*
X99000D01*
X123000Y71000D02*
Y77000D01*
X60000Y17000D02*
X77000D01*
X77500Y16500D01*
X189000Y276000D02*
X197000D01*
X36500Y146000D02*
Y153500D01*
X496000Y66000D02*
X500000Y70000D01*
X496000Y66000D02*
X496000D01*
X492000Y78000D02*
X496000Y74000D01*
X492000Y78000D02*
X492000D01*
X484000Y70000D02*
Y70000D01*
X480000Y74000D02*
X484000Y70000D01*
X476000Y70000D02*
Y70000D01*
X472000Y74000D02*
X476000Y70000D01*
X476000Y62000D02*
X480000Y66000D01*
X476000Y62000D02*
X476000D01*
X476000Y118000D02*
X480000Y114000D01*
X476000Y118000D02*
X476000D01*
X472000Y106000D02*
X476000Y110000D01*
X472000Y106000D02*
X472000D01*
X492000Y110000D02*
X496000Y106000D01*
X492000Y110000D02*
Y110000D01*
X66000Y84000D02*
X69000Y81000D01*
X61000Y84000D02*
X66000D01*
X267500Y323300D02*
Y337300D01*
X268125Y337925D01*
X191000Y266000D02*
X197000Y260000D01*
X189000Y266000D02*
X191000D01*
X309000Y284000D02*
X315000D01*
X312500Y309550D02*
Y323300D01*
X315000Y298000D02*
Y301000D01*
X307500Y308500D02*
X315000Y301000D01*
X307500Y308500D02*
Y323300D01*
X302500Y306500D02*
Y323300D01*
Y306500D02*
X309000Y300000D01*
X242500Y39680D02*
X242500Y39680D01*
X86000Y117000D02*
X86000Y117000D01*
X86000Y117000D02*
Y125000D01*
X232500Y380700D02*
Y393825D01*
X309000Y292000D02*
X315000Y298000D01*
X317000Y140000D02*
X318000Y141000D01*
X232500Y19300D02*
Y39680D01*
X504846Y110250D02*
X507250Y112654D01*
X503654Y110250D02*
X504846D01*
X77000Y212500D02*
X82500D01*
X77000Y202500D02*
X84500D01*
X97000Y215000D01*
X267500Y76700D02*
X267500Y76700D01*
X267500Y63575D02*
Y76700D01*
X342500Y19300D02*
Y44550D01*
X142000Y240000D02*
Y245000D01*
X48000Y106000D02*
X54000Y100000D01*
Y100000D02*
Y100000D01*
X36000Y100000D02*
X42000D01*
X252500Y19300D02*
X252500Y19300D01*
Y39680D01*
X247500Y33680D02*
X247500Y33680D01*
X247500Y19300D02*
Y33680D01*
X242500Y19300D02*
Y39680D01*
X237500Y33680D02*
X237500Y33680D01*
X237500Y19300D02*
Y33680D01*
X232500Y39680D02*
X232500Y39680D01*
X272500Y63575D02*
Y76700D01*
X262500Y63575D02*
Y76700D01*
X312500Y6175D02*
Y19300D01*
X307500Y6175D02*
Y19300D01*
X48000Y113000D02*
Y115000D01*
X53000Y120000D01*
X247500Y362800D02*
Y380700D01*
X337500Y323300D02*
Y338200D01*
X96000Y13000D02*
Y21500D01*
X94500Y23000D02*
X96000Y21500D01*
X332500Y367575D02*
X332500Y367575D01*
Y380700D01*
X327500Y367575D02*
X327500Y367575D01*
Y380700D01*
X322500Y367575D02*
X322500Y367575D01*
Y380700D01*
X332500Y309900D02*
Y323025D01*
X332500Y309900D02*
X332500Y309900D01*
X327500D02*
Y323025D01*
X327500Y309900D02*
X327500Y309900D01*
X322500D02*
Y323025D01*
X322500Y309900D02*
X322500Y309900D01*
X317500D02*
Y323025D01*
X317500Y309900D02*
X317500Y309900D01*
Y367575D02*
Y380700D01*
X317500Y367575D02*
X317500Y367575D01*
X45500Y166500D02*
Y176000D01*
X38600Y324500D02*
X43100D01*
X45500Y224000D02*
Y229500D01*
X8000Y62000D02*
Y87000D01*
X342500Y393825D02*
X342500Y393825D01*
X342500Y380700D02*
Y393825D01*
X337500Y380700D02*
Y393825D01*
X337500Y393825D01*
X217500Y310175D02*
Y323300D01*
X217500Y310175D02*
X217500Y310175D01*
X307500Y394100D02*
X307500Y394100D01*
X307500Y380975D02*
Y394100D01*
X282500Y380700D02*
Y393825D01*
X282500Y393825D01*
X272500Y393825D02*
X272500Y393825D01*
X272500Y380700D02*
Y393825D01*
X277500Y380700D02*
Y393825D01*
X277500Y393825D01*
X24000Y85000D02*
X29000Y90000D01*
X43000D02*
X43000Y90000D01*
X29000Y90000D02*
X43000D01*
X282500Y336425D02*
X282500Y336425D01*
X282500Y323300D02*
Y336425D01*
X287500Y310175D02*
X287500Y310175D01*
Y323300D01*
X277500Y310175D02*
X277500Y310175D01*
Y323300D01*
X292500Y393825D02*
X292500Y393825D01*
X292500Y380700D02*
Y393825D01*
X217500Y380700D02*
Y393825D01*
X654500Y224000D02*
Y229500D01*
X492000Y322000D02*
X496000Y326000D01*
Y326000D01*
X520000Y286000D02*
X520000D01*
X520000Y286000D02*
Y286000D01*
X492000Y298000D02*
X496000Y294000D01*
Y294000D02*
Y294000D01*
X496000Y286000D02*
X500000Y290000D01*
X496000Y286000D02*
X496000D01*
X480000Y294000D02*
X484000Y290000D01*
X480000Y294000D02*
X480000D01*
X472000D02*
X476000Y290000D01*
X472000Y294000D02*
X472000D01*
X476000Y282000D02*
X480000Y286000D01*
X464000Y294000D02*
X468000Y290000D01*
X464000Y294000D02*
X464000D01*
X456000Y286000D02*
X460000Y290000D01*
X456000Y286000D02*
X456000D01*
X448000D02*
X452000Y282000D01*
X448000Y286000D02*
X448000D01*
X496000Y326000D02*
X496000D01*
X488000Y334000D02*
X492000Y330000D01*
X488000Y334000D02*
X488000D01*
X476000Y338000D02*
X480000Y334000D01*
Y334000D02*
Y334000D01*
X472000Y326000D02*
X476000Y330000D01*
X472000Y326000D02*
X472000D01*
X464000D02*
X468000Y330000D01*
X464000Y326000D02*
X464000D01*
X452000Y330000D02*
X456000Y334000D01*
Y334000D01*
X436000Y330000D02*
X440000Y326000D01*
Y326000D02*
Y326000D01*
X440000Y334000D02*
X444000Y338000D01*
X440000Y334000D02*
X440000D01*
X532000Y330000D02*
X536000Y334000D01*
X532000Y325000D02*
Y330000D01*
X516000D02*
X520000Y334000D01*
X540000Y330000D02*
X544000Y334000D01*
Y286000D02*
X548000Y290000D01*
X552000Y286000D02*
X556000Y282000D01*
X548000Y330000D02*
X552000Y334000D01*
X540000Y325000D02*
Y330000D01*
X548000Y307000D02*
Y317000D01*
X540000Y325000D02*
X548000Y317000D01*
X540000Y307000D02*
Y317000D01*
X532000Y325000D02*
X540000Y317000D01*
X509250Y327250D02*
X510750D01*
X512000Y326000D01*
X516000Y322500D02*
Y330000D01*
X522672Y322500D02*
X523750Y321422D01*
X520000Y322500D02*
X522672D01*
X519250Y323250D02*
X520000Y322500D01*
X519250Y323250D02*
Y325250D01*
X520000Y326000D01*
X524000Y330000D02*
X528000Y334000D01*
X524000Y324000D02*
Y330000D01*
X538000Y314250D02*
Y316000D01*
X532461Y318368D02*
X533664Y317164D01*
X531672Y322500D02*
X532461Y321711D01*
Y318368D02*
Y321711D01*
X533664Y317164D02*
X536836D01*
X544422Y317750D02*
X546000Y316172D01*
X541086Y318743D02*
X542078Y317750D01*
X539632Y322539D02*
X541086Y321086D01*
X536000Y323829D02*
X537289Y322539D01*
X536000Y323829D02*
Y326000D01*
X541086Y318743D02*
Y321086D01*
X537289Y322539D02*
X539632D01*
X542078Y317750D02*
X544422D01*
X536000Y286000D02*
X539250Y289250D01*
X541250Y295500D02*
X542750Y294000D01*
X544000D01*
X548000Y290000D02*
Y294596D01*
X560000Y294000D02*
X562000Y292000D01*
X564500D01*
X567750Y295250D01*
X556000Y282000D02*
X584000D01*
X560000Y326000D02*
X576000D01*
X579500Y322500D01*
X524000Y324000D02*
X532000Y316000D01*
X523750Y317579D02*
Y321422D01*
Y317579D02*
X524328Y317000D01*
X528172D01*
X524000Y307000D02*
Y314500D01*
X516000Y322500D02*
X524000Y314500D01*
X532000Y307000D02*
Y316000D01*
X533750Y296250D02*
X536000Y294000D01*
X508500Y324632D02*
X520000Y313132D01*
X508500Y324632D02*
Y326500D01*
X509250Y327250D01*
X548000Y70000D02*
Y74596D01*
X440000Y114000D02*
X440000D01*
X444000Y118000D01*
X440000Y106000D02*
Y106000D01*
X456000Y106000D02*
X460000Y110000D01*
X456000Y114000D02*
Y114000D01*
X452000Y110000D02*
X456000Y114000D01*
X464000Y106000D02*
X464000D01*
X468000Y110000D01*
X440000Y74000D02*
Y74000D01*
X436000Y70000D02*
X440000Y74000D01*
X448000Y66000D02*
X448000D01*
X456000D02*
X456000D01*
X460000Y70000D01*
X464000Y74000D02*
X464000D01*
X468000Y70000D01*
X436000Y110000D02*
X440000Y106000D01*
X532000Y110000D02*
X536000Y114000D01*
X516000Y110000D02*
X520000Y114000D01*
X540000Y110000D02*
X544000Y114000D01*
Y66000D02*
X548000Y70000D01*
X552000Y74000D02*
X556000Y70000D01*
X552000Y66000D02*
X556000Y62000D01*
X540000Y87000D02*
Y97000D01*
X524000Y110000D02*
X528000Y114000D01*
X544422Y97750D02*
X546000Y96172D01*
X541086Y98743D02*
X542078Y97750D01*
X539632Y102539D02*
X541086Y101086D01*
X536000Y103828D02*
X537289Y102539D01*
X536000Y103828D02*
Y106000D01*
X541086Y98743D02*
Y101086D01*
X537289Y102539D02*
X539632D01*
X542078Y97750D02*
X544422D01*
X551632Y98539D02*
X554000Y96172D01*
X548158Y99671D02*
X549289Y98539D01*
X547382Y102789D02*
X548158Y102014D01*
X544000Y103828D02*
X545039Y102789D01*
X544000Y103828D02*
Y106000D01*
X545039Y102789D02*
X547382D01*
X548158Y99671D02*
Y102014D01*
X549289Y98539D02*
X551632D01*
X536000Y66000D02*
X539250Y69250D01*
X541250Y77422D02*
X543078Y79250D01*
X541250Y75500D02*
Y77422D01*
Y75500D02*
X542750Y74000D01*
X544000D01*
X543078Y79250D02*
X568250D01*
X572000Y83000D01*
Y87000D01*
X560000Y74000D02*
X562000Y72000D01*
X564500D01*
X584000Y83000D02*
Y93000D01*
X585000Y66000D02*
X588000Y69000D01*
Y87000D01*
X556000Y62000D02*
X584000D01*
X592000Y70000D01*
Y93000D01*
X524000Y87000D02*
Y94500D01*
X516000Y102500D02*
X524000Y94500D01*
X436000Y290000D02*
Y290000D01*
X440000Y294000D01*
X500000Y87000D02*
X500000Y87000D01*
X448000Y66000D02*
X452000Y62000D01*
X540000Y105000D02*
Y110000D01*
Y105000D02*
X548000Y97000D01*
X532000Y105000D02*
X540000Y97000D01*
X532000Y105000D02*
Y110000D01*
X516000Y102500D02*
Y110000D01*
X508500Y104632D02*
X520000Y93132D01*
X508500Y104632D02*
Y106500D01*
X509250Y107250D01*
X510750D01*
X512000Y106000D01*
X500000Y87000D02*
Y106596D01*
X503654Y110250D01*
X484000Y110000D02*
X488000Y114000D01*
X282500Y6175D02*
Y19300D01*
X287500Y6175D02*
Y19300D01*
X292500Y6175D02*
Y19300D01*
X297500Y6175D02*
Y19300D01*
X302500Y6175D02*
Y19300D01*
X292500Y63575D02*
Y76700D01*
X287500Y63575D02*
Y76700D01*
X282500Y63575D02*
Y76700D01*
X277500Y63575D02*
Y76700D01*
X247500D02*
Y89825D01*
X277500Y19300D02*
Y32425D01*
X272500Y19300D02*
Y32425D01*
X267500Y19300D02*
Y32425D01*
X262500Y19300D02*
Y32425D01*
X257500Y19300D02*
Y32425D01*
X128000Y255000D02*
Y260000D01*
X142000Y255000D02*
X148000D01*
X128000Y240000D02*
Y245000D01*
X312500Y62425D02*
Y76700D01*
X342500Y56800D02*
X342500Y56800D01*
X342500Y56800D02*
Y76700D01*
X456000Y326000D02*
X460000Y330000D01*
X650000Y150000D02*
X655000Y155000D01*
X42000Y248000D02*
X48000D01*
X649500Y231500D02*
X652030Y234030D01*
X649500Y224000D02*
Y231500D01*
X62000Y120000D02*
X64000Y122000D01*
X53000Y120000D02*
X62000D01*
X55000Y32000D02*
Y44000D01*
Y32000D02*
X60000Y27000D01*
X55000Y44000D02*
Y50000D01*
X69000Y68000D02*
X75000D01*
X69000Y62000D02*
X75000Y56000D01*
X136500Y24000D02*
Y29500D01*
X69000Y81000D02*
X72808D01*
X80000Y131000D02*
X86000Y125000D01*
X72000Y94000D02*
X77000D01*
X93000Y34000D02*
X96000Y31000D01*
X90000Y34000D02*
X93000D01*
X85000Y39000D02*
X90000Y34000D01*
X85000Y39000D02*
Y44000D01*
X90000Y50000D02*
X93000Y47000D01*
X85000Y52000D02*
X87000Y50000D01*
X90000D01*
X85000Y52000D02*
Y56000D01*
Y68000D02*
X90000D01*
X93250D01*
X98192Y72942D01*
X117500Y23000D02*
Y43500D01*
X121000Y47000D01*
X121000Y47000D01*
X134000D01*
X70000Y107000D02*
Y108000D01*
X50500Y170500D02*
Y176000D01*
X293000Y292000D02*
Y305050D01*
X297500Y309550D01*
Y323300D01*
X504000Y84875D02*
X508875Y80000D01*
X504000Y84875D02*
Y93000D01*
X508875Y80000D02*
X510750D01*
X508000Y62000D02*
X512000Y58000D01*
X508000Y62000D02*
Y67000D01*
X511000Y70000D01*
X513000D01*
X510750Y80000D02*
X515250Y75500D01*
X513000Y70000D02*
X515250Y72250D01*
Y75500D01*
Y292250D02*
Y295500D01*
X513000Y290000D02*
X515250Y292250D01*
X510750Y300000D02*
X515250Y295500D01*
X511000Y290000D02*
X513000D01*
X508000Y287000D02*
X511000Y290000D01*
X508000Y282000D02*
Y287000D01*
Y282000D02*
X512000Y278000D01*
X508875Y300000D02*
X510750D01*
X504000Y304875D02*
Y313000D01*
Y304875D02*
X508875Y300000D01*
X507250Y117250D02*
X512000Y122000D01*
X507250Y112654D02*
Y117250D01*
X500000Y307000D02*
X500000Y307000D01*
X507250Y332654D02*
Y337250D01*
X512000Y342000D01*
X500000Y326596D02*
X503654Y330250D01*
X500000Y307000D02*
Y326596D01*
X503654Y330250D02*
X504846D01*
X507250Y332654D01*
X519164Y105164D02*
X520000Y106000D01*
X519164Y103664D02*
Y105164D01*
Y103664D02*
X520328Y102500D01*
X524461Y98368D02*
X525664Y97164D01*
X524461Y98368D02*
Y100711D01*
X522672Y102500D02*
X524461Y100711D01*
X520328Y102500D02*
X522672D01*
X524000Y104000D02*
Y110000D01*
X516000Y87000D02*
X518697D01*
X524697Y81000D01*
X529000D01*
X531000Y79000D01*
X528000Y74000D02*
X529000D01*
X523000Y76000D02*
Y79000D01*
X520000Y74000D02*
X521000D01*
X523000Y76000D01*
X521000Y81000D02*
X523000Y79000D01*
X516697Y81000D02*
X521000D01*
X510697Y87000D02*
X516697Y81000D01*
X508000Y87000D02*
X510697D01*
X516000Y307000D02*
X518697D01*
X524697Y301000D01*
X508000Y307000D02*
X510697D01*
X516697Y301000D01*
X521000D01*
X523000Y299000D01*
X521000Y294000D02*
X523000Y296000D01*
X520000Y294000D02*
X521000D01*
X523000Y296000D02*
Y299000D01*
X504328Y102500D02*
X506672D01*
X508461Y100711D01*
Y98368D02*
Y100711D01*
X512836Y97164D02*
X514000Y96000D01*
X509664Y97164D02*
X512836D01*
X508461Y98368D02*
X509664Y97164D01*
X503164Y103664D02*
X504328Y102500D01*
X503164Y103664D02*
Y105164D01*
X504000Y106000D01*
X504328Y322500D02*
X506672D01*
X508461Y320711D01*
Y318368D02*
Y320711D01*
X512836Y317164D02*
X514000Y316000D01*
X509664Y317164D02*
X512836D01*
X508461Y318368D02*
X509664Y317164D01*
X503164Y323664D02*
X504328Y322500D01*
X503164Y323664D02*
Y325164D01*
X504000Y326000D01*
X528000Y97164D02*
X530000Y95164D01*
X525664Y97164D02*
X528000D01*
X532000Y93211D02*
X532000Y93211D01*
X532000Y87000D02*
Y93211D01*
X532000Y93211D02*
Y96000D01*
X524000Y104000D02*
X532000Y96000D01*
X579500Y322500D02*
X587803D01*
X579500Y102500D02*
X587803D01*
X576000Y106000D02*
X579500Y102500D01*
X560000Y106000D02*
X576000D01*
X560000Y334000D02*
X593000D01*
X600000Y327000D01*
Y313000D02*
Y327000D01*
Y93000D02*
Y107000D01*
X593000Y114000D02*
X600000Y107000D01*
X560000Y114000D02*
X593000D01*
X587803Y102500D02*
X596000Y94303D01*
Y87000D02*
Y94303D01*
X548000Y87000D02*
Y97000D01*
X556000Y70000D02*
X571000D01*
X584000Y83000D01*
X564500Y72000D02*
X567750Y75250D01*
X573422D01*
X575041Y76870D01*
Y79963D01*
X576329Y81250D01*
X579422D01*
X548000Y74596D02*
X550654Y77250D01*
X569500D01*
X576000Y83750D01*
Y93000D01*
X529000Y74000D02*
X531000Y76000D01*
Y79000D01*
X539250Y69250D02*
Y78250D01*
X542250Y81250D01*
X563553D01*
X568000Y85697D01*
Y93000D01*
X560250Y303250D02*
X564000Y307000D01*
X552000Y294000D02*
X556000Y290000D01*
X571000D01*
X528000Y294000D02*
X529000D01*
Y301000D02*
X531000Y299000D01*
X524697Y301000D02*
X529000D01*
X568000Y305697D02*
Y313000D01*
X584000Y282000D02*
X592000Y290000D01*
X575041Y299963D02*
X576329Y301250D01*
X579422D01*
X563553D02*
X568000Y305697D01*
X567750Y295250D02*
X573422D01*
X575041Y296870D01*
Y299963D01*
X571000Y290000D02*
X584000Y303000D01*
X576000Y303750D02*
Y313000D01*
X592000Y290000D02*
Y313000D01*
X587803Y322500D02*
X596000Y314303D01*
Y307000D02*
Y314303D01*
X584000Y303000D02*
Y313000D01*
X568250Y299250D02*
X572000Y303000D01*
Y307000D01*
X548000Y294596D02*
X550654Y297250D01*
X569500D01*
X576000Y303750D01*
X529000Y294000D02*
X531000Y296000D01*
Y299000D01*
X539250Y289250D02*
Y298250D01*
X541250Y295500D02*
Y297422D01*
X543078Y299250D01*
X568250D01*
X539250Y298250D02*
X542250Y301250D01*
X563553D01*
X536836Y317164D02*
X538000Y316000D01*
X556000Y307000D02*
Y317000D01*
X548158Y319671D02*
X549289Y318539D01*
X544000Y323828D02*
X545039Y322789D01*
X547382D02*
X548158Y322014D01*
Y319671D02*
Y322014D01*
X549289Y318539D02*
X551632D01*
X554000Y316172D01*
X545039Y322789D02*
X547382D01*
X544000Y323828D02*
Y326000D01*
X548000Y110000D02*
X552000Y114000D01*
X548000Y105000D02*
Y110000D01*
Y105000D02*
X556000Y97000D01*
Y87000D02*
Y97000D01*
X548000Y325000D02*
X556000Y317000D01*
X548000Y325000D02*
Y330000D01*
X556625Y100204D02*
X557828Y99000D01*
X556625Y100204D02*
Y101875D01*
X555500Y103000D02*
X556625Y101875D01*
X552828Y103000D02*
X555500D01*
X552000Y103828D02*
X552828Y103000D01*
X552000Y103828D02*
Y106000D01*
X557828Y99000D02*
X561000D01*
X562250Y97750D01*
X556625Y320203D02*
X557828Y319000D01*
X561000D01*
X562250Y317750D01*
X556625Y320203D02*
Y321875D01*
X552828Y323000D02*
X555500D01*
X556625Y321875D01*
X552000Y323828D02*
X552828Y323000D01*
X552000Y323828D02*
Y326000D01*
X560000Y66000D02*
X571264D01*
X575000Y69736D01*
X581500Y66000D02*
X585000D01*
X575000Y69736D02*
X577764D01*
X581500Y66000D01*
X577764Y289736D02*
X581500Y286000D01*
X575000Y289736D02*
X577764D01*
X581500Y286000D02*
X585000D01*
X571264D02*
X575000Y289736D01*
X560000Y286000D02*
X571264D01*
X588000Y289000D02*
Y307000D01*
X585000Y286000D02*
X588000Y289000D01*
X533750Y296250D02*
Y300500D01*
X536500Y303250D01*
X560250D01*
X536750Y313000D02*
X538000Y314250D01*
X536000Y313000D02*
X536750D01*
X262500Y340550D02*
X262875Y340925D01*
X262500Y323300D02*
Y340550D01*
X544000Y313000D02*
X545000D01*
X546000Y314000D01*
Y316172D01*
X544000Y93000D02*
X545000D01*
X546000Y94000D01*
Y96172D01*
X552000Y93000D02*
X553000D01*
X554000Y94000D01*
Y96172D01*
X552000Y313000D02*
X553000D01*
X554000Y314000D01*
Y316172D01*
X560000Y93000D02*
X561250D01*
X562250Y94000D01*
Y97750D01*
X560000Y313000D02*
X561250D01*
X562250Y314000D01*
Y317750D01*
X536500Y83250D02*
X560250D01*
X533750Y80500D02*
X536500Y83250D01*
X533750Y76250D02*
Y80500D01*
X560250Y83250D02*
X564000Y87000D01*
X533750Y76250D02*
X536000Y74000D01*
X580000Y87000D02*
Y87000D01*
Y87000D02*
X581750Y85250D01*
Y83579D02*
Y85250D01*
X579422Y81250D02*
X581750Y83579D01*
X580000Y307000D02*
Y307000D01*
Y307000D02*
X581750Y305250D01*
Y303578D02*
Y305250D01*
X579422Y301250D02*
X581750Y303578D01*
X512000Y313000D02*
X512750D01*
X514000Y314250D01*
Y316000D01*
X512000Y93000D02*
X512750D01*
X514000Y94250D01*
Y96000D01*
X528000Y323328D02*
Y326000D01*
Y323328D02*
X528828Y322500D01*
X531672D01*
X528828Y102500D02*
X531672D01*
X528000Y103328D02*
X528828Y102500D01*
X528000Y103328D02*
Y106000D01*
X536000Y93000D02*
X536750D01*
X538000Y94250D01*
X536836Y97164D02*
X538000Y96000D01*
X533664Y97164D02*
X536836D01*
X532461Y98368D02*
Y101711D01*
X531672Y102500D02*
X532461Y101711D01*
Y98368D02*
X533664Y97164D01*
X538000Y94250D02*
Y96000D01*
X528000Y93000D02*
X528750D01*
X530000Y94250D01*
Y95164D01*
X528000Y313000D02*
X528250D01*
X529211Y313961D01*
Y315961D01*
X528172Y317000D02*
X529211Y315961D01*
X98192Y72942D02*
Y81000D01*
X617000Y30000D02*
X626000D01*
X646500Y50500D01*
Y59500D01*
X608000Y34000D02*
Y36000D01*
X325000Y292000D02*
X329000Y296000D01*
Y301303D01*
X325000Y284000D02*
Y292000D01*
X312500Y309550D02*
X317050Y305000D01*
X325303D01*
X329000Y301303D01*
X144000Y307000D02*
Y308000D01*
X139000Y302000D02*
X144000Y307000D01*
X135500Y308000D02*
X136000D01*
X131000Y302000D02*
X133000Y304000D01*
Y305500D01*
X127000Y302000D02*
X131000D01*
X133000Y305500D02*
X135500Y308000D01*
X127000Y300000D02*
Y302000D01*
X133000Y296000D02*
X139000Y302000D01*
X128000Y296000D02*
X133000D01*
X97000Y215000D02*
X115000D01*
X122000Y220000D02*
Y224000D01*
X115000Y215000D02*
X118000Y218000D01*
X120000D01*
X122000Y220000D01*
X34000Y243000D02*
X43000D01*
X48000Y238000D01*
Y233500D02*
Y238000D01*
Y233500D02*
X50500Y231000D01*
Y224000D02*
Y231000D01*
X128000Y172000D02*
X132000Y176000D01*
X133000D01*
X133000D01*
X70000Y108000D02*
X80000Y118000D01*
Y117697D02*
X86000Y111697D01*
Y109000D02*
Y111697D01*
X80000Y117697D02*
Y118000D01*
Y119000D01*
X36500Y146000D02*
X43500Y139000D01*
X31000Y159000D02*
X36500Y153500D01*
X43500Y139000D02*
X48000D01*
X25500Y139500D02*
X36500Y128500D01*
X17500Y139500D02*
X25500D01*
X44000Y119000D02*
X48000Y123000D01*
X36500Y119000D02*
X44000D01*
X48000Y123000D02*
Y127000D01*
X17500Y112500D02*
X22500D01*
X29000Y106000D02*
Y106000D01*
X22500Y112500D02*
X29000Y106000D01*
X36000Y106000D02*
X43000Y113000D01*
X48000D01*
X29000Y106000D02*
X36000D01*
X8000Y62000D02*
X11000Y59000D01*
X19000D02*
X19500Y58500D01*
X11000Y59000D02*
X19000D01*
X8000Y87000D02*
X11000Y90000D01*
X14000D01*
X15000D01*
X20000Y95000D01*
X11000Y70000D02*
X13000Y68000D01*
X19500D01*
X11000Y70000D02*
Y82000D01*
X14000Y85000D01*
X24000D01*
X41500Y79500D02*
Y82500D01*
Y79500D02*
X43000Y78000D01*
X118000Y89000D02*
X121000D01*
X123000Y87000D01*
Y83000D02*
Y87000D01*
X136500Y29500D02*
Y34500D01*
X140000Y38000D01*
X145000D01*
X148000Y41000D01*
X148000D01*
Y47000D01*
X36500Y119000D02*
Y128500D01*
X36500Y128500D01*
X287500Y366800D02*
Y380700D01*
X286500Y365800D02*
X287500Y366800D01*
X116500Y289500D02*
X127000Y300000D01*
X116000Y110500D02*
Y125000D01*
X119000Y128000D01*
X134000Y135000D02*
X137000D01*
X127000Y128000D02*
X134000Y135000D01*
X119000Y128000D02*
X127000D01*
X116000Y135000D02*
Y153500D01*
X119000Y132000D02*
X127000D01*
X116000Y135000D02*
X119000Y132000D01*
X127000D02*
X137000Y142000D01*
X237000Y284000D02*
X240000D01*
X241750Y285750D01*
Y290750D01*
X251750D02*
Y298750D01*
X257000Y304000D01*
X317000Y140000D02*
X325000D01*
X326000Y141000D01*
X330000D01*
X329000Y38500D02*
Y41000D01*
X327500Y37000D02*
X329000Y38500D01*
X327500Y19300D02*
Y37000D01*
X618500Y187500D02*
X623000D01*
X610000Y179000D02*
X618500Y187500D01*
X590000Y175000D02*
X594000Y179000D01*
X590000Y160000D02*
Y175000D01*
X585000Y159000D02*
X586000Y160000D01*
X579000Y159000D02*
X585000D01*
X594000Y179000D02*
X610000D01*
X586000Y160000D02*
X590000D01*
X582000Y196000D02*
X589000D01*
X590000Y195000D01*
X613500D02*
X616000Y197500D01*
X590000Y195000D02*
X613500D01*
X616000Y197500D02*
X623000D01*
X658000Y255000D02*
Y261000D01*
X658000Y261000D02*
X658000Y261000D01*
X655500Y245500D02*
X662000Y239000D01*
X655500Y245500D02*
Y252500D01*
X658000Y255000D01*
X667000Y249000D02*
X669000Y247000D01*
Y244000D02*
Y247000D01*
X662000Y249000D02*
X667000D01*
X652030Y234030D02*
X657030D01*
X662000Y239000D01*
X669000Y156000D02*
Y156000D01*
X667000Y158000D02*
X669000Y156000D01*
X667000Y158000D02*
Y163000D01*
X665000Y165000D02*
X667000Y163000D01*
X656000Y165000D02*
X665000D01*
X654500Y166500D02*
X656000Y165000D01*
X654500Y166500D02*
Y176000D01*
X625000Y53000D02*
X627500Y55500D01*
X616000Y53000D02*
X625000D01*
X627500Y55500D02*
Y60500D01*
X608000Y32000D02*
X610000Y30000D01*
X608000Y32000D02*
Y34000D01*
X610000Y30000D02*
X612000D01*
X617000D01*
X108000Y49000D02*
X109000Y48000D01*
Y42000D02*
Y48000D01*
Y41000D02*
Y42000D01*
X292500Y323300D02*
Y338200D01*
Y323300D02*
X292500Y323300D01*
X74000Y324000D02*
X79000D01*
X81000Y322000D01*
X261875Y365800D02*
X262500Y366425D01*
Y380700D01*
X322500Y63050D02*
Y76700D01*
Y63050D02*
X323125Y62425D01*
X297500Y76700D02*
Y91175D01*
X296875Y91800D02*
X297500Y91175D01*
X302500Y63050D02*
Y76700D01*
X301875Y62425D02*
X302500Y63050D01*
X649000Y160000D02*
X649500Y160500D01*
X649000Y160000D02*
X661000D01*
X649000Y160000D02*
X649000D01*
Y160000D02*
Y160000D01*
X649500Y160500D02*
Y176000D01*
X110500Y17000D02*
X116500Y23000D01*
X117500D01*
X116500Y281500D02*
Y289500D01*
X120500Y288500D02*
X128000Y296000D01*
X120500Y281500D02*
X124000Y278000D01*
X138500D02*
X139000Y278500D01*
X120500Y281500D02*
Y288500D01*
X124000Y278000D02*
X138500D01*
X113000D02*
X116500Y281500D01*
X96000Y278000D02*
X113000D01*
D36*
X127000Y314000D02*
X139000D01*
X133000Y320000D02*
Y330718D01*
X123717Y340000D02*
X133000Y330718D01*
X123500Y340000D02*
X123717D01*
X133000Y320000D02*
X139000Y314000D01*
Y354000D02*
X139500D01*
X138500D02*
X139000D01*
X139500D02*
X143000Y350500D01*
X91000Y224000D02*
X92250Y225250D01*
X228000Y252000D02*
X229000Y251000D01*
X228500Y275000D02*
X229500D01*
X230000Y275500D01*
X228000Y252000D02*
X229000D01*
X178500Y190500D02*
X191000D01*
X192500Y192000D01*
X197000D01*
X173000Y185000D02*
X178500Y190500D01*
X185000Y254000D02*
X191000Y248000D01*
X202000D01*
X206000Y252000D01*
Y254000D01*
X299757Y287000D02*
X301000D01*
X298757Y286000D02*
X299757Y287000D01*
X284500Y292340D02*
X290840Y286000D01*
X298757D02*
X300000D01*
X290840D02*
X298757D01*
X284500Y292340D02*
Y295000D01*
X277500Y288000D02*
X283500Y294000D01*
X277500Y272500D02*
Y288000D01*
X271000Y266000D02*
X272000Y265000D01*
X271000Y266000D02*
X277500Y272500D01*
X54500Y253500D02*
X55000Y253000D01*
X48500Y253500D02*
X54500D01*
X47000Y255000D02*
X48500Y253500D01*
X47000Y255000D02*
Y260000D01*
X209000Y128364D02*
Y136000D01*
X206000Y125364D02*
X209000Y128364D01*
Y136000D02*
X215000Y142000D01*
X206000Y122000D02*
Y125364D01*
X229000Y108000D02*
X236000D01*
X207000Y263000D02*
X212000Y258000D01*
Y252465D02*
Y258000D01*
Y252465D02*
X219000Y245464D01*
X207000Y263000D02*
Y265000D01*
X219000Y244000D02*
Y245464D01*
X444000Y110000D02*
X448000Y106000D01*
Y106000D02*
Y106000D01*
X444000Y322000D02*
X448000Y326000D01*
X440000Y278000D02*
X444000Y274000D01*
X452000D02*
X456000Y278000D01*
X488000Y294000D02*
X491500Y290500D01*
X492000Y338000D02*
X496000Y334000D01*
X560000Y342000D02*
X564000Y346000D01*
X552000Y342000D02*
X556000Y346000D01*
X544000Y342000D02*
X548000Y346000D01*
X536000Y342000D02*
X540000Y346000D01*
X528000Y342000D02*
X532000Y346000D01*
X496000Y342000D02*
X500000Y346000D01*
X512000Y334000D02*
X515730Y337730D01*
X500000Y338000D02*
X504000Y334000D01*
X484000Y338000D02*
X488000Y342000D01*
X480000Y342000D02*
X484000Y346000D01*
X484000D01*
X472000Y342000D02*
X476000Y346000D01*
X468000Y338000D02*
X472000Y334000D01*
Y334000D02*
Y334000D01*
X464000Y342000D02*
X468000Y338000D01*
X460000Y338000D02*
X464000Y334000D01*
X460000Y338000D02*
Y338000D01*
X448000Y334000D02*
X452250Y338250D01*
X452000Y346000D02*
X452250Y345750D01*
Y338250D02*
Y345750D01*
X456000Y342000D02*
X460000Y346000D01*
X444000D02*
X448000Y342000D01*
Y342000D02*
Y342000D01*
X436000Y338000D02*
X440000Y342000D01*
X560000Y278000D02*
X564000Y274000D01*
X552000Y278000D02*
X556000Y274000D01*
X544000Y278000D02*
X548000Y274000D01*
X536000Y278000D02*
X540000Y274000D01*
X528000Y278000D02*
X532000Y274000D01*
X528000Y286000D02*
X532000Y282000D01*
X488000Y278000D02*
X492000Y274000D01*
X488000Y278000D02*
X488000D01*
X484000Y274000D02*
Y282000D01*
X488000Y286000D01*
X480000Y278000D02*
X484000Y274000D01*
X472000Y278000D02*
X476000Y274000D01*
X472000Y278000D02*
X472000D01*
X468000Y282000D02*
X472000Y286000D01*
X464000Y286000D02*
X468000Y282000D01*
X464000Y286000D02*
X464000D01*
X440000D02*
X444000Y282000D01*
Y274000D02*
X448000Y278000D01*
X500000Y282000D02*
X504000Y286000D01*
X492000Y282000D02*
X496000Y278000D01*
Y278000D02*
Y278000D01*
X520000Y286000D02*
X524000Y282000D01*
Y280010D02*
Y282000D01*
X464000Y278000D02*
Y278000D01*
X460000Y274000D02*
X464000Y278000D01*
X460000Y274000D02*
X460000D01*
X536000Y122000D02*
X540000Y126000D01*
X524000Y60010D02*
Y62000D01*
X520000Y66000D02*
X524000Y62000D01*
X496000Y58000D02*
Y58000D01*
X492000Y62000D02*
X496000Y58000D01*
X500000Y62000D02*
X504000Y66000D01*
X512000Y66000D02*
X516000Y62000D01*
X440000Y58000D02*
X444000Y54000D01*
X448000Y58000D01*
X452000Y54000D02*
X456000Y58000D01*
X440000Y66000D02*
X444000Y62000D01*
X460000Y54000D02*
X464000Y58000D01*
Y66000D02*
X464000D01*
X468000Y62000D01*
X472000Y66000D01*
Y58000D02*
X472000D01*
X476000Y54000D01*
X480000Y58000D02*
X484000Y54000D01*
Y62000D02*
X488000Y66000D01*
X484000Y54000D02*
Y62000D01*
X488000Y58000D02*
X488000D01*
X492000Y54000D01*
X528000Y66000D02*
X532000Y62000D01*
X528000Y58000D02*
X532000Y54000D01*
X536000Y58000D02*
X540000Y54000D01*
X552000Y58000D02*
X556000Y54000D01*
X560000Y58000D02*
X564000Y54000D01*
X436000Y118000D02*
X440000Y122000D01*
X448000Y122000D02*
Y122000D01*
X444000Y126000D02*
X448000Y122000D01*
X456000Y122000D02*
X460000Y126000D01*
X452250Y118250D02*
Y125750D01*
X448000Y114000D02*
X452250Y118250D01*
X472000Y114000D02*
Y114000D01*
X464000Y122000D02*
X472000Y114000D01*
X472000Y122000D02*
X476000Y126000D01*
X480000Y122000D02*
X484000Y126000D01*
X484000Y118000D02*
X488000Y122000D01*
X496000Y122000D02*
X500000Y126000D01*
X528000Y122000D02*
X532000Y126000D01*
X544000Y122000D02*
X548000Y126000D01*
X552000Y122000D02*
X556000Y126000D01*
X560000Y122000D02*
X564000Y126000D01*
X492000Y118000D02*
X496000Y114000D01*
X544000Y58000D02*
X548000Y54000D01*
X460000Y118000D02*
X464000Y114000D01*
X524000Y43000D02*
Y55989D01*
X515000Y25000D02*
Y34000D01*
X524000Y43000D01*
X500000Y118000D02*
X504000Y114000D01*
X512000Y114000D02*
X515730Y117730D01*
X277000Y250000D02*
X277717D01*
X287000Y240718D01*
Y236000D02*
Y240718D01*
Y234536D02*
Y236000D01*
Y234536D02*
X293000Y228535D01*
Y228000D02*
Y228535D01*
X341000Y196000D02*
X349500D01*
X349500Y196000D01*
X658000Y143000D02*
X661000Y146000D01*
Y150000D01*
X512000Y286000D02*
X516000Y282000D01*
X488000Y74000D02*
X488000D01*
X492000Y70000D01*
X139000Y314000D02*
X140000D01*
X34000Y253000D02*
X37000Y256000D01*
X41000D01*
X55000Y235000D02*
X59000Y231000D01*
X55000Y235000D02*
Y236000D01*
X60500Y168000D02*
Y169500D01*
X72000Y231000D02*
X73000Y232000D01*
Y234000D01*
X54000Y90000D02*
X61718D01*
X65750Y94032D01*
Y99000D01*
X64000Y100750D02*
X65750Y99000D01*
X64000Y100750D02*
Y106000D01*
X58000Y113000D02*
X59000Y114000D01*
X64000D01*
X67000D02*
X70000Y117000D01*
Y119000D01*
X64000Y114000D02*
X67000D01*
X70000Y119000D02*
Y131000D01*
X134000Y57000D02*
X135000Y58000D01*
X141000D01*
X147000D01*
X148000Y57000D01*
X65000Y44000D02*
Y49000D01*
X67000Y51000D01*
X70000D01*
X75000Y46000D01*
Y44000D02*
Y46000D01*
X213000Y244000D02*
Y245000D01*
X206000Y252000D02*
X213000Y245000D01*
X177000Y224000D02*
Y227000D01*
Y224000D02*
X181000Y220000D01*
X228465Y244000D02*
X229000D01*
X219000Y253465D02*
X228465Y244000D01*
X219000Y253465D02*
Y254000D01*
X217000Y265000D02*
X217000Y265000D01*
X221500Y270500D02*
X222000Y270000D01*
X217000Y260000D02*
Y265000D01*
Y260000D02*
X219000Y258000D01*
Y254000D02*
Y258000D01*
X245000Y196000D02*
X245000D01*
X253000Y204000D01*
X308000Y210000D02*
X311000D01*
X309000Y204000D02*
X310282D01*
X311000Y210000D02*
X317000Y204000D01*
X310282Y204000D02*
X316283Y198000D01*
X319000D01*
X183000Y175000D02*
X193283D01*
X225000Y180000D02*
X229000D01*
X221750Y176750D02*
X225000Y180000D01*
X219032Y176750D02*
X221750D01*
X216250Y173967D02*
X219032Y176750D01*
X216250Y171250D02*
Y173967D01*
X215000Y170000D02*
X216250Y171250D01*
X147000Y168500D02*
X147500Y168000D01*
X173000Y174000D02*
X177500Y169500D01*
X185500D01*
X191000Y164000D01*
X269282Y109000D02*
X274000D01*
X261000Y117282D02*
X269282Y109000D01*
X261000Y117282D02*
Y128000D01*
X267000Y134000D01*
X256250Y130000D02*
X258000Y131750D01*
Y137250D01*
X256250Y139000D02*
X258000Y137250D01*
X256250Y139000D02*
Y141750D01*
X250000Y148000D02*
X251000Y147000D01*
X285282Y109000D02*
X286000D01*
X273000Y130000D02*
X277000Y134000D01*
X273000Y119000D02*
Y130000D01*
Y119000D02*
X276859Y115141D01*
X279141D01*
X285282Y109000D01*
X238000Y144000D02*
X239000D01*
X233000Y139000D02*
X238000Y144000D01*
X233000Y129000D02*
Y139000D01*
Y129000D02*
X236000Y126000D01*
X246000D01*
X248000Y124000D01*
X250000Y148000D02*
Y149718D01*
X245000Y154718D02*
Y156000D01*
Y154718D02*
X250000Y149718D01*
X203000Y142000D02*
X205718D01*
X211718Y148000D01*
X213000D01*
X182500Y134125D02*
X185750Y137375D01*
X182500Y122000D02*
Y134125D01*
X175500Y115000D02*
X182500Y122000D01*
X162717Y115000D02*
X175500D01*
X160718Y117000D02*
X162717Y115000D01*
X155000Y117000D02*
X160718D01*
X155000Y117000D02*
X155000Y117000D01*
X143000D02*
X143000Y117000D01*
X155000D01*
X140000Y110000D02*
X143000Y113000D01*
Y117000D01*
X140000Y105000D02*
Y110000D01*
X173000Y100000D02*
X174000D01*
X152000Y105000D02*
X154000D01*
X160000Y111000D01*
X251000Y147000D02*
Y147000D01*
Y147000D02*
X256250Y141750D01*
X314000Y134000D02*
X315575D01*
X323575Y126000D01*
X325000D01*
X255000Y114000D02*
Y125750D01*
X256250Y127000D01*
Y130000D01*
X255000Y114000D02*
X260000Y109000D01*
X221000Y123000D02*
Y140000D01*
X220000Y122000D02*
X221000Y123000D01*
X277000Y226000D02*
X277718D01*
X281750Y221968D01*
Y217250D02*
Y221968D01*
Y217250D02*
X283000Y216000D01*
X614000Y177000D02*
X616750Y179750D01*
X627000Y165000D02*
X627000D01*
X628750Y166750D01*
X613000Y190000D02*
X615000Y192000D01*
X620250Y223000D02*
X622000Y224750D01*
Y227000D01*
X627000Y235000D02*
Y240000D01*
Y235000D02*
X631000Y231000D01*
X637000Y233000D02*
Y234000D01*
X642000Y261000D02*
X648000D01*
X682000Y214000D02*
X683000Y215000D01*
X680000Y207500D02*
X682500D01*
X666000Y170000D02*
X669750Y166250D01*
X666000Y170000D02*
X666000D01*
X617000Y13000D02*
Y20000D01*
X522000Y240000D02*
Y249000D01*
X524000Y251000D01*
Y275989D01*
X510000Y20000D02*
X515000Y25000D01*
X509000Y20000D02*
X510000D01*
X614500Y207500D02*
X616500D01*
X93000Y39000D02*
X96000Y42000D01*
X99000D01*
X185750Y139750D02*
X190000Y144000D01*
X185750Y137375D02*
Y139750D01*
X190500Y143500D02*
X191000Y144000D01*
X17000Y100000D02*
X21000Y104000D01*
X14000Y100000D02*
X17000D01*
X21000Y104000D02*
X25000Y100000D01*
X28000D01*
D37*
X257500Y323300D02*
Y336425D01*
Y323300D02*
X257500Y323300D01*
X252500Y323300D02*
Y336425D01*
Y323300D02*
X252500Y323300D01*
X237500Y323300D02*
Y336425D01*
Y323300D02*
X237500Y323300D01*
X242500Y367575D02*
Y380700D01*
X237500Y367575D02*
Y380700D01*
X257500Y367575D02*
Y380700D01*
X252500Y367575D02*
Y380700D01*
X456000Y294000D02*
X460000Y298000D01*
X448000Y294000D02*
X452000Y298000D01*
X476000Y102000D02*
X480000Y106000D01*
X484000Y102000D02*
X488000Y106000D01*
X448000Y74000D02*
X452000Y78000D01*
X456000Y74000D02*
X460000Y78000D01*
X476000Y322000D02*
X480000Y326000D01*
X484000Y322000D02*
X488000Y326000D01*
X242500Y63575D02*
Y76700D01*
X242500Y76700D01*
X207500Y63999D02*
Y76700D01*
Y62950D02*
Y63999D01*
X206875Y62325D02*
X207500Y62950D01*
X206875Y337675D02*
X207500Y337050D01*
Y323300D02*
Y337050D01*
X212500Y337050D02*
X213125Y337675D01*
X212500Y323300D02*
Y337050D01*
X227500Y337050D02*
X228125Y337675D01*
X227500Y323300D02*
Y337050D01*
X221875Y337675D02*
X222500Y337050D01*
Y323300D02*
Y337050D01*
X212500Y367998D02*
Y380700D01*
X211250Y366748D02*
X212500Y367998D01*
X211250Y359675D02*
X213125Y357800D01*
X211250Y359675D02*
Y366748D01*
X207500Y367998D02*
X208750Y366748D01*
X207500Y367998D02*
Y380700D01*
X208750Y359675D02*
Y366748D01*
X206875Y357800D02*
X208750Y359675D01*
X237500Y63575D02*
Y76700D01*
X237500Y63575D02*
X237500Y63575D01*
X521000Y380000D02*
X524710Y376291D01*
X523000Y372000D02*
Y372081D01*
X524710Y373791D02*
Y376291D01*
X523000Y372081D02*
X524710Y373791D01*
X472305Y305695D02*
X476645Y301355D01*
X472305Y305695D02*
Y314840D01*
X476665Y319200D01*
X476645Y301355D02*
X496645D01*
X504000Y294000D01*
X489000Y310000D02*
Y316000D01*
X476665Y319200D02*
X485800D01*
X489000Y316000D01*
X496645Y81355D02*
X504000Y74000D01*
X476645Y81355D02*
X496645D01*
X472305Y85695D02*
Y94840D01*
Y85695D02*
X476645Y81355D01*
X529000Y372000D02*
X529000D01*
X527459Y373540D02*
X529000Y372000D01*
X527459Y373540D02*
Y376459D01*
X531000Y380000D01*
X505403Y297201D02*
X507200Y295404D01*
X504335Y297201D02*
X505403D01*
X507200Y294000D02*
Y295404D01*
Y294000D02*
X508700Y292501D01*
X510500D02*
X512000Y294000D01*
X508700Y292501D02*
X510500D01*
X477700Y316700D02*
X484765D01*
X474805Y306731D02*
Y313805D01*
Y306731D02*
X477681Y303855D01*
X474805Y313805D02*
X477700Y316700D01*
X474805Y86731D02*
X477681Y83855D01*
X508700Y72501D02*
X510500D01*
X512000Y74001D01*
X507200D02*
X508700Y72501D01*
X507200Y74001D02*
Y75404D01*
X504335Y77201D02*
X505403D01*
X507200Y75404D01*
X332500Y32425D02*
X332500Y32425D01*
X332500Y19300D02*
Y32425D01*
X337500Y19300D02*
X337500Y19300D01*
Y32425D01*
X352500Y76700D02*
Y89825D01*
X352500Y89825D02*
X352500Y89825D01*
X347500Y76700D02*
X347500Y76700D01*
X347500Y76700D02*
Y89825D01*
X352500Y19300D02*
X352500Y19300D01*
Y6175D02*
Y19300D01*
X347500Y6175D02*
X347500Y6175D01*
X347500Y6175D02*
Y19300D01*
X317500Y19300D02*
Y32425D01*
X317500Y32425D01*
X322500Y19300D02*
X322500Y19300D01*
Y32425D01*
X337500Y63575D02*
X337500Y63575D01*
Y76700D01*
X332500Y63575D02*
Y76700D01*
X332500Y76700D01*
X242500Y323300D02*
Y336425D01*
X222500Y365425D02*
Y380700D01*
X221875Y364800D02*
X222500Y365425D01*
X483000Y90000D02*
Y90081D01*
Y310000D02*
Y310081D01*
X486500Y313581D01*
Y314965D01*
X484765Y316700D02*
X486500Y314965D01*
X477681Y303855D02*
X497681D01*
X504335Y297200D01*
X477681Y83855D02*
X497681D01*
X504335Y77201D01*
X489000Y90000D02*
Y96000D01*
X484765Y96700D02*
X486459Y95006D01*
X474805Y93805D02*
X477700Y96700D01*
X484765D01*
X474805Y86731D02*
Y93805D01*
X483000Y90081D02*
X486500Y93581D01*
Y94965D01*
X472305Y94840D02*
X476665Y99200D01*
X485800D01*
X489000Y96000D01*
X211250Y33252D02*
X212500Y32002D01*
X211250Y33252D02*
Y40325D01*
X212500Y19300D02*
Y32002D01*
X211250Y40325D02*
X213125Y42200D01*
X207500Y19300D02*
Y32002D01*
X208750Y33252D01*
Y40325D01*
X206875Y42200D02*
X208750Y40325D01*
X212500Y62950D02*
X213125Y62325D01*
X212500Y62950D02*
Y76700D01*
X227500Y365425D02*
X228125Y364800D01*
X227500Y365425D02*
Y380700D01*
D38*
X224000Y257000D02*
Y260000D01*
Y257000D02*
X229000Y252000D01*
X223000Y261000D02*
Y263000D01*
Y261000D02*
X224000Y260000D01*
X217500Y194500D02*
Y197864D01*
Y194500D02*
X219000Y193000D01*
X207000Y202000D02*
X213364D01*
X217500Y197864D01*
X193283Y175000D02*
X194783Y176500D01*
X199217D01*
X200718Y175000D01*
X210000D02*
X215000Y170000D01*
X200718Y175000D02*
X210000D01*
X49000Y272000D02*
Y281997D01*
X45668Y278664D01*
X42336Y281997D01*
Y272000D01*
X39003D02*
Y281997D01*
X35671Y278664D01*
X32339Y281997D01*
Y272000D01*
D39*
X74500Y377000D02*
X78000Y380500D01*
X73500Y376000D02*
X74500Y377000D01*
X78000Y380500D02*
Y387000D01*
X57000Y361000D02*
X59500D01*
X51000Y355000D02*
X57000Y361000D01*
X87000Y311000D02*
Y315000D01*
Y311000D02*
X90000Y308000D01*
X127000Y314000D02*
Y315000D01*
Y311000D02*
Y314000D01*
X125000Y309000D02*
X127000Y311000D01*
X113000Y339000D02*
X124500D01*
X111000Y341000D02*
X113000Y339000D01*
X139000Y354000D02*
Y360000D01*
X135000Y364000D02*
X139000Y360000D01*
X123500Y364000D02*
X135000D01*
X117500Y370000D02*
X123500Y364000D01*
X123500Y354000D02*
X124500D01*
X116000Y361000D02*
X123000Y354000D01*
X23000Y238000D02*
Y244000D01*
X228500Y275000D02*
X229000Y275500D01*
X217000Y275000D02*
X228500D01*
X217000D02*
X223000Y269000D01*
Y263000D02*
Y269000D01*
X300000Y296000D02*
Y299000D01*
X297000Y302000D02*
X300000Y299000D01*
X272000Y265000D02*
Y266000D01*
Y265000D02*
X277000Y260000D01*
X342000Y117000D02*
X347000D01*
X341000Y116000D02*
X342000Y117000D01*
X614000Y61000D02*
Y68000D01*
X195575Y254000D02*
X196000D01*
X189575Y260000D02*
X195575Y254000D01*
X189000Y260000D02*
X189575D01*
X163000Y105000D02*
X166000Y108000D01*
X153000Y95000D02*
X163000Y105000D01*
X166000Y108000D02*
X181000D01*
X152000Y95000D02*
X153000D01*
X60000Y248000D02*
X62000D01*
X55000Y253000D02*
X60000Y248000D01*
X299000Y276000D02*
X299000Y276000D01*
X293000Y276000D02*
X299000D01*
X286500D02*
X293000D01*
X285000Y277500D02*
X286500Y276000D01*
X215000Y127743D02*
Y132000D01*
X213000Y125743D02*
X215000Y127743D01*
X213000Y124000D02*
Y125743D01*
X216425Y112000D02*
X220000D01*
X213000Y115425D02*
X216425Y112000D01*
X213000Y115425D02*
Y124000D01*
Y108000D02*
X221000Y100000D01*
X221500D01*
X15000Y208000D02*
X19000D01*
X13000Y206000D02*
X15000Y208000D01*
X102500Y389500D02*
X105000Y387000D01*
X102500Y389500D02*
Y392000D01*
X77500Y259500D02*
X84000Y253000D01*
X77500Y259500D02*
Y260000D01*
X67500Y256500D02*
X73000Y251000D01*
X67500Y256500D02*
Y260000D01*
X57000D02*
X67500D01*
X347000Y101000D02*
Y106000D01*
X334000Y106000D02*
X334000Y106000D01*
X75000Y390000D02*
X78000Y387000D01*
X71000Y390000D02*
X75000D01*
X81000Y335500D02*
X83500Y338000D01*
X81000Y330000D02*
Y335500D01*
X114000Y308000D02*
X117000Y311000D01*
Y314000D01*
X107500Y308000D02*
Y313500D01*
X107000Y314000D02*
X107500Y313500D01*
X89000Y378000D02*
Y381000D01*
X86000Y384000D02*
X89000Y381000D01*
X82000Y372000D02*
X86000Y368000D01*
X89000D01*
X82000Y351000D02*
X89000D01*
X81000Y352000D02*
X82000Y351000D01*
X41000Y347000D02*
X49500D01*
X74000Y313000D02*
X81000D01*
X150000Y310000D02*
Y314000D01*
Y310000D02*
X152000Y308000D01*
X150000Y314000D02*
X160000D01*
X167000Y323000D02*
Y330000D01*
X163000Y334000D02*
X167000Y330000D01*
X115000Y387000D02*
X117268D01*
X128000Y376268D01*
Y371000D02*
Y376268D01*
X127500Y392000D02*
X132000Y387500D01*
Y387000D02*
Y387500D01*
X137000Y392000D02*
X142000Y387000D01*
Y387000D02*
Y387000D01*
X153000Y387000D02*
Y387000D01*
X148000Y392000D02*
X153000Y387000D01*
X111000Y351000D02*
Y355000D01*
X102500Y367500D02*
Y370000D01*
Y367500D02*
X108000Y362000D01*
Y358000D02*
Y362000D01*
Y358000D02*
X111000Y355000D01*
X117000Y296000D02*
Y302000D01*
X159000Y296000D02*
X161500Y298500D01*
X168000D01*
X149000Y302000D02*
X153000D01*
X159000Y296000D01*
X153000Y275000D02*
X163500D01*
X168000Y279500D01*
X199350Y352000D02*
X199350Y352000D01*
X183000Y352000D02*
X199350D01*
X169000Y377000D02*
Y384000D01*
X166000Y387000D02*
X169000Y384000D01*
X92250Y225250D02*
X94000Y227000D01*
Y235000D01*
Y238000D01*
X86000Y246000D02*
X94000Y238000D01*
X83000Y246000D02*
X86000D01*
X104000Y244000D02*
X109000Y239000D01*
X104000Y244000D02*
Y250000D01*
X85000Y209000D02*
X96000Y220000D01*
X99000D01*
X115000Y245000D02*
X118000D01*
X122000Y241000D01*
Y234000D02*
Y241000D01*
X104000Y235000D02*
X105000D01*
X109000Y239000D01*
X115000D01*
X88000Y199000D02*
X98000Y209000D01*
X99000D01*
X97500Y192000D02*
Y195500D01*
X105000Y203000D01*
X117000D01*
X121000Y207000D01*
Y212000D01*
X109000Y209000D02*
X113000D01*
X115000Y211000D01*
X109000Y220000D02*
X113000D01*
X115000Y222000D01*
X100140Y177140D02*
X105000D01*
X99000Y176000D02*
X100140Y177140D01*
X89750Y170000D02*
X106000D01*
X90500Y152000D02*
X93000D01*
X85000Y146500D02*
X90500Y152000D01*
X76000Y152500D02*
X85000Y161500D01*
X76000Y145000D02*
Y152500D01*
Y169000D02*
X83000D01*
X71000Y164000D02*
X76000Y169000D01*
X60000Y162000D02*
X70000Y152000D01*
X42000Y156000D02*
X48000Y150000D01*
X49000Y150000D02*
X59000D01*
X60000Y151000D01*
X26000Y164000D02*
X31000Y169000D01*
X24000Y164000D02*
X26000D01*
X14000D02*
Y173000D01*
X15000Y174000D01*
X21000Y196000D02*
X22000Y195000D01*
X13000Y196000D02*
X21000D01*
X13000Y228000D02*
X14000Y227000D01*
X13000Y228000D02*
Y238000D01*
X55000Y236000D02*
Y245000D01*
X60500Y164500D02*
Y168000D01*
X73000Y234000D02*
Y246000D01*
X73000D02*
Y251000D01*
X73000Y251000D02*
X73000Y251000D01*
X155000Y223000D02*
X159000Y219000D01*
X155000Y223000D02*
Y224000D01*
X166000D01*
X155000Y234000D02*
X161212Y240212D01*
X169788D01*
X173575Y244000D01*
X174000D01*
X174000Y244000D02*
X185000D01*
X185000Y244000D01*
X154000Y235000D02*
X155000Y234000D01*
X154000Y235000D02*
Y241000D01*
X9000Y149000D02*
X12500Y152500D01*
X17500D01*
X9000Y123000D02*
X11500Y125500D01*
X17500D01*
X59000Y78000D02*
X65000D01*
X66000Y77000D01*
X27500Y77500D02*
X28000Y78000D01*
X19500Y77500D02*
X27500D01*
X118000Y64000D02*
X121000Y61000D01*
Y57000D02*
Y61000D01*
X104000Y81000D02*
X106000Y83000D01*
X113000D01*
X113000Y71000D02*
Y83000D01*
X109000Y67000D02*
X113000Y71000D01*
X109000Y56000D02*
Y67000D01*
X78000Y30000D02*
Y37000D01*
X77500Y29500D02*
X78000Y30000D01*
X136500Y16500D02*
X146500D01*
X152000Y11000D01*
X81000Y330000D02*
X86500Y324500D01*
X181500Y198000D02*
X187000D01*
X189000Y196000D01*
X181500Y212000D02*
X189000D01*
X207000D02*
X213000D01*
X171000Y234000D02*
X173000Y236000D01*
X166000Y234000D02*
X171000D01*
X219000Y235000D02*
Y244000D01*
X193000Y310000D02*
X198500Y304500D01*
Y302000D02*
Y304500D01*
X168500Y264500D02*
X173000Y260000D01*
X162000Y264500D02*
X168500D01*
X229000Y262000D02*
Y268000D01*
Y262000D02*
X229000Y262000D01*
X237000Y254000D01*
X239000D01*
X253000D02*
Y260000D01*
X245000Y252000D02*
Y266000D01*
X245000Y266000D01*
X260000Y253000D02*
X261000Y252000D01*
X260000Y253000D02*
Y265000D01*
X293000Y236000D02*
Y236000D01*
Y236000D02*
X299000Y230000D01*
X364500Y196000D02*
Y196500D01*
X357000Y204000D02*
X364500Y196500D01*
X341000Y228000D02*
X357000D01*
X340000Y229000D02*
X341000Y228000D01*
X229000Y211757D02*
Y212000D01*
X245000D02*
X247000Y214000D01*
X253000D01*
X259000D01*
X261000Y212000D01*
X253000Y224000D02*
X257000D01*
X265000Y216000D01*
X269000D01*
X261000Y212000D02*
X267000Y206000D01*
X269000D01*
X275000D01*
X277000Y204000D01*
X261000Y196000D02*
X269000D01*
X269000Y196000D01*
X277000Y180000D02*
X283000Y186000D01*
X293000D01*
X283000Y196000D02*
X293000D01*
X293000Y196000D01*
X303000Y190000D02*
X309000Y196000D01*
X303000Y186000D02*
Y190000D01*
Y186000D02*
X309000Y180000D01*
X309000D01*
X309000Y172000D02*
X315000Y178000D01*
X316000D01*
X309000Y172000D02*
X315000Y166000D01*
X316000D01*
X289000Y176000D02*
X293000Y172000D01*
X283000Y176000D02*
X289000D01*
X229000Y212000D02*
X237000Y204000D01*
Y204000D02*
Y204000D01*
Y204000D02*
X245000Y212000D01*
Y212000D01*
X221000Y203000D02*
Y203757D01*
X229000Y211757D01*
X207000Y190000D02*
X211000D01*
X213000Y188000D01*
X157000Y179000D02*
X163000Y185000D01*
X147500Y168000D02*
X158000D01*
X147000Y167500D02*
X147500Y168000D01*
X147000Y187500D02*
X148000Y188500D01*
X191000Y166000D02*
X197000Y172000D01*
X191000Y164000D02*
Y166000D01*
X197000Y164000D02*
X197353D01*
X203354Y170000D01*
X205000D01*
X195000Y154000D02*
X205000Y164000D01*
X195000Y154000D02*
Y154000D01*
X213000Y164000D02*
X215000Y162000D01*
Y154000D02*
Y162000D01*
X221000Y172000D02*
X229000Y164000D01*
X170500Y153500D02*
X173000Y156000D01*
X166000Y153500D02*
X170500D01*
X205000Y148000D02*
Y154000D01*
X205000Y148000D02*
X205000Y148000D01*
X221000Y156000D02*
X223000Y154000D01*
X229000D01*
X271000Y166000D02*
Y166000D01*
X277000Y172000D01*
Y172000D02*
Y172000D01*
Y172000D02*
X283000Y166000D01*
X255000Y154000D02*
X259000D01*
X261000Y156000D01*
X243000Y148000D02*
X245000D01*
X239000Y144000D02*
X243000Y148000D01*
X227000Y146000D02*
X229000Y148000D01*
X227000Y142000D02*
Y146000D01*
X221000Y148000D02*
Y148000D01*
X215000Y142000D02*
X221000Y148000D01*
X195000Y148000D02*
X197000D01*
X191000Y144000D02*
X195000Y148000D01*
X245000Y108000D02*
X247000Y106000D01*
Y98000D02*
Y106000D01*
X229000Y100000D02*
X235000D01*
X237000Y98000D01*
X234000Y95000D02*
X237000Y98000D01*
X194000Y108000D02*
X196000D01*
X200000Y112000D01*
X206000D01*
Y100500D02*
Y112000D01*
Y100500D02*
X206500Y100000D01*
X194000Y102000D02*
Y108000D01*
Y102000D02*
X199000Y97000D01*
X183000Y101000D02*
X187000D01*
X191000Y97000D01*
X163000Y86000D02*
Y95000D01*
X165575D01*
X171575Y101000D01*
X173000D01*
X133000Y97000D02*
X135000Y95000D01*
X140000D01*
X137000Y127000D02*
X143000D01*
X136000Y128000D02*
X137000Y127000D01*
X248000Y113000D02*
Y114000D01*
Y113000D02*
X253000Y108000D01*
X267000Y118000D02*
Y124000D01*
Y118000D02*
X269000Y116000D01*
X280000Y94300D02*
X284700Y99000D01*
X286000D01*
X295500D02*
X300500Y104000D01*
X286000Y99000D02*
X295500D01*
X260000Y98000D02*
X264000Y94000D01*
X260000Y98000D02*
Y99000D01*
X264000Y94000D02*
X269000D01*
X274000Y99000D01*
X334000Y106000D02*
X347000D01*
X314000Y134000D02*
Y135000D01*
X309000Y140000D02*
X314000Y135000D01*
X325000Y121000D02*
Y126000D01*
Y121000D02*
X330000Y116000D01*
X334000D01*
X335000Y126000D02*
X339000D01*
X341000Y124000D01*
X357000Y117000D02*
Y124000D01*
X357000Y124000D01*
X357000Y106000D02*
X359000D01*
X365000Y100000D01*
X344000Y98000D02*
X347000Y101000D01*
X155000Y127000D02*
X159000Y131000D01*
X161000D01*
X341000Y196000D02*
X349500D01*
X341000Y196000D02*
X341000Y196000D01*
X432000Y21000D02*
Y28000D01*
X432000Y21000D02*
X432000Y21000D01*
X442000D02*
Y28000D01*
X442000Y21000D02*
X442000Y21000D01*
X454000Y21000D02*
Y28000D01*
X454000Y21000D02*
X454000Y21000D01*
X464000D02*
Y28000D01*
X464000Y21000D02*
X464000Y21000D01*
X476000Y21000D02*
Y28000D01*
X476000Y21000D02*
X476000Y21000D01*
X486000D02*
Y28000D01*
X486000Y21000D02*
X486000Y21000D01*
X493000Y26000D02*
Y28000D01*
Y26000D02*
X499000Y20000D01*
Y20000D02*
Y20000D01*
X521000Y21000D02*
Y28000D01*
Y21000D02*
X521000Y21000D01*
X531000Y21000D02*
Y28000D01*
Y21000D02*
X531000Y21000D01*
X543000Y21000D02*
Y28000D01*
X553000Y21000D02*
Y28000D01*
X565000D02*
X565000Y28000D01*
Y21000D02*
Y28000D01*
X575000Y21000D02*
Y28000D01*
Y21000D02*
X575000Y21000D01*
X444000Y152000D02*
X444000Y152000D01*
Y159000D01*
X434000Y152000D02*
X434000Y152000D01*
Y159000D01*
X422000Y152000D02*
X422000Y152000D01*
Y159000D01*
X412000Y152000D02*
X412000Y152000D01*
Y159000D01*
X400000Y152000D02*
X400000Y152000D01*
Y159000D01*
X390000Y152000D02*
X390000Y152000D01*
Y159000D01*
X510000Y152000D02*
Y159000D01*
X500000Y152000D02*
X500000Y152000D01*
Y159000D01*
X466000Y152000D02*
X466000Y152000D01*
Y159000D01*
X456000Y152000D02*
X456000Y152000D01*
Y159000D01*
X486000Y379000D02*
X486000Y379000D01*
Y372000D02*
Y379000D01*
X476000Y379000D02*
X476000Y379000D01*
Y372000D02*
Y379000D01*
X464000Y379000D02*
X464000Y379000D01*
Y372000D02*
Y379000D01*
X454000Y379000D02*
X454000Y379000D01*
Y372000D02*
Y379000D01*
X442000Y379000D02*
X442000Y379000D01*
Y372000D02*
Y379000D01*
X432000Y379000D02*
X432000Y379000D01*
Y372000D02*
Y379000D01*
X444000Y241000D02*
X444000Y241000D01*
Y248000D01*
X434000Y241000D02*
X434000Y241000D01*
Y248000D01*
X422000Y241000D02*
X422000Y241000D01*
Y248000D01*
X412000Y241000D02*
X412000Y241000D01*
Y248000D01*
X400000Y241000D02*
X400000Y241000D01*
Y248000D01*
X390000Y241000D02*
X390000Y241000D01*
Y248000D01*
X456000Y241000D02*
Y248000D01*
X456000Y241000D02*
X456000Y241000D01*
X466000D02*
Y248000D01*
X466000Y241000D02*
X466000Y241000D01*
X500000D02*
Y248000D01*
X500000Y241000D02*
X500000Y241000D01*
X510000D02*
Y248000D01*
X510000Y241000D02*
X510000Y241000D01*
X543000D02*
Y248000D01*
X543000Y241000D02*
X543000Y241000D01*
X553000Y241000D02*
X553000Y241000D01*
X499000Y372000D02*
Y379000D01*
X499000Y379000D02*
X499000Y379000D01*
X509000Y372000D02*
Y379000D01*
X509000Y379000D02*
X509000Y379000D01*
X543000Y372000D02*
Y379000D01*
X543000Y379000D02*
X543000Y379000D01*
X553000Y372000D02*
Y379000D01*
X553000Y379000D02*
X553000Y379000D01*
X565000Y372000D02*
Y379000D01*
X565000Y379000D02*
X565000Y379000D01*
X575000Y372000D02*
Y379000D01*
X575000Y379000D02*
X575000Y379000D01*
X543000Y152000D02*
Y159000D01*
X532000Y240000D02*
Y248000D01*
X532000Y240000D02*
X532000Y240000D01*
X610000Y173000D02*
X614000Y177000D01*
X612000Y159000D02*
Y168000D01*
X607000Y173000D02*
X610000Y170000D01*
X612000Y168000D01*
X622000Y159000D02*
Y160000D01*
Y132000D02*
X622000Y132000D01*
X622000Y132000D02*
Y146000D01*
Y159000D01*
Y160000D02*
X627000Y165000D01*
X600000Y160000D02*
X600000D01*
X606000Y166000D01*
X597000Y173000D02*
X604000Y166000D01*
X606000D01*
Y152000D02*
X612000Y146000D01*
X606000Y152000D02*
Y157000D01*
Y139000D02*
X612000Y133000D01*
Y132000D02*
Y133000D01*
X635000Y150000D02*
X642000Y143000D01*
X642000D01*
X608000Y185000D02*
X613000Y190000D01*
X607000Y185000D02*
X608000D01*
X607000D02*
Y186000D01*
X602000Y191000D02*
X607000Y186000D01*
X579000Y169000D02*
X582000Y172000D01*
Y186000D01*
X553000Y152000D02*
Y159000D01*
X577000Y169000D02*
X579000D01*
X564000Y159000D02*
X567000D01*
X577000Y169000D01*
X582000Y186000D02*
X585000D01*
X590000Y191000D01*
X602000D01*
X593000Y185000D02*
X597000D01*
X591000Y183000D02*
X593000Y185000D01*
X590000Y200000D02*
X597000D01*
X617425Y235000D02*
X622000Y230425D01*
Y227000D02*
Y230425D01*
X616000Y235000D02*
X617425D01*
X602500Y216000D02*
X611000Y207500D01*
X605500Y235000D02*
X616000D01*
X603500Y237000D02*
X605500Y235000D01*
X553000Y241000D02*
Y248000D01*
X616000Y245000D02*
X616000Y245000D01*
X625000Y254000D01*
X627000D01*
X609000Y245000D02*
X616000D01*
X637000Y234000D02*
Y240000D01*
X636750Y240250D02*
X637000Y240000D01*
X636750Y240250D02*
Y253750D01*
X637000Y254000D01*
X642000Y248000D02*
X643000Y249000D01*
X649000D01*
X675000Y237000D02*
Y246000D01*
X671000Y233000D02*
X674000Y236000D01*
X675000Y237000D01*
X684000Y235000D02*
X685000Y236000D01*
Y246000D01*
X683000Y215000D02*
X686000Y218000D01*
X689000D01*
X678000Y195000D02*
X685000D01*
X685000Y195000D01*
X686000Y173000D02*
X687000Y172000D01*
Y161000D02*
Y172000D01*
X675000Y161000D02*
X677000D01*
X669750Y166250D02*
X675000Y161000D01*
X633000Y98000D02*
X637000Y94000D01*
X633000Y98000D02*
Y102000D01*
X637000Y87500D02*
Y94000D01*
X614000Y102000D02*
X624000D01*
X633000D01*
X614000Y85000D02*
Y92000D01*
X660000Y78000D02*
X666000D01*
X660000Y78000D02*
X660000Y78000D01*
X652000Y78000D02*
X660000D01*
X646500Y83500D02*
X652000Y78000D01*
X646500Y83500D02*
Y87500D01*
X654000Y69000D02*
X655000Y68000D01*
X660000D01*
X637000Y52000D02*
X638000Y51000D01*
X637000Y52000D02*
Y60500D01*
X640000Y109000D02*
X643000Y106000D01*
Y102000D02*
Y106000D01*
X607000Y200000D02*
X609000Y202000D01*
X615000D01*
X611000Y207500D02*
X614500D01*
X614000Y78000D02*
X624000D01*
X627500Y81500D01*
Y87500D01*
X73000Y142000D02*
X76000Y145000D01*
X61000Y142000D02*
X73000D01*
X58000Y139000D02*
X61000Y142000D01*
X58000Y127000D02*
Y139000D01*
X106000Y170000D02*
X111000Y175000D01*
X689000Y209000D02*
Y212000D01*
X682500Y207500D02*
X685000Y205000D01*
X689000Y209000D01*
D40*
X227500Y19300D02*
Y32425D01*
X222500Y19300D02*
Y32425D01*
X247500Y309550D02*
Y323300D01*
X240755Y305755D02*
X243705D01*
X247500Y309550D01*
X237000Y302000D02*
X240755Y305755D01*
X267500Y365425D02*
X269125Y363800D01*
X267500Y365425D02*
Y380700D01*
X272500Y308200D02*
X272500Y308200D01*
Y323300D01*
X222500Y63575D02*
Y76700D01*
X222500Y63575D02*
X222500Y63575D01*
X227500Y63575D02*
X227500Y63575D01*
Y76700D01*
X307500D02*
Y91800D01*
X327500Y56800D02*
Y76700D01*
X252500D02*
Y89825D01*
X252500Y89825D01*
X257500Y76700D02*
X257500Y76700D01*
Y89825D01*
X296875Y365800D02*
X297500Y366425D01*
Y380700D01*
X302500Y366425D02*
Y380700D01*
Y366425D02*
X303125Y365800D01*
X317500Y91175D02*
X318125Y91800D01*
X317500Y76700D02*
Y91175D01*
D41*
X84500Y217500D02*
X91000Y224000D01*
X22000Y201010D02*
Y203000D01*
X25510Y197500D02*
X29000D01*
X22000Y201010D02*
X25510Y197500D01*
X77000Y217500D02*
X84500D01*
X15000Y184000D02*
X21250D01*
X23000Y233000D02*
Y238000D01*
Y233000D02*
X25000Y231000D01*
X24510Y217500D02*
X29000D01*
X14000Y217000D02*
X18000D01*
X20000Y219000D01*
X23010D01*
X24510Y217500D01*
X634500Y160500D02*
X635000Y160000D01*
X671000Y182500D02*
X685500D01*
X686000Y183000D01*
X664500Y171500D02*
Y176000D01*
X674000Y245000D02*
X675000Y246000D01*
X674000Y236000D02*
Y245000D01*
X636000Y254000D02*
X636000Y254000D01*
X312500Y358050D02*
Y359050D01*
X113000Y83000D02*
X113000Y83000D01*
X312500Y358050D02*
X312500Y358050D01*
X644500Y176000D02*
Y197500D01*
X629500Y217500D02*
X647000Y200000D01*
X623000Y217500D02*
X629500D01*
X671000Y187500D02*
X678500D01*
X679000Y188000D01*
X77000Y207500D02*
X83500D01*
X85000Y209000D01*
X70500Y182500D02*
X77000D01*
X53000Y200000D02*
X55500Y202500D01*
X40500Y224000D02*
Y230500D01*
X671000Y202500D02*
X677500D01*
X639500Y169500D02*
X640000Y169000D01*
X639500Y169500D02*
Y176000D01*
X607000Y201000D02*
X608500Y202500D01*
X491750Y282250D02*
X492000Y282000D01*
X491750Y282250D02*
Y290250D01*
X491500Y290500D02*
X491750Y290250D01*
X524000Y275990D02*
Y280010D01*
Y55990D02*
Y60010D01*
X524000Y55989D02*
X524000Y55990D01*
X38600Y314500D02*
X42500D01*
X48000Y309000D01*
X86500Y197500D02*
X88000Y199000D01*
X77000Y197500D02*
X86500D01*
X77000Y187500D02*
X81500D01*
X89000Y180000D01*
Y176000D02*
Y180000D01*
X77000Y192500D02*
X97000D01*
X55500Y169500D02*
Y176000D01*
X49000Y163000D02*
X55500Y169500D01*
X49000Y160000D02*
Y163000D01*
X70000Y164000D02*
Y165000D01*
X65500Y169500D02*
X70000Y165000D01*
X65500Y169500D02*
Y176000D01*
X70000Y165000D02*
X71000Y164000D01*
X40500Y163500D02*
X42000Y162000D01*
X40500Y163500D02*
Y176000D01*
X32000Y169000D02*
X35500Y172500D01*
X31000Y169000D02*
X32000D01*
X35500Y172500D02*
Y176000D01*
X15000Y184000D02*
X21250D01*
X22750Y182500D01*
X29000D01*
X21250Y184000D02*
X21250Y184000D01*
X23500Y187500D02*
X29000D01*
X21000Y190000D02*
X23500Y187500D01*
X16000Y190000D02*
X21000D01*
X24500Y192500D02*
X29000D01*
X22000Y195000D02*
X24500Y192500D01*
X29000Y202500D02*
X50500D01*
X29000Y207500D02*
X45500D01*
X50500Y202500D01*
X53000Y200000D01*
X70500Y182500D01*
X55500Y202500D02*
Y224000D01*
X22000Y214000D02*
X23500Y212500D01*
X29000D01*
X33000Y231000D02*
X35500Y228500D01*
X25000Y231000D02*
X33000D01*
X35500Y224000D02*
Y228500D01*
X29000Y236000D02*
X35000D01*
X40500Y230500D01*
X60500Y224000D02*
Y229500D01*
X59000Y231000D02*
X60500Y229500D01*
Y169500D02*
Y176000D01*
X62000Y238000D02*
X65500Y234500D01*
Y224000D02*
Y234500D01*
X70500Y224000D02*
Y229500D01*
X72000Y231000D01*
X73000Y246000D02*
Y251000D01*
X277000Y196000D02*
Y197990D01*
X283000Y203990D01*
Y206000D01*
X261000Y154010D02*
Y156000D01*
X267000Y146000D02*
Y148010D01*
X261000Y154010D02*
X267000Y148010D01*
X352500Y380700D02*
Y380700D01*
X619500Y182500D02*
X623000D01*
X616750Y179750D02*
X619500Y182500D01*
X610000Y170000D02*
Y173000D01*
X634500Y160500D02*
Y176000D01*
X629500Y167500D02*
Y176000D01*
X628750Y166750D02*
X629500Y167500D01*
X615500Y192500D02*
X623000D01*
X615000Y192000D02*
X615500Y192500D01*
X615500Y202500D02*
X623000D01*
X615000Y202000D02*
X615500Y202500D01*
X617250Y214750D02*
X619500Y212500D01*
X623000D01*
X617250Y214750D02*
Y220000D01*
X620250Y223000D01*
X568500Y210500D02*
X569000Y211000D01*
X568000Y196000D02*
X569000Y197000D01*
X631000Y231000D02*
X634500Y227500D01*
Y224000D02*
Y227500D01*
X639500Y224000D02*
Y229500D01*
X637000Y232000D02*
X639500Y229500D01*
X637000Y232000D02*
Y233000D01*
X644500Y234500D02*
X649000Y239000D01*
X644500Y224000D02*
Y234500D01*
X659500Y224000D02*
Y229500D01*
X663000Y233000D01*
X664500Y224000D02*
Y226500D01*
X671000Y233000D01*
X671000Y217500D02*
X676500D01*
X684000Y225000D01*
X684000D01*
X680500Y212500D02*
X682000Y214000D01*
X671000Y212500D02*
X680500D01*
X671000Y207500D02*
X680000D01*
X649500Y197500D02*
X671000D01*
X644500D02*
X647000Y200000D01*
X647000Y200000D01*
X654500Y192500D02*
X671000D01*
X647000Y200000D02*
X647000Y200000D01*
X649500Y197500D01*
X654500Y192500D01*
X664500Y171500D02*
X666000Y170000D01*
X659500Y169500D02*
Y176000D01*
Y169500D02*
X660000Y169000D01*
X616500Y207500D02*
X623000D01*
X608500Y202500D02*
X615000D01*
D42*
X122000Y234000D02*
X134000D01*
X121250Y233250D02*
X122000Y234000D01*
X116675Y233250D02*
X121250D01*
X111425Y228000D02*
X116675Y233250D01*
X104000Y228000D02*
X111425D01*
X99000Y223000D02*
X104000Y228000D01*
X99000Y220000D02*
Y223000D01*
X96500Y361000D02*
X102500Y367000D01*
X73500Y361000D02*
X96500D01*
X560000Y192132D02*
Y203000D01*
X575000Y175000D02*
Y177132D01*
X564000Y169000D02*
X570000Y175000D01*
X575000D01*
X560000Y192132D02*
X575000Y177132D01*
X560000Y203000D02*
X568000Y211000D01*
Y212000D01*
X591250Y205750D02*
X602000Y216500D01*
X574750Y205750D02*
X591250D01*
X569000Y200000D02*
X574750Y205750D01*
X569000Y196000D02*
Y197000D01*
Y200000D01*
X602500Y217000D02*
Y223500D01*
X598000Y228000D02*
X602500Y223500D01*
X85000Y161500D02*
X89000Y165500D01*
Y176000D01*
X111000Y175000D02*
X113250Y177250D01*
X122250D01*
X132000Y187000D01*
X125000Y196000D02*
X131000D01*
X132000Y197000D01*
X131000Y198000D02*
X132000Y197000D01*
X131000Y198000D02*
Y212000D01*
Y221000D01*
X134000Y224000D01*
D44*
X675000Y375000D02*
D03*
Y25000D02*
D03*
X25000D02*
D03*
Y375000D02*
D03*
D45*
X227500Y32425D02*
D03*
X222500D02*
D03*
X217000Y260000D02*
D03*
X234000Y257000D02*
D03*
X158000Y100000D02*
D03*
X261000Y220000D02*
D03*
X213000Y115425D02*
D03*
X622000Y251000D02*
D03*
X308000Y119000D02*
D03*
Y124000D02*
D03*
X294000Y119000D02*
D03*
Y124000D02*
D03*
X228000Y127000D02*
D03*
X272000Y146000D02*
D03*
X282000D02*
D03*
X314000Y147000D02*
D03*
X304000Y191000D02*
D03*
X328000Y183000D02*
D03*
X329000Y193000D02*
D03*
X340000Y224000D02*
D03*
X321000Y264000D02*
D03*
X277000Y231000D02*
D03*
X272000Y236000D02*
D03*
Y255650D02*
D03*
X267000Y276000D02*
D03*
X257000D02*
D03*
X247000D02*
D03*
X227000Y297000D02*
D03*
X209000Y282000D02*
D03*
X193000Y227000D02*
D03*
X198000D02*
D03*
X196000Y207000D02*
D03*
X202000Y181000D02*
D03*
X176000Y163000D02*
D03*
X164000Y169000D02*
D03*
X217500Y32425D02*
D03*
X143000Y16500D02*
D03*
X84000Y101000D02*
D03*
X169000Y253000D02*
D03*
X145000Y229000D02*
D03*
X105000Y243000D02*
D03*
X97000Y320000D02*
D03*
X155000Y324000D02*
D03*
X158000Y377000D02*
D03*
X120000Y384000D02*
D03*
X123000Y77000D02*
D03*
X242500Y367575D02*
D03*
X237500D02*
D03*
X257500D02*
D03*
X252500D02*
D03*
X460000Y298000D02*
D03*
X452000Y298000D02*
D03*
X476000Y102000D02*
D03*
X484000D02*
D03*
X452000Y78000D02*
D03*
X460000D02*
D03*
X476000Y322000D02*
D03*
X484000D02*
D03*
X118000Y89000D02*
D03*
X61000Y84000D02*
D03*
X669000Y244000D02*
D03*
X222500Y63575D02*
D03*
X227500D02*
D03*
X232500Y393825D02*
D03*
X89000Y250000D02*
D03*
X82000Y212750D02*
D03*
X669000Y156000D02*
D03*
X654500Y229500D02*
D03*
X655000Y155000D02*
D03*
X36000Y100000D02*
D03*
X69000Y17000D02*
D03*
X267500Y63575D02*
D03*
X272500D02*
D03*
X262500D02*
D03*
X312500Y6175D02*
D03*
X307500D02*
D03*
X332500Y367575D02*
D03*
X327500D02*
D03*
X322500D02*
D03*
X332500Y309900D02*
D03*
X327500D02*
D03*
X322500D02*
D03*
X317500D02*
D03*
Y367575D02*
D03*
X43100Y324500D02*
D03*
X45500Y166500D02*
D03*
Y229500D02*
D03*
X31000Y159000D02*
D03*
X41500Y82500D02*
D03*
X20000Y95000D02*
D03*
X342500Y393825D02*
D03*
X337500D02*
D03*
X217500Y310175D02*
D03*
X307500Y394100D02*
D03*
X282500Y393825D02*
D03*
X272500D02*
D03*
X277500D02*
D03*
X282500Y336425D02*
D03*
X287500Y310175D02*
D03*
X277500D02*
D03*
X292500Y393825D02*
D03*
X217500D02*
D03*
X500000Y290000D02*
D03*
X492000Y298000D02*
D03*
X484000Y290000D02*
D03*
X476000D02*
D03*
Y282000D02*
D03*
X468000Y290000D02*
D03*
X460000D02*
D03*
X452000Y282000D02*
D03*
X436000Y290000D02*
D03*
X492000Y322000D02*
D03*
Y330000D02*
D03*
X476000Y338000D02*
D03*
Y330000D02*
D03*
X468000D02*
D03*
X452000D02*
D03*
X436000D02*
D03*
X444000Y338000D02*
D03*
X468000Y110000D02*
D03*
X460000D02*
D03*
X500000Y70000D02*
D03*
X492000Y78000D02*
D03*
X460000Y70000D02*
D03*
X476000Y62000D02*
D03*
X484000Y70000D02*
D03*
X468000D02*
D03*
X476000D02*
D03*
X436000D02*
D03*
X452000Y110000D02*
D03*
X444000Y118000D02*
D03*
X436000Y110000D02*
D03*
X452000Y62000D02*
D03*
X476000Y118000D02*
D03*
X476000Y110000D02*
D03*
X484000D02*
D03*
X492000Y110000D02*
D03*
X282500Y6175D02*
D03*
X287500Y6175D02*
D03*
X292500Y6175D02*
D03*
X297500Y6175D02*
D03*
X302500D02*
D03*
X292500Y63575D02*
D03*
X287500D02*
D03*
X282500D02*
D03*
X277500D02*
D03*
X247500Y89825D02*
D03*
X277500Y32425D02*
D03*
X272500D02*
D03*
X267500D02*
D03*
X262500D02*
D03*
X257500D02*
D03*
X128000Y260000D02*
D03*
X148000Y255000D02*
D03*
X128000Y240000D02*
D03*
X142000D02*
D03*
X460000Y330000D02*
D03*
X41000Y248000D02*
D03*
X55000Y50000D02*
D03*
X69000Y68000D02*
D03*
Y62000D02*
D03*
X110500Y17000D02*
D03*
X136500Y24000D02*
D03*
X72000Y94000D02*
D03*
X90000Y68000D02*
D03*
X93000Y56000D02*
D03*
X50500Y170500D02*
D03*
X237500Y63575D02*
D03*
X332500Y32425D02*
D03*
X337500D02*
D03*
X352500Y89825D02*
D03*
X347500D02*
D03*
X352500Y6175D02*
D03*
X347500D02*
D03*
X317500Y32425D02*
D03*
X322500D02*
D03*
X337500Y63575D02*
D03*
X332500D02*
D03*
X237500Y336425D02*
D03*
X242500D02*
D03*
X257500D02*
D03*
X252500D02*
D03*
X252500Y89825D02*
D03*
X257500D02*
D03*
X242500Y63575D02*
D03*
D46*
X168000Y65000D02*
D03*
X162000D02*
D03*
X293000Y276000D02*
D03*
X19000Y208000D02*
D03*
X658000Y143000D02*
D03*
X80000Y229000D02*
D03*
X85000Y238000D02*
D03*
X385000Y272000D02*
D03*
X392000Y269000D02*
D03*
X197000Y276000D02*
D03*
X377000Y152000D02*
D03*
Y146000D02*
D03*
X341000Y172000D02*
D03*
X349000D02*
D03*
X385000Y258000D02*
D03*
X391000Y259000D02*
D03*
X257000Y304000D02*
D03*
X237000Y284000D02*
D03*
X282000Y357050D02*
D03*
X242000Y352000D02*
D03*
X616000Y369000D02*
D03*
X80000Y223000D02*
D03*
X181000Y284000D02*
D03*
X80000Y174000D02*
D03*
X104000Y81000D02*
D03*
X193000Y310000D02*
D03*
X242500Y39680D02*
D03*
X213000Y108000D02*
D03*
X83000Y179000D02*
D03*
X147000Y176000D02*
D03*
X65000Y267000D02*
D03*
X154000Y241000D02*
D03*
X189000Y284000D02*
D03*
X201000Y310000D02*
D03*
X245000Y302000D02*
D03*
X293000Y268000D02*
D03*
X197000D02*
D03*
X191000Y97000D02*
D03*
X108000Y49000D02*
D03*
X277000Y172000D02*
D03*
X277000Y164000D02*
D03*
X118000Y64000D02*
D03*
X389000Y189000D02*
D03*
X363500Y366325D02*
D03*
X68000Y27000D02*
D03*
X129000Y90000D02*
D03*
X129000Y82000D02*
D03*
X89000Y187000D02*
D03*
X312500Y359050D02*
D03*
X135000Y258000D02*
D03*
X638000Y51000D02*
D03*
X617000Y13000D02*
D03*
X622000Y47000D02*
D03*
X677000Y71000D02*
D03*
X677050Y83000D02*
D03*
X621000Y329000D02*
D03*
Y317000D02*
D03*
X645000Y331000D02*
D03*
X664000Y298000D02*
D03*
X645000Y299000D02*
D03*
X662500Y329500D02*
D03*
X64000Y106000D02*
D03*
X379000Y248000D02*
D03*
X41000Y347000D02*
D03*
X58000Y329000D02*
D03*
X175000Y323000D02*
D03*
X671000Y233000D02*
D03*
X669750Y166250D02*
D03*
X31000Y169000D02*
D03*
X23000Y244000D02*
D03*
X606000Y166000D02*
D03*
X609000Y245000D02*
D03*
X81000Y313000D02*
D03*
X23000Y317000D02*
D03*
X141000Y74000D02*
D03*
X31000Y317000D02*
D03*
Y304000D02*
D03*
X28000Y78000D02*
D03*
X93000Y90000D02*
D03*
X329000Y95000D02*
D03*
X318125Y91800D02*
D03*
X221000Y292000D02*
D03*
X360875Y55425D02*
D03*
X360425Y37575D02*
D03*
X329000Y41000D02*
D03*
X213125Y62325D02*
D03*
X180000Y33000D02*
D03*
X206875Y62325D02*
D03*
X217500Y91075D02*
D03*
X200375Y19000D02*
D03*
X229000Y100000D02*
D03*
X313000Y38175D02*
D03*
X342500Y44550D02*
D03*
X247500Y33680D02*
D03*
X252500Y39680D02*
D03*
X179000Y65000D02*
D03*
X312500Y62425D02*
D03*
X296875Y91800D02*
D03*
X307500D02*
D03*
X295000Y48000D02*
D03*
X313000D02*
D03*
X265500Y48050D02*
D03*
X264000Y94000D02*
D03*
X237500Y33680D02*
D03*
X232500Y39680D02*
D03*
X62000Y335000D02*
D03*
X195000Y326000D02*
D03*
X148000Y392000D02*
D03*
X68000Y89000D02*
D03*
X133000Y176000D02*
D03*
X93000Y152000D02*
D03*
X64000Y122000D02*
D03*
X116000Y331000D02*
D03*
X126000D02*
D03*
X147000D02*
D03*
X139000D02*
D03*
X135000Y244000D02*
D03*
X137000Y371000D02*
D03*
X104000Y345000D02*
D03*
X147000Y342000D02*
D03*
Y360000D02*
D03*
X116000Y361000D02*
D03*
X86000Y384000D02*
D03*
X128000Y371000D02*
D03*
X147000D02*
D03*
X104000Y330000D02*
D03*
X151000Y218000D02*
D03*
X96000Y258000D02*
D03*
X228000Y352000D02*
D03*
X321500Y352050D02*
D03*
X377000Y366000D02*
D03*
X388000D02*
D03*
X395000Y338000D02*
D03*
X391000Y333000D02*
D03*
X646750Y386000D02*
D03*
Y392000D02*
D03*
Y14000D02*
D03*
Y8000D02*
D03*
X53250Y392000D02*
D03*
Y386000D02*
D03*
X115000Y183000D02*
D03*
X105000Y177140D02*
D03*
X58000Y369000D02*
D03*
X53000Y9000D02*
D03*
X77000D02*
D03*
X60000Y35000D02*
D03*
X68000D02*
D03*
X96000Y31000D02*
D03*
X124000Y96000D02*
D03*
X622000Y37000D02*
D03*
X616000Y42000D02*
D03*
Y359000D02*
D03*
X261875Y365800D02*
D03*
X48000Y106000D02*
D03*
Y68000D02*
D03*
X616000Y53000D02*
D03*
X614000Y61000D02*
D03*
X640000Y109000D02*
D03*
X654000Y69000D02*
D03*
X666000Y78000D02*
D03*
X645000Y315000D02*
D03*
X297000Y302000D02*
D03*
X614000Y85000D02*
D03*
X66000Y77000D02*
D03*
X61000Y96000D02*
D03*
X78000Y37000D02*
D03*
X13000Y288000D02*
D03*
X355500Y366325D02*
D03*
X347500D02*
D03*
X345500Y338200D02*
D03*
X352750Y341550D02*
D03*
X189000Y390000D02*
D03*
X325000Y300000D02*
D03*
X269125Y363800D02*
D03*
X86000Y117000D02*
D03*
X247500Y309550D02*
D03*
X86000Y109000D02*
D03*
X93000Y47000D02*
D03*
Y39000D02*
D03*
X141000Y68000D02*
D03*
X93000Y98000D02*
D03*
X96000Y13000D02*
D03*
X21000Y104000D02*
D03*
X220750Y303800D02*
D03*
X272500Y308200D02*
D03*
X286500Y365800D02*
D03*
X268125Y337925D02*
D03*
X262875Y340925D02*
D03*
X253000Y108000D02*
D03*
X269000Y140000D02*
D03*
X261000Y148000D02*
D03*
X277000Y140000D02*
D03*
X261000Y156000D02*
D03*
X245000Y108000D02*
D03*
X245000Y132000D02*
D03*
X213125Y337675D02*
D03*
X206875D02*
D03*
X221875Y364800D02*
D03*
X213125Y357800D02*
D03*
X228125Y337675D02*
D03*
X221875D02*
D03*
X360650Y48000D02*
D03*
X242500Y48050D02*
D03*
X202625D02*
D03*
X369000Y352000D02*
D03*
X333500Y352050D02*
D03*
X299000Y352000D02*
D03*
X268000D02*
D03*
X183000D02*
D03*
X317000Y116000D02*
D03*
X189000Y236000D02*
D03*
X199000Y97000D02*
D03*
X317000Y292000D02*
D03*
X344000Y98000D02*
D03*
X365000Y100000D02*
D03*
X245000Y156000D02*
D03*
Y164000D02*
D03*
X181000Y140000D02*
D03*
X159000Y219000D02*
D03*
X153000Y275000D02*
D03*
X115000Y239000D02*
D03*
X137000Y142000D02*
D03*
X309000Y284000D02*
D03*
Y292000D02*
D03*
Y300000D02*
D03*
X293000Y292000D02*
D03*
X157000Y179000D02*
D03*
X88000Y300000D02*
D03*
X81000Y322000D02*
D03*
X82000Y372000D02*
D03*
X81000Y352000D02*
D03*
Y330000D02*
D03*
X102500Y392000D02*
D03*
X127500Y392000D02*
D03*
X137000D02*
D03*
X169000Y377000D02*
D03*
X168000Y360000D02*
D03*
X168000Y339000D02*
D03*
X167000Y323000D02*
D03*
X152000Y308000D02*
D03*
X144000D02*
D03*
X136000D02*
D03*
X125000Y309000D02*
D03*
X114000Y308000D02*
D03*
X107500D02*
D03*
X394000Y118000D02*
D03*
Y285000D02*
D03*
Y296000D02*
D03*
Y103000D02*
D03*
X444000Y322000D02*
D03*
X333000Y284000D02*
D03*
X333000Y268000D02*
D03*
X365000D02*
D03*
X357000Y276000D02*
D03*
X357000Y268000D02*
D03*
X269000Y116000D02*
D03*
X293000Y180000D02*
D03*
X293000Y172000D02*
D03*
X221000Y156000D02*
D03*
X213000Y220000D02*
D03*
X341000Y116000D02*
D03*
X253000Y260000D02*
D03*
X341000Y124000D02*
D03*
X357000Y124000D02*
D03*
X285000Y116000D02*
D03*
X161000Y131000D02*
D03*
X136000Y168500D02*
D03*
Y159000D02*
D03*
Y149000D02*
D03*
Y128000D02*
D03*
Y121000D02*
D03*
Y113000D02*
D03*
X229000Y116000D02*
D03*
X197000Y172000D02*
D03*
X205000Y164000D02*
D03*
X137000Y135000D02*
D03*
X221000Y140000D02*
D03*
X159000Y206000D02*
D03*
X293000Y252000D02*
D03*
Y244000D02*
D03*
X213000D02*
D03*
X325000Y132000D02*
D03*
X213000Y164000D02*
D03*
X229000Y180000D02*
D03*
X229000Y188000D02*
D03*
X245000D02*
D03*
X197000Y148000D02*
D03*
X205000Y148000D02*
D03*
X213000Y148000D02*
D03*
X309000Y140000D02*
D03*
X277000Y260000D02*
D03*
X293000Y220000D02*
D03*
X213000Y228000D02*
D03*
X261000Y164000D02*
D03*
X301000Y236000D02*
D03*
X317000Y220000D02*
D03*
Y236000D02*
D03*
X309000Y220000D02*
D03*
X309000Y204000D02*
D03*
X317000Y204000D02*
D03*
X309000Y172000D02*
D03*
Y252000D02*
D03*
X293000Y236000D02*
D03*
X277000Y220000D02*
D03*
X277000Y212000D02*
D03*
Y204000D02*
D03*
Y196000D02*
D03*
Y188000D02*
D03*
X277000Y180000D02*
D03*
X221000Y148000D02*
D03*
X293000Y212000D02*
D03*
Y204000D02*
D03*
Y196000D02*
D03*
X245000D02*
D03*
X229000D02*
D03*
X229000Y204000D02*
D03*
X245000D02*
D03*
X229000Y212000D02*
D03*
X229000Y220000D02*
D03*
X245000D02*
D03*
X16000Y190000D02*
D03*
X22000Y195000D02*
D03*
Y203000D02*
D03*
Y214000D02*
D03*
X85000Y226000D02*
D03*
X83000Y169000D02*
D03*
X621000Y342000D02*
D03*
X606000Y139000D02*
D03*
X642000Y248000D02*
D03*
X584000Y228000D02*
D03*
X576000D02*
D03*
X642000Y143000D02*
D03*
X590000Y200000D02*
D03*
X606000Y157000D02*
D03*
X663000Y233000D02*
D03*
X678000Y203000D02*
D03*
X679000Y188000D02*
D03*
X640000Y169000D02*
D03*
X631000Y231000D02*
D03*
X591000Y183000D02*
D03*
X613000Y190000D02*
D03*
X689000Y212000D02*
D03*
Y218000D02*
D03*
X660000Y169000D02*
D03*
X621000Y304000D02*
D03*
X615000Y202000D02*
D03*
X613000Y223000D02*
D03*
X561000Y224000D02*
D03*
Y217000D02*
D03*
Y183000D02*
D03*
Y175000D02*
D03*
X619000Y166000D02*
D03*
X649000Y214000D02*
D03*
Y208000D02*
D03*
Y192000D02*
D03*
Y186000D02*
D03*
X616000Y229000D02*
D03*
X29000Y236000D02*
D03*
X42000Y162000D02*
D03*
X84000Y253000D02*
D03*
X642000Y261000D02*
D03*
X55000Y245000D02*
D03*
X42000Y156000D02*
D03*
X59000Y59000D02*
D03*
X677000Y58000D02*
D03*
Y96000D02*
D03*
X23000Y304000D02*
D03*
Y342000D02*
D03*
X125000Y196000D02*
D03*
X85000Y209000D02*
D03*
X88000Y199000D02*
D03*
X39000Y193000D02*
D03*
X49000D02*
D03*
X68000D02*
D03*
X117000Y296000D02*
D03*
X115000Y222000D02*
D03*
Y211000D02*
D03*
X9000Y123000D02*
D03*
Y149000D02*
D03*
X436000Y274000D02*
D03*
X444000Y274000D02*
D03*
X452000D02*
D03*
X460000Y282000D02*
D03*
X484000Y274000D02*
D03*
X492000Y282000D02*
D03*
Y274000D02*
D03*
X532000D02*
D03*
X540000D02*
D03*
X548000D02*
D03*
X492000Y346000D02*
D03*
X468000D02*
D03*
Y338000D02*
D03*
X512000Y313000D02*
D03*
X564000Y307000D02*
D03*
X552000Y313000D02*
D03*
X544000D02*
D03*
X520000D02*
D03*
X596000Y307000D02*
D03*
X592000Y313000D02*
D03*
X588000Y307000D02*
D03*
X584000Y313000D02*
D03*
X580000Y307000D02*
D03*
X576000Y313000D02*
D03*
X572000Y307000D02*
D03*
X568000Y313000D02*
D03*
X560000D02*
D03*
X548000Y307000D02*
D03*
X540000D02*
D03*
X536000Y313000D02*
D03*
X532000Y307000D02*
D03*
X528000Y313000D02*
D03*
X524000Y307000D02*
D03*
X532000Y282000D02*
D03*
X500000Y346000D02*
D03*
Y274000D02*
D03*
X532000Y338000D02*
D03*
X460000D02*
D03*
X484000Y346000D02*
D03*
X500000Y282000D02*
D03*
X468000D02*
D03*
X444000D02*
D03*
X564000Y274000D02*
D03*
X556000D02*
D03*
X476000D02*
D03*
X468000D02*
D03*
X484000Y330000D02*
D03*
X564000Y346000D02*
D03*
X556000D02*
D03*
X548000D02*
D03*
X540000D02*
D03*
X532000D02*
D03*
X515730Y337730D02*
D03*
X500000Y338000D02*
D03*
X492000D02*
D03*
X484000D02*
D03*
X476000Y346000D02*
D03*
X452000D02*
D03*
X460000D02*
D03*
X436000Y338000D02*
D03*
X444000Y346000D02*
D03*
X436000D02*
D03*
X460000Y274000D02*
D03*
X484000Y126000D02*
D03*
X476000D02*
D03*
X492000D02*
D03*
Y118000D02*
D03*
X468000Y126000D02*
D03*
X460000D02*
D03*
X452000D02*
D03*
X500000D02*
D03*
X532000D02*
D03*
X540000D02*
D03*
X532000Y118000D02*
D03*
X484000D02*
D03*
X468000D02*
D03*
X460000D02*
D03*
X444000Y126000D02*
D03*
X436000D02*
D03*
Y118000D02*
D03*
X544000Y93000D02*
D03*
X500000Y87000D02*
D03*
X548000Y126000D02*
D03*
X556000D02*
D03*
X564000D02*
D03*
X436000Y54000D02*
D03*
X444000D02*
D03*
X452000D02*
D03*
X468000D02*
D03*
X476000D02*
D03*
X484000D02*
D03*
X532000D02*
D03*
X540000D02*
D03*
X548000D02*
D03*
X556000D02*
D03*
X564000D02*
D03*
X444000Y62000D02*
D03*
X460000D02*
D03*
X468000D02*
D03*
X492000D02*
D03*
X500000D02*
D03*
X516000Y62000D02*
D03*
X492000Y54000D02*
D03*
X460000D02*
D03*
X444000Y110000D02*
D03*
X500000Y54000D02*
D03*
X532000Y62000D02*
D03*
X532000Y87000D02*
D03*
X540000D02*
D03*
X568000Y93000D02*
D03*
X572000Y87000D02*
D03*
X576000Y93000D02*
D03*
X580000Y87000D02*
D03*
X584000Y93000D02*
D03*
X588000Y87000D02*
D03*
X592000Y93000D02*
D03*
X596000Y87000D02*
D03*
X552000Y93000D02*
D03*
X524000Y87000D02*
D03*
X512000Y93000D02*
D03*
X504000Y93000D02*
D03*
X528000D02*
D03*
X520000D02*
D03*
X508000Y87000D02*
D03*
X466000Y152000D02*
D03*
X456000D02*
D03*
X444000D02*
D03*
X434000D02*
D03*
X422000D02*
D03*
X412000D02*
D03*
X500000D02*
D03*
X510000D02*
D03*
X543000D02*
D03*
X553000D02*
D03*
X532000D02*
D03*
X422000Y248000D02*
D03*
X412000D02*
D03*
X434000D02*
D03*
X444000D02*
D03*
X456000D02*
D03*
X466000D02*
D03*
X500000D02*
D03*
X510000D02*
D03*
X543000D02*
D03*
X553000D02*
D03*
X405000Y372000D02*
D03*
X420000D02*
D03*
X432000D02*
D03*
X442000D02*
D03*
X454000D02*
D03*
X464000D02*
D03*
X476000D02*
D03*
X486000D02*
D03*
X499000D02*
D03*
X509000D02*
D03*
X543000D02*
D03*
X553000D02*
D03*
X565000D02*
D03*
X575000D02*
D03*
X586000D02*
D03*
X600000D02*
D03*
Y28000D02*
D03*
X586000D02*
D03*
X575000D02*
D03*
X565000D02*
D03*
X553000D02*
D03*
X543000D02*
D03*
X486000D02*
D03*
X476000D02*
D03*
X442000D02*
D03*
X432000D02*
D03*
X420000D02*
D03*
X405000D02*
D03*
X532000Y248000D02*
D03*
X500000Y307000D02*
D03*
X516000D02*
D03*
Y87000D02*
D03*
X229000Y228000D02*
D03*
Y236000D02*
D03*
X261000Y188000D02*
D03*
X261000Y204000D02*
D03*
X261000Y196000D02*
D03*
X245000Y228000D02*
D03*
X261000D02*
D03*
X245000Y236000D02*
D03*
X261000D02*
D03*
X245000Y252000D02*
D03*
X261000D02*
D03*
X245000Y244000D02*
D03*
X261000D02*
D03*
X139000Y218000D02*
D03*
X357000Y188000D02*
D03*
X365000D02*
D03*
X349000Y188000D02*
D03*
X341000Y188000D02*
D03*
X349000Y164000D02*
D03*
X357000Y172000D02*
D03*
X371000Y174000D02*
D03*
X444000Y70000D02*
D03*
X365000Y164000D02*
D03*
X357000D02*
D03*
X325000Y156000D02*
D03*
X492000Y102000D02*
D03*
X341000Y164000D02*
D03*
X325000Y148000D02*
D03*
X357000Y148000D02*
D03*
X325000Y204000D02*
D03*
X341000Y156000D02*
D03*
X349000D02*
D03*
X333000D02*
D03*
X341000Y148000D02*
D03*
X309000Y188000D02*
D03*
X333000Y164000D02*
D03*
X325000Y172000D02*
D03*
X333000Y172000D02*
D03*
X309000Y156000D02*
D03*
X317000Y172000D02*
D03*
X181000Y148000D02*
D03*
X197000Y132000D02*
D03*
X173000D02*
D03*
X197000Y124000D02*
D03*
X213000Y188000D02*
D03*
X213000Y180000D02*
D03*
X221000Y172000D02*
D03*
X221000Y164000D02*
D03*
X189000Y180000D02*
D03*
X197000Y260000D02*
D03*
X213000Y196000D02*
D03*
X181000Y220000D02*
D03*
X221000Y284000D02*
D03*
X245000Y180000D02*
D03*
X309000Y164000D02*
D03*
X317000Y140000D02*
D03*
X333000Y148000D02*
D03*
X444000Y298000D02*
D03*
X357000Y244000D02*
D03*
X365000Y244000D02*
D03*
X400000Y152000D02*
D03*
Y248000D02*
D03*
X390000Y152000D02*
D03*
Y248000D02*
D03*
X349000Y260000D02*
D03*
X333000Y252000D02*
D03*
X333000Y260000D02*
D03*
X341000Y260000D02*
D03*
X325000Y220000D02*
D03*
X341000Y252000D02*
D03*
Y244000D02*
D03*
Y236000D02*
D03*
X325000Y260000D02*
D03*
X325000Y252000D02*
D03*
X317000D02*
D03*
X349000Y244000D02*
D03*
Y236000D02*
D03*
X333000Y244000D02*
D03*
X325000Y244000D02*
D03*
X333000Y236000D02*
D03*
X325000D02*
D03*
X531000Y28000D02*
D03*
X521000D02*
D03*
X493000Y28000D02*
D03*
X464000D02*
D03*
X454000D02*
D03*
X537000Y372000D02*
D03*
X357000Y228000D02*
D03*
Y204000D02*
D03*
X500000Y118000D02*
D03*
X515730Y117730D02*
D03*
X516000Y282000D02*
D03*
X598000Y228000D02*
D03*
X575000Y175000D02*
D03*
X181000Y108000D02*
D03*
X160000Y111000D02*
D03*
X229000Y108000D02*
D03*
X342500Y56800D02*
D03*
X327500D02*
D03*
X280000Y94300D02*
D03*
X323125Y62425D02*
D03*
X231875Y48050D02*
D03*
X177000Y309000D02*
D03*
X229000Y244000D02*
D03*
X78000Y387000D02*
D03*
X74000Y369000D02*
D03*
X66000D02*
D03*
X261000Y180000D02*
D03*
X277000Y244000D02*
D03*
X229000Y268000D02*
D03*
X301000Y260000D02*
D03*
X159000Y296000D02*
D03*
X189000Y260000D02*
D03*
X269000Y284000D02*
D03*
X309000Y180000D02*
D03*
X341000Y196000D02*
D03*
X189000Y196000D02*
D03*
X293000Y156000D02*
D03*
X213000Y212000D02*
D03*
X189000D02*
D03*
X213000Y236000D02*
D03*
X189000Y220000D02*
D03*
X173000Y236000D02*
D03*
X154000Y252000D02*
D03*
X197000Y164000D02*
D03*
X158000Y168000D02*
D03*
X173000Y156000D02*
D03*
X159000Y160000D02*
D03*
X163000Y86000D02*
D03*
X293000Y140000D02*
D03*
X55000Y253000D02*
D03*
X41000Y256000D02*
D03*
X67000Y51000D02*
D03*
X52000Y302000D02*
D03*
X141000Y58000D02*
D03*
X152000Y11000D02*
D03*
X133000Y97000D02*
D03*
X197000Y140000D02*
D03*
X229000Y148000D02*
D03*
X245000D02*
D03*
X213000Y124000D02*
D03*
X608000Y36000D02*
D03*
X64000Y114000D02*
D03*
X58000Y193000D02*
D03*
X51000Y355000D02*
D03*
X613000Y215000D02*
D03*
X90000Y308000D02*
D03*
X77000Y291000D02*
D03*
X504000Y313000D02*
D03*
X508000Y307000D02*
D03*
X536000Y93000D02*
D03*
X600000Y313000D02*
D03*
Y93000D02*
D03*
X492000Y70000D02*
D03*
X365000Y300000D02*
D03*
X548000Y87000D02*
D03*
X556000D02*
D03*
X560000Y93000D02*
D03*
X480000Y148000D02*
D03*
X501000Y28000D02*
D03*
X484000Y152000D02*
D03*
X507000Y28000D02*
D03*
X487000Y250000D02*
D03*
X483000Y310000D02*
D03*
X523000Y372000D02*
D03*
X491000Y254000D02*
D03*
X489000Y310000D02*
D03*
X529000Y372000D02*
D03*
X489000Y90000D02*
D03*
X483000D02*
D03*
X335500Y48050D02*
D03*
X253000Y284000D02*
D03*
X206875Y357800D02*
D03*
X556000Y307000D02*
D03*
X564000Y87000D02*
D03*
X154000Y35000D02*
D03*
Y41000D02*
D03*
X162000Y45250D02*
D03*
X162000Y50750D02*
D03*
X213125Y42200D02*
D03*
X206875D02*
D03*
X619000Y174000D02*
D03*
X624000Y170000D02*
D03*
X141000Y52000D02*
D03*
X100000Y64000D02*
D03*
X337500Y338200D02*
D03*
X169000Y309000D02*
D03*
X173000Y260000D02*
D03*
X296875Y365800D02*
D03*
X303125D02*
D03*
X293000Y228000D02*
D03*
X80000Y235000D02*
D03*
X85000Y232000D02*
D03*
X245000Y212000D02*
D03*
Y172000D02*
D03*
X293000Y164000D02*
D03*
X261000Y212000D02*
D03*
X678000Y195000D02*
D03*
X622000Y364000D02*
D03*
X172000Y94000D02*
D03*
X178000D02*
D03*
X292500Y338200D02*
D03*
X247500Y362800D02*
D03*
X228125Y364800D02*
D03*
X301875Y62425D02*
D03*
D50*
X603500Y237000D02*
Y241500D01*
X598000Y247000D02*
X603500Y241500D01*
X579000Y247000D02*
X598000D01*
X568000Y236000D02*
X579000Y247000D01*
X568000Y224000D02*
Y236000D01*
D54*
X96000Y278500D02*
D03*
X139000D02*
D03*
D55*
X352500Y19300D02*
D03*
X347500D02*
D03*
X342500D02*
D03*
X337500D02*
D03*
X332500D02*
D03*
X327500D02*
D03*
X322500D02*
D03*
X317500D02*
D03*
X312500D02*
D03*
X307500D02*
D03*
X302500D02*
D03*
X297500D02*
D03*
X292500D02*
D03*
X287500D02*
D03*
X282500D02*
D03*
X277500D02*
D03*
X272500D02*
D03*
X267500D02*
D03*
X262500D02*
D03*
X257500D02*
D03*
X252500D02*
D03*
X247500D02*
D03*
X242500D02*
D03*
X237500D02*
D03*
X232500D02*
D03*
X227500D02*
D03*
X222500D02*
D03*
X217500D02*
D03*
X212500D02*
D03*
X207500D02*
D03*
X352500Y76700D02*
D03*
X347500D02*
D03*
X342500D02*
D03*
X337500D02*
D03*
X332500D02*
D03*
X327500D02*
D03*
X322500D02*
D03*
X317500D02*
D03*
X312500D02*
D03*
X307500D02*
D03*
X302500D02*
D03*
X297500D02*
D03*
X292500D02*
D03*
X287500D02*
D03*
X282500D02*
D03*
X277500D02*
D03*
X272500D02*
D03*
X267500D02*
D03*
X262500D02*
D03*
X257500D02*
D03*
X252500D02*
D03*
X247500D02*
D03*
X242500D02*
D03*
X237500D02*
D03*
X232500D02*
D03*
X227500D02*
D03*
X222500D02*
D03*
X217500D02*
D03*
X212500D02*
D03*
X207500D02*
D03*
X352500Y323300D02*
D03*
X347500D02*
D03*
X342500D02*
D03*
X337500D02*
D03*
X332500D02*
D03*
X327500D02*
D03*
X322500D02*
D03*
X317500D02*
D03*
X312500D02*
D03*
X307500D02*
D03*
X302500D02*
D03*
X297500D02*
D03*
X292500D02*
D03*
X287500D02*
D03*
X282500D02*
D03*
X277500D02*
D03*
X272500D02*
D03*
X267500D02*
D03*
X262500D02*
D03*
X257500D02*
D03*
X252500D02*
D03*
X247500D02*
D03*
X242500D02*
D03*
X237500D02*
D03*
X232500D02*
D03*
X227500D02*
D03*
X222500D02*
D03*
X217500D02*
D03*
X212500D02*
D03*
X207500D02*
D03*
X352500Y380700D02*
D03*
X347500D02*
D03*
X342500D02*
D03*
X337500D02*
D03*
X332500D02*
D03*
X327500D02*
D03*
X322500D02*
D03*
X317500D02*
D03*
X312500D02*
D03*
X307500D02*
D03*
X302500D02*
D03*
X297500D02*
D03*
X292500D02*
D03*
X287500D02*
D03*
X282500D02*
D03*
X277500D02*
D03*
X272500D02*
D03*
X267500D02*
D03*
X262500D02*
D03*
X257500D02*
D03*
X252500D02*
D03*
X247500D02*
D03*
X242500D02*
D03*
X237500D02*
D03*
X232500D02*
D03*
X227500D02*
D03*
X222500D02*
D03*
X217500D02*
D03*
X212500D02*
D03*
X207500D02*
D03*
D56*
X360650Y48000D02*
D03*
X199350D02*
D03*
X360650Y352000D02*
D03*
X199350D02*
D03*
D57*
X311750Y48000D02*
D03*
X248250D02*
D03*
X311750Y352000D02*
D03*
X248250D02*
D03*
D58*
X148000Y207500D02*
D03*
Y188500D02*
D03*
X147000Y167500D02*
D03*
Y148500D02*
D03*
X168000Y279500D02*
D03*
Y298500D02*
D03*
D59*
X319500Y104000D02*
D03*
X300500D02*
D03*
X265500Y295000D02*
D03*
X284500D02*
D03*
X97500Y192000D02*
D03*
X116500D02*
D03*
X583500Y217000D02*
D03*
X602500D02*
D03*
D60*
X97192Y81000D02*
D03*
X72808D02*
D03*
D61*
X76500Y16500D02*
D03*
Y29500D02*
D03*
X95500Y23000D02*
D03*
X17500Y139500D02*
D03*
Y152500D02*
D03*
X36500Y146000D02*
D03*
X17500Y112500D02*
D03*
Y125500D02*
D03*
X36500Y119000D02*
D03*
X136500Y29500D02*
D03*
Y16500D02*
D03*
X117500Y23000D02*
D03*
D62*
X25000Y315015D02*
D03*
D63*
X38600Y334500D02*
D03*
Y329500D02*
D03*
Y324500D02*
D03*
Y319500D02*
D03*
Y314500D02*
D03*
Y309500D02*
D03*
X11400Y334500D02*
D03*
Y329500D02*
D03*
Y324500D02*
D03*
Y319500D02*
D03*
Y314500D02*
D03*
Y309500D02*
D03*
D64*
X17300Y329300D02*
D03*
D65*
X29500D02*
D03*
D66*
X53000Y200000D02*
D03*
X647000D02*
D03*
D67*
X77000Y217500D02*
D03*
Y212500D02*
D03*
Y207500D02*
D03*
Y202500D02*
D03*
Y197500D02*
D03*
Y192500D02*
D03*
Y187500D02*
D03*
Y182500D02*
D03*
X29000D02*
D03*
Y187500D02*
D03*
Y192500D02*
D03*
Y197500D02*
D03*
Y202500D02*
D03*
Y207500D02*
D03*
Y212500D02*
D03*
Y217500D02*
D03*
X623000Y182500D02*
D03*
Y187500D02*
D03*
Y192500D02*
D03*
Y197500D02*
D03*
Y202500D02*
D03*
Y207500D02*
D03*
Y212500D02*
D03*
Y217500D02*
D03*
X671000D02*
D03*
Y212500D02*
D03*
Y207500D02*
D03*
Y202500D02*
D03*
Y197500D02*
D03*
Y192500D02*
D03*
Y187500D02*
D03*
Y182500D02*
D03*
D68*
X70500Y176000D02*
D03*
X65500D02*
D03*
X60500D02*
D03*
X55500D02*
D03*
X50500D02*
D03*
X45500D02*
D03*
X40500D02*
D03*
X35500D02*
D03*
Y224000D02*
D03*
X40500D02*
D03*
X45500D02*
D03*
X50500D02*
D03*
X55500D02*
D03*
X60500D02*
D03*
X65500D02*
D03*
X70500D02*
D03*
X629500D02*
D03*
X634500D02*
D03*
X639500D02*
D03*
X644500D02*
D03*
X649500D02*
D03*
X654500D02*
D03*
X659500D02*
D03*
X664500D02*
D03*
Y176000D02*
D03*
X659500D02*
D03*
X654500D02*
D03*
X649500D02*
D03*
X644500D02*
D03*
X639500D02*
D03*
X634500D02*
D03*
X629500D02*
D03*
D69*
X116000Y153500D02*
D03*
Y110500D02*
D03*
D70*
X46500Y77500D02*
D03*
Y58500D02*
D03*
X19500Y77500D02*
D03*
Y68000D02*
D03*
Y58500D02*
D03*
D71*
X646500Y60500D02*
D03*
X637000D02*
D03*
X627500D02*
D03*
X646500Y87500D02*
D03*
X627500D02*
D03*
X637000D02*
D03*
D72*
X201000Y196000D02*
X213000D01*
X197000Y192000D02*
X201000Y196000D01*
X267000Y134000D02*
Y134260D01*
X261000Y140260D02*
X267000Y134260D01*
X261000Y140260D02*
Y148000D01*
X143000Y350500D02*
X163000D01*
X294071Y186000D02*
X301000Y179071D01*
X293000Y186000D02*
X294071D01*
X301000Y174500D02*
Y179071D01*
X333000Y148000D02*
X340000Y141000D01*
X277000Y140000D02*
X283000D01*
X289000Y134000D01*
X269000Y140000D02*
X269889D01*
X275889Y134000D01*
X277000D01*
X279000D01*
D73*
X312500Y359050D02*
X312500Y359050D01*
X312500Y359050D02*
Y380700D01*
X352500Y323300D02*
Y341300D01*
X352750Y341550D01*
X347500Y323300D02*
Y336200D01*
X345500Y338200D02*
X347500Y336200D01*
X342500Y323300D02*
Y335200D01*
X345500Y338200D01*
X352500Y369325D02*
X355500Y366325D01*
X352500Y369325D02*
Y380700D01*
X347500Y366325D02*
Y380700D01*
X347500Y366325D02*
X347500Y366325D01*
X217500Y19300D02*
Y37500D01*
X248250Y48000D02*
X248250Y48000D01*
X217500Y37500D02*
X219938Y39938D01*
Y44938D01*
X223000Y48000D01*
X248250D01*
X232500Y93500D02*
X234000Y95000D01*
X232500Y76700D02*
Y93500D01*
X217500Y91075D02*
X217500Y91075D01*
X217500Y76700D02*
Y91075D01*
D74*
X11400Y314500D02*
X24485D01*
X25000Y315015D01*
X272000Y245000D02*
Y251000D01*
X267000Y256000D02*
X267350Y255650D01*
X284350D01*
X287000Y253000D01*
X267350Y255650D02*
X272000Y251000D01*
X541001Y198500D02*
X544500Y201999D01*
Y205498D01*
X541001Y208997D01*
X528755Y205498D02*
X534003D01*
X535753Y203748D01*
Y200249D01*
X534003Y198500D01*
X528755D01*
X525256D02*
X521757Y201999D01*
Y205498D01*
X525256Y208997D01*
X499015D02*
X506012D01*
Y203748D01*
X502514D01*
X506012D01*
Y198500D01*
X488518Y208997D02*
X495516D01*
Y198500D01*
X488518D01*
X495516Y203748D02*
X492017D01*
X485019Y208997D02*
Y198500D01*
X479771D01*
X478022Y200249D01*
Y207247D01*
X479771Y208997D01*
X485019D01*
X467525D02*
X474523D01*
Y198500D01*
X467525D01*
X474523Y203748D02*
X471024D01*
X464026Y208997D02*
Y201999D01*
X460527Y198500D01*
X457028Y201999D01*
Y208997D01*
X446532D02*
X453530D01*
Y198500D01*
X446532D01*
X453530Y203748D02*
X450031D01*
X443033Y208997D02*
Y198500D01*
X436035D01*
X415042D02*
X422040D01*
X415042Y205498D01*
Y207247D01*
X416791Y208997D01*
X420290D01*
X422040Y207247D01*
X411543D02*
X409794Y208997D01*
X406295D01*
X404545Y207247D01*
Y200249D01*
X406295Y198500D01*
X409794D01*
X411543Y200249D01*
Y207247D01*
X401046Y198500D02*
X397548D01*
X399297D01*
Y208997D01*
X401046Y207247D01*
X392299D02*
X390550Y208997D01*
X387051D01*
X385302Y207247D01*
Y205498D01*
X387051Y203748D01*
X388800D01*
X387051D01*
X385302Y201999D01*
Y200249D01*
X387051Y198500D01*
X390550D01*
X392299Y200249D01*
D75*
X52000Y302000D02*
X54500Y304500D01*
X60000D01*
X70500Y291000D02*
X77000D01*
X69000Y289500D02*
X70500Y291000D01*
X65000Y267000D02*
Y270500D01*
X69000Y274500D01*
D76*
X271000Y176000D02*
X283000D01*
X289000Y224000D02*
X294657D01*
X294657Y224000D01*
X298657Y220000D02*
X299000D01*
X294657Y224000D02*
X298657Y220000D01*
X287000Y226000D02*
X289000Y224000D01*
M02*
