%FSLAX44Y44*%
%MOMM*%
G71*
G01*
G75*
G04 Layer_Physical_Order=1*
G04 Layer_Color=255*
%ADD10C,0.3500*%
%ADD11R,1.6000X3.9000*%
%ADD12R,5.2000X5.2000*%
%ADD13R,0.6000X0.2500*%
%ADD14R,0.2500X0.6000*%
%ADD15R,0.5000X0.6000*%
%ADD16R,0.2500X0.5000*%
%ADD17R,2.4000X0.8400*%
%ADD18R,3.4000X4.0000*%
%ADD19R,0.9000X0.4500*%
%ADD20R,0.6000X0.5000*%
%ADD21R,0.5000X0.5000*%
%ADD22R,0.5000X0.5000*%
%ADD23R,0.8000X0.8000*%
%ADD24R,0.7500X1.4000*%
%ADD25R,0.8000X0.8000*%
%ADD26R,1.8288X3.4290*%
%ADD27R,3.4290X1.8288*%
%ADD28R,0.9000X1.6000*%
%ADD29R,1.6000X0.9000*%
%ADD30R,1.2000X0.5800*%
%ADD31C,1.0160*%
%ADD32C,0.4000*%
%ADD33C,0.6350*%
%ADD34R,0.7000X0.9000*%
%ADD35C,0.0930*%
%ADD36C,0.3000*%
%ADD37C,0.0900*%
%ADD38C,0.2500*%
%ADD39C,0.4000*%
%ADD40C,0.1010*%
%ADD41C,0.2000*%
%ADD42C,0.5000*%
%ADD43C,0.7000*%
%ADD44C,5.0000*%
%ADD45C,0.2700*%
%ADD46C,0.4500*%
G36*
X223000Y173000D02*
X223000D01*
X224000Y172000D01*
X226000Y170000D01*
X234000D01*
X235000Y169000D01*
X235000D01*
Y167000D01*
X234000Y166000D01*
X224000D01*
X219000Y171000D01*
Y173000D01*
X220000Y174000D01*
X222000D01*
X223000Y173000D01*
D02*
G37*
G36*
X298000Y242000D02*
X306000D01*
X307000Y241000D01*
Y225000D01*
X310000Y222000D01*
Y218000D01*
X306000Y214000D01*
Y210000D01*
X310000Y206000D01*
Y202000D01*
X307000Y199000D01*
Y193000D01*
X310000Y190000D01*
Y186000D01*
X305000Y181000D01*
Y179000D01*
X310000Y174000D01*
Y170000D01*
X306000Y166000D01*
X303000D01*
X302000Y167000D01*
Y232000D01*
X294000Y240000D01*
X292000D01*
X290000Y238000D01*
X280000D01*
X279000Y239000D01*
Y241000D01*
X280000Y242000D01*
X288000D01*
X291000Y245000D01*
X295000D01*
X298000Y242000D01*
D02*
G37*
G36*
X235000Y177000D02*
X235000D01*
Y175000D01*
X234000Y174000D01*
X232000D01*
X230000Y176000D01*
X228000D01*
X226000Y174000D01*
X224000D01*
X223000Y175000D01*
Y177000D01*
X227000Y181000D01*
X231000D01*
X235000Y177000D01*
D02*
G37*
G36*
X250000Y170000D02*
X274000D01*
X276000Y168000D01*
X278000D01*
X280000Y170000D01*
X290000D01*
X292000Y168000D01*
X294000D01*
X296000Y170000D01*
X298000D01*
X299000Y169000D01*
Y167000D01*
X295000Y163000D01*
X291000D01*
X288000Y166000D01*
X282000D01*
X279000Y163000D01*
X275000D01*
X272000Y166000D01*
X266000D01*
X263000Y163000D01*
X259000D01*
X256000Y166000D01*
X248000D01*
X246000Y168000D01*
X244000D01*
X242000Y166000D01*
X240000D01*
X239000Y167000D01*
Y169000D01*
X243000Y173000D01*
X247000D01*
X250000Y170000D01*
D02*
G37*
G36*
X634000Y194000D02*
Y180000D01*
X643000Y171000D01*
Y160000D01*
X634000Y151000D01*
Y122000D01*
X613000D01*
Y152000D01*
X609096Y155904D01*
X609314Y157000D01*
X609061Y158268D01*
X608343Y159343D01*
X607268Y160061D01*
X606000Y160314D01*
X604904Y160096D01*
X597000Y168000D01*
Y197000D01*
X631000D01*
X634000Y194000D01*
D02*
G37*
G36*
X211000Y161000D02*
Y150572D01*
X210657Y150343D01*
X209939Y149268D01*
X209686Y148000D01*
X209939Y146732D01*
X210657Y145657D01*
X211000Y145428D01*
Y142000D01*
X210000Y141000D01*
Y139000D01*
X211000Y138000D01*
Y135000D01*
X210000Y134000D01*
X202000D01*
Y134000D01*
X198000Y130000D01*
Y128296D01*
X197941Y128000D01*
X198000Y127704D01*
Y126000D01*
X199000Y125000D01*
Y123000D01*
X194000Y118000D01*
X192000D01*
X190000Y120000D01*
Y123000D01*
X187000Y126000D01*
X168000D01*
X167000Y127000D01*
Y137000D01*
X168000Y138000D01*
X170000D01*
X171000Y137000D01*
X175000D01*
X180000Y142000D01*
Y143705D01*
X180059Y144000D01*
X180000Y144295D01*
Y146000D01*
X179000Y147000D01*
Y149000D01*
X180000Y150000D01*
X182000D01*
X185000Y147000D01*
X193885D01*
X193939Y146732D01*
X194657Y145657D01*
X195732Y144939D01*
X197000Y144686D01*
X198268Y144939D01*
X199343Y145657D01*
X200061Y146732D01*
X200314Y148000D01*
X200061Y149268D01*
X199343Y150343D01*
X199039Y150546D01*
Y153039D01*
X200000Y154000D01*
X206000D01*
X207000Y155000D01*
Y161000D01*
X208000Y162000D01*
X210000D01*
X211000Y161000D01*
D02*
G37*
G36*
X315000Y169000D02*
Y151000D01*
X314000Y150000D01*
X312000D01*
X304000Y158000D01*
X298000D01*
X295000Y155000D01*
X291000D01*
X288000Y158000D01*
X282000D01*
X279000Y155000D01*
X275000D01*
X272000Y158000D01*
X266000D01*
X263000Y155000D01*
X259000D01*
X256000Y158000D01*
X248000D01*
X246000Y160000D01*
X244000D01*
X242000Y158000D01*
X234000D01*
X231000Y155000D01*
X227000D01*
X219000Y163000D01*
Y165000D01*
X223000D01*
X226000Y162000D01*
X240000D01*
X243000Y165000D01*
X247000D01*
X250000Y162000D01*
X258000D01*
X260000Y160000D01*
X262000D01*
X264000Y162000D01*
X274000D01*
X276000Y160000D01*
X278000D01*
X280000Y162000D01*
X290000D01*
X292000Y160000D01*
X294000D01*
X296000Y162000D01*
X304000D01*
X312000Y170000D01*
X314000D01*
X315000Y169000D01*
D02*
G37*
G36*
Y185000D02*
Y175000D01*
X314000Y174000D01*
X312000D01*
X308000Y178000D01*
X308000D01*
Y182000D01*
X312000Y186000D01*
X314000D01*
X315000Y185000D01*
D02*
G37*
G36*
X75000Y193000D02*
Y189000D01*
Y180000D01*
X34000D01*
Y193000D01*
X36000Y195000D01*
X73000D01*
X75000Y193000D01*
D02*
G37*
G36*
X661000Y181000D02*
X648000D01*
X647000Y182000D01*
Y195000D01*
Y196000D01*
X648000Y197000D01*
X661000D01*
Y181000D01*
D02*
G37*
G36*
X266000Y186000D02*
X274000D01*
Y186000D01*
X276000Y184000D01*
X278000D01*
Y184000D01*
X280000Y186000D01*
X282000D01*
X283000Y185000D01*
Y183000D01*
X282000Y182000D01*
X279000Y179000D01*
X275000D01*
X272000Y182000D01*
X264000D01*
X262000Y184000D01*
X260000D01*
X258000Y182000D01*
X248000D01*
X246000Y184000D01*
X244000D01*
X242000Y182000D01*
X232000D01*
X231000Y183000D01*
X230000Y184000D01*
X228000D01*
X226000Y182000D01*
X224000D01*
X223000Y183000D01*
Y184000D01*
Y185000D01*
X227000Y189000D01*
X231000D01*
X234000Y186000D01*
X240000D01*
X243000Y189000D01*
X247000D01*
X250000Y186000D01*
X256000D01*
X259000Y189000D01*
X263000D01*
X266000Y186000D01*
D02*
G37*
G36*
X578000Y181000D02*
X575262Y178262D01*
X575000Y178314D01*
X573732Y178061D01*
X572657Y177343D01*
X571939Y176268D01*
X571686Y175000D01*
X571738Y174738D01*
X570000Y173000D01*
X560000D01*
X559000Y174000D01*
Y191000D01*
X561000Y193000D01*
X564000Y196000D01*
X578000D01*
Y181000D01*
D02*
G37*
G36*
X117000Y187000D02*
Y178000D01*
Y177000D01*
X115000Y175000D01*
X102000D01*
X99000Y178000D01*
X97000Y180000D01*
X93000D01*
Y189000D01*
X115000D01*
X117000Y187000D01*
D02*
G37*
G36*
X299000Y177000D02*
X299000D01*
Y175000D01*
X295000Y171000D01*
X291000D01*
X288000Y174000D01*
X280000D01*
X279000Y175000D01*
Y177000D01*
X280000Y178000D01*
X290000D01*
X292000Y176000D01*
X294000D01*
X296000Y178000D01*
X298000D01*
X299000Y177000D01*
D02*
G37*
G36*
X266000Y178000D02*
X274000D01*
X279000Y173000D01*
Y171000D01*
X275000D01*
X272000Y174000D01*
X248000D01*
X246000Y176000D01*
X244000D01*
X242000Y174000D01*
X240000D01*
X239000Y175000D01*
Y177000D01*
X243000Y181000D01*
X247000D01*
X250000Y178000D01*
X256000D01*
X259000Y181000D01*
X263000D01*
X266000Y178000D01*
D02*
G37*
G36*
X136000Y172000D02*
X137000Y171000D01*
Y147000D01*
X136000Y146000D01*
X135000D01*
X133000Y144000D01*
Y133000D01*
X135000Y131000D01*
X136000D01*
X137000Y130000D01*
Y110000D01*
X133000Y106000D01*
X120000D01*
Y172000D01*
X136000D01*
Y172000D01*
D02*
G37*
G36*
X64000Y47000D02*
X73000D01*
X74000Y46000D01*
Y26000D01*
X73000Y25000D01*
X63000D01*
X54000Y34000D01*
Y41000D01*
X41000Y54000D01*
X8000D01*
Y61000D01*
X23000D01*
X27000Y65000D01*
X46000D01*
X64000Y47000D01*
D02*
G37*
G36*
X645000Y55000D02*
Y38000D01*
X641000Y34000D01*
X619000D01*
X613000Y40000D01*
Y43000D01*
X620000Y50000D01*
X623000D01*
X624000Y51000D01*
Y61000D01*
X639000D01*
X645000Y55000D01*
D02*
G37*
G36*
X238000Y45000D02*
X236000Y43000D01*
X221000D01*
Y47000D01*
X226000D01*
X230000Y51000D01*
X234000D01*
X236000Y53000D01*
X238000D01*
Y45000D01*
D02*
G37*
G36*
X649000Y15000D02*
Y7000D01*
X648000Y6000D01*
X627000D01*
Y16000D01*
X648000D01*
X649000Y15000D01*
D02*
G37*
G36*
X115000Y49000D02*
X117000Y47000D01*
Y5000D01*
X100000D01*
Y45000D01*
X109000D01*
X113000Y49000D01*
Y57000D01*
X115000D01*
Y49000D01*
D02*
G37*
G36*
X153000Y51000D02*
X151000D01*
X149000Y49000D01*
X146000Y46000D01*
Y36000D01*
X155000Y27000D01*
Y21000D01*
X146000Y12000D01*
Y5000D01*
X129000D01*
Y49000D01*
X126000Y52000D01*
X118000D01*
Y57000D01*
X125000D01*
X128000Y60000D01*
X153000D01*
Y51000D01*
D02*
G37*
G36*
X79000Y13000D02*
Y6000D01*
X51000D01*
Y13000D01*
X53000Y15000D01*
X77000D01*
X79000Y13000D01*
D02*
G37*
G36*
X153000Y66000D02*
X129000D01*
Y76000D01*
X153000D01*
Y66000D01*
D02*
G37*
G36*
X42000Y148000D02*
Y88000D01*
X32291Y77806D01*
X31881Y77887D01*
X31303Y78055D01*
X31061Y79268D01*
X30343Y80343D01*
X29268Y81061D01*
X28000Y81314D01*
X26732Y81061D01*
X25657Y80343D01*
X24939Y79268D01*
X24686Y78000D01*
X24939Y76732D01*
X25657Y75657D01*
X26732Y74939D01*
X28000Y74686D01*
X28005Y74687D01*
X28487Y73811D01*
X22000Y67000D01*
X14000D01*
Y117000D01*
X12000Y119000D01*
Y121640D01*
X12061Y121732D01*
X12314Y123000D01*
X12061Y124268D01*
X12000Y124360D01*
Y147640D01*
X12061Y147732D01*
X12314Y149000D01*
X12061Y150268D01*
X12000Y150360D01*
Y157000D01*
X13000Y158000D01*
X32000D01*
X42000Y148000D01*
D02*
G37*
G36*
X131000Y94000D02*
Y80000D01*
X130000Y79000D01*
X126000D01*
X124000Y81000D01*
X119000D01*
X115000Y77000D01*
Y71000D01*
X108000D01*
Y95000D01*
X111000Y98000D01*
X127000D01*
X131000Y94000D01*
D02*
G37*
G36*
X96000Y173000D02*
X97000Y172000D01*
X102000D01*
Y106000D01*
X92000D01*
X89262Y108738D01*
X89314Y109000D01*
X89061Y110268D01*
X88343Y111343D01*
X87268Y112061D01*
X86000Y112314D01*
X84732Y112061D01*
X83657Y111343D01*
X83428Y111000D01*
X80000D01*
X68000Y123000D01*
Y168000D01*
X77000Y177000D01*
Y179000D01*
X80000Y182000D01*
X87000D01*
X96000Y173000D01*
D02*
G37*
G36*
X94000Y100000D02*
X95000Y99000D01*
Y87000D01*
X90000Y82000D01*
X89000Y81000D01*
Y71000D01*
X83000D01*
Y79000D01*
X80000Y82000D01*
X80000D01*
Y100000D01*
X81000Y101000D01*
X93000D01*
X94000Y100000D01*
D02*
G37*
G36*
X694000Y155000D02*
Y120000D01*
X676000Y102000D01*
X673000D01*
X670000Y99000D01*
Y96000D01*
X641000Y67000D01*
X630000D01*
Y100000D01*
X635000Y105000D01*
X641000D01*
X644000Y108000D01*
Y114000D01*
X651000Y121000D01*
Y148000D01*
X660000Y157000D01*
X692000D01*
X694000Y155000D01*
D02*
G37*
G36*
X692000Y67000D02*
X677000D01*
X675000Y69000D01*
Y85000D01*
X677000Y87000D01*
X692000D01*
Y67000D01*
D02*
G37*
G36*
X73000Y88000D02*
X75000D01*
X76000Y87000D01*
Y68000D01*
X64000D01*
Y89000D01*
X66000Y91000D01*
X70000D01*
X73000Y88000D01*
D02*
G37*
G36*
X660000Y346000D02*
X692000D01*
Y339000D01*
X677000D01*
X673000Y335000D01*
X647000D01*
X641000Y341000D01*
Y347000D01*
X638000Y350000D01*
X631000D01*
X628000Y353000D01*
X617000D01*
X613000Y357000D01*
Y369000D01*
X615000Y371000D01*
X635000D01*
X660000Y346000D01*
D02*
G37*
G36*
X398000Y359000D02*
Y336000D01*
X390000Y328000D01*
Y323000D01*
X387000Y320000D01*
X378000D01*
X375000Y323000D01*
Y367000D01*
X376000Y368000D01*
X389000D01*
X398000Y359000D01*
D02*
G37*
G36*
X266000Y234000D02*
X274000D01*
X275000Y233000D01*
Y231000D01*
X274000Y230000D01*
X264000D01*
X262000Y232000D01*
X260000D01*
X258000Y230000D01*
X248000D01*
X246000Y232000D01*
X244000D01*
X242000Y230000D01*
X232000D01*
X230000Y232000D01*
X228000D01*
X226000Y230000D01*
X224000D01*
X223000Y231000D01*
Y233000D01*
X227000Y237000D01*
Y237000D01*
X231000D01*
X234000Y234000D01*
X240000D01*
X243000Y237000D01*
Y237000D01*
X247000D01*
X250000Y234000D01*
X256000D01*
X259000Y237000D01*
Y237000D01*
X263000D01*
X266000Y234000D01*
D02*
G37*
G36*
X76000Y370000D02*
Y366000D01*
X73000Y363000D01*
Y350000D01*
X76000Y347000D01*
Y339000D01*
X57000D01*
X56000Y340000D01*
Y370000D01*
X57000Y371000D01*
X75000D01*
X76000Y370000D01*
D02*
G37*
G36*
X245000D02*
X240000Y365000D01*
Y358000D01*
X244000Y354000D01*
Y351000D01*
X240000D01*
X237000Y354000D01*
X233000D01*
X230000Y351000D01*
X226000D01*
Y354000D01*
X232000Y360000D01*
X234000Y362000D01*
X235000Y363000D01*
Y366000D01*
X239000Y370000D01*
Y376000D01*
X245000D01*
Y370000D01*
D02*
G37*
G36*
X224000Y244000D02*
X226000D01*
X227000Y245000D01*
X231000D01*
X234000Y242000D01*
X240000D01*
X243000Y245000D01*
X247000D01*
X250000Y242000D01*
X256000D01*
X259000Y245000D01*
X263000D01*
X266000Y242000D01*
X272000D01*
X275000Y245000D01*
X279000D01*
Y243000D01*
X277000Y241000D01*
Y239000D01*
X282000Y234000D01*
X288000D01*
Y234000D01*
X291000Y237000D01*
X295000D01*
X299000Y233000D01*
Y231000D01*
X299000D01*
X298000Y230000D01*
X296000D01*
X294000Y232000D01*
X292000D01*
X290000Y230000D01*
X280000D01*
X272000Y238000D01*
X264000D01*
X262000Y240000D01*
X260000D01*
X258000Y238000D01*
X248000D01*
X246000Y240000D01*
X244000D01*
X242000Y238000D01*
X232000D01*
X230000Y240000D01*
X228000D01*
X226000Y238000D01*
X224000D01*
X215000Y247000D01*
Y249000D01*
X216000Y250000D01*
X218000D01*
X224000Y244000D01*
D02*
G37*
G36*
X342000Y351000D02*
X336000D01*
X335000Y350000D01*
X320000D01*
X319000Y351000D01*
Y354000D01*
X322000Y357000D01*
X330000D01*
Y357000D01*
X335000Y362000D01*
X336000Y363000D01*
Y366000D01*
Y367000D01*
X342000D01*
Y351000D01*
D02*
G37*
G36*
X70000Y331293D02*
X70000Y329350D01*
Y278000D01*
X70000Y278000D01*
X70000Y278000D01*
X70000Y278000D01*
X33000D01*
Y300000D01*
X44000Y311000D01*
X56000Y324000D01*
X57000Y325000D01*
X59000D01*
X62000Y328000D01*
Y331000D01*
X62857Y331857D01*
X63268Y331939D01*
X63360Y332000D01*
X69293D01*
X70000Y331293D01*
D02*
G37*
G36*
X636000Y313000D02*
X621000D01*
X619000Y315000D01*
Y329000D01*
Y331000D01*
X621000Y333000D01*
X636000D01*
Y313000D01*
D02*
G37*
G36*
X33000Y332000D02*
Y314000D01*
X32000Y313000D01*
X8000D01*
Y333000D01*
X32000D01*
X33000Y332000D01*
D02*
G37*
G36*
X275000Y249000D02*
X275000D01*
Y247000D01*
X274000Y246000D01*
X272000D01*
X267000Y251000D01*
X265296D01*
X265000Y251059D01*
X264704Y251000D01*
X263000D01*
X260000Y248000D01*
X258000Y246000D01*
X248000D01*
X246000Y248000D01*
X244000D01*
Y248000D01*
X242000Y246000D01*
X240000D01*
X239000Y247000D01*
Y248000D01*
Y249000D01*
X243000Y253000D01*
X247000D01*
X250000Y250000D01*
X256000D01*
X259000Y253000D01*
X264705D01*
X265000Y252941D01*
X265295Y253000D01*
X271000D01*
X275000Y249000D01*
D02*
G37*
G36*
X686000Y283000D02*
X688000Y281000D01*
Y243000D01*
X687000Y242000D01*
X668000D01*
X658000Y252000D01*
Y312000D01*
X678000Y333000D01*
X686000D01*
Y283000D01*
D02*
G37*
G36*
X315000Y249000D02*
Y241000D01*
X318000Y238000D01*
Y234000D01*
X314000Y230000D01*
Y226000D01*
X318000Y222000D01*
Y218000D01*
X314000Y214000D01*
X312000D01*
X311000Y215000D01*
X311000D01*
Y217000D01*
X313000Y219000D01*
Y221000D01*
X310000Y224000D01*
Y242000D01*
X307000Y245000D01*
X297000D01*
X294000Y248000D01*
X292000D01*
X290000Y246000D01*
X288000D01*
X287000Y247000D01*
Y249000D01*
X291000Y253000D01*
X295000D01*
X299000Y249000D01*
X303000D01*
X307000Y253000D01*
X311000D01*
X315000Y249000D01*
D02*
G37*
G36*
X366000Y368000D02*
Y365000D01*
X359000Y358000D01*
Y320000D01*
X344000D01*
Y336000D01*
X341000Y339000D01*
X340654D01*
X340561Y339468D01*
X339843Y340543D01*
X338768Y341261D01*
X337500Y341514D01*
X336232Y341261D01*
X336000Y341107D01*
Y347000D01*
X343000D01*
X344000Y348000D01*
Y370000D01*
X343000Y371000D01*
X336000D01*
Y377000D01*
X357000D01*
X366000Y368000D01*
D02*
G37*
G36*
X299000Y225000D02*
X299000D01*
Y223000D01*
X298000Y222000D01*
X296000D01*
X294000Y224000D01*
X292000D01*
Y224000D01*
X290000Y222000D01*
X282000D01*
X279000Y219000D01*
X275000D01*
X274000Y220000D01*
X272000Y222000D01*
X264000D01*
X262000Y224000D01*
Y224000D01*
X260000D01*
X258000Y222000D01*
Y222000D01*
X248000D01*
X246000Y224000D01*
X244000D01*
X242000Y222000D01*
X232000D01*
X230000Y224000D01*
Y224000D01*
X228000D01*
X226000Y222000D01*
Y222000D01*
X224000D01*
X223000Y223000D01*
Y225000D01*
X227000Y229000D01*
X231000D01*
X234000Y226000D01*
X240000D01*
X243000Y229000D01*
X247000D01*
X250000Y226000D01*
X256000D01*
X259000Y229000D01*
X263000D01*
X266000Y226000D01*
X274000D01*
X276000Y224000D01*
X278000D01*
X280000Y226000D01*
X288000D01*
X291000Y229000D01*
X295000D01*
X299000Y225000D01*
D02*
G37*
G36*
X266000Y202000D02*
X274000D01*
X276000Y200000D01*
X278000D01*
X280000Y202000D01*
X282000D01*
X283000Y201000D01*
Y199000D01*
X279000Y195000D01*
Y195000D01*
X275000D01*
X272000Y198000D01*
X264000D01*
X262000Y200000D01*
X260000D01*
X258000Y198000D01*
X248000D01*
X246000Y200000D01*
X244000D01*
X242000Y198000D01*
X232000D01*
X230000Y200000D01*
X228000D01*
X226000Y198000D01*
X224000D01*
X223000Y199000D01*
Y201000D01*
X227000Y205000D01*
X231000D01*
X234000Y202000D01*
X240000D01*
X243000Y205000D01*
X247000D01*
X250000Y202000D01*
X256000D01*
X259000Y205000D01*
X263000D01*
X266000Y202000D01*
D02*
G37*
G36*
X634000Y206000D02*
X631000Y203000D01*
X618115D01*
X618061Y203268D01*
X617343Y204343D01*
X616268Y205061D01*
X615000Y205314D01*
X613732Y205061D01*
X612657Y204343D01*
X611939Y203268D01*
X611885Y203000D01*
X597000D01*
Y223000D01*
X598857Y224857D01*
X599268Y224939D01*
X600343Y225657D01*
X601061Y226732D01*
X601314Y228000D01*
X601096Y229096D01*
X613000Y241000D01*
Y278000D01*
X634000D01*
Y206000D01*
D02*
G37*
G36*
X649000Y393000D02*
Y386000D01*
X648000Y385000D01*
Y384000D01*
X627000D01*
Y394000D01*
X648000D01*
X649000Y393000D01*
D02*
G37*
G36*
X299000Y209000D02*
Y199000D01*
X298000Y198000D01*
X296000D01*
X294000Y200000D01*
X292000D01*
X290000Y198000D01*
X288000D01*
X287000Y199000D01*
Y209000D01*
X288000Y210000D01*
X291000Y213000D01*
X295000D01*
X299000Y209000D01*
D02*
G37*
G36*
X319000Y205000D02*
Y203000D01*
X314000Y198000D01*
Y194000D01*
X315000Y193000D01*
Y191000D01*
X314000Y190000D01*
X312000D01*
X309000Y193000D01*
Y199000D01*
X316000Y206000D01*
X318000D01*
X319000Y205000D01*
D02*
G37*
G36*
X299000Y193000D02*
Y183000D01*
X295000Y179000D01*
X291000D01*
X283000Y187000D01*
X282199D01*
X282000Y187082D01*
X280000D01*
X279801Y187000D01*
X275000D01*
X271000Y191000D01*
Y193000D01*
X272000Y194000D01*
X274000D01*
X276000Y192000D01*
X278000D01*
X280000Y194000D01*
X288000D01*
X291000Y197000D01*
Y197000D01*
X295000D01*
X299000Y193000D01*
D02*
G37*
G36*
X250000Y194000D02*
X258000D01*
X259000Y193000D01*
Y191000D01*
X258000Y190000D01*
X248000D01*
X246000Y192000D01*
X244000D01*
X242000Y190000D01*
X232000D01*
X230000Y192000D01*
X228000D01*
X226000Y190000D01*
X224000D01*
X223000Y191000D01*
Y193000D01*
X227000Y197000D01*
Y197000D01*
X231000D01*
X234000Y194000D01*
X240000D01*
X243000Y197000D01*
Y197000D01*
X247000D01*
X250000Y194000D01*
D02*
G37*
G36*
X109000Y220000D02*
Y211000D01*
X87572D01*
X87343Y211343D01*
X86268Y212061D01*
X85000Y212314D01*
X83732Y212061D01*
X82657Y211343D01*
X82428Y211000D01*
X34000D01*
X33000Y212000D01*
Y247000D01*
X82000D01*
X109000Y220000D01*
D02*
G37*
G36*
X299000Y217000D02*
X299000D01*
Y215000D01*
X298000Y214000D01*
X296000D01*
X294000Y216000D01*
X292000D01*
X290000Y214000D01*
X282000D01*
X279000Y211000D01*
X275000D01*
X272000Y214000D01*
X264000D01*
X262000Y216000D01*
X260000D01*
X258000Y214000D01*
X248000D01*
X246000Y216000D01*
X244000D01*
X242000Y214000D01*
X232000D01*
X230000Y216000D01*
X228000D01*
X226000Y214000D01*
X224000D01*
X223000Y215000D01*
Y217000D01*
X227000Y221000D01*
X231000D01*
X234000Y218000D01*
X240000D01*
X243000Y221000D01*
X247000D01*
X250000Y218000D01*
X256000D01*
X259000Y221000D01*
X263000D01*
X266000Y218000D01*
X274000D01*
X276000Y216000D01*
X278000D01*
X280000Y218000D01*
X288000D01*
X291000Y221000D01*
X295000D01*
X299000Y217000D01*
D02*
G37*
G36*
X73000Y393000D02*
Y384000D01*
X53000D01*
X51000Y386000D01*
Y392000D01*
X53000Y394000D01*
X73000D01*
Y393000D01*
D02*
G37*
G36*
X266000Y210000D02*
X274000D01*
X276000Y208000D01*
Y208000D01*
X278000D01*
X280000Y210000D01*
Y210000D01*
X282000D01*
X283000Y209000D01*
Y209000D01*
Y207000D01*
X279000Y203000D01*
X275000D01*
X272000Y206000D01*
X264000D01*
X262000Y208000D01*
X260000D01*
X258000Y206000D01*
X248000D01*
X246000Y208000D01*
X244000D01*
X242000Y206000D01*
X232000D01*
X230000Y208000D01*
X228000D01*
X226000Y206000D01*
X224000D01*
X223000Y207000D01*
Y209000D01*
X227000Y213000D01*
Y213000D01*
X231000D01*
X234000Y210000D01*
X240000D01*
X243000Y213000D01*
X247000D01*
X250000Y210000D01*
X256000D01*
X259000Y213000D01*
X263000D01*
X266000Y210000D01*
D02*
G37*
G36*
X661000Y203000D02*
X648000D01*
X647000Y204000D01*
Y217000D01*
Y218000D01*
X648000Y219000D01*
X661000D01*
Y203000D01*
D02*
G37*
G36*
X586000Y230000D02*
Y226000D01*
X582000Y222000D01*
X578000Y218000D01*
Y204000D01*
X565000D01*
X559000Y210000D01*
Y226000D01*
X566000Y233000D01*
X583000D01*
X586000Y230000D01*
D02*
G37*
G36*
X219000Y233000D02*
Y216000D01*
X220000Y215000D01*
Y207000D01*
X219000Y206000D01*
X216000D01*
X215039Y206961D01*
Y209039D01*
X217000Y211000D01*
Y213000D01*
X212000Y218000D01*
Y222000D01*
X213000Y223000D01*
Y225000D01*
X212000Y226000D01*
Y230000D01*
X216000Y234000D01*
X218000D01*
X219000Y233000D01*
D02*
G37*
%LPC*%
G36*
X638000Y54314D02*
X636732Y54061D01*
X635657Y53343D01*
X634939Y52268D01*
X634686Y51000D01*
X634939Y49732D01*
X635657Y48657D01*
X636732Y47939D01*
X638000Y47686D01*
X639268Y47939D01*
X640343Y48657D01*
X641061Y49732D01*
X641314Y51000D01*
X641061Y52268D01*
X640343Y53343D01*
X639268Y54061D01*
X638000Y54314D01*
D02*
G37*
G36*
X658000Y146314D02*
X656732Y146061D01*
X655657Y145343D01*
X654939Y144268D01*
X654686Y143000D01*
X654939Y141732D01*
X655657Y140657D01*
X656732Y139939D01*
X658000Y139686D01*
X659268Y139939D01*
X660343Y140657D01*
X661061Y141732D01*
X661314Y143000D01*
X661061Y144268D01*
X660343Y145343D01*
X659268Y146061D01*
X658000Y146314D01*
D02*
G37*
G36*
X193000Y139059D02*
X191829Y138826D01*
X190837Y138163D01*
X190174Y137170D01*
X189941Y136000D01*
X190174Y134829D01*
X190837Y133837D01*
X191829Y133174D01*
X193000Y132941D01*
X194170Y133174D01*
X195163Y133837D01*
X195826Y134829D01*
X196059Y136000D01*
X195826Y137170D01*
X195163Y138163D01*
X194170Y138826D01*
X193000Y139059D01*
D02*
G37*
G36*
X93000Y155314D02*
X91732Y155061D01*
X90657Y154343D01*
X89939Y153268D01*
X89686Y152000D01*
X89939Y150732D01*
X90657Y149657D01*
X91732Y148939D01*
X93000Y148686D01*
X94268Y148939D01*
X95343Y149657D01*
X96061Y150732D01*
X96314Y152000D01*
X96061Y153268D01*
X95343Y154343D01*
X94268Y155061D01*
X93000Y155314D01*
D02*
G37*
G36*
X613000Y193314D02*
X611732Y193061D01*
X610657Y192343D01*
X609939Y191268D01*
X609686Y190000D01*
X609939Y188732D01*
X610657Y187657D01*
X611732Y186939D01*
X613000Y186686D01*
X614268Y186939D01*
X615343Y187657D01*
X616061Y188732D01*
X616314Y190000D01*
X616061Y191268D01*
X615343Y192343D01*
X614268Y193061D01*
X613000Y193314D01*
D02*
G37*
G36*
X606000Y169314D02*
X604732Y169061D01*
X603657Y168343D01*
X602939Y167268D01*
X602686Y166000D01*
X602939Y164732D01*
X603657Y163657D01*
X604732Y162939D01*
X606000Y162686D01*
X607268Y162939D01*
X608343Y163657D01*
X609061Y164732D01*
X609314Y166000D01*
X609061Y167268D01*
X608343Y168343D01*
X607268Y169061D01*
X606000Y169314D01*
D02*
G37*
G36*
X185000Y139059D02*
X183829Y138826D01*
X182837Y138163D01*
X182174Y137170D01*
X181941Y136000D01*
X182174Y134829D01*
X182837Y133837D01*
X183829Y133174D01*
X185000Y132941D01*
X186170Y133174D01*
X187163Y133837D01*
X187826Y134829D01*
X188059Y136000D01*
X187826Y137170D01*
X187163Y138163D01*
X186170Y138826D01*
X185000Y139059D01*
D02*
G37*
G36*
X664000Y301314D02*
X662732Y301061D01*
X661657Y300343D01*
X660939Y299268D01*
X660686Y298000D01*
X660939Y296732D01*
X661657Y295657D01*
X662732Y294939D01*
X664000Y294686D01*
X665268Y294939D01*
X666343Y295657D01*
X667061Y296732D01*
X667314Y298000D01*
X667061Y299268D01*
X666343Y300343D01*
X665268Y301061D01*
X664000Y301314D01*
D02*
G37*
G36*
X52000Y305314D02*
X50732Y305061D01*
X49657Y304343D01*
X48939Y303268D01*
X48686Y302000D01*
X48939Y300732D01*
X49657Y299657D01*
X50732Y298939D01*
X52000Y298686D01*
X53268Y298939D01*
X54343Y299657D01*
X55061Y300732D01*
X55314Y302000D01*
X55061Y303268D01*
X54343Y304343D01*
X53268Y305061D01*
X52000Y305314D01*
D02*
G37*
G36*
X21000Y107314D02*
X19732Y107061D01*
X18657Y106343D01*
X17939Y105268D01*
X17686Y104000D01*
X17939Y102732D01*
X18657Y101657D01*
X19732Y100939D01*
X21000Y100686D01*
X22268Y100939D01*
X23343Y101657D01*
X24061Y102732D01*
X24314Y104000D01*
X24061Y105268D01*
X23343Y106343D01*
X22268Y107061D01*
X21000Y107314D01*
D02*
G37*
G36*
X193000Y131059D02*
X191829Y130826D01*
X190837Y130163D01*
X190174Y129171D01*
X189941Y128000D01*
X190174Y126829D01*
X190837Y125837D01*
X191829Y125174D01*
X193000Y124941D01*
X194170Y125174D01*
X195163Y125837D01*
X195826Y126829D01*
X196059Y128000D01*
X195826Y129171D01*
X195163Y130163D01*
X194170Y130826D01*
X193000Y131059D01*
D02*
G37*
G36*
X86000Y120314D02*
X84732Y120061D01*
X83657Y119343D01*
X82939Y118268D01*
X82686Y117000D01*
X82939Y115732D01*
X83657Y114657D01*
X84732Y113939D01*
X86000Y113686D01*
X87268Y113939D01*
X88343Y114657D01*
X89061Y115732D01*
X89314Y117000D01*
X89061Y118268D01*
X88343Y119343D01*
X87268Y120061D01*
X86000Y120314D01*
D02*
G37*
%LPD*%
D10*
X584000Y50000D02*
D03*
Y58000D02*
D03*
Y130000D02*
D03*
Y122000D02*
D03*
X416000D02*
D03*
Y130000D02*
D03*
Y58000D02*
D03*
Y50000D02*
D03*
Y74000D02*
D03*
Y106000D02*
D03*
X584000Y74000D02*
D03*
Y106000D02*
D03*
X560000Y50000D02*
D03*
Y130000D02*
D03*
X440000D02*
D03*
Y50000D02*
D03*
Y58000D02*
D03*
X448000D02*
D03*
X456000D02*
D03*
X464000D02*
D03*
X472000D02*
D03*
X480000D02*
D03*
X488000D02*
D03*
X496000D02*
D03*
X504000D02*
D03*
X512000D02*
D03*
X520000D02*
D03*
X528000D02*
D03*
X536000D02*
D03*
X544000D02*
D03*
X552000D02*
D03*
X560000D02*
D03*
X440000Y66000D02*
D03*
X448000D02*
D03*
X456000D02*
D03*
X464000D02*
D03*
X472000D02*
D03*
X480000D02*
D03*
X488000D02*
D03*
X496000D02*
D03*
X504000D02*
D03*
X512000D02*
D03*
X520000D02*
D03*
X528000D02*
D03*
X536000D02*
D03*
X544000D02*
D03*
X552000D02*
D03*
X560000D02*
D03*
X440000Y74000D02*
D03*
X448000D02*
D03*
X456000D02*
D03*
X464000D02*
D03*
X472000D02*
D03*
X480000D02*
D03*
X488000D02*
D03*
X496000D02*
D03*
X504000D02*
D03*
X512000D02*
D03*
X520000D02*
D03*
X528000D02*
D03*
X536000D02*
D03*
X544000D02*
D03*
X552000D02*
D03*
X560000D02*
D03*
X440000Y106000D02*
D03*
X448000D02*
D03*
X456000D02*
D03*
X464000D02*
D03*
X472000D02*
D03*
X480000D02*
D03*
X488000D02*
D03*
X496000D02*
D03*
X504000D02*
D03*
X512000D02*
D03*
X520000D02*
D03*
X528000D02*
D03*
X536000D02*
D03*
X544000D02*
D03*
X552000D02*
D03*
X560000D02*
D03*
X440000Y114000D02*
D03*
X448000D02*
D03*
X456000D02*
D03*
X464000D02*
D03*
X472000D02*
D03*
X480000D02*
D03*
X488000D02*
D03*
X496000D02*
D03*
X504000D02*
D03*
X512000D02*
D03*
X520000D02*
D03*
X528000D02*
D03*
X536000D02*
D03*
X544000D02*
D03*
X552000D02*
D03*
X560000D02*
D03*
X440000Y122000D02*
D03*
X448000D02*
D03*
X456000D02*
D03*
X464000D02*
D03*
X472000D02*
D03*
X480000D02*
D03*
X488000D02*
D03*
X496000D02*
D03*
X504000D02*
D03*
X512000D02*
D03*
X520000D02*
D03*
X528000D02*
D03*
X536000D02*
D03*
X544000D02*
D03*
X552000D02*
D03*
X560000D02*
D03*
X584000Y270000D02*
D03*
Y278000D02*
D03*
Y350000D02*
D03*
Y342000D02*
D03*
X416000D02*
D03*
Y350000D02*
D03*
Y278000D02*
D03*
Y270000D02*
D03*
Y294000D02*
D03*
Y326000D02*
D03*
X584000Y294000D02*
D03*
Y326000D02*
D03*
X560000Y270000D02*
D03*
Y350000D02*
D03*
X440000D02*
D03*
Y270000D02*
D03*
Y278000D02*
D03*
X448000D02*
D03*
X456000D02*
D03*
X464000D02*
D03*
X472000D02*
D03*
X480000D02*
D03*
X488000D02*
D03*
X496000D02*
D03*
X504000D02*
D03*
X512000D02*
D03*
X520000D02*
D03*
X528000D02*
D03*
X536000D02*
D03*
X544000D02*
D03*
X552000D02*
D03*
X560000D02*
D03*
X440000Y286000D02*
D03*
X448000D02*
D03*
X456000D02*
D03*
X464000D02*
D03*
X472000D02*
D03*
X480000D02*
D03*
X488000D02*
D03*
X496000D02*
D03*
X504000D02*
D03*
X512000D02*
D03*
X520000D02*
D03*
X528000D02*
D03*
X536000D02*
D03*
X544000D02*
D03*
X552000D02*
D03*
X560000D02*
D03*
X440000Y294000D02*
D03*
X448000D02*
D03*
X456000D02*
D03*
X464000D02*
D03*
X472000D02*
D03*
X480000D02*
D03*
X488000D02*
D03*
X496000D02*
D03*
X504000D02*
D03*
X512000D02*
D03*
X520000D02*
D03*
X528000D02*
D03*
X536000D02*
D03*
X544000D02*
D03*
X552000D02*
D03*
X560000D02*
D03*
X440000Y326000D02*
D03*
X448000D02*
D03*
X456000D02*
D03*
X464000D02*
D03*
X472000D02*
D03*
X480000D02*
D03*
X488000D02*
D03*
X496000D02*
D03*
X504000D02*
D03*
X512000D02*
D03*
X520000D02*
D03*
X528000D02*
D03*
X536000D02*
D03*
X544000D02*
D03*
X552000D02*
D03*
X560000D02*
D03*
X440000Y334000D02*
D03*
X448000D02*
D03*
X456000D02*
D03*
X464000D02*
D03*
X472000D02*
D03*
X480000D02*
D03*
X488000D02*
D03*
X496000D02*
D03*
X504000D02*
D03*
X512000D02*
D03*
X520000D02*
D03*
X528000D02*
D03*
X536000D02*
D03*
X544000D02*
D03*
X552000D02*
D03*
X560000D02*
D03*
X440000Y342000D02*
D03*
X448000D02*
D03*
X456000D02*
D03*
X464000D02*
D03*
X472000D02*
D03*
X480000D02*
D03*
X488000D02*
D03*
X496000D02*
D03*
X504000D02*
D03*
X512000D02*
D03*
X520000D02*
D03*
X528000D02*
D03*
X536000D02*
D03*
X544000D02*
D03*
X552000D02*
D03*
X560000D02*
D03*
D11*
X108500Y25000D02*
D03*
X137500D02*
D03*
D12*
X125000Y350000D02*
D03*
D13*
X159900Y322500D02*
D03*
Y327500D02*
D03*
Y332500D02*
D03*
Y337500D02*
D03*
Y342500D02*
D03*
Y347500D02*
D03*
Y352500D02*
D03*
Y357500D02*
D03*
Y362500D02*
D03*
Y367500D02*
D03*
Y372500D02*
D03*
Y377500D02*
D03*
X90100D02*
D03*
Y372500D02*
D03*
Y367500D02*
D03*
Y362500D02*
D03*
Y357500D02*
D03*
Y352500D02*
D03*
Y347500D02*
D03*
Y342500D02*
D03*
Y337500D02*
D03*
Y332500D02*
D03*
Y327500D02*
D03*
Y322500D02*
D03*
D14*
X152500Y384900D02*
D03*
X147500D02*
D03*
X142500D02*
D03*
X137500D02*
D03*
X132500D02*
D03*
X127500D02*
D03*
X122500D02*
D03*
X117500D02*
D03*
X112500D02*
D03*
X107500D02*
D03*
X102500D02*
D03*
X97500D02*
D03*
Y315100D02*
D03*
X102500D02*
D03*
X107500D02*
D03*
X112500D02*
D03*
X117500D02*
D03*
X122500D02*
D03*
X127500D02*
D03*
X132500D02*
D03*
X137500D02*
D03*
X142500D02*
D03*
X147500D02*
D03*
X152500D02*
D03*
D15*
X253000Y317000D02*
D03*
X243000D02*
D03*
X351000Y82000D02*
D03*
X361000D02*
D03*
X335000Y27000D02*
D03*
X345000D02*
D03*
X325750Y329700D02*
D03*
X315750D02*
D03*
X195250Y385000D02*
D03*
X205250D02*
D03*
X267000Y317000D02*
D03*
X277000D02*
D03*
X136000Y288000D02*
D03*
X146000D02*
D03*
Y225000D02*
D03*
X136000D02*
D03*
Y251000D02*
D03*
X146000D02*
D03*
Y276000D02*
D03*
X136000D02*
D03*
X170000Y316000D02*
D03*
X180000D02*
D03*
X136000Y264000D02*
D03*
X146000D02*
D03*
Y237000D02*
D03*
X136000D02*
D03*
X142000Y169000D02*
D03*
X152000D02*
D03*
X229000Y14000D02*
D03*
X239000D02*
D03*
X522000Y160000D02*
D03*
X532000D02*
D03*
X521000Y380000D02*
D03*
X531000D02*
D03*
X361000Y70000D02*
D03*
X351000D02*
D03*
X206000Y26000D02*
D03*
X216000D02*
D03*
X146000Y300000D02*
D03*
X136000D02*
D03*
X242000Y385000D02*
D03*
X252000D02*
D03*
X215000D02*
D03*
X225000D02*
D03*
X242000Y373000D02*
D03*
X252000D02*
D03*
X499000Y20000D02*
D03*
X509000D02*
D03*
X291000Y317000D02*
D03*
X301000D02*
D03*
X297000Y385000D02*
D03*
X287000D02*
D03*
X239000Y26000D02*
D03*
X229000D02*
D03*
X253000Y329000D02*
D03*
X243000D02*
D03*
X218000Y317000D02*
D03*
X228000D02*
D03*
X228000Y329000D02*
D03*
X218000D02*
D03*
X356875Y14075D02*
D03*
X366875D02*
D03*
X357000Y27000D02*
D03*
X367000D02*
D03*
X325750Y316700D02*
D03*
X315750D02*
D03*
X277000Y329000D02*
D03*
X267000D02*
D03*
X291000Y330000D02*
D03*
X301000D02*
D03*
X273000Y385000D02*
D03*
X263000D02*
D03*
Y373000D02*
D03*
X273000D02*
D03*
X263000Y26000D02*
D03*
X253000D02*
D03*
X216000Y14000D02*
D03*
X206000D02*
D03*
X297000Y373000D02*
D03*
X287000D02*
D03*
X322125Y69850D02*
D03*
X332125D02*
D03*
X344875Y14075D02*
D03*
X334875D02*
D03*
X332125Y81725D02*
D03*
X322125D02*
D03*
X263000Y14000D02*
D03*
X253000D02*
D03*
D16*
X119000Y54500D02*
D03*
X114000D02*
D03*
X109000D02*
D03*
X104000D02*
D03*
X99000D02*
D03*
Y73500D02*
D03*
X104000D02*
D03*
X109000D02*
D03*
X114000D02*
D03*
X119000D02*
D03*
D17*
X109000Y64000D02*
D03*
D18*
X253000Y64000D02*
D03*
D19*
X280500Y83050D02*
D03*
Y70350D02*
D03*
Y57650D02*
D03*
Y44950D02*
D03*
X225500D02*
D03*
Y57650D02*
D03*
Y70350D02*
D03*
Y83050D02*
D03*
D20*
X382000Y175000D02*
D03*
Y185000D02*
D03*
X189000Y43000D02*
D03*
Y33000D02*
D03*
X124000Y224000D02*
D03*
Y234000D02*
D03*
Y212000D02*
D03*
Y202000D02*
D03*
Y247000D02*
D03*
Y257000D02*
D03*
Y267000D02*
D03*
Y277000D02*
D03*
X110000Y297000D02*
D03*
Y287000D02*
D03*
Y247000D02*
D03*
Y257000D02*
D03*
Y267000D02*
D03*
Y277000D02*
D03*
X96000Y267000D02*
D03*
Y277000D02*
D03*
Y297000D02*
D03*
Y287000D02*
D03*
X153000Y138000D02*
D03*
Y128000D02*
D03*
X124000Y287000D02*
D03*
Y297000D02*
D03*
X304000Y72000D02*
D03*
Y82000D02*
D03*
X213000Y74000D02*
D03*
Y84000D02*
D03*
X321000Y24000D02*
D03*
Y14000D02*
D03*
X320000Y50000D02*
D03*
Y40000D02*
D03*
X86000Y53000D02*
D03*
Y43000D02*
D03*
Y63000D02*
D03*
Y73000D02*
D03*
X292000Y347000D02*
D03*
Y357000D02*
D03*
X261000Y347000D02*
D03*
Y357000D02*
D03*
X379000Y241000D02*
D03*
Y231000D02*
D03*
X275000Y357000D02*
D03*
Y347000D02*
D03*
X249000D02*
D03*
Y357000D02*
D03*
X235000Y357000D02*
D03*
Y347000D02*
D03*
X350000Y51000D02*
D03*
Y41000D02*
D03*
X189000Y63000D02*
D03*
Y53000D02*
D03*
X153000Y158000D02*
D03*
Y148000D02*
D03*
D21*
X175000Y13000D02*
D03*
X185000D02*
D03*
Y23000D02*
D03*
X175000D02*
D03*
X432000Y379000D02*
D03*
X442000D02*
D03*
X500000Y159000D02*
D03*
X510000D02*
D03*
X509000Y379000D02*
D03*
X499000D02*
D03*
X500000Y241000D02*
D03*
X510000D02*
D03*
X442000Y21000D02*
D03*
X432000D02*
D03*
X464000D02*
D03*
X454000D02*
D03*
X476000D02*
D03*
X486000D02*
D03*
X543000D02*
D03*
X553000D02*
D03*
X476000Y379000D02*
D03*
X486000D02*
D03*
X565000D02*
D03*
X575000D02*
D03*
X454000D02*
D03*
X464000D02*
D03*
X543000D02*
D03*
X553000D02*
D03*
X390000Y241000D02*
D03*
X400000D02*
D03*
X422000D02*
D03*
X412000D02*
D03*
X575000Y21000D02*
D03*
X565000D02*
D03*
X543000Y159000D02*
D03*
X553000D02*
D03*
X456000D02*
D03*
X466000D02*
D03*
X422000D02*
D03*
X412000D02*
D03*
X434000D02*
D03*
X444000D02*
D03*
X400000D02*
D03*
X390000D02*
D03*
X434000Y241000D02*
D03*
X444000D02*
D03*
X543000D02*
D03*
X553000D02*
D03*
X456000D02*
D03*
X466000D02*
D03*
X178000Y43000D02*
D03*
X168000D02*
D03*
X168000Y53000D02*
D03*
X178000D02*
D03*
X531000Y21000D02*
D03*
X521000D02*
D03*
D22*
X192000Y84000D02*
D03*
Y74000D02*
D03*
X202000D02*
D03*
Y84000D02*
D03*
X143000Y101000D02*
D03*
Y91000D02*
D03*
X153000Y101000D02*
D03*
Y91000D02*
D03*
X142000Y125000D02*
D03*
Y115000D02*
D03*
Y158000D02*
D03*
Y148000D02*
D03*
X339000Y354000D02*
D03*
Y344000D02*
D03*
Y374000D02*
D03*
Y364000D02*
D03*
X151000Y212000D02*
D03*
Y202000D02*
D03*
X139000D02*
D03*
Y212000D02*
D03*
X293000Y82000D02*
D03*
Y72000D02*
D03*
X306000Y347000D02*
D03*
Y357000D02*
D03*
D23*
X191500Y318000D02*
D03*
X206500D02*
D03*
X417500Y19000D02*
D03*
X402500D02*
D03*
X603500D02*
D03*
X588500D02*
D03*
X417500Y381000D02*
D03*
X402500D02*
D03*
X603500D02*
D03*
X588500D02*
D03*
D24*
X149250Y187000D02*
D03*
X134750D02*
D03*
D25*
X87000Y13000D02*
D03*
Y29000D02*
D03*
X277000Y11000D02*
D03*
Y27000D02*
D03*
X386000Y118500D02*
D03*
Y103500D02*
D03*
Y297500D02*
D03*
Y282500D02*
D03*
X133000Y70500D02*
D03*
Y55500D02*
D03*
X149000D02*
D03*
Y70500D02*
D03*
D26*
X22314Y140000D02*
D03*
X77686D02*
D03*
X677686Y260000D02*
D03*
X622314D02*
D03*
X677686Y140000D02*
D03*
X622314D02*
D03*
D27*
X50000Y287686D02*
D03*
Y232314D02*
D03*
D28*
X382500Y328000D02*
D03*
X351500D02*
D03*
Y354000D02*
D03*
X382500D02*
D03*
X128500Y139000D02*
D03*
X97500D02*
D03*
Y164000D02*
D03*
X128500D02*
D03*
Y114000D02*
D03*
X97500D02*
D03*
X116500Y90000D02*
D03*
X85500D02*
D03*
X601500Y212000D02*
D03*
X570500D02*
D03*
X656500Y211000D02*
D03*
X625500D02*
D03*
Y189000D02*
D03*
X656500D02*
D03*
X570500Y187000D02*
D03*
X601500D02*
D03*
D29*
X65000Y10500D02*
D03*
Y41500D02*
D03*
Y357500D02*
D03*
Y388500D02*
D03*
X67000Y215500D02*
D03*
Y184500D02*
D03*
X42000D02*
D03*
Y215500D02*
D03*
X635000Y389500D02*
D03*
Y358500D02*
D03*
Y41500D02*
D03*
Y10500D02*
D03*
X101000Y184500D02*
D03*
Y215500D02*
D03*
D30*
X14000Y96050D02*
D03*
Y83350D02*
D03*
Y70650D02*
D03*
Y57950D02*
D03*
X70000Y96050D02*
D03*
Y83350D02*
D03*
Y70650D02*
D03*
Y57950D02*
D03*
Y303950D02*
D03*
Y316650D02*
D03*
Y329350D02*
D03*
Y342050D02*
D03*
X14000Y303950D02*
D03*
Y316650D02*
D03*
Y329350D02*
D03*
Y342050D02*
D03*
X686000Y303950D02*
D03*
Y316650D02*
D03*
Y329350D02*
D03*
Y342050D02*
D03*
X630000Y303950D02*
D03*
Y316650D02*
D03*
Y329350D02*
D03*
Y342050D02*
D03*
Y96050D02*
D03*
Y83350D02*
D03*
Y70650D02*
D03*
Y57950D02*
D03*
X686000Y96050D02*
D03*
Y83350D02*
D03*
Y70650D02*
D03*
Y57950D02*
D03*
D31*
X170000Y390000D02*
D03*
X575000Y8000D02*
D03*
D32*
X361000Y296000D02*
D03*
X353000D02*
D03*
X345000D02*
D03*
X337000D02*
D03*
X329000D02*
D03*
X321000D02*
D03*
X313000D02*
D03*
X305000D02*
D03*
X297000D02*
D03*
X289000D02*
D03*
X281000D02*
D03*
X273000D02*
D03*
X265000D02*
D03*
X257000D02*
D03*
X249000D02*
D03*
X241000D02*
D03*
X233000D02*
D03*
X225000D02*
D03*
X217000D02*
D03*
X209000D02*
D03*
X201000D02*
D03*
X193000D02*
D03*
X185000D02*
D03*
X177000D02*
D03*
X169000D02*
D03*
X361000Y288000D02*
D03*
X353000D02*
D03*
X345000D02*
D03*
X337000D02*
D03*
X329000D02*
D03*
X321000D02*
D03*
X313000D02*
D03*
X305000D02*
D03*
X297000D02*
D03*
X289000D02*
D03*
X281000D02*
D03*
X273000D02*
D03*
X265000D02*
D03*
X257000D02*
D03*
X249000D02*
D03*
X241000D02*
D03*
X233000D02*
D03*
X225000D02*
D03*
X217000D02*
D03*
X209000D02*
D03*
X201000D02*
D03*
X193000D02*
D03*
X185000D02*
D03*
X177000D02*
D03*
X169000D02*
D03*
X361000Y280000D02*
D03*
X353000D02*
D03*
X345000D02*
D03*
X337000D02*
D03*
X329000D02*
D03*
X321000D02*
D03*
X313000D02*
D03*
X305000D02*
D03*
X297000D02*
D03*
X289000D02*
D03*
X281000D02*
D03*
X273000D02*
D03*
X265000D02*
D03*
X257000D02*
D03*
X249000D02*
D03*
X241000D02*
D03*
X233000D02*
D03*
X225000D02*
D03*
X217000D02*
D03*
X209000D02*
D03*
X201000D02*
D03*
X193000D02*
D03*
X185000D02*
D03*
X177000D02*
D03*
X169000D02*
D03*
X361000Y272000D02*
D03*
X353000D02*
D03*
X345000D02*
D03*
X337000D02*
D03*
X329000D02*
D03*
X321000D02*
D03*
X313000D02*
D03*
X305000D02*
D03*
X297000D02*
D03*
X289000D02*
D03*
X281000D02*
D03*
X273000D02*
D03*
X265000D02*
D03*
X257000D02*
D03*
X249000D02*
D03*
X241000D02*
D03*
X233000D02*
D03*
X225000D02*
D03*
X217000D02*
D03*
X209000D02*
D03*
X201000D02*
D03*
X193000D02*
D03*
X185000D02*
D03*
X177000D02*
D03*
X169000D02*
D03*
X361000Y264000D02*
D03*
X353000D02*
D03*
X345000D02*
D03*
X337000D02*
D03*
X329000D02*
D03*
X321000D02*
D03*
X313000D02*
D03*
X305000D02*
D03*
X297000D02*
D03*
X289000D02*
D03*
X281000D02*
D03*
X273000D02*
D03*
X265000D02*
D03*
X257000D02*
D03*
X249000D02*
D03*
X241000D02*
D03*
X233000D02*
D03*
X225000D02*
D03*
X217000D02*
D03*
X209000D02*
D03*
X201000D02*
D03*
X193000D02*
D03*
X185000D02*
D03*
X177000D02*
D03*
X169000D02*
D03*
X361000Y256000D02*
D03*
X353000D02*
D03*
X345000D02*
D03*
X337000D02*
D03*
X329000D02*
D03*
X321000D02*
D03*
X313000D02*
D03*
X305000D02*
D03*
X297000D02*
D03*
X289000D02*
D03*
X281000D02*
D03*
X273000D02*
D03*
X265000D02*
D03*
X257000D02*
D03*
X249000D02*
D03*
X241000D02*
D03*
X233000D02*
D03*
X225000D02*
D03*
X217000D02*
D03*
X209000D02*
D03*
X201000D02*
D03*
X193000D02*
D03*
X185000D02*
D03*
X177000D02*
D03*
X169000D02*
D03*
X361000Y248000D02*
D03*
X353000D02*
D03*
X345000D02*
D03*
X337000D02*
D03*
X329000D02*
D03*
X321000D02*
D03*
X313000D02*
D03*
X305000D02*
D03*
X297000D02*
D03*
X289000D02*
D03*
X281000D02*
D03*
X273000D02*
D03*
X265000D02*
D03*
X257000D02*
D03*
X249000D02*
D03*
X241000D02*
D03*
X233000D02*
D03*
X225000D02*
D03*
X217000D02*
D03*
X209000D02*
D03*
X201000D02*
D03*
X193000D02*
D03*
X185000D02*
D03*
X177000D02*
D03*
X169000D02*
D03*
X361000Y240000D02*
D03*
X353000D02*
D03*
X345000D02*
D03*
X337000D02*
D03*
X329000D02*
D03*
X321000D02*
D03*
X313000D02*
D03*
X305000D02*
D03*
X297000D02*
D03*
X289000D02*
D03*
X281000D02*
D03*
X273000D02*
D03*
X265000D02*
D03*
X257000D02*
D03*
X249000D02*
D03*
X241000D02*
D03*
X233000D02*
D03*
X225000D02*
D03*
X217000D02*
D03*
X209000D02*
D03*
X201000D02*
D03*
X193000D02*
D03*
X185000D02*
D03*
X177000D02*
D03*
X169000D02*
D03*
X361000Y232000D02*
D03*
X353000D02*
D03*
X345000D02*
D03*
X337000D02*
D03*
X329000D02*
D03*
X321000D02*
D03*
X313000D02*
D03*
X305000D02*
D03*
X297000D02*
D03*
X289000D02*
D03*
X281000D02*
D03*
X273000D02*
D03*
X265000D02*
D03*
X257000D02*
D03*
X249000D02*
D03*
X241000D02*
D03*
X233000D02*
D03*
X225000D02*
D03*
X217000D02*
D03*
X209000D02*
D03*
X201000D02*
D03*
X193000D02*
D03*
X185000D02*
D03*
X177000D02*
D03*
X169000D02*
D03*
X361000Y224000D02*
D03*
X353000D02*
D03*
X345000D02*
D03*
X337000D02*
D03*
X329000D02*
D03*
X321000D02*
D03*
X313000D02*
D03*
X305000D02*
D03*
X297000D02*
D03*
X289000D02*
D03*
X281000D02*
D03*
X273000D02*
D03*
X265000D02*
D03*
X257000D02*
D03*
X249000D02*
D03*
X241000D02*
D03*
X233000D02*
D03*
X225000D02*
D03*
X217000D02*
D03*
X209000D02*
D03*
X201000D02*
D03*
X193000D02*
D03*
X185000D02*
D03*
X177000D02*
D03*
X169000D02*
D03*
X361000Y216000D02*
D03*
X353000D02*
D03*
X345000D02*
D03*
X337000D02*
D03*
X329000D02*
D03*
X321000D02*
D03*
X313000D02*
D03*
X305000D02*
D03*
X297000D02*
D03*
X289000D02*
D03*
X281000D02*
D03*
X273000D02*
D03*
X265000D02*
D03*
X257000D02*
D03*
X249000D02*
D03*
X241000D02*
D03*
X233000D02*
D03*
X225000D02*
D03*
X217000D02*
D03*
X209000D02*
D03*
X201000D02*
D03*
X193000D02*
D03*
X185000D02*
D03*
X177000D02*
D03*
X169000D02*
D03*
X361000Y208000D02*
D03*
X353000D02*
D03*
X345000D02*
D03*
X337000D02*
D03*
X329000D02*
D03*
X321000D02*
D03*
X313000D02*
D03*
X305000D02*
D03*
X297000D02*
D03*
X289000D02*
D03*
X281000D02*
D03*
X273000D02*
D03*
X265000D02*
D03*
X257000D02*
D03*
X249000D02*
D03*
X241000D02*
D03*
X233000D02*
D03*
X225000D02*
D03*
X217000D02*
D03*
X209000D02*
D03*
X201000D02*
D03*
X193000D02*
D03*
X185000D02*
D03*
X177000D02*
D03*
X169000D02*
D03*
X361000Y200000D02*
D03*
X353000D02*
D03*
X345000D02*
D03*
X337000D02*
D03*
X329000D02*
D03*
X321000D02*
D03*
X313000D02*
D03*
X305000D02*
D03*
X297000D02*
D03*
X289000D02*
D03*
X281000D02*
D03*
X273000D02*
D03*
X265000D02*
D03*
X257000D02*
D03*
X249000D02*
D03*
X241000D02*
D03*
X233000D02*
D03*
X225000D02*
D03*
X217000D02*
D03*
X209000D02*
D03*
X201000D02*
D03*
X193000D02*
D03*
X185000D02*
D03*
X177000D02*
D03*
X169000D02*
D03*
X361000Y192000D02*
D03*
X353000D02*
D03*
X345000D02*
D03*
X337000D02*
D03*
X329000D02*
D03*
X321000D02*
D03*
X313000D02*
D03*
X305000D02*
D03*
X297000D02*
D03*
X289000D02*
D03*
X281000D02*
D03*
X273000D02*
D03*
X265000D02*
D03*
X257000D02*
D03*
X249000D02*
D03*
X241000D02*
D03*
X233000D02*
D03*
X225000D02*
D03*
X217000D02*
D03*
X209000D02*
D03*
X201000D02*
D03*
X193000D02*
D03*
X185000D02*
D03*
X177000D02*
D03*
X169000D02*
D03*
X361000Y184000D02*
D03*
X353000D02*
D03*
X345000D02*
D03*
X337000D02*
D03*
X329000D02*
D03*
X321000D02*
D03*
X313000D02*
D03*
X305000D02*
D03*
X297000D02*
D03*
X289000D02*
D03*
X281000D02*
D03*
X273000D02*
D03*
X265000D02*
D03*
X257000D02*
D03*
X249000D02*
D03*
X241000D02*
D03*
X233000D02*
D03*
X225000D02*
D03*
X217000D02*
D03*
X209000D02*
D03*
X201000D02*
D03*
X193000D02*
D03*
X185000D02*
D03*
X177000D02*
D03*
X169000D02*
D03*
X361000Y176000D02*
D03*
X353000D02*
D03*
X345000D02*
D03*
X337000D02*
D03*
X329000D02*
D03*
X321000D02*
D03*
X313000D02*
D03*
X305000D02*
D03*
X297000D02*
D03*
X289000D02*
D03*
X281000D02*
D03*
X273000D02*
D03*
X265000D02*
D03*
X257000D02*
D03*
X249000D02*
D03*
X241000D02*
D03*
X233000D02*
D03*
X225000D02*
D03*
X217000D02*
D03*
X209000D02*
D03*
X201000D02*
D03*
X193000D02*
D03*
X185000D02*
D03*
X177000D02*
D03*
X169000D02*
D03*
X361000Y168000D02*
D03*
X353000D02*
D03*
X345000D02*
D03*
X337000D02*
D03*
X329000D02*
D03*
X321000D02*
D03*
X313000D02*
D03*
X305000D02*
D03*
X297000D02*
D03*
X289000D02*
D03*
X281000D02*
D03*
X273000D02*
D03*
X265000D02*
D03*
X257000D02*
D03*
X249000D02*
D03*
X241000D02*
D03*
X233000D02*
D03*
X225000D02*
D03*
X217000D02*
D03*
X209000D02*
D03*
X201000D02*
D03*
X193000D02*
D03*
X185000D02*
D03*
X177000D02*
D03*
X169000D02*
D03*
X361000Y160000D02*
D03*
X353000D02*
D03*
X345000D02*
D03*
X337000D02*
D03*
X329000D02*
D03*
X321000D02*
D03*
X313000D02*
D03*
X305000D02*
D03*
X297000D02*
D03*
X289000D02*
D03*
X281000D02*
D03*
X273000D02*
D03*
X265000D02*
D03*
X257000D02*
D03*
X249000D02*
D03*
X241000D02*
D03*
X233000D02*
D03*
X225000D02*
D03*
X217000D02*
D03*
X209000D02*
D03*
X201000D02*
D03*
X193000D02*
D03*
X185000D02*
D03*
X177000D02*
D03*
X169000D02*
D03*
X361000Y152000D02*
D03*
X353000D02*
D03*
X345000D02*
D03*
X337000D02*
D03*
X329000D02*
D03*
X321000D02*
D03*
X313000D02*
D03*
X305000D02*
D03*
X297000D02*
D03*
X289000D02*
D03*
X281000D02*
D03*
X273000D02*
D03*
X265000D02*
D03*
X257000D02*
D03*
X249000D02*
D03*
X241000D02*
D03*
X233000D02*
D03*
X225000D02*
D03*
X217000D02*
D03*
X209000D02*
D03*
X201000D02*
D03*
X193000D02*
D03*
X185000D02*
D03*
X177000D02*
D03*
X169000D02*
D03*
X361000Y144000D02*
D03*
X353000D02*
D03*
X345000D02*
D03*
X337000D02*
D03*
X329000D02*
D03*
X321000D02*
D03*
X313000D02*
D03*
X305000D02*
D03*
X297000D02*
D03*
X289000D02*
D03*
X281000D02*
D03*
X273000D02*
D03*
X265000D02*
D03*
X257000D02*
D03*
X249000D02*
D03*
X241000D02*
D03*
X233000D02*
D03*
X225000D02*
D03*
X217000D02*
D03*
X209000D02*
D03*
X201000D02*
D03*
X193000D02*
D03*
X185000D02*
D03*
X177000D02*
D03*
X169000D02*
D03*
X361000Y136000D02*
D03*
X353000D02*
D03*
X345000D02*
D03*
X337000D02*
D03*
X329000D02*
D03*
X321000D02*
D03*
X313000D02*
D03*
X305000D02*
D03*
X297000D02*
D03*
X289000D02*
D03*
X281000D02*
D03*
X273000D02*
D03*
X265000D02*
D03*
X257000D02*
D03*
X249000D02*
D03*
X241000D02*
D03*
X233000D02*
D03*
X225000D02*
D03*
X217000D02*
D03*
X209000D02*
D03*
X201000D02*
D03*
X193000D02*
D03*
X185000D02*
D03*
X177000D02*
D03*
X169000D02*
D03*
X361000Y128000D02*
D03*
X353000D02*
D03*
X345000D02*
D03*
X337000D02*
D03*
X329000D02*
D03*
X321000D02*
D03*
X313000D02*
D03*
X305000D02*
D03*
X297000D02*
D03*
X289000D02*
D03*
X281000D02*
D03*
X273000D02*
D03*
X265000D02*
D03*
X257000D02*
D03*
X249000D02*
D03*
X241000D02*
D03*
X233000D02*
D03*
X225000D02*
D03*
X217000D02*
D03*
X209000D02*
D03*
X201000D02*
D03*
X193000D02*
D03*
X185000D02*
D03*
X177000D02*
D03*
X169000D02*
D03*
X361000Y120000D02*
D03*
X353000D02*
D03*
X345000D02*
D03*
X337000D02*
D03*
X329000D02*
D03*
X321000D02*
D03*
X313000D02*
D03*
X305000D02*
D03*
X297000D02*
D03*
X289000D02*
D03*
X281000D02*
D03*
X273000D02*
D03*
X265000D02*
D03*
X257000D02*
D03*
X249000D02*
D03*
X241000D02*
D03*
X233000D02*
D03*
X225000D02*
D03*
X217000D02*
D03*
X209000D02*
D03*
X201000D02*
D03*
X193000D02*
D03*
X185000D02*
D03*
X177000D02*
D03*
X169000D02*
D03*
X361000Y112000D02*
D03*
X353000D02*
D03*
X345000D02*
D03*
X337000D02*
D03*
X329000D02*
D03*
X321000D02*
D03*
X313000D02*
D03*
X305000D02*
D03*
X297000D02*
D03*
X289000D02*
D03*
X281000D02*
D03*
X273000D02*
D03*
X265000D02*
D03*
X257000D02*
D03*
X249000D02*
D03*
X241000D02*
D03*
X233000D02*
D03*
X225000D02*
D03*
X217000D02*
D03*
X209000D02*
D03*
X201000D02*
D03*
X193000D02*
D03*
X185000D02*
D03*
X177000D02*
D03*
X169000D02*
D03*
X361000Y104000D02*
D03*
X353000D02*
D03*
X345000D02*
D03*
X337000D02*
D03*
X329000D02*
D03*
X321000D02*
D03*
X313000D02*
D03*
X305000D02*
D03*
X297000D02*
D03*
X289000D02*
D03*
X281000D02*
D03*
X273000D02*
D03*
X265000D02*
D03*
X257000D02*
D03*
X249000D02*
D03*
X241000D02*
D03*
X233000D02*
D03*
X225000D02*
D03*
X217000D02*
D03*
X209000D02*
D03*
X201000D02*
D03*
X193000D02*
D03*
X185000D02*
D03*
X177000D02*
D03*
D33*
X152000Y24000D02*
D03*
X84000Y193000D02*
D03*
X94000Y229000D02*
D03*
X606000D02*
D03*
X600000Y170000D02*
D03*
X568000Y229000D02*
D03*
D34*
X305500Y37500D02*
D03*
X292500D02*
D03*
X299000Y18500D02*
D03*
D35*
X382000Y175000D02*
X388000D01*
X146500Y276500D02*
X147000Y277000D01*
X146000Y276000D02*
X146500Y276500D01*
X146500Y276500D01*
X147000Y276000D01*
X146000D02*
Y277000D01*
X141000Y282000D02*
X146000Y277000D01*
X147000Y277000D02*
X149697D01*
X146500Y276500D02*
X146500D01*
X93750Y305250D02*
X96000Y303000D01*
X93750Y305250D02*
Y310250D01*
X85000Y319000D02*
X93750Y310250D01*
X333000Y172000D02*
Y178000D01*
X331000Y180000D02*
X333000Y178000D01*
X326000Y180000D02*
X331000D01*
X335000D02*
X377000D01*
X333000Y182000D02*
X335000Y180000D01*
X333000Y182000D02*
Y186000D01*
X331000Y188000D02*
X333000Y186000D01*
X117750Y303250D02*
Y309803D01*
X117500Y310053D02*
X117750Y309803D01*
X136000Y297000D02*
X138000Y295000D01*
X136000Y297000D02*
Y300000D01*
X132000D02*
X136000D01*
X129000Y303000D02*
X132000Y300000D01*
X124000Y303000D02*
X129000D01*
X121250Y305750D02*
X124000Y303000D01*
X121250Y305750D02*
Y310553D01*
X122500Y311803D01*
Y315100D01*
X267550Y367550D02*
X271750D01*
X265800Y365800D02*
X267550Y367550D01*
X261875Y365800D02*
X265800D01*
X270622Y357000D02*
X275000D01*
X265622Y362000D02*
X270622Y357000D01*
X254000Y362000D02*
X265622D01*
X249000Y357000D02*
X254000Y362000D01*
X242500Y33377D02*
X245000Y30877D01*
Y16000D02*
Y30877D01*
X243000Y14000D02*
X245000Y16000D01*
X320000Y50000D02*
Y60247D01*
X313000Y67247D02*
X320000Y60247D01*
X313000Y67247D02*
Y83000D01*
X307950Y88050D02*
X313000Y83000D01*
X304050Y88050D02*
X307950D01*
X142000Y169000D02*
X147000Y164000D01*
X142000Y169000D02*
Y176000D01*
X136750Y181250D02*
X142000Y176000D01*
X134750Y187000D02*
Y190750D01*
X136750Y192750D01*
X134750Y183250D02*
Y187000D01*
Y183250D02*
X136750Y181250D01*
X139000Y200000D02*
Y202000D01*
X261000Y294000D02*
Y300000D01*
X213000Y292000D02*
X217000Y288000D01*
X189000Y108000D02*
X203000D01*
X207000Y116000D02*
X213000D01*
X205000Y118000D02*
Y124000D01*
X203000Y116000D02*
X205000Y118000D01*
X189000Y116000D02*
X203000D01*
X142000Y126000D02*
X143000D01*
X149000Y128000D02*
X153000D01*
X146000Y125000D02*
X149000Y128000D01*
X142000Y125000D02*
X146000D01*
X287000Y379000D02*
Y385000D01*
X287000Y379000D02*
X287000Y379000D01*
X124000Y234000D02*
X124000Y234000D01*
X118000Y234000D02*
X124000D01*
X292000Y347000D02*
X292500Y346500D01*
Y338200D02*
Y346500D01*
X147000Y225000D02*
X157000D01*
X141000Y231000D02*
X147000Y225000D01*
X146000Y237000D02*
Y238000D01*
X141000Y243000D02*
X146000Y238000D01*
X107500Y384900D02*
Y392000D01*
X97500Y380500D02*
Y384900D01*
X181000Y276000D02*
X185000Y272000D01*
Y280000D02*
X189000Y276000D01*
X156750Y273447D02*
Y291000D01*
X155000Y271697D02*
X156750Y273447D01*
X155250Y292500D02*
X156750Y291000D01*
X149697Y277000D02*
X153850Y281153D01*
Y290180D01*
X152000Y292031D02*
X153850Y290180D01*
X152000Y297132D02*
X159868Y305000D01*
X152000Y292031D02*
Y297132D01*
X157000Y225000D02*
X161000Y229000D01*
Y238000D01*
X164000Y241000D02*
Y265000D01*
X161000Y238000D02*
X164000Y241000D01*
X157750Y247750D02*
Y270000D01*
X155000Y245000D02*
X157750Y247750D01*
X153000Y259000D02*
X155000Y261000D01*
X148000Y259000D02*
X153000D01*
X146000Y233000D02*
Y237000D01*
Y233000D02*
X148000Y231000D01*
X157000Y233000D02*
Y238697D01*
X161150Y242847D02*
Y281572D01*
X157000Y238697D02*
X161150Y242847D01*
X148000Y231000D02*
X155000D01*
X157000Y233000D01*
X158750Y271000D02*
Y289750D01*
X148000Y245000D02*
X155000D01*
X157750Y270000D02*
X158750Y271000D01*
X155000Y261000D02*
Y271697D01*
X161000Y292000D02*
X176000D01*
X158750Y289750D02*
X161000Y292000D01*
X197000Y284000D02*
Y298000D01*
X190000Y305000D02*
X197000Y298000D01*
X159868Y305000D02*
X190000D01*
X177000Y288000D02*
X177000Y288000D01*
Y291000D01*
X176000Y292000D02*
X177000Y291000D01*
X161150Y281572D02*
X163578Y284000D01*
X176000D01*
X177000Y283000D01*
Y280000D02*
Y283000D01*
X146000Y251000D02*
Y252000D01*
Y247000D02*
Y251000D01*
X141000Y257000D02*
X146000Y252000D01*
Y247000D02*
X148000Y245000D01*
X141000Y270000D02*
X146000Y265000D01*
Y261000D02*
X148000Y259000D01*
X146000Y261000D02*
Y265000D01*
X171000Y303000D02*
X177000D01*
X168000Y300000D02*
X171000Y303000D01*
X155250Y297553D02*
X157697Y300000D01*
X168000D01*
X155250Y292500D02*
Y297553D01*
X333000Y196000D02*
X337000Y192000D01*
X345000Y280000D02*
X349000Y284000D01*
X236960Y254000D02*
Y274000D01*
X247500Y309550D02*
Y312500D01*
X243000Y317000D02*
X247500Y312500D01*
X282500Y352050D02*
X285000Y349550D01*
X279950Y352050D02*
X282500D01*
X275000Y357000D02*
X279950Y352050D01*
X268125Y337925D02*
X274125D01*
X225000Y296000D02*
X237500Y308500D01*
X272500Y308200D02*
X287200D01*
X361000Y272000D02*
X365000Y276000D01*
X276000Y347000D02*
X281950D01*
X282000Y347050D01*
X218400Y73025D02*
X221075Y70350D01*
X225500D01*
X312825Y14000D02*
X321000D01*
X309825Y11000D02*
X312825Y14000D01*
X289000Y99970D02*
X291820Y97150D01*
X289000Y99970D02*
Y104000D01*
X146000Y289000D02*
Y293000D01*
X138000Y295000D02*
X144000D01*
X146000Y293000D01*
Y288000D02*
X151000D01*
X181000Y292000D02*
Y299000D01*
X177000Y303000D02*
X181000Y299000D01*
X151000Y301000D02*
X155000Y305000D01*
X155000D02*
X159000Y309000D01*
X155000Y305000D02*
X155000D01*
X146000Y301000D02*
X151000D01*
X125000Y257000D02*
X130000Y252000D01*
X124000Y257000D02*
X125000D01*
Y267000D02*
X130000Y262000D01*
X124000Y267000D02*
X125000D01*
X124000Y247000D02*
X125000D01*
X130000Y242000D01*
Y281000D02*
Y291000D01*
X124000Y297000D02*
X130000Y291000D01*
X117000Y264000D02*
X124000Y257000D01*
X117000Y264000D02*
Y280000D01*
X110000Y287000D02*
X117000Y280000D01*
X110000Y258000D02*
Y267000D01*
Y258000D02*
X110000D01*
X116000Y252000D01*
X217000Y272000D02*
X221000Y268000D01*
X169000Y248000D02*
X173000Y252000D01*
X193000Y280000D02*
X197000Y284000D01*
X177000Y272000D02*
Y272000D01*
X173000Y276000D02*
X177000Y272000D01*
X193000Y264000D02*
X197000Y260000D01*
X193000Y264000D02*
X193000D01*
X181000Y260000D02*
X185000Y264000D01*
X164000Y272000D02*
X169000D01*
X164000Y288000D02*
X169000D01*
X309000Y292000D02*
Y292000D01*
X305000Y296000D02*
X309000Y292000D01*
X277000Y276000D02*
X281000Y272000D01*
X269000Y260000D02*
Y276000D01*
X273000Y280000D01*
X102500Y306500D02*
X104250Y304750D01*
Y292750D02*
X110000Y287000D01*
X104250Y292750D02*
Y304750D01*
X164000Y280000D02*
X164000Y280000D01*
X169000D01*
X285000Y252000D02*
Y266000D01*
X283000Y268000D02*
X285000Y266000D01*
X277000Y268000D02*
X283000D01*
X225000Y264000D02*
X229000Y260000D01*
X225000Y264000D02*
Y264000D01*
X321000Y176000D02*
X322000D01*
X326000Y180000D01*
Y188000D02*
X331000D01*
X322000Y184000D02*
X326000Y188000D01*
X321000Y184000D02*
X322000D01*
X325000Y196000D02*
X329000Y192000D01*
X317000Y188000D02*
X321000Y192000D01*
X317000Y172000D02*
X321000Y168000D01*
X317000Y140000D02*
X321000Y144000D01*
X321000D01*
X337000D02*
X341000Y140000D01*
X345000Y144000D02*
X349000Y140000D01*
X117500Y380500D02*
Y384900D01*
X305500Y39500D02*
Y50500D01*
X84000Y347500D02*
X90100D01*
X334300Y91250D02*
X338750Y86800D01*
X315947Y88050D02*
X329950D01*
X185000Y120000D02*
X189000Y116000D01*
X193000Y248000D02*
X197000Y244000D01*
X197000Y236000D02*
X201000Y240000D01*
X237500Y27500D02*
Y33680D01*
Y27500D02*
X239000Y26000D01*
X265000Y128000D02*
X269000Y132000D01*
X317125Y69850D02*
X322125D01*
X317125Y81725D02*
X322125D01*
X189000Y188000D02*
X193000Y184000D01*
X189000Y204000D02*
X193000Y208000D01*
X309750Y329700D02*
X315750D01*
Y329700D01*
Y325050D02*
Y329700D01*
Y325050D02*
X317500Y323300D01*
X325750Y316700D02*
Y321300D01*
X323750Y323300D02*
X325750Y321300D01*
X317500Y323300D02*
X323750D01*
X84000Y342500D02*
X90100D01*
X205000Y220000D02*
X209000Y224000D01*
X205000Y284000D02*
Y292000D01*
X201000Y280000D02*
X205000Y284000D01*
X225000Y256000D02*
X233000D01*
X221000Y252000D02*
X225000Y256000D01*
Y248000D02*
X229000Y252000D01*
X201000Y232000D02*
X205000Y228000D01*
X193000Y232000D02*
X197000Y228000D01*
X181000Y236000D02*
X185000Y240000D01*
X181000Y228000D02*
X185000Y232000D01*
X201000Y264000D02*
X205000Y268000D01*
X209000Y272000D02*
X213000Y276000D01*
X85000Y377500D02*
X90100D01*
X122500Y384900D02*
Y391000D01*
X112500Y380500D02*
Y384900D01*
X301000Y252000D02*
X305000Y256000D01*
X173000Y300000D02*
X177000Y296000D01*
X181000Y292000D02*
X185000Y288000D01*
X177000Y256000D02*
X181000Y252000D01*
X181000Y244000D02*
X185000Y248000D01*
X197000Y252000D02*
X201000Y256000D01*
X321000Y296000D02*
Y296000D01*
Y296000D02*
X325000Y292000D01*
X142500Y384900D02*
Y391000D01*
X209000Y280000D02*
X213000Y284000D01*
X213000Y260000D02*
X217000Y256000D01*
X297000Y136000D02*
Y136000D01*
X301000Y140000D01*
X313000Y128000D02*
X317000Y132000D01*
X313000Y128000D02*
Y128000D01*
X205000Y188000D02*
X209000Y184000D01*
X205000Y196000D02*
X209000Y192000D01*
X305000Y272000D02*
X309000Y268000D01*
X305000Y264000D02*
X309000Y260000D01*
X301000Y276000D02*
X305000Y280000D01*
X309000Y276000D02*
X313000Y272000D01*
X205000Y260000D02*
X209000Y256000D01*
X169000Y232000D02*
X173000Y228000D01*
X213000Y132000D02*
X217000Y136000D01*
X221000Y132000D02*
X225000Y136000D01*
X213000Y140000D02*
X217000Y144000D01*
X337000Y135999D02*
X341000Y131999D01*
X353000Y192000D02*
X357000Y196000D01*
X309000Y212000D02*
X313000Y208000D01*
X361000Y224000D02*
X365000Y228000D01*
X345000Y216000D02*
X349000Y220000D01*
X329000Y208000D02*
X333000Y212000D01*
X345000Y200000D02*
X349000Y204000D01*
X333000D02*
X337000Y200000D01*
X345000Y232000D02*
X349000Y228000D01*
X337000Y216000D02*
X341000Y220000D01*
X317000Y196000D02*
X321000Y200000D01*
X329000Y216000D02*
X333000Y220000D01*
X317000Y228000D02*
X321000Y224000D01*
X261000Y132000D02*
X265000Y136000D01*
X261000Y140000D02*
X265000Y144000D01*
X273000Y120000D02*
X273000D01*
X277000Y124000D01*
X164172Y150000D02*
X167000D01*
X169000Y152000D01*
X159000Y144828D02*
X164172Y150000D01*
X173000Y148000D02*
X177000Y152000D01*
X165000Y148000D02*
X173000D01*
X84000Y367500D02*
X90100D01*
X80000Y362500D02*
X90100D01*
X84500Y327500D02*
X90100D01*
X96000Y287000D02*
Y288000D01*
X102500Y306500D02*
Y315100D01*
X325000Y268000D02*
X329000Y264000D01*
X333000Y276000D02*
X337000Y280000D01*
X337000D01*
X337000Y272000D02*
X341000Y276000D01*
X337000Y272000D02*
X337000D01*
X345000Y288000D02*
X345000D01*
X341000Y292000D02*
X345000Y288000D01*
X353000D02*
X357000Y292000D01*
X361000Y288000D02*
X365000Y292000D01*
X353000Y296000D02*
X357000Y300000D01*
X345000Y296000D02*
X349000Y292000D01*
X325000Y284000D02*
X329000Y280000D01*
X317000Y284000D02*
X321000Y280000D01*
Y280000D02*
Y280000D01*
X317000Y276000D02*
X321000Y272000D01*
X317000Y268000D02*
X321000Y264000D01*
X337000Y296000D02*
X341000Y300000D01*
X361000Y264000D02*
X365000Y268000D01*
X345000Y272000D02*
X345000D01*
X349000Y276000D01*
X361000Y152000D02*
X365000Y148000D01*
X333000Y124000D02*
X337000Y128000D01*
X361000D02*
X369000D01*
X369000Y128000D01*
X345000Y104000D02*
Y104000D01*
X341000Y108000D02*
X345000Y104000D01*
X353000Y104000D02*
Y104000D01*
Y104000D02*
X357000Y100000D01*
X345000Y128000D02*
Y128000D01*
Y128000D02*
X349000Y124000D01*
X345000Y120000D02*
Y120000D01*
Y120000D02*
X349000Y116000D01*
X353000Y112000D02*
X353000D01*
X349000Y108000D02*
X353000Y112000D01*
X361000D02*
X361000D01*
X357000Y108000D02*
X361000Y112000D01*
X329000Y136000D02*
X333000Y132000D01*
X345000Y136000D02*
X349000Y132000D01*
X353000Y264000D02*
X357000Y268000D01*
X361000Y136000D02*
X365000Y132000D01*
X353000Y136000D02*
X357000Y132000D01*
X345000Y152000D02*
X349000Y148000D01*
X329000Y144000D02*
X333000Y140000D01*
X527750Y286250D02*
X529500D01*
X496000Y334000D02*
X500000Y330000D01*
X496000Y334000D02*
X496000D01*
X492000Y330000D02*
X496000Y326000D01*
Y326000D02*
Y326000D01*
X460000Y330000D02*
X464000Y326000D01*
Y326000D02*
Y326000D01*
X436000Y330000D02*
X440000Y326000D01*
Y326000D02*
Y326000D01*
X436000Y290000D02*
X440000Y294000D01*
Y294000D01*
X452000Y290000D02*
X456000Y294000D01*
Y294000D01*
X460000Y290000D02*
X464000Y294000D01*
Y294000D01*
X492000Y290000D02*
X496000Y294000D01*
Y294000D01*
X484000Y282000D02*
X488000Y286000D01*
Y286000D01*
X476000Y282000D02*
X480000Y286000D01*
Y286000D01*
X452000Y282000D02*
X456000Y286000D01*
Y286000D01*
X436000Y282000D02*
X440000Y286000D01*
Y286000D01*
X476000Y338000D02*
X480000Y334000D01*
X452000Y338000D02*
X456000Y334000D01*
X444000Y338000D02*
X448000Y334000D01*
X464000Y326000D02*
Y326000D01*
X520000Y304250D02*
Y313000D01*
X512000Y296250D02*
X520000Y304250D01*
X528000Y302828D02*
Y313000D01*
X592250D02*
X595250Y316000D01*
X592000Y313000D02*
X592250D01*
X560000Y334000D02*
X580596D01*
X588000Y326596D01*
X567500Y328750D02*
X569750Y331000D01*
X563750Y328750D02*
X567500D01*
X562500Y330000D02*
X563750Y328750D01*
X577250Y331000D02*
X579000Y329250D01*
X569750Y331000D02*
X577250D01*
X579000Y325000D02*
Y329250D01*
Y325000D02*
X584000Y320000D01*
X556000Y330000D02*
X562500D01*
X570000Y326000D02*
X580000Y316000D01*
X560000Y326000D02*
X570000D01*
X576000Y313000D02*
Y316828D01*
X570078Y322750D02*
X576000Y316828D01*
X550078Y322750D02*
X570078D01*
X572000Y307000D02*
Y318000D01*
X569250Y320750D02*
X572000Y318000D01*
X549250Y320750D02*
X569250D01*
X541000Y333000D02*
X542000Y334000D01*
X541000Y330500D02*
X542250Y329250D01*
X542000Y334000D02*
X544000D01*
X541000Y330500D02*
Y333000D01*
X542250Y329250D02*
X545346D01*
X547250Y327346D01*
Y325578D02*
Y327346D01*
Y325578D02*
X550078Y322750D01*
X544000Y326000D02*
X549250Y320750D01*
X539250Y325750D02*
X546250Y318750D01*
X539250Y325750D02*
Y327750D01*
X532250Y330250D02*
Y333000D01*
X547000Y287000D02*
Y289500D01*
X542654Y290750D02*
X545750D01*
X547000Y289500D01*
X540250Y293154D02*
X542654Y290750D01*
X544000Y286000D02*
X546000D01*
X547000Y287000D01*
X536000Y294000D02*
Y294828D01*
X534250Y290750D02*
X537500D01*
X536000Y286000D02*
X537500D01*
X538750Y287250D01*
Y289500D01*
X537500Y290750D02*
X538750Y289500D01*
X532000Y293000D02*
X534250Y290750D01*
X536000Y302828D02*
Y313000D01*
X528000Y294000D02*
Y294828D01*
X526654Y290750D02*
X529250D01*
X529500Y286250D02*
X530750Y287500D01*
Y289250D01*
X529250Y290750D02*
X530750Y289250D01*
X524000Y293404D02*
X526654Y290750D01*
X520000Y294000D02*
Y294828D01*
X522750Y287250D02*
Y289000D01*
X521000Y290750D02*
X522750Y289000D01*
X517750Y290750D02*
X521000D01*
X519461Y300211D02*
X521711D01*
X516000Y296750D02*
X519461Y300211D01*
X516000Y292500D02*
Y296750D01*
Y292500D02*
X517750Y290750D01*
X520000Y286000D02*
X521500D01*
X522750Y287250D01*
X512000Y294000D02*
Y296250D01*
X584000Y313000D02*
Y320000D01*
X552000Y334000D02*
X556000Y338000D01*
X552000Y326000D02*
X556000Y330000D01*
X527750Y66250D02*
X529500D01*
X476000Y118000D02*
X480000Y114000D01*
X472000Y106000D02*
X476000Y110000D01*
X492000Y110000D02*
X496000Y106000D01*
X464000Y106000D02*
X468000Y110000D01*
X452000Y118000D02*
X456000Y114000D01*
X440000Y66000D02*
Y66000D01*
X436000Y62000D02*
X440000Y66000D01*
X456000Y66000D02*
Y66000D01*
X452000Y62000D02*
X456000Y66000D01*
X480000Y66000D02*
Y66000D01*
X476000Y62000D02*
X480000Y66000D01*
X488000Y66000D02*
Y66000D01*
X484000Y62000D02*
X488000Y66000D01*
X496000Y74000D02*
Y74000D01*
X492000Y78000D02*
X496000Y74000D01*
X464000Y74000D02*
Y74000D01*
X460000Y70000D02*
X464000Y74000D01*
X456000Y74000D02*
Y74000D01*
X452000Y70000D02*
X456000Y74000D01*
X440000Y106000D02*
Y106000D01*
X436000Y110000D02*
X440000Y106000D01*
X464000Y106000D02*
X464000D01*
X472000D02*
X472000D01*
X480000Y106000D02*
X480000D01*
X484000Y110000D01*
X496000Y106000D02*
Y106000D01*
X552000Y106000D02*
X556000Y110000D01*
X552000Y74000D02*
X560000Y82000D01*
Y93000D01*
X496000Y114000D02*
X496000D01*
X500000Y110000D01*
X444000Y118000D02*
X448000Y114000D01*
X512000Y74000D02*
Y76250D01*
X521500Y66000D02*
X522750Y67250D01*
X520000Y66000D02*
X521500D01*
X516000Y72500D02*
X517750Y70750D01*
X516000Y72500D02*
Y76750D01*
X519461Y80211D01*
X521711D01*
X524000Y82500D01*
X517750Y70750D02*
X521000D01*
X522750Y69000D01*
Y67250D02*
Y69000D01*
X520000Y74000D02*
Y74828D01*
X528000Y82828D01*
X529593Y79250D02*
X532000Y81657D01*
X524000Y76000D02*
X527250Y79250D01*
X529593D01*
X532000Y81657D02*
Y87000D01*
X524000Y73404D02*
Y76000D01*
Y73404D02*
X526654Y70750D01*
X529250D02*
X530750Y69250D01*
Y67500D02*
Y69250D01*
X529500Y66250D02*
X530750Y67500D01*
X526654Y70750D02*
X529250D01*
X528000Y74000D02*
Y74828D01*
X536000Y82828D01*
Y93000D01*
X532000Y73000D02*
X534250Y70750D01*
X537500D02*
X538750Y69500D01*
Y67250D02*
Y69500D01*
X537500Y66000D02*
X538750Y67250D01*
X536000Y66000D02*
X537500D01*
X532000Y76000D02*
X535625Y79625D01*
X532000Y73000D02*
Y76000D01*
X534250Y70750D02*
X537500D01*
X544000Y82828D02*
Y93000D01*
X536000Y74828D02*
X544000Y82828D01*
X536000Y74000D02*
Y74828D01*
X552000Y82000D02*
Y93000D01*
X544000Y74000D02*
X552000Y82000D01*
X541000Y110500D02*
Y113000D01*
X542000Y114000D02*
X544000D01*
X541000Y113000D02*
X542000Y114000D01*
X560000Y106000D02*
X570000D01*
X556000Y110000D02*
X562500D01*
X563750Y108750D01*
X567500D01*
X569750Y111000D01*
X528000Y82828D02*
Y93000D01*
X524000Y82500D02*
Y87000D01*
X512000Y76250D02*
X520000Y84250D01*
Y93000D01*
X468000Y290000D02*
Y290000D01*
X472000Y294000D01*
X476000Y330000D02*
Y330000D01*
Y330000D02*
X480000Y326000D01*
X468000Y330000D02*
X472000Y326000D01*
Y326000D02*
Y326000D01*
X440000Y74000D02*
X440000D01*
X436000Y70000D02*
X440000Y74000D01*
X468000Y70000D02*
X472000Y74000D01*
X468000Y70000D02*
Y70000D01*
X512000Y302000D02*
Y313000D01*
X504000Y294000D02*
X512000Y302000D01*
X509000Y102000D02*
X513000D01*
X504000Y97000D02*
X509000Y102000D01*
X504000Y93000D02*
Y97000D01*
X513000Y102000D02*
X515250Y104250D01*
X508000Y87000D02*
Y96000D01*
X510000Y98000D01*
X504000Y74000D02*
X504000D01*
X512000Y82000D01*
Y93000D01*
X345000Y184000D02*
X349000Y188000D01*
X337000Y184000D02*
Y184000D01*
X341000Y188000D01*
X345000Y168000D02*
X349000Y164000D01*
X353000Y184000D02*
X357000Y188000D01*
X361000Y184000D02*
X365000Y188000D01*
X361000Y168000D02*
X365000Y164000D01*
X353000Y168000D02*
X357000Y164000D01*
X321000Y160000D02*
X325000Y156000D01*
X337000Y168000D02*
X341000Y164000D01*
X321000Y152000D02*
X325000Y148000D01*
X337000Y160000D02*
X341000Y156000D01*
X345000Y160000D02*
X349000Y156000D01*
X329000Y160000D02*
X333000Y156000D01*
X337000Y152000D02*
X341000Y148000D01*
X329000Y168000D02*
X333000Y164000D01*
X361000Y248000D02*
X365000Y244000D01*
X345000Y256000D02*
X349000Y260000D01*
X329000Y256000D02*
X333000Y252000D01*
X333000Y260000D02*
X337000Y264000D01*
X341000Y260000D02*
X345000Y264000D01*
X337000Y256000D02*
X341000Y252000D01*
X337000Y248000D02*
X341000Y244000D01*
X337000Y240000D02*
X341000Y236000D01*
X321000Y256000D02*
X325000Y260000D01*
X321000Y248000D02*
X325000Y252000D01*
X345000Y248000D02*
X349000Y244000D01*
X345000Y240000D02*
X349000Y236000D01*
X325000Y244000D02*
X329000Y240000D01*
X317000Y244000D02*
X321000Y240000D01*
X317000Y244000D02*
Y252000D01*
X329000Y232000D02*
X333000Y236000D01*
X321000Y232000D02*
X325000Y236000D01*
X514000Y110250D02*
X515250Y109000D01*
X509750Y110250D02*
X514000D01*
X515250Y104250D02*
Y109000D01*
X173000Y220000D02*
X177000Y216000D01*
X205000Y204000D02*
X209000Y208000D01*
X165000Y236000D02*
X169000Y240000D01*
X297000Y264000D02*
X301000Y268000D01*
X173000Y244000D02*
X177000Y240000D01*
X193000Y224000D02*
X197000Y220000D01*
X201000Y216000D02*
X205000Y212000D01*
X197000Y204000D02*
X201000Y208000D01*
X237000Y116000D02*
X241000Y112000D01*
X347075Y82000D02*
X351000D01*
X327500Y56800D02*
X334375D01*
X345625Y73675D02*
Y80550D01*
X347075Y82000D01*
X332125Y69850D02*
X336175D01*
X338750Y72425D02*
Y86800D01*
X336175Y69850D02*
X338750Y72425D01*
X189000Y300000D02*
X193000Y296000D01*
X189000Y292000D02*
X193000Y288000D01*
X217000Y264000D02*
X221000Y260000D01*
X209000Y264000D02*
X213000Y268000D01*
X229000Y252000D02*
X234960D01*
X236960Y254000D01*
X137000Y135000D02*
X142000Y130000D01*
Y126000D02*
Y130000D01*
X161000Y144000D02*
X165000Y148000D01*
X80000Y337500D02*
X90100D01*
X273000Y272000D02*
X277000Y268000D01*
X285000Y124000D02*
X289000Y120000D01*
X289000Y152000D02*
X293000Y148000D01*
X197000Y188000D02*
X201000Y192000D01*
X193000Y192000D02*
X197000Y196000D01*
X165000Y220000D02*
X169000Y216000D01*
X173000Y204000D02*
X177000Y200000D01*
X237000Y108000D02*
X241000Y104000D01*
X269000Y132000D02*
X277000D01*
X277000Y132000D01*
X285000Y132000D02*
X289000Y128000D01*
X285000Y140000D02*
X289000Y136000D01*
X185000Y112000D02*
X189000Y108000D01*
X153000Y129000D02*
X161000Y137000D01*
Y144000D01*
X181000Y196000D02*
X185000Y192000D01*
X181000Y180000D02*
X185000Y184000D01*
X197000Y180000D02*
X201000Y184000D01*
X97500Y307500D02*
Y315100D01*
Y307500D02*
X102000Y303000D01*
X96000Y297000D02*
Y303000D01*
X280700Y303300D02*
X285000Y299000D01*
X270000Y303300D02*
X280700D01*
X266250Y307050D02*
X270000Y303300D01*
X260050Y307050D02*
X266250D01*
X257000Y304000D02*
X260050Y307050D01*
X277000Y292000D02*
X281000Y296000D01*
X261000Y288950D02*
X264050Y292000D01*
X277000D01*
X253000Y100000D02*
X257000Y104000D01*
X250850Y97150D02*
X256150D01*
X261000Y102000D01*
X231500Y88925D02*
X233500Y90925D01*
X251875D01*
X254125Y88675D01*
X225728Y94000D02*
X247000D01*
X265000Y120000D02*
X269000Y124000D01*
X280500Y44950D02*
X286000D01*
X292500Y51450D02*
Y62800D01*
X286000Y44950D02*
X292500Y51450D01*
X269000Y100000D02*
X276000D01*
X276000Y100000D01*
X269132Y108000D02*
X273132Y112000D01*
X261000Y260000D02*
Y288950D01*
X218400Y86671D02*
X225728Y94000D01*
X218400Y73025D02*
Y86671D01*
X341000Y228000D02*
X345000Y224000D01*
X341000Y204000D02*
X345000Y208000D01*
X337000D02*
X341000Y212000D01*
X367000Y192000D02*
X373000Y186000D01*
X361000Y192000D02*
X367000D01*
X321000Y216000D02*
X325000Y212000D01*
X317000Y212000D02*
X321000Y208000D01*
X508000Y112000D02*
X509750Y110250D01*
X506000Y117000D02*
X508000Y115000D01*
X506000Y117000D02*
Y119000D01*
X509000Y122000D02*
X512000D01*
X508000Y112000D02*
Y115000D01*
X506000Y119000D02*
X509000Y122000D01*
X506000Y339000D02*
X509000Y342000D01*
X508000Y332000D02*
Y335000D01*
X509000Y342000D02*
X512000D01*
X506000Y337000D02*
Y339000D01*
Y337000D02*
X508000Y335000D01*
Y332000D02*
X509750Y330250D01*
X515250Y324250D02*
Y329000D01*
X509750Y330250D02*
X514000D01*
X515250Y329000D01*
X513000Y322000D02*
X515250Y324250D01*
X504000Y313000D02*
Y317000D01*
X509000Y322000D01*
X513000D01*
X500000Y73404D02*
X502654Y70750D01*
X500000Y73404D02*
Y87000D01*
X502654Y70750D02*
X506000D01*
X510000Y56000D02*
X512000Y58000D01*
X508250Y56000D02*
X510000D01*
X507250Y57000D02*
X508250Y56000D01*
X506000Y70750D02*
X507250Y69500D01*
Y57000D02*
Y69500D01*
Y277000D02*
Y289500D01*
X506000Y290750D02*
X507250Y289500D01*
Y277000D02*
X508250Y276000D01*
X510000D01*
X512000Y278000D01*
X502654Y290750D02*
X506000D01*
X500000Y293404D02*
Y307000D01*
Y293404D02*
X502654Y290750D01*
X512000Y98000D02*
X520000Y106000D01*
X510000Y98000D02*
X512000D01*
X510000Y318000D02*
X512000D01*
X520000Y326000D01*
X508000Y316000D02*
X510000Y318000D01*
X508000Y307000D02*
Y316000D01*
X518000Y98000D02*
X520000D01*
X528000Y106000D01*
X516000Y96000D02*
X518000Y98000D01*
X516000Y87000D02*
Y96000D01*
X518000Y318000D02*
X520000D01*
X528000Y326000D01*
X516000Y316000D02*
X518000Y318000D01*
X516000Y307000D02*
Y316000D01*
X575000Y71000D02*
X581250Y77250D01*
X560000Y66000D02*
X583000D01*
X600000Y83000D01*
X581250Y77250D02*
X586250D01*
X596000Y87000D01*
X600000Y83000D02*
Y93000D01*
X572000Y71000D02*
X575000D01*
X560000Y74000D02*
Y75500D01*
X562500Y78000D01*
Y298000D02*
X564000D01*
X560000Y295500D02*
X562500Y298000D01*
X560000Y294000D02*
Y295500D01*
X572000Y291000D02*
X575000D01*
X565000Y298000D02*
X572000Y291000D01*
X564000Y298000D02*
X565000D01*
X564000Y298000D02*
X564000Y298000D01*
X586250Y297250D02*
X596000Y307000D01*
X581250Y297250D02*
X586250D01*
X575000Y291000D02*
X581250Y297250D01*
X583000Y286000D02*
X600000Y303000D01*
X560000Y286000D02*
X583000D01*
X313000Y296000D02*
X317000Y300000D01*
X372000Y191000D02*
X377000D01*
X580596Y114000D02*
X588000Y106596D01*
X560000Y114000D02*
X580596D01*
X569750Y111000D02*
X577250D01*
X579000Y109250D01*
Y105000D02*
Y109250D01*
Y105000D02*
X584000Y100000D01*
Y93000D02*
Y100000D01*
X576000Y93000D02*
Y96828D01*
X588000Y87000D02*
Y106596D01*
X580000Y87000D02*
Y96000D01*
X541000Y110500D02*
X542250Y109250D01*
X545346D01*
X547250Y107346D01*
X564000Y87000D02*
Y94750D01*
X547250Y105578D02*
Y107346D01*
X536000Y106000D02*
X545250Y96750D01*
X562000D01*
X564000Y94750D01*
X544000Y106000D02*
X549250Y100750D01*
X547250Y105578D02*
X550078Y102750D01*
X570078D01*
X569250Y100750D02*
X572000Y98000D01*
X549250Y100750D02*
X569250D01*
X570000Y106000D02*
X580000Y96000D01*
X570078Y102750D02*
X576000Y96828D01*
X572000Y87000D02*
Y98000D01*
X580000Y307000D02*
Y316000D01*
X588000Y307000D02*
Y326596D01*
X600000Y303000D02*
Y313000D01*
X552000Y302000D02*
Y313000D01*
X544000Y302828D02*
Y313000D01*
X521711Y300211D02*
X524000Y302500D01*
Y307000D01*
X524000Y293404D02*
Y296000D01*
X527250Y299250D01*
X520000Y294828D02*
X528000Y302828D01*
X527250Y299250D02*
X529593D01*
X532000Y301657D01*
Y307000D01*
X532000Y293000D02*
Y296000D01*
X535625Y299625D01*
X528000Y294828D02*
X536000Y302828D01*
X540250Y293154D02*
Y296250D01*
X536000Y294828D02*
X544000Y302828D01*
Y294000D02*
X552000Y302000D01*
Y294000D02*
X560000Y302000D01*
Y313000D01*
X377000Y180000D02*
X382000Y175000D01*
X361000Y176000D02*
X363000Y174000D01*
X371000D01*
X325000Y228000D02*
X333000D01*
X337000Y224000D01*
X345250Y191750D02*
X349250Y195750D01*
X536797Y299625D02*
X540000Y302828D01*
X535625Y299625D02*
X536797D01*
X540000Y302829D02*
X540000Y302828D01*
X540000Y302829D02*
Y307000D01*
X548000Y302829D02*
Y307000D01*
X543625Y299625D02*
X544797D01*
X548000Y302828D01*
X540250Y296250D02*
X543625Y299625D01*
X540000Y82829D02*
Y87000D01*
X535625Y79625D02*
X536797D01*
X540000Y82828D01*
X540250Y76250D02*
X543625Y79625D01*
X544797D02*
X548000Y82828D01*
X543625Y79625D02*
X544797D01*
X548000Y82829D02*
Y87000D01*
X540250Y73154D02*
Y76250D01*
X546000Y66000D02*
X547000Y67000D01*
X544000Y66000D02*
X546000D01*
X540250Y73154D02*
X542654Y70750D01*
X545750D02*
X547000Y69500D01*
X542654Y70750D02*
X545750D01*
X547000Y67000D02*
Y69500D01*
X554258Y79086D02*
X556000Y80828D01*
X555250Y67500D02*
Y69250D01*
X551914Y79086D02*
X554258D01*
X556000Y80828D02*
Y87000D01*
X548750Y72654D02*
X550654Y70750D01*
X548750Y72654D02*
Y75922D01*
X551914Y79086D01*
X562000Y316750D02*
X564000Y314750D01*
X545250Y316750D02*
X562000D01*
X536000Y326000D02*
X545250Y316750D01*
X564000Y307000D02*
Y314750D01*
X537750Y329250D02*
X539250Y327750D01*
X532250Y330250D02*
X533250Y329250D01*
X537750D01*
X532250Y333000D02*
X533250Y334000D01*
X536000D01*
X546250Y318750D02*
X565500D01*
X568000Y313000D02*
Y316250D01*
X565500Y318750D02*
X568000Y316250D01*
X565500Y98750D02*
X568000Y96250D01*
Y93000D02*
Y96250D01*
X546250Y98750D02*
X565500D01*
X533250Y114000D02*
X536000D01*
X532250Y113000D02*
X533250Y114000D01*
X533250Y109250D02*
X537750D01*
X532250Y110250D02*
X533250Y109250D01*
X537750D02*
X539250Y107750D01*
X532250Y110250D02*
Y113000D01*
X539250Y105750D02*
Y107750D01*
Y105750D02*
X546250Y98750D01*
X262875Y340925D02*
X263625Y341675D01*
X369000Y200000D02*
X373000Y196000D01*
X361000Y200000D02*
X369000D01*
X556000Y338000D02*
X589500D01*
X595250Y332250D01*
Y316000D02*
Y332250D01*
Y96000D02*
Y112250D01*
X589500Y118000D02*
X595250Y112250D01*
X556000Y118000D02*
X589500D01*
X552000Y114000D02*
X556000Y118000D01*
X592000Y93000D02*
X592250D01*
X595250Y96000D01*
X550654Y70750D02*
X553750D01*
X555250Y69250D01*
X552000Y66000D02*
X553750D01*
X555250Y67500D01*
X553750Y286000D02*
X555250Y287500D01*
X552000Y286000D02*
X553750D01*
X553750Y290750D02*
X555250Y289250D01*
X550654Y290750D02*
X553750D01*
X548750Y295922D02*
X551914Y299086D01*
X548750Y292654D02*
Y295922D01*
Y292654D02*
X550654Y290750D01*
X556000Y300828D02*
Y307000D01*
X551914Y299086D02*
X554258D01*
X555250Y287500D02*
Y289250D01*
X554258Y299086D02*
X556000Y300828D01*
X565000Y78000D02*
X572000Y71000D01*
X562500Y78000D02*
X565000D01*
X280500Y70350D02*
X286450D01*
X290625Y66175D01*
X224000Y20000D02*
X229000Y15000D01*
Y14000D02*
Y15000D01*
X142500Y309500D02*
X144000Y308000D01*
X142500Y309500D02*
Y315100D01*
X137500Y308500D02*
Y315100D01*
X136000Y307000D02*
X137500Y308500D01*
X117500Y310053D02*
Y315100D01*
X117750Y303250D02*
X124000Y297000D01*
X85000Y321000D02*
X86500Y322500D01*
X85000Y319000D02*
Y321000D01*
X86500Y322500D02*
X90100D01*
X81000Y322000D02*
Y324000D01*
X84500Y327500D01*
X96000Y277000D02*
Y287000D01*
Y277000D02*
X97000D01*
X102000Y272000D01*
X110000Y277000D02*
X110000D01*
X102000Y290000D02*
X103000Y289000D01*
Y284000D02*
Y289000D01*
Y284000D02*
X110000Y277000D01*
X102000Y290000D02*
Y303000D01*
X87000Y29000D02*
X94000D01*
X96000Y31000D01*
X87000Y13000D02*
X96000D01*
X103000Y50000D02*
X104000Y51000D01*
X96000Y50000D02*
X103000D01*
X93000Y47000D02*
X96000Y50000D01*
X93000Y47000D02*
X93000D01*
X104000Y51000D02*
Y54500D01*
X108000Y49000D02*
X109000Y50000D01*
Y54500D01*
X189000Y172000D02*
X193000Y168000D01*
X153697Y169000D02*
X156697Y172000D01*
X152000Y169000D02*
X153697D01*
X156697Y172000D02*
X189000D01*
X151000Y170000D02*
X152000Y169000D01*
X151000Y170000D02*
Y185250D01*
X149250Y187000D02*
X151000Y185250D01*
X147000Y164000D02*
X181000D01*
X185000Y168000D01*
X149250Y187000D02*
Y196250D01*
X151000Y198000D01*
Y202000D01*
X136750Y192750D02*
X139000Y195000D01*
Y200000D01*
X112000Y216000D02*
X120000D01*
X124000Y212000D01*
Y202000D02*
X130000D01*
X130000Y202000D01*
X124000Y218000D02*
Y224000D01*
X297000Y280000D02*
X301000Y284000D01*
X309000D01*
X297000Y288000D02*
X301000Y292000D01*
Y298000D01*
X303000Y300000D01*
X309000D01*
X285000Y270000D02*
X289000Y266000D01*
Y264000D02*
Y266000D01*
X285000Y270000D02*
Y281500D01*
X257000Y120000D02*
X261000Y116000D01*
Y102000D02*
Y116000D01*
X248000Y100000D02*
X250850Y97150D01*
X245000Y100000D02*
X248000D01*
X265000Y104000D02*
X269000Y100000D01*
X159000Y140000D02*
Y144828D01*
X157000Y138000D02*
X159000Y140000D01*
X153000Y138000D02*
X157000D01*
X153000D02*
Y148000D01*
X142000D02*
X153000D01*
X142000Y145000D02*
Y148000D01*
X139000Y142000D02*
X142000Y145000D01*
X137000Y142000D02*
X139000D01*
X164000Y265000D02*
X167000Y268000D01*
X189000D01*
X193000Y272000D01*
X213000Y292000D02*
Y306300D01*
X220750Y303800D02*
X226750D01*
X233750Y310800D01*
X229000Y278000D02*
Y290000D01*
Y278000D02*
X231000Y276000D01*
X234960D01*
X236960Y274000D01*
X283000Y284000D02*
X285000Y286000D01*
Y299000D01*
X229000Y290000D02*
X231000Y292000D01*
X259000D01*
X261000Y294000D01*
X215850Y309150D02*
X224150D01*
X228000Y313000D01*
Y317000D01*
Y329000D01*
X228000Y329000D01*
X213000Y306300D02*
X215850Y309150D01*
X235000Y347000D02*
X249000D01*
X249000Y347000D01*
X199750Y390500D02*
Y390800D01*
Y390500D02*
X205250Y385000D01*
X205250D01*
X215000D01*
X225000Y379000D02*
Y385000D01*
X242000D02*
Y391000D01*
X271750Y367550D02*
X273000Y368800D01*
Y373000D01*
X269125Y363800D02*
X273500D01*
X278750Y369050D01*
Y382550D01*
X276300Y385000D02*
X278750Y382550D01*
X273000Y385000D02*
X276300D01*
X287000Y366300D02*
Y373000D01*
X286500Y365800D02*
X287000Y366300D01*
X285000Y340000D02*
X291000Y334000D01*
X285000Y340000D02*
Y349550D01*
X263625Y341675D02*
X278325D01*
X277000Y329000D02*
Y335050D01*
X274125Y337925D02*
X277000Y335050D01*
X278325Y341675D02*
X283000Y337000D01*
X287200Y308200D02*
X291000Y312000D01*
Y317000D01*
X281000Y317000D02*
X283000Y319000D01*
Y337000D01*
X277000Y317000D02*
X281000D01*
X233750Y310800D02*
Y330750D01*
X235000Y332000D01*
Y347000D01*
X237500Y308500D02*
Y327500D01*
X239000Y329000D01*
X243000D01*
Y335000D01*
X247000Y339000D01*
X255000Y345000D02*
X257000Y347000D01*
X261000D01*
X247000Y339000D02*
X252000D01*
X255000Y342000D01*
Y345000D01*
X332700Y329700D02*
X337500Y334500D01*
X325750Y329700D02*
X332700D01*
X337500Y334500D02*
Y338200D01*
X367000Y27000D02*
X372925D01*
X366875Y14075D02*
X372675D01*
X277000Y11000D02*
X309825D01*
X285000Y21000D02*
X287500Y18500D01*
X299000D01*
X253000Y26000D02*
Y39180D01*
X252500Y39680D02*
X253000Y39180D01*
X258000Y20000D02*
X263000Y15000D01*
Y14000D02*
Y15000D01*
X247500Y15500D02*
X249000Y14000D01*
X247500Y15500D02*
Y33680D01*
X249000Y14000D02*
X253000D01*
X239000D02*
X243000D01*
X242500Y33377D02*
Y39680D01*
X225000Y26000D02*
X229000D01*
X211000Y20000D02*
X216000Y15000D01*
Y14000D02*
Y15000D01*
X220000Y14000D02*
X221000Y15000D01*
Y22000D01*
X216000Y14000D02*
X220000D01*
X221000Y22000D02*
X225000Y26000D01*
X216000D02*
X220000D01*
X223000Y29000D01*
Y36000D01*
X226680Y39680D01*
X232500D01*
X213000Y70000D02*
Y74000D01*
Y70000D02*
X218125Y64875D01*
Y59875D02*
Y64875D01*
X231500Y84500D02*
Y88925D01*
X218125Y59875D02*
X220350Y57650D01*
X225500D01*
X286875Y59875D02*
Y62800D01*
X302175Y66175D02*
X304000Y68000D01*
X290625Y66175D02*
X302175D01*
X304000Y68000D02*
Y72000D01*
X291820Y97150D02*
X299850D01*
X302000Y95000D01*
Y90000D02*
X304000Y88000D01*
X304050Y88050D01*
X302000Y90000D02*
Y95000D01*
X305500Y50500D02*
X308000Y53000D01*
X313303D02*
X316303Y50000D01*
X308000Y53000D02*
X313303D01*
X316303Y50000D02*
X320000D01*
X334375Y56800D02*
X347575Y70000D01*
X351000D01*
X323125Y62425D02*
X334375D01*
X345625Y73675D01*
X307500Y91800D02*
X312197D01*
X315947Y88050D01*
X318125Y91800D02*
X318675Y91250D01*
X334300D01*
X332125Y81725D02*
Y85875D01*
X329950Y88050D02*
X332125Y85875D01*
X357000Y196000D02*
X367000D01*
X372000Y191000D01*
X277000Y27000D02*
X283000D01*
X285000Y25000D01*
Y21000D02*
Y25000D01*
X205000Y252000D02*
X209000Y248000D01*
X205000Y236000D02*
X209000Y240000D01*
X273000Y288000D02*
X277000Y284000D01*
X283000D01*
X237000D02*
X243000D01*
X245000Y282000D01*
Y260000D02*
Y282000D01*
X280500Y57650D02*
X284650D01*
X286875Y59875D01*
X230050Y83050D02*
X231500Y84500D01*
X225500Y83050D02*
X230050D01*
X285000Y281500D02*
X287500Y284000D01*
X291000D01*
X293000Y286000D01*
Y292000D01*
X124000Y277000D02*
X126000D01*
X130000Y281000D01*
X345000Y26000D02*
Y27000D01*
X340000Y21000D02*
X345000Y26000D01*
Y27000D02*
X357000D01*
X339875Y8075D02*
X344875Y13075D01*
Y14075D01*
X356875D01*
X342500Y56800D02*
X348200D01*
X350000Y55000D01*
Y51000D02*
Y55000D01*
X291000Y330000D02*
Y334000D01*
X247500Y358500D02*
Y362800D01*
Y358500D02*
X249000Y357000D01*
X132500Y384900D02*
Y391000D01*
X252000Y385000D02*
X252000Y385000D01*
X252000Y373000D02*
Y385000D01*
X252000Y385000D02*
Y391000D01*
X203000Y108000D02*
X205000Y110000D01*
Y114000D01*
X207000Y116000D01*
D36*
X83000Y179000D02*
X84000Y180000D01*
Y193000D01*
X488000Y278000D02*
X492000Y274000D01*
X488000Y278000D02*
X488000D01*
X229000Y108000D02*
X233000Y104000D01*
X436250Y274250D02*
X440000Y278000D01*
X492000Y338000D02*
X496000Y342000D01*
X341000Y116000D02*
X345000Y112000D01*
X444000Y274000D02*
X448000Y278000D01*
X452000Y274000D02*
X456000Y278000D01*
X448000D02*
Y278000D01*
X488000Y342000D02*
X492000Y346000D01*
X488000Y342000D02*
X488000D01*
X496000Y342000D02*
Y342000D01*
X496000Y278000D02*
X500000Y274000D01*
X496000Y278000D02*
X496000D01*
X560000D02*
X564000Y274000D01*
X552000Y278000D02*
X556000Y274000D01*
X544000Y278000D02*
X548000Y274000D01*
X536000Y278000D02*
X540000Y274000D01*
X528000Y278000D02*
X532000Y274000D01*
X500000Y282000D02*
X504000Y286000D01*
X492000Y282000D02*
X496000Y286000D01*
X484000Y274000D02*
X488000Y278000D01*
Y278000D01*
X476000Y274000D02*
X480000Y278000D01*
Y278000D01*
X468000Y274000D02*
Y274000D01*
X472000Y278000D01*
X468000Y282000D02*
X472000Y286000D01*
X460000Y282000D02*
X464000Y286000D01*
X468000Y274000D02*
X468000D01*
X464000Y278000D02*
X468000Y274000D01*
X456000Y278000D02*
Y278000D01*
X444000Y282000D02*
X448000Y286000D01*
X560000Y342000D02*
X564000Y346000D01*
X552000Y342000D02*
X556000Y346000D01*
X548000D02*
X548000D01*
X544000Y342000D02*
X548000Y346000D01*
X528000Y334000D02*
X532000Y338000D01*
X528000Y342000D02*
X532000Y346000D01*
X512000Y334000D02*
X515730Y337730D01*
X500000Y338000D02*
X504000Y334000D01*
Y334000D02*
Y334000D01*
X484000Y330000D02*
X488000Y326000D01*
X484000Y338000D02*
X488000Y334000D01*
Y334000D02*
Y334000D01*
X476000Y346000D02*
X480000Y342000D01*
Y342000D02*
Y342000D01*
X468000Y338000D02*
X472000Y334000D01*
Y334000D02*
Y334000D01*
X464000Y334000D02*
X468000Y338000D01*
Y346000D02*
X472000Y342000D01*
X468000Y346000D02*
Y346000D01*
X460000D02*
X464000Y342000D01*
X452000Y346000D02*
X456000Y342000D01*
X436000Y338000D02*
X440000Y334000D01*
X444000Y346000D02*
X448000Y342000D01*
Y342000D02*
Y342000D01*
X436000Y346000D02*
X440000Y342000D01*
Y342000D02*
Y342000D01*
X524000Y338000D02*
Y339990D01*
X520000Y334000D02*
X524000Y338000D01*
X536000Y342000D02*
X540000Y346000D01*
X476000Y126000D02*
X480000Y122000D01*
X536000Y122000D02*
X540000Y126000D01*
X492000Y118000D02*
X496000Y122000D01*
X484000Y118000D02*
X488000Y114000D01*
X488000Y122000D02*
X492000Y126000D01*
X440000Y122000D02*
Y122000D01*
X436000Y126000D02*
X440000Y122000D01*
X448000Y122000D02*
Y122000D01*
X444000Y126000D02*
X448000Y122000D01*
X436000Y118000D02*
X440000Y114000D01*
X452000Y126000D02*
X456000Y122000D01*
X460000Y126000D02*
X464000Y122000D01*
X468000Y126000D02*
Y126000D01*
Y126000D02*
X472000Y122000D01*
X464000Y114000D02*
X468000Y118000D01*
X472000Y114000D02*
Y114000D01*
X468000Y118000D02*
X472000Y114000D01*
X480000Y122000D02*
Y122000D01*
X488000Y114000D02*
Y114000D01*
X504000Y114000D02*
Y114000D01*
X528000Y122000D02*
X532000Y126000D01*
X528000Y114000D02*
X532000Y118000D01*
X544000Y122000D02*
X548000Y126000D01*
X548000D01*
X552000Y122000D02*
X556000Y126000D01*
X560000Y122000D02*
X564000Y126000D01*
X444000Y62000D02*
X448000Y66000D01*
X436000Y54000D02*
X440000Y58000D01*
X448000Y58000D02*
Y58000D01*
X444000Y54000D02*
X448000Y58000D01*
X456000D02*
Y58000D01*
X452000Y54000D02*
X456000Y58000D01*
X464000Y58000D02*
X468000Y54000D01*
X468000D01*
X460000Y62000D02*
X464000Y66000D01*
X468000Y62000D02*
X472000Y66000D01*
X468000Y54000D02*
X472000Y58000D01*
X468000Y54000D02*
Y54000D01*
X480000Y58000D02*
Y58000D01*
X476000Y54000D02*
X480000Y58000D01*
X488000Y58000D02*
Y58000D01*
X484000Y54000D02*
X488000Y58000D01*
X492000Y62000D02*
X496000Y66000D01*
X500000Y62000D02*
X504000Y66000D01*
X528000Y58000D02*
X532000Y54000D01*
X536000Y58000D02*
X540000Y54000D01*
X544000Y58000D02*
X548000Y54000D01*
X552000Y58000D02*
X556000Y54000D01*
X560000Y58000D02*
X564000Y54000D01*
X496000Y58000D02*
X496000D01*
X500000Y54000D01*
X496000Y122000D02*
Y122000D01*
X488000D02*
X488000D01*
X520000Y114000D02*
X524000Y118000D01*
X444000Y70000D02*
X448000Y74000D01*
X500000Y118000D02*
X504000Y114000D01*
X488000Y106000D02*
X492000Y102000D01*
X444000Y298000D02*
X448000Y294000D01*
X515000Y374000D02*
X521000Y380000D01*
X524000Y344010D02*
Y353000D01*
X515000Y362000D02*
Y374000D01*
Y362000D02*
X524000Y353000D01*
X361000Y232000D02*
X378000D01*
X379000Y231000D01*
X512000Y114000D02*
X515730Y117730D01*
X512000Y286000D02*
X516000Y282000D01*
X512000Y66000D02*
X516000Y62000D01*
X110000Y297000D02*
Y301000D01*
X114000Y305000D01*
Y308000D01*
X96000Y258000D02*
Y267000D01*
Y255000D02*
X104000Y247000D01*
X96000Y255000D02*
Y258000D01*
X104000Y247000D02*
X110000D01*
X136000Y225000D02*
Y237000D01*
X135000Y244000D02*
X136000Y245000D01*
Y250000D01*
X136000Y237000D02*
Y244000D01*
Y251000D02*
Y289000D01*
X86000Y43000D02*
X89000D01*
X93000Y39000D01*
X86000Y53000D02*
Y63000D01*
X90000D01*
X93000Y66000D01*
Y71000D02*
X95000Y73000D01*
X93000Y66000D02*
Y71000D01*
X197000Y172000D02*
X197000Y172000D01*
X282050Y357000D02*
X292000D01*
X282000Y357050D02*
X282050Y357000D01*
X253000Y317000D02*
Y329000D01*
Y308333D02*
Y317000D01*
X353425Y37575D02*
X360425D01*
X350000Y41000D02*
X353425Y37575D01*
X200375Y19000D02*
X206000Y24625D01*
Y26000D01*
X200375Y19000D02*
X205375Y14000D01*
X206000D01*
X288000Y77000D02*
X293000Y72000D01*
X266000Y77000D02*
X288000D01*
X253000Y64000D02*
X266000Y77000D01*
X212750Y84250D02*
X213000Y84000D01*
X212750Y84250D02*
Y94750D01*
X217000Y99000D01*
X228000D01*
X313000Y38175D02*
X314825Y40000D01*
X320000D01*
X313000Y32000D02*
Y38175D01*
Y32000D02*
X321000Y24000D01*
X221000Y140000D02*
X225000Y144000D01*
X522000Y126010D02*
Y160000D01*
Y126010D02*
X524000Y124010D01*
X245000Y302000D02*
X246667D01*
X253000Y308333D01*
D37*
X505459Y23541D02*
Y26460D01*
X507000Y28000D01*
X505459Y23541D02*
X509000Y20000D01*
X501000Y27919D02*
X502710Y26209D01*
Y23709D02*
Y26209D01*
X499000Y20000D02*
X502710Y23709D01*
X181000Y156000D02*
X185000Y152000D01*
X189000Y156000D02*
X193000Y152000D01*
X233000Y120000D02*
X237000Y124000D01*
X233000Y120000D02*
Y120000D01*
X229000Y124000D02*
X233000Y128000D01*
X241000Y120000D02*
X245000Y116000D01*
X241000Y128000D02*
X245000Y124000D01*
X359498Y211500D02*
X386035D01*
X355998Y208000D02*
X359498Y211500D01*
X415689Y230965D02*
X423711D01*
X412260Y227535D02*
X415689Y230965D01*
X412260Y216500D02*
Y227535D01*
X371500Y270500D02*
X375500Y274500D01*
X371500Y266571D02*
Y270500D01*
X364379Y259450D02*
X371500Y266571D01*
X359571Y259450D02*
X364379D01*
X356121Y256000D02*
X359571Y259450D01*
X353000Y256000D02*
X356121D01*
X391000Y270000D02*
X392000Y269000D01*
X389081Y270000D02*
X391000D01*
X376535Y272000D02*
X378919D01*
X374000Y269464D02*
X376535Y272000D01*
X386781Y267700D02*
X389081Y270000D01*
X378919Y272000D02*
X383219Y267700D01*
X386781D01*
X374000Y265536D02*
Y269464D01*
X363564Y255100D02*
X374000Y265536D01*
X361900Y255100D02*
X363564D01*
X361000Y256000D02*
X361900Y255100D01*
X210125Y361050D02*
Y364339D01*
X206875Y357800D02*
X210125Y361050D01*
X200875Y342875D02*
X202500Y344500D01*
X191300Y333300D02*
X197300Y339300D01*
X200875Y341300D02*
Y342875D01*
Y341300D02*
X201300Y340875D01*
Y339875D02*
Y340875D01*
X200300Y338875D02*
X201300Y339875D01*
X199300Y338875D02*
X200300D01*
X198875Y339300D02*
X199300Y338875D01*
X197300Y339300D02*
X198875D01*
X224000Y345425D02*
X225625Y343800D01*
X217925Y351500D02*
X220425Y349000D01*
Y347425D02*
Y349000D01*
X220000Y347000D02*
X220425Y347425D01*
X220000Y346000D02*
Y347000D01*
Y346000D02*
X221000Y345000D01*
X222000D01*
X222425Y345425D01*
X224000D01*
X228125Y337675D02*
Y344836D01*
X218960Y354000D02*
X228125Y344836D01*
X212625Y358300D02*
Y365375D01*
Y358300D02*
X213125Y357800D01*
X210000Y368000D02*
X212625Y365375D01*
X208965Y365500D02*
X210125Y364339D01*
X225125Y368050D02*
Y371175D01*
X223000Y373300D02*
X225125Y371175D01*
X221875Y364800D02*
X225125Y368050D01*
X194836Y373300D02*
X215350D01*
X216500Y372150D01*
X217500Y370500D02*
X219000D01*
X220000Y371500D01*
X207115Y365500D02*
X208965D01*
X199500D02*
X201315D01*
X204965Y362700D02*
X205965Y363700D01*
Y364350D02*
X207115Y365500D01*
X202465Y363700D02*
X203465Y362700D01*
X204965D01*
X201315Y365500D02*
X202465Y364350D01*
X216500Y371500D02*
Y372150D01*
Y371500D02*
X217500Y370500D01*
X220000Y372150D02*
X221150Y373300D01*
X220000Y371500D02*
Y372150D01*
X221150Y373300D02*
X223000D01*
X191000Y357000D02*
X199500Y365500D01*
X183500Y357000D02*
X191000D01*
X182000Y358500D02*
X183500Y357000D01*
X189965Y359500D02*
X198465Y368000D01*
X184536Y359500D02*
X189965D01*
X183036Y361000D02*
X184536Y359500D01*
X198465Y368000D02*
X210000D01*
X178000Y361000D02*
X183036D01*
X201465Y347000D02*
X210000D01*
X188800Y329300D02*
Y334336D01*
X201465Y347000D01*
X202500Y344500D02*
X208965D01*
X191300Y328265D02*
Y333300D01*
X168000Y331250D02*
X169600Y332850D01*
Y334407D01*
X172100Y331814D02*
Y333371D01*
X177400Y335171D02*
X179200Y333371D01*
Y328265D02*
Y333371D01*
X181700Y329371D02*
Y334407D01*
X178435Y337671D02*
X181700Y334407D01*
X197304Y351500D02*
X217925D01*
X196268Y354000D02*
X218960D01*
X165248Y328750D02*
X169035D01*
X172100Y331814D01*
Y333371D02*
X173900Y335171D01*
X169600Y334407D02*
X172864Y337671D01*
X165248Y331250D02*
X168000D01*
X172864Y337671D02*
X178435D01*
X173900Y335171D02*
X177400D01*
X179200Y328265D02*
X182465Y325000D01*
X181700Y329300D02*
X183500Y327500D01*
X187000D01*
X188800Y329300D01*
X182465Y325000D02*
X188036D01*
X191300Y328265D01*
X179035Y358500D02*
X182000D01*
X187535Y366000D02*
X194836Y373300D01*
X177250Y352965D02*
Y356715D01*
X174286Y350000D02*
X177250Y352965D01*
X173250Y352500D02*
X174750Y354000D01*
Y357750D01*
X177250Y356715D02*
X179035Y358500D01*
X174750Y357750D02*
X178000Y361000D01*
X171035Y352500D02*
X173250D01*
X170000Y350000D02*
X174286D01*
X189554Y343750D02*
X197304Y351500D01*
X188518Y346250D02*
X196268Y354000D01*
X356050Y160000D02*
X359550Y156500D01*
X353000Y160000D02*
X356050D01*
X363700Y157500D02*
X372035D01*
X362700Y156500D02*
X363700Y157500D01*
X359550Y156500D02*
X362700D01*
X361000Y160000D02*
X371000D01*
X337000Y176000D02*
X341000Y172000D01*
X345000Y176000D02*
X349000Y172000D01*
X488000Y74000D02*
Y74000D01*
X484000Y70000D02*
X488000Y74000D01*
X381000Y129000D02*
Y136000D01*
X376500Y122308D02*
X377400Y121408D01*
X374500Y142500D02*
X381000Y136000D01*
X376500Y124500D02*
X381000Y129000D01*
X377400Y118592D02*
Y121408D01*
X376000Y117192D02*
X377400Y118592D01*
X361000Y144000D02*
X362500Y142500D01*
X374500D01*
X376500Y122308D02*
Y124500D01*
X376000Y116000D02*
Y117192D01*
X480000Y74000D02*
Y74000D01*
X476000Y70000D02*
X480000Y74000D01*
X378500Y130035D02*
Y134965D01*
X374000Y125535D02*
X378500Y130035D01*
X373465Y140000D02*
X378500Y134965D01*
X374000Y120000D02*
Y125535D01*
X353000Y144000D02*
X356000D01*
X360000Y140000D01*
X373465D01*
X362965Y115500D02*
X366000D01*
X361915Y116550D02*
X362965Y115500D01*
X356450Y116550D02*
X361915D01*
X353000Y120000D02*
X356450Y116550D01*
X373135Y108400D02*
X374408D01*
X376400Y102400D02*
Y106408D01*
X374408Y108400D02*
X376400Y106408D01*
X376000Y102000D02*
X376400Y102400D01*
X460000Y110000D02*
X460000D01*
X456000Y106000D02*
X460000Y110000D01*
X452000D02*
X452000D01*
X448000Y106000D02*
X452000Y110000D01*
X364066Y314500D02*
X371000Y307566D01*
Y307000D02*
Y307566D01*
X365515Y307515D02*
Y309515D01*
X363031Y312000D02*
X365515Y309515D01*
X339950Y314500D02*
X364066D01*
X365000Y307000D02*
X365515Y307515D01*
X330500Y305050D02*
X339950Y314500D01*
X330500Y297500D02*
Y305050D01*
X329000Y296000D02*
X330500Y297500D01*
X333000Y304014D02*
X340986Y312000D01*
X333000Y295121D02*
Y304014D01*
X340986Y312000D02*
X363031D01*
X444000Y330000D02*
X448000Y326000D01*
X390808Y316000D02*
X392000D01*
X387408Y312600D02*
X390808Y316000D01*
X383596Y313596D02*
X384592Y312600D01*
X387408D01*
X380596Y313596D02*
X383596D01*
X378000Y311000D02*
X380596Y313596D01*
X378000Y303000D02*
Y311000D01*
X376000Y301000D02*
X378000Y303000D01*
X376000Y285929D02*
Y301000D01*
X372121Y282050D02*
X376000Y285929D01*
X361636Y282050D02*
X372121D01*
X361000Y280000D02*
Y281414D01*
X361636Y282050D01*
X452000Y330000D02*
X456000Y326000D01*
X385904Y316096D02*
X386000Y316000D01*
X379560Y316096D02*
X385904D01*
X373500Y286964D02*
Y302036D01*
X371086Y284550D02*
X373500Y286964D01*
X360600Y284550D02*
X371086D01*
X356050Y280000D02*
X360600Y284550D01*
X353000Y280000D02*
X356050D01*
X381300Y262300D02*
X386781D01*
X390081Y259000D02*
X391000D01*
X386781Y262300D02*
X390081Y259000D01*
X373000Y241000D02*
Y250464D01*
X370500Y242036D02*
Y251500D01*
X380536Y258000D02*
X385000D01*
X373000Y250464D02*
X380536Y258000D01*
X368500Y236500D02*
X373000Y241000D01*
X356000Y240000D02*
X359500Y236500D01*
X368500D01*
X353000Y240000D02*
X356000D01*
X362000Y239000D02*
X367464D01*
X370500Y242036D01*
X361000Y240000D02*
X362000Y239000D01*
X370500Y251500D02*
X381300Y262300D01*
X165248Y346250D02*
X188518D01*
X159900Y332500D02*
X163998D01*
X165248Y331250D01*
X163998Y327500D02*
X165248Y328750D01*
X159900Y327500D02*
X163998D01*
Y347500D02*
X165248Y346250D01*
X159900Y347500D02*
X163998D01*
X476000Y290000D02*
X480000Y294000D01*
X329000Y288000D02*
Y291121D01*
X333000Y295121D01*
X484000Y290000D02*
X488000Y294000D01*
X452829Y179000D02*
X460851D01*
X403309Y179000D02*
X411331D01*
X428069D02*
X436091D01*
X424640Y182429D02*
X428069Y179000D01*
X399880Y182429D02*
X403309Y179000D01*
X411331D02*
X414760Y182429D01*
X449400Y182429D02*
X452829Y179000D01*
X460851D02*
X464280Y182429D01*
X436091Y179000D02*
X439520Y182429D01*
X474160Y182429D02*
Y194464D01*
Y182429D02*
X477589Y179000D01*
X485611D01*
X479700Y148300D02*
Y153781D01*
Y148300D02*
X480000Y148000D01*
X479700Y153781D02*
X482219Y156300D01*
X485765D01*
X366000Y205500D02*
X367000Y204500D01*
X366000Y205500D02*
Y208000D01*
X367000Y204500D02*
X369000D01*
X399880Y182429D02*
Y194120D01*
X370000Y205500D02*
Y208000D01*
X369000Y204500D02*
X370000Y205500D01*
X361000Y208000D02*
X362000Y209000D01*
X365000D01*
X370000Y208000D02*
X371000Y209000D01*
X385000D02*
X399880Y194120D01*
X365000Y209000D02*
X366000Y208000D01*
X371000Y209000D02*
X385000D01*
X439520Y182429D02*
Y194464D01*
X414760Y182429D02*
Y194464D01*
X424640Y182429D02*
Y194464D01*
X449400Y182429D02*
Y194464D01*
X464280Y182429D02*
Y194464D01*
X466245Y196429D01*
X472195D02*
X474160Y194464D01*
X414760Y194464D02*
X416725Y196429D01*
X422675D01*
X424640Y194464D01*
X439520Y194464D02*
X441485Y196429D01*
X447435D02*
X449400Y194464D01*
X441485Y196429D02*
X447435D01*
X466245Y196429D02*
X472195D01*
X485611Y179000D02*
X489040Y182429D01*
X485765Y156300D02*
X489500Y160035D01*
Y169169D01*
X489040Y182429D02*
Y194464D01*
X491005Y196429D01*
X496955D01*
X489500Y169169D02*
X498920Y178589D01*
X496955Y196429D02*
X498920Y194464D01*
Y178589D02*
Y194464D01*
X453865Y181500D02*
X459815D01*
X429105Y181500D02*
X435055D01*
X437020Y183465D01*
X410295Y181500D02*
X412260Y183465D01*
X427140Y183465D02*
X429105Y181500D01*
X476660Y183465D02*
X478625Y181500D01*
X451900Y183465D02*
X453865Y181500D01*
X459815D02*
X461780Y183465D01*
X478625Y181500D02*
X484575D01*
X484000Y152000D02*
X485000D01*
X484575Y181500D02*
X486540Y183464D01*
X402380Y183465D02*
X404345Y181500D01*
X402380Y183465D02*
Y195156D01*
X404345Y181500D02*
X410295D01*
X412260Y183465D02*
Y195500D01*
X415689Y198929D01*
X353000Y208000D02*
X355998D01*
X386035Y211500D02*
X402380Y195156D01*
X415689Y198929D02*
X423711D01*
X451900Y183465D02*
Y195500D01*
X427140Y183465D02*
Y195500D01*
X437020Y183465D02*
Y195500D01*
X476660Y183465D02*
Y195500D01*
X461780Y183465D02*
Y195500D01*
X473231Y198929D02*
X476660Y195500D01*
X437020Y195500D02*
X440449Y198929D01*
X423711Y198929D02*
X427140Y195500D01*
X440449Y198929D02*
X448471D01*
X461780Y195500D02*
X465209Y198929D01*
X448471Y198929D02*
X451900Y195500D01*
X465209Y198929D02*
X473231D01*
X509000Y20000D02*
X509000D01*
X485000Y152000D02*
X492000Y159000D01*
X486540Y183464D02*
Y195500D01*
X489969Y198929D01*
X492000Y159000D02*
Y168134D01*
X489969Y198929D02*
X497991D01*
X501420Y195500D01*
X492000Y168134D02*
X501420Y177554D01*
Y195500D01*
X476145Y318145D02*
X496145D01*
X361000Y216000D02*
X362000Y217000D01*
X365000D01*
X372000Y217500D02*
X373000Y216500D01*
X399880Y215464D02*
X403309Y212035D01*
X411331D01*
X373000Y216500D02*
X375000D01*
X376000Y217500D01*
X372000Y217500D02*
Y220000D01*
X376000Y217500D02*
Y220000D01*
X399880Y215464D02*
Y226500D01*
X376000Y220000D02*
X377000Y221000D01*
X386500D01*
X411331Y212035D02*
X414760Y215464D01*
X424640Y215464D02*
X428069Y212035D01*
X436091D01*
X439520Y215465D01*
X449400Y215465D02*
X452829Y212035D01*
X460851D01*
X477589Y214035D02*
X485611D01*
X414760Y215464D02*
Y226500D01*
X424640Y215464D02*
Y226500D01*
X439520Y215465D02*
Y226500D01*
X449400Y215465D02*
Y226500D01*
X460851Y212035D02*
X464280Y215465D01*
X474160Y217465D02*
X477589Y214035D01*
X464280Y215465D02*
Y226500D01*
X474160Y217465D02*
Y226500D01*
X390000Y226500D02*
X391965Y228465D01*
X397915D01*
X399880Y226500D01*
X414760Y226500D02*
X416725Y228465D01*
X422675D02*
X424640Y226500D01*
X416725Y228465D02*
X422675D01*
X439520Y226500D02*
X441485Y228465D01*
X447435D02*
X449400Y226500D01*
X464280Y226500D02*
X466245Y228465D01*
X441485Y228465D02*
X447435D01*
X466245Y228465D02*
X472195D01*
X474160Y226500D01*
X475000Y252000D02*
X479768Y247232D01*
X475000Y252000D02*
Y260000D01*
X479732Y264732D01*
X479768Y247232D02*
X489040Y237960D01*
X479732Y264732D02*
X490732D01*
X479768Y247232D02*
Y247232D01*
X489040Y217465D02*
Y237960D01*
X485611Y214035D02*
X489040Y217465D01*
X486700Y250300D02*
Y255781D01*
Y250300D02*
X487000Y250000D01*
X486700Y255781D02*
X489219Y258300D01*
X491764D01*
X493500Y260035D01*
X490732Y264732D02*
X493500Y261964D01*
Y260035D02*
Y261964D01*
X353000Y216000D02*
X356121D01*
X410295Y214535D02*
X412260Y216500D01*
X402380Y216500D02*
X404345Y214535D01*
X410295D01*
X356121Y216000D02*
X359621Y219500D01*
X363965D01*
X402380Y216500D02*
Y227535D01*
X435055Y214535D02*
X437020Y216500D01*
X427140Y216500D02*
X429105Y214535D01*
X435055D01*
X451900Y216500D02*
X453865Y214535D01*
X459815D01*
X427140Y216500D02*
Y227535D01*
X437020Y216500D02*
Y227535D01*
X459815Y214535D02*
X461780Y216500D01*
X451900Y216500D02*
Y227536D01*
X461780Y216500D02*
Y227536D01*
X390929Y230965D02*
X398951D01*
X402380Y227535D01*
X423711Y230965D02*
X427140Y227535D01*
X437020Y227535D02*
X440449Y230965D01*
X448471D02*
X451900Y227536D01*
X440449Y230965D02*
X448471D01*
X461780Y227536D02*
X465209Y230965D01*
X473231D01*
X472305Y305160D02*
X476665Y300800D01*
X472500Y250965D02*
X486540Y236924D01*
X473231Y230965D02*
X476660Y227536D01*
X472500Y250965D02*
Y261035D01*
X478697Y267232D01*
X472305Y305160D02*
Y314305D01*
X476145Y318145D01*
X478625Y216535D02*
X484575D01*
X476660Y218500D02*
Y227536D01*
Y218500D02*
X478625Y216535D01*
X484575D02*
X486540Y218500D01*
Y236924D01*
X476665Y300800D02*
X485800D01*
X478697Y267232D02*
X491768D01*
X485800Y300800D02*
X489000Y304000D01*
X491000Y254000D02*
X496000Y259000D01*
Y263000D01*
X491768Y267232D02*
X496000Y263000D01*
X489000Y304000D02*
Y310000D01*
X496145Y318145D02*
X504000Y326000D01*
X497180Y95645D02*
X504335Y102800D01*
X496145Y98145D02*
X504000Y106000D01*
X489000Y84000D02*
Y90000D01*
X485800Y80800D02*
X489000Y84000D01*
X476665Y80800D02*
X485800D01*
X472305Y94305D02*
X476145Y98145D01*
X472305Y85160D02*
Y94305D01*
Y85160D02*
X476665Y80800D01*
X474805Y86195D02*
X477700Y83300D01*
X474805Y93269D02*
X477181Y95645D01*
X474805Y86195D02*
Y93269D01*
X477700Y83300D02*
X484765D01*
X477181Y95645D02*
X497180D01*
X476145Y98145D02*
X496145D01*
X501000Y27919D02*
Y28000D01*
X483000Y89919D02*
Y90000D01*
X508700Y107500D02*
X510500D01*
X512000Y106000D01*
X507200D02*
X508700Y107500D01*
X507200Y104597D02*
Y106000D01*
X504335Y102800D02*
X505403D01*
X507200Y104597D01*
X505403Y322800D02*
X507200Y324597D01*
X504335Y322800D02*
X505403D01*
X507200Y324597D02*
Y326000D01*
X508700Y327500D01*
X510500D02*
X512000Y326000D01*
X508700Y327500D02*
X510500D01*
X483000Y309919D02*
Y310000D01*
X477181Y315645D02*
X497180D01*
X477700Y303300D02*
X484765D01*
X474805Y306195D02*
Y313269D01*
X477181Y315645D01*
X474805Y306195D02*
X477700Y303300D01*
X497180Y315645D02*
X504335Y322800D01*
X313000Y104000D02*
X317000Y100000D01*
X313000Y112000D02*
X317000Y108000D01*
X293000Y116000D02*
X297000Y112000D01*
Y112000D02*
Y112000D01*
X293000Y108000D02*
X297000Y104000D01*
X305000Y112000D02*
X309000Y108000D01*
X305000Y104000D02*
X309000Y100000D01*
X305000Y120000D02*
X309000Y116000D01*
X305000Y128000D02*
X309000Y124000D01*
X297000Y128000D02*
X301000Y132000D01*
X297000Y120000D02*
X301000Y124000D01*
X229000Y140000D02*
X233000Y144000D01*
Y144000D01*
X229000Y132000D02*
X233000Y136000D01*
Y136000D01*
X237000Y140000D02*
X241000Y136000D01*
Y144000D02*
X245000Y140000D01*
X367035Y118000D02*
X370536Y114500D01*
Y111000D02*
X373135Y108400D01*
X370536Y111000D02*
Y114500D01*
X366000Y115500D02*
X368036Y113464D01*
Y109965D02*
Y113464D01*
Y109965D02*
X373000Y105000D01*
X362000Y120000D02*
X364000Y118000D01*
X361000Y120000D02*
X362000D01*
X364000Y118000D02*
X367035D01*
X377000Y146000D02*
X377081D01*
X380081Y149000D01*
X381035D01*
X384000Y151965D01*
X377000Y152000D02*
X377500D01*
X377500Y152000D01*
X380500D02*
X381500Y153000D01*
X377500Y152000D02*
X380500D01*
X372035Y157500D02*
X374535Y160000D01*
X371000Y160000D02*
X373500Y162500D01*
X380036D02*
X384000Y158535D01*
X373500Y162500D02*
X380036D01*
X384000Y151965D02*
Y158535D01*
X379000Y160000D02*
X381500Y157500D01*
Y153000D02*
Y157500D01*
X374535Y160000D02*
X379000D01*
X379954Y274500D02*
X382454Y272000D01*
X385000D01*
X375500Y274500D02*
X379954D01*
X375500Y304035D02*
Y312036D01*
X373500Y302036D02*
X375500Y304035D01*
Y312036D02*
X379560Y316096D01*
X385465Y223500D02*
X387500Y225536D01*
Y227535D01*
X390929Y230965D01*
X486500Y305035D02*
Y306419D01*
X483000Y309919D02*
X486500Y306419D01*
X484765Y303300D02*
X486500Y305035D01*
X484765Y83300D02*
X486500Y85035D01*
Y86419D01*
X483000Y89919D02*
X486500Y86419D01*
X390000Y224500D02*
Y226500D01*
X386500Y221000D02*
X390000Y224500D01*
X363965Y219500D02*
X367965Y223500D01*
X369000Y221000D02*
X371000D01*
X372000Y220000D01*
X365000Y217000D02*
X369000Y221000D01*
X171001Y16999D02*
X175000Y13000D01*
X173000Y188000D02*
Y188000D01*
X177000Y192000D01*
X165000Y188000D02*
Y188000D01*
X171499Y19499D02*
X175000Y23000D01*
X165000Y188000D02*
X169000Y192000D01*
X166001Y16999D02*
X171001D01*
X163000Y20000D02*
X166001Y16999D01*
X162000Y45250D02*
X165750D01*
X168000Y43000D01*
X165750Y50750D02*
X168000Y53000D01*
X162000Y50750D02*
X165750D01*
X185000Y13000D02*
X189000Y17000D01*
X192000D01*
X185000Y23000D02*
X188500Y19500D01*
X192000Y17000D02*
X197500Y22500D01*
Y30000D01*
X206875Y42200D02*
X207044D01*
X207000Y42244D02*
X207044Y42200D01*
X197500Y30000D02*
X200500Y33000D01*
X210000D01*
X195000Y31035D02*
X199464Y35500D01*
X202500D01*
X206250Y36250D02*
X207000Y35500D01*
X209389Y54925D02*
X210500Y56035D01*
Y58700D01*
X206875Y62325D02*
X210500Y58700D01*
X213000Y62200D02*
X213125Y62325D01*
X210425Y52425D02*
X213000Y55000D01*
Y62200D01*
X198250Y70250D02*
X202000Y74000D01*
X201575Y52425D02*
X210425D01*
X198250Y62250D02*
X199000Y63000D01*
X202750Y64000D02*
Y65000D01*
X201750Y66000D02*
X202750Y65000D01*
X198250Y66750D02*
X199000Y66000D01*
X198250Y66750D02*
Y70250D01*
X202610Y54925D02*
X209389D01*
X198250Y59285D02*
X202610Y54925D01*
X201750Y63000D02*
X202750Y64000D01*
X199000Y63000D02*
X201750D01*
X199000Y66000D02*
X201750D01*
X198250Y59285D02*
Y62250D01*
X189000Y43000D02*
X192000Y46000D01*
X195000D01*
X192000Y50000D02*
X195000D01*
X189000Y53000D02*
X192000Y50000D01*
X207000Y35500D02*
X207000D01*
X208965D01*
X178000Y53000D02*
X181750Y49250D01*
X185250D02*
X189000Y53000D01*
X181750Y49250D02*
X185250D01*
X163000Y20000D02*
Y33465D01*
X178000Y43000D02*
X181750Y46750D01*
X185250D01*
X189000Y43000D01*
X192000Y74000D02*
X195750Y70250D01*
X188500Y19500D02*
X190965D01*
X195000Y23535D01*
Y31035D01*
X165500Y21035D02*
X167036Y19499D01*
X165500Y21035D02*
Y34500D01*
X167036Y19499D02*
X171499D01*
X195750Y58250D02*
Y70250D01*
Y58250D02*
X201575Y52425D01*
X203250Y37250D02*
X204000Y38000D01*
X205500D01*
X205500D02*
X206250Y37250D01*
X203250Y36250D02*
Y37250D01*
X202500Y35500D02*
X203250Y36250D01*
X206250D02*
Y37250D01*
X208965Y35500D02*
X210125Y36661D01*
X207044Y42200D02*
X210125Y39119D01*
Y36661D02*
Y39119D01*
X210000Y33000D02*
X212625Y35625D01*
Y41700D02*
X213125Y42200D01*
X212625Y35625D02*
Y41700D01*
X154000Y35000D02*
X155500Y36500D01*
X161000Y39000D02*
X165500Y34500D01*
X154000Y41000D02*
X154081D01*
X156081Y39000D01*
X161000D01*
X159964Y36500D02*
X163000Y33465D01*
X155500Y36500D02*
X159964D01*
X367965Y223500D02*
X385465D01*
X165000Y212000D02*
X169000Y208000D01*
X176929Y85500D02*
X182500D01*
X192000Y84000D02*
X195500Y87500D01*
Y89465D01*
X194464Y90500D02*
X195500Y89465D01*
X182500Y85500D02*
X187500Y90500D01*
X194464D01*
X173000Y212000D02*
X177000Y208000D01*
X177964Y88000D02*
X181465D01*
X186465Y93000D01*
X195500D01*
X198000Y90500D01*
Y88000D02*
X202000Y84000D01*
X198000Y88000D02*
Y90500D01*
X172000Y93919D02*
X174250Y91669D01*
X176750Y89214D02*
X177964Y88000D01*
X176750Y89214D02*
Y92750D01*
X178000Y94000D01*
X174250Y88179D02*
Y91669D01*
Y88179D02*
X176929Y85500D01*
X186500Y368500D02*
X193800Y375800D01*
X227625Y365300D02*
X228125Y364800D01*
X227625Y365300D02*
Y372211D01*
X193800Y375800D02*
X224035D01*
X227625Y372211D01*
X170750Y366000D02*
X187535D01*
X168000Y368750D02*
X170750Y366000D01*
X171785Y368500D02*
X186500D01*
X169035Y371250D02*
X171785Y368500D01*
X159900Y352500D02*
X163750D01*
X165000Y353750D01*
X166250D01*
X170000Y350000D01*
X202465Y363700D02*
Y364350D01*
X205965Y363700D02*
Y364350D01*
X163750Y367500D02*
X165000Y368750D01*
X168000D01*
X159900Y372500D02*
X163750D01*
X165000Y371250D02*
X169035D01*
X163750Y372500D02*
X165000Y371250D01*
X163998Y342500D02*
X165248Y343750D01*
X159900Y342500D02*
X163998D01*
X167285Y356250D02*
X171035Y352500D01*
X159900Y357500D02*
X163750D01*
X159900Y367500D02*
X163750D01*
X165000Y356250D02*
X167285D01*
X163750Y357500D02*
X165000Y356250D01*
X189554Y343750D02*
X189554Y343750D01*
X165248Y343750D02*
X189554D01*
X221875Y337675D02*
X225625Y341425D01*
Y343800D01*
X206875Y337675D02*
X210425Y341225D01*
Y343040D01*
X208965Y344500D02*
X210425Y343040D01*
X210000Y347000D02*
X212925Y344075D01*
Y337875D02*
Y344075D01*
Y337875D02*
X213125Y337675D01*
D38*
X125000Y309000D02*
X130000D01*
X132500Y311500D01*
X102500Y384900D02*
Y392000D01*
X127500Y384900D02*
Y392000D01*
X137000D02*
X137500Y391500D01*
Y384900D02*
Y391500D01*
X147500Y384900D02*
Y391500D01*
X159900Y377500D02*
X169500D01*
X159900Y362500D02*
X165500D01*
X168000Y360000D01*
X159900Y337500D02*
X166500D01*
X168000Y339000D01*
X159900Y322500D02*
X166500D01*
X167000Y323000D01*
X147500Y311010D02*
Y315100D01*
Y311010D02*
X150510Y308000D01*
X152000D01*
X112500Y309500D02*
Y315100D01*
Y309500D02*
X114000Y308000D01*
X107500D02*
Y315100D01*
X83500Y332500D02*
X90100D01*
X81000Y330000D02*
X83500Y332500D01*
X82500Y352500D02*
X90100D01*
X81000Y351000D02*
X82500Y352500D01*
X82000Y372500D02*
X87000D01*
X119000Y64000D02*
Y72500D01*
X104000Y62000D02*
Y72500D01*
X99000Y53500D02*
Y63000D01*
X100000Y64000D01*
X257000Y385000D02*
X263000D01*
X257000Y385000D02*
X257000Y385000D01*
X257000Y373000D02*
X263000D01*
X257000Y373000D02*
X257000Y373000D01*
X297000Y385000D02*
X303000D01*
X303000Y385000D01*
X297000Y373000D02*
X303000D01*
X303000Y373000D01*
X262000Y329000D02*
X267000D01*
X262000Y329000D02*
X262000Y329000D01*
Y317000D02*
X267000D01*
X262000Y317000D02*
X262000Y317000D01*
X329075Y14075D02*
X334875D01*
X328950Y27000D02*
X335000D01*
X263000Y26000D02*
X269000D01*
D39*
X213000Y329000D02*
X218000D01*
X198000D02*
X213000D01*
X195000Y326000D02*
X198000Y329000D01*
X23000Y268000D02*
X42686Y287686D01*
X50000D01*
X23000Y244000D02*
Y268000D01*
X137000Y158000D02*
X142000D01*
X136000Y159000D02*
X137000Y158000D01*
X132000Y115000D02*
X142000D01*
X139000Y212000D02*
Y218000D01*
X151000Y212000D02*
Y218000D01*
X213000Y124000D02*
Y124000D01*
Y124000D02*
X217000Y120000D01*
X153000Y158000D02*
X155000Y160000D01*
X159000D01*
X169000D01*
X169000Y160000D01*
X213000Y148000D02*
X217000Y152000D01*
X221000Y148000D02*
X225000Y152000D01*
X233000Y152000D02*
Y152000D01*
X229000Y148000D02*
X233000Y152000D01*
X241000Y152000D02*
X245000Y156000D01*
X245000Y148000D02*
Y148000D01*
X249000Y152000D01*
X257000D02*
X261000Y148000D01*
X213000Y164000D02*
X217000Y168000D01*
X221000Y156000D02*
X221000D01*
X217000Y160000D02*
X221000Y156000D01*
X193000Y160000D02*
X193000D01*
X197000Y164000D01*
X261000Y196000D02*
X261000D01*
X265000Y192000D01*
X217000Y176000D02*
X217000D01*
X213000Y180000D02*
X217000Y176000D01*
X217000Y184000D02*
Y184000D01*
X213000Y188000D02*
X217000Y184000D01*
X213000Y196000D02*
X217000Y192000D01*
X159000Y206000D02*
X165000Y200000D01*
X169000D01*
X325000Y220000D02*
X329000Y224000D01*
X329000D01*
X329000Y200000D02*
X329000D01*
X325000Y204000D02*
X329000Y200000D01*
X229000Y116000D02*
X233000Y112000D01*
X233000D01*
X245000Y108000D02*
X249000Y112000D01*
X245000Y132000D02*
X249000Y136000D01*
X313000Y120000D02*
X317000Y116000D01*
X317000D01*
X321000Y136000D02*
X325000Y132000D01*
X337000Y120000D02*
X341000Y124000D01*
X353000Y128000D02*
X357000Y124000D01*
X361000Y104000D02*
Y104000D01*
Y104000D02*
X365000Y100000D01*
X353000Y152000D02*
X357000Y148000D01*
X329000Y152000D02*
X333000Y148000D01*
X353000Y176000D02*
X357000Y172000D01*
X325000D02*
X329000Y176000D01*
X353000Y200000D02*
X357000Y204000D01*
Y228000D02*
Y228000D01*
X353000Y224000D02*
X357000Y228000D01*
X329000Y248000D02*
X333000Y244000D01*
X353000Y248000D02*
X357000Y244000D01*
X329000Y272000D02*
X333000Y268000D01*
X353000Y272000D02*
X357000Y276000D01*
X333000Y284000D02*
X337000Y288000D01*
X361000Y296000D02*
X365000Y300000D01*
X317000Y292000D02*
X321000Y288000D01*
X159000Y296000D02*
X169000D01*
X159000Y296000D02*
X159000Y296000D01*
X189000Y180000D02*
Y180000D01*
X185000Y176000D02*
X189000Y180000D01*
X181000Y108000D02*
Y108000D01*
Y108000D02*
X185000Y104000D01*
X205000Y164000D02*
X209000Y168000D01*
X197000Y172000D02*
X201000Y168000D01*
X197000Y172000D02*
X197000D01*
X193000Y176000D02*
X197000Y172000D01*
X217000Y240000D02*
Y240000D01*
X213000Y244000D02*
X217000Y240000D01*
X175000Y323000D02*
X180000Y318000D01*
Y316000D02*
Y318000D01*
X201000Y310000D02*
Y312500D01*
X206500Y318000D01*
X207500Y317000D01*
X218000D01*
X191500Y311500D02*
X193000Y310000D01*
X191500Y311500D02*
Y317000D01*
Y318000D01*
X191000Y385000D02*
X195250D01*
X189000Y387000D02*
X191000Y385000D01*
X189000Y387000D02*
Y390000D01*
X306000Y357000D02*
X310450D01*
X312500Y359050D01*
X263000Y357000D02*
X268000Y352000D01*
X261000Y357000D02*
X263000D01*
X299000Y352000D02*
X304000Y347000D01*
X306000D01*
X315750Y309250D02*
X325000Y300000D01*
X315750Y309250D02*
Y316700D01*
X301300D02*
X315750D01*
X301000Y317000D02*
X301300Y316700D01*
X369000Y352000D02*
X376000D01*
X392500Y297500D02*
X394000Y296000D01*
X386000Y297500D02*
X392500D01*
X391500Y282500D02*
X394000Y285000D01*
X386000Y282500D02*
X391500D01*
X379000Y241000D02*
Y248000D01*
X382000Y185000D02*
X386000Y189000D01*
X388000D01*
X386500Y118000D02*
X394000D01*
X386000Y118500D02*
X386500Y118000D01*
Y103000D02*
X394000D01*
X386000Y103500D02*
X386500Y103000D01*
X360875Y55425D02*
Y69875D01*
X361000Y70000D01*
Y82000D01*
X292500Y37500D02*
Y45500D01*
X295000Y48000D01*
X180000Y33000D02*
X189000D01*
X280000Y94300D02*
X286500D01*
X293000Y87800D01*
X280500Y83050D02*
X291950D01*
X293000Y82000D02*
Y87800D01*
Y82000D02*
X304000D01*
X301000Y317000D02*
Y330000D01*
X402500Y374500D02*
X405000Y372000D01*
X402500Y374500D02*
Y381000D01*
X417500Y374500D02*
X420000Y372000D01*
X417500Y374500D02*
Y381000D01*
X432000Y372000D02*
Y379000D01*
X432000Y379000D02*
X432000Y379000D01*
X442000Y372000D02*
Y379000D01*
X454000Y372000D02*
Y379000D01*
X464000Y372000D02*
Y379000D01*
X476000Y372000D02*
Y379000D01*
X486000Y372000D02*
Y379000D01*
X499000Y372000D02*
Y379000D01*
X509000Y372000D02*
Y379000D01*
X543000Y372000D02*
Y379000D01*
X553000Y372000D02*
Y379000D01*
X565000Y372000D02*
Y379000D01*
X575000Y372000D02*
Y379000D01*
X537000Y372000D02*
Y374000D01*
X531000Y380000D02*
X537000Y374000D01*
X586000Y372000D02*
X588500Y374500D01*
Y381000D01*
X600000Y372000D02*
X603500Y375500D01*
Y381000D01*
X553000Y241000D02*
Y248000D01*
X543000Y241000D02*
Y248000D01*
X510000Y241000D02*
Y248000D01*
X500000Y241000D02*
Y248000D01*
X466000Y241000D02*
Y248000D01*
X456000Y241000D02*
Y248000D01*
X444000Y241000D02*
Y248000D01*
X434000Y241000D02*
Y248000D01*
X422000Y241000D02*
Y248000D01*
X412000Y241000D02*
Y248000D01*
X400000Y241000D02*
Y248000D01*
X390000Y241000D02*
Y248000D01*
Y152000D02*
Y159000D01*
X400000Y152000D02*
Y159000D01*
X412000Y152000D02*
Y159000D01*
X422000Y152000D02*
Y159000D01*
X434000Y152000D02*
Y159000D01*
X444000Y152000D02*
Y159000D01*
X456000Y152000D02*
Y159000D01*
X466000Y152000D02*
Y159000D01*
X500000Y152000D02*
Y159000D01*
X510000Y152000D02*
Y159000D01*
X543000Y152000D02*
Y159000D01*
X553000Y152000D02*
Y159000D01*
X532000Y152000D02*
Y160000D01*
X402500Y25500D02*
X405000Y28000D01*
X402500Y19000D02*
Y25500D01*
X417500D02*
X420000Y28000D01*
X417500Y19000D02*
Y25500D01*
X432000Y21000D02*
Y28000D01*
X442000Y21000D02*
Y28000D01*
X454000Y21000D02*
Y28000D01*
X464000Y21000D02*
Y28000D01*
X476000Y21000D02*
Y28000D01*
X486000Y21000D02*
Y28000D01*
X521000Y21000D02*
Y28000D01*
X531000Y21000D02*
Y28000D01*
X543000Y21000D02*
Y28000D01*
X553000Y21000D02*
Y28000D01*
X565000Y21000D02*
Y28000D01*
X575000Y21000D02*
Y28000D01*
X586000D02*
X588500Y25500D01*
Y19000D02*
Y25500D01*
X600000Y28000D02*
X603500Y24500D01*
Y19000D02*
Y24500D01*
X179000Y65000D02*
X181000Y63000D01*
X189000D01*
X117000Y290000D02*
Y296000D01*
Y290000D02*
X120000Y287000D01*
X124000D01*
D40*
X151111Y80000D02*
X158959D01*
X147001Y84109D02*
X151111Y80000D01*
X149151Y85000D02*
X152001Y82150D01*
X149151Y85000D02*
Y87151D01*
X166150Y66850D02*
X168000Y65000D01*
X166150Y66850D02*
Y75850D01*
X149151Y87151D02*
X153000Y91000D01*
X147001Y84109D02*
Y86999D01*
X143000Y91000D02*
X147001Y86999D01*
X162000Y65000D02*
X164000Y67000D01*
Y74959D01*
X152001Y82150D02*
X159850D01*
X173000Y116000D02*
X177000Y112000D01*
X173000Y108000D02*
X177000Y104000D01*
X201000Y176000D02*
X201000D01*
X201000Y176000D02*
X205000Y172000D01*
X205000Y180000D02*
X209000Y176000D01*
Y176000D02*
X209000D01*
X156041Y118000D02*
X159000D01*
X148650Y105350D02*
X153000Y101000D01*
X169000Y117000D02*
Y120000D01*
X143000Y101000D02*
X146500Y104500D01*
X173957Y120000D02*
X177000D01*
X170452Y123505D02*
X173957Y120000D01*
X155000Y115000D02*
X156000Y114000D01*
X155000Y115000D02*
X155041Y115041D01*
Y117000D01*
X152000Y112000D02*
X153000Y111000D01*
X150041Y112000D02*
X152000D01*
X155041Y117000D02*
X156041Y118000D01*
X146500Y104500D02*
Y111500D01*
X148650Y105350D02*
Y110609D01*
X150041Y112000D01*
X155000Y111000D02*
X156000Y112000D01*
Y114000D01*
X153000Y111000D02*
X155000D01*
X167500Y115500D02*
X169000Y117000D01*
X164500Y117000D02*
X166000Y115500D01*
X167500D01*
X158110Y120150D02*
X161464Y123505D01*
X170452D01*
X165000Y140000D02*
X169000Y144000D01*
Y144000D01*
X173000Y140000D02*
X177000Y144000D01*
Y144000D01*
X155150Y120150D02*
X158110D01*
X146500Y111500D02*
X155150Y120150D01*
X159000Y118000D02*
X161855Y120855D01*
Y120855D02*
X163645D01*
X164500Y120000D01*
Y117000D02*
Y120000D01*
X158959Y80000D02*
X164000Y74959D01*
X159850Y82150D02*
X166150Y75850D01*
D41*
X181000Y212000D02*
Y220000D01*
Y212000D02*
X185000Y208000D01*
X90100Y357500D02*
X102000D01*
X152500Y377500D02*
Y384900D01*
X273000Y152000D02*
X277000Y148000D01*
X524000Y339990D02*
Y344010D01*
X524000Y118000D02*
X524000Y118000D01*
X524000Y118000D02*
Y124010D01*
X213000Y204000D02*
X217000Y200000D01*
X213000Y204000D02*
Y212000D01*
X305000Y152000D02*
X309000Y148000D01*
Y140000D02*
Y148000D01*
X197000Y156000D02*
X201000Y160000D01*
X197000Y148000D02*
Y156000D01*
X277000Y140000D02*
X277000Y140000D01*
X277000Y140000D02*
Y148000D01*
X265000Y152000D02*
X269000Y148000D01*
Y140500D02*
Y148000D01*
X146500Y371500D02*
X152500Y377500D01*
X163900Y316000D02*
X170000D01*
X163000Y315100D02*
X163900Y316000D01*
X168900Y315100D02*
X170000Y314000D01*
X152500Y315100D02*
X163000D01*
X95500Y73500D02*
X99000D01*
X95000Y73000D02*
X95500Y73500D01*
X165000Y112000D02*
X169000D01*
X160000Y111000D02*
X164000D01*
X165000Y112000D01*
X281000Y248000D02*
X281000D01*
X277000Y252000D02*
X281000Y248000D01*
X277000Y252000D02*
Y260000D01*
Y261000D01*
X317000Y220000D02*
X325000D01*
X325000Y220000D01*
X317000Y204000D02*
X325000D01*
X313000Y192000D02*
X313250Y191750D01*
Y184250D02*
Y191750D01*
X313000Y184000D02*
X313250Y184250D01*
X190500Y318000D02*
X191500Y317000D01*
D42*
X14000Y342050D02*
X22950D01*
X14000Y303950D02*
X22950D01*
X61000Y96000D02*
X69950D01*
X70000Y96050D01*
X60050Y57950D02*
X70000D01*
X59000Y59000D02*
X60050Y57950D01*
X22314Y140000D02*
X31000Y148686D01*
Y169000D01*
X621000Y342000D02*
X629950D01*
X630000Y342050D01*
X621000Y304000D02*
X629950D01*
X630000Y303950D01*
X671000Y233000D02*
X677686Y239686D01*
Y260000D01*
X677000Y96000D02*
X685950D01*
X686000Y96050D01*
X685950Y58000D02*
X686000Y57950D01*
X677000Y58000D02*
X685950D01*
X669750Y147936D02*
Y166250D01*
Y147936D02*
X677686Y140000D01*
D43*
X137500Y25000D02*
X138500Y24000D01*
D44*
X675000Y375000D02*
D03*
Y25000D02*
D03*
X25000D02*
D03*
Y375000D02*
D03*
D45*
X388000Y175000D02*
D03*
X165000Y200000D02*
D03*
X86000Y79000D02*
D03*
X229000Y156000D02*
D03*
X310000Y196000D02*
D03*
X213000Y329000D02*
D03*
X221000Y244000D02*
D03*
X277000Y236000D02*
D03*
X261000Y220000D02*
D03*
X277000Y156000D02*
D03*
X209000D02*
D03*
X181000Y132000D02*
D03*
X205000Y140000D02*
D03*
X283000Y77000D02*
D03*
X288000D02*
D03*
X239000Y367000D02*
D03*
X181000Y156000D02*
D03*
X189000D02*
D03*
X199750Y390800D02*
D03*
X195000Y46000D02*
D03*
Y50000D02*
D03*
X237000Y124000D02*
D03*
X229000Y124000D02*
D03*
X245000Y116000D02*
D03*
X245000Y124000D02*
D03*
X287000Y379000D02*
D03*
X118000Y234000D02*
D03*
X141000Y282000D02*
D03*
Y243000D02*
D03*
X107500Y392000D02*
D03*
X181000Y276000D02*
D03*
X189000Y276000D02*
D03*
X333000Y196000D02*
D03*
X484000Y70000D02*
D03*
X376000Y116000D02*
D03*
X476000Y70000D02*
D03*
X374000Y120000D02*
D03*
X373000Y105000D02*
D03*
X376000Y102000D02*
D03*
X460000Y110000D02*
D03*
X452000D02*
D03*
X444000Y330000D02*
D03*
X392000Y316000D02*
D03*
X452000Y330000D02*
D03*
X386000Y316000D02*
D03*
X349000Y284000D02*
D03*
X365000Y276000D02*
D03*
X173000Y116000D02*
D03*
Y108000D02*
D03*
X141000Y231000D02*
D03*
Y257000D02*
D03*
X151000Y288000D02*
D03*
X141000Y270000D02*
D03*
X130000Y252000D02*
D03*
Y262000D02*
D03*
Y242000D02*
D03*
X221000Y268000D02*
D03*
X173000Y252000D02*
D03*
X205000Y260000D02*
D03*
X173000Y276000D02*
D03*
X205000Y292000D02*
D03*
X181000Y260000D02*
D03*
X164000Y272000D02*
D03*
Y288000D02*
D03*
Y280000D02*
D03*
X269000Y260000D02*
D03*
X325000Y196000D02*
D03*
X317000Y188000D02*
D03*
X333000Y124000D02*
D03*
Y132000D02*
D03*
X341000Y140000D02*
D03*
X349000Y140000D02*
D03*
X340000Y21000D02*
D03*
X339875Y8075D02*
D03*
X261000Y260000D02*
D03*
X277000Y276000D02*
D03*
X205000Y124000D02*
D03*
X213000Y116000D02*
D03*
X197000Y244000D02*
D03*
X197000Y236000D02*
D03*
X269000Y26000D02*
D03*
X269132Y108000D02*
D03*
X317125Y69850D02*
D03*
Y81725D02*
D03*
X292500Y62800D02*
D03*
X205000Y188000D02*
D03*
X112000Y216000D02*
D03*
X189000Y204000D02*
D03*
X124000Y218000D02*
D03*
X130000Y202000D02*
D03*
X242000Y391000D02*
D03*
X252000Y391000D02*
D03*
X309750Y329700D02*
D03*
X84000Y347500D02*
D03*
X116000Y252000D02*
D03*
X84000Y342500D02*
D03*
X205000Y220000D02*
D03*
X282000Y347050D02*
D03*
X221000Y252000D02*
D03*
X205000Y236000D02*
D03*
Y228000D02*
D03*
X197000D02*
D03*
X181000Y236000D02*
D03*
Y228000D02*
D03*
X213000Y276000D02*
D03*
X85000Y377500D02*
D03*
X122500Y391000D02*
D03*
X97500Y380500D02*
D03*
X112500D02*
D03*
X301000Y252000D02*
D03*
X117500Y380500D02*
D03*
X159000Y309000D02*
D03*
X173000Y300000D02*
D03*
X181000Y252000D02*
D03*
X181000Y244000D02*
D03*
X197000Y252000D02*
D03*
X225000Y379000D02*
D03*
X303000Y373000D02*
D03*
Y385000D02*
D03*
X257000D02*
D03*
Y373000D02*
D03*
X262000Y329000D02*
D03*
Y317000D02*
D03*
X325000Y292000D02*
D03*
X142500Y391000D02*
D03*
X132500D02*
D03*
X213000Y284000D02*
D03*
X213000Y260000D02*
D03*
X301000Y140000D02*
D03*
X317000Y132000D02*
D03*
X205000Y196000D02*
D03*
X229000Y260000D02*
D03*
X309000Y268000D02*
D03*
Y260000D02*
D03*
X301000Y276000D02*
D03*
X309000Y276000D02*
D03*
X205000Y268000D02*
D03*
X173000Y228000D02*
D03*
X213000Y132000D02*
D03*
X221000D02*
D03*
X213000Y140000D02*
D03*
X341000Y131999D02*
D03*
X377000Y191000D02*
D03*
X373000Y186000D02*
D03*
X373000Y196000D02*
D03*
X309000Y212000D02*
D03*
X102000Y272000D02*
D03*
X365000Y228000D02*
D03*
X349000Y220000D02*
D03*
X333000Y212000D02*
D03*
X349250Y195750D02*
D03*
X349000Y204000D02*
D03*
X333000D02*
D03*
X349000Y228000D02*
D03*
X341000Y220000D02*
D03*
X317000Y196000D02*
D03*
X333000Y220000D02*
D03*
X317000Y228000D02*
D03*
X325000Y228000D02*
D03*
X277000Y132000D02*
D03*
X261000Y132000D02*
D03*
Y140000D02*
D03*
X277000Y124000D02*
D03*
X80000Y337500D02*
D03*
X84000Y367500D02*
D03*
X80000Y362500D02*
D03*
X333000Y276000D02*
D03*
X341000Y276000D02*
D03*
X341000Y292000D02*
D03*
X357000D02*
D03*
X365000D02*
D03*
X357000Y300000D02*
D03*
X349000Y292000D02*
D03*
X325000Y284000D02*
D03*
X317000D02*
D03*
Y276000D02*
D03*
Y268000D02*
D03*
X325000D02*
D03*
X341000Y300000D02*
D03*
X349000Y276000D02*
D03*
X365000Y148000D02*
D03*
X369000Y128000D02*
D03*
X341000Y108000D02*
D03*
X357000Y100000D02*
D03*
X349000Y124000D02*
D03*
Y116000D02*
D03*
X349000Y108000D02*
D03*
X357000D02*
D03*
X365000Y132000D02*
D03*
X357000D02*
D03*
X349000D02*
D03*
Y148000D02*
D03*
X333000Y140000D02*
D03*
X492000Y290000D02*
D03*
X484000Y282000D02*
D03*
X476000D02*
D03*
X452000D02*
D03*
X436000D02*
D03*
X468000Y290000D02*
D03*
X460000D02*
D03*
X452000D02*
D03*
X436000D02*
D03*
X492000Y330000D02*
D03*
X500000D02*
D03*
X476000Y338000D02*
D03*
Y330000D02*
D03*
X468000D02*
D03*
X460000D02*
D03*
X452000Y338000D02*
D03*
X444000D02*
D03*
X436000Y330000D02*
D03*
X476000Y118000D02*
D03*
X476000Y110000D02*
D03*
X492000Y110000D02*
D03*
X500000D02*
D03*
X468000Y110000D02*
D03*
X436000Y110000D02*
D03*
X444000Y118000D02*
D03*
X452000D02*
D03*
X484000Y110000D02*
D03*
X436000Y70000D02*
D03*
X452000Y70000D02*
D03*
X460000D02*
D03*
X468000D02*
D03*
X436000Y62000D02*
D03*
X452000D02*
D03*
X476000D02*
D03*
X484000D02*
D03*
X492000Y78000D02*
D03*
X211000Y20000D02*
D03*
X224000D02*
D03*
X258000D02*
D03*
X173000Y220000D02*
D03*
X205000Y204000D02*
D03*
X189000Y188000D02*
D03*
X165000Y236000D02*
D03*
X301000Y268000D02*
D03*
X173000Y244000D02*
D03*
X197000Y220000D02*
D03*
X205000Y212000D02*
D03*
X197000Y204000D02*
D03*
X237000Y116000D02*
D03*
X328875Y27075D02*
D03*
X329000Y14000D02*
D03*
X372800Y13950D02*
D03*
X373000Y27000D02*
D03*
X189000Y300000D02*
D03*
Y292000D02*
D03*
X221000Y260000D02*
D03*
X213000Y268000D02*
D03*
X261000Y300000D02*
D03*
X285000Y252000D02*
D03*
X285000Y124000D02*
D03*
X293000Y148000D02*
D03*
X197000Y196000D02*
D03*
X165000Y220000D02*
D03*
X173000Y204000D02*
D03*
X276000Y100000D02*
D03*
X237000Y108000D02*
D03*
X285000Y132000D02*
D03*
X285000Y140000D02*
D03*
X197000Y188000D02*
D03*
X181000Y196000D02*
D03*
X181000Y180000D02*
D03*
X197000Y180000D02*
D03*
X253000Y100000D02*
D03*
X245000D02*
D03*
X254125Y88675D02*
D03*
X247000Y94000D02*
D03*
X269000Y124000D02*
D03*
X286875Y62800D02*
D03*
X245000Y260000D02*
D03*
X341000Y228000D02*
D03*
Y204000D02*
D03*
X341000Y212000D02*
D03*
X325000Y212000D02*
D03*
X317000Y212000D02*
D03*
X371000Y307000D02*
D03*
X476000Y290000D02*
D03*
X365000Y307000D02*
D03*
X484000Y290000D02*
D03*
X317000Y300000D02*
D03*
X317000Y100000D02*
D03*
Y108000D02*
D03*
X293000Y116000D02*
D03*
X293000Y108000D02*
D03*
X309000Y108000D02*
D03*
Y100000D02*
D03*
X309000Y116000D02*
D03*
Y124000D02*
D03*
X301000Y132000D02*
D03*
Y124000D02*
D03*
X229000Y140000D02*
D03*
Y132000D02*
D03*
X237000Y140000D02*
D03*
X245000Y140000D02*
D03*
X205000Y172000D02*
D03*
X205000Y180000D02*
D03*
X173000Y188000D02*
D03*
X165000D02*
D03*
Y140000D02*
D03*
X173000D02*
D03*
X205000Y252000D02*
D03*
X165000Y212000D02*
D03*
X173000D02*
D03*
D46*
X168000Y65000D02*
D03*
X162000D02*
D03*
X293000Y276000D02*
D03*
X19000Y208000D02*
D03*
X658000Y143000D02*
D03*
X80000Y229000D02*
D03*
X85000Y238000D02*
D03*
X385000Y272000D02*
D03*
X392000Y269000D02*
D03*
X197000Y276000D02*
D03*
X377000Y152000D02*
D03*
Y146000D02*
D03*
X341000Y172000D02*
D03*
X349000D02*
D03*
X385000Y258000D02*
D03*
X391000Y259000D02*
D03*
X257000Y304000D02*
D03*
X237000Y284000D02*
D03*
X282000Y357050D02*
D03*
X242000Y352000D02*
D03*
X616000Y369000D02*
D03*
X80000Y223000D02*
D03*
X181000Y284000D02*
D03*
X80000Y174000D02*
D03*
X104000Y81000D02*
D03*
X193000Y310000D02*
D03*
X242500Y39680D02*
D03*
X213000Y108000D02*
D03*
X83000Y179000D02*
D03*
X147000Y176000D02*
D03*
X65000Y267000D02*
D03*
X154000Y241000D02*
D03*
X189000Y284000D02*
D03*
X201000Y310000D02*
D03*
X245000Y302000D02*
D03*
X293000Y268000D02*
D03*
X197000D02*
D03*
X191000Y97000D02*
D03*
X108000Y49000D02*
D03*
X277000Y172000D02*
D03*
X277000Y164000D02*
D03*
X118000Y64000D02*
D03*
X389000Y189000D02*
D03*
X363500Y366325D02*
D03*
X68000Y27000D02*
D03*
X129000Y90000D02*
D03*
X129000Y82000D02*
D03*
X89000Y187000D02*
D03*
X312500Y359050D02*
D03*
X135000Y258000D02*
D03*
X638000Y51000D02*
D03*
X617000Y13000D02*
D03*
X622000Y47000D02*
D03*
X677000Y71000D02*
D03*
X677050Y83000D02*
D03*
X621000Y329000D02*
D03*
Y317000D02*
D03*
X645000Y331000D02*
D03*
X664000Y298000D02*
D03*
X645000Y299000D02*
D03*
X662500Y329500D02*
D03*
X64000Y106000D02*
D03*
X379000Y248000D02*
D03*
X41000Y347000D02*
D03*
X58000Y329000D02*
D03*
X175000Y323000D02*
D03*
X671000Y233000D02*
D03*
X669750Y166250D02*
D03*
X31000Y169000D02*
D03*
X23000Y244000D02*
D03*
X606000Y166000D02*
D03*
X609000Y245000D02*
D03*
X81000Y313000D02*
D03*
X23000Y317000D02*
D03*
X141000Y74000D02*
D03*
X31000Y317000D02*
D03*
Y304000D02*
D03*
X28000Y78000D02*
D03*
X93000Y90000D02*
D03*
X329000Y95000D02*
D03*
X318125Y91800D02*
D03*
X221000Y292000D02*
D03*
X360875Y55425D02*
D03*
X360425Y37575D02*
D03*
X329000Y41000D02*
D03*
X213125Y62325D02*
D03*
X180000Y33000D02*
D03*
X206875Y62325D02*
D03*
X217500Y91075D02*
D03*
X200375Y19000D02*
D03*
X229000Y100000D02*
D03*
X313000Y38175D02*
D03*
X342500Y44550D02*
D03*
X247500Y33680D02*
D03*
X252500Y39680D02*
D03*
X179000Y65000D02*
D03*
X312500Y62425D02*
D03*
X296875Y91800D02*
D03*
X307500D02*
D03*
X295000Y48000D02*
D03*
X313000D02*
D03*
X265500Y48050D02*
D03*
X264000Y94000D02*
D03*
X237500Y33680D02*
D03*
X232500Y39680D02*
D03*
X62000Y335000D02*
D03*
X195000Y326000D02*
D03*
X148000Y392000D02*
D03*
X68000Y89000D02*
D03*
X133000Y176000D02*
D03*
X93000Y152000D02*
D03*
X64000Y122000D02*
D03*
X116000Y331000D02*
D03*
X126000D02*
D03*
X147000D02*
D03*
X139000D02*
D03*
X135000Y244000D02*
D03*
X137000Y371000D02*
D03*
X104000Y345000D02*
D03*
X147000Y342000D02*
D03*
Y360000D02*
D03*
X116000Y361000D02*
D03*
X86000Y384000D02*
D03*
X128000Y371000D02*
D03*
X147000D02*
D03*
X104000Y330000D02*
D03*
X151000Y218000D02*
D03*
X96000Y258000D02*
D03*
X228000Y352000D02*
D03*
X321500Y352050D02*
D03*
X377000Y366000D02*
D03*
X388000D02*
D03*
X395000Y338000D02*
D03*
X391000Y333000D02*
D03*
X646750Y386000D02*
D03*
Y392000D02*
D03*
Y14000D02*
D03*
Y8000D02*
D03*
X53250Y392000D02*
D03*
Y386000D02*
D03*
X115000Y183000D02*
D03*
X105000Y177140D02*
D03*
X58000Y369000D02*
D03*
X53000Y9000D02*
D03*
X77000D02*
D03*
X60000Y35000D02*
D03*
X68000D02*
D03*
X96000Y31000D02*
D03*
X124000Y96000D02*
D03*
X622000Y37000D02*
D03*
X616000Y42000D02*
D03*
Y359000D02*
D03*
X261875Y365800D02*
D03*
X48000Y106000D02*
D03*
Y68000D02*
D03*
X616000Y53000D02*
D03*
X614000Y61000D02*
D03*
X640000Y109000D02*
D03*
X654000Y69000D02*
D03*
X666000Y78000D02*
D03*
X645000Y315000D02*
D03*
X297000Y302000D02*
D03*
X614000Y85000D02*
D03*
X66000Y77000D02*
D03*
X61000Y96000D02*
D03*
X78000Y37000D02*
D03*
X13000Y288000D02*
D03*
X355500Y366325D02*
D03*
X347500D02*
D03*
X345500Y338200D02*
D03*
X352750Y341550D02*
D03*
X189000Y390000D02*
D03*
X325000Y300000D02*
D03*
X269125Y363800D02*
D03*
X86000Y117000D02*
D03*
X247500Y309550D02*
D03*
X86000Y109000D02*
D03*
X93000Y47000D02*
D03*
Y39000D02*
D03*
X141000Y68000D02*
D03*
X93000Y98000D02*
D03*
X96000Y13000D02*
D03*
X21000Y104000D02*
D03*
X220750Y303800D02*
D03*
X272500Y308200D02*
D03*
X286500Y365800D02*
D03*
X268125Y337925D02*
D03*
X262875Y340925D02*
D03*
X253000Y108000D02*
D03*
X269000Y140000D02*
D03*
X261000Y148000D02*
D03*
X277000Y140000D02*
D03*
X261000Y156000D02*
D03*
X245000Y108000D02*
D03*
X245000Y132000D02*
D03*
X213125Y337675D02*
D03*
X206875D02*
D03*
X221875Y364800D02*
D03*
X213125Y357800D02*
D03*
X228125Y337675D02*
D03*
X221875D02*
D03*
X360650Y48000D02*
D03*
X242500Y48050D02*
D03*
X202625D02*
D03*
X369000Y352000D02*
D03*
X333500Y352050D02*
D03*
X299000Y352000D02*
D03*
X268000D02*
D03*
X183000D02*
D03*
X317000Y116000D02*
D03*
X189000Y236000D02*
D03*
X199000Y97000D02*
D03*
X317000Y292000D02*
D03*
X344000Y98000D02*
D03*
X365000Y100000D02*
D03*
X245000Y156000D02*
D03*
Y164000D02*
D03*
X181000Y140000D02*
D03*
X159000Y219000D02*
D03*
X153000Y275000D02*
D03*
X115000Y239000D02*
D03*
X137000Y142000D02*
D03*
X309000Y284000D02*
D03*
Y292000D02*
D03*
Y300000D02*
D03*
X293000Y292000D02*
D03*
X157000Y179000D02*
D03*
X88000Y300000D02*
D03*
X81000Y322000D02*
D03*
X82000Y372000D02*
D03*
X81000Y352000D02*
D03*
Y330000D02*
D03*
X102500Y392000D02*
D03*
X127500Y392000D02*
D03*
X137000D02*
D03*
X169000Y377000D02*
D03*
X168000Y360000D02*
D03*
X168000Y339000D02*
D03*
X167000Y323000D02*
D03*
X152000Y308000D02*
D03*
X144000D02*
D03*
X136000D02*
D03*
X125000Y309000D02*
D03*
X114000Y308000D02*
D03*
X107500D02*
D03*
X394000Y118000D02*
D03*
Y285000D02*
D03*
Y296000D02*
D03*
Y103000D02*
D03*
X444000Y322000D02*
D03*
X333000Y284000D02*
D03*
X333000Y268000D02*
D03*
X365000D02*
D03*
X357000Y276000D02*
D03*
X357000Y268000D02*
D03*
X269000Y116000D02*
D03*
X293000Y180000D02*
D03*
X293000Y172000D02*
D03*
X221000Y156000D02*
D03*
X213000Y220000D02*
D03*
X341000Y116000D02*
D03*
X253000Y260000D02*
D03*
X341000Y124000D02*
D03*
X357000Y124000D02*
D03*
X285000Y116000D02*
D03*
X161000Y131000D02*
D03*
X136000Y168500D02*
D03*
Y159000D02*
D03*
Y149000D02*
D03*
Y128000D02*
D03*
Y121000D02*
D03*
Y113000D02*
D03*
X229000Y116000D02*
D03*
X197000Y172000D02*
D03*
X205000Y164000D02*
D03*
X137000Y135000D02*
D03*
X221000Y140000D02*
D03*
X159000Y206000D02*
D03*
X293000Y252000D02*
D03*
Y244000D02*
D03*
X213000D02*
D03*
X325000Y132000D02*
D03*
X213000Y164000D02*
D03*
X229000Y180000D02*
D03*
X229000Y188000D02*
D03*
X245000D02*
D03*
X197000Y148000D02*
D03*
X205000Y148000D02*
D03*
X213000Y148000D02*
D03*
X309000Y140000D02*
D03*
X277000Y260000D02*
D03*
X293000Y220000D02*
D03*
X213000Y228000D02*
D03*
X261000Y164000D02*
D03*
X301000Y236000D02*
D03*
X317000Y220000D02*
D03*
Y236000D02*
D03*
X309000Y220000D02*
D03*
X309000Y204000D02*
D03*
X317000Y204000D02*
D03*
X309000Y172000D02*
D03*
Y252000D02*
D03*
X293000Y236000D02*
D03*
X277000Y220000D02*
D03*
X277000Y212000D02*
D03*
Y204000D02*
D03*
Y196000D02*
D03*
Y188000D02*
D03*
X277000Y180000D02*
D03*
X221000Y148000D02*
D03*
X293000Y212000D02*
D03*
Y204000D02*
D03*
Y196000D02*
D03*
X245000D02*
D03*
X229000D02*
D03*
X229000Y204000D02*
D03*
X245000D02*
D03*
X229000Y212000D02*
D03*
X229000Y220000D02*
D03*
X245000D02*
D03*
X16000Y190000D02*
D03*
X22000Y195000D02*
D03*
Y203000D02*
D03*
Y214000D02*
D03*
X85000Y226000D02*
D03*
X83000Y169000D02*
D03*
X621000Y342000D02*
D03*
X606000Y139000D02*
D03*
X642000Y248000D02*
D03*
X584000Y228000D02*
D03*
X576000D02*
D03*
X642000Y143000D02*
D03*
X590000Y200000D02*
D03*
X606000Y157000D02*
D03*
X663000Y233000D02*
D03*
X678000Y203000D02*
D03*
X679000Y188000D02*
D03*
X640000Y169000D02*
D03*
X631000Y231000D02*
D03*
X591000Y183000D02*
D03*
X613000Y190000D02*
D03*
X689000Y212000D02*
D03*
Y218000D02*
D03*
X660000Y169000D02*
D03*
X621000Y304000D02*
D03*
X615000Y202000D02*
D03*
X613000Y223000D02*
D03*
X561000Y224000D02*
D03*
Y217000D02*
D03*
Y183000D02*
D03*
Y175000D02*
D03*
X619000Y166000D02*
D03*
X649000Y214000D02*
D03*
Y208000D02*
D03*
Y192000D02*
D03*
Y186000D02*
D03*
X616000Y229000D02*
D03*
X29000Y236000D02*
D03*
X42000Y162000D02*
D03*
X84000Y253000D02*
D03*
X642000Y261000D02*
D03*
X55000Y245000D02*
D03*
X42000Y156000D02*
D03*
X59000Y59000D02*
D03*
X677000Y58000D02*
D03*
Y96000D02*
D03*
X23000Y304000D02*
D03*
Y342000D02*
D03*
X125000Y196000D02*
D03*
X85000Y209000D02*
D03*
X88000Y199000D02*
D03*
X39000Y193000D02*
D03*
X49000D02*
D03*
X68000D02*
D03*
X117000Y296000D02*
D03*
X115000Y222000D02*
D03*
Y211000D02*
D03*
X9000Y123000D02*
D03*
Y149000D02*
D03*
X436000Y274000D02*
D03*
X444000Y274000D02*
D03*
X452000D02*
D03*
X460000Y282000D02*
D03*
X484000Y274000D02*
D03*
X492000Y282000D02*
D03*
Y274000D02*
D03*
X532000D02*
D03*
X540000D02*
D03*
X548000D02*
D03*
X492000Y346000D02*
D03*
X468000D02*
D03*
Y338000D02*
D03*
X512000Y313000D02*
D03*
X564000Y307000D02*
D03*
X552000Y313000D02*
D03*
X544000D02*
D03*
X520000D02*
D03*
X596000Y307000D02*
D03*
X592000Y313000D02*
D03*
X588000Y307000D02*
D03*
X584000Y313000D02*
D03*
X580000Y307000D02*
D03*
X576000Y313000D02*
D03*
X572000Y307000D02*
D03*
X568000Y313000D02*
D03*
X560000D02*
D03*
X548000Y307000D02*
D03*
X540000D02*
D03*
X536000Y313000D02*
D03*
X532000Y307000D02*
D03*
X528000Y313000D02*
D03*
X524000Y307000D02*
D03*
X532000Y282000D02*
D03*
X500000Y346000D02*
D03*
Y274000D02*
D03*
X532000Y338000D02*
D03*
X460000D02*
D03*
X484000Y346000D02*
D03*
X500000Y282000D02*
D03*
X468000D02*
D03*
X444000D02*
D03*
X564000Y274000D02*
D03*
X556000D02*
D03*
X476000D02*
D03*
X468000D02*
D03*
X484000Y330000D02*
D03*
X564000Y346000D02*
D03*
X556000D02*
D03*
X548000D02*
D03*
X540000D02*
D03*
X532000D02*
D03*
X515730Y337730D02*
D03*
X500000Y338000D02*
D03*
X492000D02*
D03*
X484000D02*
D03*
X476000Y346000D02*
D03*
X452000D02*
D03*
X460000D02*
D03*
X436000Y338000D02*
D03*
X444000Y346000D02*
D03*
X436000D02*
D03*
X460000Y274000D02*
D03*
X484000Y126000D02*
D03*
X476000D02*
D03*
X492000D02*
D03*
Y118000D02*
D03*
X468000Y126000D02*
D03*
X460000D02*
D03*
X452000D02*
D03*
X500000D02*
D03*
X532000D02*
D03*
X540000D02*
D03*
X532000Y118000D02*
D03*
X484000D02*
D03*
X468000D02*
D03*
X460000D02*
D03*
X444000Y126000D02*
D03*
X436000D02*
D03*
Y118000D02*
D03*
X544000Y93000D02*
D03*
X500000Y87000D02*
D03*
X548000Y126000D02*
D03*
X556000D02*
D03*
X564000D02*
D03*
X436000Y54000D02*
D03*
X444000D02*
D03*
X452000D02*
D03*
X468000D02*
D03*
X476000D02*
D03*
X484000D02*
D03*
X532000D02*
D03*
X540000D02*
D03*
X548000D02*
D03*
X556000D02*
D03*
X564000D02*
D03*
X444000Y62000D02*
D03*
X460000D02*
D03*
X468000D02*
D03*
X492000D02*
D03*
X500000D02*
D03*
X516000Y62000D02*
D03*
X492000Y54000D02*
D03*
X460000D02*
D03*
X444000Y110000D02*
D03*
X500000Y54000D02*
D03*
X532000Y62000D02*
D03*
X532000Y87000D02*
D03*
X540000D02*
D03*
X568000Y93000D02*
D03*
X572000Y87000D02*
D03*
X576000Y93000D02*
D03*
X580000Y87000D02*
D03*
X584000Y93000D02*
D03*
X588000Y87000D02*
D03*
X592000Y93000D02*
D03*
X596000Y87000D02*
D03*
X552000Y93000D02*
D03*
X524000Y87000D02*
D03*
X512000Y93000D02*
D03*
X504000Y93000D02*
D03*
X528000D02*
D03*
X520000D02*
D03*
X508000Y87000D02*
D03*
X466000Y152000D02*
D03*
X456000D02*
D03*
X444000D02*
D03*
X434000D02*
D03*
X422000D02*
D03*
X412000D02*
D03*
X500000D02*
D03*
X510000D02*
D03*
X543000D02*
D03*
X553000D02*
D03*
X532000D02*
D03*
X422000Y248000D02*
D03*
X412000D02*
D03*
X434000D02*
D03*
X444000D02*
D03*
X456000D02*
D03*
X466000D02*
D03*
X500000D02*
D03*
X510000D02*
D03*
X543000D02*
D03*
X553000D02*
D03*
X405000Y372000D02*
D03*
X420000D02*
D03*
X432000D02*
D03*
X442000D02*
D03*
X454000D02*
D03*
X464000D02*
D03*
X476000D02*
D03*
X486000D02*
D03*
X499000D02*
D03*
X509000D02*
D03*
X543000D02*
D03*
X553000D02*
D03*
X565000D02*
D03*
X575000D02*
D03*
X586000D02*
D03*
X600000D02*
D03*
Y28000D02*
D03*
X586000D02*
D03*
X575000D02*
D03*
X565000D02*
D03*
X553000D02*
D03*
X543000D02*
D03*
X486000D02*
D03*
X476000D02*
D03*
X442000D02*
D03*
X432000D02*
D03*
X420000D02*
D03*
X405000D02*
D03*
X532000Y248000D02*
D03*
X500000Y307000D02*
D03*
X516000D02*
D03*
Y87000D02*
D03*
X229000Y228000D02*
D03*
Y236000D02*
D03*
X261000Y188000D02*
D03*
X261000Y204000D02*
D03*
X261000Y196000D02*
D03*
X245000Y228000D02*
D03*
X261000D02*
D03*
X245000Y236000D02*
D03*
X261000D02*
D03*
X245000Y252000D02*
D03*
X261000D02*
D03*
X245000Y244000D02*
D03*
X261000D02*
D03*
X139000Y218000D02*
D03*
X357000Y188000D02*
D03*
X365000D02*
D03*
X349000Y188000D02*
D03*
X341000Y188000D02*
D03*
X349000Y164000D02*
D03*
X357000Y172000D02*
D03*
X371000Y174000D02*
D03*
X444000Y70000D02*
D03*
X365000Y164000D02*
D03*
X357000D02*
D03*
X325000Y156000D02*
D03*
X492000Y102000D02*
D03*
X341000Y164000D02*
D03*
X325000Y148000D02*
D03*
X357000Y148000D02*
D03*
X325000Y204000D02*
D03*
X341000Y156000D02*
D03*
X349000D02*
D03*
X333000D02*
D03*
X341000Y148000D02*
D03*
X309000Y188000D02*
D03*
X333000Y164000D02*
D03*
X325000Y172000D02*
D03*
X333000Y172000D02*
D03*
X309000Y156000D02*
D03*
X317000Y172000D02*
D03*
X181000Y148000D02*
D03*
X197000Y132000D02*
D03*
X173000D02*
D03*
X197000Y124000D02*
D03*
X213000Y188000D02*
D03*
X213000Y180000D02*
D03*
X221000Y172000D02*
D03*
X221000Y164000D02*
D03*
X189000Y180000D02*
D03*
X197000Y260000D02*
D03*
X213000Y196000D02*
D03*
X181000Y220000D02*
D03*
X221000Y284000D02*
D03*
X245000Y180000D02*
D03*
X309000Y164000D02*
D03*
X317000Y140000D02*
D03*
X333000Y148000D02*
D03*
X444000Y298000D02*
D03*
X357000Y244000D02*
D03*
X365000Y244000D02*
D03*
X400000Y152000D02*
D03*
Y248000D02*
D03*
X390000Y152000D02*
D03*
Y248000D02*
D03*
X349000Y260000D02*
D03*
X333000Y252000D02*
D03*
X333000Y260000D02*
D03*
X341000Y260000D02*
D03*
X325000Y220000D02*
D03*
X341000Y252000D02*
D03*
Y244000D02*
D03*
Y236000D02*
D03*
X325000Y260000D02*
D03*
X325000Y252000D02*
D03*
X317000D02*
D03*
X349000Y244000D02*
D03*
Y236000D02*
D03*
X333000Y244000D02*
D03*
X325000Y244000D02*
D03*
X333000Y236000D02*
D03*
X325000D02*
D03*
X531000Y28000D02*
D03*
X521000D02*
D03*
X493000Y28000D02*
D03*
X464000D02*
D03*
X454000D02*
D03*
X537000Y372000D02*
D03*
X357000Y228000D02*
D03*
Y204000D02*
D03*
X500000Y118000D02*
D03*
X515730Y117730D02*
D03*
X516000Y282000D02*
D03*
X598000Y228000D02*
D03*
X575000Y175000D02*
D03*
X181000Y108000D02*
D03*
X160000Y111000D02*
D03*
X229000Y108000D02*
D03*
X342500Y56800D02*
D03*
X327500D02*
D03*
X280000Y94300D02*
D03*
X323125Y62425D02*
D03*
X231875Y48050D02*
D03*
X177000Y309000D02*
D03*
X229000Y244000D02*
D03*
X78000Y387000D02*
D03*
X74000Y369000D02*
D03*
X66000D02*
D03*
X261000Y180000D02*
D03*
X277000Y244000D02*
D03*
X229000Y268000D02*
D03*
X301000Y260000D02*
D03*
X159000Y296000D02*
D03*
X189000Y260000D02*
D03*
X269000Y284000D02*
D03*
X309000Y180000D02*
D03*
X341000Y196000D02*
D03*
X189000Y196000D02*
D03*
X293000Y156000D02*
D03*
X213000Y212000D02*
D03*
X189000D02*
D03*
X213000Y236000D02*
D03*
X189000Y220000D02*
D03*
X173000Y236000D02*
D03*
X154000Y252000D02*
D03*
X197000Y164000D02*
D03*
X158000Y168000D02*
D03*
X173000Y156000D02*
D03*
X159000Y160000D02*
D03*
X163000Y86000D02*
D03*
X293000Y140000D02*
D03*
X55000Y253000D02*
D03*
X41000Y256000D02*
D03*
X67000Y51000D02*
D03*
X52000Y302000D02*
D03*
X141000Y58000D02*
D03*
X152000Y11000D02*
D03*
X133000Y97000D02*
D03*
X197000Y140000D02*
D03*
X229000Y148000D02*
D03*
X245000D02*
D03*
X213000Y124000D02*
D03*
X608000Y36000D02*
D03*
X64000Y114000D02*
D03*
X58000Y193000D02*
D03*
X51000Y355000D02*
D03*
X613000Y215000D02*
D03*
X90000Y308000D02*
D03*
X77000Y291000D02*
D03*
X504000Y313000D02*
D03*
X508000Y307000D02*
D03*
X536000Y93000D02*
D03*
X600000Y313000D02*
D03*
Y93000D02*
D03*
X492000Y70000D02*
D03*
X365000Y300000D02*
D03*
X548000Y87000D02*
D03*
X556000D02*
D03*
X560000Y93000D02*
D03*
X480000Y148000D02*
D03*
X501000Y28000D02*
D03*
X484000Y152000D02*
D03*
X507000Y28000D02*
D03*
X487000Y250000D02*
D03*
X483000Y310000D02*
D03*
X523000Y372000D02*
D03*
X491000Y254000D02*
D03*
X489000Y310000D02*
D03*
X529000Y372000D02*
D03*
X489000Y90000D02*
D03*
X483000D02*
D03*
X335500Y48050D02*
D03*
X253000Y284000D02*
D03*
X206875Y357800D02*
D03*
X556000Y307000D02*
D03*
X564000Y87000D02*
D03*
X154000Y35000D02*
D03*
Y41000D02*
D03*
X162000Y45250D02*
D03*
X162000Y50750D02*
D03*
X213125Y42200D02*
D03*
X206875D02*
D03*
X619000Y174000D02*
D03*
X624000Y170000D02*
D03*
X141000Y52000D02*
D03*
X100000Y64000D02*
D03*
X337500Y338200D02*
D03*
X169000Y309000D02*
D03*
X173000Y260000D02*
D03*
X296875Y365800D02*
D03*
X303125D02*
D03*
X293000Y228000D02*
D03*
X80000Y235000D02*
D03*
X85000Y232000D02*
D03*
X245000Y212000D02*
D03*
Y172000D02*
D03*
X293000Y164000D02*
D03*
X261000Y212000D02*
D03*
X678000Y195000D02*
D03*
X622000Y364000D02*
D03*
X172000Y94000D02*
D03*
X178000D02*
D03*
X292500Y338200D02*
D03*
X247500Y362800D02*
D03*
X228125Y364800D02*
D03*
X301875Y62425D02*
D03*
M02*
