%FSLAX44Y44*%
%MOMM*%
G71*
G01*
G75*
G04 Layer_Color=16711935*
%ADD10C,0.3500*%
%ADD11R,1.6000X3.9000*%
%ADD12R,5.2000X5.2000*%
%ADD13R,0.6000X0.2500*%
%ADD14R,0.2500X0.6000*%
%ADD15R,0.5000X0.6000*%
%ADD16R,0.2500X0.5000*%
%ADD17R,2.4000X0.8400*%
%ADD18R,3.4000X4.0000*%
%ADD19R,0.9000X0.4500*%
%ADD20R,0.6000X0.5000*%
%ADD21R,0.5000X0.5000*%
%ADD22R,0.5000X0.5000*%
%ADD23R,0.8000X0.8000*%
%ADD24R,0.7500X1.4000*%
%ADD25R,0.8000X0.8000*%
%ADD26R,1.8288X3.4290*%
%ADD27R,3.4290X1.8288*%
%ADD28R,0.9000X1.6000*%
%ADD29R,1.6000X0.9000*%
%ADD30R,1.2000X0.5800*%
%ADD31C,1.0160*%
%ADD32C,0.4000*%
%ADD33C,0.6350*%
%ADD34R,0.7000X0.9000*%
%ADD35C,0.0930*%
%ADD36C,0.3000*%
%ADD37C,0.0900*%
%ADD38C,0.2500*%
%ADD39C,0.4000*%
%ADD40C,0.1010*%
%ADD41C,0.2000*%
%ADD42C,0.5000*%
%ADD43C,0.7000*%
%ADD44C,5.0000*%
%ADD45C,0.2700*%
%ADD46C,0.4500*%
%ADD47C,0.1000*%
%ADD48C,3.6830*%
%ADD49C,0.0800*%
%ADD50C,0.6000*%
%ADD51C,0.8000*%
%ADD52C,0.0850*%
%ADD53C,1.2500*%
%ADD54R,1.9000X2.6000*%
%ADD55R,0.2800X2.2700*%
%ADD56R,2.5400X0.4300*%
%ADD57R,4.7000X0.4300*%
%ADD58R,1.3000X0.9000*%
%ADD59R,0.9000X1.3000*%
%ADD60R,0.5588X0.6858*%
%ADD61R,0.9000X0.7000*%
%ADD62R,1.8000X1.1250*%
%ADD63R,0.4800X0.2300*%
%ADD64R,0.4000X1.1900*%
%ADD65R,0.9000X1.1900*%
%ADD66R,3.3000X3.3000*%
%ADD67R,0.6000X0.2300*%
%ADD68R,0.2300X0.6000*%
%ADD69R,2.6000X1.9000*%
%ADD70R,1.0000X0.5500*%
%ADD71R,0.5500X1.0000*%
%ADD72C,0.3500*%
%ADD73C,0.2800*%
%ADD74C,0.2200*%
%ADD75C,0.4500*%
%ADD76C,0.1500*%
%ADD77C,0.2540*%
%ADD78C,0.1270*%
%ADD79R,2.4000X2.4000*%
%ADD80R,5.2508X5.2508*%
%ADD81R,0.6600X0.3100*%
%ADD82R,0.3100X0.6600*%
%ADD83R,0.7032X0.8032*%
%ADD84R,0.3900X0.6400*%
%ADD85R,2.5400X0.9800*%
%ADD86R,3.6032X4.2032*%
%ADD87R,1.1032X0.6532*%
%ADD88R,0.8032X0.7032*%
%ADD89R,0.7032X0.7032*%
%ADD90R,0.7032X0.7032*%
%ADD91R,1.0032X1.0032*%
%ADD92R,0.9532X1.6032*%
%ADD93R,1.0032X1.0032*%
%ADD94R,2.0320X3.6322*%
%ADD95R,3.6322X2.0320*%
%ADD96R,1.1032X1.8032*%
%ADD97R,1.8032X1.1032*%
%ADD98R,1.4032X0.7832*%
%ADD99C,1.3160*%
%ADD100C,0.5000*%
%ADD101C,0.7366*%
%ADD102R,0.9032X1.1032*%
%ADD103C,5.2032*%
%ADD104C,0.2032*%
%ADD105R,2.1032X2.8032*%
%ADD106R,0.3816X2.3716*%
%ADD107R,2.6924X0.5824*%
%ADD108R,4.8524X0.5824*%
%ADD109R,1.5032X1.1032*%
%ADD110R,1.1032X1.5032*%
%ADD111R,0.7112X0.8382*%
%ADD112R,1.1032X0.9032*%
%ADD113R,1.8508X1.1758*%
%ADD114R,0.6324X0.3824*%
%ADD115R,0.5524X1.3424*%
%ADD116R,0.9508X1.2408*%
%ADD117R,3.4016X3.4016*%
%ADD118R,0.7016X0.3316*%
%ADD119R,0.3316X0.7016*%
%ADD120R,2.8032X2.1032*%
%ADD121R,1.2032X0.7532*%
%ADD122R,0.7532X1.2032*%
G36*
X41000Y333000D02*
X36000D01*
Y331000D01*
X41000D01*
Y328000D01*
X33000D01*
Y336000D01*
X41000D01*
Y333000D01*
D02*
G37*
D36*
X541001Y198500D02*
X544500Y201999D01*
Y205498D01*
X541001Y208997D01*
X528755Y205498D02*
X534003D01*
X535753Y203748D01*
Y200249D01*
X534003Y198500D01*
X528755D01*
X525256D02*
X521757Y201999D01*
Y205498D01*
X525256Y208997D01*
X499015D02*
X506012D01*
Y203748D01*
X502514D01*
X506012D01*
Y198500D01*
X488518Y208997D02*
X495516D01*
Y198500D01*
X488518D01*
X495516Y203748D02*
X492017D01*
X485019Y208997D02*
Y198500D01*
X479771D01*
X478022Y200249D01*
Y207247D01*
X479771Y208997D01*
X485019D01*
X467525D02*
X474523D01*
Y198500D01*
X467525D01*
X474523Y203748D02*
X471024D01*
X464026Y208997D02*
Y201999D01*
X460527Y198500D01*
X457028Y201999D01*
Y208997D01*
X446532D02*
X453530D01*
Y198500D01*
X446532D01*
X453530Y203748D02*
X450031D01*
X443033Y208997D02*
Y198500D01*
X436035D01*
X415042D02*
X422040D01*
X415042Y205498D01*
Y207247D01*
X416791Y208997D01*
X420290D01*
X422040Y207247D01*
X411543D02*
X409794Y208997D01*
X406295D01*
X404545Y207247D01*
Y200249D01*
X406295Y198500D01*
X409794D01*
X411543Y200249D01*
Y207247D01*
X401046Y198500D02*
X397548D01*
X399297D01*
Y208997D01*
X401046Y207247D01*
X392299D02*
X390550Y208997D01*
X387051D01*
X385302Y207247D01*
Y205498D01*
X387051Y203748D01*
X388800D01*
X387051D01*
X385302Y201999D01*
Y200249D01*
X387051Y198500D01*
X390550D01*
X392299Y200249D01*
D46*
X560000Y58000D02*
D03*
X552000D02*
D03*
X544000D02*
D03*
X536000D02*
D03*
X528000D02*
D03*
X520000D02*
D03*
X512000D02*
D03*
X504000D02*
D03*
X496000D02*
D03*
X488000D02*
D03*
X480000D02*
D03*
X472000D02*
D03*
X464000D02*
D03*
X456000D02*
D03*
X448000D02*
D03*
X440000D02*
D03*
X560000Y66000D02*
D03*
X552000D02*
D03*
X544000D02*
D03*
X536000D02*
D03*
X528000D02*
D03*
X520000D02*
D03*
X512000D02*
D03*
X504000D02*
D03*
X496000D02*
D03*
X488000D02*
D03*
X480000D02*
D03*
X472000D02*
D03*
X464000D02*
D03*
X456000D02*
D03*
X448000D02*
D03*
X440000D02*
D03*
X560000Y74000D02*
D03*
X552000D02*
D03*
X544000D02*
D03*
X536000D02*
D03*
X528000D02*
D03*
X520000D02*
D03*
X512000D02*
D03*
X504000D02*
D03*
X496000D02*
D03*
X488000D02*
D03*
X480000D02*
D03*
X472000D02*
D03*
X464000D02*
D03*
X456000D02*
D03*
X448000D02*
D03*
X440000D02*
D03*
X560000Y106000D02*
D03*
X552000D02*
D03*
X544000D02*
D03*
X536000D02*
D03*
X528000D02*
D03*
X520000D02*
D03*
X512000D02*
D03*
X504000D02*
D03*
X496000D02*
D03*
X488000D02*
D03*
X480000D02*
D03*
X472000D02*
D03*
X464000D02*
D03*
X456000D02*
D03*
X448000D02*
D03*
X440000D02*
D03*
X560000Y114000D02*
D03*
X552000D02*
D03*
X544000D02*
D03*
X536000D02*
D03*
X528000D02*
D03*
X520000D02*
D03*
X512000D02*
D03*
X504000D02*
D03*
X496000D02*
D03*
X488000D02*
D03*
X480000D02*
D03*
X472000D02*
D03*
X464000D02*
D03*
X456000D02*
D03*
X448000D02*
D03*
X440000D02*
D03*
X560000Y122000D02*
D03*
X552000D02*
D03*
X544000D02*
D03*
X536000D02*
D03*
X528000D02*
D03*
X520000D02*
D03*
X512000D02*
D03*
X504000D02*
D03*
X496000D02*
D03*
X488000D02*
D03*
X480000D02*
D03*
X472000D02*
D03*
X464000D02*
D03*
X456000D02*
D03*
X448000D02*
D03*
X440000D02*
D03*
Y130000D02*
D03*
Y50000D02*
D03*
X560000D02*
D03*
Y130000D02*
D03*
X584000Y74000D02*
D03*
Y106000D02*
D03*
X416000Y74000D02*
D03*
Y106000D02*
D03*
Y130000D02*
D03*
Y122000D02*
D03*
Y50000D02*
D03*
Y58000D02*
D03*
X584000D02*
D03*
Y50000D02*
D03*
Y122000D02*
D03*
Y130000D02*
D03*
X560000Y278000D02*
D03*
X552000D02*
D03*
X544000D02*
D03*
X536000D02*
D03*
X528000D02*
D03*
X520000D02*
D03*
X512000D02*
D03*
X504000D02*
D03*
X496000D02*
D03*
X488000D02*
D03*
X480000D02*
D03*
X472000D02*
D03*
X464000D02*
D03*
X456000D02*
D03*
X448000D02*
D03*
X440000D02*
D03*
X560000Y286000D02*
D03*
X552000D02*
D03*
X544000D02*
D03*
X536000D02*
D03*
X528000D02*
D03*
X520000D02*
D03*
X512000D02*
D03*
X504000D02*
D03*
X496000D02*
D03*
X488000D02*
D03*
X480000D02*
D03*
X472000D02*
D03*
X464000D02*
D03*
X456000D02*
D03*
X448000D02*
D03*
X440000D02*
D03*
X560000Y294000D02*
D03*
X552000D02*
D03*
X544000D02*
D03*
X536000D02*
D03*
X528000D02*
D03*
X520000D02*
D03*
X512000D02*
D03*
X504000D02*
D03*
X496000D02*
D03*
X488000D02*
D03*
X480000D02*
D03*
X472000D02*
D03*
X464000D02*
D03*
X456000D02*
D03*
X448000D02*
D03*
X440000D02*
D03*
X560000Y326000D02*
D03*
X552000D02*
D03*
X544000D02*
D03*
X536000D02*
D03*
X528000D02*
D03*
X520000D02*
D03*
X512000D02*
D03*
X504000D02*
D03*
X496000D02*
D03*
X488000D02*
D03*
X480000D02*
D03*
X472000D02*
D03*
X464000D02*
D03*
X456000D02*
D03*
X448000D02*
D03*
X440000D02*
D03*
X560000Y334000D02*
D03*
X552000D02*
D03*
X544000D02*
D03*
X536000D02*
D03*
X528000D02*
D03*
X520000D02*
D03*
X512000D02*
D03*
X504000D02*
D03*
X496000D02*
D03*
X488000D02*
D03*
X480000D02*
D03*
X472000D02*
D03*
X464000D02*
D03*
X456000D02*
D03*
X448000D02*
D03*
X440000D02*
D03*
X560000Y342000D02*
D03*
X552000D02*
D03*
X544000D02*
D03*
X536000D02*
D03*
X528000D02*
D03*
X520000D02*
D03*
X512000D02*
D03*
X504000D02*
D03*
X496000D02*
D03*
X488000D02*
D03*
X480000D02*
D03*
X472000D02*
D03*
X464000D02*
D03*
X456000D02*
D03*
X448000D02*
D03*
X440000D02*
D03*
Y350000D02*
D03*
Y270000D02*
D03*
X560000D02*
D03*
Y350000D02*
D03*
X584000Y294000D02*
D03*
Y326000D02*
D03*
X416000Y294000D02*
D03*
Y326000D02*
D03*
Y350000D02*
D03*
Y342000D02*
D03*
Y270000D02*
D03*
Y278000D02*
D03*
X584000D02*
D03*
Y270000D02*
D03*
Y342000D02*
D03*
Y350000D02*
D03*
D83*
X241750Y290750D02*
D03*
X251750D02*
D03*
X109000Y42000D02*
D03*
X99000D02*
D03*
X83000Y246000D02*
D03*
X73000D02*
D03*
X77500Y260000D02*
D03*
X67500D02*
D03*
X70000Y119000D02*
D03*
X80000D02*
D03*
X315000Y284000D02*
D03*
X325000D02*
D03*
X499000Y20000D02*
D03*
X509000D02*
D03*
X340000Y141000D02*
D03*
X330000D02*
D03*
X532000Y240000D02*
D03*
X522000D02*
D03*
X183000Y101000D02*
D03*
X173000D02*
D03*
Y185000D02*
D03*
X163000D02*
D03*
X187000Y227000D02*
D03*
X177000D02*
D03*
X80000Y131000D02*
D03*
X70000D02*
D03*
X77000Y94000D02*
D03*
X87000D02*
D03*
X80000Y107000D02*
D03*
X70000D02*
D03*
X633000Y102000D02*
D03*
X643000D02*
D03*
X85000Y68000D02*
D03*
X75000D02*
D03*
X72000Y303000D02*
D03*
X82000D02*
D03*
X85000Y44000D02*
D03*
X75000D02*
D03*
X121000Y212000D02*
D03*
X131000D02*
D03*
X60000Y164000D02*
D03*
X70000D02*
D03*
Y151000D02*
D03*
X60000D02*
D03*
X55000Y44000D02*
D03*
X65000D02*
D03*
X48000Y127000D02*
D03*
X58000D02*
D03*
Y139000D02*
D03*
X48000D02*
D03*
X104000Y250000D02*
D03*
X94000D02*
D03*
X612000Y146000D02*
D03*
X622000D02*
D03*
Y159000D02*
D03*
X612000D02*
D03*
X57000Y260000D02*
D03*
X47000D02*
D03*
X627000Y240000D02*
D03*
X637000D02*
D03*
X627000Y254000D02*
D03*
X637000D02*
D03*
X648000Y261000D02*
D03*
X658000D02*
D03*
X590000Y160000D02*
D03*
X600000D02*
D03*
X612000Y132000D02*
D03*
X622000D02*
D03*
X531000Y380000D02*
D03*
X521000D02*
D03*
X109000Y56000D02*
D03*
X99000D02*
D03*
X123000Y71000D02*
D03*
X113000D02*
D03*
Y83000D02*
D03*
X123000D02*
D03*
X85000Y56000D02*
D03*
X75000D02*
D03*
X58000Y113000D02*
D03*
X48000D02*
D03*
D88*
X155000Y127000D02*
D03*
Y117000D02*
D03*
X134000Y47000D02*
D03*
Y57000D02*
D03*
X652000Y321000D02*
D03*
Y331000D02*
D03*
Y309000D02*
D03*
Y299000D02*
D03*
X206000Y112000D02*
D03*
Y122000D02*
D03*
X166000Y224000D02*
D03*
Y234000D02*
D03*
X248000Y124000D02*
D03*
Y114000D02*
D03*
X274000Y109000D02*
D03*
Y99000D02*
D03*
X236000Y118000D02*
D03*
Y108000D02*
D03*
X334000Y116000D02*
D03*
Y106000D02*
D03*
X189000Y266000D02*
D03*
Y276000D02*
D03*
X54000Y90000D02*
D03*
Y100000D02*
D03*
X121000Y47000D02*
D03*
Y57000D02*
D03*
X614000Y102000D02*
D03*
Y92000D02*
D03*
X617000Y20000D02*
D03*
Y30000D02*
D03*
X220000Y112000D02*
D03*
Y122000D02*
D03*
X14000Y90000D02*
D03*
Y100000D02*
D03*
X28000D02*
D03*
Y90000D02*
D03*
X42000Y90000D02*
D03*
Y100000D02*
D03*
X300000Y286000D02*
D03*
Y296000D02*
D03*
X286000Y109000D02*
D03*
Y99000D02*
D03*
X140000Y105000D02*
D03*
Y95000D02*
D03*
X260000Y109000D02*
D03*
Y99000D02*
D03*
X143000Y117000D02*
D03*
Y127000D02*
D03*
X185000Y254000D02*
D03*
Y244000D02*
D03*
X74000Y324000D02*
D03*
Y314000D02*
D03*
X132000Y187000D02*
D03*
Y197000D02*
D03*
X134000Y234000D02*
D03*
Y224000D02*
D03*
X14000Y217000D02*
D03*
Y227000D02*
D03*
X15000Y184000D02*
D03*
Y174000D02*
D03*
X62000Y248000D02*
D03*
Y238000D02*
D03*
X49000Y150000D02*
D03*
Y160000D02*
D03*
X122000Y224000D02*
D03*
Y234000D02*
D03*
X115000Y245000D02*
D03*
Y255000D02*
D03*
X34000Y253000D02*
D03*
Y243000D02*
D03*
X568000Y212000D02*
D03*
Y222000D02*
D03*
X569000Y186000D02*
D03*
Y196000D02*
D03*
X564000Y169000D02*
D03*
Y159000D02*
D03*
X684000Y225000D02*
D03*
Y235000D02*
D03*
X686000Y183000D02*
D03*
Y173000D02*
D03*
X635000Y160000D02*
D03*
Y150000D02*
D03*
X649000Y239000D02*
D03*
Y249000D02*
D03*
X582000Y186000D02*
D03*
Y196000D02*
D03*
X579000Y159000D02*
D03*
Y169000D02*
D03*
X661000Y160000D02*
D03*
Y150000D02*
D03*
X152000Y105000D02*
D03*
Y95000D02*
D03*
X128000Y245000D02*
D03*
Y255000D02*
D03*
X142000D02*
D03*
Y245000D02*
D03*
X649000Y160000D02*
D03*
Y150000D02*
D03*
X48000Y238000D02*
D03*
Y248000D02*
D03*
X662000Y239000D02*
D03*
Y249000D02*
D03*
X60000Y27000D02*
D03*
Y17000D02*
D03*
X148000Y57000D02*
D03*
Y47000D02*
D03*
D89*
X531000Y21000D02*
D03*
X521000D02*
D03*
X335000Y126000D02*
D03*
X325000D02*
D03*
X237000Y98000D02*
D03*
X247000D02*
D03*
X500000Y159000D02*
D03*
X510000D02*
D03*
X357000Y117000D02*
D03*
X347000D02*
D03*
X510000Y241000D02*
D03*
X500000D02*
D03*
X442000Y21000D02*
D03*
X432000D02*
D03*
X486000D02*
D03*
X476000D02*
D03*
X454000D02*
D03*
X464000D02*
D03*
X543000D02*
D03*
X553000D02*
D03*
X565000Y379000D02*
D03*
X575000D02*
D03*
X454000D02*
D03*
X464000D02*
D03*
X442000D02*
D03*
X432000D02*
D03*
X553000D02*
D03*
X543000D02*
D03*
X486000D02*
D03*
X476000D02*
D03*
X390000Y241000D02*
D03*
X400000D02*
D03*
X565000Y21000D02*
D03*
X575000D02*
D03*
X553000Y159000D02*
D03*
X543000D02*
D03*
X422000D02*
D03*
X412000D02*
D03*
X456000D02*
D03*
X466000D02*
D03*
X444000D02*
D03*
X434000D02*
D03*
X390000D02*
D03*
X400000D02*
D03*
X422000Y241000D02*
D03*
X412000D02*
D03*
X456000D02*
D03*
X466000D02*
D03*
X444000D02*
D03*
X434000D02*
D03*
X553000D02*
D03*
X543000D02*
D03*
X239000Y154000D02*
D03*
X229000D02*
D03*
X197000Y212000D02*
D03*
X207000D02*
D03*
X237000Y302000D02*
D03*
X227000D02*
D03*
X191000Y164000D02*
D03*
X181000D02*
D03*
X185000Y154000D02*
D03*
X195000D02*
D03*
X173000Y174000D02*
D03*
X163000D02*
D03*
X261000D02*
D03*
X251000D02*
D03*
X197000Y202000D02*
D03*
X207000D02*
D03*
X239000Y174000D02*
D03*
X229000D02*
D03*
X293000Y186000D02*
D03*
X303000D02*
D03*
X308000Y148000D02*
D03*
X298000D02*
D03*
X299000Y196000D02*
D03*
X309000D02*
D03*
X277000Y226000D02*
D03*
X287000D02*
D03*
X308000Y210000D02*
D03*
X298000D02*
D03*
X277000Y250000D02*
D03*
X287000D02*
D03*
X287000Y236000D02*
D03*
X277000D02*
D03*
X207000Y265000D02*
D03*
X217000D02*
D03*
X217000Y275000D02*
D03*
X207000D02*
D03*
X239000Y164000D02*
D03*
X229000D02*
D03*
X215000Y170000D02*
D03*
X205000D02*
D03*
X215000Y154000D02*
D03*
X205000D02*
D03*
X196000Y254000D02*
D03*
X206000D02*
D03*
X197000Y232000D02*
D03*
X207000D02*
D03*
X316000Y166000D02*
D03*
X326000D02*
D03*
X316000Y178000D02*
D03*
X326000D02*
D03*
X207000Y222000D02*
D03*
X197000D02*
D03*
X196000Y242000D02*
D03*
X206000D02*
D03*
X319000Y259000D02*
D03*
X309000D02*
D03*
X310000Y226000D02*
D03*
X320000D02*
D03*
X329000Y188000D02*
D03*
X319000D02*
D03*
Y198000D02*
D03*
X329000D02*
D03*
X340000Y229000D02*
D03*
X330000D02*
D03*
X149000Y302000D02*
D03*
X139000D02*
D03*
X127000D02*
D03*
X117000D02*
D03*
X71000Y390000D02*
D03*
X61000D02*
D03*
X89000Y351000D02*
D03*
X99000D02*
D03*
X153000Y357000D02*
D03*
X163000D02*
D03*
X163000Y344000D02*
D03*
X153000D02*
D03*
X153000Y367000D02*
D03*
X163000D02*
D03*
X97000Y315000D02*
D03*
X87000D02*
D03*
X97000Y325000D02*
D03*
X87000D02*
D03*
X153000Y334000D02*
D03*
X163000D02*
D03*
X99000Y176000D02*
D03*
X89000D02*
D03*
X109000Y220000D02*
D03*
X99000D02*
D03*
X24000Y164000D02*
D03*
X14000D02*
D03*
X23000Y238000D02*
D03*
X13000D02*
D03*
X99000Y209000D02*
D03*
X109000D02*
D03*
X104000Y235000D02*
D03*
X94000D02*
D03*
X607000Y185000D02*
D03*
X597000D02*
D03*
X685000Y246000D02*
D03*
X675000D02*
D03*
X687000Y161000D02*
D03*
X677000D02*
D03*
X597000Y200000D02*
D03*
X607000D02*
D03*
Y173000D02*
D03*
X597000D02*
D03*
X509000Y379000D02*
D03*
X499000D02*
D03*
X347000Y106000D02*
D03*
X357000D02*
D03*
X155000Y224000D02*
D03*
X145000D02*
D03*
X155000Y234000D02*
D03*
X145000D02*
D03*
X105000Y387000D02*
D03*
X115000D02*
D03*
D90*
X215000Y142000D02*
D03*
Y132000D02*
D03*
X203000D02*
D03*
Y142000D02*
D03*
X197000Y192000D02*
D03*
Y182000D02*
D03*
X239000Y144000D02*
D03*
Y134000D02*
D03*
X267000Y124000D02*
D03*
Y134000D02*
D03*
X313000D02*
D03*
Y124000D02*
D03*
X660000Y68000D02*
D03*
Y78000D02*
D03*
X614000D02*
D03*
Y68000D02*
D03*
X59000Y78000D02*
D03*
Y68000D02*
D03*
X255000Y164000D02*
D03*
Y154000D02*
D03*
X221000Y203000D02*
D03*
Y213000D02*
D03*
X237000Y214000D02*
D03*
Y204000D02*
D03*
X253000Y214000D02*
D03*
Y204000D02*
D03*
X269000Y216000D02*
D03*
Y206000D02*
D03*
X283000D02*
D03*
Y216000D02*
D03*
X253000Y194000D02*
D03*
Y184000D02*
D03*
X219000Y183000D02*
D03*
Y193000D02*
D03*
X239000Y194000D02*
D03*
Y184000D02*
D03*
X283000Y196000D02*
D03*
Y186000D02*
D03*
X267000Y156000D02*
D03*
Y146000D02*
D03*
X277000D02*
D03*
Y156000D02*
D03*
X287000D02*
D03*
Y146000D02*
D03*
X299000Y220000D02*
D03*
Y230000D02*
D03*
X283000Y166000D02*
D03*
Y176000D02*
D03*
X271000D02*
D03*
Y166000D02*
D03*
X267000Y236000D02*
D03*
Y226000D02*
D03*
X219000Y254000D02*
D03*
Y244000D02*
D03*
X237000Y234000D02*
D03*
Y224000D02*
D03*
X253000D02*
D03*
Y234000D02*
D03*
X221000Y223000D02*
D03*
Y233000D02*
D03*
X267000Y246000D02*
D03*
Y256000D02*
D03*
X229000Y262000D02*
D03*
Y252000D02*
D03*
X253000Y254000D02*
D03*
Y244000D02*
D03*
X239000D02*
D03*
Y254000D02*
D03*
X269000Y196000D02*
D03*
Y186000D02*
D03*
X183000Y175000D02*
D03*
Y185000D02*
D03*
X207000Y180000D02*
D03*
Y190000D02*
D03*
X262000Y276000D02*
D03*
Y266000D02*
D03*
X279000Y134000D02*
D03*
Y124000D02*
D03*
X252000Y276000D02*
D03*
Y266000D02*
D03*
X251000Y144000D02*
D03*
Y134000D02*
D03*
X191000D02*
D03*
Y144000D02*
D03*
X174000Y244000D02*
D03*
Y254000D02*
D03*
X272000Y266000D02*
D03*
Y276000D02*
D03*
X309000Y246000D02*
D03*
Y236000D02*
D03*
X299000Y252000D02*
D03*
Y242000D02*
D03*
Y266000D02*
D03*
Y276000D02*
D03*
X319000Y146000D02*
D03*
Y156000D02*
D03*
X289000Y124000D02*
D03*
Y134000D02*
D03*
X242000Y266000D02*
D03*
Y276000D02*
D03*
X227000Y142000D02*
D03*
Y132000D02*
D03*
X48000Y309000D02*
D03*
Y319000D02*
D03*
X107000Y324000D02*
D03*
Y314000D02*
D03*
X89000Y378000D02*
D03*
Y368000D02*
D03*
X153000Y387000D02*
D03*
Y377000D02*
D03*
X160000Y314000D02*
D03*
Y324000D02*
D03*
X140000Y325000D02*
D03*
Y315000D02*
D03*
X127000D02*
D03*
Y325000D02*
D03*
X142000Y387000D02*
D03*
Y377000D02*
D03*
X117000Y315000D02*
D03*
Y325000D02*
D03*
X163000Y387000D02*
D03*
Y377000D02*
D03*
X150000Y324000D02*
D03*
Y314000D02*
D03*
X13000Y196000D02*
D03*
Y206000D02*
D03*
X616000Y235000D02*
D03*
Y245000D02*
D03*
X685000Y195000D02*
D03*
Y205000D02*
D03*
X111000Y341000D02*
D03*
Y351000D02*
D03*
X639000Y321000D02*
D03*
Y331000D02*
D03*
Y309000D02*
D03*
Y299000D02*
D03*
X194000Y108000D02*
D03*
Y118000D02*
D03*
X163000Y95000D02*
D03*
Y105000D02*
D03*
X132000Y387000D02*
D03*
Y377000D02*
D03*
D91*
X166500Y212000D02*
D03*
X181500D02*
D03*
X321500D02*
D03*
X336500D02*
D03*
X181500Y198000D02*
D03*
X166500D02*
D03*
X198500Y288000D02*
D03*
X213500D02*
D03*
X182500Y122000D02*
D03*
X167500D02*
D03*
X364500Y196000D02*
D03*
X349500D02*
D03*
X310500Y271000D02*
D03*
X325500D02*
D03*
X31500Y296000D02*
D03*
X16500D02*
D03*
X59500Y377000D02*
D03*
X74500D02*
D03*
X138500Y354000D02*
D03*
X123500D02*
D03*
X138500Y340000D02*
D03*
X123500D02*
D03*
X83500Y338000D02*
D03*
X98500D02*
D03*
X213500Y302000D02*
D03*
X198500D02*
D03*
X588500Y237000D02*
D03*
X603500D02*
D03*
X206500Y100000D02*
D03*
X221500D02*
D03*
X74500Y361000D02*
D03*
X59500D02*
D03*
X117500Y370000D02*
D03*
X102500D02*
D03*
D93*
X229000Y290500D02*
D03*
Y275500D02*
D03*
X166000Y153500D02*
D03*
Y138500D02*
D03*
X301000Y121500D02*
D03*
Y136500D02*
D03*
Y159500D02*
D03*
Y174500D02*
D03*
X162000Y249500D02*
D03*
Y264500D02*
D03*
X285000Y262500D02*
D03*
Y277500D02*
D03*
X50000Y332500D02*
D03*
Y347500D02*
D03*
X85000Y161500D02*
D03*
Y146500D02*
D03*
X185000Y306500D02*
D03*
Y291500D02*
D03*
X69000Y274500D02*
D03*
Y289500D02*
D03*
X665000Y321500D02*
D03*
Y306500D02*
D03*
X60000Y319500D02*
D03*
Y304500D02*
D03*
D99*
X10000Y270000D02*
D03*
X640000Y25000D02*
D03*
D101*
X70000Y339000D02*
D03*
X128000Y172000D02*
D03*
D103*
X675000Y375000D02*
D03*
Y25000D02*
D03*
X25000D02*
D03*
Y375000D02*
D03*
D104*
X380650Y74700D02*
D03*
X179350D02*
D03*
X380650Y378700D02*
D03*
X179350D02*
D03*
D105*
X96000Y278500D02*
D03*
X139000D02*
D03*
D106*
X352500Y19300D02*
D03*
X347500D02*
D03*
X342500D02*
D03*
X337500D02*
D03*
X332500D02*
D03*
X327500D02*
D03*
X322500D02*
D03*
X317500D02*
D03*
X312500D02*
D03*
X307500D02*
D03*
X302500D02*
D03*
X297500D02*
D03*
X292500D02*
D03*
X287500D02*
D03*
X282500D02*
D03*
X277500D02*
D03*
X272500D02*
D03*
X267500D02*
D03*
X262500D02*
D03*
X257500D02*
D03*
X252500D02*
D03*
X247500D02*
D03*
X242500D02*
D03*
X237500D02*
D03*
X232500D02*
D03*
X227500D02*
D03*
X222500D02*
D03*
X217500D02*
D03*
X212500D02*
D03*
X207500D02*
D03*
X352500Y76700D02*
D03*
X347500D02*
D03*
X342500D02*
D03*
X337500D02*
D03*
X332500D02*
D03*
X327500D02*
D03*
X322500D02*
D03*
X317500D02*
D03*
X312500D02*
D03*
X307500D02*
D03*
X302500D02*
D03*
X297500D02*
D03*
X292500D02*
D03*
X287500D02*
D03*
X282500D02*
D03*
X277500D02*
D03*
X272500D02*
D03*
X267500D02*
D03*
X262500D02*
D03*
X257500D02*
D03*
X252500D02*
D03*
X247500D02*
D03*
X242500D02*
D03*
X237500D02*
D03*
X232500D02*
D03*
X227500D02*
D03*
X222500D02*
D03*
X217500D02*
D03*
X212500D02*
D03*
X207500D02*
D03*
X352500Y323300D02*
D03*
X347500D02*
D03*
X342500D02*
D03*
X337500D02*
D03*
X332500D02*
D03*
X327500D02*
D03*
X322500D02*
D03*
X317500D02*
D03*
X312500D02*
D03*
X307500D02*
D03*
X302500D02*
D03*
X297500D02*
D03*
X292500D02*
D03*
X287500D02*
D03*
X282500D02*
D03*
X277500D02*
D03*
X272500D02*
D03*
X267500D02*
D03*
X262500D02*
D03*
X257500D02*
D03*
X252500D02*
D03*
X247500D02*
D03*
X242500D02*
D03*
X237500D02*
D03*
X232500D02*
D03*
X227500D02*
D03*
X222500D02*
D03*
X217500D02*
D03*
X212500D02*
D03*
X207500D02*
D03*
X352500Y380700D02*
D03*
X347500D02*
D03*
X342500D02*
D03*
X337500D02*
D03*
X332500D02*
D03*
X327500D02*
D03*
X322500D02*
D03*
X317500D02*
D03*
X312500D02*
D03*
X307500D02*
D03*
X302500D02*
D03*
X297500D02*
D03*
X292500D02*
D03*
X287500D02*
D03*
X282500D02*
D03*
X277500D02*
D03*
X272500D02*
D03*
X267500D02*
D03*
X262500D02*
D03*
X257500D02*
D03*
X252500D02*
D03*
X247500D02*
D03*
X242500D02*
D03*
X237500D02*
D03*
X232500D02*
D03*
X227500D02*
D03*
X222500D02*
D03*
X217500D02*
D03*
X212500D02*
D03*
X207500D02*
D03*
D107*
X360650Y48000D02*
D03*
X199350D02*
D03*
X360650Y352000D02*
D03*
X199350D02*
D03*
D108*
X311750Y48000D02*
D03*
X248250D02*
D03*
X311750Y352000D02*
D03*
X248250D02*
D03*
D109*
X148000Y207500D02*
D03*
Y188500D02*
D03*
X147000Y167500D02*
D03*
Y148500D02*
D03*
X168000Y279500D02*
D03*
Y298500D02*
D03*
D110*
X319500Y104000D02*
D03*
X300500D02*
D03*
X265500Y295000D02*
D03*
X284500D02*
D03*
X97500Y192000D02*
D03*
X116500D02*
D03*
X583500Y217000D02*
D03*
X602500D02*
D03*
D111*
X97192Y81000D02*
D03*
X72808D02*
D03*
D112*
X76500Y16500D02*
D03*
Y29500D02*
D03*
X95500Y23000D02*
D03*
X17500Y139500D02*
D03*
Y152500D02*
D03*
X36500Y146000D02*
D03*
X17500Y112500D02*
D03*
Y125500D02*
D03*
X36500Y119000D02*
D03*
X136500Y29500D02*
D03*
Y16500D02*
D03*
X117500Y23000D02*
D03*
D113*
X25000Y315015D02*
D03*
D114*
X38600Y334500D02*
D03*
Y329500D02*
D03*
Y324500D02*
D03*
Y319500D02*
D03*
Y314500D02*
D03*
Y309500D02*
D03*
X11400Y334500D02*
D03*
Y329500D02*
D03*
Y324500D02*
D03*
Y319500D02*
D03*
Y314500D02*
D03*
Y309500D02*
D03*
D115*
X17300Y329300D02*
D03*
D116*
X29500D02*
D03*
D117*
X53000Y200000D02*
D03*
X647000D02*
D03*
D118*
X77000Y217500D02*
D03*
Y212500D02*
D03*
Y207500D02*
D03*
Y202500D02*
D03*
Y197500D02*
D03*
Y192500D02*
D03*
Y187500D02*
D03*
Y182500D02*
D03*
X29000D02*
D03*
Y187500D02*
D03*
Y192500D02*
D03*
Y197500D02*
D03*
Y202500D02*
D03*
Y207500D02*
D03*
Y212500D02*
D03*
Y217500D02*
D03*
X623000Y182500D02*
D03*
Y187500D02*
D03*
Y192500D02*
D03*
Y197500D02*
D03*
Y202500D02*
D03*
Y207500D02*
D03*
Y212500D02*
D03*
Y217500D02*
D03*
X671000D02*
D03*
Y212500D02*
D03*
Y207500D02*
D03*
Y202500D02*
D03*
Y197500D02*
D03*
Y192500D02*
D03*
Y187500D02*
D03*
Y182500D02*
D03*
D119*
X70500Y176000D02*
D03*
X65500D02*
D03*
X60500D02*
D03*
X55500D02*
D03*
X50500D02*
D03*
X45500D02*
D03*
X40500D02*
D03*
X35500D02*
D03*
Y224000D02*
D03*
X40500D02*
D03*
X45500D02*
D03*
X50500D02*
D03*
X55500D02*
D03*
X60500D02*
D03*
X65500D02*
D03*
X70500D02*
D03*
X629500D02*
D03*
X634500D02*
D03*
X639500D02*
D03*
X644500D02*
D03*
X649500D02*
D03*
X654500D02*
D03*
X659500D02*
D03*
X664500D02*
D03*
Y176000D02*
D03*
X659500D02*
D03*
X654500D02*
D03*
X649500D02*
D03*
X644500D02*
D03*
X639500D02*
D03*
X634500D02*
D03*
X629500D02*
D03*
D120*
X116000Y153500D02*
D03*
Y110500D02*
D03*
D121*
X46500Y77500D02*
D03*
Y58500D02*
D03*
X19500Y77500D02*
D03*
Y68000D02*
D03*
Y58500D02*
D03*
D122*
X646500Y60500D02*
D03*
X637000D02*
D03*
X627500D02*
D03*
X646500Y87500D02*
D03*
X627500D02*
D03*
X637000D02*
D03*
M02*
