G04*
G04 #@! TF.GenerationSoftware,Altium Limited,Altium Designer,22.2.1 (43)*
G04*
G04 Layer_Color=128*
%FSLAX25Y25*%
%MOIN*%
G70*
G04*
G04 #@! TF.SameCoordinates,65C05967-714E-454F-997F-66751C825CAB*
G04*
G04*
G04 #@! TF.FilePolarity,Positive*
G04*
G01*
G75*
%ADD182C,0.00200*%
D182*
X288256Y50409D02*
X291681D01*
X289968Y48697D02*
Y52122D01*
X288256Y44504D02*
X291681D01*
X289968Y42791D02*
Y46216D01*
X288256Y38598D02*
X291681D01*
X289968Y36886D02*
Y40311D01*
X288256Y32693D02*
X291681D01*
X289968Y30980D02*
Y34405D01*
X288256Y26787D02*
X291681D01*
X289968Y25075D02*
Y28500D01*
X288256Y20882D02*
X291681D01*
X289968Y19169D02*
Y22594D01*
X316543Y74622D02*
X318512D01*
X317528Y73638D02*
Y75606D01*
X330716Y74622D02*
X332685D01*
X331701Y73638D02*
Y75606D01*
X330709Y60457D02*
X332677D01*
X331693Y59472D02*
Y61441D01*
X232480Y284646D02*
X237598D01*
X235039Y282087D02*
Y287205D01*
X232480Y324016D02*
X237598D01*
X235039Y321457D02*
Y326575D01*
X232480Y351575D02*
X237598D01*
X235039Y349016D02*
Y354134D01*
X260039Y284646D02*
X265158D01*
X262598Y282087D02*
Y287205D01*
X260039Y343701D02*
X265158D01*
X262598Y341142D02*
Y346260D01*
X106693Y107480D02*
X110630D01*
X108661Y105512D02*
Y109449D01*
X106693Y87795D02*
X110630D01*
X108661Y85827D02*
Y89764D01*
X21654Y136614D02*
X24803D01*
X23228Y135039D02*
Y138189D01*
X21654Y116929D02*
X24803D01*
X23228Y115354D02*
Y118504D01*
X258130Y155118D02*
X261555D01*
X259842Y153405D02*
Y156831D01*
X258130Y161024D02*
X261555D01*
X259842Y159311D02*
Y162736D01*
X258130Y166929D02*
X261555D01*
X259842Y165217D02*
Y168642D01*
X258130Y172835D02*
X261555D01*
X259842Y171122D02*
Y174547D01*
X258130Y178740D02*
X261555D01*
X259842Y177027D02*
Y180453D01*
X258130Y184646D02*
X261555D01*
X259842Y182933D02*
Y186358D01*
X52854Y208268D02*
X57579D01*
X55216Y205906D02*
Y210630D01*
X40650Y185039D02*
X45374D01*
X43012Y182677D02*
Y187402D01*
X28445Y203937D02*
X32382D01*
X30413Y201969D02*
Y205906D01*
X8563Y203937D02*
X16831D01*
X12697Y199803D02*
Y208071D01*
X257343Y372047D02*
X264232D01*
X260787Y368602D02*
Y375492D01*
X237343Y372047D02*
X244232D01*
X240787Y368602D02*
Y375492D01*
X189173Y284252D02*
X194291D01*
X191732Y281693D02*
Y286811D01*
X189173Y323622D02*
X194291D01*
X191732Y321063D02*
Y326181D01*
X189173Y351181D02*
X194291D01*
X191732Y348622D02*
Y353740D01*
X216732Y284252D02*
X221850D01*
X219291Y281693D02*
Y286811D01*
X216732Y343307D02*
X221850D01*
X219291Y340748D02*
Y345866D01*
X207343Y372047D02*
X214232D01*
X210787Y368602D02*
Y375492D01*
X187343Y372047D02*
X194232D01*
X190787Y368602D02*
Y375492D01*
X42323Y371654D02*
X46654D01*
X44488Y369488D02*
Y373819D01*
X160433Y371654D02*
X164764D01*
X162598Y369488D02*
Y373819D01*
X13386Y313779D02*
X17323D01*
X15354Y311811D02*
Y315748D01*
X33071Y313779D02*
X37008D01*
X35039Y311811D02*
Y315748D01*
X13386Y267717D02*
X17323D01*
X15354Y265748D02*
Y269685D01*
X33071Y267717D02*
X37008D01*
X35039Y265748D02*
Y269685D01*
X152756Y334252D02*
X156693D01*
X154724Y332283D02*
Y336221D01*
X74016Y334252D02*
X77953D01*
X75984Y332283D02*
Y336221D01*
X133071Y255512D02*
X137008D01*
X135039Y253543D02*
Y257480D01*
X93701Y255512D02*
X97638D01*
X95669Y253543D02*
Y257480D01*
X18209Y371811D02*
X25098D01*
X21654Y368366D02*
Y375256D01*
X18209Y351811D02*
X25098D01*
X21654Y348366D02*
Y355256D01*
X79921Y10433D02*
X83465D01*
X81693Y8661D02*
Y12205D01*
X68110Y10433D02*
X71653D01*
X69882Y8661D02*
Y12205D01*
X123622Y58760D02*
X128347D01*
X125984Y56398D02*
Y61122D01*
X146850Y46555D02*
X151575D01*
X149213Y44193D02*
Y48917D01*
X128347Y33957D02*
X132283D01*
X130315Y31988D02*
Y35925D01*
X126181Y16240D02*
X134449D01*
X130315Y12106D02*
Y20374D01*
X56496Y136614D02*
X57677D01*
X57087Y136024D02*
Y137205D01*
X331693Y19291D02*
X332874D01*
X332283Y18701D02*
Y19882D01*
X337598Y14961D02*
X338779D01*
X338189Y14370D02*
Y15551D01*
X336417Y35827D02*
X337598D01*
X337008Y35236D02*
Y36417D01*
X330512Y44488D02*
X331693D01*
X331102Y43898D02*
Y45079D01*
X322638Y50394D02*
X323819D01*
X323228Y49803D02*
Y50984D01*
X330512Y6299D02*
X331693D01*
X331102Y5709D02*
Y6890D01*
X284941Y88583D02*
X286122D01*
X285531Y87992D02*
Y89173D01*
X341929Y120079D02*
X343110D01*
X342520Y119488D02*
Y120669D01*
X359646Y120079D02*
X360827D01*
X360236Y119488D02*
Y120669D01*
X330118Y98425D02*
X331299D01*
X330709Y97835D02*
Y99016D01*
X310433Y5906D02*
X311614D01*
X311024Y5315D02*
Y6496D01*
X300492Y23031D02*
X301673D01*
X301083Y22441D02*
Y23622D01*
X294685Y61024D02*
X295866D01*
X295276Y60433D02*
Y61614D01*
X316339Y64961D02*
X317520D01*
X316929Y64370D02*
Y65551D01*
X330118Y114173D02*
X331299D01*
X330709Y113583D02*
Y114764D01*
X298622Y76772D02*
X299803D01*
X299213Y76181D02*
Y77362D01*
X284343Y75303D02*
X285524D01*
X284933Y74713D02*
Y75894D01*
X286078Y104450D02*
X287259D01*
X286669Y103860D02*
Y105041D01*
X286692Y114906D02*
X287873D01*
X287282Y114316D02*
Y115497D01*
X359646Y88583D02*
X360827D01*
X360236Y87992D02*
Y89173D01*
X361614Y68898D02*
X362795D01*
X362205Y68307D02*
Y69488D01*
X361614Y59055D02*
X362795D01*
X362205Y58465D02*
Y59646D01*
X343898Y59055D02*
X345079D01*
X344488Y58465D02*
Y59646D01*
X343898Y47244D02*
X345079D01*
X344488Y46654D02*
Y47835D01*
X361614Y47244D02*
X362795D01*
X362205Y46654D02*
Y47835D01*
X361614Y35433D02*
X362795D01*
X362205Y34843D02*
Y36024D01*
X343898Y35433D02*
X345079D01*
X344488Y34843D02*
Y36024D01*
X351772Y13780D02*
X352953D01*
X352362Y13189D02*
Y14370D01*
X343898Y21654D02*
X345079D01*
X344488Y21063D02*
Y22244D01*
X361614Y21654D02*
X362795D01*
X362205Y21063D02*
Y22244D01*
X361614Y5906D02*
X362795D01*
X362205Y5315D02*
Y6496D01*
X343898Y5906D02*
X345079D01*
X344488Y5315D02*
Y6496D01*
X286811Y7874D02*
X287992D01*
X287402Y7283D02*
Y8465D01*
X299410Y6400D02*
X300590D01*
X300000Y5809D02*
Y6991D01*
X300590Y15748D02*
X301772D01*
X301181Y15157D02*
Y16339D01*
X291210Y92800D02*
X292390D01*
X291800Y92210D02*
Y93391D01*
X292810Y116800D02*
X293990D01*
X293400Y116209D02*
Y117391D01*
X314910Y82000D02*
X316090D01*
X315500Y81410D02*
Y82591D01*
X348009Y73100D02*
X349190D01*
X348600Y72509D02*
Y73690D01*
X133957Y132677D02*
X135138D01*
X134547Y132087D02*
Y133268D01*
X134153Y141240D02*
X135335D01*
X134744Y140650D02*
Y141831D01*
X126772Y136713D02*
X127953D01*
X127362Y136122D02*
Y137303D01*
X43406Y127264D02*
X44587D01*
X43996Y126673D02*
Y127854D01*
X47736Y149606D02*
X48917D01*
X48327Y149016D02*
Y150197D01*
X269882Y173622D02*
X271063D01*
X270472Y173031D02*
Y174213D01*
X265945Y199902D02*
X267126D01*
X266535Y199311D02*
Y200492D01*
X238976Y217717D02*
X240158D01*
X239567Y217126D02*
Y218307D01*
X194587Y256791D02*
X195768D01*
X195177Y256201D02*
Y257382D01*
X174705Y216339D02*
X175886D01*
X175295Y215748D02*
Y216929D01*
X107972Y204232D02*
X109153D01*
X108563Y203642D02*
Y204823D01*
X13976Y159547D02*
X15157D01*
X14567Y158957D02*
Y160138D01*
X56693Y165748D02*
X57874D01*
X57284Y165157D02*
Y166339D01*
X65158Y121260D02*
X66339D01*
X65748Y120669D02*
Y121850D01*
X82776Y125394D02*
X83957D01*
X83366Y124803D02*
Y125984D01*
X130807Y196358D02*
X131988D01*
X131398Y195768D02*
Y196949D01*
X145177Y115748D02*
X146358D01*
X145768Y115157D02*
Y116339D01*
X101772Y64665D02*
X102953D01*
X102362Y64075D02*
Y65256D01*
X95177Y111221D02*
X96358D01*
X95768Y110630D02*
Y111811D01*
X192815Y155118D02*
X193996D01*
X193405Y154528D02*
Y155709D01*
X190453Y168012D02*
X191634D01*
X191043Y167421D02*
Y168602D01*
X205610Y158366D02*
X206791D01*
X206201Y157776D02*
Y158957D01*
X205610Y171949D02*
X206791D01*
X206201Y171358D02*
Y172539D01*
X232874Y10531D02*
X234055D01*
X233465Y9941D02*
Y11122D01*
X260433Y10531D02*
X261614D01*
X261024Y9941D02*
Y11122D01*
X232874Y25295D02*
X234055D01*
X233465Y24705D02*
Y25886D01*
X260433Y25295D02*
X261614D01*
X261024Y24705D02*
Y25886D01*
X232874Y42913D02*
X234055D01*
X233465Y42323D02*
Y43504D01*
X260433Y42913D02*
X261614D01*
X261024Y42323D02*
Y43504D01*
X232832Y69451D02*
X234013D01*
X233423Y68860D02*
Y70041D01*
X260391Y69451D02*
X261572D01*
X260982Y68860D02*
Y70041D01*
X232972Y87008D02*
X234154D01*
X233563Y86417D02*
Y87598D01*
X260531Y87008D02*
X261713D01*
X261122Y86417D02*
Y87598D01*
X260531Y108661D02*
X261713D01*
X261122Y108071D02*
Y109252D01*
X232972Y108661D02*
X234154D01*
X233563Y108071D02*
Y109252D01*
X226575Y130217D02*
X227756D01*
X227165Y129626D02*
Y130807D01*
X259842Y139272D02*
X261024D01*
X260433Y138681D02*
Y139862D01*
X263090Y227165D02*
X264272D01*
X263681Y226575D02*
Y227756D01*
X261417Y249016D02*
X262598D01*
X262008Y248425D02*
Y249606D01*
X86024Y174311D02*
X87205D01*
X86614Y173721D02*
Y174902D01*
X106004Y182382D02*
X107185D01*
X106595Y181791D02*
Y182972D01*
X149213Y191634D02*
X150394D01*
X149803Y191043D02*
Y192224D01*
X192224Y201575D02*
X193405D01*
X192815Y200984D02*
Y202165D01*
X183563Y228740D02*
X184744D01*
X184153Y228150D02*
Y229331D01*
X157480Y228543D02*
X158661D01*
X158071Y227953D02*
Y229134D01*
X197047Y78937D02*
X198228D01*
X197638Y78347D02*
Y79528D01*
X234744Y150295D02*
X235925D01*
X235335Y149705D02*
Y150886D01*
X217618Y146653D02*
X218799D01*
X218209Y146063D02*
Y147244D01*
X221555Y193012D02*
X222736D01*
X222146Y192421D02*
Y193602D01*
X229134Y242520D02*
X230315D01*
X229724Y241929D02*
Y243110D01*
X226594Y267008D02*
X227776D01*
X227185Y266417D02*
Y267598D01*
X213952Y259965D02*
X215134D01*
X214543Y259374D02*
Y260556D01*
X243287Y261004D02*
X244468D01*
X243878Y260413D02*
Y261595D01*
X166831Y195276D02*
X168012D01*
X167421Y194685D02*
Y195866D01*
X155512Y167126D02*
X156693D01*
X156102Y166535D02*
Y167717D01*
X150492Y143405D02*
X151673D01*
X151083Y142815D02*
Y143996D01*
X185335Y189567D02*
X186516D01*
X185925Y188976D02*
Y190157D01*
X181102Y189567D02*
X182283D01*
X181693Y188976D02*
Y190157D01*
X185335Y185531D02*
X186516D01*
X185925Y184941D02*
Y186122D01*
X181102Y185531D02*
X182283D01*
X181693Y184941D02*
Y186122D01*
X187303Y44980D02*
X188484D01*
X187894Y44390D02*
Y45571D01*
X187205Y27264D02*
X188386D01*
X187795Y26673D02*
Y27854D01*
X9843Y11319D02*
X11024D01*
X10433Y10728D02*
Y11909D01*
X5512Y29921D02*
X6693D01*
X6102Y29331D02*
Y30512D01*
X4331Y21555D02*
X5512D01*
X4921Y20965D02*
Y22146D01*
X41831Y21161D02*
X43012D01*
X42421Y20571D02*
Y21752D01*
X87894Y155285D02*
X89272D01*
X88583Y154596D02*
Y155974D01*
X83957Y155285D02*
X85335D01*
X84646Y154596D02*
Y155974D01*
X91831Y155285D02*
X93209D01*
X92520Y154596D02*
Y155974D01*
X80020Y155285D02*
X81398D01*
X80709Y154596D02*
Y155974D01*
X146555Y170177D02*
X147736D01*
X147146Y169587D02*
Y170768D01*
X176870Y152756D02*
X178051D01*
X177461Y152165D02*
Y153347D01*
X29724Y106004D02*
X30906D01*
X30315Y105413D02*
Y106595D01*
X34843Y111417D02*
X36024D01*
X35433Y110827D02*
Y112008D01*
X239469Y156201D02*
X240650D01*
X240059Y155610D02*
Y156791D01*
X182776Y118996D02*
X183957D01*
X183366Y118405D02*
Y119587D01*
X187697Y97342D02*
X188878D01*
X188287Y96752D02*
Y97933D01*
X206035Y135858D02*
X207216D01*
X206626Y135268D02*
Y136449D01*
X238779Y150295D02*
X239961D01*
X239370Y149705D02*
Y150886D01*
X96260Y50787D02*
X97441D01*
X96850Y50197D02*
Y51378D01*
X176476Y53740D02*
X177657D01*
X177067Y53150D02*
Y54331D01*
X196752Y130905D02*
X197933D01*
X197343Y130315D02*
Y131496D01*
X195669Y140059D02*
X196850D01*
X196260Y139469D02*
Y140650D01*
X53937Y5315D02*
X55118D01*
X54528Y4724D02*
Y5906D01*
X19685Y6201D02*
X20866D01*
X20276Y5610D02*
Y6791D01*
X21260Y10236D02*
X22441D01*
X21850Y9646D02*
Y10827D01*
X187205Y131102D02*
X188386D01*
X187795Y130512D02*
Y131693D01*
X171221Y100157D02*
X172402D01*
X171811Y99567D02*
Y100748D01*
X176575Y100197D02*
X177756D01*
X177165Y99606D02*
Y100787D01*
X182126Y100197D02*
X183307D01*
X182717Y99606D02*
Y100787D01*
X192913Y184153D02*
X194095D01*
X193504Y183563D02*
Y184744D01*
X201644Y187612D02*
X202825D01*
X202234Y187022D02*
Y188203D01*
X198954Y189459D02*
X200135D01*
X199545Y188868D02*
Y190049D01*
X70177Y191339D02*
X71555D01*
X70866Y190650D02*
Y192027D01*
X66240Y191339D02*
X67618D01*
X66929Y190650D02*
Y192027D01*
X243602Y165256D02*
X244783D01*
X244193Y164665D02*
Y165847D01*
X176476Y56496D02*
X177657D01*
X177067Y55905D02*
Y57087D01*
X243602Y168012D02*
X244783D01*
X244193Y167421D02*
Y168602D01*
X205709Y51575D02*
X206890D01*
X206299Y50984D02*
Y52165D01*
X183465Y81004D02*
X184646D01*
X184055Y80413D02*
Y81595D01*
X187205Y86713D02*
X188386D01*
X187795Y86122D02*
Y87303D01*
X249410Y188386D02*
X250590D01*
X250000Y187795D02*
Y188976D01*
X239567Y203150D02*
X240748D01*
X240158Y202559D02*
Y203740D01*
X132942Y104842D02*
X134123D01*
X133532Y104252D02*
Y105433D01*
X242323Y188386D02*
X243504D01*
X242913Y187795D02*
Y188976D01*
X235630Y188386D02*
X236811D01*
X236221Y187795D02*
Y188976D01*
X171496Y104331D02*
X172677D01*
X172087Y103740D02*
Y104921D01*
X188465Y74528D02*
X189646D01*
X189055Y73937D02*
Y75118D01*
X62303Y191339D02*
X63681D01*
X62992Y190650D02*
Y192027D01*
X58366Y191339D02*
X59744D01*
X59055Y190650D02*
Y192027D01*
X57973Y217323D02*
X59350D01*
X58661Y216634D02*
Y218012D01*
X54035Y217323D02*
X55413D01*
X54724Y216634D02*
Y218012D01*
X50098Y217323D02*
X51476D01*
X50787Y216634D02*
Y218012D01*
M02*
