G04*
G04 #@! TF.GenerationSoftware,Altium Limited,Altium Designer,22.2.1 (43)*
G04*
G04 Layer_Physical_Order=3*
G04 Layer_Color=128*
%FSLAX25Y25*%
%MOIN*%
G70*
G04*
G04 #@! TF.SameCoordinates,65C05967-714E-454F-997F-66751C825CAB*
G04*
G04*
G04 #@! TF.FilePolarity,Negative*
G04*
G01*
G75*
%ADD115C,0.03000*%
%ADD136C,0.05000*%
%ADD137C,0.04000*%
%ADD138C,0.07425*%
G04:AMPARAMS|DCode=139|XSize=94.252mil|YSize=94.252mil|CornerRadius=0mil|HoleSize=0mil|Usage=FLASHONLY|Rotation=0.000|XOffset=0mil|YOffset=0mil|HoleType=Round|Shape=Relief|Width=10mil|Gap=10mil|Entries=4|*
%AMTHD139*
7,0,0,0.09425,0.07425,0.01000,45*
%
%ADD139THD139*%
%ADD141C,0.05969*%
%ADD142C,0.09118*%
%ADD144C,0.07937*%
%ADD145C,0.07150*%
%ADD149C,0.12268*%
%ADD150C,0.10890*%
%ADD151C,0.08331*%
%ADD152C,0.07543*%
%ADD153O,0.09906X0.08724*%
%ADD156C,0.05181*%
G04:AMPARAMS|DCode=157|XSize=71.811mil|YSize=71.811mil|CornerRadius=0mil|HoleSize=0mil|Usage=FLASHONLY|Rotation=0.000|XOffset=0mil|YOffset=0mil|HoleType=Round|Shape=Relief|Width=10mil|Gap=10mil|Entries=4|*
%AMTHD157*
7,0,0,0.07181,0.05181,0.01000,45*
%
%ADD157THD157*%
%ADD159C,0.02200*%
%ADD160R,0.05315X0.81201*%
%ADD161R,0.99705X0.36614*%
%ADD162R,1.31988X0.98819*%
%ADD163R,2.79331X0.59055*%
G04:AMPARAMS|DCode=164|XSize=111.181mil|YSize=111.181mil|CornerRadius=0mil|HoleSize=0mil|Usage=FLASHONLY|Rotation=0.000|XOffset=0mil|YOffset=0mil|HoleType=Round|Shape=Relief|Width=10mil|Gap=10mil|Entries=4|*
%AMTHD164*
7,0,0,0.11118,0.09118,0.01000,45*
%
%ADD164THD164*%
%AMTHOVALD165*
21,1,0.01181,0.10724,0,0,270.0*
1,1,0.10724,0.00000,0.00591*
1,1,0.10724,0.00000,-0.00591*
21,0,0.01181,0.08724,0,0,270.0*
1,0,0.08724,0.00000,0.00591*
1,0,0.08724,0.00000,-0.00591*
4,0,4,-0.00354,0.00237,-0.04145,0.04029,-0.03438,0.04736,0.00354,0.00944,-0.00354,0.00237,0.0*
4,0,4,-0.00354,-0.00944,0.03438,-0.04736,0.04145,-0.04029,0.00354,-0.00237,-0.00354,-0.00944,0.0*
4,0,4,-0.00354,0.00944,0.03438,0.04736,0.04145,0.04029,0.00354,0.00237,-0.00354,0.00944,0.0*
4,0,4,-0.00354,-0.00237,-0.04145,-0.04029,-0.03438,-0.04736,0.00354,-0.00944,-0.00354,-0.00237,0.0*
%
%ADD165THOVALD165*%

%ADD166O,0.15811X0.08724*%
%ADD167O,0.07937X0.15811*%
%ADD168O,0.08724X0.15811*%
%ADD169O,0.15811X0.07937*%
G04:AMPARAMS|DCode=170|XSize=73.779mil|YSize=73.779mil|CornerRadius=0mil|HoleSize=0mil|Usage=FLASHONLY|Rotation=0.000|XOffset=0mil|YOffset=0mil|HoleType=Round|Shape=Relief|Width=10mil|Gap=10mil|Entries=4|*
%AMTHD170*
7,0,0,0.07378,0.05378,0.01000,45*
%
%ADD170THD170*%
D115*
X125435Y204372D02*
X137563Y204267D01*
X121104Y195627D02*
X125435Y204372D01*
X137563Y204267D02*
X142028Y199803D01*
Y128543D02*
Y199803D01*
X138681Y125197D02*
X142028Y128543D01*
X119587Y125197D02*
X138681D01*
X116929Y143764D02*
X121609Y148778D01*
X121104Y195627D02*
X121609Y148778D01*
X116929Y126926D02*
X119587Y125197D01*
X116929Y126926D02*
Y143764D01*
D136*
X278248Y126476D02*
X279921Y492D01*
D137*
X-12Y0D02*
X372835D01*
Y125197D01*
X278346D02*
X372835D01*
X278346D02*
Y393701D01*
X-12D02*
X278346D01*
X-12Y0D02*
Y393701D01*
D138*
X289968Y44504D02*
D03*
Y38598D02*
D03*
Y32693D02*
D03*
Y26787D02*
D03*
Y20882D02*
D03*
X259842Y155118D02*
D03*
Y161024D02*
D03*
Y166929D02*
D03*
Y172835D02*
D03*
Y178740D02*
D03*
D139*
X289968Y50409D02*
D03*
X259842Y184646D02*
D03*
D141*
X317528Y74622D02*
D03*
X331701D02*
D03*
X331693Y60457D02*
D03*
D142*
X235039Y284646D02*
D03*
Y324016D02*
D03*
Y351575D02*
D03*
X262598Y343701D02*
D03*
X191732Y323622D02*
D03*
Y351181D02*
D03*
X219291Y284252D02*
D03*
Y343307D02*
D03*
D144*
X108661Y107480D02*
D03*
Y87795D02*
D03*
X15354Y313779D02*
D03*
X35039D02*
D03*
X15354Y267717D02*
D03*
X35039D02*
D03*
X154724Y334252D02*
D03*
X75984D02*
D03*
X135039Y255512D02*
D03*
X95669D02*
D03*
D145*
X23228Y136614D02*
D03*
Y116929D02*
D03*
D149*
X12697Y203937D02*
D03*
X130315Y16240D02*
D03*
D150*
X260787Y372047D02*
D03*
X240787D02*
D03*
X210787Y372047D02*
D03*
X190787D02*
D03*
X21654Y371811D02*
D03*
Y351811D02*
D03*
D151*
X44488Y371654D02*
D03*
X162598D02*
D03*
D152*
X81693Y10433D02*
D03*
X69882D02*
D03*
D153*
X125984Y58760D02*
D03*
D156*
X57087Y136614D02*
D03*
D03*
X332283Y19291D02*
D03*
X285531Y88583D02*
D03*
X342520Y120079D02*
D03*
X360236D02*
D03*
X330709Y98425D02*
D03*
X311024Y5906D02*
D03*
X301083Y23031D02*
D03*
X295276Y61024D02*
D03*
X316929Y64961D02*
D03*
X330709Y114173D02*
D03*
X299213Y76772D02*
D03*
X284933Y75303D02*
D03*
X286669Y104450D02*
D03*
X287282Y114906D02*
D03*
X360236Y88583D02*
D03*
X362205Y68898D02*
D03*
Y59055D02*
D03*
X344488D02*
D03*
Y47244D02*
D03*
X362205D02*
D03*
Y35433D02*
D03*
X344488D02*
D03*
X352362Y13780D02*
D03*
X344488Y21654D02*
D03*
X362205D02*
D03*
Y5906D02*
D03*
X344488D02*
D03*
X287402Y7874D02*
D03*
X300000Y6400D02*
D03*
X301181Y15748D02*
D03*
X315500Y82000D02*
D03*
D03*
X348600Y73100D02*
D03*
D03*
X43996Y127264D02*
D03*
X48327Y149606D02*
D03*
X270472Y173622D02*
D03*
X266535Y199902D02*
D03*
X239567Y217717D02*
D03*
X195177Y256791D02*
D03*
X175295Y216339D02*
D03*
X108563Y204232D02*
D03*
X14567Y159547D02*
D03*
X57284Y165748D02*
D03*
X65748Y121260D02*
D03*
X83366Y125394D02*
D03*
X145768Y115748D02*
D03*
X102362Y64665D02*
D03*
X95768Y111221D02*
D03*
X193405Y155118D02*
D03*
X191043Y168012D02*
D03*
X206201Y158366D02*
D03*
Y171949D02*
D03*
X233465Y10531D02*
D03*
X261024D02*
D03*
X233465Y25295D02*
D03*
X261024D02*
D03*
X233465Y42913D02*
D03*
X261024D02*
D03*
X233423Y69451D02*
D03*
X260982D02*
D03*
X233563Y87008D02*
D03*
X261122D02*
D03*
Y108661D02*
D03*
X233563D02*
D03*
X227165Y130217D02*
D03*
X260433Y139272D02*
D03*
X263681Y227165D02*
D03*
X262008Y249016D02*
D03*
X86614Y174311D02*
D03*
X106595Y182382D02*
D03*
X149803Y191634D02*
D03*
X192815Y201575D02*
D03*
X184153Y228740D02*
D03*
X158071Y228543D02*
D03*
X197638Y78937D02*
D03*
X235335Y150295D02*
D03*
X222146Y193012D02*
D03*
X229724Y242520D02*
D03*
X227185Y267008D02*
D03*
X214543Y259965D02*
D03*
X243878Y261004D02*
D03*
X167421Y195276D02*
D03*
X156102Y167126D02*
D03*
X151083Y143405D02*
D03*
D03*
X187894Y44980D02*
D03*
X10433Y11319D02*
D03*
X6102Y29921D02*
D03*
X4921Y21555D02*
D03*
X42421Y21161D02*
D03*
X147146Y170177D02*
D03*
D03*
X177461Y152756D02*
D03*
D03*
X30315Y106004D02*
D03*
D03*
X35433Y111417D02*
D03*
D03*
X240059Y156201D02*
D03*
D03*
X183366Y118996D02*
D03*
D03*
X188287Y97342D02*
D03*
D03*
X206626Y135858D02*
D03*
D03*
X239370Y150295D02*
D03*
D03*
X96850Y50787D02*
D03*
D03*
X177067Y53740D02*
D03*
D03*
X197343Y130905D02*
D03*
D03*
X196260Y140059D02*
D03*
D03*
X52461Y23031D02*
D03*
X53642D02*
D03*
X187795Y131102D02*
D03*
D03*
X193504Y184153D02*
D03*
D03*
X202234Y187612D02*
D03*
X199545Y189459D02*
D03*
X244193Y165256D02*
D03*
D03*
X177067Y56496D02*
D03*
D03*
X244193Y168012D02*
D03*
D03*
X206299Y51575D02*
D03*
X184055Y81004D02*
D03*
X187795Y86713D02*
D03*
X191732Y351181D02*
D03*
D03*
D157*
X338189Y14961D02*
D03*
X337008Y35827D02*
D03*
X331102Y44488D02*
D03*
X323228Y50394D02*
D03*
X331102Y6299D02*
D03*
X291800Y92800D02*
D03*
X293400Y116800D02*
D03*
X134547Y132677D02*
D03*
X134744Y141240D02*
D03*
X127362Y136713D02*
D03*
X131398Y196358D02*
D03*
X218209Y146653D02*
D03*
X185925Y189567D02*
D03*
X181693D02*
D03*
X185925Y185531D02*
D03*
X181693D02*
D03*
X187795Y27264D02*
D03*
X54528Y5315D02*
D03*
X20276Y6201D02*
D03*
X21850Y10236D02*
D03*
X171811Y100157D02*
D03*
X177165Y100197D02*
D03*
X182717D02*
D03*
X250000Y188386D02*
D03*
X240158Y203150D02*
D03*
X133532Y104842D02*
D03*
X242913Y188386D02*
D03*
X236221D02*
D03*
X172087Y104331D02*
D03*
X189055Y74528D02*
D03*
D159*
X184252Y292323D02*
X186713Y294783D01*
X184252Y237894D02*
Y292323D01*
X186713Y294783D02*
X188435Y296506D01*
X160335Y224016D02*
X170374D01*
X146063D02*
X160335D01*
X143799Y226279D02*
X146063Y224016D01*
X188435Y296506D02*
X198573D01*
X180684Y234326D02*
X184252Y237894D01*
X228248Y256004D02*
X254823D01*
X182677Y210433D02*
X228248Y256004D01*
X81299Y190650D02*
Y205733D01*
X81238Y206435D02*
X85236Y210433D01*
X182677D01*
X170374Y224016D02*
X180684Y234326D01*
X254823Y256004D02*
X272244Y273425D01*
Y293799D01*
X268209Y297835D02*
X272244Y293799D01*
X256201Y297835D02*
X268209D01*
X251969Y293602D02*
X256201Y297835D01*
X251969Y277264D02*
Y293602D01*
X246260Y271555D02*
X251969Y277264D01*
X210925Y271555D02*
X246260D01*
X202854Y279626D02*
X210925Y271555D01*
X202854Y279626D02*
Y292224D01*
X198573Y296506D02*
X202854Y292224D01*
X66732Y226279D02*
X143799D01*
X60162Y180684D02*
X66535Y174311D01*
X43406Y197441D02*
X51550Y189296D01*
X60162Y180684D01*
X43406Y197441D02*
Y220177D01*
X49508Y226279D01*
X66732D01*
X81299Y190650D02*
X98524Y173425D01*
Y155118D02*
Y173425D01*
X91929Y148524D02*
X98524Y155118D01*
X76968Y148524D02*
X91929D01*
X66535Y158957D02*
X76968Y148524D01*
X66535Y158957D02*
Y174311D01*
D160*
X1181Y64911D02*
D03*
D161*
X228789Y317815D02*
D03*
D162*
X115108Y287795D02*
D03*
D163*
X140059Y363484D02*
D03*
D164*
X262598Y284646D02*
D03*
X191732Y284252D02*
D03*
D165*
X55216Y208268D02*
D03*
D166*
X43012Y185039D02*
D03*
D167*
X30413Y203937D02*
D03*
D168*
X149213Y46555D02*
D03*
D169*
X130315Y33957D02*
D03*
D170*
X88583Y155285D02*
D03*
X84646D02*
D03*
X92520D02*
D03*
X80709D02*
D03*
X70866Y191339D02*
D03*
X66929D02*
D03*
X62992D02*
D03*
X59055D02*
D03*
X58661Y217323D02*
D03*
X54724D02*
D03*
X50787D02*
D03*
M02*
