G04*
G04 #@! TF.GenerationSoftware,Altium Limited,Altium Designer,22.2.1 (43)*
G04*
G04 Layer_Color=2752767*
%FSLAX25Y25*%
%MOIN*%
G70*
G04*
G04 #@! TF.SameCoordinates,65C05967-714E-454F-997F-66751C825CAB*
G04*
G04*
G04 #@! TF.FilePolarity,Positive*
G04*
G01*
G75*
%ADD14C,0.00394*%
%ADD182C,0.00200*%
D14*
X-12Y0D02*
X394D01*
X-12D02*
Y393701D01*
X394D01*
X278346Y125197D02*
Y393701D01*
X394Y0D02*
X372835D01*
X278346Y125197D02*
X372835D01*
Y0D02*
Y125197D01*
X394Y393701D02*
X278346D01*
D182*
X56287Y135814D02*
X56687Y136614D01*
X56287Y137414D01*
X57087Y137014D01*
X57887Y137414D01*
X57487Y136614D01*
X57887Y135814D01*
X57087Y136214D01*
X56287Y135814D01*
X56687Y136214D02*
X56887Y136614D01*
X56687Y137014D01*
X57087Y136814D01*
X57487Y137014D01*
X57287Y136614D01*
X57487Y136214D01*
X57087Y136414D01*
X56687Y136214D01*
X150283Y142605D02*
X150683Y143405D01*
X150283Y144205D01*
X151083Y143806D01*
X151883Y144205D01*
X151483Y143405D01*
X151883Y142605D01*
X151083Y143006D01*
X150283Y142605D01*
X150683Y143006D02*
X150883Y143405D01*
X150683Y143806D01*
X151083Y143605D01*
X151483Y143806D01*
X151283Y143405D01*
X151483Y143006D01*
X151083Y143205D01*
X150683Y143006D01*
X176661Y151956D02*
X177061Y152756D01*
X176661Y153556D01*
X177461Y153156D01*
X178261Y153556D01*
X177861Y152756D01*
X178261Y151956D01*
X177461Y152356D01*
X176661Y151956D01*
X177061Y152356D02*
X177261Y152756D01*
X177061Y153156D01*
X177461Y152956D01*
X177861Y153156D01*
X177661Y152756D01*
X177861Y152356D01*
X177461Y152556D01*
X177061Y152356D01*
X29515Y105204D02*
X29915Y106004D01*
X29515Y106804D01*
X30315Y106404D01*
X31115Y106804D01*
X30715Y106004D01*
X31115Y105204D01*
X30315Y105604D01*
X29515Y105204D01*
X29915Y105604D02*
X30115Y106004D01*
X29915Y106404D01*
X30315Y106204D01*
X30715Y106404D01*
X30515Y106004D01*
X30715Y105604D01*
X30315Y105804D01*
X29915Y105604D01*
X34633Y110617D02*
X35033Y111417D01*
X34633Y112217D01*
X35433Y111817D01*
X36233Y112217D01*
X35833Y111417D01*
X36233Y110617D01*
X35433Y111017D01*
X34633Y110617D01*
X35033Y111017D02*
X35233Y111417D01*
X35033Y111817D01*
X35433Y111617D01*
X35833Y111817D01*
X35633Y111417D01*
X35833Y111017D01*
X35433Y111217D01*
X35033Y111017D01*
X182566Y118196D02*
X182966Y118996D01*
X182566Y119796D01*
X183366Y119396D01*
X184166Y119796D01*
X183766Y118996D01*
X184166Y118196D01*
X183366Y118596D01*
X182566Y118196D01*
X182966Y118596D02*
X183166Y118996D01*
X182966Y119396D01*
X183366Y119196D01*
X183766Y119396D01*
X183566Y118996D01*
X183766Y118596D01*
X183366Y118796D01*
X182966Y118596D01*
X187487Y96543D02*
X187887Y97342D01*
X187487Y98142D01*
X188287Y97742D01*
X189087Y98142D01*
X188687Y97342D01*
X189087Y96543D01*
X188287Y96943D01*
X187487Y96543D01*
X187887Y96943D02*
X188087Y97342D01*
X187887Y97742D01*
X188287Y97543D01*
X188687Y97742D01*
X188487Y97342D01*
X188687Y96943D01*
X188287Y97142D01*
X187887Y96943D01*
X205826Y135058D02*
X206226Y135858D01*
X205826Y136658D01*
X206626Y136258D01*
X207426Y136658D01*
X207026Y135858D01*
X207426Y135058D01*
X206626Y135458D01*
X205826Y135058D01*
X206226Y135458D02*
X206426Y135858D01*
X206226Y136258D01*
X206626Y136058D01*
X207026Y136258D01*
X206826Y135858D01*
X207026Y135458D01*
X206626Y135658D01*
X206226Y135458D01*
X238570Y149495D02*
X238970Y150295D01*
X238570Y151095D01*
X239370Y150695D01*
X240170Y151095D01*
X239770Y150295D01*
X240170Y149495D01*
X239370Y149895D01*
X238570Y149495D01*
X238970Y149895D02*
X239170Y150295D01*
X238970Y150695D01*
X239370Y150495D01*
X239770Y150695D01*
X239570Y150295D01*
X239770Y149895D01*
X239370Y150095D01*
X238970Y149895D01*
X96050Y49987D02*
X96450Y50787D01*
X96050Y51587D01*
X96850Y51187D01*
X97650Y51587D01*
X97250Y50787D01*
X97650Y49987D01*
X96850Y50387D01*
X96050Y49987D01*
X96450Y50387D02*
X96650Y50787D01*
X96450Y51187D01*
X96850Y50987D01*
X97250Y51187D01*
X97050Y50787D01*
X97250Y50387D01*
X96850Y50587D01*
X96450Y50387D01*
X176267Y52940D02*
X176667Y53740D01*
X176267Y54540D01*
X177067Y54140D01*
X177867Y54540D01*
X177467Y53740D01*
X177867Y52940D01*
X177067Y53340D01*
X176267Y52940D01*
X176667Y53340D02*
X176867Y53740D01*
X176667Y54140D01*
X177067Y53940D01*
X177467Y54140D01*
X177267Y53740D01*
X177467Y53340D01*
X177067Y53540D01*
X176667Y53340D01*
X196543Y130105D02*
X196942Y130905D01*
X196543Y131705D01*
X197343Y131306D01*
X198143Y131705D01*
X197742Y130905D01*
X198143Y130105D01*
X197343Y130506D01*
X196543Y130105D01*
X196942Y130506D02*
X197143Y130905D01*
X196942Y131306D01*
X197343Y131105D01*
X197742Y131306D01*
X197543Y130905D01*
X197742Y130506D01*
X197343Y130705D01*
X196942Y130506D01*
X195460Y139259D02*
X195860Y140059D01*
X195460Y140859D01*
X196260Y140459D01*
X197060Y140859D01*
X196660Y140059D01*
X197060Y139259D01*
X196260Y139659D01*
X195460Y139259D01*
X195860Y139659D02*
X196060Y140059D01*
X195860Y140459D01*
X196260Y140259D01*
X196660Y140459D01*
X196460Y140059D01*
X196660Y139659D01*
X196260Y139859D01*
X195860Y139659D01*
X51661Y22231D02*
X52061Y23031D01*
X51661Y23832D01*
X52461Y23431D01*
X53261Y23832D01*
X52861Y23031D01*
X53261Y22231D01*
X52461Y22632D01*
X51661Y22231D01*
X52061Y22632D02*
X52261Y23031D01*
X52061Y23431D01*
X52461Y23232D01*
X52861Y23431D01*
X52661Y23031D01*
X52861Y22632D01*
X52461Y22831D01*
X52061Y22632D01*
X186995Y130302D02*
X187395Y131102D01*
X186995Y131902D01*
X187795Y131502D01*
X188595Y131902D01*
X188195Y131102D01*
X188595Y130302D01*
X187795Y130702D01*
X186995Y130302D01*
X187395Y130702D02*
X187595Y131102D01*
X187395Y131502D01*
X187795Y131302D01*
X188195Y131502D01*
X187995Y131102D01*
X188195Y130702D01*
X187795Y130902D01*
X187395Y130702D01*
X192704Y183353D02*
X193104Y184153D01*
X192704Y184953D01*
X193504Y184554D01*
X194304Y184953D01*
X193904Y184153D01*
X194304Y183353D01*
X193504Y183754D01*
X192704Y183353D01*
X193104Y183754D02*
X193304Y184153D01*
X193104Y184554D01*
X193504Y184353D01*
X193904Y184554D01*
X193704Y184153D01*
X193904Y183754D01*
X193504Y183953D01*
X193104Y183754D01*
X243393Y164456D02*
X243793Y165256D01*
X243393Y166056D01*
X244193Y165656D01*
X244993Y166056D01*
X244593Y165256D01*
X244993Y164456D01*
X244193Y164856D01*
X243393Y164456D01*
X243793Y164856D02*
X243993Y165256D01*
X243793Y165656D01*
X244193Y165456D01*
X244593Y165656D01*
X244393Y165256D01*
X244593Y164856D01*
X244193Y165056D01*
X243793Y164856D01*
X176267Y55696D02*
X176667Y56496D01*
X176267Y57296D01*
X177067Y56896D01*
X177867Y57296D01*
X177467Y56496D01*
X177867Y55696D01*
X177067Y56096D01*
X176267Y55696D01*
X176667Y56096D02*
X176867Y56496D01*
X176667Y56896D01*
X177067Y56696D01*
X177467Y56896D01*
X177267Y56496D01*
X177467Y56096D01*
X177067Y56296D01*
X176667Y56096D01*
X243393Y167212D02*
X243793Y168012D01*
X243393Y168812D01*
X244193Y168412D01*
X244993Y168812D01*
X244593Y168012D01*
X244993Y167212D01*
X244193Y167612D01*
X243393Y167212D01*
X243793Y167612D02*
X243993Y168012D01*
X243793Y168412D01*
X244193Y168212D01*
X244593Y168412D01*
X244393Y168012D01*
X244593Y167612D01*
X244193Y167812D01*
X243793Y167612D01*
X190932Y350381D02*
X191332Y351181D01*
X190932Y351981D01*
X191732Y351581D01*
X192532Y351981D01*
X192132Y351181D01*
X192532Y350381D01*
X191732Y350781D01*
X190932Y350381D01*
X191332Y350781D02*
X191532Y351181D01*
X191332Y351581D01*
X191732Y351381D01*
X192132Y351581D01*
X191932Y351181D01*
X192132Y350781D01*
X191732Y350981D01*
X191332Y350781D01*
M02*
