G04*
G04 #@! TF.GenerationSoftware,Altium Limited,Altium Designer,22.2.1 (43)*
G04*
G04 Layer_Color=32896*
%FSLAX25Y25*%
%MOIN*%
G70*
G04*
G04 #@! TF.SameCoordinates,65C05967-714E-454F-997F-66751C825CAB*
G04*
G04*
G04 #@! TF.FilePolarity,Positive*
G04*
G01*
G75*
%ADD10C,0.00787*%
%ADD12C,0.01575*%
%ADD13C,0.01000*%
%ADD14C,0.00394*%
%ADD15C,0.00500*%
%ADD18C,0.00591*%
%ADD21R,0.01083X0.06693*%
D10*
X334842Y19646D02*
G03*
X334842Y19646I-394J0D01*
G01*
X336614Y82284D02*
Y116929D01*
X322441Y82284D02*
X336614D01*
X322441D02*
Y116929D01*
X326378D01*
X333465D02*
X336614D01*
X291339Y57874D02*
X290027D01*
X290683D01*
Y61810D01*
X291339Y61154D01*
X285827Y70079D02*
X282678D01*
X283728Y69029D01*
X282678Y67980D01*
X285827D01*
Y66930D02*
X283728D01*
X282678Y65881D01*
X283728Y64831D01*
X285827D01*
X284252D01*
Y66930D01*
X282678Y63782D02*
Y62732D01*
Y63257D01*
X285827D01*
Y63782D01*
Y62732D01*
Y61158D02*
X282678D01*
X285827Y59059D01*
X282678D01*
D12*
X336221Y119685D02*
G03*
X336221Y119685I-787J0D01*
G01*
D13*
X326378Y116535D02*
G03*
X333465Y116535I3543J0D01*
G01*
D14*
X350394Y92520D02*
X353937D01*
X349213D02*
X350394D01*
X349213D02*
Y104331D01*
X353937D01*
Y92520D02*
Y104331D01*
X295874Y14583D02*
Y56315D01*
X281307D02*
X295874D01*
X281307Y14583D02*
X295874D01*
X281307D02*
Y56315D01*
X311811Y25591D02*
X315354D01*
X310630D02*
X311811D01*
X310630D02*
Y37402D01*
X315354D01*
Y25591D02*
Y37402D01*
X297843Y47850D02*
X302567D01*
X297843Y45488D02*
X302567D01*
X304929Y47850D02*
X309653D01*
X304929Y45488D02*
X309653D01*
X312016Y47850D02*
X316740D01*
X312016Y45488D02*
X316740D01*
X304738Y24506D02*
X308281D01*
X309462D01*
Y12695D02*
Y24506D01*
X304738Y12695D02*
X309462D01*
X304738D02*
Y24506D01*
X323244Y4578D02*
Y8122D01*
X322456Y4578D02*
Y8122D01*
X321457Y14961D02*
X328150D01*
X321457Y8661D02*
X327756D01*
X317323Y37008D02*
X320866D01*
X322047D01*
Y25197D02*
Y37008D01*
X317323Y25197D02*
X322047D01*
X317323D02*
Y37008D01*
X305906Y25591D02*
X309449D01*
X304724D02*
X305906D01*
X304724D02*
Y37402D01*
X309449D01*
Y25591D02*
Y37402D01*
X317323Y20079D02*
Y24803D01*
X314961Y20079D02*
Y24803D01*
X355315Y98032D02*
X358858D01*
X355315Y98819D02*
X358858D01*
X350856Y86717D02*
Y90261D01*
X351643Y86717D02*
Y90261D01*
X357336Y81363D02*
Y84906D01*
Y80182D02*
Y81363D01*
X345525Y80182D02*
X357336D01*
X345525D02*
Y84906D01*
X357336D01*
X300394Y90945D02*
Y94488D01*
Y95669D01*
X312205D01*
Y90945D02*
Y95669D01*
X300394Y90945D02*
X312205D01*
X301083Y83465D02*
Y89764D01*
X312303D01*
Y83465D02*
Y89764D01*
X301083Y83465D02*
X312303D01*
X306643Y97047D02*
Y100591D01*
X305855Y97047D02*
Y100591D01*
X300594Y102238D02*
Y105781D01*
Y106962D01*
X312405D01*
Y102238D02*
Y106962D01*
X300594Y102238D02*
X312405D01*
X358095Y74138D02*
Y77681D01*
Y78862D01*
X369905D01*
Y74138D02*
Y78862D01*
X358095Y74138D02*
X369905D01*
X354724Y116929D02*
X358268D01*
X359449D01*
Y105118D02*
Y116929D01*
X354724Y105118D02*
X359449D01*
X354724D02*
Y116929D01*
X350394Y105118D02*
X353937D01*
X349213D02*
X350394D01*
X349213D02*
Y116929D01*
X353937D01*
Y105118D02*
Y116929D01*
X295669Y83858D02*
X299213D01*
X294488D02*
X295669D01*
X294488D02*
Y95669D01*
X299213D01*
Y83858D02*
Y95669D01*
X308661Y107480D02*
X312205D01*
X307480D02*
X308661D01*
X307480D02*
Y119291D01*
X312205D01*
Y107480D02*
Y119291D01*
X361650Y109481D02*
X367950D01*
X361650Y107119D02*
X367950D01*
X361650Y90381D02*
X367950D01*
X361650Y88019D02*
X367950D01*
X298031Y33071D02*
X302756D01*
X298031Y30709D02*
X302756D01*
X301181Y114420D02*
X305906D01*
X301181Y112058D02*
X305906D01*
X351206Y74728D02*
Y78272D01*
X351994Y74728D02*
Y78272D01*
X343898Y111417D02*
X347441D01*
X343898Y110630D02*
X347441D01*
X295472Y113779D02*
X299016D01*
X295472Y112992D02*
X299016D01*
D15*
X336024Y27835D02*
Y30433D01*
X328996Y32283D02*
X331634D01*
X324606Y27835D02*
Y30433D01*
D18*
X327821Y121653D02*
Y119029D01*
X327296Y118504D01*
X326246D01*
X325722Y119029D01*
Y121653D01*
X324672Y119029D02*
X324147Y118504D01*
X323098D01*
X322573Y119029D01*
Y121128D01*
X323098Y121653D01*
X324147D01*
X324672Y121128D01*
Y120604D01*
X324147Y120079D01*
X322573D01*
X334514Y41338D02*
Y38714D01*
X333989Y38190D01*
X332939D01*
X332415Y38714D01*
Y41338D01*
X331365Y40813D02*
X330840Y41338D01*
X329791D01*
X329266Y40813D01*
Y40288D01*
X329791Y39764D01*
X329266Y39239D01*
Y38714D01*
X329791Y38190D01*
X330840D01*
X331365Y38714D01*
Y39239D01*
X330840Y39764D01*
X331365Y40288D01*
Y40813D01*
X330840Y39764D02*
X329791D01*
X341075Y9449D02*
Y12598D01*
X339501D01*
X338976Y12073D01*
Y11024D01*
X339501Y10499D01*
X341075D01*
X340025D02*
X338976Y9449D01*
X337926Y12598D02*
X335827D01*
X336877D01*
Y9449D01*
X334778D02*
X333728D01*
X334253D01*
Y12598D01*
X334778Y12073D01*
X316796Y120079D02*
Y123228D01*
X315222D01*
X314698Y122703D01*
Y121653D01*
X315222Y121129D01*
X316796D01*
X315747D02*
X314698Y120079D01*
X313648Y122703D02*
X313123Y123228D01*
X312074D01*
X311549Y122703D01*
Y122178D01*
X312074Y121653D01*
X312598D01*
X312074D01*
X311549Y121129D01*
Y120604D01*
X312074Y120079D01*
X313123D01*
X313648Y120604D01*
X308400Y123228D02*
X310499D01*
Y121653D01*
X309450Y122178D01*
X308925D01*
X308400Y121653D01*
Y120604D01*
X308925Y120079D01*
X309975D01*
X310499Y120604D01*
X292781Y85040D02*
Y88188D01*
X291207D01*
X290682Y87664D01*
Y86614D01*
X291207Y86089D01*
X292781D01*
X291731D02*
X290682Y85040D01*
X289632Y87664D02*
X289107Y88188D01*
X288058D01*
X287533Y87664D01*
Y87139D01*
X288058Y86614D01*
X288583D01*
X288058D01*
X287533Y86089D01*
Y85565D01*
X288058Y85040D01*
X289107D01*
X289632Y85565D01*
X284909Y85040D02*
Y88188D01*
X286484Y86614D01*
X284385D01*
X311678Y79134D02*
Y82283D01*
X310104D01*
X309579Y81758D01*
Y80709D01*
X310104Y80184D01*
X311678D01*
X310629D02*
X309579Y79134D01*
X308530Y81758D02*
X308005Y82283D01*
X306956D01*
X306431Y81758D01*
Y81233D01*
X306956Y80709D01*
X307480D01*
X306956D01*
X306431Y80184D01*
Y79659D01*
X306956Y79134D01*
X308005D01*
X308530Y79659D01*
X305381Y81758D02*
X304856Y82283D01*
X303807D01*
X303282Y81758D01*
Y81233D01*
X303807Y80709D01*
X304332D01*
X303807D01*
X303282Y80184D01*
Y79659D01*
X303807Y79134D01*
X304856D01*
X305381Y79659D01*
X299080Y102756D02*
Y105905D01*
X297506D01*
X296981Y105380D01*
Y104331D01*
X297506Y103806D01*
X299080D01*
X298030D02*
X296981Y102756D01*
X295931Y105380D02*
X295407Y105905D01*
X294357D01*
X293832Y105380D01*
Y104856D01*
X294357Y104331D01*
X294882D01*
X294357D01*
X293832Y103806D01*
Y103281D01*
X294357Y102756D01*
X295407D01*
X295931Y103281D01*
X290684Y102756D02*
X292783D01*
X290684Y104856D01*
Y105380D01*
X291209Y105905D01*
X292258D01*
X292783Y105380D01*
X311418Y28216D02*
X314566D01*
Y29791D01*
X314042Y30316D01*
X312992D01*
X312467Y29791D01*
Y28216D01*
Y29266D02*
X311418Y30316D01*
X314042Y31365D02*
X314566Y31890D01*
Y32939D01*
X314042Y33464D01*
X313517D01*
X312992Y32939D01*
Y32414D01*
Y32939D01*
X312467Y33464D01*
X311943D01*
X311418Y32939D01*
Y31890D01*
X311943Y31365D01*
X311418Y34514D02*
Y35563D01*
Y35038D01*
X314566D01*
X314042Y34514D01*
X305512Y27692D02*
X308661D01*
Y29266D01*
X308136Y29791D01*
X307087D01*
X306562Y29266D01*
Y27692D01*
Y28741D02*
X305512Y29791D01*
X308136Y30840D02*
X308661Y31365D01*
Y32414D01*
X308136Y32939D01*
X307611D01*
X307087Y32414D01*
Y31890D01*
Y32414D01*
X306562Y32939D01*
X306037D01*
X305512Y32414D01*
Y31365D01*
X306037Y30840D01*
X308136Y33989D02*
X308661Y34514D01*
Y35563D01*
X308136Y36088D01*
X306037D01*
X305512Y35563D01*
Y34514D01*
X306037Y33989D01*
X308136D01*
X341339Y73755D02*
X344488D01*
Y75329D01*
X343963Y75854D01*
X342913D01*
X342389Y75329D01*
Y73755D01*
Y74804D02*
X341339Y75854D01*
Y79002D02*
Y76903D01*
X343438Y79002D01*
X343963D01*
X344488Y78478D01*
Y77428D01*
X343963Y76903D01*
X341864Y80052D02*
X341339Y80577D01*
Y81626D01*
X341864Y82151D01*
X343963D01*
X344488Y81626D01*
Y80577D01*
X343963Y80052D01*
X343438D01*
X342913Y80577D01*
Y82151D01*
X318111Y37928D02*
X321259D01*
Y39502D01*
X320735Y40027D01*
X319685D01*
X319160Y39502D01*
Y37928D01*
Y38977D02*
X318111Y40027D01*
Y43176D02*
Y41076D01*
X320210Y43176D01*
X320735D01*
X321259Y42651D01*
Y41601D01*
X320735Y41076D01*
Y44225D02*
X321259Y44750D01*
Y45799D01*
X320735Y46324D01*
X320210D01*
X319685Y45799D01*
X319160Y46324D01*
X318636D01*
X318111Y45799D01*
Y44750D01*
X318636Y44225D01*
X319160D01*
X319685Y44750D01*
X320210Y44225D01*
X320735D01*
X319685Y44750D02*
Y45799D01*
X356954Y118504D02*
Y121653D01*
X355380D01*
X354855Y121128D01*
Y120079D01*
X355380Y119554D01*
X356954D01*
X355905D02*
X354855Y118504D01*
X351706D02*
X353805D01*
X351706Y120604D01*
Y121128D01*
X352231Y121653D01*
X353281D01*
X353805Y121128D01*
X350657Y121653D02*
X348558D01*
Y121128D01*
X350657Y119029D01*
Y118504D01*
X367584D02*
Y121653D01*
X366010D01*
X365485Y121128D01*
Y120079D01*
X366010Y119554D01*
X367584D01*
X366534D02*
X365485Y118504D01*
X362336D02*
X364435D01*
X362336Y120604D01*
Y121128D01*
X362861Y121653D01*
X363911D01*
X364435Y121128D01*
X359188Y121653D02*
X360237Y121128D01*
X361287Y120079D01*
Y119029D01*
X360762Y118504D01*
X359713D01*
X359188Y119029D01*
Y119554D01*
X359713Y120079D01*
X361287D01*
X310630Y10369D02*
X313779D01*
Y11943D01*
X313254Y12468D01*
X312205D01*
X311680Y11943D01*
Y10369D01*
Y11418D02*
X310630Y12468D01*
Y15617D02*
Y13517D01*
X312730Y15617D01*
X313254D01*
X313779Y15092D01*
Y14042D01*
X313254Y13517D01*
X313779Y18765D02*
Y16666D01*
X312205D01*
X312730Y17716D01*
Y18240D01*
X312205Y18765D01*
X311155D01*
X310630Y18240D01*
Y17191D01*
X311155Y16666D01*
X369159Y70079D02*
Y73228D01*
X367584D01*
X367060Y72703D01*
Y71653D01*
X367584Y71129D01*
X369159D01*
X368109D02*
X367060Y70079D01*
X363911D02*
X366010D01*
X363911Y72178D01*
Y72703D01*
X364436Y73228D01*
X365485D01*
X366010Y72703D01*
X361287Y70079D02*
Y73228D01*
X362862Y71653D01*
X360763D01*
X348031Y104198D02*
X344882D01*
Y102624D01*
X345407Y102099D01*
X346457D01*
X346981Y102624D01*
Y104198D01*
Y103149D02*
X348031Y102099D01*
Y98950D02*
Y101049D01*
X345932Y98950D01*
X345407D01*
X344882Y99475D01*
Y100525D01*
X345407Y101049D01*
Y97901D02*
X344882Y97376D01*
Y96327D01*
X345407Y95802D01*
X345932D01*
X346457Y96327D01*
Y96851D01*
Y96327D01*
X346981Y95802D01*
X347506D01*
X348031Y96327D01*
Y97376D01*
X347506Y97901D01*
X287926Y13779D02*
X288976D01*
X288451D01*
Y11155D01*
X288976Y10630D01*
X289501D01*
X290025Y11155D01*
X286877Y13254D02*
X286352Y13779D01*
X285302D01*
X284778Y13254D01*
Y12730D01*
X285302Y12205D01*
X284778Y11680D01*
Y11155D01*
X285302Y10630D01*
X286352D01*
X286877Y11155D01*
Y11680D01*
X286352Y12205D01*
X286877Y12730D01*
Y13254D01*
X286352Y12205D02*
X285302D01*
X311285Y77952D02*
Y74804D01*
X309711D01*
X309186Y75328D01*
Y77428D01*
X309711Y77952D01*
X311285D01*
X308137D02*
X306038D01*
Y77428D01*
X308137Y75328D01*
Y74804D01*
X315223Y55775D02*
X315747Y55250D01*
Y54201D01*
X315223Y53676D01*
X313124D01*
X312599Y54201D01*
Y55250D01*
X313124Y55775D01*
X312599Y58399D02*
X315747D01*
X314173Y56824D01*
Y58924D01*
X315747Y59973D02*
Y62072D01*
X315223D01*
X313124Y59973D01*
X312599D01*
X301049Y55381D02*
X301574Y54856D01*
Y53807D01*
X301049Y53282D01*
X298951D01*
X298426Y53807D01*
Y54856D01*
X298951Y55381D01*
X298426Y58005D02*
X301574D01*
X300000Y56431D01*
Y58530D01*
X301574Y61678D02*
X301049Y60629D01*
X300000Y59579D01*
X298951D01*
X298426Y60104D01*
Y61154D01*
X298951Y61678D01*
X299475D01*
X300000Y61154D01*
Y59579D01*
X308136Y55775D02*
X308661Y55250D01*
Y54201D01*
X308136Y53676D01*
X306037D01*
X305512Y54201D01*
Y55250D01*
X306037Y55775D01*
X305512Y58399D02*
X308661D01*
X307087Y56824D01*
Y58924D01*
X308661Y62072D02*
Y59973D01*
X307087D01*
X307611Y61023D01*
Y61547D01*
X307087Y62072D01*
X306037D01*
X305512Y61547D01*
Y60498D01*
X306037Y59973D01*
X303674Y122703D02*
X304199Y123228D01*
X305248D01*
X305773Y122703D01*
Y120604D01*
X305248Y120079D01*
X304199D01*
X303674Y120604D01*
X301050Y120079D02*
Y123228D01*
X302624Y121653D01*
X300525D01*
X297901Y120079D02*
Y123228D01*
X299476Y121653D01*
X297377D01*
X293831Y122703D02*
X294356Y123228D01*
X295406D01*
X295930Y122703D01*
Y120604D01*
X295406Y120079D01*
X294356D01*
X293831Y120604D01*
X291208Y120079D02*
Y123228D01*
X292782Y121653D01*
X290683D01*
X289633Y122703D02*
X289108Y123228D01*
X288059D01*
X287534Y122703D01*
Y122178D01*
X288059Y121653D01*
X288584D01*
X288059D01*
X287534Y121129D01*
Y120604D01*
X288059Y120079D01*
X289108D01*
X289633Y120604D01*
X297375Y100262D02*
X297899Y100787D01*
X298949D01*
X299474Y100262D01*
Y98163D01*
X298949Y97638D01*
X297899D01*
X297375Y98163D01*
X294751Y97638D02*
Y100787D01*
X296325Y99213D01*
X294226D01*
X291077Y97638D02*
X293177D01*
X291077Y99737D01*
Y100262D01*
X291602Y100787D01*
X292652D01*
X293177Y100262D01*
X301443Y20473D02*
X301968Y19948D01*
Y18899D01*
X301443Y18374D01*
X299344D01*
X298819Y18899D01*
Y19948D01*
X299344Y20473D01*
X298819Y23097D02*
X301968D01*
X300394Y21522D01*
Y23621D01*
X298819Y24671D02*
Y25721D01*
Y25196D01*
X301968D01*
X301443Y24671D01*
X320997Y18372D02*
X321521Y18897D01*
X322571D01*
X323096Y18372D01*
Y16273D01*
X322571Y15748D01*
X321521D01*
X320997Y16273D01*
X318373Y15748D02*
Y18897D01*
X319947Y17323D01*
X317848D01*
X316799Y18372D02*
X316274Y18897D01*
X315224D01*
X314700Y18372D01*
Y16273D01*
X315224Y15748D01*
X316274D01*
X316799Y16273D01*
Y18372D01*
X360498Y86484D02*
X361023Y85959D01*
Y84909D01*
X360498Y84385D01*
X358399D01*
X357874Y84909D01*
Y85959D01*
X358399Y86484D01*
X360498Y87533D02*
X361023Y88058D01*
Y89107D01*
X360498Y89632D01*
X359974D01*
X359449Y89107D01*
Y88583D01*
Y89107D01*
X358924Y89632D01*
X358399D01*
X357874Y89107D01*
Y88058D01*
X358399Y87533D01*
Y90682D02*
X357874Y91207D01*
Y92256D01*
X358399Y92781D01*
X360498D01*
X361023Y92256D01*
Y91207D01*
X360498Y90682D01*
X359974D01*
X359449Y91207D01*
Y92781D01*
X336745Y7349D02*
X337269Y7874D01*
X338319D01*
X338844Y7349D01*
Y5250D01*
X338319Y4725D01*
X337269D01*
X336745Y5250D01*
X335695Y7349D02*
X335170Y7874D01*
X334121D01*
X333596Y7349D01*
Y6824D01*
X334121Y6299D01*
X334646D01*
X334121D01*
X333596Y5774D01*
Y5250D01*
X334121Y4725D01*
X335170D01*
X335695Y5250D01*
X332547Y7349D02*
X332022Y7874D01*
X330972D01*
X330448Y7349D01*
Y6824D01*
X330972Y6299D01*
X330448Y5774D01*
Y5250D01*
X330972Y4725D01*
X332022D01*
X332547Y5250D01*
Y5774D01*
X332022Y6299D01*
X332547Y6824D01*
Y7349D01*
X332022Y6299D02*
X330972D01*
X344619Y121128D02*
X345144Y121653D01*
X346193D01*
X346718Y121128D01*
Y119029D01*
X346193Y118504D01*
X345144D01*
X344619Y119029D01*
X343569Y121128D02*
X343044Y121653D01*
X341995D01*
X341470Y121128D01*
Y120604D01*
X341995Y120079D01*
X342520D01*
X341995D01*
X341470Y119554D01*
Y119029D01*
X341995Y118504D01*
X343044D01*
X343569Y119029D01*
X340421Y121653D02*
X338322D01*
Y121128D01*
X340421Y119029D01*
Y118504D01*
X354068Y72309D02*
X354592Y72834D01*
X355642D01*
X356167Y72309D01*
Y70210D01*
X355642Y69686D01*
X354592D01*
X354068Y70210D01*
X353018Y72309D02*
X352493Y72834D01*
X351444D01*
X350919Y72309D01*
Y71785D01*
X351444Y71260D01*
X351969D01*
X351444D01*
X350919Y70735D01*
Y70210D01*
X351444Y69686D01*
X352493D01*
X353018Y70210D01*
X347770Y72834D02*
X348820Y72309D01*
X349869Y71260D01*
Y70210D01*
X349345Y69686D01*
X348295D01*
X347770Y70210D01*
Y70735D01*
X348295Y71260D01*
X349869D01*
X358136Y95932D02*
X358661Y95408D01*
Y94358D01*
X358136Y93833D01*
X356037D01*
X355512Y94358D01*
Y95408D01*
X356037Y95932D01*
X358136Y96982D02*
X358661Y97507D01*
Y98556D01*
X358136Y99081D01*
X357611D01*
X357087Y98556D01*
Y98032D01*
Y98556D01*
X356562Y99081D01*
X356037D01*
X355512Y98556D01*
Y97507D01*
X356037Y96982D01*
X358661Y102230D02*
Y100131D01*
X357087D01*
X357611Y101180D01*
Y101705D01*
X357087Y102230D01*
X356037D01*
X355512Y101705D01*
Y100655D01*
X356037Y100131D01*
X367060Y99868D02*
X367584Y100393D01*
X368634D01*
X369159Y99868D01*
Y97769D01*
X368634Y97245D01*
X367584D01*
X367060Y97769D01*
X366010Y99868D02*
X365485Y100393D01*
X364436D01*
X363911Y99868D01*
Y99344D01*
X364436Y98819D01*
X364961D01*
X364436D01*
X363911Y98294D01*
Y97769D01*
X364436Y97245D01*
X365485D01*
X366010Y97769D01*
X361287Y97245D02*
Y100393D01*
X362862Y98819D01*
X360763D01*
X371522Y110893D02*
X372047Y110368D01*
Y109319D01*
X371522Y108794D01*
X369423D01*
X368898Y109319D01*
Y110368D01*
X369423Y110893D01*
X371522Y111943D02*
X372047Y112467D01*
Y113517D01*
X371522Y114042D01*
X370997D01*
X370472Y113517D01*
Y112992D01*
Y113517D01*
X369948Y114042D01*
X369423D01*
X368898Y113517D01*
Y112467D01*
X369423Y111943D01*
X371522Y115091D02*
X372047Y115616D01*
Y116665D01*
X371522Y117190D01*
X370997D01*
X370472Y116665D01*
Y116141D01*
Y116665D01*
X369948Y117190D01*
X369423D01*
X368898Y116665D01*
Y115616D01*
X369423Y115091D01*
D21*
X308022Y86614D02*
D03*
M02*
