G04*
G04 #@! TF.GenerationSoftware,Altium Limited,Altium Designer,22.2.1 (43)*
G04*
G04 Layer_Color=8388736*
%FSLAX25Y25*%
%MOIN*%
G70*
G04*
G04 #@! TF.SameCoordinates,65C05967-714E-454F-997F-66751C825CAB*
G04*
G04*
G04 #@! TF.FilePolarity,Negative*
G04*
G01*
G75*
%ADD62R,0.04528X0.02559*%
G04:AMPARAMS|DCode=63|XSize=57.61mil|YSize=32.02mil|CornerRadius=10mil|HoleSize=0mil|Usage=FLASHONLY|Rotation=270.000|XOffset=0mil|YOffset=0mil|HoleType=Round|Shape=RoundedRectangle|*
%AMROUNDEDRECTD63*
21,1,0.05761,0.01201,0,0,270.0*
21,1,0.03760,0.03202,0,0,270.0*
1,1,0.02001,-0.00600,-0.01880*
1,1,0.02001,-0.00600,0.01880*
1,1,0.02001,0.00600,0.01880*
1,1,0.02001,0.00600,-0.01880*
%
%ADD63ROUNDEDRECTD63*%
%ADD64R,0.03900X0.04600*%
%ADD65R,0.08320X0.04895*%
%ADD66R,0.05512X0.03150*%
G04:AMPARAMS|DCode=67|XSize=57.61mil|YSize=32.02mil|CornerRadius=10mil|HoleSize=0mil|Usage=FLASHONLY|Rotation=0.000|XOffset=0mil|YOffset=0mil|HoleType=Round|Shape=RoundedRectangle|*
%AMROUNDEDRECTD67*
21,1,0.05761,0.01201,0,0,0.0*
21,1,0.03760,0.03202,0,0,0.0*
1,1,0.02001,0.01880,-0.00600*
1,1,0.02001,-0.01880,-0.00600*
1,1,0.02001,-0.01880,0.00600*
1,1,0.02001,0.01880,0.00600*
%
%ADD67ROUNDEDRECTD67*%
%ADD68R,0.04600X0.03900*%
%ADD69R,0.04343X0.06706*%
%ADD70R,0.06706X0.04343*%
%ADD71R,0.04343X0.04343*%
%ADD72R,0.04343X0.04343*%
%ADD73R,0.03150X0.05512*%
G04:AMPARAMS|DCode=74|XSize=46mil|YSize=39mil|CornerRadius=0mil|HoleSize=0mil|Usage=FLASHONLY|Rotation=45.000|XOffset=0mil|YOffset=0mil|HoleType=Round|Shape=Rectangle|*
%AMROTATEDRECTD74*
4,1,4,-0.00248,-0.03005,-0.03005,-0.00248,0.00248,0.03005,0.03005,0.00248,-0.00248,-0.03005,0.0*
%
%ADD74ROTATEDRECTD74*%

G04:AMPARAMS|DCode=75|XSize=66.93mil|YSize=53.15mil|CornerRadius=0mil|HoleSize=0mil|Usage=FLASHONLY|Rotation=45.000|XOffset=0mil|YOffset=0mil|HoleType=Round|Shape=Rectangle|*
%AMROTATEDRECTD75*
4,1,4,-0.00487,-0.04245,-0.04245,-0.00487,0.00487,0.04245,0.04245,0.00487,-0.00487,-0.04245,0.0*
%
%ADD75ROTATEDRECTD75*%

%ADD76R,0.01575X0.05118*%
%ADD77R,0.05118X0.01575*%
G04:AMPARAMS|DCode=78|XSize=46mil|YSize=39mil|CornerRadius=0mil|HoleSize=0mil|Usage=FLASHONLY|Rotation=315.000|XOffset=0mil|YOffset=0mil|HoleType=Round|Shape=Rectangle|*
%AMROTATEDRECTD78*
4,1,4,-0.03005,0.00248,-0.00248,0.03005,0.03005,-0.00248,0.00248,-0.03005,-0.03005,0.00248,0.0*
%
%ADD78ROTATEDRECTD78*%

%ADD79R,0.09658X0.02769*%
%ADD80R,0.04331X0.02362*%
%ADD81R,0.02559X0.04528*%
%ADD82R,0.25210X0.16154*%
%ADD83R,0.18123X0.13792*%
%ADD84R,0.12611X0.04737*%
%ADD85R,0.06693X0.06693*%
%ADD86R,0.09300X0.11599*%
%ADD87R,0.01968X0.05709*%
%ADD88R,0.08661X0.06693*%
%ADD89R,0.07874X0.07480*%
%ADD90R,0.07480X0.07874*%
%ADD91R,0.03162X0.06154*%
%ADD92R,0.05918X0.14186*%
%ADD93R,0.04331X0.03543*%
%ADD94R,0.03150X0.06299*%
%ADD95R,0.06378X0.05118*%
%ADD96R,0.05524X0.07099*%
%ADD97R,0.13792X0.07099*%
%ADD98R,0.02769X0.09658*%
%ADD99R,0.16154X0.25210*%
%ADD100R,0.13792X0.18123*%
%ADD101O,0.06299X0.05118*%
%ADD102C,0.04737*%
%ADD103C,0.10642*%
%ADD104C,0.08268*%
%ADD105C,0.08674*%
%ADD106O,0.07887X0.14973*%
%ADD107O,0.16548X0.08674*%
%ADD108O,0.08674X0.16548*%
%ADD109C,0.09068*%
%ADD110C,0.12611*%
%ADD111C,0.00394*%
%ADD112O,0.14973X0.07887*%
D62*
X201969Y274410D02*
D03*
X190945D02*
D03*
X235039Y274803D02*
D03*
X246063D02*
D03*
D63*
X231201Y261004D02*
D03*
X238681D02*
D03*
X234941Y268721D02*
D03*
X215158Y267008D02*
D03*
X222638D02*
D03*
X218898Y274724D02*
D03*
D64*
X204528Y266929D02*
D03*
Y260529D02*
D03*
X209842Y266980D02*
D03*
Y260579D02*
D03*
X217323Y185090D02*
D03*
Y178690D02*
D03*
X195669Y189320D02*
D03*
Y195720D02*
D03*
X189764Y195720D02*
D03*
Y189320D02*
D03*
X153150Y203987D02*
D03*
Y197587D02*
D03*
X204331Y125542D02*
D03*
Y119142D02*
D03*
X198819Y125641D02*
D03*
Y119241D02*
D03*
X193307Y125641D02*
D03*
Y119241D02*
D03*
X187795Y125641D02*
D03*
Y119241D02*
D03*
X177913Y74595D02*
D03*
Y80995D02*
D03*
X177854Y93357D02*
D03*
Y86958D02*
D03*
X54331Y10580D02*
D03*
Y16980D02*
D03*
X209842Y119241D02*
D03*
Y125641D02*
D03*
X20571Y20621D02*
D03*
Y14221D02*
D03*
X47835Y13532D02*
D03*
Y19932D02*
D03*
X90551Y27115D02*
D03*
Y33515D02*
D03*
X83071Y161662D02*
D03*
Y168062D02*
D03*
D65*
X221350Y202244D02*
D03*
Y212244D02*
D03*
Y222244D02*
D03*
Y232244D02*
D03*
Y242244D02*
D03*
D66*
X48425Y144291D02*
D03*
Y136811D02*
D03*
X236221Y177362D02*
D03*
Y184843D02*
D03*
X250000Y177362D02*
D03*
Y184843D02*
D03*
X242913Y177362D02*
D03*
Y184843D02*
D03*
X147244Y204134D02*
D03*
Y196653D02*
D03*
X185827Y112008D02*
D03*
Y104528D02*
D03*
X177559Y112008D02*
D03*
Y104528D02*
D03*
X89370Y161614D02*
D03*
Y169095D02*
D03*
X206299Y46260D02*
D03*
Y38780D02*
D03*
D67*
X56102Y113484D02*
D03*
Y120965D02*
D03*
X48386Y117224D02*
D03*
X37126Y13780D02*
D03*
Y21260D02*
D03*
X29409Y17520D02*
D03*
X327291Y22063D02*
D03*
Y29543D02*
D03*
X319575Y25803D02*
D03*
D68*
X66682Y113484D02*
D03*
X73082D02*
D03*
X172098Y146161D02*
D03*
X165698D02*
D03*
X230267Y145177D02*
D03*
X223867D02*
D03*
X230267Y150394D02*
D03*
X223867D02*
D03*
X234696Y155905D02*
D03*
X228296D02*
D03*
X172098Y140650D02*
D03*
X165698D02*
D03*
X225247Y253839D02*
D03*
X218847D02*
D03*
X225444Y259350D02*
D03*
X219044D02*
D03*
X234696Y163779D02*
D03*
X228296D02*
D03*
X234696Y169291D02*
D03*
X228296D02*
D03*
X326428Y16535D02*
D03*
X320028D02*
D03*
X319900Y41900D02*
D03*
X326300D02*
D03*
X118161Y149606D02*
D03*
X111761D02*
D03*
X8611Y21654D02*
D03*
X15011D02*
D03*
D69*
X10315Y30138D02*
D03*
X15315D02*
D03*
X20315D02*
D03*
X25315D02*
D03*
X30315D02*
D03*
X35315D02*
D03*
X40315D02*
D03*
X45315D02*
D03*
X50315D02*
D03*
X55315D02*
D03*
X60315D02*
D03*
X65315D02*
D03*
X70315D02*
D03*
X75315D02*
D03*
X10315Y98996D02*
D03*
X15315Y98996D02*
D03*
X20315D02*
D03*
X25315D02*
D03*
X30315D02*
D03*
X35315D02*
D03*
X40315D02*
D03*
X45315D02*
D03*
X50315D02*
D03*
X55315D02*
D03*
X60315D02*
D03*
X65315D02*
D03*
X70315D02*
D03*
X75315D02*
D03*
D70*
X80236Y42067D02*
D03*
D03*
Y47067D02*
D03*
Y52067D02*
D03*
Y57067D02*
D03*
Y62067D02*
D03*
Y67067D02*
D03*
Y72067D02*
D03*
Y77067D02*
D03*
Y82067D02*
D03*
X80315Y87067D02*
D03*
D71*
X33815Y61874D02*
D03*
X33772Y67449D02*
D03*
X39390Y61917D02*
D03*
X39346Y67492D02*
D03*
X44965Y61961D02*
D03*
X44921Y67535D02*
D03*
X33858Y56299D02*
D03*
D72*
X39433Y56343D02*
D03*
X45008Y56386D02*
D03*
D73*
X7677Y7087D02*
D03*
X15157D02*
D03*
X7677Y14961D02*
D03*
X15157D02*
D03*
X200984Y74410D02*
D03*
X208465D02*
D03*
X200984Y81890D02*
D03*
X208465D02*
D03*
X178746Y195669D02*
D03*
X171266D02*
D03*
X178543Y188583D02*
D03*
X171063D02*
D03*
X160433Y104331D02*
D03*
X167913D02*
D03*
X160433Y111024D02*
D03*
X167913D02*
D03*
X326780Y35800D02*
D03*
X319300D02*
D03*
D74*
X158662Y171359D02*
D03*
X163188Y175885D02*
D03*
D75*
X173862Y165867D02*
D03*
X163562Y155567D02*
D03*
X167737Y171992D02*
D03*
X157437Y161692D02*
D03*
D76*
X193504Y146260D02*
D03*
X191535D02*
D03*
X189567D02*
D03*
Y179724D02*
D03*
X191535D02*
D03*
X193504D02*
D03*
X195473D02*
D03*
X197441D02*
D03*
X199409D02*
D03*
X201378D02*
D03*
X203346D02*
D03*
X211221D02*
D03*
X209252Y146260D02*
D03*
X205315D02*
D03*
X203346D02*
D03*
X201378D02*
D03*
X199409D02*
D03*
X197441D02*
D03*
X195473D02*
D03*
X211221D02*
D03*
X207283D02*
D03*
X205315Y179724D02*
D03*
X207283D02*
D03*
X209252D02*
D03*
D77*
X217126Y171850D02*
D03*
Y169882D02*
D03*
Y167913D02*
D03*
Y165945D02*
D03*
Y163976D02*
D03*
Y162008D02*
D03*
Y160039D02*
D03*
Y158071D02*
D03*
Y156102D02*
D03*
Y154134D02*
D03*
Y152165D02*
D03*
Y173819D02*
D03*
X183661D02*
D03*
D03*
Y152165D02*
D03*
Y154134D02*
D03*
Y156102D02*
D03*
Y158071D02*
D03*
Y160039D02*
D03*
Y162008D02*
D03*
Y163976D02*
D03*
Y165945D02*
D03*
Y167913D02*
D03*
Y169882D02*
D03*
Y171850D02*
D03*
D78*
X153348Y156101D02*
D03*
X157873Y151576D02*
D03*
D79*
X149508Y96870D02*
D03*
Y91870D02*
D03*
Y86870D02*
D03*
Y81870D02*
D03*
X167815D02*
D03*
Y86870D02*
D03*
Y91870D02*
D03*
Y96870D02*
D03*
X125295Y156673D02*
D03*
Y161673D02*
D03*
Y166673D02*
D03*
Y171673D02*
D03*
X106988D02*
D03*
Y166673D02*
D03*
Y161673D02*
D03*
Y156673D02*
D03*
D80*
X140157Y92323D02*
D03*
Y96653D02*
D03*
D81*
X133465Y98032D02*
D03*
Y87008D02*
D03*
X69685Y223622D02*
D03*
Y212598D02*
D03*
X198425Y35039D02*
D03*
Y46063D02*
D03*
D82*
X27657Y229331D02*
D03*
Y178543D02*
D03*
D83*
X62894Y201378D02*
D03*
D84*
X106299Y188976D02*
D03*
X125984D02*
D03*
D85*
X83858Y231496D02*
D03*
X69685D02*
D03*
D86*
X100433Y137008D02*
D03*
X83031D02*
D03*
D87*
X191634Y22047D02*
D03*
X189075D02*
D03*
X186516D02*
D03*
X183957D02*
D03*
X181398D02*
D03*
D88*
X174311Y21555D02*
D03*
X198721D02*
D03*
D89*
X171555Y10827D02*
D03*
D90*
X201870D02*
D03*
D91*
X187795Y31693D02*
D03*
X191535D02*
D03*
X184055D02*
D03*
Y40945D02*
D03*
X187795D02*
D03*
X191535D02*
D03*
D92*
X112008Y137008D02*
D03*
X119488D02*
D03*
D93*
X61396Y6470D02*
D03*
X90158Y6496D02*
D03*
X61417Y14370D02*
D03*
X90158D02*
D03*
D94*
X84646Y17323D02*
D03*
X78740D02*
D03*
X66929D02*
D03*
D95*
X96969Y231516D02*
D03*
Y211004D02*
D03*
X132953Y231516D02*
D03*
Y211004D02*
D03*
D96*
X160630Y203937D02*
D03*
X178740D02*
D03*
D03*
X169685D02*
D03*
D03*
D97*
Y229134D02*
D03*
D98*
X208681Y109941D02*
D03*
X203681D02*
D03*
X198681D02*
D03*
X193681D02*
D03*
Y91634D02*
D03*
X198681D02*
D03*
X203681D02*
D03*
X208681D02*
D03*
D99*
X104921Y31201D02*
D03*
X155709D02*
D03*
D100*
X132874Y66437D02*
D03*
D101*
X289968Y50409D02*
D03*
Y44504D02*
D03*
Y38598D02*
D03*
Y32693D02*
D03*
Y26787D02*
D03*
Y20882D02*
D03*
X259842Y155118D02*
D03*
Y161024D02*
D03*
Y166929D02*
D03*
Y172835D02*
D03*
Y178740D02*
D03*
Y184646D02*
D03*
D102*
X317528Y74622D02*
D03*
X331701D02*
D03*
X331693Y60457D02*
D03*
D103*
X235039Y284646D02*
D03*
Y324016D02*
D03*
Y351575D02*
D03*
X262598Y284646D02*
D03*
Y343701D02*
D03*
X191732Y284252D02*
D03*
Y323622D02*
D03*
Y351181D02*
D03*
X219291Y284252D02*
D03*
Y343307D02*
D03*
D104*
X108661Y107480D02*
D03*
Y87795D02*
D03*
X44488Y371654D02*
D03*
X162598D02*
D03*
X15354Y313779D02*
D03*
X35039D02*
D03*
X15354Y267717D02*
D03*
X35039D02*
D03*
X154724Y334252D02*
D03*
X75984D02*
D03*
X135039Y255512D02*
D03*
X95669D02*
D03*
D105*
X23228Y136614D02*
D03*
Y116929D02*
D03*
D106*
X55216Y208268D02*
D03*
D107*
X43012Y185039D02*
D03*
X130315Y33957D02*
D03*
D108*
X30413Y203937D02*
D03*
X149213Y46555D02*
D03*
D109*
X12697Y203937D02*
D03*
X130315Y16240D02*
D03*
D110*
X260787Y372047D02*
D03*
X240787D02*
D03*
X210787Y372047D02*
D03*
X190787D02*
D03*
X21654Y371811D02*
D03*
Y351811D02*
D03*
D111*
X81693Y10433D02*
D03*
X69882D02*
D03*
D112*
X125984Y58760D02*
D03*
M02*
