G04*
G04 #@! TF.GenerationSoftware,Altium Limited,Altium Designer,22.2.1 (43)*
G04*
G04 Layer_Color=2752767*
%FSLAX25Y25*%
%MOIN*%
G70*
G04*
G04 #@! TF.SameCoordinates,65C05967-714E-454F-997F-66751C825CAB*
G04*
G04*
G04 #@! TF.FilePolarity,Positive*
G04*
G01*
G75*
%ADD14C,0.00394*%
%ADD182C,0.00200*%
D14*
X-12Y0D02*
X394D01*
X-12D02*
Y393701D01*
X394D01*
X278346Y125197D02*
Y393701D01*
X394Y0D02*
X372835D01*
X278346Y125197D02*
X372835D01*
Y0D02*
Y125197D01*
X394Y393701D02*
X278346D01*
D182*
X314700Y81200D02*
X315100Y82000D01*
X314700Y82800D01*
X315500Y82400D01*
X316300Y82800D01*
X315900Y82000D01*
X316300Y81200D01*
X315500Y81600D01*
X314700Y81200D01*
X315100Y81600D02*
X315300Y82000D01*
X315100Y82400D01*
X315500Y82200D01*
X315900Y82400D01*
X315700Y82000D01*
X315900Y81600D01*
X315500Y81800D01*
X315100Y81600D01*
X347800Y72300D02*
X348200Y73100D01*
X347800Y73900D01*
X348600Y73500D01*
X349400Y73900D01*
X349000Y73100D01*
X349400Y72300D01*
X348600Y72700D01*
X347800Y72300D01*
X348200Y72700D02*
X348400Y73100D01*
X348200Y73500D01*
X348600Y73300D01*
X349000Y73500D01*
X348800Y73100D01*
X349000Y72700D01*
X348600Y72900D01*
X348200Y72700D01*
X146346Y169377D02*
X146746Y170177D01*
X146346Y170977D01*
X147146Y170577D01*
X147946Y170977D01*
X147546Y170177D01*
X147946Y169377D01*
X147146Y169777D01*
X146346Y169377D01*
X146746Y169777D02*
X146946Y170177D01*
X146746Y170577D01*
X147146Y170377D01*
X147546Y170577D01*
X147346Y170177D01*
X147546Y169777D01*
X147146Y169977D01*
X146746Y169777D01*
X239259Y155401D02*
X239659Y156201D01*
X239259Y157001D01*
X240059Y156601D01*
X240859Y157001D01*
X240459Y156201D01*
X240859Y155401D01*
X240059Y155801D01*
X239259Y155401D01*
X239659Y155801D02*
X239859Y156201D01*
X239659Y156601D01*
X240059Y156401D01*
X240459Y156601D01*
X240259Y156201D01*
X240459Y155801D01*
X240059Y156001D01*
X239659Y155801D01*
X52842Y22231D02*
X53242Y23031D01*
X52842Y23832D01*
X53642Y23431D01*
X54442Y23832D01*
X54042Y23031D01*
X54442Y22231D01*
X53642Y22632D01*
X52842Y22231D01*
X53242Y22632D02*
X53442Y23031D01*
X53242Y23431D01*
X53642Y23232D01*
X54042Y23431D01*
X53842Y23031D01*
X54042Y22632D01*
X53642Y22831D01*
X53242Y22632D01*
X190932Y350381D02*
X191332Y351181D01*
X190932Y351981D01*
X191732Y351581D01*
X192532Y351981D01*
X192132Y351181D01*
X192532Y350381D01*
X191732Y350781D01*
X190932Y350381D01*
X191332Y350781D02*
X191532Y351181D01*
X191332Y351581D01*
X191732Y351381D01*
X192132Y351581D01*
X191932Y351181D01*
X192132Y350781D01*
X191732Y350981D01*
X191332Y350781D01*
M02*
