G04*
G04 #@! TF.GenerationSoftware,Altium Limited,Altium Designer,22.2.1 (43)*
G04*
G04 Layer_Color=2752767*
%FSLAX25Y25*%
%MOIN*%
G70*
G04*
G04 #@! TF.SameCoordinates,65C05967-714E-454F-997F-66751C825CAB*
G04*
G04*
G04 #@! TF.FilePolarity,Positive*
G04*
G01*
G75*
%ADD14C,0.00394*%
%ADD182C,0.00200*%
%ADD183C,0.00267*%
%ADD184C,0.00133*%
D14*
X-12Y0D02*
X394D01*
X-12D02*
Y393701D01*
X394D01*
X278346Y125197D02*
Y393701D01*
X394Y0D02*
X372835D01*
X278346Y125197D02*
X372835D01*
Y0D02*
Y125197D01*
X394Y393701D02*
X278346D01*
D182*
X289169Y49609D02*
Y51209D01*
X290769D01*
Y49609D01*
X289169D01*
Y43704D02*
Y45304D01*
X290769D01*
Y43704D01*
X289169D01*
Y37798D02*
Y39398D01*
X290769D01*
Y37798D01*
X289169D01*
Y31893D02*
Y33493D01*
X290769D01*
Y31893D01*
X289169D01*
Y25987D02*
Y27587D01*
X290769D01*
Y25987D01*
X289169D01*
Y20082D02*
Y21682D01*
X290769D01*
Y20082D01*
X289169D01*
X235039Y283846D02*
X234239Y285446D01*
X235839D01*
X235039Y283846D01*
Y323216D02*
X234239Y324816D01*
X235839D01*
X235039Y323216D01*
Y350775D02*
X234239Y352375D01*
X235839D01*
X235039Y350775D01*
X262598Y283846D02*
X261798Y285446D01*
X263398D01*
X262598Y283846D01*
Y342901D02*
X261798Y344501D01*
X263398D01*
X262598Y342901D01*
X108661Y106680D02*
X109061Y107080D01*
X109461D01*
X109061Y107480D01*
X109461Y107880D01*
X109061D01*
X108661Y108280D01*
X108261Y107880D01*
X107861D01*
X108261Y107480D01*
X107861Y107080D01*
X108261D01*
X108661Y106680D01*
Y86995D02*
X109061Y87395D01*
X109461D01*
X109061Y87795D01*
X109461Y88195D01*
X109061D01*
X108661Y88595D01*
X108261Y88195D01*
X107861D01*
X108261Y87795D01*
X107861Y87395D01*
X108261D01*
X108661Y86995D01*
X22428Y135814D02*
X22828Y136614D01*
X22428Y137414D01*
X23228Y137014D01*
X24028Y137414D01*
X23628Y136614D01*
X24028Y135814D01*
X23228Y136214D01*
X22428Y135814D01*
Y116129D02*
X22828Y116929D01*
X22428Y117729D01*
X23228Y117329D01*
X24028Y117729D01*
X23628Y116929D01*
X24028Y116129D01*
X23228Y116529D01*
X22428Y116129D01*
X259043Y154318D02*
Y155918D01*
X260643D01*
Y154318D01*
X259043D01*
Y160224D02*
Y161824D01*
X260643D01*
Y160224D01*
X259043D01*
Y166129D02*
Y167729D01*
X260643D01*
Y166129D01*
X259043D01*
Y172035D02*
Y173635D01*
X260643D01*
Y172035D01*
X259043D01*
Y177940D02*
Y179540D01*
X260643D01*
Y177940D01*
X259043D01*
Y183846D02*
Y185446D01*
X260643D01*
Y183846D01*
X259043D01*
X54817Y207868D02*
Y207468D01*
X55616D01*
Y207868D01*
X56016D01*
Y208668D01*
X55616D01*
Y209068D01*
X54817D01*
Y208668D01*
X54417D01*
Y207868D01*
X54817D01*
X42212Y184239D02*
X42612D01*
X43012Y184639D01*
X43412Y184239D01*
X43812D01*
Y184639D01*
X43412Y185039D01*
X43812Y185439D01*
Y185839D01*
X43412D01*
X43012Y185439D01*
X42612Y185839D01*
X42212D01*
Y185439D01*
X42612Y185039D01*
X42212Y184639D01*
Y184239D01*
X29613Y203937D02*
X30413Y204737D01*
X31213Y203937D01*
X30413Y203137D01*
X29613Y203937D01*
X11897Y203137D02*
Y204737D01*
X13497D01*
Y203137D01*
X11897D01*
X12297Y203537D02*
Y204337D01*
X13097D01*
Y203537D01*
X12297D01*
X191732Y283452D02*
X190932Y285052D01*
X192532D01*
X191732Y283452D01*
Y322822D02*
X190932Y324422D01*
X192532D01*
X191732Y322822D01*
Y350381D02*
X190932Y351981D01*
X192532D01*
X191732Y350381D01*
X219291Y283452D02*
X218491Y285052D01*
X220091D01*
X219291Y283452D01*
Y342507D02*
X218491Y344107D01*
X220091D01*
X219291Y342507D01*
X44488Y370853D02*
X43688Y372453D01*
X45288D01*
X44488Y370853D01*
Y371253D02*
X44088Y372054D01*
X44888D01*
X44488Y371253D01*
X162598Y370853D02*
X161798Y372453D01*
X163398D01*
X162598Y370853D01*
Y371253D02*
X162198Y372054D01*
X162998D01*
X162598Y371253D01*
X15354Y312980D02*
X15754Y313380D01*
X16154D01*
X15754Y313779D01*
X16154Y314179D01*
X15754D01*
X15354Y314580D01*
X14954Y314179D01*
X14554D01*
X14954Y313779D01*
X14554Y313380D01*
X14954D01*
X15354Y312980D01*
X35039D02*
X35439Y313380D01*
X35839D01*
X35439Y313779D01*
X35839Y314179D01*
X35439D01*
X35039Y314580D01*
X34639Y314179D01*
X34239D01*
X34639Y313779D01*
X34239Y313380D01*
X34639D01*
X35039Y312980D01*
X15354Y266916D02*
X15754Y267317D01*
X16154D01*
X15754Y267717D01*
X16154Y268116D01*
X15754D01*
X15354Y268516D01*
X14954Y268116D01*
X14554D01*
X14954Y267717D01*
X14554Y267317D01*
X14954D01*
X15354Y266916D01*
X35039D02*
X35439Y267317D01*
X35839D01*
X35439Y267717D01*
X35839Y268116D01*
X35439D01*
X35039Y268516D01*
X34639Y268116D01*
X34239D01*
X34639Y267717D01*
X34239Y267317D01*
X34639D01*
X35039Y266916D01*
X154724Y333452D02*
X155124Y333852D01*
X155524D01*
X155124Y334252D01*
X155524Y334652D01*
X155124D01*
X154724Y335052D01*
X154324Y334652D01*
X153924D01*
X154324Y334252D01*
X153924Y333852D01*
X154324D01*
X154724Y333452D01*
X75984D02*
X76384Y333852D01*
X76784D01*
X76384Y334252D01*
X76784Y334652D01*
X76384D01*
X75984Y335052D01*
X75584Y334652D01*
X75184D01*
X75584Y334252D01*
X75184Y333852D01*
X75584D01*
X75984Y333452D01*
X135039Y254712D02*
X135439Y255112D01*
X135839D01*
X135439Y255512D01*
X135839Y255912D01*
X135439D01*
X135039Y256312D01*
X134639Y255912D01*
X134239D01*
X134639Y255512D01*
X134239Y255112D01*
X134639D01*
X135039Y254712D01*
X95669D02*
X96069Y255112D01*
X96469D01*
X96069Y255512D01*
X96469Y255912D01*
X96069D01*
X95669Y256312D01*
X95269Y255912D01*
X94869D01*
X95269Y255512D01*
X94869Y255112D01*
X95269D01*
X95669Y254712D01*
X81693Y9633D02*
X82093Y10033D01*
X82493D01*
X82093Y10433D01*
X82493Y10833D01*
X82093D01*
X81693Y11233D01*
X81293Y10833D01*
X80893D01*
X81293Y10433D01*
X80893Y10033D01*
X81293D01*
X81693Y9633D01*
Y10033D02*
X81893Y10233D01*
X82093D01*
X81893Y10433D01*
X82093Y10633D01*
X81893D01*
X81693Y10833D01*
X81493Y10633D01*
X81293D01*
X81493Y10433D01*
X81293Y10233D01*
X81493D01*
X81693Y10033D01*
X69882Y9633D02*
X70282Y10033D01*
X70682D01*
X70282Y10433D01*
X70682Y10833D01*
X70282D01*
X69882Y11233D01*
X69482Y10833D01*
X69082D01*
X69482Y10433D01*
X69082Y10033D01*
X69482D01*
X69882Y9633D01*
Y10033D02*
X70082Y10233D01*
X70282D01*
X70082Y10433D01*
X70282Y10633D01*
X70082D01*
X69882Y10833D01*
X69682Y10633D01*
X69482D01*
X69682Y10433D01*
X69482Y10233D01*
X69682D01*
X69882Y10033D01*
X125584Y58360D02*
Y57960D01*
X126384D01*
Y58360D01*
X126784D01*
Y59160D01*
X126384D01*
Y59560D01*
X125584D01*
Y59160D01*
X125184D01*
Y58360D01*
X125584D01*
X148413Y45755D02*
X148813D01*
X149213Y46155D01*
X149613Y45755D01*
X150013D01*
Y46155D01*
X149613Y46555D01*
X150013Y46955D01*
Y47355D01*
X149613D01*
X149213Y46955D01*
X148813Y47355D01*
X148413D01*
Y46955D01*
X148813Y46555D01*
X148413Y46155D01*
Y45755D01*
X129515Y33957D02*
X130315Y34757D01*
X131115Y33957D01*
X130315Y33157D01*
X129515Y33957D01*
Y15440D02*
Y17040D01*
X131115D01*
Y15440D01*
X129515D01*
X129915Y15840D02*
Y16640D01*
X130715D01*
Y15840D01*
X129915D01*
X56287Y135814D02*
X56687Y136614D01*
X56287Y137414D01*
X57087Y137014D01*
X57887Y137414D01*
X57487Y136614D01*
X57887Y135814D01*
X57087Y136214D01*
X56287Y135814D01*
X56687Y136214D02*
X56887Y136614D01*
X56687Y137014D01*
X57087Y136814D01*
X57487Y137014D01*
X57287Y136614D01*
X57487Y136214D01*
X57087Y136414D01*
X56687Y136214D01*
X331484Y18491D02*
X331884Y19291D01*
X331484Y20091D01*
X332283Y19691D01*
X333084Y20091D01*
X332683Y19291D01*
X333084Y18491D01*
X332283Y18891D01*
X331484Y18491D01*
X331884Y18891D02*
X332084Y19291D01*
X331884Y19691D01*
X332283Y19491D01*
X332683Y19691D01*
X332484Y19291D01*
X332683Y18891D01*
X332283Y19091D01*
X331884Y18891D01*
X337389Y14161D02*
X337789Y14961D01*
X337389Y15761D01*
X338189Y15361D01*
X338989Y15761D01*
X338589Y14961D01*
X338989Y14161D01*
X338189Y14561D01*
X337389Y14161D01*
X337789Y14561D02*
X337989Y14961D01*
X337789Y15361D01*
X338189Y15161D01*
X338589Y15361D01*
X338389Y14961D01*
X338589Y14561D01*
X338189Y14761D01*
X337789Y14561D01*
X336208Y35027D02*
X336608Y35827D01*
X336208Y36627D01*
X337008Y36227D01*
X337808Y36627D01*
X337408Y35827D01*
X337808Y35027D01*
X337008Y35427D01*
X336208Y35027D01*
X336608Y35427D02*
X336808Y35827D01*
X336608Y36227D01*
X337008Y36027D01*
X337408Y36227D01*
X337208Y35827D01*
X337408Y35427D01*
X337008Y35627D01*
X336608Y35427D01*
X330302Y43688D02*
X330702Y44488D01*
X330302Y45288D01*
X331102Y44888D01*
X331902Y45288D01*
X331502Y44488D01*
X331902Y43688D01*
X331102Y44088D01*
X330302Y43688D01*
X330702Y44088D02*
X330902Y44488D01*
X330702Y44888D01*
X331102Y44688D01*
X331502Y44888D01*
X331302Y44488D01*
X331502Y44088D01*
X331102Y44288D01*
X330702Y44088D01*
X322428Y49594D02*
X322828Y50394D01*
X322428Y51194D01*
X323228Y50794D01*
X324028Y51194D01*
X323628Y50394D01*
X324028Y49594D01*
X323228Y49994D01*
X322428Y49594D01*
X322828Y49994D02*
X323028Y50394D01*
X322828Y50794D01*
X323228Y50594D01*
X323628Y50794D01*
X323428Y50394D01*
X323628Y49994D01*
X323228Y50194D01*
X322828Y49994D01*
X330302Y5499D02*
X330702Y6299D01*
X330302Y7099D01*
X331102Y6699D01*
X331902Y7099D01*
X331502Y6299D01*
X331902Y5499D01*
X331102Y5899D01*
X330302Y5499D01*
X330702Y5899D02*
X330902Y6299D01*
X330702Y6699D01*
X331102Y6499D01*
X331502Y6699D01*
X331302Y6299D01*
X331502Y5899D01*
X331102Y6099D01*
X330702Y5899D01*
X284732Y87783D02*
X285132Y88583D01*
X284732Y89383D01*
X285531Y88983D01*
X286332Y89383D01*
X285931Y88583D01*
X286332Y87783D01*
X285531Y88183D01*
X284732Y87783D01*
X285132Y88183D02*
X285332Y88583D01*
X285132Y88983D01*
X285531Y88783D01*
X285931Y88983D01*
X285732Y88583D01*
X285931Y88183D01*
X285531Y88383D01*
X285132Y88183D01*
X341720Y119279D02*
X342120Y120079D01*
X341720Y120879D01*
X342520Y120479D01*
X343320Y120879D01*
X342920Y120079D01*
X343320Y119279D01*
X342520Y119679D01*
X341720Y119279D01*
X342120Y119679D02*
X342320Y120079D01*
X342120Y120479D01*
X342520Y120279D01*
X342920Y120479D01*
X342720Y120079D01*
X342920Y119679D01*
X342520Y119879D01*
X342120Y119679D01*
X359436Y119279D02*
X359836Y120079D01*
X359436Y120879D01*
X360236Y120479D01*
X361036Y120879D01*
X360636Y120079D01*
X361036Y119279D01*
X360236Y119679D01*
X359436Y119279D01*
X359836Y119679D02*
X360036Y120079D01*
X359836Y120479D01*
X360236Y120279D01*
X360636Y120479D01*
X360436Y120079D01*
X360636Y119679D01*
X360236Y119879D01*
X359836Y119679D01*
X329909Y97625D02*
X330309Y98425D01*
X329909Y99225D01*
X330709Y98825D01*
X331509Y99225D01*
X331109Y98425D01*
X331509Y97625D01*
X330709Y98025D01*
X329909Y97625D01*
X330309Y98025D02*
X330509Y98425D01*
X330309Y98825D01*
X330709Y98625D01*
X331109Y98825D01*
X330909Y98425D01*
X331109Y98025D01*
X330709Y98225D01*
X330309Y98025D01*
X310224Y5105D02*
X310624Y5906D01*
X310224Y6706D01*
X311024Y6306D01*
X311824Y6706D01*
X311424Y5906D01*
X311824Y5105D01*
X311024Y5505D01*
X310224Y5105D01*
X310624Y5505D02*
X310824Y5906D01*
X310624Y6306D01*
X311024Y6106D01*
X311424Y6306D01*
X311224Y5906D01*
X311424Y5505D01*
X311024Y5706D01*
X310624Y5505D01*
X300283Y22231D02*
X300683Y23031D01*
X300283Y23832D01*
X301083Y23431D01*
X301883Y23832D01*
X301483Y23031D01*
X301883Y22231D01*
X301083Y22632D01*
X300283Y22231D01*
X300683Y22632D02*
X300883Y23031D01*
X300683Y23431D01*
X301083Y23232D01*
X301483Y23431D01*
X301283Y23031D01*
X301483Y22632D01*
X301083Y22831D01*
X300683Y22632D01*
X294476Y60224D02*
X294876Y61024D01*
X294476Y61824D01*
X295276Y61424D01*
X296076Y61824D01*
X295676Y61024D01*
X296076Y60224D01*
X295276Y60624D01*
X294476Y60224D01*
X294876Y60624D02*
X295076Y61024D01*
X294876Y61424D01*
X295276Y61224D01*
X295676Y61424D01*
X295476Y61024D01*
X295676Y60624D01*
X295276Y60824D01*
X294876Y60624D01*
X316129Y64161D02*
X316529Y64961D01*
X316129Y65761D01*
X316929Y65361D01*
X317729Y65761D01*
X317329Y64961D01*
X317729Y64161D01*
X316929Y64561D01*
X316129Y64161D01*
X316529Y64561D02*
X316729Y64961D01*
X316529Y65361D01*
X316929Y65161D01*
X317329Y65361D01*
X317129Y64961D01*
X317329Y64561D01*
X316929Y64761D01*
X316529Y64561D01*
X329909Y113373D02*
X330309Y114173D01*
X329909Y114973D01*
X330709Y114573D01*
X331509Y114973D01*
X331109Y114173D01*
X331509Y113373D01*
X330709Y113773D01*
X329909Y113373D01*
X330309Y113773D02*
X330509Y114173D01*
X330309Y114573D01*
X330709Y114373D01*
X331109Y114573D01*
X330909Y114173D01*
X331109Y113773D01*
X330709Y113973D01*
X330309Y113773D01*
X298413Y75972D02*
X298813Y76772D01*
X298413Y77572D01*
X299213Y77172D01*
X300013Y77572D01*
X299613Y76772D01*
X300013Y75972D01*
X299213Y76372D01*
X298413Y75972D01*
X298813Y76372D02*
X299013Y76772D01*
X298813Y77172D01*
X299213Y76972D01*
X299613Y77172D01*
X299413Y76772D01*
X299613Y76372D01*
X299213Y76572D01*
X298813Y76372D01*
X284133Y74503D02*
X284533Y75303D01*
X284133Y76103D01*
X284933Y75703D01*
X285733Y76103D01*
X285333Y75303D01*
X285733Y74503D01*
X284933Y74903D01*
X284133Y74503D01*
X284533Y74903D02*
X284733Y75303D01*
X284533Y75703D01*
X284933Y75503D01*
X285333Y75703D01*
X285133Y75303D01*
X285333Y74903D01*
X284933Y75103D01*
X284533Y74903D01*
X285869Y103650D02*
X286269Y104450D01*
X285869Y105250D01*
X286669Y104850D01*
X287469Y105250D01*
X287069Y104450D01*
X287469Y103650D01*
X286669Y104050D01*
X285869Y103650D01*
X286269Y104050D02*
X286469Y104450D01*
X286269Y104850D01*
X286669Y104650D01*
X287069Y104850D01*
X286869Y104450D01*
X287069Y104050D01*
X286669Y104250D01*
X286269Y104050D01*
X286482Y114106D02*
X286882Y114906D01*
X286482Y115706D01*
X287282Y115306D01*
X288082Y115706D01*
X287682Y114906D01*
X288082Y114106D01*
X287282Y114506D01*
X286482Y114106D01*
X286882Y114506D02*
X287082Y114906D01*
X286882Y115306D01*
X287282Y115106D01*
X287682Y115306D01*
X287482Y114906D01*
X287682Y114506D01*
X287282Y114706D01*
X286882Y114506D01*
X359436Y87783D02*
X359836Y88583D01*
X359436Y89383D01*
X360236Y88983D01*
X361036Y89383D01*
X360636Y88583D01*
X361036Y87783D01*
X360236Y88183D01*
X359436Y87783D01*
X359836Y88183D02*
X360036Y88583D01*
X359836Y88983D01*
X360236Y88783D01*
X360636Y88983D01*
X360436Y88583D01*
X360636Y88183D01*
X360236Y88383D01*
X359836Y88183D01*
X361405Y68098D02*
X361805Y68898D01*
X361405Y69698D01*
X362205Y69298D01*
X363005Y69698D01*
X362605Y68898D01*
X363005Y68098D01*
X362205Y68498D01*
X361405Y68098D01*
X361805Y68498D02*
X362005Y68898D01*
X361805Y69298D01*
X362205Y69098D01*
X362605Y69298D01*
X362405Y68898D01*
X362605Y68498D01*
X362205Y68698D01*
X361805Y68498D01*
X361405Y58255D02*
X361805Y59055D01*
X361405Y59855D01*
X362205Y59455D01*
X363005Y59855D01*
X362605Y59055D01*
X363005Y58255D01*
X362205Y58655D01*
X361405Y58255D01*
X361805Y58655D02*
X362005Y59055D01*
X361805Y59455D01*
X362205Y59255D01*
X362605Y59455D01*
X362405Y59055D01*
X362605Y58655D01*
X362205Y58855D01*
X361805Y58655D01*
X343688Y58255D02*
X344088Y59055D01*
X343688Y59855D01*
X344488Y59455D01*
X345288Y59855D01*
X344888Y59055D01*
X345288Y58255D01*
X344488Y58655D01*
X343688Y58255D01*
X344088Y58655D02*
X344288Y59055D01*
X344088Y59455D01*
X344488Y59255D01*
X344888Y59455D01*
X344688Y59055D01*
X344888Y58655D01*
X344488Y58855D01*
X344088Y58655D01*
X343688Y46444D02*
X344088Y47244D01*
X343688Y48044D01*
X344488Y47644D01*
X345288Y48044D01*
X344888Y47244D01*
X345288Y46444D01*
X344488Y46844D01*
X343688Y46444D01*
X344088Y46844D02*
X344288Y47244D01*
X344088Y47644D01*
X344488Y47444D01*
X344888Y47644D01*
X344688Y47244D01*
X344888Y46844D01*
X344488Y47044D01*
X344088Y46844D01*
X361405Y46444D02*
X361805Y47244D01*
X361405Y48044D01*
X362205Y47644D01*
X363005Y48044D01*
X362605Y47244D01*
X363005Y46444D01*
X362205Y46844D01*
X361405Y46444D01*
X361805Y46844D02*
X362005Y47244D01*
X361805Y47644D01*
X362205Y47444D01*
X362605Y47644D01*
X362405Y47244D01*
X362605Y46844D01*
X362205Y47044D01*
X361805Y46844D01*
X361405Y34633D02*
X361805Y35433D01*
X361405Y36233D01*
X362205Y35833D01*
X363005Y36233D01*
X362605Y35433D01*
X363005Y34633D01*
X362205Y35033D01*
X361405Y34633D01*
X361805Y35033D02*
X362005Y35433D01*
X361805Y35833D01*
X362205Y35633D01*
X362605Y35833D01*
X362405Y35433D01*
X362605Y35033D01*
X362205Y35233D01*
X361805Y35033D01*
X343688Y34633D02*
X344088Y35433D01*
X343688Y36233D01*
X344488Y35833D01*
X345288Y36233D01*
X344888Y35433D01*
X345288Y34633D01*
X344488Y35033D01*
X343688Y34633D01*
X344088Y35033D02*
X344288Y35433D01*
X344088Y35833D01*
X344488Y35633D01*
X344888Y35833D01*
X344688Y35433D01*
X344888Y35033D01*
X344488Y35233D01*
X344088Y35033D01*
X351562Y12979D02*
X351962Y13780D01*
X351562Y14580D01*
X352362Y14179D01*
X353162Y14580D01*
X352762Y13780D01*
X353162Y12979D01*
X352362Y13379D01*
X351562Y12979D01*
X351962Y13379D02*
X352162Y13780D01*
X351962Y14179D01*
X352362Y13980D01*
X352762Y14179D01*
X352562Y13780D01*
X352762Y13379D01*
X352362Y13579D01*
X351962Y13379D01*
X343688Y20854D02*
X344088Y21654D01*
X343688Y22454D01*
X344488Y22053D01*
X345288Y22454D01*
X344888Y21654D01*
X345288Y20854D01*
X344488Y21253D01*
X343688Y20854D01*
X344088Y21253D02*
X344288Y21654D01*
X344088Y22053D01*
X344488Y21854D01*
X344888Y22053D01*
X344688Y21654D01*
X344888Y21253D01*
X344488Y21453D01*
X344088Y21253D01*
X361405Y20854D02*
X361805Y21654D01*
X361405Y22454D01*
X362205Y22053D01*
X363005Y22454D01*
X362605Y21654D01*
X363005Y20854D01*
X362205Y21253D01*
X361405Y20854D01*
X361805Y21253D02*
X362005Y21654D01*
X361805Y22053D01*
X362205Y21854D01*
X362605Y22053D01*
X362405Y21654D01*
X362605Y21253D01*
X362205Y21453D01*
X361805Y21253D01*
X361405Y5105D02*
X361805Y5906D01*
X361405Y6706D01*
X362205Y6306D01*
X363005Y6706D01*
X362605Y5906D01*
X363005Y5105D01*
X362205Y5505D01*
X361405Y5105D01*
X361805Y5505D02*
X362005Y5906D01*
X361805Y6306D01*
X362205Y6106D01*
X362605Y6306D01*
X362405Y5906D01*
X362605Y5505D01*
X362205Y5706D01*
X361805Y5505D01*
X343688Y5105D02*
X344088Y5906D01*
X343688Y6706D01*
X344488Y6306D01*
X345288Y6706D01*
X344888Y5906D01*
X345288Y5105D01*
X344488Y5505D01*
X343688Y5105D01*
X344088Y5505D02*
X344288Y5906D01*
X344088Y6306D01*
X344488Y6106D01*
X344888Y6306D01*
X344688Y5906D01*
X344888Y5505D01*
X344488Y5706D01*
X344088Y5505D01*
X286602Y7074D02*
X287002Y7874D01*
X286602Y8674D01*
X287402Y8274D01*
X288202Y8674D01*
X287802Y7874D01*
X288202Y7074D01*
X287402Y7474D01*
X286602Y7074D01*
X287002Y7474D02*
X287202Y7874D01*
X287002Y8274D01*
X287402Y8074D01*
X287802Y8274D01*
X287602Y7874D01*
X287802Y7474D01*
X287402Y7674D01*
X287002Y7474D01*
X299200Y5600D02*
X299600Y6400D01*
X299200Y7200D01*
X300000Y6800D01*
X300800Y7200D01*
X300400Y6400D01*
X300800Y5600D01*
X300000Y6000D01*
X299200Y5600D01*
X299600Y6000D02*
X299800Y6400D01*
X299600Y6800D01*
X300000Y6600D01*
X300400Y6800D01*
X300200Y6400D01*
X300400Y6000D01*
X300000Y6200D01*
X299600Y6000D01*
X300381Y14948D02*
X300781Y15748D01*
X300381Y16548D01*
X301181Y16148D01*
X301981Y16548D01*
X301581Y15748D01*
X301981Y14948D01*
X301181Y15348D01*
X300381Y14948D01*
X300781Y15348D02*
X300981Y15748D01*
X300781Y16148D01*
X301181Y15948D01*
X301581Y16148D01*
X301381Y15748D01*
X301581Y15348D01*
X301181Y15548D01*
X300781Y15348D01*
X291000Y92000D02*
X291400Y92800D01*
X291000Y93600D01*
X291800Y93200D01*
X292600Y93600D01*
X292200Y92800D01*
X292600Y92000D01*
X291800Y92400D01*
X291000Y92000D01*
X291400Y92400D02*
X291600Y92800D01*
X291400Y93200D01*
X291800Y93000D01*
X292200Y93200D01*
X292000Y92800D01*
X292200Y92400D01*
X291800Y92600D01*
X291400Y92400D01*
X292600Y116000D02*
X293000Y116800D01*
X292600Y117600D01*
X293400Y117200D01*
X294200Y117600D01*
X293800Y116800D01*
X294200Y116000D01*
X293400Y116400D01*
X292600Y116000D01*
X293000Y116400D02*
X293200Y116800D01*
X293000Y117200D01*
X293400Y117000D01*
X293800Y117200D01*
X293600Y116800D01*
X293800Y116400D01*
X293400Y116600D01*
X293000Y116400D01*
X314700Y81200D02*
X315100Y82000D01*
X314700Y82800D01*
X315500Y82400D01*
X316300Y82800D01*
X315900Y82000D01*
X316300Y81200D01*
X315500Y81600D01*
X314700Y81200D01*
X315100Y81600D02*
X315300Y82000D01*
X315100Y82400D01*
X315500Y82200D01*
X315900Y82400D01*
X315700Y82000D01*
X315900Y81600D01*
X315500Y81800D01*
X315100Y81600D01*
X347800Y72300D02*
X348200Y73100D01*
X347800Y73900D01*
X348600Y73500D01*
X349400Y73900D01*
X349000Y73100D01*
X349400Y72300D01*
X348600Y72700D01*
X347800Y72300D01*
X348200Y72700D02*
X348400Y73100D01*
X348200Y73500D01*
X348600Y73300D01*
X349000Y73500D01*
X348800Y73100D01*
X349000Y72700D01*
X348600Y72900D01*
X348200Y72700D01*
X133747Y131877D02*
X134147Y132677D01*
X133747Y133477D01*
X134547Y133077D01*
X135347Y133477D01*
X134947Y132677D01*
X135347Y131877D01*
X134547Y132277D01*
X133747Y131877D01*
X134147Y132277D02*
X134347Y132677D01*
X134147Y133077D01*
X134547Y132877D01*
X134947Y133077D01*
X134747Y132677D01*
X134947Y132277D01*
X134547Y132477D01*
X134147Y132277D01*
X133944Y140440D02*
X134344Y141240D01*
X133944Y142040D01*
X134744Y141640D01*
X135544Y142040D01*
X135144Y141240D01*
X135544Y140440D01*
X134744Y140840D01*
X133944Y140440D01*
X134344Y140840D02*
X134544Y141240D01*
X134344Y141640D01*
X134744Y141440D01*
X135144Y141640D01*
X134944Y141240D01*
X135144Y140840D01*
X134744Y141040D01*
X134344Y140840D01*
X126562Y135913D02*
X126962Y136713D01*
X126562Y137513D01*
X127362Y137113D01*
X128162Y137513D01*
X127762Y136713D01*
X128162Y135913D01*
X127362Y136313D01*
X126562Y135913D01*
X126962Y136313D02*
X127162Y136713D01*
X126962Y137113D01*
X127362Y136913D01*
X127762Y137113D01*
X127562Y136713D01*
X127762Y136313D01*
X127362Y136513D01*
X126962Y136313D01*
X43196Y126464D02*
X43596Y127264D01*
X43196Y128064D01*
X43996Y127664D01*
X44796Y128064D01*
X44396Y127264D01*
X44796Y126464D01*
X43996Y126864D01*
X43196Y126464D01*
X43596Y126864D02*
X43796Y127264D01*
X43596Y127664D01*
X43996Y127464D01*
X44396Y127664D01*
X44196Y127264D01*
X44396Y126864D01*
X43996Y127064D01*
X43596Y126864D01*
X47527Y148806D02*
X47927Y149606D01*
X47527Y150406D01*
X48327Y150006D01*
X49127Y150406D01*
X48727Y149606D01*
X49127Y148806D01*
X48327Y149206D01*
X47527Y148806D01*
X47927Y149206D02*
X48127Y149606D01*
X47927Y150006D01*
X48327Y149806D01*
X48727Y150006D01*
X48527Y149606D01*
X48727Y149206D01*
X48327Y149406D01*
X47927Y149206D01*
X269672Y172822D02*
X270072Y173622D01*
X269672Y174422D01*
X270472Y174022D01*
X271272Y174422D01*
X270872Y173622D01*
X271272Y172822D01*
X270472Y173222D01*
X269672Y172822D01*
X270072Y173222D02*
X270272Y173622D01*
X270072Y174022D01*
X270472Y173822D01*
X270872Y174022D01*
X270672Y173622D01*
X270872Y173222D01*
X270472Y173422D01*
X270072Y173222D01*
X265735Y199102D02*
X266135Y199902D01*
X265735Y200702D01*
X266535Y200302D01*
X267335Y200702D01*
X266935Y199902D01*
X267335Y199102D01*
X266535Y199502D01*
X265735Y199102D01*
X266135Y199502D02*
X266335Y199902D01*
X266135Y200302D01*
X266535Y200102D01*
X266935Y200302D01*
X266735Y199902D01*
X266935Y199502D01*
X266535Y199702D01*
X266135Y199502D01*
X238767Y216916D02*
X239167Y217717D01*
X238767Y218516D01*
X239567Y218116D01*
X240367Y218516D01*
X239967Y217717D01*
X240367Y216916D01*
X239567Y217317D01*
X238767Y216916D01*
X239167Y217317D02*
X239367Y217717D01*
X239167Y218116D01*
X239567Y217916D01*
X239967Y218116D01*
X239767Y217717D01*
X239967Y217317D01*
X239567Y217516D01*
X239167Y217317D01*
X194377Y255991D02*
X194777Y256791D01*
X194377Y257591D01*
X195177Y257191D01*
X195977Y257591D01*
X195577Y256791D01*
X195977Y255991D01*
X195177Y256391D01*
X194377Y255991D01*
X194777Y256391D02*
X194977Y256791D01*
X194777Y257191D01*
X195177Y256991D01*
X195577Y257191D01*
X195377Y256791D01*
X195577Y256391D01*
X195177Y256591D01*
X194777Y256391D01*
X174495Y215539D02*
X174895Y216339D01*
X174495Y217139D01*
X175295Y216739D01*
X176095Y217139D01*
X175695Y216339D01*
X176095Y215539D01*
X175295Y215939D01*
X174495Y215539D01*
X174895Y215939D02*
X175095Y216339D01*
X174895Y216739D01*
X175295Y216539D01*
X175695Y216739D01*
X175495Y216339D01*
X175695Y215939D01*
X175295Y216139D01*
X174895Y215939D01*
X107763Y203432D02*
X108163Y204232D01*
X107763Y205032D01*
X108563Y204632D01*
X109363Y205032D01*
X108963Y204232D01*
X109363Y203432D01*
X108563Y203832D01*
X107763Y203432D01*
X108163Y203832D02*
X108363Y204232D01*
X108163Y204632D01*
X108563Y204432D01*
X108963Y204632D01*
X108763Y204232D01*
X108963Y203832D01*
X108563Y204032D01*
X108163Y203832D01*
X13767Y158747D02*
X14167Y159547D01*
X13767Y160347D01*
X14567Y159947D01*
X15367Y160347D01*
X14967Y159547D01*
X15367Y158747D01*
X14567Y159147D01*
X13767Y158747D01*
X14167Y159147D02*
X14367Y159547D01*
X14167Y159947D01*
X14567Y159747D01*
X14967Y159947D01*
X14767Y159547D01*
X14967Y159147D01*
X14567Y159347D01*
X14167Y159147D01*
X56484Y164948D02*
X56884Y165748D01*
X56484Y166548D01*
X57284Y166148D01*
X58083Y166548D01*
X57683Y165748D01*
X58083Y164948D01*
X57284Y165348D01*
X56484Y164948D01*
X56884Y165348D02*
X57083Y165748D01*
X56884Y166148D01*
X57284Y165948D01*
X57683Y166148D01*
X57484Y165748D01*
X57683Y165348D01*
X57284Y165548D01*
X56884Y165348D01*
X64948Y120460D02*
X65348Y121260D01*
X64948Y122060D01*
X65748Y121660D01*
X66548Y122060D01*
X66148Y121260D01*
X66548Y120460D01*
X65748Y120860D01*
X64948Y120460D01*
X65348Y120860D02*
X65548Y121260D01*
X65348Y121660D01*
X65748Y121460D01*
X66148Y121660D01*
X65948Y121260D01*
X66148Y120860D01*
X65748Y121060D01*
X65348Y120860D01*
X82566Y124594D02*
X82966Y125394D01*
X82566Y126194D01*
X83366Y125794D01*
X84166Y126194D01*
X83766Y125394D01*
X84166Y124594D01*
X83366Y124994D01*
X82566Y124594D01*
X82966Y124994D02*
X83166Y125394D01*
X82966Y125794D01*
X83366Y125594D01*
X83766Y125794D01*
X83566Y125394D01*
X83766Y124994D01*
X83366Y125194D01*
X82966Y124994D01*
X130598Y195558D02*
X130998Y196358D01*
X130598Y197158D01*
X131398Y196758D01*
X132198Y197158D01*
X131798Y196358D01*
X132198Y195558D01*
X131398Y195958D01*
X130598Y195558D01*
X130998Y195958D02*
X131198Y196358D01*
X130998Y196758D01*
X131398Y196558D01*
X131798Y196758D01*
X131598Y196358D01*
X131798Y195958D01*
X131398Y196158D01*
X130998Y195958D01*
X144968Y114948D02*
X145368Y115748D01*
X144968Y116548D01*
X145768Y116148D01*
X146568Y116548D01*
X146168Y115748D01*
X146568Y114948D01*
X145768Y115348D01*
X144968Y114948D01*
X145368Y115348D02*
X145568Y115748D01*
X145368Y116148D01*
X145768Y115948D01*
X146168Y116148D01*
X145968Y115748D01*
X146168Y115348D01*
X145768Y115548D01*
X145368Y115348D01*
X101562Y63865D02*
X101962Y64665D01*
X101562Y65465D01*
X102362Y65065D01*
X103162Y65465D01*
X102762Y64665D01*
X103162Y63865D01*
X102362Y64265D01*
X101562Y63865D01*
X101962Y64265D02*
X102162Y64665D01*
X101962Y65065D01*
X102362Y64865D01*
X102762Y65065D01*
X102562Y64665D01*
X102762Y64265D01*
X102362Y64465D01*
X101962Y64265D01*
X94968Y110421D02*
X95368Y111221D01*
X94968Y112021D01*
X95768Y111620D01*
X96568Y112021D01*
X96168Y111221D01*
X96568Y110421D01*
X95768Y110820D01*
X94968Y110421D01*
X95368Y110820D02*
X95568Y111221D01*
X95368Y111620D01*
X95768Y111421D01*
X96168Y111620D01*
X95968Y111221D01*
X96168Y110820D01*
X95768Y111021D01*
X95368Y110820D01*
X192605Y154318D02*
X193006Y155118D01*
X192605Y155918D01*
X193405Y155518D01*
X194205Y155918D01*
X193806Y155118D01*
X194205Y154318D01*
X193405Y154718D01*
X192605Y154318D01*
X193006Y154718D02*
X193205Y155118D01*
X193006Y155518D01*
X193405Y155318D01*
X193806Y155518D01*
X193605Y155118D01*
X193806Y154718D01*
X193405Y154918D01*
X193006Y154718D01*
X190243Y167212D02*
X190643Y168012D01*
X190243Y168812D01*
X191043Y168412D01*
X191843Y168812D01*
X191443Y168012D01*
X191843Y167212D01*
X191043Y167612D01*
X190243Y167212D01*
X190643Y167612D02*
X190843Y168012D01*
X190643Y168412D01*
X191043Y168212D01*
X191443Y168412D01*
X191243Y168012D01*
X191443Y167612D01*
X191043Y167812D01*
X190643Y167612D01*
X205401Y157566D02*
X205801Y158366D01*
X205401Y159166D01*
X206201Y158766D01*
X207001Y159166D01*
X206601Y158366D01*
X207001Y157566D01*
X206201Y157966D01*
X205401Y157566D01*
X205801Y157966D02*
X206001Y158366D01*
X205801Y158766D01*
X206201Y158566D01*
X206601Y158766D01*
X206401Y158366D01*
X206601Y157966D01*
X206201Y158166D01*
X205801Y157966D01*
X205401Y171149D02*
X205801Y171949D01*
X205401Y172749D01*
X206201Y172349D01*
X207001Y172749D01*
X206601Y171949D01*
X207001Y171149D01*
X206201Y171549D01*
X205401Y171149D01*
X205801Y171549D02*
X206001Y171949D01*
X205801Y172349D01*
X206201Y172149D01*
X206601Y172349D01*
X206401Y171949D01*
X206601Y171549D01*
X206201Y171749D01*
X205801Y171549D01*
X232665Y9731D02*
X233065Y10531D01*
X232665Y11332D01*
X233465Y10932D01*
X234265Y11332D01*
X233865Y10531D01*
X234265Y9731D01*
X233465Y10131D01*
X232665Y9731D01*
X233065Y10131D02*
X233265Y10531D01*
X233065Y10932D01*
X233465Y10731D01*
X233865Y10932D01*
X233665Y10531D01*
X233865Y10131D01*
X233465Y10332D01*
X233065Y10131D01*
X260224Y9731D02*
X260624Y10531D01*
X260224Y11332D01*
X261024Y10932D01*
X261824Y11332D01*
X261424Y10531D01*
X261824Y9731D01*
X261024Y10131D01*
X260224Y9731D01*
X260624Y10131D02*
X260824Y10531D01*
X260624Y10932D01*
X261024Y10731D01*
X261424Y10932D01*
X261224Y10531D01*
X261424Y10131D01*
X261024Y10332D01*
X260624Y10131D01*
X232665Y24495D02*
X233065Y25295D01*
X232665Y26095D01*
X233465Y25695D01*
X234265Y26095D01*
X233865Y25295D01*
X234265Y24495D01*
X233465Y24895D01*
X232665Y24495D01*
X233065Y24895D02*
X233265Y25295D01*
X233065Y25695D01*
X233465Y25495D01*
X233865Y25695D01*
X233665Y25295D01*
X233865Y24895D01*
X233465Y25095D01*
X233065Y24895D01*
X260224Y24495D02*
X260624Y25295D01*
X260224Y26095D01*
X261024Y25695D01*
X261824Y26095D01*
X261424Y25295D01*
X261824Y24495D01*
X261024Y24895D01*
X260224Y24495D01*
X260624Y24895D02*
X260824Y25295D01*
X260624Y25695D01*
X261024Y25495D01*
X261424Y25695D01*
X261224Y25295D01*
X261424Y24895D01*
X261024Y25095D01*
X260624Y24895D01*
X232665Y42113D02*
X233065Y42913D01*
X232665Y43713D01*
X233465Y43313D01*
X234265Y43713D01*
X233865Y42913D01*
X234265Y42113D01*
X233465Y42513D01*
X232665Y42113D01*
X233065Y42513D02*
X233265Y42913D01*
X233065Y43313D01*
X233465Y43113D01*
X233865Y43313D01*
X233665Y42913D01*
X233865Y42513D01*
X233465Y42713D01*
X233065Y42513D01*
X260224Y42113D02*
X260624Y42913D01*
X260224Y43713D01*
X261024Y43313D01*
X261824Y43713D01*
X261424Y42913D01*
X261824Y42113D01*
X261024Y42513D01*
X260224Y42113D01*
X260624Y42513D02*
X260824Y42913D01*
X260624Y43313D01*
X261024Y43113D01*
X261424Y43313D01*
X261224Y42913D01*
X261424Y42513D01*
X261024Y42713D01*
X260624Y42513D01*
X232623Y68651D02*
X233023Y69451D01*
X232623Y70251D01*
X233423Y69851D01*
X234223Y70251D01*
X233823Y69451D01*
X234223Y68651D01*
X233423Y69051D01*
X232623Y68651D01*
X233023Y69051D02*
X233223Y69451D01*
X233023Y69851D01*
X233423Y69651D01*
X233823Y69851D01*
X233623Y69451D01*
X233823Y69051D01*
X233423Y69251D01*
X233023Y69051D01*
X260182Y68651D02*
X260582Y69451D01*
X260182Y70251D01*
X260982Y69851D01*
X261782Y70251D01*
X261382Y69451D01*
X261782Y68651D01*
X260982Y69051D01*
X260182Y68651D01*
X260582Y69051D02*
X260782Y69451D01*
X260582Y69851D01*
X260982Y69651D01*
X261382Y69851D01*
X261182Y69451D01*
X261382Y69051D01*
X260982Y69251D01*
X260582Y69051D01*
X232763Y86208D02*
X233163Y87008D01*
X232763Y87808D01*
X233563Y87408D01*
X234363Y87808D01*
X233963Y87008D01*
X234363Y86208D01*
X233563Y86608D01*
X232763Y86208D01*
X233163Y86608D02*
X233363Y87008D01*
X233163Y87408D01*
X233563Y87208D01*
X233963Y87408D01*
X233763Y87008D01*
X233963Y86608D01*
X233563Y86808D01*
X233163Y86608D01*
X260322Y86208D02*
X260722Y87008D01*
X260322Y87808D01*
X261122Y87408D01*
X261922Y87808D01*
X261522Y87008D01*
X261922Y86208D01*
X261122Y86608D01*
X260322Y86208D01*
X260722Y86608D02*
X260922Y87008D01*
X260722Y87408D01*
X261122Y87208D01*
X261522Y87408D01*
X261322Y87008D01*
X261522Y86608D01*
X261122Y86808D01*
X260722Y86608D01*
X260322Y107861D02*
X260722Y108661D01*
X260322Y109461D01*
X261122Y109061D01*
X261922Y109461D01*
X261522Y108661D01*
X261922Y107861D01*
X261122Y108261D01*
X260322Y107861D01*
X260722Y108261D02*
X260922Y108661D01*
X260722Y109061D01*
X261122Y108861D01*
X261522Y109061D01*
X261322Y108661D01*
X261522Y108261D01*
X261122Y108461D01*
X260722Y108261D01*
X232763Y107861D02*
X233163Y108661D01*
X232763Y109461D01*
X233563Y109061D01*
X234363Y109461D01*
X233963Y108661D01*
X234363Y107861D01*
X233563Y108261D01*
X232763Y107861D01*
X233163Y108261D02*
X233363Y108661D01*
X233163Y109061D01*
X233563Y108861D01*
X233963Y109061D01*
X233763Y108661D01*
X233963Y108261D01*
X233563Y108461D01*
X233163Y108261D01*
X226365Y129417D02*
X226765Y130217D01*
X226365Y131017D01*
X227165Y130616D01*
X227965Y131017D01*
X227565Y130217D01*
X227965Y129417D01*
X227165Y129816D01*
X226365Y129417D01*
X226765Y129816D02*
X226965Y130217D01*
X226765Y130616D01*
X227165Y130417D01*
X227565Y130616D01*
X227365Y130217D01*
X227565Y129816D01*
X227165Y130017D01*
X226765Y129816D01*
X259633Y138472D02*
X260033Y139272D01*
X259633Y140072D01*
X260433Y139672D01*
X261233Y140072D01*
X260833Y139272D01*
X261233Y138472D01*
X260433Y138872D01*
X259633Y138472D01*
X260033Y138872D02*
X260233Y139272D01*
X260033Y139672D01*
X260433Y139472D01*
X260833Y139672D01*
X260633Y139272D01*
X260833Y138872D01*
X260433Y139072D01*
X260033Y138872D01*
X262881Y226365D02*
X263281Y227165D01*
X262881Y227965D01*
X263681Y227565D01*
X264481Y227965D01*
X264081Y227165D01*
X264481Y226365D01*
X263681Y226765D01*
X262881Y226365D01*
X263281Y226765D02*
X263481Y227165D01*
X263281Y227565D01*
X263681Y227365D01*
X264081Y227565D01*
X263881Y227165D01*
X264081Y226765D01*
X263681Y226965D01*
X263281Y226765D01*
X261208Y248216D02*
X261608Y249016D01*
X261208Y249816D01*
X262008Y249416D01*
X262808Y249816D01*
X262408Y249016D01*
X262808Y248216D01*
X262008Y248616D01*
X261208Y248216D01*
X261608Y248616D02*
X261808Y249016D01*
X261608Y249416D01*
X262008Y249216D01*
X262408Y249416D01*
X262208Y249016D01*
X262408Y248616D01*
X262008Y248816D01*
X261608Y248616D01*
X85814Y173511D02*
X86214Y174311D01*
X85814Y175111D01*
X86614Y174711D01*
X87414Y175111D01*
X87014Y174311D01*
X87414Y173511D01*
X86614Y173911D01*
X85814Y173511D01*
X86214Y173911D02*
X86414Y174311D01*
X86214Y174711D01*
X86614Y174511D01*
X87014Y174711D01*
X86814Y174311D01*
X87014Y173911D01*
X86614Y174111D01*
X86214Y173911D01*
X105795Y181582D02*
X106194Y182382D01*
X105795Y183182D01*
X106595Y182782D01*
X107395Y183182D01*
X106994Y182382D01*
X107395Y181582D01*
X106595Y181982D01*
X105795Y181582D01*
X106194Y181982D02*
X106395Y182382D01*
X106194Y182782D01*
X106595Y182582D01*
X106994Y182782D01*
X106795Y182382D01*
X106994Y181982D01*
X106595Y182182D01*
X106194Y181982D01*
X149003Y190834D02*
X149403Y191634D01*
X149003Y192434D01*
X149803Y192034D01*
X150603Y192434D01*
X150203Y191634D01*
X150603Y190834D01*
X149803Y191234D01*
X149003Y190834D01*
X149403Y191234D02*
X149603Y191634D01*
X149403Y192034D01*
X149803Y191834D01*
X150203Y192034D01*
X150003Y191634D01*
X150203Y191234D01*
X149803Y191434D01*
X149403Y191234D01*
X192015Y200775D02*
X192415Y201575D01*
X192015Y202375D01*
X192815Y201975D01*
X193615Y202375D01*
X193215Y201575D01*
X193615Y200775D01*
X192815Y201175D01*
X192015Y200775D01*
X192415Y201175D02*
X192615Y201575D01*
X192415Y201975D01*
X192815Y201775D01*
X193215Y201975D01*
X193015Y201575D01*
X193215Y201175D01*
X192815Y201375D01*
X192415Y201175D01*
X183353Y227940D02*
X183754Y228740D01*
X183353Y229540D01*
X184153Y229140D01*
X184953Y229540D01*
X184554Y228740D01*
X184953Y227940D01*
X184153Y228340D01*
X183353Y227940D01*
X183754Y228340D02*
X183953Y228740D01*
X183754Y229140D01*
X184153Y228940D01*
X184554Y229140D01*
X184353Y228740D01*
X184554Y228340D01*
X184153Y228540D01*
X183754Y228340D01*
X157271Y227743D02*
X157671Y228543D01*
X157271Y229343D01*
X158071Y228943D01*
X158871Y229343D01*
X158471Y228543D01*
X158871Y227743D01*
X158071Y228143D01*
X157271Y227743D01*
X157671Y228143D02*
X157871Y228543D01*
X157671Y228943D01*
X158071Y228743D01*
X158471Y228943D01*
X158271Y228543D01*
X158471Y228143D01*
X158071Y228343D01*
X157671Y228143D01*
X196838Y78137D02*
X197238Y78937D01*
X196838Y79737D01*
X197638Y79337D01*
X198438Y79737D01*
X198038Y78937D01*
X198438Y78137D01*
X197638Y78537D01*
X196838Y78137D01*
X197238Y78537D02*
X197438Y78937D01*
X197238Y79337D01*
X197638Y79137D01*
X198038Y79337D01*
X197838Y78937D01*
X198038Y78537D01*
X197638Y78737D01*
X197238Y78537D01*
X234535Y149495D02*
X234935Y150295D01*
X234535Y151095D01*
X235335Y150695D01*
X236135Y151095D01*
X235735Y150295D01*
X236135Y149495D01*
X235335Y149895D01*
X234535Y149495D01*
X234935Y149895D02*
X235135Y150295D01*
X234935Y150695D01*
X235335Y150495D01*
X235735Y150695D01*
X235535Y150295D01*
X235735Y149895D01*
X235335Y150095D01*
X234935Y149895D01*
X217409Y145853D02*
X217809Y146653D01*
X217409Y147453D01*
X218209Y147054D01*
X219009Y147453D01*
X218609Y146653D01*
X219009Y145853D01*
X218209Y146254D01*
X217409Y145853D01*
X217809Y146254D02*
X218009Y146653D01*
X217809Y147054D01*
X218209Y146853D01*
X218609Y147054D01*
X218409Y146653D01*
X218609Y146254D01*
X218209Y146453D01*
X217809Y146254D01*
X221346Y192212D02*
X221746Y193012D01*
X221346Y193812D01*
X222146Y193412D01*
X222946Y193812D01*
X222546Y193012D01*
X222946Y192212D01*
X222146Y192612D01*
X221346Y192212D01*
X221746Y192612D02*
X221946Y193012D01*
X221746Y193412D01*
X222146Y193212D01*
X222546Y193412D01*
X222346Y193012D01*
X222546Y192612D01*
X222146Y192812D01*
X221746Y192612D01*
X228924Y241720D02*
X229324Y242520D01*
X228924Y243320D01*
X229724Y242920D01*
X230524Y243320D01*
X230124Y242520D01*
X230524Y241720D01*
X229724Y242120D01*
X228924Y241720D01*
X229324Y242120D02*
X229524Y242520D01*
X229324Y242920D01*
X229724Y242720D01*
X230124Y242920D01*
X229924Y242520D01*
X230124Y242120D01*
X229724Y242320D01*
X229324Y242120D01*
X226385Y266208D02*
X226785Y267008D01*
X226385Y267808D01*
X227185Y267408D01*
X227985Y267808D01*
X227585Y267008D01*
X227985Y266208D01*
X227185Y266608D01*
X226385Y266208D01*
X226785Y266608D02*
X226985Y267008D01*
X226785Y267408D01*
X227185Y267208D01*
X227585Y267408D01*
X227385Y267008D01*
X227585Y266608D01*
X227185Y266808D01*
X226785Y266608D01*
X213743Y259165D02*
X214143Y259965D01*
X213743Y260765D01*
X214543Y260365D01*
X215343Y260765D01*
X214943Y259965D01*
X215343Y259165D01*
X214543Y259565D01*
X213743Y259165D01*
X214143Y259565D02*
X214343Y259965D01*
X214143Y260365D01*
X214543Y260165D01*
X214943Y260365D01*
X214743Y259965D01*
X214943Y259565D01*
X214543Y259765D01*
X214143Y259565D01*
X243078Y260204D02*
X243478Y261004D01*
X243078Y261804D01*
X243878Y261404D01*
X244678Y261804D01*
X244278Y261004D01*
X244678Y260204D01*
X243878Y260604D01*
X243078Y260204D01*
X243478Y260604D02*
X243678Y261004D01*
X243478Y261404D01*
X243878Y261204D01*
X244278Y261404D01*
X244078Y261004D01*
X244278Y260604D01*
X243878Y260804D01*
X243478Y260604D01*
X166621Y194476D02*
X167021Y195276D01*
X166621Y196076D01*
X167421Y195676D01*
X168221Y196076D01*
X167821Y195276D01*
X168221Y194476D01*
X167421Y194876D01*
X166621Y194476D01*
X167021Y194876D02*
X167221Y195276D01*
X167021Y195676D01*
X167421Y195476D01*
X167821Y195676D01*
X167621Y195276D01*
X167821Y194876D01*
X167421Y195076D01*
X167021Y194876D01*
X155302Y166326D02*
X155702Y167126D01*
X155302Y167926D01*
X156102Y167526D01*
X156902Y167926D01*
X156502Y167126D01*
X156902Y166326D01*
X156102Y166726D01*
X155302Y166326D01*
X155702Y166726D02*
X155902Y167126D01*
X155702Y167526D01*
X156102Y167326D01*
X156502Y167526D01*
X156302Y167126D01*
X156502Y166726D01*
X156102Y166926D01*
X155702Y166726D01*
X150283Y142605D02*
X150683Y143405D01*
X150283Y144205D01*
X151083Y143806D01*
X151883Y144205D01*
X151483Y143405D01*
X151883Y142605D01*
X151083Y143006D01*
X150283Y142605D01*
X150683Y143006D02*
X150883Y143405D01*
X150683Y143806D01*
X151083Y143605D01*
X151483Y143806D01*
X151283Y143405D01*
X151483Y143006D01*
X151083Y143205D01*
X150683Y143006D01*
X185125Y188767D02*
X185525Y189567D01*
X185125Y190367D01*
X185925Y189967D01*
X186725Y190367D01*
X186325Y189567D01*
X186725Y188767D01*
X185925Y189167D01*
X185125Y188767D01*
X185525Y189167D02*
X185725Y189567D01*
X185525Y189967D01*
X185925Y189767D01*
X186325Y189967D01*
X186125Y189567D01*
X186325Y189167D01*
X185925Y189367D01*
X185525Y189167D01*
X180893Y188767D02*
X181293Y189567D01*
X180893Y190367D01*
X181693Y189967D01*
X182493Y190367D01*
X182093Y189567D01*
X182493Y188767D01*
X181693Y189167D01*
X180893Y188767D01*
X181293Y189167D02*
X181493Y189567D01*
X181293Y189967D01*
X181693Y189767D01*
X182093Y189967D01*
X181893Y189567D01*
X182093Y189167D01*
X181693Y189367D01*
X181293Y189167D01*
X185125Y184731D02*
X185525Y185531D01*
X185125Y186331D01*
X185925Y185932D01*
X186725Y186331D01*
X186325Y185531D01*
X186725Y184731D01*
X185925Y185132D01*
X185125Y184731D01*
X185525Y185132D02*
X185725Y185531D01*
X185525Y185932D01*
X185925Y185731D01*
X186325Y185932D01*
X186125Y185531D01*
X186325Y185132D01*
X185925Y185331D01*
X185525Y185132D01*
X180893Y184731D02*
X181293Y185531D01*
X180893Y186331D01*
X181693Y185932D01*
X182493Y186331D01*
X182093Y185531D01*
X182493Y184731D01*
X181693Y185132D01*
X180893Y184731D01*
X181293Y185132D02*
X181493Y185531D01*
X181293Y185932D01*
X181693Y185731D01*
X182093Y185932D01*
X181893Y185531D01*
X182093Y185132D01*
X181693Y185331D01*
X181293Y185132D01*
X187094Y44180D02*
X187494Y44980D01*
X187094Y45780D01*
X187894Y45380D01*
X188694Y45780D01*
X188294Y44980D01*
X188694Y44180D01*
X187894Y44580D01*
X187094Y44180D01*
X187494Y44580D02*
X187694Y44980D01*
X187494Y45380D01*
X187894Y45180D01*
X188294Y45380D01*
X188094Y44980D01*
X188294Y44580D01*
X187894Y44780D01*
X187494Y44580D01*
X186995Y26464D02*
X187395Y27264D01*
X186995Y28064D01*
X187795Y27664D01*
X188595Y28064D01*
X188195Y27264D01*
X188595Y26464D01*
X187795Y26864D01*
X186995Y26464D01*
X187395Y26864D02*
X187595Y27264D01*
X187395Y27664D01*
X187795Y27464D01*
X188195Y27664D01*
X187995Y27264D01*
X188195Y26864D01*
X187795Y27064D01*
X187395Y26864D01*
X9633Y10519D02*
X10033Y11319D01*
X9633Y12119D01*
X10433Y11719D01*
X11233Y12119D01*
X10833Y11319D01*
X11233Y10519D01*
X10433Y10919D01*
X9633Y10519D01*
X10033Y10919D02*
X10233Y11319D01*
X10033Y11719D01*
X10433Y11519D01*
X10833Y11719D01*
X10633Y11319D01*
X10833Y10919D01*
X10433Y11119D01*
X10033Y10919D01*
X5302Y29121D02*
X5702Y29921D01*
X5302Y30721D01*
X6102Y30321D01*
X6902Y30721D01*
X6502Y29921D01*
X6902Y29121D01*
X6102Y29521D01*
X5302Y29121D01*
X5702Y29521D02*
X5902Y29921D01*
X5702Y30321D01*
X6102Y30121D01*
X6502Y30321D01*
X6302Y29921D01*
X6502Y29521D01*
X6102Y29721D01*
X5702Y29521D01*
X4121Y20755D02*
X4521Y21555D01*
X4121Y22355D01*
X4921Y21955D01*
X5721Y22355D01*
X5321Y21555D01*
X5721Y20755D01*
X4921Y21155D01*
X4121Y20755D01*
X4521Y21155D02*
X4721Y21555D01*
X4521Y21955D01*
X4921Y21755D01*
X5321Y21955D01*
X5121Y21555D01*
X5321Y21155D01*
X4921Y21355D01*
X4521Y21155D01*
X41621Y20361D02*
X42021Y21161D01*
X41621Y21961D01*
X42421Y21561D01*
X43221Y21961D01*
X42821Y21161D01*
X43221Y20361D01*
X42421Y20761D01*
X41621Y20361D01*
X42021Y20761D02*
X42221Y21161D01*
X42021Y21561D01*
X42421Y21361D01*
X42821Y21561D01*
X42621Y21161D01*
X42821Y20761D01*
X42421Y20961D01*
X42021Y20761D01*
X88183Y154885D02*
Y154485D01*
X88983D01*
Y154885D01*
X89383D01*
Y155685D01*
X88983D01*
Y156085D01*
X88183D01*
Y155685D01*
X87783D01*
Y154885D01*
X88183D01*
X88383Y155085D02*
Y154885D01*
X88783D01*
Y155085D01*
X88983D01*
Y155485D01*
X88783D01*
Y155685D01*
X88383D01*
Y155485D01*
X88183D01*
Y155085D01*
X88383D01*
X84246Y154885D02*
Y154485D01*
X85046D01*
Y154885D01*
X85446D01*
Y155685D01*
X85046D01*
Y156085D01*
X84246D01*
Y155685D01*
X83846D01*
Y154885D01*
X84246D01*
X84446Y155085D02*
Y154885D01*
X84846D01*
Y155085D01*
X85046D01*
Y155485D01*
X84846D01*
Y155685D01*
X84446D01*
Y155485D01*
X84246D01*
Y155085D01*
X84446D01*
X92120Y154885D02*
Y154485D01*
X92920D01*
Y154885D01*
X93320D01*
Y155685D01*
X92920D01*
Y156085D01*
X92120D01*
Y155685D01*
X91720D01*
Y154885D01*
X92120D01*
X92320Y155085D02*
Y154885D01*
X92720D01*
Y155085D01*
X92920D01*
Y155485D01*
X92720D01*
Y155685D01*
X92320D01*
Y155485D01*
X92120D01*
Y155085D01*
X92320D01*
X80309Y154885D02*
Y154485D01*
X81109D01*
Y154885D01*
X81509D01*
Y155685D01*
X81109D01*
Y156085D01*
X80309D01*
Y155685D01*
X79909D01*
Y154885D01*
X80309D01*
X80509Y155085D02*
Y154885D01*
X80909D01*
Y155085D01*
X81109D01*
Y155485D01*
X80909D01*
Y155685D01*
X80509D01*
Y155485D01*
X80309D01*
Y155085D01*
X80509D01*
X146346Y169377D02*
X146746Y170177D01*
X146346Y170977D01*
X147146Y170577D01*
X147946Y170977D01*
X147546Y170177D01*
X147946Y169377D01*
X147146Y169777D01*
X146346Y169377D01*
X146746Y169777D02*
X146946Y170177D01*
X146746Y170577D01*
X147146Y170377D01*
X147546Y170577D01*
X147346Y170177D01*
X147546Y169777D01*
X147146Y169977D01*
X146746Y169777D01*
X176661Y151956D02*
X177061Y152756D01*
X176661Y153556D01*
X177461Y153156D01*
X178261Y153556D01*
X177861Y152756D01*
X178261Y151956D01*
X177461Y152356D01*
X176661Y151956D01*
X177061Y152356D02*
X177261Y152756D01*
X177061Y153156D01*
X177461Y152956D01*
X177861Y153156D01*
X177661Y152756D01*
X177861Y152356D01*
X177461Y152556D01*
X177061Y152356D01*
X29515Y105204D02*
X29915Y106004D01*
X29515Y106804D01*
X30315Y106404D01*
X31115Y106804D01*
X30715Y106004D01*
X31115Y105204D01*
X30315Y105604D01*
X29515Y105204D01*
X29915Y105604D02*
X30115Y106004D01*
X29915Y106404D01*
X30315Y106204D01*
X30715Y106404D01*
X30515Y106004D01*
X30715Y105604D01*
X30315Y105804D01*
X29915Y105604D01*
X34633Y110617D02*
X35033Y111417D01*
X34633Y112217D01*
X35433Y111817D01*
X36233Y112217D01*
X35833Y111417D01*
X36233Y110617D01*
X35433Y111017D01*
X34633Y110617D01*
X35033Y111017D02*
X35233Y111417D01*
X35033Y111817D01*
X35433Y111617D01*
X35833Y111817D01*
X35633Y111417D01*
X35833Y111017D01*
X35433Y111217D01*
X35033Y111017D01*
X239259Y155401D02*
X239659Y156201D01*
X239259Y157001D01*
X240059Y156601D01*
X240859Y157001D01*
X240459Y156201D01*
X240859Y155401D01*
X240059Y155801D01*
X239259Y155401D01*
X239659Y155801D02*
X239859Y156201D01*
X239659Y156601D01*
X240059Y156401D01*
X240459Y156601D01*
X240259Y156201D01*
X240459Y155801D01*
X240059Y156001D01*
X239659Y155801D01*
X182566Y118196D02*
X182966Y118996D01*
X182566Y119796D01*
X183366Y119396D01*
X184166Y119796D01*
X183766Y118996D01*
X184166Y118196D01*
X183366Y118596D01*
X182566Y118196D01*
X182966Y118596D02*
X183166Y118996D01*
X182966Y119396D01*
X183366Y119196D01*
X183766Y119396D01*
X183566Y118996D01*
X183766Y118596D01*
X183366Y118796D01*
X182966Y118596D01*
X187487Y96543D02*
X187887Y97342D01*
X187487Y98142D01*
X188287Y97742D01*
X189087Y98142D01*
X188687Y97342D01*
X189087Y96543D01*
X188287Y96943D01*
X187487Y96543D01*
X187887Y96943D02*
X188087Y97342D01*
X187887Y97742D01*
X188287Y97543D01*
X188687Y97742D01*
X188487Y97342D01*
X188687Y96943D01*
X188287Y97142D01*
X187887Y96943D01*
X205826Y135058D02*
X206226Y135858D01*
X205826Y136658D01*
X206626Y136258D01*
X207426Y136658D01*
X207026Y135858D01*
X207426Y135058D01*
X206626Y135458D01*
X205826Y135058D01*
X206226Y135458D02*
X206426Y135858D01*
X206226Y136258D01*
X206626Y136058D01*
X207026Y136258D01*
X206826Y135858D01*
X207026Y135458D01*
X206626Y135658D01*
X206226Y135458D01*
X238570Y149495D02*
X238970Y150295D01*
X238570Y151095D01*
X239370Y150695D01*
X240170Y151095D01*
X239770Y150295D01*
X240170Y149495D01*
X239370Y149895D01*
X238570Y149495D01*
X238970Y149895D02*
X239170Y150295D01*
X238970Y150695D01*
X239370Y150495D01*
X239770Y150695D01*
X239570Y150295D01*
X239770Y149895D01*
X239370Y150095D01*
X238970Y149895D01*
X96050Y49987D02*
X96450Y50787D01*
X96050Y51587D01*
X96850Y51187D01*
X97650Y51587D01*
X97250Y50787D01*
X97650Y49987D01*
X96850Y50387D01*
X96050Y49987D01*
X96450Y50387D02*
X96650Y50787D01*
X96450Y51187D01*
X96850Y50987D01*
X97250Y51187D01*
X97050Y50787D01*
X97250Y50387D01*
X96850Y50587D01*
X96450Y50387D01*
X176267Y52940D02*
X176667Y53740D01*
X176267Y54540D01*
X177067Y54140D01*
X177867Y54540D01*
X177467Y53740D01*
X177867Y52940D01*
X177067Y53340D01*
X176267Y52940D01*
X176667Y53340D02*
X176867Y53740D01*
X176667Y54140D01*
X177067Y53940D01*
X177467Y54140D01*
X177267Y53740D01*
X177467Y53340D01*
X177067Y53540D01*
X176667Y53340D01*
X196543Y130105D02*
X196942Y130905D01*
X196543Y131705D01*
X197343Y131306D01*
X198143Y131705D01*
X197742Y130905D01*
X198143Y130105D01*
X197343Y130506D01*
X196543Y130105D01*
X196942Y130506D02*
X197143Y130905D01*
X196942Y131306D01*
X197343Y131105D01*
X197742Y131306D01*
X197543Y130905D01*
X197742Y130506D01*
X197343Y130705D01*
X196942Y130506D01*
X195460Y139259D02*
X195860Y140059D01*
X195460Y140859D01*
X196260Y140459D01*
X197060Y140859D01*
X196660Y140059D01*
X197060Y139259D01*
X196260Y139659D01*
X195460Y139259D01*
X195860Y139659D02*
X196060Y140059D01*
X195860Y140459D01*
X196260Y140259D01*
X196660Y140459D01*
X196460Y140059D01*
X196660Y139659D01*
X196260Y139859D01*
X195860Y139659D01*
X53728Y4515D02*
X54128Y5315D01*
X53728Y6115D01*
X54528Y5715D01*
X55328Y6115D01*
X54928Y5315D01*
X55328Y4515D01*
X54528Y4915D01*
X53728Y4515D01*
X54128Y4915D02*
X54328Y5315D01*
X54128Y5715D01*
X54528Y5515D01*
X54928Y5715D01*
X54728Y5315D01*
X54928Y4915D01*
X54528Y5115D01*
X54128Y4915D01*
X19476Y5401D02*
X19876Y6201D01*
X19476Y7001D01*
X20276Y6601D01*
X21076Y7001D01*
X20676Y6201D01*
X21076Y5401D01*
X20276Y5801D01*
X19476Y5401D01*
X19876Y5801D02*
X20076Y6201D01*
X19876Y6601D01*
X20276Y6401D01*
X20676Y6601D01*
X20476Y6201D01*
X20676Y5801D01*
X20276Y6001D01*
X19876Y5801D01*
X21050Y9436D02*
X21450Y10236D01*
X21050Y11036D01*
X21850Y10636D01*
X22650Y11036D01*
X22250Y10236D01*
X22650Y9436D01*
X21850Y9836D01*
X21050Y9436D01*
X21450Y9836D02*
X21650Y10236D01*
X21450Y10636D01*
X21850Y10436D01*
X22250Y10636D01*
X22050Y10236D01*
X22250Y9836D01*
X21850Y10036D01*
X21450Y9836D01*
X186995Y130302D02*
X187395Y131102D01*
X186995Y131902D01*
X187795Y131502D01*
X188595Y131902D01*
X188195Y131102D01*
X188595Y130302D01*
X187795Y130702D01*
X186995Y130302D01*
X187395Y130702D02*
X187595Y131102D01*
X187395Y131502D01*
X187795Y131302D01*
X188195Y131502D01*
X187995Y131102D01*
X188195Y130702D01*
X187795Y130902D01*
X187395Y130702D01*
X171011Y99357D02*
X171411Y100157D01*
X171011Y100958D01*
X171811Y100557D01*
X172611Y100958D01*
X172211Y100157D01*
X172611Y99357D01*
X171811Y99757D01*
X171011Y99357D01*
X171411Y99757D02*
X171611Y100157D01*
X171411Y100557D01*
X171811Y100357D01*
X172211Y100557D01*
X172011Y100157D01*
X172211Y99757D01*
X171811Y99958D01*
X171411Y99757D01*
X176365Y99397D02*
X176765Y100197D01*
X176365Y100997D01*
X177165Y100597D01*
X177965Y100997D01*
X177565Y100197D01*
X177965Y99397D01*
X177165Y99797D01*
X176365Y99397D01*
X176765Y99797D02*
X176965Y100197D01*
X176765Y100597D01*
X177165Y100397D01*
X177565Y100597D01*
X177365Y100197D01*
X177565Y99797D01*
X177165Y99997D01*
X176765Y99797D01*
X181916Y99397D02*
X182317Y100197D01*
X181916Y100997D01*
X182717Y100597D01*
X183517Y100997D01*
X183116Y100197D01*
X183517Y99397D01*
X182717Y99797D01*
X181916Y99397D01*
X182317Y99797D02*
X182517Y100197D01*
X182317Y100597D01*
X182717Y100397D01*
X183116Y100597D01*
X182916Y100197D01*
X183116Y99797D01*
X182717Y99997D01*
X182317Y99797D01*
X192704Y183353D02*
X193104Y184153D01*
X192704Y184953D01*
X193504Y184554D01*
X194304Y184953D01*
X193904Y184153D01*
X194304Y183353D01*
X193504Y183754D01*
X192704Y183353D01*
X193104Y183754D02*
X193304Y184153D01*
X193104Y184554D01*
X193504Y184353D01*
X193904Y184554D01*
X193704Y184153D01*
X193904Y183754D01*
X193504Y183953D01*
X193104Y183754D01*
X201434Y186812D02*
X201834Y187612D01*
X201434Y188412D01*
X202234Y188012D01*
X203034Y188412D01*
X202634Y187612D01*
X203034Y186812D01*
X202234Y187212D01*
X201434Y186812D01*
X201834Y187212D02*
X202034Y187612D01*
X201834Y188012D01*
X202234Y187812D01*
X202634Y188012D01*
X202434Y187612D01*
X202634Y187212D01*
X202234Y187412D01*
X201834Y187212D01*
X198745Y188659D02*
X199145Y189459D01*
X198745Y190259D01*
X199545Y189859D01*
X200345Y190259D01*
X199945Y189459D01*
X200345Y188659D01*
X199545Y189059D01*
X198745Y188659D01*
X199145Y189059D02*
X199345Y189459D01*
X199145Y189859D01*
X199545Y189659D01*
X199945Y189859D01*
X199745Y189459D01*
X199945Y189059D01*
X199545Y189259D01*
X199145Y189059D01*
X70466Y190939D02*
Y190539D01*
X71266D01*
Y190939D01*
X71666D01*
Y191739D01*
X71266D01*
Y192139D01*
X70466D01*
Y191739D01*
X70066D01*
Y190939D01*
X70466D01*
X70666Y191139D02*
Y190939D01*
X71066D01*
Y191139D01*
X71266D01*
Y191539D01*
X71066D01*
Y191739D01*
X70666D01*
Y191539D01*
X70466D01*
Y191139D01*
X70666D01*
X66529Y190939D02*
Y190539D01*
X67329D01*
Y190939D01*
X67729D01*
Y191739D01*
X67329D01*
Y192139D01*
X66529D01*
Y191739D01*
X66129D01*
Y190939D01*
X66529D01*
X66729Y191139D02*
Y190939D01*
X67129D01*
Y191139D01*
X67329D01*
Y191539D01*
X67129D01*
Y191739D01*
X66729D01*
Y191539D01*
X66529D01*
Y191139D01*
X66729D01*
X243393Y164456D02*
X243793Y165256D01*
X243393Y166056D01*
X244193Y165656D01*
X244993Y166056D01*
X244593Y165256D01*
X244993Y164456D01*
X244193Y164856D01*
X243393Y164456D01*
X243793Y164856D02*
X243993Y165256D01*
X243793Y165656D01*
X244193Y165456D01*
X244593Y165656D01*
X244393Y165256D01*
X244593Y164856D01*
X244193Y165056D01*
X243793Y164856D01*
X176267Y55696D02*
X176667Y56496D01*
X176267Y57296D01*
X177067Y56896D01*
X177867Y57296D01*
X177467Y56496D01*
X177867Y55696D01*
X177067Y56096D01*
X176267Y55696D01*
X176667Y56096D02*
X176867Y56496D01*
X176667Y56896D01*
X177067Y56696D01*
X177467Y56896D01*
X177267Y56496D01*
X177467Y56096D01*
X177067Y56296D01*
X176667Y56096D01*
X243393Y167212D02*
X243793Y168012D01*
X243393Y168812D01*
X244193Y168412D01*
X244993Y168812D01*
X244593Y168012D01*
X244993Y167212D01*
X244193Y167612D01*
X243393Y167212D01*
X243793Y167612D02*
X243993Y168012D01*
X243793Y168412D01*
X244193Y168212D01*
X244593Y168412D01*
X244393Y168012D01*
X244593Y167612D01*
X244193Y167812D01*
X243793Y167612D01*
X205499Y50775D02*
X205899Y51575D01*
X205499Y52375D01*
X206299Y51975D01*
X207099Y52375D01*
X206699Y51575D01*
X207099Y50775D01*
X206299Y51175D01*
X205499Y50775D01*
X205899Y51175D02*
X206099Y51575D01*
X205899Y51975D01*
X206299Y51775D01*
X206699Y51975D01*
X206499Y51575D01*
X206699Y51175D01*
X206299Y51375D01*
X205899Y51175D01*
X183255Y80204D02*
X183655Y81004D01*
X183255Y81804D01*
X184055Y81404D01*
X184855Y81804D01*
X184455Y81004D01*
X184855Y80204D01*
X184055Y80604D01*
X183255Y80204D01*
X183655Y80604D02*
X183855Y81004D01*
X183655Y81404D01*
X184055Y81204D01*
X184455Y81404D01*
X184255Y81004D01*
X184455Y80604D01*
X184055Y80804D01*
X183655Y80604D01*
X186995Y85913D02*
X187395Y86713D01*
X186995Y87513D01*
X187795Y87113D01*
X188595Y87513D01*
X188195Y86713D01*
X188595Y85913D01*
X187795Y86313D01*
X186995Y85913D01*
X187395Y86313D02*
X187595Y86713D01*
X187395Y87113D01*
X187795Y86913D01*
X188195Y87113D01*
X187995Y86713D01*
X188195Y86313D01*
X187795Y86513D01*
X187395Y86313D01*
X249200Y187586D02*
X249600Y188386D01*
X249200Y189186D01*
X250000Y188786D01*
X250800Y189186D01*
X250400Y188386D01*
X250800Y187586D01*
X250000Y187986D01*
X249200Y187586D01*
X249600Y187986D02*
X249800Y188386D01*
X249600Y188786D01*
X250000Y188586D01*
X250400Y188786D01*
X250200Y188386D01*
X250400Y187986D01*
X250000Y188186D01*
X249600Y187986D01*
X239357Y202350D02*
X239757Y203150D01*
X239357Y203950D01*
X240158Y203550D01*
X240957Y203950D01*
X240558Y203150D01*
X240957Y202350D01*
X240158Y202750D01*
X239357Y202350D01*
X239757Y202750D02*
X239957Y203150D01*
X239757Y203550D01*
X240158Y203350D01*
X240558Y203550D01*
X240357Y203150D01*
X240558Y202750D01*
X240158Y202950D01*
X239757Y202750D01*
X132732Y104042D02*
X133132Y104842D01*
X132732Y105642D01*
X133532Y105243D01*
X134332Y105642D01*
X133932Y104842D01*
X134332Y104042D01*
X133532Y104443D01*
X132732Y104042D01*
X133132Y104443D02*
X133332Y104842D01*
X133132Y105243D01*
X133532Y105043D01*
X133932Y105243D01*
X133732Y104842D01*
X133932Y104443D01*
X133532Y104642D01*
X133132Y104443D01*
X242113Y187586D02*
X242513Y188386D01*
X242113Y189186D01*
X242913Y188786D01*
X243713Y189186D01*
X243313Y188386D01*
X243713Y187586D01*
X242913Y187986D01*
X242113Y187586D01*
X242513Y187986D02*
X242713Y188386D01*
X242513Y188786D01*
X242913Y188586D01*
X243313Y188786D01*
X243113Y188386D01*
X243313Y187986D01*
X242913Y188186D01*
X242513Y187986D01*
X235420Y187586D02*
X235821Y188386D01*
X235420Y189186D01*
X236221Y188786D01*
X237020Y189186D01*
X236620Y188386D01*
X237020Y187586D01*
X236221Y187986D01*
X235420Y187586D01*
X235821Y187986D02*
X236020Y188386D01*
X235821Y188786D01*
X236221Y188586D01*
X236620Y188786D01*
X236420Y188386D01*
X236620Y187986D01*
X236221Y188186D01*
X235821Y187986D01*
X171287Y103531D02*
X171687Y104331D01*
X171287Y105131D01*
X172087Y104731D01*
X172887Y105131D01*
X172487Y104331D01*
X172887Y103531D01*
X172087Y103931D01*
X171287Y103531D01*
X171687Y103931D02*
X171887Y104331D01*
X171687Y104731D01*
X172087Y104531D01*
X172487Y104731D01*
X172287Y104331D01*
X172487Y103931D01*
X172087Y104131D01*
X171687Y103931D01*
X188255Y73728D02*
X188655Y74528D01*
X188255Y75328D01*
X189055Y74928D01*
X189855Y75328D01*
X189455Y74528D01*
X189855Y73728D01*
X189055Y74128D01*
X188255Y73728D01*
X188655Y74128D02*
X188855Y74528D01*
X188655Y74928D01*
X189055Y74728D01*
X189455Y74928D01*
X189255Y74528D01*
X189455Y74128D01*
X189055Y74328D01*
X188655Y74128D01*
X62592Y190939D02*
Y190539D01*
X63392D01*
Y190939D01*
X63792D01*
Y191739D01*
X63392D01*
Y192139D01*
X62592D01*
Y191739D01*
X62192D01*
Y190939D01*
X62592D01*
X62792Y191139D02*
Y190939D01*
X63192D01*
Y191139D01*
X63392D01*
Y191539D01*
X63192D01*
Y191739D01*
X62792D01*
Y191539D01*
X62592D01*
Y191139D01*
X62792D01*
X58655Y190939D02*
Y190539D01*
X59455D01*
Y190939D01*
X59855D01*
Y191739D01*
X59455D01*
Y192139D01*
X58655D01*
Y191739D01*
X58255D01*
Y190939D01*
X58655D01*
X58855Y191139D02*
Y190939D01*
X59255D01*
Y191139D01*
X59455D01*
Y191539D01*
X59255D01*
Y191739D01*
X58855D01*
Y191539D01*
X58655D01*
Y191139D01*
X58855D01*
X58261Y216923D02*
Y216523D01*
X59061D01*
Y216923D01*
X59461D01*
Y217723D01*
X59061D01*
Y218123D01*
X58261D01*
Y217723D01*
X57861D01*
Y216923D01*
X58261D01*
X58461Y217123D02*
Y216923D01*
X58861D01*
Y217123D01*
X59061D01*
Y217523D01*
X58861D01*
Y217723D01*
X58461D01*
Y217523D01*
X58261D01*
Y217123D01*
X58461D01*
X54324Y216923D02*
Y216523D01*
X55124D01*
Y216923D01*
X55524D01*
Y217723D01*
X55124D01*
Y218123D01*
X54324D01*
Y217723D01*
X53924D01*
Y216923D01*
X54324D01*
X54524Y217123D02*
Y216923D01*
X54924D01*
Y217123D01*
X55124D01*
Y217523D01*
X54924D01*
Y217723D01*
X54524D01*
Y217523D01*
X54324D01*
Y217123D01*
X54524D01*
X50387Y216923D02*
Y216523D01*
X51187D01*
Y216923D01*
X51587D01*
Y217723D01*
X51187D01*
Y218123D01*
X50387D01*
Y217723D01*
X49987D01*
Y216923D01*
X50387D01*
X50587Y217123D02*
Y216923D01*
X50987D01*
Y217123D01*
X51187D01*
Y217523D01*
X50987D01*
Y217723D01*
X50587D01*
Y217523D01*
X50387D01*
Y217123D01*
X50587D01*
D183*
X318328Y74622D02*
G03*
X318328Y74622I-800J0D01*
G01*
X332501D02*
G03*
X332501Y74622I-800J0D01*
G01*
X332493Y60457D02*
G03*
X332493Y60457I-800J0D01*
G01*
X261587Y372047D02*
G03*
X261587Y372047I-800J0D01*
G01*
X241587D02*
G03*
X241587Y372047I-800J0D01*
G01*
X211587Y372047D02*
G03*
X211587Y372047I-800J0D01*
G01*
X191587D02*
G03*
X191587Y372047I-800J0D01*
G01*
X22454Y371811D02*
G03*
X22454Y371811I-800J0D01*
G01*
Y351811D02*
G03*
X22454Y351811I-800J0D01*
G01*
D184*
X261187Y372047D02*
G03*
X261187Y372047I-400J0D01*
G01*
X241187D02*
G03*
X241187Y372047I-400J0D01*
G01*
X211187Y372047D02*
G03*
X211187Y372047I-400J0D01*
G01*
X191187D02*
G03*
X191187Y372047I-400J0D01*
G01*
X22053Y371811D02*
G03*
X22053Y371811I-400J0D01*
G01*
Y351811D02*
G03*
X22053Y351811I-400J0D01*
G01*
M02*
