G04*
G04 #@! TF.GenerationSoftware,Altium Limited,Altium Designer,22.2.1 (43)*
G04*
G04 Layer_Color=32768*
%FSLAX25Y25*%
%MOIN*%
G70*
G04*
G04 #@! TF.SameCoordinates,65C05967-714E-454F-997F-66751C825CAB*
G04*
G04*
G04 #@! TF.FilePolarity,Positive*
G04*
G01*
G75*
%ADD11C,0.01181*%
%ADD181C,0.03937*%
D11*
X278937Y31398D02*
Y32185D01*
Y28642D02*
Y29429D01*
Y25886D02*
Y26673D01*
X281693Y25886D02*
Y26673D01*
Y28642D02*
Y29429D01*
Y31496D02*
Y32283D01*
Y23130D02*
Y23917D01*
X278937Y23130D02*
Y23917D01*
Y68799D02*
Y69587D01*
Y66043D02*
Y66831D01*
Y63287D02*
Y64075D01*
X281693Y63287D02*
Y64075D01*
Y66043D02*
Y66831D01*
Y68898D02*
Y69685D01*
Y60532D02*
Y61319D01*
X278937Y60532D02*
Y61319D01*
Y97933D02*
Y98721D01*
X281693Y97933D02*
Y98721D01*
Y106299D02*
Y107087D01*
Y103445D02*
Y104232D01*
Y100689D02*
Y101476D01*
X278937Y100689D02*
Y101476D01*
Y103445D02*
Y104232D01*
Y106201D02*
Y106988D01*
D181*
X280315Y19980D02*
X280413Y-197D01*
X280315Y35335D02*
Y46358D01*
Y72736D02*
Y83760D01*
Y46358D02*
Y57382D01*
Y83760D02*
Y94784D01*
Y114173D02*
Y125197D01*
M02*
