G04*
G04 #@! TF.GenerationSoftware,Altium Limited,Altium Designer,22.2.1 (43)*
G04*
G04 Layer_Physical_Order=4*
G04 Layer_Color=16711680*
%FSLAX25Y25*%
%MOIN*%
G70*
G04*
G04 #@! TF.SameCoordinates,CC40E7E9-BCCC-4790-90AD-1DA988BBAEE9*
G04*
G04*
G04 #@! TF.FilePolarity,Positive*
G04*
G01*
G75*
%ADD50C,0.21654*%
%ADD52C,0.02000*%
%ADD55C,0.01500*%
%ADD57R,0.07874X0.06299*%
%ADD58O,0.07874X0.06299*%
%ADD59C,0.03937*%
%ADD60C,0.02362*%
%ADD61C,0.01968*%
G36*
X428879Y363768D02*
X431730Y363201D01*
X434483Y362267D01*
X437091Y360981D01*
X439508Y359366D01*
X441694Y357449D01*
X443611Y355263D01*
X445226Y352845D01*
X446512Y350238D01*
X447446Y347485D01*
X448014Y344633D01*
X448171Y342229D01*
X448179Y341732D01*
D01*
X448179Y341239D01*
X448179Y241732D01*
X448203Y241613D01*
X448020Y238831D01*
X447453Y235980D01*
X446519Y233227D01*
X445233Y230619D01*
X443617Y228202D01*
X441701Y226016D01*
X439515Y224099D01*
X437097Y222484D01*
X434490Y221198D01*
X431737Y220263D01*
X428885Y219696D01*
X426104Y219514D01*
X425984Y219538D01*
X219291Y219538D01*
X219172Y219514D01*
X216390Y219696D01*
X213539Y220263D01*
X210786Y221198D01*
X208178Y222484D01*
X205761Y224099D01*
X203575Y226016D01*
X201658Y228202D01*
X200043Y230619D01*
X198757Y233227D01*
X197822Y235980D01*
X197255Y238831D01*
X197071Y241638D01*
X197090Y241732D01*
X197097Y341732D01*
X197097Y341732D01*
X197097Y341732D01*
X197073Y341852D01*
X197255Y344633D01*
X197822Y347485D01*
X198757Y350238D01*
X200043Y352845D01*
X201658Y355263D01*
X203575Y357449D01*
X205761Y359366D01*
X208178Y360981D01*
X210786Y362267D01*
X213539Y363201D01*
X216390Y363768D01*
X219172Y363951D01*
X219291Y363927D01*
X425978Y363927D01*
X426097Y363951D01*
X428879Y363768D01*
D02*
G37*
%LPC*%
G36*
X214098Y358193D02*
Y347957D01*
X224335D01*
X224134Y349226D01*
X223559Y350997D01*
X222714Y352655D01*
X221619Y354161D01*
X220303Y355478D01*
X218797Y356572D01*
X217138Y357417D01*
X215368Y357992D01*
X214098Y358193D01*
D02*
G37*
G36*
X211098D02*
X209829Y357992D01*
X208059Y357417D01*
X206400Y356572D01*
X204894Y355478D01*
X203577Y354161D01*
X202483Y352655D01*
X201638Y350997D01*
X201063Y349226D01*
X200862Y347957D01*
X211098D01*
Y358193D01*
D02*
G37*
G36*
X432996Y358193D02*
Y347957D01*
X443233D01*
X443032Y349226D01*
X442456Y350997D01*
X441611Y352655D01*
X440517Y354161D01*
X439201Y355478D01*
X437695Y356572D01*
X436036Y357417D01*
X434266Y357992D01*
X432996Y358193D01*
D02*
G37*
G36*
X429996D02*
X428727Y357992D01*
X426956Y357417D01*
X425297Y356572D01*
X423791Y355478D01*
X422475Y354161D01*
X421381Y352655D01*
X420536Y350997D01*
X419960Y349226D01*
X419759Y347957D01*
X429996D01*
Y358193D01*
D02*
G37*
G36*
X224335Y344957D02*
X214098D01*
Y334720D01*
X215368Y334921D01*
X217138Y335496D01*
X218797Y336342D01*
X220303Y337436D01*
X221619Y338752D01*
X222714Y340258D01*
X223559Y341917D01*
X224134Y343687D01*
X224335Y344957D01*
D02*
G37*
G36*
X211098D02*
X200862D01*
X201063Y343687D01*
X201638Y341917D01*
X202483Y340258D01*
X203577Y338752D01*
X204894Y337436D01*
X206400Y336342D01*
X208059Y335496D01*
X209829Y334921D01*
X211098Y334720D01*
Y344957D01*
D02*
G37*
G36*
X443233Y344957D02*
X432996D01*
Y334720D01*
X434266Y334921D01*
X436036Y335496D01*
X437695Y336342D01*
X439201Y337436D01*
X440517Y338752D01*
X441611Y340258D01*
X442456Y341917D01*
X443032Y343687D01*
X443233Y344957D01*
D02*
G37*
G36*
X429996D02*
X419759D01*
X419960Y343687D01*
X420536Y341917D01*
X421381Y340258D01*
X422475Y338752D01*
X423791Y337436D01*
X425297Y336342D01*
X426956Y335496D01*
X428727Y334921D01*
X429996Y334720D01*
Y344957D01*
D02*
G37*
G36*
X298406Y316845D02*
X297657D01*
X297169Y316643D01*
X271260D01*
X270616Y316515D01*
X270070Y316150D01*
X253004Y299084D01*
X213529D01*
X213380Y299444D01*
X212731Y300290D01*
X211885Y300939D01*
X210900Y301347D01*
X209842Y301486D01*
X208268D01*
X207211Y301347D01*
X206225Y300939D01*
X205380Y300290D01*
X204730Y299444D01*
X204322Y298459D01*
X204183Y297402D01*
X204322Y296344D01*
X204730Y295359D01*
X205380Y294513D01*
X206225Y293864D01*
X207211Y293456D01*
X208268Y293317D01*
X209842D01*
X210900Y293456D01*
X211885Y293864D01*
X212731Y294513D01*
X213380Y295359D01*
X213529Y295719D01*
X253701D01*
X254345Y295847D01*
X254890Y296212D01*
X271957Y313278D01*
X297169D01*
X297657Y313076D01*
X298406D01*
X299099Y313363D01*
X299629Y313893D01*
X299916Y314586D01*
Y315335D01*
X299629Y316028D01*
X299099Y316558D01*
X298406Y316845D01*
D02*
G37*
G36*
X298031Y327134D02*
X265354D01*
X264613Y326987D01*
X263984Y326567D01*
X246757Y309339D01*
X213892D01*
Y311451D01*
X204218D01*
Y303352D01*
X213892D01*
Y305464D01*
X247559D01*
X248300Y305612D01*
X248929Y306032D01*
X266157Y323260D01*
X298031D01*
X298298Y323313D01*
X298406D01*
X298506Y323354D01*
X298773Y323407D01*
X298999Y323558D01*
X299099Y323600D01*
X299176Y323676D01*
X299401Y323827D01*
X299552Y324053D01*
X299629Y324130D01*
X299670Y324230D01*
X299821Y324455D01*
X299874Y324722D01*
X299916Y324822D01*
Y324931D01*
X299969Y325197D01*
X299916Y325463D01*
Y325572D01*
X299874Y325672D01*
X299821Y325938D01*
X299670Y326164D01*
X299629Y326264D01*
X299552Y326341D01*
X299401Y326567D01*
X299176Y326717D01*
X299099Y326794D01*
X298999Y326836D01*
X298773Y326987D01*
X298506Y327040D01*
X298406Y327081D01*
X298298D01*
X298031Y327134D01*
D02*
G37*
G36*
X278367Y300408D02*
X277539D01*
X276774Y300091D01*
X276188Y299506D01*
X275872Y298741D01*
Y297913D01*
X276188Y297148D01*
X276774Y296563D01*
X277539Y296246D01*
X278367D01*
X279132Y296563D01*
X279717Y297148D01*
X280034Y297913D01*
Y298741D01*
X279717Y299506D01*
X279132Y300091D01*
X278367Y300408D01*
D02*
G37*
G36*
X414354Y288472D02*
X413526D01*
X412761Y288156D01*
X412175Y287570D01*
X411859Y286805D01*
Y285977D01*
X412175Y285212D01*
X412761Y284627D01*
X413526Y284310D01*
X414354D01*
X415119Y284627D01*
X415704Y285212D01*
X416021Y285977D01*
Y286805D01*
X415704Y287570D01*
X415119Y288156D01*
X414354Y288472D01*
D02*
G37*
G36*
X209842Y291486D02*
X208268D01*
X207211Y291347D01*
X206225Y290939D01*
X205380Y290290D01*
X204730Y289444D01*
X204322Y288459D01*
X204183Y287402D01*
X204322Y286344D01*
X204730Y285359D01*
X205380Y284513D01*
X206225Y283864D01*
X207211Y283456D01*
X208268Y283317D01*
X209842D01*
X210900Y283456D01*
X211885Y283864D01*
X212731Y284513D01*
X213380Y285359D01*
X213788Y286344D01*
X213927Y287402D01*
X213788Y288459D01*
X213380Y289444D01*
X212731Y290290D01*
X211885Y290939D01*
X210900Y291347D01*
X209842Y291486D01*
D02*
G37*
G36*
X210555Y281493D02*
Y278902D01*
X213713D01*
X213467Y279494D01*
X212802Y280361D01*
X211935Y281026D01*
X210926Y281444D01*
X210555Y281493D01*
D02*
G37*
G36*
X207555D02*
X207185Y281444D01*
X206175Y281026D01*
X205308Y280361D01*
X204643Y279494D01*
X204398Y278902D01*
X207555D01*
Y281493D01*
D02*
G37*
G36*
X248409Y280034D02*
X247654D01*
X246924Y279838D01*
X246270Y279461D01*
X245736Y278927D01*
X245358Y278273D01*
X245163Y277543D01*
Y276788D01*
X245358Y276058D01*
X245736Y275404D01*
X246270Y274870D01*
X246924Y274492D01*
X247654Y274297D01*
X248409D01*
X249139Y274492D01*
X249793Y274870D01*
X250327Y275404D01*
X250705Y276058D01*
X250900Y276788D01*
Y277543D01*
X250705Y278273D01*
X250327Y278927D01*
X249793Y279461D01*
X249139Y279838D01*
X248409Y280034D01*
D02*
G37*
G36*
X213713Y275902D02*
X210555D01*
Y273310D01*
X210926Y273359D01*
X211935Y273777D01*
X212802Y274442D01*
X213467Y275309D01*
X213713Y275902D01*
D02*
G37*
G36*
X207555D02*
X204398D01*
X204643Y275309D01*
X205308Y274442D01*
X206175Y273777D01*
X207185Y273359D01*
X207555Y273310D01*
Y275902D01*
D02*
G37*
G36*
X249532Y260042D02*
Y258980D01*
X250593D01*
X250407Y259303D01*
X249854Y259856D01*
X249532Y260042D01*
D02*
G37*
G36*
X246532Y260042D02*
X246209Y259856D01*
X245656Y259303D01*
X245470Y258980D01*
X246532D01*
Y260042D01*
D02*
G37*
G36*
Y255980D02*
X245470D01*
X245656Y255658D01*
X246209Y255105D01*
X246532Y254919D01*
Y255980D01*
D02*
G37*
G36*
X250593D02*
X249532D01*
Y254919D01*
X249854Y255105D01*
X250407Y255658D01*
X250593Y255980D01*
D02*
G37*
G36*
X369902Y253853D02*
X369074D01*
X368309Y253536D01*
X367724Y252951D01*
X367407Y252186D01*
Y251358D01*
X367724Y250593D01*
X368309Y250007D01*
X369074Y249691D01*
X369902D01*
X370667Y250007D01*
X371252Y250593D01*
X371569Y251358D01*
Y252186D01*
X371252Y252951D01*
X370667Y253536D01*
X369902Y253853D01*
D02*
G37*
G36*
X432996Y248351D02*
Y238114D01*
X443233D01*
X443032Y239384D01*
X442456Y241154D01*
X441611Y242813D01*
X440517Y244319D01*
X439201Y245635D01*
X437695Y246729D01*
X436036Y247574D01*
X434266Y248150D01*
X432996Y248351D01*
D02*
G37*
G36*
X429996D02*
X428727Y248150D01*
X426956Y247574D01*
X425297Y246729D01*
X423791Y245635D01*
X422475Y244319D01*
X421381Y242813D01*
X420536Y241154D01*
X419960Y239384D01*
X419760Y238114D01*
X429996D01*
Y248351D01*
D02*
G37*
G36*
X214098D02*
Y238114D01*
X224335D01*
X224134Y239384D01*
X223559Y241154D01*
X222714Y242813D01*
X221619Y244319D01*
X220303Y245635D01*
X218797Y246729D01*
X217138Y247574D01*
X215368Y248150D01*
X214098Y248351D01*
D02*
G37*
G36*
X211098D02*
X209829Y248150D01*
X208059Y247574D01*
X206400Y246729D01*
X204894Y245635D01*
X203577Y244319D01*
X202483Y242813D01*
X201638Y241154D01*
X201063Y239384D01*
X200862Y238114D01*
X211098D01*
Y248351D01*
D02*
G37*
G36*
X443233Y235114D02*
X432996D01*
Y224878D01*
X434266Y225079D01*
X436036Y225654D01*
X437695Y226499D01*
X439201Y227593D01*
X440517Y228909D01*
X441611Y230416D01*
X442456Y232074D01*
X443032Y233845D01*
X443233Y235114D01*
D02*
G37*
G36*
X429996D02*
X419760D01*
X419960Y233845D01*
X420536Y232074D01*
X421381Y230416D01*
X422475Y228909D01*
X423791Y227593D01*
X425297Y226499D01*
X426956Y225654D01*
X428727Y225079D01*
X429996Y224878D01*
Y235114D01*
D02*
G37*
G36*
X224335D02*
X214098D01*
Y224878D01*
X215368Y225079D01*
X217138Y225654D01*
X218797Y226499D01*
X220303Y227593D01*
X221619Y228909D01*
X222714Y230416D01*
X223559Y232074D01*
X224134Y233845D01*
X224335Y235114D01*
D02*
G37*
G36*
X211098D02*
X200862D01*
X201063Y233845D01*
X201638Y232074D01*
X202483Y230416D01*
X203577Y228909D01*
X204894Y227593D01*
X206400Y226499D01*
X208059Y225654D01*
X209829Y225079D01*
X211098Y224878D01*
Y235114D01*
D02*
G37*
%LPD*%
G36*
X212606Y298755D02*
X212660Y298628D01*
X212750Y298516D01*
X212877Y298419D01*
X213039Y298338D01*
X213238Y298271D01*
X213473Y298219D01*
X213744Y298181D01*
X214051Y298159D01*
X214394Y298152D01*
Y296652D01*
X214051Y296644D01*
X213473Y296585D01*
X213238Y296533D01*
X213039Y296465D01*
X212877Y296384D01*
X212750Y296287D01*
X212660Y296175D01*
X212606Y296049D01*
X212588Y295907D01*
Y298896D01*
X212606Y298755D01*
D02*
G37*
G36*
X212988Y309212D02*
X213049Y309042D01*
X213149Y308892D01*
X213290Y308762D01*
X213471Y308652D01*
X213692Y308562D01*
X213954Y308492D01*
X214256Y308442D01*
X214598Y308412D01*
X214980Y308402D01*
Y306402D01*
X214598Y306392D01*
X214256Y306362D01*
X213954Y306312D01*
X213692Y306242D01*
X213471Y306152D01*
X213290Y306042D01*
X213149Y305912D01*
X213049Y305762D01*
X212988Y305592D01*
X212968Y305402D01*
Y309402D01*
X212988Y309212D01*
D02*
G37*
D50*
X212598Y236614D02*
D03*
Y346457D02*
D03*
X431496Y236614D02*
D03*
X431496Y346457D02*
D03*
D52*
X247559Y307402D02*
X265354Y325197D01*
X209055Y307402D02*
X247559D01*
X265354Y325197D02*
X298031D01*
D55*
X271260Y314961D02*
X298031D01*
X253701Y297402D02*
X271260Y314961D01*
X209055Y297402D02*
X253701D01*
D57*
X209055Y307402D02*
D03*
D58*
Y297402D02*
D03*
Y287402D02*
D03*
Y277402D02*
D03*
D59*
X248031Y277165D02*
D03*
Y257480D02*
D03*
D60*
X369488Y251772D02*
D03*
X413940Y286391D02*
D03*
X247244Y245669D02*
D03*
X228346Y248425D02*
D03*
X233858Y301181D02*
D03*
X218898Y281890D02*
D03*
X222441Y328346D02*
D03*
X223622Y318898D02*
D03*
X238583Y321260D02*
D03*
X253543Y321654D02*
D03*
X281496Y320472D02*
D03*
X257480Y310236D02*
D03*
X271260Y300787D02*
D03*
X261417Y277953D02*
D03*
X265354Y258661D02*
D03*
X228346Y274410D02*
D03*
X229134Y261024D02*
D03*
X422835Y284252D02*
D03*
X425197Y256693D02*
D03*
X419685Y253543D02*
D03*
X387402Y272047D02*
D03*
X390945Y281890D02*
D03*
X378346Y330315D02*
D03*
X379134Y320472D02*
D03*
X384646Y301969D02*
D03*
X379921Y291339D02*
D03*
X381102Y277165D02*
D03*
X309842Y262598D02*
D03*
X300787Y289370D02*
D03*
Y300787D02*
D03*
X301575Y309055D02*
D03*
X302362Y319291D02*
D03*
X366535Y266535D02*
D03*
X348425D02*
D03*
X357480D02*
D03*
X330315D02*
D03*
X339370D02*
D03*
X321260D02*
D03*
X340158Y282677D02*
D03*
Y273622D02*
D03*
Y300787D02*
D03*
Y291732D02*
D03*
Y318898D02*
D03*
Y309842D02*
D03*
Y327953D02*
D03*
X357874Y282677D02*
D03*
Y273622D02*
D03*
Y300787D02*
D03*
Y291732D02*
D03*
Y318898D02*
D03*
Y309842D02*
D03*
Y327953D02*
D03*
X321260Y282677D02*
D03*
Y273622D02*
D03*
Y300787D02*
D03*
Y291732D02*
D03*
Y318898D02*
D03*
Y309842D02*
D03*
Y327953D02*
D03*
X300394Y268504D02*
D03*
Y277559D02*
D03*
Y259449D02*
D03*
X304331Y251181D02*
D03*
X295276D02*
D03*
X322441D02*
D03*
X313386D02*
D03*
Y243307D02*
D03*
X322441D02*
D03*
X295276D02*
D03*
X304331D02*
D03*
X277165D02*
D03*
X286221D02*
D03*
X366535Y339370D02*
D03*
X348425D02*
D03*
X357480D02*
D03*
X330315D02*
D03*
X339370D02*
D03*
X312205D02*
D03*
X321260D02*
D03*
X303150D02*
D03*
X295013Y331569D02*
D03*
X276903D02*
D03*
X285958D02*
D03*
X258793D02*
D03*
X267848D02*
D03*
X240683D02*
D03*
X249738D02*
D03*
X231496Y331890D02*
D03*
X294620Y339443D02*
D03*
X276509D02*
D03*
X285565D02*
D03*
X258399D02*
D03*
X267454D02*
D03*
X240289D02*
D03*
X249344D02*
D03*
X231102Y339764D02*
D03*
X377165Y264567D02*
D03*
X386221D02*
D03*
Y257087D02*
D03*
X377165D02*
D03*
X376772Y242913D02*
D03*
X394882D02*
D03*
X385827D02*
D03*
X412992D02*
D03*
X403937D02*
D03*
Y250394D02*
D03*
X412992D02*
D03*
X385827D02*
D03*
X394882D02*
D03*
X376772D02*
D03*
X401181Y321654D02*
D03*
X393701D02*
D03*
X387008D02*
D03*
X400000Y309842D02*
D03*
X393307D02*
D03*
X380315D02*
D03*
X387008D02*
D03*
X395276Y293701D02*
D03*
X407480Y293307D02*
D03*
X422441Y293701D02*
D03*
X424016Y310236D02*
D03*
X424409Y320866D02*
D03*
X423228Y328740D02*
D03*
X422835Y300787D02*
D03*
X404724D02*
D03*
X413779D02*
D03*
X395669D02*
D03*
X394882Y329528D02*
D03*
X385827D02*
D03*
X412992D02*
D03*
X403937D02*
D03*
X403543Y337402D02*
D03*
X412598D02*
D03*
X385433D02*
D03*
X394488D02*
D03*
X376378D02*
D03*
X205512Y254331D02*
D03*
X205833Y263517D02*
D03*
X213313D02*
D03*
X212992Y254331D02*
D03*
X205906Y319685D02*
D03*
X206226Y328872D02*
D03*
X213707D02*
D03*
X213386Y319685D02*
D03*
X232083Y235745D02*
D03*
X250324Y235424D02*
D03*
X241269D02*
D03*
X268435D02*
D03*
X259380D02*
D03*
X286545D02*
D03*
X277490D02*
D03*
X304655D02*
D03*
X295600D02*
D03*
X322765D02*
D03*
X313710D02*
D03*
X340876D02*
D03*
X331820D02*
D03*
X358986D02*
D03*
X349931D02*
D03*
X377096D02*
D03*
X368041D02*
D03*
X395206D02*
D03*
X386151D02*
D03*
X413316D02*
D03*
X404261D02*
D03*
Y227944D02*
D03*
X413316D02*
D03*
X386151D02*
D03*
X395206D02*
D03*
X368041D02*
D03*
X377096D02*
D03*
X349931D02*
D03*
X358986D02*
D03*
X331820D02*
D03*
X340876D02*
D03*
X313710D02*
D03*
X322765D02*
D03*
X295600D02*
D03*
X304655D02*
D03*
X277490D02*
D03*
X286545D02*
D03*
X259380D02*
D03*
X268435D02*
D03*
X241269D02*
D03*
X250324D02*
D03*
X232083Y228265D02*
D03*
X431496Y264961D02*
D03*
Y255906D02*
D03*
Y283071D02*
D03*
Y274016D02*
D03*
Y301181D02*
D03*
Y292126D02*
D03*
Y319291D02*
D03*
Y310236D02*
D03*
Y328346D02*
D03*
X438976D02*
D03*
Y310236D02*
D03*
Y319291D02*
D03*
Y292126D02*
D03*
Y301181D02*
D03*
Y274016D02*
D03*
Y283071D02*
D03*
Y255906D02*
D03*
Y264961D02*
D03*
X231102Y347244D02*
D03*
X249344Y346923D02*
D03*
X240289D02*
D03*
X267454D02*
D03*
X258399D02*
D03*
X285565D02*
D03*
X276510D02*
D03*
X303675D02*
D03*
X294620D02*
D03*
X321785D02*
D03*
X312730D02*
D03*
X339895D02*
D03*
X330840D02*
D03*
X358006D02*
D03*
X348951D02*
D03*
X376116D02*
D03*
X367061D02*
D03*
X394226D02*
D03*
X385171D02*
D03*
X412336D02*
D03*
X403281D02*
D03*
Y354403D02*
D03*
X412336D02*
D03*
X385171D02*
D03*
X394226D02*
D03*
X367061D02*
D03*
X376116D02*
D03*
X348951D02*
D03*
X358006D02*
D03*
X330840D02*
D03*
X339895D02*
D03*
X312730D02*
D03*
X321785D02*
D03*
X294620D02*
D03*
X303675D02*
D03*
X276510D02*
D03*
X285565D02*
D03*
X258399D02*
D03*
X267454D02*
D03*
X240289D02*
D03*
X249344D02*
D03*
X231102Y354724D02*
D03*
X277953Y298327D02*
D03*
D61*
X298031Y325197D02*
D03*
Y314961D02*
D03*
M02*
