G04*
G04 #@! TF.GenerationSoftware,Altium Limited,Altium Designer,22.3.1 (43)*
G04*
G04 Layer_Physical_Order=4*
G04 Layer_Color=16711680*
%FSLAX25Y25*%
%MOIN*%
G70*
G04*
G04 #@! TF.SameCoordinates,13010D4F-CA40-4925-A7E6-2A4E1DD476F1*
G04*
G04*
G04 #@! TF.FilePolarity,Positive*
G04*
G01*
G75*
%ADD45C,0.21654*%
%ADD50C,0.02000*%
%ADD53C,0.01500*%
%ADD55C,0.08661*%
%ADD56R,0.07874X0.06299*%
%ADD57O,0.07874X0.06299*%
%ADD58C,0.02362*%
G36*
X216280Y127154D02*
X219132Y126587D01*
X221885Y125652D01*
X224492Y124367D01*
X226910Y122751D01*
X229096Y120834D01*
X231013Y118649D01*
X232628Y116231D01*
X233914Y113624D01*
X234848Y110871D01*
X235415Y108019D01*
X235573Y105615D01*
X235580Y105118D01*
D01*
X235580Y104624D01*
X235580Y5118D01*
X235604Y4999D01*
X235422Y2217D01*
X234855Y-635D01*
X233920Y-3387D01*
X232634Y-5995D01*
X231019Y-8412D01*
X229102Y-10598D01*
X226916Y-12515D01*
X224499Y-14130D01*
X221891Y-15416D01*
X219138Y-16351D01*
X216287Y-16918D01*
X213505Y-17100D01*
X213386Y-17076D01*
X6693Y-17076D01*
X6574Y-17100D01*
X3792Y-16918D01*
X940Y-16351D01*
X-1813Y-15416D01*
X-4420Y-14130D01*
X-6837Y-12515D01*
X-9023Y-10598D01*
X-10940Y-8412D01*
X-12555Y-5995D01*
X-13841Y-3387D01*
X-14776Y-635D01*
X-15343Y2217D01*
X-15527Y5023D01*
X-15508Y5118D01*
X-15502Y105118D01*
X-15502Y105118D01*
X-15502Y105118D01*
X-15526Y105237D01*
X-15343Y108019D01*
X-14776Y110871D01*
X-13841Y113624D01*
X-12555Y116231D01*
X-10940Y118649D01*
X-9023Y120834D01*
X-6837Y122751D01*
X-4420Y124367D01*
X-1813Y125652D01*
X940Y126587D01*
X3792Y127154D01*
X6573Y127337D01*
X6693Y127313D01*
X213379Y127313D01*
X213499Y127337D01*
X216280Y127154D01*
D02*
G37*
%LPC*%
G36*
X85847Y90664D02*
X85019D01*
X84672Y90520D01*
X52756D01*
X52015Y90372D01*
X51386Y89952D01*
X34158Y72725D01*
X1294D01*
Y74837D01*
X-8380D01*
Y66738D01*
X1294D01*
Y68850D01*
X34961D01*
X35702Y68998D01*
X36330Y69418D01*
X53558Y86646D01*
X84672D01*
X85019Y86502D01*
X85847D01*
X86612Y86818D01*
X87197Y87404D01*
X87514Y88169D01*
Y88997D01*
X87197Y89762D01*
X86612Y90347D01*
X85847Y90664D01*
D02*
G37*
G36*
Y80428D02*
X85019D01*
X84254Y80111D01*
X84172Y80029D01*
X58661D01*
X58018Y79901D01*
X57472Y79536D01*
X40405Y62470D01*
X931D01*
X781Y62830D01*
X132Y63676D01*
X-714Y64325D01*
X-1699Y64733D01*
X-2756Y64872D01*
X-4331D01*
X-5388Y64733D01*
X-6373Y64325D01*
X-7219Y63676D01*
X-7868Y62830D01*
X-8276Y61845D01*
X-8415Y60787D01*
X-8276Y59730D01*
X-7868Y58745D01*
X-7219Y57899D01*
X-6373Y57250D01*
X-5388Y56842D01*
X-4331Y56703D01*
X-2756D01*
X-1699Y56842D01*
X-714Y57250D01*
X132Y57899D01*
X781Y58745D01*
X931Y59105D01*
X41102D01*
X41746Y59233D01*
X42292Y59598D01*
X59358Y76664D01*
X84172D01*
X84254Y76582D01*
X85019Y76265D01*
X85847D01*
X86612Y76582D01*
X87197Y77168D01*
X87514Y77933D01*
Y78760D01*
X87197Y79525D01*
X86612Y80111D01*
X85847Y80428D01*
D02*
G37*
G36*
X65768Y63794D02*
X64940D01*
X64175Y63477D01*
X63590Y62891D01*
X63273Y62127D01*
Y61299D01*
X63590Y60534D01*
X64175Y59948D01*
X64940Y59632D01*
X65768D01*
X66533Y59948D01*
X67119Y60534D01*
X67435Y61299D01*
Y62127D01*
X67119Y62891D01*
X66533Y63477D01*
X65768Y63794D01*
D02*
G37*
G36*
X201755Y51858D02*
X200927D01*
X200162Y51541D01*
X199577Y50956D01*
X199260Y50191D01*
Y49363D01*
X199577Y48598D01*
X200162Y48013D01*
X200927Y47696D01*
X201755D01*
X202520Y48013D01*
X203105Y48598D01*
X203422Y49363D01*
Y50191D01*
X203105Y50956D01*
X202520Y51541D01*
X201755Y51858D01*
D02*
G37*
G36*
X-2756Y54872D02*
X-4331D01*
X-5388Y54733D01*
X-6373Y54325D01*
X-7219Y53676D01*
X-7868Y52830D01*
X-8276Y51845D01*
X-8415Y50787D01*
X-8276Y49730D01*
X-7868Y48745D01*
X-7219Y47899D01*
X-6373Y47250D01*
X-5388Y46842D01*
X-4331Y46703D01*
X-2756D01*
X-1699Y46842D01*
X-714Y47250D01*
X132Y47899D01*
X781Y48745D01*
X1190Y49730D01*
X1329Y50787D01*
X1190Y51845D01*
X781Y52830D01*
X132Y53676D01*
X-714Y54325D01*
X-1699Y54733D01*
X-2756Y54872D01*
D02*
G37*
G36*
X73032Y37992D02*
X71684D01*
Y34604D01*
X73032D01*
Y35154D01*
Y37992D01*
D02*
G37*
G36*
X35138Y41845D02*
X33760D01*
X32430Y41488D01*
X31237Y40800D01*
X30263Y39826D01*
X29575Y38633D01*
X29218Y37303D01*
Y35925D01*
X29575Y34595D01*
X30263Y33402D01*
X31237Y32429D01*
X32430Y31740D01*
X33760Y31383D01*
X35138D01*
X36468Y31740D01*
X37661Y32429D01*
X38634Y33402D01*
X39323Y34595D01*
X39680Y35925D01*
Y37303D01*
X39323Y38633D01*
X38634Y39826D01*
X37661Y40800D01*
X36468Y41488D01*
X35138Y41845D01*
D02*
G37*
G36*
X157304Y17239D02*
X156476D01*
X155711Y16922D01*
X155125Y16336D01*
X154809Y15571D01*
Y14743D01*
X155125Y13979D01*
X155711Y13393D01*
X156476Y13076D01*
X157304D01*
X158069Y13393D01*
X158654Y13979D01*
X158971Y14743D01*
Y15571D01*
X158654Y16336D01*
X158069Y16922D01*
X157304Y17239D01*
D02*
G37*
%LPD*%
G36*
X390Y72597D02*
X450Y72427D01*
X551Y72277D01*
X692Y72147D01*
X873Y72037D01*
X1094Y71947D01*
X1356Y71877D01*
X1657Y71827D01*
X1999Y71797D01*
X2382Y71787D01*
Y69787D01*
X1999Y69777D01*
X1657Y69747D01*
X1356Y69697D01*
X1094Y69627D01*
X873Y69537D01*
X692Y69427D01*
X551Y69297D01*
X450Y69147D01*
X390Y68977D01*
X370Y68787D01*
Y72787D01*
X390Y72597D01*
D02*
G37*
G36*
X8Y62140D02*
X62Y62014D01*
X152Y61902D01*
X278Y61805D01*
X441Y61724D01*
X640Y61656D01*
X874Y61604D01*
X1145Y61567D01*
X1452Y61545D01*
X1795Y61537D01*
Y60037D01*
X1452Y60030D01*
X874Y59970D01*
X640Y59918D01*
X441Y59851D01*
X278Y59769D01*
X152Y59673D01*
X62Y59561D01*
X8Y59434D01*
X-11Y59293D01*
Y62282D01*
X8Y62140D01*
D02*
G37*
D45*
X218898Y109843D02*
D03*
X0Y109843D02*
D03*
Y0D02*
D03*
X218898D02*
D03*
D50*
X34961Y70787D02*
X52756Y88583D01*
X-3543Y70787D02*
X34961D01*
X52756Y88583D02*
X85433D01*
D53*
X58661Y78347D02*
X85433D01*
X41102Y60787D02*
X58661Y78347D01*
X-3543Y60787D02*
X41102D01*
D55*
X34449Y16929D02*
D03*
Y36614D02*
D03*
D56*
X-3543Y70787D02*
D03*
D57*
Y60787D02*
D03*
Y50787D02*
D03*
Y40787D02*
D03*
D58*
X67716Y18110D02*
D03*
X79331Y72047D02*
D03*
X72736D02*
D03*
X63484Y70965D02*
D03*
X23228Y54429D02*
D03*
X15551Y47835D02*
D03*
X25984Y65158D02*
D03*
X38189Y66339D02*
D03*
X52953Y80610D02*
D03*
X58169Y52362D02*
D03*
X48031Y56890D02*
D03*
X57776Y36122D02*
D03*
X39764Y48327D02*
D03*
X22441Y45177D02*
D03*
X43012Y22835D02*
D03*
X45276Y10630D02*
D03*
X23425Y11024D02*
D03*
X28051Y25984D02*
D03*
X156890Y15157D02*
D03*
X201341Y49777D02*
D03*
X34646Y9055D02*
D03*
X15748Y11811D02*
D03*
X21260Y64567D02*
D03*
X6299Y45276D02*
D03*
X9843Y91732D02*
D03*
X11024Y82284D02*
D03*
X25984Y84646D02*
D03*
X40945Y85039D02*
D03*
X68898Y83858D02*
D03*
X44882Y73622D02*
D03*
X58661Y64173D02*
D03*
X48819Y41339D02*
D03*
X52756Y22047D02*
D03*
X15748Y37795D02*
D03*
X16535Y24409D02*
D03*
X210236Y47638D02*
D03*
X212598Y20079D02*
D03*
X207087Y16929D02*
D03*
X174803Y35433D02*
D03*
X178347Y45276D02*
D03*
X165748Y93701D02*
D03*
X166535Y83858D02*
D03*
X172047Y65354D02*
D03*
X167323Y54724D02*
D03*
X168504Y40551D02*
D03*
X97244Y25984D02*
D03*
X88189Y52756D02*
D03*
Y64173D02*
D03*
X88976Y72441D02*
D03*
X89764Y82677D02*
D03*
X153937Y29921D02*
D03*
X135827D02*
D03*
X144882D02*
D03*
X117717D02*
D03*
X126772D02*
D03*
X108661D02*
D03*
X127559Y46063D02*
D03*
Y37008D02*
D03*
Y64173D02*
D03*
Y55118D02*
D03*
Y82284D02*
D03*
Y73228D02*
D03*
Y91339D02*
D03*
X145276Y46063D02*
D03*
Y37008D02*
D03*
Y64173D02*
D03*
Y55118D02*
D03*
Y82284D02*
D03*
Y73228D02*
D03*
Y91339D02*
D03*
X108661Y46063D02*
D03*
Y37008D02*
D03*
Y64173D02*
D03*
Y55118D02*
D03*
Y82284D02*
D03*
Y73228D02*
D03*
Y91339D02*
D03*
X87795Y31890D02*
D03*
Y40945D02*
D03*
Y22835D02*
D03*
X91732Y14567D02*
D03*
X82677D02*
D03*
X109843D02*
D03*
X100787D02*
D03*
Y6693D02*
D03*
X109843D02*
D03*
X82677D02*
D03*
X91732D02*
D03*
X64567D02*
D03*
X73622D02*
D03*
X153937Y102756D02*
D03*
X135827D02*
D03*
X144882D02*
D03*
X117717D02*
D03*
X126772D02*
D03*
X99606D02*
D03*
X108661D02*
D03*
X90551D02*
D03*
X85433Y88583D02*
D03*
Y78347D02*
D03*
X82415Y94955D02*
D03*
X64305D02*
D03*
X73360D02*
D03*
X46195D02*
D03*
X55250D02*
D03*
X28084D02*
D03*
X37139D02*
D03*
X18898Y95276D02*
D03*
X82021Y102829D02*
D03*
X63911D02*
D03*
X72966D02*
D03*
X45801D02*
D03*
X54856D02*
D03*
X27691D02*
D03*
X36746D02*
D03*
X18504Y103150D02*
D03*
X164567Y27953D02*
D03*
X173622D02*
D03*
Y20472D02*
D03*
X164567D02*
D03*
X164173Y6299D02*
D03*
X182283D02*
D03*
X173228D02*
D03*
X200394D02*
D03*
X191339D02*
D03*
Y13780D02*
D03*
X200394D02*
D03*
X173228D02*
D03*
X182283D02*
D03*
X164173D02*
D03*
X188583Y85039D02*
D03*
X181102D02*
D03*
X174409D02*
D03*
X187402Y73228D02*
D03*
X180709D02*
D03*
X167717D02*
D03*
X174409D02*
D03*
X182677Y57087D02*
D03*
X194882Y56693D02*
D03*
X209842Y57087D02*
D03*
X211417Y73622D02*
D03*
X211811Y84252D02*
D03*
X210630Y92126D02*
D03*
X210236Y64173D02*
D03*
X192126D02*
D03*
X201181D02*
D03*
X183071D02*
D03*
X182283Y92913D02*
D03*
X173228D02*
D03*
X200394D02*
D03*
X191339D02*
D03*
X190945Y100787D02*
D03*
X200000D02*
D03*
X172835D02*
D03*
X181890D02*
D03*
X163779D02*
D03*
X-7087Y17717D02*
D03*
X-6766Y26903D02*
D03*
X715D02*
D03*
X394Y17717D02*
D03*
X-6693Y83071D02*
D03*
X-6372Y92258D02*
D03*
X1108D02*
D03*
X787Y83071D02*
D03*
X23687Y-860D02*
D03*
X41929Y-1181D02*
D03*
X32874D02*
D03*
X60039D02*
D03*
X50984D02*
D03*
X78150D02*
D03*
X69095D02*
D03*
X96260D02*
D03*
X87205D02*
D03*
X114370D02*
D03*
X105315D02*
D03*
X132480D02*
D03*
X123425D02*
D03*
X150591D02*
D03*
X141535D02*
D03*
X168701D02*
D03*
X159646D02*
D03*
X186811D02*
D03*
X177756D02*
D03*
X195866D02*
D03*
X191663Y-8670D02*
D03*
X200718D02*
D03*
X173553D02*
D03*
X182608D02*
D03*
X155443D02*
D03*
X164498D02*
D03*
X137332D02*
D03*
X146387D02*
D03*
X119222D02*
D03*
X128277D02*
D03*
X101112D02*
D03*
X110167D02*
D03*
X83002D02*
D03*
X92057D02*
D03*
X64891D02*
D03*
X73946D02*
D03*
X46781D02*
D03*
X55836D02*
D03*
X28671D02*
D03*
X37726D02*
D03*
X19484Y-8349D02*
D03*
X218898Y24114D02*
D03*
Y42224D02*
D03*
Y33169D02*
D03*
Y60335D02*
D03*
Y51279D02*
D03*
Y78445D02*
D03*
Y69390D02*
D03*
Y87500D02*
D03*
X226378Y91732D02*
D03*
Y73622D02*
D03*
Y82677D02*
D03*
Y55512D02*
D03*
Y64567D02*
D03*
Y37402D02*
D03*
Y46457D02*
D03*
Y19291D02*
D03*
Y28346D02*
D03*
X18504Y110630D02*
D03*
X36746Y110309D02*
D03*
X27691D02*
D03*
X54856D02*
D03*
X45801D02*
D03*
X72966D02*
D03*
X63911D02*
D03*
X91076D02*
D03*
X82021D02*
D03*
X109187D02*
D03*
X100132D02*
D03*
X127297D02*
D03*
X118242D02*
D03*
X145407D02*
D03*
X136352D02*
D03*
X163517D02*
D03*
X154462D02*
D03*
X181628D02*
D03*
X172573D02*
D03*
X199738D02*
D03*
X190683D02*
D03*
X186746Y117789D02*
D03*
X195669Y117815D02*
D03*
X168636Y117789D02*
D03*
X177691D02*
D03*
X150525D02*
D03*
X159580D02*
D03*
X132415D02*
D03*
X141470D02*
D03*
X114305D02*
D03*
X123360D02*
D03*
X96195D02*
D03*
X105250D02*
D03*
X78084D02*
D03*
X87139D02*
D03*
X59974D02*
D03*
X69029D02*
D03*
X41864D02*
D03*
X50919D02*
D03*
X23754D02*
D03*
X32809D02*
D03*
X65354Y61713D02*
D03*
M02*
