G04*
G04 #@! TF.GenerationSoftware,Altium Limited,Altium Designer,22.2.1 (43)*
G04*
G04 Layer_Color=8421504*
%FSLAX25Y25*%
%MOIN*%
G70*
G04*
G04 #@! TF.SameCoordinates,CC40E7E9-BCCC-4790-90AD-1DA988BBAEE9*
G04*
G04*
G04 #@! TF.FilePolarity,Positive*
G04*
G01*
G75*
%ADD16R,0.03543X0.05118*%
%ADD17R,0.03347X0.03347*%
%ADD18R,0.02756X0.03543*%
%ADD19R,0.03740X0.03937*%
%ADD20R,0.04134X0.03937*%
%ADD21R,0.08661X0.04134*%
%ADD22R,0.03543X0.03150*%
%ADD23R,0.03819X0.06811*%
%ADD24R,0.05118X0.03150*%
%ADD25R,0.05118X0.04331*%
%ADD26R,0.03150X0.05118*%
%ADD27R,0.05700X0.03000*%
%ADD28R,0.05118X0.03543*%
%ADD29R,0.03937X0.03740*%
D16*
X226181Y300787D02*
D03*
X221063D02*
D03*
X286811Y268898D02*
D03*
X281693D02*
D03*
D17*
X236614Y309055D02*
D03*
X243307D02*
D03*
X406201Y274213D02*
D03*
X399508D02*
D03*
X330118Y260630D02*
D03*
X323425D02*
D03*
D18*
X229724Y309055D02*
D03*
X220669D02*
D03*
D19*
X220472Y293307D02*
D03*
X226772D02*
D03*
X281791Y276279D02*
D03*
X288090D02*
D03*
D20*
X408169Y314961D02*
D03*
D21*
X414173Y320768D02*
D03*
Y309154D02*
D03*
D22*
X289419Y250984D02*
D03*
Y258465D02*
D03*
X281447Y254724D02*
D03*
X414715Y263287D02*
D03*
X406742Y259547D02*
D03*
Y267028D02*
D03*
X344833Y251279D02*
D03*
X336860Y247539D02*
D03*
Y255020D02*
D03*
D23*
X281181Y284252D02*
D03*
X292835D02*
D03*
D24*
X399606Y259449D02*
D03*
Y266929D02*
D03*
X413976Y281004D02*
D03*
Y273524D02*
D03*
X330315Y247047D02*
D03*
Y254528D02*
D03*
X363090Y251673D02*
D03*
Y259154D02*
D03*
D25*
X421358Y273031D02*
D03*
Y263976D02*
D03*
D26*
X398819Y282382D02*
D03*
X406299D02*
D03*
D27*
X353839Y259220D02*
D03*
Y250820D02*
D03*
D28*
X292126Y300984D02*
D03*
Y295866D02*
D03*
D29*
X284055Y295374D02*
D03*
Y301673D02*
D03*
M02*
