G04*
G04 #@! TF.GenerationSoftware,Altium Limited,Altium Designer,22.3.1 (43)*
G04*
G04 Layer_Physical_Order=3*
G04 Layer_Color=128*
%FSLAX25Y25*%
%MOIN*%
G70*
G04*
G04 #@! TF.SameCoordinates,C0C3DF6B-F1DF-4303-8154-4598C75E5984*
G04*
G04*
G04 #@! TF.FilePolarity,Negative*
G04*
G01*
G75*
%ADD27C,0.00787*%
%ADD31C,0.04000*%
%ADD32C,0.10866*%
%ADD33C,0.03780*%
D27*
X57480Y19291D02*
Y41339D01*
Y19291D02*
X58268Y18504D01*
X57480Y41339D02*
X59055Y42913D01*
X58268Y18504D02*
X80315D01*
X82284Y20472D01*
X97539Y69980D02*
Y72441D01*
X87205Y-14567D02*
Y10236D01*
X97539Y20571D01*
Y69980D01*
X82284Y20472D02*
Y41339D01*
X80709Y42913D02*
X82284Y41339D01*
X59055Y42913D02*
X80709D01*
D31*
X-16732Y79D02*
G03*
X79Y-16732I16811J0D01*
G01*
X123369D02*
G03*
X140354Y253I0J16985D01*
G01*
Y55118D02*
G03*
X122736Y72736I-17618J0D01*
G01*
X18D02*
G03*
X-16732Y55986I0J-16751D01*
G01*
X79Y-16732D02*
X123369D01*
X140354Y253D02*
Y55118D01*
X18Y72736D02*
X122736D01*
X-16732Y79D02*
Y55986D01*
D32*
X123622Y0D02*
D03*
X0D02*
D03*
D33*
X60925Y21654D02*
D03*
Y30709D02*
D03*
Y35236D02*
D03*
Y39764D02*
D03*
X65453Y21654D02*
D03*
Y26181D02*
D03*
X69980Y21654D02*
D03*
Y26181D02*
D03*
X74508Y21654D02*
D03*
Y26181D02*
D03*
X79035Y21654D02*
D03*
Y26181D02*
D03*
X60925D02*
D03*
X65453Y30709D02*
D03*
Y35236D02*
D03*
Y39764D02*
D03*
X69980Y30709D02*
D03*
Y35236D02*
D03*
Y39764D02*
D03*
X74508Y30709D02*
D03*
Y35236D02*
D03*
Y39764D02*
D03*
X79035Y30709D02*
D03*
Y35236D02*
D03*
Y39764D02*
D03*
X-9547Y30315D02*
D03*
X-10728Y47638D02*
D03*
X-10335Y9449D02*
D03*
X2264Y14567D02*
D03*
X91634Y13780D02*
D03*
X100689Y64173D02*
D03*
X41240Y59449D02*
D03*
X38484Y67323D02*
D03*
X59350Y66535D02*
D03*
X70768Y66929D02*
D03*
X88090Y64173D02*
D03*
X107382Y57480D02*
D03*
X104232Y31496D02*
D03*
X113681Y28740D02*
D03*
X132579Y30709D02*
D03*
X132972Y43307D02*
D03*
X134547Y9055D02*
D03*
X96752Y-11024D02*
D03*
X110138Y-7480D02*
D03*
X117618Y-11811D02*
D03*
X107087Y-11811D02*
D03*
X86122Y-11024D02*
D03*
X46358Y-11811D02*
D03*
X62894Y-5118D02*
D03*
X74705Y-9843D02*
D03*
X58169D02*
D03*
X49902Y394D02*
D03*
X40846Y-7874D02*
D03*
X23917Y-4724D02*
D03*
X31890Y-11811D02*
D03*
X13287Y-9449D02*
D03*
X16043Y19685D02*
D03*
X20374Y11417D02*
D03*
X17224Y394D02*
D03*
X-492Y26772D02*
D03*
X-8760Y20866D02*
D03*
X-8366Y39370D02*
D03*
X25098Y62992D02*
D03*
X14075Y64567D02*
D03*
X16043Y54724D02*
D03*
X18012Y46063D02*
D03*
X9350Y41732D02*
D03*
X16043Y37402D02*
D03*
X46752Y64173D02*
D03*
X35335Y50000D02*
D03*
X31791Y62598D02*
D03*
X26673Y51181D02*
D03*
X34154Y41339D02*
D03*
X42815Y40157D02*
D03*
X45965Y51968D02*
D03*
X55413Y60630D02*
D03*
X67224Y61024D02*
D03*
X79823Y59842D02*
D03*
X93996Y52756D02*
D03*
X105020Y46850D02*
D03*
X97539Y24016D02*
D03*
X114469Y38189D02*
D03*
X109744Y20472D02*
D03*
X101476Y14173D02*
D03*
X96358Y38189D02*
D03*
X105413Y394D02*
D03*
X101476Y-4724D02*
D03*
X95965D02*
D03*
X90059Y-4331D02*
D03*
X78642Y-3543D02*
D03*
X74311Y-2756D02*
D03*
X84547Y-3543D02*
D03*
X68405Y787D02*
D03*
Y7874D02*
D03*
X53445Y10236D02*
D03*
X46752Y18504D02*
D03*
X37303Y19291D02*
D03*
X30610Y20472D02*
D03*
X124906Y15197D02*
D03*
M02*
