G04*
G04 #@! TF.GenerationSoftware,Altium Limited,Altium Designer,22.3.1 (43)*
G04*
G04 Layer_Color=16711935*
%FSLAX25Y25*%
%MOIN*%
G70*
G04*
G04 #@! TF.SameCoordinates,C0C3DF6B-F1DF-4303-8154-4598C75E5984*
G04*
G04*
G04 #@! TF.FilePolarity,Positive*
G04*
G01*
G75*
%ADD10C,0.00394*%
%ADD34C,0.00591*%
D10*
X131890Y56004D02*
G03*
X131890Y56004I-8268J0D01*
G01*
X8268D02*
G03*
X8268Y56004I-8268J0D01*
G01*
X131890Y0D02*
G03*
X131890Y0I-8268J0D01*
G01*
X8268D02*
G03*
X8268Y0I-8268J0D01*
G01*
X38398Y21602D02*
X38898D01*
X39898D02*
X40823D01*
X38898D02*
X39898D01*
X36161D02*
X38398D01*
X33736D02*
X36161D01*
X33736D02*
Y32508D01*
X40823D01*
Y21602D02*
Y32508D01*
X49823Y21602D02*
Y32508D01*
X42736D02*
X49823D01*
X42736Y21602D02*
Y32508D01*
Y21602D02*
X45161D01*
X47398D01*
X47898D02*
X48898D01*
X49823D01*
X47398D02*
X47898D01*
X97169Y9193D02*
X97669D01*
X95244D02*
X96169D01*
X97169D01*
X97669D02*
X99906D01*
X102331D01*
Y-1713D02*
Y9193D01*
X95244Y-1713D02*
X102331D01*
X95244D02*
Y9193D01*
X87244Y-1654D02*
Y9252D01*
Y-1654D02*
X94331D01*
Y9252D01*
X91905D02*
X94331D01*
X89669D02*
X91905D01*
X88169D02*
X89169D01*
X87244D02*
X88169D01*
X89169D02*
X89669D01*
X37772Y16535D02*
X42358D01*
X36516Y1181D02*
Y16535D01*
X43602Y1181D02*
Y16535D01*
X36516Y1181D02*
X43602D01*
X36516Y16535D02*
X37772D01*
X42358D02*
X43602D01*
X28248Y1575D02*
X34547D01*
Y13386D01*
X28248D02*
X34547D01*
X28248Y1575D02*
Y13386D01*
X56988Y394D02*
X83366D01*
Y43307D01*
X56988Y394D02*
Y43307D01*
X83366D01*
X-7874Y54429D02*
Y56003D01*
X-7349Y55479D01*
X-6825Y56003D01*
Y54429D01*
X-6300Y56003D02*
Y54429D01*
Y55216D01*
X-5250D01*
Y56003D01*
Y54429D01*
X-3676D02*
X-4725D01*
X-3676Y55479D01*
Y55741D01*
X-3938Y56003D01*
X-4463D01*
X-4725Y55741D01*
X-7874Y-1575D02*
Y-0D01*
X-7349Y-525D01*
X-6825Y-0D01*
Y-1575D01*
X-6300Y-0D02*
Y-1575D01*
Y-788D01*
X-5250D01*
Y-0D01*
Y-1575D01*
X-3938D02*
Y-0D01*
X-4725Y-788D01*
X-3676D01*
X115748Y54429D02*
Y56003D01*
X116273Y55479D01*
X116798Y56003D01*
Y54429D01*
X117322Y56003D02*
Y54429D01*
Y55216D01*
X118372D01*
Y56003D01*
Y54429D01*
X118897D02*
X119421D01*
X119159D01*
Y56003D01*
X118897Y55741D01*
X46280Y23964D02*
X45887Y23571D01*
Y22783D01*
X46280Y22390D01*
X47855D01*
X48248Y22783D01*
Y23571D01*
X47855Y23964D01*
X48248Y26326D02*
Y24751D01*
X46674Y26326D01*
X46280D01*
X45887Y25932D01*
Y25145D01*
X46280Y24751D01*
X115748Y-1575D02*
Y-0D01*
X116273Y-525D01*
X116798Y-0D01*
Y-1575D01*
X117322Y-0D02*
Y-1575D01*
Y-788D01*
X118372D01*
Y-0D01*
Y-1575D01*
X118897Y-263D02*
X119159Y-0D01*
X119684D01*
X119946Y-263D01*
Y-525D01*
X119684Y-788D01*
X119421D01*
X119684D01*
X119946Y-1050D01*
Y-1312D01*
X119684Y-1575D01*
X119159D01*
X118897Y-1312D01*
X37280Y23964D02*
X36887Y23571D01*
Y22783D01*
X37280Y22390D01*
X38855D01*
X39248Y22783D01*
Y23571D01*
X38855Y23964D01*
X39248Y24751D02*
Y25538D01*
Y25145D01*
X36887D01*
X37280Y24751D01*
X32972Y2362D02*
X30611D01*
Y3543D01*
X31005Y3937D01*
X31792D01*
X32185Y3543D01*
Y2362D01*
Y3149D02*
X32972Y3937D01*
Y4724D02*
Y5511D01*
Y5117D01*
X30611D01*
X31005Y4724D01*
X98787Y6831D02*
X99180Y7225D01*
Y8012D01*
X98787Y8405D01*
X97212D01*
X96819Y8012D01*
Y7225D01*
X97212Y6831D01*
X98787Y6044D02*
X99180Y5650D01*
Y4863D01*
X98787Y4470D01*
X98393D01*
X98000Y4863D01*
Y5257D01*
Y4863D01*
X97606Y4470D01*
X97212D01*
X96819Y4863D01*
Y5650D01*
X97212Y6044D01*
X40452Y14961D02*
X38091D01*
Y13780D01*
X38484Y13386D01*
X40058D01*
X40452Y13780D01*
Y14961D01*
X38091Y12599D02*
Y11812D01*
Y12206D01*
X40452D01*
X40058Y12599D01*
X90787Y6890D02*
X91180Y7284D01*
Y8071D01*
X90787Y8465D01*
X89213D01*
X88819Y8071D01*
Y7284D01*
X89213Y6890D01*
X88819Y4922D02*
X91180D01*
X90000Y6103D01*
Y4529D01*
D34*
X59547Y19390D02*
Y22538D01*
X61121D01*
X61646Y22014D01*
Y20964D01*
X61121Y20439D01*
X59547D01*
X60597D02*
X61646Y19390D01*
X64795Y22538D02*
X62696D01*
Y19390D01*
X64795D01*
X62696Y20964D02*
X63745D01*
X67944Y22014D02*
X67419Y22538D01*
X66369D01*
X65844Y22014D01*
Y19915D01*
X66369Y19390D01*
X67419D01*
X67944Y19915D01*
Y20964D01*
X66894D01*
X68993Y19390D02*
X70043D01*
X69518D01*
Y22538D01*
X68993Y22014D01*
M02*
