G04*
G04 #@! TF.GenerationSoftware,Altium Limited,Altium Designer,22.3.1 (43)*
G04*
G04 Layer_Color=65535*
%FSLAX25Y25*%
%MOIN*%
G70*
G04*
G04 #@! TF.SameCoordinates,C0C3DF6B-F1DF-4303-8154-4598C75E5984*
G04*
G04*
G04 #@! TF.FilePolarity,Positive*
G04*
G01*
G75*
%ADD10C,0.00394*%
%ADD11C,0.00630*%
%ADD12C,0.01181*%
D10*
X134547Y19685D02*
X136909D01*
Y37402D01*
X135335D02*
X136909D01*
Y32972D02*
Y37205D01*
Y20276D02*
Y24508D01*
X88878Y19685D02*
Y37402D01*
Y19685D02*
X134547D01*
X136909Y24508D02*
Y32972D01*
X88878Y37402D02*
X135335D01*
X33728Y21787D02*
X40831D01*
X33728D02*
Y32441D01*
X40831D01*
Y21787D02*
Y32441D01*
X49831Y21787D02*
Y32441D01*
X42728D02*
X49831D01*
X42728Y21787D02*
Y32441D01*
Y21787D02*
X49831D01*
X95236Y9008D02*
X102339D01*
Y-1646D02*
Y9008D01*
X95236Y-1646D02*
X102339D01*
X95236D02*
Y9008D01*
X87236Y-1587D02*
Y9067D01*
Y-1587D02*
X94339D01*
Y9067D01*
X87236D02*
X94339D01*
X38091Y16535D02*
X42028D01*
X28248Y1575D02*
X34547D01*
Y13386D01*
X28248D02*
X34547D01*
X28248Y1575D02*
Y13386D01*
X68012Y9055D02*
Y13780D01*
Y9055D02*
X71949D01*
Y13780D01*
X56463Y43823D02*
X59169D01*
X56464Y13780D02*
Y25591D01*
Y13780D02*
X83484D01*
Y25591D01*
X56463Y41835D02*
Y43823D01*
X80791D02*
X83498D01*
Y41835D02*
Y43823D01*
D11*
X94527Y32848D02*
X91903D01*
Y28912D01*
X94527D01*
X91903Y30880D02*
X93215D01*
X95839Y28912D02*
Y31536D01*
X97807D01*
X98463Y30880D01*
Y28912D01*
X101742D02*
X100431D01*
X99775Y29568D01*
Y30880D01*
X100431Y31536D01*
X101742D01*
X102398Y30880D01*
Y30224D01*
X99775D01*
X103710Y28912D02*
X105678D01*
X106334Y29568D01*
X105678Y30224D01*
X104366D01*
X103710Y30880D01*
X104366Y31536D01*
X106334D01*
X111582Y28912D02*
Y32848D01*
X112894Y31536D01*
X114206Y32848D01*
Y28912D01*
X117485D02*
X116174D01*
X115517Y29568D01*
Y30880D01*
X116174Y31536D01*
X117485D01*
X118141Y30880D01*
Y30224D01*
X115517D01*
X119453Y31536D02*
Y28912D01*
Y30224D01*
X120109Y30880D01*
X120765Y31536D01*
X121421D01*
X126013D02*
X124045D01*
X123389Y30880D01*
Y29568D01*
X124045Y28912D01*
X126013D01*
X127981Y31536D02*
X129293D01*
X129949Y30880D01*
Y28912D01*
X127981D01*
X127325Y29568D01*
X127981Y30224D01*
X129949D01*
X131261Y28912D02*
Y31536D01*
X133228D01*
X133884Y30880D01*
Y28912D01*
X93871Y22677D02*
Y26613D01*
X95183Y25301D01*
X96495Y26613D01*
Y22677D01*
X98463Y25301D02*
X99775D01*
X100431Y24645D01*
Y22677D01*
X98463D01*
X97807Y23333D01*
X98463Y23989D01*
X100431D01*
X101742Y25301D02*
Y22677D01*
Y23989D01*
X102398Y24645D01*
X103054Y25301D01*
X103710D01*
X108302D02*
X106334D01*
X105678Y24645D01*
Y23333D01*
X106334Y22677D01*
X108302D01*
X109614Y26613D02*
Y22677D01*
Y24645D01*
X110270Y25301D01*
X111582D01*
X112238Y24645D01*
Y22677D01*
X120109D02*
X117485D01*
X120109Y25301D01*
Y25957D01*
X119453Y26613D01*
X118141D01*
X117485Y25957D01*
X121421D02*
X122077Y26613D01*
X123389D01*
X124045Y25957D01*
Y23333D01*
X123389Y22677D01*
X122077D01*
X121421Y23333D01*
Y25957D01*
X127981Y22677D02*
X125357D01*
X127981Y25301D01*
Y25957D01*
X127325Y26613D01*
X126013D01*
X125357Y25957D01*
X131916Y22677D02*
X129293D01*
X131916Y25301D01*
Y25957D01*
X131261Y26613D01*
X129949D01*
X129293Y25957D01*
D12*
X19920Y65508D02*
Y61572D01*
X22544D01*
X23856Y65508D02*
Y61572D01*
X25824D01*
X26480Y62228D01*
Y64851D01*
X25824Y65508D01*
X23856D01*
X27792Y61572D02*
X29104D01*
X28448D01*
Y65508D01*
X27792Y64851D01*
X31072Y61572D02*
X32383D01*
X31727D01*
Y65508D01*
X31072Y64851D01*
X34351Y61572D02*
X35663D01*
X35007D01*
Y65508D01*
X34351Y64851D01*
X37631Y65508D02*
X40255D01*
Y64851D01*
X37631Y62228D01*
Y61572D01*
X15657Y57950D02*
Y54014D01*
X17625D01*
X18280Y54670D01*
Y55326D01*
X17625Y55982D01*
X15657D01*
X17625D01*
X18280Y56638D01*
Y57294D01*
X17625Y57950D01*
X15657D01*
X19592Y56638D02*
Y54014D01*
Y55326D01*
X20248Y55982D01*
X20904Y56638D01*
X21560D01*
X25496Y54014D02*
X24184D01*
X23528Y54670D01*
Y55982D01*
X24184Y56638D01*
X25496D01*
X26152Y55982D01*
Y55326D01*
X23528D01*
X28120Y56638D02*
X29432D01*
X30088Y55982D01*
Y54014D01*
X28120D01*
X27464Y54670D01*
X28120Y55326D01*
X30088D01*
X31400Y54014D02*
Y57950D01*
Y55326D02*
X33367Y56638D01*
X31400Y55326D02*
X33367Y54014D01*
X35991D02*
X37303D01*
X37959Y54670D01*
Y55982D01*
X37303Y56638D01*
X35991D01*
X35335Y55982D01*
Y54670D01*
X35991Y54014D01*
X39271Y56638D02*
Y54670D01*
X39927Y54014D01*
X41895D01*
Y56638D01*
X43863Y57294D02*
Y56638D01*
X43207D01*
X44519D01*
X43863D01*
Y54670D01*
X44519Y54014D01*
X19264Y46457D02*
Y50392D01*
X20576Y49081D01*
X21888Y50392D01*
Y46457D01*
X23856D02*
X25168D01*
X25824Y47113D01*
Y48425D01*
X25168Y49081D01*
X23856D01*
X23200Y48425D01*
Y47113D01*
X23856Y46457D01*
X29760Y50392D02*
Y46457D01*
X27792D01*
X27136Y47113D01*
Y48425D01*
X27792Y49081D01*
X29760D01*
X31072D02*
Y47113D01*
X31727Y46457D01*
X33695D01*
Y49081D01*
X35007Y46457D02*
X36319D01*
X35663D01*
Y50392D01*
X35007D01*
X40255Y46457D02*
X38943D01*
X38287Y47113D01*
Y48425D01*
X38943Y49081D01*
X40255D01*
X40911Y48425D01*
Y47769D01*
X38287D01*
M02*
