G04*
G04 #@! TF.GenerationSoftware,Altium Limited,Altium Designer,22.3.1 (43)*
G04*
G04 Layer_Physical_Order=2*
G04 Layer_Color=32768*
%FSLAX25Y25*%
%MOIN*%
G70*
G04*
G04 #@! TF.SameCoordinates,C0C3DF6B-F1DF-4303-8154-4598C75E5984*
G04*
G04*
G04 #@! TF.FilePolarity,Negative*
G04*
G01*
G75*
%ADD31C,0.04000*%
%ADD32C,0.10866*%
%ADD33C,0.03780*%
D31*
X-16732Y79D02*
G03*
X79Y-16732I16811J0D01*
G01*
X123369D02*
G03*
X140354Y253I0J16985D01*
G01*
Y55118D02*
G03*
X122736Y72736I-17618J0D01*
G01*
X18D02*
G03*
X-16732Y55986I0J-16751D01*
G01*
X79Y-16732D02*
X123369D01*
X140354Y253D02*
Y55118D01*
X18Y72736D02*
X122736D01*
X-16732Y79D02*
Y55986D01*
D32*
X123622Y56004D02*
D03*
X0D02*
D03*
D33*
X60925Y21654D02*
D03*
Y30709D02*
D03*
Y35236D02*
D03*
Y39764D02*
D03*
X65453Y21654D02*
D03*
Y26181D02*
D03*
X69980Y21654D02*
D03*
Y26181D02*
D03*
X74508Y21654D02*
D03*
Y26181D02*
D03*
X79035Y21654D02*
D03*
Y26181D02*
D03*
X60925D02*
D03*
X65453Y30709D02*
D03*
Y35236D02*
D03*
Y39764D02*
D03*
X69980Y30709D02*
D03*
Y35236D02*
D03*
Y39764D02*
D03*
X74508Y30709D02*
D03*
Y35236D02*
D03*
Y39764D02*
D03*
X79035Y30709D02*
D03*
Y35236D02*
D03*
Y39764D02*
D03*
X29823Y33071D02*
D03*
Y27559D02*
D03*
X103681Y6240D02*
D03*
X24705Y27559D02*
D03*
Y33366D02*
D03*
M02*
