G04*
G04 #@! TF.GenerationSoftware,Altium Limited,Altium Designer,22.3.1 (43)*
G04*
G04 Layer_Color=32896*
%FSLAX25Y25*%
%MOIN*%
G70*
G04*
G04 #@! TF.SameCoordinates,C0C3DF6B-F1DF-4303-8154-4598C75E5984*
G04*
G04*
G04 #@! TF.FilePolarity,Positive*
G04*
G01*
G75*
%ADD11C,0.00630*%
D11*
X43530Y28254D02*
X40906D01*
X42218D01*
Y24318D01*
X39594Y28254D02*
Y24318D01*
Y26286D01*
X38938Y26942D01*
X37626D01*
X36970Y26286D01*
Y24318D01*
X33690D02*
X35002D01*
X35658Y24974D01*
Y26286D01*
X35002Y26942D01*
X33690D01*
X33034Y26286D01*
Y25630D01*
X35658D01*
X31722Y26942D02*
Y24318D01*
Y25630D01*
X31067Y26286D01*
X30411Y26942D01*
X29755D01*
X27787Y24318D02*
Y26942D01*
X27131D01*
X26475Y26286D01*
Y24318D01*
Y26286D01*
X25819Y26942D01*
X25163Y26286D01*
Y24318D01*
X23195Y26942D02*
X21883D01*
X21227Y26286D01*
Y24318D01*
X23195D01*
X23851Y24974D01*
X23195Y25630D01*
X21227D01*
X19915Y24318D02*
X18603D01*
X19259D01*
Y28254D01*
X19915D01*
X12700D02*
X10076D01*
X11388D01*
Y24318D01*
X6796D02*
X8108D01*
X8764Y24974D01*
Y26286D01*
X8108Y26942D01*
X6796D01*
X6140Y26286D01*
Y25630D01*
X8764D01*
X4828Y24318D02*
X2860D01*
X2204Y24974D01*
X2860Y25630D01*
X4172D01*
X4828Y26286D01*
X4172Y26942D01*
X2204D01*
X237Y27598D02*
Y26942D01*
X893D01*
X-419D01*
X237D01*
Y24974D01*
X-419Y24318D01*
X36642Y22019D02*
X34018D01*
X35330D01*
Y18084D01*
X32706Y20707D02*
Y18740D01*
X32050Y18084D01*
X30083D01*
Y17428D01*
X30738Y16772D01*
X31394D01*
X30083Y18084D02*
Y20707D01*
X28771Y16772D02*
Y20707D01*
X26803D01*
X26147Y20051D01*
Y18740D01*
X26803Y18084D01*
X28771D01*
X22867D02*
X24179D01*
X24835Y18740D01*
Y20051D01*
X24179Y20707D01*
X22867D01*
X22211Y20051D01*
Y19396D01*
X24835D01*
X16963Y20051D02*
X14340D01*
X6468Y18084D02*
X9092D01*
X6468Y20707D01*
Y21363D01*
X7124Y22019D01*
X8436D01*
X9092Y21363D01*
M02*
