M48
;Layer_Color=9474304
;FILE_FORMAT=2:5
INCH,LZ
;TYPE=PLATED
T1F00S00C0.01181
T2F00S00C0.04331
T3F00S00C0.05709
T4F00S00C0.12205
%
T01
X0101112Y-000867
X0110167
X0119222
X0128277
X0137332
X0146387
X0155443
X0164498
X0173553
X0182608
X0191663
X0200718
X0195866Y-0001181
X0186811
X0177756
X0168701
X0159646
X0150591
X0141535
X013248
X0123425
X011437
X0105315
X0109843Y0006693
Y0014567
X0100787
Y0006693
X0108661Y0029921
Y0037008
Y0046063
Y0055118
Y0064173
Y0073228
X0127559
Y0064173
Y0055118
Y0046063
Y0037008
X0126772Y0029921
X0135827
X0144882
X0145276Y0037008
Y0046063
Y0055118
Y0064173
Y0073228
X0167717Y0073228
X0174409
X0180709
X0187402
X0183071Y0064173
X0182677Y0057087
X0194882Y0056693
X0192126Y0064173
X0201181
X0210236
X0209842Y0057087
X0210236Y0047638
X0201341Y0049777
X0218898Y0051279
Y0042224
Y0033169
Y0024114
X0212598Y0020079
X0207087Y0016929
X0200394Y001378
Y0006299
X0191339
Y001378
X0182283
Y0006299
X0173228
Y001378
X0173622Y0020472
Y0027953
X0174803Y0035433
X0168504Y0040551
X0178347Y0045276
X0167323Y0054724
X0172047Y0065354
X0164567Y0027953
Y0020472
X0164173Y001378
Y0006299
X015689Y0015157
X0153937Y0029921
X0117717
X0226378Y0028346
Y0037402
Y0046457
Y0055512
Y0064567
Y0073622
X0218898Y006939
Y0060335
X0211417Y0073622
X0226378Y0019291
X0097244Y0025984
X0087795Y0022835
Y003189
Y0040945
X0088189Y0052756
Y0064173
X0088976Y0072441
X0079331Y0072047
X0072736
X0063484Y0070965
X0065354Y0061713
X0058661Y0064173
X0058169Y0052362
X0048031Y005689
X0048819Y0041339
X0057776Y0036122
X0052756Y0022047
X0043012Y0022835
X0045276Y001063
X0034646Y0009055
X0032874Y-0001181
X0041929
X0050984
X0060039
X0069095
X007815
X0087205
X009626
X0092057Y-000867
X0083002
X0073946
X0064891
X0055836
X0046781
X0037726
X0028671
X0019484Y-0008349
X0023687Y-000086
X0023425Y0011024
X0015748Y0011811
X0016535Y0024409
X0028051Y0025984
X0015748Y0037795
X0015551Y0047835
X0022441Y0045177
X0023228Y0054429
X002126Y0064567
X0025984Y0065158
X0038189Y0066339
X0044882Y0073622
X0039764Y0048327
X0006299Y0045276
X0000715Y0026903
X-0006766
X-0007087Y0017717
X0000394
X0067716Y001811
X0064567Y0006693
X0073622
X0082677
Y0014567
X0091732
Y0006693
X0085433Y0078347
X0089764Y0082677
X0085433Y0088583
X0082415Y0094955
X0082021Y0102829
X0082021Y0110309
X0072966
X0072966Y0102829
X007336Y0094955
X0064305
X0063911Y0102829
X0063911Y0110309
X0054856
X0054856Y0102829
X005525Y0094955
X0046195
X0045801Y0102829
X0045801Y0110309
X0036746
X0036746Y0102829
X0037139Y0094955
X0028084
X0027691Y0102829
X0027691Y0110309
X0018504Y011063
X0018504Y010315
X0018898Y0095276
X0009843Y0091732
X0001108Y0092258
X-0006372
X-0006693Y0083071
X0000787
X0011024Y0082284
X0025984Y0084646
X0040945Y0085039
X0052953Y008061
X0068898Y0083858
X0069029Y0117789
X0078084
X0087139
X0096195
X0091076Y0110309
X0090551Y0102756
X0099606
X0059974Y0117789
X0050919
X0041864
X0032809
X0023754
X010525
X0114305
X012336
X0132415
X014147
X0150525
X015958
X0168636
X0177691
X0186746
X0195669Y0117815
X0199738Y0110309
X0190683
X0181628
X0172573
X0163517
X0154462
X0153937Y0102756
X0144882
X0145407Y0110309
X0136352
X0135827Y0102756
X0126772
X0127297Y0110309
X0118242
X0117717Y0102756
X0108661
X0109187Y0110309
X0100132
X0108661Y0091339
Y0082284
X0127559
Y0091339
X0145276
Y0082284
X0166535Y0083858
X0174409Y0085039
X0181102
X0188583
X0191339Y0092913
X0190945Y0100787
X02
X0200394Y0092913
X021063Y0092126
X0211811Y0084252
X0218898Y00875
Y0078445
X0226378Y0082677
Y0091732
X0182283Y0092913
X018189Y0100787
X0172835
X0173228Y0092913
X0165748Y0093701
X0163779Y0100787
T02
X-0003543Y0040787
Y0050787
Y0060787
Y0070787
T03
X0034449Y0016929
Y0036614
T04
X0218898Y0
X0
Y0109843
X0218898Y0109843
M30
