M48
;Layer_Color=9474304
;FILE_FORMAT=2:5
INCH,LZ
;TYPE=PLATED
T1F00S00C0.01181
T2F00S00C0.01968
T3F00S00C0.04331
T4F00S00C0.12205
%
T01
X031371Y0227944
Y0235424
X0313386Y0243307
Y0251181
X0322441
Y0243307
X0322765Y0235424
Y0227944
X033182
Y0235424
X0340876
Y0227944
X0349931
Y0235424
X0358986
Y0227944
X0368041
Y0235424
X0377096
Y0227944
X0386151
Y0235424
X0385827Y0242913
Y0250394
X0386221Y0257087
Y0264567
X0387402Y0272047
X0381102Y0277165
X0390945Y028189
X0395276Y0293701
X0395669Y0300787
X0404724
X0413779
X0422835
X0422441Y0293701
X0422835Y0284252
X0431496Y0283071
X0438976
Y0292126
X0431496
Y0301181
X0438976
Y0310236
X0431496
X0424016Y0310236
X04Y0309842
X0393307
X0387008
X0380315
X0384646Y0301969
X0379921Y0291339
X0357874Y0291732
Y0282677
Y0273622
X035748Y0266535
X0366535
X0377165Y0264567
Y0257087
X0376772Y0250394
Y0242913
X0369488Y0251772
X0394882Y0250394
Y0242913
X0395206Y0235424
Y0227944
X0404261
Y0235424
X0403937Y0242913
Y0250394
X0412992
Y0242913
X0413316Y0235424
Y0227944
X0419685Y0253543
X0425197Y0256693
X0431496Y0255906
X0438976
Y0264961
X0431496
Y0274016
X0438976
X041394Y0286391
X040748Y0293307
X0357874Y0300787
Y0309842
X0340158
Y0300787
Y0291732
Y0282677
Y0273622
X033937Y0266535
X0348425
X0330315
X032126
Y0273622
Y0282677
Y0291732
Y0300787
Y0309842
X0301575Y0309055
X0300787Y0300787
Y028937
X0300394Y0277559
Y0268504
Y0259449
X0304331Y0251181
Y0243307
X0304655Y0235424
Y0227944
X02956
Y0235424
X0295276Y0243307
Y0251181
X0286221Y0243307
X0286545Y0235424
Y0227944
X027749
Y0235424
X0277165Y0243307
X0268435Y0235424
Y0227944
X025938
Y0235424
X0250324
Y0227944
X0241269
Y0235424
X0232083Y0235745
Y0228265
X0228346Y0248425
X0229134Y0261024
X0228346Y027441
X0218898Y028189
X0213313Y0263517
X0205833
X0205512Y0254331
X0212992
X0247244Y0245669
X0265354Y0258661
X0261417Y0277953
X027126Y0300787
X0277953Y0298327
X025748Y0310236
X0233858Y0301181
X0309842Y0262598
X0298031Y0314961
X0302362Y0319291
X0298031Y0325197
X0295013Y0331569
X029462Y0339443
X029462Y0346923
Y0354403
X0303675
Y0346923
X030315Y033937
X0312205
X0285565Y0339443
X0285565Y0346923
Y0354403
X027651
Y0346923
X0276509Y0339443
X0276903Y0331569
X0285958
X0281496Y0320472
X0267848Y0331569
X0267454Y0339443
X0267454Y0346923
Y0354403
X0258399
Y0346923
X0258399Y0339443
X0258793Y0331569
X0249738
X0249344Y0339443
X0249344Y0346923
Y0354403
X0240289
Y0346923
X0240289Y0339443
X0240683Y0331569
X0231496Y033189
X0231102Y0339764
X0231102Y0347244
Y0354724
X0222441Y0328346
X0213707Y0328872
X0206226
X0205906Y0319685
X0213386
X0223622Y0318898
X0238583Y032126
X0253543Y0321654
X032126Y0318898
Y0327953
X032126Y033937
X0321785Y0346923
Y0354403
X033084
Y0346923
X0330315Y033937
X033937
X0339895Y0346923
Y0354403
X0348951
Y0346923
X0348425Y033937
X035748
X0358006Y0346923
Y0354403
X0367061
Y0346923
X0366535Y033937
X0376378Y0337402
X0378346Y0330315
X0385827Y0329528
X0385433Y0337402
X0394488
X0394882Y0329528
X0393701Y0321654
X0387008
X0379134Y0320472
X0357874Y0318898
Y0327953
X0340158
Y0318898
X031273Y0346923
Y0354403
X0376116
Y0346923
X0385171
Y0354403
X0394226
Y0346923
X0403281
Y0354403
X0412336
Y0346923
X0412598Y0337402
X0412992Y0329528
X0403937
X0403543Y0337402
X0401181Y0321654
X0424409Y0320866
X0431496Y0319291
X0438976
Y0328346
X0431496
X0423228Y032874
T02
X0248031Y025748
Y0277165
T03
X0209055Y0277402
Y0287402
Y0297402
Y0307402
T04
X0431496Y0236614
X0212598
Y0346457
X0431496Y0346457
M30
