M48
;Layer_Color=9474304
;FILE_FORMAT=2:5
INCH,LZ
;TYPE=PLATED
T1F00S00C0.01181
T2F00S00C0.01968
T3F00S00C0.04331
T4F00S00C0.12205
%
T01
X0101112Y-000867
Y-000119
X0100787Y0006693
Y0014567
X0109843
Y0006693
X0110167Y-000119
Y-000867
X0119222
Y-000119
X0128277
Y-000867
X0137332
Y-000119
X0146387
Y-000867
X0155443
Y-000119
X0164498
Y-000867
X0173553
Y-000119
X0173228Y0006299
Y001378
X0173622Y0020472
Y0027953
X0174803Y0035433
X0168504Y0040551
X0178347Y0045276
X0182677Y0057087
X0183071Y0064173
X0192126
X0201181
X0210236
X0209842Y0057087
X0210236Y0047638
X0218898Y0046457
X0226378
Y0055512
X0218898
Y0064567
X0226378
Y0073622
X0218898
X0211417Y0073622
X0187402Y0073228
X0180709
X0174409
X0167717
X0172047Y0065354
X0167323Y0054724
X0145276Y0055118
Y0046063
Y0037008
X0144882Y0029921
X0153937
X0164567Y0027953
Y0020472
X0164173Y001378
Y0006299
X015689Y0015157
X0182283Y001378
Y0006299
X0182608Y-000119
Y-000867
X0191663
Y-000119
X0191339Y0006299
Y001378
X0200394
Y0006299
X0200718Y-000119
Y-000867
X0207087Y0016929
X0212598Y0020079
X0218898Y0019291
X0226378
Y0028346
X0218898
Y0037402
X0226378
X0201341Y0049777
X0194882Y0056693
X0145276Y0064173
Y0073228
X0127559
Y0064173
Y0055118
Y0046063
Y0037008
X0126772Y0029921
X0135827
X0117717
X0108661
Y0037008
Y0046063
Y0055118
Y0064173
Y0073228
X0088976Y0072441
X0088189Y0064173
Y0052756
X0087795Y0040945
Y003189
Y0022835
X0091732Y0014567
Y0006693
X0092057Y-000119
Y-000867
X0083002
Y-000119
X0082677Y0006693
Y0014567
X0073622Y0006693
X0073946Y-000119
Y-000867
X0064891
Y-000119
X0064567Y0006693
X0055836Y-000119
Y-000867
X0046781
Y-000119
X0037726
Y-000867
X0028671
Y-000119
X0019484Y-0000869
Y-0008349
X0015748Y0011811
X0016535Y0024409
X0015748Y0037795
X0006299Y0045276
X0000715Y0026903
X-0006766
X-0007087Y0017717
X0000394
X0034646Y0009055
X0052756Y0022047
X0048819Y0041339
X0058661Y0064173
X0065354Y0061713
X0044882Y0073622
X002126Y0064567
X0097244Y0025984
X0085433Y0078347
X0089764Y0082677
X0085433Y0088583
X0082415Y0094955
X0082021Y0102829
X0082021Y0110309
Y0117789
X0091076
Y0110309
X0090551Y0102756
X0099606
X0072966Y0102829
X0072966Y0110309
Y0117789
X0063911
Y0110309
X0063911Y0102829
X0064305Y0094955
X007336
X0068898Y0083858
X005525Y0094955
X0054856Y0102829
X0054856Y0110309
Y0117789
X0045801
Y0110309
X0045801Y0102829
X0046195Y0094955
X0037139
X0036746Y0102829
X0036746Y0110309
Y0117789
X0027691
Y0110309
X0027691Y0102829
X0028084Y0094955
X0018898Y0095276
X0018504Y010315
X0018504Y011063
Y011811
X0009843Y0091732
X0001108Y0092258
X-0006372
X-0006693Y0083071
X0000787
X0011024Y0082284
X0025984Y0084646
X0040945Y0085039
X0108661Y0082284
Y0091339
X0108661Y0102756
X0109187Y0110309
Y0117789
X0118242
Y0110309
X0117717Y0102756
X0126772
X0127297Y0110309
Y0117789
X0136352
Y0110309
X0135827Y0102756
X0144882
X0145407Y0110309
Y0117789
X0154462
Y0110309
X0153937Y0102756
X0163779Y0100787
X0165748Y0093701
X0173228Y0092913
X0172835Y0100787
X018189
X0182283Y0092913
X0181102Y0085039
X0174409
X0166535Y0083858
X0145276Y0082284
Y0091339
X0127559
Y0082284
X0100132Y0110309
Y0117789
X0163517
Y0110309
X0172573
Y0117789
X0181628
Y0110309
X0190683
Y0117789
X0199738
Y0110309
X02Y0100787
X0200394Y0092913
X0191339
X0190945Y0100787
X0188583Y0085039
X0211811Y0084252
X0218898Y0082677
X0226378
Y0091732
X0218898
X021063Y0092126
T02
X0035433Y0020866
Y0040551
T03
X-0003543Y0040787
Y0050787
Y0060787
Y0070787
T04
X0218898Y0
X0
Y0109843
X0218898Y0109843
M30
