M48
;Layer_Color=9474304
;FILE_FORMAT=2:5
INCH,LZ
;TYPE=PLATED
T1F00S00C0.01181
T2F00S00C0.08268
%
T01
X0086043Y-0011102
X0084468Y-0003622
X008998Y-0004409
X0095886Y-0004803
X0101398
X0105335Y0000315
X0103602Y0006161
X0101398Y0014094
X0091555Y0013701
X008565Y0021575
X0085706Y0028399
X008559Y0035223
X008565Y0042047
X009628Y003811
X0104154Y0031417
X0113602Y0028661
X011439Y003811
X0104941Y0046772
X0107303Y0057402
X010061Y0064094
X0088012
X0093917Y0052677
X0097461Y0023937
X0109665Y0020394
X0124827Y0015118
X0134468Y0008976
X01325Y003063
X0132894Y0043228
X0117539Y-001189
X0110059Y-0007559
X0104154Y-0011496
X0096673Y-0011102
X0074626Y-0009921
X0074232Y-0002835
X0078563Y-0003622
X0068327Y0000709
Y0007795
X0069902Y0021575
X0074429
Y0026102
X0069902
X0065374
X0060846
Y0021575
X0065374
Y003063
X0060846
Y0035157
X0065374
X0069902
X0074429
Y003063
X0069902
X0078957
Y0026102
Y0021575
Y0035157
Y0039685
X0074429
X0069902
X0065374
X0060846
X0059665Y0046772
X0066752Y0046808
X0073839Y0046923
X0080925Y0046772
X0079744Y0059764
X0067146Y0060945
X0070689Y006685
X0059272Y0066457
X0055335Y0060551
X0046673Y0064094
X0041161Y005937
X0038405Y0067244
X0031712Y006252
X002502Y0062913
X0013996Y0064488
X0015965Y0054646
X0017933Y0045984
X0015965Y0037323
X0009272Y0041653
X-0008445Y0039291
X-0009626Y0030236
X-0008839Y0020787
X-0010413Y000937
X0002185Y0014488
X-0000571Y0026693
X0015965Y0019606
X0020295Y0011338
X0017146Y0000315
X0023839Y-0004803
X0031712Y-0011496
X0040768Y-0007953
X0046279Y-001189
X0058091Y-0009921
X0062815Y-0005197
X0049823Y0000315
X0053366Y0010157
X0054154Y0021464
Y0028457
Y0035449
Y0042441
X0042736Y0040079
X0034075Y004126
X0035256Y0049921
X0026594Y0051102
X0024626Y0033287
X0029744Y0032992
Y002748
X0024626
X0030531Y0020394
X0037224Y0019212
X0046673Y0018425
X0045886Y005189
X-0010807Y0047559
X0013209Y-0009528
T02
X0123543Y-0000079
Y0055925
X-0000079
Y-0000079
M30
