M48
;Layer_Color=9474304
;FILE_FORMAT=2:5
INCH,LZ
;TYPE=PLATED
T1F00S00C0.01181
T2F00S00C0.05118
%
T01
X0143707Y0005717
X0149088
X0154468
X0159849
X0165229
X017061
X017599
X0173661Y0009457
X0179042
X016828
X01629
X0157519
X0152139
X0146758
X0155512Y0027559
X0161417
X0167323
Y0033465
X0161417
X0155512
X0167624Y0042233
X0172781
X0177937
X0183093
X0188249
X0193405Y0042224
X0190945Y0033465
Y0027559
Y0021654
X0185039
Y0027559
Y0033465
X0170374Y0086122
X0125591Y0084252
X0122047Y0085236
X0118405Y0085335
X0114961Y0084842
X0113878Y0081496
X011063
X0107283
X0107087Y0084842
X0103347Y0085236
X0103445Y0081299
X0099016Y0081496
X0099705Y0084744
X0098327Y0077658
X0098622Y0073819
X0089075Y0074114
Y0067864
Y0061614
Y0055364
Y0049114
X0081791
X008189Y0044094
X0078051Y0044783
X0074311
X0074311Y0041339
X0078347Y0040945
X0067427Y0041938
X0067421Y0049114
Y0055364
Y0061614
Y0067864
Y0074114
Y0080364
Y0086614
X0074409
Y0080364
Y0074114
Y0067864
Y0061614
Y0055364
Y0049114
X0081791Y0055364
Y0061614
Y0067864
Y0074114
Y0080364
Y0086614
X0089075
Y0080364
X0107087Y0072244
Y006811
X0127657Y0081398
X0089173Y0034055
X0089272Y0025984
X006349Y0041938
X0060335Y0049114
Y0055364
Y0061614
Y0067864
Y0074114
Y0080364
Y0086614
X005315Y0086614
Y0080364
Y0074114
Y0067864
Y0061614
Y0055364
Y0049114
X0026378Y0045276
X0020472
Y003937
Y0033465
X0014567
Y003937
Y0045276
X0008661
Y003937
Y0033465
Y0027559
Y0021654
Y0017028
X0014665
X0014567Y0021654
X0020472
Y0015748
Y0009843
X0026378
X0032283
Y0015748
X0026378
Y0021654
X0020472Y0027559
X0014567
X0038189Y0015748
X0044094
X005
X0055905
X005Y0009843
X0044094
X0038189
X0039573Y0085441
X0045479
X0042624Y0089182
X004853
X0036719
X0030813
X0024908
X0019002
X0021857Y0085441
X0027762
X0033668
T02
X0189764Y0009843
X0188976Y0085039
X0010039Y0085039
X0010138Y0009843
M30
