G04*
G04 #@! TF.GenerationSoftware,Altium Limited,Altium Designer,22.3.1 (43)*
G04*
G04 Layer_Color=8388736*
%FSLAX25Y25*%
%MOIN*%
G70*
G04*
G04 #@! TF.SameCoordinates,148C8EC3-FA1E-4D1B-B791-449684C16175*
G04*
G04*
G04 #@! TF.FilePolarity,Negative*
G04*
G01*
G75*
%ADD15R,0.21300X0.11400*%
%ADD24R,0.05512X0.07874*%
G04:AMPARAMS|DCode=25|XSize=162.99mil|YSize=87.4mil|CornerRadius=18.66mil|HoleSize=0mil|Usage=FLASHONLY|Rotation=90.000|XOffset=0mil|YOffset=0mil|HoleType=Round|Shape=RoundedRectangle|*
%AMROUNDEDRECTD25*
21,1,0.16299,0.05008,0,0,90.0*
21,1,0.12567,0.08740,0,0,90.0*
1,1,0.03732,0.02504,0.06284*
1,1,0.03732,0.02504,-0.06284*
1,1,0.03732,-0.02504,-0.06284*
1,1,0.03732,-0.02504,0.06284*
%
%ADD25ROUNDEDRECTD25*%
%ADD26R,0.04331X0.14173*%
%ADD27R,0.42520X0.42520*%
%ADD28R,0.06094X0.03394*%
%ADD29R,0.06299X0.06693*%
%ADD30R,0.05294X0.05295*%
%ADD31R,0.05512X0.03937*%
%ADD32R,0.05512X0.03543*%
%ADD33R,0.03740X0.03740*%
%ADD34R,0.12205X0.12205*%
%ADD35C,0.03150*%
D15*
X124508Y50000D02*
D03*
Y11024D02*
D03*
D24*
X55413Y9843D02*
D03*
X72729D02*
D03*
D25*
X25591Y66201D02*
D03*
Y33012D02*
D03*
X174409Y63051D02*
D03*
Y29862D02*
D03*
D26*
X65059Y30807D02*
D03*
X71752D02*
D03*
X78445D02*
D03*
X85138D02*
D03*
X58366D02*
D03*
D27*
X71760Y68012D02*
D03*
D28*
X150098Y78969D02*
D03*
Y87369D02*
D03*
D29*
X133858Y75197D02*
D03*
D30*
X120965Y71161D02*
D03*
Y79232D02*
D03*
D31*
X112500Y71850D02*
D03*
Y76968D02*
D03*
X40945Y24213D02*
D03*
Y19094D02*
D03*
D32*
X164764Y78642D02*
D03*
Y86122D02*
D03*
D33*
X103445Y70473D02*
D03*
Y77165D02*
D03*
D34*
X10138Y9843D02*
D03*
X10039Y85039D02*
D03*
X189764Y9843D02*
D03*
X188976Y85039D02*
D03*
D35*
X89075Y67864D02*
D03*
Y61614D02*
D03*
X81791Y86614D02*
D03*
Y80364D02*
D03*
Y74114D02*
D03*
Y67864D02*
D03*
Y61614D02*
D03*
X74409Y74114D02*
D03*
Y86614D02*
D03*
Y80364D02*
D03*
Y67864D02*
D03*
Y61614D02*
D03*
X89075Y55364D02*
D03*
Y80364D02*
D03*
Y86614D02*
D03*
Y74114D02*
D03*
X67421Y67864D02*
D03*
Y80364D02*
D03*
Y86614D02*
D03*
Y74114D02*
D03*
Y61614D02*
D03*
Y55364D02*
D03*
X60335Y74114D02*
D03*
Y67864D02*
D03*
Y80364D02*
D03*
Y86614D02*
D03*
Y61614D02*
D03*
Y55364D02*
D03*
X53150Y74114D02*
D03*
Y80364D02*
D03*
Y86614D02*
D03*
Y55364D02*
D03*
X81791Y55364D02*
D03*
X74409D02*
D03*
X67421Y49114D02*
D03*
X60335D02*
D03*
X89075D02*
D03*
X81791D02*
D03*
X74409D02*
D03*
X53150Y61614D02*
D03*
Y67864D02*
D03*
Y49114D02*
D03*
M02*
