G04*
G04 #@! TF.GenerationSoftware,Altium Limited,Altium Designer,22.3.1 (43)*
G04*
G04 Layer_Color=65535*
%FSLAX25Y25*%
%MOIN*%
G70*
G04*
G04 #@! TF.SameCoordinates,092B01F2-D36E-4E11-877B-5D38536E2366*
G04*
G04*
G04 #@! TF.FilePolarity,Positive*
G04*
G01*
G75*
%ADD10C,0.00787*%
%ADD11C,0.00600*%
%ADD12C,0.00394*%
%ADD13C,0.00500*%
%ADD14C,0.00591*%
G36*
X97836Y18853D02*
X97945D01*
Y18744D01*
X98271D01*
Y18635D01*
X98380D01*
Y18744D01*
X98488D01*
Y18635D01*
X98597D01*
Y18527D01*
X98706D01*
Y18418D01*
X98814D01*
Y18309D01*
X99140D01*
Y18201D01*
X99249D01*
Y18092D01*
X99358D01*
Y17983D01*
X99466D01*
Y17875D01*
X99575D01*
Y17766D01*
X99684D01*
Y17657D01*
X99792D01*
Y17549D01*
X99901D01*
Y17440D01*
X100010D01*
Y17331D01*
Y17223D01*
X100227D01*
Y17114D01*
X100118D01*
Y17005D01*
X100227D01*
Y16897D01*
X100336D01*
Y16788D01*
X100444D01*
Y16679D01*
Y16571D01*
Y16462D01*
X100553D01*
Y16353D01*
Y16245D01*
Y16136D01*
X100662D01*
Y16027D01*
X100553D01*
Y15919D01*
X100662D01*
Y15810D01*
Y15701D01*
Y15593D01*
X100770D01*
Y15484D01*
X100662D01*
Y15375D01*
X100770D01*
Y15267D01*
Y15158D01*
Y15049D01*
Y14941D01*
Y14832D01*
Y14723D01*
Y14615D01*
Y14506D01*
Y14397D01*
X100662D01*
Y14289D01*
X100770D01*
Y14180D01*
X100662D01*
Y14071D01*
Y13963D01*
Y13854D01*
X100553D01*
Y13745D01*
X100662D01*
Y13637D01*
X100553D01*
Y13528D01*
X100444D01*
Y13419D01*
Y13311D01*
Y13202D01*
X100336D01*
Y13093D01*
Y12985D01*
X100227D01*
Y12876D01*
Y12767D01*
X100118D01*
Y12659D01*
X100010D01*
Y12550D01*
X99901D01*
Y12441D01*
Y12333D01*
X99792D01*
Y12224D01*
Y12115D01*
X99575D01*
Y12007D01*
Y11898D01*
X99466D01*
Y11789D01*
X99358D01*
Y11681D01*
X99249D01*
Y11572D01*
X99140D01*
Y11463D01*
X99032D01*
Y11355D01*
X98923D01*
Y11246D01*
X98814D01*
Y11137D01*
X98706D01*
Y11029D01*
X98597D01*
Y10920D01*
X98488D01*
Y10811D01*
X98380D01*
Y10703D01*
X98271D01*
Y10594D01*
X98162D01*
Y10485D01*
X98054D01*
Y10377D01*
X97945D01*
Y10268D01*
X97836D01*
Y10159D01*
X97728D01*
Y10051D01*
X97619D01*
Y9942D01*
X97510D01*
Y9833D01*
Y9725D01*
X97293D01*
Y9616D01*
Y9507D01*
X97076D01*
Y9399D01*
Y9290D01*
X96967D01*
Y9181D01*
X96858D01*
Y9073D01*
X96750D01*
Y8964D01*
Y8855D01*
X96532D01*
Y8747D01*
Y8638D01*
X96315D01*
Y8529D01*
Y8421D01*
X96206D01*
Y8312D01*
X96098D01*
Y8203D01*
X95989D01*
Y8095D01*
X95880D01*
Y7986D01*
X95772D01*
Y7877D01*
X95663D01*
Y7769D01*
X95554D01*
Y7660D01*
X95446D01*
Y7551D01*
X95337D01*
Y7443D01*
X95228D01*
Y7334D01*
X95120D01*
Y7225D01*
X95011D01*
Y7117D01*
X94902D01*
Y7008D01*
X94794D01*
Y6899D01*
X94685D01*
Y6791D01*
X94576D01*
Y6682D01*
X94468D01*
Y6573D01*
X94359D01*
Y6465D01*
X94250D01*
Y6356D01*
X94142D01*
Y6247D01*
X94033D01*
Y6139D01*
X93924D01*
Y6030D01*
X93816D01*
Y5921D01*
X93707D01*
Y6030D01*
X93598D01*
Y6139D01*
X93490D01*
Y6247D01*
X93381D01*
Y6356D01*
X93490D01*
Y6465D01*
X93164D01*
Y6573D01*
Y6682D01*
X92946D01*
Y6791D01*
X93055D01*
Y6899D01*
X92729D01*
Y7008D01*
X92838D01*
Y7117D01*
X92512D01*
Y7225D01*
X92620D01*
Y7334D01*
X92403D01*
Y7443D01*
Y7551D01*
X92186D01*
Y7660D01*
Y7769D01*
X92077D01*
Y7877D01*
X91968D01*
Y7986D01*
X91860D01*
Y8095D01*
X91751D01*
Y8203D01*
X91642D01*
Y8312D01*
X91534D01*
Y8421D01*
X91425D01*
Y8529D01*
X91316D01*
Y8638D01*
X91208D01*
Y8747D01*
X91099D01*
Y8855D01*
X90990D01*
Y8964D01*
X90882D01*
Y9073D01*
X90773D01*
Y9181D01*
X90664D01*
Y9290D01*
X90556D01*
Y9399D01*
X90447D01*
Y9507D01*
X90338D01*
Y9616D01*
X90230D01*
Y9725D01*
X90121D01*
Y9833D01*
Y9942D01*
X89904D01*
Y10051D01*
Y10159D01*
X89686D01*
Y10268D01*
Y10377D01*
X89578D01*
Y10485D01*
X89469D01*
Y10594D01*
X89360D01*
Y10703D01*
X89252D01*
Y10811D01*
X89143D01*
Y10920D01*
Y11029D01*
X88926D01*
Y11137D01*
Y11246D01*
X88817D01*
Y11355D01*
X88708D01*
Y11463D01*
X88600D01*
Y11572D01*
X88491D01*
Y11681D01*
X88382D01*
Y11789D01*
X88274D01*
Y11898D01*
X88165D01*
Y12007D01*
X88056D01*
Y12115D01*
X87948D01*
Y12224D01*
X87839D01*
Y12333D01*
X87730D01*
Y12441D01*
X87622D01*
Y12550D01*
X87513D01*
Y12659D01*
X87622D01*
Y12767D01*
X87404D01*
Y12876D01*
Y12985D01*
X87296D01*
Y13093D01*
Y13202D01*
Y13311D01*
X87187D01*
Y13419D01*
X87078D01*
Y13528D01*
X87187D01*
Y13637D01*
X87078D01*
Y13745D01*
Y13854D01*
Y13963D01*
X86970D01*
Y14071D01*
X86861D01*
Y14180D01*
X86970D01*
Y14289D01*
X86861D01*
Y14397D01*
X86970D01*
Y14506D01*
X86861D01*
Y14615D01*
X86970D01*
Y14723D01*
X86861D01*
Y14832D01*
Y14941D01*
Y15049D01*
X86970D01*
Y15158D01*
X86861D01*
Y15267D01*
X86970D01*
Y15375D01*
X86861D01*
Y15484D01*
X86970D01*
Y15593D01*
X86861D01*
Y15701D01*
X86970D01*
Y15810D01*
Y15919D01*
Y16027D01*
X87078D01*
Y16136D01*
Y16245D01*
Y16353D01*
X87187D01*
Y16462D01*
Y16571D01*
Y16679D01*
X87296D01*
Y16788D01*
X87404D01*
Y16897D01*
Y17005D01*
Y17114D01*
X87513D01*
Y17223D01*
X87622D01*
Y17331D01*
X87730D01*
Y17440D01*
X87839D01*
Y17549D01*
X87730D01*
Y17657D01*
X87948D01*
Y17766D01*
Y17875D01*
X88165D01*
Y17983D01*
Y18092D01*
X88491D01*
Y18201D01*
Y18309D01*
X88708D01*
Y18418D01*
X88817D01*
Y18527D01*
X89143D01*
Y18635D01*
X89252D01*
Y18744D01*
X89578D01*
Y18853D01*
X89686D01*
Y18744D01*
X89795D01*
Y18853D01*
X89904D01*
Y18961D01*
X90012D01*
Y18853D01*
X90121D01*
Y18961D01*
X90230D01*
Y18853D01*
X90338D01*
Y18961D01*
X90882D01*
Y18853D01*
X90990D01*
Y18961D01*
X91099D01*
Y18853D01*
X91208D01*
Y18961D01*
X91316D01*
Y18853D01*
X91425D01*
Y18744D01*
X91534D01*
Y18853D01*
X91642D01*
Y18744D01*
X91968D01*
Y18635D01*
X92077D01*
Y18527D01*
X92403D01*
Y18418D01*
X92512D01*
Y18309D01*
X92838D01*
Y18201D01*
Y18092D01*
X93055D01*
Y17983D01*
X93164D01*
Y17875D01*
X93272D01*
Y17766D01*
X93381D01*
Y17657D01*
X93490D01*
Y17549D01*
X93598D01*
Y17440D01*
X93707D01*
Y17331D01*
X93816D01*
Y17223D01*
X93924D01*
Y17331D01*
X94033D01*
Y17440D01*
X94142D01*
Y17549D01*
X94250D01*
Y17657D01*
X94359D01*
Y17766D01*
X94468D01*
Y17875D01*
X94576D01*
Y17983D01*
X94685D01*
Y18092D01*
X94794D01*
Y18201D01*
X94902D01*
Y18309D01*
X95120D01*
Y18418D01*
Y18527D01*
X95228D01*
Y18418D01*
X95337D01*
Y18527D01*
X95446D01*
Y18635D01*
X95772D01*
Y18744D01*
X96098D01*
Y18853D01*
X96424D01*
Y18961D01*
X96532D01*
Y18853D01*
X96641D01*
Y18961D01*
X96750D01*
Y18853D01*
X96858D01*
Y18961D01*
X97184D01*
Y18853D01*
X97293D01*
Y18961D01*
X97402D01*
Y18853D01*
X97510D01*
Y18961D01*
X97619D01*
Y18853D01*
X97728D01*
Y18961D01*
X97836D01*
Y18853D01*
D02*
G37*
D10*
X58760Y20571D02*
G03*
X58760Y20571I-394J0D01*
G01*
X98963Y56138D02*
X109153D01*
X98963Y4738D02*
X110925D01*
X98963D02*
Y56138D01*
X139075Y4812D02*
X150208D01*
X138583Y56212D02*
X150208D01*
Y4812D02*
Y56212D01*
X21920Y14387D02*
Y10451D01*
X24543D01*
X25855D02*
Y14387D01*
X27167Y13075D01*
X28479Y14387D01*
Y10451D01*
X32415D02*
X29791D01*
X32415Y13075D01*
Y13731D01*
X31759Y14387D01*
X30447D01*
X29791Y13731D01*
X36351Y14387D02*
X33727D01*
Y12419D01*
X35039Y13075D01*
X35695D01*
X36351Y12419D01*
Y11107D01*
X35695Y10451D01*
X34383D01*
X33727Y11107D01*
X37663D02*
X38318Y10451D01*
X39630D01*
X40286Y11107D01*
Y13731D01*
X39630Y14387D01*
X38318D01*
X37663Y13731D01*
Y13075D01*
X38318Y12419D01*
X40286D01*
X44222Y14387D02*
X42910Y13731D01*
X41598Y12419D01*
Y11107D01*
X42254Y10451D01*
X43566D01*
X44222Y11107D01*
Y11763D01*
X43566Y12419D01*
X41598D01*
X18640Y7774D02*
Y3839D01*
X20608D01*
X21264Y4495D01*
Y5150D01*
X20608Y5807D01*
X18640D01*
X20608D01*
X21264Y6462D01*
Y7118D01*
X20608Y7774D01*
X18640D01*
X22576Y6462D02*
Y3839D01*
Y5150D01*
X23232Y5807D01*
X23888Y6462D01*
X24543D01*
X28479Y3839D02*
X27167D01*
X26511Y4495D01*
Y5807D01*
X27167Y6462D01*
X28479D01*
X29135Y5807D01*
Y5150D01*
X26511D01*
X31103Y6462D02*
X32415D01*
X33071Y5807D01*
Y3839D01*
X31103D01*
X30447Y4495D01*
X31103Y5150D01*
X33071D01*
X34383Y3839D02*
Y7774D01*
Y5150D02*
X36351Y6462D01*
X34383Y5150D02*
X36351Y3839D01*
X38974D02*
X40286D01*
X40942Y4495D01*
Y5807D01*
X40286Y6462D01*
X38974D01*
X38318Y5807D01*
Y4495D01*
X38974Y3839D01*
X42254Y6462D02*
Y4495D01*
X42910Y3839D01*
X44878D01*
Y6462D01*
X46846Y7118D02*
Y6462D01*
X46190D01*
X47502D01*
X46846D01*
Y4495D01*
X47502Y3839D01*
D11*
X125697Y79528D02*
G03*
X125697Y79528I-500J0D01*
G01*
X5391Y29406D02*
X18898D01*
X33071D02*
X45791D01*
Y63265D01*
X39249Y69806D02*
X45791Y63265D01*
X33071Y69806D02*
X39249D01*
X12326D02*
X17717D01*
X5391Y62871D02*
X12326Y69806D01*
X5391Y29406D02*
Y62871D01*
X154209Y26257D02*
X167717D01*
X181890D02*
X194609D01*
Y60115D01*
X188068Y66657D02*
X194609Y60115D01*
X181890Y66657D02*
X188068D01*
X161145D02*
X166535D01*
X154209Y59721D02*
X161145Y66657D01*
X154209Y26257D02*
Y59721D01*
X119265Y67397D02*
Y67601D01*
Y82997D02*
X135065D01*
Y67397D02*
Y70837D01*
X119265Y67397D02*
X135065D01*
X119265Y82797D02*
Y82997D01*
X135065Y79557D02*
Y82997D01*
X55980Y4442D02*
X71579D01*
X55980Y15243D02*
X71579D01*
D12*
X14567Y32677D02*
Y35827D01*
X12598Y63779D02*
X15748D01*
X14173Y62205D02*
Y65354D01*
X163386Y29528D02*
Y32677D01*
X161417Y60630D02*
X164567D01*
X162992Y59055D02*
Y62205D01*
X148126Y76476D02*
X152063D01*
X108949Y79736D02*
X116051D01*
Y69083D02*
Y79736D01*
X108949Y69083D02*
X116051D01*
X108949D02*
Y79736D01*
X37394Y16327D02*
X44496D01*
X37394D02*
Y26980D01*
X44496D01*
Y16327D02*
Y26980D01*
X167913Y76476D02*
Y88287D01*
X161614Y76476D02*
X167913D01*
X161614D02*
Y88287D01*
X167913D01*
X101083Y68104D02*
X105807D01*
Y79550D01*
X101083D02*
X105807D01*
X101083Y68104D02*
Y79550D01*
X68012Y4429D02*
Y15256D01*
X68799Y4429D02*
Y15256D01*
X68898Y4528D02*
X69685D01*
D13*
X49417Y43878D02*
Y52874D01*
Y43878D02*
X94099D01*
Y52854D01*
D14*
X113228Y63975D02*
X110604D01*
Y60039D01*
X113228D01*
X110604Y62007D02*
X111916D01*
X114540Y60039D02*
Y63975D01*
X117163Y60039D01*
Y63975D01*
X121099D02*
X118475D01*
Y60039D01*
X121099D01*
X118475Y62007D02*
X119787D01*
X125035Y63319D02*
X124379Y63975D01*
X123067D01*
X122411Y63319D01*
Y62663D01*
X123067Y62007D01*
X124379D01*
X125035Y61351D01*
Y60695D01*
X124379Y60039D01*
X123067D01*
X122411Y60695D01*
X130283Y60039D02*
Y63975D01*
X131595Y62663D01*
X132906Y63975D01*
Y60039D01*
X136842Y63975D02*
X134218D01*
Y60039D01*
X136842D01*
X134218Y62007D02*
X135530D01*
X138154Y60039D02*
Y63975D01*
X140122D01*
X140778Y63319D01*
Y62007D01*
X140122Y61351D01*
X138154D01*
X139466D02*
X140778Y60039D01*
X144714Y63319D02*
X144058Y63975D01*
X142746D01*
X142090Y63319D01*
Y60695D01*
X142746Y60039D01*
X144058D01*
X144714Y60695D01*
X146026Y60039D02*
Y62663D01*
X147337Y63975D01*
X148649Y62663D01*
Y60039D01*
Y62007D01*
X146026D01*
X149961Y60039D02*
Y63975D01*
X152585Y60039D01*
Y63975D01*
M02*
