G04*
G04 #@! TF.GenerationSoftware,Altium Limited,Altium Designer,22.3.1 (43)*
G04*
G04 Layer_Color=128*
%FSLAX25Y25*%
%MOIN*%
G70*
G04*
G04 #@! TF.SameCoordinates,092B01F2-D36E-4E11-877B-5D38536E2366*
G04*
G04*
G04 #@! TF.FilePolarity,Positive*
G04*
G01*
G75*
%ADD47C,0.00200*%
D47*
X7579Y9843D02*
X12697D01*
X10138Y7283D02*
Y12402D01*
X7480Y85039D02*
X12598D01*
X10039Y82480D02*
Y87598D01*
X187205Y9843D02*
X192323D01*
X189764Y7283D02*
Y12402D01*
X186417Y85039D02*
X191535D01*
X188976Y82480D02*
Y87598D01*
X151548Y9457D02*
X152729D01*
X152139Y8867D02*
Y10048D01*
X148497Y5717D02*
X149678D01*
X149088Y5127D02*
Y6308D01*
X143116Y5717D02*
X144298D01*
X143707Y5127D02*
Y6308D01*
X146168Y9457D02*
X147349D01*
X146758Y8867D02*
Y10048D01*
X153877Y5717D02*
X155059D01*
X154468Y5127D02*
Y6308D01*
X156929Y9457D02*
X158110D01*
X157519Y8867D02*
Y10048D01*
X73721Y41339D02*
X74902D01*
X74311Y40748D02*
Y41929D01*
X73721Y44783D02*
X74902D01*
X74311Y44193D02*
Y45374D01*
X8071Y17028D02*
X9252D01*
X8661Y16437D02*
Y17618D01*
X14075Y17028D02*
X15256D01*
X14665Y16437D02*
Y17618D01*
X19882Y9843D02*
X21063D01*
X20472Y9252D02*
Y10433D01*
X19882Y15748D02*
X21063D01*
X20472Y15157D02*
Y16339D01*
X19882Y21654D02*
X21063D01*
X20472Y21063D02*
Y22244D01*
X13976Y21654D02*
X15157D01*
X14567Y21063D02*
Y22244D01*
X8071Y21654D02*
X9252D01*
X8661Y21063D02*
Y22244D01*
X175400Y5717D02*
X176581D01*
X175990Y5127D02*
Y6308D01*
X178451Y9457D02*
X179632D01*
X179042Y8867D02*
Y10048D01*
X190354Y21654D02*
X191535D01*
X190945Y21063D02*
Y22244D01*
X184449Y21654D02*
X185630D01*
X185039Y21063D02*
Y22244D01*
X18412Y89182D02*
X19593D01*
X19002Y88591D02*
Y89772D01*
X21266Y85441D02*
X22447D01*
X21857Y84851D02*
Y86032D01*
X24317Y89182D02*
X25498D01*
X24908Y88591D02*
Y89772D01*
X106496Y84842D02*
X107677D01*
X107087Y84252D02*
Y85433D01*
X187659Y42233D02*
X188840D01*
X188249Y41642D02*
Y42823D01*
X166732Y33465D02*
X167913D01*
X167323Y32874D02*
Y34055D01*
X113287Y81496D02*
X114469D01*
X113878Y80905D02*
Y82087D01*
X159258Y5717D02*
X160439D01*
X159849Y5127D02*
Y6308D01*
X192815Y42224D02*
X193996D01*
X193405Y41634D02*
Y42815D01*
X190354Y27559D02*
X191535D01*
X190945Y26969D02*
Y28150D01*
X121457Y85236D02*
X122638D01*
X122047Y84646D02*
Y85827D01*
X164639Y5717D02*
X165820D01*
X165229Y5127D02*
Y6308D01*
X125000Y84252D02*
X126181D01*
X125591Y83661D02*
Y84842D01*
X106496Y68110D02*
X107677D01*
X107087Y67520D02*
Y68701D01*
X106693Y81496D02*
X107874D01*
X107283Y80905D02*
Y82087D01*
X166732Y27559D02*
X167913D01*
X167323Y26969D02*
Y28150D01*
X177346Y42233D02*
X178527D01*
X177937Y41642D02*
Y42823D01*
X102756Y85236D02*
X103937D01*
X103347Y84646D02*
Y85827D01*
X167690Y9457D02*
X168871D01*
X168280Y8867D02*
Y10048D01*
X184449Y33465D02*
X185630D01*
X185039Y32874D02*
Y34055D01*
X99114Y84744D02*
X100295D01*
X99705Y84153D02*
Y85335D01*
X117815D02*
X118996D01*
X118405Y84744D02*
Y85925D01*
X127067Y81398D02*
X128248D01*
X127657Y80807D02*
Y81988D01*
X97736Y77658D02*
X98917D01*
X98327Y77067D02*
Y78248D01*
X160827Y27559D02*
X162008D01*
X161417Y26969D02*
Y28150D01*
X173070Y9457D02*
X174251D01*
X173661Y8867D02*
Y10048D01*
X170019Y5717D02*
X171200D01*
X170610Y5127D02*
Y6308D01*
X154921Y27559D02*
X156102D01*
X155512Y26969D02*
Y28150D01*
X110039Y81496D02*
X111221D01*
X110630Y80905D02*
Y82087D01*
X154921Y33465D02*
X156102D01*
X155512Y32874D02*
Y34055D01*
X184449Y27559D02*
X185630D01*
X185039Y26969D02*
Y28150D01*
X190354Y33465D02*
X191535D01*
X190945Y32874D02*
Y34055D01*
X172190Y42233D02*
X173371D01*
X172781Y41642D02*
Y42823D01*
X167034Y42233D02*
X168215D01*
X167624Y41642D02*
Y42823D01*
X162309Y9457D02*
X163490D01*
X162900Y8867D02*
Y10048D01*
X98032Y73819D02*
X99213D01*
X98622Y73228D02*
Y74410D01*
X169783Y86122D02*
X170965D01*
X170374Y85532D02*
Y86713D01*
X160827Y33465D02*
X162008D01*
X161417Y32874D02*
Y34055D01*
X98425Y81496D02*
X99606D01*
X99016Y80905D02*
Y82087D01*
X182502Y42233D02*
X183684D01*
X183093Y41642D02*
Y42823D01*
X102854Y81299D02*
X104035D01*
X103445Y80709D02*
Y81890D01*
X106496Y72244D02*
X107677D01*
X107087Y71653D02*
Y72835D01*
X114370Y84842D02*
X115551D01*
X114961Y84252D02*
Y85433D01*
X88484Y67864D02*
X89665D01*
X89075Y67273D02*
Y68455D01*
X88484Y61614D02*
X89665D01*
X89075Y61024D02*
Y62205D01*
X81201Y86614D02*
X82382D01*
X81791Y86023D02*
Y87204D01*
X81201Y80364D02*
X82382D01*
X81791Y79773D02*
Y80955D01*
X81201Y74114D02*
X82382D01*
X81791Y73523D02*
Y74705D01*
X81201Y67864D02*
X82382D01*
X81791Y67273D02*
Y68455D01*
X81201Y61614D02*
X82382D01*
X81791Y61024D02*
Y62205D01*
X73819Y74114D02*
X75000D01*
X74409Y73523D02*
Y74705D01*
X73819Y86614D02*
X75000D01*
X74409Y86023D02*
Y87204D01*
X73819Y80364D02*
X75000D01*
X74409Y79773D02*
Y80955D01*
X73819Y67864D02*
X75000D01*
X74409Y67273D02*
Y68455D01*
X73819Y61614D02*
X75000D01*
X74409Y61024D02*
Y62205D01*
X88484Y55364D02*
X89665D01*
X89075Y54774D02*
Y55955D01*
X88484Y80364D02*
X89665D01*
X89075Y79773D02*
Y80955D01*
X88484Y86614D02*
X89665D01*
X89075Y86023D02*
Y87204D01*
X88484Y74114D02*
X89665D01*
X89075Y73523D02*
Y74705D01*
X88583Y34055D02*
X89764D01*
X89173Y33465D02*
Y34646D01*
X88681Y25984D02*
X89862D01*
X89272Y25394D02*
Y26575D01*
X66831Y67864D02*
X68012D01*
X67421Y67273D02*
Y68455D01*
X66831Y80364D02*
X68012D01*
X67421Y79773D02*
Y80955D01*
X66831Y86614D02*
X68012D01*
X67421Y86023D02*
Y87204D01*
X66831Y74114D02*
X68012D01*
X67421Y73523D02*
Y74705D01*
X66831Y61614D02*
X68012D01*
X67421Y61024D02*
Y62205D01*
X66831Y55364D02*
X68012D01*
X67421Y54774D02*
Y55955D01*
X59744Y74114D02*
X60925D01*
X60335Y73523D02*
Y74705D01*
X59744Y67864D02*
X60925D01*
X60335Y67273D02*
Y68455D01*
X59744Y80364D02*
X60925D01*
X60335Y79773D02*
Y80955D01*
X59744Y86614D02*
X60925D01*
X60335Y86023D02*
Y87204D01*
X59744Y61614D02*
X60925D01*
X60335Y61024D02*
Y62205D01*
X59744Y55364D02*
X60925D01*
X60335Y54774D02*
Y55955D01*
X52559Y74114D02*
X53740D01*
X53150Y73523D02*
Y74705D01*
X52559Y80364D02*
X53740D01*
X53150Y79773D02*
Y80955D01*
X52559Y86614D02*
X53740D01*
X53150Y86023D02*
Y87205D01*
X52559Y55364D02*
X53740D01*
X53150Y54774D02*
Y55955D01*
X81201Y55364D02*
X82382D01*
X81791Y54774D02*
Y55955D01*
X73819Y55364D02*
X75000D01*
X74409Y54774D02*
Y55955D01*
X66831Y49114D02*
X68012D01*
X67421Y48524D02*
Y49705D01*
X59744Y49114D02*
X60925D01*
X60335Y48524D02*
Y49705D01*
X88484Y49114D02*
X89665D01*
X89075Y48524D02*
Y49705D01*
X81201Y49114D02*
X82382D01*
X81791Y48524D02*
Y49705D01*
X73819Y49114D02*
X75000D01*
X74409Y48524D02*
Y49705D01*
X77461Y44783D02*
X78642D01*
X78051Y44193D02*
Y45374D01*
X81299Y44094D02*
X82480D01*
X81890Y43504D02*
Y44685D01*
X62900Y41938D02*
X64081D01*
X63490Y41347D02*
Y42528D01*
X66837Y41938D02*
X68018D01*
X67427Y41347D02*
Y42528D01*
X77756Y40945D02*
X78937D01*
X78347Y40354D02*
Y41535D01*
X52559Y61614D02*
X53740D01*
X53150Y61024D02*
Y62205D01*
X52559Y67864D02*
X53740D01*
X53150Y67274D02*
Y68455D01*
X52559Y49114D02*
X53740D01*
X53150Y48524D02*
Y49705D01*
X27171Y85441D02*
X28353D01*
X27762Y84851D02*
Y86032D01*
X33077Y85441D02*
X34258D01*
X33668Y84851D02*
Y86032D01*
X38982Y85441D02*
X40164D01*
X39573Y84851D02*
Y86032D01*
X44888Y85441D02*
X46069D01*
X45479Y84851D02*
Y86032D01*
X47939Y89182D02*
X49120D01*
X48530Y88591D02*
Y89772D01*
X42034Y89182D02*
X43215D01*
X42624Y88591D02*
Y89772D01*
X36128Y89182D02*
X37309D01*
X36719Y88591D02*
Y89772D01*
X30223Y89182D02*
X31404D01*
X30813Y88591D02*
Y89772D01*
X25787Y21654D02*
X26969D01*
X26378Y21063D02*
Y22244D01*
X25787Y45276D02*
X26969D01*
X26378Y44685D02*
Y45866D01*
X19882Y45276D02*
X21063D01*
X20472Y44685D02*
Y45866D01*
X19882Y39370D02*
X21063D01*
X20472Y38780D02*
Y39961D01*
X19882Y33465D02*
X21063D01*
X20472Y32874D02*
Y34055D01*
X19882Y27559D02*
X21063D01*
X20472Y26969D02*
Y28150D01*
X13976Y27559D02*
X15157D01*
X14567Y26969D02*
Y28150D01*
X13976Y33465D02*
X15157D01*
X14567Y32874D02*
Y34055D01*
X13976Y39370D02*
X15157D01*
X14567Y38780D02*
Y39961D01*
X13976Y45276D02*
X15157D01*
X14567Y44685D02*
Y45866D01*
X8071Y45276D02*
X9252D01*
X8661Y44685D02*
Y45866D01*
X8071Y39370D02*
X9252D01*
X8661Y38780D02*
Y39961D01*
X8071Y33465D02*
X9252D01*
X8661Y32874D02*
Y34055D01*
X8071Y27559D02*
X9252D01*
X8661Y26969D02*
Y28150D01*
X55315Y15748D02*
X56496D01*
X55905Y15157D02*
Y16339D01*
X49409Y9843D02*
X50591D01*
X50000Y9252D02*
Y10433D01*
X49409Y15748D02*
X50591D01*
X50000Y15157D02*
Y16339D01*
X43504Y15748D02*
X44685D01*
X44094Y15157D02*
Y16339D01*
X43504Y9843D02*
X44685D01*
X44094Y9252D02*
Y10433D01*
X37598Y9843D02*
X38780D01*
X38189Y9252D02*
Y10433D01*
X37598Y15748D02*
X38780D01*
X38189Y15157D02*
Y16339D01*
X31693Y15748D02*
X32874D01*
X32283Y15157D02*
Y16339D01*
X31693Y9843D02*
X32874D01*
X32283Y9252D02*
Y10433D01*
X25787Y9843D02*
X26969D01*
X26378Y9252D02*
Y10433D01*
X25787Y15748D02*
X26969D01*
X26378Y15157D02*
Y16339D01*
M02*
