G04*
G04 #@! TF.GenerationSoftware,Altium Limited,Altium Designer,22.3.1 (43)*
G04*
G04 Layer_Physical_Order=4*
G04 Layer_Color=16711680*
%FSLAX25Y25*%
%MOIN*%
G70*
G04*
G04 #@! TF.SameCoordinates,092B01F2-D36E-4E11-877B-5D38536E2366*
G04*
G04*
G04 #@! TF.FilePolarity,Positive*
G04*
G01*
G75*
%ADD37C,0.01000*%
%ADD40R,0.11811X0.11811*%
%ADD41C,0.02362*%
G36*
X182171Y91845D02*
Y78234D01*
X196998D01*
Y2215D01*
X3002D01*
Y77830D01*
X3234Y78234D01*
X16845D01*
Y91791D01*
X16845Y91791D01*
X16845Y91791D01*
Y92667D01*
X182171D01*
Y91845D01*
D02*
G37*
%LPC*%
G36*
X103859Y83380D02*
X103031D01*
X102266Y83064D01*
X101681Y82478D01*
X101364Y81713D01*
Y80885D01*
X101681Y80120D01*
X102017Y79783D01*
Y66733D01*
X95054Y59769D01*
X94744Y59306D01*
X94636Y58760D01*
X94636Y58760D01*
Y45768D01*
X91239Y42372D01*
X79862D01*
X79525Y42709D01*
X78760Y43026D01*
X77933D01*
X77168Y42709D01*
X76582Y42124D01*
X76265Y41359D01*
Y40531D01*
X76582Y39766D01*
X77168Y39181D01*
X77933Y38864D01*
X78760D01*
X79525Y39181D01*
X79862Y39518D01*
X91831D01*
X91831Y39517D01*
X92377Y39626D01*
X92840Y39935D01*
X97072Y44168D01*
X97072Y44168D01*
X97382Y44631D01*
X97490Y45177D01*
X97490Y45177D01*
Y58169D01*
X104454Y65132D01*
X104454Y65132D01*
X104764Y65596D01*
X104872Y66142D01*
X104872Y66142D01*
Y79783D01*
X105209Y80120D01*
X105526Y80885D01*
Y81713D01*
X105209Y82478D01*
X104624Y83064D01*
X103859Y83380D01*
D02*
G37*
%LPD*%
G36*
X104210Y80389D02*
X104154Y80316D01*
X104105Y80237D01*
X104062Y80152D01*
X104027Y80062D01*
X103997Y79965D01*
X103974Y79863D01*
X103958Y79755D01*
X103948Y79641D01*
X103945Y79520D01*
X102945D01*
X102942Y79641D01*
X102932Y79755D01*
X102916Y79863D01*
X102893Y79965D01*
X102863Y80062D01*
X102827Y80152D01*
X102785Y80237D01*
X102736Y80316D01*
X102680Y80389D01*
X102618Y80456D01*
X104272D01*
X104210Y80389D01*
D02*
G37*
G36*
X79257Y41710D02*
X79330Y41654D01*
X79409Y41605D01*
X79493Y41563D01*
X79584Y41527D01*
X79680Y41497D01*
X79783Y41474D01*
X79891Y41458D01*
X80005Y41448D01*
X80125Y41445D01*
Y40445D01*
X80005Y40442D01*
X79891Y40432D01*
X79783Y40415D01*
X79680Y40393D01*
X79584Y40363D01*
X79493Y40327D01*
X79409Y40285D01*
X79330Y40236D01*
X79257Y40180D01*
X79190Y40118D01*
Y41772D01*
X79257Y41710D01*
D02*
G37*
D37*
X103445Y66142D02*
Y81299D01*
X96063Y58760D02*
X103445Y66142D01*
X96063Y45177D02*
Y58760D01*
X78347Y40945D02*
X91831D01*
X96063Y45177D01*
D40*
X10138Y9843D02*
D03*
X10039Y85039D02*
D03*
X189764Y9843D02*
D03*
X188976Y85039D02*
D03*
D41*
X152139Y9457D02*
D03*
X149088Y5717D02*
D03*
X143707D02*
D03*
X146758Y9457D02*
D03*
X154468Y5717D02*
D03*
X157519Y9457D02*
D03*
X74311Y41339D02*
D03*
X74311Y44783D02*
D03*
X8661Y17028D02*
D03*
X14665D02*
D03*
X20472Y9843D02*
D03*
Y15748D02*
D03*
Y21654D02*
D03*
X14567D02*
D03*
X8661D02*
D03*
X175990Y5717D02*
D03*
X179042Y9457D02*
D03*
X190945Y21654D02*
D03*
X185039D02*
D03*
X19002Y89182D02*
D03*
X21857Y85441D02*
D03*
X24908Y89182D02*
D03*
X107087Y84842D02*
D03*
X188249Y42233D02*
D03*
X167323Y33465D02*
D03*
X113878Y81496D02*
D03*
X159849Y5717D02*
D03*
X193405Y42224D02*
D03*
X190945Y27559D02*
D03*
X122047Y85236D02*
D03*
X165229Y5717D02*
D03*
X125591Y84252D02*
D03*
X107087Y68110D02*
D03*
X107283Y81496D02*
D03*
X167323Y27559D02*
D03*
X177937Y42233D02*
D03*
X103347Y85236D02*
D03*
X168280Y9457D02*
D03*
X185039Y33465D02*
D03*
X99705Y84744D02*
D03*
X118405Y85335D02*
D03*
X127657Y81398D02*
D03*
X98327Y77658D02*
D03*
X161417Y27559D02*
D03*
X173661Y9457D02*
D03*
X170610Y5717D02*
D03*
X155512Y27559D02*
D03*
X110630Y81496D02*
D03*
X155512Y33465D02*
D03*
X185039Y27559D02*
D03*
X190945Y33465D02*
D03*
X172781Y42233D02*
D03*
X167624D02*
D03*
X162900Y9457D02*
D03*
X98622Y73819D02*
D03*
X170374Y86122D02*
D03*
X161417Y33465D02*
D03*
X99016Y81496D02*
D03*
X183093Y42233D02*
D03*
X103445Y81299D02*
D03*
X107087Y72244D02*
D03*
X114961Y84842D02*
D03*
X89075Y67864D02*
D03*
Y61614D02*
D03*
X81791Y86614D02*
D03*
Y80364D02*
D03*
Y74114D02*
D03*
Y67864D02*
D03*
Y61614D02*
D03*
X74409Y74114D02*
D03*
Y86614D02*
D03*
Y80364D02*
D03*
Y67864D02*
D03*
Y61614D02*
D03*
X89075Y55364D02*
D03*
Y80364D02*
D03*
Y86614D02*
D03*
Y74114D02*
D03*
X89173Y34055D02*
D03*
X89272Y25984D02*
D03*
X67421Y67864D02*
D03*
Y80364D02*
D03*
Y86614D02*
D03*
Y74114D02*
D03*
Y61614D02*
D03*
Y55364D02*
D03*
X60335Y74114D02*
D03*
Y67864D02*
D03*
Y80364D02*
D03*
Y86614D02*
D03*
Y61614D02*
D03*
Y55364D02*
D03*
X53150Y74114D02*
D03*
Y80364D02*
D03*
Y86614D02*
D03*
Y55364D02*
D03*
X81791Y55364D02*
D03*
X74409D02*
D03*
X67421Y49114D02*
D03*
X60335D02*
D03*
X89075D02*
D03*
X81791D02*
D03*
X74409D02*
D03*
X78051Y44783D02*
D03*
X81890Y44094D02*
D03*
X63490Y41938D02*
D03*
X67427D02*
D03*
X78347Y40945D02*
D03*
X53150Y61614D02*
D03*
Y67864D02*
D03*
Y49114D02*
D03*
X27762Y85441D02*
D03*
X33668D02*
D03*
X39573D02*
D03*
X45479D02*
D03*
X48530Y89182D02*
D03*
X42624D02*
D03*
X36719D02*
D03*
X30813D02*
D03*
X26378Y21654D02*
D03*
Y45276D02*
D03*
X20472D02*
D03*
Y39370D02*
D03*
Y33465D02*
D03*
Y27559D02*
D03*
X14567D02*
D03*
Y33465D02*
D03*
Y39370D02*
D03*
Y45276D02*
D03*
X8661D02*
D03*
Y39370D02*
D03*
Y33465D02*
D03*
Y27559D02*
D03*
X55905Y15748D02*
D03*
X50000Y9843D02*
D03*
Y15748D02*
D03*
X44094D02*
D03*
Y9843D02*
D03*
X38189D02*
D03*
Y15748D02*
D03*
X32283D02*
D03*
Y9843D02*
D03*
X26378D02*
D03*
Y15748D02*
D03*
M02*
