G04*
G04 #@! TF.GenerationSoftware,Altium Limited,Altium Designer,22.3.1 (43)*
G04*
G04 Layer_Color=16711935*
%FSLAX25Y25*%
%MOIN*%
G70*
G04*
G04 #@! TF.SameCoordinates,148C8EC3-FA1E-4D1B-B791-449684C16175*
G04*
G04*
G04 #@! TF.FilePolarity,Negative*
G04*
G01*
G75*
%ADD34R,0.12205X0.12205*%
%ADD35C,0.03150*%
D34*
X10138Y9843D02*
D03*
X10039Y85039D02*
D03*
X189764Y9843D02*
D03*
X188976Y85039D02*
D03*
D35*
X89075Y67864D02*
D03*
Y61614D02*
D03*
X81791Y86614D02*
D03*
Y80364D02*
D03*
Y74114D02*
D03*
Y67864D02*
D03*
Y61614D02*
D03*
X74409Y74114D02*
D03*
Y86614D02*
D03*
Y80364D02*
D03*
Y67864D02*
D03*
Y61614D02*
D03*
X89075Y55364D02*
D03*
Y80364D02*
D03*
Y86614D02*
D03*
Y74114D02*
D03*
X67421Y67864D02*
D03*
Y80364D02*
D03*
Y86614D02*
D03*
Y74114D02*
D03*
Y61614D02*
D03*
Y55364D02*
D03*
X60335Y74114D02*
D03*
Y67864D02*
D03*
Y80364D02*
D03*
Y86614D02*
D03*
Y61614D02*
D03*
Y55364D02*
D03*
X53150Y74114D02*
D03*
Y80364D02*
D03*
Y86614D02*
D03*
Y55364D02*
D03*
X81791Y55364D02*
D03*
X74409D02*
D03*
X67421Y49114D02*
D03*
X60335D02*
D03*
X89075D02*
D03*
X81791D02*
D03*
X74409D02*
D03*
X53150Y61614D02*
D03*
Y67864D02*
D03*
Y49114D02*
D03*
M02*
