G04*
G04 #@! TF.GenerationSoftware,Altium Limited,Altium Designer,22.3.1 (43)*
G04*
G04 Layer_Color=255*
%FSLAX25Y25*%
%MOIN*%
G70*
G04*
G04 #@! TF.SameCoordinates,092B01F2-D36E-4E11-877B-5D38536E2366*
G04*
G04*
G04 #@! TF.FilePolarity,Positive*
G04*
G01*
G75*
%ADD15R,0.21300X0.11400*%
G04:AMPARAMS|DCode=16|XSize=159.06mil|YSize=83.46mil|CornerRadius=16.69mil|HoleSize=0mil|Usage=FLASHONLY|Rotation=90.000|XOffset=0mil|YOffset=0mil|HoleType=Round|Shape=RoundedRectangle|*
%AMROUNDEDRECTD16*
21,1,0.15906,0.05008,0,0,90.0*
21,1,0.12567,0.08346,0,0,90.0*
1,1,0.03339,0.02504,0.06284*
1,1,0.03339,0.02504,-0.06284*
1,1,0.03339,-0.02504,-0.06284*
1,1,0.03339,-0.02504,0.06284*
%
%ADD16ROUNDEDRECTD16*%
%ADD17R,0.03937X0.13780*%
%ADD18R,0.05700X0.03000*%
%ADD19R,0.05906X0.06299*%
%ADD20R,0.04900X0.04902*%
%ADD21R,0.05118X0.03543*%
%ADD22R,0.05118X0.03150*%
%ADD23R,0.03347X0.03347*%
%ADD24R,0.05512X0.07874*%
%ADD36R,0.42126X0.42126*%
%ADD40R,0.11811X0.11811*%
D15*
X124508Y50000D02*
D03*
Y11024D02*
D03*
D16*
X25591Y66201D02*
D03*
Y33012D02*
D03*
X174409Y63051D02*
D03*
Y29862D02*
D03*
D17*
X65059Y30807D02*
D03*
X71752D02*
D03*
X78445D02*
D03*
X85138D02*
D03*
X58366D02*
D03*
D18*
X150098Y78969D02*
D03*
Y87369D02*
D03*
D19*
X133858Y75197D02*
D03*
D20*
X120965Y71161D02*
D03*
Y79232D02*
D03*
D21*
X112500Y71850D02*
D03*
Y76968D02*
D03*
X40945Y24213D02*
D03*
Y19094D02*
D03*
D22*
X164764Y78642D02*
D03*
Y86122D02*
D03*
D23*
X103445Y70473D02*
D03*
Y77165D02*
D03*
D24*
X55413Y9843D02*
D03*
X72729D02*
D03*
D36*
X71760Y68012D02*
D03*
D40*
X10138Y9843D02*
D03*
X10039Y85039D02*
D03*
X189764Y9843D02*
D03*
X188976Y85039D02*
D03*
M02*
