G04*
G04 #@! TF.GenerationSoftware,Altium Limited,Altium Designer,22.3.1 (43)*
G04*
G04 Layer_Color=128*
%FSLAX25Y25*%
%MOIN*%
G70*
G04*
G04 #@! TF.SameCoordinates,5170A01E-4387-43F3-8572-BE7CC5784F07*
G04*
G04*
G04 #@! TF.FilePolarity,Positive*
G04*
G01*
G75*
%ADD12C,0.00394*%
%ADD40C,0.00200*%
D12*
X-14173Y95669D02*
X-197D01*
X-14173Y-295D02*
Y95669D01*
Y-14370D02*
Y-295D01*
Y-14370D02*
X0D01*
X125394D01*
X139862D01*
Y0D01*
Y80315D01*
Y95669D01*
X125689D02*
X139862D01*
X-197D02*
X125689D01*
D40*
X-1969Y32913D02*
X2362D01*
X197Y30748D02*
Y35079D01*
X-2756Y81496D02*
X2362D01*
X-197Y78937D02*
Y84055D01*
X-2559Y0D02*
X2559D01*
X0Y-2559D02*
Y2559D01*
X-1969Y42913D02*
X2362D01*
X197Y40748D02*
Y45079D01*
X123130Y0D02*
X128248D01*
X125689Y-2559D02*
Y2559D01*
X123130Y81496D02*
X128248D01*
X125689Y78937D02*
Y84055D01*
X132579Y58661D02*
X133760D01*
X133169Y58071D02*
Y59252D01*
X132579Y52756D02*
X133760D01*
X133169Y52165D02*
Y53347D01*
X132579Y46850D02*
X133760D01*
X133169Y46260D02*
Y47441D01*
X132579Y40945D02*
X133760D01*
X133169Y40354D02*
Y41535D01*
X132579Y35039D02*
X133760D01*
X133169Y34449D02*
Y35630D01*
X132579Y29134D02*
X133760D01*
X133169Y28543D02*
Y29724D01*
X132579Y23228D02*
X133760D01*
X133169Y22638D02*
Y23819D01*
X132579Y17323D02*
X133760D01*
X133169Y16732D02*
Y17913D01*
X3347Y13780D02*
X4528D01*
X3937Y13189D02*
Y14370D01*
X-2559Y13780D02*
X-1378D01*
X-1969Y13189D02*
Y14370D01*
X-2554Y25817D02*
X-1373D01*
X-1963Y25226D02*
Y26407D01*
X3352Y25817D02*
X4533D01*
X3942Y25226D02*
Y26407D01*
X-2554Y19911D02*
X-1373D01*
X-1963Y19321D02*
Y20502D01*
X3352Y19911D02*
X4533D01*
X3942Y19321D02*
Y20502D01*
X-8465Y13780D02*
X-7283D01*
X-7874Y13189D02*
Y14370D01*
X-8465Y19685D02*
X-7283D01*
X-7874Y19094D02*
Y20276D01*
X-8465Y25591D02*
X-7283D01*
X-7874Y25000D02*
Y26181D01*
X-8465Y31496D02*
X-7283D01*
X-7874Y30906D02*
Y32087D01*
X-8465Y37402D02*
X-7283D01*
X-7874Y36811D02*
Y37992D01*
X-8465Y43307D02*
X-7283D01*
X-7874Y42717D02*
Y43898D01*
X-8465Y49213D02*
X-7283D01*
X-7874Y48622D02*
Y49803D01*
X-8465Y55118D02*
X-7283D01*
X-7874Y54528D02*
Y55709D01*
X3347Y49213D02*
X4528D01*
X3937Y48622D02*
Y49803D01*
X-2559Y49213D02*
X-1378D01*
X-1969Y48622D02*
Y49803D01*
X3347Y55118D02*
X4528D01*
X3937Y54528D02*
Y55709D01*
X-2559Y55118D02*
X-1378D01*
X-1969Y54528D02*
Y55709D01*
X96063Y-4331D02*
X97244D01*
X96653Y-4921D02*
Y-3740D01*
X92126Y-394D02*
X93307D01*
X92716Y-984D02*
Y197D01*
X88189Y3543D02*
X89370D01*
X88779Y2953D02*
Y4134D01*
X80315Y3543D02*
X81496D01*
X80905Y2953D02*
Y4134D01*
X84252Y-394D02*
X85433D01*
X84842Y-984D02*
Y197D01*
X88189Y-4331D02*
X89370D01*
X88779Y-4921D02*
Y-3740D01*
X72441Y3543D02*
X73622D01*
X73032Y2953D02*
Y4134D01*
X33071Y3543D02*
X34252D01*
X33661Y2953D02*
Y4134D01*
X40945Y3543D02*
X42126D01*
X41535Y2953D02*
Y4134D01*
X48819Y3543D02*
X50000D01*
X49409Y2953D02*
Y4134D01*
X56693Y3543D02*
X57874D01*
X57284Y2953D02*
Y4134D01*
X64567Y3543D02*
X65748D01*
X65158Y2953D02*
Y4134D01*
X76378Y-394D02*
X77559D01*
X76968Y-984D02*
Y197D01*
X68504Y-394D02*
X69685D01*
X69095Y-984D02*
Y197D01*
X60630Y-394D02*
X61811D01*
X61221Y-984D02*
Y197D01*
X52756Y-394D02*
X53937D01*
X53347Y-984D02*
Y197D01*
X44882Y-394D02*
X46063D01*
X45472Y-984D02*
Y197D01*
X37008Y-394D02*
X38189D01*
X37598Y-984D02*
Y197D01*
X29134Y-394D02*
X30315D01*
X29724Y-984D02*
Y197D01*
X80315Y-4331D02*
X81496D01*
X80905Y-4921D02*
Y-3740D01*
X72441Y-4331D02*
X73622D01*
X73032Y-4921D02*
Y-3740D01*
X64567Y-4331D02*
X65748D01*
X65158Y-4921D02*
Y-3740D01*
X56693Y-4331D02*
X57874D01*
X57284Y-4921D02*
Y-3740D01*
X48819Y-4331D02*
X50000D01*
X49409Y-4921D02*
Y-3740D01*
X40945Y-4331D02*
X42126D01*
X41535Y-4921D02*
Y-3740D01*
X33071Y-4331D02*
X34252D01*
X33661Y-4921D02*
Y-3740D01*
X25197Y-4331D02*
X26378D01*
X25787Y-4921D02*
Y-3740D01*
X100394Y25886D02*
X101575D01*
X100984Y25295D02*
Y26476D01*
X73819Y25000D02*
X75000D01*
X74410Y24409D02*
Y25591D01*
X44291Y24409D02*
X45472D01*
X44882Y23819D02*
Y25000D01*
X14272Y82480D02*
X15453D01*
X14862Y81890D02*
Y83071D01*
X22146Y82480D02*
X23327D01*
X22736Y81890D02*
Y83071D01*
X30020Y82480D02*
X31201D01*
X30610Y81890D02*
Y83071D01*
X37894Y82480D02*
X39075D01*
X38484Y81890D02*
Y83071D01*
X45768Y82480D02*
X46949D01*
X46358Y81890D02*
Y83071D01*
X53642Y82480D02*
X54823D01*
X54232Y81890D02*
Y83071D01*
X61516Y82480D02*
X62697D01*
X62106Y81890D02*
Y83071D01*
X69390Y82480D02*
X70571D01*
X69980Y81890D02*
Y83071D01*
X77264Y82480D02*
X78445D01*
X77854Y81890D02*
Y83071D01*
X85138Y82480D02*
X86319D01*
X85728Y81890D02*
Y83071D01*
X93012Y82480D02*
X94193D01*
X93602Y81890D02*
Y83071D01*
X100886Y82480D02*
X102067D01*
X101476Y81890D02*
Y83071D01*
X108760Y82480D02*
X109941D01*
X109350Y81890D02*
Y83071D01*
X112697Y86417D02*
X113878D01*
X113287Y85827D02*
Y87008D01*
X104823Y86417D02*
X106004D01*
X105413Y85827D02*
Y87008D01*
X96949Y86417D02*
X98130D01*
X97539Y85827D02*
Y87008D01*
X89075Y86417D02*
X90256D01*
X89665Y85827D02*
Y87008D01*
X81201Y86417D02*
X82382D01*
X81791Y85827D02*
Y87008D01*
X73327Y86417D02*
X74508D01*
X73917Y85827D02*
Y87008D01*
X65453Y86417D02*
X66634D01*
X66043Y85827D02*
Y87008D01*
X57579Y86417D02*
X58760D01*
X58169Y85827D02*
Y87008D01*
X49705Y86417D02*
X50886D01*
X50295Y85827D02*
Y87008D01*
X41831Y86417D02*
X43012D01*
X42421Y85827D02*
Y87008D01*
X33957Y86417D02*
X35138D01*
X34547Y85827D02*
Y87008D01*
X26083Y86417D02*
X27264D01*
X26673Y85827D02*
Y87008D01*
X18209Y86417D02*
X19390D01*
X18799Y85827D02*
Y87008D01*
X10335Y86417D02*
X11516D01*
X10925Y85827D02*
Y87008D01*
X88189Y46850D02*
X89370D01*
X88779Y46260D02*
Y47441D01*
X88189Y54724D02*
X89370D01*
X88779Y54134D02*
Y55315D01*
X88189Y62598D02*
X89370D01*
X88779Y62008D02*
Y63189D01*
X88189Y70472D02*
X89370D01*
X88779Y69882D02*
Y71063D01*
X80315Y62598D02*
X81496D01*
X80905Y62008D02*
Y63189D01*
X80315Y54724D02*
X81496D01*
X80905Y54134D02*
Y55315D01*
X80315Y46850D02*
X81496D01*
X80905Y46260D02*
Y47441D01*
X72441Y46850D02*
X73622D01*
X73032Y46260D02*
Y47441D01*
X72441Y54724D02*
X73622D01*
X73032Y54134D02*
Y55315D01*
X72441Y62598D02*
X73622D01*
X73032Y62008D02*
Y63189D01*
X64567Y62598D02*
X65748D01*
X65158Y62008D02*
Y63189D01*
X64567Y54724D02*
X65748D01*
X65158Y54134D02*
Y55315D01*
X64567Y46850D02*
X65748D01*
X65158Y46260D02*
Y47441D01*
X56693Y46850D02*
X57874D01*
X57284Y46260D02*
Y47441D01*
X56693Y54724D02*
X57874D01*
X57284Y54134D02*
Y55315D01*
X56693Y62598D02*
X57874D01*
X57284Y62008D02*
Y63189D01*
X48819Y46850D02*
X50000D01*
X49409Y46260D02*
Y47441D01*
X48819Y54724D02*
X50000D01*
X49409Y54134D02*
Y55315D01*
X48819Y62598D02*
X50000D01*
X49409Y62008D02*
Y63189D01*
X40945Y46850D02*
X42126D01*
X41535Y46260D02*
Y47441D01*
X40945Y54724D02*
X42126D01*
X41535Y54134D02*
Y55315D01*
X40945Y62598D02*
X42126D01*
X41535Y62008D02*
Y63189D01*
X80315Y70472D02*
X81496D01*
X80905Y69882D02*
Y71063D01*
X72441Y70472D02*
X73622D01*
X73032Y69882D02*
Y71063D01*
X64567Y70472D02*
X65748D01*
X65158Y69882D02*
Y71063D01*
X56693Y70472D02*
X57874D01*
X57284Y69882D02*
Y71063D01*
X48819Y70472D02*
X50000D01*
X49409Y69882D02*
Y71063D01*
X40945Y70472D02*
X42126D01*
X41535Y69882D02*
Y71063D01*
M02*
