G04*
G04 #@! TF.GenerationSoftware,Altium Limited,Altium Designer,22.3.1 (43)*
G04*
G04 Layer_Color=32896*
%FSLAX25Y25*%
%MOIN*%
G70*
G04*
G04 #@! TF.SameCoordinates,5170A01E-4387-43F3-8572-BE7CC5784F07*
G04*
G04*
G04 #@! TF.FilePolarity,Positive*
G04*
G01*
G75*
%ADD13C,0.00630*%
G36*
X25576Y5862D02*
X25684D01*
Y5754D01*
X26010D01*
Y5645D01*
X26119D01*
Y5754D01*
X26228D01*
Y5645D01*
X26337D01*
Y5536D01*
X26445D01*
Y5428D01*
X26554D01*
Y5319D01*
X26880D01*
Y5210D01*
X26989D01*
Y5102D01*
X27097D01*
Y4993D01*
X27206D01*
Y4884D01*
X27314D01*
Y4776D01*
X27423D01*
Y4667D01*
X27532D01*
Y4558D01*
X27641D01*
Y4450D01*
X27749D01*
Y4341D01*
Y4232D01*
X27966D01*
Y4124D01*
X27858D01*
Y4015D01*
X27966D01*
Y3906D01*
X28075D01*
Y3798D01*
X28184D01*
Y3689D01*
Y3580D01*
Y3472D01*
X28293D01*
Y3363D01*
Y3254D01*
Y3146D01*
X28401D01*
Y3037D01*
X28293D01*
Y2928D01*
X28401D01*
Y2820D01*
Y2711D01*
Y2602D01*
X28510D01*
Y2494D01*
X28401D01*
Y2385D01*
X28510D01*
Y2276D01*
Y2168D01*
Y2059D01*
Y1950D01*
Y1842D01*
Y1733D01*
Y1624D01*
Y1516D01*
Y1407D01*
X28401D01*
Y1298D01*
X28510D01*
Y1190D01*
X28401D01*
Y1081D01*
Y972D01*
Y864D01*
X28293D01*
Y755D01*
X28401D01*
Y646D01*
X28293D01*
Y538D01*
X28184D01*
Y429D01*
Y320D01*
Y212D01*
X28075D01*
Y103D01*
Y-6D01*
X27966D01*
Y-114D01*
Y-223D01*
X27858D01*
Y-332D01*
X27749D01*
Y-440D01*
X27641D01*
Y-549D01*
Y-658D01*
X27532D01*
Y-766D01*
Y-875D01*
X27314D01*
Y-984D01*
Y-1092D01*
X27206D01*
Y-1201D01*
X27097D01*
Y-1310D01*
X26989D01*
Y-1418D01*
X26880D01*
Y-1527D01*
X26771D01*
Y-1636D01*
X26662D01*
Y-1744D01*
X26554D01*
Y-1853D01*
X26445D01*
Y-1962D01*
X26337D01*
Y-2070D01*
X26228D01*
Y-2179D01*
X26119D01*
Y-2288D01*
X26010D01*
Y-2396D01*
X25902D01*
Y-2505D01*
X25793D01*
Y-2614D01*
X25684D01*
Y-2722D01*
X25576D01*
Y-2831D01*
X25467D01*
Y-2940D01*
X25358D01*
Y-3048D01*
X25250D01*
Y-3157D01*
Y-3266D01*
X25032D01*
Y-3374D01*
Y-3483D01*
X24815D01*
Y-3592D01*
Y-3700D01*
X24706D01*
Y-3809D01*
X24598D01*
Y-3918D01*
X24489D01*
Y-4026D01*
Y-4135D01*
X24272D01*
Y-4244D01*
Y-4352D01*
X24054D01*
Y-4461D01*
Y-4570D01*
X23946D01*
Y-4678D01*
X23837D01*
Y-4787D01*
X23729D01*
Y-4896D01*
X23620D01*
Y-5004D01*
X23511D01*
Y-5113D01*
X23403D01*
Y-5222D01*
X23294D01*
Y-5330D01*
X23185D01*
Y-5439D01*
X23076D01*
Y-5548D01*
X22968D01*
Y-5656D01*
X22859D01*
Y-5765D01*
X22750D01*
Y-5874D01*
X22642D01*
Y-5982D01*
X22533D01*
Y-6091D01*
X22424D01*
Y-6200D01*
X22316D01*
Y-6308D01*
X22207D01*
Y-6417D01*
X22098D01*
Y-6526D01*
X21990D01*
Y-6634D01*
X21881D01*
Y-6743D01*
X21772D01*
Y-6852D01*
X21664D01*
Y-6960D01*
X21555D01*
Y-7069D01*
X21447D01*
Y-6960D01*
X21338D01*
Y-6852D01*
X21229D01*
Y-6743D01*
X21121D01*
Y-6634D01*
X21229D01*
Y-6526D01*
X20903D01*
Y-6417D01*
Y-6308D01*
X20686D01*
Y-6200D01*
X20795D01*
Y-6091D01*
X20469D01*
Y-5982D01*
X20577D01*
Y-5874D01*
X20251D01*
Y-5765D01*
X20360D01*
Y-5656D01*
X20142D01*
Y-5548D01*
Y-5439D01*
X19925D01*
Y-5330D01*
Y-5222D01*
X19816D01*
Y-5113D01*
X19708D01*
Y-5004D01*
X19599D01*
Y-4896D01*
X19490D01*
Y-4787D01*
X19382D01*
Y-4678D01*
X19273D01*
Y-4570D01*
X19164D01*
Y-4461D01*
X19056D01*
Y-4352D01*
X18947D01*
Y-4244D01*
X18838D01*
Y-4135D01*
X18730D01*
Y-4026D01*
X18621D01*
Y-3918D01*
X18512D01*
Y-3809D01*
X18404D01*
Y-3700D01*
X18295D01*
Y-3592D01*
X18186D01*
Y-3483D01*
X18078D01*
Y-3374D01*
X17969D01*
Y-3266D01*
X17861D01*
Y-3157D01*
Y-3048D01*
X17643D01*
Y-2940D01*
Y-2831D01*
X17426D01*
Y-2722D01*
Y-2614D01*
X17317D01*
Y-2505D01*
X17209D01*
Y-2396D01*
X17100D01*
Y-2288D01*
X16991D01*
Y-2179D01*
X16883D01*
Y-2070D01*
Y-1962D01*
X16665D01*
Y-1853D01*
Y-1744D01*
X16556D01*
Y-1636D01*
X16448D01*
Y-1527D01*
X16339D01*
Y-1418D01*
X16230D01*
Y-1310D01*
X16122D01*
Y-1201D01*
X16013D01*
Y-1092D01*
X15904D01*
Y-984D01*
X15796D01*
Y-875D01*
X15687D01*
Y-766D01*
X15578D01*
Y-658D01*
X15470D01*
Y-549D01*
X15361D01*
Y-440D01*
X15252D01*
Y-332D01*
X15361D01*
Y-223D01*
X15144D01*
Y-114D01*
Y-6D01*
X15035D01*
Y103D01*
Y212D01*
Y320D01*
X14927D01*
Y429D01*
X14818D01*
Y538D01*
X14927D01*
Y646D01*
X14818D01*
Y755D01*
Y864D01*
Y972D01*
X14709D01*
Y1081D01*
X14601D01*
Y1190D01*
X14709D01*
Y1298D01*
X14601D01*
Y1407D01*
X14709D01*
Y1516D01*
X14601D01*
Y1624D01*
X14709D01*
Y1733D01*
X14601D01*
Y1842D01*
Y1950D01*
Y2059D01*
X14709D01*
Y2168D01*
X14601D01*
Y2276D01*
X14709D01*
Y2385D01*
X14601D01*
Y2494D01*
X14709D01*
Y2602D01*
X14601D01*
Y2711D01*
X14709D01*
Y2820D01*
Y2928D01*
Y3037D01*
X14818D01*
Y3146D01*
Y3254D01*
Y3363D01*
X14927D01*
Y3472D01*
Y3580D01*
Y3689D01*
X15035D01*
Y3798D01*
X15144D01*
Y3906D01*
Y4015D01*
Y4124D01*
X15252D01*
Y4232D01*
X15361D01*
Y4341D01*
X15470D01*
Y4450D01*
X15578D01*
Y4558D01*
X15470D01*
Y4667D01*
X15687D01*
Y4776D01*
Y4884D01*
X15904D01*
Y4993D01*
Y5102D01*
X16230D01*
Y5210D01*
Y5319D01*
X16448D01*
Y5428D01*
X16556D01*
Y5536D01*
X16883D01*
Y5645D01*
X16991D01*
Y5754D01*
X17317D01*
Y5862D01*
X17426D01*
Y5754D01*
X17535D01*
Y5862D01*
X17643D01*
Y5971D01*
X17752D01*
Y5862D01*
X17861D01*
Y5971D01*
X17969D01*
Y5862D01*
X18078D01*
Y5971D01*
X18621D01*
Y5862D01*
X18730D01*
Y5971D01*
X18838D01*
Y5862D01*
X18947D01*
Y5971D01*
X19056D01*
Y5862D01*
X19164D01*
Y5754D01*
X19273D01*
Y5862D01*
X19382D01*
Y5754D01*
X19708D01*
Y5645D01*
X19816D01*
Y5536D01*
X20142D01*
Y5428D01*
X20251D01*
Y5319D01*
X20577D01*
Y5210D01*
Y5102D01*
X20795D01*
Y4993D01*
X20903D01*
Y4884D01*
X21012D01*
Y4776D01*
X21121D01*
Y4667D01*
X21229D01*
Y4558D01*
X21338D01*
Y4450D01*
X21447D01*
Y4341D01*
X21555D01*
Y4232D01*
X21664D01*
Y4341D01*
X21772D01*
Y4450D01*
X21881D01*
Y4558D01*
X21990D01*
Y4667D01*
X22098D01*
Y4776D01*
X22207D01*
Y4884D01*
X22316D01*
Y4993D01*
X22424D01*
Y5102D01*
X22533D01*
Y5210D01*
X22642D01*
Y5319D01*
X22859D01*
Y5428D01*
Y5536D01*
X22968D01*
Y5428D01*
X23076D01*
Y5536D01*
X23185D01*
Y5645D01*
X23511D01*
Y5754D01*
X23837D01*
Y5862D01*
X24163D01*
Y5971D01*
X24272D01*
Y5862D01*
X24381D01*
Y5971D01*
X24489D01*
Y5862D01*
X24598D01*
Y5971D01*
X24924D01*
Y5862D01*
X25032D01*
Y5971D01*
X25141D01*
Y5862D01*
X25250D01*
Y5971D01*
X25358D01*
Y5862D01*
X25467D01*
Y5971D01*
X25576D01*
Y5862D01*
D02*
G37*
G36*
X106626D02*
X106735D01*
Y5754D01*
X107061D01*
Y5645D01*
X107170D01*
Y5754D01*
X107278D01*
Y5645D01*
X107387D01*
Y5536D01*
X107496D01*
Y5428D01*
X107604D01*
Y5319D01*
X107930D01*
Y5210D01*
X108039D01*
Y5102D01*
X108148D01*
Y4993D01*
X108256D01*
Y4884D01*
X108365D01*
Y4776D01*
X108474D01*
Y4667D01*
X108582D01*
Y4558D01*
X108691D01*
Y4450D01*
X108800D01*
Y4341D01*
Y4232D01*
X109017D01*
Y4124D01*
X108908D01*
Y4015D01*
X109017D01*
Y3906D01*
X109126D01*
Y3798D01*
X109234D01*
Y3689D01*
Y3580D01*
Y3472D01*
X109343D01*
Y3363D01*
Y3254D01*
Y3146D01*
X109452D01*
Y3037D01*
X109343D01*
Y2928D01*
X109452D01*
Y2820D01*
Y2711D01*
Y2602D01*
X109560D01*
Y2494D01*
X109452D01*
Y2385D01*
X109560D01*
Y2276D01*
Y2168D01*
Y2059D01*
Y1950D01*
Y1842D01*
Y1733D01*
Y1624D01*
Y1516D01*
Y1407D01*
X109452D01*
Y1298D01*
X109560D01*
Y1190D01*
X109452D01*
Y1081D01*
Y972D01*
Y864D01*
X109343D01*
Y755D01*
X109452D01*
Y646D01*
X109343D01*
Y538D01*
X109234D01*
Y429D01*
Y320D01*
Y212D01*
X109126D01*
Y103D01*
Y-6D01*
X109017D01*
Y-114D01*
Y-223D01*
X108908D01*
Y-332D01*
X108800D01*
Y-440D01*
X108691D01*
Y-549D01*
Y-658D01*
X108582D01*
Y-766D01*
Y-875D01*
X108365D01*
Y-984D01*
Y-1092D01*
X108256D01*
Y-1201D01*
X108148D01*
Y-1310D01*
X108039D01*
Y-1418D01*
X107930D01*
Y-1527D01*
X107822D01*
Y-1636D01*
X107713D01*
Y-1744D01*
X107604D01*
Y-1853D01*
X107496D01*
Y-1962D01*
X107387D01*
Y-2070D01*
X107278D01*
Y-2179D01*
X107170D01*
Y-2288D01*
X107061D01*
Y-2396D01*
X106952D01*
Y-2505D01*
X106844D01*
Y-2614D01*
X106735D01*
Y-2722D01*
X106626D01*
Y-2831D01*
X106518D01*
Y-2940D01*
X106409D01*
Y-3048D01*
X106300D01*
Y-3157D01*
Y-3266D01*
X106083D01*
Y-3374D01*
Y-3483D01*
X105866D01*
Y-3592D01*
Y-3700D01*
X105757D01*
Y-3809D01*
X105648D01*
Y-3918D01*
X105540D01*
Y-4026D01*
Y-4135D01*
X105322D01*
Y-4244D01*
Y-4352D01*
X105105D01*
Y-4461D01*
Y-4570D01*
X104996D01*
Y-4678D01*
X104888D01*
Y-4787D01*
X104779D01*
Y-4896D01*
X104670D01*
Y-5004D01*
X104562D01*
Y-5113D01*
X104453D01*
Y-5222D01*
X104344D01*
Y-5330D01*
X104236D01*
Y-5439D01*
X104127D01*
Y-5548D01*
X104018D01*
Y-5656D01*
X103910D01*
Y-5765D01*
X103801D01*
Y-5874D01*
X103692D01*
Y-5982D01*
X103584D01*
Y-6091D01*
X103475D01*
Y-6200D01*
X103366D01*
Y-6308D01*
X103258D01*
Y-6417D01*
X103149D01*
Y-6526D01*
X103040D01*
Y-6634D01*
X102932D01*
Y-6743D01*
X102823D01*
Y-6852D01*
X102714D01*
Y-6960D01*
X102606D01*
Y-7069D01*
X102497D01*
Y-6960D01*
X102388D01*
Y-6852D01*
X102280D01*
Y-6743D01*
X102171D01*
Y-6634D01*
X102280D01*
Y-6526D01*
X101954D01*
Y-6417D01*
Y-6308D01*
X101736D01*
Y-6200D01*
X101845D01*
Y-6091D01*
X101519D01*
Y-5982D01*
X101628D01*
Y-5874D01*
X101302D01*
Y-5765D01*
X101410D01*
Y-5656D01*
X101193D01*
Y-5548D01*
Y-5439D01*
X100976D01*
Y-5330D01*
Y-5222D01*
X100867D01*
Y-5113D01*
X100758D01*
Y-5004D01*
X100650D01*
Y-4896D01*
X100541D01*
Y-4787D01*
X100432D01*
Y-4678D01*
X100324D01*
Y-4570D01*
X100215D01*
Y-4461D01*
X100106D01*
Y-4352D01*
X99998D01*
Y-4244D01*
X99889D01*
Y-4135D01*
X99780D01*
Y-4026D01*
X99672D01*
Y-3918D01*
X99563D01*
Y-3809D01*
X99454D01*
Y-3700D01*
X99346D01*
Y-3592D01*
X99237D01*
Y-3483D01*
X99128D01*
Y-3374D01*
X99020D01*
Y-3266D01*
X98911D01*
Y-3157D01*
Y-3048D01*
X98694D01*
Y-2940D01*
Y-2831D01*
X98476D01*
Y-2722D01*
Y-2614D01*
X98368D01*
Y-2505D01*
X98259D01*
Y-2396D01*
X98150D01*
Y-2288D01*
X98042D01*
Y-2179D01*
X97933D01*
Y-2070D01*
Y-1962D01*
X97716D01*
Y-1853D01*
Y-1744D01*
X97607D01*
Y-1636D01*
X97498D01*
Y-1527D01*
X97390D01*
Y-1418D01*
X97281D01*
Y-1310D01*
X97172D01*
Y-1201D01*
X97064D01*
Y-1092D01*
X96955D01*
Y-984D01*
X96846D01*
Y-875D01*
X96738D01*
Y-766D01*
X96629D01*
Y-658D01*
X96520D01*
Y-549D01*
X96412D01*
Y-440D01*
X96303D01*
Y-332D01*
X96412D01*
Y-223D01*
X96194D01*
Y-114D01*
Y-6D01*
X96086D01*
Y103D01*
Y212D01*
Y320D01*
X95977D01*
Y429D01*
X95868D01*
Y538D01*
X95977D01*
Y646D01*
X95868D01*
Y755D01*
Y864D01*
Y972D01*
X95760D01*
Y1081D01*
X95651D01*
Y1190D01*
X95760D01*
Y1298D01*
X95651D01*
Y1407D01*
X95760D01*
Y1516D01*
X95651D01*
Y1624D01*
X95760D01*
Y1733D01*
X95651D01*
Y1842D01*
Y1950D01*
Y2059D01*
X95760D01*
Y2168D01*
X95651D01*
Y2276D01*
X95760D01*
Y2385D01*
X95651D01*
Y2494D01*
X95760D01*
Y2602D01*
X95651D01*
Y2711D01*
X95760D01*
Y2820D01*
Y2928D01*
Y3037D01*
X95868D01*
Y3146D01*
Y3254D01*
Y3363D01*
X95977D01*
Y3472D01*
Y3580D01*
Y3689D01*
X96086D01*
Y3798D01*
X96194D01*
Y3906D01*
Y4015D01*
Y4124D01*
X96303D01*
Y4232D01*
X96412D01*
Y4341D01*
X96520D01*
Y4450D01*
X96629D01*
Y4558D01*
X96520D01*
Y4667D01*
X96738D01*
Y4776D01*
Y4884D01*
X96955D01*
Y4993D01*
Y5102D01*
X97281D01*
Y5210D01*
Y5319D01*
X97498D01*
Y5428D01*
X97607D01*
Y5536D01*
X97933D01*
Y5645D01*
X98042D01*
Y5754D01*
X98368D01*
Y5862D01*
X98476D01*
Y5754D01*
X98585D01*
Y5862D01*
X98694D01*
Y5971D01*
X98802D01*
Y5862D01*
X98911D01*
Y5971D01*
X99020D01*
Y5862D01*
X99128D01*
Y5971D01*
X99672D01*
Y5862D01*
X99780D01*
Y5971D01*
X99889D01*
Y5862D01*
X99998D01*
Y5971D01*
X100106D01*
Y5862D01*
X100215D01*
Y5754D01*
X100324D01*
Y5862D01*
X100432D01*
Y5754D01*
X100758D01*
Y5645D01*
X100867D01*
Y5536D01*
X101193D01*
Y5428D01*
X101302D01*
Y5319D01*
X101628D01*
Y5210D01*
Y5102D01*
X101845D01*
Y4993D01*
X101954D01*
Y4884D01*
X102062D01*
Y4776D01*
X102171D01*
Y4667D01*
X102280D01*
Y4558D01*
X102388D01*
Y4450D01*
X102497D01*
Y4341D01*
X102606D01*
Y4232D01*
X102714D01*
Y4341D01*
X102823D01*
Y4450D01*
X102932D01*
Y4558D01*
X103040D01*
Y4667D01*
X103149D01*
Y4776D01*
X103258D01*
Y4884D01*
X103366D01*
Y4993D01*
X103475D01*
Y5102D01*
X103584D01*
Y5210D01*
X103692D01*
Y5319D01*
X103910D01*
Y5428D01*
Y5536D01*
X104018D01*
Y5428D01*
X104127D01*
Y5536D01*
X104236D01*
Y5645D01*
X104562D01*
Y5754D01*
X104888D01*
Y5862D01*
X105214D01*
Y5971D01*
X105322D01*
Y5862D01*
X105431D01*
Y5971D01*
X105540D01*
Y5862D01*
X105648D01*
Y5971D01*
X105974D01*
Y5862D01*
X106083D01*
Y5971D01*
X106192D01*
Y5862D01*
X106300D01*
Y5971D01*
X106409D01*
Y5862D01*
X106518D01*
Y5971D01*
X106626D01*
Y5862D01*
D02*
G37*
D13*
X82507Y88655D02*
Y84719D01*
X79883D01*
X78571D02*
Y88655D01*
X76603D01*
X75947Y87999D01*
Y86687D01*
X76603Y86031D01*
X78571D01*
X74635Y87999D02*
X73980Y88655D01*
X72668D01*
X72012Y87999D01*
Y87343D01*
X72668Y86687D01*
X73324D01*
X72668D01*
X72012Y86031D01*
Y85375D01*
X72668Y84719D01*
X73980D01*
X74635Y85375D01*
X70700Y87999D02*
X70044Y88655D01*
X68732D01*
X68076Y87999D01*
Y87343D01*
X68732Y86687D01*
X68076Y86031D01*
Y85375D01*
X68732Y84719D01*
X70044D01*
X70700Y85375D01*
Y86031D01*
X70044Y86687D01*
X70700Y87343D01*
Y87999D01*
X70044Y86687D02*
X68732D01*
X64140Y88655D02*
X66764D01*
Y86687D01*
X65452Y87343D01*
X64796D01*
X64140Y86687D01*
Y85375D01*
X64796Y84719D01*
X66108D01*
X66764Y85375D01*
X60204Y84719D02*
X62828D01*
X60204Y87343D01*
Y87999D01*
X60860Y88655D01*
X62172D01*
X62828Y87999D01*
X54957Y88655D02*
Y84719D01*
X52333D01*
X51021Y88655D02*
Y84719D01*
X49053D01*
X48397Y85375D01*
Y87999D01*
X49053Y88655D01*
X51021D01*
X45118D02*
X46429D01*
X47085Y87999D01*
Y85375D01*
X46429Y84719D01*
X45118D01*
X44462Y85375D01*
Y87999D01*
X45118Y88655D01*
X92346Y82420D02*
Y78484D01*
X90378D01*
X89723Y79140D01*
Y79796D01*
X90378Y80452D01*
X92346D01*
X90378D01*
X89723Y81108D01*
Y81764D01*
X90378Y82420D01*
X92346D01*
X88411Y78484D02*
Y82420D01*
X86443D01*
X85787Y81764D01*
Y80452D01*
X86443Y79796D01*
X88411D01*
X87099D02*
X85787Y78484D01*
X81851Y82420D02*
X84475D01*
Y78484D01*
X81851D01*
X84475Y80452D02*
X83163D01*
X80539Y78484D02*
Y81108D01*
X79227Y82420D01*
X77915Y81108D01*
Y78484D01*
Y80452D01*
X80539D01*
X76603Y82420D02*
Y78484D01*
Y79796D01*
X73980Y82420D01*
X75947Y80452D01*
X73980Y78484D01*
X70700Y82420D02*
X72012D01*
X72668Y81764D01*
Y79140D01*
X72012Y78484D01*
X70700D01*
X70044Y79140D01*
Y81764D01*
X70700Y82420D01*
X68732D02*
Y79140D01*
X68076Y78484D01*
X66764D01*
X66108Y79140D01*
Y82420D01*
X64796D02*
X62172D01*
X63484D01*
Y78484D01*
X56925D02*
Y82420D01*
X55613Y81108D01*
X54301Y82420D01*
Y78484D01*
X51021Y82420D02*
X52333D01*
X52989Y81764D01*
Y79140D01*
X52333Y78484D01*
X51021D01*
X50365Y79140D01*
Y81764D01*
X51021Y82420D01*
X49053D02*
Y78484D01*
X47085D01*
X46429Y79140D01*
Y81764D01*
X47085Y82420D01*
X49053D01*
X45118D02*
Y79140D01*
X44462Y78484D01*
X43150D01*
X42494Y79140D01*
Y82420D01*
X41182D02*
Y78484D01*
X38558D01*
X34622Y82420D02*
X37246D01*
Y78484D01*
X34622D01*
X37246Y80452D02*
X35934D01*
X81851Y27828D02*
X84475D01*
Y23892D01*
X81851D01*
X84475Y25860D02*
X83163D01*
X80539Y23892D02*
Y27828D01*
X77915Y23892D01*
Y27828D01*
X73980D02*
X76603D01*
Y23892D01*
X73980D01*
X76603Y25860D02*
X75292D01*
X70044Y27172D02*
X70700Y27828D01*
X72012D01*
X72668Y27172D01*
Y26516D01*
X72012Y25860D01*
X70700D01*
X70044Y25204D01*
Y24548D01*
X70700Y23892D01*
X72012D01*
X72668Y24548D01*
X64796Y23892D02*
Y27828D01*
X63484Y26516D01*
X62172Y27828D01*
Y23892D01*
X58237Y27828D02*
X60860D01*
Y23892D01*
X58237D01*
X60860Y25860D02*
X59548D01*
X56925Y23892D02*
Y27828D01*
X54957D01*
X54301Y27172D01*
Y25860D01*
X54957Y25204D01*
X56925D01*
X55613D02*
X54301Y23892D01*
X50365Y27172D02*
X51021Y27828D01*
X52333D01*
X52989Y27172D01*
Y24548D01*
X52333Y23892D01*
X51021D01*
X50365Y24548D01*
X49053Y23892D02*
Y26516D01*
X47741Y27828D01*
X46429Y26516D01*
Y23892D01*
Y25860D01*
X49053D01*
X45118Y23892D02*
Y27828D01*
X42494Y23892D01*
Y27828D01*
X82179Y17658D02*
Y20281D01*
X80867Y21593D01*
X79555Y20281D01*
Y17658D01*
Y19625D01*
X82179D01*
X78243Y17658D02*
Y21593D01*
X76275D01*
X75619Y20937D01*
Y19625D01*
X76275Y18969D01*
X78243D01*
X74308Y17658D02*
Y21593D01*
X72340D01*
X71684Y20937D01*
Y19625D01*
X72340Y18969D01*
X74308D01*
X72996D02*
X71684Y17658D01*
X70372Y21593D02*
X69060D01*
X69716D01*
Y17658D01*
X70372D01*
X69060D01*
X67092Y21593D02*
Y17658D01*
X64468D01*
X56597D02*
X59220D01*
X56597Y20281D01*
Y20937D01*
X57253Y21593D01*
X58565D01*
X59220Y20937D01*
X55285D02*
X54629Y21593D01*
X53317D01*
X52661Y20937D01*
Y18313D01*
X53317Y17658D01*
X54629D01*
X55285Y18313D01*
Y20937D01*
X48725Y17658D02*
X51349D01*
X48725Y20281D01*
Y20937D01*
X49381Y21593D01*
X50693D01*
X51349Y20937D01*
X44789Y17658D02*
X47413D01*
X44789Y20281D01*
Y20937D01*
X45445Y21593D01*
X46757D01*
X47413Y20937D01*
M02*
