G04*
G04 #@! TF.GenerationSoftware,Altium Limited,Altium Designer,22.3.1 (43)*
G04*
G04 Layer_Color=8388736*
%FSLAX25Y25*%
%MOIN*%
G70*
G04*
G04 #@! TF.SameCoordinates,5170A01E-4387-43F3-8572-BE7CC5784F07*
G04*
G04*
G04 #@! TF.FilePolarity,Negative*
G04*
G01*
G75*
%ADD14R,0.12992X0.07874*%
%ADD21R,0.03898X0.07874*%
%ADD22R,0.05512X0.03543*%
%ADD23R,0.05709X0.04921*%
%ADD24R,0.03740X0.03740*%
%ADD25R,0.05512X0.03937*%
%ADD26R,0.03543X0.05512*%
%ADD27O,0.08268X0.06693*%
%ADD28R,0.12205X0.12205*%
%ADD29C,0.03150*%
G36*
X41142Y74607D02*
X90354Y74607D01*
X90354Y74607D01*
X90374Y74605D01*
X90393Y74603D01*
X90421Y74595D01*
X90430Y74592D01*
X90464Y74574D01*
X90494Y74549D01*
X92856Y72187D01*
X92856Y72187D01*
X92867Y72174D01*
X92881Y72157D01*
X92899Y72123D01*
X92910Y72086D01*
X92914Y72047D01*
X92914Y72047D01*
Y45276D01*
X92914Y45276D01*
X92912Y45256D01*
X92910Y45237D01*
X92902Y45208D01*
X92899Y45200D01*
X92881Y45166D01*
X92856Y45136D01*
X90494Y42774D01*
X90494Y42774D01*
X90481Y42762D01*
X90464Y42749D01*
X90430Y42731D01*
X90393Y42719D01*
X90389Y42719D01*
X90354Y42716D01*
X90354Y42716D01*
X40354D01*
X40354Y42716D01*
X40335Y42717D01*
X40316Y42719D01*
X40287Y42728D01*
X40279Y42731D01*
X40244Y42749D01*
X40214Y42774D01*
X38246Y44742D01*
X38246Y44742D01*
X38221Y44772D01*
X38203Y44806D01*
X38201Y44815D01*
X38192Y44843D01*
X38188Y44882D01*
Y71653D01*
X38188Y71653D01*
X38190Y71673D01*
X38192Y71692D01*
X38201Y71721D01*
X38203Y71729D01*
X38221Y71763D01*
X38246Y71793D01*
X41002Y74549D01*
X41002Y74549D01*
X41017Y74562D01*
X41032Y74574D01*
X41066Y74592D01*
X41075Y74595D01*
X41103Y74603D01*
X41122Y74605D01*
X41142Y74607D01*
X41142Y74607D01*
D02*
G37*
D14*
X64878Y55587D02*
D03*
D21*
X73736Y31571D02*
D03*
X67831D02*
D03*
X61925D02*
D03*
X56020D02*
D03*
D22*
X125886Y44390D02*
D03*
Y51870D02*
D03*
X83268Y31299D02*
D03*
Y23819D02*
D03*
D23*
X125886Y25394D02*
D03*
Y34449D02*
D03*
D24*
X100951Y31590D02*
D03*
X94258D02*
D03*
D25*
X57827Y8472D02*
D03*
Y13590D02*
D03*
X69980Y7972D02*
D03*
Y13091D02*
D03*
X78980Y13091D02*
D03*
Y7972D02*
D03*
X41327Y13591D02*
D03*
Y8472D02*
D03*
X49827Y13591D02*
D03*
Y8472D02*
D03*
D26*
X44783Y31693D02*
D03*
X37303D02*
D03*
D27*
X197Y32913D02*
D03*
Y42913D02*
D03*
D28*
X-197Y81496D02*
D03*
X0Y0D02*
D03*
X125689D02*
D03*
Y81496D02*
D03*
D29*
X88779Y46850D02*
D03*
Y54724D02*
D03*
Y62598D02*
D03*
Y70472D02*
D03*
X80905Y62598D02*
D03*
Y54724D02*
D03*
Y46850D02*
D03*
X73032D02*
D03*
Y54724D02*
D03*
Y62598D02*
D03*
X65158D02*
D03*
Y54724D02*
D03*
Y46850D02*
D03*
X57284D02*
D03*
Y54724D02*
D03*
Y62598D02*
D03*
X49409Y46850D02*
D03*
Y54724D02*
D03*
Y62598D02*
D03*
X41535Y46850D02*
D03*
Y54724D02*
D03*
Y62598D02*
D03*
X80905Y70472D02*
D03*
X73032D02*
D03*
X65158D02*
D03*
X57284D02*
D03*
X49409D02*
D03*
X41535D02*
D03*
M02*
