G04*
G04 #@! TF.GenerationSoftware,Altium Limited,Altium Designer,22.3.1 (43)*
G04*
G04 Layer_Physical_Order=3*
G04 Layer_Color=128*
%FSLAX25Y25*%
%MOIN*%
G70*
G04*
G04 #@! TF.SameCoordinates,5170A01E-4387-43F3-8572-BE7CC5784F07*
G04*
G04*
G04 #@! TF.FilePolarity,Negative*
G04*
G01*
G75*
%ADD12C,0.00394*%
%ADD34C,0.04000*%
%ADD35C,0.06929*%
%ADD36C,0.07717*%
%ADD37C,0.03780*%
%ADD38C,0.01181*%
D12*
X56102Y94685D02*
Y94784D01*
D34*
X-14173Y-14370D02*
X139862D01*
Y95669D01*
X-14173D02*
X139862D01*
X-14173Y-14370D02*
Y95669D01*
D35*
X197Y32913D02*
D03*
Y42913D02*
D03*
D36*
X0Y0D02*
D03*
X125689D02*
D03*
D37*
X133169Y58661D02*
D03*
Y52756D02*
D03*
Y46850D02*
D03*
Y40945D02*
D03*
Y35039D02*
D03*
Y29134D02*
D03*
Y23228D02*
D03*
Y17323D02*
D03*
X3937Y13780D02*
D03*
X-1969D02*
D03*
X-1963Y25817D02*
D03*
X3942D02*
D03*
X-1963Y19911D02*
D03*
X3942D02*
D03*
X-7874Y13780D02*
D03*
Y19685D02*
D03*
Y25591D02*
D03*
Y31496D02*
D03*
Y37402D02*
D03*
Y43307D02*
D03*
Y49213D02*
D03*
Y55118D02*
D03*
X3937Y49213D02*
D03*
X-1969D02*
D03*
X3937Y55118D02*
D03*
X-1969D02*
D03*
X96653Y-4331D02*
D03*
X92716Y-394D02*
D03*
X88779Y3543D02*
D03*
X80905D02*
D03*
X84842Y-394D02*
D03*
X88779Y-4331D02*
D03*
X73032Y3543D02*
D03*
X33661D02*
D03*
X41535D02*
D03*
X49409D02*
D03*
X57284D02*
D03*
X65158D02*
D03*
X76968Y-394D02*
D03*
X69095D02*
D03*
X61221D02*
D03*
X53347D02*
D03*
X45472D02*
D03*
X37598D02*
D03*
X29724D02*
D03*
X80905Y-4331D02*
D03*
X73032D02*
D03*
X65158D02*
D03*
X57284D02*
D03*
X49409D02*
D03*
X41535D02*
D03*
X33661D02*
D03*
X25787D02*
D03*
X100984Y25886D02*
D03*
X74410Y25000D02*
D03*
X44882Y24409D02*
D03*
X14862Y82480D02*
D03*
X22736D02*
D03*
X30610D02*
D03*
X38484D02*
D03*
X46358D02*
D03*
X54232D02*
D03*
X62106D02*
D03*
X69980D02*
D03*
X77854D02*
D03*
X85728D02*
D03*
X93602D02*
D03*
X101476D02*
D03*
X109350D02*
D03*
X113287Y86417D02*
D03*
X105413D02*
D03*
X97539D02*
D03*
X89665D02*
D03*
X81791D02*
D03*
X73917D02*
D03*
X66043D02*
D03*
X58169D02*
D03*
X50295D02*
D03*
X42421D02*
D03*
X34547D02*
D03*
X26673D02*
D03*
X18799D02*
D03*
X10925D02*
D03*
X88779Y46850D02*
D03*
Y54724D02*
D03*
Y62598D02*
D03*
Y70472D02*
D03*
X80905Y62598D02*
D03*
Y54724D02*
D03*
Y46850D02*
D03*
X73032D02*
D03*
Y54724D02*
D03*
Y62598D02*
D03*
X65158D02*
D03*
Y54724D02*
D03*
Y46850D02*
D03*
X57284D02*
D03*
Y54724D02*
D03*
Y62598D02*
D03*
X49409Y46850D02*
D03*
Y54724D02*
D03*
Y62598D02*
D03*
X41535Y46850D02*
D03*
Y54724D02*
D03*
Y62598D02*
D03*
X80905Y70472D02*
D03*
X73032D02*
D03*
X65158D02*
D03*
X57284D02*
D03*
X49409D02*
D03*
X41535D02*
D03*
D38*
X64665Y-14075D02*
Y94784D01*
X56102D02*
X64665D01*
M02*
