G04*
G04 #@! TF.GenerationSoftware,Altium Limited,Altium Designer,22.3.1 (43)*
G04*
G04 Layer_Color=65535*
%FSLAX25Y25*%
%MOIN*%
G70*
G04*
G04 #@! TF.SameCoordinates,5170A01E-4387-43F3-8572-BE7CC5784F07*
G04*
G04*
G04 #@! TF.FilePolarity,Positive*
G04*
G01*
G75*
%ADD10C,0.00787*%
%ADD11C,0.00500*%
%ADD12C,0.00394*%
%ADD13C,0.00630*%
G36*
X24985Y6256D02*
X25094D01*
Y6147D01*
X25420D01*
Y6039D01*
X25529D01*
Y6147D01*
X25637D01*
Y6039D01*
X25746D01*
Y5930D01*
X25855D01*
Y5821D01*
X25963D01*
Y5713D01*
X26289D01*
Y5604D01*
X26398D01*
Y5495D01*
X26507D01*
Y5387D01*
X26615D01*
Y5278D01*
X26724D01*
Y5169D01*
X26833D01*
Y5061D01*
X26941D01*
Y4952D01*
X27050D01*
Y4843D01*
X27159D01*
Y4735D01*
Y4626D01*
X27376D01*
Y4517D01*
X27267D01*
Y4409D01*
X27376D01*
Y4300D01*
X27485D01*
Y4191D01*
X27593D01*
Y4083D01*
Y3974D01*
Y3865D01*
X27702D01*
Y3757D01*
Y3648D01*
Y3539D01*
X27811D01*
Y3431D01*
X27702D01*
Y3322D01*
X27811D01*
Y3213D01*
Y3105D01*
Y2996D01*
X27919D01*
Y2887D01*
X27811D01*
Y2779D01*
X27919D01*
Y2670D01*
Y2561D01*
Y2453D01*
Y2344D01*
Y2235D01*
Y2127D01*
Y2018D01*
Y1909D01*
Y1801D01*
X27811D01*
Y1692D01*
X27919D01*
Y1583D01*
X27811D01*
Y1475D01*
Y1366D01*
Y1257D01*
X27702D01*
Y1149D01*
X27811D01*
Y1040D01*
X27702D01*
Y931D01*
X27593D01*
Y823D01*
Y714D01*
Y605D01*
X27485D01*
Y497D01*
Y388D01*
X27376D01*
Y279D01*
Y171D01*
X27267D01*
Y62D01*
X27159D01*
Y-47D01*
X27050D01*
Y-155D01*
Y-264D01*
X26941D01*
Y-373D01*
Y-481D01*
X26724D01*
Y-590D01*
Y-699D01*
X26615D01*
Y-807D01*
X26507D01*
Y-916D01*
X26398D01*
Y-1025D01*
X26289D01*
Y-1133D01*
X26181D01*
Y-1242D01*
X26072D01*
Y-1351D01*
X25963D01*
Y-1459D01*
X25855D01*
Y-1568D01*
X25746D01*
Y-1677D01*
X25637D01*
Y-1785D01*
X25529D01*
Y-1894D01*
X25420D01*
Y-2003D01*
X25311D01*
Y-2111D01*
X25203D01*
Y-2220D01*
X25094D01*
Y-2329D01*
X24985D01*
Y-2437D01*
X24877D01*
Y-2546D01*
X24768D01*
Y-2655D01*
X24659D01*
Y-2763D01*
Y-2872D01*
X24442D01*
Y-2981D01*
Y-3089D01*
X24225D01*
Y-3198D01*
Y-3307D01*
X24116D01*
Y-3415D01*
X24007D01*
Y-3524D01*
X23899D01*
Y-3633D01*
Y-3741D01*
X23681D01*
Y-3850D01*
Y-3959D01*
X23464D01*
Y-4067D01*
Y-4176D01*
X23355D01*
Y-4285D01*
X23247D01*
Y-4393D01*
X23138D01*
Y-4502D01*
X23029D01*
Y-4611D01*
X22921D01*
Y-4719D01*
X22812D01*
Y-4828D01*
X22703D01*
Y-4937D01*
X22595D01*
Y-5045D01*
X22486D01*
Y-5154D01*
X22377D01*
Y-5263D01*
X22269D01*
Y-5371D01*
X22160D01*
Y-5480D01*
X22051D01*
Y-5589D01*
X21943D01*
Y-5697D01*
X21834D01*
Y-5806D01*
X21725D01*
Y-5915D01*
X21617D01*
Y-6023D01*
X21508D01*
Y-6132D01*
X21399D01*
Y-6241D01*
X21291D01*
Y-6349D01*
X21182D01*
Y-6458D01*
X21073D01*
Y-6567D01*
X20965D01*
Y-6675D01*
X20856D01*
Y-6567D01*
X20747D01*
Y-6458D01*
X20639D01*
Y-6349D01*
X20530D01*
Y-6241D01*
X20639D01*
Y-6132D01*
X20313D01*
Y-6023D01*
Y-5915D01*
X20095D01*
Y-5806D01*
X20204D01*
Y-5697D01*
X19878D01*
Y-5589D01*
X19987D01*
Y-5480D01*
X19661D01*
Y-5371D01*
X19769D01*
Y-5263D01*
X19552D01*
Y-5154D01*
Y-5045D01*
X19335D01*
Y-4937D01*
Y-4828D01*
X19226D01*
Y-4719D01*
X19117D01*
Y-4611D01*
X19009D01*
Y-4502D01*
X18900D01*
Y-4393D01*
X18791D01*
Y-4285D01*
X18683D01*
Y-4176D01*
X18574D01*
Y-4067D01*
X18465D01*
Y-3959D01*
X18357D01*
Y-3850D01*
X18248D01*
Y-3741D01*
X18139D01*
Y-3633D01*
X18031D01*
Y-3524D01*
X17922D01*
Y-3415D01*
X17813D01*
Y-3307D01*
X17705D01*
Y-3198D01*
X17596D01*
Y-3089D01*
X17487D01*
Y-2981D01*
X17379D01*
Y-2872D01*
X17270D01*
Y-2763D01*
Y-2655D01*
X17053D01*
Y-2546D01*
Y-2437D01*
X16835D01*
Y-2329D01*
Y-2220D01*
X16727D01*
Y-2111D01*
X16618D01*
Y-2003D01*
X16509D01*
Y-1894D01*
X16401D01*
Y-1785D01*
X16292D01*
Y-1677D01*
Y-1568D01*
X16075D01*
Y-1459D01*
Y-1351D01*
X15966D01*
Y-1242D01*
X15857D01*
Y-1133D01*
X15749D01*
Y-1025D01*
X15640D01*
Y-916D01*
X15531D01*
Y-807D01*
X15423D01*
Y-699D01*
X15314D01*
Y-590D01*
X15205D01*
Y-481D01*
X15097D01*
Y-373D01*
X14988D01*
Y-264D01*
X14879D01*
Y-155D01*
X14771D01*
Y-47D01*
X14662D01*
Y62D01*
X14771D01*
Y171D01*
X14553D01*
Y279D01*
Y388D01*
X14445D01*
Y497D01*
Y605D01*
Y714D01*
X14336D01*
Y823D01*
X14227D01*
Y931D01*
X14336D01*
Y1040D01*
X14227D01*
Y1149D01*
Y1257D01*
Y1366D01*
X14119D01*
Y1475D01*
X14010D01*
Y1583D01*
X14119D01*
Y1692D01*
X14010D01*
Y1801D01*
X14119D01*
Y1909D01*
X14010D01*
Y2018D01*
X14119D01*
Y2127D01*
X14010D01*
Y2235D01*
Y2344D01*
Y2453D01*
X14119D01*
Y2561D01*
X14010D01*
Y2670D01*
X14119D01*
Y2779D01*
X14010D01*
Y2887D01*
X14119D01*
Y2996D01*
X14010D01*
Y3105D01*
X14119D01*
Y3213D01*
Y3322D01*
Y3431D01*
X14227D01*
Y3539D01*
Y3648D01*
Y3757D01*
X14336D01*
Y3865D01*
Y3974D01*
Y4083D01*
X14445D01*
Y4191D01*
X14553D01*
Y4300D01*
Y4409D01*
Y4517D01*
X14662D01*
Y4626D01*
X14771D01*
Y4735D01*
X14879D01*
Y4843D01*
X14988D01*
Y4952D01*
X14879D01*
Y5061D01*
X15097D01*
Y5169D01*
Y5278D01*
X15314D01*
Y5387D01*
Y5495D01*
X15640D01*
Y5604D01*
Y5713D01*
X15857D01*
Y5821D01*
X15966D01*
Y5930D01*
X16292D01*
Y6039D01*
X16401D01*
Y6147D01*
X16727D01*
Y6256D01*
X16835D01*
Y6147D01*
X16944D01*
Y6256D01*
X17053D01*
Y6365D01*
X17161D01*
Y6256D01*
X17270D01*
Y6365D01*
X17379D01*
Y6256D01*
X17487D01*
Y6365D01*
X18031D01*
Y6256D01*
X18139D01*
Y6365D01*
X18248D01*
Y6256D01*
X18357D01*
Y6365D01*
X18465D01*
Y6256D01*
X18574D01*
Y6147D01*
X18683D01*
Y6256D01*
X18791D01*
Y6147D01*
X19117D01*
Y6039D01*
X19226D01*
Y5930D01*
X19552D01*
Y5821D01*
X19661D01*
Y5713D01*
X19987D01*
Y5604D01*
Y5495D01*
X20204D01*
Y5387D01*
X20313D01*
Y5278D01*
X20421D01*
Y5169D01*
X20530D01*
Y5061D01*
X20639D01*
Y4952D01*
X20747D01*
Y4843D01*
X20856D01*
Y4735D01*
X20965D01*
Y4626D01*
X21073D01*
Y4735D01*
X21182D01*
Y4843D01*
X21291D01*
Y4952D01*
X21399D01*
Y5061D01*
X21508D01*
Y5169D01*
X21617D01*
Y5278D01*
X21725D01*
Y5387D01*
X21834D01*
Y5495D01*
X21943D01*
Y5604D01*
X22051D01*
Y5713D01*
X22269D01*
Y5821D01*
Y5930D01*
X22377D01*
Y5821D01*
X22486D01*
Y5930D01*
X22595D01*
Y6039D01*
X22921D01*
Y6147D01*
X23247D01*
Y6256D01*
X23573D01*
Y6365D01*
X23681D01*
Y6256D01*
X23790D01*
Y6365D01*
X23899D01*
Y6256D01*
X24007D01*
Y6365D01*
X24333D01*
Y6256D01*
X24442D01*
Y6365D01*
X24551D01*
Y6256D01*
X24659D01*
Y6365D01*
X24768D01*
Y6256D01*
X24877D01*
Y6365D01*
X24985D01*
Y6256D01*
D02*
G37*
G36*
X106036D02*
X106144D01*
Y6147D01*
X106471D01*
Y6039D01*
X106579D01*
Y6147D01*
X106688D01*
Y6039D01*
X106797D01*
Y5930D01*
X106905D01*
Y5821D01*
X107014D01*
Y5713D01*
X107340D01*
Y5604D01*
X107448D01*
Y5495D01*
X107557D01*
Y5387D01*
X107666D01*
Y5278D01*
X107774D01*
Y5169D01*
X107883D01*
Y5061D01*
X107992D01*
Y4952D01*
X108100D01*
Y4843D01*
X108209D01*
Y4735D01*
Y4626D01*
X108426D01*
Y4517D01*
X108318D01*
Y4409D01*
X108426D01*
Y4300D01*
X108535D01*
Y4191D01*
X108644D01*
Y4083D01*
Y3974D01*
Y3865D01*
X108753D01*
Y3757D01*
Y3648D01*
Y3539D01*
X108861D01*
Y3431D01*
X108753D01*
Y3322D01*
X108861D01*
Y3213D01*
Y3105D01*
Y2996D01*
X108970D01*
Y2887D01*
X108861D01*
Y2779D01*
X108970D01*
Y2670D01*
Y2561D01*
Y2453D01*
Y2344D01*
Y2235D01*
Y2127D01*
Y2018D01*
Y1909D01*
Y1801D01*
X108861D01*
Y1692D01*
X108970D01*
Y1583D01*
X108861D01*
Y1475D01*
Y1366D01*
Y1257D01*
X108753D01*
Y1149D01*
X108861D01*
Y1040D01*
X108753D01*
Y931D01*
X108644D01*
Y823D01*
Y714D01*
Y605D01*
X108535D01*
Y497D01*
Y388D01*
X108426D01*
Y279D01*
Y171D01*
X108318D01*
Y62D01*
X108209D01*
Y-47D01*
X108100D01*
Y-155D01*
Y-264D01*
X107992D01*
Y-373D01*
Y-481D01*
X107774D01*
Y-590D01*
Y-699D01*
X107666D01*
Y-807D01*
X107557D01*
Y-916D01*
X107448D01*
Y-1025D01*
X107340D01*
Y-1133D01*
X107231D01*
Y-1242D01*
X107123D01*
Y-1351D01*
X107014D01*
Y-1459D01*
X106905D01*
Y-1568D01*
X106797D01*
Y-1677D01*
X106688D01*
Y-1785D01*
X106579D01*
Y-1894D01*
X106471D01*
Y-2003D01*
X106362D01*
Y-2111D01*
X106253D01*
Y-2220D01*
X106144D01*
Y-2329D01*
X106036D01*
Y-2437D01*
X105927D01*
Y-2546D01*
X105818D01*
Y-2655D01*
X105710D01*
Y-2763D01*
Y-2872D01*
X105492D01*
Y-2981D01*
Y-3089D01*
X105275D01*
Y-3198D01*
Y-3307D01*
X105166D01*
Y-3415D01*
X105058D01*
Y-3524D01*
X104949D01*
Y-3633D01*
Y-3741D01*
X104732D01*
Y-3850D01*
Y-3959D01*
X104515D01*
Y-4067D01*
Y-4176D01*
X104406D01*
Y-4285D01*
X104297D01*
Y-4393D01*
X104189D01*
Y-4502D01*
X104080D01*
Y-4611D01*
X103971D01*
Y-4719D01*
X103863D01*
Y-4828D01*
X103754D01*
Y-4937D01*
X103645D01*
Y-5045D01*
X103536D01*
Y-5154D01*
X103428D01*
Y-5263D01*
X103319D01*
Y-5371D01*
X103210D01*
Y-5480D01*
X103102D01*
Y-5589D01*
X102993D01*
Y-5697D01*
X102884D01*
Y-5806D01*
X102776D01*
Y-5915D01*
X102667D01*
Y-6023D01*
X102559D01*
Y-6132D01*
X102450D01*
Y-6241D01*
X102341D01*
Y-6349D01*
X102233D01*
Y-6458D01*
X102124D01*
Y-6567D01*
X102015D01*
Y-6675D01*
X101907D01*
Y-6567D01*
X101798D01*
Y-6458D01*
X101689D01*
Y-6349D01*
X101581D01*
Y-6241D01*
X101689D01*
Y-6132D01*
X101363D01*
Y-6023D01*
Y-5915D01*
X101146D01*
Y-5806D01*
X101254D01*
Y-5697D01*
X100928D01*
Y-5589D01*
X101037D01*
Y-5480D01*
X100711D01*
Y-5371D01*
X100820D01*
Y-5263D01*
X100602D01*
Y-5154D01*
Y-5045D01*
X100385D01*
Y-4937D01*
Y-4828D01*
X100277D01*
Y-4719D01*
X100168D01*
Y-4611D01*
X100059D01*
Y-4502D01*
X99950D01*
Y-4393D01*
X99842D01*
Y-4285D01*
X99733D01*
Y-4176D01*
X99625D01*
Y-4067D01*
X99516D01*
Y-3959D01*
X99407D01*
Y-3850D01*
X99299D01*
Y-3741D01*
X99190D01*
Y-3633D01*
X99081D01*
Y-3524D01*
X98972D01*
Y-3415D01*
X98864D01*
Y-3307D01*
X98755D01*
Y-3198D01*
X98646D01*
Y-3089D01*
X98538D01*
Y-2981D01*
X98429D01*
Y-2872D01*
X98321D01*
Y-2763D01*
Y-2655D01*
X98103D01*
Y-2546D01*
Y-2437D01*
X97886D01*
Y-2329D01*
Y-2220D01*
X97777D01*
Y-2111D01*
X97668D01*
Y-2003D01*
X97560D01*
Y-1894D01*
X97451D01*
Y-1785D01*
X97342D01*
Y-1677D01*
Y-1568D01*
X97125D01*
Y-1459D01*
Y-1351D01*
X97017D01*
Y-1242D01*
X96908D01*
Y-1133D01*
X96799D01*
Y-1025D01*
X96690D01*
Y-916D01*
X96582D01*
Y-807D01*
X96473D01*
Y-699D01*
X96364D01*
Y-590D01*
X96256D01*
Y-481D01*
X96147D01*
Y-373D01*
X96039D01*
Y-264D01*
X95930D01*
Y-155D01*
X95821D01*
Y-47D01*
X95713D01*
Y62D01*
X95821D01*
Y171D01*
X95604D01*
Y279D01*
Y388D01*
X95495D01*
Y497D01*
Y605D01*
Y714D01*
X95386D01*
Y823D01*
X95278D01*
Y931D01*
X95386D01*
Y1040D01*
X95278D01*
Y1149D01*
Y1257D01*
Y1366D01*
X95169D01*
Y1475D01*
X95060D01*
Y1583D01*
X95169D01*
Y1692D01*
X95060D01*
Y1801D01*
X95169D01*
Y1909D01*
X95060D01*
Y2018D01*
X95169D01*
Y2127D01*
X95060D01*
Y2235D01*
Y2344D01*
Y2453D01*
X95169D01*
Y2561D01*
X95060D01*
Y2670D01*
X95169D01*
Y2779D01*
X95060D01*
Y2887D01*
X95169D01*
Y2996D01*
X95060D01*
Y3105D01*
X95169D01*
Y3213D01*
Y3322D01*
Y3431D01*
X95278D01*
Y3539D01*
Y3648D01*
Y3757D01*
X95386D01*
Y3865D01*
Y3974D01*
Y4083D01*
X95495D01*
Y4191D01*
X95604D01*
Y4300D01*
Y4409D01*
Y4517D01*
X95713D01*
Y4626D01*
X95821D01*
Y4735D01*
X95930D01*
Y4843D01*
X96039D01*
Y4952D01*
X95930D01*
Y5061D01*
X96147D01*
Y5169D01*
Y5278D01*
X96364D01*
Y5387D01*
Y5495D01*
X96690D01*
Y5604D01*
Y5713D01*
X96908D01*
Y5821D01*
X97017D01*
Y5930D01*
X97342D01*
Y6039D01*
X97451D01*
Y6147D01*
X97777D01*
Y6256D01*
X97886D01*
Y6147D01*
X97995D01*
Y6256D01*
X98103D01*
Y6365D01*
X98212D01*
Y6256D01*
X98321D01*
Y6365D01*
X98429D01*
Y6256D01*
X98538D01*
Y6365D01*
X99081D01*
Y6256D01*
X99190D01*
Y6365D01*
X99299D01*
Y6256D01*
X99407D01*
Y6365D01*
X99516D01*
Y6256D01*
X99625D01*
Y6147D01*
X99733D01*
Y6256D01*
X99842D01*
Y6147D01*
X100168D01*
Y6039D01*
X100277D01*
Y5930D01*
X100602D01*
Y5821D01*
X100711D01*
Y5713D01*
X101037D01*
Y5604D01*
Y5495D01*
X101254D01*
Y5387D01*
X101363D01*
Y5278D01*
X101472D01*
Y5169D01*
X101581D01*
Y5061D01*
X101689D01*
Y4952D01*
X101798D01*
Y4843D01*
X101907D01*
Y4735D01*
X102015D01*
Y4626D01*
X102124D01*
Y4735D01*
X102233D01*
Y4843D01*
X102341D01*
Y4952D01*
X102450D01*
Y5061D01*
X102559D01*
Y5169D01*
X102667D01*
Y5278D01*
X102776D01*
Y5387D01*
X102884D01*
Y5495D01*
X102993D01*
Y5604D01*
X103102D01*
Y5713D01*
X103319D01*
Y5821D01*
Y5930D01*
X103428D01*
Y5821D01*
X103536D01*
Y5930D01*
X103645D01*
Y6039D01*
X103971D01*
Y6147D01*
X104297D01*
Y6256D01*
X104623D01*
Y6365D01*
X104732D01*
Y6256D01*
X104841D01*
Y6365D01*
X104949D01*
Y6256D01*
X105058D01*
Y6365D01*
X105384D01*
Y6256D01*
X105492D01*
Y6365D01*
X105601D01*
Y6256D01*
X105710D01*
Y6365D01*
X105818D01*
Y6256D01*
X105927D01*
Y6365D01*
X106036D01*
Y6256D01*
D02*
G37*
D10*
X55429Y25469D02*
G03*
X55429Y25469I-394J0D01*
G01*
D11*
X52083Y50587D02*
X77673D01*
X52083Y36571D02*
X77673D01*
Y50587D01*
X52083Y36571D02*
Y50587D01*
D12*
X122736Y42224D02*
X129035D01*
Y54035D01*
X122736D02*
X129035D01*
X122736Y42224D02*
Y54035D01*
X123917Y22244D02*
X127854D01*
X80118Y33465D02*
X86417D01*
X80118Y21654D02*
Y33465D01*
Y21654D02*
X86417D01*
Y33465D01*
X103319Y29228D02*
Y33952D01*
X91873D02*
X103319D01*
X91873Y29228D02*
Y33952D01*
Y29228D02*
X103319D01*
X54276Y16358D02*
X61378D01*
Y5705D02*
Y16358D01*
X54276Y5705D02*
X61378D01*
X54276D02*
Y16358D01*
X66429Y15858D02*
X73532D01*
Y5205D02*
Y15858D01*
X66429Y5205D02*
X73532D01*
X66429D02*
Y15858D01*
X35138Y34843D02*
X46949D01*
Y28543D02*
Y34843D01*
X35138Y28543D02*
X46949D01*
X35138D02*
Y34843D01*
X75429Y5205D02*
X82531D01*
X75429D02*
Y15858D01*
X82531D01*
Y5205D02*
Y15858D01*
X37776Y5705D02*
X44878D01*
X37776D02*
Y16358D01*
X44878D01*
Y5705D02*
Y16358D01*
X46276Y5705D02*
X53378D01*
X46276D02*
Y16358D01*
X53378D01*
Y5705D02*
Y16358D01*
D13*
X91866Y39408D02*
X89242D01*
Y35472D01*
X91866D01*
X89242Y37440D02*
X90554D01*
X93177Y35472D02*
Y39408D01*
X95145D01*
X95801Y38752D01*
Y37440D01*
X95145Y36784D01*
X93177D01*
X94490D02*
X95801Y35472D01*
X97113D02*
Y39408D01*
X99081D01*
X99737Y38752D01*
Y37440D01*
X99081Y36784D01*
X97113D01*
X98425D02*
X99737Y35472D01*
X103017Y39408D02*
X101705D01*
X101049Y38752D01*
Y36128D01*
X101705Y35472D01*
X103017D01*
X103673Y36128D01*
Y38752D01*
X103017Y39408D01*
X104985Y35472D02*
Y39408D01*
X106953D01*
X107609Y38752D01*
Y37440D01*
X106953Y36784D01*
X104985D01*
X106297D02*
X107609Y35472D01*
X44757Y88655D02*
Y84719D01*
X47381D01*
X48693D02*
Y88655D01*
X50660D01*
X51316Y87999D01*
Y86687D01*
X50660Y86031D01*
X48693D01*
X52628Y87999D02*
X53284Y88655D01*
X54596D01*
X55252Y87999D01*
Y87343D01*
X54596Y86687D01*
X53940D01*
X54596D01*
X55252Y86031D01*
Y85375D01*
X54596Y84719D01*
X53284D01*
X52628Y85375D01*
X56564Y87999D02*
X57220Y88655D01*
X58532D01*
X59188Y87999D01*
Y87343D01*
X58532Y86687D01*
X59188Y86031D01*
Y85375D01*
X58532Y84719D01*
X57220D01*
X56564Y85375D01*
Y86031D01*
X57220Y86687D01*
X56564Y87343D01*
Y87999D01*
X57220Y86687D02*
X58532D01*
X63124Y88655D02*
X60500D01*
Y86687D01*
X61812Y87343D01*
X62468D01*
X63124Y86687D01*
Y85375D01*
X62468Y84719D01*
X61156D01*
X60500Y85375D01*
X67059Y84719D02*
X64435D01*
X67059Y87343D01*
Y87999D01*
X66403Y88655D01*
X65091D01*
X64435Y87999D01*
X72307Y88655D02*
Y84719D01*
X74931D01*
X76243Y88655D02*
Y84719D01*
X78211D01*
X78866Y85375D01*
Y87999D01*
X78211Y88655D01*
X76243D01*
X82146D02*
X80834D01*
X80178Y87999D01*
Y85375D01*
X80834Y84719D01*
X82146D01*
X82802Y85375D01*
Y87999D01*
X82146Y88655D01*
X34917Y82420D02*
Y78484D01*
X36885D01*
X37541Y79140D01*
Y79796D01*
X36885Y80452D01*
X34917D01*
X36885D01*
X37541Y81108D01*
Y81764D01*
X36885Y82420D01*
X34917D01*
X38853Y78484D02*
Y82420D01*
X40821D01*
X41477Y81764D01*
Y80452D01*
X40821Y79796D01*
X38853D01*
X40165D02*
X41477Y78484D01*
X45413Y82420D02*
X42789D01*
Y78484D01*
X45413D01*
X42789Y80452D02*
X44101D01*
X46725Y78484D02*
Y81108D01*
X48037Y82420D01*
X49349Y81108D01*
Y78484D01*
Y80452D01*
X46725D01*
X50660Y82420D02*
Y78484D01*
Y79796D01*
X53284Y82420D01*
X51316Y80452D01*
X53284Y78484D01*
X56564Y82420D02*
X55252D01*
X54596Y81764D01*
Y79140D01*
X55252Y78484D01*
X56564D01*
X57220Y79140D01*
Y81764D01*
X56564Y82420D01*
X58532D02*
Y79140D01*
X59188Y78484D01*
X60500D01*
X61156Y79140D01*
Y82420D01*
X62468D02*
X65091D01*
X63779D01*
Y78484D01*
X70339D02*
Y82420D01*
X71651Y81108D01*
X72963Y82420D01*
Y78484D01*
X76243Y82420D02*
X74931D01*
X74275Y81764D01*
Y79140D01*
X74931Y78484D01*
X76243D01*
X76899Y79140D01*
Y81764D01*
X76243Y82420D01*
X78211D02*
Y78484D01*
X80178D01*
X80834Y79140D01*
Y81764D01*
X80178Y82420D01*
X78211D01*
X82146D02*
Y79140D01*
X82802Y78484D01*
X84114D01*
X84770Y79140D01*
Y82420D01*
X86082D02*
Y78484D01*
X88706D01*
X92642Y82420D02*
X90018D01*
Y78484D01*
X92642D01*
X90018Y80452D02*
X91330D01*
M02*
