G04*
G04 #@! TF.GenerationSoftware,Altium Limited,Altium Designer,22.3.1 (43)*
G04*
G04 Layer_Color=16711935*
%FSLAX25Y25*%
%MOIN*%
G70*
G04*
G04 #@! TF.SameCoordinates,5170A01E-4387-43F3-8572-BE7CC5784F07*
G04*
G04*
G04 #@! TF.FilePolarity,Negative*
G04*
G01*
G75*
%ADD27O,0.08268X0.06693*%
%ADD28R,0.12205X0.12205*%
%ADD29C,0.03150*%
G36*
X41142Y74607D02*
X90354Y74607D01*
X90354Y74607D01*
X90374Y74605D01*
X90393Y74603D01*
X90421Y74595D01*
X90430Y74592D01*
X90464Y74574D01*
X90494Y74549D01*
X92856Y72187D01*
X92856Y72187D01*
X92867Y72174D01*
X92881Y72157D01*
X92899Y72123D01*
X92910Y72086D01*
X92914Y72047D01*
X92914Y72047D01*
Y45276D01*
X92914Y45276D01*
X92912Y45256D01*
X92910Y45237D01*
X92902Y45208D01*
X92899Y45200D01*
X92881Y45166D01*
X92856Y45136D01*
X90494Y42774D01*
X90494Y42774D01*
X90481Y42762D01*
X90464Y42749D01*
X90430Y42731D01*
X90393Y42719D01*
X90389Y42719D01*
X90354Y42716D01*
X90354Y42716D01*
X40354D01*
X40354Y42716D01*
X40335Y42717D01*
X40316Y42719D01*
X40287Y42728D01*
X40279Y42731D01*
X40244Y42749D01*
X40214Y42774D01*
X38246Y44742D01*
X38246Y44742D01*
X38221Y44772D01*
X38203Y44806D01*
X38201Y44815D01*
X38192Y44843D01*
X38188Y44882D01*
Y71653D01*
X38188Y71653D01*
X38190Y71673D01*
X38192Y71692D01*
X38201Y71721D01*
X38203Y71729D01*
X38221Y71763D01*
X38246Y71793D01*
X41002Y74549D01*
X41002Y74549D01*
X41017Y74562D01*
X41032Y74574D01*
X41066Y74592D01*
X41075Y74595D01*
X41103Y74603D01*
X41122Y74605D01*
X41142Y74607D01*
X41142Y74607D01*
D02*
G37*
D27*
X197Y32913D02*
D03*
Y42913D02*
D03*
D28*
X-197Y81496D02*
D03*
X0Y0D02*
D03*
X125689D02*
D03*
Y81496D02*
D03*
D29*
X88779Y46850D02*
D03*
Y54724D02*
D03*
Y62598D02*
D03*
Y70472D02*
D03*
X80905Y62598D02*
D03*
Y54724D02*
D03*
Y46850D02*
D03*
X73032D02*
D03*
Y54724D02*
D03*
Y62598D02*
D03*
X65158D02*
D03*
Y54724D02*
D03*
Y46850D02*
D03*
X57284D02*
D03*
Y54724D02*
D03*
Y62598D02*
D03*
X49409Y46850D02*
D03*
Y54724D02*
D03*
Y62598D02*
D03*
X41535Y46850D02*
D03*
Y54724D02*
D03*
Y62598D02*
D03*
X80905Y70472D02*
D03*
X73032D02*
D03*
X65158D02*
D03*
X57284D02*
D03*
X49409D02*
D03*
X41535D02*
D03*
M02*
