G04*
G04 #@! TF.GenerationSoftware,Altium Limited,Altium Designer,22.3.1 (43)*
G04*
G04 Layer_Color=255*
%FSLAX25Y25*%
%MOIN*%
G70*
G04*
G04 #@! TF.SameCoordinates,5170A01E-4387-43F3-8572-BE7CC5784F07*
G04*
G04*
G04 #@! TF.FilePolarity,Positive*
G04*
G01*
G75*
%ADD14R,0.12992X0.07874*%
%ADD15R,0.03504X0.07480*%
%ADD16R,0.05118X0.03150*%
%ADD17R,0.05118X0.04331*%
%ADD18R,0.03347X0.03347*%
%ADD19R,0.05118X0.03543*%
%ADD20R,0.03150X0.05118*%
%ADD31O,0.07874X0.06299*%
%ADD32R,0.11811X0.11811*%
D14*
X64878Y55587D02*
D03*
D15*
X73736Y31571D02*
D03*
X67831D02*
D03*
X61925D02*
D03*
X56020D02*
D03*
D16*
X125886Y44390D02*
D03*
Y51870D02*
D03*
X83268Y31299D02*
D03*
Y23819D02*
D03*
D17*
X125886Y25394D02*
D03*
Y34449D02*
D03*
D18*
X100951Y31590D02*
D03*
X94258D02*
D03*
D19*
X57827Y8472D02*
D03*
Y13590D02*
D03*
X69980Y7972D02*
D03*
Y13091D02*
D03*
X78980Y13091D02*
D03*
Y7972D02*
D03*
X41327Y13591D02*
D03*
Y8472D02*
D03*
X49827Y13591D02*
D03*
Y8472D02*
D03*
D20*
X44783Y31693D02*
D03*
X37303D02*
D03*
D31*
X197Y32913D02*
D03*
Y42913D02*
D03*
D32*
X-197Y81496D02*
D03*
X0Y0D02*
D03*
X125689D02*
D03*
Y81496D02*
D03*
M02*
