M48
;Layer_Color=9474304
;FILE_FORMAT=2:5
INCH,LZ
;TYPE=PLATED
T1F00S00C0.01181
T2F00S00C0.04331
T3F00S00C0.05118
%
T01
X-0007874Y001378
Y0019685
Y0025591
Y0031496
Y0037402
Y0043307
Y0049213
Y0055118
X-0001969
Y0049213
X0003937
Y0055118
X0003942Y0025817
X-0001963
Y0019911
X0003942
X0003937Y001378
X-0001969
X0025787Y-0004331
X0029724Y-0000394
X0033661Y-0004331
Y0003543
X0041535
X0037598Y-0000394
X0041535Y-0004331
X0045472Y-0000394
X0049409Y-0004331
Y0003543
X0057284
X0065158
Y-0004331
X0069095Y-0000394
X0073032Y-0004331
Y0003543
X0080905
X0076968Y-0000394
X0080905Y-0004331
X0084842Y-0000394
X0088779Y-0004331
X0096653
X0092716Y-0000394
X0088779Y0003543
X0061221Y-0000394
X0057284Y-0004331
X0053347Y-0000394
X0044882Y0024409
X0041535Y004685
Y0054724
X0049409
Y004685
X0057284
X0065158
Y0054724
X0057284
Y0062598
X0065158
Y0070472
X0057284
X0049409
Y0062598
X0041535
Y0070472
X0038484Y008248
X0046358
X0054232
X0062106
X0058169Y0086417
X0066043
X006998Y008248
X0077854
X0085728
X0093602
X0101476
X010935
X0113287Y0086417
X0105413
X0097539
X0089665
X0081791
X0073917
X0073032Y0070472
Y0062598
X0080905
Y0070472
X0088779
Y0062598
Y0054724
Y004685
X0080905
Y0054724
X0073032
Y004685
X007441Y0025
X0100984Y0025886
X0133169Y0023228
Y0029134
Y0035039
Y0040945
Y004685
Y0052756
Y0058661
Y0017323
X0050295Y0086417
X0042421
X0034547
X003061Y008248
X0022736
X0026673Y0086417
X0018799
X0014862Y008248
X0010925Y0086417
T02
X0000197Y0032913
Y0042913
T03
X0Y0
X-0000197Y0081496
X0125689
Y0
M30
