G04*
G04 #@! TF.GenerationSoftware,Altium Limited,Altium Designer,22.3.1 (43)*
G04*
G04 Layer_Color=65535*
%FSLAX25Y25*%
%MOIN*%
G70*
G04*
G04 #@! TF.SameCoordinates,13010D4F-CA40-4925-A7E6-2A4E1DD476F1*
G04*
G04*
G04 #@! TF.FilePolarity,Positive*
G04*
G01*
G75*
%ADD10C,0.01968*%
%ADD11C,0.00787*%
%ADD12C,0.00500*%
%ADD13C,0.00394*%
%ADD14C,0.01181*%
%ADD15C,0.00591*%
D10*
X62008Y26772D02*
G03*
X62008Y26772I-27559J0D01*
G01*
D11*
X119249Y71686D02*
G03*
X119249Y71686I-394J0D01*
G01*
X93858Y92913D02*
G03*
X93858Y92913I-394J0D01*
G01*
X1969Y34921D02*
Y76653D01*
X-9055Y34921D02*
X1969D01*
X-9055Y76653D02*
X1969D01*
X-9055Y34921D02*
Y76653D01*
X99606Y125591D02*
X154331D01*
Y109843D02*
Y125591D01*
X99606Y109843D02*
X154331D01*
X99606D02*
Y125591D01*
X114173Y121259D02*
Y118110D01*
X116272D01*
X117322Y120734D02*
X117847Y121259D01*
X118896D01*
X119421Y120734D01*
Y120209D01*
X118896Y119685D01*
X119421Y119160D01*
Y118635D01*
X118896Y118110D01*
X117847D01*
X117322Y118635D01*
Y119160D01*
X117847Y119685D01*
X117322Y120209D01*
Y120734D01*
X117847Y119685D02*
X118896D01*
X122570Y121259D02*
X121520Y120734D01*
X120470Y119685D01*
Y118635D01*
X120995Y118110D01*
X122045D01*
X122570Y118635D01*
Y119160D01*
X122045Y119685D01*
X120470D01*
X123619D02*
X125718D01*
X126768Y118110D02*
Y121259D01*
X127817Y120209D01*
X128867Y121259D01*
Y118110D01*
X129916Y120734D02*
X130441Y121259D01*
X131491D01*
X132015Y120734D01*
Y120209D01*
X131491Y119685D01*
X130966D01*
X131491D01*
X132015Y119160D01*
Y118635D01*
X131491Y118110D01*
X130441D01*
X129916Y118635D01*
X133065Y120734D02*
X133589Y121259D01*
X134639D01*
X135164Y120734D01*
Y120209D01*
X134639Y119685D01*
X134114D01*
X134639D01*
X135164Y119160D01*
Y118635D01*
X134639Y118110D01*
X133589D01*
X133065Y118635D01*
D12*
X206693Y73228D02*
Y83465D01*
X196457Y80984D02*
Y83465D01*
Y73228D02*
Y75709D01*
X71772Y44291D02*
X77047D01*
X71772Y50984D02*
X77047D01*
X9252Y74902D02*
X14370D01*
X15945D01*
X14370Y69980D02*
X15945D01*
X9252D02*
X14370D01*
Y74902D01*
X96417Y92520D02*
Y96850D01*
X159409D01*
Y92520D02*
Y96850D01*
X96417Y33858D02*
Y34646D01*
Y33858D02*
X159409D01*
Y34646D01*
D13*
X139268Y11713D02*
X143205D01*
X206791Y24213D02*
X210728D01*
X75976Y67138D02*
X83079D01*
Y56484D02*
Y67138D01*
X75976Y56484D02*
X83079D01*
X75976D02*
Y67138D01*
X16350Y60622D02*
Y67724D01*
X5697Y60622D02*
X16350D01*
X5697D02*
Y67724D01*
X16350D01*
X76980Y26665D02*
Y33768D01*
X66327Y26665D02*
X76980D01*
X66327D02*
Y33768D01*
X76980D01*
X74213Y56102D02*
Y59153D01*
X68664Y56102D02*
Y67754D01*
Y56102D02*
X74213D01*
Y59153D02*
Y64665D01*
X68664Y67754D02*
X74207D01*
Y64671D02*
Y67754D01*
Y64671D02*
X74213Y64665D01*
X5217Y53937D02*
X8268D01*
X5217Y59485D02*
X16868D01*
X5217Y53937D02*
Y59485D01*
X8268Y53937D02*
X13780D01*
X16868Y53943D02*
Y59485D01*
X13785Y53943D02*
X16868D01*
X13780Y53937D02*
X13785Y53943D01*
X66566Y36236D02*
X69617D01*
X66566Y41785D02*
X78218D01*
X66566Y36236D02*
Y41785D01*
X69617Y36236D02*
X75129D01*
X78218Y36242D02*
Y41785D01*
X75134Y36242D02*
X78218D01*
X75129Y36236D02*
X75134Y36242D01*
X184055Y42618D02*
X195866D01*
X184055D02*
Y48917D01*
X195866D01*
Y42618D02*
Y48917D01*
X153642Y12894D02*
Y24705D01*
X147343Y12894D02*
X153642D01*
X147343D02*
Y24705D01*
X153642D01*
X198228Y34744D02*
Y46555D01*
X204527D01*
Y34744D02*
Y46555D01*
X198228Y34744D02*
X204527D01*
X120866Y8268D02*
Y20079D01*
X114567Y8268D02*
X120866D01*
X114567D02*
Y20079D01*
X120866D01*
X190157Y20669D02*
Y32480D01*
X183858Y20669D02*
X190157D01*
X183858D02*
Y32480D01*
X190157D01*
X108458Y21654D02*
Y26378D01*
Y21654D02*
X119905D01*
Y26378D01*
X108458D02*
X119905D01*
X184541Y35236D02*
Y39961D01*
Y35236D02*
X195987D01*
Y39961D01*
X184541D02*
X195987D01*
X33077Y70079D02*
Y74803D01*
X21631D02*
X33077D01*
X21631Y70079D02*
Y74803D01*
Y70079D02*
X33077D01*
D14*
X31757Y45669D02*
X36875D01*
X34449Y43244D02*
Y48362D01*
X139724Y55512D02*
Y75197D01*
X135787Y51575D02*
X139724Y55512D01*
X116102Y51575D02*
X135787D01*
X116102Y75197D02*
X139724D01*
X116102Y51575D02*
Y75197D01*
X121221Y88188D02*
Y84252D01*
X123844D01*
X125156Y87532D02*
X125812Y88188D01*
X127124D01*
X127780Y87532D01*
Y86876D01*
X127124Y86220D01*
X127780Y85564D01*
Y84908D01*
X127124Y84252D01*
X125812D01*
X125156Y84908D01*
Y85564D01*
X125812Y86220D01*
X125156Y86876D01*
Y87532D01*
X125812Y86220D02*
X127124D01*
X131716Y88188D02*
X130404Y87532D01*
X129092Y86220D01*
Y84908D01*
X129748Y84252D01*
X131060D01*
X131716Y84908D01*
Y85564D01*
X131060Y86220D01*
X129092D01*
D15*
X131102Y17520D02*
Y20472D01*
X127264D02*
X131102D01*
X131201Y8661D02*
Y11614D01*
X127362Y8661D02*
X131201D01*
X200984Y29528D02*
Y32480D01*
X197146D02*
X200984D01*
X201083Y20669D02*
Y23622D01*
X197244Y20669D02*
X201083D01*
X-13844Y45997D02*
X-14369Y46522D01*
Y47572D01*
X-13844Y48096D01*
X-13319D01*
X-12795Y47572D01*
Y47047D01*
Y47572D01*
X-12270Y48096D01*
X-11745D01*
X-11220Y47572D01*
Y46522D01*
X-11745Y45997D01*
X-14369Y49146D02*
X-12270D01*
X-11220Y50195D01*
X-12270Y51245D01*
X-14369D01*
X-13844Y52295D02*
X-14369Y52819D01*
Y53869D01*
X-13844Y54394D01*
X-13319D01*
X-12795Y53869D01*
Y53344D01*
Y53869D01*
X-12270Y54394D01*
X-11745D01*
X-11220Y53869D01*
Y52819D01*
X-11745Y52295D01*
X-11122Y73819D02*
X-14271D01*
Y75393D01*
X-13746Y75918D01*
X-12696D01*
X-12172Y75393D01*
Y73819D01*
Y74868D02*
X-11122Y75918D01*
X-14271Y76968D02*
X-11122Y79066D01*
X-14271D02*
X-11122Y76968D01*
X-14271Y80116D02*
X-11122D01*
Y81690D01*
X-11647Y82215D01*
X-13746D01*
X-14271Y81690D01*
Y80116D01*
X-14369Y59908D02*
Y62007D01*
Y60958D01*
X-11220D01*
X-14369Y63057D02*
X-11220Y65156D01*
X-14369D02*
X-11220Y63057D01*
X-14369Y66205D02*
X-11220D01*
Y67780D01*
X-11745Y68304D01*
X-13844D01*
X-14369Y67780D01*
Y66205D01*
X-13844Y34186D02*
X-14369Y33661D01*
Y32611D01*
X-13844Y32087D01*
X-11745D01*
X-11220Y32611D01*
Y33661D01*
X-11745Y34186D01*
X-12795D01*
Y33136D01*
X-11220Y35235D02*
X-14369D01*
X-11220Y37334D01*
X-14369D01*
Y38384D02*
X-11220D01*
Y39958D01*
X-11745Y40483D01*
X-13844D01*
X-14369Y39958D01*
Y38384D01*
X102165Y115944D02*
Y112795D01*
X103740D01*
X104264Y113320D01*
Y113845D01*
X103740Y114370D01*
X102165D01*
X103740D01*
X104264Y114894D01*
Y115419D01*
X103740Y115944D01*
X102165D01*
X105314Y114894D02*
Y112795D01*
Y113845D01*
X105839Y114370D01*
X106363Y114894D01*
X106888D01*
X110037Y112795D02*
X108987D01*
X108463Y113320D01*
Y114370D01*
X108987Y114894D01*
X110037D01*
X110562Y114370D01*
Y113845D01*
X108463D01*
X112136Y114894D02*
X113185D01*
X113710Y114370D01*
Y112795D01*
X112136D01*
X111611Y113320D01*
X112136Y113845D01*
X113710D01*
X114760Y112795D02*
Y115944D01*
Y113845D02*
X116334Y114894D01*
X114760Y113845D02*
X116334Y112795D01*
X117908Y114370D02*
X120007D01*
X121582Y112795D02*
X122631D01*
X123156Y113320D01*
Y114370D01*
X122631Y114894D01*
X121582D01*
X121057Y114370D01*
Y113320D01*
X121582Y112795D01*
X124206Y114894D02*
Y113320D01*
X124730Y112795D01*
X126304D01*
Y114894D01*
X127879Y115419D02*
Y114894D01*
X127354D01*
X128404D01*
X127879D01*
Y113320D01*
X128404Y112795D01*
X133126D02*
Y115944D01*
X134176Y114894D01*
X135225Y115944D01*
Y112795D01*
X136800D02*
X137849D01*
X138374Y113320D01*
Y114370D01*
X137849Y114894D01*
X136800D01*
X136275Y114370D01*
Y113320D01*
X136800Y112795D01*
X141523Y115944D02*
Y112795D01*
X139948D01*
X139424Y113320D01*
Y114370D01*
X139948Y114894D01*
X141523D01*
X142572D02*
Y113320D01*
X143097Y112795D01*
X144671D01*
Y114894D01*
X145721Y112795D02*
X146770D01*
X146246D01*
Y115944D01*
X145721D01*
X149919Y112795D02*
X148869D01*
X148345Y113320D01*
Y114370D01*
X148869Y114894D01*
X149919D01*
X150444Y114370D01*
Y113845D01*
X148345D01*
X8925Y79921D02*
Y76772D01*
X10499D01*
X11024Y77297D01*
Y79396D01*
X10499Y79921D01*
X8925D01*
X12073Y76772D02*
X13123D01*
X12598D01*
Y79921D01*
X12073Y79396D01*
X24542Y76772D02*
Y79921D01*
X26116D01*
X26641Y79396D01*
Y78347D01*
X26116Y77822D01*
X24542D01*
X25591D02*
X26641Y76772D01*
X29789D02*
X27690D01*
X29789Y78871D01*
Y79396D01*
X29264Y79921D01*
X28215D01*
X27690Y79396D01*
X61549Y50001D02*
X61024Y49476D01*
Y48426D01*
X61549Y47901D01*
X62074D01*
X62598Y48426D01*
Y49476D01*
X63123Y50001D01*
X63648D01*
X64173Y49476D01*
Y48426D01*
X63648Y47901D01*
X61024Y53149D02*
Y52100D01*
Y52624D01*
X63648D01*
X64173Y52100D01*
Y51575D01*
X63648Y51050D01*
X64173Y54199D02*
Y55248D01*
Y54723D01*
X61024D01*
X61549Y54199D01*
X205644Y22834D02*
Y19686D01*
X207218D01*
X207743Y20210D01*
Y22309D01*
X207218Y22834D01*
X205644D01*
X210367Y19686D02*
Y22834D01*
X208792Y21260D01*
X210892D01*
X177297Y25197D02*
Y28346D01*
X178872D01*
X179396Y27821D01*
Y26772D01*
X178872Y26247D01*
X177297D01*
X178347D02*
X179396Y25197D01*
X180446Y27821D02*
X180971Y28346D01*
X182020D01*
X182545Y27821D01*
Y27296D01*
X182020Y26772D01*
X182545Y26247D01*
Y25722D01*
X182020Y25197D01*
X180971D01*
X180446Y25722D01*
Y26247D01*
X180971Y26772D01*
X180446Y27296D01*
Y27821D01*
X180971Y26772D02*
X182020D01*
X115093Y3544D02*
Y6692D01*
X116667D01*
X117192Y6168D01*
Y5118D01*
X116667Y4593D01*
X115093D01*
X116142D02*
X117192Y3544D01*
X118241Y6692D02*
X120340D01*
Y6168D01*
X118241Y4069D01*
Y3544D01*
X178085Y36221D02*
Y39370D01*
X179659D01*
X180184Y38845D01*
Y37795D01*
X179659Y37271D01*
X178085D01*
X179134D02*
X180184Y36221D01*
X183333Y39370D02*
X182283Y38845D01*
X181233Y37795D01*
Y36746D01*
X181758Y36221D01*
X182808D01*
X183333Y36746D01*
Y37271D01*
X182808Y37795D01*
X181233D01*
X101313Y22442D02*
Y25590D01*
X102887D01*
X103412Y25065D01*
Y24016D01*
X102887Y23491D01*
X101313D01*
X102363D02*
X103412Y22442D01*
X106561Y25590D02*
X104462D01*
Y24016D01*
X105511Y24541D01*
X106036D01*
X106561Y24016D01*
Y22966D01*
X106036Y22442D01*
X104987D01*
X104462Y22966D01*
X198951Y48032D02*
Y51181D01*
X200525D01*
X201050Y50656D01*
Y49606D01*
X200525Y49082D01*
X198951D01*
X200001D02*
X201050Y48032D01*
X203674D02*
Y51181D01*
X202100Y49606D01*
X204199D01*
X148164Y7875D02*
Y11023D01*
X149738D01*
X150263Y10498D01*
Y9449D01*
X149738Y8924D01*
X148164D01*
X149213D02*
X150263Y7875D01*
X151312Y10498D02*
X151837Y11023D01*
X152886D01*
X153411Y10498D01*
Y9974D01*
X152886Y9449D01*
X152362D01*
X152886D01*
X153411Y8924D01*
Y8399D01*
X152886Y7875D01*
X151837D01*
X151312Y8399D01*
X188058Y50296D02*
Y53444D01*
X189633D01*
X190157Y52920D01*
Y51870D01*
X189633Y51345D01*
X188058D01*
X189108D02*
X190157Y50296D01*
X191207D02*
X192256D01*
X191732D01*
Y53444D01*
X191207Y52920D01*
X195637Y16569D02*
Y18668D01*
X195112Y19192D01*
X194062D01*
X193538Y18668D01*
Y16569D01*
X194062Y16044D01*
X195112D01*
X194587Y17093D02*
X195637Y16044D01*
X195112D02*
X195637Y16569D01*
X198785Y16044D02*
X196686D01*
X198785Y18143D01*
Y18668D01*
X198260Y19192D01*
X197211D01*
X196686Y18668D01*
X127953Y4069D02*
Y6168D01*
X127428Y6692D01*
X126379D01*
X125854Y6168D01*
Y4069D01*
X126379Y3544D01*
X127428D01*
X126903Y4593D02*
X127953Y3544D01*
X127428D02*
X127953Y4069D01*
X129002Y3544D02*
X130052D01*
X129527D01*
Y6692D01*
X129002Y6168D01*
X139010Y10039D02*
Y6890D01*
X140584D01*
X141109Y7415D01*
Y9514D01*
X140584Y10039D01*
X139010D01*
X142159Y9514D02*
X142683Y10039D01*
X143733D01*
X144258Y9514D01*
Y8989D01*
X143733Y8465D01*
X143208D01*
X143733D01*
X144258Y7940D01*
Y7415D01*
X143733Y6890D01*
X142683D01*
X142159Y7415D01*
X58228Y6519D02*
X57489Y6454D01*
X56814Y5650D01*
X56879Y4911D01*
X58487Y3562D01*
X59226Y3627D01*
X59900Y4431D01*
X59836Y5170D01*
X58500Y7660D02*
X59850Y9268D01*
X60252Y8931D01*
X60510Y5974D01*
X60913Y5636D01*
X81660Y40124D02*
X81135Y40649D01*
X80086D01*
X79561Y40124D01*
Y38025D01*
X80086Y37501D01*
X81135D01*
X81660Y38025D01*
X84809Y40649D02*
X83759Y40124D01*
X82710Y39075D01*
Y38025D01*
X83235Y37501D01*
X84284D01*
X84809Y38025D01*
Y38550D01*
X84284Y39075D01*
X82710D01*
X81365Y30971D02*
X80840Y31496D01*
X79791D01*
X79266Y30971D01*
Y28872D01*
X79791Y28347D01*
X80840D01*
X81365Y28872D01*
X84514Y31496D02*
X82415D01*
Y29921D01*
X83464Y30446D01*
X83989D01*
X84514Y29921D01*
Y28872D01*
X83989Y28347D01*
X82939D01*
X82415Y28872D01*
X19948Y65223D02*
X19423Y65747D01*
X18373D01*
X17849Y65223D01*
Y63124D01*
X18373Y62599D01*
X19423D01*
X19948Y63124D01*
X22571Y62599D02*
Y65747D01*
X20997Y64173D01*
X23096D01*
X20735Y60498D02*
X20210Y61023D01*
X19161D01*
X18636Y60498D01*
Y58399D01*
X19161Y57875D01*
X20210D01*
X20735Y58399D01*
X21785Y60498D02*
X22309Y61023D01*
X23359D01*
X23884Y60498D01*
Y59974D01*
X23359Y59449D01*
X22834D01*
X23359D01*
X23884Y58924D01*
Y58399D01*
X23359Y57875D01*
X22309D01*
X21785Y58399D01*
X78609Y71522D02*
X78084Y72047D01*
X77035D01*
X76510Y71522D01*
Y69423D01*
X77035Y68898D01*
X78084D01*
X78609Y69423D01*
X81758Y68898D02*
X79659D01*
X81758Y70997D01*
Y71522D01*
X81233Y72047D01*
X80183D01*
X79659Y71522D01*
X70866Y71916D02*
X70341Y72440D01*
X69292D01*
X68767Y71916D01*
Y69817D01*
X69292Y69292D01*
X70341D01*
X70866Y69817D01*
X71916Y69292D02*
X72965D01*
X72440D01*
Y72440D01*
X71916Y71916D01*
X199279Y87993D02*
Y90092D01*
X200328Y91141D01*
X201378Y90092D01*
Y87993D01*
Y89567D01*
X199279D01*
X202428Y87993D02*
X203477D01*
X202952D01*
Y91141D01*
X202428Y90617D01*
M02*
