G04*
G04 #@! TF.GenerationSoftware,Altium Limited,Altium Designer,22.2.1 (43)*
G04*
G04 Layer_Color=8388736*
%FSLAX25Y25*%
%MOIN*%
G70*
G04*
G04 #@! TF.SameCoordinates,E15721E2-6A2B-4D62-837A-8D353DC3B16A*
G04*
G04*
G04 #@! TF.FilePolarity,Negative*
G04*
G01*
G75*
%ADD30R,0.04134X0.05709*%
%ADD31R,0.03740X0.03740*%
%ADD32R,0.03543X0.04331*%
%ADD33R,0.04540X0.04737*%
%ADD34R,0.04331X0.04528*%
%ADD35R,0.04528X0.04331*%
%ADD36R,0.09055X0.04528*%
%ADD37R,0.04410X0.07402*%
%ADD38R,0.05512X0.03543*%
%ADD39R,0.03937X0.03543*%
%ADD40R,0.05709X0.04921*%
%ADD41R,0.03543X0.05512*%
%ADD42R,0.06487X0.03787*%
%ADD43R,0.05709X0.04134*%
%ADD44R,0.04737X0.04540*%
%ADD45R,0.04528X0.04331*%
%ADD46O,0.10630X0.04724*%
%ADD47R,0.08661X0.07087*%
%ADD48O,0.08661X0.07087*%
%ADD49C,0.04331*%
%ADD50C,0.21654*%
D30*
X13583Y64173D02*
D03*
X8465D02*
D03*
X74213Y32283D02*
D03*
X69095D02*
D03*
D31*
X24016Y72441D02*
D03*
X30709D02*
D03*
X193602Y37598D02*
D03*
X186909D02*
D03*
X117520Y24016D02*
D03*
X110827D02*
D03*
D32*
X17126Y72441D02*
D03*
X8071D02*
D03*
D33*
X7874Y56693D02*
D03*
X69193Y39665D02*
D03*
D34*
X14173Y56693D02*
D03*
X75492Y39665D02*
D03*
D35*
X195571Y78347D02*
D03*
D36*
X201575Y84153D02*
D03*
Y72539D02*
D03*
D37*
X68583Y47638D02*
D03*
X80236D02*
D03*
D38*
X187008Y22835D02*
D03*
Y30315D02*
D03*
X201378Y44390D02*
D03*
Y36909D02*
D03*
X117717Y10433D02*
D03*
Y17913D02*
D03*
X150492Y15059D02*
D03*
Y22539D02*
D03*
D39*
X202116Y26673D02*
D03*
X194144Y22933D02*
D03*
Y30413D02*
D03*
X132234Y14665D02*
D03*
X124262Y10925D02*
D03*
Y18406D02*
D03*
D40*
X208760Y36417D02*
D03*
Y27362D02*
D03*
D41*
X186221Y45768D02*
D03*
X193701D02*
D03*
D42*
X141240Y22605D02*
D03*
Y14206D02*
D03*
D43*
X79527Y64370D02*
D03*
Y59252D02*
D03*
D44*
X71457Y58760D02*
D03*
D45*
Y65059D02*
D03*
D46*
X97402Y38386D02*
D03*
X158425Y58386D02*
D03*
Y38386D02*
D03*
Y48386D02*
D03*
Y68386D02*
D03*
Y78386D02*
D03*
Y88386D02*
D03*
X97402Y48386D02*
D03*
Y58386D02*
D03*
Y68386D02*
D03*
Y78386D02*
D03*
Y88386D02*
D03*
D47*
X-3543Y70787D02*
D03*
D48*
Y60787D02*
D03*
Y50787D02*
D03*
Y40787D02*
D03*
D49*
X35433Y40551D02*
D03*
Y20866D02*
D03*
D50*
X0Y0D02*
D03*
Y109843D02*
D03*
X218898Y0D02*
D03*
X218898Y109843D02*
D03*
M02*
