G04*
G04 #@! TF.GenerationSoftware,Altium Limited,Altium Designer,22.2.1 (43)*
G04*
G04 Layer_Color=65535*
%FSLAX25Y25*%
%MOIN*%
G70*
G04*
G04 #@! TF.SameCoordinates,CC40E7E9-BCCC-4790-90AD-1DA988BBAEE9*
G04*
G04*
G04 #@! TF.FilePolarity,Positive*
G04*
G01*
G75*
%ADD10C,0.01968*%
%ADD11C,0.00394*%
%ADD12C,0.00787*%
%ADD13C,0.01181*%
%ADD14C,0.00500*%
%ADD15C,0.00591*%
D10*
X275591Y267323D02*
G03*
X275591Y267323I-27559J0D01*
G01*
D11*
X224016Y236614D02*
G03*
X224016Y236614I-11417J0D01*
G01*
Y346457D02*
G03*
X224016Y346457I-11417J0D01*
G01*
X442913Y236614D02*
G03*
X442913Y236614I-11417J0D01*
G01*
X442913Y346457D02*
G03*
X442913Y346457I-11417J0D01*
G01*
X226622Y297441D02*
X228839D01*
Y304134D01*
X218406Y297441D02*
X220622D01*
X226622D01*
X218406Y297638D02*
Y304134D01*
X228839D01*
X234229Y306693D02*
X245676D01*
X234229D02*
Y311417D01*
X245676D01*
Y306693D02*
Y311417D01*
X226378Y290551D02*
X226383Y290557D01*
X229467D01*
Y296099D01*
X220866Y290551D02*
X226378D01*
X217815D02*
Y296099D01*
X229467D01*
X217815Y290551D02*
X220866D01*
X287697Y273524D02*
X287702Y273529D01*
X290785D01*
Y279072D01*
X282185Y273524D02*
X287697D01*
X279134D02*
Y279072D01*
X290785D01*
X279134Y273524D02*
X282185D01*
X287252Y265551D02*
X289469D01*
Y272244D01*
X279035Y265551D02*
X281252D01*
X287252D01*
X279035Y265748D02*
Y272244D01*
X289469D01*
X402756Y257283D02*
Y269094D01*
X396457Y257283D02*
X402756D01*
X396457D02*
Y269094D01*
X402756D01*
X419390Y260827D02*
X423327D01*
X410827Y271358D02*
Y283169D01*
X417126D01*
Y271358D02*
Y283169D01*
X410827Y271358D02*
X417126D01*
X397139Y276575D02*
X408586D01*
Y271850D02*
Y276575D01*
X397139Y271850D02*
X408586D01*
X397139D02*
Y276575D01*
X396654Y279232D02*
X408465D01*
X396654D02*
Y285531D01*
X408465D01*
Y279232D02*
Y285531D01*
X333465Y244882D02*
Y256693D01*
X327165Y244882D02*
X333465D01*
X327165D02*
Y256693D01*
X333465D01*
X321056Y262992D02*
X332503D01*
Y258268D02*
Y262992D01*
X321056Y258268D02*
X332503D01*
X321056D02*
Y262992D01*
X366240Y249508D02*
Y261319D01*
X359941Y249508D02*
X366240D01*
X359941D02*
Y261319D01*
X366240D01*
X351867Y248327D02*
X355804D01*
X295472Y301425D02*
Y303642D01*
X288779D02*
X295472D01*
Y293209D02*
Y295425D01*
Y301425D01*
X288779Y293209D02*
X295276D01*
X288779D02*
Y303642D01*
X286806Y301285D02*
X286811Y301279D01*
X286806Y301285D02*
Y304368D01*
X281263D02*
X286806D01*
X286811Y295768D02*
Y301279D01*
X281263Y292717D02*
X286811D01*
X281263D02*
Y304368D01*
X286811Y292717D02*
Y295768D01*
D12*
X306457Y329528D02*
G03*
X306457Y329528I-394J0D01*
G01*
X331847Y308300D02*
G03*
X331847Y308300I-394J0D01*
G01*
X352756Y221654D02*
Y237402D01*
Y221654D02*
X407480D01*
Y237402D01*
X352756D02*
X407480D01*
X312205Y362205D02*
X366929D01*
Y346457D02*
Y362205D01*
X312205Y346457D02*
X366929D01*
X312205D02*
Y362205D01*
X214567Y271535D02*
Y313268D01*
X203543Y271535D02*
X214567D01*
X203543Y313268D02*
X214567D01*
X203543Y271535D02*
Y313268D01*
X326772Y357873D02*
Y354724D01*
X328871D01*
X329920Y357348D02*
X330445Y357873D01*
X331494D01*
X332019Y357348D01*
Y356823D01*
X331494Y356299D01*
X332019Y355774D01*
Y355249D01*
X331494Y354724D01*
X330445D01*
X329920Y355249D01*
Y355774D01*
X330445Y356299D01*
X329920Y356823D01*
Y357348D01*
X330445Y356299D02*
X331494D01*
X335168Y357873D02*
X334118Y357348D01*
X333069Y356299D01*
Y355249D01*
X333594Y354724D01*
X334643D01*
X335168Y355249D01*
Y355774D01*
X334643Y356299D01*
X333069D01*
X336217D02*
X338316D01*
X339366Y354724D02*
Y357873D01*
X340416Y356823D01*
X341465Y357873D01*
Y354724D01*
X342515Y357348D02*
X343039Y357873D01*
X344089D01*
X344614Y357348D01*
Y356823D01*
X344089Y356299D01*
X343564D01*
X344089D01*
X344614Y355774D01*
Y355249D01*
X344089Y354724D01*
X343039D01*
X342515Y355249D01*
X345663Y357348D02*
X346188Y357873D01*
X347237D01*
X347762Y357348D01*
Y356823D01*
X347237Y356299D01*
X346713D01*
X347237D01*
X347762Y355774D01*
Y355249D01*
X347237Y354724D01*
X346188D01*
X345663Y355249D01*
D13*
X248031Y288913D02*
X248031Y283795D01*
X245339Y286221D02*
X250458D01*
X328701Y288189D02*
Y311811D01*
X352323D01*
X328701Y288189D02*
X348386D01*
X352323Y292126D01*
Y311811D01*
X333819Y324802D02*
Y320866D01*
X336443D01*
X337755Y324146D02*
X338411Y324802D01*
X339722D01*
X340378Y324146D01*
Y323490D01*
X339722Y322834D01*
X340378Y322178D01*
Y321522D01*
X339722Y320866D01*
X338411D01*
X337755Y321522D01*
Y322178D01*
X338411Y322834D01*
X337755Y323490D01*
Y324146D01*
X338411Y322834D02*
X339722D01*
X344314Y324802D02*
X343002Y324146D01*
X341690Y322834D01*
Y321522D01*
X342346Y320866D01*
X343658D01*
X344314Y321522D01*
Y322178D01*
X343658Y322834D01*
X341690D01*
D14*
X226969Y306594D02*
Y311516D01*
X221850Y306594D02*
X226969D01*
X228543D01*
X226969Y311516D02*
X228543D01*
X221850D02*
X226969D01*
X419291Y309842D02*
Y320079D01*
X409055Y317598D02*
Y320079D01*
Y309842D02*
Y312323D01*
X284370Y287598D02*
X289646D01*
X284370Y280906D02*
X289646D01*
X372008Y270472D02*
Y271260D01*
X309016Y270472D02*
X372008D01*
X309016D02*
Y271260D01*
X372008Y329134D02*
Y333465D01*
X309016D02*
X372008D01*
X309016Y329134D02*
Y333465D01*
D15*
X282579Y248917D02*
Y251870D01*
Y248917D02*
X286417D01*
X282480Y257776D02*
Y260728D01*
X286319D01*
X409842Y257283D02*
X413681D01*
Y260236D01*
X409744Y269094D02*
X413583D01*
Y266142D02*
Y269094D01*
X339961Y245276D02*
X343799D01*
Y248228D01*
X339862Y257087D02*
X343701D01*
Y254134D02*
Y257087D01*
X201378Y310433D02*
X198229D01*
Y312007D01*
X198754Y312532D01*
X199804D01*
X200328Y312007D01*
Y310433D01*
Y311483D02*
X201378Y312532D01*
X198229Y313582D02*
X201378Y315681D01*
X198229D02*
X201378Y313582D01*
X198229Y316730D02*
X201378D01*
Y318304D01*
X200853Y318829D01*
X198754D01*
X198229Y318304D01*
Y316730D01*
X198229Y296522D02*
Y298621D01*
Y297572D01*
X201378D01*
X198229Y299671D02*
X201378Y301770D01*
X198229D02*
X201378Y299671D01*
X198229Y302819D02*
X201378D01*
Y304394D01*
X200853Y304919D01*
X198754D01*
X198229Y304394D01*
Y302819D01*
X198754Y270800D02*
X198229Y270275D01*
Y269226D01*
X198754Y268701D01*
X200853D01*
X201378Y269226D01*
Y270275D01*
X200853Y270800D01*
X199804D01*
Y269750D01*
X201378Y271849D02*
X198229D01*
X201378Y273948D01*
X198229D01*
Y274998D02*
X201378D01*
Y276572D01*
X200853Y277097D01*
X198754D01*
X198229Y276572D01*
Y274998D01*
X198754Y282611D02*
X198229Y283136D01*
Y284186D01*
X198754Y284711D01*
X199279D01*
X199804Y284186D01*
Y283661D01*
Y284186D01*
X200328Y284711D01*
X200853D01*
X201378Y284186D01*
Y283136D01*
X200853Y282611D01*
X198229Y285760D02*
X200328D01*
X201378Y286810D01*
X200328Y287859D01*
X198229D01*
X198754Y288909D02*
X198229Y289434D01*
Y290483D01*
X198754Y291008D01*
X199279D01*
X199804Y290483D01*
Y289958D01*
Y290483D01*
X200328Y291008D01*
X200853D01*
X201378Y290483D01*
Y289434D01*
X200853Y288909D01*
X314764Y352558D02*
Y349409D01*
X316338D01*
X316863Y349934D01*
Y350459D01*
X316338Y350984D01*
X314764D01*
X316338D01*
X316863Y351508D01*
Y352033D01*
X316338Y352558D01*
X314764D01*
X317912Y351508D02*
Y349409D01*
Y350459D01*
X318437Y350984D01*
X318962Y351508D01*
X319487D01*
X322635Y349409D02*
X321586D01*
X321061Y349934D01*
Y350984D01*
X321586Y351508D01*
X322635D01*
X323160Y350984D01*
Y350459D01*
X321061D01*
X324734Y351508D02*
X325784D01*
X326309Y350984D01*
Y349409D01*
X324734D01*
X324209Y349934D01*
X324734Y350459D01*
X326309D01*
X327358Y349409D02*
Y352558D01*
Y350459D02*
X328932Y351508D01*
X327358Y350459D02*
X328932Y349409D01*
X330507Y350984D02*
X332606D01*
X334180Y349409D02*
X335230D01*
X335754Y349934D01*
Y350984D01*
X335230Y351508D01*
X334180D01*
X333655Y350984D01*
Y349934D01*
X334180Y349409D01*
X336804Y351508D02*
Y349934D01*
X337329Y349409D01*
X338903D01*
Y351508D01*
X340477Y352033D02*
Y351508D01*
X339952D01*
X341002D01*
X340477D01*
Y349934D01*
X341002Y349409D01*
X345725D02*
Y352558D01*
X346774Y351508D01*
X347824Y352558D01*
Y349409D01*
X349398D02*
X350448D01*
X350973Y349934D01*
Y350984D01*
X350448Y351508D01*
X349398D01*
X348873Y350984D01*
Y349934D01*
X349398Y349409D01*
X354121Y352558D02*
Y349409D01*
X352547D01*
X352022Y349934D01*
Y350984D01*
X352547Y351508D01*
X354121D01*
X355171D02*
Y349934D01*
X355695Y349409D01*
X357270D01*
Y351508D01*
X358319Y349409D02*
X359369D01*
X358844D01*
Y352558D01*
X358319D01*
X362517Y349409D02*
X361468D01*
X360943Y349934D01*
Y350984D01*
X361468Y351508D01*
X362517D01*
X363042Y350984D01*
Y350459D01*
X360943D01*
X361351Y233344D02*
X359252D01*
Y230196D01*
X361351D01*
X359252Y231770D02*
X360301D01*
X362401Y230196D02*
Y233344D01*
X364500Y230196D01*
Y233344D01*
X367648D02*
X365549D01*
Y230196D01*
X367648D01*
X365549Y231770D02*
X366599D01*
X370797Y232819D02*
X370272Y233344D01*
X369222D01*
X368698Y232819D01*
Y232295D01*
X369222Y231770D01*
X370272D01*
X370797Y231245D01*
Y230720D01*
X370272Y230196D01*
X369222D01*
X368698Y230720D01*
X374995Y230196D02*
Y233344D01*
X376044Y232295D01*
X377094Y233344D01*
Y230196D01*
X380243Y233344D02*
X378144D01*
Y230196D01*
X380243D01*
X378144Y231770D02*
X379193D01*
X381292Y230196D02*
Y233344D01*
X382866D01*
X383391Y232819D01*
Y231770D01*
X382866Y231245D01*
X381292D01*
X382342D02*
X383391Y230196D01*
X386540Y232819D02*
X386015Y233344D01*
X384965D01*
X384441Y232819D01*
Y230720D01*
X384965Y230196D01*
X386015D01*
X386540Y230720D01*
X387589Y230196D02*
Y232295D01*
X388639Y233344D01*
X389688Y232295D01*
Y230196D01*
Y231770D01*
X387589D01*
X390738Y230196D02*
Y233344D01*
X392837Y230196D01*
Y233344D01*
X361351Y225000D02*
X359252D01*
X361351Y227099D01*
Y227624D01*
X360826Y228149D01*
X359777D01*
X359252Y227624D01*
X364500Y228149D02*
X363450Y227624D01*
X362401Y226574D01*
Y225525D01*
X362925Y225000D01*
X363975D01*
X364500Y225525D01*
Y226049D01*
X363975Y226574D01*
X362401D01*
X368698Y225000D02*
X370797Y227099D01*
X374995Y227624D02*
X375520Y228149D01*
X376569D01*
X377094Y227624D01*
Y225525D01*
X376569Y225000D01*
X375520D01*
X374995Y225525D01*
Y227624D01*
X380243Y225000D02*
X378144D01*
X380243Y227099D01*
Y227624D01*
X379718Y228149D01*
X378668D01*
X378144Y227624D01*
X384441Y225000D02*
X386540Y227099D01*
X392837Y225000D02*
X390738D01*
X392837Y227099D01*
Y227624D01*
X392312Y228149D01*
X391263D01*
X390738Y227624D01*
X393886D02*
X394411Y228149D01*
X395461D01*
X395986Y227624D01*
Y225525D01*
X395461Y225000D01*
X394411D01*
X393886Y225525D01*
Y227624D01*
X399134Y225000D02*
X397035D01*
X399134Y227099D01*
Y227624D01*
X398609Y228149D01*
X397560D01*
X397035Y227624D01*
X402283Y225000D02*
X400184D01*
X402283Y227099D01*
Y227624D01*
X401758Y228149D01*
X400708D01*
X400184Y227624D01*
X293963Y277428D02*
X293439Y277952D01*
X292389D01*
X291864Y277428D01*
Y275328D01*
X292389Y274804D01*
X293439D01*
X293963Y275328D01*
X297112Y277952D02*
X296062Y277428D01*
X295013Y276378D01*
Y275328D01*
X295538Y274804D01*
X296587D01*
X297112Y275328D01*
Y275853D01*
X296587Y276378D01*
X295013D01*
X232546Y301837D02*
X232021Y302362D01*
X230972D01*
X230447Y301837D01*
Y299738D01*
X230972Y299213D01*
X232021D01*
X232546Y299738D01*
X235170Y299213D02*
Y302362D01*
X233596Y300787D01*
X235695D01*
X271811Y247070D02*
X271071Y247006D01*
X270397Y246202D01*
X270461Y245462D01*
X272069Y244113D01*
X272809Y244178D01*
X273483Y244982D01*
X273418Y245721D01*
X272083Y248212D02*
X273432Y249819D01*
X273834Y249482D01*
X274093Y246525D01*
X274495Y246188D01*
X237140Y313386D02*
Y316535D01*
X238714D01*
X239239Y316010D01*
Y314961D01*
X238714Y314436D01*
X237140D01*
X238190D02*
X239239Y313386D01*
X242388D02*
X240288D01*
X242388Y315485D01*
Y316010D01*
X241863Y316535D01*
X240813D01*
X240288Y316010D01*
X221523Y316535D02*
Y313386D01*
X223097D01*
X223622Y313911D01*
Y316010D01*
X223097Y316535D01*
X221523D01*
X224672Y313386D02*
X225721D01*
X225196D01*
Y316535D01*
X224672Y316010D01*
X233333Y297112D02*
X232809Y297637D01*
X231759D01*
X231235Y297112D01*
Y295013D01*
X231759Y294489D01*
X232809D01*
X233333Y295013D01*
X234383Y297112D02*
X234908Y297637D01*
X235957D01*
X236482Y297112D01*
Y296588D01*
X235957Y296063D01*
X235433D01*
X235957D01*
X236482Y295538D01*
Y295013D01*
X235957Y294489D01*
X234908D01*
X234383Y295013D01*
X411877Y324607D02*
Y326706D01*
X412927Y327755D01*
X413976Y326706D01*
Y324607D01*
Y326181D01*
X411877D01*
X415026Y324607D02*
X416075D01*
X415551D01*
Y327755D01*
X415026Y327231D01*
X293963Y269652D02*
X293439Y270177D01*
X292389D01*
X291864Y269652D01*
Y267553D01*
X292389Y267028D01*
X293439D01*
X293963Y267553D01*
X297112Y270177D02*
X295013D01*
Y268602D01*
X296062Y269127D01*
X296587D01*
X297112Y268602D01*
Y267553D01*
X296587Y267028D01*
X295538D01*
X295013Y267553D01*
X293833Y256299D02*
Y253150D01*
X295407D01*
X295932Y253675D01*
Y255774D01*
X295407Y256299D01*
X293833D01*
X299080Y253150D02*
X296982D01*
X299080Y255249D01*
Y255774D01*
X298556Y256299D01*
X297506D01*
X296982Y255774D01*
X274147Y286615D02*
X273623Y286090D01*
Y285040D01*
X274147Y284516D01*
X274672D01*
X275197Y285040D01*
Y286090D01*
X275722Y286615D01*
X276246D01*
X276771Y286090D01*
Y285040D01*
X276246Y284516D01*
X273623Y289763D02*
Y288714D01*
Y289239D01*
X276246D01*
X276771Y288714D01*
Y288189D01*
X276246Y287664D01*
X276771Y290813D02*
Y291862D01*
Y291338D01*
X273623D01*
X274147Y290813D01*
X389896Y261811D02*
Y264960D01*
X391470D01*
X391995Y264435D01*
Y263386D01*
X391470Y262861D01*
X389896D01*
X390945D02*
X391995Y261811D01*
X393044Y264435D02*
X393569Y264960D01*
X394619D01*
X395144Y264435D01*
Y263911D01*
X394619Y263386D01*
X395144Y262861D01*
Y262336D01*
X394619Y261811D01*
X393569D01*
X393044Y262336D01*
Y262861D01*
X393569Y263386D01*
X393044Y263911D01*
Y264435D01*
X393569Y263386D02*
X394619D01*
X408235Y253183D02*
Y255282D01*
X407710Y255807D01*
X406661D01*
X406136Y255282D01*
Y253183D01*
X406661Y252658D01*
X407710D01*
X407186Y253708D02*
X408235Y252658D01*
X407710D02*
X408235Y253183D01*
X411384Y252658D02*
X409285D01*
X411384Y254757D01*
Y255282D01*
X410859Y255807D01*
X409809D01*
X409285Y255282D01*
X418242Y259448D02*
Y256300D01*
X419817D01*
X420341Y256824D01*
Y258924D01*
X419817Y259448D01*
X418242D01*
X422965Y256300D02*
Y259448D01*
X421391Y257874D01*
X423490D01*
X411549Y284646D02*
Y287795D01*
X413124D01*
X413649Y287270D01*
Y286221D01*
X413124Y285696D01*
X411549D01*
X412599D02*
X413649Y284646D01*
X416272D02*
Y287795D01*
X414698Y286221D01*
X416797D01*
X390683Y272835D02*
Y275984D01*
X392258D01*
X392782Y275459D01*
Y274410D01*
X392258Y273885D01*
X390683D01*
X391733D02*
X392782Y272835D01*
X395931Y275984D02*
X394881Y275459D01*
X393832Y274410D01*
Y273360D01*
X394357Y272835D01*
X395406D01*
X395931Y273360D01*
Y273885D01*
X395406Y274410D01*
X393832D01*
X400657Y286615D02*
Y289763D01*
X402231D01*
X402756Y289239D01*
Y288189D01*
X402231Y287664D01*
X400657D01*
X401706D02*
X402756Y286615D01*
X403805D02*
X404855D01*
X404330D01*
Y289763D01*
X403805Y289239D01*
X327691Y240158D02*
Y243307D01*
X329265D01*
X329790Y242782D01*
Y241732D01*
X329265Y241208D01*
X327691D01*
X328741D02*
X329790Y240158D01*
X330840Y243307D02*
X332939D01*
Y242782D01*
X330840Y240683D01*
Y240158D01*
X313912Y259056D02*
Y262204D01*
X315486D01*
X316011Y261680D01*
Y260630D01*
X315486Y260105D01*
X313912D01*
X314961D02*
X316011Y259056D01*
X319159Y262204D02*
X317060D01*
Y260630D01*
X318110Y261155D01*
X318635D01*
X319159Y260630D01*
Y259580D01*
X318635Y259056D01*
X317585D01*
X317060Y259580D01*
X340551Y240683D02*
Y242782D01*
X340026Y243307D01*
X338977D01*
X338452Y242782D01*
Y240683D01*
X338977Y240158D01*
X340026D01*
X339502Y241208D02*
X340551Y240158D01*
X340026D02*
X340551Y240683D01*
X341601Y240158D02*
X342650D01*
X342126D01*
Y243307D01*
X341601Y242782D01*
X360762Y244489D02*
Y247637D01*
X362336D01*
X362861Y247112D01*
Y246063D01*
X362336Y245538D01*
X360762D01*
X361811D02*
X362861Y244489D01*
X363911Y247112D02*
X364435Y247637D01*
X365485D01*
X366010Y247112D01*
Y246588D01*
X365485Y246063D01*
X364960D01*
X365485D01*
X366010Y245538D01*
Y245013D01*
X365485Y244489D01*
X364435D01*
X363911Y245013D01*
X351608Y246653D02*
Y243504D01*
X353183D01*
X353708Y244029D01*
Y246128D01*
X353183Y246653D01*
X351608D01*
X354757Y246128D02*
X355282Y246653D01*
X356331D01*
X356856Y246128D01*
Y245603D01*
X356331Y245079D01*
X355807D01*
X356331D01*
X356856Y244554D01*
Y244029D01*
X356331Y243504D01*
X355282D01*
X354757Y244029D01*
X291208Y308136D02*
X290683Y308661D01*
X289633D01*
X289108Y308136D01*
Y306037D01*
X289633Y305512D01*
X290683D01*
X291208Y306037D01*
X294356Y305512D02*
X292257D01*
X294356Y307611D01*
Y308136D01*
X293831Y308661D01*
X292782D01*
X292257Y308136D01*
X283465Y308530D02*
X282940Y309055D01*
X281890D01*
X281365Y308530D01*
Y306431D01*
X281890Y305906D01*
X282940D01*
X283465Y306431D01*
X284514Y305906D02*
X285564D01*
X285039D01*
Y309055D01*
X284514Y308530D01*
M02*
