G04*
G04 #@! TF.GenerationSoftware,Altium Limited,Altium Designer,22.2.1 (43)*
G04*
G04 Layer_Color=65535*
%FSLAX25Y25*%
%MOIN*%
G70*
G04*
G04 #@! TF.SameCoordinates,E15721E2-6A2B-4D62-837A-8D353DC3B16A*
G04*
G04*
G04 #@! TF.FilePolarity,Positive*
G04*
G01*
G75*
%ADD10C,0.01968*%
%ADD11C,0.00394*%
%ADD12C,0.00787*%
%ADD13C,0.01181*%
%ADD14C,0.00500*%
%ADD15C,0.00591*%
D10*
X62992Y30709D02*
G03*
X62992Y30709I-27559J0D01*
G01*
D11*
X11417Y0D02*
G03*
X11417Y0I-11417J0D01*
G01*
Y109843D02*
G03*
X11417Y109843I-11417J0D01*
G01*
X230315Y0D02*
G03*
X230315Y0I-11417J0D01*
G01*
X230315Y109843D02*
G03*
X230315Y109843I-11417J0D01*
G01*
X14024Y60827D02*
X16240D01*
Y67520D01*
X5807Y60827D02*
X8024D01*
X14024D01*
X5807Y61024D02*
Y67520D01*
X16240D01*
X21631Y70079D02*
X33077D01*
X21631D02*
Y74803D01*
X33077D01*
Y70079D02*
Y74803D01*
X13780Y53937D02*
X13785Y53943D01*
X16868D01*
Y59485D01*
X8268Y53937D02*
X13780D01*
X5217D02*
Y59485D01*
X16868D01*
X5217Y53937D02*
X8268D01*
X75098Y36909D02*
X75104Y36915D01*
X78187D01*
Y42458D01*
X69587Y36909D02*
X75098D01*
X66535D02*
Y42458D01*
X78187D01*
X66535Y36909D02*
X69587D01*
X74654Y28937D02*
X76870D01*
Y35630D01*
X66437Y28937D02*
X68654D01*
X74654D01*
X66437Y29134D02*
Y35630D01*
X76870D01*
X190157Y20669D02*
Y32480D01*
X183858Y20669D02*
X190157D01*
X183858D02*
Y32480D01*
X190157D01*
X206791Y24213D02*
X210728D01*
X198228Y34744D02*
Y46555D01*
X204527D01*
Y34744D02*
Y46555D01*
X198228Y34744D02*
X204527D01*
X184541Y39961D02*
X195987D01*
Y35236D02*
Y39961D01*
X184541Y35236D02*
X195987D01*
X184541D02*
Y39961D01*
X184055Y42618D02*
X195866D01*
X184055D02*
Y48917D01*
X195866D01*
Y42618D02*
Y48917D01*
X120866Y8268D02*
Y20079D01*
X114567Y8268D02*
X120866D01*
X114567D02*
Y20079D01*
X120866D01*
X108458Y26378D02*
X119905D01*
Y21654D02*
Y26378D01*
X108458Y21654D02*
X119905D01*
X108458D02*
Y26378D01*
X153642Y12894D02*
Y24705D01*
X147343Y12894D02*
X153642D01*
X147343D02*
Y24705D01*
X153642D01*
X139268Y11713D02*
X143205D01*
X82874Y64811D02*
Y67028D01*
X76181D02*
X82874D01*
Y56595D02*
Y58811D01*
Y64811D01*
X76181Y56595D02*
X82677D01*
X76181D02*
Y67028D01*
X74207Y64671D02*
X74213Y64665D01*
X74207Y64671D02*
Y67754D01*
X68664D02*
X74207D01*
X74213Y59153D02*
Y64665D01*
X68664Y56102D02*
X74213D01*
X68664D02*
Y67754D01*
X74213Y56102D02*
Y59153D01*
D12*
X93858Y92913D02*
G03*
X93858Y92913I-394J0D01*
G01*
X119249Y71686D02*
G03*
X119249Y71686I-394J0D01*
G01*
X140157Y-14961D02*
Y787D01*
Y-14961D02*
X194882D01*
Y787D01*
X140157D02*
X194882D01*
X99606Y125591D02*
X154331D01*
Y109843D02*
Y125591D01*
X99606Y109843D02*
X154331D01*
X99606D02*
Y125591D01*
X1969Y34921D02*
Y76653D01*
X-9055Y34921D02*
X1969D01*
X-9055Y76653D02*
X1969D01*
X-9055Y34921D02*
Y76653D01*
X114173Y121259D02*
Y118110D01*
X116272D01*
X117322Y120734D02*
X117847Y121259D01*
X118896D01*
X119421Y120734D01*
Y120209D01*
X118896Y119685D01*
X119421Y119160D01*
Y118635D01*
X118896Y118110D01*
X117847D01*
X117322Y118635D01*
Y119160D01*
X117847Y119685D01*
X117322Y120209D01*
Y120734D01*
X117847Y119685D02*
X118896D01*
X122570Y121259D02*
X121520Y120734D01*
X120470Y119685D01*
Y118635D01*
X120995Y118110D01*
X122045D01*
X122570Y118635D01*
Y119160D01*
X122045Y119685D01*
X120470D01*
X123619D02*
X125718D01*
X126768Y118110D02*
Y121259D01*
X127817Y120209D01*
X128867Y121259D01*
Y118110D01*
X129916Y120734D02*
X130441Y121259D01*
X131491D01*
X132015Y120734D01*
Y120209D01*
X131491Y119685D01*
X130966D01*
X131491D01*
X132015Y119160D01*
Y118635D01*
X131491Y118110D01*
X130441D01*
X129916Y118635D01*
X133065Y120734D02*
X133589Y121259D01*
X134639D01*
X135164Y120734D01*
Y120209D01*
X134639Y119685D01*
X134114D01*
X134639D01*
X135164Y119160D01*
Y118635D01*
X134639Y118110D01*
X133589D01*
X133065Y118635D01*
D13*
X35433Y52299D02*
X35433Y47181D01*
X32741Y49606D02*
X37859D01*
X116102Y51575D02*
Y75197D01*
X139724D01*
X116102Y51575D02*
X135787D01*
X139724Y55512D01*
Y75197D01*
X121221Y88188D02*
Y84252D01*
X123844D01*
X125156Y87532D02*
X125812Y88188D01*
X127124D01*
X127780Y87532D01*
Y86876D01*
X127124Y86220D01*
X127780Y85564D01*
Y84908D01*
X127124Y84252D01*
X125812D01*
X125156Y84908D01*
Y85564D01*
X125812Y86220D01*
X125156Y86876D01*
Y87532D01*
X125812Y86220D02*
X127124D01*
X131716Y88188D02*
X130404Y87532D01*
X129092Y86220D01*
Y84908D01*
X129748Y84252D01*
X131060D01*
X131716Y84908D01*
Y85564D01*
X131060Y86220D01*
X129092D01*
D14*
X14370Y69980D02*
Y74902D01*
X9252Y69980D02*
X14370D01*
X15945D01*
X14370Y74902D02*
X15945D01*
X9252D02*
X14370D01*
X206693Y73228D02*
Y83465D01*
X196457Y80984D02*
Y83465D01*
Y73228D02*
Y75709D01*
X71772Y50984D02*
X77047D01*
X71772Y44291D02*
X77047D01*
X159409Y33858D02*
Y34646D01*
X96417Y33858D02*
X159409D01*
X96417D02*
Y34646D01*
X159409Y92520D02*
Y96850D01*
X96417D02*
X159409D01*
X96417Y92520D02*
Y96850D01*
D15*
X197244Y20669D02*
X201083D01*
Y23622D01*
X197146Y32480D02*
X200984D01*
Y29528D02*
Y32480D01*
X127362Y8661D02*
X131201D01*
Y11614D01*
X127264Y20472D02*
X131102D01*
Y17520D02*
Y20472D01*
X102165Y115944D02*
Y112795D01*
X103740D01*
X104264Y113320D01*
Y113845D01*
X103740Y114370D01*
X102165D01*
X103740D01*
X104264Y114894D01*
Y115419D01*
X103740Y115944D01*
X102165D01*
X105314Y114894D02*
Y112795D01*
Y113845D01*
X105839Y114370D01*
X106363Y114894D01*
X106888D01*
X110037Y112795D02*
X108987D01*
X108463Y113320D01*
Y114370D01*
X108987Y114894D01*
X110037D01*
X110562Y114370D01*
Y113845D01*
X108463D01*
X112136Y114894D02*
X113185D01*
X113710Y114370D01*
Y112795D01*
X112136D01*
X111611Y113320D01*
X112136Y113845D01*
X113710D01*
X114760Y112795D02*
Y115944D01*
Y113845D02*
X116334Y114894D01*
X114760Y113845D02*
X116334Y112795D01*
X117908Y114370D02*
X120007D01*
X121582Y112795D02*
X122631D01*
X123156Y113320D01*
Y114370D01*
X122631Y114894D01*
X121582D01*
X121057Y114370D01*
Y113320D01*
X121582Y112795D01*
X124206Y114894D02*
Y113320D01*
X124730Y112795D01*
X126304D01*
Y114894D01*
X127879Y115419D02*
Y114894D01*
X127354D01*
X128404D01*
X127879D01*
Y113320D01*
X128404Y112795D01*
X133126D02*
Y115944D01*
X134176Y114894D01*
X135225Y115944D01*
Y112795D01*
X136800D02*
X137849D01*
X138374Y113320D01*
Y114370D01*
X137849Y114894D01*
X136800D01*
X136275Y114370D01*
Y113320D01*
X136800Y112795D01*
X141523Y115944D02*
Y112795D01*
X139948D01*
X139424Y113320D01*
Y114370D01*
X139948Y114894D01*
X141523D01*
X142572D02*
Y113320D01*
X143097Y112795D01*
X144671D01*
Y114894D01*
X145721Y112795D02*
X146770D01*
X146246D01*
Y115944D01*
X145721D01*
X149919Y112795D02*
X148869D01*
X148345Y113320D01*
Y114370D01*
X148869Y114894D01*
X149919D01*
X150444Y114370D01*
Y113845D01*
X148345D01*
X148753Y-3270D02*
X146653D01*
Y-6419D01*
X148753D01*
X146653Y-4844D02*
X147703D01*
X149802Y-6419D02*
Y-3270D01*
X151901Y-6419D01*
Y-3270D01*
X155050D02*
X152951D01*
Y-6419D01*
X155050D01*
X152951Y-4844D02*
X154000D01*
X158198Y-3795D02*
X157674Y-3270D01*
X156624D01*
X156099Y-3795D01*
Y-4320D01*
X156624Y-4844D01*
X157674D01*
X158198Y-5369D01*
Y-5894D01*
X157674Y-6419D01*
X156624D01*
X156099Y-5894D01*
X162397Y-6419D02*
Y-3270D01*
X163446Y-4320D01*
X164496Y-3270D01*
Y-6419D01*
X167644Y-3270D02*
X165545D01*
Y-6419D01*
X167644D01*
X165545Y-4844D02*
X166595D01*
X168694Y-6419D02*
Y-3270D01*
X170268D01*
X170793Y-3795D01*
Y-4844D01*
X170268Y-5369D01*
X168694D01*
X169743D02*
X170793Y-6419D01*
X173941Y-3795D02*
X173417Y-3270D01*
X172367D01*
X171842Y-3795D01*
Y-5894D01*
X172367Y-6419D01*
X173417D01*
X173941Y-5894D01*
X174991Y-6419D02*
Y-4320D01*
X176040Y-3270D01*
X177090Y-4320D01*
Y-6419D01*
Y-4844D01*
X174991D01*
X178139Y-6419D02*
Y-3270D01*
X180238Y-6419D01*
Y-3270D01*
X148753Y-11614D02*
X146653D01*
X148753Y-9515D01*
Y-8990D01*
X148228Y-8466D01*
X147178D01*
X146653Y-8990D01*
X151901Y-8466D02*
X150852Y-8990D01*
X149802Y-10040D01*
Y-11089D01*
X150327Y-11614D01*
X151376D01*
X151901Y-11089D01*
Y-10565D01*
X151376Y-10040D01*
X149802D01*
X156099Y-11614D02*
X158198Y-9515D01*
X162397Y-8990D02*
X162921Y-8466D01*
X163971D01*
X164496Y-8990D01*
Y-11089D01*
X163971Y-11614D01*
X162921D01*
X162397Y-11089D01*
Y-8990D01*
X167644Y-11614D02*
X165545D01*
X167644Y-9515D01*
Y-8990D01*
X167119Y-8466D01*
X166070D01*
X165545Y-8990D01*
X171842Y-11614D02*
X173941Y-9515D01*
X180238Y-11614D02*
X178139D01*
X180238Y-9515D01*
Y-8990D01*
X179714Y-8466D01*
X178664D01*
X178139Y-8990D01*
X181288D02*
X181813Y-8466D01*
X182862D01*
X183387Y-8990D01*
Y-11089D01*
X182862Y-11614D01*
X181813D01*
X181288Y-11089D01*
Y-8990D01*
X186536Y-11614D02*
X184437D01*
X186536Y-9515D01*
Y-8990D01*
X186011Y-8466D01*
X184961D01*
X184437Y-8990D01*
X189684Y-11614D02*
X187585D01*
X189684Y-9515D01*
Y-8990D01*
X189160Y-8466D01*
X188110D01*
X187585Y-8990D01*
X-13844Y34186D02*
X-14369Y33661D01*
Y32611D01*
X-13844Y32087D01*
X-11745D01*
X-11220Y32611D01*
Y33661D01*
X-11745Y34186D01*
X-12795D01*
Y33136D01*
X-11220Y35235D02*
X-14369D01*
X-11220Y37334D01*
X-14369D01*
Y38384D02*
X-11220D01*
Y39958D01*
X-11745Y40483D01*
X-13844D01*
X-14369Y39958D01*
Y38384D01*
X-13844Y45997D02*
X-14369Y46522D01*
Y47572D01*
X-13844Y48096D01*
X-13319D01*
X-12795Y47572D01*
Y47047D01*
Y47572D01*
X-12270Y48096D01*
X-11745D01*
X-11220Y47572D01*
Y46522D01*
X-11745Y45997D01*
X-14369Y49146D02*
X-12270D01*
X-11220Y50195D01*
X-12270Y51245D01*
X-14369D01*
X-13844Y52295D02*
X-14369Y52819D01*
Y53869D01*
X-13844Y54394D01*
X-13319D01*
X-12795Y53869D01*
Y53344D01*
Y53869D01*
X-12270Y54394D01*
X-11745D01*
X-11220Y53869D01*
Y52819D01*
X-11745Y52295D01*
X-14369Y59908D02*
Y62007D01*
Y60958D01*
X-11220D01*
X-14369Y63057D02*
X-11220Y65156D01*
X-14369D02*
X-11220Y63057D01*
X-14369Y66205D02*
X-11220D01*
Y67780D01*
X-11745Y68304D01*
X-13844D01*
X-14369Y67780D01*
Y66205D01*
X-11220Y73819D02*
X-14369D01*
Y75393D01*
X-13844Y75918D01*
X-12795D01*
X-12270Y75393D01*
Y73819D01*
Y74868D02*
X-11220Y75918D01*
X-14369Y76968D02*
X-11220Y79066D01*
X-14369D02*
X-11220Y76968D01*
X-14369Y80116D02*
X-11220D01*
Y81690D01*
X-11745Y82215D01*
X-13844D01*
X-14369Y81690D01*
Y80116D01*
X8925Y79921D02*
Y76772D01*
X10499D01*
X11024Y77297D01*
Y79396D01*
X10499Y79921D01*
X8925D01*
X12073Y76772D02*
X13123D01*
X12598D01*
Y79921D01*
X12073Y79396D01*
X24542Y76772D02*
Y79921D01*
X26116D01*
X26641Y79396D01*
Y78347D01*
X26116Y77822D01*
X24542D01*
X25591D02*
X26641Y76772D01*
X29789D02*
X27690D01*
X29789Y78871D01*
Y79396D01*
X29264Y79921D01*
X28215D01*
X27690Y79396D01*
X61549Y50001D02*
X61024Y49476D01*
Y48426D01*
X61549Y47901D01*
X62074D01*
X62598Y48426D01*
Y49476D01*
X63123Y50001D01*
X63648D01*
X64173Y49476D01*
Y48426D01*
X63648Y47901D01*
X61024Y53149D02*
Y52100D01*
Y52624D01*
X63648D01*
X64173Y52100D01*
Y51575D01*
X63648Y51050D01*
X64173Y54199D02*
Y55248D01*
Y54723D01*
X61024D01*
X61549Y54199D01*
X205644Y22834D02*
Y19686D01*
X207218D01*
X207743Y20210D01*
Y22309D01*
X207218Y22834D01*
X205644D01*
X210367Y19686D02*
Y22834D01*
X208792Y21260D01*
X210892D01*
X177297Y25197D02*
Y28346D01*
X178872D01*
X179396Y27821D01*
Y26772D01*
X178872Y26247D01*
X177297D01*
X178347D02*
X179396Y25197D01*
X180446Y27821D02*
X180971Y28346D01*
X182020D01*
X182545Y27821D01*
Y27296D01*
X182020Y26772D01*
X182545Y26247D01*
Y25722D01*
X182020Y25197D01*
X180971D01*
X180446Y25722D01*
Y26247D01*
X180971Y26772D01*
X180446Y27296D01*
Y27821D01*
X180971Y26772D02*
X182020D01*
X115093Y3544D02*
Y6692D01*
X116667D01*
X117192Y6168D01*
Y5118D01*
X116667Y4593D01*
X115093D01*
X116142D02*
X117192Y3544D01*
X118241Y6692D02*
X120340D01*
Y6168D01*
X118241Y4069D01*
Y3544D01*
X178085Y36221D02*
Y39370D01*
X179659D01*
X180184Y38845D01*
Y37795D01*
X179659Y37271D01*
X178085D01*
X179134D02*
X180184Y36221D01*
X183333Y39370D02*
X182283Y38845D01*
X181233Y37795D01*
Y36746D01*
X181758Y36221D01*
X182808D01*
X183333Y36746D01*
Y37271D01*
X182808Y37795D01*
X181233D01*
X101313Y22442D02*
Y25590D01*
X102887D01*
X103412Y25065D01*
Y24016D01*
X102887Y23491D01*
X101313D01*
X102363D02*
X103412Y22442D01*
X106561Y25590D02*
X104462D01*
Y24016D01*
X105511Y24541D01*
X106036D01*
X106561Y24016D01*
Y22966D01*
X106036Y22442D01*
X104987D01*
X104462Y22966D01*
X198951Y48032D02*
Y51181D01*
X200525D01*
X201050Y50656D01*
Y49606D01*
X200525Y49082D01*
X198951D01*
X200001D02*
X201050Y48032D01*
X203674D02*
Y51181D01*
X202100Y49606D01*
X204199D01*
X148164Y7875D02*
Y11023D01*
X149738D01*
X150263Y10498D01*
Y9449D01*
X149738Y8924D01*
X148164D01*
X149213D02*
X150263Y7875D01*
X151312Y10498D02*
X151837Y11023D01*
X152886D01*
X153411Y10498D01*
Y9974D01*
X152886Y9449D01*
X152362D01*
X152886D01*
X153411Y8924D01*
Y8399D01*
X152886Y7875D01*
X151837D01*
X151312Y8399D01*
X188058Y50001D02*
Y53149D01*
X189633D01*
X190157Y52624D01*
Y51575D01*
X189633Y51050D01*
X188058D01*
X189108D02*
X190157Y50001D01*
X191207D02*
X192256D01*
X191732D01*
Y53149D01*
X191207Y52624D01*
X195637Y16569D02*
Y18668D01*
X195112Y19192D01*
X194062D01*
X193538Y18668D01*
Y16569D01*
X194062Y16044D01*
X195112D01*
X194587Y17093D02*
X195637Y16044D01*
X195112D02*
X195637Y16569D01*
X198785Y16044D02*
X196686D01*
X198785Y18143D01*
Y18668D01*
X198260Y19192D01*
X197211D01*
X196686Y18668D01*
X127953Y4069D02*
Y6168D01*
X127428Y6692D01*
X126379D01*
X125854Y6168D01*
Y4069D01*
X126379Y3544D01*
X127428D01*
X126903Y4593D02*
X127953Y3544D01*
X127428D02*
X127953Y4069D01*
X129002Y3544D02*
X130052D01*
X129527D01*
Y6692D01*
X129002Y6168D01*
X139010Y10039D02*
Y6890D01*
X140584D01*
X141109Y7415D01*
Y9514D01*
X140584Y10039D01*
X139010D01*
X142159Y9514D02*
X142683Y10039D01*
X143733D01*
X144258Y9514D01*
Y8989D01*
X143733Y8465D01*
X143208D01*
X143733D01*
X144258Y7940D01*
Y7415D01*
X143733Y6890D01*
X142683D01*
X142159Y7415D01*
X59212Y10456D02*
X58473Y10391D01*
X57798Y9587D01*
X57863Y8848D01*
X59471Y7499D01*
X60210Y7564D01*
X60885Y8367D01*
X60820Y9107D01*
X59485Y11597D02*
X60834Y13205D01*
X61236Y12868D01*
X61495Y9911D01*
X61897Y9573D01*
X81365Y40813D02*
X80840Y41338D01*
X79791D01*
X79266Y40813D01*
Y38714D01*
X79791Y38190D01*
X80840D01*
X81365Y38714D01*
X84514Y41338D02*
X83464Y40813D01*
X82415Y39764D01*
Y38714D01*
X82939Y38190D01*
X83989D01*
X84514Y38714D01*
Y39239D01*
X83989Y39764D01*
X82415D01*
X81365Y33038D02*
X80840Y33562D01*
X79791D01*
X79266Y33038D01*
Y30939D01*
X79791Y30414D01*
X80840D01*
X81365Y30939D01*
X84514Y33562D02*
X82415D01*
Y31988D01*
X83464Y32513D01*
X83989D01*
X84514Y31988D01*
Y30939D01*
X83989Y30414D01*
X82939D01*
X82415Y30939D01*
X19948Y65223D02*
X19423Y65747D01*
X18373D01*
X17849Y65223D01*
Y63124D01*
X18373Y62599D01*
X19423D01*
X19948Y63124D01*
X22571Y62599D02*
Y65747D01*
X20997Y64173D01*
X23096D01*
X20735Y60498D02*
X20210Y61023D01*
X19161D01*
X18636Y60498D01*
Y58399D01*
X19161Y57875D01*
X20210D01*
X20735Y58399D01*
X21785Y60498D02*
X22309Y61023D01*
X23359D01*
X23884Y60498D01*
Y59974D01*
X23359Y59449D01*
X22834D01*
X23359D01*
X23884Y58924D01*
Y58399D01*
X23359Y57875D01*
X22309D01*
X21785Y58399D01*
X78609Y71522D02*
X78084Y72047D01*
X77035D01*
X76510Y71522D01*
Y69423D01*
X77035Y68898D01*
X78084D01*
X78609Y69423D01*
X81758Y68898D02*
X79659D01*
X81758Y70997D01*
Y71522D01*
X81233Y72047D01*
X80183D01*
X79659Y71522D01*
X70866Y71916D02*
X70341Y72440D01*
X69292D01*
X68767Y71916D01*
Y69817D01*
X69292Y69292D01*
X70341D01*
X70866Y69817D01*
X71916Y69292D02*
X72965D01*
X72440D01*
Y72440D01*
X71916Y71916D01*
X199279Y87993D02*
Y90092D01*
X200328Y91141D01*
X201378Y90092D01*
Y87993D01*
Y89567D01*
X199279D01*
X202428Y87993D02*
X203477D01*
X202952D01*
Y91141D01*
X202428Y90617D01*
M02*
