G04*
G04 #@! TF.GenerationSoftware,Altium Limited,Altium Designer,22.3.1 (43)*
G04*
G04 Layer_Color=8388736*
%FSLAX25Y25*%
%MOIN*%
G70*
G04*
G04 #@! TF.SameCoordinates,13010D4F-CA40-4925-A7E6-2A4E1DD476F1*
G04*
G04*
G04 #@! TF.FilePolarity,Negative*
G04*
G01*
G75*
%ADD30R,0.04528X0.04331*%
%ADD31R,0.09055X0.04528*%
%ADD32R,0.06094X0.03394*%
%ADD33R,0.05709X0.04921*%
%ADD34R,0.05512X0.03937*%
%ADD35R,0.03937X0.05512*%
%ADD36R,0.04331X0.04134*%
%ADD37R,0.04134X0.04331*%
%ADD38R,0.04410X0.07402*%
%ADD39R,0.03543X0.05512*%
%ADD40R,0.05512X0.03543*%
%ADD41R,0.03740X0.03740*%
%ADD42R,0.03937X0.03543*%
%ADD43R,0.03150X0.03937*%
%ADD44O,0.14173X0.05512*%
%ADD45C,0.21654*%
%ADD46C,0.09055*%
%ADD47R,0.08268X0.06693*%
%ADD48O,0.08268X0.06693*%
D30*
X195571Y78347D02*
D03*
D31*
X201575Y84153D02*
D03*
Y72539D02*
D03*
D32*
X141240Y14206D02*
D03*
Y22605D02*
D03*
D33*
X208760Y36417D02*
D03*
Y27362D02*
D03*
D34*
X79527Y59252D02*
D03*
Y64370D02*
D03*
D35*
X8465Y64173D02*
D03*
X13583D02*
D03*
X69095Y30217D02*
D03*
X74213D02*
D03*
D36*
X71457Y65059D02*
D03*
Y58760D02*
D03*
D37*
X14173Y56693D02*
D03*
X7874D02*
D03*
X75523Y38992D02*
D03*
X69223D02*
D03*
D38*
X80236Y47638D02*
D03*
X68583D02*
D03*
D39*
X186221Y45768D02*
D03*
X193701D02*
D03*
D40*
X150492Y15059D02*
D03*
Y22539D02*
D03*
X201378Y44390D02*
D03*
Y36909D02*
D03*
X117717Y10433D02*
D03*
Y17913D02*
D03*
X187008Y22835D02*
D03*
Y30315D02*
D03*
D41*
X110827Y24016D02*
D03*
X117520D02*
D03*
X186909Y37598D02*
D03*
X193602D02*
D03*
X30709Y72441D02*
D03*
X24016D02*
D03*
D42*
X124262Y18406D02*
D03*
Y10925D02*
D03*
X132234Y14665D02*
D03*
X194144Y30413D02*
D03*
Y22933D02*
D03*
X202116Y26673D02*
D03*
D43*
X8071Y72441D02*
D03*
X17126D02*
D03*
D44*
X97402Y88386D02*
D03*
Y78386D02*
D03*
Y68386D02*
D03*
Y58386D02*
D03*
Y48386D02*
D03*
X158425Y88386D02*
D03*
Y78386D02*
D03*
Y68386D02*
D03*
Y48386D02*
D03*
Y38386D02*
D03*
Y58386D02*
D03*
X97402Y38386D02*
D03*
D45*
X218898Y109843D02*
D03*
X0Y109843D02*
D03*
Y0D02*
D03*
X218898D02*
D03*
D46*
X34449Y16929D02*
D03*
Y36614D02*
D03*
D47*
X-3543Y70787D02*
D03*
D48*
Y60787D02*
D03*
Y50787D02*
D03*
Y40787D02*
D03*
M02*
