G04*
G04 #@! TF.GenerationSoftware,Altium Limited,Altium Designer,22.3.1 (43)*
G04*
G04 Layer_Physical_Order=3*
G04 Layer_Color=128*
%FSLAX25Y25*%
%MOIN*%
G70*
G04*
G04 #@! TF.SameCoordinates,13010D4F-CA40-4925-A7E6-2A4E1DD476F1*
G04*
G04*
G04 #@! TF.FilePolarity,Negative*
G04*
G01*
G75*
%ADD59C,0.04000*%
%ADD60C,0.08307*%
%ADD61C,0.06929*%
%ADD62C,0.03780*%
%ADD63C,0.14803*%
D59*
X213386Y-18510D02*
G03*
X237014Y5118I0J23629D01*
G01*
X237008Y105118D02*
G03*
X213379Y128747I-23629J0D01*
G01*
X-16936Y5118D02*
G03*
X6693Y-18510I23629J-0D01*
G01*
Y128747D02*
G03*
X-16936Y105118I-0J-23629D01*
G01*
X6693Y-18504D02*
X213386Y-18504D01*
Y-18510D02*
Y-18504D01*
X237008Y5118D02*
X237014D01*
X237008D02*
X237008Y105118D01*
X213379Y128740D02*
Y128747D01*
X6693Y128740D02*
X213379Y128740D01*
X6693Y-18510D02*
Y-18504D01*
Y128740D02*
Y128747D01*
X-16936Y105118D02*
X-16929D01*
X-16936Y5118D02*
X-16929Y105118D01*
D60*
X34449Y16929D02*
D03*
Y36614D02*
D03*
D61*
X-3543Y70787D02*
D03*
Y60787D02*
D03*
Y40787D02*
D03*
D62*
X67716Y18110D02*
D03*
X79331Y72047D02*
D03*
X72736D02*
D03*
X63484Y70965D02*
D03*
X23228Y54429D02*
D03*
X15551Y47835D02*
D03*
X25984Y65158D02*
D03*
X38189Y66339D02*
D03*
X52953Y80610D02*
D03*
X58169Y52362D02*
D03*
X48031Y56890D02*
D03*
X57776Y36122D02*
D03*
X39764Y48327D02*
D03*
X22441Y45177D02*
D03*
X43012Y22835D02*
D03*
X45276Y10630D02*
D03*
X23425Y11024D02*
D03*
X28051Y25984D02*
D03*
X34646Y9055D02*
D03*
X15748Y11811D02*
D03*
X21260Y64567D02*
D03*
X6299Y45276D02*
D03*
X9843Y91732D02*
D03*
X11024Y82284D02*
D03*
X25984Y84646D02*
D03*
X40945Y85039D02*
D03*
X68898Y83858D02*
D03*
X44882Y73622D02*
D03*
X58661Y64173D02*
D03*
X48819Y41339D02*
D03*
X52756Y22047D02*
D03*
X15748Y37795D02*
D03*
X16535Y24409D02*
D03*
X210236Y47638D02*
D03*
X212598Y20079D02*
D03*
X207087Y16929D02*
D03*
X174803Y35433D02*
D03*
X178347Y45276D02*
D03*
X165748Y93701D02*
D03*
X166535Y83858D02*
D03*
X172047Y65354D02*
D03*
X167323Y54724D02*
D03*
X168504Y40551D02*
D03*
X97244Y25984D02*
D03*
X88189Y52756D02*
D03*
Y64173D02*
D03*
X88976Y72441D02*
D03*
X89764Y82677D02*
D03*
X153937Y29921D02*
D03*
X135827D02*
D03*
X144882D02*
D03*
X117717D02*
D03*
X126772D02*
D03*
X108661D02*
D03*
X127559Y46063D02*
D03*
Y37008D02*
D03*
Y64173D02*
D03*
Y55118D02*
D03*
Y82284D02*
D03*
Y73228D02*
D03*
Y91339D02*
D03*
X145276Y46063D02*
D03*
Y37008D02*
D03*
Y64173D02*
D03*
Y55118D02*
D03*
Y82284D02*
D03*
Y73228D02*
D03*
Y91339D02*
D03*
X108661Y46063D02*
D03*
Y37008D02*
D03*
Y64173D02*
D03*
Y55118D02*
D03*
Y82284D02*
D03*
Y73228D02*
D03*
Y91339D02*
D03*
X87795Y31890D02*
D03*
Y40945D02*
D03*
Y22835D02*
D03*
X91732Y14567D02*
D03*
X82677D02*
D03*
X109843D02*
D03*
X100787D02*
D03*
Y6693D02*
D03*
X109843D02*
D03*
X82677D02*
D03*
X91732D02*
D03*
X64567D02*
D03*
X73622D02*
D03*
X153937Y102756D02*
D03*
X135827D02*
D03*
X144882D02*
D03*
X117717D02*
D03*
X126772D02*
D03*
X99606D02*
D03*
X108661D02*
D03*
X90551D02*
D03*
X85433Y88583D02*
D03*
Y78347D02*
D03*
X82415Y94955D02*
D03*
X64305D02*
D03*
X73360D02*
D03*
X46195D02*
D03*
X55250D02*
D03*
X28084D02*
D03*
X37139D02*
D03*
X18898Y95276D02*
D03*
X82021Y102829D02*
D03*
X63911D02*
D03*
X72966D02*
D03*
X45801D02*
D03*
X54856D02*
D03*
X27691D02*
D03*
X36746D02*
D03*
X18504Y103150D02*
D03*
X164567Y27953D02*
D03*
X173622D02*
D03*
Y20472D02*
D03*
X164567D02*
D03*
X164173Y6299D02*
D03*
X182283D02*
D03*
X173228D02*
D03*
X200394D02*
D03*
X191339D02*
D03*
Y13780D02*
D03*
X200394D02*
D03*
X173228D02*
D03*
X182283D02*
D03*
X164173D02*
D03*
X188583Y85039D02*
D03*
X181102D02*
D03*
X174409D02*
D03*
X187402Y73228D02*
D03*
X180709D02*
D03*
X167717D02*
D03*
X174409D02*
D03*
X182677Y57087D02*
D03*
X194882Y56693D02*
D03*
X209842Y57087D02*
D03*
X211417Y73622D02*
D03*
X211811Y84252D02*
D03*
X210630Y92126D02*
D03*
X210236Y64173D02*
D03*
X192126D02*
D03*
X201181D02*
D03*
X183071D02*
D03*
X182283Y92913D02*
D03*
X173228D02*
D03*
X200394D02*
D03*
X191339D02*
D03*
X190945Y100787D02*
D03*
X200000D02*
D03*
X172835D02*
D03*
X181890D02*
D03*
X163779D02*
D03*
X-7087Y17717D02*
D03*
X-6766Y26903D02*
D03*
X715D02*
D03*
X394Y17717D02*
D03*
X-6693Y83071D02*
D03*
X-6372Y92258D02*
D03*
X1108D02*
D03*
X787Y83071D02*
D03*
X23687Y-860D02*
D03*
X41929Y-1181D02*
D03*
X32874D02*
D03*
X60039D02*
D03*
X50984D02*
D03*
X78150D02*
D03*
X69095D02*
D03*
X96260D02*
D03*
X87205D02*
D03*
X114370D02*
D03*
X105315D02*
D03*
X132480D02*
D03*
X123425D02*
D03*
X150591D02*
D03*
X141535D02*
D03*
X168701D02*
D03*
X159646D02*
D03*
X186811D02*
D03*
X177756D02*
D03*
X195866D02*
D03*
X191663Y-8670D02*
D03*
X200718D02*
D03*
X173553D02*
D03*
X182608D02*
D03*
X155443D02*
D03*
X164498D02*
D03*
X137332D02*
D03*
X146387D02*
D03*
X119222D02*
D03*
X128277D02*
D03*
X101112D02*
D03*
X110167D02*
D03*
X83002D02*
D03*
X92057D02*
D03*
X64891D02*
D03*
X73946D02*
D03*
X46781D02*
D03*
X55836D02*
D03*
X28671D02*
D03*
X37726D02*
D03*
X19484Y-8349D02*
D03*
X218898Y24114D02*
D03*
Y42224D02*
D03*
Y33169D02*
D03*
Y60335D02*
D03*
Y51279D02*
D03*
Y78445D02*
D03*
Y69390D02*
D03*
Y87500D02*
D03*
X226378Y91732D02*
D03*
Y73622D02*
D03*
Y82677D02*
D03*
Y55512D02*
D03*
Y64567D02*
D03*
Y37402D02*
D03*
Y46457D02*
D03*
Y19291D02*
D03*
Y28346D02*
D03*
X18504Y110630D02*
D03*
X36746Y110309D02*
D03*
X27691D02*
D03*
X54856D02*
D03*
X45801D02*
D03*
X72966D02*
D03*
X63911D02*
D03*
X91076D02*
D03*
X82021D02*
D03*
X109187D02*
D03*
X100132D02*
D03*
X127297D02*
D03*
X118242D02*
D03*
X145407D02*
D03*
X136352D02*
D03*
X163517D02*
D03*
X154462D02*
D03*
X181628D02*
D03*
X172573D02*
D03*
X199738D02*
D03*
X190683D02*
D03*
X186746Y117789D02*
D03*
X195669Y117815D02*
D03*
X168636Y117789D02*
D03*
X177691D02*
D03*
X150525D02*
D03*
X159580D02*
D03*
X132415D02*
D03*
X141470D02*
D03*
X114305D02*
D03*
X123360D02*
D03*
X96195D02*
D03*
X105250D02*
D03*
X78084D02*
D03*
X87139D02*
D03*
X59974D02*
D03*
X69029D02*
D03*
X41864D02*
D03*
X50919D02*
D03*
X23754D02*
D03*
X32809D02*
D03*
D63*
X218898Y109843D02*
D03*
X0Y109843D02*
D03*
Y0D02*
D03*
X218898D02*
D03*
M02*
