G04*
G04 #@! TF.GenerationSoftware,Altium Limited,Altium Designer,22.3.1 (43)*
G04*
G04 Layer_Color=8421504*
%FSLAX25Y25*%
%MOIN*%
G70*
G04*
G04 #@! TF.SameCoordinates,13010D4F-CA40-4925-A7E6-2A4E1DD476F1*
G04*
G04*
G04 #@! TF.FilePolarity,Positive*
G04*
G01*
G75*
%ADD16R,0.04134X0.03937*%
%ADD17R,0.08661X0.04134*%
%ADD18R,0.05700X0.03000*%
%ADD19R,0.05118X0.04331*%
%ADD20R,0.05118X0.03543*%
%ADD21R,0.03543X0.05118*%
%ADD22R,0.03937X0.03740*%
%ADD23R,0.03740X0.03937*%
%ADD24R,0.03819X0.06811*%
%ADD25R,0.03150X0.05118*%
%ADD26R,0.05118X0.03150*%
%ADD27R,0.03347X0.03347*%
%ADD28R,0.03543X0.03150*%
%ADD29R,0.02756X0.03543*%
D16*
X195571Y78347D02*
D03*
D17*
X201575Y84153D02*
D03*
Y72539D02*
D03*
D18*
X141240Y14206D02*
D03*
Y22605D02*
D03*
D19*
X208760Y36417D02*
D03*
Y27362D02*
D03*
D20*
X79527Y59252D02*
D03*
Y64370D02*
D03*
D21*
X8465Y64173D02*
D03*
X13583D02*
D03*
X69095Y30217D02*
D03*
X74213D02*
D03*
D22*
X71457Y65059D02*
D03*
Y58760D02*
D03*
D23*
X14173Y56693D02*
D03*
X7874D02*
D03*
X75523Y38992D02*
D03*
X69223D02*
D03*
D24*
X80236Y47638D02*
D03*
X68583D02*
D03*
D25*
X186221Y45768D02*
D03*
X193701D02*
D03*
D26*
X150492Y15059D02*
D03*
Y22539D02*
D03*
X201378Y44390D02*
D03*
Y36909D02*
D03*
X117717Y10433D02*
D03*
Y17913D02*
D03*
X187008Y22835D02*
D03*
Y30315D02*
D03*
D27*
X110827Y24016D02*
D03*
X117520D02*
D03*
X186909Y37598D02*
D03*
X193602D02*
D03*
X30709Y72441D02*
D03*
X24016D02*
D03*
D28*
X124262Y18406D02*
D03*
Y10925D02*
D03*
X132234Y14665D02*
D03*
X194144Y30413D02*
D03*
Y22933D02*
D03*
X202116Y26673D02*
D03*
D29*
X8071Y72441D02*
D03*
X17126D02*
D03*
M02*
