G04*
G04 #@! TF.GenerationSoftware,Altium Limited,Altium Designer,22.2.1 (43)*
G04*
G04 Layer_Color=2752767*
%FSLAX25Y25*%
%MOIN*%
G70*
G04*
G04 #@! TF.SameCoordinates,E15721E2-6A2B-4D62-837A-8D353DC3B16A*
G04*
G04*
G04 #@! TF.FilePolarity,Positive*
G04*
G01*
G75*
%ADD11C,0.00394*%
%ADD72C,0.00200*%
%ADD73C,0.00267*%
D11*
X6693Y128747D02*
G03*
X-16936Y105118I-0J-23629D01*
G01*
Y5118D02*
G03*
X6693Y-18510I23629J-0D01*
G01*
X213386D02*
G03*
X237014Y5118I0J23629D01*
G01*
X237008Y105118D02*
G03*
X213379Y128747I-23629J0D01*
G01*
X-16929Y5118D02*
X-16929Y105118D01*
X237008Y5118D02*
X237008Y105118D01*
X6693Y-18504D02*
X213386Y-18504D01*
X6693Y128740D02*
X213379Y128740D01*
D72*
X-4343Y69987D02*
Y71587D01*
X-2743D01*
Y69987D01*
X-4343D01*
Y59987D02*
Y61587D01*
X-2743D01*
Y59987D01*
X-4343D01*
Y49987D02*
Y51587D01*
X-2743D01*
Y49987D01*
X-4343D01*
Y39987D02*
Y41587D01*
X-2743D01*
Y39987D01*
X-4343D01*
X0Y-800D02*
X-800Y800D01*
X800D01*
X0Y-800D01*
Y109043D02*
X-800Y110643D01*
X800D01*
X0Y109043D01*
X218898Y-800D02*
X218098Y800D01*
X219698D01*
X218898Y-800D01*
X218898Y109043D02*
X218098Y110643D01*
X219698D01*
X218898Y109043D01*
X156890Y14357D02*
X157290Y14758D01*
X157690D01*
X157290Y15157D01*
X157690Y15558D01*
X157290D01*
X156890Y15958D01*
X156490Y15558D01*
X156090D01*
X156490Y15157D01*
X156090Y14758D01*
X156490D01*
X156890Y14357D01*
X201341Y48977D02*
X201741Y49377D01*
X202141D01*
X201741Y49777D01*
X202141Y50177D01*
X201741D01*
X201341Y50577D01*
X200941Y50177D01*
X200541D01*
X200941Y49777D01*
X200541Y49377D01*
X200941D01*
X201341Y48977D01*
X34646Y8255D02*
X35046Y8655D01*
X35446D01*
X35046Y9055D01*
X35446Y9455D01*
X35046D01*
X34646Y9855D01*
X34246Y9455D01*
X33846D01*
X34246Y9055D01*
X33846Y8655D01*
X34246D01*
X34646Y8255D01*
X15748Y11011D02*
X16148Y11411D01*
X16548D01*
X16148Y11811D01*
X16548Y12211D01*
X16148D01*
X15748Y12611D01*
X15348Y12211D01*
X14948D01*
X15348Y11811D01*
X14948Y11411D01*
X15348D01*
X15748Y11011D01*
X21260Y63767D02*
X21660Y64167D01*
X22060D01*
X21660Y64567D01*
X22060Y64967D01*
X21660D01*
X21260Y65367D01*
X20860Y64967D01*
X20460D01*
X20860Y64567D01*
X20460Y64167D01*
X20860D01*
X21260Y63767D01*
X6299Y44476D02*
X6699Y44876D01*
X7099D01*
X6699Y45276D01*
X7099Y45676D01*
X6699D01*
X6299Y46076D01*
X5899Y45676D01*
X5499D01*
X5899Y45276D01*
X5499Y44876D01*
X5899D01*
X6299Y44476D01*
X9843Y90932D02*
X10243Y91332D01*
X10643D01*
X10243Y91732D01*
X10643Y92132D01*
X10243D01*
X9843Y92532D01*
X9443Y92132D01*
X9042D01*
X9443Y91732D01*
X9042Y91332D01*
X9443D01*
X9843Y90932D01*
X11024Y81484D02*
X11424Y81884D01*
X11824D01*
X11424Y82284D01*
X11824Y82683D01*
X11424D01*
X11024Y83083D01*
X10624Y82683D01*
X10224D01*
X10624Y82284D01*
X10224Y81884D01*
X10624D01*
X11024Y81484D01*
X25984Y83846D02*
X26384Y84246D01*
X26784D01*
X26384Y84646D01*
X26784Y85046D01*
X26384D01*
X25984Y85446D01*
X25584Y85046D01*
X25184D01*
X25584Y84646D01*
X25184Y84246D01*
X25584D01*
X25984Y83846D01*
X40945Y84239D02*
X41345Y84639D01*
X41745D01*
X41345Y85039D01*
X41745Y85439D01*
X41345D01*
X40945Y85839D01*
X40545Y85439D01*
X40145D01*
X40545Y85039D01*
X40145Y84639D01*
X40545D01*
X40945Y84239D01*
X68898Y83058D02*
X69298Y83458D01*
X69698D01*
X69298Y83858D01*
X69698Y84258D01*
X69298D01*
X68898Y84658D01*
X68498Y84258D01*
X68098D01*
X68498Y83858D01*
X68098Y83458D01*
X68498D01*
X68898Y83058D01*
X44882Y72822D02*
X45282Y73222D01*
X45682D01*
X45282Y73622D01*
X45682Y74022D01*
X45282D01*
X44882Y74422D01*
X44482Y74022D01*
X44082D01*
X44482Y73622D01*
X44082Y73222D01*
X44482D01*
X44882Y72822D01*
X58661Y63373D02*
X59061Y63773D01*
X59461D01*
X59061Y64173D01*
X59461Y64573D01*
X59061D01*
X58661Y64973D01*
X58261Y64573D01*
X57861D01*
X58261Y64173D01*
X57861Y63773D01*
X58261D01*
X58661Y63373D01*
X48819Y40539D02*
X49219Y40939D01*
X49619D01*
X49219Y41339D01*
X49619Y41739D01*
X49219D01*
X48819Y42139D01*
X48419Y41739D01*
X48019D01*
X48419Y41339D01*
X48019Y40939D01*
X48419D01*
X48819Y40539D01*
X52756Y21247D02*
X53156Y21647D01*
X53556D01*
X53156Y22047D01*
X53556Y22447D01*
X53156D01*
X52756Y22847D01*
X52356Y22447D01*
X51956D01*
X52356Y22047D01*
X51956Y21647D01*
X52356D01*
X52756Y21247D01*
X15748Y36995D02*
X16148Y37395D01*
X16548D01*
X16148Y37795D01*
X16548Y38195D01*
X16148D01*
X15748Y38595D01*
X15348Y38195D01*
X14948D01*
X15348Y37795D01*
X14948Y37395D01*
X15348D01*
X15748Y36995D01*
X16535Y23609D02*
X16935Y24010D01*
X17335D01*
X16935Y24409D01*
X17335Y24810D01*
X16935D01*
X16535Y25210D01*
X16135Y24810D01*
X15735D01*
X16135Y24409D01*
X15735Y24010D01*
X16135D01*
X16535Y23609D01*
X210236Y46838D02*
X210636Y47238D01*
X211036D01*
X210636Y47638D01*
X211036Y48038D01*
X210636D01*
X210236Y48438D01*
X209836Y48038D01*
X209436D01*
X209836Y47638D01*
X209436Y47238D01*
X209836D01*
X210236Y46838D01*
X212598Y19279D02*
X212998Y19679D01*
X213398D01*
X212998Y20079D01*
X213398Y20479D01*
X212998D01*
X212598Y20879D01*
X212198Y20479D01*
X211798D01*
X212198Y20079D01*
X211798Y19679D01*
X212198D01*
X212598Y19279D01*
X207087Y16129D02*
X207487Y16529D01*
X207887D01*
X207487Y16929D01*
X207887Y17329D01*
X207487D01*
X207087Y17729D01*
X206687Y17329D01*
X206287D01*
X206687Y16929D01*
X206287Y16529D01*
X206687D01*
X207087Y16129D01*
X174803Y34633D02*
X175203Y35033D01*
X175603D01*
X175203Y35433D01*
X175603Y35833D01*
X175203D01*
X174803Y36233D01*
X174403Y35833D01*
X174003D01*
X174403Y35433D01*
X174003Y35033D01*
X174403D01*
X174803Y34633D01*
X178347Y44476D02*
X178746Y44876D01*
X179147D01*
X178746Y45276D01*
X179147Y45676D01*
X178746D01*
X178347Y46076D01*
X177946Y45676D01*
X177547D01*
X177946Y45276D01*
X177547Y44876D01*
X177946D01*
X178347Y44476D01*
X165748Y92901D02*
X166148Y93301D01*
X166548D01*
X166148Y93701D01*
X166548Y94101D01*
X166148D01*
X165748Y94501D01*
X165348Y94101D01*
X164948D01*
X165348Y93701D01*
X164948Y93301D01*
X165348D01*
X165748Y92901D01*
X166535Y83058D02*
X166935Y83458D01*
X167335D01*
X166935Y83858D01*
X167335Y84258D01*
X166935D01*
X166535Y84658D01*
X166135Y84258D01*
X165735D01*
X166135Y83858D01*
X165735Y83458D01*
X166135D01*
X166535Y83058D01*
X172047Y64554D02*
X172447Y64954D01*
X172847D01*
X172447Y65354D01*
X172847Y65754D01*
X172447D01*
X172047Y66154D01*
X171647Y65754D01*
X171247D01*
X171647Y65354D01*
X171247Y64954D01*
X171647D01*
X172047Y64554D01*
X167323Y53924D02*
X167723Y54324D01*
X168123D01*
X167723Y54724D01*
X168123Y55124D01*
X167723D01*
X167323Y55524D01*
X166923Y55124D01*
X166523D01*
X166923Y54724D01*
X166523Y54324D01*
X166923D01*
X167323Y53924D01*
X168504Y39751D02*
X168904Y40151D01*
X169304D01*
X168904Y40551D01*
X169304Y40951D01*
X168904D01*
X168504Y41351D01*
X168104Y40951D01*
X167704D01*
X168104Y40551D01*
X167704Y40151D01*
X168104D01*
X168504Y39751D01*
X97244Y25184D02*
X97644Y25584D01*
X98044D01*
X97644Y25984D01*
X98044Y26384D01*
X97644D01*
X97244Y26784D01*
X96844Y26384D01*
X96444D01*
X96844Y25984D01*
X96444Y25584D01*
X96844D01*
X97244Y25184D01*
X88189Y51956D02*
X88589Y52356D01*
X88989D01*
X88589Y52756D01*
X88989Y53156D01*
X88589D01*
X88189Y53556D01*
X87789Y53156D01*
X87389D01*
X87789Y52756D01*
X87389Y52356D01*
X87789D01*
X88189Y51956D01*
Y63373D02*
X88589Y63773D01*
X88989D01*
X88589Y64173D01*
X88989Y64573D01*
X88589D01*
X88189Y64973D01*
X87789Y64573D01*
X87389D01*
X87789Y64173D01*
X87389Y63773D01*
X87789D01*
X88189Y63373D01*
X88976Y71641D02*
X89376Y72041D01*
X89776D01*
X89376Y72441D01*
X89776Y72841D01*
X89376D01*
X88976Y73241D01*
X88576Y72841D01*
X88176D01*
X88576Y72441D01*
X88176Y72041D01*
X88576D01*
X88976Y71641D01*
X89764Y81877D02*
X90164Y82277D01*
X90564D01*
X90164Y82677D01*
X90564Y83077D01*
X90164D01*
X89764Y83477D01*
X89364Y83077D01*
X88964D01*
X89364Y82677D01*
X88964Y82277D01*
X89364D01*
X89764Y81877D01*
X153937Y29121D02*
X154337Y29521D01*
X154737D01*
X154337Y29921D01*
X154737Y30321D01*
X154337D01*
X153937Y30721D01*
X153537Y30321D01*
X153137D01*
X153537Y29921D01*
X153137Y29521D01*
X153537D01*
X153937Y29121D01*
X135827D02*
X136227Y29521D01*
X136627D01*
X136227Y29921D01*
X136627Y30321D01*
X136227D01*
X135827Y30721D01*
X135427Y30321D01*
X135027D01*
X135427Y29921D01*
X135027Y29521D01*
X135427D01*
X135827Y29121D01*
X144882D02*
X145282Y29521D01*
X145682D01*
X145282Y29921D01*
X145682Y30321D01*
X145282D01*
X144882Y30721D01*
X144482Y30321D01*
X144082D01*
X144482Y29921D01*
X144082Y29521D01*
X144482D01*
X144882Y29121D01*
X117717D02*
X118116Y29521D01*
X118517D01*
X118116Y29921D01*
X118517Y30321D01*
X118116D01*
X117717Y30721D01*
X117316Y30321D01*
X116917D01*
X117316Y29921D01*
X116917Y29521D01*
X117316D01*
X117717Y29121D01*
X126772D02*
X127172Y29521D01*
X127572D01*
X127172Y29921D01*
X127572Y30321D01*
X127172D01*
X126772Y30721D01*
X126372Y30321D01*
X125972D01*
X126372Y29921D01*
X125972Y29521D01*
X126372D01*
X126772Y29121D01*
X108661D02*
X109061Y29521D01*
X109461D01*
X109061Y29921D01*
X109461Y30321D01*
X109061D01*
X108661Y30721D01*
X108261Y30321D01*
X107861D01*
X108261Y29921D01*
X107861Y29521D01*
X108261D01*
X108661Y29121D01*
X127559Y45263D02*
X127959Y45663D01*
X128359D01*
X127959Y46063D01*
X128359Y46463D01*
X127959D01*
X127559Y46863D01*
X127159Y46463D01*
X126759D01*
X127159Y46063D01*
X126759Y45663D01*
X127159D01*
X127559Y45263D01*
Y36208D02*
X127959Y36608D01*
X128359D01*
X127959Y37008D01*
X128359Y37408D01*
X127959D01*
X127559Y37808D01*
X127159Y37408D01*
X126759D01*
X127159Y37008D01*
X126759Y36608D01*
X127159D01*
X127559Y36208D01*
Y63373D02*
X127959Y63773D01*
X128359D01*
X127959Y64173D01*
X128359Y64573D01*
X127959D01*
X127559Y64973D01*
X127159Y64573D01*
X126759D01*
X127159Y64173D01*
X126759Y63773D01*
X127159D01*
X127559Y63373D01*
Y54318D02*
X127959Y54718D01*
X128359D01*
X127959Y55118D01*
X128359Y55518D01*
X127959D01*
X127559Y55918D01*
X127159Y55518D01*
X126759D01*
X127159Y55118D01*
X126759Y54718D01*
X127159D01*
X127559Y54318D01*
Y81484D02*
X127959Y81884D01*
X128359D01*
X127959Y82284D01*
X128359Y82683D01*
X127959D01*
X127559Y83083D01*
X127159Y82683D01*
X126759D01*
X127159Y82284D01*
X126759Y81884D01*
X127159D01*
X127559Y81484D01*
Y72428D02*
X127959Y72828D01*
X128359D01*
X127959Y73228D01*
X128359Y73628D01*
X127959D01*
X127559Y74028D01*
X127159Y73628D01*
X126759D01*
X127159Y73228D01*
X126759Y72828D01*
X127159D01*
X127559Y72428D01*
Y90539D02*
X127959Y90939D01*
X128359D01*
X127959Y91339D01*
X128359Y91739D01*
X127959D01*
X127559Y92139D01*
X127159Y91739D01*
X126759D01*
X127159Y91339D01*
X126759Y90939D01*
X127159D01*
X127559Y90539D01*
X145276Y45263D02*
X145676Y45663D01*
X146076D01*
X145676Y46063D01*
X146076Y46463D01*
X145676D01*
X145276Y46863D01*
X144876Y46463D01*
X144476D01*
X144876Y46063D01*
X144476Y45663D01*
X144876D01*
X145276Y45263D01*
Y36208D02*
X145676Y36608D01*
X146076D01*
X145676Y37008D01*
X146076Y37408D01*
X145676D01*
X145276Y37808D01*
X144876Y37408D01*
X144476D01*
X144876Y37008D01*
X144476Y36608D01*
X144876D01*
X145276Y36208D01*
Y63373D02*
X145676Y63773D01*
X146076D01*
X145676Y64173D01*
X146076Y64573D01*
X145676D01*
X145276Y64973D01*
X144876Y64573D01*
X144476D01*
X144876Y64173D01*
X144476Y63773D01*
X144876D01*
X145276Y63373D01*
Y54318D02*
X145676Y54718D01*
X146076D01*
X145676Y55118D01*
X146076Y55518D01*
X145676D01*
X145276Y55918D01*
X144876Y55518D01*
X144476D01*
X144876Y55118D01*
X144476Y54718D01*
X144876D01*
X145276Y54318D01*
Y81484D02*
X145676Y81884D01*
X146076D01*
X145676Y82284D01*
X146076Y82683D01*
X145676D01*
X145276Y83083D01*
X144876Y82683D01*
X144476D01*
X144876Y82284D01*
X144476Y81884D01*
X144876D01*
X145276Y81484D01*
Y72428D02*
X145676Y72828D01*
X146076D01*
X145676Y73228D01*
X146076Y73628D01*
X145676D01*
X145276Y74028D01*
X144876Y73628D01*
X144476D01*
X144876Y73228D01*
X144476Y72828D01*
X144876D01*
X145276Y72428D01*
Y90539D02*
X145676Y90939D01*
X146076D01*
X145676Y91339D01*
X146076Y91739D01*
X145676D01*
X145276Y92139D01*
X144876Y91739D01*
X144476D01*
X144876Y91339D01*
X144476Y90939D01*
X144876D01*
X145276Y90539D01*
X108661Y45263D02*
X109061Y45663D01*
X109461D01*
X109061Y46063D01*
X109461Y46463D01*
X109061D01*
X108661Y46863D01*
X108261Y46463D01*
X107861D01*
X108261Y46063D01*
X107861Y45663D01*
X108261D01*
X108661Y45263D01*
Y36208D02*
X109061Y36608D01*
X109461D01*
X109061Y37008D01*
X109461Y37408D01*
X109061D01*
X108661Y37808D01*
X108261Y37408D01*
X107861D01*
X108261Y37008D01*
X107861Y36608D01*
X108261D01*
X108661Y36208D01*
Y63373D02*
X109061Y63773D01*
X109461D01*
X109061Y64173D01*
X109461Y64573D01*
X109061D01*
X108661Y64973D01*
X108261Y64573D01*
X107861D01*
X108261Y64173D01*
X107861Y63773D01*
X108261D01*
X108661Y63373D01*
Y54318D02*
X109061Y54718D01*
X109461D01*
X109061Y55118D01*
X109461Y55518D01*
X109061D01*
X108661Y55918D01*
X108261Y55518D01*
X107861D01*
X108261Y55118D01*
X107861Y54718D01*
X108261D01*
X108661Y54318D01*
Y81484D02*
X109061Y81884D01*
X109461D01*
X109061Y82284D01*
X109461Y82683D01*
X109061D01*
X108661Y83083D01*
X108261Y82683D01*
X107861D01*
X108261Y82284D01*
X107861Y81884D01*
X108261D01*
X108661Y81484D01*
Y72428D02*
X109061Y72828D01*
X109461D01*
X109061Y73228D01*
X109461Y73628D01*
X109061D01*
X108661Y74028D01*
X108261Y73628D01*
X107861D01*
X108261Y73228D01*
X107861Y72828D01*
X108261D01*
X108661Y72428D01*
Y90539D02*
X109061Y90939D01*
X109461D01*
X109061Y91339D01*
X109461Y91739D01*
X109061D01*
X108661Y92139D01*
X108261Y91739D01*
X107861D01*
X108261Y91339D01*
X107861Y90939D01*
X108261D01*
X108661Y90539D01*
X87795Y31090D02*
X88195Y31490D01*
X88595D01*
X88195Y31890D01*
X88595Y32290D01*
X88195D01*
X87795Y32690D01*
X87395Y32290D01*
X86995D01*
X87395Y31890D01*
X86995Y31490D01*
X87395D01*
X87795Y31090D01*
Y40145D02*
X88195Y40545D01*
X88595D01*
X88195Y40945D01*
X88595Y41345D01*
X88195D01*
X87795Y41745D01*
X87395Y41345D01*
X86995D01*
X87395Y40945D01*
X86995Y40545D01*
X87395D01*
X87795Y40145D01*
Y22035D02*
X88195Y22435D01*
X88595D01*
X88195Y22835D01*
X88595Y23235D01*
X88195D01*
X87795Y23635D01*
X87395Y23235D01*
X86995D01*
X87395Y22835D01*
X86995Y22435D01*
X87395D01*
X87795Y22035D01*
X91732Y13767D02*
X92132Y14167D01*
X92532D01*
X92132Y14567D01*
X92532Y14967D01*
X92132D01*
X91732Y15367D01*
X91332Y14967D01*
X90932D01*
X91332Y14567D01*
X90932Y14167D01*
X91332D01*
X91732Y13767D01*
X82677D02*
X83077Y14167D01*
X83477D01*
X83077Y14567D01*
X83477Y14967D01*
X83077D01*
X82677Y15367D01*
X82277Y14967D01*
X81877D01*
X82277Y14567D01*
X81877Y14167D01*
X82277D01*
X82677Y13767D01*
X109843D02*
X110242Y14167D01*
X110643D01*
X110242Y14567D01*
X110643Y14967D01*
X110242D01*
X109843Y15367D01*
X109442Y14967D01*
X109043D01*
X109442Y14567D01*
X109043Y14167D01*
X109442D01*
X109843Y13767D01*
X100787D02*
X101187Y14167D01*
X101587D01*
X101187Y14567D01*
X101587Y14967D01*
X101187D01*
X100787Y15367D01*
X100387Y14967D01*
X99987D01*
X100387Y14567D01*
X99987Y14167D01*
X100387D01*
X100787Y13767D01*
Y5893D02*
X101187Y6293D01*
X101587D01*
X101187Y6693D01*
X101587Y7093D01*
X101187D01*
X100787Y7493D01*
X100387Y7093D01*
X99987D01*
X100387Y6693D01*
X99987Y6293D01*
X100387D01*
X100787Y5893D01*
X109843D02*
X110242Y6293D01*
X110643D01*
X110242Y6693D01*
X110643Y7093D01*
X110242D01*
X109843Y7493D01*
X109442Y7093D01*
X109043D01*
X109442Y6693D01*
X109043Y6293D01*
X109442D01*
X109843Y5893D01*
X82677D02*
X83077Y6293D01*
X83477D01*
X83077Y6693D01*
X83477Y7093D01*
X83077D01*
X82677Y7493D01*
X82277Y7093D01*
X81877D01*
X82277Y6693D01*
X81877Y6293D01*
X82277D01*
X82677Y5893D01*
X91732D02*
X92132Y6293D01*
X92532D01*
X92132Y6693D01*
X92532Y7093D01*
X92132D01*
X91732Y7493D01*
X91332Y7093D01*
X90932D01*
X91332Y6693D01*
X90932Y6293D01*
X91332D01*
X91732Y5893D01*
X64567D02*
X64967Y6293D01*
X65367D01*
X64967Y6693D01*
X65367Y7093D01*
X64967D01*
X64567Y7493D01*
X64167Y7093D01*
X63767D01*
X64167Y6693D01*
X63767Y6293D01*
X64167D01*
X64567Y5893D01*
X73622D02*
X74022Y6293D01*
X74422D01*
X74022Y6693D01*
X74422Y7093D01*
X74022D01*
X73622Y7493D01*
X73222Y7093D01*
X72822D01*
X73222Y6693D01*
X72822Y6293D01*
X73222D01*
X73622Y5893D01*
X153937Y101956D02*
X154337Y102356D01*
X154737D01*
X154337Y102756D01*
X154737Y103156D01*
X154337D01*
X153937Y103556D01*
X153537Y103156D01*
X153137D01*
X153537Y102756D01*
X153137Y102356D01*
X153537D01*
X153937Y101956D01*
X135827D02*
X136227Y102356D01*
X136627D01*
X136227Y102756D01*
X136627Y103156D01*
X136227D01*
X135827Y103556D01*
X135427Y103156D01*
X135027D01*
X135427Y102756D01*
X135027Y102356D01*
X135427D01*
X135827Y101956D01*
X144882D02*
X145282Y102356D01*
X145682D01*
X145282Y102756D01*
X145682Y103156D01*
X145282D01*
X144882Y103556D01*
X144482Y103156D01*
X144082D01*
X144482Y102756D01*
X144082Y102356D01*
X144482D01*
X144882Y101956D01*
X117717D02*
X118116Y102356D01*
X118517D01*
X118116Y102756D01*
X118517Y103156D01*
X118116D01*
X117717Y103556D01*
X117316Y103156D01*
X116917D01*
X117316Y102756D01*
X116917Y102356D01*
X117316D01*
X117717Y101956D01*
X126772D02*
X127172Y102356D01*
X127572D01*
X127172Y102756D01*
X127572Y103156D01*
X127172D01*
X126772Y103556D01*
X126372Y103156D01*
X125972D01*
X126372Y102756D01*
X125972Y102356D01*
X126372D01*
X126772Y101956D01*
X99606D02*
X100006Y102356D01*
X100406D01*
X100006Y102756D01*
X100406Y103156D01*
X100006D01*
X99606Y103556D01*
X99206Y103156D01*
X98806D01*
X99206Y102756D01*
X98806Y102356D01*
X99206D01*
X99606Y101956D01*
X108661D02*
X109061Y102356D01*
X109461D01*
X109061Y102756D01*
X109461Y103156D01*
X109061D01*
X108661Y103556D01*
X108261Y103156D01*
X107861D01*
X108261Y102756D01*
X107861Y102356D01*
X108261D01*
X108661Y101956D01*
X90551D02*
X90951Y102356D01*
X91351D01*
X90951Y102756D01*
X91351Y103156D01*
X90951D01*
X90551Y103556D01*
X90151Y103156D01*
X89751D01*
X90151Y102756D01*
X89751Y102356D01*
X90151D01*
X90551Y101956D01*
X85433Y87783D02*
X85833Y88183D01*
X86233D01*
X85833Y88583D01*
X86233Y88983D01*
X85833D01*
X85433Y89383D01*
X85033Y88983D01*
X84633D01*
X85033Y88583D01*
X84633Y88183D01*
X85033D01*
X85433Y87783D01*
Y77547D02*
X85833Y77947D01*
X86233D01*
X85833Y78347D01*
X86233Y78746D01*
X85833D01*
X85433Y79146D01*
X85033Y78746D01*
X84633D01*
X85033Y78347D01*
X84633Y77947D01*
X85033D01*
X85433Y77547D01*
X82415Y94155D02*
X82815Y94555D01*
X83215D01*
X82815Y94955D01*
X83215Y95355D01*
X82815D01*
X82415Y95755D01*
X82015Y95355D01*
X81615D01*
X82015Y94955D01*
X81615Y94555D01*
X82015D01*
X82415Y94155D01*
X64305D02*
X64705Y94555D01*
X65105D01*
X64705Y94955D01*
X65105Y95355D01*
X64705D01*
X64305Y95755D01*
X63905Y95355D01*
X63505D01*
X63905Y94955D01*
X63505Y94555D01*
X63905D01*
X64305Y94155D01*
X73360D02*
X73760Y94555D01*
X74160D01*
X73760Y94955D01*
X74160Y95355D01*
X73760D01*
X73360Y95755D01*
X72960Y95355D01*
X72560D01*
X72960Y94955D01*
X72560Y94555D01*
X72960D01*
X73360Y94155D01*
X46195D02*
X46595Y94555D01*
X46995D01*
X46595Y94955D01*
X46995Y95355D01*
X46595D01*
X46195Y95755D01*
X45795Y95355D01*
X45395D01*
X45795Y94955D01*
X45395Y94555D01*
X45795D01*
X46195Y94155D01*
X55250D02*
X55650Y94555D01*
X56050D01*
X55650Y94955D01*
X56050Y95355D01*
X55650D01*
X55250Y95755D01*
X54850Y95355D01*
X54450D01*
X54850Y94955D01*
X54450Y94555D01*
X54850D01*
X55250Y94155D01*
X28084D02*
X28484Y94555D01*
X28884D01*
X28484Y94955D01*
X28884Y95355D01*
X28484D01*
X28084Y95755D01*
X27684Y95355D01*
X27284D01*
X27684Y94955D01*
X27284Y94555D01*
X27684D01*
X28084Y94155D01*
X37139D02*
X37539Y94555D01*
X37940D01*
X37539Y94955D01*
X37940Y95355D01*
X37539D01*
X37139Y95755D01*
X36740Y95355D01*
X36340D01*
X36740Y94955D01*
X36340Y94555D01*
X36740D01*
X37139Y94155D01*
X18898Y94476D02*
X19298Y94876D01*
X19698D01*
X19298Y95276D01*
X19698Y95676D01*
X19298D01*
X18898Y96076D01*
X18498Y95676D01*
X18098D01*
X18498Y95276D01*
X18098Y94876D01*
X18498D01*
X18898Y94476D01*
X82021Y102029D02*
X82421Y102429D01*
X82821D01*
X82421Y102829D01*
X82821Y103229D01*
X82421D01*
X82021Y103629D01*
X81621Y103229D01*
X81221D01*
X81621Y102829D01*
X81221Y102429D01*
X81621D01*
X82021Y102029D01*
X63911D02*
X64311Y102429D01*
X64711D01*
X64311Y102829D01*
X64711Y103229D01*
X64311D01*
X63911Y103629D01*
X63511Y103229D01*
X63111D01*
X63511Y102829D01*
X63111Y102429D01*
X63511D01*
X63911Y102029D01*
X72966D02*
X73366Y102429D01*
X73766D01*
X73366Y102829D01*
X73766Y103229D01*
X73366D01*
X72966Y103629D01*
X72566Y103229D01*
X72166D01*
X72566Y102829D01*
X72166Y102429D01*
X72566D01*
X72966Y102029D01*
X45801D02*
X46201Y102429D01*
X46601D01*
X46201Y102829D01*
X46601Y103229D01*
X46201D01*
X45801Y103629D01*
X45401Y103229D01*
X45001D01*
X45401Y102829D01*
X45001Y102429D01*
X45401D01*
X45801Y102029D01*
X54856D02*
X55256Y102429D01*
X55656D01*
X55256Y102829D01*
X55656Y103229D01*
X55256D01*
X54856Y103629D01*
X54456Y103229D01*
X54056D01*
X54456Y102829D01*
X54056Y102429D01*
X54456D01*
X54856Y102029D01*
X27691D02*
X28091Y102429D01*
X28491D01*
X28091Y102829D01*
X28491Y103229D01*
X28091D01*
X27691Y103629D01*
X27291Y103229D01*
X26891D01*
X27291Y102829D01*
X26891Y102429D01*
X27291D01*
X27691Y102029D01*
X36746D02*
X37146Y102429D01*
X37546D01*
X37146Y102829D01*
X37546Y103229D01*
X37146D01*
X36746Y103629D01*
X36346Y103229D01*
X35946D01*
X36346Y102829D01*
X35946Y102429D01*
X36346D01*
X36746Y102029D01*
X18504Y102350D02*
X18904Y102750D01*
X19304D01*
X18904Y103150D01*
X19304Y103550D01*
X18904D01*
X18504Y103950D01*
X18104Y103550D01*
X17704D01*
X18104Y103150D01*
X17704Y102750D01*
X18104D01*
X18504Y102350D01*
X164567Y27153D02*
X164967Y27553D01*
X165367D01*
X164967Y27953D01*
X165367Y28353D01*
X164967D01*
X164567Y28753D01*
X164167Y28353D01*
X163767D01*
X164167Y27953D01*
X163767Y27553D01*
X164167D01*
X164567Y27153D01*
X173622D02*
X174022Y27553D01*
X174422D01*
X174022Y27953D01*
X174422Y28353D01*
X174022D01*
X173622Y28753D01*
X173222Y28353D01*
X172822D01*
X173222Y27953D01*
X172822Y27553D01*
X173222D01*
X173622Y27153D01*
Y19672D02*
X174022Y20072D01*
X174422D01*
X174022Y20472D01*
X174422Y20872D01*
X174022D01*
X173622Y21272D01*
X173222Y20872D01*
X172822D01*
X173222Y20472D01*
X172822Y20072D01*
X173222D01*
X173622Y19672D01*
X164567D02*
X164967Y20072D01*
X165367D01*
X164967Y20472D01*
X165367Y20872D01*
X164967D01*
X164567Y21272D01*
X164167Y20872D01*
X163767D01*
X164167Y20472D01*
X163767Y20072D01*
X164167D01*
X164567Y19672D01*
X164173Y5499D02*
X164573Y5899D01*
X164973D01*
X164573Y6299D01*
X164973Y6699D01*
X164573D01*
X164173Y7099D01*
X163773Y6699D01*
X163373D01*
X163773Y6299D01*
X163373Y5899D01*
X163773D01*
X164173Y5499D01*
X182283D02*
X182684Y5899D01*
X183083D01*
X182684Y6299D01*
X183083Y6699D01*
X182684D01*
X182283Y7099D01*
X181884Y6699D01*
X181483D01*
X181884Y6299D01*
X181483Y5899D01*
X181884D01*
X182283Y5499D01*
X173228D02*
X173628Y5899D01*
X174028D01*
X173628Y6299D01*
X174028Y6699D01*
X173628D01*
X173228Y7099D01*
X172828Y6699D01*
X172428D01*
X172828Y6299D01*
X172428Y5899D01*
X172828D01*
X173228Y5499D01*
X200394D02*
X200794Y5899D01*
X201194D01*
X200794Y6299D01*
X201194Y6699D01*
X200794D01*
X200394Y7099D01*
X199994Y6699D01*
X199594D01*
X199994Y6299D01*
X199594Y5899D01*
X199994D01*
X200394Y5499D01*
X191339D02*
X191739Y5899D01*
X192139D01*
X191739Y6299D01*
X192139Y6699D01*
X191739D01*
X191339Y7099D01*
X190939Y6699D01*
X190539D01*
X190939Y6299D01*
X190539Y5899D01*
X190939D01*
X191339Y5499D01*
Y12979D02*
X191739Y13379D01*
X192139D01*
X191739Y13780D01*
X192139Y14179D01*
X191739D01*
X191339Y14580D01*
X190939Y14179D01*
X190539D01*
X190939Y13780D01*
X190539Y13379D01*
X190939D01*
X191339Y12979D01*
X200394D02*
X200794Y13379D01*
X201194D01*
X200794Y13780D01*
X201194Y14179D01*
X200794D01*
X200394Y14580D01*
X199994Y14179D01*
X199594D01*
X199994Y13780D01*
X199594Y13379D01*
X199994D01*
X200394Y12979D01*
X173228D02*
X173628Y13379D01*
X174028D01*
X173628Y13780D01*
X174028Y14179D01*
X173628D01*
X173228Y14580D01*
X172828Y14179D01*
X172428D01*
X172828Y13780D01*
X172428Y13379D01*
X172828D01*
X173228Y12979D01*
X182283D02*
X182684Y13379D01*
X183083D01*
X182684Y13780D01*
X183083Y14179D01*
X182684D01*
X182283Y14580D01*
X181884Y14179D01*
X181483D01*
X181884Y13780D01*
X181483Y13379D01*
X181884D01*
X182283Y12979D01*
X164173D02*
X164573Y13379D01*
X164973D01*
X164573Y13780D01*
X164973Y14179D01*
X164573D01*
X164173Y14580D01*
X163773Y14179D01*
X163373D01*
X163773Y13780D01*
X163373Y13379D01*
X163773D01*
X164173Y12979D01*
X188583Y84239D02*
X188983Y84639D01*
X189383D01*
X188983Y85039D01*
X189383Y85439D01*
X188983D01*
X188583Y85839D01*
X188183Y85439D01*
X187783D01*
X188183Y85039D01*
X187783Y84639D01*
X188183D01*
X188583Y84239D01*
X181102D02*
X181502Y84639D01*
X181902D01*
X181502Y85039D01*
X181902Y85439D01*
X181502D01*
X181102Y85839D01*
X180702Y85439D01*
X180302D01*
X180702Y85039D01*
X180302Y84639D01*
X180702D01*
X181102Y84239D01*
X174409D02*
X174809Y84639D01*
X175209D01*
X174809Y85039D01*
X175209Y85439D01*
X174809D01*
X174409Y85839D01*
X174009Y85439D01*
X173609D01*
X174009Y85039D01*
X173609Y84639D01*
X174009D01*
X174409Y84239D01*
X187402Y72428D02*
X187802Y72828D01*
X188202D01*
X187802Y73228D01*
X188202Y73628D01*
X187802D01*
X187402Y74028D01*
X187002Y73628D01*
X186602D01*
X187002Y73228D01*
X186602Y72828D01*
X187002D01*
X187402Y72428D01*
X180709D02*
X181109Y72828D01*
X181509D01*
X181109Y73228D01*
X181509Y73628D01*
X181109D01*
X180709Y74028D01*
X180309Y73628D01*
X179909D01*
X180309Y73228D01*
X179909Y72828D01*
X180309D01*
X180709Y72428D01*
X167717D02*
X168116Y72828D01*
X168517D01*
X168116Y73228D01*
X168517Y73628D01*
X168116D01*
X167717Y74028D01*
X167316Y73628D01*
X166917D01*
X167316Y73228D01*
X166917Y72828D01*
X167316D01*
X167717Y72428D01*
X174409D02*
X174809Y72828D01*
X175209D01*
X174809Y73228D01*
X175209Y73628D01*
X174809D01*
X174409Y74028D01*
X174009Y73628D01*
X173609D01*
X174009Y73228D01*
X173609Y72828D01*
X174009D01*
X174409Y72428D01*
X182677Y56287D02*
X183077Y56687D01*
X183477D01*
X183077Y57087D01*
X183477Y57487D01*
X183077D01*
X182677Y57887D01*
X182277Y57487D01*
X181877D01*
X182277Y57087D01*
X181877Y56687D01*
X182277D01*
X182677Y56287D01*
X194882Y55893D02*
X195282Y56293D01*
X195682D01*
X195282Y56693D01*
X195682Y57093D01*
X195282D01*
X194882Y57493D01*
X194482Y57093D01*
X194082D01*
X194482Y56693D01*
X194082Y56293D01*
X194482D01*
X194882Y55893D01*
X209842Y56287D02*
X210243Y56687D01*
X210643D01*
X210243Y57087D01*
X210643Y57487D01*
X210243D01*
X209842Y57887D01*
X209442Y57487D01*
X209043D01*
X209442Y57087D01*
X209043Y56687D01*
X209442D01*
X209842Y56287D01*
X211417Y72822D02*
X211817Y73222D01*
X212217D01*
X211817Y73622D01*
X212217Y74022D01*
X211817D01*
X211417Y74422D01*
X211017Y74022D01*
X210617D01*
X211017Y73622D01*
X210617Y73222D01*
X211017D01*
X211417Y72822D01*
X211811Y83452D02*
X212211Y83852D01*
X212611D01*
X212211Y84252D01*
X212611Y84652D01*
X212211D01*
X211811Y85052D01*
X211411Y84652D01*
X211011D01*
X211411Y84252D01*
X211011Y83852D01*
X211411D01*
X211811Y83452D01*
X210630Y91326D02*
X211030Y91726D01*
X211430D01*
X211030Y92126D01*
X211430Y92526D01*
X211030D01*
X210630Y92926D01*
X210230Y92526D01*
X209830D01*
X210230Y92126D01*
X209830Y91726D01*
X210230D01*
X210630Y91326D01*
X210236Y63373D02*
X210636Y63773D01*
X211036D01*
X210636Y64173D01*
X211036Y64573D01*
X210636D01*
X210236Y64973D01*
X209836Y64573D01*
X209436D01*
X209836Y64173D01*
X209436Y63773D01*
X209836D01*
X210236Y63373D01*
X192126D02*
X192526Y63773D01*
X192926D01*
X192526Y64173D01*
X192926Y64573D01*
X192526D01*
X192126Y64973D01*
X191726Y64573D01*
X191326D01*
X191726Y64173D01*
X191326Y63773D01*
X191726D01*
X192126Y63373D01*
X201181D02*
X201581Y63773D01*
X201981D01*
X201581Y64173D01*
X201981Y64573D01*
X201581D01*
X201181Y64973D01*
X200781Y64573D01*
X200381D01*
X200781Y64173D01*
X200381Y63773D01*
X200781D01*
X201181Y63373D01*
X183071D02*
X183471Y63773D01*
X183871D01*
X183471Y64173D01*
X183871Y64573D01*
X183471D01*
X183071Y64973D01*
X182671Y64573D01*
X182271D01*
X182671Y64173D01*
X182271Y63773D01*
X182671D01*
X183071Y63373D01*
X182283Y92113D02*
X182684Y92513D01*
X183083D01*
X182684Y92913D01*
X183083Y93313D01*
X182684D01*
X182283Y93713D01*
X181884Y93313D01*
X181483D01*
X181884Y92913D01*
X181483Y92513D01*
X181884D01*
X182283Y92113D01*
X173228D02*
X173628Y92513D01*
X174028D01*
X173628Y92913D01*
X174028Y93313D01*
X173628D01*
X173228Y93713D01*
X172828Y93313D01*
X172428D01*
X172828Y92913D01*
X172428Y92513D01*
X172828D01*
X173228Y92113D01*
X200394D02*
X200794Y92513D01*
X201194D01*
X200794Y92913D01*
X201194Y93313D01*
X200794D01*
X200394Y93713D01*
X199994Y93313D01*
X199594D01*
X199994Y92913D01*
X199594Y92513D01*
X199994D01*
X200394Y92113D01*
X191339D02*
X191739Y92513D01*
X192139D01*
X191739Y92913D01*
X192139Y93313D01*
X191739D01*
X191339Y93713D01*
X190939Y93313D01*
X190539D01*
X190939Y92913D01*
X190539Y92513D01*
X190939D01*
X191339Y92113D01*
X190945Y99987D02*
X191345Y100387D01*
X191745D01*
X191345Y100787D01*
X191745Y101187D01*
X191345D01*
X190945Y101587D01*
X190545Y101187D01*
X190145D01*
X190545Y100787D01*
X190145Y100387D01*
X190545D01*
X190945Y99987D01*
X200000D02*
X200400Y100387D01*
X200800D01*
X200400Y100787D01*
X200800Y101187D01*
X200400D01*
X200000Y101587D01*
X199600Y101187D01*
X199200D01*
X199600Y100787D01*
X199200Y100387D01*
X199600D01*
X200000Y99987D01*
X172835D02*
X173235Y100387D01*
X173635D01*
X173235Y100787D01*
X173635Y101187D01*
X173235D01*
X172835Y101587D01*
X172435Y101187D01*
X172035D01*
X172435Y100787D01*
X172035Y100387D01*
X172435D01*
X172835Y99987D01*
X181890D02*
X182290Y100387D01*
X182690D01*
X182290Y100787D01*
X182690Y101187D01*
X182290D01*
X181890Y101587D01*
X181490Y101187D01*
X181090D01*
X181490Y100787D01*
X181090Y100387D01*
X181490D01*
X181890Y99987D01*
X163779D02*
X164180Y100387D01*
X164579D01*
X164180Y100787D01*
X164579Y101187D01*
X164180D01*
X163779Y101587D01*
X163380Y101187D01*
X162979D01*
X163380Y100787D01*
X162979Y100387D01*
X163380D01*
X163779Y99987D01*
X-7087Y16917D02*
X-6687Y17316D01*
X-6287D01*
X-6687Y17717D01*
X-6287Y18116D01*
X-6687D01*
X-7087Y18517D01*
X-7487Y18116D01*
X-7887D01*
X-7487Y17717D01*
X-7887Y17316D01*
X-7487D01*
X-7087Y16917D01*
X-6766Y26103D02*
X-6366Y26503D01*
X-5966D01*
X-6366Y26903D01*
X-5966Y27303D01*
X-6366D01*
X-6766Y27703D01*
X-7166Y27303D01*
X-7566D01*
X-7166Y26903D01*
X-7566Y26503D01*
X-7166D01*
X-6766Y26103D01*
X715D02*
X1115Y26503D01*
X1515D01*
X1115Y26903D01*
X1515Y27303D01*
X1115D01*
X715Y27703D01*
X315Y27303D01*
X-85D01*
X315Y26903D01*
X-85Y26503D01*
X315D01*
X715Y26103D01*
X394Y16917D02*
X794Y17316D01*
X1194D01*
X794Y17717D01*
X1194Y18116D01*
X794D01*
X394Y18517D01*
X-6Y18116D01*
X-406D01*
X-6Y17717D01*
X-406Y17316D01*
X-6D01*
X394Y16917D01*
X-6693Y82271D02*
X-6293Y82671D01*
X-5893D01*
X-6293Y83071D01*
X-5893Y83471D01*
X-6293D01*
X-6693Y83871D01*
X-7093Y83471D01*
X-7493D01*
X-7093Y83071D01*
X-7493Y82671D01*
X-7093D01*
X-6693Y82271D01*
X-6372Y91458D02*
X-5972Y91858D01*
X-5572D01*
X-5972Y92258D01*
X-5572Y92658D01*
X-5972D01*
X-6372Y93058D01*
X-6772Y92658D01*
X-7172D01*
X-6772Y92258D01*
X-7172Y91858D01*
X-6772D01*
X-6372Y91458D01*
X1108D02*
X1508Y91858D01*
X1908D01*
X1508Y92258D01*
X1908Y92658D01*
X1508D01*
X1108Y93058D01*
X708Y92658D01*
X308D01*
X708Y92258D01*
X308Y91858D01*
X708D01*
X1108Y91458D01*
X787Y82271D02*
X1187Y82671D01*
X1587D01*
X1187Y83071D01*
X1587Y83471D01*
X1187D01*
X787Y83871D01*
X387Y83471D01*
X-13D01*
X387Y83071D01*
X-13Y82671D01*
X387D01*
X787Y82271D01*
X19484Y-1669D02*
X19884Y-1269D01*
X20284D01*
X19884Y-869D01*
X20284Y-469D01*
X19884D01*
X19484Y-69D01*
X19084Y-469D01*
X18684D01*
X19084Y-869D01*
X18684Y-1269D01*
X19084D01*
X19484Y-1669D01*
X37726Y-1990D02*
X38126Y-1590D01*
X38526D01*
X38126Y-1190D01*
X38526Y-790D01*
X38126D01*
X37726Y-390D01*
X37326Y-790D01*
X36926D01*
X37326Y-1190D01*
X36926Y-1590D01*
X37326D01*
X37726Y-1990D01*
X28671D02*
X29071Y-1590D01*
X29471D01*
X29071Y-1190D01*
X29471Y-790D01*
X29071D01*
X28671Y-390D01*
X28271Y-790D01*
X27871D01*
X28271Y-1190D01*
X27871Y-1590D01*
X28271D01*
X28671Y-1990D01*
X55836D02*
X56236Y-1590D01*
X56636D01*
X56236Y-1190D01*
X56636Y-790D01*
X56236D01*
X55836Y-390D01*
X55436Y-790D01*
X55036D01*
X55436Y-1190D01*
X55036Y-1590D01*
X55436D01*
X55836Y-1990D01*
X46781D02*
X47181Y-1590D01*
X47581D01*
X47181Y-1190D01*
X47581Y-790D01*
X47181D01*
X46781Y-390D01*
X46381Y-790D01*
X45981D01*
X46381Y-1190D01*
X45981Y-1590D01*
X46381D01*
X46781Y-1990D01*
X73946D02*
X74346Y-1590D01*
X74746D01*
X74346Y-1190D01*
X74746Y-790D01*
X74346D01*
X73946Y-390D01*
X73546Y-790D01*
X73146D01*
X73546Y-1190D01*
X73146Y-1590D01*
X73546D01*
X73946Y-1990D01*
X64891D02*
X65291Y-1590D01*
X65691D01*
X65291Y-1190D01*
X65691Y-790D01*
X65291D01*
X64891Y-390D01*
X64491Y-790D01*
X64091D01*
X64491Y-1190D01*
X64091Y-1590D01*
X64491D01*
X64891Y-1990D01*
X92057D02*
X92457Y-1590D01*
X92857D01*
X92457Y-1190D01*
X92857Y-790D01*
X92457D01*
X92057Y-390D01*
X91657Y-790D01*
X91257D01*
X91657Y-1190D01*
X91257Y-1590D01*
X91657D01*
X92057Y-1990D01*
X83002D02*
X83402Y-1590D01*
X83802D01*
X83402Y-1190D01*
X83802Y-790D01*
X83402D01*
X83002Y-390D01*
X82601Y-790D01*
X82201D01*
X82601Y-1190D01*
X82201Y-1590D01*
X82601D01*
X83002Y-1990D01*
X110167D02*
X110567Y-1590D01*
X110967D01*
X110567Y-1190D01*
X110967Y-790D01*
X110567D01*
X110167Y-390D01*
X109767Y-790D01*
X109367D01*
X109767Y-1190D01*
X109367Y-1590D01*
X109767D01*
X110167Y-1990D01*
X101112D02*
X101512Y-1590D01*
X101912D01*
X101512Y-1190D01*
X101912Y-790D01*
X101512D01*
X101112Y-390D01*
X100712Y-790D01*
X100312D01*
X100712Y-1190D01*
X100312Y-1590D01*
X100712D01*
X101112Y-1990D01*
X128277D02*
X128677Y-1590D01*
X129077D01*
X128677Y-1190D01*
X129077Y-790D01*
X128677D01*
X128277Y-390D01*
X127877Y-790D01*
X127477D01*
X127877Y-1190D01*
X127477Y-1590D01*
X127877D01*
X128277Y-1990D01*
X119222D02*
X119622Y-1590D01*
X120022D01*
X119622Y-1190D01*
X120022Y-790D01*
X119622D01*
X119222Y-390D01*
X118822Y-790D01*
X118422D01*
X118822Y-1190D01*
X118422Y-1590D01*
X118822D01*
X119222Y-1990D01*
X146387D02*
X146787Y-1590D01*
X147187D01*
X146787Y-1190D01*
X147187Y-790D01*
X146787D01*
X146387Y-390D01*
X145987Y-790D01*
X145587D01*
X145987Y-1190D01*
X145587Y-1590D01*
X145987D01*
X146387Y-1990D01*
X137332D02*
X137732Y-1590D01*
X138132D01*
X137732Y-1190D01*
X138132Y-790D01*
X137732D01*
X137332Y-390D01*
X136932Y-790D01*
X136532D01*
X136932Y-1190D01*
X136532Y-1590D01*
X136932D01*
X137332Y-1990D01*
X164498D02*
X164898Y-1590D01*
X165298D01*
X164898Y-1190D01*
X165298Y-790D01*
X164898D01*
X164498Y-390D01*
X164098Y-790D01*
X163698D01*
X164098Y-1190D01*
X163698Y-1590D01*
X164098D01*
X164498Y-1990D01*
X155443D02*
X155842Y-1590D01*
X156243D01*
X155842Y-1190D01*
X156243Y-790D01*
X155842D01*
X155443Y-390D01*
X155043Y-790D01*
X154642D01*
X155043Y-1190D01*
X154642Y-1590D01*
X155043D01*
X155443Y-1990D01*
X182608D02*
X183008Y-1590D01*
X183408D01*
X183008Y-1190D01*
X183408Y-790D01*
X183008D01*
X182608Y-390D01*
X182208Y-790D01*
X181808D01*
X182208Y-1190D01*
X181808Y-1590D01*
X182208D01*
X182608Y-1990D01*
X173553D02*
X173953Y-1590D01*
X174353D01*
X173953Y-1190D01*
X174353Y-790D01*
X173953D01*
X173553Y-390D01*
X173153Y-790D01*
X172753D01*
X173153Y-1190D01*
X172753Y-1590D01*
X173153D01*
X173553Y-1990D01*
X200718D02*
X201118Y-1590D01*
X201518D01*
X201118Y-1190D01*
X201518Y-790D01*
X201118D01*
X200718Y-390D01*
X200318Y-790D01*
X199918D01*
X200318Y-1190D01*
X199918Y-1590D01*
X200318D01*
X200718Y-1990D01*
X191663D02*
X192063Y-1590D01*
X192463D01*
X192063Y-1190D01*
X192463Y-790D01*
X192063D01*
X191663Y-390D01*
X191263Y-790D01*
X190863D01*
X191263Y-1190D01*
X190863Y-1590D01*
X191263D01*
X191663Y-1990D01*
Y-9470D02*
X192063Y-9070D01*
X192463D01*
X192063Y-8670D01*
X192463Y-8270D01*
X192063D01*
X191663Y-7870D01*
X191263Y-8270D01*
X190863D01*
X191263Y-8670D01*
X190863Y-9070D01*
X191263D01*
X191663Y-9470D01*
X200718D02*
X201118Y-9070D01*
X201518D01*
X201118Y-8670D01*
X201518Y-8270D01*
X201118D01*
X200718Y-7870D01*
X200318Y-8270D01*
X199918D01*
X200318Y-8670D01*
X199918Y-9070D01*
X200318D01*
X200718Y-9470D01*
X173553D02*
X173953Y-9070D01*
X174353D01*
X173953Y-8670D01*
X174353Y-8270D01*
X173953D01*
X173553Y-7870D01*
X173153Y-8270D01*
X172753D01*
X173153Y-8670D01*
X172753Y-9070D01*
X173153D01*
X173553Y-9470D01*
X182608D02*
X183008Y-9070D01*
X183408D01*
X183008Y-8670D01*
X183408Y-8270D01*
X183008D01*
X182608Y-7870D01*
X182208Y-8270D01*
X181808D01*
X182208Y-8670D01*
X181808Y-9070D01*
X182208D01*
X182608Y-9470D01*
X155443D02*
X155842Y-9070D01*
X156243D01*
X155842Y-8670D01*
X156243Y-8270D01*
X155842D01*
X155443Y-7870D01*
X155043Y-8270D01*
X154642D01*
X155043Y-8670D01*
X154642Y-9070D01*
X155043D01*
X155443Y-9470D01*
X164498D02*
X164898Y-9070D01*
X165298D01*
X164898Y-8670D01*
X165298Y-8270D01*
X164898D01*
X164498Y-7870D01*
X164098Y-8270D01*
X163698D01*
X164098Y-8670D01*
X163698Y-9070D01*
X164098D01*
X164498Y-9470D01*
X137332D02*
X137732Y-9070D01*
X138132D01*
X137732Y-8670D01*
X138132Y-8270D01*
X137732D01*
X137332Y-7870D01*
X136932Y-8270D01*
X136532D01*
X136932Y-8670D01*
X136532Y-9070D01*
X136932D01*
X137332Y-9470D01*
X146387D02*
X146787Y-9070D01*
X147187D01*
X146787Y-8670D01*
X147187Y-8270D01*
X146787D01*
X146387Y-7870D01*
X145987Y-8270D01*
X145587D01*
X145987Y-8670D01*
X145587Y-9070D01*
X145987D01*
X146387Y-9470D01*
X119222D02*
X119622Y-9070D01*
X120022D01*
X119622Y-8670D01*
X120022Y-8270D01*
X119622D01*
X119222Y-7870D01*
X118822Y-8270D01*
X118422D01*
X118822Y-8670D01*
X118422Y-9070D01*
X118822D01*
X119222Y-9470D01*
X128277D02*
X128677Y-9070D01*
X129077D01*
X128677Y-8670D01*
X129077Y-8270D01*
X128677D01*
X128277Y-7870D01*
X127877Y-8270D01*
X127477D01*
X127877Y-8670D01*
X127477Y-9070D01*
X127877D01*
X128277Y-9470D01*
X101112D02*
X101512Y-9070D01*
X101912D01*
X101512Y-8670D01*
X101912Y-8270D01*
X101512D01*
X101112Y-7870D01*
X100712Y-8270D01*
X100312D01*
X100712Y-8670D01*
X100312Y-9070D01*
X100712D01*
X101112Y-9470D01*
X110167D02*
X110567Y-9070D01*
X110967D01*
X110567Y-8670D01*
X110967Y-8270D01*
X110567D01*
X110167Y-7870D01*
X109767Y-8270D01*
X109367D01*
X109767Y-8670D01*
X109367Y-9070D01*
X109767D01*
X110167Y-9470D01*
X83002D02*
X83402Y-9070D01*
X83802D01*
X83402Y-8670D01*
X83802Y-8270D01*
X83402D01*
X83002Y-7870D01*
X82601Y-8270D01*
X82201D01*
X82601Y-8670D01*
X82201Y-9070D01*
X82601D01*
X83002Y-9470D01*
X92057D02*
X92457Y-9070D01*
X92857D01*
X92457Y-8670D01*
X92857Y-8270D01*
X92457D01*
X92057Y-7870D01*
X91657Y-8270D01*
X91257D01*
X91657Y-8670D01*
X91257Y-9070D01*
X91657D01*
X92057Y-9470D01*
X64891D02*
X65291Y-9070D01*
X65691D01*
X65291Y-8670D01*
X65691Y-8270D01*
X65291D01*
X64891Y-7870D01*
X64491Y-8270D01*
X64091D01*
X64491Y-8670D01*
X64091Y-9070D01*
X64491D01*
X64891Y-9470D01*
X73946D02*
X74346Y-9070D01*
X74746D01*
X74346Y-8670D01*
X74746Y-8270D01*
X74346D01*
X73946Y-7870D01*
X73546Y-8270D01*
X73146D01*
X73546Y-8670D01*
X73146Y-9070D01*
X73546D01*
X73946Y-9470D01*
X46781D02*
X47181Y-9070D01*
X47581D01*
X47181Y-8670D01*
X47581Y-8270D01*
X47181D01*
X46781Y-7870D01*
X46381Y-8270D01*
X45981D01*
X46381Y-8670D01*
X45981Y-9070D01*
X46381D01*
X46781Y-9470D01*
X55836D02*
X56236Y-9070D01*
X56636D01*
X56236Y-8670D01*
X56636Y-8270D01*
X56236D01*
X55836Y-7870D01*
X55436Y-8270D01*
X55036D01*
X55436Y-8670D01*
X55036Y-9070D01*
X55436D01*
X55836Y-9470D01*
X28671D02*
X29071Y-9070D01*
X29471D01*
X29071Y-8670D01*
X29471Y-8270D01*
X29071D01*
X28671Y-7870D01*
X28271Y-8270D01*
X27871D01*
X28271Y-8670D01*
X27871Y-9070D01*
X28271D01*
X28671Y-9470D01*
X37726D02*
X38126Y-9070D01*
X38526D01*
X38126Y-8670D01*
X38526Y-8270D01*
X38126D01*
X37726Y-7870D01*
X37326Y-8270D01*
X36926D01*
X37326Y-8670D01*
X36926Y-9070D01*
X37326D01*
X37726Y-9470D01*
X19484Y-9149D02*
X19884Y-8749D01*
X20284D01*
X19884Y-8349D01*
X20284Y-7949D01*
X19884D01*
X19484Y-7549D01*
X19084Y-7949D01*
X18684D01*
X19084Y-8349D01*
X18684Y-8749D01*
X19084D01*
X19484Y-9149D01*
X218898Y27547D02*
X219298Y27946D01*
X219698D01*
X219298Y28346D01*
X219698Y28747D01*
X219298D01*
X218898Y29147D01*
X218498Y28747D01*
X218098D01*
X218498Y28346D01*
X218098Y27946D01*
X218498D01*
X218898Y27547D01*
Y18491D02*
X219298Y18891D01*
X219698D01*
X219298Y19291D01*
X219698Y19691D01*
X219298D01*
X218898Y20091D01*
X218498Y19691D01*
X218098D01*
X218498Y19291D01*
X218098Y18891D01*
X218498D01*
X218898Y18491D01*
Y45657D02*
X219298Y46057D01*
X219698D01*
X219298Y46457D01*
X219698Y46857D01*
X219298D01*
X218898Y47257D01*
X218498Y46857D01*
X218098D01*
X218498Y46457D01*
X218098Y46057D01*
X218498D01*
X218898Y45657D01*
Y36602D02*
X219298Y37002D01*
X219698D01*
X219298Y37402D01*
X219698Y37802D01*
X219298D01*
X218898Y38202D01*
X218498Y37802D01*
X218098D01*
X218498Y37402D01*
X218098Y37002D01*
X218498D01*
X218898Y36602D01*
Y63767D02*
X219298Y64167D01*
X219698D01*
X219298Y64567D01*
X219698Y64967D01*
X219298D01*
X218898Y65367D01*
X218498Y64967D01*
X218098D01*
X218498Y64567D01*
X218098Y64167D01*
X218498D01*
X218898Y63767D01*
Y54712D02*
X219298Y55112D01*
X219698D01*
X219298Y55512D01*
X219698Y55912D01*
X219298D01*
X218898Y56312D01*
X218498Y55912D01*
X218098D01*
X218498Y55512D01*
X218098Y55112D01*
X218498D01*
X218898Y54712D01*
Y81877D02*
X219298Y82277D01*
X219698D01*
X219298Y82677D01*
X219698Y83077D01*
X219298D01*
X218898Y83477D01*
X218498Y83077D01*
X218098D01*
X218498Y82677D01*
X218098Y82277D01*
X218498D01*
X218898Y81877D01*
Y72822D02*
X219298Y73222D01*
X219698D01*
X219298Y73622D01*
X219698Y74022D01*
X219298D01*
X218898Y74422D01*
X218498Y74022D01*
X218098D01*
X218498Y73622D01*
X218098Y73222D01*
X218498D01*
X218898Y72822D01*
Y90932D02*
X219298Y91332D01*
X219698D01*
X219298Y91732D01*
X219698Y92132D01*
X219298D01*
X218898Y92532D01*
X218498Y92132D01*
X218098D01*
X218498Y91732D01*
X218098Y91332D01*
X218498D01*
X218898Y90932D01*
X226378D02*
X226778Y91332D01*
X227178D01*
X226778Y91732D01*
X227178Y92132D01*
X226778D01*
X226378Y92532D01*
X225978Y92132D01*
X225578D01*
X225978Y91732D01*
X225578Y91332D01*
X225978D01*
X226378Y90932D01*
Y72822D02*
X226778Y73222D01*
X227178D01*
X226778Y73622D01*
X227178Y74022D01*
X226778D01*
X226378Y74422D01*
X225978Y74022D01*
X225578D01*
X225978Y73622D01*
X225578Y73222D01*
X225978D01*
X226378Y72822D01*
Y81877D02*
X226778Y82277D01*
X227178D01*
X226778Y82677D01*
X227178Y83077D01*
X226778D01*
X226378Y83477D01*
X225978Y83077D01*
X225578D01*
X225978Y82677D01*
X225578Y82277D01*
X225978D01*
X226378Y81877D01*
Y54712D02*
X226778Y55112D01*
X227178D01*
X226778Y55512D01*
X227178Y55912D01*
X226778D01*
X226378Y56312D01*
X225978Y55912D01*
X225578D01*
X225978Y55512D01*
X225578Y55112D01*
X225978D01*
X226378Y54712D01*
Y63767D02*
X226778Y64167D01*
X227178D01*
X226778Y64567D01*
X227178Y64967D01*
X226778D01*
X226378Y65367D01*
X225978Y64967D01*
X225578D01*
X225978Y64567D01*
X225578Y64167D01*
X225978D01*
X226378Y63767D01*
Y36602D02*
X226778Y37002D01*
X227178D01*
X226778Y37402D01*
X227178Y37802D01*
X226778D01*
X226378Y38202D01*
X225978Y37802D01*
X225578D01*
X225978Y37402D01*
X225578Y37002D01*
X225978D01*
X226378Y36602D01*
Y45657D02*
X226778Y46057D01*
X227178D01*
X226778Y46457D01*
X227178Y46857D01*
X226778D01*
X226378Y47257D01*
X225978Y46857D01*
X225578D01*
X225978Y46457D01*
X225578Y46057D01*
X225978D01*
X226378Y45657D01*
Y18491D02*
X226778Y18891D01*
X227178D01*
X226778Y19291D01*
X227178Y19691D01*
X226778D01*
X226378Y20091D01*
X225978Y19691D01*
X225578D01*
X225978Y19291D01*
X225578Y18891D01*
X225978D01*
X226378Y18491D01*
Y27547D02*
X226778Y27946D01*
X227178D01*
X226778Y28346D01*
X227178Y28747D01*
X226778D01*
X226378Y29147D01*
X225978Y28747D01*
X225578D01*
X225978Y28346D01*
X225578Y27946D01*
X225978D01*
X226378Y27547D01*
X18504Y109830D02*
X18904Y110230D01*
X19304D01*
X18904Y110630D01*
X19304Y111030D01*
X18904D01*
X18504Y111430D01*
X18104Y111030D01*
X17704D01*
X18104Y110630D01*
X17704Y110230D01*
X18104D01*
X18504Y109830D01*
X36746Y109509D02*
X37146Y109909D01*
X37546D01*
X37146Y110309D01*
X37546Y110709D01*
X37146D01*
X36746Y111109D01*
X36346Y110709D01*
X35946D01*
X36346Y110309D01*
X35946Y109909D01*
X36346D01*
X36746Y109509D01*
X27691D02*
X28091Y109909D01*
X28491D01*
X28091Y110309D01*
X28491Y110709D01*
X28091D01*
X27691Y111109D01*
X27291Y110709D01*
X26891D01*
X27291Y110309D01*
X26891Y109909D01*
X27291D01*
X27691Y109509D01*
X54856D02*
X55256Y109909D01*
X55656D01*
X55256Y110309D01*
X55656Y110709D01*
X55256D01*
X54856Y111109D01*
X54456Y110709D01*
X54056D01*
X54456Y110309D01*
X54056Y109909D01*
X54456D01*
X54856Y109509D01*
X45801D02*
X46201Y109909D01*
X46601D01*
X46201Y110309D01*
X46601Y110709D01*
X46201D01*
X45801Y111109D01*
X45401Y110709D01*
X45001D01*
X45401Y110309D01*
X45001Y109909D01*
X45401D01*
X45801Y109509D01*
X72966D02*
X73366Y109909D01*
X73766D01*
X73366Y110309D01*
X73766Y110709D01*
X73366D01*
X72966Y111109D01*
X72566Y110709D01*
X72166D01*
X72566Y110309D01*
X72166Y109909D01*
X72566D01*
X72966Y109509D01*
X63911D02*
X64311Y109909D01*
X64711D01*
X64311Y110309D01*
X64711Y110709D01*
X64311D01*
X63911Y111109D01*
X63511Y110709D01*
X63111D01*
X63511Y110309D01*
X63111Y109909D01*
X63511D01*
X63911Y109509D01*
X91076D02*
X91477Y109909D01*
X91877D01*
X91477Y110309D01*
X91877Y110709D01*
X91477D01*
X91076Y111109D01*
X90676Y110709D01*
X90276D01*
X90676Y110309D01*
X90276Y109909D01*
X90676D01*
X91076Y109509D01*
X82021D02*
X82421Y109909D01*
X82821D01*
X82421Y110309D01*
X82821Y110709D01*
X82421D01*
X82021Y111109D01*
X81621Y110709D01*
X81221D01*
X81621Y110309D01*
X81221Y109909D01*
X81621D01*
X82021Y109509D01*
X109187D02*
X109587Y109909D01*
X109987D01*
X109587Y110309D01*
X109987Y110709D01*
X109587D01*
X109187Y111109D01*
X108787Y110709D01*
X108387D01*
X108787Y110309D01*
X108387Y109909D01*
X108787D01*
X109187Y109509D01*
X100132D02*
X100532Y109909D01*
X100932D01*
X100532Y110309D01*
X100932Y110709D01*
X100532D01*
X100132Y111109D01*
X99732Y110709D01*
X99332D01*
X99732Y110309D01*
X99332Y109909D01*
X99732D01*
X100132Y109509D01*
X127297D02*
X127697Y109909D01*
X128097D01*
X127697Y110309D01*
X128097Y110709D01*
X127697D01*
X127297Y111109D01*
X126897Y110709D01*
X126497D01*
X126897Y110309D01*
X126497Y109909D01*
X126897D01*
X127297Y109509D01*
X118242D02*
X118642Y109909D01*
X119042D01*
X118642Y110309D01*
X119042Y110709D01*
X118642D01*
X118242Y111109D01*
X117842Y110709D01*
X117442D01*
X117842Y110309D01*
X117442Y109909D01*
X117842D01*
X118242Y109509D01*
X145407D02*
X145807Y109909D01*
X146207D01*
X145807Y110309D01*
X146207Y110709D01*
X145807D01*
X145407Y111109D01*
X145007Y110709D01*
X144607D01*
X145007Y110309D01*
X144607Y109909D01*
X145007D01*
X145407Y109509D01*
X136352D02*
X136752Y109909D01*
X137152D01*
X136752Y110309D01*
X137152Y110709D01*
X136752D01*
X136352Y111109D01*
X135952Y110709D01*
X135552D01*
X135952Y110309D01*
X135552Y109909D01*
X135952D01*
X136352Y109509D01*
X163517D02*
X163918Y109909D01*
X164318D01*
X163918Y110309D01*
X164318Y110709D01*
X163918D01*
X163517Y111109D01*
X163118Y110709D01*
X162717D01*
X163118Y110309D01*
X162717Y109909D01*
X163118D01*
X163517Y109509D01*
X154462D02*
X154862Y109909D01*
X155262D01*
X154862Y110309D01*
X155262Y110709D01*
X154862D01*
X154462Y111109D01*
X154062Y110709D01*
X153662D01*
X154062Y110309D01*
X153662Y109909D01*
X154062D01*
X154462Y109509D01*
X181628D02*
X182028Y109909D01*
X182428D01*
X182028Y110309D01*
X182428Y110709D01*
X182028D01*
X181628Y111109D01*
X181228Y110709D01*
X180828D01*
X181228Y110309D01*
X180828Y109909D01*
X181228D01*
X181628Y109509D01*
X172573D02*
X172973Y109909D01*
X173373D01*
X172973Y110309D01*
X173373Y110709D01*
X172973D01*
X172573Y111109D01*
X172173Y110709D01*
X171773D01*
X172173Y110309D01*
X171773Y109909D01*
X172173D01*
X172573Y109509D01*
X199738D02*
X200138Y109909D01*
X200538D01*
X200138Y110309D01*
X200538Y110709D01*
X200138D01*
X199738Y111109D01*
X199338Y110709D01*
X198938D01*
X199338Y110309D01*
X198938Y109909D01*
X199338D01*
X199738Y109509D01*
X190683D02*
X191083Y109909D01*
X191483D01*
X191083Y110309D01*
X191483Y110709D01*
X191083D01*
X190683Y111109D01*
X190283Y110709D01*
X189883D01*
X190283Y110309D01*
X189883Y109909D01*
X190283D01*
X190683Y109509D01*
Y116989D02*
X191083Y117389D01*
X191483D01*
X191083Y117789D01*
X191483Y118189D01*
X191083D01*
X190683Y118589D01*
X190283Y118189D01*
X189883D01*
X190283Y117789D01*
X189883Y117389D01*
X190283D01*
X190683Y116989D01*
X199738D02*
X200138Y117389D01*
X200538D01*
X200138Y117789D01*
X200538Y118189D01*
X200138D01*
X199738Y118589D01*
X199338Y118189D01*
X198938D01*
X199338Y117789D01*
X198938Y117389D01*
X199338D01*
X199738Y116989D01*
X172573D02*
X172973Y117389D01*
X173373D01*
X172973Y117789D01*
X173373Y118189D01*
X172973D01*
X172573Y118589D01*
X172173Y118189D01*
X171773D01*
X172173Y117789D01*
X171773Y117389D01*
X172173D01*
X172573Y116989D01*
X181628D02*
X182028Y117389D01*
X182428D01*
X182028Y117789D01*
X182428Y118189D01*
X182028D01*
X181628Y118589D01*
X181228Y118189D01*
X180828D01*
X181228Y117789D01*
X180828Y117389D01*
X181228D01*
X181628Y116989D01*
X154462D02*
X154862Y117389D01*
X155262D01*
X154862Y117789D01*
X155262Y118189D01*
X154862D01*
X154462Y118589D01*
X154062Y118189D01*
X153662D01*
X154062Y117789D01*
X153662Y117389D01*
X154062D01*
X154462Y116989D01*
X163517D02*
X163918Y117389D01*
X164318D01*
X163918Y117789D01*
X164318Y118189D01*
X163918D01*
X163517Y118589D01*
X163118Y118189D01*
X162717D01*
X163118Y117789D01*
X162717Y117389D01*
X163118D01*
X163517Y116989D01*
X136352D02*
X136752Y117389D01*
X137152D01*
X136752Y117789D01*
X137152Y118189D01*
X136752D01*
X136352Y118589D01*
X135952Y118189D01*
X135552D01*
X135952Y117789D01*
X135552Y117389D01*
X135952D01*
X136352Y116989D01*
X145407D02*
X145807Y117389D01*
X146207D01*
X145807Y117789D01*
X146207Y118189D01*
X145807D01*
X145407Y118589D01*
X145007Y118189D01*
X144607D01*
X145007Y117789D01*
X144607Y117389D01*
X145007D01*
X145407Y116989D01*
X118242D02*
X118642Y117389D01*
X119042D01*
X118642Y117789D01*
X119042Y118189D01*
X118642D01*
X118242Y118589D01*
X117842Y118189D01*
X117442D01*
X117842Y117789D01*
X117442Y117389D01*
X117842D01*
X118242Y116989D01*
X127297D02*
X127697Y117389D01*
X128097D01*
X127697Y117789D01*
X128097Y118189D01*
X127697D01*
X127297Y118589D01*
X126897Y118189D01*
X126497D01*
X126897Y117789D01*
X126497Y117389D01*
X126897D01*
X127297Y116989D01*
X100132D02*
X100532Y117389D01*
X100932D01*
X100532Y117789D01*
X100932Y118189D01*
X100532D01*
X100132Y118589D01*
X99732Y118189D01*
X99332D01*
X99732Y117789D01*
X99332Y117389D01*
X99732D01*
X100132Y116989D01*
X109187D02*
X109587Y117389D01*
X109987D01*
X109587Y117789D01*
X109987Y118189D01*
X109587D01*
X109187Y118589D01*
X108787Y118189D01*
X108387D01*
X108787Y117789D01*
X108387Y117389D01*
X108787D01*
X109187Y116989D01*
X82021D02*
X82421Y117389D01*
X82821D01*
X82421Y117789D01*
X82821Y118189D01*
X82421D01*
X82021Y118589D01*
X81621Y118189D01*
X81221D01*
X81621Y117789D01*
X81221Y117389D01*
X81621D01*
X82021Y116989D01*
X91076D02*
X91477Y117389D01*
X91877D01*
X91477Y117789D01*
X91877Y118189D01*
X91477D01*
X91076Y118589D01*
X90676Y118189D01*
X90276D01*
X90676Y117789D01*
X90276Y117389D01*
X90676D01*
X91076Y116989D01*
X63911D02*
X64311Y117389D01*
X64711D01*
X64311Y117789D01*
X64711Y118189D01*
X64311D01*
X63911Y118589D01*
X63511Y118189D01*
X63111D01*
X63511Y117789D01*
X63111Y117389D01*
X63511D01*
X63911Y116989D01*
X72966D02*
X73366Y117389D01*
X73766D01*
X73366Y117789D01*
X73766Y118189D01*
X73366D01*
X72966Y118589D01*
X72566Y118189D01*
X72166D01*
X72566Y117789D01*
X72166Y117389D01*
X72566D01*
X72966Y116989D01*
X45801D02*
X46201Y117389D01*
X46601D01*
X46201Y117789D01*
X46601Y118189D01*
X46201D01*
X45801Y118589D01*
X45401Y118189D01*
X45001D01*
X45401Y117789D01*
X45001Y117389D01*
X45401D01*
X45801Y116989D01*
X54856D02*
X55256Y117389D01*
X55656D01*
X55256Y117789D01*
X55656Y118189D01*
X55256D01*
X54856Y118589D01*
X54456Y118189D01*
X54056D01*
X54456Y117789D01*
X54056Y117389D01*
X54456D01*
X54856Y116989D01*
X27691D02*
X28091Y117389D01*
X28491D01*
X28091Y117789D01*
X28491Y118189D01*
X28091D01*
X27691Y118589D01*
X27291Y118189D01*
X26891D01*
X27291Y117789D01*
X26891Y117389D01*
X27291D01*
X27691Y116989D01*
X36746D02*
X37146Y117389D01*
X37546D01*
X37146Y117789D01*
X37546Y118189D01*
X37146D01*
X36746Y118589D01*
X36346Y118189D01*
X35946D01*
X36346Y117789D01*
X35946Y117389D01*
X36346D01*
X36746Y116989D01*
X18504Y117310D02*
X18904Y117710D01*
X19304D01*
X18904Y118110D01*
X19304Y118510D01*
X18904D01*
X18504Y118910D01*
X18104Y118510D01*
X17704D01*
X18104Y118110D01*
X17704Y117710D01*
X18104D01*
X18504Y117310D01*
X65354Y60913D02*
X65754Y61313D01*
X66154D01*
X65754Y61713D01*
X66154Y62113D01*
X65754D01*
X65354Y62513D01*
X64954Y62113D01*
X64554D01*
X64954Y61713D01*
X64554Y61313D01*
X64954D01*
X65354Y60913D01*
D73*
X36233Y40551D02*
G03*
X36233Y40551I-800J0D01*
G01*
Y20866D02*
G03*
X36233Y20866I-800J0D01*
G01*
M02*
