G04*
G04 #@! TF.GenerationSoftware,Altium Limited,Altium Designer,22.3.1 (43)*
G04*
G04 Layer_Physical_Order=1*
G04 Layer_Color=255*
%FSLAX25Y25*%
%MOIN*%
G70*
G04*
G04 #@! TF.SameCoordinates,13010D4F-CA40-4925-A7E6-2A4E1DD476F1*
G04*
G04*
G04 #@! TF.FilePolarity,Positive*
G04*
G01*
G75*
%ADD16R,0.04134X0.03937*%
%ADD17R,0.08661X0.04134*%
%ADD18R,0.05700X0.03000*%
%ADD19R,0.05118X0.04331*%
%ADD20R,0.05118X0.03543*%
%ADD21R,0.03543X0.05118*%
%ADD22R,0.03937X0.03740*%
%ADD23R,0.03740X0.03937*%
%ADD24R,0.03819X0.06811*%
%ADD25R,0.03150X0.05118*%
%ADD26R,0.05118X0.03150*%
%ADD27R,0.03347X0.03347*%
%ADD28R,0.03543X0.03150*%
%ADD29R,0.02756X0.03543*%
%ADD45C,0.21654*%
%ADD49O,0.13780X0.05118*%
%ADD50C,0.02000*%
%ADD51C,0.02500*%
%ADD52C,0.00800*%
%ADD53C,0.01500*%
%ADD54C,0.01300*%
%ADD55C,0.08661*%
%ADD56R,0.07874X0.06299*%
%ADD57O,0.07874X0.06299*%
%ADD58C,0.02362*%
G36*
X216280Y127154D02*
X219132Y126587D01*
X221885Y125652D01*
X224492Y124367D01*
X226910Y122751D01*
X229096Y120834D01*
X231013Y118649D01*
X232628Y116231D01*
X233914Y113624D01*
X234848Y110871D01*
X235415Y108019D01*
X235573Y105615D01*
X235580Y105118D01*
D01*
X235580Y104624D01*
X235580Y5118D01*
X235604Y4999D01*
X235422Y2217D01*
X234855Y-635D01*
X233920Y-3387D01*
X232634Y-5995D01*
X231019Y-8412D01*
X229102Y-10598D01*
X226916Y-12515D01*
X224499Y-14130D01*
X221891Y-15416D01*
X219138Y-16351D01*
X216287Y-16918D01*
X213505Y-17100D01*
X213386Y-17076D01*
X6693Y-17076D01*
X6574Y-17100D01*
X3792Y-16918D01*
X940Y-16351D01*
X-1813Y-15416D01*
X-4420Y-14130D01*
X-6837Y-12515D01*
X-9023Y-10598D01*
X-10940Y-8412D01*
X-12555Y-5995D01*
X-13841Y-3387D01*
X-14776Y-635D01*
X-15343Y2217D01*
X-15527Y5023D01*
X-15508Y5118D01*
X-15502Y105118D01*
X-15502Y105118D01*
X-15502Y105118D01*
X-15526Y105237D01*
X-15343Y108019D01*
X-14776Y110871D01*
X-13841Y113624D01*
X-12555Y116231D01*
X-10940Y118649D01*
X-9023Y120834D01*
X-6837Y122751D01*
X-4420Y124367D01*
X-1813Y125652D01*
X940Y126587D01*
X3792Y127154D01*
X6573Y127337D01*
X6693Y127313D01*
X213379Y127313D01*
X213499Y127337D01*
X216280Y127154D01*
D02*
G37*
%LPC*%
G36*
X101732Y91673D02*
X93071D01*
X92220Y91561D01*
X91427Y91233D01*
X90746Y90710D01*
X90601Y90520D01*
X86194D01*
X85847Y90664D01*
X85019D01*
X84254Y90347D01*
X83669Y89762D01*
X83352Y88997D01*
Y88169D01*
X83669Y87404D01*
X84254Y86818D01*
X85019Y86502D01*
X85847D01*
X86194Y86646D01*
X90298D01*
X90746Y86062D01*
X91427Y85539D01*
X92220Y85211D01*
X93071Y85099D01*
X101732D01*
X102583Y85211D01*
X103376Y85539D01*
X104057Y86062D01*
X104579Y86742D01*
X104907Y87535D01*
X105019Y88386D01*
X104907Y89237D01*
X104579Y90029D01*
X104057Y90710D01*
X103376Y91233D01*
X102583Y91561D01*
X101732Y91673D01*
D02*
G37*
G36*
Y81673D02*
X93071D01*
X92220Y81561D01*
X91427Y81233D01*
X90746Y80710D01*
X90239Y80049D01*
X86674D01*
X86612Y80111D01*
X85847Y80428D01*
X85019D01*
X84254Y80111D01*
X83669Y79525D01*
X83352Y78760D01*
Y77933D01*
X83669Y77168D01*
X84254Y76582D01*
X85019Y76265D01*
X85847D01*
X86612Y76582D01*
X86713Y76684D01*
X90269D01*
X90746Y76061D01*
X91427Y75539D01*
X92220Y75211D01*
X93071Y75099D01*
X101732D01*
X102583Y75211D01*
X103376Y75539D01*
X104057Y76061D01*
X104579Y76742D01*
X104907Y77535D01*
X105019Y78386D01*
X104907Y79237D01*
X104579Y80029D01*
X104057Y80710D01*
X103376Y81233D01*
X102583Y81561D01*
X101732Y81673D01*
D02*
G37*
G36*
X206201Y81693D02*
X198130D01*
Y81015D01*
X192804D01*
Y79711D01*
X165734D01*
X165603Y80029D01*
X165080Y80710D01*
X164400Y81233D01*
X163607Y81561D01*
X162756Y81673D01*
X154095D01*
X153244Y81561D01*
X152451Y81233D01*
X151770Y80710D01*
X151248Y80029D01*
X150919Y79237D01*
X150807Y78386D01*
X150919Y77535D01*
X151248Y76742D01*
X151770Y76061D01*
X152451Y75539D01*
X153244Y75211D01*
X154095Y75099D01*
X162756D01*
X163607Y75211D01*
X164400Y75539D01*
X165080Y76061D01*
X165603Y76742D01*
X165734Y77060D01*
X192804D01*
Y75678D01*
X198130D01*
Y75000D01*
X206201D01*
Y81693D01*
D02*
G37*
G36*
X18492Y74914D02*
X18483Y74913D01*
X15048D01*
Y69969D01*
X18483D01*
X18492Y69968D01*
X18500Y69969D01*
X19204D01*
Y70504D01*
X21643D01*
Y70068D01*
X22346D01*
X22354Y70066D01*
X22363Y70068D01*
X26389D01*
Y74814D01*
X22363D01*
X22354Y74816D01*
X22346Y74814D01*
X21643D01*
Y74378D01*
X19204D01*
Y74913D01*
X18500D01*
X18492Y74914D01*
D02*
G37*
G36*
X1294Y74837D02*
X-8380D01*
Y66738D01*
X1294D01*
Y74837D01*
D02*
G37*
G36*
X16354Y67732D02*
X14583D01*
Y65173D01*
X16354D01*
Y67732D01*
D02*
G37*
G36*
X17043Y59661D02*
X15173D01*
Y57693D01*
X17043D01*
Y59661D01*
D02*
G37*
G36*
X-2756Y64872D02*
X-4331D01*
X-5388Y64733D01*
X-6373Y64325D01*
X-7219Y63676D01*
X-7868Y62830D01*
X-8276Y61845D01*
X-8415Y60787D01*
X-8276Y59730D01*
X-7868Y58745D01*
X-7219Y57899D01*
X-6373Y57250D01*
X-5388Y56842D01*
X-4331Y56703D01*
X-2756D01*
X-1699Y56842D01*
X-714Y57250D01*
X132Y57899D01*
X781Y58745D01*
X1190Y59730D01*
X1329Y60787D01*
X1190Y61845D01*
X781Y62830D01*
X132Y63676D01*
X-714Y64325D01*
X-1699Y64733D01*
X-2756Y64872D01*
D02*
G37*
G36*
X162756Y61673D02*
X154095D01*
X153244Y61561D01*
X152451Y61233D01*
X151770Y60710D01*
X151248Y60029D01*
X150919Y59237D01*
X150807Y58386D01*
X150919Y57535D01*
X151248Y56742D01*
X151770Y56062D01*
X152451Y55539D01*
X153244Y55211D01*
X154095Y55099D01*
X162756D01*
X163607Y55211D01*
X164400Y55539D01*
X165080Y56062D01*
X165603Y56742D01*
X165931Y57535D01*
X166043Y58386D01*
X165931Y59237D01*
X165603Y60029D01*
X165080Y60710D01*
X164400Y61233D01*
X163607Y61561D01*
X162756Y61673D01*
D02*
G37*
G36*
X65354Y63905D02*
X64515Y63738D01*
X63804Y63263D01*
X63329Y62551D01*
X63162Y61713D01*
X63329Y60874D01*
X63804Y60163D01*
X66137Y57830D01*
X66848Y57355D01*
X67687Y57188D01*
X68788D01*
Y56190D01*
X73405D01*
X73413Y56188D01*
X73422Y56190D01*
X74125D01*
Y56801D01*
X74144Y56813D01*
X74146Y56814D01*
X76269D01*
Y56780D01*
X76972D01*
X76981Y56779D01*
X76989Y56780D01*
X82066D01*
X82075Y56779D01*
X82083Y56780D01*
X82787D01*
Y57257D01*
X85281D01*
X85702Y56836D01*
X86413Y56361D01*
X87252Y56194D01*
X90645D01*
X90746Y56062D01*
X91427Y55539D01*
X92220Y55211D01*
X93071Y55099D01*
X101732D01*
X102583Y55211D01*
X103376Y55539D01*
X104057Y56062D01*
X104579Y56742D01*
X104907Y57535D01*
X105019Y58386D01*
X104907Y59237D01*
X104579Y60029D01*
X104057Y60710D01*
X103376Y61233D01*
X102583Y61561D01*
X101732Y61673D01*
X93071D01*
X92220Y61561D01*
X91427Y61233D01*
X90746Y60710D01*
X90645Y60578D01*
X88160D01*
X87739Y60999D01*
X87028Y61474D01*
X86189Y61641D01*
X82787D01*
Y61724D01*
X82083D01*
X82075Y61725D01*
X82073Y61725D01*
X82071Y61725D01*
X82062Y61724D01*
X76989D01*
X76981Y61725D01*
X76972Y61724D01*
X76387D01*
Y62450D01*
X68481D01*
X68482Y62340D01*
X68021Y62146D01*
X66904Y63263D01*
X66193Y63738D01*
X65354Y63905D01*
D02*
G37*
G36*
X17043Y55693D02*
X15173D01*
Y53724D01*
X17043D01*
Y55693D01*
D02*
G37*
G36*
X10149Y74913D02*
X5993D01*
Y71951D01*
X5937Y71669D01*
Y64764D01*
X5993Y64482D01*
Y61633D01*
X5991Y61624D01*
X5993Y61615D01*
Y60914D01*
X6232D01*
Y59397D01*
X6213Y59377D01*
X6208Y59373D01*
X6201Y59370D01*
X6116Y59361D01*
X5304D01*
Y54743D01*
X5302Y54734D01*
X5304Y54725D01*
Y54024D01*
X5304D01*
X5509Y53524D01*
X4709Y52725D01*
X825D01*
X781Y52830D01*
X132Y53676D01*
X-714Y54325D01*
X-1699Y54733D01*
X-2756Y54872D01*
X-4331D01*
X-5388Y54733D01*
X-6373Y54325D01*
X-7219Y53676D01*
X-7868Y52830D01*
X-8276Y51845D01*
X-8415Y50787D01*
X-8276Y49730D01*
X-7868Y48745D01*
X-7219Y47899D01*
X-6373Y47250D01*
X-5388Y46842D01*
X-4331Y46703D01*
X-2756D01*
X-1699Y46842D01*
X-714Y47250D01*
X132Y47899D01*
X781Y48745D01*
X825Y48850D01*
X5512D01*
X6253Y48998D01*
X6882Y49418D01*
X8990Y51526D01*
X9410Y52155D01*
X9558Y52896D01*
Y54024D01*
X10444D01*
X10480Y54007D01*
Y54007D01*
X11303D01*
Y53724D01*
X13173D01*
Y56693D01*
Y59661D01*
X13033D01*
Y60614D01*
X16354D01*
Y63173D01*
X13583D01*
Y64173D01*
X12583D01*
Y67732D01*
X10811D01*
Y67432D01*
X9928D01*
X9842Y67441D01*
X9836Y67444D01*
X9830Y67448D01*
X9811Y67467D01*
Y69969D01*
X10149D01*
Y70673D01*
X10150Y70681D01*
X10149Y70690D01*
Y74913D01*
D02*
G37*
G36*
X201755Y51858D02*
X200927D01*
X200162Y51541D01*
X199577Y50956D01*
X199260Y50191D01*
Y49363D01*
X199441Y48927D01*
Y46689D01*
X199421Y46668D01*
X199416Y46665D01*
X198839D01*
X198831Y46666D01*
X198822Y46665D01*
X198119D01*
Y46327D01*
X196002D01*
X195979Y46348D01*
X195976Y46354D01*
Y49027D01*
X191426D01*
Y42509D01*
X193993D01*
X194276Y42453D01*
X198119D01*
Y42115D01*
X198822D01*
X198831Y42113D01*
X198839Y42115D01*
X204637D01*
Y46665D01*
X203340D01*
X203335Y46668D01*
X203315Y46689D01*
Y49104D01*
X203422Y49363D01*
Y50191D01*
X203105Y50956D01*
X202520Y51541D01*
X201755Y51858D01*
D02*
G37*
G36*
X82846Y51743D02*
X77627D01*
Y43532D01*
X82846D01*
Y45671D01*
X82848Y45689D01*
X82865Y45738D01*
X82894Y45781D01*
X82955Y45838D01*
X83072Y45909D01*
X83096Y45919D01*
X90932D01*
X91427Y45539D01*
X92220Y45211D01*
X93071Y45099D01*
X101732D01*
X102583Y45211D01*
X103376Y45539D01*
X104057Y46062D01*
X104579Y46742D01*
X104907Y47535D01*
X105019Y48386D01*
X104907Y49237D01*
X104579Y50029D01*
X104057Y50710D01*
X103376Y51233D01*
X102583Y51561D01*
X101732Y51673D01*
X93071D01*
X92220Y51561D01*
X91427Y51233D01*
X90746Y50710D01*
X90434Y50303D01*
X83096D01*
X83072Y50313D01*
X82955Y50384D01*
X82894Y50440D01*
X82865Y50484D01*
X82848Y50532D01*
X82846Y50551D01*
Y51743D01*
D02*
G37*
G36*
X162756Y71673D02*
X154095D01*
X153244Y71561D01*
X152451Y71233D01*
X151770Y70710D01*
X151248Y70029D01*
X150919Y69237D01*
X150807Y68386D01*
X150919Y67535D01*
X151248Y66742D01*
X151770Y66062D01*
X152451Y65539D01*
X153244Y65211D01*
X154095Y65099D01*
X161656D01*
X182085Y44670D01*
X182085Y44670D01*
X182631Y44305D01*
X183274Y44177D01*
X183946D01*
Y42509D01*
X188495D01*
Y49027D01*
X183946D01*
Y48221D01*
X183484Y48029D01*
X165242Y66272D01*
X165603Y66742D01*
X165931Y67535D01*
X166043Y68386D01*
X165931Y69237D01*
X165603Y70029D01*
X165080Y70710D01*
X164400Y71233D01*
X163607Y71561D01*
X162756Y71673D01*
D02*
G37*
G36*
X205401Y39383D02*
Y39383D01*
X204835D01*
X204637Y39184D01*
X203934D01*
X203925Y39186D01*
X203916Y39184D01*
X198119D01*
Y34635D01*
X203916D01*
X203925Y34633D01*
X203934Y34635D01*
X204637D01*
X204737Y34535D01*
Y34535D01*
X205209D01*
X205501Y34155D01*
Y33552D01*
X212019D01*
Y39283D01*
X206219D01*
X206211Y39284D01*
X206202Y39283D01*
X205859D01*
X205401Y39383D01*
X205401Y39383D01*
D02*
G37*
G36*
X33082Y74814D02*
X28335D01*
Y70068D01*
X28517D01*
Y41159D01*
X28683Y40321D01*
X29159Y39609D01*
X29780Y38988D01*
X29575Y38633D01*
X29218Y37303D01*
Y35925D01*
X29575Y34595D01*
X30263Y33402D01*
X31237Y32429D01*
X32430Y31740D01*
X33760Y31383D01*
X35138D01*
X36444Y31734D01*
X39511Y28666D01*
X40222Y28191D01*
X41061Y28024D01*
X66623D01*
Y26957D01*
X71566D01*
Y32638D01*
X71925Y32986D01*
X73421Y32938D01*
X73431Y32938D01*
X73431Y33438D01*
Y36856D01*
X73169D01*
X73050Y37356D01*
X73252Y37680D01*
X73391Y37815D01*
X73446Y37813D01*
X73456Y37813D01*
X73456Y38313D01*
Y41732D01*
X71314D01*
Y42750D01*
X71323Y42759D01*
X71095D01*
Y43532D01*
X71192D01*
Y51743D01*
X65973D01*
Y43532D01*
X66711D01*
Y41661D01*
X66653D01*
Y36324D01*
X66967D01*
Y33476D01*
X66623D01*
Y32409D01*
X41969D01*
X39420Y34958D01*
X39680Y35925D01*
Y37303D01*
X39323Y38633D01*
X38634Y39826D01*
X37661Y40800D01*
X36468Y41488D01*
X35138Y41845D01*
X33760D01*
X33258Y41710D01*
X32901Y42067D01*
Y70068D01*
X33082D01*
Y74814D01*
D02*
G37*
G36*
X162756Y51673D02*
X154095D01*
X153244Y51561D01*
X152451Y51233D01*
X151770Y50710D01*
X151248Y50029D01*
X150919Y49237D01*
X150807Y48386D01*
X150919Y47535D01*
X151248Y46742D01*
X151770Y46062D01*
X152451Y45539D01*
X153244Y45211D01*
X154095Y45099D01*
X162756D01*
X163607Y45211D01*
X164400Y45539D01*
X165080Y46062D01*
X165377Y46449D01*
X168395D01*
X178615Y36229D01*
X179243Y35809D01*
X179985Y35661D01*
X184536D01*
Y35225D01*
X185240D01*
X185248Y35223D01*
X185257Y35225D01*
X189283D01*
Y39972D01*
X185257D01*
X185248Y39973D01*
X185240Y39972D01*
X184536D01*
Y39536D01*
X180787D01*
X170567Y49756D01*
X169939Y50176D01*
X169197Y50323D01*
X165377D01*
X165080Y50710D01*
X164400Y51233D01*
X163607Y51561D01*
X162756Y51673D01*
D02*
G37*
G36*
Y41673D02*
X154095D01*
X153244Y41561D01*
X152451Y41233D01*
X151770Y40710D01*
X151248Y40029D01*
X150919Y39237D01*
X150807Y38386D01*
X150919Y37535D01*
X151248Y36742D01*
X151770Y36061D01*
X152451Y35539D01*
X153244Y35211D01*
X154095Y35099D01*
X162756D01*
X163607Y35211D01*
X164400Y35539D01*
X165080Y36061D01*
X165603Y36742D01*
X165931Y37535D01*
X166043Y38386D01*
X165931Y39237D01*
X165603Y40029D01*
X165080Y40710D01*
X164400Y41233D01*
X163607Y41561D01*
X162756Y41673D01*
D02*
G37*
G36*
X195976Y39972D02*
X191229D01*
Y35225D01*
X192191D01*
Y32688D01*
X191672D01*
Y32301D01*
X190267D01*
Y32590D01*
X189564D01*
X189555Y32592D01*
X189546Y32590D01*
X183749D01*
Y28040D01*
X189546D01*
X189555Y28038D01*
X189564Y28040D01*
X190267D01*
X190367Y27940D01*
Y27940D01*
X191474D01*
X191672Y28139D01*
X192375D01*
X192384Y28137D01*
X192393Y28139D01*
X196615D01*
Y32688D01*
X195555D01*
Y35225D01*
X195976D01*
Y35929D01*
X195977Y35937D01*
X195976Y35946D01*
Y39972D01*
D02*
G37*
G36*
X212019Y30228D02*
X205501D01*
Y28610D01*
X204588D01*
Y28948D01*
X199644D01*
Y24398D01*
X204588D01*
X204688Y24298D01*
Y24298D01*
X205302D01*
X205501Y24497D01*
X212019D01*
Y30228D01*
D02*
G37*
G36*
X147945Y24816D02*
X147936Y24814D01*
X147233D01*
Y24510D01*
X144790D01*
Y24805D01*
X144087D01*
X144078Y24807D01*
X144070Y24805D01*
X137690D01*
Y20405D01*
X144070D01*
X144078Y20404D01*
X144087Y20405D01*
X144790D01*
Y20635D01*
X147233D01*
Y20265D01*
X147936D01*
X147945Y20263D01*
X147954Y20265D01*
X153751D01*
Y24814D01*
X147954D01*
X147945Y24816D01*
D02*
G37*
G36*
X101732Y41673D02*
X93071D01*
X92220Y41561D01*
X91427Y41233D01*
X90746Y40710D01*
X90224Y40029D01*
X89896Y39237D01*
X89784Y38386D01*
X89896Y37535D01*
X90224Y36742D01*
X90746Y36061D01*
X91427Y35539D01*
X92220Y35211D01*
X93071Y35099D01*
X95821D01*
Y32913D01*
X95942Y32309D01*
X96284Y31796D01*
X105182Y22898D01*
X105694Y22556D01*
X106299Y22435D01*
X108454D01*
Y21643D01*
X113200D01*
Y26389D01*
X108454D01*
Y25596D01*
X106954D01*
X98982Y33568D01*
Y35099D01*
X101732D01*
X102583Y35211D01*
X103376Y35539D01*
X104057Y36061D01*
X104579Y36742D01*
X104907Y37535D01*
X105019Y38386D01*
X104907Y39237D01*
X104579Y40029D01*
X104057Y40710D01*
X103376Y41233D01*
X102583Y41561D01*
X101732Y41673D01*
D02*
G37*
G36*
X119893Y26389D02*
X115147D01*
Y22363D01*
X115145Y22354D01*
X115147Y22346D01*
Y21643D01*
X115681D01*
Y20213D01*
X115661Y20191D01*
X115656Y20188D01*
X114457D01*
Y15639D01*
X120255D01*
X120264Y15637D01*
X120272Y15639D01*
X120976D01*
Y16222D01*
X121790D01*
Y16131D01*
X122494D01*
X122502Y16129D01*
X122511Y16131D01*
X126734D01*
Y20680D01*
X122511D01*
X122502Y20682D01*
X122494Y20680D01*
X122152D01*
X121690Y20774D01*
X119993D01*
Y21542D01*
X119893Y22001D01*
Y22346D01*
X119895Y22354D01*
X119893Y22363D01*
Y26389D01*
D02*
G37*
G36*
X153039Y17336D02*
X153031Y17334D01*
X147233D01*
Y12784D01*
X153031D01*
X153039Y12783D01*
X153048Y12784D01*
X153751D01*
Y13171D01*
X156247D01*
X156476Y13076D01*
X157304D01*
X158069Y13393D01*
X158654Y13979D01*
X158971Y14743D01*
Y15571D01*
X158654Y16336D01*
X158069Y16922D01*
X157304Y17239D01*
X156476D01*
X156010Y17045D01*
X153751D01*
Y17334D01*
X153048D01*
X153039Y17336D01*
D02*
G37*
G36*
X133994Y16942D02*
X133985Y16940D01*
X129763D01*
Y12391D01*
X133985D01*
X133994Y12389D01*
X134002Y12391D01*
X134706D01*
Y12498D01*
X137690D01*
Y12005D01*
X138394D01*
X138402Y12004D01*
X138411Y12005D01*
X144790D01*
Y16406D01*
X138411D01*
X138402Y16407D01*
X138400Y16407D01*
X138398Y16407D01*
X138390Y16406D01*
X137690D01*
Y16373D01*
X134706D01*
Y16940D01*
X134002D01*
X133994Y16942D01*
D02*
G37*
%LPD*%
G36*
X93462Y86677D02*
X93222Y86849D01*
X92972Y87003D01*
X92714Y87139D01*
X92448Y87257D01*
X92172Y87356D01*
X91888Y87438D01*
X91595Y87501D01*
X91293Y87546D01*
X90983Y87574D01*
X90664Y87583D01*
X90901Y89583D01*
X91268Y89588D01*
X92220Y89665D01*
X92488Y89711D01*
X92732Y89767D01*
X92951Y89834D01*
X93146Y89911D01*
X93316Y89998D01*
X93462Y90095D01*
Y86677D01*
D02*
G37*
G36*
X93223Y76876D02*
X93200Y77016D01*
X93136Y77142D01*
X93031Y77253D01*
X92885Y77350D01*
X92698Y77431D01*
X92470Y77498D01*
X92202Y77549D01*
X91892Y77587D01*
X91541Y77609D01*
X91150Y77616D01*
X91134Y79116D01*
X91523Y79124D01*
X92178Y79183D01*
X92444Y79235D01*
X92668Y79301D01*
X92852Y79383D01*
X92993Y79479D01*
X93094Y79590D01*
X93153Y79716D01*
X93171Y79857D01*
X93223Y76876D01*
D02*
G37*
G36*
X18512Y74056D02*
X18572Y73927D01*
X18672Y73813D01*
X18812Y73714D01*
X18992Y73631D01*
X19212Y73563D01*
X19472Y73509D01*
X19772Y73471D01*
X20112Y73449D01*
X20428Y73442D01*
X20734Y73448D01*
X21374Y73501D01*
X21634Y73547D01*
X21855Y73606D01*
X22035Y73679D01*
X22174Y73765D01*
X22275Y73864D01*
X22334Y73976D01*
X22354Y74102D01*
Y70780D01*
X22334Y70905D01*
X22275Y71018D01*
X22174Y71117D01*
X22035Y71203D01*
X21855Y71276D01*
X21634Y71335D01*
X21374Y71381D01*
X21075Y71415D01*
X20403Y71439D01*
X20112Y71433D01*
X19472Y71373D01*
X19212Y71319D01*
X18992Y71251D01*
X18812Y71167D01*
X18672Y71069D01*
X18572Y70955D01*
X18512Y70826D01*
X18492Y70681D01*
Y74201D01*
X18512Y74056D01*
D02*
G37*
G36*
X76981Y57492D02*
X76955Y57542D01*
X76881Y57587D01*
X76755Y57627D01*
X76581Y57661D01*
X76355Y57690D01*
X75756Y57732D01*
X75349Y57740D01*
X74638Y57679D01*
X74313Y57619D01*
X74038Y57542D01*
X73813Y57448D01*
X73638Y57337D01*
X73513Y57209D01*
X73438Y57064D01*
X73413Y56902D01*
Y60618D01*
X73438Y60549D01*
X73513Y60488D01*
X73638Y60433D01*
X73813Y60386D01*
X74038Y60346D01*
X74313Y60314D01*
X75013Y60270D01*
X75041Y60270D01*
X75756Y60324D01*
X76081Y60377D01*
X76355Y60445D01*
X76581Y60528D01*
X76755Y60626D01*
X76881Y60740D01*
X76955Y60868D01*
X76981Y61012D01*
Y57492D01*
D02*
G37*
G36*
X69500Y60618D02*
Y57567D01*
X69482Y57674D01*
X69428Y57770D01*
X69337Y57854D01*
X69210Y57927D01*
X69047Y57989D01*
X68847Y58040D01*
X68612Y58079D01*
X68340Y58107D01*
X67687Y58130D01*
Y60630D01*
X69500Y60618D01*
D02*
G37*
G36*
X82100Y60952D02*
X82175Y60899D01*
X82300Y60852D01*
X82475Y60811D01*
X82700Y60777D01*
X83300Y60727D01*
X84575Y60699D01*
Y58199D01*
X84100Y58192D01*
X83300Y58135D01*
X82975Y58086D01*
X82700Y58022D01*
X82475Y57945D01*
X82300Y57853D01*
X82175Y57747D01*
X82100Y57626D01*
X82075Y57492D01*
Y61012D01*
X82100Y60952D01*
D02*
G37*
G36*
X93462Y56677D02*
X93324Y56764D01*
X93150Y56842D01*
X92939Y56911D01*
X92692Y56971D01*
X92408Y57021D01*
X91731Y57095D01*
X90908Y57131D01*
X90442Y57136D01*
Y59636D01*
X90908Y59640D01*
X92408Y59751D01*
X92692Y59801D01*
X92939Y59861D01*
X93150Y59930D01*
X93324Y60008D01*
X93462Y60095D01*
Y56677D01*
D02*
G37*
G36*
X9330Y70661D02*
X9234Y70601D01*
X9150Y70501D01*
X9077Y70361D01*
X9015Y70181D01*
X8964Y69961D01*
X8925Y69701D01*
X8896Y69401D01*
X8875Y68699D01*
X8884Y68340D01*
X8914Y68000D01*
X8964Y67700D01*
X9034Y67440D01*
X9124Y67220D01*
X9234Y67040D01*
X9364Y66900D01*
X9514Y66800D01*
X9684Y66740D01*
X9874Y66720D01*
X6705D01*
X6737Y66740D01*
X6766Y66800D01*
X6791Y66900D01*
X6813Y67040D01*
X6832Y67220D01*
X6867Y68000D01*
X6874Y68708D01*
X6872Y69061D01*
X6766Y70601D01*
X6737Y70661D01*
X6705Y70681D01*
X9437D01*
X9330Y70661D01*
D02*
G37*
G36*
X9979Y61617D02*
X9809Y61557D01*
X9659Y61456D01*
X9529Y61315D01*
X9419Y61133D01*
X9329Y60912D01*
X9259Y60651D01*
X9209Y60349D01*
X9187Y60097D01*
X9220Y59629D01*
X9259Y59369D01*
X9310Y59149D01*
X9372Y58969D01*
X9445Y58829D01*
X9529Y58729D01*
X9625Y58669D01*
X9732Y58649D01*
X6169D01*
X6359Y58669D01*
X6529Y58729D01*
X6679Y58829D01*
X6809Y58969D01*
X6919Y59149D01*
X7009Y59369D01*
X7079Y59629D01*
X7129Y59929D01*
X7151Y60179D01*
X7095Y60906D01*
X7053Y61126D01*
X7002Y61306D01*
X6942Y61446D01*
X6872Y61546D01*
X6793Y61606D01*
X6705Y61626D01*
X10169Y61638D01*
X9979Y61617D01*
D02*
G37*
G36*
X9301Y54729D02*
X9158Y54673D01*
X9032Y54580D01*
X8923Y54451D01*
X8830Y54284D01*
X8755Y54080D01*
X8696Y53839D01*
X8654Y53562D01*
X8629Y53247D01*
X8620Y52896D01*
X6620D01*
X6614Y53246D01*
X6566Y53835D01*
X6524Y54074D01*
X6469Y54276D01*
X6403Y54442D01*
X6324Y54571D01*
X6233Y54663D01*
X6131Y54718D01*
X6016Y54736D01*
X9461Y54748D01*
X9301Y54729D01*
D02*
G37*
G36*
X-322Y52591D02*
X-245Y52422D01*
X-117Y52274D01*
X63Y52145D01*
X294Y52035D01*
X577Y51946D01*
X910Y51877D01*
X1295Y51827D01*
X1732Y51797D01*
X2220Y51787D01*
Y49787D01*
X1732Y49777D01*
X910Y49698D01*
X577Y49629D01*
X294Y49539D01*
X63Y49430D01*
X-117Y49301D01*
X-245Y49152D01*
X-322Y48984D01*
X-348Y48795D01*
Y52780D01*
X-322Y52591D01*
D02*
G37*
G36*
X202388Y47570D02*
X202418Y47228D01*
X202468Y46926D01*
X202538Y46665D01*
X202628Y46444D01*
X202738Y46262D01*
X202868Y46122D01*
X203018Y46021D01*
X203188Y45961D01*
X203378Y45941D01*
X199378D01*
X199568Y45961D01*
X199738Y46021D01*
X199888Y46122D01*
X200018Y46262D01*
X200128Y46444D01*
X200218Y46665D01*
X200288Y46926D01*
X200338Y47228D01*
X200368Y47570D01*
X200378Y47953D01*
X202378D01*
X202388Y47570D01*
D02*
G37*
G36*
X195272Y46200D02*
X195333Y46030D01*
X195434Y45880D01*
X195575Y45750D01*
X195756Y45640D01*
X195978Y45550D01*
X196239Y45480D01*
X196540Y45430D01*
X196882Y45400D01*
X197107Y45394D01*
X197211Y45395D01*
X197851Y45440D01*
X198111Y45480D01*
X198331Y45531D01*
X198511Y45592D01*
X198651Y45665D01*
X198751Y45750D01*
X198811Y45846D01*
X198831Y45953D01*
Y42827D01*
X198811Y42934D01*
X198751Y43030D01*
X198651Y43114D01*
X198511Y43187D01*
X198331Y43249D01*
X198111Y43300D01*
X197851Y43339D01*
X197551Y43367D01*
X196885Y43388D01*
X196884Y43388D01*
X195344Y43281D01*
X195284Y43253D01*
X195264Y43221D01*
X195252Y46390D01*
X195272Y46200D01*
D02*
G37*
G36*
X93462Y46677D02*
X93392Y46712D01*
X93276Y46743D01*
X93115Y46771D01*
X92909Y46795D01*
X92019Y46844D01*
X90722Y46861D01*
X90235Y49361D01*
X90676Y49368D01*
X91479Y49427D01*
X91841Y49478D01*
X92177Y49544D01*
X92487Y49625D01*
X92770Y49720D01*
X93027Y49831D01*
X93258Y49955D01*
X93462Y50095D01*
Y46677D01*
D02*
G37*
G36*
X82147Y50373D02*
X82222Y50161D01*
X82348Y49973D01*
X82524Y49811D01*
X82750Y49673D01*
X83026Y49561D01*
X83353Y49473D01*
X83729Y49411D01*
X84156Y49373D01*
X84634Y49361D01*
Y46861D01*
X84156Y46848D01*
X83729Y46811D01*
X83353Y46748D01*
X83026Y46661D01*
X82750Y46548D01*
X82524Y46411D01*
X82348Y46248D01*
X82222Y46061D01*
X82147Y45848D01*
X82122Y45611D01*
Y50611D01*
X82147Y50373D01*
D02*
G37*
G36*
X163171Y67875D02*
X163099Y67768D01*
X163069Y67640D01*
X163081Y67492D01*
X163134Y67323D01*
X163228Y67134D01*
X163364Y66925D01*
X163542Y66695D01*
X163761Y66444D01*
X164021Y66173D01*
X162689Y65385D01*
X162412Y65651D01*
X161903Y66075D01*
X161672Y66233D01*
X161456Y66356D01*
X161254Y66441D01*
X161068Y66491D01*
X160897Y66505D01*
X160741Y66483D01*
X160600Y66425D01*
X163283Y67962D01*
X163171Y67875D01*
D02*
G37*
G36*
X184670Y44476D02*
X184656Y44596D01*
X184614Y44704D01*
X184544Y44799D01*
X184446Y44881D01*
X184321Y44951D01*
X184167Y45008D01*
X183986Y45052D01*
X183777Y45084D01*
X183539Y45103D01*
X183274Y45110D01*
Y46610D01*
X183539Y46616D01*
X183777Y46635D01*
X183986Y46666D01*
X184167Y46711D01*
X184321Y46768D01*
X184446Y46837D01*
X184544Y46920D01*
X184614Y47015D01*
X184656Y47122D01*
X184670Y47243D01*
Y44476D01*
D02*
G37*
G36*
X206225Y34663D02*
X206204Y34853D01*
X206143Y35023D01*
X206042Y35173D01*
X205901Y35303D01*
X205720Y35413D01*
X205499Y35503D01*
X205238Y35573D01*
X204955Y35620D01*
X204425Y35584D01*
X204245Y35549D01*
X204105Y35508D01*
X204005Y35461D01*
X203945Y35407D01*
X203925Y35347D01*
Y38472D01*
X203945Y38319D01*
X204005Y38181D01*
X204105Y38060D01*
X204245Y37955D01*
X204425Y37866D01*
X204645Y37793D01*
X204905Y37736D01*
X205047Y37717D01*
X205233Y37745D01*
X205493Y37809D01*
X205713Y37890D01*
X205893Y37990D01*
X206033Y38108D01*
X206133Y38244D01*
X206193Y38398D01*
X206213Y38571D01*
X206225Y34663D01*
D02*
G37*
G36*
X162558Y49960D02*
X162769Y49840D01*
X162997Y49733D01*
X163242Y49641D01*
X163505Y49563D01*
X163785Y49499D01*
X164082Y49450D01*
X164396Y49414D01*
X165077Y49386D01*
Y47386D01*
X164728Y47379D01*
X164082Y47322D01*
X163785Y47272D01*
X163505Y47209D01*
X163242Y47131D01*
X162997Y47038D01*
X162769Y46932D01*
X162558Y46812D01*
X162365Y46677D01*
Y50095D01*
X162558Y49960D01*
D02*
G37*
G36*
X185248Y35937D02*
X185228Y36063D01*
X185168Y36175D01*
X185068Y36274D01*
X184928Y36360D01*
X184748Y36433D01*
X184528Y36493D01*
X184268Y36539D01*
X183968Y36572D01*
X183248Y36598D01*
Y38598D01*
X183628Y38605D01*
X184268Y38658D01*
X184528Y38704D01*
X184748Y38764D01*
X184928Y38837D01*
X185068Y38922D01*
X185168Y39022D01*
X185228Y39134D01*
X185248Y39260D01*
Y35937D01*
D02*
G37*
G36*
X195142Y35922D02*
X195033Y35877D01*
X194937Y35802D01*
X194854Y35697D01*
X194783Y35562D01*
X194726Y35397D01*
X194681Y35202D01*
X194649Y34977D01*
X194629Y34722D01*
X194623Y34437D01*
X193123D01*
X193115Y34722D01*
X193093Y34977D01*
X193055Y35202D01*
X193003Y35397D01*
X192936Y35562D01*
X192853Y35697D01*
X192755Y35802D01*
X192643Y35877D01*
X192516Y35922D01*
X192373Y35937D01*
X195264D01*
X195142Y35922D01*
D02*
G37*
G36*
X194631Y33189D02*
X194653Y32933D01*
X194691Y32706D01*
X194743Y32510D01*
X194810Y32344D01*
X194893Y32208D01*
X194991Y32102D01*
X195103Y32026D01*
X195230Y31980D01*
X195373Y31964D01*
X192384Y31976D01*
X192525Y31991D01*
X192650Y32036D01*
X192761Y32111D01*
X192857Y32216D01*
X192938Y32351D01*
X193005Y32516D01*
X193056Y32711D01*
X193094Y32936D01*
X193116Y33191D01*
X193123Y33476D01*
X194623D01*
X194631Y33189D01*
D02*
G37*
G36*
X192384Y28851D02*
X192364Y28948D01*
X192304Y29035D01*
X192204Y29112D01*
X192064Y29179D01*
X191884Y29236D01*
X191664Y29282D01*
X191404Y29318D01*
X190994Y29344D01*
X190535Y29309D01*
X190275Y29266D01*
X190055Y29211D01*
X189875Y29144D01*
X189735Y29064D01*
X189635Y28973D01*
X189575Y28868D01*
X189555Y28752D01*
Y31878D01*
X189575Y31780D01*
X189635Y31693D01*
X189735Y31616D01*
X189875Y31549D01*
X190055Y31493D01*
X190275Y31446D01*
X190535Y31410D01*
X190945Y31384D01*
X191404Y31419D01*
X191664Y31462D01*
X191884Y31517D01*
X192064Y31585D01*
X192204Y31664D01*
X192304Y31756D01*
X192364Y31860D01*
X192384Y31976D01*
Y28851D01*
D02*
G37*
G36*
X147945Y20977D02*
X147925Y21090D01*
X147865Y21191D01*
X147765Y21281D01*
X147625Y21358D01*
X147445Y21423D01*
X147225Y21477D01*
X146965Y21519D01*
X146665Y21549D01*
X145980Y21571D01*
X145698Y21568D01*
X144798Y21500D01*
X144578Y21459D01*
X144398Y21409D01*
X144258Y21350D01*
X144158Y21281D01*
X144098Y21204D01*
X144078Y21117D01*
Y24093D01*
X144098Y23994D01*
X144158Y23906D01*
X144258Y23828D01*
X144398Y23760D01*
X144578Y23703D01*
X144798Y23656D01*
X145058Y23619D01*
X145358Y23593D01*
X146035Y23574D01*
X146325Y23578D01*
X147225Y23657D01*
X147445Y23705D01*
X147625Y23763D01*
X147765Y23832D01*
X147865Y23911D01*
X147925Y24002D01*
X147945Y24102D01*
Y20977D01*
D02*
G37*
G36*
X98578Y36411D02*
X98468Y36372D01*
X98370Y36306D01*
X98286Y36215D01*
X98214Y36096D01*
X98156Y35952D01*
X98110Y35782D01*
X98078Y35585D01*
X98058Y35362D01*
X98052Y35113D01*
X96752D01*
X96745Y35362D01*
X96726Y35585D01*
X96693Y35782D01*
X96648Y35952D01*
X96589Y36096D01*
X96518Y36215D01*
X96433Y36306D01*
X96336Y36372D01*
X96225Y36411D01*
X96102Y36424D01*
X98702D01*
X98578Y36411D01*
D02*
G37*
G36*
X109177Y22716D02*
X109164Y22839D01*
X109125Y22950D01*
X109060Y23047D01*
X108968Y23132D01*
X108850Y23203D01*
X108705Y23262D01*
X108535Y23307D01*
X108338Y23340D01*
X108115Y23359D01*
X107866Y23366D01*
Y24666D01*
X108115Y24672D01*
X108338Y24692D01*
X108535Y24724D01*
X108705Y24770D01*
X108850Y24828D01*
X108968Y24900D01*
X109060Y24984D01*
X109125Y25082D01*
X109164Y25192D01*
X109177Y25316D01*
Y22716D01*
D02*
G37*
G36*
X119074Y22334D02*
X118978Y22275D01*
X118894Y22174D01*
X118821Y22035D01*
X118759Y21855D01*
X118708Y21634D01*
X118669Y21374D01*
X118641Y21075D01*
X118638Y20984D01*
X118658Y20752D01*
X118708Y20450D01*
X118778Y20188D01*
X118868Y19967D01*
X118978Y19786D01*
X119108Y19645D01*
X119258Y19545D01*
X119428Y19484D01*
X119618Y19464D01*
X115618D01*
X115808Y19484D01*
X115978Y19545D01*
X116128Y19645D01*
X116258Y19786D01*
X116368Y19967D01*
X116458Y20188D01*
X116528Y20450D01*
X116578Y20752D01*
X116593Y20920D01*
X116550Y21374D01*
X116497Y21634D01*
X116428Y21855D01*
X116345Y22035D01*
X116246Y22174D01*
X116132Y22275D01*
X116003Y22334D01*
X115858Y22354D01*
X119181D01*
X119074Y22334D01*
D02*
G37*
G36*
X122502Y16843D02*
X122482Y16903D01*
X122422Y16957D01*
X122322Y17004D01*
X122182Y17045D01*
X122002Y17080D01*
X121782Y17109D01*
X121591Y17122D01*
X121244Y17087D01*
X120984Y17030D01*
X120764Y16957D01*
X120584Y16868D01*
X120444Y16763D01*
X120344Y16642D01*
X120284Y16504D01*
X120264Y16351D01*
Y19476D01*
X120284Y19416D01*
X120344Y19362D01*
X120444Y19315D01*
X120584Y19274D01*
X120764Y19239D01*
X120984Y19210D01*
X121175Y19197D01*
X121522Y19232D01*
X121782Y19289D01*
X122002Y19362D01*
X122182Y19451D01*
X122322Y19556D01*
X122422Y19677D01*
X122482Y19815D01*
X122502Y19968D01*
Y16843D01*
D02*
G37*
G36*
X153059Y16524D02*
X153119Y16437D01*
X153219Y16360D01*
X153359Y16293D01*
X153539Y16237D01*
X153759Y16191D01*
X154019Y16154D01*
X154659Y16113D01*
X155039Y16108D01*
Y14108D01*
X154659Y14102D01*
X154019Y14053D01*
X153759Y14010D01*
X153539Y13955D01*
X153359Y13888D01*
X153219Y13808D01*
X153119Y13717D01*
X153059Y13612D01*
X153039Y13496D01*
Y16622D01*
X153059Y16524D01*
D02*
G37*
G36*
X134014Y16078D02*
X134074Y15943D01*
X134174Y15824D01*
X134314Y15721D01*
X134494Y15634D01*
X134714Y15562D01*
X134974Y15507D01*
X135274Y15467D01*
X135614Y15443D01*
X135994Y15435D01*
Y13435D01*
X135614Y13432D01*
X134494Y13352D01*
X134314Y13316D01*
X134174Y13272D01*
X134074Y13222D01*
X134014Y13166D01*
X133994Y13103D01*
Y16228D01*
X134014Y16078D01*
D02*
G37*
G36*
X138402Y12718D02*
X138382Y12854D01*
X138322Y12976D01*
X138222Y13084D01*
X138082Y13177D01*
X137902Y13256D01*
X137682Y13321D01*
X137422Y13371D01*
X137122Y13407D01*
X136782Y13428D01*
X136402Y13435D01*
Y15435D01*
X136782Y15438D01*
X138082Y15528D01*
X138222Y15562D01*
X138322Y15601D01*
X138382Y15644D01*
X138402Y15694D01*
Y12718D01*
D02*
G37*
D16*
X195571Y78347D02*
D03*
D17*
X201575Y84153D02*
D03*
Y72539D02*
D03*
D18*
X141240Y14206D02*
D03*
Y22605D02*
D03*
D19*
X208760Y36417D02*
D03*
Y27362D02*
D03*
D20*
X79527Y59252D02*
D03*
Y64370D02*
D03*
D21*
X8465Y64173D02*
D03*
X13583D02*
D03*
X69095Y30217D02*
D03*
X74213D02*
D03*
D22*
X71457Y65059D02*
D03*
Y58760D02*
D03*
D23*
X14173Y56693D02*
D03*
X7874D02*
D03*
X75523Y38992D02*
D03*
X69223D02*
D03*
D24*
X80236Y47638D02*
D03*
X68583D02*
D03*
D25*
X186221Y45768D02*
D03*
X193701D02*
D03*
D26*
X150492Y15059D02*
D03*
Y22539D02*
D03*
X201378Y44390D02*
D03*
Y36909D02*
D03*
X117717Y10433D02*
D03*
Y17913D02*
D03*
X187008Y22835D02*
D03*
Y30315D02*
D03*
D27*
X110827Y24016D02*
D03*
X117520D02*
D03*
X186909Y37598D02*
D03*
X193602D02*
D03*
X30709Y72441D02*
D03*
X24016D02*
D03*
D28*
X124262Y18406D02*
D03*
Y10925D02*
D03*
X132234Y14665D02*
D03*
X194144Y30413D02*
D03*
Y22933D02*
D03*
X202116Y26673D02*
D03*
D29*
X8071Y72441D02*
D03*
X17126D02*
D03*
D45*
X218898Y109843D02*
D03*
X0Y109843D02*
D03*
Y0D02*
D03*
X218898D02*
D03*
D49*
X97402Y88386D02*
D03*
Y78386D02*
D03*
Y68386D02*
D03*
Y58386D02*
D03*
Y48386D02*
D03*
X158425Y88386D02*
D03*
Y78386D02*
D03*
Y68386D02*
D03*
Y48386D02*
D03*
Y38386D02*
D03*
Y58386D02*
D03*
X97402Y38386D02*
D03*
D50*
X202116Y26673D02*
X208071D01*
X208760Y27362D01*
X150541Y15108D02*
X156841D01*
X156890Y15157D01*
X201378Y44390D02*
Y49740D01*
X201341Y49777D02*
X201378Y49740D01*
X7874Y71669D02*
X8071Y71866D01*
X7874Y64764D02*
Y71669D01*
Y64764D02*
X8465Y64173D01*
X8071Y71866D02*
Y72441D01*
X7620Y52896D02*
Y56439D01*
X5512Y50787D02*
X7620Y52896D01*
X-3543Y50787D02*
X5512D01*
X7620Y56439D02*
X8169Y56988D01*
X17126Y72441D02*
X24016D01*
X8169Y56988D02*
Y63878D01*
X8465Y64173D01*
X85433Y88583D02*
X97205D01*
X97402Y88386D01*
X179985Y37598D02*
X186909D01*
X169197Y48386D02*
X179985Y37598D01*
X158425Y48386D02*
X169197D01*
X117520Y24016D02*
X117618Y23917D01*
Y18012D02*
Y23917D01*
Y18012D02*
X117717Y17913D01*
X193701Y44965D02*
X194276Y44390D01*
X201378D01*
X193701Y44965D02*
Y45768D01*
X208514Y36663D02*
X208760Y36417D01*
X201624Y36663D02*
X208514D01*
X201378Y36909D02*
X201624Y36663D01*
X187057Y30364D02*
X194095D01*
X187008Y30315D02*
X187057Y30364D01*
X150459Y22572D02*
X150492Y22539D01*
X141273Y22572D02*
X150459D01*
X141240Y22605D02*
X141273Y22572D01*
X141010Y14435D02*
X141240Y14206D01*
X132464Y14435D02*
X141010D01*
X132234Y14665D02*
X132464Y14435D01*
X124016Y18159D02*
X124262Y18406D01*
X117963Y18159D02*
X124016D01*
X117717Y17913D02*
X117963Y18159D01*
X150492Y15059D02*
X150541Y15108D01*
D51*
X69159Y38928D02*
X69223Y38992D01*
X69159Y30281D02*
Y38928D01*
X69095Y30217D02*
X69159Y30281D01*
X68903Y39313D02*
X69223Y38992D01*
X68903Y39313D02*
Y47317D01*
X68583Y47638D02*
X68903Y47317D01*
X41061Y30217D02*
X69095D01*
X34663Y36614D02*
X41061Y30217D01*
X30709Y41159D02*
X34449Y37419D01*
Y36614D02*
Y37419D01*
X30709Y41159D02*
Y72441D01*
X34449Y36614D02*
X34663D01*
X80236Y47638D02*
X80709Y48111D01*
X97127D01*
X97402Y48386D01*
X79527Y59252D02*
X79724Y59449D01*
X79282Y59006D02*
X79527Y59252D01*
X67687Y59380D02*
X71526D01*
X71801Y59104D01*
X71900Y59006D01*
X79282D01*
X79724Y59449D02*
X86189D01*
X97402Y58386D02*
X97402Y58386D01*
X87252Y58386D02*
X97402D01*
X86189Y59449D02*
X87252Y58386D01*
X71457Y58760D02*
X71801Y59104D01*
X65354Y61713D02*
X67687Y59380D01*
D52*
X158425Y78386D02*
X195531D01*
X195571Y78347D01*
D53*
X97382Y78366D02*
X97402Y78386D01*
X85453Y78366D02*
X97382D01*
X85433Y78347D02*
X85453Y78366D01*
X183274Y45860D02*
X186129D01*
X160748Y68386D02*
X183274Y45860D01*
X186129D02*
X186221Y45768D01*
X158425Y68386D02*
X160748D01*
X193873Y30586D02*
X194095Y30364D01*
X193873Y30586D02*
Y37328D01*
X193602Y37598D02*
X193873Y37328D01*
D54*
X106299Y24016D02*
X110827D01*
X97402Y32913D02*
Y38386D01*
Y32913D02*
X106299Y24016D01*
D55*
X34449Y16929D02*
D03*
Y36614D02*
D03*
D56*
X-3543Y70787D02*
D03*
D57*
Y60787D02*
D03*
Y50787D02*
D03*
Y40787D02*
D03*
D58*
X67716Y18110D02*
D03*
X79331Y72047D02*
D03*
X72736D02*
D03*
X63484Y70965D02*
D03*
X23228Y54429D02*
D03*
X15551Y47835D02*
D03*
X25984Y65158D02*
D03*
X38189Y66339D02*
D03*
X52953Y80610D02*
D03*
X58169Y52362D02*
D03*
X48031Y56890D02*
D03*
X57776Y36122D02*
D03*
X39764Y48327D02*
D03*
X22441Y45177D02*
D03*
X43012Y22835D02*
D03*
X45276Y10630D02*
D03*
X23425Y11024D02*
D03*
X28051Y25984D02*
D03*
X156890Y15157D02*
D03*
X201341Y49777D02*
D03*
X34646Y9055D02*
D03*
X15748Y11811D02*
D03*
X21260Y64567D02*
D03*
X6299Y45276D02*
D03*
X9843Y91732D02*
D03*
X11024Y82284D02*
D03*
X25984Y84646D02*
D03*
X40945Y85039D02*
D03*
X68898Y83858D02*
D03*
X44882Y73622D02*
D03*
X58661Y64173D02*
D03*
X48819Y41339D02*
D03*
X52756Y22047D02*
D03*
X15748Y37795D02*
D03*
X16535Y24409D02*
D03*
X210236Y47638D02*
D03*
X212598Y20079D02*
D03*
X207087Y16929D02*
D03*
X174803Y35433D02*
D03*
X178347Y45276D02*
D03*
X165748Y93701D02*
D03*
X166535Y83858D02*
D03*
X172047Y65354D02*
D03*
X167323Y54724D02*
D03*
X168504Y40551D02*
D03*
X97244Y25984D02*
D03*
X88189Y52756D02*
D03*
Y64173D02*
D03*
X88976Y72441D02*
D03*
X89764Y82677D02*
D03*
X153937Y29921D02*
D03*
X135827D02*
D03*
X144882D02*
D03*
X117717D02*
D03*
X126772D02*
D03*
X108661D02*
D03*
X127559Y46063D02*
D03*
Y37008D02*
D03*
Y64173D02*
D03*
Y55118D02*
D03*
Y82284D02*
D03*
Y73228D02*
D03*
Y91339D02*
D03*
X145276Y46063D02*
D03*
Y37008D02*
D03*
Y64173D02*
D03*
Y55118D02*
D03*
Y82284D02*
D03*
Y73228D02*
D03*
Y91339D02*
D03*
X108661Y46063D02*
D03*
Y37008D02*
D03*
Y64173D02*
D03*
Y55118D02*
D03*
Y82284D02*
D03*
Y73228D02*
D03*
Y91339D02*
D03*
X87795Y31890D02*
D03*
Y40945D02*
D03*
Y22835D02*
D03*
X91732Y14567D02*
D03*
X82677D02*
D03*
X109843D02*
D03*
X100787D02*
D03*
Y6693D02*
D03*
X109843D02*
D03*
X82677D02*
D03*
X91732D02*
D03*
X64567D02*
D03*
X73622D02*
D03*
X153937Y102756D02*
D03*
X135827D02*
D03*
X144882D02*
D03*
X117717D02*
D03*
X126772D02*
D03*
X99606D02*
D03*
X108661D02*
D03*
X90551D02*
D03*
X85433Y88583D02*
D03*
Y78347D02*
D03*
X82415Y94955D02*
D03*
X64305D02*
D03*
X73360D02*
D03*
X46195D02*
D03*
X55250D02*
D03*
X28084D02*
D03*
X37139D02*
D03*
X18898Y95276D02*
D03*
X82021Y102829D02*
D03*
X63911D02*
D03*
X72966D02*
D03*
X45801D02*
D03*
X54856D02*
D03*
X27691D02*
D03*
X36746D02*
D03*
X18504Y103150D02*
D03*
X164567Y27953D02*
D03*
X173622D02*
D03*
Y20472D02*
D03*
X164567D02*
D03*
X164173Y6299D02*
D03*
X182283D02*
D03*
X173228D02*
D03*
X200394D02*
D03*
X191339D02*
D03*
Y13780D02*
D03*
X200394D02*
D03*
X173228D02*
D03*
X182283D02*
D03*
X164173D02*
D03*
X188583Y85039D02*
D03*
X181102D02*
D03*
X174409D02*
D03*
X187402Y73228D02*
D03*
X180709D02*
D03*
X167717D02*
D03*
X174409D02*
D03*
X182677Y57087D02*
D03*
X194882Y56693D02*
D03*
X209842Y57087D02*
D03*
X211417Y73622D02*
D03*
X211811Y84252D02*
D03*
X210630Y92126D02*
D03*
X210236Y64173D02*
D03*
X192126D02*
D03*
X201181D02*
D03*
X183071D02*
D03*
X182283Y92913D02*
D03*
X173228D02*
D03*
X200394D02*
D03*
X191339D02*
D03*
X190945Y100787D02*
D03*
X200000D02*
D03*
X172835D02*
D03*
X181890D02*
D03*
X163779D02*
D03*
X-7087Y17717D02*
D03*
X-6766Y26903D02*
D03*
X715D02*
D03*
X394Y17717D02*
D03*
X-6693Y83071D02*
D03*
X-6372Y92258D02*
D03*
X1108D02*
D03*
X787Y83071D02*
D03*
X23687Y-860D02*
D03*
X41929Y-1181D02*
D03*
X32874D02*
D03*
X60039D02*
D03*
X50984D02*
D03*
X78150D02*
D03*
X69095D02*
D03*
X96260D02*
D03*
X87205D02*
D03*
X114370D02*
D03*
X105315D02*
D03*
X132480D02*
D03*
X123425D02*
D03*
X150591D02*
D03*
X141535D02*
D03*
X168701D02*
D03*
X159646D02*
D03*
X186811D02*
D03*
X177756D02*
D03*
X195866D02*
D03*
X191663Y-8670D02*
D03*
X200718D02*
D03*
X173553D02*
D03*
X182608D02*
D03*
X155443D02*
D03*
X164498D02*
D03*
X137332D02*
D03*
X146387D02*
D03*
X119222D02*
D03*
X128277D02*
D03*
X101112D02*
D03*
X110167D02*
D03*
X83002D02*
D03*
X92057D02*
D03*
X64891D02*
D03*
X73946D02*
D03*
X46781D02*
D03*
X55836D02*
D03*
X28671D02*
D03*
X37726D02*
D03*
X19484Y-8349D02*
D03*
X218898Y24114D02*
D03*
Y42224D02*
D03*
Y33169D02*
D03*
Y60335D02*
D03*
Y51279D02*
D03*
Y78445D02*
D03*
Y69390D02*
D03*
Y87500D02*
D03*
X226378Y91732D02*
D03*
Y73622D02*
D03*
Y82677D02*
D03*
Y55512D02*
D03*
Y64567D02*
D03*
Y37402D02*
D03*
Y46457D02*
D03*
Y19291D02*
D03*
Y28346D02*
D03*
X18504Y110630D02*
D03*
X36746Y110309D02*
D03*
X27691D02*
D03*
X54856D02*
D03*
X45801D02*
D03*
X72966D02*
D03*
X63911D02*
D03*
X91076D02*
D03*
X82021D02*
D03*
X109187D02*
D03*
X100132D02*
D03*
X127297D02*
D03*
X118242D02*
D03*
X145407D02*
D03*
X136352D02*
D03*
X163517D02*
D03*
X154462D02*
D03*
X181628D02*
D03*
X172573D02*
D03*
X199738D02*
D03*
X190683D02*
D03*
X186746Y117789D02*
D03*
X195669Y117815D02*
D03*
X168636Y117789D02*
D03*
X177691D02*
D03*
X150525D02*
D03*
X159580D02*
D03*
X132415D02*
D03*
X141470D02*
D03*
X114305D02*
D03*
X123360D02*
D03*
X96195D02*
D03*
X105250D02*
D03*
X78084D02*
D03*
X87139D02*
D03*
X59974D02*
D03*
X69029D02*
D03*
X41864D02*
D03*
X50919D02*
D03*
X23754D02*
D03*
X32809D02*
D03*
X65354Y61713D02*
D03*
M02*
