G04*
G04 #@! TF.GenerationSoftware,Altium Limited,Altium Designer,22.3.1 (43)*
G04*
G04 Layer_Color=2752767*
%FSLAX25Y25*%
%MOIN*%
G70*
G04*
G04 #@! TF.SameCoordinates,13010D4F-CA40-4925-A7E6-2A4E1DD476F1*
G04*
G04*
G04 #@! TF.FilePolarity,Positive*
G04*
G01*
G75*
%ADD13C,0.00394*%
%ADD65C,0.00200*%
%ADD66C,0.00267*%
D13*
X6693Y128747D02*
G03*
X-16936Y105118I-0J-23629D01*
G01*
Y5118D02*
G03*
X6693Y-18510I23629J-0D01*
G01*
X213386D02*
G03*
X237014Y5118I0J23629D01*
G01*
X237008Y105118D02*
G03*
X213379Y128747I-23629J0D01*
G01*
X-16929Y5118D02*
X-16929Y105118D01*
X237008Y5118D02*
X237008Y105118D01*
X6693Y-18504D02*
X213386Y-18504D01*
X6693Y128740D02*
X213379Y128740D01*
D65*
X218098Y109043D02*
Y110643D01*
X219698D01*
Y109043D01*
X218098D01*
X-800Y109043D02*
Y110643D01*
X800D01*
Y109043D01*
X-800D01*
Y-800D02*
Y800D01*
X800D01*
Y-800D01*
X-800D01*
X218098D02*
Y800D01*
X219698D01*
Y-800D01*
X218098D01*
X-3543Y69987D02*
X-4343Y71587D01*
X-2743D01*
X-3543Y69987D01*
Y59987D02*
X-4343Y61587D01*
X-2743D01*
X-3543Y59987D01*
Y49987D02*
X-4343Y51587D01*
X-2743D01*
X-3543Y49987D01*
Y39987D02*
X-4343Y41587D01*
X-2743D01*
X-3543Y39987D01*
X67716Y17310D02*
X68116Y17710D01*
X68516D01*
X68116Y18110D01*
X68516Y18510D01*
X68116D01*
X67716Y18910D01*
X67317Y18510D01*
X66917D01*
X67317Y18110D01*
X66917Y17710D01*
X67317D01*
X67716Y17310D01*
X79331Y71247D02*
X79731Y71647D01*
X80131D01*
X79731Y72047D01*
X80131Y72447D01*
X79731D01*
X79331Y72847D01*
X78931Y72447D01*
X78531D01*
X78931Y72047D01*
X78531Y71647D01*
X78931D01*
X79331Y71247D01*
X72736D02*
X73136Y71647D01*
X73536D01*
X73136Y72047D01*
X73536Y72447D01*
X73136D01*
X72736Y72847D01*
X72336Y72447D01*
X71936D01*
X72336Y72047D01*
X71936Y71647D01*
X72336D01*
X72736Y71247D01*
X63484Y70165D02*
X63884Y70565D01*
X64284D01*
X63884Y70965D01*
X64284Y71365D01*
X63884D01*
X63484Y71765D01*
X63084Y71365D01*
X62684D01*
X63084Y70965D01*
X62684Y70565D01*
X63084D01*
X63484Y70165D01*
X23228Y53629D02*
X23628Y54029D01*
X24028D01*
X23628Y54429D01*
X24028Y54829D01*
X23628D01*
X23228Y55229D01*
X22828Y54829D01*
X22428D01*
X22828Y54429D01*
X22428Y54029D01*
X22828D01*
X23228Y53629D01*
X15551Y47035D02*
X15951Y47435D01*
X16351D01*
X15951Y47835D01*
X16351Y48235D01*
X15951D01*
X15551Y48635D01*
X15151Y48235D01*
X14751D01*
X15151Y47835D01*
X14751Y47435D01*
X15151D01*
X15551Y47035D01*
X25984Y64358D02*
X26384Y64758D01*
X26784D01*
X26384Y65158D01*
X26784Y65557D01*
X26384D01*
X25984Y65957D01*
X25584Y65557D01*
X25184D01*
X25584Y65158D01*
X25184Y64758D01*
X25584D01*
X25984Y64358D01*
X38189Y65539D02*
X38589Y65939D01*
X38989D01*
X38589Y66339D01*
X38989Y66739D01*
X38589D01*
X38189Y67139D01*
X37789Y66739D01*
X37389D01*
X37789Y66339D01*
X37389Y65939D01*
X37789D01*
X38189Y65539D01*
X52953Y79810D02*
X53353Y80210D01*
X53753D01*
X53353Y80610D01*
X53753Y81010D01*
X53353D01*
X52953Y81410D01*
X52553Y81010D01*
X52153D01*
X52553Y80610D01*
X52153Y80210D01*
X52553D01*
X52953Y79810D01*
X58169Y51562D02*
X58569Y51962D01*
X58969D01*
X58569Y52362D01*
X58969Y52762D01*
X58569D01*
X58169Y53162D01*
X57769Y52762D01*
X57369D01*
X57769Y52362D01*
X57369Y51962D01*
X57769D01*
X58169Y51562D01*
X48031Y56090D02*
X48432Y56490D01*
X48831D01*
X48432Y56890D01*
X48831Y57290D01*
X48432D01*
X48031Y57690D01*
X47631Y57290D01*
X47232D01*
X47631Y56890D01*
X47232Y56490D01*
X47631D01*
X48031Y56090D01*
X57776Y35322D02*
X58176Y35722D01*
X58576D01*
X58176Y36122D01*
X58576Y36522D01*
X58176D01*
X57776Y36922D01*
X57376Y36522D01*
X56976D01*
X57376Y36122D01*
X56976Y35722D01*
X57376D01*
X57776Y35322D01*
X39764Y47527D02*
X40164Y47927D01*
X40564D01*
X40164Y48327D01*
X40564Y48727D01*
X40164D01*
X39764Y49127D01*
X39364Y48727D01*
X38964D01*
X39364Y48327D01*
X38964Y47927D01*
X39364D01*
X39764Y47527D01*
X22441Y44377D02*
X22841Y44777D01*
X23241D01*
X22841Y45177D01*
X23241Y45577D01*
X22841D01*
X22441Y45977D01*
X22041Y45577D01*
X21641D01*
X22041Y45177D01*
X21641Y44777D01*
X22041D01*
X22441Y44377D01*
X43012Y22035D02*
X43412Y22435D01*
X43812D01*
X43412Y22835D01*
X43812Y23235D01*
X43412D01*
X43012Y23635D01*
X42612Y23235D01*
X42212D01*
X42612Y22835D01*
X42212Y22435D01*
X42612D01*
X43012Y22035D01*
X45276Y9830D02*
X45676Y10230D01*
X46076D01*
X45676Y10630D01*
X46076Y11030D01*
X45676D01*
X45276Y11430D01*
X44876Y11030D01*
X44476D01*
X44876Y10630D01*
X44476Y10230D01*
X44876D01*
X45276Y9830D01*
X23425Y10224D02*
X23825Y10624D01*
X24225D01*
X23825Y11024D01*
X24225Y11424D01*
X23825D01*
X23425Y11824D01*
X23025Y11424D01*
X22625D01*
X23025Y11024D01*
X22625Y10624D01*
X23025D01*
X23425Y10224D01*
X28051Y25184D02*
X28451Y25584D01*
X28851D01*
X28451Y25984D01*
X28851Y26384D01*
X28451D01*
X28051Y26784D01*
X27651Y26384D01*
X27251D01*
X27651Y25984D01*
X27251Y25584D01*
X27651D01*
X28051Y25184D01*
X156890Y14357D02*
X157290Y14758D01*
X157690D01*
X157290Y15157D01*
X157690Y15558D01*
X157290D01*
X156890Y15958D01*
X156490Y15558D01*
X156090D01*
X156490Y15157D01*
X156090Y14758D01*
X156490D01*
X156890Y14357D01*
X201341Y48977D02*
X201741Y49377D01*
X202141D01*
X201741Y49777D01*
X202141Y50177D01*
X201741D01*
X201341Y50577D01*
X200941Y50177D01*
X200541D01*
X200941Y49777D01*
X200541Y49377D01*
X200941D01*
X201341Y48977D01*
X34646Y8255D02*
X35046Y8655D01*
X35446D01*
X35046Y9055D01*
X35446Y9455D01*
X35046D01*
X34646Y9855D01*
X34246Y9455D01*
X33846D01*
X34246Y9055D01*
X33846Y8655D01*
X34246D01*
X34646Y8255D01*
X15748Y11011D02*
X16148Y11411D01*
X16548D01*
X16148Y11811D01*
X16548Y12211D01*
X16148D01*
X15748Y12611D01*
X15348Y12211D01*
X14948D01*
X15348Y11811D01*
X14948Y11411D01*
X15348D01*
X15748Y11011D01*
X21260Y63767D02*
X21660Y64167D01*
X22060D01*
X21660Y64567D01*
X22060Y64967D01*
X21660D01*
X21260Y65367D01*
X20860Y64967D01*
X20460D01*
X20860Y64567D01*
X20460Y64167D01*
X20860D01*
X21260Y63767D01*
X6299Y44476D02*
X6699Y44876D01*
X7099D01*
X6699Y45276D01*
X7099Y45676D01*
X6699D01*
X6299Y46076D01*
X5899Y45676D01*
X5499D01*
X5899Y45276D01*
X5499Y44876D01*
X5899D01*
X6299Y44476D01*
X9843Y90932D02*
X10243Y91332D01*
X10643D01*
X10243Y91732D01*
X10643Y92132D01*
X10243D01*
X9843Y92532D01*
X9443Y92132D01*
X9042D01*
X9443Y91732D01*
X9042Y91332D01*
X9443D01*
X9843Y90932D01*
X11024Y81484D02*
X11424Y81884D01*
X11824D01*
X11424Y82284D01*
X11824Y82683D01*
X11424D01*
X11024Y83083D01*
X10624Y82683D01*
X10224D01*
X10624Y82284D01*
X10224Y81884D01*
X10624D01*
X11024Y81484D01*
X25984Y83846D02*
X26384Y84246D01*
X26784D01*
X26384Y84646D01*
X26784Y85046D01*
X26384D01*
X25984Y85446D01*
X25584Y85046D01*
X25184D01*
X25584Y84646D01*
X25184Y84246D01*
X25584D01*
X25984Y83846D01*
X40945Y84239D02*
X41345Y84639D01*
X41745D01*
X41345Y85039D01*
X41745Y85439D01*
X41345D01*
X40945Y85839D01*
X40545Y85439D01*
X40145D01*
X40545Y85039D01*
X40145Y84639D01*
X40545D01*
X40945Y84239D01*
X68898Y83058D02*
X69298Y83458D01*
X69698D01*
X69298Y83858D01*
X69698Y84258D01*
X69298D01*
X68898Y84658D01*
X68498Y84258D01*
X68098D01*
X68498Y83858D01*
X68098Y83458D01*
X68498D01*
X68898Y83058D01*
X44882Y72822D02*
X45282Y73222D01*
X45682D01*
X45282Y73622D01*
X45682Y74022D01*
X45282D01*
X44882Y74422D01*
X44482Y74022D01*
X44082D01*
X44482Y73622D01*
X44082Y73222D01*
X44482D01*
X44882Y72822D01*
X58661Y63373D02*
X59061Y63773D01*
X59461D01*
X59061Y64173D01*
X59461Y64573D01*
X59061D01*
X58661Y64973D01*
X58261Y64573D01*
X57861D01*
X58261Y64173D01*
X57861Y63773D01*
X58261D01*
X58661Y63373D01*
X48819Y40539D02*
X49219Y40939D01*
X49619D01*
X49219Y41339D01*
X49619Y41739D01*
X49219D01*
X48819Y42139D01*
X48419Y41739D01*
X48019D01*
X48419Y41339D01*
X48019Y40939D01*
X48419D01*
X48819Y40539D01*
X52756Y21247D02*
X53156Y21647D01*
X53556D01*
X53156Y22047D01*
X53556Y22447D01*
X53156D01*
X52756Y22847D01*
X52356Y22447D01*
X51956D01*
X52356Y22047D01*
X51956Y21647D01*
X52356D01*
X52756Y21247D01*
X15748Y36995D02*
X16148Y37395D01*
X16548D01*
X16148Y37795D01*
X16548Y38195D01*
X16148D01*
X15748Y38595D01*
X15348Y38195D01*
X14948D01*
X15348Y37795D01*
X14948Y37395D01*
X15348D01*
X15748Y36995D01*
X16535Y23609D02*
X16935Y24010D01*
X17335D01*
X16935Y24409D01*
X17335Y24810D01*
X16935D01*
X16535Y25210D01*
X16135Y24810D01*
X15735D01*
X16135Y24409D01*
X15735Y24010D01*
X16135D01*
X16535Y23609D01*
X210236Y46838D02*
X210636Y47238D01*
X211036D01*
X210636Y47638D01*
X211036Y48038D01*
X210636D01*
X210236Y48438D01*
X209836Y48038D01*
X209436D01*
X209836Y47638D01*
X209436Y47238D01*
X209836D01*
X210236Y46838D01*
X212598Y19279D02*
X212998Y19679D01*
X213398D01*
X212998Y20079D01*
X213398Y20479D01*
X212998D01*
X212598Y20879D01*
X212198Y20479D01*
X211798D01*
X212198Y20079D01*
X211798Y19679D01*
X212198D01*
X212598Y19279D01*
X207087Y16129D02*
X207487Y16529D01*
X207887D01*
X207487Y16929D01*
X207887Y17329D01*
X207487D01*
X207087Y17729D01*
X206687Y17329D01*
X206287D01*
X206687Y16929D01*
X206287Y16529D01*
X206687D01*
X207087Y16129D01*
X174803Y34633D02*
X175203Y35033D01*
X175603D01*
X175203Y35433D01*
X175603Y35833D01*
X175203D01*
X174803Y36233D01*
X174403Y35833D01*
X174003D01*
X174403Y35433D01*
X174003Y35033D01*
X174403D01*
X174803Y34633D01*
X178347Y44476D02*
X178746Y44876D01*
X179147D01*
X178746Y45276D01*
X179147Y45676D01*
X178746D01*
X178347Y46076D01*
X177946Y45676D01*
X177547D01*
X177946Y45276D01*
X177547Y44876D01*
X177946D01*
X178347Y44476D01*
X165748Y92901D02*
X166148Y93301D01*
X166548D01*
X166148Y93701D01*
X166548Y94101D01*
X166148D01*
X165748Y94501D01*
X165348Y94101D01*
X164948D01*
X165348Y93701D01*
X164948Y93301D01*
X165348D01*
X165748Y92901D01*
X166535Y83058D02*
X166935Y83458D01*
X167335D01*
X166935Y83858D01*
X167335Y84258D01*
X166935D01*
X166535Y84658D01*
X166135Y84258D01*
X165735D01*
X166135Y83858D01*
X165735Y83458D01*
X166135D01*
X166535Y83058D01*
X172047Y64554D02*
X172447Y64954D01*
X172847D01*
X172447Y65354D01*
X172847Y65754D01*
X172447D01*
X172047Y66154D01*
X171647Y65754D01*
X171247D01*
X171647Y65354D01*
X171247Y64954D01*
X171647D01*
X172047Y64554D01*
X167323Y53924D02*
X167723Y54324D01*
X168123D01*
X167723Y54724D01*
X168123Y55124D01*
X167723D01*
X167323Y55524D01*
X166923Y55124D01*
X166523D01*
X166923Y54724D01*
X166523Y54324D01*
X166923D01*
X167323Y53924D01*
X168504Y39751D02*
X168904Y40151D01*
X169304D01*
X168904Y40551D01*
X169304Y40951D01*
X168904D01*
X168504Y41351D01*
X168104Y40951D01*
X167704D01*
X168104Y40551D01*
X167704Y40151D01*
X168104D01*
X168504Y39751D01*
X97244Y25184D02*
X97644Y25584D01*
X98044D01*
X97644Y25984D01*
X98044Y26384D01*
X97644D01*
X97244Y26784D01*
X96844Y26384D01*
X96444D01*
X96844Y25984D01*
X96444Y25584D01*
X96844D01*
X97244Y25184D01*
X88189Y51956D02*
X88589Y52356D01*
X88989D01*
X88589Y52756D01*
X88989Y53156D01*
X88589D01*
X88189Y53556D01*
X87789Y53156D01*
X87389D01*
X87789Y52756D01*
X87389Y52356D01*
X87789D01*
X88189Y51956D01*
Y63373D02*
X88589Y63773D01*
X88989D01*
X88589Y64173D01*
X88989Y64573D01*
X88589D01*
X88189Y64973D01*
X87789Y64573D01*
X87389D01*
X87789Y64173D01*
X87389Y63773D01*
X87789D01*
X88189Y63373D01*
X88976Y71641D02*
X89376Y72041D01*
X89776D01*
X89376Y72441D01*
X89776Y72841D01*
X89376D01*
X88976Y73241D01*
X88576Y72841D01*
X88176D01*
X88576Y72441D01*
X88176Y72041D01*
X88576D01*
X88976Y71641D01*
X89764Y81877D02*
X90164Y82277D01*
X90564D01*
X90164Y82677D01*
X90564Y83077D01*
X90164D01*
X89764Y83477D01*
X89364Y83077D01*
X88964D01*
X89364Y82677D01*
X88964Y82277D01*
X89364D01*
X89764Y81877D01*
X153937Y29121D02*
X154337Y29521D01*
X154737D01*
X154337Y29921D01*
X154737Y30321D01*
X154337D01*
X153937Y30721D01*
X153537Y30321D01*
X153137D01*
X153537Y29921D01*
X153137Y29521D01*
X153537D01*
X153937Y29121D01*
X135827D02*
X136227Y29521D01*
X136627D01*
X136227Y29921D01*
X136627Y30321D01*
X136227D01*
X135827Y30721D01*
X135427Y30321D01*
X135027D01*
X135427Y29921D01*
X135027Y29521D01*
X135427D01*
X135827Y29121D01*
X144882D02*
X145282Y29521D01*
X145682D01*
X145282Y29921D01*
X145682Y30321D01*
X145282D01*
X144882Y30721D01*
X144482Y30321D01*
X144082D01*
X144482Y29921D01*
X144082Y29521D01*
X144482D01*
X144882Y29121D01*
X117717D02*
X118116Y29521D01*
X118517D01*
X118116Y29921D01*
X118517Y30321D01*
X118116D01*
X117717Y30721D01*
X117316Y30321D01*
X116917D01*
X117316Y29921D01*
X116917Y29521D01*
X117316D01*
X117717Y29121D01*
X126772D02*
X127172Y29521D01*
X127572D01*
X127172Y29921D01*
X127572Y30321D01*
X127172D01*
X126772Y30721D01*
X126372Y30321D01*
X125972D01*
X126372Y29921D01*
X125972Y29521D01*
X126372D01*
X126772Y29121D01*
X108661D02*
X109061Y29521D01*
X109461D01*
X109061Y29921D01*
X109461Y30321D01*
X109061D01*
X108661Y30721D01*
X108261Y30321D01*
X107861D01*
X108261Y29921D01*
X107861Y29521D01*
X108261D01*
X108661Y29121D01*
X127559Y45263D02*
X127959Y45663D01*
X128359D01*
X127959Y46063D01*
X128359Y46463D01*
X127959D01*
X127559Y46863D01*
X127159Y46463D01*
X126759D01*
X127159Y46063D01*
X126759Y45663D01*
X127159D01*
X127559Y45263D01*
Y36208D02*
X127959Y36608D01*
X128359D01*
X127959Y37008D01*
X128359Y37408D01*
X127959D01*
X127559Y37808D01*
X127159Y37408D01*
X126759D01*
X127159Y37008D01*
X126759Y36608D01*
X127159D01*
X127559Y36208D01*
Y63373D02*
X127959Y63773D01*
X128359D01*
X127959Y64173D01*
X128359Y64573D01*
X127959D01*
X127559Y64973D01*
X127159Y64573D01*
X126759D01*
X127159Y64173D01*
X126759Y63773D01*
X127159D01*
X127559Y63373D01*
Y54318D02*
X127959Y54718D01*
X128359D01*
X127959Y55118D01*
X128359Y55518D01*
X127959D01*
X127559Y55918D01*
X127159Y55518D01*
X126759D01*
X127159Y55118D01*
X126759Y54718D01*
X127159D01*
X127559Y54318D01*
Y81484D02*
X127959Y81884D01*
X128359D01*
X127959Y82284D01*
X128359Y82683D01*
X127959D01*
X127559Y83083D01*
X127159Y82683D01*
X126759D01*
X127159Y82284D01*
X126759Y81884D01*
X127159D01*
X127559Y81484D01*
Y72428D02*
X127959Y72828D01*
X128359D01*
X127959Y73228D01*
X128359Y73628D01*
X127959D01*
X127559Y74028D01*
X127159Y73628D01*
X126759D01*
X127159Y73228D01*
X126759Y72828D01*
X127159D01*
X127559Y72428D01*
Y90539D02*
X127959Y90939D01*
X128359D01*
X127959Y91339D01*
X128359Y91739D01*
X127959D01*
X127559Y92139D01*
X127159Y91739D01*
X126759D01*
X127159Y91339D01*
X126759Y90939D01*
X127159D01*
X127559Y90539D01*
X145276Y45263D02*
X145676Y45663D01*
X146076D01*
X145676Y46063D01*
X146076Y46463D01*
X145676D01*
X145276Y46863D01*
X144876Y46463D01*
X144476D01*
X144876Y46063D01*
X144476Y45663D01*
X144876D01*
X145276Y45263D01*
Y36208D02*
X145676Y36608D01*
X146076D01*
X145676Y37008D01*
X146076Y37408D01*
X145676D01*
X145276Y37808D01*
X144876Y37408D01*
X144476D01*
X144876Y37008D01*
X144476Y36608D01*
X144876D01*
X145276Y36208D01*
Y63373D02*
X145676Y63773D01*
X146076D01*
X145676Y64173D01*
X146076Y64573D01*
X145676D01*
X145276Y64973D01*
X144876Y64573D01*
X144476D01*
X144876Y64173D01*
X144476Y63773D01*
X144876D01*
X145276Y63373D01*
Y54318D02*
X145676Y54718D01*
X146076D01*
X145676Y55118D01*
X146076Y55518D01*
X145676D01*
X145276Y55918D01*
X144876Y55518D01*
X144476D01*
X144876Y55118D01*
X144476Y54718D01*
X144876D01*
X145276Y54318D01*
Y81484D02*
X145676Y81884D01*
X146076D01*
X145676Y82284D01*
X146076Y82683D01*
X145676D01*
X145276Y83083D01*
X144876Y82683D01*
X144476D01*
X144876Y82284D01*
X144476Y81884D01*
X144876D01*
X145276Y81484D01*
Y72428D02*
X145676Y72828D01*
X146076D01*
X145676Y73228D01*
X146076Y73628D01*
X145676D01*
X145276Y74028D01*
X144876Y73628D01*
X144476D01*
X144876Y73228D01*
X144476Y72828D01*
X144876D01*
X145276Y72428D01*
Y90539D02*
X145676Y90939D01*
X146076D01*
X145676Y91339D01*
X146076Y91739D01*
X145676D01*
X145276Y92139D01*
X144876Y91739D01*
X144476D01*
X144876Y91339D01*
X144476Y90939D01*
X144876D01*
X145276Y90539D01*
X108661Y45263D02*
X109061Y45663D01*
X109461D01*
X109061Y46063D01*
X109461Y46463D01*
X109061D01*
X108661Y46863D01*
X108261Y46463D01*
X107861D01*
X108261Y46063D01*
X107861Y45663D01*
X108261D01*
X108661Y45263D01*
Y36208D02*
X109061Y36608D01*
X109461D01*
X109061Y37008D01*
X109461Y37408D01*
X109061D01*
X108661Y37808D01*
X108261Y37408D01*
X107861D01*
X108261Y37008D01*
X107861Y36608D01*
X108261D01*
X108661Y36208D01*
Y63373D02*
X109061Y63773D01*
X109461D01*
X109061Y64173D01*
X109461Y64573D01*
X109061D01*
X108661Y64973D01*
X108261Y64573D01*
X107861D01*
X108261Y64173D01*
X107861Y63773D01*
X108261D01*
X108661Y63373D01*
Y54318D02*
X109061Y54718D01*
X109461D01*
X109061Y55118D01*
X109461Y55518D01*
X109061D01*
X108661Y55918D01*
X108261Y55518D01*
X107861D01*
X108261Y55118D01*
X107861Y54718D01*
X108261D01*
X108661Y54318D01*
Y81484D02*
X109061Y81884D01*
X109461D01*
X109061Y82284D01*
X109461Y82683D01*
X109061D01*
X108661Y83083D01*
X108261Y82683D01*
X107861D01*
X108261Y82284D01*
X107861Y81884D01*
X108261D01*
X108661Y81484D01*
Y72428D02*
X109061Y72828D01*
X109461D01*
X109061Y73228D01*
X109461Y73628D01*
X109061D01*
X108661Y74028D01*
X108261Y73628D01*
X107861D01*
X108261Y73228D01*
X107861Y72828D01*
X108261D01*
X108661Y72428D01*
Y90539D02*
X109061Y90939D01*
X109461D01*
X109061Y91339D01*
X109461Y91739D01*
X109061D01*
X108661Y92139D01*
X108261Y91739D01*
X107861D01*
X108261Y91339D01*
X107861Y90939D01*
X108261D01*
X108661Y90539D01*
X87795Y31090D02*
X88195Y31490D01*
X88595D01*
X88195Y31890D01*
X88595Y32290D01*
X88195D01*
X87795Y32690D01*
X87395Y32290D01*
X86995D01*
X87395Y31890D01*
X86995Y31490D01*
X87395D01*
X87795Y31090D01*
Y40145D02*
X88195Y40545D01*
X88595D01*
X88195Y40945D01*
X88595Y41345D01*
X88195D01*
X87795Y41745D01*
X87395Y41345D01*
X86995D01*
X87395Y40945D01*
X86995Y40545D01*
X87395D01*
X87795Y40145D01*
Y22035D02*
X88195Y22435D01*
X88595D01*
X88195Y22835D01*
X88595Y23235D01*
X88195D01*
X87795Y23635D01*
X87395Y23235D01*
X86995D01*
X87395Y22835D01*
X86995Y22435D01*
X87395D01*
X87795Y22035D01*
X91732Y13767D02*
X92132Y14167D01*
X92532D01*
X92132Y14567D01*
X92532Y14967D01*
X92132D01*
X91732Y15367D01*
X91332Y14967D01*
X90932D01*
X91332Y14567D01*
X90932Y14167D01*
X91332D01*
X91732Y13767D01*
X82677D02*
X83077Y14167D01*
X83477D01*
X83077Y14567D01*
X83477Y14967D01*
X83077D01*
X82677Y15367D01*
X82277Y14967D01*
X81877D01*
X82277Y14567D01*
X81877Y14167D01*
X82277D01*
X82677Y13767D01*
X109843D02*
X110242Y14167D01*
X110643D01*
X110242Y14567D01*
X110643Y14967D01*
X110242D01*
X109843Y15367D01*
X109442Y14967D01*
X109043D01*
X109442Y14567D01*
X109043Y14167D01*
X109442D01*
X109843Y13767D01*
X100787D02*
X101187Y14167D01*
X101587D01*
X101187Y14567D01*
X101587Y14967D01*
X101187D01*
X100787Y15367D01*
X100387Y14967D01*
X99987D01*
X100387Y14567D01*
X99987Y14167D01*
X100387D01*
X100787Y13767D01*
Y5893D02*
X101187Y6293D01*
X101587D01*
X101187Y6693D01*
X101587Y7093D01*
X101187D01*
X100787Y7493D01*
X100387Y7093D01*
X99987D01*
X100387Y6693D01*
X99987Y6293D01*
X100387D01*
X100787Y5893D01*
X109843D02*
X110242Y6293D01*
X110643D01*
X110242Y6693D01*
X110643Y7093D01*
X110242D01*
X109843Y7493D01*
X109442Y7093D01*
X109043D01*
X109442Y6693D01*
X109043Y6293D01*
X109442D01*
X109843Y5893D01*
X82677D02*
X83077Y6293D01*
X83477D01*
X83077Y6693D01*
X83477Y7093D01*
X83077D01*
X82677Y7493D01*
X82277Y7093D01*
X81877D01*
X82277Y6693D01*
X81877Y6293D01*
X82277D01*
X82677Y5893D01*
X91732D02*
X92132Y6293D01*
X92532D01*
X92132Y6693D01*
X92532Y7093D01*
X92132D01*
X91732Y7493D01*
X91332Y7093D01*
X90932D01*
X91332Y6693D01*
X90932Y6293D01*
X91332D01*
X91732Y5893D01*
X64567D02*
X64967Y6293D01*
X65367D01*
X64967Y6693D01*
X65367Y7093D01*
X64967D01*
X64567Y7493D01*
X64167Y7093D01*
X63767D01*
X64167Y6693D01*
X63767Y6293D01*
X64167D01*
X64567Y5893D01*
X73622D02*
X74022Y6293D01*
X74422D01*
X74022Y6693D01*
X74422Y7093D01*
X74022D01*
X73622Y7493D01*
X73222Y7093D01*
X72822D01*
X73222Y6693D01*
X72822Y6293D01*
X73222D01*
X73622Y5893D01*
X153937Y101956D02*
X154337Y102356D01*
X154737D01*
X154337Y102756D01*
X154737Y103156D01*
X154337D01*
X153937Y103556D01*
X153537Y103156D01*
X153137D01*
X153537Y102756D01*
X153137Y102356D01*
X153537D01*
X153937Y101956D01*
X135827D02*
X136227Y102356D01*
X136627D01*
X136227Y102756D01*
X136627Y103156D01*
X136227D01*
X135827Y103556D01*
X135427Y103156D01*
X135027D01*
X135427Y102756D01*
X135027Y102356D01*
X135427D01*
X135827Y101956D01*
X144882D02*
X145282Y102356D01*
X145682D01*
X145282Y102756D01*
X145682Y103156D01*
X145282D01*
X144882Y103556D01*
X144482Y103156D01*
X144082D01*
X144482Y102756D01*
X144082Y102356D01*
X144482D01*
X144882Y101956D01*
X117717D02*
X118116Y102356D01*
X118517D01*
X118116Y102756D01*
X118517Y103156D01*
X118116D01*
X117717Y103556D01*
X117316Y103156D01*
X116917D01*
X117316Y102756D01*
X116917Y102356D01*
X117316D01*
X117717Y101956D01*
X126772D02*
X127172Y102356D01*
X127572D01*
X127172Y102756D01*
X127572Y103156D01*
X127172D01*
X126772Y103556D01*
X126372Y103156D01*
X125972D01*
X126372Y102756D01*
X125972Y102356D01*
X126372D01*
X126772Y101956D01*
X99606D02*
X100006Y102356D01*
X100406D01*
X100006Y102756D01*
X100406Y103156D01*
X100006D01*
X99606Y103556D01*
X99206Y103156D01*
X98806D01*
X99206Y102756D01*
X98806Y102356D01*
X99206D01*
X99606Y101956D01*
X108661D02*
X109061Y102356D01*
X109461D01*
X109061Y102756D01*
X109461Y103156D01*
X109061D01*
X108661Y103556D01*
X108261Y103156D01*
X107861D01*
X108261Y102756D01*
X107861Y102356D01*
X108261D01*
X108661Y101956D01*
X90551D02*
X90951Y102356D01*
X91351D01*
X90951Y102756D01*
X91351Y103156D01*
X90951D01*
X90551Y103556D01*
X90151Y103156D01*
X89751D01*
X90151Y102756D01*
X89751Y102356D01*
X90151D01*
X90551Y101956D01*
X85433Y87783D02*
X85833Y88183D01*
X86233D01*
X85833Y88583D01*
X86233Y88983D01*
X85833D01*
X85433Y89383D01*
X85033Y88983D01*
X84633D01*
X85033Y88583D01*
X84633Y88183D01*
X85033D01*
X85433Y87783D01*
Y77547D02*
X85833Y77947D01*
X86233D01*
X85833Y78347D01*
X86233Y78746D01*
X85833D01*
X85433Y79146D01*
X85033Y78746D01*
X84633D01*
X85033Y78347D01*
X84633Y77947D01*
X85033D01*
X85433Y77547D01*
X82415Y94155D02*
X82815Y94555D01*
X83215D01*
X82815Y94955D01*
X83215Y95355D01*
X82815D01*
X82415Y95755D01*
X82015Y95355D01*
X81615D01*
X82015Y94955D01*
X81615Y94555D01*
X82015D01*
X82415Y94155D01*
X64305D02*
X64705Y94555D01*
X65105D01*
X64705Y94955D01*
X65105Y95355D01*
X64705D01*
X64305Y95755D01*
X63905Y95355D01*
X63505D01*
X63905Y94955D01*
X63505Y94555D01*
X63905D01*
X64305Y94155D01*
X73360D02*
X73760Y94555D01*
X74160D01*
X73760Y94955D01*
X74160Y95355D01*
X73760D01*
X73360Y95755D01*
X72960Y95355D01*
X72560D01*
X72960Y94955D01*
X72560Y94555D01*
X72960D01*
X73360Y94155D01*
X46195D02*
X46595Y94555D01*
X46995D01*
X46595Y94955D01*
X46995Y95355D01*
X46595D01*
X46195Y95755D01*
X45795Y95355D01*
X45395D01*
X45795Y94955D01*
X45395Y94555D01*
X45795D01*
X46195Y94155D01*
X55250D02*
X55650Y94555D01*
X56050D01*
X55650Y94955D01*
X56050Y95355D01*
X55650D01*
X55250Y95755D01*
X54850Y95355D01*
X54450D01*
X54850Y94955D01*
X54450Y94555D01*
X54850D01*
X55250Y94155D01*
X28084D02*
X28484Y94555D01*
X28884D01*
X28484Y94955D01*
X28884Y95355D01*
X28484D01*
X28084Y95755D01*
X27684Y95355D01*
X27284D01*
X27684Y94955D01*
X27284Y94555D01*
X27684D01*
X28084Y94155D01*
X37139D02*
X37539Y94555D01*
X37940D01*
X37539Y94955D01*
X37940Y95355D01*
X37539D01*
X37139Y95755D01*
X36740Y95355D01*
X36340D01*
X36740Y94955D01*
X36340Y94555D01*
X36740D01*
X37139Y94155D01*
X18898Y94476D02*
X19298Y94876D01*
X19698D01*
X19298Y95276D01*
X19698Y95676D01*
X19298D01*
X18898Y96076D01*
X18498Y95676D01*
X18098D01*
X18498Y95276D01*
X18098Y94876D01*
X18498D01*
X18898Y94476D01*
X82021Y102029D02*
X82421Y102429D01*
X82821D01*
X82421Y102829D01*
X82821Y103229D01*
X82421D01*
X82021Y103629D01*
X81621Y103229D01*
X81221D01*
X81621Y102829D01*
X81221Y102429D01*
X81621D01*
X82021Y102029D01*
X63911D02*
X64311Y102429D01*
X64711D01*
X64311Y102829D01*
X64711Y103229D01*
X64311D01*
X63911Y103629D01*
X63511Y103229D01*
X63111D01*
X63511Y102829D01*
X63111Y102429D01*
X63511D01*
X63911Y102029D01*
X72966D02*
X73366Y102429D01*
X73766D01*
X73366Y102829D01*
X73766Y103229D01*
X73366D01*
X72966Y103629D01*
X72566Y103229D01*
X72166D01*
X72566Y102829D01*
X72166Y102429D01*
X72566D01*
X72966Y102029D01*
X45801D02*
X46201Y102429D01*
X46601D01*
X46201Y102829D01*
X46601Y103229D01*
X46201D01*
X45801Y103629D01*
X45401Y103229D01*
X45001D01*
X45401Y102829D01*
X45001Y102429D01*
X45401D01*
X45801Y102029D01*
X54856D02*
X55256Y102429D01*
X55656D01*
X55256Y102829D01*
X55656Y103229D01*
X55256D01*
X54856Y103629D01*
X54456Y103229D01*
X54056D01*
X54456Y102829D01*
X54056Y102429D01*
X54456D01*
X54856Y102029D01*
X27691D02*
X28091Y102429D01*
X28491D01*
X28091Y102829D01*
X28491Y103229D01*
X28091D01*
X27691Y103629D01*
X27291Y103229D01*
X26891D01*
X27291Y102829D01*
X26891Y102429D01*
X27291D01*
X27691Y102029D01*
X36746D02*
X37146Y102429D01*
X37546D01*
X37146Y102829D01*
X37546Y103229D01*
X37146D01*
X36746Y103629D01*
X36346Y103229D01*
X35946D01*
X36346Y102829D01*
X35946Y102429D01*
X36346D01*
X36746Y102029D01*
X18504Y102350D02*
X18904Y102750D01*
X19304D01*
X18904Y103150D01*
X19304Y103550D01*
X18904D01*
X18504Y103950D01*
X18104Y103550D01*
X17704D01*
X18104Y103150D01*
X17704Y102750D01*
X18104D01*
X18504Y102350D01*
X164567Y27153D02*
X164967Y27553D01*
X165367D01*
X164967Y27953D01*
X165367Y28353D01*
X164967D01*
X164567Y28753D01*
X164167Y28353D01*
X163767D01*
X164167Y27953D01*
X163767Y27553D01*
X164167D01*
X164567Y27153D01*
X173622D02*
X174022Y27553D01*
X174422D01*
X174022Y27953D01*
X174422Y28353D01*
X174022D01*
X173622Y28753D01*
X173222Y28353D01*
X172822D01*
X173222Y27953D01*
X172822Y27553D01*
X173222D01*
X173622Y27153D01*
Y19672D02*
X174022Y20072D01*
X174422D01*
X174022Y20472D01*
X174422Y20872D01*
X174022D01*
X173622Y21272D01*
X173222Y20872D01*
X172822D01*
X173222Y20472D01*
X172822Y20072D01*
X173222D01*
X173622Y19672D01*
X164567D02*
X164967Y20072D01*
X165367D01*
X164967Y20472D01*
X165367Y20872D01*
X164967D01*
X164567Y21272D01*
X164167Y20872D01*
X163767D01*
X164167Y20472D01*
X163767Y20072D01*
X164167D01*
X164567Y19672D01*
X164173Y5499D02*
X164573Y5899D01*
X164973D01*
X164573Y6299D01*
X164973Y6699D01*
X164573D01*
X164173Y7099D01*
X163773Y6699D01*
X163373D01*
X163773Y6299D01*
X163373Y5899D01*
X163773D01*
X164173Y5499D01*
X182283D02*
X182684Y5899D01*
X183083D01*
X182684Y6299D01*
X183083Y6699D01*
X182684D01*
X182283Y7099D01*
X181884Y6699D01*
X181483D01*
X181884Y6299D01*
X181483Y5899D01*
X181884D01*
X182283Y5499D01*
X173228D02*
X173628Y5899D01*
X174028D01*
X173628Y6299D01*
X174028Y6699D01*
X173628D01*
X173228Y7099D01*
X172828Y6699D01*
X172428D01*
X172828Y6299D01*
X172428Y5899D01*
X172828D01*
X173228Y5499D01*
X200394D02*
X200794Y5899D01*
X201194D01*
X200794Y6299D01*
X201194Y6699D01*
X200794D01*
X200394Y7099D01*
X199994Y6699D01*
X199594D01*
X199994Y6299D01*
X199594Y5899D01*
X199994D01*
X200394Y5499D01*
X191339D02*
X191739Y5899D01*
X192139D01*
X191739Y6299D01*
X192139Y6699D01*
X191739D01*
X191339Y7099D01*
X190939Y6699D01*
X190539D01*
X190939Y6299D01*
X190539Y5899D01*
X190939D01*
X191339Y5499D01*
Y12979D02*
X191739Y13379D01*
X192139D01*
X191739Y13780D01*
X192139Y14179D01*
X191739D01*
X191339Y14580D01*
X190939Y14179D01*
X190539D01*
X190939Y13780D01*
X190539Y13379D01*
X190939D01*
X191339Y12979D01*
X200394D02*
X200794Y13379D01*
X201194D01*
X200794Y13780D01*
X201194Y14179D01*
X200794D01*
X200394Y14580D01*
X199994Y14179D01*
X199594D01*
X199994Y13780D01*
X199594Y13379D01*
X199994D01*
X200394Y12979D01*
X173228D02*
X173628Y13379D01*
X174028D01*
X173628Y13780D01*
X174028Y14179D01*
X173628D01*
X173228Y14580D01*
X172828Y14179D01*
X172428D01*
X172828Y13780D01*
X172428Y13379D01*
X172828D01*
X173228Y12979D01*
X182283D02*
X182684Y13379D01*
X183083D01*
X182684Y13780D01*
X183083Y14179D01*
X182684D01*
X182283Y14580D01*
X181884Y14179D01*
X181483D01*
X181884Y13780D01*
X181483Y13379D01*
X181884D01*
X182283Y12979D01*
X164173D02*
X164573Y13379D01*
X164973D01*
X164573Y13780D01*
X164973Y14179D01*
X164573D01*
X164173Y14580D01*
X163773Y14179D01*
X163373D01*
X163773Y13780D01*
X163373Y13379D01*
X163773D01*
X164173Y12979D01*
X188583Y84239D02*
X188983Y84639D01*
X189383D01*
X188983Y85039D01*
X189383Y85439D01*
X188983D01*
X188583Y85839D01*
X188183Y85439D01*
X187783D01*
X188183Y85039D01*
X187783Y84639D01*
X188183D01*
X188583Y84239D01*
X181102D02*
X181502Y84639D01*
X181902D01*
X181502Y85039D01*
X181902Y85439D01*
X181502D01*
X181102Y85839D01*
X180702Y85439D01*
X180302D01*
X180702Y85039D01*
X180302Y84639D01*
X180702D01*
X181102Y84239D01*
X174409D02*
X174809Y84639D01*
X175209D01*
X174809Y85039D01*
X175209Y85439D01*
X174809D01*
X174409Y85839D01*
X174009Y85439D01*
X173609D01*
X174009Y85039D01*
X173609Y84639D01*
X174009D01*
X174409Y84239D01*
X187402Y72428D02*
X187802Y72828D01*
X188202D01*
X187802Y73228D01*
X188202Y73628D01*
X187802D01*
X187402Y74028D01*
X187002Y73628D01*
X186602D01*
X187002Y73228D01*
X186602Y72828D01*
X187002D01*
X187402Y72428D01*
X180709D02*
X181109Y72828D01*
X181509D01*
X181109Y73228D01*
X181509Y73628D01*
X181109D01*
X180709Y74028D01*
X180309Y73628D01*
X179909D01*
X180309Y73228D01*
X179909Y72828D01*
X180309D01*
X180709Y72428D01*
X167717D02*
X168116Y72828D01*
X168517D01*
X168116Y73228D01*
X168517Y73628D01*
X168116D01*
X167717Y74028D01*
X167316Y73628D01*
X166917D01*
X167316Y73228D01*
X166917Y72828D01*
X167316D01*
X167717Y72428D01*
X174409D02*
X174809Y72828D01*
X175209D01*
X174809Y73228D01*
X175209Y73628D01*
X174809D01*
X174409Y74028D01*
X174009Y73628D01*
X173609D01*
X174009Y73228D01*
X173609Y72828D01*
X174009D01*
X174409Y72428D01*
X182677Y56287D02*
X183077Y56687D01*
X183477D01*
X183077Y57087D01*
X183477Y57487D01*
X183077D01*
X182677Y57887D01*
X182277Y57487D01*
X181877D01*
X182277Y57087D01*
X181877Y56687D01*
X182277D01*
X182677Y56287D01*
X194882Y55893D02*
X195282Y56293D01*
X195682D01*
X195282Y56693D01*
X195682Y57093D01*
X195282D01*
X194882Y57493D01*
X194482Y57093D01*
X194082D01*
X194482Y56693D01*
X194082Y56293D01*
X194482D01*
X194882Y55893D01*
X209842Y56287D02*
X210243Y56687D01*
X210643D01*
X210243Y57087D01*
X210643Y57487D01*
X210243D01*
X209842Y57887D01*
X209442Y57487D01*
X209043D01*
X209442Y57087D01*
X209043Y56687D01*
X209442D01*
X209842Y56287D01*
X211417Y72822D02*
X211817Y73222D01*
X212217D01*
X211817Y73622D01*
X212217Y74022D01*
X211817D01*
X211417Y74422D01*
X211017Y74022D01*
X210617D01*
X211017Y73622D01*
X210617Y73222D01*
X211017D01*
X211417Y72822D01*
X211811Y83452D02*
X212211Y83852D01*
X212611D01*
X212211Y84252D01*
X212611Y84652D01*
X212211D01*
X211811Y85052D01*
X211411Y84652D01*
X211011D01*
X211411Y84252D01*
X211011Y83852D01*
X211411D01*
X211811Y83452D01*
X210630Y91326D02*
X211030Y91726D01*
X211430D01*
X211030Y92126D01*
X211430Y92526D01*
X211030D01*
X210630Y92926D01*
X210230Y92526D01*
X209830D01*
X210230Y92126D01*
X209830Y91726D01*
X210230D01*
X210630Y91326D01*
X210236Y63373D02*
X210636Y63773D01*
X211036D01*
X210636Y64173D01*
X211036Y64573D01*
X210636D01*
X210236Y64973D01*
X209836Y64573D01*
X209436D01*
X209836Y64173D01*
X209436Y63773D01*
X209836D01*
X210236Y63373D01*
X192126D02*
X192526Y63773D01*
X192926D01*
X192526Y64173D01*
X192926Y64573D01*
X192526D01*
X192126Y64973D01*
X191726Y64573D01*
X191326D01*
X191726Y64173D01*
X191326Y63773D01*
X191726D01*
X192126Y63373D01*
X201181D02*
X201581Y63773D01*
X201981D01*
X201581Y64173D01*
X201981Y64573D01*
X201581D01*
X201181Y64973D01*
X200781Y64573D01*
X200381D01*
X200781Y64173D01*
X200381Y63773D01*
X200781D01*
X201181Y63373D01*
X183071D02*
X183471Y63773D01*
X183871D01*
X183471Y64173D01*
X183871Y64573D01*
X183471D01*
X183071Y64973D01*
X182671Y64573D01*
X182271D01*
X182671Y64173D01*
X182271Y63773D01*
X182671D01*
X183071Y63373D01*
X182283Y92113D02*
X182684Y92513D01*
X183083D01*
X182684Y92913D01*
X183083Y93313D01*
X182684D01*
X182283Y93713D01*
X181884Y93313D01*
X181483D01*
X181884Y92913D01*
X181483Y92513D01*
X181884D01*
X182283Y92113D01*
X173228D02*
X173628Y92513D01*
X174028D01*
X173628Y92913D01*
X174028Y93313D01*
X173628D01*
X173228Y93713D01*
X172828Y93313D01*
X172428D01*
X172828Y92913D01*
X172428Y92513D01*
X172828D01*
X173228Y92113D01*
X200394D02*
X200794Y92513D01*
X201194D01*
X200794Y92913D01*
X201194Y93313D01*
X200794D01*
X200394Y93713D01*
X199994Y93313D01*
X199594D01*
X199994Y92913D01*
X199594Y92513D01*
X199994D01*
X200394Y92113D01*
X191339D02*
X191739Y92513D01*
X192139D01*
X191739Y92913D01*
X192139Y93313D01*
X191739D01*
X191339Y93713D01*
X190939Y93313D01*
X190539D01*
X190939Y92913D01*
X190539Y92513D01*
X190939D01*
X191339Y92113D01*
X190945Y99987D02*
X191345Y100387D01*
X191745D01*
X191345Y100787D01*
X191745Y101187D01*
X191345D01*
X190945Y101587D01*
X190545Y101187D01*
X190145D01*
X190545Y100787D01*
X190145Y100387D01*
X190545D01*
X190945Y99987D01*
X200000D02*
X200400Y100387D01*
X200800D01*
X200400Y100787D01*
X200800Y101187D01*
X200400D01*
X200000Y101587D01*
X199600Y101187D01*
X199200D01*
X199600Y100787D01*
X199200Y100387D01*
X199600D01*
X200000Y99987D01*
X172835D02*
X173235Y100387D01*
X173635D01*
X173235Y100787D01*
X173635Y101187D01*
X173235D01*
X172835Y101587D01*
X172435Y101187D01*
X172035D01*
X172435Y100787D01*
X172035Y100387D01*
X172435D01*
X172835Y99987D01*
X181890D02*
X182290Y100387D01*
X182690D01*
X182290Y100787D01*
X182690Y101187D01*
X182290D01*
X181890Y101587D01*
X181490Y101187D01*
X181090D01*
X181490Y100787D01*
X181090Y100387D01*
X181490D01*
X181890Y99987D01*
X163779D02*
X164180Y100387D01*
X164579D01*
X164180Y100787D01*
X164579Y101187D01*
X164180D01*
X163779Y101587D01*
X163380Y101187D01*
X162979D01*
X163380Y100787D01*
X162979Y100387D01*
X163380D01*
X163779Y99987D01*
X-7087Y16917D02*
X-6687Y17316D01*
X-6287D01*
X-6687Y17717D01*
X-6287Y18116D01*
X-6687D01*
X-7087Y18517D01*
X-7487Y18116D01*
X-7887D01*
X-7487Y17717D01*
X-7887Y17316D01*
X-7487D01*
X-7087Y16917D01*
X-6766Y26103D02*
X-6366Y26503D01*
X-5966D01*
X-6366Y26903D01*
X-5966Y27303D01*
X-6366D01*
X-6766Y27703D01*
X-7166Y27303D01*
X-7566D01*
X-7166Y26903D01*
X-7566Y26503D01*
X-7166D01*
X-6766Y26103D01*
X715D02*
X1115Y26503D01*
X1515D01*
X1115Y26903D01*
X1515Y27303D01*
X1115D01*
X715Y27703D01*
X315Y27303D01*
X-85D01*
X315Y26903D01*
X-85Y26503D01*
X315D01*
X715Y26103D01*
X394Y16917D02*
X794Y17316D01*
X1194D01*
X794Y17717D01*
X1194Y18116D01*
X794D01*
X394Y18517D01*
X-6Y18116D01*
X-406D01*
X-6Y17717D01*
X-406Y17316D01*
X-6D01*
X394Y16917D01*
X-6693Y82271D02*
X-6293Y82671D01*
X-5893D01*
X-6293Y83071D01*
X-5893Y83471D01*
X-6293D01*
X-6693Y83871D01*
X-7093Y83471D01*
X-7493D01*
X-7093Y83071D01*
X-7493Y82671D01*
X-7093D01*
X-6693Y82271D01*
X-6372Y91458D02*
X-5972Y91858D01*
X-5572D01*
X-5972Y92258D01*
X-5572Y92658D01*
X-5972D01*
X-6372Y93058D01*
X-6772Y92658D01*
X-7172D01*
X-6772Y92258D01*
X-7172Y91858D01*
X-6772D01*
X-6372Y91458D01*
X1108D02*
X1508Y91858D01*
X1908D01*
X1508Y92258D01*
X1908Y92658D01*
X1508D01*
X1108Y93058D01*
X708Y92658D01*
X308D01*
X708Y92258D01*
X308Y91858D01*
X708D01*
X1108Y91458D01*
X787Y82271D02*
X1187Y82671D01*
X1587D01*
X1187Y83071D01*
X1587Y83471D01*
X1187D01*
X787Y83871D01*
X387Y83471D01*
X-13D01*
X387Y83071D01*
X-13Y82671D01*
X387D01*
X787Y82271D01*
X23687Y-1660D02*
X24087Y-1260D01*
X24487D01*
X24087Y-860D01*
X24487Y-460D01*
X24087D01*
X23687Y-60D01*
X23287Y-460D01*
X22887D01*
X23287Y-860D01*
X22887Y-1260D01*
X23287D01*
X23687Y-1660D01*
X41929Y-1981D02*
X42329Y-1581D01*
X42729D01*
X42329Y-1181D01*
X42729Y-781D01*
X42329D01*
X41929Y-381D01*
X41529Y-781D01*
X41129D01*
X41529Y-1181D01*
X41129Y-1581D01*
X41529D01*
X41929Y-1981D01*
X32874D02*
X33274Y-1581D01*
X33674D01*
X33274Y-1181D01*
X33674Y-781D01*
X33274D01*
X32874Y-381D01*
X32474Y-781D01*
X32074D01*
X32474Y-1181D01*
X32074Y-1581D01*
X32474D01*
X32874Y-1981D01*
X60039D02*
X60439Y-1581D01*
X60839D01*
X60439Y-1181D01*
X60839Y-781D01*
X60439D01*
X60039Y-381D01*
X59639Y-781D01*
X59239D01*
X59639Y-1181D01*
X59239Y-1581D01*
X59639D01*
X60039Y-1981D01*
X50984D02*
X51384Y-1581D01*
X51784D01*
X51384Y-1181D01*
X51784Y-781D01*
X51384D01*
X50984Y-381D01*
X50584Y-781D01*
X50184D01*
X50584Y-1181D01*
X50184Y-1581D01*
X50584D01*
X50984Y-1981D01*
X78150D02*
X78550Y-1581D01*
X78950D01*
X78550Y-1181D01*
X78950Y-781D01*
X78550D01*
X78150Y-381D01*
X77750Y-781D01*
X77350D01*
X77750Y-1181D01*
X77350Y-1581D01*
X77750D01*
X78150Y-1981D01*
X69095D02*
X69494Y-1581D01*
X69894D01*
X69494Y-1181D01*
X69894Y-781D01*
X69494D01*
X69095Y-381D01*
X68695Y-781D01*
X68295D01*
X68695Y-1181D01*
X68295Y-1581D01*
X68695D01*
X69095Y-1981D01*
X96260D02*
X96660Y-1581D01*
X97060D01*
X96660Y-1181D01*
X97060Y-781D01*
X96660D01*
X96260Y-381D01*
X95860Y-781D01*
X95460D01*
X95860Y-1181D01*
X95460Y-1581D01*
X95860D01*
X96260Y-1981D01*
X87205D02*
X87605Y-1581D01*
X88005D01*
X87605Y-1181D01*
X88005Y-781D01*
X87605D01*
X87205Y-381D01*
X86805Y-781D01*
X86405D01*
X86805Y-1181D01*
X86405Y-1581D01*
X86805D01*
X87205Y-1981D01*
X114370D02*
X114770Y-1581D01*
X115170D01*
X114770Y-1181D01*
X115170Y-781D01*
X114770D01*
X114370Y-381D01*
X113970Y-781D01*
X113570D01*
X113970Y-1181D01*
X113570Y-1581D01*
X113970D01*
X114370Y-1981D01*
X105315D02*
X105715Y-1581D01*
X106115D01*
X105715Y-1181D01*
X106115Y-781D01*
X105715D01*
X105315Y-381D01*
X104915Y-781D01*
X104515D01*
X104915Y-1181D01*
X104515Y-1581D01*
X104915D01*
X105315Y-1981D01*
X132480D02*
X132880Y-1581D01*
X133280D01*
X132880Y-1181D01*
X133280Y-781D01*
X132880D01*
X132480Y-381D01*
X132080Y-781D01*
X131680D01*
X132080Y-1181D01*
X131680Y-1581D01*
X132080D01*
X132480Y-1981D01*
X123425D02*
X123825Y-1581D01*
X124225D01*
X123825Y-1181D01*
X124225Y-781D01*
X123825D01*
X123425Y-381D01*
X123025Y-781D01*
X122625D01*
X123025Y-1181D01*
X122625Y-1581D01*
X123025D01*
X123425Y-1981D01*
X150591D02*
X150991Y-1581D01*
X151391D01*
X150991Y-1181D01*
X151391Y-781D01*
X150991D01*
X150591Y-381D01*
X150191Y-781D01*
X149791D01*
X150191Y-1181D01*
X149791Y-1581D01*
X150191D01*
X150591Y-1981D01*
X141535D02*
X141936Y-1581D01*
X142335D01*
X141936Y-1181D01*
X142335Y-781D01*
X141936D01*
X141535Y-381D01*
X141136Y-781D01*
X140735D01*
X141136Y-1181D01*
X140735Y-1581D01*
X141136D01*
X141535Y-1981D01*
X168701D02*
X169101Y-1581D01*
X169501D01*
X169101Y-1181D01*
X169501Y-781D01*
X169101D01*
X168701Y-381D01*
X168301Y-781D01*
X167901D01*
X168301Y-1181D01*
X167901Y-1581D01*
X168301D01*
X168701Y-1981D01*
X159646D02*
X160046Y-1581D01*
X160446D01*
X160046Y-1181D01*
X160446Y-781D01*
X160046D01*
X159646Y-381D01*
X159246Y-781D01*
X158846D01*
X159246Y-1181D01*
X158846Y-1581D01*
X159246D01*
X159646Y-1981D01*
X186811D02*
X187211Y-1581D01*
X187611D01*
X187211Y-1181D01*
X187611Y-781D01*
X187211D01*
X186811Y-381D01*
X186411Y-781D01*
X186011D01*
X186411Y-1181D01*
X186011Y-1581D01*
X186411D01*
X186811Y-1981D01*
X177756D02*
X178156Y-1581D01*
X178556D01*
X178156Y-1181D01*
X178556Y-781D01*
X178156D01*
X177756Y-381D01*
X177356Y-781D01*
X176956D01*
X177356Y-1181D01*
X176956Y-1581D01*
X177356D01*
X177756Y-1981D01*
X195866D02*
X196266Y-1581D01*
X196666D01*
X196266Y-1181D01*
X196666Y-781D01*
X196266D01*
X195866Y-381D01*
X195466Y-781D01*
X195066D01*
X195466Y-1181D01*
X195066Y-1581D01*
X195466D01*
X195866Y-1981D01*
X191663Y-9470D02*
X192063Y-9070D01*
X192463D01*
X192063Y-8670D01*
X192463Y-8270D01*
X192063D01*
X191663Y-7870D01*
X191263Y-8270D01*
X190863D01*
X191263Y-8670D01*
X190863Y-9070D01*
X191263D01*
X191663Y-9470D01*
X200718D02*
X201118Y-9070D01*
X201518D01*
X201118Y-8670D01*
X201518Y-8270D01*
X201118D01*
X200718Y-7870D01*
X200318Y-8270D01*
X199918D01*
X200318Y-8670D01*
X199918Y-9070D01*
X200318D01*
X200718Y-9470D01*
X173553D02*
X173953Y-9070D01*
X174353D01*
X173953Y-8670D01*
X174353Y-8270D01*
X173953D01*
X173553Y-7870D01*
X173153Y-8270D01*
X172753D01*
X173153Y-8670D01*
X172753Y-9070D01*
X173153D01*
X173553Y-9470D01*
X182608D02*
X183008Y-9070D01*
X183408D01*
X183008Y-8670D01*
X183408Y-8270D01*
X183008D01*
X182608Y-7870D01*
X182208Y-8270D01*
X181808D01*
X182208Y-8670D01*
X181808Y-9070D01*
X182208D01*
X182608Y-9470D01*
X155443D02*
X155842Y-9070D01*
X156243D01*
X155842Y-8670D01*
X156243Y-8270D01*
X155842D01*
X155443Y-7870D01*
X155043Y-8270D01*
X154642D01*
X155043Y-8670D01*
X154642Y-9070D01*
X155043D01*
X155443Y-9470D01*
X164498D02*
X164898Y-9070D01*
X165298D01*
X164898Y-8670D01*
X165298Y-8270D01*
X164898D01*
X164498Y-7870D01*
X164098Y-8270D01*
X163698D01*
X164098Y-8670D01*
X163698Y-9070D01*
X164098D01*
X164498Y-9470D01*
X137332D02*
X137732Y-9070D01*
X138132D01*
X137732Y-8670D01*
X138132Y-8270D01*
X137732D01*
X137332Y-7870D01*
X136932Y-8270D01*
X136532D01*
X136932Y-8670D01*
X136532Y-9070D01*
X136932D01*
X137332Y-9470D01*
X146387D02*
X146787Y-9070D01*
X147187D01*
X146787Y-8670D01*
X147187Y-8270D01*
X146787D01*
X146387Y-7870D01*
X145987Y-8270D01*
X145587D01*
X145987Y-8670D01*
X145587Y-9070D01*
X145987D01*
X146387Y-9470D01*
X119222D02*
X119622Y-9070D01*
X120022D01*
X119622Y-8670D01*
X120022Y-8270D01*
X119622D01*
X119222Y-7870D01*
X118822Y-8270D01*
X118422D01*
X118822Y-8670D01*
X118422Y-9070D01*
X118822D01*
X119222Y-9470D01*
X128277D02*
X128677Y-9070D01*
X129077D01*
X128677Y-8670D01*
X129077Y-8270D01*
X128677D01*
X128277Y-7870D01*
X127877Y-8270D01*
X127477D01*
X127877Y-8670D01*
X127477Y-9070D01*
X127877D01*
X128277Y-9470D01*
X101112D02*
X101512Y-9070D01*
X101912D01*
X101512Y-8670D01*
X101912Y-8270D01*
X101512D01*
X101112Y-7870D01*
X100712Y-8270D01*
X100312D01*
X100712Y-8670D01*
X100312Y-9070D01*
X100712D01*
X101112Y-9470D01*
X110167D02*
X110567Y-9070D01*
X110967D01*
X110567Y-8670D01*
X110967Y-8270D01*
X110567D01*
X110167Y-7870D01*
X109767Y-8270D01*
X109367D01*
X109767Y-8670D01*
X109367Y-9070D01*
X109767D01*
X110167Y-9470D01*
X83002D02*
X83402Y-9070D01*
X83802D01*
X83402Y-8670D01*
X83802Y-8270D01*
X83402D01*
X83002Y-7870D01*
X82601Y-8270D01*
X82201D01*
X82601Y-8670D01*
X82201Y-9070D01*
X82601D01*
X83002Y-9470D01*
X92057D02*
X92457Y-9070D01*
X92857D01*
X92457Y-8670D01*
X92857Y-8270D01*
X92457D01*
X92057Y-7870D01*
X91657Y-8270D01*
X91257D01*
X91657Y-8670D01*
X91257Y-9070D01*
X91657D01*
X92057Y-9470D01*
X64891D02*
X65291Y-9070D01*
X65691D01*
X65291Y-8670D01*
X65691Y-8270D01*
X65291D01*
X64891Y-7870D01*
X64491Y-8270D01*
X64091D01*
X64491Y-8670D01*
X64091Y-9070D01*
X64491D01*
X64891Y-9470D01*
X73946D02*
X74346Y-9070D01*
X74746D01*
X74346Y-8670D01*
X74746Y-8270D01*
X74346D01*
X73946Y-7870D01*
X73546Y-8270D01*
X73146D01*
X73546Y-8670D01*
X73146Y-9070D01*
X73546D01*
X73946Y-9470D01*
X46781D02*
X47181Y-9070D01*
X47581D01*
X47181Y-8670D01*
X47581Y-8270D01*
X47181D01*
X46781Y-7870D01*
X46381Y-8270D01*
X45981D01*
X46381Y-8670D01*
X45981Y-9070D01*
X46381D01*
X46781Y-9470D01*
X55836D02*
X56236Y-9070D01*
X56636D01*
X56236Y-8670D01*
X56636Y-8270D01*
X56236D01*
X55836Y-7870D01*
X55436Y-8270D01*
X55036D01*
X55436Y-8670D01*
X55036Y-9070D01*
X55436D01*
X55836Y-9470D01*
X28671D02*
X29071Y-9070D01*
X29471D01*
X29071Y-8670D01*
X29471Y-8270D01*
X29071D01*
X28671Y-7870D01*
X28271Y-8270D01*
X27871D01*
X28271Y-8670D01*
X27871Y-9070D01*
X28271D01*
X28671Y-9470D01*
X37726D02*
X38126Y-9070D01*
X38526D01*
X38126Y-8670D01*
X38526Y-8270D01*
X38126D01*
X37726Y-7870D01*
X37326Y-8270D01*
X36926D01*
X37326Y-8670D01*
X36926Y-9070D01*
X37326D01*
X37726Y-9470D01*
X19484Y-9149D02*
X19884Y-8749D01*
X20284D01*
X19884Y-8349D01*
X20284Y-7949D01*
X19884D01*
X19484Y-7549D01*
X19084Y-7949D01*
X18684D01*
X19084Y-8349D01*
X18684Y-8749D01*
X19084D01*
X19484Y-9149D01*
X218898Y23314D02*
X219298Y23714D01*
X219698D01*
X219298Y24114D01*
X219698Y24514D01*
X219298D01*
X218898Y24914D01*
X218498Y24514D01*
X218098D01*
X218498Y24114D01*
X218098Y23714D01*
X218498D01*
X218898Y23314D01*
Y41424D02*
X219298Y41824D01*
X219698D01*
X219298Y42224D01*
X219698Y42624D01*
X219298D01*
X218898Y43024D01*
X218498Y42624D01*
X218098D01*
X218498Y42224D01*
X218098Y41824D01*
X218498D01*
X218898Y41424D01*
Y32369D02*
X219298Y32769D01*
X219698D01*
X219298Y33169D01*
X219698Y33569D01*
X219298D01*
X218898Y33969D01*
X218498Y33569D01*
X218098D01*
X218498Y33169D01*
X218098Y32769D01*
X218498D01*
X218898Y32369D01*
Y59535D02*
X219298Y59935D01*
X219698D01*
X219298Y60335D01*
X219698Y60735D01*
X219298D01*
X218898Y61135D01*
X218498Y60735D01*
X218098D01*
X218498Y60335D01*
X218098Y59935D01*
X218498D01*
X218898Y59535D01*
Y50480D02*
X219298Y50880D01*
X219698D01*
X219298Y51279D01*
X219698Y51679D01*
X219298D01*
X218898Y52079D01*
X218498Y51679D01*
X218098D01*
X218498Y51279D01*
X218098Y50880D01*
X218498D01*
X218898Y50480D01*
Y77645D02*
X219298Y78045D01*
X219698D01*
X219298Y78445D01*
X219698Y78845D01*
X219298D01*
X218898Y79245D01*
X218498Y78845D01*
X218098D01*
X218498Y78445D01*
X218098Y78045D01*
X218498D01*
X218898Y77645D01*
Y68590D02*
X219298Y68990D01*
X219698D01*
X219298Y69390D01*
X219698Y69790D01*
X219298D01*
X218898Y70190D01*
X218498Y69790D01*
X218098D01*
X218498Y69390D01*
X218098Y68990D01*
X218498D01*
X218898Y68590D01*
Y86700D02*
X219298Y87100D01*
X219698D01*
X219298Y87500D01*
X219698Y87900D01*
X219298D01*
X218898Y88300D01*
X218498Y87900D01*
X218098D01*
X218498Y87500D01*
X218098Y87100D01*
X218498D01*
X218898Y86700D01*
X226378Y90932D02*
X226778Y91332D01*
X227178D01*
X226778Y91732D01*
X227178Y92132D01*
X226778D01*
X226378Y92532D01*
X225978Y92132D01*
X225578D01*
X225978Y91732D01*
X225578Y91332D01*
X225978D01*
X226378Y90932D01*
Y72822D02*
X226778Y73222D01*
X227178D01*
X226778Y73622D01*
X227178Y74022D01*
X226778D01*
X226378Y74422D01*
X225978Y74022D01*
X225578D01*
X225978Y73622D01*
X225578Y73222D01*
X225978D01*
X226378Y72822D01*
Y81877D02*
X226778Y82277D01*
X227178D01*
X226778Y82677D01*
X227178Y83077D01*
X226778D01*
X226378Y83477D01*
X225978Y83077D01*
X225578D01*
X225978Y82677D01*
X225578Y82277D01*
X225978D01*
X226378Y81877D01*
Y54712D02*
X226778Y55112D01*
X227178D01*
X226778Y55512D01*
X227178Y55912D01*
X226778D01*
X226378Y56312D01*
X225978Y55912D01*
X225578D01*
X225978Y55512D01*
X225578Y55112D01*
X225978D01*
X226378Y54712D01*
Y63767D02*
X226778Y64167D01*
X227178D01*
X226778Y64567D01*
X227178Y64967D01*
X226778D01*
X226378Y65367D01*
X225978Y64967D01*
X225578D01*
X225978Y64567D01*
X225578Y64167D01*
X225978D01*
X226378Y63767D01*
Y36602D02*
X226778Y37002D01*
X227178D01*
X226778Y37402D01*
X227178Y37802D01*
X226778D01*
X226378Y38202D01*
X225978Y37802D01*
X225578D01*
X225978Y37402D01*
X225578Y37002D01*
X225978D01*
X226378Y36602D01*
Y45657D02*
X226778Y46057D01*
X227178D01*
X226778Y46457D01*
X227178Y46857D01*
X226778D01*
X226378Y47257D01*
X225978Y46857D01*
X225578D01*
X225978Y46457D01*
X225578Y46057D01*
X225978D01*
X226378Y45657D01*
Y18491D02*
X226778Y18891D01*
X227178D01*
X226778Y19291D01*
X227178Y19691D01*
X226778D01*
X226378Y20091D01*
X225978Y19691D01*
X225578D01*
X225978Y19291D01*
X225578Y18891D01*
X225978D01*
X226378Y18491D01*
Y27547D02*
X226778Y27946D01*
X227178D01*
X226778Y28346D01*
X227178Y28747D01*
X226778D01*
X226378Y29147D01*
X225978Y28747D01*
X225578D01*
X225978Y28346D01*
X225578Y27946D01*
X225978D01*
X226378Y27547D01*
X18504Y109830D02*
X18904Y110230D01*
X19304D01*
X18904Y110630D01*
X19304Y111030D01*
X18904D01*
X18504Y111430D01*
X18104Y111030D01*
X17704D01*
X18104Y110630D01*
X17704Y110230D01*
X18104D01*
X18504Y109830D01*
X36746Y109509D02*
X37146Y109909D01*
X37546D01*
X37146Y110309D01*
X37546Y110709D01*
X37146D01*
X36746Y111109D01*
X36346Y110709D01*
X35946D01*
X36346Y110309D01*
X35946Y109909D01*
X36346D01*
X36746Y109509D01*
X27691D02*
X28091Y109909D01*
X28491D01*
X28091Y110309D01*
X28491Y110709D01*
X28091D01*
X27691Y111109D01*
X27291Y110709D01*
X26891D01*
X27291Y110309D01*
X26891Y109909D01*
X27291D01*
X27691Y109509D01*
X54856D02*
X55256Y109909D01*
X55656D01*
X55256Y110309D01*
X55656Y110709D01*
X55256D01*
X54856Y111109D01*
X54456Y110709D01*
X54056D01*
X54456Y110309D01*
X54056Y109909D01*
X54456D01*
X54856Y109509D01*
X45801D02*
X46201Y109909D01*
X46601D01*
X46201Y110309D01*
X46601Y110709D01*
X46201D01*
X45801Y111109D01*
X45401Y110709D01*
X45001D01*
X45401Y110309D01*
X45001Y109909D01*
X45401D01*
X45801Y109509D01*
X72966D02*
X73366Y109909D01*
X73766D01*
X73366Y110309D01*
X73766Y110709D01*
X73366D01*
X72966Y111109D01*
X72566Y110709D01*
X72166D01*
X72566Y110309D01*
X72166Y109909D01*
X72566D01*
X72966Y109509D01*
X63911D02*
X64311Y109909D01*
X64711D01*
X64311Y110309D01*
X64711Y110709D01*
X64311D01*
X63911Y111109D01*
X63511Y110709D01*
X63111D01*
X63511Y110309D01*
X63111Y109909D01*
X63511D01*
X63911Y109509D01*
X91076D02*
X91477Y109909D01*
X91877D01*
X91477Y110309D01*
X91877Y110709D01*
X91477D01*
X91076Y111109D01*
X90676Y110709D01*
X90276D01*
X90676Y110309D01*
X90276Y109909D01*
X90676D01*
X91076Y109509D01*
X82021D02*
X82421Y109909D01*
X82821D01*
X82421Y110309D01*
X82821Y110709D01*
X82421D01*
X82021Y111109D01*
X81621Y110709D01*
X81221D01*
X81621Y110309D01*
X81221Y109909D01*
X81621D01*
X82021Y109509D01*
X109187D02*
X109587Y109909D01*
X109987D01*
X109587Y110309D01*
X109987Y110709D01*
X109587D01*
X109187Y111109D01*
X108787Y110709D01*
X108387D01*
X108787Y110309D01*
X108387Y109909D01*
X108787D01*
X109187Y109509D01*
X100132D02*
X100532Y109909D01*
X100932D01*
X100532Y110309D01*
X100932Y110709D01*
X100532D01*
X100132Y111109D01*
X99732Y110709D01*
X99332D01*
X99732Y110309D01*
X99332Y109909D01*
X99732D01*
X100132Y109509D01*
X127297D02*
X127697Y109909D01*
X128097D01*
X127697Y110309D01*
X128097Y110709D01*
X127697D01*
X127297Y111109D01*
X126897Y110709D01*
X126497D01*
X126897Y110309D01*
X126497Y109909D01*
X126897D01*
X127297Y109509D01*
X118242D02*
X118642Y109909D01*
X119042D01*
X118642Y110309D01*
X119042Y110709D01*
X118642D01*
X118242Y111109D01*
X117842Y110709D01*
X117442D01*
X117842Y110309D01*
X117442Y109909D01*
X117842D01*
X118242Y109509D01*
X145407D02*
X145807Y109909D01*
X146207D01*
X145807Y110309D01*
X146207Y110709D01*
X145807D01*
X145407Y111109D01*
X145007Y110709D01*
X144607D01*
X145007Y110309D01*
X144607Y109909D01*
X145007D01*
X145407Y109509D01*
X136352D02*
X136752Y109909D01*
X137152D01*
X136752Y110309D01*
X137152Y110709D01*
X136752D01*
X136352Y111109D01*
X135952Y110709D01*
X135552D01*
X135952Y110309D01*
X135552Y109909D01*
X135952D01*
X136352Y109509D01*
X163517D02*
X163918Y109909D01*
X164318D01*
X163918Y110309D01*
X164318Y110709D01*
X163918D01*
X163517Y111109D01*
X163118Y110709D01*
X162717D01*
X163118Y110309D01*
X162717Y109909D01*
X163118D01*
X163517Y109509D01*
X154462D02*
X154862Y109909D01*
X155262D01*
X154862Y110309D01*
X155262Y110709D01*
X154862D01*
X154462Y111109D01*
X154062Y110709D01*
X153662D01*
X154062Y110309D01*
X153662Y109909D01*
X154062D01*
X154462Y109509D01*
X181628D02*
X182028Y109909D01*
X182428D01*
X182028Y110309D01*
X182428Y110709D01*
X182028D01*
X181628Y111109D01*
X181228Y110709D01*
X180828D01*
X181228Y110309D01*
X180828Y109909D01*
X181228D01*
X181628Y109509D01*
X172573D02*
X172973Y109909D01*
X173373D01*
X172973Y110309D01*
X173373Y110709D01*
X172973D01*
X172573Y111109D01*
X172173Y110709D01*
X171773D01*
X172173Y110309D01*
X171773Y109909D01*
X172173D01*
X172573Y109509D01*
X199738D02*
X200138Y109909D01*
X200538D01*
X200138Y110309D01*
X200538Y110709D01*
X200138D01*
X199738Y111109D01*
X199338Y110709D01*
X198938D01*
X199338Y110309D01*
X198938Y109909D01*
X199338D01*
X199738Y109509D01*
X190683D02*
X191083Y109909D01*
X191483D01*
X191083Y110309D01*
X191483Y110709D01*
X191083D01*
X190683Y111109D01*
X190283Y110709D01*
X189883D01*
X190283Y110309D01*
X189883Y109909D01*
X190283D01*
X190683Y109509D01*
X186746Y116989D02*
X187146Y117389D01*
X187546D01*
X187146Y117789D01*
X187546Y118189D01*
X187146D01*
X186746Y118589D01*
X186346Y118189D01*
X185946D01*
X186346Y117789D01*
X185946Y117389D01*
X186346D01*
X186746Y116989D01*
X195669Y117015D02*
X196069Y117415D01*
X196469D01*
X196069Y117815D01*
X196469Y118215D01*
X196069D01*
X195669Y118615D01*
X195269Y118215D01*
X194869D01*
X195269Y117815D01*
X194869Y117415D01*
X195269D01*
X195669Y117015D01*
X168636Y116989D02*
X169036Y117389D01*
X169436D01*
X169036Y117789D01*
X169436Y118189D01*
X169036D01*
X168636Y118589D01*
X168236Y118189D01*
X167836D01*
X168236Y117789D01*
X167836Y117389D01*
X168236D01*
X168636Y116989D01*
X177691D02*
X178091Y117389D01*
X178491D01*
X178091Y117789D01*
X178491Y118189D01*
X178091D01*
X177691Y118589D01*
X177291Y118189D01*
X176891D01*
X177291Y117789D01*
X176891Y117389D01*
X177291D01*
X177691Y116989D01*
X150525D02*
X150925Y117389D01*
X151325D01*
X150925Y117789D01*
X151325Y118189D01*
X150925D01*
X150525Y118589D01*
X150125Y118189D01*
X149725D01*
X150125Y117789D01*
X149725Y117389D01*
X150125D01*
X150525Y116989D01*
X159580D02*
X159980Y117389D01*
X160380D01*
X159980Y117789D01*
X160380Y118189D01*
X159980D01*
X159580Y118589D01*
X159180Y118189D01*
X158780D01*
X159180Y117789D01*
X158780Y117389D01*
X159180D01*
X159580Y116989D01*
X132415D02*
X132815Y117389D01*
X133215D01*
X132815Y117789D01*
X133215Y118189D01*
X132815D01*
X132415Y118589D01*
X132015Y118189D01*
X131615D01*
X132015Y117789D01*
X131615Y117389D01*
X132015D01*
X132415Y116989D01*
X141470D02*
X141870Y117389D01*
X142270D01*
X141870Y117789D01*
X142270Y118189D01*
X141870D01*
X141470Y118589D01*
X141070Y118189D01*
X140670D01*
X141070Y117789D01*
X140670Y117389D01*
X141070D01*
X141470Y116989D01*
X114305D02*
X114705Y117389D01*
X115105D01*
X114705Y117789D01*
X115105Y118189D01*
X114705D01*
X114305Y118589D01*
X113905Y118189D01*
X113505D01*
X113905Y117789D01*
X113505Y117389D01*
X113905D01*
X114305Y116989D01*
X123360D02*
X123760Y117389D01*
X124160D01*
X123760Y117789D01*
X124160Y118189D01*
X123760D01*
X123360Y118589D01*
X122960Y118189D01*
X122560D01*
X122960Y117789D01*
X122560Y117389D01*
X122960D01*
X123360Y116989D01*
X96195D02*
X96595Y117389D01*
X96995D01*
X96595Y117789D01*
X96995Y118189D01*
X96595D01*
X96195Y118589D01*
X95795Y118189D01*
X95395D01*
X95795Y117789D01*
X95395Y117389D01*
X95795D01*
X96195Y116989D01*
X105250D02*
X105650Y117389D01*
X106050D01*
X105650Y117789D01*
X106050Y118189D01*
X105650D01*
X105250Y118589D01*
X104850Y118189D01*
X104450D01*
X104850Y117789D01*
X104450Y117389D01*
X104850D01*
X105250Y116989D01*
X78084D02*
X78484Y117389D01*
X78884D01*
X78484Y117789D01*
X78884Y118189D01*
X78484D01*
X78084Y118589D01*
X77684Y118189D01*
X77284D01*
X77684Y117789D01*
X77284Y117389D01*
X77684D01*
X78084Y116989D01*
X87139D02*
X87539Y117389D01*
X87940D01*
X87539Y117789D01*
X87940Y118189D01*
X87539D01*
X87139Y118589D01*
X86739Y118189D01*
X86339D01*
X86739Y117789D01*
X86339Y117389D01*
X86739D01*
X87139Y116989D01*
X59974D02*
X60374Y117389D01*
X60774D01*
X60374Y117789D01*
X60774Y118189D01*
X60374D01*
X59974Y118589D01*
X59574Y118189D01*
X59174D01*
X59574Y117789D01*
X59174Y117389D01*
X59574D01*
X59974Y116989D01*
X69029D02*
X69429Y117389D01*
X69829D01*
X69429Y117789D01*
X69829Y118189D01*
X69429D01*
X69029Y118589D01*
X68629Y118189D01*
X68229D01*
X68629Y117789D01*
X68229Y117389D01*
X68629D01*
X69029Y116989D01*
X41864D02*
X42264Y117389D01*
X42664D01*
X42264Y117789D01*
X42664Y118189D01*
X42264D01*
X41864Y118589D01*
X41464Y118189D01*
X41064D01*
X41464Y117789D01*
X41064Y117389D01*
X41464D01*
X41864Y116989D01*
X50919D02*
X51319Y117389D01*
X51719D01*
X51319Y117789D01*
X51719Y118189D01*
X51319D01*
X50919Y118589D01*
X50519Y118189D01*
X50119D01*
X50519Y117789D01*
X50119Y117389D01*
X50519D01*
X50919Y116989D01*
X23754D02*
X24154Y117389D01*
X24554D01*
X24154Y117789D01*
X24554Y118189D01*
X24154D01*
X23754Y118589D01*
X23354Y118189D01*
X22954D01*
X23354Y117789D01*
X22954Y117389D01*
X23354D01*
X23754Y116989D01*
X32809D02*
X33209Y117389D01*
X33609D01*
X33209Y117789D01*
X33609Y118189D01*
X33209D01*
X32809Y118589D01*
X32409Y118189D01*
X32009D01*
X32409Y117789D01*
X32009Y117389D01*
X32409D01*
X32809Y116989D01*
X65354Y60913D02*
X65754Y61313D01*
X66154D01*
X65754Y61713D01*
X66154Y62113D01*
X65754D01*
X65354Y62513D01*
X64954Y62113D01*
X64554D01*
X64954Y61713D01*
X64554Y61313D01*
X64954D01*
X65354Y60913D01*
D66*
X35249Y16929D02*
G03*
X35249Y16929I-800J0D01*
G01*
Y36614D02*
G03*
X35249Y36614I-800J0D01*
G01*
M02*
