G04*
G04 #@! TF.GenerationSoftware,Altium Limited,Altium Designer,22.3.1 (43)*
G04*
G04 Layer_Color=2752767*
%FSLAX25Y25*%
%MOIN*%
G70*
G04*
G04 #@! TF.SameCoordinates,54316C7D-A7D4-46C6-97C7-E01AB4BBD31E*
G04*
G04*
G04 #@! TF.FilePolarity,Positive*
G04*
G01*
G75*
%ADD35C,0.00200*%
%ADD36C,0.00267*%
D35*
X122743Y55125D02*
Y56725D01*
X124343D01*
Y55125D01*
X122743D01*
X-879D02*
Y56725D01*
X721D01*
Y55125D01*
X-879D01*
X122743Y-879D02*
Y721D01*
X124343D01*
Y-879D01*
X122743D01*
X-879D02*
Y721D01*
X721D01*
Y-879D01*
X-879D01*
D36*
X54953Y42441D02*
G03*
X54953Y42441I-800J0D01*
G01*
X-8826Y30236D02*
G03*
X-8826Y30236I-800J0D01*
G01*
X-10007Y47559D02*
G03*
X-10007Y47559I-800J0D01*
G01*
X-9613Y9370D02*
G03*
X-9613Y9370I-800J0D01*
G01*
X2985Y14488D02*
G03*
X2985Y14488I-800J0D01*
G01*
X92355Y13701D02*
G03*
X92355Y13701I-800J0D01*
G01*
X101410Y64094D02*
G03*
X101410Y64094I-800J0D01*
G01*
X41961Y59370D02*
G03*
X41961Y59370I-800J0D01*
G01*
X39205Y67244D02*
G03*
X39205Y67244I-800J0D01*
G01*
X60072Y66457D02*
G03*
X60072Y66457I-800J0D01*
G01*
X71489Y66850D02*
G03*
X71489Y66850I-800J0D01*
G01*
X88812Y64094D02*
G03*
X88812Y64094I-800J0D01*
G01*
X108103Y57402D02*
G03*
X108103Y57402I-800J0D01*
G01*
X104954Y31417D02*
G03*
X104954Y31417I-800J0D01*
G01*
X114402Y28661D02*
G03*
X114402Y28661I-800J0D01*
G01*
X133300Y30630D02*
G03*
X133300Y30630I-800J0D01*
G01*
X133694Y43228D02*
G03*
X133694Y43228I-800J0D01*
G01*
X135268Y8976D02*
G03*
X135268Y8976I-800J0D01*
G01*
X97473Y-11102D02*
G03*
X97473Y-11102I-800J0D01*
G01*
X110859Y-7559D02*
G03*
X110859Y-7559I-800J0D01*
G01*
X118339Y-11890D02*
G03*
X118339Y-11890I-800J0D01*
G01*
X104954Y-11496D02*
G03*
X104954Y-11496I-800J0D01*
G01*
X86843Y-11102D02*
G03*
X86843Y-11102I-800J0D01*
G01*
X47080Y-11890D02*
G03*
X47080Y-11890I-800J0D01*
G01*
X63615Y-5197D02*
G03*
X63615Y-5197I-800J0D01*
G01*
X75426Y-9921D02*
G03*
X75426Y-9921I-800J0D01*
G01*
X58890D02*
G03*
X58890Y-9921I-800J0D01*
G01*
X50623Y315D02*
G03*
X50623Y315I-800J0D01*
G01*
X41568Y-7953D02*
G03*
X41568Y-7953I-800J0D01*
G01*
X24638Y-4803D02*
G03*
X24638Y-4803I-800J0D01*
G01*
X32513Y-11496D02*
G03*
X32513Y-11496I-800J0D01*
G01*
X14009Y-9528D02*
G03*
X14009Y-9528I-800J0D01*
G01*
X16765Y19606D02*
G03*
X16765Y19606I-800J0D01*
G01*
X21095Y11338D02*
G03*
X21095Y11338I-800J0D01*
G01*
X17946Y315D02*
G03*
X17946Y315I-800J0D01*
G01*
X229Y26693D02*
G03*
X229Y26693I-800J0D01*
G01*
X-8039Y20787D02*
G03*
X-8039Y20787I-800J0D01*
G01*
X-7645Y39291D02*
G03*
X-7645Y39291I-800J0D01*
G01*
X25820Y62913D02*
G03*
X25820Y62913I-800J0D01*
G01*
X14796Y64488D02*
G03*
X14796Y64488I-800J0D01*
G01*
X16765Y54646D02*
G03*
X16765Y54646I-800J0D01*
G01*
X18733Y45984D02*
G03*
X18733Y45984I-800J0D01*
G01*
X10072Y41653D02*
G03*
X10072Y41653I-800J0D01*
G01*
X16765Y37323D02*
G03*
X16765Y37323I-800J0D01*
G01*
X47473Y64094D02*
G03*
X47473Y64094I-800J0D01*
G01*
X36056Y49921D02*
G03*
X36056Y49921I-800J0D01*
G01*
X32513Y62520D02*
G03*
X32513Y62520I-800J0D01*
G01*
X27394Y51102D02*
G03*
X27394Y51102I-800J0D01*
G01*
X34875Y41260D02*
G03*
X34875Y41260I-800J0D01*
G01*
X43536Y40079D02*
G03*
X43536Y40079I-800J0D01*
G01*
X46686Y51890D02*
G03*
X46686Y51890I-800J0D01*
G01*
X56135Y60551D02*
G03*
X56135Y60551I-800J0D01*
G01*
X67946Y60945D02*
G03*
X67946Y60945I-800J0D01*
G01*
X80544Y59764D02*
G03*
X80544Y59764I-800J0D01*
G01*
X94717Y52677D02*
G03*
X94717Y52677I-800J0D01*
G01*
X105741Y46772D02*
G03*
X105741Y46772I-800J0D01*
G01*
X98261Y23937D02*
G03*
X98261Y23937I-800J0D01*
G01*
X115190Y38110D02*
G03*
X115190Y38110I-800J0D01*
G01*
X110465Y20394D02*
G03*
X110465Y20394I-800J0D01*
G01*
X102198Y14094D02*
G03*
X102198Y14094I-800J0D01*
G01*
X97079Y38110D02*
G03*
X97079Y38110I-800J0D01*
G01*
X106135Y315D02*
G03*
X106135Y315I-800J0D01*
G01*
X102198Y-4803D02*
G03*
X102198Y-4803I-800J0D01*
G01*
X96686D02*
G03*
X96686Y-4803I-800J0D01*
G01*
X90780Y-4409D02*
G03*
X90780Y-4409I-800J0D01*
G01*
X79363Y-3622D02*
G03*
X79363Y-3622I-800J0D01*
G01*
X75032Y-2835D02*
G03*
X75032Y-2835I-800J0D01*
G01*
X85268Y-3622D02*
G03*
X85268Y-3622I-800J0D01*
G01*
X69127Y709D02*
G03*
X69127Y709I-800J0D01*
G01*
Y7795D02*
G03*
X69127Y7795I-800J0D01*
G01*
X54166Y10157D02*
G03*
X54166Y10157I-800J0D01*
G01*
X47473Y18425D02*
G03*
X47473Y18425I-800J0D01*
G01*
X38024Y19212D02*
G03*
X38024Y19212I-800J0D01*
G01*
X31331Y20394D02*
G03*
X31331Y20394I-800J0D01*
G01*
X79757Y21575D02*
G03*
X79757Y21575I-800J0D01*
G01*
X75229D02*
G03*
X75229Y21575I-800J0D01*
G01*
X70701D02*
G03*
X70701Y21575I-800J0D01*
G01*
X66174D02*
G03*
X66174Y21575I-800J0D01*
G01*
X61646D02*
G03*
X61646Y21575I-800J0D01*
G01*
X79757Y39685D02*
G03*
X79757Y39685I-800J0D01*
G01*
X61646D02*
G03*
X61646Y39685I-800J0D01*
G01*
X125627Y15118D02*
G03*
X125627Y15118I-800J0D01*
G01*
X54953Y21464D02*
G03*
X54953Y21464I-800J0D01*
G01*
Y35449D02*
G03*
X54953Y35449I-800J0D01*
G01*
X30544Y32992D02*
G03*
X30544Y32992I-800J0D01*
G01*
Y27480D02*
G03*
X30544Y27480I-800J0D01*
G01*
X104402Y6161D02*
G03*
X104402Y6161I-800J0D01*
G01*
X25426Y27480D02*
G03*
X25426Y27480I-800J0D01*
G01*
Y33287D02*
G03*
X25426Y33287I-800J0D01*
G01*
X54953Y28457D02*
G03*
X54953Y28457I-800J0D01*
G01*
X81725Y46772D02*
G03*
X81725Y46772I-800J0D01*
G01*
X67552Y46808D02*
G03*
X67552Y46808I-800J0D01*
G01*
X74638Y46923D02*
G03*
X74638Y46923I-800J0D01*
G01*
X60465Y46772D02*
G03*
X60465Y46772I-800J0D01*
G01*
X86390Y35223D02*
G03*
X86390Y35223I-800J0D01*
G01*
X86506Y28399D02*
G03*
X86506Y28399I-800J0D01*
G01*
X86449Y21575D02*
G03*
X86449Y21575I-800J0D01*
G01*
Y42047D02*
G03*
X86449Y42047I-800J0D01*
G01*
X66174Y26102D02*
G03*
X66174Y26102I-800J0D01*
G01*
Y30630D02*
G03*
X66174Y30630I-800J0D01*
G01*
X70701D02*
G03*
X70701Y30630I-800J0D01*
G01*
Y26102D02*
G03*
X70701Y26102I-800J0D01*
G01*
X75229D02*
G03*
X75229Y26102I-800J0D01*
G01*
Y30630D02*
G03*
X75229Y30630I-800J0D01*
G01*
Y35157D02*
G03*
X75229Y35157I-800J0D01*
G01*
X70701D02*
G03*
X70701Y35157I-800J0D01*
G01*
X66174D02*
G03*
X66174Y35157I-800J0D01*
G01*
X61646D02*
G03*
X61646Y35157I-800J0D01*
G01*
Y30630D02*
G03*
X61646Y30630I-800J0D01*
G01*
Y26102D02*
G03*
X61646Y26102I-800J0D01*
G01*
X79757D02*
G03*
X79757Y26102I-800J0D01*
G01*
Y30630D02*
G03*
X79757Y30630I-800J0D01*
G01*
Y35157D02*
G03*
X79757Y35157I-800J0D01*
G01*
X75229Y39685D02*
G03*
X75229Y39685I-800J0D01*
G01*
X70701D02*
G03*
X70701Y39685I-800J0D01*
G01*
X66174D02*
G03*
X66174Y39685I-800J0D01*
G01*
M02*
