G04*
G04 #@! TF.GenerationSoftware,Altium Limited,Altium Designer,22.3.1 (43)*
G04*
G04 Layer_Physical_Order=1*
G04 Layer_Color=255*
%FSLAX25Y25*%
%MOIN*%
G70*
G04*
G04 #@! TF.SameCoordinates,54316C7D-A7D4-46C6-97C7-E01AB4BBD31E*
G04*
G04*
G04 #@! TF.FilePolarity,Positive*
G04*
G01*
G75*
%ADD13R,0.05118X0.03543*%
%ADD14R,0.05118X0.04331*%
%ADD15R,0.05118X0.03150*%
%ADD16R,0.24803X0.24016*%
%ADD17R,0.05906X0.11024*%
%ADD25C,0.01000*%
%ADD26C,0.03000*%
%ADD27C,0.00787*%
%ADD28C,0.16142*%
%ADD29C,0.02559*%
%ADD30C,0.02362*%
G36*
X125195Y71058D02*
X127669Y70464D01*
X130020Y69490D01*
X132190Y68160D01*
X134125Y66507D01*
X135778Y64572D01*
X137108Y62402D01*
X138082Y60051D01*
X138676Y57576D01*
X138868Y55138D01*
X138848Y55039D01*
Y174D01*
X138866Y82D01*
X138682Y-2264D01*
X138111Y-4642D01*
X137175Y-6901D01*
X135898Y-8986D01*
X134309Y-10845D01*
X132450Y-12433D01*
X130365Y-13711D01*
X128106Y-14646D01*
X125728Y-15217D01*
X123382Y-15402D01*
X123291Y-15384D01*
X0D01*
X-90Y-15402D01*
X-2410Y-15219D01*
X-4761Y-14654D01*
X-6995Y-13729D01*
X-9057Y-12466D01*
X-10896Y-10896D01*
X-12466Y-9057D01*
X-13729Y-6995D01*
X-14654Y-4761D01*
X-15219Y-2410D01*
X-15402Y-90D01*
X-15384Y0D01*
Y55907D01*
X-15401Y55996D01*
X-15219Y58308D01*
X-14657Y60650D01*
X-13736Y62875D01*
X-12477Y64928D01*
X-10913Y66759D01*
X-9082Y68323D01*
X-7028Y69582D01*
X-4803Y70503D01*
X-2461Y71066D01*
X-150Y71248D01*
X-60Y71230D01*
X122657D01*
X122756Y71250D01*
X125195Y71058D01*
D02*
G37*
%LPC*%
G36*
X805Y64896D02*
X-962D01*
X-2695Y64551D01*
X-4328Y63875D01*
X-5797Y62893D01*
X-7047Y61644D01*
X-8029Y60174D01*
X-8705Y58542D01*
X-9050Y56809D01*
Y55042D01*
X-8705Y53308D01*
X-8029Y51676D01*
X-7047Y50207D01*
X-5797Y48957D01*
X-4328Y47975D01*
X-2695Y47299D01*
X-2526Y47265D01*
Y40472D01*
X-2340Y39536D01*
X-1809Y38742D01*
X8821Y28112D01*
X9615Y27582D01*
X10551Y27395D01*
X20763D01*
Y26398D01*
X20817Y26124D01*
X20972Y25893D01*
X22940Y23924D01*
X23172Y23770D01*
X23199Y23764D01*
Y20787D01*
X23199Y20787D01*
X23307Y20241D01*
X23617Y19778D01*
X29388Y14007D01*
X29143Y13417D01*
X28060D01*
Y8867D01*
X34578D01*
Y13417D01*
X32746D01*
Y14094D01*
X32746Y14094D01*
X32638Y14641D01*
X32328Y15104D01*
X32328Y15104D01*
X26053Y21379D01*
Y23715D01*
X30335D01*
X30608Y23770D01*
X30839Y23924D01*
X33288Y26373D01*
X50908D01*
Y20416D01*
X50962Y20143D01*
X51117Y19911D01*
X56306Y14722D01*
X56538Y14567D01*
X56811Y14513D01*
X84764D01*
X85037Y14567D01*
X85268Y14722D01*
X89205Y18659D01*
X89360Y18890D01*
X89414Y19163D01*
X89414Y45640D01*
X89360Y45913D01*
X89205Y46144D01*
X84186Y51164D01*
X83954Y51319D01*
X83681Y51373D01*
X57008Y51373D01*
X56735Y51319D01*
X56503Y51164D01*
X51117Y45778D01*
X50962Y45546D01*
X50908Y45273D01*
Y33706D01*
X33288D01*
X30642Y36351D01*
X30411Y36506D01*
X30138Y36560D01*
X23543D01*
X23270Y36506D01*
X23039Y36351D01*
X20972Y34284D01*
X20817Y34053D01*
X20763Y33779D01*
Y32289D01*
X11565D01*
X2368Y41486D01*
Y47265D01*
X2538Y47299D01*
X4171Y47975D01*
X5640Y48957D01*
X6889Y50207D01*
X7871Y51676D01*
X8547Y53308D01*
X8892Y55042D01*
Y56809D01*
X8547Y58542D01*
X7871Y60174D01*
X6889Y61644D01*
X5640Y62893D01*
X4171Y63875D01*
X2538Y64551D01*
X805Y64896D01*
D02*
G37*
G36*
X124427D02*
X122660D01*
X120926Y64551D01*
X119294Y63875D01*
X117825Y62893D01*
X116575Y61644D01*
X115593Y60174D01*
X114917Y58542D01*
X114572Y56809D01*
Y55042D01*
X114917Y53308D01*
X115593Y51676D01*
X116575Y50207D01*
X117825Y48957D01*
X119294Y47975D01*
X120926Y47299D01*
X121096Y47265D01*
Y23966D01*
X105738Y8608D01*
X104929D01*
X104254Y9284D01*
X104254Y9284D01*
X104022Y9439D01*
X103749Y9493D01*
X86044Y9493D01*
X85477Y10059D01*
Y10896D01*
X85423Y11169D01*
X85268Y11400D01*
X83613Y13056D01*
X83381Y13210D01*
X83108Y13265D01*
X74116D01*
X73843Y13210D01*
X73611Y13056D01*
X72054Y11499D01*
X71900Y11267D01*
X71845Y10994D01*
Y3022D01*
Y1742D01*
X71900Y1469D01*
X72054Y1237D01*
X74318Y-1026D01*
X74550Y-1181D01*
X74823Y-1235D01*
X82500D01*
X82773Y-1181D01*
X83005Y-1026D01*
X85268Y1237D01*
X85423Y1469D01*
X85477Y1742D01*
Y2480D01*
X86044Y3046D01*
X104154D01*
X104427Y3100D01*
X104658Y3255D01*
X105117Y3714D01*
X106752D01*
X107688Y3901D01*
X108482Y4431D01*
X125274Y21222D01*
X125804Y22016D01*
X125990Y22953D01*
Y47265D01*
X126160Y47299D01*
X127793Y47975D01*
X129262Y48957D01*
X130511Y50207D01*
X131493Y51676D01*
X132169Y53308D01*
X132514Y55042D01*
Y56809D01*
X132169Y58542D01*
X131493Y60174D01*
X130511Y61644D01*
X129262Y62893D01*
X127793Y63875D01*
X126160Y64551D01*
X124427Y64896D01*
D02*
G37*
G36*
X64799Y12535D02*
X61746D01*
Y6924D01*
X64799D01*
Y12535D01*
D02*
G37*
G36*
X59946D02*
X56894D01*
Y6924D01*
X59946D01*
Y12535D01*
D02*
G37*
G36*
X43239Y7117D02*
X36721D01*
Y5089D01*
X34578D01*
Y5936D01*
X28060D01*
Y1387D01*
X34578D01*
Y2234D01*
X36721D01*
Y1387D01*
X43239D01*
Y7117D01*
D02*
G37*
G36*
X2421Y8672D02*
Y2421D01*
X8672D01*
X8643Y2567D01*
X7960Y4218D01*
X6967Y5703D01*
X5703Y6967D01*
X4218Y7960D01*
X2567Y8643D01*
X2421Y8672D01*
D02*
G37*
G36*
X-2579D02*
X-2725Y8643D01*
X-4375Y7960D01*
X-5861Y6967D01*
X-7125Y5703D01*
X-8117Y4218D01*
X-8801Y2567D01*
X-8830Y2421D01*
X-2579D01*
Y8672D01*
D02*
G37*
G36*
X125043Y8871D02*
Y1421D01*
X132493D01*
X132265Y2567D01*
X131582Y4218D01*
X130589Y5703D01*
X129326Y6967D01*
X127840Y7960D01*
X126189Y8643D01*
X125043Y8871D01*
D02*
G37*
G36*
X122043D02*
X120897Y8643D01*
X119247Y7960D01*
X117761Y6967D01*
X116497Y5703D01*
X115505Y4218D01*
X114821Y2567D01*
X114593Y1421D01*
X122043D01*
Y8871D01*
D02*
G37*
G36*
X64799Y5124D02*
X61746D01*
Y-488D01*
X64799D01*
Y5124D01*
D02*
G37*
G36*
X59946D02*
X56894D01*
Y-488D01*
X59946D01*
Y5124D01*
D02*
G37*
G36*
X8672Y-2579D02*
X2421D01*
Y-8830D01*
X2567Y-8801D01*
X4218Y-8117D01*
X5703Y-7125D01*
X6967Y-5861D01*
X7960Y-4375D01*
X8643Y-2725D01*
X8672Y-2579D01*
D02*
G37*
G36*
X-2579D02*
X-8830D01*
X-8801Y-2725D01*
X-8117Y-4375D01*
X-7125Y-5861D01*
X-5861Y-7125D01*
X-4375Y-8117D01*
X-2725Y-8801D01*
X-2579Y-8830D01*
Y-2579D01*
D02*
G37*
G36*
X132493Y-1579D02*
X125043D01*
Y-9029D01*
X126189Y-8801D01*
X127840Y-8117D01*
X129326Y-7125D01*
X130589Y-5861D01*
X131582Y-4375D01*
X132265Y-2725D01*
X132493Y-1579D01*
D02*
G37*
G36*
X122043D02*
X114593D01*
X114821Y-2725D01*
X115505Y-4375D01*
X116497Y-5861D01*
X117761Y-7125D01*
X119247Y-8117D01*
X120897Y-8801D01*
X122043Y-9029D01*
Y-1579D01*
D02*
G37*
%LPD*%
G36*
X88701Y45640D02*
X88701Y19163D01*
X84764Y15226D01*
X56811D01*
X51622Y20416D01*
Y27086D01*
X32992D01*
X30335Y24429D01*
X23445D01*
X21476Y26398D01*
Y33779D01*
X23543Y35846D01*
X30138D01*
X32992Y32992D01*
X51622D01*
Y45273D01*
X57008Y50659D01*
X83681Y50659D01*
X88701Y45640D01*
D02*
G37*
G36*
X84764Y10896D02*
Y9764D01*
X85748Y8779D01*
X103749Y8779D01*
X105138Y7391D01*
X105138Y4744D01*
X104154Y3760D01*
X85748D01*
X84764Y2775D01*
Y1742D01*
X82500Y-522D01*
X74823D01*
X72559Y1742D01*
Y3022D01*
Y10994D01*
X74116Y12551D01*
X83108D01*
X84764Y10896D01*
D02*
G37*
D13*
X37201Y29594D02*
D03*
Y24476D02*
D03*
X46201D02*
D03*
Y29594D02*
D03*
X98709Y1043D02*
D03*
Y6161D02*
D03*
X90709Y6220D02*
D03*
Y1102D02*
D03*
D14*
X39980Y13307D02*
D03*
Y4252D02*
D03*
D15*
X31319Y3661D02*
D03*
Y11142D02*
D03*
D16*
X69902Y30630D02*
D03*
D17*
X78957Y6024D02*
D03*
X60846D02*
D03*
D25*
X11425Y-6016D02*
X13275Y-7866D01*
X11425Y-6016D02*
Y-1969D01*
X31319Y3661D02*
X39390D01*
X39980Y4252D01*
X24626Y20787D02*
Y27480D01*
X31319Y11142D02*
Y14094D01*
X24626Y20787D02*
X31319Y14094D01*
X24626Y27480D02*
Y29842D01*
D26*
X123543Y22953D02*
Y55925D01*
X106752Y6161D02*
X123543Y22953D01*
X103602Y6161D02*
X106752D01*
X-79Y40472D02*
Y55925D01*
X24626Y29842D02*
X26594D01*
X10551D02*
X24626D01*
X98709Y6161D02*
X103602D01*
X-79Y40472D02*
X10551Y29842D01*
D27*
X-79Y-79D02*
Y1988D01*
D28*
X123543Y55925D02*
D03*
X-79D02*
D03*
X123543Y-79D02*
D03*
X-79D02*
D03*
D29*
X54154Y42441D02*
D03*
X78957Y21575D02*
D03*
X74429D02*
D03*
X69902D02*
D03*
X65374D02*
D03*
X60846D02*
D03*
X78957Y39685D02*
D03*
X60846D02*
D03*
X54154Y21464D02*
D03*
Y35449D02*
D03*
Y28457D02*
D03*
X80925Y46772D02*
D03*
X66752Y46808D02*
D03*
X73839Y46923D02*
D03*
X59665Y46772D02*
D03*
X85590Y35223D02*
D03*
X85706Y28399D02*
D03*
X85650Y21575D02*
D03*
Y42047D02*
D03*
X65374Y26102D02*
D03*
Y30630D02*
D03*
X69902D02*
D03*
Y26102D02*
D03*
X74429D02*
D03*
Y30630D02*
D03*
Y35157D02*
D03*
X69902D02*
D03*
X65374D02*
D03*
X60846D02*
D03*
Y30630D02*
D03*
Y26102D02*
D03*
X78957D02*
D03*
Y30630D02*
D03*
Y35157D02*
D03*
X74429Y39685D02*
D03*
X69902D02*
D03*
X65374D02*
D03*
D30*
X-9626Y30236D02*
D03*
X-10807Y47559D02*
D03*
X-10413Y9370D02*
D03*
X2185Y14488D02*
D03*
X91555Y13701D02*
D03*
X100610Y64094D02*
D03*
X41161Y59370D02*
D03*
X38405Y67244D02*
D03*
X59272Y66457D02*
D03*
X70689Y66850D02*
D03*
X88012Y64094D02*
D03*
X107303Y57402D02*
D03*
X104154Y31417D02*
D03*
X113602Y28661D02*
D03*
X132500Y30630D02*
D03*
X132894Y43228D02*
D03*
X134468Y8976D02*
D03*
X96673Y-11102D02*
D03*
X110059Y-7559D02*
D03*
X117539Y-11890D02*
D03*
X104154Y-11496D02*
D03*
X86043Y-11102D02*
D03*
X46279Y-11890D02*
D03*
X62815Y-5197D02*
D03*
X74626Y-9921D02*
D03*
X58091D02*
D03*
X49823Y315D02*
D03*
X40768Y-7953D02*
D03*
X23839Y-4803D02*
D03*
X31712Y-11496D02*
D03*
X13209Y-9528D02*
D03*
X15965Y19606D02*
D03*
X20295Y11338D02*
D03*
X17146Y315D02*
D03*
X-571Y26693D02*
D03*
X-8839Y20787D02*
D03*
X-8445Y39291D02*
D03*
X25020Y62913D02*
D03*
X13996Y64488D02*
D03*
X15965Y54646D02*
D03*
X17933Y45984D02*
D03*
X9272Y41653D02*
D03*
X15965Y37323D02*
D03*
X46673Y64094D02*
D03*
X35256Y49921D02*
D03*
X31712Y62520D02*
D03*
X26594Y51102D02*
D03*
X34075Y41260D02*
D03*
X42736Y40079D02*
D03*
X45886Y51890D02*
D03*
X55335Y60551D02*
D03*
X67146Y60945D02*
D03*
X79744Y59764D02*
D03*
X93917Y52677D02*
D03*
X104941Y46772D02*
D03*
X97461Y23937D02*
D03*
X114390Y38110D02*
D03*
X109665Y20394D02*
D03*
X101398Y14094D02*
D03*
X96280Y38110D02*
D03*
X105335Y315D02*
D03*
X101398Y-4803D02*
D03*
X95886D02*
D03*
X89980Y-4409D02*
D03*
X78563Y-3622D02*
D03*
X74232Y-2835D02*
D03*
X84468Y-3622D02*
D03*
X68327Y709D02*
D03*
Y7795D02*
D03*
X53366Y10157D02*
D03*
X46673Y18425D02*
D03*
X37224Y19212D02*
D03*
X30531Y20394D02*
D03*
X124827Y15118D02*
D03*
X29744Y32992D02*
D03*
Y27480D02*
D03*
X103602Y6161D02*
D03*
X24626Y27480D02*
D03*
Y33287D02*
D03*
M02*
