G04*
G04 #@! TF.GenerationSoftware,Altium Limited,Altium Designer,22.3.1 (43)*
G04*
G04 Layer_Color=65535*
%FSLAX25Y25*%
%MOIN*%
G70*
G04*
G04 #@! TF.SameCoordinates,54316C7D-A7D4-46C6-97C7-E01AB4BBD31E*
G04*
G04*
G04 #@! TF.FilePolarity,Positive*
G04*
G01*
G75*
%ADD10C,0.00394*%
%ADD11C,0.00630*%
%ADD12C,0.01181*%
D10*
X134862Y20000D02*
X137224D01*
Y37716D01*
X135650D02*
X137224D01*
Y33287D02*
Y37520D01*
Y20591D02*
Y24823D01*
X89193Y20000D02*
Y37716D01*
Y20000D02*
X134862D01*
X137224Y24823D02*
Y33287D01*
X89193Y37716D02*
X135650D01*
X33650Y21709D02*
X40752D01*
X33650D02*
Y32362D01*
X40752D01*
Y21709D02*
Y32362D01*
X49752Y21709D02*
Y32362D01*
X42649D02*
X49752D01*
X42649Y21709D02*
Y32362D01*
Y21709D02*
X49752D01*
X95157Y8929D02*
X102260D01*
Y-1725D02*
Y8929D01*
X95157Y-1725D02*
X102260D01*
X95157D02*
Y8929D01*
X87157Y-1665D02*
Y8988D01*
Y-1665D02*
X94260D01*
Y8988D01*
X87157D02*
X94260D01*
X38012Y16457D02*
X41949D01*
X28169Y1496D02*
X34468D01*
Y13307D01*
X28169D02*
X34468D01*
X28169Y1496D02*
Y13307D01*
X67933Y8976D02*
Y13701D01*
Y8976D02*
X71870D01*
Y13701D01*
X56384Y43744D02*
X59091D01*
X56386Y13701D02*
Y25512D01*
Y13701D02*
X83405D01*
Y25512D01*
X56384Y41756D02*
Y43744D01*
X80712D02*
X83419D01*
Y41756D02*
Y43744D01*
D11*
X94842Y33163D02*
X92218D01*
Y29227D01*
X94842D01*
X92218Y31195D02*
X93530D01*
X96154Y29227D02*
Y31851D01*
X98122D01*
X98778Y31195D01*
Y29227D01*
X102057D02*
X100745D01*
X100090Y29883D01*
Y31195D01*
X100745Y31851D01*
X102057D01*
X102713Y31195D01*
Y30539D01*
X100090D01*
X104025Y29227D02*
X105993D01*
X106649Y29883D01*
X105993Y30539D01*
X104681D01*
X104025Y31195D01*
X104681Y31851D01*
X106649D01*
X111897Y29227D02*
Y33163D01*
X113209Y31851D01*
X114521Y33163D01*
Y29227D01*
X117800D02*
X116488D01*
X115832Y29883D01*
Y31195D01*
X116488Y31851D01*
X117800D01*
X118456Y31195D01*
Y30539D01*
X115832D01*
X119768Y31851D02*
Y29227D01*
Y30539D01*
X120424Y31195D01*
X121080Y31851D01*
X121736D01*
X126328D02*
X124360D01*
X123704Y31195D01*
Y29883D01*
X124360Y29227D01*
X126328D01*
X128296Y31851D02*
X129607D01*
X130263Y31195D01*
Y29227D01*
X128296D01*
X127640Y29883D01*
X128296Y30539D01*
X130263D01*
X131575Y29227D02*
Y31851D01*
X133543D01*
X134199Y31195D01*
Y29227D01*
X94186Y22992D02*
Y26928D01*
X95498Y25616D01*
X96810Y26928D01*
Y22992D01*
X98778Y25616D02*
X100090D01*
X100745Y24960D01*
Y22992D01*
X98778D01*
X98122Y23648D01*
X98778Y24304D01*
X100745D01*
X102057Y25616D02*
Y22992D01*
Y24304D01*
X102713Y24960D01*
X103369Y25616D01*
X104025D01*
X108617D02*
X106649D01*
X105993Y24960D01*
Y23648D01*
X106649Y22992D01*
X108617D01*
X109929Y26928D02*
Y22992D01*
Y24960D01*
X110585Y25616D01*
X111897D01*
X112553Y24960D01*
Y22992D01*
X120424D02*
X117800D01*
X120424Y25616D01*
Y26272D01*
X119768Y26928D01*
X118456D01*
X117800Y26272D01*
X121736D02*
X122392Y26928D01*
X123704D01*
X124360Y26272D01*
Y23648D01*
X123704Y22992D01*
X122392D01*
X121736Y23648D01*
Y26272D01*
X128296Y22992D02*
X125672D01*
X128296Y25616D01*
Y26272D01*
X127640Y26928D01*
X126328D01*
X125672Y26272D01*
X132231Y22992D02*
X129607D01*
X132231Y25616D01*
Y26272D01*
X131575Y26928D01*
X130263D01*
X129607Y26272D01*
D12*
X19841Y65429D02*
Y61493D01*
X22465D01*
X23777Y65429D02*
Y61493D01*
X25745D01*
X26401Y62149D01*
Y64773D01*
X25745Y65429D01*
X23777D01*
X27713Y61493D02*
X29025D01*
X28369D01*
Y65429D01*
X27713Y64773D01*
X30993Y61493D02*
X32305D01*
X31649D01*
Y65429D01*
X30993Y64773D01*
X34273Y61493D02*
X35584D01*
X34929D01*
Y65429D01*
X34273Y64773D01*
X37552Y65429D02*
X40176D01*
Y64773D01*
X37552Y62149D01*
Y61493D01*
X15578Y57871D02*
Y53935D01*
X17546D01*
X18202Y54591D01*
Y55247D01*
X17546Y55903D01*
X15578D01*
X17546D01*
X18202Y56559D01*
Y57215D01*
X17546Y57871D01*
X15578D01*
X19513Y56559D02*
Y53935D01*
Y55247D01*
X20169Y55903D01*
X20825Y56559D01*
X21481D01*
X25417Y53935D02*
X24105D01*
X23449Y54591D01*
Y55903D01*
X24105Y56559D01*
X25417D01*
X26073Y55903D01*
Y55247D01*
X23449D01*
X28041Y56559D02*
X29353D01*
X30009Y55903D01*
Y53935D01*
X28041D01*
X27385Y54591D01*
X28041Y55247D01*
X30009D01*
X31321Y53935D02*
Y57871D01*
Y55247D02*
X33289Y56559D01*
X31321Y55247D02*
X33289Y53935D01*
X35912D02*
X37224D01*
X37880Y54591D01*
Y55903D01*
X37224Y56559D01*
X35912D01*
X35256Y55903D01*
Y54591D01*
X35912Y53935D01*
X39192Y56559D02*
Y54591D01*
X39848Y53935D01*
X41816D01*
Y56559D01*
X43784Y57215D02*
Y56559D01*
X43128D01*
X44440D01*
X43784D01*
Y54591D01*
X44440Y53935D01*
X19185Y46378D02*
Y50314D01*
X20497Y49002D01*
X21809Y50314D01*
Y46378D01*
X23777D02*
X25089D01*
X25745Y47034D01*
Y48346D01*
X25089Y49002D01*
X23777D01*
X23121Y48346D01*
Y47034D01*
X23777Y46378D01*
X29681Y50314D02*
Y46378D01*
X27713D01*
X27057Y47034D01*
Y48346D01*
X27713Y49002D01*
X29681D01*
X30993D02*
Y47034D01*
X31649Y46378D01*
X33617D01*
Y49002D01*
X34929Y46378D02*
X36240D01*
X35585D01*
Y50314D01*
X34929D01*
X40176Y46378D02*
X38864D01*
X38208Y47034D01*
Y48346D01*
X38864Y49002D01*
X40176D01*
X40832Y48346D01*
Y47690D01*
X38208D01*
M02*
