G04*
G04 #@! TF.GenerationSoftware,Altium Limited,Altium Designer,22.3.1 (43)*
G04*
G04 Layer_Physical_Order=4*
G04 Layer_Color=16711680*
%FSLAX25Y25*%
%MOIN*%
G70*
G04*
G04 #@! TF.SameCoordinates,54316C7D-A7D4-46C6-97C7-E01AB4BBD31E*
G04*
G04*
G04 #@! TF.FilePolarity,Positive*
G04*
G01*
G75*
%ADD28C,0.16142*%
%ADD29C,0.02559*%
%ADD30C,0.02362*%
G36*
X125195Y71058D02*
X127669Y70464D01*
X130020Y69490D01*
X132190Y68160D01*
X134125Y66507D01*
X135778Y64572D01*
X137108Y62402D01*
X138082Y60051D01*
X138676Y57576D01*
X138868Y55138D01*
X138848Y55039D01*
Y174D01*
X138866Y82D01*
X138682Y-2264D01*
X138111Y-4642D01*
X137175Y-6901D01*
X135898Y-8986D01*
X134309Y-10845D01*
X132450Y-12433D01*
X130365Y-13711D01*
X128106Y-14646D01*
X125728Y-15217D01*
X123382Y-15402D01*
X123291Y-15384D01*
X0D01*
X-90Y-15402D01*
X-2410Y-15219D01*
X-4761Y-14654D01*
X-6995Y-13729D01*
X-9057Y-12466D01*
X-10896Y-10896D01*
X-12466Y-9057D01*
X-13729Y-6995D01*
X-14654Y-4761D01*
X-15219Y-2410D01*
X-15402Y-90D01*
X-15384Y0D01*
Y55907D01*
X-15401Y55996D01*
X-15219Y58308D01*
X-14657Y60650D01*
X-13736Y62875D01*
X-12477Y64928D01*
X-10913Y66759D01*
X-9082Y68323D01*
X-7028Y69582D01*
X-4803Y70503D01*
X-2461Y71066D01*
X-150Y71248D01*
X-60Y71230D01*
X122657D01*
X122756Y71250D01*
X125195Y71058D01*
D02*
G37*
%LPC*%
G36*
X124427Y64896D02*
X122660D01*
X120926Y64551D01*
X119294Y63875D01*
X117825Y62893D01*
X116575Y61644D01*
X115593Y60174D01*
X114917Y58542D01*
X114572Y56809D01*
Y55042D01*
X114917Y53308D01*
X115593Y51676D01*
X116575Y50207D01*
X117825Y48957D01*
X119294Y47975D01*
X120926Y47299D01*
X122660Y46954D01*
X124427D01*
X126160Y47299D01*
X127793Y47975D01*
X129262Y48957D01*
X130511Y50207D01*
X131493Y51676D01*
X132169Y53308D01*
X132514Y55042D01*
Y56809D01*
X132169Y58542D01*
X131493Y60174D01*
X130511Y61644D01*
X129262Y62893D01*
X127793Y63875D01*
X126160Y64551D01*
X124427Y64896D01*
D02*
G37*
G36*
X805D02*
X-962D01*
X-2695Y64551D01*
X-4328Y63875D01*
X-5797Y62893D01*
X-7047Y61644D01*
X-8029Y60174D01*
X-8705Y58542D01*
X-9050Y56809D01*
Y55042D01*
X-8705Y53308D01*
X-8029Y51676D01*
X-7047Y50207D01*
X-5797Y48957D01*
X-4328Y47975D01*
X-2695Y47299D01*
X-962Y46954D01*
X805D01*
X2538Y47299D01*
X4171Y47975D01*
X5640Y48957D01*
X6889Y50207D01*
X7871Y51676D01*
X8547Y53308D01*
X8892Y55042D01*
Y56809D01*
X8547Y58542D01*
X7871Y60174D01*
X6889Y61644D01*
X5640Y62893D01*
X4171Y63875D01*
X2538Y64551D01*
X805Y64896D01*
D02*
G37*
G36*
X74272Y49103D02*
X73405D01*
X72604Y48771D01*
X71991Y48158D01*
X71659Y47357D01*
Y46490D01*
X71991Y45689D01*
X72604Y45075D01*
X73405Y44744D01*
X74272D01*
X75073Y45075D01*
X75686Y45689D01*
X76018Y46490D01*
Y47357D01*
X75686Y48158D01*
X75073Y48771D01*
X74272Y49103D01*
D02*
G37*
G36*
X67185Y48987D02*
X66318D01*
X65517Y48655D01*
X64904Y48042D01*
X64572Y47241D01*
Y46374D01*
X64904Y45573D01*
X65517Y44960D01*
X66318Y44628D01*
X67185D01*
X67987Y44960D01*
X68600Y45573D01*
X68931Y46374D01*
Y47241D01*
X68600Y48042D01*
X67987Y48655D01*
X67185Y48987D01*
D02*
G37*
G36*
X81359Y48951D02*
X80492D01*
X79690Y48619D01*
X79077Y48006D01*
X78746Y47205D01*
Y46338D01*
X79077Y45537D01*
X79690Y44924D01*
X80492Y44592D01*
X81359D01*
X82160Y44924D01*
X82773Y45537D01*
X83105Y46338D01*
Y47205D01*
X82773Y48006D01*
X82160Y48619D01*
X81359Y48951D01*
D02*
G37*
G36*
X60099D02*
X59232D01*
X58431Y48619D01*
X57818Y48006D01*
X57486Y47205D01*
Y46338D01*
X57818Y45537D01*
X58431Y44924D01*
X59232Y44592D01*
X60099D01*
X60900Y44924D01*
X61513Y45537D01*
X61845Y46338D01*
Y47205D01*
X61513Y48006D01*
X60900Y48619D01*
X60099Y48951D01*
D02*
G37*
G36*
X54587Y44620D02*
X53720D01*
X52919Y44289D01*
X52306Y43676D01*
X51974Y42874D01*
Y42007D01*
X52306Y41206D01*
X52919Y40593D01*
X53720Y40261D01*
X54587D01*
X55388Y40593D01*
X56001Y41206D01*
X56333Y42007D01*
Y42874D01*
X56001Y43676D01*
X55388Y44289D01*
X54587Y44620D01*
D02*
G37*
G36*
X86083Y44227D02*
X85216D01*
X84415Y43895D01*
X83802Y43282D01*
X83470Y42481D01*
Y41614D01*
X83802Y40813D01*
X84415Y40199D01*
X85216Y39868D01*
X86083D01*
X86884Y40199D01*
X87497Y40813D01*
X87829Y41614D01*
Y42481D01*
X87497Y43282D01*
X86884Y43895D01*
X86083Y44227D01*
D02*
G37*
G36*
X54587Y37628D02*
X53720D01*
X52919Y37297D01*
X52306Y36683D01*
X51974Y35882D01*
Y35015D01*
X52306Y34214D01*
X52919Y33601D01*
X53720Y33269D01*
X54587D01*
X55388Y33601D01*
X56001Y34214D01*
X56333Y35015D01*
Y35882D01*
X56001Y36683D01*
X55388Y37297D01*
X54587Y37628D01*
D02*
G37*
G36*
X86024Y37402D02*
X85157D01*
X84356Y37071D01*
X83743Y36458D01*
X83411Y35656D01*
Y34789D01*
X83743Y33988D01*
X84356Y33375D01*
X85157Y33044D01*
X86024D01*
X86825Y33375D01*
X87438Y33988D01*
X87770Y34789D01*
Y35656D01*
X87438Y36458D01*
X86825Y37071D01*
X86024Y37402D01*
D02*
G37*
G36*
X25040Y35368D02*
X24212D01*
X23447Y35052D01*
X22862Y34466D01*
X22545Y33701D01*
Y32873D01*
X22862Y32109D01*
X23447Y31523D01*
X24212Y31206D01*
X25040D01*
X25805Y31523D01*
X26390Y32109D01*
X26707Y32873D01*
Y33701D01*
X26390Y34466D01*
X25805Y35052D01*
X25040Y35368D01*
D02*
G37*
G36*
X30158Y35073D02*
X29330D01*
X28565Y34756D01*
X27980Y34171D01*
X27663Y33406D01*
Y32578D01*
X27980Y31813D01*
X28565Y31228D01*
X29330Y30911D01*
X30158D01*
X30923Y31228D01*
X31508Y31813D01*
X31825Y32578D01*
Y33406D01*
X31508Y34171D01*
X30923Y34756D01*
X30158Y35073D01*
D02*
G37*
G36*
X54587Y30636D02*
X53720D01*
X52919Y30304D01*
X52306Y29691D01*
X51974Y28890D01*
Y28023D01*
X52306Y27222D01*
X52919Y26609D01*
X53720Y26277D01*
X54587D01*
X55388Y26609D01*
X56001Y27222D01*
X56333Y28023D01*
Y28890D01*
X56001Y29691D01*
X55388Y30304D01*
X54587Y30636D01*
D02*
G37*
G36*
X86139Y30578D02*
X85272D01*
X84471Y30247D01*
X83858Y29634D01*
X83526Y28832D01*
Y27965D01*
X83858Y27164D01*
X84471Y26551D01*
X85272Y26219D01*
X86139D01*
X86940Y26551D01*
X87553Y27164D01*
X87885Y27965D01*
Y28832D01*
X87553Y29634D01*
X86940Y30247D01*
X86139Y30578D01*
D02*
G37*
G36*
X30158Y29561D02*
X29330D01*
X28565Y29245D01*
X27980Y28659D01*
X27663Y27894D01*
Y27066D01*
X27980Y26301D01*
X28565Y25716D01*
X29330Y25399D01*
X30158D01*
X30923Y25716D01*
X31508Y26301D01*
X31825Y27066D01*
Y27894D01*
X31508Y28659D01*
X30923Y29245D01*
X30158Y29561D01*
D02*
G37*
G36*
X25040D02*
X24212D01*
X23447Y29245D01*
X22862Y28659D01*
X22545Y27894D01*
Y27066D01*
X22862Y26301D01*
X23447Y25716D01*
X24212Y25399D01*
X25040D01*
X25805Y25716D01*
X26390Y26301D01*
X26707Y27066D01*
Y27894D01*
X26390Y28659D01*
X25805Y29245D01*
X25040Y29561D01*
D02*
G37*
G36*
X86083Y23754D02*
X85216D01*
X84415Y23423D01*
X83802Y22809D01*
X83470Y22008D01*
Y21141D01*
X83802Y20340D01*
X84415Y19727D01*
X85216Y19395D01*
X86083D01*
X86884Y19727D01*
X87497Y20340D01*
X87829Y21141D01*
Y22008D01*
X87497Y22809D01*
X86884Y23423D01*
X86083Y23754D01*
D02*
G37*
G36*
X54587Y23644D02*
X53720D01*
X52919Y23312D01*
X52306Y22699D01*
X51974Y21898D01*
Y21031D01*
X52306Y20230D01*
X52919Y19617D01*
X53720Y19285D01*
X54587D01*
X55388Y19617D01*
X56001Y20230D01*
X56333Y21031D01*
Y21898D01*
X56001Y22699D01*
X55388Y23312D01*
X54587Y23644D01*
D02*
G37*
G36*
X79744Y43155D02*
X60059D01*
X59786Y43100D01*
X59554Y42946D01*
X57586Y40977D01*
X57431Y40745D01*
X57377Y40472D01*
Y20787D01*
X57431Y20514D01*
X57586Y20283D01*
X59554Y18314D01*
X59786Y18159D01*
X60059Y18105D01*
X79744D01*
X80017Y18159D01*
X80249Y18314D01*
X82217Y20283D01*
X82217Y20283D01*
X82372Y20514D01*
X82426Y20787D01*
Y40472D01*
X82372Y40745D01*
X82217Y40977D01*
X82217Y40977D01*
X80249Y42946D01*
X80017Y43100D01*
X79744Y43155D01*
D02*
G37*
G36*
X104016Y8242D02*
X103188D01*
X102423Y7926D01*
X101838Y7340D01*
X101521Y6575D01*
Y5747D01*
X101838Y4983D01*
X102423Y4397D01*
X103188Y4080D01*
X104016D01*
X104781Y4397D01*
X105367Y4983D01*
X105683Y5747D01*
Y6575D01*
X105367Y7340D01*
X104781Y7926D01*
X104016Y8242D01*
D02*
G37*
G36*
X2421Y8672D02*
Y2421D01*
X8672D01*
X8643Y2567D01*
X7960Y4218D01*
X6967Y5703D01*
X5703Y6967D01*
X4218Y7960D01*
X2567Y8643D01*
X2421Y8672D01*
D02*
G37*
G36*
X-2579D02*
X-2725Y8643D01*
X-4375Y7960D01*
X-5861Y6967D01*
X-7125Y5703D01*
X-8117Y4218D01*
X-8801Y2567D01*
X-8830Y2421D01*
X-2579D01*
Y8672D01*
D02*
G37*
G36*
X125043Y8871D02*
Y1421D01*
X132493D01*
X132265Y2567D01*
X131582Y4218D01*
X130589Y5703D01*
X129326Y6967D01*
X127840Y7960D01*
X126189Y8643D01*
X125043Y8871D01*
D02*
G37*
G36*
X122043D02*
X120897Y8643D01*
X119247Y7960D01*
X117761Y6967D01*
X116497Y5703D01*
X115505Y4218D01*
X114821Y2567D01*
X114593Y1421D01*
X122043D01*
Y8871D01*
D02*
G37*
G36*
X8672Y-2579D02*
X2421D01*
Y-8830D01*
X2567Y-8801D01*
X4218Y-8117D01*
X5703Y-7125D01*
X6967Y-5861D01*
X7960Y-4375D01*
X8643Y-2725D01*
X8672Y-2579D01*
D02*
G37*
G36*
X-2579D02*
X-8830D01*
X-8801Y-2725D01*
X-8117Y-4375D01*
X-7125Y-5861D01*
X-5861Y-7125D01*
X-4375Y-8117D01*
X-2725Y-8801D01*
X-2579Y-8830D01*
Y-2579D01*
D02*
G37*
G36*
X132493Y-1579D02*
X125043D01*
Y-9029D01*
X126189Y-8801D01*
X127840Y-8117D01*
X129326Y-7125D01*
X130589Y-5861D01*
X131582Y-4375D01*
X132265Y-2725D01*
X132493Y-1579D01*
D02*
G37*
G36*
X122043D02*
X114593D01*
X114821Y-2725D01*
X115505Y-4375D01*
X116497Y-5861D01*
X117761Y-7125D01*
X119247Y-8117D01*
X120897Y-8801D01*
X122043Y-9029D01*
Y-1579D01*
D02*
G37*
%LPD*%
G36*
X81713Y40472D02*
X81713D01*
Y20787D01*
X81713D01*
X79744Y18819D01*
X60059D01*
X58091Y20787D01*
Y40472D01*
X60059Y42441D01*
X79744D01*
X81713Y40472D01*
D02*
G37*
D28*
X123543Y55925D02*
D03*
X-79D02*
D03*
X123543Y-79D02*
D03*
X-79D02*
D03*
D29*
X54154Y42441D02*
D03*
X78957Y21575D02*
D03*
X74429D02*
D03*
X69902D02*
D03*
X65374D02*
D03*
X60846D02*
D03*
X78957Y39685D02*
D03*
X60846D02*
D03*
X54154Y21464D02*
D03*
Y35449D02*
D03*
Y28457D02*
D03*
X80925Y46772D02*
D03*
X66752Y46808D02*
D03*
X73839Y46923D02*
D03*
X59665Y46772D02*
D03*
X85590Y35223D02*
D03*
X85706Y28399D02*
D03*
X85650Y21575D02*
D03*
Y42047D02*
D03*
X65374Y26102D02*
D03*
Y30630D02*
D03*
X69902D02*
D03*
Y26102D02*
D03*
X74429D02*
D03*
Y30630D02*
D03*
Y35157D02*
D03*
X69902D02*
D03*
X65374D02*
D03*
X60846D02*
D03*
Y30630D02*
D03*
Y26102D02*
D03*
X78957D02*
D03*
Y30630D02*
D03*
Y35157D02*
D03*
X74429Y39685D02*
D03*
X69902D02*
D03*
X65374D02*
D03*
D30*
X-9626Y30236D02*
D03*
X-10807Y47559D02*
D03*
X-10413Y9370D02*
D03*
X2185Y14488D02*
D03*
X91555Y13701D02*
D03*
X100610Y64094D02*
D03*
X41161Y59370D02*
D03*
X38405Y67244D02*
D03*
X59272Y66457D02*
D03*
X70689Y66850D02*
D03*
X88012Y64094D02*
D03*
X107303Y57402D02*
D03*
X104154Y31417D02*
D03*
X113602Y28661D02*
D03*
X132500Y30630D02*
D03*
X132894Y43228D02*
D03*
X134468Y8976D02*
D03*
X96673Y-11102D02*
D03*
X110059Y-7559D02*
D03*
X117539Y-11890D02*
D03*
X104154Y-11496D02*
D03*
X86043Y-11102D02*
D03*
X46279Y-11890D02*
D03*
X62815Y-5197D02*
D03*
X74626Y-9921D02*
D03*
X58091D02*
D03*
X49823Y315D02*
D03*
X40768Y-7953D02*
D03*
X23839Y-4803D02*
D03*
X31712Y-11496D02*
D03*
X13209Y-9528D02*
D03*
X15965Y19606D02*
D03*
X20295Y11338D02*
D03*
X17146Y315D02*
D03*
X-571Y26693D02*
D03*
X-8839Y20787D02*
D03*
X-8445Y39291D02*
D03*
X25020Y62913D02*
D03*
X13996Y64488D02*
D03*
X15965Y54646D02*
D03*
X17933Y45984D02*
D03*
X9272Y41653D02*
D03*
X15965Y37323D02*
D03*
X46673Y64094D02*
D03*
X35256Y49921D02*
D03*
X31712Y62520D02*
D03*
X26594Y51102D02*
D03*
X34075Y41260D02*
D03*
X42736Y40079D02*
D03*
X45886Y51890D02*
D03*
X55335Y60551D02*
D03*
X67146Y60945D02*
D03*
X79744Y59764D02*
D03*
X93917Y52677D02*
D03*
X104941Y46772D02*
D03*
X97461Y23937D02*
D03*
X114390Y38110D02*
D03*
X109665Y20394D02*
D03*
X101398Y14094D02*
D03*
X96280Y38110D02*
D03*
X105335Y315D02*
D03*
X101398Y-4803D02*
D03*
X95886D02*
D03*
X89980Y-4409D02*
D03*
X78563Y-3622D02*
D03*
X74232Y-2835D02*
D03*
X84468Y-3622D02*
D03*
X68327Y709D02*
D03*
Y7795D02*
D03*
X53366Y10157D02*
D03*
X46673Y18425D02*
D03*
X37224Y19212D02*
D03*
X30531Y20394D02*
D03*
X124827Y15118D02*
D03*
X29744Y32992D02*
D03*
Y27480D02*
D03*
X103602Y6161D02*
D03*
X24626Y27480D02*
D03*
Y33287D02*
D03*
M02*
