G04*
G04 #@! TF.GenerationSoftware,Altium Limited,Altium Designer,22.3.1 (43)*
G04*
G04 Layer_Color=16711935*
%FSLAX25Y25*%
%MOIN*%
G70*
G04*
G04 #@! TF.SameCoordinates,54316C7D-A7D4-46C6-97C7-E01AB4BBD31E*
G04*
G04*
G04 #@! TF.FilePolarity,Negative*
G04*
G01*
G75*
%ADD23C,0.16942*%
%ADD24C,0.03347*%
G36*
X79821Y43225D02*
X79898Y43214D01*
X79973Y43195D01*
X80046Y43169D01*
X80116Y43136D01*
X80182Y43096D01*
X80244Y43050D01*
X80301Y42998D01*
X82270Y41030D01*
X82270Y41030D01*
X82322Y40973D01*
X82368Y40910D01*
X82408Y40844D01*
X82441Y40774D01*
X82467Y40701D01*
X82486Y40626D01*
X82497Y40550D01*
X82501Y40472D01*
Y20787D01*
X82497Y20710D01*
X82486Y20633D01*
X82467Y20559D01*
X82441Y20486D01*
X82408Y20416D01*
X82368Y20349D01*
X82322Y20287D01*
X82270Y20230D01*
X82270Y20230D01*
X80301Y18261D01*
X80244Y18209D01*
X80182Y18163D01*
X80116Y18124D01*
X80046Y18090D01*
X79973Y18064D01*
X79898Y18046D01*
X79821Y18034D01*
X79744Y18031D01*
X60059D01*
X59982Y18034D01*
X59905Y18046D01*
X59830Y18064D01*
X59757Y18090D01*
X59687Y18124D01*
X59621Y18163D01*
X59559Y18209D01*
X59501Y18261D01*
X57533Y20230D01*
X57481Y20287D01*
X57435Y20349D01*
X57395Y20416D01*
X57362Y20486D01*
X57336Y20559D01*
X57317Y20633D01*
X57306Y20710D01*
X57302Y20787D01*
Y40472D01*
X57306Y40550D01*
X57317Y40626D01*
X57336Y40701D01*
X57362Y40774D01*
X57395Y40844D01*
X57435Y40910D01*
X57481Y40973D01*
X57533Y41030D01*
X59501Y42998D01*
X59559Y43050D01*
X59621Y43096D01*
X59687Y43136D01*
X59757Y43169D01*
X59830Y43195D01*
X59905Y43214D01*
X59982Y43225D01*
X60059Y43229D01*
X79744D01*
X79821Y43225D01*
D02*
G37*
D23*
X123543Y55925D02*
D03*
X-79D02*
D03*
X123543Y-79D02*
D03*
X-79D02*
D03*
D24*
X54154Y42441D02*
D03*
X78957Y21575D02*
D03*
X74429D02*
D03*
X69902D02*
D03*
X65374D02*
D03*
X60846D02*
D03*
X78957Y39685D02*
D03*
X60846D02*
D03*
X54154Y21464D02*
D03*
Y35449D02*
D03*
Y28457D02*
D03*
X80925Y46772D02*
D03*
X66752Y46808D02*
D03*
X73839Y46923D02*
D03*
X59665Y46772D02*
D03*
X85590Y35223D02*
D03*
X85706Y28399D02*
D03*
X85650Y21575D02*
D03*
Y42047D02*
D03*
X65374Y26102D02*
D03*
Y30630D02*
D03*
X69902D02*
D03*
Y26102D02*
D03*
X74429D02*
D03*
Y30630D02*
D03*
Y35157D02*
D03*
X69902D02*
D03*
X65374D02*
D03*
X60846D02*
D03*
Y30630D02*
D03*
Y26102D02*
D03*
X78957D02*
D03*
Y30630D02*
D03*
Y35157D02*
D03*
X74429Y39685D02*
D03*
X69902D02*
D03*
X65374D02*
D03*
M02*
