G04*
G04 #@! TF.GenerationSoftware,Altium Limited,Altium Designer,22.3.1 (43)*
G04*
G04 Layer_Color=8388736*
%FSLAX25Y25*%
%MOIN*%
G70*
G04*
G04 #@! TF.SameCoordinates,54316C7D-A7D4-46C6-97C7-E01AB4BBD31E*
G04*
G04*
G04 #@! TF.FilePolarity,Negative*
G04*
G01*
G75*
%ADD18R,0.05512X0.03937*%
%ADD19R,0.05709X0.04921*%
%ADD20R,0.05512X0.03543*%
%ADD21R,0.25394X0.24606*%
%ADD22R,0.06496X0.11614*%
%ADD23C,0.16942*%
%ADD24C,0.03347*%
D18*
X37201Y29594D02*
D03*
Y24476D02*
D03*
X46201D02*
D03*
Y29594D02*
D03*
X98709Y1043D02*
D03*
Y6161D02*
D03*
X90709Y6220D02*
D03*
Y1102D02*
D03*
D19*
X39980Y13307D02*
D03*
Y4252D02*
D03*
D20*
X31319Y3661D02*
D03*
Y11142D02*
D03*
D21*
X69902Y30630D02*
D03*
D22*
X78957Y6024D02*
D03*
X60846D02*
D03*
D23*
X123543Y55925D02*
D03*
X-79D02*
D03*
X123543Y-79D02*
D03*
X-79D02*
D03*
D24*
X54154Y42441D02*
D03*
X78957Y21575D02*
D03*
X74429D02*
D03*
X69902D02*
D03*
X65374D02*
D03*
X60846D02*
D03*
X78957Y39685D02*
D03*
X60846D02*
D03*
X54154Y21464D02*
D03*
Y35449D02*
D03*
Y28457D02*
D03*
X80925Y46772D02*
D03*
X66752Y46808D02*
D03*
X73839Y46923D02*
D03*
X59665Y46772D02*
D03*
X85590Y35223D02*
D03*
X85706Y28399D02*
D03*
X85650Y21575D02*
D03*
Y42047D02*
D03*
X65374Y26102D02*
D03*
Y30630D02*
D03*
X69902D02*
D03*
Y26102D02*
D03*
X74429D02*
D03*
Y30630D02*
D03*
Y35157D02*
D03*
X69902D02*
D03*
X65374D02*
D03*
X60846D02*
D03*
Y30630D02*
D03*
Y26102D02*
D03*
X78957D02*
D03*
Y30630D02*
D03*
Y35157D02*
D03*
X74429Y39685D02*
D03*
X69902D02*
D03*
X65374D02*
D03*
M02*
