G04*
G04 #@! TF.GenerationSoftware,Altium Limited,Altium Designer,22.3.1 (43)*
G04*
G04 Layer_Physical_Order=3*
G04 Layer_Color=128*
%FSLAX25Y25*%
%MOIN*%
G70*
G04*
G04 #@! TF.SameCoordinates,54316C7D-A7D4-46C6-97C7-E01AB4BBD31E*
G04*
G04*
G04 #@! TF.FilePolarity,Negative*
G04*
G01*
G75*
%ADD27C,0.00787*%
%ADD31C,0.04000*%
%ADD32C,0.10866*%
%ADD33C,0.03780*%
D27*
X54154Y18425D02*
X86437D01*
X51594Y20984D02*
X54154Y18425D01*
X86437D02*
X88799Y20787D01*
X97461Y69902D02*
Y72362D01*
X87126Y-14646D02*
Y10157D01*
X97461Y20492D01*
Y69902D01*
X51594Y20984D02*
Y45492D01*
X88799Y20787D02*
Y45689D01*
X83878Y50610D02*
X88799Y45689D01*
X56713Y50610D02*
X83878D01*
X51594Y45492D02*
X56713Y50610D01*
X51594Y45295D02*
Y45492D01*
D31*
X-16811Y0D02*
G03*
X0Y-16811I16811J0D01*
G01*
X123291D02*
G03*
X140276Y174I0J16985D01*
G01*
Y55039D02*
G03*
X122657Y72657I-17618J0D01*
G01*
X-60D02*
G03*
X-16811Y55907I0J-16751D01*
G01*
X0Y-16811D02*
X123291D01*
X140276Y174D02*
Y55039D01*
X-60Y72657D02*
X122657D01*
X-16811Y0D02*
Y55907D01*
D32*
X123543Y-79D02*
D03*
X-79D02*
D03*
D33*
X54154Y42441D02*
D03*
X-9626Y30236D02*
D03*
X-10807Y47559D02*
D03*
X-10413Y9370D02*
D03*
X2185Y14488D02*
D03*
X91555Y13701D02*
D03*
X100610Y64094D02*
D03*
X41161Y59370D02*
D03*
X38405Y67244D02*
D03*
X59272Y66457D02*
D03*
X70689Y66850D02*
D03*
X88012Y64094D02*
D03*
X107303Y57402D02*
D03*
X104154Y31417D02*
D03*
X113602Y28661D02*
D03*
X132500Y30630D02*
D03*
X132894Y43228D02*
D03*
X134468Y8976D02*
D03*
X96673Y-11102D02*
D03*
X110059Y-7559D02*
D03*
X117539Y-11890D02*
D03*
X104154Y-11496D02*
D03*
X86043Y-11102D02*
D03*
X46279Y-11890D02*
D03*
X62815Y-5197D02*
D03*
X74626Y-9921D02*
D03*
X58091D02*
D03*
X49823Y315D02*
D03*
X40768Y-7953D02*
D03*
X23839Y-4803D02*
D03*
X31712Y-11496D02*
D03*
X13209Y-9528D02*
D03*
X15965Y19606D02*
D03*
X20295Y11338D02*
D03*
X17146Y315D02*
D03*
X-571Y26693D02*
D03*
X-8839Y20787D02*
D03*
X-8445Y39291D02*
D03*
X25020Y62913D02*
D03*
X13996Y64488D02*
D03*
X15965Y54646D02*
D03*
X17933Y45984D02*
D03*
X9272Y41653D02*
D03*
X15965Y37323D02*
D03*
X46673Y64094D02*
D03*
X35256Y49921D02*
D03*
X31712Y62520D02*
D03*
X26594Y51102D02*
D03*
X34075Y41260D02*
D03*
X42736Y40079D02*
D03*
X45886Y51890D02*
D03*
X55335Y60551D02*
D03*
X67146Y60945D02*
D03*
X79744Y59764D02*
D03*
X93917Y52677D02*
D03*
X104941Y46772D02*
D03*
X97461Y23937D02*
D03*
X114390Y38110D02*
D03*
X109665Y20394D02*
D03*
X101398Y14094D02*
D03*
X96280Y38110D02*
D03*
X105335Y315D02*
D03*
X101398Y-4803D02*
D03*
X95886D02*
D03*
X89980Y-4409D02*
D03*
X78563Y-3622D02*
D03*
X74232Y-2835D02*
D03*
X84468Y-3622D02*
D03*
X68327Y709D02*
D03*
Y7795D02*
D03*
X53366Y10157D02*
D03*
X46673Y18425D02*
D03*
X37224Y19212D02*
D03*
X30531Y20394D02*
D03*
X78957Y21575D02*
D03*
X74429D02*
D03*
X69902D02*
D03*
X65374D02*
D03*
X60846D02*
D03*
X78957Y39685D02*
D03*
X60846D02*
D03*
X124827Y15118D02*
D03*
X54154Y21464D02*
D03*
Y35449D02*
D03*
Y28457D02*
D03*
X80925Y46772D02*
D03*
X66752Y46808D02*
D03*
X73839Y46923D02*
D03*
X59665Y46772D02*
D03*
X85590Y35223D02*
D03*
X85706Y28399D02*
D03*
X85650Y21575D02*
D03*
Y42047D02*
D03*
X65374Y26102D02*
D03*
Y30630D02*
D03*
X69902D02*
D03*
Y26102D02*
D03*
X74429D02*
D03*
Y30630D02*
D03*
Y35157D02*
D03*
X69902D02*
D03*
X65374D02*
D03*
X60846D02*
D03*
Y30630D02*
D03*
Y26102D02*
D03*
X78957D02*
D03*
Y30630D02*
D03*
Y35157D02*
D03*
X74429Y39685D02*
D03*
X69902D02*
D03*
X65374D02*
D03*
M02*
