G04*
G04 #@! TF.GenerationSoftware,Altium Limited,Altium Designer,22.3.1 (43)*
G04*
G04 Layer_Physical_Order=2*
G04 Layer_Color=32768*
%FSLAX25Y25*%
%MOIN*%
G70*
G04*
G04 #@! TF.SameCoordinates,54316C7D-A7D4-46C6-97C7-E01AB4BBD31E*
G04*
G04*
G04 #@! TF.FilePolarity,Negative*
G04*
G01*
G75*
%ADD31C,0.04000*%
%ADD32C,0.10866*%
%ADD33C,0.03780*%
D31*
X-16811Y0D02*
G03*
X0Y-16811I16811J0D01*
G01*
X123291D02*
G03*
X140276Y174I0J16985D01*
G01*
Y55039D02*
G03*
X122657Y72657I-17618J0D01*
G01*
X-60D02*
G03*
X-16811Y55907I0J-16751D01*
G01*
X0Y-16811D02*
X123291D01*
X140276Y174D02*
Y55039D01*
X-60Y72657D02*
X122657D01*
X-16811Y0D02*
Y55907D01*
D32*
X123543Y55925D02*
D03*
X-79D02*
D03*
D33*
X54154Y42441D02*
D03*
X78957Y21575D02*
D03*
X74429D02*
D03*
X69902D02*
D03*
X65374D02*
D03*
X60846D02*
D03*
X78957Y39685D02*
D03*
X60846D02*
D03*
X54154Y21464D02*
D03*
Y35449D02*
D03*
X29744Y32992D02*
D03*
Y27480D02*
D03*
X103602Y6161D02*
D03*
X24626Y27480D02*
D03*
Y33287D02*
D03*
X54154Y28457D02*
D03*
X80925Y46772D02*
D03*
X66752Y46808D02*
D03*
X73839Y46923D02*
D03*
X59665Y46772D02*
D03*
X85590Y35223D02*
D03*
X85706Y28399D02*
D03*
X85650Y21575D02*
D03*
Y42047D02*
D03*
X65374Y26102D02*
D03*
Y30630D02*
D03*
X69902D02*
D03*
Y26102D02*
D03*
X74429D02*
D03*
Y30630D02*
D03*
Y35157D02*
D03*
X69902D02*
D03*
X65374D02*
D03*
X60846D02*
D03*
Y30630D02*
D03*
Y26102D02*
D03*
X78957D02*
D03*
Y30630D02*
D03*
Y35157D02*
D03*
X74429Y39685D02*
D03*
X69902D02*
D03*
X65374D02*
D03*
M02*
