G04*
G04 #@! TF.GenerationSoftware,Altium Limited,Altium Designer,22.3.1 (43)*
G04*
G04 Layer_Color=8421504*
%FSLAX25Y25*%
%MOIN*%
G70*
G04*
G04 #@! TF.SameCoordinates,B0CD7CAE-3E36-43F7-B439-C09FFECED3EA*
G04*
G04*
G04 #@! TF.FilePolarity,Positive*
G04*
G01*
G75*
%ADD13R,0.09449X0.05512*%
%ADD14R,0.05512X0.06299*%
%ADD15R,0.05512X0.02756*%
%ADD16R,0.05433X0.05433*%
%ADD17R,0.03347X0.03347*%
%ADD18R,0.05118X0.03543*%
D13*
X102657Y27264D02*
D03*
Y88287D02*
D03*
D14*
X64862Y86024D02*
D03*
D15*
X62500Y67028D02*
D03*
Y62697D02*
D03*
Y41043D02*
D03*
Y45374D02*
D03*
Y49705D02*
D03*
Y54035D02*
D03*
Y58366D02*
D03*
Y36713D02*
D03*
Y32382D02*
D03*
D16*
X65158Y26870D02*
D03*
D17*
X43996Y55905D02*
D03*
X37303D02*
D03*
X90748Y16732D02*
D03*
X84055D02*
D03*
X66929Y16929D02*
D03*
X73622D02*
D03*
X88189Y99705D02*
D03*
X94882D02*
D03*
X63779Y99508D02*
D03*
X70473D02*
D03*
X38583Y36083D02*
D03*
X45276D02*
D03*
X38937Y26024D02*
D03*
X45630D02*
D03*
D18*
X46850Y81004D02*
D03*
Y86122D02*
D03*
X30315Y86024D02*
D03*
Y80905D02*
D03*
X38583Y86024D02*
D03*
Y80905D02*
D03*
M02*
