M48
;Layer_Color=9474304
;FILE_FORMAT=2:5
INCH,LZ
;TYPE=PLATED
T1F00S00C0.01181
T2F00S00C0.04331
;TYPE=NON_PLATED
T3F00S00C0.03937
%
T01
X0110433Y0005807
Y0009744
Y0013681
Y0017618
Y0021555
Y0025492
Y0029429
Y0033366
Y0037303
Y004124
Y0045177
Y0049114
Y0053051
Y0056988
Y0060925
Y0064862
X0103051Y0060039
X0095374Y0061516
Y0057579
Y0049705
X0096161Y0040453
X0088189Y0039272
X0089567Y0045472
X0087992Y0053839
Y0061713
X0074508Y0061122
Y0056102
X0074705Y005187
Y0047244
X0068583Y0045197
X0068602Y0050098
X0068504Y0057972
X006998Y0062795
X008002Y0054921
X008061Y0041142
X0080709Y003061
X0077264Y0026772
X0090847Y0024311
X0093996Y0033268
X009653Y0016658
X0104134Y0018898
X0103937Y0005118
X01
X0096063
X0092126
X0088189
X0084252
X0080315
X0076378
X0072441
X0068504
X0064567
X006063
X0056693
X0052756
X0048819
X0044882
X0040945
X0037008
X0033071
X0029134
X0025197
X002126
X0017323
X0013386
X0009449
X0005512
Y0009055
Y0012992
Y0016929
X000561Y002313
Y0027067
Y0031004
Y0034941
Y0038878
Y0042815
Y0046752
Y0050689
Y0054626
Y0058563
Y00625
Y0066437
X0020709Y0061221
X0022953Y0052047
X0021732Y0041024
X0028543Y0043209
X003311Y0040866
X0038583Y0040787
X0044764Y0042165
X0050945Y0042087
X0056102Y0045551
X005626Y0054016
X0047598Y0050433
X0041378Y0049409
X0034173Y0049528
X0030787Y0059842
X0037362Y0060551
X0050315
X0052244Y0033071
X0048031Y003122
X0042953Y0031181
X0033622Y003185
X0027067Y0028937
X0022402Y0029134
X0023858Y0032677
X0024803Y0023071
X0029606Y002311
X0034488Y0023071
X0032874Y0015157
X0034646Y0010138
X002815Y0012795
X0021161Y0014567
X0021378Y0020787
X0017224Y0010827
X0012106Y0013976
X0043012Y0009252
X005689Y0009843
X0055984Y0026299
X005311Y0023898
X0050197Y0021811
X0045984Y0021102
X0059724Y0028386
X0056811Y0036181
X0071161Y0038583
X0073524Y0010925
X0084153Y0011024
X0104528Y0050886
X0095177Y0069882
Y0077756
X008809Y0079823
Y0071949
X0103347Y0079528
X0100689Y0099606
X0102165Y0108858
X0098228
X0094291
X0090354
X0086417
X008248
X0078543
X0074606
X0070669
X0066732
X0062795
X0058858
X0054921
X0050984
X0047047
X004311
X0039173
X0035236
X0031299
X0027362
X0023425
X0019488
X0015551
X0011614
X0007677
X000561Y0105807
Y010187
Y0097933
Y0093996
Y0090059
Y0086122
Y0082185
Y0078248
Y0074311
Y0070374
X0025197Y0073622
X0023819Y0078543
X003189Y0074606
X0040059Y0075295
X0047539Y0075689
X0056201Y0076378
X005748Y0086713
X005187Y0085236
Y0088878
X0048425Y009498
X0037894Y009439
X0029921Y0094193
X0022835Y0093996
X0013091Y0094095
X0009252Y0091634
X0009646Y0112303
X0005709
X0013583
X001752
X0021457
X0025394
X0029331
X0033268
X0037205
X0041142
X0045079
X0049016
X0052953
X005689
X0060827
X0064764
X0068701
X0072638
X0076575
X0080512
X0084449
X0088386
X0092323
X009626
X0100197
X0104134
X0108071
X0106102Y0108858
X008814Y0105364
X0081102Y0100591
X008435Y0092913
X0072835Y0089862
X0067716Y0093209
X005876Y0093701
X0071653Y0079331
X0110433Y008061
Y0084547
Y0088484
Y0092421
Y0096358
Y0100295
Y0104232
Y0108169
Y0076673
Y0072736
Y0068799
T02
X0015842Y0025905
Y0035906
Y0045906
Y0055905
Y0065905
Y0075906
Y0085905
T03
X0104232Y0038878
Y0070374
M30
