M48
;Layer_Color=9474304
;FILE_FORMAT=4:4
METRIC,LZ
;TYPE=PLATED
T1F00S00C0.1000
;TYPE=NON_PLATED
%
T01
X00211Y0002
X00224
X00258
X00269Y00026
X00286875Y000628
X002925
X00288Y00077
X00283
X00276Y001
X00269132Y00108
X00269Y00124
X00277
X00285Y00124
X00285Y00132
X00285Y0014
X00301
Y00132
Y00124
X00309Y00124
Y00116
X00309Y00108
X00317
Y001
X00309
X00293Y00108
X00293Y00116
X00277Y00132
X00261Y00132
Y0014
X00245Y0014
X00237Y0014
X00229Y0014
Y00132
Y00124
X00237Y00124
X00237Y00116
X00245Y00116
X00245Y00124
X00237Y00108
X00245Y001
X00253
X00247Y00094
X00254125Y00088675
X00213Y00116
X00205Y00124
Y0014
X00213Y0014
Y00132
X00221
X00229Y00156
X00209
X00189Y00156
X00181
X00173Y0014
X00165
X00181Y00132
X00173Y00116
Y00108
X00195Y0005
Y00046
X00205Y00172
X00205Y0018
X00205Y00188
Y00196
X00197Y00196
X00197Y00188
X00197Y0018
X00189Y00188
X00181Y00196
X00173Y00188
X00165
X00165Y002
X00173Y00204
Y00212
X00165
X00165Y0022
X00173Y0022
X00173Y00228
X00181Y00228
Y00236
Y00244
X00181Y00252
X00181Y0026
X00181Y00276
X00173Y00276
X00164Y0028
Y00272
X00141Y0027
Y00282
Y00257
Y00243
Y00231
X0013Y00242
Y00252
Y00262
X00116Y00252
X00118Y00234
X00124Y00218
X0013Y00202
X00189Y00204
X00197
X00205Y00204
X00205Y00212
X00205Y0022
X00205Y00228
Y00236
X00197Y00236
X00197Y00228
Y0022
X00197Y00244
X00197Y00252
X00205Y00252
X00205Y0026
X00213
X00221Y0026
X00221Y00268
X00213Y00268
Y00276
X00205Y00268
X00189Y00276
X00173Y00252
X00173Y00244
X00165Y00236
X00221Y00244
X00221Y00252
X00229Y0026
X00245
X00261
X00269
X00285Y00252
X00301Y00252
X00309Y0026
Y00268
X00309Y00276
X00317
Y00268
X00325
X00333Y00276
X00341Y00276
X00349Y00276
X00365Y00276
X00365Y00228
X00349Y00228
X00341Y00228
X00341Y0022
X00349
Y00204
X00341Y00204
X00341Y00212
X00333
X00333Y0022
X00325Y00212
X00317Y00212
X00309Y00212
X0031Y00196
X00317Y00196
X00317Y00188
X00325Y00196
X00333
Y00204
X0034925Y0019575
X00373Y00196
X00377Y00191
X00373Y00186
X00388Y00175
X00365Y00148
X00365Y00132
X00369Y00128
X00374Y0012
X00376Y00116
X00373Y00105
X00376Y00102
X00357Y001
X00357Y00108
X00349
X00341Y00108
X00349Y00116
Y00124
Y00132
X00349Y0014
X00349Y00148
X00341Y0014
X00333Y0014
X00333Y00132
Y00124
X00341Y00131999
X00357Y00132
X00317Y00132
X00293Y00148
X00277Y00156
X00261Y0022
X00277Y00236
Y00276
X00301Y00276
X00301Y00268
X00317Y00228
X00325Y00228
X00317125Y00081725
Y0006985
X00328875Y00027075
X00329Y00014
X00339875Y00008075
X0034Y00021
X00373Y00027
X003728Y0001395
X00436Y00062
X00436Y0007
X00452Y0007
X0046
X00468
X00476
X00484
Y00062
X00476
X00452
X00452Y0011
X0046
X00468Y0011
X00476
X00484Y0011
X00492Y0011
X005
X00476Y00118
X00452
X00444
X00436Y0011
X00492Y00078
X00484Y00282
X00476
X00452
X00436
X00181Y0018
X00112Y00216
X00102Y00272
X00086Y00079
X0008Y003375
X00084Y003425
Y003475
X0008Y003625
X00084Y003675
X00085Y003775
X000975Y003805
X001125
X001075Y00392
X001225Y00391
X001325
X001425
X001175Y003805
X0019975Y003908
X00225Y00379
X00239Y00367
X00257Y00373
Y00385
X00252Y00391
X00242Y00391
X00287Y00379
X00303Y00385
Y00373
X00282Y0034705
X00262Y00329
Y00317
X00261Y003
X00317Y003
X00325Y00292
X00325Y00284
X00317
X00349
Y00292
X00341Y00292
Y003
X00357
Y00292
X00365
X00365Y00307
X00371
X00386Y00316
X00392
X00436Y0033
X00444
Y00338
X00452
Y0033
X0046
X00468
X00476
Y00338
X00492Y0033
X005
X00492Y0029
X00484
X00476
X00468
X0046
X00452
X00436
X0030975Y003297
X00213Y00329
X00205Y00292
X00213Y00284
X00189Y00292
Y003
X00173
X00164Y00288
X00151
X00159Y00309
M30
