M48
;Layer_Color=9474304
;FILE_FORMAT=4:4
METRIC,LZ
;TYPE=PLATED
T1F00S00C0.1000
;TYPE=NON_PLATED
%
T01
X00652Y00158
X00666Y00159
X006545Y002255
X00666Y00247
X00496Y00114
X00488Y00114
X00488Y00106
X0048Y00106
X00472
X00472Y00114
X00464Y00106
X00456Y00106
Y00114
X0044Y00114
X0044Y00106
X00456Y00082
X00456Y00074
X00464
X00456Y00066
X00448Y00066
X00432Y00066
X0048Y00066
X0048Y00058
Y00074
X00496Y00074
Y00066
X003375Y00067575
X003325
X003435Y00085825
X003485
X003375Y00036425
X003325
X003195
X003205Y00028425
X003125Y00010175
X003075
X003025
X002975
X002925Y00010175
X002875Y00010175
X002825Y00010175
X002775Y00036425
X002725Y00036425
X002675
X002595Y00036425
X002625Y00028425
X002625Y00059675
X002725Y00059575
X002675Y00067575
X002775
X002825
X002875
X002925
X002575Y00085825
X002525Y00085825
X002475Y00093825
X002385Y00059575
X002335
X002275Y00067575
X002225
X002225Y00036425
X002275
X001325Y00024
X00123Y00081
X00118Y00093
X00128Y00244
X00138Y0024
X00148Y00259
X00131Y00263
X003475Y00010175
X003525
X001075Y00014
X00073Y00017
X00055Y00046
X00065Y00062
Y00068
X00057Y00084
X000445Y000795
X00036Y00104
X00017Y00092
X00068Y00094
X00094Y00068
X00089Y00056
X00031Y00155
X000455Y001705
X000505Y001745
X000415Y002295
X00044Y00251
X00089Y00246
X00085Y0021575
X000391Y003245
X002135Y00310175
X002375Y00332425
X002425
X002525
X002575
Y00363575
X002525
X002425
X002375
X002355Y00390825
X002135Y00393825
X002725Y00389825
X002775
X002825
X002925
X003075Y003901
X003175Y00371575
X003225
X003275
X003325
X003375Y00389825
X003425
X003325Y003139
X003275
X003225
X003175
X002875Y00314175
X002775
X002825Y00340425
X00432Y00326
X0044Y00334
X00456Y00334
X00456Y00326
X00464Y00326
X00472
X0048Y00326
Y00334
X00488Y00334
X00488Y00326
X00496
X00496Y00286
X00488Y00294
X0048Y00294
X00472
X00464
X00456Y00294
X00448Y00294
X00448Y00286
X00456Y00286
X0048Y00286
X0044Y00294
M30
