M48
;Layer_Color=9474304
;FILE_FORMAT=4:4
METRIC,LZ
;TYPE=PLATED
T2F00S00C0.2000
;TYPE=NON_PLATED
%
T02
X00525Y00175
X00529Y00186
X00544Y00187
X00555Y00188
X0056Y00194
X00559Y0021
X00566Y00208
X00581Y00205
X00587Y00209
X00594Y00207
X00598Y002
X00608Y00204
X00577Y00197
X00539Y00196
X00533Y00204
X00549Y0021
X00514Y00199
X00638Y00093
X00643Y00085
X00631
X00492789Y00193
X005Y00213
X00507Y00211
X00477Y0021
X00464Y0022
X00447Y00215
X00465Y00191
X00472Y00181
X00451Y00167
X00317Y0016
Y00152
X00301Y00159
X00303Y00124
X00309Y00122
X00293Y00123
Y00129
X00292Y00107
X00286Y00108999
X00303Y00108
Y001
X00317
Y00108
X00291875Y000618
X002825Y00062175
X002875Y00056175
X002725Y00055175
X002705Y0004368
X00271Y00024
X002825Y0002
X00289Y00024
X002885Y00015
X00297Y0002
X003025Y00014575
X003105
X003175Y00017575
X00336Y00018175
X002555Y00028
X00259692Y00055867
X002675Y00072975
X002775Y00071975
X00245875Y000803
Y00085925
X00245Y001
X00253
X00251Y00116
X00245Y00118
X00237Y00124
X00229Y00124
Y00132
Y0014
X00238Y00139
X00244Y00141
X00211Y0014
Y0013
X00219
X00221Y00108
X00208Y00117
X00192Y00114
X00192Y00108
X00195Y00156
X00187Y00156
X00173Y00188
X00165
X00171Y00206
X00179
X00173Y00222
X00181Y00236
X0018Y00248
X00175Y00252
X00166Y00255
X00166Y00241
X0019Y00248
X00203Y00246
X00207Y00254
X00224Y00254
X0022Y00274
X0021Y00269
X00187Y00266
X0018Y00273
X00164Y00272
Y0028
X00197Y00236
X00205
X00204Y00228
X00205Y0022
X00205Y00212
X00197Y00212
X00197Y00226
X00229Y00172
Y00164
X002195Y00028
X00211Y00028
X00186Y0004525
Y0005125
X00135Y00045
X00139Y00038
X0013Y00039
X00122Y0005
X00115Y00056
X00131Y00063
X00129Y00071
X00123Y00077
X00118Y00088
X00303Y00267
X00045Y00268
X00049Y00261
X00055Y00279
X00086Y00139
Y00133
X00083Y00125
X00095Y00128
X00105Y00129
X00099Y00119
X00094Y00111
X00068Y00098
X00091Y00071
X00089Y0006
X00112Y00039
X00103Y00014
X00068Y00017
Y00284
X0005Y00285
X00043Y0029
X00059Y00295
X00062Y00318
X00103Y00301
X00145Y00322
X00153
X00141Y00337
X00132
X00128Y00351
Y00361
X00122Y00366
X00122Y00356
Y00346
X00138Y00351
X00137Y00363
X00155Y00371
X00153Y00352
X00161
X00176Y00362
X00192Y00352
Y00346
X00196Y0038
X00205Y00386
X00224Y00382
X0023425
X00253Y0038
X002725Y00379425
X002775Y00385825
X002855Y00385425
X0029875Y00379
X003105Y003871
X003375Y00385425
X003425Y00379425
X003225Y00366175
X003275Y00360175
X003225Y00341675
X003125
X003175Y00335675
X003275Y0033568
X003325Y00329675
X003225
X0030375Y003328
X002825Y00333425
X002875Y00325575
X00274Y00323
X0026Y00323
X0029Y0034805
X00205Y003
X00196Y00289
X00116Y00371
X00634Y00375
X0064Y00348
Y0034
X00664Y0032
X00659Y00314
M30
