M48
;Layer_Color=9474304
;FILE_FORMAT=4:4
METRIC,LZ
;TYPE=PLATED
T2F00S00C0.2000
T3F00S00C2.2000
;TYPE=NON_PLATED
T4F00S00C1.0500
%
T02
X00521Y00028
X00531
X00543Y00028
X00553
X00565
X00575
X00586
X006
X00608Y00036
X00616Y00042
X00622Y00047
Y00037
X00616Y00053
X00614Y00061
Y00085
X00596Y00087
X00588
X0058
X00572
X00564Y00087
X00556Y00087
X00548
X0054
X00532
X00524
X00516
X00512Y00093
X0052Y00093
X00528
X00536
X00544
X00552
X0056Y00093
X00568Y00093
X00576
X00584
X00592
X006Y00093
X00606Y00139
Y00157
Y00166
X00619
Y00174
X00624Y0017
X0064Y00169
X0066
X0066975Y0016625
X00679Y00188
X00678Y00195
Y00203
X00689Y00212
Y00218
X00671Y00233
X00663
X00649Y00214
Y00208
Y00192
Y00186
X00613Y0019
X00615Y00202
X00613Y00215
Y00223
X00616Y00229
X00631Y00231
X00642Y00248
Y00261
X00609Y00245
X00598Y00228
X00584
X00576
X00561Y00224
Y00217
Y00183
Y00175
X00575
X00591Y00183
X0059Y002
X00553Y00248
X00543
X00532
Y00274
X0054
X00548
X00556
X00564
X00532Y00282
X00516
X00532Y00152
X00543
X00553
X00556Y00126
X00548
X0054
X00532
X00532Y00118
X0051573Y0011773
X00516Y00062
X00532Y00062
Y00054
X0054
X00548
X00556
X00564
X00564Y00126
X0064Y00109
X00642Y00143
X00658
X00677Y00096
X0067705Y00083
X00677Y00071
Y00058
X00666Y00078
X00654Y00069
X00638Y00051
X0064675Y00014
Y00008
X00617Y00013
X00507Y00028
X00501Y00028
X00493
X00486
X00476
X00464
X00454
X00442
X00432
X0042
X00405
X00360425Y00037575
X0036065Y00048
X00360875Y00055425
X003425Y000568
Y0004455
X003355Y0004805
X00329Y00041
X003275Y000568
X00323125Y00062425
X003125
X00301875
X00295Y00048
X00313
Y00038175
X002655Y0004805
X002525Y0003968
X002425
X002425Y0004805
X00231875
X002325Y0003968
X002375Y0003368
X002475
X00213125Y000422
X00206875
X00202625Y0004805
X00206875Y00062325
X00213125
X002175Y00091075
X00229Y001
Y00108
Y00116
X00213Y00108
Y00124
X00197Y00124
X00197Y00132
Y0014
Y00148
X00205Y00148
X00213Y00148
X00221Y00148
Y00156
Y00164
X00221Y00172
X00229Y0018
X00229Y00188
Y00196
X00229Y00204
Y00212
X00229Y0022
X00229Y00228
Y00236
Y00244
X00245
X00245Y00236
Y00228
X00245Y0022
X00245Y00212
Y00204
X00245Y00196
Y00188
X00245Y0018
X00245Y00172
X00245Y00164
Y00156
X00245Y00148
X00261Y00148
X00261Y00156
X00261Y00164
X00277Y00164
X00277Y00172
X00277Y0018
X00277Y00188
Y00196
Y00204
Y00212
X00277Y0022
X00293Y0022
X00293Y00228
X00293Y00236
X00293Y00244
Y00252
X00293Y00268
Y00276
X00301Y0026
X00309Y00252
X00317Y00252
X00325
X00325Y0026
X00333Y0026
X00333Y00252
X00341Y00252
X00341Y0026
X00349Y0026
X00357Y00268
X00365Y00268
X00357Y00276
X00333Y00268
Y00244
X00341Y00244
Y00236
X00349
Y00244
X00357Y00244
X00365Y00244
X00379Y00248
X0039Y00248
X004Y00248
X00412
X00422
X00434
X00444
X00456
X00466
X00487Y0025
X00491Y00254
X005Y00248
X0051
X005Y00274
X00492
X00484
X00476
X00468
Y00282
X0046
X0046Y00274
X00452
X00444
Y00282
X00436Y00274
X00392Y00269
X00385Y00272
X00385Y00258
X00391Y00259
X00357Y00228
Y00204
X00357Y00188
X00349Y00188
X00341Y00188
X00341Y00196
X00325Y00204
X00317
X00309Y00204
X00309Y00188
Y0018
X00309Y00172
X00317Y00172
X00325Y00172
X00333Y00172
X00341Y00172
X00349
Y00164
X00357
X00357Y00172
X00365Y00164
X00371Y00174
X00365Y00188
X00389Y00189
X0039Y00152
X004Y00152
X00412
X00422
X00434
X00444
X00456
X00466
X0048Y00148
X00484Y00152
X005
X0051
X005Y00126
X00492
X00484
X00476
X00468
X0046
X00452
X00444
X00436
Y00118
X00444Y0011
X0046Y00118
X00468
X00484
X00492
X005
X00492Y00102
X00489Y0009
X00483
X005Y00087
X00508
X00504Y00093
X005Y00062
X00492
Y00054
X00484
X00476
X00468
Y00062
X0046
Y00054
X00452
X00444
X00436
X00444Y00062
Y0007
X00492Y0007
X005Y00054
X00394Y00103
Y00118
X00357Y00124
X00341Y00124
X00341Y00116
X00344Y00098
X00329Y00095
X00318125Y000918
X003075
X00296875
X0028Y000943
X00264Y00094
X00253Y00108
X00245
X00245Y00132
X00229Y00148
X00221Y0014
X00213Y00164
X00205
X00197Y00164
X00197Y00172
X00189Y0018
X00189Y00196
Y00212
X00189Y0022
X00181Y0022
X00159Y00219
X00151Y00218
X00139
X00115Y00222
Y00211
X00125Y00196
X00115Y00183
X00133Y00176
X00136Y001685
Y00159
Y00149
X00137Y00142
Y00135
X00136Y00128
Y00121
Y00113
X00133Y00097
X00124Y00096
X00129Y0009
X00129Y00082
X00141Y00074
Y00068
Y00058
Y00052
X00162Y0005075
X00162Y0004525
X00154Y00041
Y00035
X00152Y00011
X0018Y00033
X00179Y00065
X00168Y00065
X00162
X00163Y00086
X00172Y00094
X00178
X00191Y00097
X00199Y00097
X00181Y00108
X0016Y00111
X00161Y00131
X00173Y00132
X00181Y0014
Y00148
X00173Y00156
X00159Y0016
X00158Y00168
X00157Y00179
X00147Y00176
X00159Y00206
X00154Y00241
Y00252
X00153Y00275
X00135Y00258
Y00244
X00115Y00239
X00173Y00236
X00189Y00236
X00189Y0026
X00197
Y00268
Y00276
X00229Y00268
X00245Y00252
X00261
X00261Y00244
X00261Y00236
Y00228
X00261Y00212
Y00204
X00261Y00196
X00261Y00188
X00261Y0018
X00293
X00293Y00172
Y00164
X00293Y00156
X00293Y0014
X00277
X00269
Y00116
X00285
X00317Y00116
X00325Y00132
X00325Y00148
Y00156
X00333
X00341
Y00164
X00333
X00333Y00148
X00341Y00148
X00349Y00156
X00357Y00148
X00377Y00146
Y00152
X00365Y001
X00317Y0014
X00309Y0014
X00309Y00156
X00309Y00164
X00293Y00196
Y00204
Y00212
X00309Y0022
X00317Y0022
X00325Y0022
X00325Y00236
X00333
X00325Y00244
X00317Y00236
X00301Y00236
X00277Y00244
Y0026
X00253
X00213Y00244
Y00236
X00213Y00228
X00213Y0022
Y00212
X00213Y00196
X00213Y00188
X00213Y0018
X00173Y0026
X00118Y00064
X00200375Y00019
X00492Y00282
X005
X00096Y00258
X00084Y00253
X00085Y00238
Y00232
Y00226
X0008Y00229
Y00223
Y00235
X00085Y00209
X00088Y00199
X00089Y00187
X00083Y00179
X0008Y00174
X00083Y00169
X00093Y00152
X00105Y0017714
X00068Y00193
X00058
X00049
X00039
X00022Y00195
Y00203
X00019Y00208
X00022Y00214
X00029Y00236
X00023Y00244
X00041Y00256
X00055Y00253
Y00245
X00065Y00267
X00016Y0019
X00031Y00169
X00042Y00162
Y00156
X00009Y00149
Y00123
X00021Y00104
X00048Y00106
X00064
Y00114
Y00122
X00086Y00117
Y00109
X00093Y00098
Y0009
X00104Y00081
X001Y00064
X00108Y00049
X00093Y00047
Y00039
X00096Y00031
Y00013
X00077Y00009
X00053
X00068Y00027
Y00035
X0006
X00078Y00037
X00067Y00051
X00059Y00059
X00048Y00068
X00066Y00077
X00068Y00089
X00061Y00096
X00028Y00078
X00013Y00288
X00023Y00304
X00031
Y00317
X00023
Y00342
X00041Y00347
X00051Y00355
X00058Y00369
X00066
X00074
X00082Y00372
X00086Y00384
X00078Y00387
X0005325Y00386
Y00392
X001025Y00392
X00104Y00345
Y0033
X00081
Y00322
Y00313
X0009Y00308
X00088Y003
X00077Y00291
X00052Y00302
X00058Y00329
X00062Y00335
X00081Y00352
X001075Y00308
X00114
X00125Y00309
X00136Y00308
X00144
X00152
X00169Y00309
X00177
X00175Y00323
X00167
X00168Y00339
X00168Y0036
X00169Y00377
X00147Y00371
X00137
X00128
X001275Y00392
X00137
X00148
X00147Y0036
Y00342
Y00331
X00139
X00126
X00116
Y00361
X00117Y00296
X00159
X00181Y00284
X00189Y00284
X00193Y0031
X00201
X00195Y00326
X00206875Y00337675
X00213125
X00221875
X00228125
X00228Y00352
X00228125Y003648
X00221875
X00213125Y003578
X00206875
X00183Y00352
X00189Y0039
X002475Y003628
X00242Y00352
X00268
X00269125Y003638
X00261875Y003658
X002865
X00296875
X00303125
X003125Y0035905
X003215Y0035205
X003335
X003375Y003382
X003455Y003382
X0035275Y0034155
X00369Y00352
X003635Y00366325
X003555
X003475
X00377Y00366
X00388
X00405Y00372
X0042
X00432
X00442
X00454
X00464
X00476
X00486
X00499
X00509
X005Y00346
X00492
X00484
Y00338
Y0033
X00492Y00338
X005
X00504Y00313
X005Y00307
X00508Y00307
X00489Y0031
X00483
X00468Y00338
Y00346
X00476
X0046
X00452
X00444
X00436
Y00338
X00444Y00322
X00444Y00298
X00394Y00296
Y00285
X00365Y003
X00325Y003
X00317Y00292
X00309Y00292
Y00284
Y003
X00297Y00302
X00293Y00292
X00269Y00284
X00253
X00237
X00221
Y00292
X0022075Y003038
X00245Y00302
X002475Y0030955
X00257Y00304
X002725Y003082
X00268125Y00337925
X00262875Y00340925
X002925Y003382
X00299Y00352
X00282Y0035705
X00333Y00284
X00391Y00333
X00395Y00338
X0046Y00338
X0051573Y0033773
X00532Y00338
X00532Y00346
X0054
X00548
X00556
X00564
X00565Y00372
X00575
X00586
X006
X00616Y00369
Y00359
X00622Y00364
X00621Y00342
Y00329
Y00317
Y00304
X00596Y00307
X00588
X0058
X00572
X00564
X00556
X00548
X0054
X00532
X00524
X00516
X0052Y00313
X00512Y00313
X00528Y00313
X00536
X00544
X00552
X0056
X00568
X00576
X00584
X00592
X006
X00645Y00315
Y00331
X006625Y003295
X00664Y00298
X00645Y00299
X0064675Y00386
Y00392
X00553Y00372
X00543
X00537
X00529
X00523
T03
X00675Y00025
X00025
Y00375
X00675
T04
X0017935Y000747
X0038065
Y003787
X0017935
M30
