M48
;Layer_Color=9474304
;FILE_FORMAT=4:4
METRIC,LZ
;TYPE=PLATED
T1F00S00C0.1000
;TYPE=NON_PLATED
%
T01
X00211Y00024
X00224
X00258
X00266Y00023
X00328875Y00023075
X00332Y00017
X00343Y00018
X00342875Y00011075
X003688Y0001395
X00373Y00023
X00376Y00108
X00379Y00105
X00373Y00113
X00371Y00117
X00366Y00125
X00362Y00135
X00354
X00346
X00346Y00143
X00352Y00145
X00338Y00143
X0033Y00143
X00338Y00134999
X00336Y00129
X00336Y00121
X00346Y00121
Y00113
X00352Y00111
X0036
X00354Y00103
X00344Y00105
X00314Y00103
Y00111
X00306
Y00103
X00306Y00119
Y00127
X00298Y00129
Y00121
X00296Y00111
X0029Y00112999
X00288Y00127
X00282Y00129
X00282Y00137
X00273Y00132
X00269Y00128
X00264Y00135
Y00143
X00241Y00144
X00241Y00136
X00232Y00135
Y00127
X00234Y00121
X00234Y00113
X00234Y00105
X00242Y00103
X0025
X00251Y00094
X00258125Y00088675
X00272132Y00105
X00279Y00103
X0028Y00121
X00248Y00121
X00248Y00113
X00216Y00113
X00205Y0012
X0021Y00135
X00218
X00216Y00143
X00232
X00192Y00159
X00184Y00159
X00176Y00143
X00168Y00143
X00176Y00113
Y00105
X00191Y0005
Y00046
X00286875Y000668
X002925
X00321125Y0006985
Y00081725
X00314Y00135
X00304Y00143
X0029Y00151
X00314Y00193
X0032Y00191
X00328Y00193
X00336
Y00201
X00344Y00201
X00352Y00207
X0035225Y0019275
X0037Y00193
X0038Y00188
X00376Y00183
X00385Y00178
X00368Y00151
X00362Y00231
X00352Y00225
X00344Y00231
X00346Y00217
X00338
Y00209
X0033
X0033Y00223
X00322Y00215
X00314Y00215
X00306Y00215
X00314Y00225
X00322Y00231
X0032Y00265
Y00273
Y00281
X00328
X00336Y00279
X00346Y00279
X00344Y00273
X00368Y00273
X00328Y00265
X00312Y00257
X00298Y00255
X00298Y00265
X00306Y00271
X00312Y00273
X00304Y00279
X0028Y00279
X00266Y00263
X00264Y00257
X00248
X00232Y00263
X00224
Y00271
X00216Y00263
X0021Y00265
X00203Y00264
X00202Y00271
X0021Y00279
X00184Y00279
X00186Y00273
X00176
X00168Y00272
Y0028
X00144Y00279
Y00267
Y00254
Y0024
X00138Y00234
X00122
X00127Y00245
X00126Y00252
X00119Y00255
X00127Y00265
X00124Y00214
X0013Y00206
X00168Y00209
X00176
X00176Y0020115
X00176Y00191
X00168
X00184Y00193
X00192Y00191
X002Y00191
X002Y00199
X00208Y00199
Y00191
X00208Y00177
X00202Y00175
X00194Y00183
X00178Y00183
X00186Y00207
X002
X00208Y00207
X00208Y00215
X00208Y00223
X00208Y00231
X00201Y00233
X00194Y00231
X00194Y00239
X00194Y00247
X002Y00249
X00209Y0025
X00224Y00249
X00184Y00247
Y00239
Y00231
X0017Y00225
X00168Y00217
X00176Y00217
X00197Y00216
X0017Y00241
X00169Y00252
X00178Y00255
X00184Y00263
X00161Y00236
X00282Y00249
X0044Y00106
X00448
Y00114
X00456
Y00106
X00464Y00106
X00472
X0048Y00106
X0048Y00114
X00496
X00496Y00106
Y00074
X00488
X0048
X00472
X00464
X00456
Y00066
X0044
X00432Y00066
X0048Y00066
X00488Y00058
X00108Y00216
X00105Y00275
X00088Y003425
X00087Y003505
X00084Y003625
X00088Y003675
X00089Y003775
X001015Y003805
X001075Y00388
X001125Y003845
X00076Y003375
X001175Y003845
X001225Y00387
X001325
X001425
X0019975Y003868
X00228Y00382
X00242Y00387
X00248Y00391
X00257Y00381
X00254Y00376
X00283Y00379
X00303Y00381
X00306Y00376
X0030975Y003337
X00286Y0034705
X00265Y00326
Y0032
X00265Y003
X0032Y00303
X00322Y00295
X00338Y00297
Y00289
X00346Y00287
X00354Y00289
X00362
X0036Y00297
X00352Y00295
X00368Y00304
Y0031
X00389Y00313
X00389Y00319
X00432Y00334
X00448
Y00326
X00456
X00464
X00472
X0048
Y00334
X00496
X00496Y00326
Y00294
X00488
X0048
Y00286
X00488
X00472Y00294
X00464
X00456
Y00286
X00432
X0044Y00294
X00456Y00334
X00205Y00296
X0021Y00287
X00193Y00292
X00192Y00303
X00176Y00297
X00168Y00288
X00147Y00288
X00163Y00309
M30
