M48
;Layer_Color=9474304
;FILE_FORMAT=4:4
METRIC,LZ
;TYPE=PLATED
T1F00S00C0.1000
;TYPE=NON_PLATED
%
T01
X00655Y00155
X00669Y00156
X006545Y002295
X00669Y00244
X00622Y00251
X00476Y00282
X00452
X00321Y00264
X00272Y0025565
Y00236
X00277Y00231
X00261Y0022
X00257Y00276
X00267
X00247
X00234Y00257
X00217Y0026
X00209Y00282
X00198Y00227
X00193
X00196Y00207
X00202Y00181
X00176Y00163
X00164Y00169
X00158Y001
X00118Y00089
X00123Y00077
X001365Y00024
X00143Y000165
X002175Y00032425
X002225
X002275
X002575
X002625
X002675
X002725
X002775
X002775Y00063575
X002725
X002675
X002625
X002825
X002875
X002925
X003325
X003375
X003375Y00032425
X003325
X003225
X003175
X003125Y00006175
X003075
X003025
X002975
X002925Y00006175
X002875Y00006175
X002825Y00006175
X003475Y00006175
X003525
X003525Y00089825
X003475
X00308Y00119
Y00124
X00294
Y00119
X00282Y00146
X00272
X00314Y00147
X00328Y00183
X00329Y00193
X00304Y00191
X0034Y00224
X00169Y00253
X00148Y00255
X00142Y0024
X00145Y00229
X00128Y0024
Y0026
X00213Y00115425
X00228Y00127
X002475Y00089825
X002525
X002575
X002425Y00063575
X002375
X002275
X002225
X00436Y0007
X00452Y00062
X00452Y00078
X0046
X0046Y0007
X00468Y0007
X00476
X00484
X00492Y00078
X005Y0007
X00476Y00062
Y00102
X00484
X00484Y0011
X00476
X00476Y00118
X00468Y0011
X0046
X00452Y0011
X00444Y00118
X00436Y0011
X00492Y0011
X00084Y00101
X00072Y00094
X00061Y00084
X000415Y000825
X00036Y001
X0002Y00095
X00031Y00159
X000455Y001665
X000505Y001705
X000455Y002295
X00041Y00248
X00089Y0025
X00105Y00243
X00082Y0021275
X0009Y00068
X00093Y00056
X00069Y00062
Y00068
X00055Y0005
X00069Y00017
X001105
X00097Y0032
X000431Y003245
X00155Y00324
X00158Y00377
X0012Y00384
X002175Y00393825
X002325
X002375Y00367575
X002425
X002525
X002575
Y00336425
X002525
X002425
X002375
X002825Y00336425
X002875Y00310175
X002775
X003175Y003099
X003225
X003275
X003325
Y00367575
X003275
X003225
X003175
X003075Y003941
X002925Y00393825
X002825
X002775
X002725
X003375
X003425
X00436Y0033
X00444Y00338
X00452Y0033
X0046Y0033
X00468Y0033
X00476
Y00338
Y00322
X00484
X00492
Y0033
Y00298
X005Y0029
X00484
X00476
X00468
X0046
X0046Y00298
X00452Y00298
X00436Y0029
X00227Y00297
X002175Y00310175
M30
