G04*
G04 #@! TF.GenerationSoftware,Altium Limited,Altium Designer,22.2.1 (43)*
G04*
G04 Layer_Color=128*
%FSLAX25Y25*%
%MOIN*%
G70*
G04*
G04 #@! TF.SameCoordinates,65C05967-714E-454F-997F-66751C825CAB*
G04*
G04*
G04 #@! TF.FilePolarity,Positive*
G04*
G01*
G75*
%ADD25R,0.03100X0.03800*%
%ADD27R,0.05118X0.02756*%
%ADD29R,0.03800X0.03100*%
%ADD34R,0.02756X0.05118*%
%ADD171R,0.04646X0.02284*%
%ADD172R,0.03543X0.06299*%
%ADD173R,0.02323X0.04764*%
%ADD174R,0.06299X0.03543*%
D25*
X351575Y101625D02*
D03*
Y95225D02*
D03*
X312992Y34696D02*
D03*
Y28296D02*
D03*
X307100Y15400D02*
D03*
Y21800D02*
D03*
X319685Y27902D02*
D03*
Y34302D02*
D03*
X307087Y34696D02*
D03*
Y28296D02*
D03*
X357087Y101625D02*
D03*
Y95225D02*
D03*
Y107824D02*
D03*
Y114224D02*
D03*
X351575D02*
D03*
Y107824D02*
D03*
X296850Y92964D02*
D03*
Y86564D02*
D03*
X309842Y116586D02*
D03*
Y110186D02*
D03*
X345669Y107824D02*
D03*
Y114224D02*
D03*
X297244Y110186D02*
D03*
Y116586D02*
D03*
D27*
X300205Y42929D02*
D03*
Y50409D02*
D03*
X307291Y42929D02*
D03*
Y50409D02*
D03*
X314378Y42929D02*
D03*
Y50409D02*
D03*
X300394Y28150D02*
D03*
Y35630D02*
D03*
X303543Y109499D02*
D03*
Y116980D02*
D03*
D29*
X319650Y6350D02*
D03*
X326050D02*
D03*
X354450Y88489D02*
D03*
X348050D02*
D03*
X348231Y82544D02*
D03*
X354631D02*
D03*
X309499Y93307D02*
D03*
X303099D02*
D03*
X303049Y98819D02*
D03*
X309449D02*
D03*
X309700Y104600D02*
D03*
X303300D02*
D03*
X367200Y76500D02*
D03*
X360800D02*
D03*
X354800D02*
D03*
X348400D02*
D03*
D34*
X312402Y22441D02*
D03*
X319882D02*
D03*
X310433Y86614D02*
D03*
X302953D02*
D03*
D171*
X340000Y114606D02*
D03*
Y109606D02*
D03*
Y104606D02*
D03*
Y99606D02*
D03*
Y94606D02*
D03*
Y89606D02*
D03*
Y84606D02*
D03*
X319055Y114606D02*
D03*
Y109606D02*
D03*
Y104606D02*
D03*
Y99606D02*
D03*
Y94606D02*
D03*
Y89606D02*
D03*
Y84606D02*
D03*
D172*
X330512Y11811D02*
D03*
X319094D02*
D03*
D173*
X334055Y24193D02*
D03*
X330315D02*
D03*
X326575D02*
D03*
Y34075D02*
D03*
X334055D02*
D03*
D174*
X364800Y114009D02*
D03*
Y102591D02*
D03*
Y94909D02*
D03*
Y83491D02*
D03*
M02*
