G04*
G04 #@! TF.GenerationSoftware,Altium Limited,Altium Designer,22.2.1 (43)*
G04*
G04 Layer_Physical_Order=4*
G04 Layer_Color=16711680*
%FSLAX25Y25*%
%MOIN*%
G70*
G04*
G04 #@! TF.SameCoordinates,65C05967-714E-454F-997F-66751C825CAB*
G04*
G04*
G04 #@! TF.FilePolarity,Positive*
G04*
G01*
G75*
%ADD13C,0.01000*%
%ADD25R,0.03100X0.03800*%
%ADD27R,0.05118X0.02756*%
%ADD29R,0.03800X0.03100*%
%ADD34R,0.02756X0.05118*%
%ADD104C,0.08268*%
%ADD113C,0.02000*%
%ADD116C,0.01300*%
%ADD117C,0.01500*%
%ADD118C,0.01100*%
%ADD119C,0.01470*%
%ADD120C,0.00800*%
%ADD122C,0.02500*%
%ADD123C,0.07000*%
%ADD125O,0.05906X0.04724*%
%ADD126C,0.03937*%
%ADD127C,0.09843*%
%ADD128C,0.07874*%
%ADD129O,0.07087X0.14173*%
%ADD130O,0.15748X0.07874*%
%ADD131O,0.07874X0.15748*%
%ADD132C,0.11811*%
%ADD133O,0.14173X0.07087*%
%ADD134C,0.01968*%
%ADD135C,0.02362*%
%ADD136C,0.05000*%
%ADD171R,0.04646X0.02284*%
%ADD172R,0.03543X0.06299*%
%ADD173R,0.02323X0.04764*%
%ADD174R,0.06299X0.03543*%
%ADD175C,0.00900*%
%ADD176C,0.01600*%
G36*
X23622Y318602D02*
X24606Y256102D01*
X25984Y254724D01*
X46161Y234547D01*
X180610D01*
X185630Y239567D01*
Y261122D01*
X185335Y261417D01*
X194587Y270669D01*
X274410D01*
X275492Y11024D01*
X267224Y2756D01*
X54893D01*
X54843Y3256D01*
X55340Y3355D01*
X56028Y3815D01*
X56488Y4503D01*
X56649Y5315D01*
X56488Y6127D01*
X56028Y6815D01*
X55340Y7275D01*
X54528Y7437D01*
X53716Y7275D01*
X53027Y6815D01*
X52567Y6127D01*
X52406Y5315D01*
X52567Y4503D01*
X53027Y3815D01*
X53716Y3355D01*
X54212Y3256D01*
X54163Y2756D01*
X6398D01*
X3347Y5807D01*
Y19383D01*
X3847Y19650D01*
X4070Y19501D01*
X4421Y19431D01*
Y21555D01*
X4921D01*
Y22055D01*
X7046D01*
X6976Y22406D01*
X6494Y23128D01*
X5772Y23610D01*
X5255Y23713D01*
X5304Y24213D01*
X50453D01*
X50640Y23863D01*
X50675Y23713D01*
X50539Y23031D01*
X50686Y22296D01*
X51102Y21673D01*
X51725Y21257D01*
X52461Y21110D01*
X53196Y21257D01*
X53819Y21673D01*
X54236Y22296D01*
X54340Y22820D01*
X55733Y24213D01*
X68307D01*
X68602Y24508D01*
X85039D01*
X86713Y26181D01*
Y48915D01*
X96457D01*
X96530Y48930D01*
X96850Y48866D01*
X97586Y49013D01*
X98209Y49429D01*
X98625Y50052D01*
X98772Y50787D01*
X98625Y51523D01*
X98209Y52146D01*
X97586Y52562D01*
X96850Y52709D01*
X96115Y52562D01*
X95492Y52146D01*
X95309Y51872D01*
X86713D01*
Y98130D01*
X87205Y98622D01*
X78248Y107579D01*
X41039D01*
Y134125D01*
X55337Y148423D01*
X146632D01*
X149604Y145451D01*
Y144585D01*
X149308Y144141D01*
X149162Y143405D01*
X149308Y142670D01*
X149724Y142047D01*
X150347Y141631D01*
X151083Y141484D01*
X151818Y141631D01*
X152441Y142047D01*
X152858Y142670D01*
X153004Y143405D01*
X152858Y144141D01*
X152561Y144585D01*
Y146063D01*
X152449Y146629D01*
X152128Y147108D01*
X148361Y150876D01*
X148418Y151160D01*
X148547Y151376D01*
X176134D01*
X176725Y150981D01*
X177461Y150835D01*
X178196Y150981D01*
X178819Y151397D01*
X179235Y152021D01*
X179382Y152756D01*
X179235Y153491D01*
X178819Y154114D01*
X178196Y154531D01*
X177461Y154677D01*
X176725Y154531D01*
X176429Y154333D01*
X94942D01*
X94551Y154833D01*
X94642Y155285D01*
X94480Y156097D01*
X94020Y156786D01*
X93332Y157246D01*
X92520Y157407D01*
X91708Y157246D01*
X91019Y156786D01*
X90852Y156535D01*
X90250D01*
X90083Y156786D01*
X89395Y157246D01*
X88583Y157407D01*
X87771Y157246D01*
X87082Y156786D01*
X86915Y156535D01*
X86313D01*
X86146Y156786D01*
X85458Y157246D01*
X84646Y157407D01*
X83834Y157246D01*
X83145Y156786D01*
X82978Y156535D01*
X82376D01*
X82209Y156786D01*
X81521Y157246D01*
X80709Y157407D01*
X79897Y157246D01*
X79208Y156786D01*
X78748Y156097D01*
X78587Y155285D01*
X78677Y154833D01*
X78287Y154333D01*
X55132D01*
X54566Y154220D01*
X54086Y153900D01*
X50818Y150631D01*
X50203Y150724D01*
X49899Y151179D01*
X49178Y151661D01*
X48827Y151731D01*
Y149606D01*
X48327D01*
Y149106D01*
X46202D01*
X46272Y148755D01*
X46754Y148034D01*
X47209Y147730D01*
X47302Y147115D01*
X41501Y141314D01*
X41039Y141506D01*
Y142689D01*
X37931Y142740D01*
X2854Y143307D01*
Y232874D01*
X3051Y319390D01*
X5413Y321752D01*
X20472D01*
X23622Y318602D01*
D02*
G37*
G36*
X372835Y122835D02*
Y5512D01*
X367323Y0D01*
X285827D01*
X282283Y3543D01*
Y117323D01*
X283071Y118110D01*
Y123622D01*
X284646Y125197D01*
X370472D01*
X372835Y122835D01*
D02*
G37*
%LPC*%
G36*
X15854Y318693D02*
Y314280D01*
X20268D01*
X20164Y315068D01*
X19667Y316269D01*
X18876Y317301D01*
X17844Y318092D01*
X16643Y318589D01*
X15854Y318693D01*
D02*
G37*
G36*
X14854D02*
X14065Y318589D01*
X12865Y318092D01*
X11833Y317301D01*
X11042Y316269D01*
X10544Y315068D01*
X10441Y314280D01*
X14854D01*
Y318693D01*
D02*
G37*
G36*
X20268Y313280D02*
X15854D01*
Y308866D01*
X16643Y308970D01*
X17844Y309467D01*
X18876Y310258D01*
X19667Y311290D01*
X20164Y312491D01*
X20268Y313280D01*
D02*
G37*
G36*
X14854D02*
X10441D01*
X10544Y312491D01*
X11042Y311290D01*
X11833Y310258D01*
X12865Y309467D01*
X14065Y308970D01*
X14854Y308866D01*
Y313280D01*
D02*
G37*
G36*
X15854Y272630D02*
Y268217D01*
X20268D01*
X20164Y269005D01*
X19667Y270206D01*
X18876Y271238D01*
X17844Y272029D01*
X16643Y272527D01*
X15854Y272630D01*
D02*
G37*
G36*
X14854D02*
X14065Y272527D01*
X12865Y272029D01*
X11833Y271238D01*
X11042Y270206D01*
X10544Y269005D01*
X10441Y268217D01*
X14854D01*
Y272630D01*
D02*
G37*
G36*
X227685Y269132D02*
Y267508D01*
X229309D01*
X229240Y267859D01*
X228758Y268580D01*
X228036Y269062D01*
X227685Y269132D01*
D02*
G37*
G36*
X226685D02*
X226334Y269062D01*
X225612Y268580D01*
X225131Y267859D01*
X225061Y267508D01*
X226685D01*
Y269132D01*
D02*
G37*
G36*
X229309Y266508D02*
X227685D01*
Y264883D01*
X228036Y264953D01*
X228758Y265435D01*
X229240Y266157D01*
X229309Y266508D01*
D02*
G37*
G36*
X226685D02*
X225061D01*
X225131Y266157D01*
X225612Y265435D01*
X226334Y264953D01*
X226685Y264883D01*
Y266508D01*
D02*
G37*
G36*
X20268Y267217D02*
X15854D01*
Y262803D01*
X16643Y262907D01*
X17844Y263404D01*
X18876Y264195D01*
X19667Y265227D01*
X20164Y266428D01*
X20268Y267217D01*
D02*
G37*
G36*
X14854D02*
X10441D01*
X10544Y266428D01*
X11042Y265227D01*
X11833Y264195D01*
X12865Y263404D01*
X14065Y262907D01*
X14854Y262803D01*
Y267217D01*
D02*
G37*
G36*
X244378Y263128D02*
Y261504D01*
X246002D01*
X245933Y261855D01*
X245450Y262576D01*
X244729Y263058D01*
X244378Y263128D01*
D02*
G37*
G36*
X243378D02*
X243027Y263058D01*
X242305Y262576D01*
X241823Y261855D01*
X241754Y261504D01*
X243378D01*
Y263128D01*
D02*
G37*
G36*
X215043Y262089D02*
Y260465D01*
X216667D01*
X216598Y260816D01*
X216115Y261537D01*
X215394Y262019D01*
X215043Y262089D01*
D02*
G37*
G36*
X214043D02*
X213692Y262019D01*
X212970Y261537D01*
X212488Y260816D01*
X212419Y260465D01*
X214043D01*
Y262089D01*
D02*
G37*
G36*
X246002Y260504D02*
X244378D01*
Y258880D01*
X244729Y258949D01*
X245450Y259431D01*
X245933Y260153D01*
X246002Y260504D01*
D02*
G37*
G36*
X243378D02*
X241754D01*
X241823Y260153D01*
X242305Y259431D01*
X243027Y258949D01*
X243378Y258880D01*
Y260504D01*
D02*
G37*
G36*
X216667Y259465D02*
X215043D01*
Y257841D01*
X215394Y257910D01*
X216115Y258393D01*
X216598Y259114D01*
X216667Y259465D01*
D02*
G37*
G36*
X214043D02*
X212419D01*
X212488Y259114D01*
X212970Y258393D01*
X213692Y257910D01*
X214043Y257841D01*
Y259465D01*
D02*
G37*
G36*
X195677Y258916D02*
Y257291D01*
X197301D01*
X197232Y257642D01*
X196750Y258364D01*
X196028Y258846D01*
X195677Y258916D01*
D02*
G37*
G36*
X194677D02*
X194326Y258846D01*
X193605Y258364D01*
X193123Y257642D01*
X193053Y257291D01*
X194677D01*
Y258916D01*
D02*
G37*
G36*
X197301Y256291D02*
X195677D01*
Y254667D01*
X196028Y254737D01*
X196750Y255219D01*
X197232Y255940D01*
X197301Y256291D01*
D02*
G37*
G36*
X194677D02*
X193053D01*
X193123Y255940D01*
X193605Y255219D01*
X194326Y254737D01*
X194677Y254667D01*
Y256291D01*
D02*
G37*
G36*
X262508Y251140D02*
Y249516D01*
X264132D01*
X264062Y249867D01*
X263580Y250588D01*
X262859Y251070D01*
X262508Y251140D01*
D02*
G37*
G36*
X261508D02*
X261157Y251070D01*
X260435Y250588D01*
X259953Y249867D01*
X259883Y249516D01*
X261508D01*
Y251140D01*
D02*
G37*
G36*
X264132Y248516D02*
X262508D01*
Y246891D01*
X262859Y246961D01*
X263580Y247443D01*
X264062Y248165D01*
X264132Y248516D01*
D02*
G37*
G36*
X261508D02*
X259883D01*
X259953Y248165D01*
X260435Y247443D01*
X261157Y246961D01*
X261508Y246891D01*
Y248516D01*
D02*
G37*
G36*
X230224Y244644D02*
Y243020D01*
X231849D01*
X231779Y243371D01*
X231297Y244092D01*
X230575Y244574D01*
X230224Y244644D01*
D02*
G37*
G36*
X229224D02*
X228873Y244574D01*
X228152Y244092D01*
X227670Y243371D01*
X227600Y243020D01*
X229224D01*
Y244644D01*
D02*
G37*
G36*
X231849Y242020D02*
X230224D01*
Y240395D01*
X230575Y240465D01*
X231297Y240947D01*
X231779Y241669D01*
X231849Y242020D01*
D02*
G37*
G36*
X229224D02*
X227600D01*
X227670Y241669D01*
X228152Y240947D01*
X228873Y240465D01*
X229224Y240395D01*
Y242020D01*
D02*
G37*
G36*
X184653Y230865D02*
Y229240D01*
X186278D01*
X186208Y229591D01*
X185726Y230313D01*
X185005Y230795D01*
X184653Y230865D01*
D02*
G37*
G36*
X183653D02*
X183302Y230795D01*
X182581Y230313D01*
X182099Y229591D01*
X182029Y229240D01*
X183653D01*
Y230865D01*
D02*
G37*
G36*
X158571Y230668D02*
Y229043D01*
X160195D01*
X160125Y229394D01*
X159643Y230116D01*
X158922Y230598D01*
X158571Y230668D01*
D02*
G37*
G36*
X157571D02*
X157220Y230598D01*
X156498Y230116D01*
X156016Y229394D01*
X155947Y229043D01*
X157571D01*
Y230668D01*
D02*
G37*
G36*
X264181Y229290D02*
Y227665D01*
X265806D01*
X265736Y228016D01*
X265254Y228738D01*
X264532Y229220D01*
X264181Y229290D01*
D02*
G37*
G36*
X263181D02*
X262830Y229220D01*
X262109Y228738D01*
X261627Y228016D01*
X261557Y227665D01*
X263181D01*
Y229290D01*
D02*
G37*
G36*
X186278Y228240D02*
X184653D01*
Y226616D01*
X185005Y226686D01*
X185726Y227168D01*
X186208Y227889D01*
X186278Y228240D01*
D02*
G37*
G36*
X183653D02*
X182029D01*
X182099Y227889D01*
X182581Y227168D01*
X183302Y226686D01*
X183653Y226616D01*
Y228240D01*
D02*
G37*
G36*
X160195Y228043D02*
X158571D01*
Y226419D01*
X158922Y226489D01*
X159643Y226971D01*
X160125Y227692D01*
X160195Y228043D01*
D02*
G37*
G36*
X157571D02*
X155947D01*
X156016Y227692D01*
X156498Y226971D01*
X157220Y226489D01*
X157571Y226419D01*
Y228043D01*
D02*
G37*
G36*
X265806Y226665D02*
X264181D01*
Y225041D01*
X264532Y225111D01*
X265254Y225593D01*
X265736Y226314D01*
X265806Y226665D01*
D02*
G37*
G36*
X263181D02*
X261557D01*
X261627Y226314D01*
X262109Y225593D01*
X262830Y225111D01*
X263181Y225041D01*
Y226665D01*
D02*
G37*
G36*
X58661Y219445D02*
X57849Y219283D01*
X57161Y218823D01*
X56994Y218573D01*
X56392D01*
X56225Y218823D01*
X55536Y219283D01*
X54724Y219445D01*
X53912Y219283D01*
X53224Y218823D01*
X53057Y218573D01*
X52455D01*
X52288Y218823D01*
X51599Y219283D01*
X50787Y219445D01*
X49975Y219283D01*
X49287Y218823D01*
X48827Y218135D01*
X48665Y217323D01*
X48827Y216511D01*
X49287Y215822D01*
X49975Y215363D01*
X50787Y215201D01*
X51599Y215363D01*
X52225Y215780D01*
X52557Y215747D01*
X52794Y215680D01*
X52824Y215598D01*
X52820Y215573D01*
X52047Y214980D01*
X51335Y214052D01*
X50888Y212971D01*
X50735Y211811D01*
Y204724D01*
X50888Y203565D01*
X51335Y202484D01*
X52047Y201555D01*
X52976Y200843D01*
X54057Y200395D01*
X55216Y200243D01*
X56376Y200395D01*
X57457Y200843D01*
X58385Y201555D01*
X59098Y202484D01*
X59545Y203565D01*
X59698Y204724D01*
Y211811D01*
X59545Y212971D01*
X59098Y214052D01*
X58588Y214716D01*
X58606Y214831D01*
X58822Y215233D01*
X59473Y215363D01*
X60162Y215822D01*
X60622Y216511D01*
X60783Y217323D01*
X60622Y218135D01*
X60162Y218823D01*
X59473Y219283D01*
X58661Y219445D01*
D02*
G37*
G36*
X240067Y219841D02*
Y218216D01*
X241691D01*
X241621Y218568D01*
X241139Y219289D01*
X240418Y219771D01*
X240067Y219841D01*
D02*
G37*
G36*
X239067D02*
X238716Y219771D01*
X237994Y219289D01*
X237512Y218568D01*
X237443Y218216D01*
X239067D01*
Y219841D01*
D02*
G37*
G36*
X175795Y218463D02*
Y216839D01*
X177420D01*
X177350Y217190D01*
X176868Y217911D01*
X176146Y218393D01*
X175795Y218463D01*
D02*
G37*
G36*
X174795D02*
X174444Y218393D01*
X173723Y217911D01*
X173241Y217190D01*
X173171Y216839D01*
X174795D01*
Y218463D01*
D02*
G37*
G36*
X241691Y217216D02*
X240067D01*
Y215592D01*
X240418Y215662D01*
X241139Y216144D01*
X241621Y216865D01*
X241691Y217216D01*
D02*
G37*
G36*
X239067D02*
X237443D01*
X237512Y216865D01*
X237994Y216144D01*
X238716Y215662D01*
X239067Y215592D01*
Y217216D01*
D02*
G37*
G36*
X177420Y215839D02*
X175795D01*
Y214214D01*
X176146Y214284D01*
X176868Y214766D01*
X177350Y215488D01*
X177420Y215839D01*
D02*
G37*
G36*
X174795D02*
X173171D01*
X173241Y215488D01*
X173723Y214766D01*
X174444Y214284D01*
X174795Y214214D01*
Y215839D01*
D02*
G37*
G36*
X109063Y206357D02*
Y204732D01*
X110687D01*
X110617Y205083D01*
X110135Y205805D01*
X109414Y206287D01*
X109063Y206357D01*
D02*
G37*
G36*
X108063D02*
X107712Y206287D01*
X106991Y205805D01*
X106508Y205083D01*
X106439Y204732D01*
X108063D01*
Y206357D01*
D02*
G37*
G36*
X30913Y212788D02*
Y204437D01*
X35393D01*
Y207874D01*
X35223Y209163D01*
X34726Y210364D01*
X33935Y211395D01*
X32903Y212187D01*
X31702Y212684D01*
X30913Y212788D01*
D02*
G37*
G36*
X29913D02*
X29125Y212684D01*
X27924Y212187D01*
X26892Y211395D01*
X26101Y210364D01*
X25604Y209163D01*
X25434Y207874D01*
Y204437D01*
X29913D01*
Y212788D01*
D02*
G37*
G36*
X110687Y203732D02*
X109063D01*
Y202108D01*
X109414Y202178D01*
X110135Y202660D01*
X110617Y203381D01*
X110687Y203732D01*
D02*
G37*
G36*
X108063D02*
X106439D01*
X106508Y203381D01*
X106991Y202660D01*
X107712Y202178D01*
X108063Y202108D01*
Y203732D01*
D02*
G37*
G36*
X193315Y203699D02*
Y202075D01*
X194939D01*
X194869Y202426D01*
X194387Y203147D01*
X193666Y203629D01*
X193315Y203699D01*
D02*
G37*
G36*
X192315D02*
X191964Y203629D01*
X191243Y203147D01*
X190760Y202426D01*
X190691Y202075D01*
X192315D01*
Y203699D01*
D02*
G37*
G36*
X240158Y205272D02*
X239346Y205110D01*
X238657Y204650D01*
X238197Y203962D01*
X238036Y203150D01*
X238197Y202338D01*
X238657Y201649D01*
X239346Y201189D01*
X240158Y201028D01*
X240969Y201189D01*
X241658Y201649D01*
X242118Y202338D01*
X242279Y203150D01*
X242118Y203962D01*
X241658Y204650D01*
X240969Y205110D01*
X240158Y205272D01*
D02*
G37*
G36*
X267035Y202026D02*
Y200402D01*
X268660D01*
X268590Y200753D01*
X268108Y201474D01*
X267387Y201956D01*
X267035Y202026D01*
D02*
G37*
G36*
X266035D02*
X265684Y201956D01*
X264963Y201474D01*
X264481Y200753D01*
X264411Y200402D01*
X266035D01*
Y202026D01*
D02*
G37*
G36*
X194939Y201075D02*
X193315D01*
Y199450D01*
X193666Y199520D01*
X194387Y200002D01*
X194869Y200724D01*
X194939Y201075D01*
D02*
G37*
G36*
X192315D02*
X190691D01*
X190760Y200724D01*
X191243Y200002D01*
X191964Y199520D01*
X192315Y199450D01*
Y201075D01*
D02*
G37*
G36*
X12697Y209115D02*
X11357Y208939D01*
X10108Y208421D01*
X9035Y207598D01*
X8212Y206526D01*
X7695Y205277D01*
X7519Y203937D01*
X7695Y202597D01*
X8212Y201348D01*
X9035Y200275D01*
X10108Y199453D01*
X11357Y198935D01*
X12697Y198759D01*
X14037Y198935D01*
X15286Y199453D01*
X16358Y200275D01*
X17181Y201348D01*
X17699Y202597D01*
X17875Y203937D01*
X17699Y205277D01*
X17181Y206526D01*
X16358Y207598D01*
X15286Y208421D01*
X14037Y208939D01*
X12697Y209115D01*
D02*
G37*
G36*
X268660Y199402D02*
X267035D01*
Y197777D01*
X267387Y197847D01*
X268108Y198329D01*
X268590Y199050D01*
X268660Y199402D01*
D02*
G37*
G36*
X266035D02*
X264411D01*
X264481Y199050D01*
X264963Y198329D01*
X265684Y197847D01*
X266035Y197777D01*
Y199402D01*
D02*
G37*
G36*
X167921Y197400D02*
Y195776D01*
X169546D01*
X169476Y196127D01*
X168994Y196848D01*
X168272Y197330D01*
X167921Y197400D01*
D02*
G37*
G36*
X166921D02*
X166570Y197330D01*
X165849Y196848D01*
X165367Y196127D01*
X165297Y195776D01*
X166921D01*
Y197400D01*
D02*
G37*
G36*
X35393Y203437D02*
X30913D01*
Y195086D01*
X31702Y195190D01*
X32903Y195688D01*
X33935Y196479D01*
X34726Y197510D01*
X35223Y198711D01*
X35393Y200000D01*
Y203437D01*
D02*
G37*
G36*
X29913D02*
X25434D01*
Y200000D01*
X25604Y198711D01*
X26101Y197510D01*
X26892Y196479D01*
X27924Y195688D01*
X29125Y195190D01*
X29913Y195086D01*
Y203437D01*
D02*
G37*
G36*
X131398Y198480D02*
X130586Y198319D01*
X129897Y197859D01*
X129437Y197170D01*
X129276Y196358D01*
X129437Y195546D01*
X129897Y194858D01*
X130586Y194398D01*
X131398Y194236D01*
X132210Y194398D01*
X132898Y194858D01*
X133358Y195546D01*
X133519Y196358D01*
X133358Y197170D01*
X132898Y197859D01*
X132210Y198319D01*
X131398Y198480D01*
D02*
G37*
G36*
X222646Y195136D02*
Y193512D01*
X224270D01*
X224200Y193863D01*
X223718Y194584D01*
X222997Y195066D01*
X222646Y195136D01*
D02*
G37*
G36*
X221646D02*
X221295Y195066D01*
X220573Y194584D01*
X220091Y193863D01*
X220035Y193582D01*
X219493Y193418D01*
X218906Y194004D01*
X218360Y194369D01*
X217717Y194497D01*
X170000D01*
X169711Y194776D01*
X165297D01*
X165367Y194425D01*
X165849Y193703D01*
X166570Y193221D01*
X167015Y193133D01*
X167179Y192590D01*
X146574Y171985D01*
X146411Y171952D01*
X145787Y171536D01*
X145371Y170912D01*
X145224Y170177D01*
X145371Y169442D01*
X145787Y168819D01*
X146411Y168402D01*
X147146Y168256D01*
X147881Y168402D01*
X148504Y168819D01*
X148921Y169442D01*
X148953Y169605D01*
X170480Y191133D01*
X179635D01*
X179902Y190633D01*
X179733Y190379D01*
X179571Y189567D01*
X179733Y188755D01*
X180192Y188066D01*
X180517Y187850D01*
Y187249D01*
X180192Y187032D01*
X179733Y186344D01*
X179571Y185531D01*
X179733Y184720D01*
X180192Y184031D01*
X180881Y183571D01*
X181693Y183410D01*
X182505Y183571D01*
X183193Y184031D01*
X183530Y184536D01*
X184088D01*
X184425Y184031D01*
X185113Y183571D01*
X185925Y183410D01*
X186737Y183571D01*
X187426Y184031D01*
X187885Y184720D01*
X188047Y185531D01*
X187885Y186344D01*
X187426Y187032D01*
X187101Y187249D01*
Y187850D01*
X187426Y188066D01*
X187885Y188755D01*
X188047Y189567D01*
X187885Y190379D01*
X187716Y190633D01*
X187983Y191133D01*
X197559D01*
X197826Y190633D01*
X197584Y190271D01*
X197423Y189459D01*
X197584Y188647D01*
X197825Y188287D01*
Y187578D01*
X197084Y186837D01*
X196764Y186358D01*
X196651Y185792D01*
Y153073D01*
X192754Y149175D01*
X192433Y148696D01*
X192321Y148130D01*
Y98939D01*
X190668Y97287D01*
X190177Y97502D01*
X190062Y98078D01*
X189646Y98701D01*
X189613Y98723D01*
Y114075D01*
X189512Y114582D01*
X189225Y115012D01*
X185280Y118957D01*
X185287Y118996D01*
X185141Y119731D01*
X184725Y120354D01*
X184101Y120771D01*
X183366Y120917D01*
X182631Y120771D01*
X182008Y120354D01*
X181591Y119731D01*
X181445Y118996D01*
X181591Y118261D01*
X182008Y117638D01*
X182631Y117221D01*
X183366Y117075D01*
X183405Y117083D01*
X186962Y113526D01*
Y98723D01*
X186929Y98701D01*
X186512Y98078D01*
X186366Y97342D01*
X186512Y96607D01*
X186929Y95984D01*
X187552Y95568D01*
X188128Y95453D01*
X188343Y94962D01*
X183010Y89628D01*
X182689Y89148D01*
X182577Y88583D01*
Y82519D01*
X182555Y82504D01*
X182095Y81816D01*
X181933Y81004D01*
X182095Y80192D01*
X182555Y79504D01*
X183243Y79044D01*
X184055Y78882D01*
X184867Y79044D01*
X185556Y79504D01*
X186015Y80192D01*
X186177Y81004D01*
X186015Y81816D01*
X185556Y82504D01*
X185533Y82519D01*
Y85452D01*
X186033Y85603D01*
X186295Y85212D01*
X186983Y84752D01*
X187795Y84591D01*
X188607Y84752D01*
X189296Y85212D01*
X189756Y85901D01*
X189917Y86713D01*
X189912Y86739D01*
X203514Y100340D01*
X203834Y100820D01*
X203946Y101385D01*
Y156914D01*
X204447Y157066D01*
X204628Y156794D01*
X205350Y156312D01*
X205701Y156242D01*
Y158366D01*
Y160491D01*
X205350Y160421D01*
X204628Y159939D01*
X204447Y159667D01*
X203946Y159818D01*
Y170497D01*
X204447Y170648D01*
X204628Y170376D01*
X205350Y169894D01*
X205701Y169825D01*
Y171949D01*
Y174073D01*
X205350Y174003D01*
X204628Y173521D01*
X204447Y173249D01*
X203946Y173401D01*
Y184231D01*
X203834Y184797D01*
X203575Y185185D01*
Y186005D01*
X203735Y186112D01*
X204195Y186800D01*
X204356Y187612D01*
X204195Y188424D01*
X203735Y189113D01*
X203046Y189573D01*
X202234Y189734D01*
X201636Y189615D01*
X201505Y190271D01*
X201263Y190633D01*
X201531Y191133D01*
X217020D01*
X238377Y169776D01*
Y157075D01*
X238284Y156936D01*
X238138Y156201D01*
X238284Y155466D01*
X238701Y154842D01*
X239324Y154426D01*
X240059Y154280D01*
X240794Y154426D01*
X241418Y154842D01*
X241834Y155466D01*
X241980Y156201D01*
X241834Y156936D01*
X241741Y157075D01*
Y170472D01*
X241613Y171116D01*
X241249Y171662D01*
X241249Y171662D01*
X222552Y190359D01*
X222716Y190902D01*
X222997Y190957D01*
X223718Y191439D01*
X224200Y192161D01*
X224270Y192512D01*
X222146D01*
Y193012D01*
X221646D01*
Y195136D01*
D02*
G37*
G36*
X70866Y193460D02*
X70054Y193299D01*
X69366Y192839D01*
X69198Y192588D01*
X68597D01*
X68429Y192839D01*
X67741Y193299D01*
X66929Y193460D01*
X66117Y193299D01*
X65429Y192839D01*
X65261Y192588D01*
X64660D01*
X64492Y192839D01*
X63804Y193299D01*
X62992Y193460D01*
X62180Y193299D01*
X61492Y192839D01*
X61324Y192588D01*
X60723D01*
X60555Y192839D01*
X59867Y193299D01*
X59055Y193460D01*
X58243Y193299D01*
X57555Y192839D01*
X57095Y192151D01*
X56933Y191339D01*
X57095Y190527D01*
X57555Y189838D01*
X58243Y189378D01*
X59055Y189217D01*
X59867Y189378D01*
X60555Y189838D01*
X60723Y190089D01*
X61324D01*
X61492Y189838D01*
X62180Y189378D01*
X62992Y189217D01*
X63804Y189378D01*
X64492Y189838D01*
X64660Y190089D01*
X65261D01*
X65429Y189838D01*
X66117Y189378D01*
X66929Y189217D01*
X67741Y189378D01*
X68429Y189838D01*
X68597Y190089D01*
X69198D01*
X69366Y189838D01*
X70054Y189378D01*
X70866Y189217D01*
X71678Y189378D01*
X72366Y189838D01*
X72826Y190527D01*
X72988Y191339D01*
X72826Y192151D01*
X72366Y192839D01*
X71678Y193299D01*
X70866Y193460D01*
D02*
G37*
G36*
X150303Y193758D02*
Y192134D01*
X151927D01*
X151858Y192485D01*
X151376Y193206D01*
X150654Y193688D01*
X150303Y193758D01*
D02*
G37*
G36*
X149303D02*
X148952Y193688D01*
X148231Y193206D01*
X147749Y192485D01*
X147679Y192134D01*
X149303D01*
Y193758D01*
D02*
G37*
G36*
X151927Y191134D02*
X150303D01*
Y189509D01*
X150654Y189579D01*
X151376Y190061D01*
X151858Y190783D01*
X151927Y191134D01*
D02*
G37*
G36*
X149303D02*
X147679D01*
X147749Y190783D01*
X148231Y190061D01*
X148952Y189579D01*
X149303Y189509D01*
Y191134D01*
D02*
G37*
G36*
X250000Y190508D02*
X249188Y190346D01*
X248500Y189886D01*
X248040Y189198D01*
X247878Y188386D01*
X248040Y187574D01*
X248500Y186885D01*
X249188Y186425D01*
X250000Y186264D01*
X250812Y186425D01*
X251500Y186885D01*
X251960Y187574D01*
X252122Y188386D01*
X251960Y189198D01*
X251500Y189886D01*
X250812Y190346D01*
X250000Y190508D01*
D02*
G37*
G36*
X242913D02*
X242101Y190346D01*
X241413Y189886D01*
X240953Y189198D01*
X240792Y188386D01*
X240953Y187574D01*
X241413Y186885D01*
X242101Y186425D01*
X242913Y186264D01*
X243725Y186425D01*
X244414Y186885D01*
X244874Y187574D01*
X245035Y188386D01*
X244874Y189198D01*
X244414Y189886D01*
X243725Y190346D01*
X242913Y190508D01*
D02*
G37*
G36*
X236221D02*
X235408Y190346D01*
X234720Y189886D01*
X234260Y189198D01*
X234099Y188386D01*
X234260Y187574D01*
X234720Y186885D01*
X235408Y186425D01*
X236221Y186264D01*
X237033Y186425D01*
X237721Y186885D01*
X238181Y187574D01*
X238342Y188386D01*
X238181Y189198D01*
X237721Y189886D01*
X237033Y190346D01*
X236221Y190508D01*
D02*
G37*
G36*
X46949Y190019D02*
X43512D01*
Y185539D01*
X51863D01*
X51759Y186328D01*
X51261Y187529D01*
X50470Y188560D01*
X49439Y189352D01*
X48238Y189849D01*
X46949Y190019D01*
D02*
G37*
G36*
X42512D02*
X39075D01*
X37786Y189849D01*
X36585Y189352D01*
X35554Y188560D01*
X34762Y187529D01*
X34265Y186328D01*
X34161Y185539D01*
X42512D01*
Y190019D01*
D02*
G37*
G36*
X107095Y184506D02*
Y182882D01*
X108719D01*
X108649Y183233D01*
X108167Y183954D01*
X107446Y184436D01*
X107095Y184506D01*
D02*
G37*
G36*
X106095D02*
X105744Y184436D01*
X105022Y183954D01*
X104540Y183233D01*
X104470Y182882D01*
X106095D01*
Y184506D01*
D02*
G37*
G36*
X108719Y181882D02*
X107095D01*
Y180257D01*
X107446Y180327D01*
X108167Y180809D01*
X108649Y181531D01*
X108719Y181882D01*
D02*
G37*
G36*
X106095D02*
X104470D01*
X104540Y181531D01*
X105022Y180809D01*
X105744Y180327D01*
X106095Y180257D01*
Y181882D01*
D02*
G37*
G36*
X51863Y184539D02*
X43512D01*
Y180060D01*
X46949D01*
X48238Y180229D01*
X49439Y180727D01*
X50470Y181518D01*
X51261Y182550D01*
X51759Y183751D01*
X51863Y184539D01*
D02*
G37*
G36*
X42512D02*
X34161D01*
X34265Y183751D01*
X34762Y182550D01*
X35554Y181518D01*
X36585Y180727D01*
X37786Y180229D01*
X39075Y180060D01*
X42512D01*
Y184539D01*
D02*
G37*
G36*
X260433Y187936D02*
X259252D01*
X258400Y187824D01*
X257607Y187495D01*
X256925Y186972D01*
X256402Y186291D01*
X256074Y185497D01*
X255962Y184646D01*
X256074Y183794D01*
X256402Y183001D01*
X256925Y182319D01*
X257248Y182071D01*
Y181441D01*
X256854Y181138D01*
X256315Y180436D01*
X255976Y179618D01*
X255927Y179240D01*
X259842D01*
X263758D01*
X263709Y179618D01*
X263370Y180436D01*
X262831Y181138D01*
X262437Y181441D01*
Y182071D01*
X262760Y182319D01*
X263283Y183001D01*
X263611Y183794D01*
X263723Y184646D01*
X263611Y185497D01*
X263283Y186291D01*
X262760Y186972D01*
X262078Y187495D01*
X261285Y187824D01*
X260433Y187936D01*
D02*
G37*
G36*
X87114Y176435D02*
Y174811D01*
X88739D01*
X88669Y175162D01*
X88187Y175883D01*
X87465Y176366D01*
X87114Y176435D01*
D02*
G37*
G36*
X86114D02*
X85763Y176366D01*
X85042Y175883D01*
X84560Y175162D01*
X84490Y174811D01*
X86114D01*
Y176435D01*
D02*
G37*
G36*
X270972Y175746D02*
Y174122D01*
X272597D01*
X272527Y174473D01*
X272045Y175195D01*
X271323Y175677D01*
X270972Y175746D01*
D02*
G37*
G36*
X269972D02*
X269621Y175677D01*
X268900Y175195D01*
X268418Y174473D01*
X268348Y174122D01*
X269972D01*
Y175746D01*
D02*
G37*
G36*
X206701Y174073D02*
Y172449D01*
X208325D01*
X208255Y172800D01*
X207773Y173521D01*
X207052Y174003D01*
X206701Y174073D01*
D02*
G37*
G36*
X88739Y173811D02*
X87114D01*
Y172187D01*
X87465Y172257D01*
X88187Y172739D01*
X88669Y173460D01*
X88739Y173811D01*
D02*
G37*
G36*
X86114D02*
X84490D01*
X84560Y173460D01*
X85042Y172739D01*
X85763Y172257D01*
X86114Y172187D01*
Y173811D01*
D02*
G37*
G36*
X272597Y173122D02*
X270972D01*
Y171498D01*
X271323Y171567D01*
X272045Y172050D01*
X272527Y172771D01*
X272597Y173122D01*
D02*
G37*
G36*
X269972D02*
X268348D01*
X268418Y172771D01*
X268900Y172050D01*
X269621Y171567D01*
X269972Y171498D01*
Y173122D01*
D02*
G37*
G36*
X193504Y186075D02*
X192769Y185928D01*
X192146Y185512D01*
X191729Y184889D01*
X191583Y184153D01*
X191729Y183418D01*
X192077Y182898D01*
Y170500D01*
X191577Y170130D01*
X191543Y170136D01*
Y168012D01*
Y165887D01*
X191577Y165894D01*
X192077Y165523D01*
Y161074D01*
X186786Y155783D01*
X186477Y155320D01*
X186368Y154774D01*
X186368Y154774D01*
Y132358D01*
X186020Y131838D01*
X185874Y131102D01*
X186020Y130367D01*
X186437Y129744D01*
X187060Y129327D01*
X187795Y129181D01*
X188531Y129327D01*
X189154Y129744D01*
X189570Y130367D01*
X189716Y131102D01*
X189570Y131838D01*
X189223Y132358D01*
Y154182D01*
X190799Y155759D01*
X191063Y155618D01*
X192905D01*
Y157461D01*
X192765Y157724D01*
X194513Y159473D01*
X194513Y159473D01*
X194823Y159936D01*
X194931Y160482D01*
Y182898D01*
X195279Y183418D01*
X195425Y184153D01*
X195279Y184889D01*
X194862Y185512D01*
X194239Y185928D01*
X193504Y186075D01*
D02*
G37*
G36*
X208325Y171449D02*
X206701D01*
Y169825D01*
X207052Y169894D01*
X207773Y170376D01*
X208255Y171098D01*
X208325Y171449D01*
D02*
G37*
G36*
X190543Y170136D02*
X190192Y170066D01*
X189471Y169584D01*
X188989Y168863D01*
X188919Y168512D01*
X190543D01*
Y170136D01*
D02*
G37*
G36*
X156602Y169250D02*
Y167626D01*
X158227D01*
X158157Y167977D01*
X157675Y168699D01*
X156953Y169181D01*
X156602Y169250D01*
D02*
G37*
G36*
X155602D02*
X155251Y169181D01*
X154530Y168699D01*
X154048Y167977D01*
X153978Y167626D01*
X155602D01*
Y169250D01*
D02*
G37*
G36*
X57784Y167872D02*
Y166248D01*
X59408D01*
X59338Y166599D01*
X58856Y167321D01*
X58135Y167803D01*
X57784Y167872D01*
D02*
G37*
G36*
X56783D02*
X56432Y167803D01*
X55711Y167321D01*
X55229Y166599D01*
X55159Y166248D01*
X56783D01*
Y167872D01*
D02*
G37*
G36*
X190543Y167512D02*
X188919D01*
X188989Y167161D01*
X189471Y166439D01*
X190192Y165957D01*
X190543Y165887D01*
Y167512D01*
D02*
G37*
G36*
X158227Y166626D02*
X156602D01*
Y165002D01*
X156953Y165071D01*
X157675Y165553D01*
X158157Y166275D01*
X158227Y166626D01*
D02*
G37*
G36*
X155602D02*
X153978D01*
X154048Y166275D01*
X154530Y165553D01*
X155251Y165071D01*
X155602Y165002D01*
Y166626D01*
D02*
G37*
G36*
X59408Y165248D02*
X57784D01*
Y163624D01*
X58135Y163693D01*
X58856Y164175D01*
X59338Y164897D01*
X59408Y165248D01*
D02*
G37*
G36*
X56783D02*
X55159D01*
X55229Y164897D01*
X55711Y164175D01*
X56432Y163693D01*
X56783Y163624D01*
Y165248D01*
D02*
G37*
G36*
X15067Y161672D02*
Y160047D01*
X16691D01*
X16622Y160398D01*
X16139Y161120D01*
X15418Y161602D01*
X15067Y161672D01*
D02*
G37*
G36*
X14067D02*
X13716Y161602D01*
X12994Y161120D01*
X12512Y160398D01*
X12443Y160047D01*
X14067D01*
Y161672D01*
D02*
G37*
G36*
X206701Y160491D02*
Y158866D01*
X208325D01*
X208255Y159217D01*
X207773Y159939D01*
X207052Y160421D01*
X206701Y160491D01*
D02*
G37*
G36*
X16691Y159047D02*
X15067D01*
Y157423D01*
X15418Y157493D01*
X16139Y157975D01*
X16622Y158696D01*
X16691Y159047D01*
D02*
G37*
G36*
X14067D02*
X12443D01*
X12512Y158696D01*
X12994Y157975D01*
X13716Y157493D01*
X14067Y157423D01*
Y159047D01*
D02*
G37*
G36*
X208325Y157866D02*
X206701D01*
Y156242D01*
X207052Y156312D01*
X207773Y156794D01*
X208255Y157515D01*
X208325Y157866D01*
D02*
G37*
G36*
X193905Y157243D02*
Y155618D01*
X195530D01*
X195460Y155969D01*
X194978Y156691D01*
X194256Y157173D01*
X193905Y157243D01*
D02*
G37*
G36*
X195530Y154618D02*
X193905D01*
Y152994D01*
X194256Y153064D01*
X194978Y153546D01*
X195460Y154267D01*
X195530Y154618D01*
D02*
G37*
G36*
X192905D02*
X191281D01*
X191351Y154267D01*
X191833Y153546D01*
X192554Y153064D01*
X192905Y152994D01*
Y154618D01*
D02*
G37*
G36*
X263758Y178240D02*
X259842D01*
X255927D01*
X255976Y177862D01*
X256315Y177044D01*
X256854Y176342D01*
X257248Y176040D01*
Y175409D01*
X256925Y175161D01*
X256402Y174480D01*
X256074Y173686D01*
X255962Y172835D01*
X256074Y171983D01*
X256402Y171189D01*
X256925Y170508D01*
X257344Y170187D01*
Y169577D01*
X256925Y169256D01*
X256402Y168574D01*
X256074Y167781D01*
X255962Y166929D01*
X256074Y166077D01*
X256402Y165284D01*
X256925Y164602D01*
X257344Y164281D01*
Y163672D01*
X256925Y163350D01*
X256402Y162669D01*
X256074Y161875D01*
X255962Y161024D01*
X256074Y160172D01*
X256402Y159378D01*
X256925Y158697D01*
X257344Y158376D01*
Y157766D01*
X256925Y157445D01*
X256402Y156763D01*
X256074Y155970D01*
X255962Y155118D01*
X256074Y154267D01*
X256402Y153473D01*
X256925Y152792D01*
X257607Y152269D01*
X258400Y151940D01*
X259252Y151828D01*
X260433D01*
X261285Y151940D01*
X262078Y152269D01*
X262760Y152792D01*
X263283Y153473D01*
X263611Y154267D01*
X263723Y155118D01*
X263611Y155970D01*
X263283Y156763D01*
X262760Y157445D01*
X262341Y157766D01*
Y158376D01*
X262760Y158697D01*
X263283Y159378D01*
X263611Y160172D01*
X263723Y161024D01*
X263611Y161875D01*
X263283Y162669D01*
X262760Y163350D01*
X262341Y163672D01*
Y164281D01*
X262760Y164602D01*
X263283Y165284D01*
X263611Y166077D01*
X263723Y166929D01*
X263611Y167781D01*
X263283Y168574D01*
X262760Y169256D01*
X262341Y169577D01*
Y170187D01*
X262760Y170508D01*
X263283Y171189D01*
X263611Y171983D01*
X263723Y172835D01*
X263611Y173686D01*
X263283Y174480D01*
X262760Y175161D01*
X262437Y175409D01*
Y176040D01*
X262831Y176342D01*
X263370Y177044D01*
X263709Y177862D01*
X263758Y178240D01*
D02*
G37*
G36*
X234835Y152420D02*
X234484Y152350D01*
X233762Y151868D01*
X233280Y151146D01*
X233210Y150795D01*
X234835D01*
Y152420D01*
D02*
G37*
G36*
X47827Y151731D02*
X47476Y151661D01*
X46754Y151179D01*
X46272Y150457D01*
X46202Y150106D01*
X47827D01*
Y151731D01*
D02*
G37*
G36*
X218209Y148775D02*
X217397Y148614D01*
X216708Y148154D01*
X216248Y147466D01*
X216087Y146653D01*
X216248Y145842D01*
X216708Y145153D01*
X217397Y144693D01*
X218209Y144532D01*
X219021Y144693D01*
X219709Y145153D01*
X220169Y145842D01*
X220331Y146653D01*
X220169Y147466D01*
X219709Y148154D01*
X219021Y148614D01*
X218209Y148775D01*
D02*
G37*
G36*
X260933Y141396D02*
Y139772D01*
X262557D01*
X262488Y140123D01*
X262006Y140844D01*
X261284Y141326D01*
X260933Y141396D01*
D02*
G37*
G36*
X259933D02*
X259582Y141326D01*
X258861Y140844D01*
X258379Y140123D01*
X258309Y139772D01*
X259933D01*
Y141396D01*
D02*
G37*
G36*
X235835Y152420D02*
Y150295D01*
X235335D01*
Y149795D01*
X233210D01*
X233280Y149444D01*
X233762Y148723D01*
X234484Y148241D01*
X234582Y148221D01*
X234727Y147743D01*
X224388Y137404D01*
X207704D01*
X207361Y137633D01*
X206626Y137779D01*
X205891Y137633D01*
X205267Y137217D01*
X204851Y136593D01*
X204705Y135858D01*
X204851Y135123D01*
X205267Y134500D01*
X205891Y134083D01*
X206626Y133937D01*
X207361Y134083D01*
X207905Y134447D01*
X225000D01*
X225566Y134559D01*
X226045Y134880D01*
X239582Y148416D01*
X240105Y148520D01*
X240728Y148937D01*
X241145Y149560D01*
X241291Y150295D01*
X241145Y151031D01*
X240728Y151654D01*
X240105Y152070D01*
X239370Y152216D01*
X238635Y152070D01*
X238012Y151654D01*
X237817Y151363D01*
X237230Y151384D01*
X236907Y151868D01*
X236186Y152350D01*
X235835Y152420D01*
D02*
G37*
G36*
X262557Y138772D02*
X260933D01*
Y137147D01*
X261284Y137217D01*
X262006Y137699D01*
X262488Y138421D01*
X262557Y138772D01*
D02*
G37*
G36*
X259933D02*
X258309D01*
X258379Y138421D01*
X258861Y137699D01*
X259582Y137217D01*
X259933Y137147D01*
Y138772D01*
D02*
G37*
G36*
X227665Y132341D02*
Y130717D01*
X229290D01*
X229220Y131068D01*
X228738Y131789D01*
X228016Y132271D01*
X227665Y132341D01*
D02*
G37*
G36*
X226665D02*
X226314Y132271D01*
X225593Y131789D01*
X225111Y131068D01*
X225041Y130717D01*
X226665D01*
Y132341D01*
D02*
G37*
G36*
X229290Y129717D02*
X227665D01*
Y128092D01*
X228016Y128162D01*
X228738Y128644D01*
X229220Y129366D01*
X229290Y129717D01*
D02*
G37*
G36*
X226665D02*
X225041D01*
X225111Y129366D01*
X225593Y128644D01*
X226314Y128162D01*
X226665Y128092D01*
Y129717D01*
D02*
G37*
G36*
X44496Y129388D02*
Y127764D01*
X46120D01*
X46051Y128115D01*
X45568Y128836D01*
X44847Y129318D01*
X44496Y129388D01*
D02*
G37*
G36*
X43496D02*
X43145Y129318D01*
X42424Y128836D01*
X41941Y128115D01*
X41872Y127764D01*
X43496D01*
Y129388D01*
D02*
G37*
G36*
X83866Y127518D02*
Y125894D01*
X85491D01*
X85421Y126245D01*
X84939Y126966D01*
X84217Y127448D01*
X83866Y127518D01*
D02*
G37*
G36*
X82866D02*
X82515Y127448D01*
X81794Y126966D01*
X81312Y126245D01*
X81242Y125894D01*
X82866D01*
Y127518D01*
D02*
G37*
G36*
X46120Y126764D02*
X44496D01*
Y125139D01*
X44847Y125209D01*
X45568Y125691D01*
X46051Y126413D01*
X46120Y126764D01*
D02*
G37*
G36*
X43496D02*
X41872D01*
X41941Y126413D01*
X42424Y125691D01*
X43145Y125209D01*
X43496Y125139D01*
Y126764D01*
D02*
G37*
G36*
X85491Y124894D02*
X83866D01*
Y123269D01*
X84217Y123339D01*
X84939Y123821D01*
X85421Y124543D01*
X85491Y124894D01*
D02*
G37*
G36*
X82866D02*
X81242D01*
X81312Y124543D01*
X81794Y123821D01*
X82515Y123339D01*
X82866Y123269D01*
Y124894D01*
D02*
G37*
G36*
X66248Y123384D02*
Y121760D01*
X67872D01*
X67803Y122111D01*
X67321Y122832D01*
X66599Y123314D01*
X66248Y123384D01*
D02*
G37*
G36*
X65248D02*
X64897Y123314D01*
X64175Y122832D01*
X63693Y122111D01*
X63624Y121760D01*
X65248D01*
Y123384D01*
D02*
G37*
G36*
X67872Y120760D02*
X66248D01*
Y119135D01*
X66599Y119205D01*
X67321Y119687D01*
X67803Y120409D01*
X67872Y120760D01*
D02*
G37*
G36*
X65248D02*
X63624D01*
X63693Y120409D01*
X64175Y119687D01*
X64897Y119205D01*
X65248Y119135D01*
Y120760D01*
D02*
G37*
G36*
X146268Y117872D02*
Y116248D01*
X147892D01*
X147822Y116599D01*
X147340Y117321D01*
X146619Y117803D01*
X146268Y117872D01*
D02*
G37*
G36*
X145268D02*
X144917Y117803D01*
X144195Y117321D01*
X143713Y116599D01*
X143643Y116248D01*
X145268D01*
Y117872D01*
D02*
G37*
G36*
X147892Y115248D02*
X146268D01*
Y113624D01*
X146619Y113693D01*
X147340Y114175D01*
X147822Y114897D01*
X147892Y115248D01*
D02*
G37*
G36*
X145268D02*
X143643D01*
X143713Y114897D01*
X144195Y114175D01*
X144917Y113693D01*
X145268Y113624D01*
Y115248D01*
D02*
G37*
G36*
X96268Y113345D02*
Y111721D01*
X97892D01*
X97822Y112072D01*
X97340Y112793D01*
X96619Y113275D01*
X96268Y113345D01*
D02*
G37*
G36*
X95268D02*
X94917Y113275D01*
X94195Y112793D01*
X93713Y112072D01*
X93643Y111721D01*
X95268D01*
Y113345D01*
D02*
G37*
G36*
X261622Y110786D02*
Y109161D01*
X263246D01*
X263177Y109512D01*
X262695Y110234D01*
X261973Y110716D01*
X261622Y110786D01*
D02*
G37*
G36*
X260622D02*
X260271Y110716D01*
X259550Y110234D01*
X259068Y109512D01*
X258998Y109161D01*
X260622D01*
Y110786D01*
D02*
G37*
G36*
X234063D02*
Y109161D01*
X235687D01*
X235617Y109512D01*
X235136Y110234D01*
X234414Y110716D01*
X234063Y110786D01*
D02*
G37*
G36*
X233063D02*
X232712Y110716D01*
X231991Y110234D01*
X231508Y109512D01*
X231439Y109161D01*
X233063D01*
Y110786D01*
D02*
G37*
G36*
X97892Y110721D02*
X96268D01*
Y109096D01*
X96619Y109166D01*
X97340Y109648D01*
X97822Y110370D01*
X97892Y110721D01*
D02*
G37*
G36*
X95268D02*
X93643D01*
X93713Y110370D01*
X94195Y109648D01*
X94917Y109166D01*
X95268Y109096D01*
Y110721D01*
D02*
G37*
G36*
X109161Y112394D02*
Y107980D01*
X113575D01*
X113471Y108769D01*
X112974Y109970D01*
X112182Y111001D01*
X111151Y111793D01*
X109950Y112290D01*
X109161Y112394D01*
D02*
G37*
G36*
X108161D02*
X107373Y112290D01*
X106172Y111793D01*
X105140Y111001D01*
X104349Y109970D01*
X103851Y108769D01*
X103748Y107980D01*
X108161D01*
Y112394D01*
D02*
G37*
G36*
X263246Y108161D02*
X261622D01*
Y106537D01*
X261973Y106607D01*
X262695Y107089D01*
X263177Y107810D01*
X263246Y108161D01*
D02*
G37*
G36*
X260622D02*
X258998D01*
X259068Y107810D01*
X259550Y107089D01*
X260271Y106607D01*
X260622Y106537D01*
Y108161D01*
D02*
G37*
G36*
X235687D02*
X234063D01*
Y106537D01*
X234414Y106607D01*
X235136Y107089D01*
X235617Y107810D01*
X235687Y108161D01*
D02*
G37*
G36*
X233063D02*
X231439D01*
X231508Y107810D01*
X231991Y107089D01*
X232712Y106607D01*
X233063Y106537D01*
Y108161D01*
D02*
G37*
G36*
X133532Y106964D02*
X132720Y106803D01*
X132032Y106343D01*
X131572Y105655D01*
X131410Y104842D01*
X131572Y104031D01*
X132032Y103342D01*
X132720Y102882D01*
X133532Y102721D01*
X134344Y102882D01*
X135033Y103342D01*
X135493Y104031D01*
X135654Y104842D01*
X135493Y105655D01*
X135033Y106343D01*
X134344Y106803D01*
X133532Y106964D01*
D02*
G37*
G36*
X113575Y106980D02*
X109161D01*
Y102567D01*
X109950Y102670D01*
X111151Y103168D01*
X112182Y103959D01*
X112974Y104990D01*
X113471Y106192D01*
X113575Y106980D01*
D02*
G37*
G36*
X108161D02*
X103748D01*
X103851Y106192D01*
X104349Y104990D01*
X105140Y103959D01*
X106172Y103168D01*
X107373Y102670D01*
X108161Y102567D01*
Y106980D01*
D02*
G37*
G36*
X182717Y102319D02*
X181904Y102157D01*
X181216Y101697D01*
X180756Y101009D01*
X180595Y100197D01*
X180756Y99385D01*
X181216Y98697D01*
X181904Y98237D01*
X182717Y98075D01*
X183528Y98237D01*
X184217Y98697D01*
X184677Y99385D01*
X184838Y100197D01*
X184677Y101009D01*
X184217Y101697D01*
X183528Y102157D01*
X182717Y102319D01*
D02*
G37*
G36*
X177165D02*
X176353Y102157D01*
X175665Y101697D01*
X175205Y101009D01*
X175043Y100197D01*
X175205Y99385D01*
X175665Y98697D01*
X176353Y98237D01*
X177165Y98075D01*
X177977Y98237D01*
X178666Y98697D01*
X179126Y99385D01*
X179287Y100197D01*
X179126Y101009D01*
X178666Y101697D01*
X177977Y102157D01*
X177165Y102319D01*
D02*
G37*
G36*
X172087Y106453D02*
X171275Y106291D01*
X170586Y105831D01*
X170126Y105143D01*
X169965Y104331D01*
X170126Y103519D01*
X170586Y102830D01*
X170915Y102611D01*
X170941Y102459D01*
X170876Y102035D01*
X170311Y101658D01*
X169851Y100970D01*
X169689Y100157D01*
X169851Y99345D01*
X170311Y98657D01*
X170999Y98197D01*
X171811Y98036D01*
X172623Y98197D01*
X173311Y98657D01*
X173771Y99345D01*
X173933Y100157D01*
X173771Y100970D01*
X173311Y101658D01*
X172983Y101877D01*
X172957Y102029D01*
X173022Y102453D01*
X173587Y102830D01*
X174047Y103519D01*
X174208Y104331D01*
X174047Y105143D01*
X173587Y105831D01*
X172899Y106291D01*
X172087Y106453D01*
D02*
G37*
G36*
X261622Y89132D02*
Y87508D01*
X263246D01*
X263177Y87859D01*
X262695Y88580D01*
X261973Y89062D01*
X261622Y89132D01*
D02*
G37*
G36*
X260622D02*
X260271Y89062D01*
X259550Y88580D01*
X259068Y87859D01*
X258998Y87508D01*
X260622D01*
Y89132D01*
D02*
G37*
G36*
X234063D02*
Y87508D01*
X235687D01*
X235617Y87859D01*
X235136Y88580D01*
X234414Y89062D01*
X234063Y89132D01*
D02*
G37*
G36*
X233063D02*
X232712Y89062D01*
X231991Y88580D01*
X231508Y87859D01*
X231439Y87508D01*
X233063D01*
Y89132D01*
D02*
G37*
G36*
X244193Y169933D02*
X243458Y169787D01*
X242834Y169370D01*
X242418Y168747D01*
X242272Y168012D01*
X242418Y167277D01*
X242575Y167042D01*
X242823Y166634D01*
X242575Y166226D01*
X242418Y165991D01*
X242272Y165256D01*
X242418Y164521D01*
X242834Y163898D01*
X243458Y163481D01*
X244193Y163335D01*
X244928Y163481D01*
X245082Y163584D01*
X245720Y162946D01*
Y153937D01*
Y149987D01*
X245523Y149856D01*
X245162Y149315D01*
X245035Y148677D01*
Y146207D01*
X245162Y145570D01*
X245523Y145029D01*
X245720Y144897D01*
Y95331D01*
X235560Y85170D01*
X235171Y85489D01*
X235362Y85774D01*
X235617Y86157D01*
X235687Y86508D01*
X234063D01*
Y84883D01*
X234414Y84953D01*
X235082Y85400D01*
X235401Y85011D01*
X230707Y80318D01*
X217529D01*
X216891Y80191D01*
X216350Y79830D01*
X194541Y58020D01*
X178491D01*
X178252Y58068D01*
X178107D01*
X177802Y58271D01*
X177067Y58417D01*
X176332Y58271D01*
X175708Y57854D01*
X175292Y57231D01*
X175146Y56496D01*
X175292Y55761D01*
X175708Y55138D01*
Y55099D01*
X175292Y54475D01*
X175146Y53740D01*
X175292Y53005D01*
X175708Y52382D01*
X176332Y51965D01*
X177067Y51819D01*
X177802Y51965D01*
X178107Y52169D01*
X178252D01*
X178491Y52216D01*
X196254D01*
X196892Y52343D01*
X197433Y52705D01*
X219242Y74514D01*
X232421D01*
X233059Y74641D01*
X233599Y75002D01*
X251036Y92439D01*
X251397Y92980D01*
X251524Y93617D01*
Y164659D01*
X251397Y165297D01*
X251036Y165838D01*
X247779Y169095D01*
X247238Y169456D01*
X246600Y169583D01*
X245233D01*
X244928Y169787D01*
X244193Y169933D01*
D02*
G37*
G36*
X263246Y86508D02*
X261622D01*
Y84883D01*
X261973Y84953D01*
X262695Y85435D01*
X263177Y86157D01*
X263246Y86508D01*
D02*
G37*
G36*
X260622D02*
X258998D01*
X259068Y86157D01*
X259550Y85435D01*
X260271Y84953D01*
X260622Y84883D01*
Y86508D01*
D02*
G37*
G36*
X233063D02*
X231439D01*
X231508Y86157D01*
X231991Y85435D01*
X232712Y84953D01*
X233063Y84883D01*
Y86508D01*
D02*
G37*
G36*
X108661Y92674D02*
X107399Y92508D01*
X106222Y92020D01*
X105212Y91245D01*
X104436Y90235D01*
X103949Y89058D01*
X103783Y87795D01*
X103949Y86533D01*
X104436Y85356D01*
X105212Y84346D01*
X106222Y83570D01*
X107399Y83083D01*
X108661Y82916D01*
X109924Y83083D01*
X111101Y83570D01*
X112111Y84346D01*
X112887Y85356D01*
X113374Y86533D01*
X113540Y87795D01*
X113374Y89058D01*
X112887Y90235D01*
X112111Y91245D01*
X111101Y92020D01*
X109924Y92508D01*
X108661Y92674D01*
D02*
G37*
G36*
X198138Y81061D02*
Y79437D01*
X199762D01*
X199692Y79788D01*
X199210Y80510D01*
X198489Y80992D01*
X198138Y81061D01*
D02*
G37*
G36*
X197138D02*
X196787Y80992D01*
X196065Y80510D01*
X195583Y79788D01*
X195513Y79437D01*
X197138D01*
Y81061D01*
D02*
G37*
G36*
X199762Y78437D02*
X198138D01*
Y76813D01*
X198489Y76882D01*
X199210Y77364D01*
X199692Y78086D01*
X199762Y78437D01*
D02*
G37*
G36*
X197138D02*
X195513D01*
X195583Y78086D01*
X196065Y77364D01*
X196787Y76882D01*
X197138Y76813D01*
Y78437D01*
D02*
G37*
G36*
X189055Y76649D02*
X188243Y76488D01*
X187555Y76028D01*
X187095Y75340D01*
X186933Y74528D01*
X187095Y73716D01*
X187555Y73027D01*
X188243Y72567D01*
X189055Y72406D01*
X189867Y72567D01*
X190556Y73027D01*
X191016Y73716D01*
X191177Y74528D01*
X191016Y75340D01*
X190556Y76028D01*
X189867Y76488D01*
X189055Y76649D01*
D02*
G37*
G36*
X261482Y71575D02*
Y69951D01*
X263106D01*
X263036Y70302D01*
X262554Y71023D01*
X261833Y71505D01*
X261482Y71575D01*
D02*
G37*
G36*
X260482D02*
X260131Y71505D01*
X259409Y71023D01*
X258927Y70302D01*
X258857Y69951D01*
X260482D01*
Y71575D01*
D02*
G37*
G36*
X233923D02*
Y69951D01*
X235547D01*
X235477Y70302D01*
X234995Y71023D01*
X234274Y71505D01*
X233923Y71575D01*
D02*
G37*
G36*
X232923D02*
X232572Y71505D01*
X231850Y71023D01*
X231368Y70302D01*
X231298Y69951D01*
X232923D01*
Y71575D01*
D02*
G37*
G36*
X263106Y68951D02*
X261482D01*
Y67326D01*
X261833Y67396D01*
X262554Y67878D01*
X263036Y68600D01*
X263106Y68951D01*
D02*
G37*
G36*
X260482D02*
X258857D01*
X258927Y68600D01*
X259409Y67878D01*
X260131Y67396D01*
X260482Y67326D01*
Y68951D01*
D02*
G37*
G36*
X235547D02*
X233923D01*
Y67326D01*
X234274Y67396D01*
X234995Y67878D01*
X235477Y68600D01*
X235547Y68951D01*
D02*
G37*
G36*
X232923D02*
X231298D01*
X231368Y68600D01*
X231850Y67878D01*
X232572Y67396D01*
X232923Y67326D01*
Y68951D01*
D02*
G37*
G36*
X102862Y66790D02*
Y65165D01*
X104487D01*
X104417Y65516D01*
X103935Y66238D01*
X103213Y66720D01*
X102862Y66790D01*
D02*
G37*
G36*
X101862D02*
X101511Y66720D01*
X100790Y66238D01*
X100308Y65516D01*
X100238Y65165D01*
X101862D01*
Y66790D01*
D02*
G37*
G36*
X104487Y64165D02*
X102862D01*
Y62541D01*
X103213Y62611D01*
X103935Y63093D01*
X104417Y63814D01*
X104487Y64165D01*
D02*
G37*
G36*
X101862D02*
X100238D01*
X100308Y63814D01*
X100790Y63093D01*
X101511Y62611D01*
X101862Y62541D01*
Y64165D01*
D02*
G37*
G36*
X149713Y55406D02*
Y47055D01*
X154192D01*
Y50492D01*
X154023Y51781D01*
X153525Y52982D01*
X152734Y54013D01*
X151702Y54805D01*
X150501Y55302D01*
X149713Y55406D01*
D02*
G37*
G36*
X148713D02*
X147924Y55302D01*
X146723Y54805D01*
X145692Y54013D01*
X144900Y52982D01*
X144403Y51781D01*
X144233Y50492D01*
Y47055D01*
X148713D01*
Y55406D01*
D02*
G37*
G36*
X188394Y46904D02*
Y45480D01*
X189817D01*
X189763Y45755D01*
X189324Y46411D01*
X188668Y46849D01*
X188394Y46904D01*
D02*
G37*
G36*
X187394D02*
X187119Y46849D01*
X186463Y46411D01*
X186025Y45755D01*
X185970Y45480D01*
X187394D01*
Y46904D01*
D02*
G37*
G36*
X261524Y45038D02*
Y43413D01*
X263148D01*
X263078Y43764D01*
X262596Y44486D01*
X261875Y44968D01*
X261524Y45038D01*
D02*
G37*
G36*
X260524D02*
X260173Y44968D01*
X259451Y44486D01*
X258969Y43764D01*
X258899Y43413D01*
X260524D01*
Y45038D01*
D02*
G37*
G36*
X233965D02*
Y43413D01*
X235589D01*
X235519Y43764D01*
X235037Y44486D01*
X234316Y44968D01*
X233965Y45038D01*
D02*
G37*
G36*
X232965D02*
X232613Y44968D01*
X231892Y44486D01*
X231410Y43764D01*
X231340Y43413D01*
X232965D01*
Y45038D01*
D02*
G37*
G36*
X189817Y44480D02*
X188394D01*
Y43057D01*
X188668Y43111D01*
X189324Y43550D01*
X189763Y44206D01*
X189817Y44480D01*
D02*
G37*
G36*
X187394D02*
X185970D01*
X186025Y44206D01*
X186463Y43550D01*
X187119Y43111D01*
X187394Y43057D01*
Y44480D01*
D02*
G37*
G36*
X263148Y42413D02*
X261524D01*
Y40789D01*
X261875Y40859D01*
X262596Y41341D01*
X263078Y42062D01*
X263148Y42413D01*
D02*
G37*
G36*
X260524D02*
X258899D01*
X258969Y42062D01*
X259451Y41341D01*
X260173Y40859D01*
X260524Y40789D01*
Y42413D01*
D02*
G37*
G36*
X235589D02*
X233965D01*
Y40789D01*
X234316Y40859D01*
X235037Y41341D01*
X235519Y42062D01*
X235589Y42413D01*
D02*
G37*
G36*
X232965D02*
X231340D01*
X231410Y42062D01*
X231892Y41341D01*
X232613Y40859D01*
X232965Y40789D01*
Y42413D01*
D02*
G37*
G36*
X154192Y46055D02*
X149713D01*
Y37704D01*
X150501Y37808D01*
X151702Y38306D01*
X152734Y39097D01*
X153525Y40128D01*
X154023Y41329D01*
X154192Y42618D01*
Y46055D01*
D02*
G37*
G36*
X148713D02*
X144233D01*
Y42618D01*
X144403Y41329D01*
X144900Y40128D01*
X145692Y39097D01*
X146723Y38306D01*
X147924Y37808D01*
X148713Y37704D01*
Y46055D01*
D02*
G37*
G36*
X134252Y38936D02*
X130815D01*
Y34457D01*
X139166D01*
X139062Y35245D01*
X138564Y36446D01*
X137773Y37478D01*
X136742Y38269D01*
X135541Y38767D01*
X134252Y38936D01*
D02*
G37*
G36*
X129815D02*
X126378D01*
X125089Y38767D01*
X123888Y38269D01*
X122857Y37478D01*
X122065Y36446D01*
X121568Y35245D01*
X121464Y34457D01*
X129815D01*
Y38936D01*
D02*
G37*
G36*
X139166Y33457D02*
X130815D01*
Y28977D01*
X134252D01*
X135541Y29147D01*
X136742Y29644D01*
X137773Y30436D01*
X138564Y31467D01*
X139062Y32668D01*
X139166Y33457D01*
D02*
G37*
G36*
X129815D02*
X121464D01*
X121568Y32668D01*
X122065Y31467D01*
X122857Y30436D01*
X123888Y29644D01*
X125089Y29147D01*
X126378Y28977D01*
X129815D01*
Y33457D01*
D02*
G37*
G36*
X261524Y27420D02*
Y25795D01*
X263148D01*
X263078Y26146D01*
X262596Y26868D01*
X261875Y27350D01*
X261524Y27420D01*
D02*
G37*
G36*
X260524D02*
X260173Y27350D01*
X259451Y26868D01*
X258969Y26146D01*
X258899Y25795D01*
X260524D01*
Y27420D01*
D02*
G37*
G36*
X233965D02*
Y25795D01*
X235589D01*
X235519Y26146D01*
X235037Y26868D01*
X234316Y27350D01*
X233965Y27420D01*
D02*
G37*
G36*
X232965D02*
X232613Y27350D01*
X231892Y26868D01*
X231410Y26146D01*
X231340Y25795D01*
X232965D01*
Y27420D01*
D02*
G37*
G36*
X187795Y29185D02*
X187060Y29039D01*
X186437Y28622D01*
X186020Y27999D01*
X185874Y27264D01*
X186020Y26529D01*
X186437Y25905D01*
X187060Y25489D01*
X187795Y25343D01*
X188531Y25489D01*
X189154Y25905D01*
X189570Y26529D01*
X189716Y27264D01*
X189570Y27999D01*
X189154Y28622D01*
X188531Y29039D01*
X187795Y29185D01*
D02*
G37*
G36*
X263148Y24795D02*
X261524D01*
Y23171D01*
X261875Y23241D01*
X262596Y23723D01*
X263078Y24444D01*
X263148Y24795D01*
D02*
G37*
G36*
X260524D02*
X258899D01*
X258969Y24444D01*
X259451Y23723D01*
X260173Y23241D01*
X260524Y23171D01*
Y24795D01*
D02*
G37*
G36*
X235589D02*
X233965D01*
Y23171D01*
X234316Y23241D01*
X235037Y23723D01*
X235519Y24444D01*
X235589Y24795D01*
D02*
G37*
G36*
X232965D02*
X231340D01*
X231410Y24444D01*
X231892Y23723D01*
X232613Y23241D01*
X232965Y23171D01*
Y24795D01*
D02*
G37*
G36*
X42921Y23286D02*
Y21661D01*
X44546D01*
X44476Y22012D01*
X43994Y22734D01*
X43272Y23216D01*
X42921Y23286D01*
D02*
G37*
G36*
X41921D02*
X41570Y23216D01*
X40849Y22734D01*
X40367Y22012D01*
X40297Y21661D01*
X41921D01*
Y23286D01*
D02*
G37*
G36*
X7046Y21055D02*
X5421D01*
Y19431D01*
X5772Y19501D01*
X6494Y19983D01*
X6976Y20704D01*
X7046Y21055D01*
D02*
G37*
G36*
X44546Y20661D02*
X42921D01*
Y19037D01*
X43272Y19107D01*
X43994Y19589D01*
X44476Y20310D01*
X44546Y20661D01*
D02*
G37*
G36*
X41921D02*
X40297D01*
X40367Y20310D01*
X40849Y19589D01*
X41570Y19107D01*
X41921Y19037D01*
Y20661D01*
D02*
G37*
G36*
X141732Y145596D02*
X116535D01*
X116262Y145541D01*
X116031Y145387D01*
X115637Y144993D01*
X115482Y144761D01*
X115428Y144488D01*
Y140059D01*
X114018Y138650D01*
X57185D01*
X56444Y138502D01*
X55815Y138082D01*
X55717Y137984D01*
X55297Y137355D01*
X55149Y136614D01*
X55297Y135873D01*
X55717Y135244D01*
X56345Y134824D01*
X57087Y134677D01*
X57582Y134775D01*
X114793D01*
X115428Y134246D01*
Y131890D01*
X115482Y131617D01*
X115637Y131385D01*
X120361Y126661D01*
X122555Y124467D01*
Y66478D01*
X121555Y65478D01*
X119095D01*
X118821Y65423D01*
X118590Y65268D01*
X115834Y62512D01*
X115679Y62281D01*
X115625Y62008D01*
Y55709D01*
X115679Y55436D01*
X115834Y55204D01*
X118983Y52054D01*
X119215Y51900D01*
X119488Y51845D01*
X133661D01*
X133705Y51854D01*
X133750Y51851D01*
X133841Y51881D01*
X133934Y51900D01*
X133972Y51925D01*
X134014Y51939D01*
X134087Y52001D01*
X134166Y52054D01*
X134191Y52092D01*
X134225Y52121D01*
X136953Y55629D01*
X137892Y56568D01*
X152734D01*
X165524Y43777D01*
Y27165D01*
X165691Y26327D01*
X166166Y25615D01*
X175615Y16166D01*
X176327Y15691D01*
X177165Y15524D01*
X200000D01*
X200839Y15691D01*
X201550Y16166D01*
X207849Y22466D01*
X208325Y23177D01*
X208491Y24016D01*
Y51575D01*
X208325Y52414D01*
X207849Y53125D01*
X207138Y53600D01*
X206299Y53767D01*
X205460Y53600D01*
X204749Y53125D01*
X204274Y52414D01*
X204107Y51575D01*
Y24924D01*
X199092Y19909D01*
X178073D01*
X169909Y28073D01*
Y44685D01*
X169742Y45524D01*
X169267Y46235D01*
X155192Y60310D01*
X154481Y60785D01*
X153642Y60952D01*
X138089D01*
X133772Y65268D01*
X133541Y65423D01*
X133268Y65478D01*
X130807D01*
X129414Y66871D01*
Y124467D01*
X131398Y126452D01*
X137008D01*
X137281Y126506D01*
X137513Y126661D01*
X142631Y131779D01*
X142785Y132010D01*
X142840Y132283D01*
Y144488D01*
X142785Y144761D01*
X142631Y144993D01*
X142237Y145387D01*
X142005Y145541D01*
X141732Y145596D01*
D02*
G37*
G36*
X10933Y13443D02*
Y11819D01*
X12557D01*
X12488Y12170D01*
X12006Y12891D01*
X11284Y13373D01*
X10933Y13443D01*
D02*
G37*
G36*
X9933D02*
X9582Y13373D01*
X8861Y12891D01*
X8378Y12170D01*
X8309Y11819D01*
X9933D01*
Y13443D01*
D02*
G37*
G36*
X130315Y21418D02*
X128975Y21242D01*
X127726Y20725D01*
X126653Y19902D01*
X125830Y18829D01*
X125313Y17580D01*
X125137Y16240D01*
X125313Y14900D01*
X125830Y13651D01*
X126653Y12579D01*
X127726Y11756D01*
X128975Y11238D01*
X130315Y11062D01*
X131655Y11238D01*
X132904Y11756D01*
X133976Y12579D01*
X134799Y13651D01*
X135317Y14900D01*
X135493Y16240D01*
X135317Y17580D01*
X134799Y18829D01*
X133976Y19902D01*
X132904Y20725D01*
X131655Y21242D01*
X130315Y21418D01*
D02*
G37*
G36*
X261524Y12656D02*
Y11032D01*
X263148D01*
X263078Y11383D01*
X262596Y12104D01*
X261875Y12586D01*
X261524Y12656D01*
D02*
G37*
G36*
X260524D02*
X260173Y12586D01*
X259451Y12104D01*
X258969Y11383D01*
X258899Y11032D01*
X260524D01*
Y12656D01*
D02*
G37*
G36*
X233965D02*
Y11032D01*
X235589D01*
X235519Y11383D01*
X235037Y12104D01*
X234316Y12586D01*
X233965Y12656D01*
D02*
G37*
G36*
X232965D02*
X232613Y12586D01*
X231892Y12104D01*
X231410Y11383D01*
X231340Y11032D01*
X232965D01*
Y12656D01*
D02*
G37*
G36*
X12557Y10819D02*
X10933D01*
Y9194D01*
X11284Y9264D01*
X12006Y9746D01*
X12488Y10468D01*
X12557Y10819D01*
D02*
G37*
G36*
X9933D02*
X8309D01*
X8378Y10468D01*
X8861Y9746D01*
X9582Y9264D01*
X9933Y9194D01*
Y10819D01*
D02*
G37*
G36*
X263148Y10031D02*
X261524D01*
Y8407D01*
X261875Y8477D01*
X262596Y8959D01*
X263078Y9680D01*
X263148Y10031D01*
D02*
G37*
G36*
X260524D02*
X258899D01*
X258969Y9680D01*
X259451Y8959D01*
X260173Y8477D01*
X260524Y8407D01*
Y10031D01*
D02*
G37*
G36*
X235589D02*
X233965D01*
Y8407D01*
X234316Y8477D01*
X235037Y8959D01*
X235519Y9680D01*
X235589Y10031D01*
D02*
G37*
G36*
X232965D02*
X231340D01*
X231410Y9680D01*
X231892Y8959D01*
X232613Y8477D01*
X232965Y8407D01*
Y10031D01*
D02*
G37*
G36*
X81693Y13229D02*
X80969Y13133D01*
X80295Y12854D01*
X79716Y12410D01*
X79272Y11831D01*
X78993Y11157D01*
X78897Y10433D01*
X78993Y9709D01*
X79272Y9035D01*
X79716Y8456D01*
X80295Y8012D01*
X80969Y7733D01*
X81693Y7638D01*
X82416Y7733D01*
X83091Y8012D01*
X83670Y8456D01*
X84114Y9035D01*
X84393Y9709D01*
X84488Y10433D01*
X84393Y11157D01*
X84114Y11831D01*
X83670Y12410D01*
X83091Y12854D01*
X82416Y13133D01*
X81693Y13229D01*
D02*
G37*
G36*
X69882D02*
X69158Y13133D01*
X68484Y12854D01*
X67905Y12410D01*
X67461Y11831D01*
X67182Y11157D01*
X67086Y10433D01*
X67182Y9709D01*
X67461Y9035D01*
X67905Y8456D01*
X68484Y8012D01*
X69158Y7733D01*
X69882Y7638D01*
X70605Y7733D01*
X71280Y8012D01*
X71859Y8456D01*
X72303Y9035D01*
X72582Y9709D01*
X72677Y10433D01*
X72582Y11157D01*
X72303Y11831D01*
X71859Y12410D01*
X71280Y12854D01*
X70605Y13133D01*
X69882Y13229D01*
D02*
G37*
G36*
X21850Y12358D02*
X21038Y12197D01*
X20350Y11737D01*
X19890Y11048D01*
X19728Y10236D01*
X19890Y9424D01*
X20307Y8800D01*
X20303Y8741D01*
X20234Y8516D01*
X20116Y8291D01*
X19464Y8161D01*
X18775Y7701D01*
X18315Y7013D01*
X18154Y6201D01*
X18315Y5389D01*
X18775Y4700D01*
X19464Y4240D01*
X20276Y4079D01*
X21088Y4240D01*
X21776Y4700D01*
X22236Y5389D01*
X22398Y6201D01*
X22236Y7013D01*
X21819Y7637D01*
X21823Y7696D01*
X21892Y7921D01*
X22010Y8146D01*
X22662Y8276D01*
X23351Y8736D01*
X23811Y9424D01*
X23972Y10236D01*
X23811Y11048D01*
X23351Y11737D01*
X22662Y12197D01*
X21850Y12358D01*
D02*
G37*
%LPD*%
G36*
X200618Y185482D02*
Y184603D01*
X200731Y184037D01*
X200990Y183649D01*
Y101998D01*
X187821Y88829D01*
X187795Y88835D01*
X186983Y88673D01*
X186863Y88592D01*
X186544Y88981D01*
X194845Y97281D01*
X195165Y97761D01*
X195278Y98327D01*
Y129704D01*
X195778Y129856D01*
X195984Y129547D01*
X196607Y129131D01*
X197343Y128984D01*
X198078Y129131D01*
X198701Y129547D01*
X199117Y130170D01*
X199264Y130905D01*
X199117Y131641D01*
X198701Y132264D01*
X198078Y132680D01*
X197585Y132778D01*
Y138679D01*
X197618Y138701D01*
X198035Y139324D01*
X198181Y140059D01*
X198035Y140794D01*
X197618Y141418D01*
X196995Y141834D01*
X196260Y141980D01*
X195778Y141884D01*
X195278Y142225D01*
Y147518D01*
X199175Y151415D01*
X199496Y151895D01*
X199608Y152461D01*
Y185180D01*
X200118Y185689D01*
X200618Y185482D01*
D02*
G37*
G36*
X142126Y144488D02*
Y132283D01*
X137008Y127165D01*
X131102D01*
X128347Y124409D01*
X123622D01*
X120866Y127165D01*
X116142Y131890D01*
Y134580D01*
X114173Y136221D01*
X116142D01*
Y137795D01*
X114173D01*
X116142Y139764D01*
Y144488D01*
X116535Y144882D01*
X141732D01*
X142126Y144488D01*
D02*
G37*
G36*
X130512Y64764D02*
X133268D01*
X138189Y59842D01*
Y57874D01*
X136417Y56102D01*
X133661Y52559D01*
X119488D01*
X116339Y55709D01*
Y62008D01*
X119095Y64764D01*
X121850D01*
X124016Y66929D01*
X128347D01*
X130512Y64764D01*
D02*
G37*
%LPC*%
G36*
X360736Y122232D02*
Y120579D01*
X362390D01*
X362085Y121314D01*
X361472Y121928D01*
X360736Y122232D01*
D02*
G37*
G36*
X359736D02*
X359001Y121928D01*
X358387Y121314D01*
X358083Y120579D01*
X359736D01*
Y122232D01*
D02*
G37*
G36*
X343020D02*
Y120579D01*
X344673D01*
X344369Y121314D01*
X343755Y121928D01*
X343020Y122232D01*
D02*
G37*
G36*
X342020D02*
X341284Y121928D01*
X340671Y121314D01*
X340366Y120579D01*
X342020D01*
Y122232D01*
D02*
G37*
G36*
X362390Y119579D02*
X358083D01*
X358387Y118843D01*
X358643Y118587D01*
X358437Y118087D01*
X344271Y118038D01*
X344063Y118537D01*
X344369Y118843D01*
X344673Y119579D01*
X340366D01*
X340671Y118843D01*
X340987Y118527D01*
X340780Y118026D01*
X336785Y118013D01*
X336648Y117985D01*
X336514Y117958D01*
X336513Y117958D01*
X336512Y117957D01*
X336397Y117880D01*
X336282Y117804D01*
X335695Y117217D01*
X335695Y117217D01*
X335541Y116985D01*
X335486Y116712D01*
Y113111D01*
X335541Y112838D01*
X335695Y112606D01*
X336279Y112023D01*
X336387Y111671D01*
X336398Y111545D01*
X336308Y111328D01*
X336270Y111278D01*
X336263Y111255D01*
X336250Y111235D01*
X336227Y111121D01*
X336197Y111010D01*
X336200Y110986D01*
X336196Y110962D01*
Y108268D01*
X336250Y107995D01*
X336405Y107763D01*
X336405Y107763D01*
X336697Y107471D01*
X336844Y107145D01*
X336698Y106802D01*
X336109Y106213D01*
X335955Y105982D01*
X335900Y105709D01*
Y103445D01*
X335955Y103172D01*
X336109Y102940D01*
X337102Y101948D01*
X336977Y101448D01*
X336977Y101379D01*
Y97765D01*
X343023D01*
Y97924D01*
X344097D01*
X345232Y96789D01*
X345025Y96289D01*
X343023D01*
Y96448D01*
X336977D01*
Y96289D01*
X335406D01*
X334763Y96161D01*
X334217Y95796D01*
X334217Y95796D01*
X330511Y92090D01*
X330147Y91545D01*
X330018Y90901D01*
Y76963D01*
X329940Y76917D01*
X329405Y76383D01*
X329028Y75729D01*
X328832Y75000D01*
Y74244D01*
X329028Y73515D01*
X329405Y72861D01*
X329940Y72327D01*
X330594Y71949D01*
X331323Y71754D01*
X332078D01*
X332808Y71949D01*
X333462Y72327D01*
X333996Y72861D01*
X334374Y73515D01*
X334569Y74244D01*
Y75000D01*
X334374Y75729D01*
X333996Y76383D01*
X333462Y76917D01*
X333383Y76963D01*
Y90204D01*
X336103Y92924D01*
X336977D01*
Y92765D01*
X343023D01*
Y92924D01*
X344997D01*
X345967Y91953D01*
Y90739D01*
X345450D01*
Y90220D01*
X344950Y90013D01*
X344239Y90724D01*
X343726Y91066D01*
X343121Y91187D01*
X343023D01*
Y91448D01*
X336977D01*
Y87765D01*
X342420D01*
Y86748D01*
X340500D01*
Y84606D01*
Y82465D01*
X342420D01*
Y80900D01*
X342540Y80295D01*
X342882Y79782D01*
X345800Y76865D01*
Y74250D01*
X346552D01*
X346830Y73750D01*
X346716Y73475D01*
Y72725D01*
X347003Y72033D01*
X347533Y71503D01*
X348225Y71216D01*
X348975D01*
X349667Y71503D01*
X350197Y72033D01*
X350484Y72725D01*
Y73475D01*
X350370Y73750D01*
X350648Y74250D01*
X351000D01*
Y78750D01*
X348385D01*
X347303Y79832D01*
X347494Y80294D01*
X350831D01*
Y84794D01*
X349513D01*
Y86239D01*
X350650D01*
Y90739D01*
X349332D01*
Y92625D01*
X353825D01*
Y93543D01*
X354837D01*
Y92625D01*
X359337D01*
Y93543D01*
X360950D01*
Y92437D01*
X368650D01*
Y97380D01*
X360950D01*
Y96908D01*
X359690D01*
X359337Y97261D01*
X359337Y97768D01*
X359395Y97977D01*
X359502Y98257D01*
X360433Y99188D01*
X368406Y99188D01*
X368679Y99242D01*
X368910Y99397D01*
X369894Y100381D01*
X370049Y100613D01*
X370104Y100886D01*
Y104110D01*
X370049Y104383D01*
X369894Y104615D01*
X369005Y105505D01*
X368773Y105659D01*
X368500Y105714D01*
X360967D01*
X360514Y106000D01*
Y109300D01*
X360459Y109573D01*
X360305Y109805D01*
X360065Y110045D01*
X360256Y110507D01*
X368406D01*
X368679Y110561D01*
X368910Y110716D01*
X369993Y111798D01*
X370148Y112030D01*
X370202Y112303D01*
Y115412D01*
X370148Y115685D01*
X369993Y115917D01*
X368005Y117905D01*
X367773Y118059D01*
X367500Y118114D01*
X366400D01*
X366399Y118114D01*
X366398Y118114D01*
X362048Y118099D01*
X361840Y118598D01*
X362085Y118843D01*
X362390Y119579D01*
D02*
G37*
G36*
X287782Y117060D02*
Y115406D01*
X289436D01*
X289131Y116142D01*
X288518Y116755D01*
X287782Y117060D01*
D02*
G37*
G36*
X286782D02*
X286047Y116755D01*
X285433Y116142D01*
X285128Y115406D01*
X286782D01*
Y117060D01*
D02*
G37*
G36*
X331209Y116327D02*
Y114673D01*
X332862D01*
X332558Y115409D01*
X331944Y116022D01*
X331209Y116327D01*
D02*
G37*
G36*
X330209D02*
X329473Y116022D01*
X328860Y115409D01*
X328555Y114673D01*
X330209D01*
Y116327D01*
D02*
G37*
G36*
X289436Y114406D02*
X287782D01*
Y112752D01*
X288518Y113057D01*
X289131Y113671D01*
X289436Y114406D01*
D02*
G37*
G36*
X286782D02*
X285128D01*
X285433Y113671D01*
X286047Y113057D01*
X286782Y112752D01*
Y114406D01*
D02*
G37*
G36*
X332862Y113673D02*
X331209D01*
Y112020D01*
X331944Y112324D01*
X332558Y112938D01*
X332862Y113673D01*
D02*
G37*
G36*
X330209D02*
X328555D01*
X328860Y112938D01*
X329473Y112324D01*
X330209Y112020D01*
Y113673D01*
D02*
G37*
G36*
X319200Y121214D02*
X293500Y121214D01*
X293227Y121159D01*
X292995Y121005D01*
X292995Y121005D01*
X291095Y119105D01*
X290941Y118873D01*
X290886Y118600D01*
Y115600D01*
X290941Y115327D01*
X291095Y115095D01*
X292795Y113395D01*
X293027Y113241D01*
X293300Y113186D01*
X294236D01*
X294694Y113086D01*
X294694Y112686D01*
Y110686D01*
X297244D01*
Y110186D01*
X297744D01*
Y107286D01*
X299552D01*
X299984Y107121D01*
X300046D01*
X300400Y106768D01*
Y105100D01*
X303300D01*
Y104600D01*
X303800D01*
Y102050D01*
X305027D01*
X305136Y101869D01*
X304852Y101369D01*
X303549D01*
Y99319D01*
X305949D01*
Y100675D01*
X306411Y100866D01*
X306771Y100506D01*
Y99919D01*
X306849Y99526D01*
Y96569D01*
X312049D01*
Y101069D01*
X309524D01*
Y101076D01*
X309419Y101603D01*
X309254Y101850D01*
X309503Y102350D01*
X312300D01*
Y102663D01*
X319049D01*
X319561Y102765D01*
X322078D01*
Y106448D01*
X319535D01*
X319055Y106544D01*
X319023Y106537D01*
X312300D01*
Y106850D01*
X309685D01*
X309459Y107350D01*
X309645Y107586D01*
X312092D01*
Y108054D01*
X312093Y108054D01*
X312593Y108188D01*
X313159Y107810D01*
X313900Y107663D01*
X319049D01*
X319561Y107765D01*
X322078D01*
Y111448D01*
X321960D01*
X321873Y111941D01*
X322105Y112095D01*
X323605Y113595D01*
X323759Y113827D01*
X323814Y114100D01*
Y116600D01*
X323759Y116873D01*
X323605Y117105D01*
X319705Y121005D01*
X319473Y121159D01*
X319200Y121214D01*
D02*
G37*
G36*
X296744Y109686D02*
X294694D01*
Y107286D01*
X296744D01*
Y109686D01*
D02*
G37*
G36*
X287169Y106604D02*
Y104950D01*
X288822D01*
X288518Y105686D01*
X287904Y106299D01*
X287169Y106604D01*
D02*
G37*
G36*
X286169D02*
X285433Y106299D01*
X284820Y105686D01*
X284515Y104950D01*
X286169D01*
Y106604D01*
D02*
G37*
G36*
X288822Y103950D02*
X287169D01*
Y102296D01*
X287904Y102601D01*
X288518Y103215D01*
X288822Y103950D01*
D02*
G37*
G36*
X286169D02*
X284515D01*
X284820Y103215D01*
X285433Y102601D01*
X286169Y102296D01*
Y103950D01*
D02*
G37*
G36*
X302800Y104100D02*
X300400D01*
Y102050D01*
X302800D01*
Y104100D01*
D02*
G37*
G36*
X302549Y101369D02*
X300149D01*
Y99319D01*
X302549D01*
Y101369D01*
D02*
G37*
G36*
X331209Y100579D02*
Y98925D01*
X332862D01*
X332558Y99661D01*
X331944Y100274D01*
X331209Y100579D01*
D02*
G37*
G36*
X330209D02*
X329473Y100274D01*
X328860Y99661D01*
X328555Y98925D01*
X330209D01*
Y100579D01*
D02*
G37*
G36*
X322078Y101448D02*
X316032D01*
Y97765D01*
X322078D01*
Y101448D01*
D02*
G37*
G36*
X332862Y97925D02*
X331209D01*
Y96272D01*
X331944Y96576D01*
X332558Y97190D01*
X332862Y97925D01*
D02*
G37*
G36*
X330209D02*
X328555D01*
X328860Y97190D01*
X329473Y96576D01*
X330209Y96272D01*
Y97925D01*
D02*
G37*
G36*
X305949Y98319D02*
X300149D01*
Y96336D01*
X300149Y96269D01*
X300199Y95790D01*
Y95764D01*
X299723Y95610D01*
X299699Y95610D01*
X299005Y96305D01*
X298773Y96459D01*
X298500Y96514D01*
X294000D01*
X293986Y96511D01*
X293971Y96513D01*
X291055Y96396D01*
X290933Y96367D01*
X290810Y96343D01*
X290798Y96335D01*
X290784Y96331D01*
X290683Y96258D01*
X290579Y96188D01*
X289095Y94705D01*
X288941Y94473D01*
X288886Y94200D01*
Y91300D01*
X288941Y91027D01*
X289095Y90795D01*
X290595Y89295D01*
X290827Y89141D01*
X291100Y89086D01*
X294600D01*
Y83964D01*
X299100D01*
Y84627D01*
X300875D01*
Y83355D01*
X305031D01*
Y89873D01*
X300875D01*
Y88501D01*
X299100D01*
Y89126D01*
X299173Y89141D01*
X299405Y89295D01*
X299705Y89595D01*
X299859Y89827D01*
X299914Y90100D01*
Y90375D01*
X300199Y90757D01*
X300414Y90757D01*
X302599D01*
Y93307D01*
X303099D01*
Y93807D01*
X305999D01*
Y95790D01*
X305999Y95857D01*
X305949Y96336D01*
Y98319D01*
D02*
G37*
G36*
X305999Y92807D02*
X303599D01*
Y90757D01*
X305999D01*
Y92807D01*
D02*
G37*
G36*
X360736Y90736D02*
Y89083D01*
X362390D01*
X362085Y89818D01*
X361472Y90432D01*
X360736Y90736D01*
D02*
G37*
G36*
X359736D02*
X359001Y90432D01*
X358387Y89818D01*
X358083Y89083D01*
X359736D01*
Y90736D01*
D02*
G37*
G36*
X357350Y91039D02*
X354950D01*
Y88989D01*
X357350D01*
Y91039D01*
D02*
G37*
G36*
X353950D02*
X351550D01*
Y88989D01*
X353950D01*
Y91039D01*
D02*
G37*
G36*
X362390Y88083D02*
X360736D01*
Y86429D01*
X361472Y86734D01*
X362085Y87347D01*
X362390Y88083D01*
D02*
G37*
G36*
X359736D02*
X358083D01*
X358387Y87347D01*
X359001Y86734D01*
X359736Y86429D01*
Y88083D01*
D02*
G37*
G36*
X357350Y87989D02*
X354950D01*
Y85939D01*
X357350D01*
Y87989D01*
D02*
G37*
G36*
X353950D02*
X351550D01*
Y85939D01*
X353950D01*
Y87989D01*
D02*
G37*
G36*
X339500Y86748D02*
X336677D01*
Y85106D01*
X339500D01*
Y86748D01*
D02*
G37*
G36*
X319055Y96544D02*
X313906D01*
X313165Y96396D01*
X312537Y95976D01*
X312439Y95879D01*
X312099Y95557D01*
Y95557D01*
X312099Y95557D01*
X306899D01*
Y91057D01*
X311429D01*
X311636Y90557D01*
X310952Y89873D01*
X308355D01*
Y83355D01*
X312511D01*
Y85953D01*
X314228Y87669D01*
X319055D01*
X319535Y87765D01*
X322078D01*
Y91448D01*
X319535D01*
X319055Y91544D01*
X314269D01*
X314209Y91625D01*
X314083Y92044D01*
X314709Y92669D01*
X319055D01*
X319535Y92765D01*
X322078D01*
Y96448D01*
X319535D01*
X319055Y96544D01*
D02*
G37*
G36*
X357531Y85094D02*
X355131D01*
Y83044D01*
X357531D01*
Y85094D01*
D02*
G37*
G36*
X354131D02*
X351731D01*
Y83044D01*
X354131D01*
Y85094D01*
D02*
G37*
G36*
X339500Y84106D02*
X336677D01*
Y82465D01*
X339500D01*
Y84106D01*
D02*
G37*
G36*
X322078Y86448D02*
X316032D01*
Y83990D01*
X315875Y83884D01*
X315125D01*
X314433Y83597D01*
X313903Y83067D01*
X313616Y82375D01*
Y81625D01*
X313903Y80933D01*
X314433Y80403D01*
X315125Y80116D01*
X315875D01*
X316362Y80318D01*
X317421D01*
X318065Y80446D01*
X318611Y80810D01*
X319424Y81623D01*
X319424Y81623D01*
X319789Y82169D01*
X319907Y82765D01*
X322078D01*
Y86448D01*
D02*
G37*
G36*
X357531Y82044D02*
X355131D01*
Y79994D01*
X357531D01*
Y82044D01*
D02*
G37*
G36*
X354131D02*
X351731D01*
Y79994D01*
X354131D01*
Y82044D01*
D02*
G37*
G36*
X299713Y78925D02*
Y77272D01*
X301366D01*
X301062Y78007D01*
X300448Y78621D01*
X299713Y78925D01*
D02*
G37*
G36*
X298713D02*
X297977Y78621D01*
X297363Y78007D01*
X297059Y77272D01*
X298713D01*
Y78925D01*
D02*
G37*
G36*
X361300Y79050D02*
Y77000D01*
X363700D01*
Y79050D01*
X361300D01*
D02*
G37*
G36*
X354300D02*
X351900D01*
Y77000D01*
X354300D01*
Y79050D01*
D02*
G37*
G36*
X318028Y77561D02*
Y75122D01*
X320467D01*
X320294Y75768D01*
X319903Y76445D01*
X319350Y76997D01*
X318673Y77388D01*
X318028Y77561D01*
D02*
G37*
G36*
X317028D02*
X316382Y77388D01*
X315705Y76997D01*
X315152Y76445D01*
X314761Y75768D01*
X314588Y75122D01*
X317028D01*
Y77561D01*
D02*
G37*
G36*
X301366Y76272D02*
X299713D01*
Y74618D01*
X300448Y74923D01*
X301062Y75536D01*
X301366Y76272D01*
D02*
G37*
G36*
X298713D02*
X297059D01*
X297363Y75536D01*
X297977Y74923D01*
X298713Y74618D01*
Y76272D01*
D02*
G37*
G36*
X368650Y85963D02*
X360950D01*
Y81020D01*
X365467D01*
Y78750D01*
X364600D01*
Y74250D01*
X369800D01*
Y78750D01*
X368933D01*
Y81091D01*
X368933Y81093D01*
Y82470D01*
X368933Y82470D01*
X368801Y83133D01*
X368650Y83359D01*
Y85963D01*
D02*
G37*
G36*
X363700Y76000D02*
X361300D01*
Y73950D01*
X363700D01*
Y76000D01*
D02*
G37*
G36*
X354300D02*
X351900D01*
Y73950D01*
X354300D01*
Y76000D01*
D02*
G37*
G36*
X357900Y79050D02*
X357400Y79050D01*
X355300D01*
Y76500D01*
Y73950D01*
X357400D01*
X357700Y73950D01*
X358200Y73950D01*
X360300D01*
Y76500D01*
Y79050D01*
X358200D01*
X357900Y79050D01*
D02*
G37*
G36*
X320467Y74122D02*
X318028D01*
Y71683D01*
X318673Y71856D01*
X319350Y72247D01*
X319903Y72799D01*
X320294Y73476D01*
X320467Y74122D01*
D02*
G37*
G36*
X317028D02*
X314588D01*
X314761Y73476D01*
X315152Y72799D01*
X315705Y72247D01*
X316382Y71856D01*
X317028Y71683D01*
Y74122D01*
D02*
G37*
G36*
X362705Y71051D02*
Y69398D01*
X364358D01*
X364054Y70133D01*
X363440Y70747D01*
X362705Y71051D01*
D02*
G37*
G36*
X361705D02*
X360969Y70747D01*
X360356Y70133D01*
X360051Y69398D01*
X361705D01*
Y71051D01*
D02*
G37*
G36*
X364358Y68398D02*
X362705D01*
Y66744D01*
X363440Y67049D01*
X364054Y67662D01*
X364358Y68398D01*
D02*
G37*
G36*
X361705D02*
X360051D01*
X360356Y67662D01*
X360969Y67049D01*
X361705Y66744D01*
Y68398D01*
D02*
G37*
G36*
X317429Y67114D02*
Y65461D01*
X319083D01*
X318778Y66196D01*
X318165Y66810D01*
X317429Y67114D01*
D02*
G37*
G36*
X316429D02*
X315694Y66810D01*
X315080Y66196D01*
X314775Y65461D01*
X316429D01*
Y67114D01*
D02*
G37*
G36*
X319083Y64461D02*
X317429D01*
Y62807D01*
X318165Y63112D01*
X318778Y63725D01*
X319083Y64461D01*
D02*
G37*
G36*
X316429D02*
X314775D01*
X315080Y63725D01*
X315694Y63112D01*
X316429Y62807D01*
Y64461D01*
D02*
G37*
G36*
X295776Y63177D02*
Y61524D01*
X297429D01*
X297125Y62259D01*
X296511Y62873D01*
X295776Y63177D01*
D02*
G37*
G36*
X294776D02*
X294040Y62873D01*
X293426Y62259D01*
X293122Y61524D01*
X294776D01*
Y63177D01*
D02*
G37*
G36*
X362705Y61209D02*
Y59555D01*
X364358D01*
X364054Y60291D01*
X363440Y60904D01*
X362705Y61209D01*
D02*
G37*
G36*
X361705D02*
X360969Y60904D01*
X360356Y60291D01*
X360051Y59555D01*
X361705D01*
Y61209D01*
D02*
G37*
G36*
X344988D02*
Y59555D01*
X346642D01*
X346337Y60291D01*
X345724Y60904D01*
X344988Y61209D01*
D02*
G37*
G36*
X343988D02*
X343253Y60904D01*
X342639Y60291D01*
X342335Y59555D01*
X343988D01*
Y61209D01*
D02*
G37*
G36*
X297429Y60524D02*
X295776D01*
Y58870D01*
X296511Y59175D01*
X297125Y59788D01*
X297429Y60524D01*
D02*
G37*
G36*
X294776D02*
X293122D01*
X293426Y59788D01*
X294040Y59175D01*
X294776Y58870D01*
Y60524D01*
D02*
G37*
G36*
X332071Y63325D02*
X331315D01*
X330586Y63130D01*
X329932Y62752D01*
X329398Y62218D01*
X329020Y61564D01*
X328824Y60834D01*
Y60079D01*
X329020Y59349D01*
X329398Y58695D01*
X329932Y58161D01*
X330586Y57784D01*
X331315Y57588D01*
X332071D01*
X332800Y57784D01*
X333454Y58161D01*
X333988Y58695D01*
X334366Y59349D01*
X334561Y60079D01*
Y60834D01*
X334366Y61564D01*
X333988Y62218D01*
X333454Y62752D01*
X332800Y63130D01*
X332071Y63325D01*
D02*
G37*
G36*
X364358Y58555D02*
X362705D01*
Y56901D01*
X363440Y57206D01*
X364054Y57820D01*
X364358Y58555D01*
D02*
G37*
G36*
X361705D02*
X360051D01*
X360356Y57820D01*
X360969Y57206D01*
X361705Y56901D01*
Y58555D01*
D02*
G37*
G36*
X346642D02*
X344988D01*
Y56901D01*
X345724Y57206D01*
X346337Y57820D01*
X346642Y58555D01*
D02*
G37*
G36*
X343988D02*
X342335D01*
X342639Y57820D01*
X343253Y57206D01*
X343988Y56901D01*
Y58555D01*
D02*
G37*
G36*
X362705Y49398D02*
Y47744D01*
X364358D01*
X364054Y48480D01*
X363440Y49093D01*
X362705Y49398D01*
D02*
G37*
G36*
X361705D02*
X360969Y49093D01*
X360356Y48480D01*
X360051Y47744D01*
X361705D01*
Y49398D01*
D02*
G37*
G36*
X344988D02*
Y47744D01*
X346642D01*
X346337Y48480D01*
X345724Y49093D01*
X344988Y49398D01*
D02*
G37*
G36*
X343988D02*
X343253Y49093D01*
X342639Y48480D01*
X342335Y47744D01*
X343988D01*
Y49398D01*
D02*
G37*
G36*
X364358Y46744D02*
X362705D01*
Y45090D01*
X363440Y45395D01*
X364054Y46009D01*
X364358Y46744D01*
D02*
G37*
G36*
X361705D02*
X360051D01*
X360356Y46009D01*
X360969Y45395D01*
X361705Y45090D01*
Y46744D01*
D02*
G37*
G36*
X346642D02*
X344988D01*
Y45090D01*
X345724Y45395D01*
X346337Y46009D01*
X346642Y46744D01*
D02*
G37*
G36*
X343988D02*
X342335D01*
X342639Y46009D01*
X343253Y45395D01*
X343988Y45090D01*
Y46744D01*
D02*
G37*
G36*
X362705Y37587D02*
Y35933D01*
X364358D01*
X364054Y36669D01*
X363440Y37282D01*
X362705Y37587D01*
D02*
G37*
G36*
X361705D02*
X360969Y37282D01*
X360356Y36669D01*
X360051Y35933D01*
X361705D01*
Y37587D01*
D02*
G37*
G36*
X344988D02*
Y35933D01*
X346642D01*
X346337Y36669D01*
X345724Y37282D01*
X344988Y37587D01*
D02*
G37*
G36*
X343988D02*
X343253Y37282D01*
X342639Y36669D01*
X342335Y35933D01*
X343988D01*
Y37587D01*
D02*
G37*
G36*
X364358Y34933D02*
X362705D01*
Y33279D01*
X363440Y33584D01*
X364054Y34198D01*
X364358Y34933D01*
D02*
G37*
G36*
X361705D02*
X360051D01*
X360356Y34198D01*
X360969Y33584D01*
X361705Y33279D01*
Y34933D01*
D02*
G37*
G36*
X346642D02*
X344988D01*
Y33279D01*
X345724Y33584D01*
X346337Y34198D01*
X346642Y34933D01*
D02*
G37*
G36*
X343988D02*
X342335D01*
X342639Y34198D01*
X343253Y33584D01*
X343988Y33279D01*
Y34933D01*
D02*
G37*
G36*
X303953Y30528D02*
X300894D01*
Y28650D01*
X303953D01*
Y30528D01*
D02*
G37*
G36*
Y27650D02*
X300894D01*
Y25772D01*
X303953D01*
Y27650D01*
D02*
G37*
G36*
X299894D02*
X296835D01*
Y25772D01*
X299894D01*
Y27650D01*
D02*
G37*
G36*
X301583Y25185D02*
Y23531D01*
X303236D01*
X302932Y24267D01*
X302318Y24881D01*
X301583Y25185D01*
D02*
G37*
G36*
X300583D02*
X299847Y24881D01*
X299234Y24267D01*
X298929Y23531D01*
X300583D01*
Y25185D01*
D02*
G37*
G36*
X306600Y24700D02*
X304550D01*
Y22300D01*
X306600D01*
Y24700D01*
D02*
G37*
G36*
X362705Y23807D02*
Y22153D01*
X364358D01*
X364054Y22889D01*
X363440Y23503D01*
X362705Y23807D01*
D02*
G37*
G36*
X361705D02*
X360969Y23503D01*
X360356Y22889D01*
X360051Y22153D01*
X361705D01*
Y23807D01*
D02*
G37*
G36*
X344988D02*
Y22153D01*
X346642D01*
X346337Y22889D01*
X345724Y23503D01*
X344988Y23807D01*
D02*
G37*
G36*
X343988D02*
X343253Y23503D01*
X342639Y22889D01*
X342335Y22153D01*
X343988D01*
Y23807D01*
D02*
G37*
G36*
X303236Y22532D02*
X301583D01*
Y20878D01*
X302318Y21182D01*
X302932Y21796D01*
X303236Y22532D01*
D02*
G37*
G36*
X300583D02*
X298929D01*
X299234Y21796D01*
X299847Y21182D01*
X300583Y20878D01*
Y22532D01*
D02*
G37*
G36*
X364358Y21154D02*
X362705D01*
Y19500D01*
X363440Y19805D01*
X364054Y20418D01*
X364358Y21154D01*
D02*
G37*
G36*
X361705D02*
X360051D01*
X360356Y20418D01*
X360969Y19805D01*
X361705Y19500D01*
Y21154D01*
D02*
G37*
G36*
X346642D02*
X344988D01*
Y19500D01*
X345724Y19805D01*
X346337Y20418D01*
X346642Y21154D01*
D02*
G37*
G36*
X343988D02*
X342335D01*
X342639Y20418D01*
X343253Y19805D01*
X343988Y19500D01*
Y21154D01*
D02*
G37*
G36*
X306600Y21300D02*
X304550D01*
Y18900D01*
X306600D01*
Y21300D01*
D02*
G37*
G36*
X314779Y21941D02*
X312902D01*
Y18882D01*
X314779D01*
Y21941D01*
D02*
G37*
G36*
X301681Y17902D02*
Y16248D01*
X303335D01*
X303030Y16984D01*
X302417Y17597D01*
X301681Y17902D01*
D02*
G37*
G36*
X300681D02*
X299946Y17597D01*
X299332Y16984D01*
X299027Y16248D01*
X300681D01*
Y17902D01*
D02*
G37*
G36*
X328106Y53863D02*
X287795Y53863D01*
X287522Y53809D01*
X287291Y53654D01*
X286061Y52425D01*
X285907Y52193D01*
X285852Y51920D01*
Y49089D01*
X285907Y48816D01*
X286061Y48585D01*
X286686Y47960D01*
X286673Y47383D01*
X285195Y45905D01*
X285041Y45673D01*
X284986Y45400D01*
Y43700D01*
X285041Y43427D01*
X285195Y43195D01*
X286895Y41495D01*
X286937Y41467D01*
X287023Y41058D01*
X287024Y40937D01*
X287006Y40866D01*
X286528Y40244D01*
X286200Y39450D01*
X286088Y38598D01*
X286200Y37747D01*
X286528Y36953D01*
X286957Y36395D01*
X286846Y35898D01*
X286795Y35838D01*
X286595Y35705D01*
X285395Y34505D01*
X285241Y34273D01*
X285186Y34000D01*
Y31000D01*
X285241Y30727D01*
X285395Y30495D01*
X286277Y29613D01*
X286509Y29459D01*
X286669Y29427D01*
X286842Y29127D01*
X286891Y28904D01*
X286528Y28433D01*
X286200Y27639D01*
X286088Y26787D01*
X286200Y25936D01*
X286528Y25142D01*
X287051Y24461D01*
X287470Y24139D01*
Y23530D01*
X287051Y23209D01*
X286528Y22527D01*
X286200Y21734D01*
X286088Y20882D01*
X286200Y20030D01*
X286528Y19237D01*
X287051Y18555D01*
X287733Y18032D01*
X288526Y17704D01*
X289378Y17592D01*
X290559D01*
X291411Y17704D01*
X292204Y18032D01*
X292886Y18555D01*
X293409Y19237D01*
X293737Y20030D01*
X293849Y20882D01*
X293737Y21734D01*
X293409Y22527D01*
X292886Y23209D01*
X292467Y23530D01*
Y24139D01*
X292886Y24461D01*
X293409Y25142D01*
X293737Y25936D01*
X293849Y26787D01*
X293737Y27639D01*
X293409Y28433D01*
X293046Y28904D01*
X293293Y29404D01*
X295218D01*
X295491Y29459D01*
X295723Y29613D01*
X296335Y30225D01*
X296835Y30018D01*
Y28650D01*
X299894D01*
Y30528D01*
X297544D01*
X297323Y31019D01*
X297532Y31286D01*
X304572D01*
X304837Y30896D01*
X304837Y30786D01*
Y25696D01*
X309337D01*
Y26614D01*
X310742D01*
Y26000D01*
X310024D01*
Y25005D01*
X309650Y24700D01*
X309524Y24700D01*
X307600D01*
Y21800D01*
Y18900D01*
X309531D01*
X310024Y18882D01*
X310142Y18882D01*
X311902D01*
Y22441D01*
X312402D01*
Y22941D01*
X314779D01*
Y25696D01*
X315242D01*
Y26614D01*
X317435D01*
Y25302D01*
X317804D01*
Y19182D01*
X321513D01*
X321891Y19182D01*
X322310Y18857D01*
X322307Y18776D01*
X322235Y18413D01*
Y15405D01*
X322066Y15278D01*
X321566Y15528D01*
Y15661D01*
X316623D01*
Y13493D01*
X316051D01*
X314289Y15255D01*
X313985Y15711D01*
X313106Y16590D01*
X312560Y16954D01*
X311917Y17082D01*
X309350D01*
Y18000D01*
X304850D01*
Y12800D01*
X309350D01*
Y13718D01*
X311220D01*
X311301Y13636D01*
X311606Y13181D01*
X314165Y10621D01*
X314710Y10257D01*
X315354Y10129D01*
X315354Y10129D01*
X316623D01*
Y7961D01*
X316750D01*
Y6850D01*
X319650D01*
Y6350D01*
X320150D01*
Y3800D01*
X322146D01*
X322707Y3239D01*
X322938Y3084D01*
X323211Y3030D01*
X333111Y3030D01*
X333384Y3084D01*
X333616Y3239D01*
X341449Y11073D01*
X341604Y11304D01*
X341659Y11577D01*
Y40310D01*
X341604Y40584D01*
X341449Y40815D01*
X328610Y53654D01*
X328379Y53809D01*
X328106Y53863D01*
D02*
G37*
G36*
X352862Y15933D02*
Y14279D01*
X354516D01*
X354211Y15015D01*
X353598Y15629D01*
X352862Y15933D01*
D02*
G37*
G36*
X351862D02*
X351127Y15629D01*
X350513Y15015D01*
X350208Y14279D01*
X351862D01*
Y15933D01*
D02*
G37*
G36*
X303335Y15248D02*
X301681D01*
Y13594D01*
X302417Y13899D01*
X303030Y14513D01*
X303335Y15248D01*
D02*
G37*
G36*
X300681D02*
X299027D01*
X299332Y14513D01*
X299946Y13899D01*
X300681Y13594D01*
Y15248D01*
D02*
G37*
G36*
X354516Y13280D02*
X352862D01*
Y11626D01*
X353598Y11930D01*
X354211Y12544D01*
X354516Y13280D01*
D02*
G37*
G36*
X351862D02*
X350208D01*
X350513Y12544D01*
X351127Y11930D01*
X351862Y11626D01*
Y13280D01*
D02*
G37*
G36*
X287902Y10028D02*
Y8374D01*
X289555D01*
X289251Y9110D01*
X288637Y9723D01*
X287902Y10028D01*
D02*
G37*
G36*
X286902D02*
X286166Y9723D01*
X285553Y9110D01*
X285248Y8374D01*
X286902D01*
Y10028D01*
D02*
G37*
G36*
X300500Y8554D02*
Y6900D01*
X302154D01*
X301849Y7636D01*
X301236Y8249D01*
X300500Y8554D01*
D02*
G37*
G36*
X299500D02*
X298764Y8249D01*
X298151Y7636D01*
X297846Y6900D01*
X299500D01*
Y8554D01*
D02*
G37*
G36*
X362705Y8059D02*
Y6406D01*
X364358D01*
X364054Y7141D01*
X363440Y7755D01*
X362705Y8059D01*
D02*
G37*
G36*
X361705D02*
X360969Y7755D01*
X360356Y7141D01*
X360051Y6406D01*
X361705D01*
Y8059D01*
D02*
G37*
G36*
X344988D02*
Y6406D01*
X346642D01*
X346337Y7141D01*
X345724Y7755D01*
X344988Y8059D01*
D02*
G37*
G36*
X343988D02*
X343253Y7755D01*
X342639Y7141D01*
X342335Y6406D01*
X343988D01*
Y8059D01*
D02*
G37*
G36*
X311524D02*
Y6406D01*
X313177D01*
X312873Y7141D01*
X312259Y7755D01*
X311524Y8059D01*
D02*
G37*
G36*
X310524D02*
X309788Y7755D01*
X309175Y7141D01*
X308870Y6406D01*
X310524D01*
Y8059D01*
D02*
G37*
G36*
X289555Y7374D02*
X287902D01*
Y5720D01*
X288637Y6025D01*
X289251Y6639D01*
X289555Y7374D01*
D02*
G37*
G36*
X286902D02*
X285248D01*
X285553Y6639D01*
X286166Y6025D01*
X286902Y5720D01*
Y7374D01*
D02*
G37*
G36*
X302154Y5900D02*
X300500D01*
Y4246D01*
X301236Y4551D01*
X301849Y5164D01*
X302154Y5900D01*
D02*
G37*
G36*
X299500D02*
X297846D01*
X298151Y5164D01*
X298764Y4551D01*
X299500Y4246D01*
Y5900D01*
D02*
G37*
G36*
X319150Y5850D02*
X316750D01*
Y3800D01*
X319150D01*
Y5850D01*
D02*
G37*
G36*
X364358Y5406D02*
X362705D01*
Y3752D01*
X363440Y4056D01*
X364054Y4670D01*
X364358Y5406D01*
D02*
G37*
G36*
X361705D02*
X360051D01*
X360356Y4670D01*
X360969Y4056D01*
X361705Y3752D01*
Y5406D01*
D02*
G37*
G36*
X346642D02*
X344988D01*
Y3752D01*
X345724Y4056D01*
X346337Y4670D01*
X346642Y5406D01*
D02*
G37*
G36*
X343988D02*
X342335D01*
X342639Y4670D01*
X343253Y4056D01*
X343988Y3752D01*
Y5406D01*
D02*
G37*
G36*
X313177D02*
X311524D01*
Y3752D01*
X312259Y4056D01*
X312873Y4670D01*
X313177Y5406D01*
D02*
G37*
G36*
X310524D02*
X308870D01*
X309175Y4670D01*
X309788Y4056D01*
X310524Y3752D01*
Y5406D01*
D02*
G37*
%LPD*%
G36*
X369488Y115412D02*
Y112303D01*
X368406Y111221D01*
X344280D01*
X343197Y112303D01*
X337008Y112303D01*
X336200Y113111D01*
Y116712D01*
X336787Y117299D01*
X366400Y117400D01*
X367500D01*
X369488Y115412D01*
D02*
G37*
G36*
X343800Y110300D02*
X358800D01*
X359800Y109300D01*
Y106000D01*
X359300Y105500D01*
X344500D01*
X342224Y107776D01*
X337402D01*
X336910Y108268D01*
Y110962D01*
X337430Y111417D01*
X342683D01*
X343800Y110300D01*
D02*
G37*
G36*
X344264Y104600D02*
X359800D01*
X360200Y105000D01*
X368500D01*
X369390Y104110D01*
Y100886D01*
X368406Y99902D01*
X360138Y99902D01*
X358957Y98721D01*
X350379D01*
X346800Y102300D01*
X337759Y102300D01*
X336614Y103445D01*
Y105709D01*
X337410Y106504D01*
X342164D01*
X344264Y104600D01*
D02*
G37*
G36*
X323100Y116600D02*
Y114100D01*
X321600Y112600D01*
X315200D01*
X313900Y113900D01*
X293300D01*
X291600Y115600D01*
Y118600D01*
X293500Y120500D01*
X319200Y120500D01*
X323100Y116600D01*
D02*
G37*
G36*
X299200Y95100D02*
Y90100D01*
X298900Y89800D01*
X291100D01*
X289600Y91300D01*
Y94200D01*
X291083Y95683D01*
X294000Y95800D01*
X298500D01*
X299200Y95100D01*
D02*
G37*
G36*
X298700Y45500D02*
X316800D01*
X318000Y44300D01*
Y42114D01*
X316586Y40700D01*
X297500D01*
X296200Y42000D01*
X287400D01*
X285700Y43700D01*
Y45400D01*
X287300Y47000D01*
X297200D01*
X298700Y45500D01*
D02*
G37*
G36*
X316100Y36500D02*
Y33500D01*
X314600Y32000D01*
X297100D01*
X295218Y30118D01*
X286782D01*
X285900Y31000D01*
Y34000D01*
X287100Y35200D01*
X293500D01*
X296300Y38000D01*
X314600D01*
X316100Y36500D01*
D02*
G37*
G36*
X340945Y40310D02*
Y11577D01*
X333111Y3744D01*
X323211Y3744D01*
X322311Y4644D01*
Y8144D01*
X323211Y9044D01*
X326611Y9044D01*
X327611Y10044D01*
Y15644D01*
X329011Y17044D01*
X334711D01*
X336411Y18744D01*
X336311Y18844D01*
Y26208D01*
Y27744D01*
X334712Y29670D01*
X331496Y33465D01*
X330709Y34252D01*
X317028Y47933D01*
X287722Y47933D01*
X286566Y49089D01*
Y51920D01*
X287795Y53150D01*
X328106Y53150D01*
X340945Y40310D01*
D02*
G37*
D13*
X187795Y154774D02*
X193504Y160482D01*
Y184153D01*
X187795Y131102D02*
Y154774D01*
D25*
X351575Y101625D02*
D03*
Y95225D02*
D03*
X312992Y34696D02*
D03*
Y28296D02*
D03*
X307100Y15400D02*
D03*
Y21800D02*
D03*
X319685Y27902D02*
D03*
Y34302D02*
D03*
X307087Y34696D02*
D03*
Y28296D02*
D03*
X357087Y101625D02*
D03*
Y95225D02*
D03*
Y107824D02*
D03*
Y114224D02*
D03*
X351575D02*
D03*
Y107824D02*
D03*
X296850Y92964D02*
D03*
Y86564D02*
D03*
X309842Y116586D02*
D03*
Y110186D02*
D03*
X345669Y107824D02*
D03*
Y114224D02*
D03*
X297244Y110186D02*
D03*
Y116586D02*
D03*
D27*
X300205Y42929D02*
D03*
Y50409D02*
D03*
X307291Y42929D02*
D03*
Y50409D02*
D03*
X314378Y42929D02*
D03*
Y50409D02*
D03*
X300394Y28150D02*
D03*
Y35630D02*
D03*
X303543Y109499D02*
D03*
Y116980D02*
D03*
D29*
X319650Y6350D02*
D03*
X326050D02*
D03*
X354450Y88489D02*
D03*
X348050D02*
D03*
X348231Y82544D02*
D03*
X354631D02*
D03*
X309499Y93307D02*
D03*
X303099D02*
D03*
X303049Y98819D02*
D03*
X309449D02*
D03*
X309700Y104600D02*
D03*
X303300D02*
D03*
X367200Y76500D02*
D03*
X360800D02*
D03*
X354800D02*
D03*
X348400D02*
D03*
D34*
X312402Y22441D02*
D03*
X319882D02*
D03*
X310433Y86614D02*
D03*
X302953D02*
D03*
D104*
X12697Y203937D02*
D03*
X130315Y16240D02*
D03*
D113*
X57185Y136713D02*
X127362D01*
X57087Y136614D02*
X57185Y136713D01*
X330315Y21260D02*
X332283Y19291D01*
X330315Y21260D02*
Y24193D01*
X319049Y104600D02*
X319055Y104606D01*
X309700Y104600D02*
X319049D01*
Y109600D02*
X319055Y109606D01*
X313900Y109600D02*
X319049D01*
X309842Y110186D02*
X313314D01*
X313900Y109600D01*
X312607Y93307D02*
X313906Y94606D01*
X319055D01*
X309499Y93307D02*
X312607D01*
X310433Y86614D02*
X313425Y89606D01*
X319055D01*
X296850Y86564D02*
X302902D01*
X302953Y86614D01*
X300205Y50409D02*
X314378D01*
X300205Y50409D02*
X300205Y50409D01*
D116*
X343121Y89606D02*
X344000Y88728D01*
Y80900D02*
X348400Y76500D01*
X340000Y89606D02*
X343121D01*
X344000Y80900D02*
Y88728D01*
D117*
X326279Y20276D02*
Y23898D01*
X326575Y24193D01*
X323917Y18413D02*
X324796Y19291D01*
X325295D01*
X326279Y20276D01*
X323917Y14469D02*
Y18413D01*
X321260Y11811D02*
X323917Y14469D01*
X319094Y11811D02*
X321260D01*
X315354D02*
X319094D01*
X307100Y15400D02*
X311917D01*
X312795Y14521D01*
Y14370D02*
Y14521D01*
Y14370D02*
X315354Y11811D01*
X319685Y27902D02*
X319882Y27705D01*
X319291Y28296D02*
X319685Y27902D01*
X319882Y22441D02*
Y27705D01*
X312992Y28296D02*
X319291D01*
X307087Y28296D02*
X312992D01*
X312992Y28296D01*
X332000Y29500D02*
X334055Y27445D01*
Y24193D02*
Y27445D01*
X327700Y29500D02*
X332000D01*
X326575Y30625D02*
X327700Y29500D01*
X326575Y30625D02*
Y34075D01*
X326347Y34302D02*
X326575Y34075D01*
X319685Y34302D02*
X326347D01*
X318234Y82813D02*
Y84215D01*
X315500Y82000D02*
X317421D01*
X318626Y84606D02*
X319055D01*
X318234Y84215D02*
X318626Y84606D01*
X317421Y82000D02*
X318234Y82813D01*
X348400Y76500D02*
X348600Y76300D01*
Y73100D02*
Y76300D01*
X347650Y88489D02*
Y92650D01*
X345694Y94606D02*
X347650Y92650D01*
X331701Y74622D02*
Y90901D01*
X335406Y94606D02*
X340000D01*
X331701Y90901D02*
X335406Y94606D01*
X347831Y82544D02*
Y88308D01*
X347650Y88489D02*
X347831Y88308D01*
X340000Y94606D02*
X345694D01*
X357087Y95225D02*
X364483D01*
X364800Y94909D01*
X351575Y95225D02*
X357087D01*
X349000Y95400D02*
X351400D01*
X351575Y95225D01*
X344794Y99606D02*
X349000Y95400D01*
X340000Y99606D02*
X344794D01*
X147146Y170177D02*
X169783Y192815D01*
X217717D01*
X240059Y156201D02*
Y170472D01*
X217717Y192815D02*
X240059Y170472D01*
D118*
X147244Y149902D02*
X151083Y146063D01*
X54724Y149902D02*
X147244D01*
X151083Y143405D02*
Y146063D01*
X35433Y130610D02*
X54724Y149902D01*
X33199Y130922D02*
X55132Y152854D01*
X177362D01*
X177461Y152756D01*
X33199Y108888D02*
Y130922D01*
X30315Y106004D02*
X33199Y108888D01*
X35433Y111417D02*
Y130610D01*
X184055Y81004D02*
Y88583D01*
X193799Y98327D02*
Y148130D01*
X184055Y88583D02*
X193799Y98327D01*
X206626Y135858D02*
X206693Y135925D01*
X225000D02*
X239370Y150295D01*
X206693Y135925D02*
X225000D01*
X79823Y50394D02*
X96457D01*
X96850Y50787D01*
X202097Y187475D02*
X202234Y187612D01*
X202097Y184603D02*
X202468Y184231D01*
Y101385D02*
Y184231D01*
X202097Y184603D02*
Y187475D01*
X187795Y86713D02*
X202468Y101385D01*
X193799Y148130D02*
X198130Y152461D01*
X52461Y23031D02*
X79823Y50394D01*
X199303Y186966D02*
Y189217D01*
X198130Y185792D02*
X199303Y186966D01*
Y189217D02*
X199545Y189459D01*
X198130Y152461D02*
Y185792D01*
D119*
X178252Y56401D02*
X178299Y56353D01*
X177162Y56401D02*
X178252D01*
X177067Y56496D02*
X177162Y56401D01*
X249857Y93617D02*
Y164659D01*
X177162Y53836D02*
X178252D01*
X177067Y53740D02*
X177162Y53836D01*
X178299Y53883D02*
X196254D01*
X178299Y56353D02*
X195231D01*
X178252Y53836D02*
X178299Y53883D01*
X247387Y148677D02*
Y153937D01*
X246702Y148677D02*
X247387D01*
X246702Y146207D02*
Y148677D01*
Y146207D02*
X247387D01*
Y145472D02*
Y146207D01*
Y153937D02*
Y163636D01*
Y94640D02*
Y145472D01*
X231398Y78651D02*
X247387Y94640D01*
X244193Y165256D02*
X244193Y165256D01*
X245768D02*
X247387Y163636D01*
X246600Y167916D02*
X249857Y164659D01*
X244193Y165256D02*
X245768D01*
X232421Y76181D02*
X249857Y93617D01*
X244288Y167916D02*
X246600D01*
X195231Y56353D02*
X217529Y78651D01*
X196254Y53883D02*
X218552Y76181D01*
X217529Y78651D02*
X231398D01*
X244193Y168012D02*
X244288Y167916D01*
X218552Y76181D02*
X232421D01*
D120*
X183366Y118996D02*
X188287Y114075D01*
Y97342D02*
Y114075D01*
X196260Y131988D02*
X197343Y130905D01*
X196260Y131988D02*
Y140059D01*
D122*
X153642Y58760D02*
X167717Y44685D01*
X125984Y58760D02*
X153642D01*
X167717Y27165D02*
Y44685D01*
X206299Y24016D02*
Y51575D01*
X200000Y17717D02*
X206299Y24016D01*
X177165Y17717D02*
X200000D01*
X167717Y27165D02*
X177165Y17717D01*
D123*
X240945Y358249D02*
Y371890D01*
X240787Y372047D02*
X240945Y371890D01*
X235039Y351575D02*
Y352344D01*
X240945Y358249D01*
X191732Y351181D02*
Y351950D01*
X190787Y352895D02*
Y372047D01*
Y352895D02*
X191732Y351950D01*
D125*
X289968Y50409D02*
D03*
Y44504D02*
D03*
Y38598D02*
D03*
Y32693D02*
D03*
Y26787D02*
D03*
Y20882D02*
D03*
X259842Y155118D02*
D03*
Y161024D02*
D03*
Y166929D02*
D03*
Y172835D02*
D03*
Y178740D02*
D03*
Y184646D02*
D03*
D126*
X317528Y74622D02*
D03*
X331701D02*
D03*
X331693Y60457D02*
D03*
D127*
X235039Y284646D02*
D03*
Y324016D02*
D03*
Y351575D02*
D03*
X262598Y284646D02*
D03*
Y343701D02*
D03*
X191732Y284252D02*
D03*
Y323622D02*
D03*
Y351181D02*
D03*
X219291Y284252D02*
D03*
Y343307D02*
D03*
D128*
X108661Y107480D02*
D03*
Y87795D02*
D03*
X23228Y136614D02*
D03*
Y116929D02*
D03*
X44488Y371654D02*
D03*
X162598D02*
D03*
X15354Y313779D02*
D03*
X35039D02*
D03*
X15354Y267717D02*
D03*
X35039D02*
D03*
X154724Y334252D02*
D03*
X75984D02*
D03*
X135039Y255512D02*
D03*
X95669D02*
D03*
D129*
X55216Y208268D02*
D03*
D130*
X43012Y185039D02*
D03*
X130315Y33957D02*
D03*
D131*
X30413Y203937D02*
D03*
X149213Y46555D02*
D03*
D132*
X260787Y372047D02*
D03*
X240787D02*
D03*
X210787Y372047D02*
D03*
X190787D02*
D03*
X21654Y371811D02*
D03*
Y351811D02*
D03*
D133*
X125984Y58760D02*
D03*
D134*
X57087Y136614D02*
D03*
D03*
X315500Y82000D02*
D03*
X348600Y73100D02*
D03*
X151083Y143405D02*
D03*
D03*
X187894Y44980D02*
D03*
X187795Y27264D02*
D03*
X147146Y170177D02*
D03*
X177461Y152756D02*
D03*
D03*
X30315Y106004D02*
D03*
D03*
X35433Y111417D02*
D03*
D03*
X240059Y156201D02*
D03*
X183366Y118996D02*
D03*
D03*
X188287Y97342D02*
D03*
D03*
X206626Y135858D02*
D03*
D03*
X239370Y150295D02*
D03*
D03*
X96850Y50787D02*
D03*
D03*
X177067Y53740D02*
D03*
D03*
X197343Y130905D02*
D03*
D03*
X196260Y140059D02*
D03*
D03*
X52461Y23031D02*
D03*
X187795Y131102D02*
D03*
D03*
X193504Y184153D02*
D03*
D03*
X244193Y165256D02*
D03*
D03*
X177067Y56496D02*
D03*
D03*
X244193Y168012D02*
D03*
D03*
X191732Y351181D02*
D03*
D135*
X332283Y19291D02*
D03*
X338189Y14961D02*
D03*
X337008Y35827D02*
D03*
X331102Y44488D02*
D03*
X323228Y50394D02*
D03*
X331102Y6299D02*
D03*
X285531Y88583D02*
D03*
X342520Y120079D02*
D03*
X360236D02*
D03*
X330709Y98425D02*
D03*
X311024Y5906D02*
D03*
X301083Y23031D02*
D03*
X295276Y61024D02*
D03*
X316929Y64961D02*
D03*
X330709Y114173D02*
D03*
X299213Y76772D02*
D03*
X284933Y75303D02*
D03*
X286669Y104450D02*
D03*
X287282Y114906D02*
D03*
X360236Y88583D02*
D03*
X362205Y68898D02*
D03*
Y59055D02*
D03*
X344488D02*
D03*
Y47244D02*
D03*
X362205D02*
D03*
Y35433D02*
D03*
X344488D02*
D03*
X352362Y13780D02*
D03*
X344488Y21654D02*
D03*
X362205D02*
D03*
Y5906D02*
D03*
X344488D02*
D03*
X287402Y7874D02*
D03*
X300000Y6400D02*
D03*
X301181Y15748D02*
D03*
X291800Y92800D02*
D03*
X293400Y116800D02*
D03*
X134547Y132677D02*
D03*
X134744Y141240D02*
D03*
X127362Y136713D02*
D03*
X43996Y127264D02*
D03*
X48327Y149606D02*
D03*
X270472Y173622D02*
D03*
X266535Y199902D02*
D03*
X239567Y217717D02*
D03*
X195177Y256791D02*
D03*
X175295Y216339D02*
D03*
X108563Y204232D02*
D03*
X14567Y159547D02*
D03*
X57284Y165748D02*
D03*
X65748Y121260D02*
D03*
X83366Y125394D02*
D03*
X131398Y196358D02*
D03*
X145768Y115748D02*
D03*
X102362Y64665D02*
D03*
X95768Y111221D02*
D03*
X193405Y155118D02*
D03*
X191043Y168012D02*
D03*
X206201Y158366D02*
D03*
Y171949D02*
D03*
X233465Y10531D02*
D03*
X261024D02*
D03*
X233465Y25295D02*
D03*
X261024D02*
D03*
X233465Y42913D02*
D03*
X261024D02*
D03*
X233423Y69451D02*
D03*
X260982D02*
D03*
X233563Y87008D02*
D03*
X261122D02*
D03*
Y108661D02*
D03*
X233563D02*
D03*
X227165Y130217D02*
D03*
X260433Y139272D02*
D03*
X263681Y227165D02*
D03*
X262008Y249016D02*
D03*
X86614Y174311D02*
D03*
X106595Y182382D02*
D03*
X149803Y191634D02*
D03*
X192815Y201575D02*
D03*
X184153Y228740D02*
D03*
X158071Y228543D02*
D03*
X197638Y78937D02*
D03*
X235335Y150295D02*
D03*
X218209Y146653D02*
D03*
X222146Y193012D02*
D03*
X229724Y242520D02*
D03*
X227185Y267008D02*
D03*
X214543Y259965D02*
D03*
X243878Y261004D02*
D03*
X167421Y195276D02*
D03*
X156102Y167126D02*
D03*
X185925Y189567D02*
D03*
X181693D02*
D03*
X185925Y185531D02*
D03*
X181693D02*
D03*
X10433Y11319D02*
D03*
X6102Y29921D02*
D03*
X4921Y21555D02*
D03*
X42421Y21161D02*
D03*
X88583Y155285D02*
D03*
X84646D02*
D03*
X92520D02*
D03*
X80709D02*
D03*
X54528Y5315D02*
D03*
X20276Y6201D02*
D03*
X21850Y10236D02*
D03*
X171811Y100157D02*
D03*
X177165Y100197D02*
D03*
X182717D02*
D03*
X202234Y187612D02*
D03*
X199545Y189459D02*
D03*
X70866Y191339D02*
D03*
X66929D02*
D03*
X206299Y51575D02*
D03*
X184055Y81004D02*
D03*
X187795Y86713D02*
D03*
X250000Y188386D02*
D03*
X240158Y203150D02*
D03*
X133532Y104842D02*
D03*
X242913Y188386D02*
D03*
X236221D02*
D03*
X172087Y104331D02*
D03*
X189055Y74528D02*
D03*
X62992Y191339D02*
D03*
X59055D02*
D03*
X58661Y217323D02*
D03*
X54724D02*
D03*
X50787D02*
D03*
D136*
X125984Y58760D02*
Y129921D01*
X125197Y130709D02*
X125984Y129921D01*
X125197Y130709D02*
Y131496D01*
D171*
X340000Y114606D02*
D03*
Y109606D02*
D03*
Y104606D02*
D03*
Y99606D02*
D03*
Y94606D02*
D03*
Y89606D02*
D03*
Y84606D02*
D03*
X319055Y114606D02*
D03*
Y109606D02*
D03*
Y104606D02*
D03*
Y99606D02*
D03*
Y94606D02*
D03*
Y89606D02*
D03*
Y84606D02*
D03*
D172*
X330512Y11811D02*
D03*
X319094D02*
D03*
D173*
X334055Y24193D02*
D03*
X330315D02*
D03*
X326575D02*
D03*
Y34075D02*
D03*
X334055D02*
D03*
D174*
X364800Y114009D02*
D03*
Y102591D02*
D03*
Y94909D02*
D03*
Y83491D02*
D03*
D175*
X309247Y98819D02*
X309449D01*
X308147Y99919D02*
X309247Y98819D01*
X306650Y102574D02*
X308147Y101076D01*
Y99919D02*
Y101076D01*
X306650Y102574D02*
Y106643D01*
X309842Y109836D01*
Y110186D01*
D176*
X366178Y83491D02*
X367200Y82470D01*
Y81092D02*
X367200Y81091D01*
X364800Y83491D02*
X366178D01*
X367200Y81092D02*
Y82470D01*
X367200Y76500D02*
Y81091D01*
M02*
