M48
;Layer_Color=9474304
;FILE_FORMAT=2:5
INCH,LZ
;TYPE=PLATED
T1F00S00C0.01000
T2F00S00C0.01181
T3F00S00C0.02362
T5F00S00C0.02756
T7F00S00C0.03937
T8F00S00C0.04331
T9F00S00C0.16929
T10F00S00C0.18110
%
T01
X0060167Y-0006988
X0056555Y-0003376
X0060167Y0000236
X0067392
Y-0006988
X0063779Y-0003376
X0071004
Y0003848
X0063779
X0067392Y0007461
X0060167
X0056555Y0003848
T02
X-0041043Y-0162894
X-0043701Y-0158661
X-0044882Y-0153937
X-0038878Y-015561
X-003563Y-0159252
X-0030709Y-0158957
X-0025492Y-0159055
X-0020276Y-0158957
X-0015354Y-0158465
X-0015256Y-0153839
X-0007087Y-0154331
Y-0159843
X-001063Y-0164173
X-0016535Y-0164961
X-0022835Y-0165354
X-002874
X-0035039Y-0164173
X001063Y-0157283
X0087598Y-0122244
X0107677Y-0112106
X0119291
X0129035Y-0098032
X0126969Y-0088779
X0131791Y-0087008
X0145571Y-0078543
X0139075Y-0062894
X0157874Y-0055315
X015315Y-0042028
X0149508Y-0045669
X0161024Y-0035827
X0158268Y-0012205
X0155512Y-0009449
X0148031
X0143701Y-001063
X0168209Y-0013386
X010187Y-000561
X0087209Y-000876
X0086319Y-0000689
X0094882Y-0017826
Y-0020494
X0092323Y-0029626
X0094882Y-0045669
X0090748Y-0056791
X010187Y-0054134
X0103347Y-0064468
X0100984Y-0080709
X0090059Y-0072933
X0116634Y-005689
X0083268Y-0056496
X0075984Y-005748
X0068504
X0053642Y-005689
X0058169Y-0045669
X0062795
X0043504Y-0048425
X0038091Y-0045866
X0025394Y-005
X0029626Y-0060728
X0035335Y-0070472
X0050984Y-0075886
X0057284Y-006998
X0065059Y-0086417
X0078839Y-0078642
X008002Y-0093602
X0049902Y-0097146
X0044488Y-0087402
X0046555Y-0115551
X0033071Y-0109153
X0025197Y-0108957
X0018307Y-0111417
X0000886Y-0106004
X-0007087Y-0103937
Y-0099213
Y-0093701
Y-0088976
Y-0084252
Y-0079134
Y-0074016
Y-0068504
Y-0063386
Y-0058661
Y-0049606
Y-0042126
X-0006693Y-003622
X-0009843Y-0032796
X-0016535
X-0023228
X-0036909Y-0033071
X-0045669Y-0039173
X-0050098Y-0040354
X-0055905Y-004065
X-0062205Y-0040551
X-0068504Y-0041732
X-0069291Y-0048031
X-0057874Y-0048425
X-0053051Y-0050295
X-0044882Y-0049606
X-0045669Y-006063
X-0038976
X-0032677Y-0061024
X-0025984
X-0019219Y-0061772
X-0015354Y-0065748
X-0015748Y-007126
X-0017581Y-0076939
Y-0081565
Y-0086782
Y-0091506
Y-0096624
Y-0101447
Y-0106466
X-0021124Y-0109911
X-0024667
X-0028309
X-0031852
X-0035199
X-0038545
X-0042679
X-0046715Y-0106466
Y-010125
Y-0096624
Y-0091703
Y-0086782
Y-008186
Y-0076939
X-0043073Y-0074577
X-0039136
X-0035199
X-0031655
X-0028309
X-0025061
X-0021321
X-0025848Y-0078612
Y-0082352
Y-00856
Y-0088947
Y-009249
Y-0096427
Y-0100364
X-0026045Y-0104498
X-0036183
X-0035986Y-0100364
Y-0096427
Y-009249
Y-0088947
Y-00856
Y-0082352
Y-0078612
X-005075Y-0074675
X-0054589
X-0058821
X-0062463
X-0065908
X-0069648
X-0070435Y-0078711
Y-0082451
Y-0085699
Y-0089045
Y-0092589
Y-0096526
Y-0100463
X-0070632Y-0104596
X-0069648Y-0108927
X-0065908
X-0062463
X-0058821
X-0054589
X-005075
X-0059805Y-0104596
X-0059608Y-0100463
Y-0096526
Y-0092589
Y-0089045
Y-0085699
Y-0082451
Y-0078711
X-0061417Y-0058268
X-0061516Y-005315
X-0052756Y-0061024
X-0028346Y-0049606
X0006693Y-0049508
X0003839Y-0041732
X0017717Y-0036614
X0020866Y-003937
X001752Y-0030315
X0033465Y-0029921
X0042717Y-0029528
X0054528Y-002874
X007185Y-0024114
X0078543Y-0015157
X0043799Y-000935
X0032185Y-0009154
X0032874Y-0018701
X0016535Y-0012716
X0016634Y0000098
X-0016535Y0002854
X-0031496Y-0000886
X-0031299Y-0007677
X-003622Y-0005118
X-0042913Y-001939
X-0058858Y-0019291
X-0055905Y-0008661
X-005748Y0000787
X-0058268Y-0123622
X-0062992
X-006811
X-0065748Y-0129134
X-005748Y-0132677
X-0057087Y-0140551
X-0050394Y-0141732
X-0044488Y-014252
X-0038484Y-0143012
X-003878Y-014685
X-003937Y-0151279
X-0045276Y-0149213
X-0033465Y-014252
X-0030709Y-0139764
X-0031594Y-013248
X-0031693Y-0127756
X-0031791Y-0123327
X-002372Y-0122933
X-0023622Y-0127854
Y-0132677
X-0023425Y-0137205
X-0021654Y-0142126
X-0015551Y-0144193
X-0015453Y-0149213
X-0007087Y-0149606
Y-0144882
Y-013937
Y-0134252
Y-0129528
Y-0124803
Y-0119685
Y-0114567
Y-0109055
X-0016142Y-0112205
X-0016535Y-0116929
X-0018504Y-012126
X-0016142Y-0137402
X0004724Y-0138976
X003248Y-0143504
X0039272Y-0143701
X004439Y-0140945
X0047146Y-0135827
X0046654Y-0148031
X0060236Y-0129823
X007559Y-0125591
X0077165Y-0134941
X0081398Y-0143307
X0029331Y-0123917
X0010827Y-0091339
X001063Y-0079331
X0007087Y-0071063
X0001575Y-0070866
X-0045669Y-0120472
X-005315Y-0123622
X-0052362Y-012874
X-0051968Y-0136221
X-0038976Y-013189
X-0063386Y-0143307
X-008376Y-01375
X-0083858Y-0123622
Y-0118504
Y-0112992
X-0082443Y-0107844
Y-0102726
Y-0098002
Y-0093179
Y-008816
Y-0083337
Y-0078317
Y-0073494
X-0076931Y-0074675
X-0073191
X-0083465Y-0066929
Y-0061811
X-007874
X-0085532Y-005374
X-0081004Y-0023524
X-0094587Y-0012402
X-009685Y-0001969
X-0096063Y0001969
X-0136319Y-0012992
X-0152756Y-001998
Y-0029232
X-0161319Y-0025394
X-0161417Y-0015551
X-0164961Y-0000295
X-0158661Y-0037795
X-0151673Y-0050098
X-0145276Y-0061713
X-0140059Y-0070472
X-0122939Y-0068015
X-0110433Y-0075492
X-0115256Y-0085433
X-0133661Y-0085335
X-0122441Y-0097638
X-0117028Y-0114173
X-0093209Y-0116929
X-0095768Y-0127559
X-0078347Y-0123622
X-0073228
X-0073191Y-0108927
X-0076931
X-0088484Y-0101575
X-0090354Y-0087992
X-0098524Y-0079528
X-0138976Y-0033957
X-0134153Y0026181
X-0126476Y0028937
X-011811Y0024508
X-0109449Y0025098
X-010315Y0031201
X-0102522Y0041307
X-0092089Y0041586
X-0091437Y0032382
X-009124Y0024508
X-0091437Y0016535
X-0098524Y0007677
X-0104724Y0007874
X-0121752Y0037303
X-0132185Y0036417
X-0133563Y004685
X-0121099Y0048281
X-0123275Y0055589
X-011565Y0062205
X-0108465Y006063
X-0102633Y0060331
X-0091634Y0060433
X-0094488Y0070866
Y0082677
X-0100394
X-0110236Y0083071
X-0112205Y0070866
X-0131496Y0073425
X-0132972Y0062402
X-0147244Y0072539
X-0140354Y0086811
X-011939Y0091142
X-0085039Y0093898
X-0082677Y0082677
X-0088583
X-0082677Y0076772
X-0071977Y0076345
X-0072889Y0071114
X-0073032Y0059941
X-0082677Y0064961
X-0076772Y0082677
X-0088189Y0114764
X-009626Y0132283
X-0082382Y0141142
X-0115967Y0043762
X-0156693Y0038583
X-0160335Y0026476
X-0164764Y0010925
X-0156004Y0058071
X-0068997Y0049707
X-006624Y0064468
X-0051177Y0044172
X-005315Y0034646
X-0047638Y0035433
X-0041339Y0041339
X-0028918Y0043564
X-0035433Y0029528
X-004104Y0018041
X-0040551Y0010138
X-0035925Y0003051
X-0025391Y0006466
X-0029528Y0017717
X-0022411Y0024467
X-001437Y0024114
X-0012303Y0010138
X0016732Y0008465
X0016535Y001378
X0016043Y001939
X0015748Y0030413
X0022047Y002874
Y0047638
X0036614Y0049606
X003248Y0038189
X0045177Y0039567
X0058268Y0039764
X006811Y0040157
X0072244Y0037992
X0069488Y0022638
X0077461Y0022835
X0080315Y0017717
X0083071Y0020472
X0066437Y0016339
X0053051Y0020866
X004065Y0022539
X0033465Y002126
X0030906Y000876
X0041634Y0009449
X0006693Y0024606
X-0053062Y0027265
X-0054704Y0016318
X-0053445Y0010827
X-0062205Y0006299
X-0064862Y0014665
X-0064961Y0029823
X-0066535Y010187
X-0062598Y0118307
X-0070374Y0120866
X-0056102Y0142126
X-0062992Y015374
X-0046161Y0154429
X-003002Y0153445
X-0030118Y0148819
Y014439
Y0140059
Y0135433
X-0027067Y0133268
X-0023819Y0130217
X-0017815Y0129724
X-0011811
X-0006299
X-0001673
X0002264
X0006496
X0011516
X0016831
X0022441
X0028248
X0033661
X0039469
X0041142Y0153347
X0036614Y0155315
X0063484Y0148327
X0072933Y011811
X0081102Y0117717
X0080315Y0082185
X0082175Y0064281
X0063779Y0064173
X0083169Y0045669
X0046358Y0094488
X0040551Y0099606
X0043799Y0105413
X-0035827Y0097539
X-003814Y0112648
X-0033465Y0121752
X-0047146Y0106398
X-0044193Y0084941
X-0029724Y0157874
X0091732Y0135039
X0087303Y0105413
X0091732Y0091437
X0099213Y0087106
X0098917Y0071457
X0104921Y0065354
X0111811Y0075984
X0112894Y0081201
X0118898Y0092126
X0127756Y0106595
X0111516Y0110728
X0115453Y0121358
X0125591Y0069685
X0122933Y0059153
X0133366Y0060138
X0146303Y0058366
X0148972
X0155807Y0060039
X0162106Y0033465
X0162598Y0019685
X0146457Y0035433
X0114961Y0027165
X0110236Y0027953
Y0023622
X0093012Y0022441
X0087402Y0022343
X0090945Y0012303
X0100984Y0005315
X0105709Y0005709
X0036122Y0160039
X0033366Y0162992
X0028346Y0163878
X0024213
X0019882
X0014961
X0010039
X-0047146Y0161024
T03
X0023828Y0057897
X002381Y0067693
T05
X0047047Y01375
X0066732
T07
X-0136809Y-0041909
X-0110828Y-005691
T08
X0088046Y-0134995
X0096238Y-0129259
X0104429Y-0123524
X0112621Y-0117788
X-0006398Y0024685
Y0034685
Y0044685
T09
X0101612Y-0101612
X-0101612
Y0101612
X010161Y010161
T10
X-0011024Y0146457
X0017323
M30
