M48
;Layer_Color=9474304
;FILE_FORMAT=2:5
INCH,LZ
;TYPE=PLATED
T1F00S00C0.01181
T2F00S00C0.08268
%
T01
X0086122Y-0011024
X0084547Y-0003543
X0090059Y-0004331
X0095965Y-0004724
X0101476
X0105413Y0000394
X0103681Y000624
X0101476Y0014173
X0091634Y001378
X0097539Y0024016
X0104232Y0031496
X0113681Y002874
X0114469Y0038189
X010502Y004685
X0107382Y005748
X0100689Y0064173
X008809
X0093996Y0052756
X0096358Y0038189
X0109744Y0020472
X0124906Y0015197
X0134547Y0009055
X0132579Y0030709
X0132972Y0043307
X0117618Y-0011811
X010689Y-0011417
X0110138Y-000748
X0096752Y-0011024
X0074705Y-0009843
X0074311Y-0002756
X0078642Y-0003543
X0068405Y0000787
Y0007874
X0070079Y0020669
Y0025689
X0070079Y0030709
Y0035728
X0070079Y0040748
X0075197
X0075197Y0035728
Y0030709
X0075197Y0025689
Y0020669
X0080315
Y0025689
X0080315Y0030709
Y0035728
X0080315Y0040748
X0064961
X0064961Y0035728
Y0030709
X0064961Y0025689
Y0020669
X0059842
Y0025689
Y0030709
Y0035728
Y0040748
X0042815Y0040157
X0034154Y0041339
X0035335Y005
X0026673Y0051181
X0025098Y0062992
X0031791Y0062598
X0038484Y0067323
X004124Y0059449
X0046752Y0064173
X0055413Y006063
X005935Y0066535
X0070768Y0066929
X0067224Y0061024
X0079823Y0059842
X0045965Y0051968
X0016043Y0054724
X0018012Y0046063
X0016043Y0037402
X000935Y0041732
X-0008366Y003937
X-0009547Y0030315
X-000876Y0020866
X-0010335Y0009449
X0002264Y0014567
X-0000492Y0026772
X0016043Y0019685
X0020374Y0011417
X0017224Y0000394
X0023917Y-0004724
X003189Y-0011417
X0040846Y-0007874
X0046358Y-0011811
X0058169Y-0009843
X0062894Y-0005118
X0049902Y0000394
X0053445Y0010236
X0046752Y0018504
X0037303Y0019291
X003061Y0020472
X0029823Y0027559
X0024705
Y0033366
X0029823Y0033071
X0014075Y0064567
X-0010728Y0047638
X0013287Y-0009449
T02
X0123622Y0
Y0056004
X0
Y0
M30
