G04*
G04 #@! TF.GenerationSoftware,Altium Limited,Altium Designer,22.2.1 (43)*
G04*
G04 Layer_Physical_Order=1*
G04 Layer_Color=255*
%FSLAX25Y25*%
%MOIN*%
G70*
G04*
G04 #@! TF.SameCoordinates,F9679001-C221-457E-AD06-5865B11B1ABB*
G04*
G04*
G04 #@! TF.FilePolarity,Positive*
G04*
G01*
G75*
%ADD21R,0.07087X0.03347*%
%ADD22R,0.03937X0.03740*%
%ADD23R,0.03740X0.03937*%
%ADD24R,0.01181X0.01968*%
%ADD25R,0.02362X0.02126*%
%ADD26R,0.02402X0.04724*%
%ADD27R,0.05118X0.03543*%
%ADD28R,0.03543X0.05118*%
G04:AMPARAMS|DCode=29|XSize=47.64mil|YSize=23.23mil|CornerRadius=5.81mil|HoleSize=0mil|Usage=FLASHONLY|Rotation=180.000|XOffset=0mil|YOffset=0mil|HoleType=Round|Shape=RoundedRectangle|*
%AMROUNDEDRECTD29*
21,1,0.04764,0.01161,0,0,180.0*
21,1,0.03602,0.02323,0,0,180.0*
1,1,0.01161,-0.01801,0.00581*
1,1,0.01161,0.01801,0.00581*
1,1,0.01161,0.01801,-0.00581*
1,1,0.01161,-0.01801,-0.00581*
%
%ADD29ROUNDEDRECTD29*%
%ADD30R,0.06890X0.01575*%
%ADD31R,0.09843X0.05413*%
%ADD32R,0.03347X0.03347*%
%ADD33R,0.06693X0.16142*%
%ADD34R,0.02047X0.01102*%
%ADD35R,0.04134X0.03937*%
%ADD36R,0.08661X0.04134*%
%ADD37R,0.03150X0.03150*%
%ADD38R,0.01968X0.02362*%
%ADD54R,0.03937X0.03937*%
%ADD66C,0.00100*%
%ADD67C,0.01500*%
%ADD68C,0.02000*%
%ADD69C,0.03000*%
%ADD70C,0.01200*%
%ADD71C,0.02100*%
%ADD72C,0.01300*%
%ADD73C,0.01000*%
%ADD74C,0.08858*%
%ADD75C,0.10039*%
%ADD76O,0.06299X0.03150*%
%ADD77O,0.08268X0.04134*%
%ADD78R,0.06299X0.07874*%
%ADD79O,0.06299X0.07874*%
%ADD80C,0.02362*%
%ADD81C,0.01968*%
G36*
X200647Y169D02*
X1224D01*
Y23692D01*
X1564Y23836D01*
X1624Y23836D01*
X12806D01*
Y30650D01*
X1624D01*
X1564Y30650D01*
X1406Y30717D01*
Y30908D01*
X1778Y31218D01*
X12806D01*
Y38032D01*
X1624D01*
X1564Y38032D01*
X1224Y38176D01*
Y76659D01*
X200647D01*
Y169D01*
D02*
G37*
%LPC*%
G36*
X187213Y73265D02*
X183382D01*
Y71698D01*
X187213D01*
Y73265D01*
D02*
G37*
G36*
X181382D02*
X177551D01*
Y71698D01*
X181382D01*
Y73265D01*
D02*
G37*
G36*
X37390Y73855D02*
X34740D01*
Y70418D01*
X37390D01*
Y73855D01*
D02*
G37*
G36*
X32740D02*
X30091D01*
Y70418D01*
X32740D01*
Y73855D01*
D02*
G37*
G36*
X142790Y71435D02*
X138746D01*
Y69262D01*
X142790D01*
Y71435D01*
D02*
G37*
G36*
X137746D02*
X133703D01*
Y69262D01*
X137746D01*
Y71435D01*
D02*
G37*
G36*
X94758D02*
X90715D01*
Y69262D01*
X94758D01*
Y71435D01*
D02*
G37*
G36*
X89715D02*
X85672D01*
Y69262D01*
X89715D01*
Y71435D01*
D02*
G37*
G36*
X187213Y69698D02*
X182382D01*
X177551D01*
Y68131D01*
X178508D01*
X178735Y67731D01*
X178633Y67559D01*
X173611D01*
Y66429D01*
X160247D01*
Y66969D01*
X154910D01*
Y66199D01*
X143270D01*
X143169Y66202D01*
X142899Y66229D01*
X142790Y66247D01*
Y68262D01*
X133703D01*
Y66089D01*
X134003D01*
Y62774D01*
X133703D01*
Y60601D01*
X142790D01*
Y62587D01*
X142886Y62602D01*
X143297Y62631D01*
X154910D01*
Y61828D01*
X160247D01*
Y62860D01*
X165194D01*
Y55886D01*
X165330Y55204D01*
X165539Y54891D01*
Y49301D01*
X165527Y49145D01*
X165489Y48884D01*
X165442Y48680D01*
X165391Y48535D01*
X165347Y48453D01*
X165336Y48439D01*
X165309Y48435D01*
X164654D01*
Y47732D01*
X164653Y47723D01*
X164654Y47715D01*
Y43295D01*
X169991D01*
Y47715D01*
X169993Y47723D01*
X169991Y47732D01*
Y48435D01*
X169337D01*
X169310Y48439D01*
X169299Y48453D01*
X169255Y48535D01*
X169204Y48680D01*
X169157Y48884D01*
X169119Y49145D01*
X169107Y49301D01*
Y55542D01*
X168971Y56225D01*
X168763Y56537D01*
Y62860D01*
X173611D01*
Y62222D01*
X178830D01*
X178963Y62050D01*
X178767Y61651D01*
X177551D01*
Y60084D01*
X182382D01*
X187213D01*
Y61446D01*
X187303D01*
X187697Y61839D01*
Y67745D01*
X187213Y68229D01*
Y69698D01*
D02*
G37*
G36*
X37390Y68418D02*
X34740D01*
Y64981D01*
X37390D01*
Y68418D01*
D02*
G37*
G36*
X32740D02*
X30091D01*
Y64981D01*
X32740D01*
Y68418D01*
D02*
G37*
G36*
X63740Y74189D02*
X62709Y74054D01*
X61748Y73656D01*
X60923Y73023D01*
X60290Y72197D01*
X59892Y71237D01*
X59756Y70206D01*
Y68631D01*
X59892Y67600D01*
X60290Y66639D01*
X60923Y65814D01*
X61748Y65181D01*
X62709Y64783D01*
X63740Y64647D01*
X64771Y64783D01*
X65732Y65181D01*
X66557Y65814D01*
X67190Y66639D01*
X67588Y67600D01*
X67724Y68631D01*
Y70206D01*
X67588Y71237D01*
X67190Y72197D01*
X66557Y73023D01*
X65732Y73656D01*
X64771Y74054D01*
X63740Y74189D01*
D02*
G37*
G36*
X53740D02*
X52709Y74054D01*
X51748Y73656D01*
X50923Y73023D01*
X50290Y72197D01*
X49892Y71237D01*
X49757Y70206D01*
Y68631D01*
X49892Y67600D01*
X50290Y66639D01*
X50923Y65814D01*
X51748Y65181D01*
X52709Y64783D01*
X53740Y64647D01*
X54771Y64783D01*
X55732Y65181D01*
X56557Y65814D01*
X57190Y66639D01*
X57588Y67600D01*
X57724Y68631D01*
Y70206D01*
X57588Y71237D01*
X57190Y72197D01*
X56557Y73023D01*
X55732Y73656D01*
X54771Y74054D01*
X53740Y74189D01*
D02*
G37*
G36*
X31973Y62733D02*
X30701D01*
Y60674D01*
X31973D01*
Y62733D01*
D02*
G37*
G36*
X155622Y60671D02*
X155614Y60669D01*
X154910D01*
Y60052D01*
X154837Y60018D01*
X154686Y59970D01*
X154486Y59929D01*
X154017Y59884D01*
X152201D01*
X152201Y59884D01*
X151519Y59748D01*
X150940Y59361D01*
X149710Y58131D01*
X149367Y57617D01*
X149037Y57528D01*
X148940Y57520D01*
X148821Y57520D01*
X147430D01*
X147257Y57554D01*
X143253D01*
X143167Y57557D01*
X142896Y57583D01*
X142790Y57600D01*
Y59601D01*
X133703D01*
Y57427D01*
X134003D01*
Y53397D01*
Y49066D01*
X139594D01*
X139602Y48989D01*
Y48758D01*
X139703Y48251D01*
X139990Y47821D01*
X151529Y36282D01*
Y32349D01*
X151522Y32267D01*
X151502Y32146D01*
X151496Y32126D01*
X150580D01*
Y27380D01*
X155326D01*
Y32126D01*
X154212D01*
X154207Y32146D01*
X154187Y32267D01*
X154180Y32349D01*
Y36831D01*
X154079Y37338D01*
X153792Y37768D01*
X142490Y49070D01*
Y49769D01*
X142491Y49778D01*
X142490Y49786D01*
Y53876D01*
X142505Y53882D01*
X142672Y53921D01*
X142888Y53955D01*
X143306Y53986D01*
X145221D01*
X145286Y53984D01*
X145639Y53956D01*
Y53758D01*
X146342D01*
X146351Y53756D01*
X146359Y53758D01*
X146367Y53756D01*
X146374Y53758D01*
X149114Y53758D01*
X149407Y53758D01*
X152590D01*
Y54977D01*
X152620Y55022D01*
X152756Y55704D01*
Y56130D01*
X152941Y56315D01*
X154081D01*
X154209Y56306D01*
X154475Y56272D01*
X154686Y56228D01*
X154837Y56181D01*
X154910Y56147D01*
Y55529D01*
X155614D01*
X155622Y55528D01*
X155631Y55529D01*
X160247D01*
Y60669D01*
X155631D01*
X155622Y60671D01*
D02*
G37*
G36*
X31973Y58674D02*
X30701D01*
Y56615D01*
X31973D01*
Y58674D01*
D02*
G37*
G36*
X187213Y58083D02*
X183382D01*
Y56517D01*
X187213D01*
Y58083D01*
D02*
G37*
G36*
X181382D02*
X177551D01*
Y56517D01*
X181382D01*
Y58083D01*
D02*
G37*
G36*
X71059Y59099D02*
X69358D01*
Y56237D01*
X71059D01*
Y59099D01*
D02*
G37*
G36*
X68358D02*
X66658D01*
Y56237D01*
X68358D01*
Y59099D01*
D02*
G37*
G36*
X71059Y55237D02*
X69358D01*
Y52375D01*
X71059D01*
Y55237D01*
D02*
G37*
G36*
X68358D02*
X66658D01*
Y52375D01*
X68358D01*
Y55237D01*
D02*
G37*
G36*
X34555Y53580D02*
X32496D01*
Y52308D01*
X34555D01*
Y53580D01*
D02*
G37*
G36*
X30496D02*
X28437D01*
Y52308D01*
X30496D01*
Y53580D01*
D02*
G37*
G36*
X60449Y53981D02*
X57890D01*
Y52210D01*
X60449D01*
Y53981D01*
D02*
G37*
G36*
X55890D02*
X53331D01*
Y52210D01*
X55890D01*
Y53981D01*
D02*
G37*
G36*
X40562Y62933D02*
X35619D01*
Y62794D01*
X35244Y62733D01*
X35219Y62733D01*
X33972D01*
Y59674D01*
Y56615D01*
X35219D01*
X35244Y56615D01*
X35619Y56554D01*
Y56415D01*
X36663D01*
X36684Y56338D01*
X36706Y56205D01*
X36714Y56113D01*
Y55395D01*
X36712Y55342D01*
X36697Y55192D01*
X36676Y55060D01*
X36652Y54957D01*
X36628Y54883D01*
X36609Y54839D01*
X36606Y54833D01*
X36601Y54830D01*
X36527Y54781D01*
X36244Y54357D01*
X36145Y53857D01*
Y52696D01*
X36244Y52196D01*
X36527Y51772D01*
X36951Y51489D01*
X37451Y51390D01*
X41053D01*
X41553Y51489D01*
X41976Y51772D01*
X42260Y52196D01*
X42359Y52696D01*
Y53857D01*
X42260Y54357D01*
X41976Y54781D01*
X41553Y55063D01*
X41053Y55163D01*
X39507D01*
X39498Y55198D01*
X39476Y55338D01*
X39467Y55437D01*
Y56113D01*
X39475Y56205D01*
X39497Y56338D01*
X39518Y56415D01*
X40562D01*
Y62933D01*
D02*
G37*
G36*
X94758Y68262D02*
X85672D01*
Y66089D01*
X85971D01*
Y62058D01*
Y57727D01*
Y53397D01*
Y49066D01*
X94458D01*
Y53397D01*
Y57727D01*
Y62058D01*
Y66089D01*
X94758D01*
Y68262D01*
D02*
G37*
G36*
X182685Y49938D02*
X181315D01*
Y48469D01*
X182685D01*
Y49938D01*
D02*
G37*
G36*
X179315D02*
X177945D01*
Y48469D01*
X179315D01*
Y49938D01*
D02*
G37*
G36*
X11982Y48609D02*
X11997Y48574D01*
X12025Y48492D01*
X12050Y48409D01*
X12070Y48325D01*
X12086Y48240D01*
X12097Y48154D01*
X12104Y48076D01*
X12338D01*
X11982Y48609D01*
D02*
G37*
G36*
X10158Y49123D02*
X8973D01*
Y48076D01*
X11840D01*
X11794Y48156D01*
X11740Y48240D01*
X11682Y48321D01*
X11620Y48399D01*
X11554Y48474D01*
X11485Y48546D01*
X11412Y48614D01*
X11336Y48678D01*
X11256Y48739D01*
X11174Y48796D01*
X11089Y48848D01*
X11002Y48897D01*
X10912Y48941D01*
X10820Y48980D01*
X10727Y49015D01*
X10632Y49045D01*
X10535Y49070D01*
X10437Y49091D01*
X10339Y49107D01*
X10240Y49118D01*
X10158Y49123D01*
D02*
G37*
G36*
X6972D02*
X5906D01*
X5789Y49120D01*
X5683Y49112D01*
X5577Y49098D01*
X5472Y49078D01*
X5368Y49053D01*
X5266Y49023D01*
X5166Y48988D01*
X5067Y48947D01*
X4971Y48901D01*
X4877Y48850D01*
X4786Y48794D01*
X4698Y48734D01*
X4614Y48669D01*
X4532Y48600D01*
X4455Y48526D01*
X4382Y48449D01*
X4312Y48368D01*
X4247Y48283D01*
X4187Y48195D01*
X4131Y48104D01*
X4116Y48076D01*
X6972D01*
Y49123D01*
D02*
G37*
G36*
X3963Y48609D02*
X3607Y48076D01*
X3841D01*
X3848Y48154D01*
X3859Y48240D01*
X3875Y48325D01*
X3895Y48409D01*
X3920Y48492D01*
X3949Y48574D01*
X3963Y48609D01*
D02*
G37*
G36*
X43740Y74189D02*
X42709Y74054D01*
X41748Y73656D01*
X40923Y73023D01*
X40290Y72197D01*
X39892Y71237D01*
X39757Y70206D01*
Y68631D01*
X39892Y67600D01*
X40290Y66639D01*
X40923Y65814D01*
X41748Y65181D01*
X41888Y65123D01*
X41890Y65118D01*
X41944Y64857D01*
X42007Y64209D01*
Y63375D01*
X42139Y62712D01*
X42515Y62149D01*
X47578Y57086D01*
Y55967D01*
X47562Y55788D01*
X47522Y55543D01*
X47473Y55355D01*
X47422Y55228D01*
X47382Y55163D01*
X47333D01*
X46833Y55063D01*
X46419Y54787D01*
X45996D01*
X45332Y54655D01*
X44770Y54279D01*
X42967Y52477D01*
X42592Y51914D01*
X42460Y51251D01*
Y47297D01*
X42429Y47269D01*
X42054Y47184D01*
X41976Y47300D01*
X41553Y47583D01*
X41053Y47683D01*
X40683D01*
X40110Y48065D01*
X39252Y48236D01*
X35816D01*
X35190Y48277D01*
X34903Y48313D01*
X34755Y48340D01*
Y48662D01*
X34616D01*
X34555Y49036D01*
X34555Y49062D01*
Y50308D01*
X31496D01*
X28437D01*
Y49062D01*
X28437Y49036D01*
X28376Y48662D01*
X28237D01*
Y43718D01*
X34035D01*
X34043Y43716D01*
X34051Y43718D01*
X34058Y43717D01*
X34132Y43718D01*
X34755D01*
Y43731D01*
X35647Y43750D01*
X38855D01*
X38875Y43625D01*
X38886Y43497D01*
Y41456D01*
X38998Y40890D01*
X39318Y40411D01*
X43686Y36043D01*
Y27104D01*
X42902Y26320D01*
X42854D01*
X42198Y26049D01*
X41696Y25547D01*
X41425Y24891D01*
Y24181D01*
X41696Y23526D01*
X42198Y23024D01*
X42854Y22752D01*
X43564D01*
X44219Y23024D01*
X44721Y23526D01*
X44993Y24181D01*
Y24230D01*
X46209Y25446D01*
X46530Y25926D01*
X46643Y26492D01*
Y35177D01*
X55153D01*
Y34145D01*
X55143Y34097D01*
Y32710D01*
X55137Y32563D01*
X55110Y32312D01*
X55073Y32106D01*
X55033Y31958D01*
X55027Y31942D01*
X54503D01*
Y31239D01*
X54501Y31230D01*
X54503Y31222D01*
Y29251D01*
X54133Y29098D01*
X53860Y29372D01*
X53628Y29526D01*
X53355Y29581D01*
X51446D01*
X51440Y29579D01*
X51434Y29581D01*
X51304Y29552D01*
X51173Y29526D01*
X51168Y29523D01*
X51162Y29522D01*
X51052Y29446D01*
X50941Y29372D01*
X50938Y29367D01*
X50933Y29363D01*
X43014Y21177D01*
X42942Y21064D01*
X42868Y20954D01*
X42867Y20948D01*
X42864Y20943D01*
X42840Y20811D01*
X42814Y20680D01*
Y17675D01*
X42234D01*
Y14116D01*
Y10557D01*
X43506D01*
X43506Y10557D01*
Y10557D01*
X43906Y10605D01*
X43914Y10598D01*
X43950Y10587D01*
X43982Y10566D01*
X44082Y10546D01*
X44180Y10515D01*
X44218Y10519D01*
X44255Y10512D01*
X47614D01*
X47887Y10566D01*
X48119Y10721D01*
X48256Y10857D01*
X48324D01*
Y10926D01*
X54625Y17227D01*
X56201Y18803D01*
X58143D01*
X58416Y18857D01*
X58647Y19012D01*
X60137Y20501D01*
X60291Y20733D01*
X60316Y20857D01*
X85155D01*
X85318Y20844D01*
X85559Y20806D01*
X85746Y20758D01*
X85874Y20708D01*
X85945Y20667D01*
X85965Y20650D01*
X85971Y20589D01*
Y20109D01*
X84840D01*
Y20328D01*
X78322D01*
Y20109D01*
X77163D01*
Y20427D01*
X70645D01*
Y20109D01*
X69535D01*
Y20328D01*
X64918D01*
X64910Y20330D01*
X64901Y20328D01*
X64198D01*
Y19674D01*
X64197Y19667D01*
X64124Y19629D01*
X63991Y19582D01*
X63799Y19537D01*
X63552Y19502D01*
X63408Y19491D01*
X61923D01*
X61259Y19359D01*
X60697Y18984D01*
X60038Y18324D01*
X59914Y18273D01*
X59413Y17771D01*
X59141Y17116D01*
Y16406D01*
X59413Y15750D01*
X59914Y15248D01*
X60570Y14976D01*
X61280D01*
X61936Y15248D01*
X62438Y15750D01*
X62489Y15873D01*
X62641Y16025D01*
X63408D01*
X63552Y16014D01*
X63799Y15979D01*
X63991Y15934D01*
X64124Y15887D01*
X64197Y15849D01*
X64198Y15842D01*
Y15188D01*
X64901D01*
X64910Y15186D01*
X64918Y15188D01*
X69535D01*
Y15623D01*
X70645D01*
Y15483D01*
X70784D01*
X70845Y15109D01*
X70845Y15083D01*
Y13837D01*
X73904D01*
X76963D01*
Y15083D01*
X76963Y15109D01*
X77024Y15483D01*
X77163D01*
Y15623D01*
X78322D01*
Y15385D01*
X78461D01*
X78522Y15010D01*
X78522Y14985D01*
Y13738D01*
X81581D01*
X84640D01*
Y14985D01*
X84640Y15010D01*
X84701Y15385D01*
X84840D01*
Y15623D01*
X85672D01*
Y14144D01*
X94758D01*
Y16317D01*
X94458D01*
Y19932D01*
Y24263D01*
Y28594D01*
Y32924D01*
Y37255D01*
Y42001D01*
X85971D01*
Y41615D01*
X85571Y41449D01*
X80337Y46684D01*
Y52328D01*
X80339Y52381D01*
X80356Y52562D01*
X80374Y52675D01*
X80759D01*
Y53378D01*
X80761Y53387D01*
X80759Y53395D01*
Y58799D01*
X76957D01*
Y53395D01*
X76956Y53387D01*
X76957Y53378D01*
Y52675D01*
X77343D01*
X77359Y52570D01*
X77380Y52287D01*
Y46072D01*
X77429Y45827D01*
X77060Y45630D01*
X75730Y46960D01*
Y52675D01*
X75759D01*
Y53378D01*
X75761Y53387D01*
X75759Y53395D01*
Y58799D01*
X71957D01*
Y52675D01*
X72681D01*
X72704Y52618D01*
X72736Y52500D01*
X72764Y52337D01*
X72774Y52222D01*
Y46347D01*
X72886Y45781D01*
X73207Y45302D01*
X84255Y34254D01*
X84734Y33933D01*
X85300Y33821D01*
X85641D01*
X85720Y33814D01*
X85873Y33791D01*
X85971Y33767D01*
Y32392D01*
X85902Y32374D01*
X85767Y32351D01*
X85673Y32343D01*
X85449D01*
X85312Y32479D01*
X84657Y32751D01*
X83947D01*
X83291Y32479D01*
X82789Y31977D01*
X82517Y31322D01*
Y30612D01*
X82789Y29956D01*
X83291Y29454D01*
X83947Y29182D01*
X84657D01*
X85312Y29454D01*
X85436Y29577D01*
X85589Y29582D01*
X85971Y29296D01*
Y27996D01*
X85902Y27977D01*
X85767Y27955D01*
X85673Y27947D01*
X83857D01*
X83786Y28017D01*
X83131Y28289D01*
X82421D01*
X81765Y28017D01*
X81263Y27516D01*
X80991Y26860D01*
Y26150D01*
X81263Y25494D01*
X81765Y24992D01*
X82421Y24721D01*
X82412Y24324D01*
X60346D01*
Y24549D01*
X60291Y24823D01*
X60137Y25054D01*
X58912Y26279D01*
X58680Y26434D01*
X58407Y26488D01*
X54864D01*
X54736Y26617D01*
Y27196D01*
X59249D01*
Y31222D01*
X59251Y31230D01*
X59249Y31239D01*
Y31942D01*
X58726D01*
X58719Y31958D01*
X58679Y32106D01*
X58644Y32302D01*
X58609Y32723D01*
Y34097D01*
X58600Y34145D01*
Y35004D01*
X58600Y35348D01*
X58600D01*
Y35405D01*
X58600Y35405D01*
Y36214D01*
X61192Y38806D01*
X62474D01*
X63039Y38918D01*
X63519Y39239D01*
X64904Y40624D01*
X65224Y41103D01*
X65337Y41669D01*
Y52675D01*
X65759D01*
Y58799D01*
X61958D01*
Y52675D01*
X62380D01*
Y42281D01*
X61861Y41763D01*
X60580D01*
X60014Y41650D01*
X59534Y41330D01*
X56339Y38134D01*
X45777D01*
X41842Y42068D01*
Y43448D01*
X41865Y43699D01*
X41890Y43850D01*
X41924Y43998D01*
X41964Y44137D01*
X42010Y44265D01*
X42062Y44384D01*
X42120Y44495D01*
X42197Y44619D01*
X42198Y44624D01*
X42260Y44716D01*
X42291Y44873D01*
X42294Y44880D01*
X42293Y44885D01*
X42359Y45215D01*
Y46237D01*
X42759Y46359D01*
X42967Y46047D01*
X44496Y44519D01*
X45058Y44143D01*
X45721Y44011D01*
X46830D01*
X46833Y44009D01*
X46994Y43977D01*
X46999Y43966D01*
X47039Y43848D01*
X47075Y43688D01*
X47096Y43485D01*
X46936Y43100D01*
Y42390D01*
X47208Y41734D01*
X47710Y41232D01*
X48366Y40961D01*
X49075D01*
X49731Y41232D01*
X50233Y41734D01*
X50398Y42132D01*
X50450Y42210D01*
X50468Y42301D01*
X50505Y42390D01*
Y42486D01*
X50582Y42873D01*
Y43344D01*
X50589Y43439D01*
X50619Y43652D01*
X50657Y43816D01*
X50690Y43910D01*
X50935D01*
X51435Y44009D01*
X51455Y44023D01*
X52468Y44082D01*
X53089D01*
X53231Y44110D01*
X53631Y43874D01*
Y43620D01*
X60149D01*
Y48438D01*
X60449D01*
Y50209D01*
X56890D01*
X53331D01*
Y48438D01*
X53631D01*
Y47605D01*
X53591Y47602D01*
X53142D01*
X52875Y47549D01*
X52341D01*
X52339Y47550D01*
X52163Y47949D01*
X52424Y48339D01*
X52463Y48536D01*
X49134D01*
Y50536D01*
X52463D01*
X52424Y50734D01*
X52075Y51257D01*
X51858Y51401D01*
Y51772D01*
X52141Y52196D01*
X52241Y52696D01*
Y53857D01*
X52141Y54357D01*
X51858Y54781D01*
X51435Y55063D01*
X51227Y55105D01*
X51208Y55139D01*
X51152Y55287D01*
X51101Y55493D01*
X51060Y55756D01*
X51044Y55945D01*
Y57804D01*
X50912Y58467D01*
X50537Y59030D01*
X45474Y64093D01*
Y64261D01*
X45491Y64509D01*
X45534Y64846D01*
X45590Y65118D01*
X45592Y65123D01*
X45732Y65181D01*
X46557Y65814D01*
X47190Y66639D01*
X47588Y67600D01*
X47724Y68631D01*
Y70206D01*
X47588Y71237D01*
X47190Y72197D01*
X46557Y73023D01*
X45732Y73656D01*
X44771Y74054D01*
X43740Y74189D01*
D02*
G37*
G36*
X3839Y46076D02*
X3607D01*
X3839Y45729D01*
Y46076D01*
D02*
G37*
G36*
X11829D02*
X8973D01*
Y45043D01*
X10158Y45048D01*
X10240Y45053D01*
X10339Y45064D01*
X10437Y45080D01*
X10535Y45101D01*
X10632Y45126D01*
X10727Y45156D01*
X10820Y45191D01*
X10912Y45230D01*
X11002Y45274D01*
X11089Y45323D01*
X11174Y45375D01*
X11256Y45432D01*
X11336Y45493D01*
X11412Y45557D01*
X11485Y45625D01*
X11554Y45697D01*
X11620Y45772D01*
X11682Y45850D01*
X11740Y45931D01*
X11794Y46015D01*
X11829Y46076D01*
D02*
G37*
G36*
X6972D02*
X4115D01*
X4136Y46038D01*
X4189Y45952D01*
X4247Y45869D01*
X4309Y45789D01*
X4375Y45711D01*
X4444Y45638D01*
X4517Y45567D01*
X4594Y45501D01*
X4673Y45438D01*
X4756Y45379D01*
X4842Y45324D01*
X4930Y45274D01*
X5020Y45228D01*
X5113Y45187D01*
X5207Y45150D01*
X5303Y45118D01*
X5401Y45091D01*
X5500Y45068D01*
X5600Y45051D01*
X5701Y45038D01*
X5802Y45031D01*
X5886Y45028D01*
X6972Y45033D01*
Y46076D01*
D02*
G37*
G36*
X182685Y46469D02*
X181315D01*
Y45001D01*
X182685D01*
Y46469D01*
D02*
G37*
G36*
X179315D02*
X177945D01*
Y45001D01*
X179315D01*
Y46469D01*
D02*
G37*
G36*
X174666Y53486D02*
X173956D01*
X173300Y53214D01*
X172799Y52712D01*
X172527Y52056D01*
Y51347D01*
X172799Y50691D01*
X172807Y50683D01*
Y50138D01*
X171446D01*
Y44801D01*
X172590D01*
X172609Y44732D01*
X172631Y44596D01*
X172639Y44502D01*
Y42028D01*
X171446D01*
X171437Y42029D01*
X171429Y42028D01*
X170725D01*
Y41573D01*
X170712Y41571D01*
X170659Y41567D01*
X170066D01*
X170010Y41572D01*
X169991Y41575D01*
Y42136D01*
X164654D01*
Y36996D01*
X169991D01*
Y38714D01*
X170025Y38741D01*
X170425Y38550D01*
Y37969D01*
X172016D01*
Y37469D01*
X172516D01*
Y35485D01*
X173516D01*
Y37469D01*
X174516D01*
Y35485D01*
X175606D01*
Y35785D01*
X177306D01*
X177450Y35639D01*
Y35639D01*
X181212D01*
Y39573D01*
X181225Y39575D01*
X181284Y39581D01*
X181705D01*
X181762Y39575D01*
X181780Y39572D01*
Y38699D01*
X187117D01*
Y43839D01*
X181780D01*
Y42035D01*
X181762Y42033D01*
X181705Y42028D01*
X181283D01*
X181225Y42033D01*
X181212Y42035D01*
Y42567D01*
X177450D01*
Y42368D01*
X177306Y42028D01*
X175446D01*
X175437Y42029D01*
X175392Y42415D01*
Y44502D01*
X175400Y44596D01*
X175423Y44731D01*
X175441Y44801D01*
X176586D01*
Y50138D01*
X175828D01*
X175671Y50538D01*
X175824Y50691D01*
X176095Y51347D01*
Y52056D01*
X175824Y52712D01*
X175322Y53214D01*
X174666Y53486D01*
D02*
G37*
G36*
X22973Y41988D02*
Y41481D01*
X23380D01*
X23097Y41905D01*
X22973Y41988D01*
D02*
G37*
G36*
X21949Y42036D02*
X21099Y42027D01*
Y41481D01*
X22894D01*
X22873Y41508D01*
X22846Y41541D01*
X22818Y41572D01*
X22790Y41603D01*
X22760Y41633D01*
X22730Y41662D01*
X22699Y41690D01*
X22667Y41718D01*
X22634Y41744D01*
X22600Y41770D01*
X22566Y41794D01*
X22531Y41818D01*
X22496Y41840D01*
X22459Y41861D01*
X22422Y41882D01*
X22385Y41901D01*
X22347Y41919D01*
X22308Y41936D01*
X22269Y41952D01*
X22230Y41967D01*
X22190Y41980D01*
X22150Y41993D01*
X22109Y42004D01*
X22069Y42014D01*
X22027Y42023D01*
X21986Y42031D01*
X21949Y42036D01*
D02*
G37*
G36*
X19098Y42007D02*
X18169Y41997D01*
X18124Y41984D01*
X18083Y41971D01*
X18044Y41958D01*
X18004Y41942D01*
X17965Y41926D01*
X17926Y41909D01*
X17888Y41890D01*
X17851Y41871D01*
X17814Y41850D01*
X17777Y41829D01*
X17742Y41806D01*
X17706Y41782D01*
X17672Y41757D01*
X17639Y41732D01*
X17606Y41705D01*
X17574Y41677D01*
X17543Y41649D01*
X17512Y41619D01*
X17483Y41589D01*
X17454Y41557D01*
X17426Y41525D01*
X17400Y41493D01*
X17391Y41481D01*
X19098D01*
Y42007D01*
D02*
G37*
G36*
X17224Y41988D02*
X17100Y41905D01*
X16817Y41481D01*
X17224D01*
Y41988D01*
D02*
G37*
G36*
X142790Y42301D02*
X138746D01*
Y40128D01*
X142790D01*
Y42301D01*
D02*
G37*
G36*
X137746D02*
X133703D01*
Y40128D01*
X137746D01*
Y42301D01*
D02*
G37*
G36*
X23380Y39481D02*
X22973D01*
Y38974D01*
X23097Y39057D01*
X23380Y39481D01*
D02*
G37*
G36*
X17224D02*
X16817D01*
X17100Y39057D01*
X17224Y38974D01*
Y39481D01*
D02*
G37*
G36*
X22826D02*
X21099D01*
Y38955D01*
X22067Y38965D01*
X22095Y38972D01*
X22130Y38981D01*
X22164Y38991D01*
X22198Y39002D01*
X22232Y39014D01*
X22266Y39027D01*
X22299Y39041D01*
X22331Y39055D01*
X22363Y39071D01*
X22395Y39088D01*
X22426Y39105D01*
X22457Y39124D01*
X22487Y39143D01*
X22516Y39164D01*
X22545Y39185D01*
X22573Y39207D01*
X22601Y39230D01*
X22628Y39253D01*
X22654Y39277D01*
X22680Y39302D01*
X22704Y39328D01*
X22728Y39355D01*
X22751Y39382D01*
X22774Y39410D01*
X22796Y39438D01*
X22816Y39467D01*
X22826Y39481D01*
D02*
G37*
G36*
X19098D02*
X17328D01*
X17341Y39464D01*
X17368Y39431D01*
X17396Y39399D01*
X17425Y39367D01*
X17455Y39336D01*
X17485Y39307D01*
X17517Y39278D01*
X17549Y39250D01*
X17583Y39223D01*
X17617Y39197D01*
X17651Y39171D01*
X17687Y39147D01*
X17723Y39124D01*
X17760Y39102D01*
X17797Y39081D01*
X17835Y39062D01*
X17874Y39043D01*
X17913Y39026D01*
X17952Y39009D01*
X17992Y38994D01*
X18033Y38980D01*
X18074Y38967D01*
X18115Y38955D01*
X18157Y38945D01*
X18198Y38935D01*
X18248Y38926D01*
X19098Y38935D01*
Y39481D01*
D02*
G37*
G36*
X23136Y37239D02*
X20291D01*
Y37052D01*
X23136D01*
Y37239D01*
D02*
G37*
G36*
X18291D02*
X15447D01*
Y37052D01*
X18291D01*
Y37239D01*
D02*
G37*
G36*
X171516Y36969D02*
X170425D01*
Y35485D01*
X171516D01*
Y36969D01*
D02*
G37*
G36*
X80559Y36749D02*
X79858D01*
Y34887D01*
X80559D01*
Y36749D01*
D02*
G37*
G36*
X77858D02*
X77157D01*
Y34887D01*
X77858D01*
Y36749D01*
D02*
G37*
G36*
X75559D02*
X74858D01*
Y34887D01*
X75559D01*
Y36749D01*
D02*
G37*
G36*
X72858D02*
X72158D01*
Y34887D01*
X72858D01*
Y36749D01*
D02*
G37*
G36*
X70559D02*
X69858D01*
Y34887D01*
X70559D01*
Y36749D01*
D02*
G37*
G36*
X67858D02*
X67158D01*
Y34887D01*
X67858D01*
Y36749D01*
D02*
G37*
G36*
X65559D02*
X64858D01*
Y34887D01*
X65559D01*
Y36749D01*
D02*
G37*
G36*
X62858D02*
X62157D01*
Y34887D01*
X62858D01*
Y36749D01*
D02*
G37*
G36*
X80559Y32887D02*
X79858D01*
Y31025D01*
X80559D01*
Y32887D01*
D02*
G37*
G36*
X77858D02*
X77157D01*
Y31025D01*
X77858D01*
Y32887D01*
D02*
G37*
G36*
X75559D02*
X74858D01*
Y31025D01*
X75559D01*
Y32887D01*
D02*
G37*
G36*
X72858D02*
X72158D01*
Y31025D01*
X72858D01*
Y32887D01*
D02*
G37*
G36*
X70559D02*
X69858D01*
Y31025D01*
X70559D01*
Y32887D01*
D02*
G37*
G36*
X67858D02*
X67158D01*
Y31025D01*
X67858D01*
Y32887D01*
D02*
G37*
G36*
X65559D02*
X64858D01*
Y31025D01*
X65559D01*
Y32887D01*
D02*
G37*
G36*
X62858D02*
X62157D01*
Y31025D01*
X62858D01*
Y32887D01*
D02*
G37*
G36*
X39187Y35454D02*
X37340D01*
Y28883D01*
X39187D01*
Y35454D01*
D02*
G37*
G36*
X33340D02*
X31494D01*
Y28883D01*
X33340D01*
Y35454D01*
D02*
G37*
G36*
X195547Y31813D02*
Y27367D01*
X199994D01*
X199691Y28497D01*
X198964Y29756D01*
X197936Y30784D01*
X196678Y31510D01*
X195547Y31813D01*
D02*
G37*
G36*
X175547D02*
Y27367D01*
X179994D01*
X179691Y28497D01*
X178964Y29756D01*
X177936Y30784D01*
X176678Y31510D01*
X175547Y31813D01*
D02*
G37*
G36*
X193547Y31813D02*
X192417Y31510D01*
X191158Y30784D01*
X190130Y29756D01*
X189404Y28497D01*
X189101Y27367D01*
X193547D01*
Y31813D01*
D02*
G37*
G36*
X173547D02*
X172417Y31510D01*
X171158Y30784D01*
X170131Y29756D01*
X169404Y28497D01*
X169101Y27367D01*
X173547D01*
Y31813D01*
D02*
G37*
G36*
X23136Y35052D02*
X19291D01*
X15447D01*
Y34980D01*
X15146D01*
Y32006D01*
Y29447D01*
Y26888D01*
Y24328D01*
X22716D01*
X22724Y24327D01*
X22733Y24328D01*
X23436D01*
Y24427D01*
X23622Y24439D01*
X24148D01*
X24285Y24303D01*
X24940Y24032D01*
X25650D01*
X26306Y24303D01*
X26808Y24805D01*
X27080Y25461D01*
Y26171D01*
X27053Y26235D01*
X27262Y26697D01*
X27434Y26764D01*
X28090Y26492D01*
X28800D01*
X29456Y26764D01*
X29958Y27266D01*
X30229Y27922D01*
Y28631D01*
X29958Y29287D01*
X29577Y29667D01*
X29842Y29932D01*
X30113Y30588D01*
Y31297D01*
X29842Y31953D01*
X29340Y32455D01*
X28684Y32727D01*
X27974D01*
X27318Y32455D01*
X27276Y32412D01*
X23436D01*
Y34980D01*
X23136D01*
Y35052D01*
D02*
G37*
G36*
X159016Y27895D02*
X158307D01*
X157651Y27624D01*
X157149Y27122D01*
X156877Y26466D01*
Y25756D01*
X156986Y25493D01*
Y25095D01*
X156976Y24979D01*
X156976Y24978D01*
X156800Y24647D01*
X156792Y24646D01*
X156091D01*
Y24209D01*
X155709Y24150D01*
X155660Y24155D01*
X155495Y24182D01*
X155375Y24214D01*
X155326Y24234D01*
Y25433D01*
X150580D01*
Y20687D01*
X154608D01*
X154617Y20685D01*
X154625Y20687D01*
X155326D01*
Y21124D01*
X155709Y21182D01*
X155757Y21178D01*
X155922Y21150D01*
X156042Y21118D01*
X156091Y21098D01*
Y19899D01*
X160838D01*
Y24646D01*
X160285D01*
X160119Y25046D01*
X160174Y25100D01*
X160446Y25756D01*
Y26466D01*
X160174Y27122D01*
X159672Y27624D01*
X159016Y27895D01*
D02*
G37*
G36*
X22973Y22894D02*
Y22387D01*
X23380D01*
X23097Y22810D01*
X22973Y22894D01*
D02*
G37*
G36*
X21099Y22912D02*
Y22387D01*
X22826D01*
X22816Y22400D01*
X22796Y22430D01*
X22774Y22458D01*
X22751Y22486D01*
X22728Y22513D01*
X22704Y22540D01*
X22680Y22565D01*
X22654Y22591D01*
X22628Y22615D01*
X22601Y22638D01*
X22573Y22661D01*
X22545Y22683D01*
X22516Y22704D01*
X22487Y22724D01*
X22457Y22744D01*
X22426Y22762D01*
X22395Y22780D01*
X22363Y22797D01*
X22331Y22812D01*
X22299Y22827D01*
X22266Y22841D01*
X22232Y22854D01*
X22198Y22866D01*
X22164Y22877D01*
X22130Y22887D01*
X22095Y22896D01*
X22067Y22902D01*
X21099Y22912D01*
D02*
G37*
G36*
X18248Y22942D02*
X18198Y22932D01*
X18157Y22923D01*
X18115Y22913D01*
X18074Y22901D01*
X18033Y22888D01*
X17992Y22874D01*
X17952Y22859D01*
X17913Y22842D01*
X17874Y22825D01*
X17835Y22806D01*
X17797Y22786D01*
X17760Y22765D01*
X17723Y22743D01*
X17687Y22720D01*
X17651Y22696D01*
X17617Y22671D01*
X17583Y22645D01*
X17549Y22618D01*
X17517Y22590D01*
X17485Y22561D01*
X17455Y22531D01*
X17425Y22501D01*
X17396Y22469D01*
X17368Y22437D01*
X17341Y22403D01*
X17328Y22387D01*
X19098D01*
Y22933D01*
X18248Y22942D01*
D02*
G37*
G36*
X17224Y22894D02*
X17100Y22810D01*
X16817Y22387D01*
X17224D01*
Y22894D01*
D02*
G37*
G36*
X199994Y25367D02*
X195547D01*
Y20921D01*
X196678Y21224D01*
X197936Y21950D01*
X198964Y22978D01*
X199691Y24237D01*
X199994Y25367D01*
D02*
G37*
G36*
X179994D02*
X175547D01*
Y20921D01*
X176678Y21224D01*
X177936Y21950D01*
X178964Y22978D01*
X179691Y24237D01*
X179994Y25367D01*
D02*
G37*
G36*
X193547D02*
X189101D01*
X189404Y24237D01*
X190130Y22978D01*
X191158Y21950D01*
X192417Y21224D01*
X193547Y20921D01*
Y25367D01*
D02*
G37*
G36*
X173547D02*
X169101D01*
X169404Y24237D01*
X170131Y22978D01*
X171158Y21950D01*
X172417Y21224D01*
X173547Y20921D01*
Y25367D01*
D02*
G37*
G36*
X23380Y20387D02*
X22973D01*
Y19880D01*
X23097Y19963D01*
X23380Y20387D01*
D02*
G37*
G36*
X17224D02*
X16817D01*
X17100Y19963D01*
X17224Y19880D01*
Y20387D01*
D02*
G37*
G36*
X19098D02*
X17391D01*
X17400Y20375D01*
X17426Y20342D01*
X17454Y20310D01*
X17483Y20279D01*
X17512Y20249D01*
X17543Y20219D01*
X17574Y20191D01*
X17606Y20163D01*
X17639Y20136D01*
X17672Y20111D01*
X17706Y20086D01*
X17742Y20062D01*
X17777Y20039D01*
X17814Y20018D01*
X17851Y19997D01*
X17888Y19977D01*
X17926Y19959D01*
X17965Y19942D01*
X18004Y19925D01*
X18044Y19910D01*
X18083Y19896D01*
X18124Y19884D01*
X18169Y19871D01*
X19098Y19861D01*
Y20387D01*
D02*
G37*
G36*
X22894D02*
X21099D01*
Y19840D01*
X21949Y19832D01*
X21986Y19837D01*
X22027Y19845D01*
X22069Y19854D01*
X22109Y19864D01*
X22150Y19875D01*
X22190Y19888D01*
X22230Y19901D01*
X22269Y19916D01*
X22308Y19932D01*
X22347Y19949D01*
X22385Y19967D01*
X22422Y19986D01*
X22459Y20007D01*
X22496Y20028D01*
X22531Y20050D01*
X22566Y20074D01*
X22600Y20098D01*
X22634Y20124D01*
X22667Y20150D01*
X22699Y20177D01*
X22730Y20206D01*
X22760Y20235D01*
X22790Y20265D01*
X22818Y20296D01*
X22846Y20327D01*
X22873Y20360D01*
X22894Y20387D01*
D02*
G37*
G36*
X142790Y39128D02*
X133703D01*
Y36955D01*
X134003D01*
Y32924D01*
Y28594D01*
Y24263D01*
Y19932D01*
Y15601D01*
Y11271D01*
X142490D01*
Y15601D01*
Y20839D01*
X142510Y20844D01*
X142631Y20864D01*
X142712Y20872D01*
X144139D01*
X144219Y20865D01*
X144337Y20845D01*
X144365Y20837D01*
Y19814D01*
X148915D01*
Y24364D01*
X144365D01*
Y23557D01*
X144337Y23549D01*
X144219Y23530D01*
X144139Y23523D01*
X142712D01*
X142631Y23530D01*
X142510Y23550D01*
X142490Y23555D01*
Y29334D01*
X142537Y29353D01*
X142657Y29385D01*
X142823Y29412D01*
X142939Y29423D01*
X146002D01*
X146568Y29535D01*
X146727Y29642D01*
X147009D01*
X147664Y29913D01*
X148166Y30415D01*
X148438Y31071D01*
Y31781D01*
X148166Y32437D01*
X147664Y32939D01*
X147009Y33210D01*
X146557D01*
X146477Y33610D01*
X146582Y33654D01*
X147083Y34155D01*
X147355Y34811D01*
Y35521D01*
X147083Y36177D01*
X146582Y36679D01*
X145926Y36950D01*
X145216D01*
X144794Y36776D01*
X143115D01*
X142790Y36955D01*
Y39128D01*
D02*
G37*
G36*
X39187Y24883D02*
X37340D01*
Y18312D01*
X39187D01*
Y24883D01*
D02*
G37*
G36*
X33340D02*
X31494D01*
Y18312D01*
X33340D01*
Y24883D01*
D02*
G37*
G36*
X160838Y17953D02*
X156091D01*
Y16944D01*
X156071Y16939D01*
X155950Y16919D01*
X155868Y16912D01*
X149138D01*
X149056Y16919D01*
X148935Y16939D01*
X148915Y16944D01*
Y17867D01*
X144365D01*
Y13318D01*
X148915D01*
Y14228D01*
X148935Y14234D01*
X149056Y14254D01*
X149138Y14261D01*
X155868D01*
X155950Y14254D01*
X156071Y14234D01*
X156091Y14228D01*
Y13206D01*
X160838D01*
Y17953D01*
D02*
G37*
G36*
X8973Y16825D02*
Y15792D01*
X11829D01*
X11794Y15853D01*
X11740Y15936D01*
X11682Y16018D01*
X11620Y16096D01*
X11554Y16171D01*
X11485Y16243D01*
X11412Y16311D01*
X11336Y16375D01*
X11256Y16436D01*
X11174Y16493D01*
X11089Y16545D01*
X11002Y16593D01*
X10912Y16637D01*
X10820Y16677D01*
X10727Y16712D01*
X10632Y16742D01*
X10535Y16767D01*
X10437Y16788D01*
X10339Y16804D01*
X10240Y16815D01*
X10158Y16820D01*
X8973Y16825D01*
D02*
G37*
G36*
X5886Y16839D02*
X5802Y16837D01*
X5701Y16829D01*
X5600Y16817D01*
X5500Y16800D01*
X5401Y16777D01*
X5303Y16750D01*
X5207Y16718D01*
X5113Y16681D01*
X5020Y16640D01*
X4930Y16594D01*
X4842Y16543D01*
X4756Y16489D01*
X4673Y16430D01*
X4594Y16367D01*
X4517Y16301D01*
X4444Y16230D01*
X4375Y16156D01*
X4309Y16079D01*
X4247Y15999D01*
X4189Y15915D01*
X4136Y15829D01*
X4115Y15792D01*
X6972D01*
Y16834D01*
X5886Y16839D01*
D02*
G37*
G36*
X3839Y16139D02*
X3607Y15792D01*
X3839D01*
Y16139D01*
D02*
G37*
G36*
X39234Y17675D02*
X37963D01*
Y15616D01*
X39234D01*
Y17675D01*
D02*
G37*
G36*
X12338Y13792D02*
X12104D01*
X12097Y13714D01*
X12086Y13628D01*
X12070Y13543D01*
X12050Y13459D01*
X12025Y13376D01*
X11997Y13294D01*
X11982Y13259D01*
X12338Y13792D01*
D02*
G37*
G36*
X3841D02*
X3607D01*
X3963Y13259D01*
X3949Y13294D01*
X3920Y13376D01*
X3895Y13459D01*
X3875Y13543D01*
X3859Y13628D01*
X3848Y13714D01*
X3841Y13792D01*
D02*
G37*
G36*
X11840D02*
X8973D01*
Y12745D01*
X10158D01*
X10240Y12750D01*
X10339Y12761D01*
X10437Y12777D01*
X10535Y12798D01*
X10632Y12823D01*
X10727Y12853D01*
X10820Y12888D01*
X10912Y12927D01*
X11002Y12971D01*
X11089Y13019D01*
X11174Y13072D01*
X11256Y13129D01*
X11336Y13189D01*
X11412Y13254D01*
X11485Y13322D01*
X11554Y13394D01*
X11620Y13469D01*
X11682Y13547D01*
X11740Y13628D01*
X11794Y13712D01*
X11840Y13792D01*
D02*
G37*
G36*
X6972D02*
X4116D01*
X4131Y13764D01*
X4187Y13673D01*
X4247Y13585D01*
X4312Y13500D01*
X4382Y13419D01*
X4455Y13342D01*
X4532Y13268D01*
X4614Y13199D01*
X4698Y13134D01*
X4786Y13074D01*
X4877Y13018D01*
X4971Y12967D01*
X5067Y12921D01*
X5166Y12880D01*
X5266Y12845D01*
X5368Y12814D01*
X5472Y12789D01*
X5577Y12770D01*
X5683Y12756D01*
X5789Y12748D01*
X5906Y12745D01*
X6972D01*
Y13792D01*
D02*
G37*
G36*
X69335Y13829D02*
X67866D01*
Y12459D01*
X69335D01*
Y13829D01*
D02*
G37*
G36*
X65866D02*
X64398D01*
Y12459D01*
X65866D01*
Y13829D01*
D02*
G37*
G36*
X187117Y37539D02*
X181780D01*
Y32399D01*
X182535D01*
X182540Y32395D01*
X182565Y32368D01*
X182608Y32297D01*
X182660Y32170D01*
X182710Y31985D01*
X182749Y31745D01*
X182765Y31571D01*
Y25189D01*
X182764Y25164D01*
X182705Y24394D01*
X182606Y23673D01*
X182470Y23002D01*
X182297Y22382D01*
X182088Y21812D01*
X181843Y21290D01*
X181565Y20816D01*
X181399Y20588D01*
X181336Y20551D01*
X180363Y19578D01*
X179674Y18385D01*
X179318Y17055D01*
Y15679D01*
X179674Y14349D01*
X180363Y13156D01*
X181336Y12183D01*
X182529Y11494D01*
X183859Y11138D01*
X185236D01*
X186566Y11494D01*
X187758Y12183D01*
X188732Y13156D01*
X189420Y14349D01*
X189776Y15679D01*
Y17055D01*
X189420Y18385D01*
X188732Y19578D01*
X187758Y20551D01*
X187627Y20627D01*
X187443Y20871D01*
X187163Y21335D01*
X186916Y21848D01*
X186705Y22412D01*
X186530Y23027D01*
X186392Y23694D01*
X186293Y24414D01*
X186232Y25185D01*
X186231Y25220D01*
Y31594D01*
X186244Y31749D01*
X186281Y31993D01*
X186327Y32182D01*
X186375Y32312D01*
X186415Y32384D01*
X186424Y32395D01*
X186461Y32399D01*
X187117D01*
Y33101D01*
X187119Y33109D01*
X187117Y33118D01*
Y37539D01*
D02*
G37*
G36*
X94758Y13144D02*
X90715D01*
Y10971D01*
X94758D01*
Y13144D01*
D02*
G37*
G36*
X89715D02*
X85672D01*
Y10971D01*
X89715D01*
Y13144D01*
D02*
G37*
G36*
X76963Y11837D02*
X74904D01*
Y10565D01*
X76963D01*
Y11837D01*
D02*
G37*
G36*
X72904D02*
X70845D01*
Y10565D01*
X72904D01*
Y11837D01*
D02*
G37*
G36*
X39234Y12616D02*
X37963D01*
Y10557D01*
X39234D01*
Y12616D01*
D02*
G37*
G36*
X84640Y11738D02*
X82581D01*
Y10467D01*
X84640D01*
Y11738D01*
D02*
G37*
G36*
X80581D02*
X78522D01*
Y10467D01*
X80581D01*
Y11738D01*
D02*
G37*
G36*
X69335Y10459D02*
X67866D01*
Y9089D01*
X69335D01*
Y10459D01*
D02*
G37*
G36*
X65866D02*
X64398D01*
Y9089D01*
X65866D01*
Y10459D01*
D02*
G37*
G36*
X195547Y11813D02*
Y7367D01*
X199994D01*
X199691Y8497D01*
X198964Y9756D01*
X197936Y10784D01*
X196678Y11511D01*
X195547Y11813D01*
D02*
G37*
G36*
X175547D02*
Y7367D01*
X179994D01*
X179691Y8497D01*
X178964Y9756D01*
X177936Y10784D01*
X176678Y11511D01*
X175547Y11813D01*
D02*
G37*
G36*
X193547Y11813D02*
X192417Y11511D01*
X191158Y10784D01*
X190130Y9756D01*
X189404Y8497D01*
X189101Y7367D01*
X193547D01*
Y11813D01*
D02*
G37*
G36*
X173547D02*
X172417Y11511D01*
X171158Y10784D01*
X170131Y9756D01*
X169404Y8497D01*
X169101Y7367D01*
X173547D01*
Y11813D01*
D02*
G37*
G36*
X199994Y5367D02*
X195547D01*
Y920D01*
X196678Y1223D01*
X197936Y1950D01*
X198964Y2978D01*
X199691Y4236D01*
X199994Y5367D01*
D02*
G37*
G36*
X179994D02*
X175547D01*
Y920D01*
X176678Y1223D01*
X177936Y1950D01*
X178964Y2978D01*
X179691Y4236D01*
X179994Y5367D01*
D02*
G37*
G36*
X193547D02*
X189101D01*
X189404Y4236D01*
X190130Y2978D01*
X191158Y1950D01*
X192417Y1223D01*
X193547Y920D01*
Y5367D01*
D02*
G37*
G36*
X173547D02*
X169101D01*
X169404Y4236D01*
X170131Y2978D01*
X171158Y1950D01*
X172417Y1223D01*
X173547Y920D01*
Y5367D01*
D02*
G37*
%LPD*%
G36*
X141799Y65973D02*
X141862Y65867D01*
X141967Y65772D01*
X142114Y65691D01*
X142303Y65622D01*
X142534Y65565D01*
X142807Y65521D01*
X143122Y65490D01*
X143878Y65465D01*
Y63365D01*
X143479Y63359D01*
X142807Y63311D01*
X142534Y63270D01*
X142303Y63216D01*
X142114Y63151D01*
X141967Y63073D01*
X141862Y62984D01*
X141799Y62883D01*
X141778Y62770D01*
Y66092D01*
X141799Y65973D01*
D02*
G37*
G36*
X168382Y49424D02*
X168409Y49067D01*
X168455Y48752D01*
X168518Y48479D01*
X168599Y48248D01*
X168699Y48059D01*
X168817Y47912D01*
X168953Y47807D01*
X169107Y47744D01*
X169279Y47723D01*
X165366D01*
X165539Y47744D01*
X165693Y47807D01*
X165829Y47912D01*
X165947Y48059D01*
X166046Y48248D01*
X166128Y48479D01*
X166191Y48752D01*
X166237Y49067D01*
X166264Y49424D01*
X166273Y49823D01*
X168373D01*
X168382Y49424D01*
D02*
G37*
G36*
X155622Y56241D02*
X155601Y56395D01*
X155538Y56532D01*
X155433Y56653D01*
X155286Y56758D01*
X155097Y56847D01*
X154866Y56920D01*
X154593Y56976D01*
X154278Y57017D01*
X153921Y57041D01*
X153522Y57049D01*
Y59149D01*
X153921Y59157D01*
X154593Y59222D01*
X154866Y59279D01*
X155097Y59351D01*
X155286Y59440D01*
X155433Y59545D01*
X155538Y59666D01*
X155601Y59804D01*
X155622Y59957D01*
Y56241D01*
D02*
G37*
G36*
X146351Y56808D02*
Y54470D01*
X146330Y54517D01*
X146267Y54560D01*
X146162Y54597D01*
X146015Y54630D01*
X145826Y54657D01*
X145322Y54697D01*
X144251Y54720D01*
Y56820D01*
X146351Y56808D01*
D02*
G37*
G36*
X141799Y57315D02*
X141862Y57211D01*
X141967Y57119D01*
X142114Y57040D01*
X142303Y56973D01*
X142534Y56918D01*
X142807Y56875D01*
X143122Y56844D01*
X143878Y56820D01*
Y54720D01*
X143479Y54714D01*
X142807Y54665D01*
X142534Y54622D01*
X142303Y54567D01*
X142114Y54500D01*
X141967Y54420D01*
X141862Y54329D01*
X141799Y54225D01*
X141778Y54109D01*
Y57431D01*
X141799Y57315D01*
D02*
G37*
G36*
X141730Y49768D02*
X141688Y49737D01*
X141650Y49686D01*
X141617Y49615D01*
X141590Y49523D01*
X141567Y49411D01*
X141550Y49278D01*
X141530Y48952D01*
X141527Y48758D01*
X140327D01*
X140323Y48952D01*
X140289Y49278D01*
X140260Y49411D01*
X140222Y49523D01*
X140176Y49615D01*
X140122Y49686D01*
X140059Y49737D01*
X139987Y49768D01*
X139908Y49778D01*
X141778D01*
X141730Y49768D01*
D02*
G37*
G36*
X153460Y32384D02*
X153478Y32178D01*
X153508Y31996D01*
X153550Y31838D01*
X153604Y31705D01*
X153670Y31596D01*
X153748Y31511D01*
X153838Y31451D01*
X153940Y31414D01*
X154054Y31402D01*
X151654D01*
X151768Y31414D01*
X151870Y31451D01*
X151960Y31511D01*
X152038Y31596D01*
X152104Y31705D01*
X152158Y31838D01*
X152200Y31996D01*
X152230Y32178D01*
X152248Y32384D01*
X152254Y32614D01*
X153454D01*
X153460Y32384D01*
D02*
G37*
G36*
X39267Y57114D02*
X39157Y57075D01*
X39059Y57010D01*
X38975Y56919D01*
X38903Y56802D01*
X38845Y56659D01*
X38799Y56490D01*
X38767Y56295D01*
X38747Y56074D01*
X38741Y55827D01*
X37441D01*
X37434Y56074D01*
X37415Y56295D01*
X37382Y56490D01*
X37337Y56659D01*
X37278Y56802D01*
X37207Y56919D01*
X37122Y57010D01*
X37025Y57075D01*
X36914Y57114D01*
X36791Y57127D01*
X39391D01*
X39267Y57114D01*
D02*
G37*
G36*
X38747Y55480D02*
X38767Y55251D01*
X38799Y55050D01*
X38845Y54876D01*
X38903Y54731D01*
X38975Y54614D01*
X39059Y54525D01*
X39157Y54463D01*
X39267Y54430D01*
X39391Y54425D01*
X37041Y54267D01*
X37117Y54330D01*
X37185Y54411D01*
X37245Y54511D01*
X37297Y54630D01*
X37341Y54768D01*
X37377Y54924D01*
X37405Y55099D01*
X37425Y55292D01*
X37441Y55735D01*
X38741Y55737D01*
X38747Y55480D01*
D02*
G37*
G36*
X45544Y66197D02*
X45375Y66120D01*
X45226Y65991D01*
X45098Y65812D01*
X44988Y65581D01*
X44899Y65298D01*
X44829Y64965D01*
X44780Y64579D01*
X44750Y64143D01*
X44740Y63655D01*
X42740D01*
X42730Y64143D01*
X42651Y64965D01*
X42581Y65298D01*
X42492Y65581D01*
X42383Y65812D01*
X42254Y65991D01*
X42105Y66120D01*
X41936Y66197D01*
X41748Y66223D01*
X45733D01*
X45544Y66197D01*
D02*
G37*
G36*
X50321Y56033D02*
X50351Y55672D01*
X50401Y55352D01*
X50470Y55073D01*
X50559Y54837D01*
X50669Y54642D01*
X50798Y54489D01*
X50947Y54377D01*
X51116Y54308D01*
X51304Y54280D01*
X47313Y54421D01*
X47503Y54435D01*
X47673Y54490D01*
X47822Y54588D01*
X47952Y54727D01*
X48062Y54907D01*
X48151Y55130D01*
X48221Y55394D01*
X48271Y55700D01*
X48301Y56048D01*
X48311Y56437D01*
X50311D01*
X50321Y56033D01*
D02*
G37*
G36*
X79964Y53372D02*
X79889Y53327D01*
X79823Y53252D01*
X79766Y53147D01*
X79718Y53012D01*
X79678Y52847D01*
X79648Y52652D01*
X79626Y52427D01*
X79608Y51887D01*
X78108D01*
X78104Y52172D01*
X78069Y52652D01*
X78038Y52847D01*
X77999Y53012D01*
X77950Y53147D01*
X77893Y53252D01*
X77828Y53327D01*
X77753Y53372D01*
X77670Y53387D01*
X80047D01*
X79964Y53372D01*
D02*
G37*
G36*
X75038D02*
X75031Y53327D01*
X75024Y53252D01*
X75009Y52847D01*
X75002Y51887D01*
X73502D01*
X73494Y52172D01*
X73472Y52427D01*
X73435Y52652D01*
X73382Y52847D01*
X73314Y53012D01*
X73232Y53147D01*
X73134Y53252D01*
X73022Y53327D01*
X72895Y53372D01*
X72752Y53387D01*
X75047D01*
X75038Y53372D01*
D02*
G37*
G36*
X51202Y46894D02*
X51281Y46878D01*
X51392Y46863D01*
X51713Y46840D01*
X53089Y46815D01*
Y44815D01*
X52759Y44814D01*
X51299Y44729D01*
X51213Y44706D01*
X51157Y44680D01*
Y46913D01*
X51202Y46894D01*
D02*
G37*
G36*
X54343Y44668D02*
X54331Y44706D01*
X54295Y44740D01*
X54235Y44770D01*
X54151Y44796D01*
X54043Y44818D01*
X53911Y44837D01*
X53575Y44861D01*
X53142Y44869D01*
Y46869D01*
X53370Y46871D01*
X54043Y46919D01*
X54151Y46941D01*
X54235Y46967D01*
X54295Y46997D01*
X54331Y47031D01*
X54343Y47069D01*
Y44668D01*
D02*
G37*
G36*
X34073Y47863D02*
X34163Y47785D01*
X34313Y47717D01*
X34523Y47657D01*
X34793Y47607D01*
X35123Y47566D01*
X35963Y47511D01*
X37043Y47493D01*
Y44493D01*
X34043Y44430D01*
Y47949D01*
X34073Y47863D01*
D02*
G37*
G36*
X41499Y44847D02*
X41418Y44692D01*
X41347Y44529D01*
X41285Y44357D01*
X41233Y44177D01*
X41190Y43988D01*
X41157Y43790D01*
X41119Y43370D01*
X41114Y43148D01*
X39614Y43136D01*
X39606Y43440D01*
X39584Y43710D01*
X39546Y43947D01*
X39494Y44149D01*
X39426Y44317D01*
X39344Y44451D01*
X39246Y44552D01*
X39134Y44618D01*
X39006Y44650D01*
X38864Y44648D01*
X41589Y44993D01*
X41499Y44847D01*
D02*
G37*
G36*
X50611Y44648D02*
X50466Y44632D01*
X50337Y44581D01*
X50222Y44493D01*
X50123Y44370D01*
X50039Y44210D01*
X49970Y44015D01*
X49917Y43783D01*
X49879Y43516D01*
X49856Y43212D01*
X49848Y42873D01*
X47848D01*
X47841Y43219D01*
X47780Y43803D01*
X47728Y44040D01*
X47659Y44242D01*
X47576Y44407D01*
X47478Y44536D01*
X47365Y44629D01*
X47236Y44686D01*
X47092Y44706D01*
X50611Y44648D01*
D02*
G37*
G36*
X86695Y38247D02*
X86681Y38367D01*
X86640Y38475D01*
X86570Y38570D01*
X86472Y38652D01*
X86347Y38722D01*
X86193Y38779D01*
X86012Y38823D01*
X85802Y38855D01*
X85565Y38874D01*
X85300Y38880D01*
Y40380D01*
X85565Y40386D01*
X85802Y40405D01*
X86012Y40437D01*
X86193Y40481D01*
X86347Y40538D01*
X86472Y40608D01*
X86570Y40690D01*
X86640Y40785D01*
X86681Y40893D01*
X86695Y41013D01*
Y38247D01*
D02*
G37*
G36*
Y33916D02*
X86681Y34036D01*
X86640Y34144D01*
X86570Y34239D01*
X86472Y34321D01*
X86347Y34391D01*
X86193Y34448D01*
X86012Y34492D01*
X85802Y34524D01*
X85565Y34543D01*
X85300Y34549D01*
Y36049D01*
X85565Y36055D01*
X85802Y36075D01*
X86012Y36106D01*
X86193Y36151D01*
X86347Y36208D01*
X86472Y36277D01*
X86570Y36360D01*
X86640Y36454D01*
X86681Y36562D01*
X86695Y36683D01*
Y33916D01*
D02*
G37*
G36*
Y29667D02*
X86682Y29790D01*
X86643Y29901D01*
X86577Y29998D01*
X86485Y30083D01*
X86367Y30154D01*
X86223Y30213D01*
X86053Y30258D01*
X85856Y30291D01*
X85736Y30301D01*
X85005Y30278D01*
Y31656D01*
X85024Y31648D01*
X85066Y31642D01*
X85130Y31636D01*
X85573Y31622D01*
X85633Y31623D01*
X85856Y31643D01*
X86053Y31675D01*
X86223Y31721D01*
X86367Y31779D01*
X86485Y31851D01*
X86577Y31935D01*
X86643Y32033D01*
X86682Y32143D01*
X86695Y32267D01*
Y29667D01*
D02*
G37*
G36*
X57886Y33538D02*
X57884Y33478D01*
X57881Y32926D01*
X57883Y32850D01*
X57936Y32210D01*
X57982Y31950D01*
X58042Y31730D01*
X58114Y31550D01*
X58200Y31410D01*
X58299Y31310D01*
X58412Y31250D01*
X58537Y31230D01*
X55215D01*
X55341Y31250D01*
X55453Y31310D01*
X55552Y31410D01*
X55638Y31550D01*
X55711Y31730D01*
X55770Y31950D01*
X55817Y32210D01*
X55850Y32510D01*
X55868Y33002D01*
X55865Y33558D01*
X57888D01*
X57886Y33538D01*
D02*
G37*
G36*
X83447Y27235D02*
X83486Y27232D01*
X83742Y27225D01*
X84632Y27220D01*
X84749Y25920D01*
X83523Y25864D01*
X83431Y27239D01*
X83447Y27235D01*
D02*
G37*
G36*
X86695Y25270D02*
X86682Y25394D01*
X86643Y25504D01*
X86577Y25602D01*
X86485Y25686D01*
X86367Y25758D01*
X86223Y25816D01*
X86053Y25862D01*
X85856Y25894D01*
X85633Y25914D01*
X85383Y25920D01*
Y27220D01*
X85633Y27227D01*
X85856Y27246D01*
X86053Y27279D01*
X86223Y27324D01*
X86367Y27383D01*
X86485Y27454D01*
X86577Y27539D01*
X86643Y27636D01*
X86682Y27747D01*
X86695Y27870D01*
Y25270D01*
D02*
G37*
G36*
X86683Y20644D02*
X86664Y20824D01*
X86603Y20985D01*
X86503Y21127D01*
X86364Y21250D01*
X86184Y21354D01*
X85963Y21439D01*
X85703Y21506D01*
X85404Y21553D01*
X85063Y21581D01*
X84684Y21591D01*
Y23591D01*
X85063Y23595D01*
X85963Y23651D01*
X86184Y23685D01*
X86364Y23726D01*
X86503Y23775D01*
X86603Y23831D01*
X86664Y23895D01*
X86683Y23967D01*
Y20644D01*
D02*
G37*
G36*
X64910Y15900D02*
X64890Y16063D01*
X64830Y16209D01*
X64730Y16338D01*
X64590Y16449D01*
X64410Y16544D01*
X64190Y16621D01*
X63930Y16681D01*
X63630Y16724D01*
X63290Y16749D01*
X62910Y16758D01*
Y18758D01*
X63290Y18767D01*
X63630Y18792D01*
X63930Y18835D01*
X64190Y18895D01*
X64410Y18973D01*
X64590Y19067D01*
X64730Y19178D01*
X64830Y19307D01*
X64890Y19453D01*
X64910Y19616D01*
Y15900D01*
D02*
G37*
G36*
X54022Y28200D02*
Y26321D01*
X54569Y25774D01*
X58407D01*
X59632Y24549D01*
Y23658D01*
X59817Y23629D01*
X60157Y23600D01*
X60537Y23591D01*
Y21591D01*
X60157Y21587D01*
X59632Y21554D01*
Y21006D01*
X58143Y19517D01*
X55906D01*
X54120Y17731D01*
X47614Y11225D01*
X44255D01*
X43528Y12125D01*
Y20680D01*
X51446Y28867D01*
X53355D01*
X54022Y28200D01*
D02*
G37*
G36*
X175192Y45512D02*
X175082Y45472D01*
X174984Y45407D01*
X174900Y45315D01*
X174828Y45197D01*
X174770Y45052D01*
X174724Y44882D01*
X174692Y44685D01*
X174672Y44462D01*
X174666Y44213D01*
X173366D01*
X173359Y44462D01*
X173340Y44685D01*
X173307Y44882D01*
X173262Y45052D01*
X173203Y45197D01*
X173132Y45315D01*
X173047Y45407D01*
X172950Y45472D01*
X172839Y45512D01*
X172716Y45525D01*
X175316D01*
X175192Y45512D01*
D02*
G37*
G36*
X182492Y39804D02*
X182482Y39899D01*
X182452Y39984D01*
X182402Y40059D01*
X182332Y40124D01*
X182242Y40179D01*
X182132Y40224D01*
X182002Y40259D01*
X181852Y40284D01*
X181682Y40299D01*
X181496Y40304D01*
X181308Y40299D01*
X181135Y40284D01*
X180984Y40259D01*
X180852Y40224D01*
X180741Y40179D01*
X180650Y40124D01*
X180579Y40059D01*
X180528Y39984D01*
X180498Y39899D01*
X180488Y39804D01*
Y41804D01*
X180498Y41709D01*
X180528Y41624D01*
X180579Y41549D01*
X180650Y41484D01*
X180741Y41429D01*
X180852Y41384D01*
X180984Y41349D01*
X181135Y41324D01*
X181308Y41309D01*
X181496Y41304D01*
X181682Y41309D01*
X181852Y41324D01*
X182002Y41349D01*
X182132Y41384D01*
X182242Y41429D01*
X182332Y41484D01*
X182402Y41549D01*
X182452Y41624D01*
X182482Y41709D01*
X182492Y41804D01*
Y39804D01*
D02*
G37*
G36*
X175437Y41010D02*
X175647Y40997D01*
X175894Y40993D01*
Y39693D01*
X175647Y39690D01*
X175437Y39673D01*
Y39371D01*
X175424Y39432D01*
X175385Y39487D01*
X175320Y39535D01*
X175229Y39577D01*
X175112Y39613D01*
X175016Y39632D01*
X174919Y39613D01*
X174802Y39577D01*
X174711Y39535D01*
X174646Y39487D01*
X174607Y39432D01*
X174594Y39371D01*
Y39677D01*
X174384Y39690D01*
X174137Y39693D01*
Y40993D01*
X174384Y40997D01*
X174594Y41014D01*
Y41316D01*
X174607Y41254D01*
X174646Y41200D01*
X174711Y41151D01*
X174802Y41109D01*
X174919Y41074D01*
X175016Y41054D01*
X175112Y41074D01*
X175229Y41109D01*
X175320Y41151D01*
X175385Y41200D01*
X175424Y41254D01*
X175437Y41316D01*
Y41010D01*
D02*
G37*
G36*
X171437Y39371D02*
X171427Y39461D01*
X171397Y39541D01*
X171347Y39612D01*
X171277Y39673D01*
X171187Y39725D01*
X171077Y39768D01*
X170947Y39801D01*
X170797Y39825D01*
X170627Y39839D01*
X170437Y39843D01*
Y40843D01*
X170627Y40848D01*
X170797Y40862D01*
X170947Y40886D01*
X171077Y40919D01*
X171187Y40961D01*
X171277Y41013D01*
X171347Y41075D01*
X171397Y41146D01*
X171427Y41226D01*
X171437Y41316D01*
Y39371D01*
D02*
G37*
G36*
X169289Y41248D02*
X169319Y41163D01*
X169369Y41088D01*
X169439Y41023D01*
X169529Y40968D01*
X169639Y40923D01*
X169769Y40888D01*
X169919Y40863D01*
X170089Y40848D01*
X170279Y40843D01*
Y39843D01*
X170089Y39838D01*
X169919Y39823D01*
X169769Y39798D01*
X169639Y39763D01*
X169529Y39718D01*
X169439Y39663D01*
X169369Y39598D01*
X169319Y39523D01*
X169289Y39438D01*
X169279Y39343D01*
Y41343D01*
X169289Y41248D01*
D02*
G37*
G36*
X22739Y31705D02*
X22784Y31700D01*
X22964Y31693D01*
X24224Y31684D01*
Y30184D01*
X22724Y30158D01*
Y31709D01*
X22739Y31705D01*
D02*
G37*
G36*
Y29145D02*
X22784Y29141D01*
X22964Y29134D01*
X24224Y29125D01*
Y27625D01*
X22724Y27599D01*
Y29150D01*
X22739Y29145D01*
D02*
G37*
G36*
X22737Y26567D02*
X22776Y26546D01*
X22841Y26527D01*
X22932Y26511D01*
X23049Y26497D01*
X23361Y26477D01*
X23600Y26473D01*
X24592Y26505D01*
Y25127D01*
X24573Y25134D01*
X24532Y25141D01*
X24467Y25147D01*
X23980Y25162D01*
X23762Y25164D01*
X22841Y25104D01*
X22776Y25086D01*
X22737Y25064D01*
X22724Y25040D01*
Y26591D01*
X22737Y26567D01*
D02*
G37*
G36*
X159222Y25146D02*
X159245Y24889D01*
X159282Y24663D01*
X159335Y24466D01*
X159402Y24300D01*
X159485Y24164D01*
X159582Y24058D01*
X159695Y23982D01*
X159822Y23937D01*
X159965Y23922D01*
X156965D01*
X157107Y23937D01*
X157235Y23982D01*
X157347Y24058D01*
X157445Y24164D01*
X157527Y24300D01*
X157595Y24466D01*
X157647Y24663D01*
X157685Y24889D01*
X157707Y25146D01*
X157715Y25434D01*
X159215D01*
X159222Y25146D01*
D02*
G37*
G36*
X154618Y24024D02*
X154664Y23896D01*
X154739Y23784D01*
X154845Y23686D01*
X154982Y23604D01*
X155148Y23536D01*
X155344Y23484D01*
X155571Y23446D01*
X155722Y23433D01*
X156068Y23463D01*
X156263Y23499D01*
X156428Y23546D01*
X156563Y23603D01*
X156668Y23670D01*
X156743Y23747D01*
X156788Y23835D01*
X156803Y23934D01*
X156815Y21166D01*
X156800Y21309D01*
X156754Y21436D01*
X156678Y21549D01*
X156572Y21646D01*
X156436Y21729D01*
X156270Y21796D01*
X156073Y21849D01*
X155847Y21886D01*
X155695Y21900D01*
X155349Y21870D01*
X155154Y21833D01*
X154989Y21787D01*
X154854Y21730D01*
X154749Y21663D01*
X154674Y21585D01*
X154629Y21497D01*
X154614Y21399D01*
X154602Y24166D01*
X154618Y24024D01*
D02*
G37*
G36*
X141781Y36655D02*
X141826Y36527D01*
X141902Y36415D01*
X142008Y36317D01*
X142144Y36235D01*
X142310Y36167D01*
X142506Y36115D01*
X142733Y36077D01*
X142990Y36055D01*
X143278Y36047D01*
Y34547D01*
X142990Y34540D01*
X142733Y34517D01*
X142506Y34480D01*
X142310Y34427D01*
X142144Y34360D01*
X142008Y34277D01*
X141902Y34180D01*
X141826Y34067D01*
X141781Y33940D01*
X141766Y33797D01*
Y36797D01*
X141781Y36655D01*
D02*
G37*
G36*
Y32259D02*
X141826Y32131D01*
X141902Y32019D01*
X142008Y31921D01*
X142144Y31839D01*
X142310Y31771D01*
X142506Y31719D01*
X142733Y31681D01*
X142990Y31659D01*
X143278Y31651D01*
Y30151D01*
X142990Y30144D01*
X142733Y30121D01*
X142506Y30084D01*
X142310Y30031D01*
X142144Y29964D01*
X142008Y29881D01*
X141902Y29784D01*
X141826Y29671D01*
X141781Y29544D01*
X141766Y29401D01*
Y32401D01*
X141781Y32259D01*
D02*
G37*
G36*
X145077Y20997D02*
X145065Y21111D01*
X145029Y21213D01*
X144969Y21303D01*
X144885Y21381D01*
X144777Y21447D01*
X144645Y21501D01*
X144489Y21543D01*
X144309Y21573D01*
X144105Y21591D01*
X143877Y21597D01*
Y22797D01*
X144105Y22803D01*
X144309Y22821D01*
X144489Y22851D01*
X144645Y22893D01*
X144777Y22947D01*
X144885Y23013D01*
X144969Y23091D01*
X145029Y23181D01*
X145065Y23283D01*
X145077Y23397D01*
Y20997D01*
D02*
G37*
G36*
X141778Y23283D02*
X141814Y23181D01*
X141875Y23091D01*
X141960Y23013D01*
X142069Y22947D01*
X142202Y22893D01*
X142359Y22851D01*
X142541Y22821D01*
X142747Y22803D01*
X142978Y22797D01*
Y21597D01*
X142747Y21591D01*
X142541Y21573D01*
X142359Y21543D01*
X142202Y21501D01*
X142069Y21447D01*
X141960Y21381D01*
X141875Y21303D01*
X141814Y21213D01*
X141778Y21111D01*
X141766Y20997D01*
Y23397D01*
X141778Y23283D01*
D02*
G37*
G36*
X156815Y14386D02*
X156803Y14500D01*
X156767Y14602D01*
X156706Y14692D01*
X156622Y14770D01*
X156512Y14836D01*
X156379Y14890D01*
X156221Y14932D01*
X156040Y14962D01*
X155834Y14980D01*
X155603Y14986D01*
Y16186D01*
X155834Y16192D01*
X156040Y16210D01*
X156221Y16240D01*
X156379Y16282D01*
X156512Y16336D01*
X156622Y16402D01*
X156706Y16480D01*
X156767Y16570D01*
X156803Y16672D01*
X156815Y16786D01*
Y14386D01*
D02*
G37*
G36*
X148203Y16672D02*
X148239Y16570D01*
X148300Y16480D01*
X148385Y16402D01*
X148494Y16336D01*
X148627Y16282D01*
X148785Y16240D01*
X148966Y16210D01*
X149172Y16192D01*
X149403Y16186D01*
Y14986D01*
X149172Y14980D01*
X148966Y14962D01*
X148785Y14932D01*
X148627Y14890D01*
X148494Y14836D01*
X148385Y14770D01*
X148300Y14692D01*
X148239Y14602D01*
X148203Y14500D01*
X148191Y14386D01*
Y16786D01*
X148203Y16672D01*
D02*
G37*
G36*
X186405Y33111D02*
X186233Y33091D01*
X186079Y33031D01*
X185943Y32931D01*
X185825Y32791D01*
X185725Y32611D01*
X185643Y32391D01*
X185580Y32131D01*
X185534Y31831D01*
X185507Y31491D01*
X185498Y31111D01*
X183498D01*
X183488Y31493D01*
X183458Y31835D01*
X183408Y32136D01*
X183338Y32397D01*
X183248Y32619D01*
X183138Y32800D01*
X183008Y32941D01*
X182858Y33042D01*
X182688Y33103D01*
X182498Y33123D01*
X186405Y33111D01*
D02*
G37*
G36*
X185519Y25148D02*
X185583Y24337D01*
X185688Y23573D01*
X185836Y22857D01*
X186027Y22189D01*
X186259Y21568D01*
X186534Y20996D01*
X186851Y20471D01*
X187211Y19994D01*
X187612Y19564D01*
X181412Y19495D01*
X181808Y19937D01*
X182163Y20424D01*
X182476Y20958D01*
X182747Y21537D01*
X182976Y22163D01*
X183164Y22835D01*
X183310Y23553D01*
X183415Y24318D01*
X183477Y25128D01*
X183498Y25985D01*
X185498Y26008D01*
X185519Y25148D01*
D02*
G37*
D21*
X138246Y68762D02*
D03*
Y64431D02*
D03*
X90215D02*
D03*
X138246Y60101D02*
D03*
X90215D02*
D03*
X138246Y55770D02*
D03*
X90215D02*
D03*
Y68762D02*
D03*
X138246Y51439D02*
D03*
Y39628D02*
D03*
X90215D02*
D03*
X138246Y35297D02*
D03*
X90215D02*
D03*
X138246Y30967D02*
D03*
X90215D02*
D03*
X138246Y26636D02*
D03*
X90215D02*
D03*
X138246Y22305D02*
D03*
X90215D02*
D03*
X138246Y17975D02*
D03*
X90215D02*
D03*
X138246Y13644D02*
D03*
X90215Y51439D02*
D03*
Y13644D02*
D03*
D22*
X167323Y45865D02*
D03*
Y39566D02*
D03*
X184449Y34969D02*
D03*
Y41269D02*
D03*
X66866Y11459D02*
D03*
Y17758D02*
D03*
X157579Y64398D02*
D03*
Y58099D02*
D03*
D23*
X174016Y47469D02*
D03*
X180315D02*
D03*
D24*
X172016Y37469D02*
D03*
X174016D02*
D03*
X176016D02*
D03*
Y40343D02*
D03*
X174016D02*
D03*
X172016D02*
D03*
D25*
X179331Y40804D02*
D03*
Y37402D02*
D03*
D26*
X68858Y33887D02*
D03*
X63858Y55737D02*
D03*
X68858D02*
D03*
X73858D02*
D03*
X78858D02*
D03*
Y33887D02*
D03*
X73858D02*
D03*
X63858D02*
D03*
D27*
X56890Y46091D02*
D03*
Y51209D02*
D03*
X31496Y46190D02*
D03*
Y51308D02*
D03*
X81581Y17856D02*
D03*
Y12738D02*
D03*
X73904Y12837D02*
D03*
Y17955D02*
D03*
D28*
X38091Y59674D02*
D03*
X32972D02*
D03*
X45853Y14116D02*
D03*
X40734D02*
D03*
D29*
X49134Y45796D02*
D03*
Y49536D02*
D03*
Y53276D02*
D03*
X39252D02*
D03*
Y45796D02*
D03*
D30*
X19291Y36052D02*
D03*
Y33493D02*
D03*
Y30934D02*
D03*
Y28375D02*
D03*
Y25816D02*
D03*
D31*
X7185Y34625D02*
D03*
Y27243D02*
D03*
D32*
X56876Y22876D02*
D03*
Y29569D02*
D03*
X158465Y22273D02*
D03*
Y15580D02*
D03*
X152953Y23060D02*
D03*
Y29753D02*
D03*
D33*
X35340Y26883D02*
D03*
D34*
X56876Y36656D02*
D03*
Y34097D02*
D03*
D35*
X176378Y64891D02*
D03*
D36*
X182382Y70698D02*
D03*
Y59083D02*
D03*
D37*
X146640Y22089D02*
D03*
Y15593D02*
D03*
D38*
X150906Y55639D02*
D03*
X147323D02*
D03*
D54*
X50891Y21174D02*
D03*
D66*
X226537Y-14428D02*
X227953Y-13012D01*
X226537Y-20428D02*
X233953Y-13012D01*
X226537Y-26428D02*
X239953Y-13012D01*
X226537Y-32428D02*
X245953Y-13012D01*
X226537Y-38428D02*
X251953Y-13012D01*
X226537Y-44428D02*
X257953Y-13012D01*
X226537Y-50428D02*
X263953Y-13012D01*
X226537Y-56428D02*
X269953Y-13012D01*
X226537Y-62428D02*
X275953Y-13012D01*
X226537Y-68428D02*
X281953Y-13012D01*
X226537Y-74428D02*
X287953Y-13012D01*
X226537Y-80428D02*
X293953Y-13012D01*
X226537Y-86428D02*
X299953Y-13012D01*
X226537Y-92428D02*
X305953Y-13012D01*
X226537Y-98428D02*
X311953Y-13012D01*
X226537Y-104428D02*
X317953Y-13012D01*
X226537Y-110428D02*
X323953Y-13012D01*
X226537Y-116428D02*
X329953Y-13012D01*
X226537Y-122428D02*
X335953Y-13012D01*
X226537Y-128428D02*
X341953Y-13012D01*
X226537Y-134428D02*
X347953Y-13012D01*
X226537Y-140428D02*
X353953Y-13012D01*
X226537Y-146428D02*
X359953Y-13012D01*
X226537Y-152428D02*
X365953Y-13012D01*
X226537Y-158428D02*
X371953Y-13012D01*
X226537Y-164428D02*
X377953Y-13012D01*
X226537Y-170428D02*
X383953Y-13012D01*
X226537Y-176428D02*
X389953Y-13012D01*
X226537Y-182428D02*
X395953Y-13012D01*
X226537Y-188428D02*
X401953Y-13012D01*
X230364Y-190601D02*
X407953Y-13012D01*
X236364Y-190601D02*
X413953Y-13012D01*
X242364Y-190601D02*
X419953Y-13012D01*
X248364Y-190601D02*
X425953Y-13012D01*
X254364Y-190601D02*
X431953Y-13012D01*
X260364Y-190601D02*
X437953Y-13012D01*
X266364Y-190601D02*
X443953Y-13012D01*
X272364Y-190601D02*
X449953Y-13012D01*
X278364Y-190601D02*
X455953Y-13012D01*
X284364Y-190601D02*
X461953Y-13012D01*
X290364Y-190601D02*
X467953Y-13012D01*
X296364Y-190601D02*
X473953Y-13012D01*
X302364Y-190601D02*
X479953Y-13012D01*
X308364Y-190601D02*
X485953Y-13012D01*
X314364Y-190601D02*
X491953Y-13012D01*
X320364Y-190601D02*
X497953Y-13012D01*
X326364Y-190601D02*
X503953Y-13012D01*
X332364Y-190601D02*
X509953Y-13012D01*
X338364Y-190601D02*
X515953Y-13012D01*
X344364Y-190601D02*
X521953Y-13012D01*
X350364Y-190601D02*
X527953Y-13012D01*
X356364Y-190601D02*
X533953Y-13012D01*
X362364Y-190601D02*
X539953Y-13012D01*
X368364Y-190601D02*
X545953Y-13012D01*
X374364Y-190601D02*
X551953Y-13012D01*
X380364Y-190601D02*
X557953Y-13012D01*
X386364Y-190601D02*
X563953Y-13012D01*
X392364Y-190601D02*
X569953Y-13012D01*
X398364Y-190601D02*
X575953Y-13012D01*
X404364Y-190601D02*
X581953Y-13012D01*
X410364Y-190601D02*
X587953Y-13012D01*
X416364Y-190601D02*
X593953Y-13012D01*
X422364Y-190601D02*
X599953Y-13012D01*
X428364Y-190601D02*
X605953Y-13012D01*
X434364Y-190601D02*
X611953Y-13012D01*
X440364Y-190601D02*
X617953Y-13012D01*
X446364Y-190601D02*
X623953Y-13012D01*
X452364Y-190601D02*
X629953Y-13012D01*
X458364Y-190601D02*
X635953Y-13012D01*
X464364Y-190601D02*
X641953Y-13012D01*
X470364Y-190601D02*
X647953Y-13012D01*
X476364Y-190601D02*
X653953Y-13012D01*
X482364Y-190601D02*
X659953Y-13012D01*
X488364Y-190601D02*
X665953Y-13012D01*
X494364Y-190601D02*
X671953Y-13012D01*
X500364Y-190601D02*
X677953Y-13012D01*
X506364Y-190601D02*
X680418Y-16547D01*
X512364Y-190601D02*
X680418Y-22547D01*
X518364Y-190601D02*
X680418Y-28547D01*
X524364Y-190601D02*
X680418Y-34547D01*
X530364Y-190601D02*
X680418Y-40547D01*
X536364Y-190601D02*
X680418Y-46547D01*
X542364Y-190601D02*
X680418Y-52547D01*
X548364Y-190601D02*
X680418Y-58547D01*
X554364Y-190601D02*
X680418Y-64547D01*
X560364Y-190601D02*
X680418Y-70547D01*
X566364Y-190601D02*
X680418Y-76547D01*
X572364Y-190601D02*
X680418Y-82547D01*
X578364Y-190601D02*
X680418Y-88547D01*
X584364Y-190601D02*
X680418Y-94547D01*
X590364Y-190601D02*
X680418Y-100547D01*
X596364Y-190601D02*
X680418Y-106547D01*
X602364Y-190601D02*
X680418Y-112547D01*
X608364Y-190601D02*
X680418Y-118547D01*
X614364Y-190601D02*
X680418Y-124547D01*
X620364Y-190601D02*
X680418Y-130547D01*
X626364Y-190601D02*
X680418Y-136547D01*
X632364Y-190601D02*
X680418Y-142547D01*
X638364Y-190601D02*
X680418Y-148547D01*
X644364Y-190601D02*
X680418Y-154547D01*
X650364Y-190601D02*
X680418Y-160547D01*
X656364Y-190601D02*
X680418Y-166547D01*
X662364Y-190601D02*
X680418Y-172547D01*
X668364Y-190601D02*
X680418Y-178547D01*
X674364Y-190601D02*
X680418Y-184547D01*
X568449Y69965D02*
X572418Y73933D01*
X568449Y63965D02*
X578418Y73933D01*
X572418Y61933D02*
X584418Y73933D01*
X578418Y61933D02*
X590418Y73933D01*
X584418Y61933D02*
X596418Y73933D01*
X590418Y61933D02*
X602418Y73933D01*
X596418Y61933D02*
X608418Y73933D01*
X602418Y61933D02*
X614418Y73933D01*
X608418Y61933D02*
X620418Y73933D01*
X614418Y61933D02*
X626418Y73933D01*
X620418Y61933D02*
X632418Y73933D01*
X626418Y61933D02*
X638418Y73933D01*
X632418Y61933D02*
X644418Y73933D01*
X638418Y61933D02*
X650418Y73933D01*
X644418Y61933D02*
X656418Y73933D01*
X650418Y61933D02*
X662418Y73933D01*
X656418Y61933D02*
X668418Y73933D01*
X662418Y61933D02*
X674418Y73933D01*
X668418Y61933D02*
X680418Y73933D01*
X674418Y61933D02*
X680418Y67933D01*
X568449Y57965D02*
X572418Y61933D01*
X568449Y51965D02*
X578418Y61933D01*
X572418Y49933D02*
X584418Y61933D01*
X578418Y49933D02*
X590418Y61933D01*
X584418Y49933D02*
X596418Y61933D01*
X590418Y49933D02*
X602418Y61933D01*
X596418Y49933D02*
X608418Y61933D01*
X602418Y49933D02*
X614418Y61933D01*
X608418Y49933D02*
X620418Y61933D01*
X614418Y49933D02*
X626418Y61933D01*
X620418Y49933D02*
X632418Y61933D01*
X626418Y49933D02*
X638418Y61933D01*
X632418Y49933D02*
X644418Y61933D01*
X638418Y49933D02*
X650418Y61933D01*
X644418Y49933D02*
X656418Y61933D01*
X650418Y49933D02*
X662418Y61933D01*
X656418Y49933D02*
X668418Y61933D01*
X662418Y49933D02*
X674418Y61933D01*
X668418Y49933D02*
X680418Y61933D01*
X674418Y49933D02*
X680418Y55933D01*
X568449Y45965D02*
X572418Y49933D01*
X568449Y39965D02*
X578418Y49933D01*
X572418Y37933D02*
X584418Y49933D01*
X578418Y37933D02*
X590418Y49933D01*
X584418Y37933D02*
X596418Y49933D01*
X590418Y37933D02*
X602418Y49933D01*
X596418Y37933D02*
X608418Y49933D01*
X602418Y37933D02*
X614418Y49933D01*
X608418Y37933D02*
X620418Y49933D01*
X614418Y37933D02*
X626418Y49933D01*
X620418Y37933D02*
X632418Y49933D01*
X626418Y37933D02*
X638418Y49933D01*
X632418Y37933D02*
X644418Y49933D01*
X638418Y37933D02*
X650418Y49933D01*
X644418Y37933D02*
X656418Y49933D01*
X650418Y37933D02*
X662418Y49933D01*
X656418Y37933D02*
X668418Y49933D01*
X662418Y37933D02*
X674418Y49933D01*
X668418Y37933D02*
X680418Y49933D01*
X674418Y37933D02*
X680418Y43933D01*
X568449Y33965D02*
X572418Y37933D01*
X568449Y27965D02*
X578418Y37933D01*
X572418Y25933D02*
X584418Y37933D01*
X578418Y25933D02*
X590418Y37933D01*
X584418Y25933D02*
X596418Y37933D01*
X590418Y25933D02*
X602418Y37933D01*
X596418Y25933D02*
X608418Y37933D01*
X602418Y25933D02*
X614418Y37933D01*
X608418Y25933D02*
X620418Y37933D01*
X614418Y25933D02*
X626418Y37933D01*
X620418Y25933D02*
X632418Y37933D01*
X626418Y25933D02*
X638418Y37933D01*
X632418Y25933D02*
X644418Y37933D01*
X638418Y25933D02*
X650418Y37933D01*
X644418Y25933D02*
X656418Y37933D01*
X650418Y25933D02*
X662418Y37933D01*
X656418Y25933D02*
X668418Y37933D01*
X662418Y25933D02*
X674418Y37933D01*
X668418Y25933D02*
X680418Y37933D01*
X674418Y25933D02*
X680418Y31933D01*
X568449Y21965D02*
X572418Y25933D01*
X568449Y15965D02*
X578418Y25933D01*
X572418Y13933D02*
X584418Y25933D01*
X578418Y13933D02*
X590418Y25933D01*
X584418Y13933D02*
X596418Y25933D01*
X590418Y13933D02*
X602418Y25933D01*
X596418Y13933D02*
X608418Y25933D01*
X602418Y13933D02*
X614418Y25933D01*
X608418Y13933D02*
X620418Y25933D01*
X614418Y13933D02*
X626418Y25933D01*
X620418Y13933D02*
X632418Y25933D01*
X626418Y13933D02*
X638418Y25933D01*
X632418Y13933D02*
X644418Y25933D01*
X638418Y13933D02*
X650418Y25933D01*
X644418Y13933D02*
X656418Y25933D01*
X650418Y13933D02*
X662418Y25933D01*
X656418Y13933D02*
X668418Y25933D01*
X662418Y13933D02*
X674418Y25933D01*
X668418Y13933D02*
X680418Y25933D01*
X674418Y13933D02*
X680418Y19933D01*
X568449Y9965D02*
X572418Y13933D01*
X568449Y3965D02*
X578418Y13933D01*
X572418Y1933D02*
X584418Y13933D01*
X578418Y1933D02*
X590418Y13933D01*
X584418Y1933D02*
X596418Y13933D01*
X590418Y1933D02*
X602418Y13933D01*
X596418Y1933D02*
X608418Y13933D01*
X602418Y1933D02*
X614418Y13933D01*
X608418Y1933D02*
X620418Y13933D01*
X614418Y1933D02*
X626418Y13933D01*
X620418Y1933D02*
X632418Y13933D01*
X626418Y1933D02*
X638418Y13933D01*
X632418Y1933D02*
X644418Y13933D01*
X638418Y1933D02*
X650418Y13933D01*
X644418Y1933D02*
X656418Y13933D01*
X650418Y1933D02*
X662418Y13933D01*
X656418Y1933D02*
X668418Y13933D01*
X662418Y1933D02*
X674418Y13933D01*
X668418Y1933D02*
X680418Y13933D01*
X674418Y1933D02*
X680418Y7933D01*
X568449Y-2035D02*
X572418Y1933D01*
X568449Y-8035D02*
X578418Y1933D01*
X572418Y-10067D02*
X584418Y1933D01*
X578418Y-10067D02*
X590418Y1933D01*
X584418Y-10067D02*
X596418Y1933D01*
X590418Y-10067D02*
X602418Y1933D01*
X596418Y-10067D02*
X608418Y1933D01*
X602418Y-10067D02*
X614418Y1933D01*
X608418Y-10067D02*
X620418Y1933D01*
X614418Y-10067D02*
X626418Y1933D01*
X620418Y-10067D02*
X632418Y1933D01*
X626418Y-10067D02*
X638418Y1933D01*
X632418Y-10067D02*
X644418Y1933D01*
X638418Y-10067D02*
X650418Y1933D01*
X644418Y-10067D02*
X656418Y1933D01*
X650418Y-10067D02*
X662418Y1933D01*
X656418Y-10067D02*
X668418Y1933D01*
X662418Y-10067D02*
X674418Y1933D01*
X668418Y-10067D02*
X680418Y1933D01*
X674418Y-10067D02*
X680418Y-4067D01*
D67*
X226537Y-190547D02*
Y-13067D01*
X680418D01*
Y-190547D02*
Y-13067D01*
X226537Y-190547D02*
X680418D01*
X680418Y-10067D02*
Y85933D01*
X568449Y61933D02*
X680418D01*
X568449Y49933D02*
X680418D01*
X568449Y37933D02*
X680418D01*
X568449Y25933D02*
X680418D01*
X568449Y13933D02*
X680418D01*
X568449Y1933D02*
X680418D01*
X568449Y-10067D02*
X680418D01*
X568449D02*
Y85933D01*
X511463Y61933D02*
X568449D01*
X511463Y49933D02*
X568449D01*
X511463Y37933D02*
X568449D01*
X511463Y25933D02*
X568449D01*
X511463Y13933D02*
X568449D01*
X511463Y1933D02*
X568449D01*
X511463Y-10067D02*
X568449D01*
X511463D02*
Y85933D01*
X446480Y61933D02*
X511463D01*
X446480Y49933D02*
X511463D01*
X446480Y37933D02*
X511463D01*
X446480Y25933D02*
X511463D01*
X446480Y13933D02*
X511463D01*
X446480Y1933D02*
X511463D01*
X446480Y-10067D02*
X511463D01*
X446480D02*
Y85933D01*
X360503Y61933D02*
X446480D01*
X360503Y49933D02*
X446480D01*
X360503Y37933D02*
X446480D01*
X360503Y25933D02*
X446480D01*
X360503Y13933D02*
X446480D01*
X360503Y1933D02*
X446480D01*
X360503Y-10067D02*
X446480D01*
X360503D02*
Y85933D01*
X267529Y61933D02*
X360503D01*
X267529Y49933D02*
X360503D01*
X267529Y37933D02*
X360503D01*
X267529Y25933D02*
X360503D01*
X267529Y13933D02*
X360503D01*
X267529Y1933D02*
X360503D01*
X267529Y-10067D02*
X360503D01*
X267529D02*
Y85933D01*
X226537Y61933D02*
X267529D01*
X226537Y49933D02*
X267529D01*
X226537Y37933D02*
X267529D01*
X226537Y25933D02*
X267529D01*
X226537Y13933D02*
X267529D01*
X226537Y1933D02*
X267529D01*
X226537Y-10067D02*
X267529D01*
X226537D02*
Y85933D01*
X680418D01*
X226537Y73933D02*
X680418D01*
X138246Y35297D02*
X145313D01*
X138312Y30901D02*
X146002D01*
X146527Y31426D01*
X145313Y35297D02*
X145444Y35166D01*
X145571D01*
X90213Y39630D02*
X90215Y39628D01*
X78858Y46072D02*
Y55737D01*
X85300Y39630D02*
X90213D01*
X78858Y46072D02*
X85300Y39630D01*
X74252Y46347D02*
X85300Y35299D01*
X73858Y55737D02*
X74252Y55343D01*
X90213Y35299D02*
X90215Y35297D01*
X85300Y35299D02*
X90213D01*
X74252Y46347D02*
Y55343D01*
X138246Y30967D02*
X138312Y30901D01*
X146527Y31426D02*
X146654D01*
X56951Y36656D02*
X60580Y40284D01*
X56876Y36656D02*
X56951D01*
X60580Y40284D02*
X62474D01*
X63858Y41669D01*
Y55737D01*
X40364Y41456D02*
X45164Y36656D01*
X43209Y24536D02*
X45164Y26492D01*
Y36656D01*
X158465Y25787D02*
X158661Y25984D01*
X158465Y22273D02*
Y25787D01*
X158661Y25984D02*
Y26111D01*
X153347Y22666D02*
X158071D01*
X152953Y23060D02*
X153347Y22666D01*
X158071D02*
X158465Y22273D01*
X40364Y41456D02*
Y45385D01*
X39952Y45796D02*
X40364Y45385D01*
X39252Y45796D02*
X39952D01*
X45164Y36656D02*
X56876D01*
X28355Y28366D02*
X28445Y28276D01*
X25583Y28366D02*
X28355D01*
X19291Y28375D02*
X25574D01*
X25583Y28366D01*
X19291Y30934D02*
X28321D01*
X28329Y30942D01*
D68*
X184449Y34969D02*
X184498Y34920D01*
Y16416D02*
Y34920D01*
Y16416D02*
X184547Y16367D01*
X57162Y22591D02*
X89929D01*
X56876Y22876D02*
X57162Y22591D01*
X89929D02*
X90215Y22305D01*
X60925Y16761D02*
X61923Y17758D01*
X66866D01*
X56876Y29569D02*
Y34097D01*
X53089Y45815D02*
X53142Y45869D01*
X49153Y45815D02*
X53089D01*
X56667Y45869D02*
X56890Y46091D01*
X53142Y45869D02*
X56667D01*
X49134Y53276D02*
X49311Y53454D01*
X48911Y53054D02*
X49134Y53276D01*
X49311Y53454D02*
Y57804D01*
X43740Y63375D02*
X49311Y57804D01*
X43740Y63375D02*
Y69418D01*
X44193Y47273D02*
Y51251D01*
X45721Y45744D02*
X49082D01*
X44193Y47273D02*
X45721Y45744D01*
X44193Y51251D02*
X45996Y53054D01*
X48911D01*
X48720Y42745D02*
X48848Y42873D01*
Y45511D01*
D69*
X66975Y17866D02*
X90106D01*
X31693Y45993D02*
X39252D01*
X31496Y46190D02*
X31693Y45993D01*
D70*
X138355Y22197D02*
X146532D01*
X146640Y22089D01*
X140927Y48758D02*
Y50366D01*
X138246Y22305D02*
X138355Y22197D01*
X138246Y51439D02*
X139854D01*
X140927Y50366D01*
X152854Y29851D02*
X152953Y29753D01*
X152854Y29851D02*
Y36831D01*
X140927Y48758D02*
X152854Y36831D01*
X146646Y15586D02*
X158458D01*
X146640Y15593D02*
X146646Y15586D01*
X158458D02*
X158465Y15580D01*
D71*
X138246Y55770D02*
X147257D01*
X147323Y55639D02*
Y55704D01*
X147257Y55770D02*
X147323Y55704D01*
X138263Y64415D02*
X157562D01*
X138246Y64431D02*
X138263Y64415D01*
X157562D02*
X157579Y64398D01*
X152201Y58099D02*
X157579D01*
X150971Y56869D02*
X152201Y58099D01*
X150971Y55704D02*
Y56869D01*
X167323Y45865D02*
Y55542D01*
X166978Y55886D02*
Y64645D01*
Y55886D02*
X167323Y55542D01*
X166978Y64645D02*
X176132D01*
X157825D02*
X166978D01*
X150906Y55639D02*
X150971Y55704D01*
X176132Y64645D02*
X176378Y64891D01*
X157579Y64398D02*
X157825Y64645D01*
D72*
X82776Y26505D02*
X82841Y26570D01*
X90149D02*
X90215Y26636D01*
X82841Y26570D02*
X90149D01*
X90106Y17866D02*
X90215Y17975D01*
X84302Y30967D02*
X90215D01*
X174183Y51574D02*
X174311Y51702D01*
X174183Y47637D02*
Y51574D01*
X174016Y47469D02*
X174183Y47637D01*
X38091Y53788D02*
X38602Y53276D01*
X38091Y53788D02*
Y59674D01*
X38602Y53276D02*
X39252D01*
X19291Y25816D02*
X25295D01*
X66866Y17758D02*
X66975Y17866D01*
X174016Y40343D02*
Y47469D01*
Y40343D02*
X176016D01*
D73*
X176049Y37436D02*
X179297D01*
X176016Y37469D02*
X176049Y37436D01*
X179297D02*
X179331Y37402D01*
Y40804D02*
X183197D01*
X183339Y40946D01*
X183732Y40552D02*
X184449Y41269D01*
X183339Y40946D02*
X183732Y40552D01*
X168179Y40343D02*
X172016D01*
X168140Y40383D02*
X168179Y40343D01*
X167681Y39924D02*
X168140Y40383D01*
X167323Y39566D02*
X167681Y39924D01*
X183732Y40552D02*
X184449Y41269D01*
X167323Y39642D02*
X167643Y39963D01*
X167323Y39566D02*
Y39642D01*
X575450Y82931D02*
Y76933D01*
X578449D01*
X579448Y77933D01*
Y78933D01*
X578449Y79932D01*
X575450D01*
X578449D01*
X579448Y80932D01*
Y81932D01*
X578449Y82931D01*
X575450D01*
X582447Y76933D02*
X584447D01*
X585446Y77933D01*
Y79932D01*
X584447Y80932D01*
X582447D01*
X581448Y79932D01*
Y77933D01*
X582447Y76933D01*
X588445Y80932D02*
X590445D01*
X591444Y79932D01*
Y76933D01*
X588445D01*
X587446Y77933D01*
X588445Y78933D01*
X591444D01*
X593444Y80932D02*
Y76933D01*
Y78933D01*
X594443Y79932D01*
X595443Y80932D01*
X596443D01*
X603441Y82931D02*
Y76933D01*
X600442D01*
X599442Y77933D01*
Y79932D01*
X600442Y80932D01*
X603441D01*
X611438Y82931D02*
Y76933D01*
X615437D01*
X618436Y80932D02*
X620435D01*
X621435Y79932D01*
Y76933D01*
X618436D01*
X617436Y77933D01*
X618436Y78933D01*
X621435D01*
X623434Y80932D02*
Y77933D01*
X624434Y76933D01*
X627433D01*
Y75934D01*
X626433Y74934D01*
X625433D01*
X627433Y76933D02*
Y80932D01*
X632431Y76933D02*
X630432D01*
X629432Y77933D01*
Y79932D01*
X630432Y80932D01*
X632431D01*
X633431Y79932D01*
Y78933D01*
X629432D01*
X635430Y80932D02*
Y76933D01*
Y78933D01*
X636430Y79932D01*
X637430Y80932D01*
X638429D01*
X651425Y81932D02*
X650425Y82931D01*
X648426D01*
X647426Y81932D01*
Y80932D01*
X648426Y79932D01*
X650425D01*
X651425Y78933D01*
Y77933D01*
X650425Y76933D01*
X648426D01*
X647426Y77933D01*
X654424Y81932D02*
Y80932D01*
X653424D01*
X655424D01*
X654424D01*
Y77933D01*
X655424Y76933D01*
X659422Y80932D02*
X661422D01*
X662421Y79932D01*
Y76933D01*
X659422D01*
X658423Y77933D01*
X659422Y78933D01*
X662421D01*
X668420Y80932D02*
X665420D01*
X664421Y79932D01*
Y77933D01*
X665420Y76933D01*
X668420D01*
X670419D02*
Y82931D01*
Y78933D02*
X673418Y80932D01*
X670419Y78933D02*
X673418Y76933D01*
X521462Y52933D02*
Y58931D01*
X518464Y55932D01*
X522462D01*
X524462Y52933D02*
Y53933D01*
X525461D01*
Y52933D01*
X524462D01*
X533459D02*
X529460D01*
X533459Y56932D01*
Y57932D01*
X532459Y58931D01*
X530460D01*
X529460Y57932D01*
X535458Y53933D02*
X536458Y52933D01*
X538457D01*
X539457Y53933D01*
Y57932D01*
X538457Y58931D01*
X536458D01*
X535458Y57932D01*
Y56932D01*
X536458Y55932D01*
X539457D01*
X521462Y28933D02*
Y34931D01*
X518464Y31932D01*
X522462D01*
X524462Y28933D02*
Y29933D01*
X525461D01*
Y28933D01*
X524462D01*
X529460Y33932D02*
X530460Y34931D01*
X532459D01*
X533459Y33932D01*
Y32932D01*
X532459Y31932D01*
X533459Y30933D01*
Y29933D01*
X532459Y28933D01*
X530460D01*
X529460Y29933D01*
Y30933D01*
X530460Y31932D01*
X529460Y32932D01*
Y33932D01*
X530460Y31932D02*
X532459D01*
X521462Y4933D02*
Y10931D01*
X518464Y7932D01*
X522462D01*
X524462Y4933D02*
Y5933D01*
X525461D01*
Y4933D01*
X524462D01*
X533459D02*
X529460D01*
X533459Y8932D01*
Y9932D01*
X532459Y10931D01*
X530460D01*
X529460Y9932D01*
X535458Y5933D02*
X536458Y4933D01*
X538457D01*
X539457Y5933D01*
Y9932D01*
X538457Y10931D01*
X536458D01*
X535458Y9932D01*
Y8932D01*
X536458Y7932D01*
X539457D01*
X522462Y81932D02*
X521462Y82931D01*
X519463D01*
X518464Y81932D01*
Y77933D01*
X519463Y76933D01*
X521462D01*
X522462Y77933D01*
X525461Y76933D02*
X527460D01*
X528460Y77933D01*
Y79932D01*
X527460Y80932D01*
X525461D01*
X524462Y79932D01*
Y77933D01*
X525461Y76933D01*
X530460D02*
Y80932D01*
X533459D01*
X534458Y79932D01*
Y76933D01*
X536458D02*
X539457D01*
X540456Y77933D01*
X539457Y78933D01*
X537457D01*
X536458Y79932D01*
X537457Y80932D01*
X540456D01*
X543455Y81932D02*
Y80932D01*
X542456D01*
X544455D01*
X543455D01*
Y77933D01*
X544455Y76933D01*
X548454Y80932D02*
X550453D01*
X551453Y79932D01*
Y76933D01*
X548454D01*
X547454Y77933D01*
X548454Y78933D01*
X551453D01*
X553452Y76933D02*
Y80932D01*
X556451D01*
X557451Y79932D01*
Y76933D01*
X560450Y81932D02*
Y80932D01*
X559450D01*
X561449D01*
X560450D01*
Y77933D01*
X561449Y76933D01*
X453480Y57932D02*
X454480Y58931D01*
X456479D01*
X457479Y57932D01*
Y53933D01*
X456479Y52933D01*
X454480D01*
X453480Y53933D01*
Y57932D01*
X459478Y52933D02*
Y53933D01*
X460478D01*
Y52933D01*
X459478D01*
X467475D02*
Y58931D01*
X464476Y55932D01*
X468475D01*
X470474Y57932D02*
X471474Y58931D01*
X473474D01*
X474473Y57932D01*
Y53933D01*
X473474Y52933D01*
X471474D01*
X470474Y53933D01*
Y57932D01*
X476473Y52933D02*
Y56932D01*
X477472D01*
X478472Y55932D01*
Y52933D01*
Y55932D01*
X479471Y56932D01*
X480471Y55932D01*
Y52933D01*
X482471D02*
X484470D01*
X483470D01*
Y56932D01*
X482471D01*
X487469Y52933D02*
X489468D01*
X488469D01*
Y58931D01*
X487469D01*
X453480Y40933D02*
X455479D01*
X454480D01*
Y46931D01*
X453480Y45932D01*
X458478Y40933D02*
Y41933D01*
X459478D01*
Y40933D01*
X458478D01*
X466476D02*
Y46931D01*
X463477Y43932D01*
X467475D01*
X469475Y45932D02*
X470474Y46931D01*
X472474D01*
X473474Y45932D01*
Y41933D01*
X472474Y40933D01*
X470474D01*
X469475Y41933D01*
Y45932D01*
X475473Y40933D02*
Y44932D01*
X476473D01*
X477472Y43932D01*
Y40933D01*
Y43932D01*
X478472Y44932D01*
X479471Y43932D01*
Y40933D01*
X481471D02*
X483470D01*
X482471D01*
Y44932D01*
X481471D01*
X486469Y40933D02*
X488469D01*
X487469D01*
Y46931D01*
X486469D01*
X456479Y28933D02*
Y34931D01*
X453480Y31932D01*
X457479D01*
X459478Y34931D02*
X463477D01*
Y33932D01*
X459478Y29933D01*
Y28933D01*
X465476D02*
Y29933D01*
X466476D01*
Y28933D01*
X465476D01*
X474473D02*
X470474D01*
X474473Y32932D01*
Y33932D01*
X473474Y34931D01*
X471474D01*
X470474Y33932D01*
X479471Y28933D02*
Y34931D01*
X476473Y31932D01*
X480471D01*
X482471Y28933D02*
Y32932D01*
X483470D01*
X484470Y31932D01*
Y28933D01*
Y31932D01*
X485470Y32932D01*
X486469Y31932D01*
Y28933D01*
X488469D02*
X490468D01*
X489468D01*
Y32932D01*
X488469D01*
X493467Y28933D02*
X495466D01*
X494467D01*
Y34931D01*
X493467D01*
X453480Y16933D02*
X455479D01*
X454480D01*
Y22931D01*
X453480Y21932D01*
X458478Y16933D02*
Y17933D01*
X459478D01*
Y16933D01*
X458478D01*
X466476D02*
Y22931D01*
X463477Y19932D01*
X467475D01*
X469475Y21932D02*
X470474Y22931D01*
X472474D01*
X473474Y21932D01*
Y17933D01*
X472474Y16933D01*
X470474D01*
X469475Y17933D01*
Y21932D01*
X475473Y16933D02*
Y20932D01*
X476473D01*
X477472Y19932D01*
Y16933D01*
Y19932D01*
X478472Y20932D01*
X479471Y19932D01*
Y16933D01*
X481471D02*
X483470D01*
X482471D01*
Y20932D01*
X481471D01*
X486469Y16933D02*
X488469D01*
X487469D01*
Y22931D01*
X486469D01*
X453480Y9932D02*
X454480Y10931D01*
X456479D01*
X457479Y9932D01*
Y5933D01*
X456479Y4933D01*
X454480D01*
X453480Y5933D01*
Y9932D01*
X459478Y4933D02*
Y5933D01*
X460478D01*
Y4933D01*
X459478D01*
X467475D02*
Y10931D01*
X464476Y7932D01*
X468475D01*
X470474Y9932D02*
X471474Y10931D01*
X473474D01*
X474473Y9932D01*
Y5933D01*
X473474Y4933D01*
X471474D01*
X470474Y5933D01*
Y9932D01*
X476473Y4933D02*
Y8932D01*
X477472D01*
X478472Y7932D01*
Y4933D01*
Y7932D01*
X479471Y8932D01*
X480471Y7932D01*
Y4933D01*
X482471D02*
X484470D01*
X483470D01*
Y8932D01*
X482471D01*
X487469Y4933D02*
X489468D01*
X488469D01*
Y10931D01*
X487469D01*
X453480Y82931D02*
X457479D01*
X455479D01*
Y76933D01*
X459478Y82931D02*
Y76933D01*
Y79932D01*
X460478Y80932D01*
X462477D01*
X463477Y79932D01*
Y76933D01*
X465476D02*
X467475D01*
X466476D01*
Y80932D01*
X465476D01*
X474473D02*
X471474D01*
X470474Y79932D01*
Y77933D01*
X471474Y76933D01*
X474473D01*
X476473D02*
Y82931D01*
Y78933D02*
X479471Y80932D01*
X476473Y78933D02*
X479471Y76933D01*
X482471D02*
Y80932D01*
X485470D01*
X486469Y79932D01*
Y76933D01*
X491468D02*
X489468D01*
X488469Y77933D01*
Y79932D01*
X489468Y80932D01*
X491468D01*
X492467Y79932D01*
Y78933D01*
X488469D01*
X494467Y76933D02*
X497466D01*
X498465Y77933D01*
X497466Y78933D01*
X495466D01*
X494467Y79932D01*
X495466Y80932D01*
X498465D01*
X500465Y76933D02*
X503464D01*
X504463Y77933D01*
X503464Y78933D01*
X501464D01*
X500465Y79932D01*
X501464Y80932D01*
X504463D01*
X371502Y57932D02*
X370502Y58931D01*
X368503D01*
X367503Y57932D01*
Y56932D01*
X368503Y55932D01*
X370502D01*
X371502Y54933D01*
Y53933D01*
X370502Y52933D01*
X368503D01*
X367503Y53933D01*
X374501Y52933D02*
X376500D01*
X377500Y53933D01*
Y55932D01*
X376500Y56932D01*
X374501D01*
X373501Y55932D01*
Y53933D01*
X374501Y52933D01*
X379499D02*
X381499D01*
X380499D01*
Y58931D01*
X379499D01*
X388496D02*
Y52933D01*
X385497D01*
X384498Y53933D01*
Y55932D01*
X385497Y56932D01*
X388496D01*
X393495Y52933D02*
X391495D01*
X390496Y53933D01*
Y55932D01*
X391495Y56932D01*
X393495D01*
X394495Y55932D01*
Y54933D01*
X390496D01*
X396494Y56932D02*
Y52933D01*
Y54933D01*
X397494Y55932D01*
X398493Y56932D01*
X399493D01*
X408490Y52933D02*
Y58931D01*
X411489D01*
X412489Y57932D01*
Y55932D01*
X411489Y54933D01*
X408490D01*
X410489D02*
X412489Y52933D01*
X417487D02*
X415488D01*
X414488Y53933D01*
Y55932D01*
X415488Y56932D01*
X417487D01*
X418487Y55932D01*
Y54933D01*
X414488D01*
X420486Y52933D02*
X423485D01*
X424485Y53933D01*
X423485Y54933D01*
X421486D01*
X420486Y55932D01*
X421486Y56932D01*
X424485D01*
X426484Y52933D02*
X428483D01*
X427484D01*
Y56932D01*
X426484D01*
X431483Y52933D02*
X434482D01*
X435481Y53933D01*
X434482Y54933D01*
X432482D01*
X431483Y55932D01*
X432482Y56932D01*
X435481D01*
X438480Y57932D02*
Y56932D01*
X437481D01*
X439480D01*
X438480D01*
Y53933D01*
X439480Y52933D01*
X371502Y34931D02*
X367503D01*
Y31932D01*
X369503D01*
X367503D01*
Y28933D01*
X373501D02*
Y34931D01*
X376500D01*
X377500Y33932D01*
Y31932D01*
X376500Y30933D01*
X373501D01*
X375501D02*
X377500Y28933D01*
X379499Y31932D02*
X383498D01*
X388496Y28933D02*
Y34931D01*
X385497Y31932D01*
X389496D01*
X371502Y9932D02*
X370502Y10931D01*
X368503D01*
X367503Y9932D01*
Y8932D01*
X368503Y7932D01*
X370502D01*
X371502Y6933D01*
Y5933D01*
X370502Y4933D01*
X368503D01*
X367503Y5933D01*
X374501Y4933D02*
X376500D01*
X377500Y5933D01*
Y7932D01*
X376500Y8932D01*
X374501D01*
X373501Y7932D01*
Y5933D01*
X374501Y4933D01*
X379499D02*
X381499D01*
X380499D01*
Y10931D01*
X379499D01*
X388496D02*
Y4933D01*
X385497D01*
X384498Y5933D01*
Y7932D01*
X385497Y8932D01*
X388496D01*
X393495Y4933D02*
X391495D01*
X390496Y5933D01*
Y7932D01*
X391495Y8932D01*
X393495D01*
X394495Y7932D01*
Y6933D01*
X390496D01*
X396494Y8932D02*
Y4933D01*
Y6933D01*
X397494Y7932D01*
X398493Y8932D01*
X399493D01*
X408490Y4933D02*
Y10931D01*
X411489D01*
X412489Y9932D01*
Y7932D01*
X411489Y6933D01*
X408490D01*
X410489D02*
X412489Y4933D01*
X417487D02*
X415488D01*
X414488Y5933D01*
Y7932D01*
X415488Y8932D01*
X417487D01*
X418487Y7932D01*
Y6933D01*
X414488D01*
X420486Y4933D02*
X423485D01*
X424485Y5933D01*
X423485Y6933D01*
X421486D01*
X420486Y7932D01*
X421486Y8932D01*
X424485D01*
X426484Y4933D02*
X428483D01*
X427484D01*
Y8932D01*
X426484D01*
X431483Y4933D02*
X434482D01*
X435481Y5933D01*
X434482Y6933D01*
X432482D01*
X431483Y7932D01*
X432482Y8932D01*
X435481D01*
X438480Y9932D02*
Y8932D01*
X437481D01*
X439480D01*
X438480D01*
Y5933D01*
X439480Y4933D01*
X367503Y76933D02*
Y82931D01*
X369503Y80932D01*
X371502Y82931D01*
Y76933D01*
X374501Y80932D02*
X376500D01*
X377500Y79932D01*
Y76933D01*
X374501D01*
X373501Y77933D01*
X374501Y78933D01*
X377500D01*
X380499Y81932D02*
Y80932D01*
X379499D01*
X381499D01*
X380499D01*
Y77933D01*
X381499Y76933D01*
X387497D02*
X385497D01*
X384498Y77933D01*
Y79932D01*
X385497Y80932D01*
X387497D01*
X388496Y79932D01*
Y78933D01*
X384498D01*
X390496Y80932D02*
Y76933D01*
Y78933D01*
X391495Y79932D01*
X392495Y80932D01*
X393495D01*
X396494Y76933D02*
X398493D01*
X397494D01*
Y80932D01*
X396494D01*
X402492D02*
X404491D01*
X405491Y79932D01*
Y76933D01*
X402492D01*
X401492Y77933D01*
X402492Y78933D01*
X405491D01*
X407490Y76933D02*
X409490D01*
X408490D01*
Y82931D01*
X407490D01*
X274529Y70931D02*
X278527D01*
X276528D01*
Y64933D01*
X281526D02*
X283526D01*
X284526Y65933D01*
Y67932D01*
X283526Y68932D01*
X281526D01*
X280527Y67932D01*
Y65933D01*
X281526Y64933D01*
X286525Y62934D02*
Y68932D01*
X289524D01*
X290524Y67932D01*
Y65933D01*
X289524Y64933D01*
X286525D01*
X301520Y70931D02*
X299521D01*
X298521Y69932D01*
Y65933D01*
X299521Y64933D01*
X301520D01*
X302520Y65933D01*
Y69932D01*
X301520Y70931D01*
X304519Y68932D02*
X306518Y64933D01*
X308518Y68932D01*
X313516Y64933D02*
X311517D01*
X310517Y65933D01*
Y67932D01*
X311517Y68932D01*
X313516D01*
X314516Y67932D01*
Y66933D01*
X310517D01*
X316515Y68932D02*
Y64933D01*
Y66933D01*
X317515Y67932D01*
X318515Y68932D01*
X319514D01*
X322513Y64933D02*
X324513D01*
X323513D01*
Y70931D01*
X322513D01*
X328511Y68932D02*
X330511D01*
X331510Y67932D01*
Y64933D01*
X328511D01*
X327512Y65933D01*
X328511Y66933D01*
X331510D01*
X333510Y68932D02*
Y65933D01*
X334509Y64933D01*
X337508D01*
Y63934D01*
X336509Y62934D01*
X335509D01*
X337508Y64933D02*
Y68932D01*
X274529Y58931D02*
X278527D01*
X276528D01*
Y52933D01*
X281526D02*
X283526D01*
X284526Y53933D01*
Y55932D01*
X283526Y56932D01*
X281526D01*
X280527Y55932D01*
Y53933D01*
X281526Y52933D01*
X286525Y50934D02*
Y56932D01*
X289524D01*
X290524Y55932D01*
Y53933D01*
X289524Y52933D01*
X286525D01*
X302520Y57932D02*
X301520Y58931D01*
X299521D01*
X298521Y57932D01*
Y56932D01*
X299521Y55932D01*
X301520D01*
X302520Y54933D01*
Y53933D01*
X301520Y52933D01*
X299521D01*
X298521Y53933D01*
X305519Y52933D02*
X307518D01*
X308518Y53933D01*
Y55932D01*
X307518Y56932D01*
X305519D01*
X304519Y55932D01*
Y53933D01*
X305519Y52933D01*
X310517D02*
X312516D01*
X311517D01*
Y58931D01*
X310517D01*
X319514D02*
Y52933D01*
X316515D01*
X315515Y53933D01*
Y55932D01*
X316515Y56932D01*
X319514D01*
X324513Y52933D02*
X322513D01*
X321514Y53933D01*
Y55932D01*
X322513Y56932D01*
X324513D01*
X325512Y55932D01*
Y54933D01*
X321514D01*
X327512Y56932D02*
Y52933D01*
Y54933D01*
X328511Y55932D01*
X329511Y56932D01*
X330511D01*
X274529Y46931D02*
X278527D01*
X276528D01*
Y40933D01*
X281526D02*
X283526D01*
X284526Y41933D01*
Y43932D01*
X283526Y44932D01*
X281526D01*
X280527Y43932D01*
Y41933D01*
X281526Y40933D01*
X286525Y38934D02*
Y44932D01*
X289524D01*
X290524Y43932D01*
Y41933D01*
X289524Y40933D01*
X286525D01*
X298521Y46931D02*
Y40933D01*
X302520D01*
X305519Y44932D02*
X307518D01*
X308518Y43932D01*
Y40933D01*
X305519D01*
X304519Y41933D01*
X305519Y42933D01*
X308518D01*
X310517Y44932D02*
Y41933D01*
X311517Y40933D01*
X314516D01*
Y39934D01*
X313516Y38934D01*
X312516D01*
X314516Y40933D02*
Y44932D01*
X319514Y40933D02*
X317515D01*
X316515Y41933D01*
Y43932D01*
X317515Y44932D01*
X319514D01*
X320514Y43932D01*
Y42933D01*
X316515D01*
X322513Y44932D02*
Y40933D01*
Y42933D01*
X323513Y43932D01*
X324513Y44932D01*
X325512D01*
X274529Y34931D02*
Y28933D01*
X277528D01*
X278527Y29933D01*
Y33932D01*
X277528Y34931D01*
X274529D01*
X280527Y28933D02*
X282526D01*
X281526D01*
Y32932D01*
X280527D01*
X288524Y28933D02*
X286525D01*
X285525Y29933D01*
Y31932D01*
X286525Y32932D01*
X288524D01*
X289524Y31932D01*
Y30933D01*
X285525D01*
X291523Y28933D02*
X293523D01*
X292523D01*
Y34931D01*
X291523D01*
X299521Y28933D02*
X297521D01*
X296522Y29933D01*
Y31932D01*
X297521Y32932D01*
X299521D01*
X300520Y31932D01*
Y30933D01*
X296522D01*
X306518Y32932D02*
X303519D01*
X302520Y31932D01*
Y29933D01*
X303519Y28933D01*
X306518D01*
X309518Y33932D02*
Y32932D01*
X308518D01*
X310517D01*
X309518D01*
Y29933D01*
X310517Y28933D01*
X313516Y32932D02*
Y28933D01*
Y30933D01*
X314516Y31932D01*
X315515Y32932D01*
X316515D01*
X319514Y28933D02*
X321514D01*
X320514D01*
Y32932D01*
X319514D01*
X328511D02*
X325512D01*
X324513Y31932D01*
Y29933D01*
X325512Y28933D01*
X328511D01*
X336509D02*
X338508D01*
X337508D01*
Y34931D01*
X336509Y33932D01*
X274529Y22931D02*
Y16933D01*
X277528D01*
X278527Y17933D01*
Y18933D01*
X277528Y19932D01*
X274529D01*
X277528D01*
X278527Y20932D01*
Y21932D01*
X277528Y22931D01*
X274529D01*
X281526Y16933D02*
X283526D01*
X284526Y17933D01*
Y19932D01*
X283526Y20932D01*
X281526D01*
X280527Y19932D01*
Y17933D01*
X281526Y16933D01*
X287525Y21932D02*
Y20932D01*
X286525D01*
X288524D01*
X287525D01*
Y17933D01*
X288524Y16933D01*
X292523Y21932D02*
Y20932D01*
X291523D01*
X293523D01*
X292523D01*
Y17933D01*
X293523Y16933D01*
X297521D02*
X299521D01*
X300520Y17933D01*
Y19932D01*
X299521Y20932D01*
X297521D01*
X296522Y19932D01*
Y17933D01*
X297521Y16933D01*
X302520D02*
Y20932D01*
X303519D01*
X304519Y19932D01*
Y16933D01*
Y19932D01*
X305519Y20932D01*
X306518Y19932D01*
Y16933D01*
X314516Y22931D02*
Y16933D01*
X318515D01*
X321514Y20932D02*
X323513D01*
X324513Y19932D01*
Y16933D01*
X321514D01*
X320514Y17933D01*
X321514Y18933D01*
X324513D01*
X326512Y20932D02*
Y17933D01*
X327512Y16933D01*
X330511D01*
Y15934D01*
X329511Y14934D01*
X328511D01*
X330511Y16933D02*
Y20932D01*
X335509Y16933D02*
X333510D01*
X332510Y17933D01*
Y19932D01*
X333510Y20932D01*
X335509D01*
X336509Y19932D01*
Y18933D01*
X332510D01*
X338508Y20932D02*
Y16933D01*
Y18933D01*
X339508Y19932D01*
X340507Y20932D01*
X341507D01*
X274529Y10931D02*
Y4933D01*
X277528D01*
X278527Y5933D01*
Y6933D01*
X277528Y7932D01*
X274529D01*
X277528D01*
X278527Y8932D01*
Y9932D01*
X277528Y10931D01*
X274529D01*
X281526Y4933D02*
X283526D01*
X284526Y5933D01*
Y7932D01*
X283526Y8932D01*
X281526D01*
X280527Y7932D01*
Y5933D01*
X281526Y4933D01*
X287525Y9932D02*
Y8932D01*
X286525D01*
X288524D01*
X287525D01*
Y5933D01*
X288524Y4933D01*
X292523Y9932D02*
Y8932D01*
X291523D01*
X293523D01*
X292523D01*
Y5933D01*
X293523Y4933D01*
X297521D02*
X299521D01*
X300520Y5933D01*
Y7932D01*
X299521Y8932D01*
X297521D01*
X296522Y7932D01*
Y5933D01*
X297521Y4933D01*
X302520D02*
Y8932D01*
X303519D01*
X304519Y7932D01*
Y4933D01*
Y7932D01*
X305519Y8932D01*
X306518Y7932D01*
Y4933D01*
X318515Y9932D02*
X317515Y10931D01*
X315515D01*
X314516Y9932D01*
Y8932D01*
X315515Y7932D01*
X317515D01*
X318515Y6933D01*
Y5933D01*
X317515Y4933D01*
X315515D01*
X314516Y5933D01*
X321514Y4933D02*
X323513D01*
X324513Y5933D01*
Y7932D01*
X323513Y8932D01*
X321514D01*
X320514Y7932D01*
Y5933D01*
X321514Y4933D01*
X326512D02*
X328511D01*
X327512D01*
Y10931D01*
X326512D01*
X335509D02*
Y4933D01*
X332510D01*
X331510Y5933D01*
Y7932D01*
X332510Y8932D01*
X335509D01*
X340507Y4933D02*
X338508D01*
X337508Y5933D01*
Y7932D01*
X338508Y8932D01*
X340507D01*
X341507Y7932D01*
Y6933D01*
X337508D01*
X343507Y8932D02*
Y4933D01*
Y6933D01*
X344506Y7932D01*
X345506Y8932D01*
X346505D01*
X274529Y-1069D02*
Y-7067D01*
X277528D01*
X278527Y-6067D01*
Y-5067D01*
X277528Y-4068D01*
X274529D01*
X277528D01*
X278527Y-3068D01*
Y-2068D01*
X277528Y-1069D01*
X274529D01*
X281526Y-7067D02*
X283526D01*
X284526Y-6067D01*
Y-4068D01*
X283526Y-3068D01*
X281526D01*
X280527Y-4068D01*
Y-6067D01*
X281526Y-7067D01*
X287525Y-2068D02*
Y-3068D01*
X286525D01*
X288524D01*
X287525D01*
Y-6067D01*
X288524Y-7067D01*
X292523Y-2068D02*
Y-3068D01*
X291523D01*
X293523D01*
X292523D01*
Y-6067D01*
X293523Y-7067D01*
X297521D02*
X299521D01*
X300520Y-6067D01*
Y-4068D01*
X299521Y-3068D01*
X297521D01*
X296522Y-4068D01*
Y-6067D01*
X297521Y-7067D01*
X302520D02*
Y-3068D01*
X303519D01*
X304519Y-4068D01*
Y-7067D01*
Y-4068D01*
X305519Y-3068D01*
X306518Y-4068D01*
Y-7067D01*
X317515Y-1069D02*
X315515D01*
X314516Y-2068D01*
Y-6067D01*
X315515Y-7067D01*
X317515D01*
X318515Y-6067D01*
Y-2068D01*
X317515Y-1069D01*
X320514Y-3068D02*
X322513Y-7067D01*
X324513Y-3068D01*
X329511Y-7067D02*
X327512D01*
X326512Y-6067D01*
Y-4068D01*
X327512Y-3068D01*
X329511D01*
X330511Y-4068D01*
Y-5067D01*
X326512D01*
X332510Y-3068D02*
Y-7067D01*
Y-5067D01*
X333510Y-4068D01*
X334509Y-3068D01*
X335509D01*
X338508Y-7067D02*
X340507D01*
X339508D01*
Y-1069D01*
X338508D01*
X344506Y-3068D02*
X346505D01*
X347505Y-4068D01*
Y-7067D01*
X344506D01*
X343507Y-6067D01*
X344506Y-5067D01*
X347505D01*
X349504Y-3068D02*
Y-6067D01*
X350504Y-7067D01*
X353503D01*
Y-8066D01*
X352503Y-9066D01*
X351504D01*
X353503Y-7067D02*
Y-3068D01*
X274529Y76933D02*
Y82931D01*
X278527Y76933D01*
Y82931D01*
X281526Y80932D02*
X283526D01*
X284526Y79932D01*
Y76933D01*
X281526D01*
X280527Y77933D01*
X281526Y78933D01*
X284526D01*
X286525Y76933D02*
Y80932D01*
X287525D01*
X288524Y79932D01*
Y76933D01*
Y79932D01*
X289524Y80932D01*
X290524Y79932D01*
Y76933D01*
X295522D02*
X293523D01*
X292523Y77933D01*
Y79932D01*
X293523Y80932D01*
X295522D01*
X296522Y79932D01*
Y78933D01*
X292523D01*
X233538Y40933D02*
X235537D01*
X234537D01*
Y46931D01*
X233538Y45932D01*
X237536Y16933D02*
X233538D01*
X237536Y20932D01*
Y21932D01*
X236537Y22931D01*
X234537D01*
X233538Y21932D01*
Y82931D02*
Y76933D01*
X237536D01*
X240535Y80932D02*
X242535D01*
X243534Y79932D01*
Y76933D01*
X240535D01*
X239536Y77933D01*
X240535Y78933D01*
X243534D01*
X245534Y80932D02*
Y77933D01*
X246533Y76933D01*
X249532D01*
Y75934D01*
X248533Y74934D01*
X247533D01*
X249532Y76933D02*
Y80932D01*
X254531Y76933D02*
X252531D01*
X251532Y77933D01*
Y79932D01*
X252531Y80932D01*
X254531D01*
X255530Y79932D01*
Y78933D01*
X251532D01*
X257530Y80932D02*
Y76933D01*
Y78933D01*
X258529Y79932D01*
X259529Y80932D01*
X260529D01*
D74*
X184547Y16367D02*
D03*
D75*
X194547Y26367D02*
D03*
Y6367D02*
D03*
X174547D02*
D03*
Y26367D02*
D03*
D76*
X20098Y40481D02*
D03*
Y21387D02*
D03*
D77*
X7972Y14792D02*
D03*
Y47076D02*
D03*
D78*
X33740Y69418D02*
D03*
D79*
X43740D02*
D03*
X53740D02*
D03*
X63740D02*
D03*
D80*
X175689Y14694D02*
D03*
X181299Y9477D02*
D03*
X147441Y61249D02*
D03*
X146260Y67351D02*
D03*
X144095Y61150D02*
D03*
X96752Y56532D02*
D03*
Y52269D02*
D03*
Y60795D02*
D03*
Y48007D02*
D03*
Y18169D02*
D03*
X96851Y14694D02*
D03*
X96752Y22432D02*
D03*
Y65057D02*
D03*
Y26694D02*
D03*
Y30957D02*
D03*
X144587Y50619D02*
D03*
X96752Y39482D02*
D03*
Y35219D02*
D03*
X186713Y74733D02*
D03*
X86614D02*
D03*
X83465Y59871D02*
D03*
X177165Y75127D02*
D03*
X142027Y74733D02*
D03*
X180413D02*
D03*
X183563Y74832D02*
D03*
X133502Y74733D02*
D03*
X137765D02*
D03*
X129240D02*
D03*
X124977D02*
D03*
X108003Y64497D02*
D03*
X189075Y73355D02*
D03*
X175492Y72371D02*
D03*
X108692Y51800D02*
D03*
X120791Y64497D02*
D03*
X131595Y68828D02*
D03*
X144390Y70402D02*
D03*
X104429Y51800D02*
D03*
X116528Y64497D02*
D03*
X103665Y74733D02*
D03*
X120715D02*
D03*
X116452D02*
D03*
X112190D02*
D03*
X107927D02*
D03*
X83169Y64398D02*
D03*
X96752Y43744D02*
D03*
X112265Y64497D02*
D03*
X149508Y67548D02*
D03*
X152756Y67351D02*
D03*
X156102Y68532D02*
D03*
X151673Y61249D02*
D03*
X159252Y68631D02*
D03*
X149213Y50520D02*
D03*
X157283Y53867D02*
D03*
X163878Y58395D02*
D03*
X160925Y53375D02*
D03*
X163386Y61643D02*
D03*
X170374Y61544D02*
D03*
X172835Y69024D02*
D03*
X163189Y48158D02*
D03*
X167028Y67745D02*
D03*
X125348Y17647D02*
D03*
X121086D02*
D03*
X116823D02*
D03*
X112561D02*
D03*
X108298D02*
D03*
X104035D02*
D03*
X126628Y28867D02*
D03*
X122365D02*
D03*
X118103D02*
D03*
X113840D02*
D03*
X109578D02*
D03*
X105315D02*
D03*
X125053Y64497D02*
D03*
X103740D02*
D03*
X125742Y51800D02*
D03*
X121479D02*
D03*
X117217D02*
D03*
X112954D02*
D03*
X125644Y38906D02*
D03*
X121381D02*
D03*
X117118D02*
D03*
X112856D02*
D03*
X108593D02*
D03*
X104331D02*
D03*
X154134Y50816D02*
D03*
X37303Y7214D02*
D03*
X46260Y6820D02*
D03*
X54429Y7017D02*
D03*
X75591Y27883D02*
D03*
X67717Y27784D02*
D03*
X54528Y40678D02*
D03*
X68406Y47863D02*
D03*
X83268Y54654D02*
D03*
X83169Y69713D02*
D03*
X66142Y61446D02*
D03*
X57677Y60363D02*
D03*
X50295Y61938D02*
D03*
X27165Y60166D02*
D03*
X25197Y51111D02*
D03*
X29921Y34576D02*
D03*
X28445Y21288D02*
D03*
X34154Y13710D02*
D03*
X55020Y13611D02*
D03*
X60827Y10855D02*
D03*
X90256Y2784D02*
D03*
X94519D02*
D03*
X98781D02*
D03*
X103044D02*
D03*
X107306D02*
D03*
X111569D02*
D03*
X115831D02*
D03*
X120094D02*
D03*
X124356D02*
D03*
X128619D02*
D03*
X132882D02*
D03*
X137144D02*
D03*
X141407D02*
D03*
X145669D02*
D03*
X90877Y74733D02*
D03*
X95139D02*
D03*
X99402D02*
D03*
X131595Y64565D02*
D03*
Y60303D02*
D03*
Y56040D02*
D03*
Y51777D02*
D03*
Y47515D02*
D03*
Y43252D02*
D03*
Y38990D02*
D03*
Y34727D02*
D03*
Y30465D02*
D03*
Y26202D02*
D03*
Y21939D02*
D03*
Y17677D02*
D03*
X96752Y69320D02*
D03*
X87697Y47273D02*
D03*
X87599Y43631D02*
D03*
X145276Y39694D02*
D03*
X185728Y50619D02*
D03*
X189567Y34280D02*
D03*
Y38021D02*
D03*
X190059Y41662D02*
D03*
X188976Y44910D02*
D03*
X185728Y46584D02*
D03*
X194291Y18237D02*
D03*
X194488Y13710D02*
D03*
X186024Y8985D02*
D03*
X175787Y18926D02*
D03*
X173228Y33690D02*
D03*
X176378Y33099D02*
D03*
X179725Y34084D02*
D03*
X162992Y44910D02*
D03*
X164075Y51603D02*
D03*
X163976Y55048D02*
D03*
X170374Y52784D02*
D03*
X170768Y55442D02*
D03*
X170669Y58296D02*
D03*
X173327Y60855D02*
D03*
X175689Y59576D02*
D03*
Y56328D02*
D03*
X178740Y55048D02*
D03*
X181791Y54851D02*
D03*
X184843Y54753D02*
D03*
X188189D02*
D03*
X189567Y57706D02*
D03*
X189862Y60855D02*
D03*
Y64005D02*
D03*
X189961Y67154D02*
D03*
X189567Y70501D02*
D03*
X175886Y69123D02*
D03*
X169980Y67745D02*
D03*
X162992Y67646D02*
D03*
D81*
X146654Y31426D02*
D03*
X174311Y51702D02*
D03*
X43209Y24536D02*
D03*
X84302Y30967D02*
D03*
X145571Y35166D02*
D03*
X60925Y16761D02*
D03*
X158661Y26111D02*
D03*
X82776Y26505D02*
D03*
X48720Y42745D02*
D03*
X25295Y25816D02*
D03*
X28445Y28276D02*
D03*
X28329Y30942D02*
D03*
M02*
