G04*
G04 #@! TF.GenerationSoftware,Altium Limited,Altium Designer,22.2.1 (43)*
G04*
G04 Layer_Color=32896*
%FSLAX25Y25*%
%MOIN*%
G70*
G04*
G04 #@! TF.SameCoordinates,F9679001-C221-457E-AD06-5865B11B1ABB*
G04*
G04*
G04 #@! TF.FilePolarity,Positive*
G04*
G01*
G75*
%ADD15C,0.00787*%
D15*
X61676Y11818D02*
X63512D01*
Y9063D01*
X61676D01*
X63512Y10440D02*
X62594D01*
X60757Y9063D02*
Y11818D01*
X58921Y9063D01*
Y11818D01*
X56166D02*
X58002D01*
Y9063D01*
X56166D01*
X58002Y10440D02*
X57084D01*
X53411Y11359D02*
X53870Y11818D01*
X54788D01*
X55247Y11359D01*
Y10899D01*
X54788Y10440D01*
X53870D01*
X53411Y9981D01*
Y9522D01*
X53870Y9063D01*
X54788D01*
X55247Y9522D01*
X49737Y9063D02*
Y11818D01*
X48819Y10899D01*
X47901Y11818D01*
Y9063D01*
X45146Y11818D02*
X46982D01*
Y9063D01*
X45146D01*
X46982Y10440D02*
X46064D01*
X44227Y9063D02*
Y11818D01*
X42850D01*
X42391Y11359D01*
Y10440D01*
X42850Y9981D01*
X44227D01*
X43309D02*
X42391Y9063D01*
X39636Y11359D02*
X40095Y11818D01*
X41013D01*
X41472Y11359D01*
Y9522D01*
X41013Y9063D01*
X40095D01*
X39636Y9522D01*
X38717Y9063D02*
Y10899D01*
X37799Y11818D01*
X36880Y10899D01*
Y9063D01*
Y10440D01*
X38717D01*
X35962Y9063D02*
Y11818D01*
X34126Y9063D01*
Y11818D01*
X65349Y6163D02*
X64890Y6622D01*
X63972D01*
X63512Y6163D01*
Y5704D01*
X63972Y5244D01*
X64431D01*
X63972D01*
X63512Y4785D01*
Y4326D01*
X63972Y3867D01*
X64890D01*
X65349Y4326D01*
X62594Y6163D02*
X62135Y6622D01*
X61216D01*
X60757Y6163D01*
Y4326D01*
X61216Y3867D01*
X62135D01*
X62594Y4326D01*
Y6163D01*
X57084Y3867D02*
Y4326D01*
X56625D01*
Y3867D01*
X57084D01*
X52033Y6622D02*
X50196D01*
Y6163D01*
X52033Y4326D01*
Y3867D01*
X46523D02*
Y4326D01*
X46064D01*
Y3867D01*
X46523D01*
X39636D02*
X41472D01*
X39636Y5704D01*
Y6163D01*
X40095Y6622D01*
X41013D01*
X41472Y6163D01*
X38717D02*
X38258Y6622D01*
X37340D01*
X36880Y6163D01*
Y4326D01*
X37340Y3867D01*
X38258D01*
X38717Y4326D01*
Y6163D01*
X34126Y3867D02*
X35962D01*
X34126Y5704D01*
Y6163D01*
X34585Y6622D01*
X35503D01*
X35962Y6163D01*
X33207Y3867D02*
X32289D01*
X32748D01*
Y6622D01*
X33207Y6163D01*
M02*
