G04*
G04 #@! TF.GenerationSoftware,Altium Limited,Altium Designer,22.2.1 (43)*
G04*
G04 Layer_Color=8388736*
%FSLAX25Y25*%
%MOIN*%
G70*
G04*
G04 #@! TF.SameCoordinates,F9679001-C221-457E-AD06-5865B11B1ABB*
G04*
G04*
G04 #@! TF.FilePolarity,Negative*
G04*
G01*
G75*
%ADD39R,0.07480X0.03740*%
%ADD40R,0.04737X0.04540*%
%ADD41R,0.04528X0.04331*%
%ADD42R,0.04540X0.04737*%
%ADD43R,0.04331X0.04528*%
%ADD44R,0.01654X0.02441*%
%ADD45R,0.02756X0.02520*%
%ADD46R,0.02795X0.05118*%
%ADD47R,0.05709X0.04134*%
%ADD48R,0.04134X0.05709*%
G04:AMPARAMS|DCode=49|XSize=51.58mil|YSize=27.17mil|CornerRadius=7.78mil|HoleSize=0mil|Usage=FLASHONLY|Rotation=180.000|XOffset=0mil|YOffset=0mil|HoleType=Round|Shape=RoundedRectangle|*
%AMROUNDEDRECTD49*
21,1,0.05158,0.01161,0,0,180.0*
21,1,0.03602,0.02717,0,0,180.0*
1,1,0.01555,-0.01801,0.00581*
1,1,0.01555,0.01801,0.00581*
1,1,0.01555,0.01801,-0.00581*
1,1,0.01555,-0.01801,-0.00581*
%
%ADD49ROUNDEDRECTD49*%
%ADD50R,0.07441X0.02126*%
%ADD51R,0.10394X0.05965*%
%ADD52R,0.03740X0.03740*%
%ADD53R,0.07087X0.16535*%
%ADD54R,0.03937X0.03937*%
%ADD55R,0.02441X0.01496*%
%ADD56R,0.04528X0.04331*%
%ADD57R,0.09055X0.04528*%
%ADD58R,0.03543X0.03543*%
%ADD59R,0.02362X0.02756*%
%ADD60C,0.09252*%
%ADD61C,0.10433*%
%ADD62O,0.06693X0.03543*%
%ADD63O,0.08661X0.04528*%
%ADD64R,0.06693X0.08268*%
%ADD65O,0.06693X0.08268*%
D39*
X138246Y68762D02*
D03*
Y64431D02*
D03*
X90215D02*
D03*
X138246Y60101D02*
D03*
X90215D02*
D03*
X138246Y55770D02*
D03*
X90215D02*
D03*
Y68762D02*
D03*
X138246Y51439D02*
D03*
Y39628D02*
D03*
X90215D02*
D03*
X138246Y35297D02*
D03*
X90215D02*
D03*
X138246Y30967D02*
D03*
X90215D02*
D03*
X138246Y26636D02*
D03*
X90215D02*
D03*
X138246Y22305D02*
D03*
X90215D02*
D03*
X138246Y17975D02*
D03*
X90215D02*
D03*
X138246Y13644D02*
D03*
X90215Y51439D02*
D03*
Y13644D02*
D03*
D40*
X167323Y45865D02*
D03*
X184449Y34969D02*
D03*
X157579Y64398D02*
D03*
D41*
X167323Y39566D02*
D03*
X184449Y41269D02*
D03*
X66866Y11459D02*
D03*
Y17758D02*
D03*
X157579Y58099D02*
D03*
D42*
X174016Y47469D02*
D03*
D43*
X180315D02*
D03*
D44*
X172016Y37469D02*
D03*
X174016D02*
D03*
X176016D02*
D03*
Y40343D02*
D03*
X174016D02*
D03*
X172016D02*
D03*
D45*
X179331Y40804D02*
D03*
Y37402D02*
D03*
D46*
X68858Y33887D02*
D03*
X63858Y55737D02*
D03*
X68858D02*
D03*
X73858D02*
D03*
X78858D02*
D03*
Y33887D02*
D03*
X73858D02*
D03*
X63858D02*
D03*
D47*
X56890Y46091D02*
D03*
Y51209D02*
D03*
X31496Y46190D02*
D03*
Y51308D02*
D03*
X81581Y17856D02*
D03*
Y12738D02*
D03*
X73904Y12837D02*
D03*
Y17955D02*
D03*
D48*
X38091Y59674D02*
D03*
X32972D02*
D03*
X45853Y14116D02*
D03*
X40734D02*
D03*
D49*
X49134Y45796D02*
D03*
Y49536D02*
D03*
Y53276D02*
D03*
X39252D02*
D03*
Y45796D02*
D03*
D50*
X19291Y36052D02*
D03*
Y33493D02*
D03*
Y30934D02*
D03*
Y28375D02*
D03*
Y25816D02*
D03*
D51*
X7185Y34625D02*
D03*
Y27243D02*
D03*
D52*
X56876Y22876D02*
D03*
Y29569D02*
D03*
X158465Y22273D02*
D03*
Y15580D02*
D03*
X152953Y23060D02*
D03*
Y29753D02*
D03*
D53*
X35340Y26883D02*
D03*
D54*
X50891Y21174D02*
D03*
D55*
X56876Y36656D02*
D03*
Y34097D02*
D03*
D56*
X176378Y64891D02*
D03*
D57*
X182382Y70698D02*
D03*
Y59083D02*
D03*
D58*
X146640Y22089D02*
D03*
Y15593D02*
D03*
D59*
X150906Y55639D02*
D03*
X147323D02*
D03*
D60*
X184547Y16367D02*
D03*
D61*
X194547Y26367D02*
D03*
Y6367D02*
D03*
X174547D02*
D03*
Y26367D02*
D03*
D62*
X20098Y40481D02*
D03*
Y21387D02*
D03*
D63*
X7972Y14792D02*
D03*
Y47076D02*
D03*
D64*
X33740Y69418D02*
D03*
D65*
X43740D02*
D03*
X53740D02*
D03*
X63740D02*
D03*
M02*
