G04*
G04 #@! TF.GenerationSoftware,Altium Limited,Altium Designer,22.2.1 (43)*
G04*
G04 Layer_Color=65535*
%FSLAX25Y25*%
%MOIN*%
G70*
G04*
G04 #@! TF.SameCoordinates,F9679001-C221-457E-AD06-5865B11B1ABB*
G04*
G04*
G04 #@! TF.FilePolarity,Positive*
G04*
G01*
G75*
%ADD10C,0.01600*%
%ADD11C,0.00394*%
%ADD12C,0.01181*%
%ADD13C,0.01260*%
%ADD14C,0.00500*%
%ADD15C,0.00787*%
%ADD16C,0.00197*%
%ADD17C,0.00276*%
%ADD18C,0.00512*%
%ADD19C,0.00591*%
%ADD20C,0.00669*%
G36*
X147848Y18085D02*
X145486D01*
X146667Y19659D01*
X147848Y18085D01*
D02*
G37*
D10*
X144939Y13250D02*
G03*
X144939Y13250I-787J0D01*
G01*
D11*
X172016Y35796D02*
G03*
X172016Y35796I-98J0D01*
G01*
X164567Y39960D02*
X164573Y39954D01*
Y36871D02*
Y39954D01*
Y36871D02*
X170115D01*
X164567Y39960D02*
Y45472D01*
Y48523D02*
X170115D01*
Y36871D02*
Y48523D01*
X164567Y45472D02*
Y48523D01*
X179921Y44713D02*
X179927Y44719D01*
X183010D01*
Y50262D01*
X174409Y44713D02*
X179921D01*
X171358D02*
Y50262D01*
X183010D01*
X171358Y44713D02*
X174409D01*
X187199Y40880D02*
X187205Y40875D01*
X187199Y40880D02*
Y43963D01*
X181657D02*
X187199D01*
X187205Y35363D02*
Y40875D01*
X181657Y32312D02*
X187205D01*
X181657D02*
Y43963D01*
X187205Y32312D02*
Y35363D01*
X66437Y55764D02*
Y62556D01*
X67717Y60981D01*
X61122Y37824D02*
Y51603D01*
Y37824D02*
X81575D01*
Y51603D01*
X61122D02*
X81575D01*
X53543Y43434D02*
Y53867D01*
Y43434D02*
X60039D01*
X60236Y45651D02*
Y51651D01*
Y43434D02*
Y45651D01*
X53543Y53867D02*
X60236D01*
Y51651D02*
Y53867D01*
X30315Y56328D02*
X40748D01*
Y62824D01*
X32531Y63020D02*
X38532D01*
X40748D01*
X30315Y56328D02*
Y63020D01*
X32531D01*
X28150Y43532D02*
Y53965D01*
Y43532D02*
X34646D01*
X34843Y45749D02*
Y51749D01*
Y43532D02*
Y45749D01*
X28150Y53965D02*
X34843D01*
Y51749D02*
Y53965D01*
X38077Y10770D02*
X48510D01*
Y17266D01*
X40293Y17463D02*
X46294D01*
X48510D01*
X38077Y10770D02*
Y17463D01*
X40293D01*
X54514Y20507D02*
X59238D01*
Y31954D01*
X54514D02*
X59238D01*
X54514Y20507D02*
Y31954D01*
X56089Y32620D02*
X57664D01*
X54908Y33408D02*
Y37423D01*
X58845Y33408D02*
Y37423D01*
X156102Y13211D02*
Y24658D01*
X160827D01*
Y13211D02*
Y24658D01*
X156102Y13211D02*
X160827D01*
X64110Y17364D02*
Y20415D01*
X69659Y8764D02*
Y20415D01*
X64110D02*
X69659D01*
X64110Y11852D02*
Y17364D01*
X64116Y8764D02*
X69659D01*
X64116D02*
Y11847D01*
X64110Y11852D02*
X64116Y11847D01*
X155315Y20675D02*
Y32122D01*
X150591Y20675D02*
X155315D01*
X150591D02*
Y32122D01*
X155315D01*
X154823Y58493D02*
X154828Y58487D01*
Y55404D02*
Y58487D01*
Y55404D02*
X160371D01*
X154823Y58493D02*
Y64005D01*
Y67056D02*
X160371D01*
Y55404D02*
Y67056D01*
X154823Y64005D02*
Y67056D01*
X84927Y18297D02*
Y20514D01*
X78234D02*
X84927D01*
Y10081D02*
Y12297D01*
Y18297D01*
X78234Y10081D02*
X84730D01*
X78234D02*
Y20514D01*
X70557Y10179D02*
Y20612D01*
Y10179D02*
X77053D01*
X77250Y12396D02*
Y18396D01*
Y10179D02*
Y12396D01*
X70557Y20612D02*
X77250D01*
Y18396D02*
Y20612D01*
X145486Y19659D02*
X147848D01*
X144170Y12935D02*
Y24746D01*
Y12935D02*
X149087D01*
Y24746D01*
X145065D02*
X147821D01*
X65059Y60981D02*
X66437Y62556D01*
X54036Y55835D02*
X55610Y57804D01*
X52559D02*
X54036Y55835D01*
Y62725D01*
D12*
X60335Y34182D02*
G03*
X60335Y34182I-394J0D01*
G01*
X34134Y77292D02*
G03*
X34134Y77292I-394J0D01*
G01*
D13*
X25776Y26052D02*
G03*
X25776Y26052I-591J0D01*
G01*
D14*
X52071Y29145D02*
G03*
X36211Y36373I-9427J329D01*
G01*
X39386Y20534D02*
G03*
X43510Y19955I3705J11403D01*
G01*
X89821Y9707D02*
X137853D01*
X89821Y72699D02*
X137853D01*
X42894Y55245D02*
X45492D01*
X41043Y48217D02*
Y50855D01*
X42894Y43828D02*
X45492D01*
X20768Y47288D02*
X23972D01*
Y43729D02*
Y47288D01*
Y14580D02*
Y18139D01*
X20768Y14580D02*
X23972D01*
X6004Y50776D02*
X9941D01*
X6004Y11091D02*
X9941D01*
X187500Y59772D02*
Y70009D01*
X177264Y67528D02*
Y70009D01*
Y59772D02*
Y62253D01*
D15*
X197047Y-28909D02*
Y619D01*
X179429Y30146D02*
X189665D01*
X198326Y11249D02*
Y21485D01*
X179429Y2588D02*
X189665D01*
X172047Y-28909D02*
X197047D01*
X170768Y11249D02*
Y21485D01*
X172047Y-28909D02*
Y619D01*
X27874Y74930D02*
X69606D01*
Y63906D02*
Y74930D01*
X27874Y63906D02*
Y74930D01*
Y63906D02*
X69606D01*
X23885Y67877D02*
X23426Y67418D01*
Y66499D01*
X23885Y66040D01*
X25722D01*
X26181Y66499D01*
Y67418D01*
X25722Y67877D01*
X24804D01*
Y66958D01*
X26181Y68795D02*
X23426D01*
X26181Y70632D01*
X23426D01*
Y71550D02*
X26181D01*
Y72928D01*
X25722Y73387D01*
X23885D01*
X23426Y72928D01*
Y71550D01*
X17557Y5216D02*
X15720D01*
Y2461D01*
X17557D01*
X15720Y3838D02*
X16638D01*
X18475Y2461D02*
Y5216D01*
X20312Y2461D01*
Y5216D01*
X23067D02*
X21230D01*
Y2461D01*
X23067D01*
X21230Y3838D02*
X22148D01*
X25822Y4756D02*
X25363Y5216D01*
X24444D01*
X23985Y4756D01*
Y4297D01*
X24444Y3838D01*
X25363D01*
X25822Y3379D01*
Y2920D01*
X25363Y2461D01*
X24444D01*
X23985Y2920D01*
X29495Y2461D02*
Y5216D01*
X30413Y4297D01*
X31332Y5216D01*
Y2461D01*
X34087Y5216D02*
X32250D01*
Y2461D01*
X34087D01*
X32250Y3838D02*
X33168D01*
X35005Y2461D02*
Y5216D01*
X36383D01*
X36842Y4756D01*
Y3838D01*
X36383Y3379D01*
X35005D01*
X35923D02*
X36842Y2461D01*
X39597Y4756D02*
X39138Y5216D01*
X38219D01*
X37760Y4756D01*
Y2920D01*
X38219Y2461D01*
X39138D01*
X39597Y2920D01*
X40515Y2461D02*
Y4297D01*
X41434Y5216D01*
X42352Y4297D01*
Y2461D01*
Y3838D01*
X40515D01*
X43270Y2461D02*
Y5216D01*
X45107Y2461D01*
Y5216D01*
X92396Y1772D02*
Y4527D01*
X94232Y1772D01*
Y4527D01*
X96987D02*
X95151D01*
Y1772D01*
X96987D01*
X95151Y3149D02*
X96069D01*
X99283Y4527D02*
X98365D01*
X97906Y4067D01*
Y2231D01*
X98365Y1772D01*
X99283D01*
X99743Y2231D01*
Y4067D01*
X99283Y4527D01*
X100661D02*
X102498D01*
Y4067D01*
X100661Y2231D01*
Y1772D01*
X103416D02*
Y4527D01*
X104334Y3608D01*
X105253Y4527D01*
Y1772D01*
X110763Y4067D02*
X110303Y4527D01*
X109385D01*
X108926Y4067D01*
Y2231D01*
X109385Y1772D01*
X110303D01*
X110763Y2231D01*
Y3149D01*
X109844D01*
X111681Y1772D02*
Y4527D01*
X113518Y1772D01*
Y4527D01*
X116273Y4067D02*
X115814Y4527D01*
X114895D01*
X114436Y4067D01*
Y3608D01*
X114895Y3149D01*
X115814D01*
X116273Y2690D01*
Y2231D01*
X115814Y1772D01*
X114895D01*
X114436Y2231D01*
X119028Y4067D02*
X118569Y4527D01*
X117650D01*
X117191Y4067D01*
Y3608D01*
X117650Y3149D01*
X118569D01*
X119028Y2690D01*
Y2231D01*
X118569Y1772D01*
X117650D01*
X117191Y2231D01*
X122701Y1772D02*
Y4527D01*
X123619Y3608D01*
X124538Y4527D01*
Y1772D01*
X126834Y4527D02*
X125915D01*
X125456Y4067D01*
Y2231D01*
X125915Y1772D01*
X126834D01*
X127293Y2231D01*
Y4067D01*
X126834Y4527D01*
X128211D02*
Y1772D01*
X129589D01*
X130048Y2231D01*
Y4067D01*
X129589Y4527D01*
X128211D01*
X130966D02*
Y2231D01*
X131425Y1772D01*
X132344D01*
X132803Y2231D01*
Y4527D01*
X133721D02*
Y1772D01*
X135558D01*
X138313Y4527D02*
X136476D01*
Y1772D01*
X138313D01*
X136476Y3149D02*
X137394D01*
D16*
X177264Y36249D02*
Y41564D01*
X170866Y36249D02*
Y41367D01*
D17*
X145571Y53670D02*
X152657D01*
X145571D02*
Y57607D01*
X152657D01*
Y53670D02*
Y57607D01*
D18*
X43059Y55804D02*
X42599Y56263D01*
Y57181D01*
X43059Y57641D01*
X43518D01*
X43977Y57181D01*
Y56722D01*
Y57181D01*
X44436Y57641D01*
X44895D01*
X45354Y57181D01*
Y56263D01*
X44895Y55804D01*
X42599Y58559D02*
X44436D01*
X45354Y59477D01*
X44436Y60396D01*
X42599D01*
X43059Y61314D02*
X42599Y61773D01*
Y62691D01*
X43059Y63151D01*
X43518D01*
X43977Y62691D01*
Y62232D01*
Y62691D01*
X44436Y63151D01*
X44895D01*
X45354Y62691D01*
Y61773D01*
X44895Y61314D01*
D19*
X165388Y35362D02*
Y32739D01*
X165913Y32214D01*
X166962D01*
X167487Y32739D01*
Y35362D01*
X170111Y32214D02*
Y35362D01*
X168537Y33788D01*
X170636D01*
X184154Y26701D02*
X183104D01*
X183629D01*
Y24077D01*
X183104Y23552D01*
X182579D01*
X182054Y24077D01*
X185203Y23552D02*
X186253D01*
X185728D01*
Y26701D01*
X185203Y26176D01*
X175329Y35067D02*
Y31919D01*
X177428D01*
X180577D02*
X178478D01*
X180577Y34018D01*
Y34543D01*
X180052Y35067D01*
X179002D01*
X178478Y34543D01*
X174148Y54326D02*
X173623Y54851D01*
X172573D01*
X172049Y54326D01*
Y52227D01*
X172573Y51702D01*
X173623D01*
X174148Y52227D01*
X175197Y51702D02*
X176247D01*
X175722D01*
Y54851D01*
X175197Y54326D01*
X177821D02*
X178346Y54851D01*
X179395D01*
X179920Y54326D01*
Y52227D01*
X179395Y51702D01*
X178346D01*
X177821Y52227D01*
Y54326D01*
X188911Y37299D02*
X188386Y36774D01*
Y35725D01*
X188911Y35200D01*
X191010D01*
X191535Y35725D01*
Y36774D01*
X191010Y37299D01*
Y38348D02*
X191535Y38873D01*
Y39923D01*
X191010Y40448D01*
X188911D01*
X188386Y39923D01*
Y38873D01*
X188911Y38348D01*
X189436D01*
X189961Y38873D01*
Y40448D01*
X166601Y52259D02*
X166077Y52784D01*
X165027D01*
X164502Y52259D01*
Y50160D01*
X165027Y49635D01*
X166077D01*
X166601Y50160D01*
X167651Y52259D02*
X168176Y52784D01*
X169225D01*
X169750Y52259D01*
Y51734D01*
X169225Y51209D01*
X169750Y50685D01*
Y50160D01*
X169225Y49635D01*
X168176D01*
X167651Y50160D01*
Y50685D01*
X168176Y51209D01*
X167651Y51734D01*
Y52259D01*
X168176Y51209D02*
X169225D01*
X47901Y42449D02*
Y39825D01*
X48426Y39301D01*
X49475D01*
X50000Y39825D01*
Y42449D01*
X51050Y39301D02*
X52099D01*
X51574D01*
Y42449D01*
X51050Y41924D01*
X24344Y51275D02*
X23820Y50750D01*
Y49701D01*
X24344Y49176D01*
X26443D01*
X26968Y49701D01*
Y50750D01*
X26443Y51275D01*
X24344Y52325D02*
X23820Y52850D01*
Y53899D01*
X24344Y54424D01*
X24869D01*
X25394Y53899D01*
Y53374D01*
Y53899D01*
X25918Y54424D01*
X26443D01*
X26968Y53899D01*
Y52850D01*
X26443Y52325D01*
X25919Y58854D02*
X25394Y58329D01*
Y57280D01*
X25919Y56755D01*
X28018D01*
X28543Y57280D01*
Y58329D01*
X28018Y58854D01*
X28543Y62003D02*
Y59904D01*
X26444Y62003D01*
X25919D01*
X25394Y61478D01*
Y60428D01*
X25919Y59904D01*
X59646Y57672D02*
X59121Y58197D01*
X58071D01*
X57547Y57672D01*
Y55573D01*
X58071Y55049D01*
X59121D01*
X59646Y55573D01*
X60695Y55049D02*
X61745D01*
X61220D01*
Y58197D01*
X60695Y57672D01*
X125624Y68729D02*
Y66105D01*
X126149Y65580D01*
X127199D01*
X127723Y66105D01*
Y68729D01*
X128773Y68204D02*
X129298Y68729D01*
X130347D01*
X130872Y68204D01*
Y67679D01*
X130347Y67154D01*
X129822D01*
X130347D01*
X130872Y66630D01*
Y66105D01*
X130347Y65580D01*
X129298D01*
X128773Y66105D01*
X82875Y42976D02*
X85498D01*
X86023Y43500D01*
Y44550D01*
X85498Y45074D01*
X82875D01*
X86023Y48223D02*
Y46124D01*
X83924Y48223D01*
X83399D01*
X82875Y47698D01*
Y46649D01*
X83399Y46124D01*
X146490Y58690D02*
Y61839D01*
X148065D01*
X148590Y61314D01*
Y60265D01*
X148065Y59740D01*
X146490D01*
X147540D02*
X148590Y58690D01*
X151213D02*
Y61839D01*
X149639Y60265D01*
X151738D01*
X63582Y25685D02*
X60434D01*
Y27260D01*
X60958Y27784D01*
X62008D01*
X62533Y27260D01*
Y25685D01*
Y26735D02*
X63582Y27784D01*
Y28834D02*
Y29883D01*
Y29359D01*
X60434D01*
X60958Y28834D01*
X156136Y8297D02*
Y11445D01*
X157710D01*
X158235Y10921D01*
Y9871D01*
X157710Y9346D01*
X156136D01*
X157186D02*
X158235Y8297D01*
X159285Y10921D02*
X159809Y11445D01*
X160859D01*
X161384Y10921D01*
Y10396D01*
X160859Y9871D01*
X160334D01*
X160859D01*
X161384Y9346D01*
Y8821D01*
X160859Y8297D01*
X159809D01*
X159285Y8821D01*
X150132Y33592D02*
Y36740D01*
X151706D01*
X152231Y36216D01*
Y35166D01*
X151706Y34641D01*
X150132D01*
X151182D02*
X152231Y33592D01*
X155380D02*
X153281D01*
X155380Y35691D01*
Y36216D01*
X154855Y36740D01*
X153805D01*
X153281Y36216D01*
X155972Y72075D02*
Y68927D01*
X158071D01*
X159121D02*
X160170D01*
X159645D01*
Y72075D01*
X159121Y71550D01*
X71260Y68992D02*
Y67942D01*
Y68467D01*
X73884D01*
X74409Y67942D01*
Y67418D01*
X73884Y66893D01*
X74409Y72140D02*
Y70041D01*
X72310Y72140D01*
X71785D01*
X71260Y71616D01*
Y70566D01*
X71785Y70041D01*
X144325Y30146D02*
Y26997D01*
X145899D01*
X146424Y27522D01*
Y29621D01*
X145899Y30146D01*
X144325D01*
X149573Y26997D02*
X147474D01*
X149573Y29096D01*
Y29621D01*
X149048Y30146D01*
X147998D01*
X147474Y29621D01*
X54692Y41957D02*
Y38808D01*
X56267D01*
X56791Y39333D01*
Y41432D01*
X56267Y41957D01*
X54692D01*
X57841Y38808D02*
X58890D01*
X58366D01*
Y41957D01*
X57841Y41432D01*
X33990Y13677D02*
X33465Y13152D01*
Y12103D01*
X33990Y11578D01*
X36089D01*
X36614Y12103D01*
Y13152D01*
X36089Y13677D01*
X36614Y16301D02*
X33465D01*
X35039Y14726D01*
Y16826D01*
X81365Y6787D02*
X80840Y7311D01*
X79791D01*
X79266Y6787D01*
Y4688D01*
X79791Y4163D01*
X80840D01*
X81365Y4688D01*
X82415Y7311D02*
X84514D01*
Y6787D01*
X82415Y4688D01*
Y4163D01*
X73491Y6688D02*
X72966Y7213D01*
X71917D01*
X71392Y6688D01*
Y4589D01*
X71917Y4064D01*
X72966D01*
X73491Y4589D01*
X76640Y7213D02*
X75590Y6688D01*
X74541Y5639D01*
Y4589D01*
X75065Y4064D01*
X76115D01*
X76640Y4589D01*
Y5114D01*
X76115Y5639D01*
X74541D01*
X66109Y6590D02*
X65584Y7114D01*
X64535D01*
X64010Y6590D01*
Y4491D01*
X64535Y3966D01*
X65584D01*
X66109Y4491D01*
X69258Y7114D02*
X67159D01*
Y5540D01*
X68208Y6065D01*
X68733D01*
X69258Y5540D01*
Y4491D01*
X68733Y3966D01*
X67684D01*
X67159Y4491D01*
X26741Y41366D02*
Y38218D01*
X28315D01*
X28840Y38743D01*
Y39267D01*
X28315Y39792D01*
X26741D01*
X28315D01*
X28840Y40317D01*
Y40842D01*
X28315Y41366D01*
X26741D01*
X29889Y38218D02*
Y40317D01*
X30939Y41366D01*
X31988Y40317D01*
Y38218D01*
Y39792D01*
X29889D01*
X33038Y41366D02*
X35137D01*
X34087D01*
Y38218D01*
X36186D02*
X37236D01*
X36711D01*
Y41366D01*
X36186Y40842D01*
X171622Y69222D02*
Y71321D01*
X172671Y72370D01*
X173721Y71321D01*
Y69222D01*
Y70796D01*
X171622D01*
X174770Y69222D02*
X175820D01*
X175295D01*
Y72370D01*
X174770Y71846D01*
D20*
X5022Y57213D02*
Y54261D01*
X5612Y53671D01*
X6793D01*
X7383Y54261D01*
Y57213D01*
X10925Y56622D02*
X10335Y57213D01*
X9154D01*
X8564Y56622D01*
Y56032D01*
X9154Y55442D01*
X10335D01*
X10925Y54851D01*
Y54261D01*
X10335Y53671D01*
X9154D01*
X8564Y54261D01*
X12106Y57213D02*
Y53671D01*
X13877D01*
X14467Y54261D01*
Y54851D01*
X13877Y55442D01*
X12106D01*
X13877D01*
X14467Y56032D01*
Y56622D01*
X13877Y57213D01*
X12106D01*
X15648Y53671D02*
X16829D01*
X16239D01*
Y57213D01*
X15648Y56622D01*
M02*
