G04*
G04 #@! TF.GenerationSoftware,Altium Limited,Altium Designer,22.2.1 (43)*
G04*
G04 Layer_Color=128*
%FSLAX25Y25*%
%MOIN*%
G70*
G04*
G04 #@! TF.SameCoordinates,F9679001-C221-457E-AD06-5865B11B1ABB*
G04*
G04*
G04 #@! TF.FilePolarity,Positive*
G04*
G01*
G75*
%ADD11C,0.00394*%
%ADD82C,0.00200*%
D11*
X0Y77883D02*
X201870D01*
Y-1054D02*
Y77883D01*
X0Y-1054D02*
X201870D01*
X0D02*
Y77883D01*
D82*
X181595Y16367D02*
X187500D01*
X184547Y13414D02*
Y19320D01*
X191201Y26367D02*
X197894D01*
X194547Y23020D02*
Y29713D01*
X191201Y6367D02*
X197894D01*
X194547Y3021D02*
Y9713D01*
X171201Y6367D02*
X177894D01*
X174547Y3021D02*
Y9713D01*
X171201Y26367D02*
X177894D01*
X174547Y23020D02*
Y29713D01*
X18819Y40481D02*
X21378D01*
X20098Y39202D02*
Y41761D01*
X18819Y21387D02*
X21378D01*
X20098Y20107D02*
Y22666D01*
X6594Y14792D02*
X9350D01*
X7972Y13414D02*
Y16170D01*
X6594Y47076D02*
X9350D01*
X7972Y45698D02*
Y48454D01*
X31575Y69418D02*
X35906D01*
X33740Y67253D02*
Y71583D01*
X41575Y69418D02*
X45906D01*
X43740Y67253D02*
Y71583D01*
X51575Y69418D02*
X55906D01*
X53740Y67253D02*
Y71583D01*
X61575Y69418D02*
X65906D01*
X63740Y67253D02*
Y71583D01*
X175099Y14694D02*
X176280D01*
X175689Y14103D02*
Y15284D01*
X180709Y9477D02*
X181890D01*
X181299Y8887D02*
Y10068D01*
X146851Y61249D02*
X148031D01*
X147441Y60658D02*
Y61839D01*
X145669Y67351D02*
X146851D01*
X146260Y66761D02*
Y67942D01*
X143504Y61150D02*
X144685D01*
X144095Y60560D02*
Y61741D01*
X96162Y56532D02*
X97343D01*
X96752Y55941D02*
Y57122D01*
X96162Y52269D02*
X97343D01*
X96752Y51679D02*
Y52860D01*
X96162Y60795D02*
X97343D01*
X96752Y60204D02*
Y61385D01*
X96162Y48007D02*
X97343D01*
X96752Y47416D02*
Y48597D01*
X96162Y18169D02*
X97343D01*
X96752Y17578D02*
Y18759D01*
X96260Y14694D02*
X97441D01*
X96851Y14103D02*
Y15284D01*
X96162Y22432D02*
X97343D01*
X96752Y21841D02*
Y23022D01*
X96162Y65057D02*
X97343D01*
X96752Y64467D02*
Y65648D01*
X96162Y26694D02*
X97343D01*
X96752Y26103D02*
Y27285D01*
X96162Y30957D02*
X97343D01*
X96752Y30366D02*
Y31547D01*
X143996Y50619D02*
X145177D01*
X144587Y50028D02*
Y51209D01*
X96162Y39482D02*
X97343D01*
X96752Y38891D02*
Y40072D01*
X96162Y35219D02*
X97343D01*
X96752Y34629D02*
Y35810D01*
X186122Y74733D02*
X187303D01*
X186713Y74143D02*
Y75324D01*
X86024Y74733D02*
X87205D01*
X86614Y74143D02*
Y75324D01*
X82874Y59871D02*
X84055D01*
X83465Y59280D02*
Y60461D01*
X176575Y75127D02*
X177756D01*
X177165Y74536D02*
Y75717D01*
X141437Y74733D02*
X142618D01*
X142027Y74143D02*
Y75324D01*
X179823Y74733D02*
X181004D01*
X180413Y74143D02*
Y75324D01*
X182973Y74832D02*
X184154D01*
X183563Y74241D02*
Y75422D01*
X132912Y74733D02*
X134093D01*
X133502Y74143D02*
Y75324D01*
X137174Y74733D02*
X138356D01*
X137765Y74143D02*
Y75324D01*
X128649Y74733D02*
X129830D01*
X129240Y74143D02*
Y75324D01*
X124387Y74733D02*
X125568D01*
X124977Y74143D02*
Y75324D01*
X107412Y64497D02*
X108593D01*
X108003Y63906D02*
Y65087D01*
X188484Y73355D02*
X189665D01*
X189075Y72765D02*
Y73946D01*
X174902Y72371D02*
X176083D01*
X175492Y71780D02*
Y72961D01*
X108101Y51800D02*
X109282D01*
X108692Y51209D02*
Y52391D01*
X120200Y64497D02*
X121381D01*
X120791Y63906D02*
Y65087D01*
X131004Y68828D02*
X132185D01*
X131595Y68237D02*
Y69418D01*
X143799Y70402D02*
X144980D01*
X144390Y69812D02*
Y70993D01*
X103839Y51800D02*
X105020D01*
X104429Y51209D02*
Y52391D01*
X115937Y64497D02*
X117118D01*
X116528Y63906D02*
Y65087D01*
X103074Y74733D02*
X104255D01*
X103665Y74143D02*
Y75324D01*
X120124Y74733D02*
X121305D01*
X120715Y74143D02*
Y75324D01*
X115862Y74733D02*
X117043D01*
X116452Y74143D02*
Y75324D01*
X111599Y74733D02*
X112780D01*
X112190Y74143D02*
Y75324D01*
X107336Y74733D02*
X108518D01*
X107927Y74143D02*
Y75324D01*
X82579Y64398D02*
X83760D01*
X83169Y63808D02*
Y64989D01*
X96162Y43744D02*
X97343D01*
X96752Y43154D02*
Y44335D01*
X111675Y64497D02*
X112856D01*
X112265Y63906D02*
Y65087D01*
X148917Y67548D02*
X150099D01*
X149508Y66957D02*
Y68139D01*
X152165Y67351D02*
X153347D01*
X152756Y66761D02*
Y67942D01*
X155512Y68532D02*
X156693D01*
X156102Y67942D02*
Y69123D01*
X151083Y61249D02*
X152264D01*
X151673Y60658D02*
Y61839D01*
X158661Y68631D02*
X159843D01*
X159252Y68040D02*
Y69221D01*
X148622Y50520D02*
X149803D01*
X149213Y49930D02*
Y51111D01*
X146063Y31426D02*
X147244D01*
X146654Y30836D02*
Y32017D01*
X156693Y53867D02*
X157874D01*
X157283Y53276D02*
Y54457D01*
X163287Y58395D02*
X164469D01*
X163878Y57804D02*
Y58985D01*
X160335Y53375D02*
X161516D01*
X160925Y52784D02*
Y53965D01*
X162795Y61643D02*
X163976D01*
X163386Y61052D02*
Y62233D01*
X169783Y61544D02*
X170965D01*
X170374Y60954D02*
Y62135D01*
X172244Y69024D02*
X173425D01*
X172835Y68434D02*
Y69615D01*
X162599Y48158D02*
X163780D01*
X163189Y47568D02*
Y48749D01*
X166437Y67745D02*
X167618D01*
X167028Y67154D02*
Y68335D01*
X173721Y51702D02*
X174902D01*
X174311Y51111D02*
Y52292D01*
X42618Y24536D02*
X43799D01*
X43209Y23946D02*
Y25127D01*
X124758Y17647D02*
X125939D01*
X125348Y17056D02*
Y18237D01*
X120495Y17647D02*
X121676D01*
X121086Y17056D02*
Y18237D01*
X116233Y17647D02*
X117414D01*
X116823Y17056D02*
Y18237D01*
X111970Y17647D02*
X113151D01*
X112561Y17056D02*
Y18237D01*
X107708Y17647D02*
X108889D01*
X108298Y17056D02*
Y18237D01*
X103445Y17647D02*
X104626D01*
X104035Y17056D02*
Y18237D01*
X126037Y28867D02*
X127218D01*
X126628Y28276D02*
Y29458D01*
X121775Y28867D02*
X122956D01*
X122365Y28276D02*
Y29458D01*
X117512Y28867D02*
X118693D01*
X118103Y28276D02*
Y29458D01*
X113250Y28867D02*
X114431D01*
X113840Y28276D02*
Y29458D01*
X108987Y28867D02*
X110168D01*
X109578Y28276D02*
Y29458D01*
X104725Y28867D02*
X105906D01*
X105315Y28276D02*
Y29458D01*
X124462Y64497D02*
X125644D01*
X125053Y63906D02*
Y65087D01*
X103150Y64497D02*
X104331D01*
X103740Y63906D02*
Y65087D01*
X125151Y51800D02*
X126332D01*
X125742Y51209D02*
Y52391D01*
X120889Y51800D02*
X122070D01*
X121479Y51209D02*
Y52391D01*
X116626Y51800D02*
X117807D01*
X117217Y51209D02*
Y52391D01*
X112364Y51800D02*
X113545D01*
X112954Y51209D02*
Y52391D01*
X125053Y38906D02*
X126234D01*
X125644Y38316D02*
Y39497D01*
X120791Y38906D02*
X121972D01*
X121381Y38316D02*
Y39497D01*
X116528Y38906D02*
X117709D01*
X117118Y38316D02*
Y39497D01*
X112265Y38906D02*
X113446D01*
X112856Y38316D02*
Y39497D01*
X108003Y38906D02*
X109184D01*
X108593Y38316D02*
Y39497D01*
X103740Y38906D02*
X104921D01*
X104331Y38316D02*
Y39497D01*
X83711Y30967D02*
X84892D01*
X84302Y30376D02*
Y31557D01*
X153543Y50816D02*
X154725D01*
X154134Y50225D02*
Y51406D01*
X36713Y7214D02*
X37894D01*
X37303Y6623D02*
Y7804D01*
X45669Y6820D02*
X46850D01*
X46260Y6229D02*
Y7410D01*
X53839Y7017D02*
X55020D01*
X54429Y6426D02*
Y7607D01*
X75000Y27883D02*
X76181D01*
X75591Y27292D02*
Y28473D01*
X67126Y27784D02*
X68307D01*
X67717Y27194D02*
Y28375D01*
X53937Y40678D02*
X55118D01*
X54528Y40088D02*
Y41269D01*
X67815Y47863D02*
X68996D01*
X68406Y47273D02*
Y48454D01*
X82677Y54654D02*
X83858D01*
X83268Y54064D02*
Y55245D01*
X82579Y69713D02*
X83760D01*
X83169Y69123D02*
Y70304D01*
X65551Y61446D02*
X66732D01*
X66142Y60855D02*
Y62036D01*
X57087Y60363D02*
X58268D01*
X57677Y59772D02*
Y60954D01*
X49705Y61938D02*
X50886D01*
X50295Y61347D02*
Y62528D01*
X26575Y60166D02*
X27756D01*
X27165Y59576D02*
Y60757D01*
X24606Y51111D02*
X25787D01*
X25197Y50520D02*
Y51702D01*
X29331Y34576D02*
X30512D01*
X29921Y33985D02*
Y35166D01*
X27854Y21288D02*
X29035D01*
X28445Y20698D02*
Y21879D01*
X33563Y13710D02*
X34744D01*
X34154Y13119D02*
Y14300D01*
X54429Y13611D02*
X55610D01*
X55020Y13021D02*
Y14202D01*
X60236Y10855D02*
X61417D01*
X60827Y10265D02*
Y11446D01*
X89665Y2784D02*
X90847D01*
X90256Y2194D02*
Y3375D01*
X93928Y2784D02*
X95109D01*
X94519Y2194D02*
Y3375D01*
X98190Y2784D02*
X99372D01*
X98781Y2194D02*
Y3375D01*
X102453Y2784D02*
X103634D01*
X103044Y2194D02*
Y3375D01*
X106716Y2784D02*
X107897D01*
X107306Y2194D02*
Y3375D01*
X110978Y2784D02*
X112159D01*
X111569Y2194D02*
Y3375D01*
X115241Y2784D02*
X116422D01*
X115831Y2194D02*
Y3375D01*
X119503Y2784D02*
X120684D01*
X120094Y2194D02*
Y3375D01*
X123766Y2784D02*
X124947D01*
X124356Y2194D02*
Y3375D01*
X128028Y2784D02*
X129209D01*
X128619Y2194D02*
Y3375D01*
X132291Y2784D02*
X133472D01*
X132882Y2194D02*
Y3375D01*
X136554Y2784D02*
X137735D01*
X137144Y2194D02*
Y3375D01*
X140816Y2784D02*
X141997D01*
X141407Y2194D02*
Y3375D01*
X145079Y2784D02*
X146260D01*
X145669Y2194D02*
Y3375D01*
X90286Y74733D02*
X91467D01*
X90877Y74143D02*
Y75324D01*
X94549Y74733D02*
X95730D01*
X95139Y74143D02*
Y75324D01*
X98811Y74733D02*
X99993D01*
X99402Y74143D02*
Y75324D01*
X131004Y64565D02*
X132185D01*
X131595Y63974D02*
Y65156D01*
X131004Y60303D02*
X132185D01*
X131595Y59712D02*
Y60893D01*
X131004Y56040D02*
X132185D01*
X131595Y55449D02*
Y56630D01*
X131004Y51777D02*
X132185D01*
X131595Y51187D02*
Y52368D01*
X131004Y47515D02*
X132185D01*
X131595Y46924D02*
Y48105D01*
X131004Y43252D02*
X132185D01*
X131595Y42662D02*
Y43843D01*
X131004Y38990D02*
X132185D01*
X131595Y38399D02*
Y39580D01*
X131004Y34727D02*
X132185D01*
X131595Y34137D02*
Y35318D01*
X131004Y30465D02*
X132185D01*
X131595Y29874D02*
Y31055D01*
X131004Y26202D02*
X132185D01*
X131595Y25611D02*
Y26793D01*
X131004Y21939D02*
X132185D01*
X131595Y21349D02*
Y22530D01*
X131004Y17677D02*
X132185D01*
X131595Y17086D02*
Y18267D01*
X96162Y69320D02*
X97343D01*
X96752Y68729D02*
Y69910D01*
X87106Y47273D02*
X88288D01*
X87697Y46682D02*
Y47863D01*
X87008Y43631D02*
X88189D01*
X87599Y43040D02*
Y44221D01*
X144685Y39694D02*
X145866D01*
X145276Y39103D02*
Y40284D01*
X185138Y50619D02*
X186319D01*
X185728Y50028D02*
Y51209D01*
X188976Y34280D02*
X190157D01*
X189567Y33690D02*
Y34871D01*
X188976Y38021D02*
X190157D01*
X189567Y37430D02*
Y38611D01*
X189469Y41662D02*
X190650D01*
X190059Y41072D02*
Y42253D01*
X188386Y44910D02*
X189567D01*
X188976Y44320D02*
Y45501D01*
X185138Y46584D02*
X186319D01*
X185728Y45993D02*
Y47174D01*
X193701Y18237D02*
X194882D01*
X194291Y17647D02*
Y18828D01*
X193898Y13710D02*
X195079D01*
X194488Y13119D02*
Y14300D01*
X185433Y8985D02*
X186614D01*
X186024Y8394D02*
Y9576D01*
X175197Y18926D02*
X176378D01*
X175787Y18336D02*
Y19517D01*
X172638Y33690D02*
X173819D01*
X173228Y33099D02*
Y34280D01*
X175787Y33099D02*
X176969D01*
X176378Y32509D02*
Y33690D01*
X179134Y34084D02*
X180315D01*
X179725Y33493D02*
Y34674D01*
X162402Y44910D02*
X163583D01*
X162992Y44320D02*
Y45501D01*
X163484Y51603D02*
X164665D01*
X164075Y51013D02*
Y52194D01*
X163386Y55048D02*
X164567D01*
X163976Y54457D02*
Y55639D01*
X169783Y52784D02*
X170965D01*
X170374Y52194D02*
Y53375D01*
X170177Y55442D02*
X171358D01*
X170768Y54851D02*
Y56032D01*
X170079Y58296D02*
X171260D01*
X170669Y57706D02*
Y58887D01*
X172736Y60855D02*
X173917D01*
X173327Y60265D02*
Y61446D01*
X175099Y59576D02*
X176280D01*
X175689Y58985D02*
Y60166D01*
X175099Y56328D02*
X176280D01*
X175689Y55737D02*
Y56918D01*
X178150Y55048D02*
X179331D01*
X178740Y54457D02*
Y55639D01*
X181201Y54851D02*
X182382D01*
X181791Y54261D02*
Y55442D01*
X184252Y54753D02*
X185433D01*
X184843Y54162D02*
Y55343D01*
X187599Y54753D02*
X188780D01*
X188189Y54162D02*
Y55343D01*
X188976Y57706D02*
X190157D01*
X189567Y57115D02*
Y58296D01*
X189272Y60855D02*
X190453D01*
X189862Y60265D02*
Y61446D01*
X189272Y64005D02*
X190453D01*
X189862Y63414D02*
Y64595D01*
X189370Y67154D02*
X190551D01*
X189961Y66564D02*
Y67745D01*
X188976Y70501D02*
X190157D01*
X189567Y69910D02*
Y71091D01*
X175295Y69123D02*
X176476D01*
X175886Y68532D02*
Y69713D01*
X169390Y67745D02*
X170571D01*
X169980Y67154D02*
Y68335D01*
X162402Y67646D02*
X163583D01*
X162992Y67056D02*
Y68237D01*
X144980Y35166D02*
X146161D01*
X145571Y34576D02*
Y35757D01*
X60335Y16761D02*
X61516D01*
X60925Y16170D02*
Y17351D01*
X158071Y26111D02*
X159252D01*
X158661Y25521D02*
Y26702D01*
X82185Y26505D02*
X83366D01*
X82776Y25914D02*
Y27095D01*
X48130Y42745D02*
X49311D01*
X48720Y42154D02*
Y43336D01*
X24705Y25816D02*
X25886D01*
X25295Y25225D02*
Y26406D01*
X27854Y28276D02*
X29035D01*
X28445Y27686D02*
Y28867D01*
X27738Y30942D02*
X28920D01*
X28329Y30352D02*
Y31533D01*
M02*
