G04*
G04 #@! TF.GenerationSoftware,Altium Limited,Altium Designer,22.2.1 (43)*
G04*
G04 Layer_Color=255*
%FSLAX25Y25*%
%MOIN*%
G70*
G04*
G04 #@! TF.SameCoordinates,F9679001-C221-457E-AD06-5865B11B1ABB*
G04*
G04*
G04 #@! TF.FilePolarity,Positive*
G04*
G01*
G75*
%ADD21R,0.07087X0.03347*%
%ADD22R,0.03937X0.03740*%
%ADD23R,0.03740X0.03937*%
%ADD24R,0.01181X0.01968*%
%ADD25R,0.02362X0.02126*%
%ADD26R,0.02402X0.04724*%
%ADD27R,0.05118X0.03543*%
%ADD28R,0.03543X0.05118*%
G04:AMPARAMS|DCode=29|XSize=47.64mil|YSize=23.23mil|CornerRadius=5.81mil|HoleSize=0mil|Usage=FLASHONLY|Rotation=180.000|XOffset=0mil|YOffset=0mil|HoleType=Round|Shape=RoundedRectangle|*
%AMROUNDEDRECTD29*
21,1,0.04764,0.01161,0,0,180.0*
21,1,0.03602,0.02323,0,0,180.0*
1,1,0.01161,-0.01801,0.00581*
1,1,0.01161,0.01801,0.00581*
1,1,0.01161,0.01801,-0.00581*
1,1,0.01161,-0.01801,-0.00581*
%
%ADD29ROUNDEDRECTD29*%
%ADD30R,0.06890X0.01575*%
%ADD31R,0.09843X0.05413*%
%ADD32R,0.03347X0.03347*%
%ADD33R,0.06693X0.16142*%
%ADD34R,0.02047X0.01102*%
%ADD35R,0.04134X0.03937*%
%ADD36R,0.08661X0.04134*%
%ADD37R,0.03150X0.03150*%
%ADD38R,0.01968X0.02362*%
%ADD54R,0.03937X0.03937*%
%ADD74C,0.08858*%
%ADD75C,0.10039*%
%ADD76O,0.06299X0.03150*%
%ADD77O,0.08268X0.04134*%
%ADD78R,0.06299X0.07874*%
%ADD79O,0.06299X0.07874*%
D21*
X138246Y68762D02*
D03*
Y64431D02*
D03*
X90215D02*
D03*
X138246Y60101D02*
D03*
X90215D02*
D03*
X138246Y55770D02*
D03*
X90215D02*
D03*
Y68762D02*
D03*
X138246Y51439D02*
D03*
Y39628D02*
D03*
X90215D02*
D03*
X138246Y35297D02*
D03*
X90215D02*
D03*
X138246Y30967D02*
D03*
X90215D02*
D03*
X138246Y26636D02*
D03*
X90215D02*
D03*
X138246Y22305D02*
D03*
X90215D02*
D03*
X138246Y17975D02*
D03*
X90215D02*
D03*
X138246Y13644D02*
D03*
X90215Y51439D02*
D03*
Y13644D02*
D03*
D22*
X167323Y45865D02*
D03*
Y39566D02*
D03*
X184449Y34969D02*
D03*
Y41269D02*
D03*
X66866Y11459D02*
D03*
Y17758D02*
D03*
X157579Y64398D02*
D03*
Y58099D02*
D03*
D23*
X174016Y47469D02*
D03*
X180315D02*
D03*
D24*
X172016Y37469D02*
D03*
X174016D02*
D03*
X176016D02*
D03*
Y40343D02*
D03*
X174016D02*
D03*
X172016D02*
D03*
D25*
X179331Y40804D02*
D03*
Y37402D02*
D03*
D26*
X68858Y33887D02*
D03*
X63858Y55737D02*
D03*
X68858D02*
D03*
X73858D02*
D03*
X78858D02*
D03*
Y33887D02*
D03*
X73858D02*
D03*
X63858D02*
D03*
D27*
X56890Y46091D02*
D03*
Y51209D02*
D03*
X31496Y46190D02*
D03*
Y51308D02*
D03*
X81581Y17856D02*
D03*
Y12738D02*
D03*
X73904Y12837D02*
D03*
Y17955D02*
D03*
D28*
X38091Y59674D02*
D03*
X32972D02*
D03*
X45853Y14116D02*
D03*
X40734D02*
D03*
D29*
X49134Y45796D02*
D03*
Y49536D02*
D03*
Y53276D02*
D03*
X39252D02*
D03*
Y45796D02*
D03*
D30*
X19291Y36052D02*
D03*
Y33493D02*
D03*
Y30934D02*
D03*
Y28375D02*
D03*
Y25816D02*
D03*
D31*
X7185Y34625D02*
D03*
Y27243D02*
D03*
D32*
X56876Y22876D02*
D03*
Y29569D02*
D03*
X158465Y22273D02*
D03*
Y15580D02*
D03*
X152953Y23060D02*
D03*
Y29753D02*
D03*
D33*
X35340Y26883D02*
D03*
D34*
X56876Y36656D02*
D03*
Y34097D02*
D03*
D35*
X176378Y64891D02*
D03*
D36*
X182382Y70698D02*
D03*
Y59083D02*
D03*
D37*
X146640Y22089D02*
D03*
Y15593D02*
D03*
D38*
X150906Y55639D02*
D03*
X147323D02*
D03*
D54*
X50891Y21174D02*
D03*
D74*
X184547Y16367D02*
D03*
D75*
X194547Y26367D02*
D03*
Y6367D02*
D03*
X174547D02*
D03*
Y26367D02*
D03*
D76*
X20098Y40481D02*
D03*
Y21387D02*
D03*
D77*
X7972Y14792D02*
D03*
Y47076D02*
D03*
D78*
X33740Y69418D02*
D03*
D79*
X43740D02*
D03*
X53740D02*
D03*
X63740D02*
D03*
M02*
