G04*
G04 #@! TF.GenerationSoftware,Altium Limited,Altium Designer,22.2.1 (43)*
G04*
G04 Layer_Physical_Order=2*
G04 Layer_Color=16711680*
%FSLAX25Y25*%
%MOIN*%
G70*
G04*
G04 #@! TF.SameCoordinates,F9679001-C221-457E-AD06-5865B11B1ABB*
G04*
G04*
G04 #@! TF.FilePolarity,Positive*
G04*
G01*
G75*
%ADD67C,0.01500*%
%ADD72C,0.01300*%
%ADD74C,0.08858*%
%ADD75C,0.10039*%
%ADD76O,0.06299X0.03150*%
%ADD77O,0.08268X0.04134*%
%ADD78R,0.06299X0.07874*%
%ADD79O,0.06299X0.07874*%
%ADD80C,0.02362*%
%ADD81C,0.01968*%
G36*
X199114Y30313D02*
X198614Y30106D01*
X197936Y30784D01*
X196678Y31510D01*
X195547Y31813D01*
Y26367D01*
Y20921D01*
X196678Y21224D01*
X197936Y21950D01*
X198614Y22628D01*
X199114Y22421D01*
Y10313D01*
X198614Y10106D01*
X197936Y10784D01*
X196678Y11511D01*
X195547Y11813D01*
Y6367D01*
Y920D01*
X196678Y1223D01*
X197936Y1950D01*
X198614Y2628D01*
X199114Y2421D01*
Y169D01*
X1224D01*
Y76659D01*
X199114D01*
Y30313D01*
D02*
G37*
%LPC*%
G36*
X37390Y73855D02*
X34740D01*
Y70418D01*
X37390D01*
Y73855D01*
D02*
G37*
G36*
X32740D02*
X30091D01*
Y70418D01*
X32740D01*
Y73855D01*
D02*
G37*
G36*
X37390Y68418D02*
X34740D01*
Y64981D01*
X37390D01*
Y68418D01*
D02*
G37*
G36*
X32740D02*
X30091D01*
Y64981D01*
X32740D01*
Y68418D01*
D02*
G37*
G36*
X43740Y74189D02*
X42709Y74054D01*
X41748Y73656D01*
X40923Y73023D01*
X40290Y72197D01*
X39892Y71237D01*
X39757Y70206D01*
Y68631D01*
X39892Y67600D01*
X40290Y66639D01*
X40923Y65814D01*
X41748Y65181D01*
X42709Y64783D01*
X43740Y64647D01*
X44771Y64783D01*
X45732Y65181D01*
X46557Y65814D01*
X47190Y66639D01*
X47588Y67600D01*
X47724Y68631D01*
Y70206D01*
X47588Y71237D01*
X47190Y72197D01*
X46557Y73023D01*
X45732Y73656D01*
X44771Y74054D01*
X43740Y74189D01*
D02*
G37*
G36*
X187205Y68237D02*
X186417D01*
X179331Y68139D01*
X178937Y67745D01*
Y62233D01*
X179725Y61446D01*
X187303D01*
X187697Y61839D01*
Y67745D01*
X187205Y68237D01*
D02*
G37*
G36*
X10039Y49591D02*
X8973D01*
Y48076D01*
X12338D01*
X11818Y48854D01*
X11002Y49400D01*
X10039Y49591D01*
D02*
G37*
G36*
X6972D02*
X5906D01*
X4943Y49400D01*
X4127Y48854D01*
X3607Y48076D01*
X6972D01*
Y49591D01*
D02*
G37*
G36*
X12338Y46076D02*
X8973D01*
Y44560D01*
X10039D01*
X11002Y44752D01*
X11818Y45297D01*
X12338Y46076D01*
D02*
G37*
G36*
X6972D02*
X3607D01*
X4127Y45297D01*
X4943Y44752D01*
X5906Y44560D01*
X6972D01*
Y46076D01*
D02*
G37*
G36*
X21673Y42495D02*
X21099D01*
Y41481D01*
X23380D01*
X23097Y41905D01*
X22444Y42341D01*
X21673Y42495D01*
D02*
G37*
G36*
X19098D02*
X18524D01*
X17753Y42341D01*
X17100Y41905D01*
X16817Y41481D01*
X19098D01*
Y42495D01*
D02*
G37*
G36*
X23380Y39481D02*
X21099D01*
Y38468D01*
X21673D01*
X22444Y38621D01*
X23097Y39057D01*
X23380Y39481D01*
D02*
G37*
G36*
X19098D02*
X16817D01*
X17100Y39057D01*
X17753Y38621D01*
X18524Y38468D01*
X19098D01*
Y39481D01*
D02*
G37*
G36*
X63740Y74189D02*
X62709Y74054D01*
X61748Y73656D01*
X60923Y73023D01*
X60290Y72197D01*
X59892Y71237D01*
X59756Y70206D01*
Y68631D01*
X59892Y67600D01*
X60290Y66639D01*
X60923Y65814D01*
X61748Y65181D01*
X62709Y64783D01*
X63740Y64647D01*
X64636Y64765D01*
X64709Y64717D01*
X65001Y64478D01*
X72147Y57332D01*
Y41745D01*
X72252Y41218D01*
X72550Y40771D01*
X82517Y30804D01*
Y30612D01*
X82789Y29956D01*
X83291Y29454D01*
X83947Y29182D01*
X84657D01*
X85312Y29454D01*
X85814Y29956D01*
X86086Y30612D01*
Y31322D01*
X85814Y31977D01*
X85312Y32479D01*
X84657Y32751D01*
X84482D01*
X84190Y33025D01*
X74900Y42315D01*
Y57902D01*
X74900Y57902D01*
X74795Y58429D01*
X74497Y58876D01*
X74497Y58876D01*
X67144Y66229D01*
X67064Y66322D01*
X67006Y66399D01*
X67190Y66639D01*
X67588Y67600D01*
X67724Y68631D01*
Y70206D01*
X67588Y71237D01*
X67190Y72197D01*
X66557Y73023D01*
X65732Y73656D01*
X64771Y74054D01*
X63740Y74189D01*
D02*
G37*
G36*
X175547Y31813D02*
Y27367D01*
X179994D01*
X179691Y28497D01*
X178964Y29756D01*
X177936Y30784D01*
X176678Y31510D01*
X175547Y31813D01*
D02*
G37*
G36*
X193547Y31813D02*
X192417Y31510D01*
X191158Y30784D01*
X190130Y29756D01*
X189404Y28497D01*
X189101Y27367D01*
X193547D01*
Y31813D01*
D02*
G37*
G36*
X173547D02*
X172417Y31510D01*
X171158Y30784D01*
X170131Y29756D01*
X169404Y28497D01*
X169101Y27367D01*
X173547D01*
Y31813D01*
D02*
G37*
G36*
X53740Y74189D02*
X52709Y74054D01*
X51748Y73656D01*
X50923Y73023D01*
X50290Y72197D01*
X49892Y71237D01*
X49757Y70206D01*
Y68631D01*
X49892Y67600D01*
X50290Y66639D01*
X50923Y65814D01*
X51748Y65181D01*
X52320Y64944D01*
X52327Y64912D01*
X52364Y64562D01*
Y55540D01*
X52469Y55014D01*
X52767Y54567D01*
X80991Y26342D01*
Y26150D01*
X81263Y25494D01*
X81765Y24992D01*
X82421Y24721D01*
X83131D01*
X83786Y24992D01*
X84288Y25494D01*
X84560Y26150D01*
Y26860D01*
X84288Y27516D01*
X83786Y28017D01*
X83131Y28289D01*
X82956D01*
X82664Y28563D01*
X55117Y56110D01*
Y64598D01*
X55126Y64724D01*
X55151Y64900D01*
X55161Y64944D01*
X55732Y65181D01*
X56557Y65814D01*
X57190Y66639D01*
X57588Y67600D01*
X57724Y68631D01*
Y70206D01*
X57588Y71237D01*
X57190Y72197D01*
X56557Y73023D01*
X55732Y73656D01*
X54771Y74054D01*
X53740Y74189D01*
D02*
G37*
G36*
X21673Y23400D02*
X21099D01*
Y22387D01*
X23380D01*
X23097Y22810D01*
X22444Y23247D01*
X21673Y23400D01*
D02*
G37*
G36*
X19098D02*
X18524D01*
X17753Y23247D01*
X17100Y22810D01*
X16817Y22387D01*
X19098D01*
Y23400D01*
D02*
G37*
G36*
X179994Y25367D02*
X175547D01*
Y20921D01*
X176678Y21224D01*
X177936Y21950D01*
X178964Y22978D01*
X179691Y24237D01*
X179994Y25367D01*
D02*
G37*
G36*
X193547D02*
X189101D01*
X189404Y24237D01*
X190130Y22978D01*
X191158Y21950D01*
X192417Y21224D01*
X193547Y20921D01*
Y25367D01*
D02*
G37*
G36*
X173547D02*
X169101D01*
X169404Y24237D01*
X170131Y22978D01*
X171158Y21950D01*
X172417Y21224D01*
X173547Y20921D01*
Y25367D01*
D02*
G37*
G36*
X23380Y20387D02*
X21099D01*
Y19373D01*
X21673D01*
X22444Y19526D01*
X23097Y19963D01*
X23380Y20387D01*
D02*
G37*
G36*
X19098D02*
X16817D01*
X17100Y19963D01*
X17753Y19526D01*
X18524Y19373D01*
X19098D01*
Y20387D01*
D02*
G37*
G36*
X10039Y17308D02*
X8973D01*
Y15792D01*
X12338D01*
X11818Y16571D01*
X11002Y17116D01*
X10039Y17308D01*
D02*
G37*
G36*
X6972D02*
X5906D01*
X4943Y17116D01*
X4127Y16571D01*
X3607Y15792D01*
X6972D01*
Y17308D01*
D02*
G37*
G36*
X12338Y13792D02*
X8973D01*
Y12277D01*
X10039D01*
X11002Y12468D01*
X11818Y13014D01*
X12338Y13792D01*
D02*
G37*
G36*
X6972D02*
X3607D01*
X4127Y13014D01*
X4943Y12468D01*
X5906Y12277D01*
X6972D01*
Y13792D01*
D02*
G37*
G36*
X185236Y21596D02*
X183859D01*
X182529Y21240D01*
X181336Y20551D01*
X180363Y19578D01*
X179674Y18385D01*
X179318Y17055D01*
Y15679D01*
X179674Y14349D01*
X180363Y13156D01*
X181336Y12183D01*
X182529Y11494D01*
X183859Y11138D01*
X185236D01*
X186566Y11494D01*
X187758Y12183D01*
X188732Y13156D01*
X189420Y14349D01*
X189776Y15679D01*
Y17055D01*
X189420Y18385D01*
X188732Y19578D01*
X187758Y20551D01*
X186566Y21240D01*
X185236Y21596D01*
D02*
G37*
G36*
X175547Y11813D02*
Y7367D01*
X179994D01*
X179691Y8497D01*
X178964Y9756D01*
X177936Y10784D01*
X176678Y11511D01*
X175547Y11813D01*
D02*
G37*
G36*
X193547Y11813D02*
X192417Y11511D01*
X191158Y10784D01*
X190130Y9756D01*
X189404Y8497D01*
X189101Y7367D01*
X193547D01*
Y11813D01*
D02*
G37*
G36*
X173547D02*
X172417Y11511D01*
X171158Y10784D01*
X170131Y9756D01*
X169404Y8497D01*
X169101Y7367D01*
X173547D01*
Y11813D01*
D02*
G37*
G36*
X174666Y53486D02*
X173956D01*
X173300Y53214D01*
X172799Y52712D01*
X172527Y52056D01*
Y51347D01*
X172799Y50691D01*
X172935Y50555D01*
Y46760D01*
X157688Y31514D01*
X157390Y31067D01*
X157285Y30540D01*
Y27258D01*
X157149Y27122D01*
X156877Y26466D01*
Y25756D01*
X157149Y25100D01*
X157183Y25066D01*
Y16290D01*
X148108Y7215D01*
X142859D01*
X142652Y7716D01*
X147699Y12763D01*
X148020Y13242D01*
X148132Y13808D01*
Y30381D01*
X148166Y30415D01*
X148438Y31071D01*
Y31781D01*
X148166Y32437D01*
X147664Y32939D01*
X147292Y33093D01*
X147009Y33210D01*
X146944Y33710D01*
X146960Y33789D01*
Y34032D01*
X147083Y34155D01*
X147355Y34811D01*
Y35521D01*
X147083Y36177D01*
X146582Y36679D01*
X145926Y36950D01*
X145216D01*
X144560Y36679D01*
X144058Y36177D01*
X143787Y35521D01*
Y34811D01*
X143970Y34369D01*
X143108Y33507D01*
X142788Y33027D01*
X142675Y32462D01*
Y15759D01*
X140333Y13416D01*
X77581D01*
X59009Y31988D01*
X58530Y32308D01*
X57964Y32421D01*
X29374D01*
X29340Y32455D01*
X28684Y32727D01*
X27974D01*
X27318Y32455D01*
X27172Y32309D01*
X26672Y32516D01*
Y34301D01*
X30984Y38613D01*
X45965D01*
X46491Y38717D01*
X46938Y39016D01*
X48883Y40961D01*
X49075D01*
X49731Y41232D01*
X50233Y41734D01*
X50505Y42390D01*
Y43100D01*
X50233Y43756D01*
X49731Y44258D01*
X49075Y44529D01*
X48366D01*
X47710Y44258D01*
X47208Y43756D01*
X46936Y43100D01*
Y42925D01*
X46663Y42634D01*
X45395Y41366D01*
X30413D01*
X29887Y41261D01*
X29440Y40962D01*
X24322Y35844D01*
X24024Y35398D01*
X23919Y34871D01*
Y26963D01*
X23783Y26827D01*
X23511Y26171D01*
Y25461D01*
X23783Y24805D01*
X24285Y24303D01*
X24940Y24032D01*
X25650D01*
X26306Y24303D01*
X26808Y24805D01*
X27080Y25461D01*
Y26171D01*
X26909Y26581D01*
X27333Y26865D01*
X27434Y26764D01*
X28090Y26492D01*
X28800D01*
X29456Y26764D01*
X29490Y26798D01*
X42799D01*
X42854Y26320D01*
X42198Y26049D01*
X41696Y25547D01*
X41425Y24891D01*
Y24181D01*
X41696Y23526D01*
X42198Y23024D01*
X42854Y22752D01*
X42902D01*
X49939Y15715D01*
X50419Y15395D01*
X50984Y15282D01*
X59880D01*
X59914Y15248D01*
X60570Y14976D01*
X60619D01*
X64615Y10980D01*
X64722Y10441D01*
X65043Y9962D01*
X70313Y4692D01*
X70793Y4371D01*
X71358Y4259D01*
X148721D01*
X149286Y4371D01*
X149766Y4692D01*
X159707Y14633D01*
X160027Y15112D01*
X160140Y15678D01*
Y25066D01*
X160174Y25100D01*
X160446Y25756D01*
Y26466D01*
X160174Y27122D01*
X160038Y27258D01*
Y29970D01*
X175284Y45217D01*
X175583Y45663D01*
X175688Y46190D01*
Y50555D01*
X175824Y50691D01*
X176095Y51347D01*
Y52056D01*
X175824Y52712D01*
X175322Y53214D01*
X174666Y53486D01*
D02*
G37*
G36*
X179994Y5367D02*
X175547D01*
Y920D01*
X176678Y1223D01*
X177936Y1950D01*
X178964Y2978D01*
X179691Y4236D01*
X179994Y5367D01*
D02*
G37*
G36*
X193547D02*
X189101D01*
X189404Y4236D01*
X190130Y2978D01*
X191158Y1950D01*
X192417Y1223D01*
X193547Y920D01*
Y5367D01*
D02*
G37*
G36*
X173547D02*
X169101D01*
X169404Y4236D01*
X170131Y2978D01*
X171158Y1950D01*
X172417Y1223D01*
X173547Y920D01*
Y5367D01*
D02*
G37*
%LPD*%
G36*
X66262Y66824D02*
X66197Y66733D01*
X66166Y66627D01*
X66168Y66506D01*
X66203Y66371D01*
X66271Y66220D01*
X66372Y66055D01*
X66507Y65875D01*
X66674Y65680D01*
X66875Y65471D01*
X65745Y64762D01*
X65530Y64968D01*
X65131Y65294D01*
X64948Y65413D01*
X64776Y65504D01*
X64614Y65565D01*
X64464Y65598D01*
X64324Y65602D01*
X64194Y65577D01*
X64075Y65523D01*
X66359Y66900D01*
X66262Y66824D01*
D02*
G37*
G36*
X84292Y31951D02*
X83318Y30977D01*
X83309Y30995D01*
X83284Y31030D01*
X83243Y31079D01*
X82909Y31435D01*
X82484Y31865D01*
X83403Y32784D01*
X84292Y31951D01*
D02*
G37*
G36*
X54912Y65763D02*
X54803Y65717D01*
X54706Y65641D01*
X54622Y65534D01*
X54551Y65396D01*
X54493Y65228D01*
X54448Y65029D01*
X54416Y64800D01*
X54397Y64540D01*
X54390Y64249D01*
X53090D01*
X53084Y64540D01*
X53032Y65029D01*
X52987Y65228D01*
X52929Y65396D01*
X52858Y65534D01*
X52775Y65641D01*
X52678Y65717D01*
X52568Y65763D01*
X52446Y65778D01*
X55035D01*
X54912Y65763D01*
D02*
G37*
G36*
X82766Y27489D02*
X81791Y26515D01*
X81783Y26533D01*
X81758Y26568D01*
X81717Y26618D01*
X81383Y26973D01*
X80958Y27403D01*
X81877Y28322D01*
X82766Y27489D01*
D02*
G37*
G36*
X48711Y41761D02*
X48692Y41752D01*
X48658Y41728D01*
X48608Y41686D01*
X48252Y41353D01*
X47822Y40927D01*
X46903Y41847D01*
X47736Y42735D01*
X48711Y41761D01*
D02*
G37*
G36*
X25984Y26519D02*
X24606D01*
X24614Y26538D01*
X24620Y26580D01*
X24626Y26644D01*
X24642Y27131D01*
X24645Y27736D01*
X25945D01*
X25984Y26519D01*
D02*
G37*
D67*
X76969Y11938D02*
X140945D01*
X75197Y8493D02*
X141339D01*
X146654Y13808D02*
Y31426D01*
X28329Y30942D02*
X57964D01*
X76969Y11938D01*
X140945D02*
X144154Y15146D01*
X55413Y28276D02*
X75197Y8493D01*
X141339D02*
X146654Y13808D01*
X50984Y16761D02*
X60925D01*
X43209Y24536D02*
X50984Y16761D01*
X145481Y33789D02*
Y35077D01*
X144154Y15146D02*
Y32462D01*
X28445Y28276D02*
X55413D01*
X145481Y35077D02*
X145571Y35166D01*
X144154Y32462D02*
X145481Y33789D01*
X60925Y16761D02*
X66088Y11598D01*
Y11007D02*
Y11598D01*
Y11007D02*
X71358Y5737D01*
X148721D01*
X158661Y15678D02*
Y26111D01*
X148721Y5737D02*
X158661Y15678D01*
D72*
X174311Y46190D02*
Y51702D01*
X158661Y26111D02*
Y30540D01*
X174311Y46190D01*
X73524Y41745D02*
Y57902D01*
Y41745D02*
X84302Y30967D01*
X63740Y67686D02*
X73524Y57902D01*
X63740Y67686D02*
Y69418D01*
X53740Y55540D02*
X82776Y26505D01*
X53740Y55540D02*
Y69418D01*
X30413Y39989D02*
X45965D01*
X48720Y42745D01*
X25295Y34871D02*
X30413Y39989D01*
X25295Y25816D02*
Y34871D01*
D74*
X184547Y16367D02*
D03*
D75*
X194547Y26367D02*
D03*
Y6367D02*
D03*
X174547D02*
D03*
Y26367D02*
D03*
D76*
X20098Y40481D02*
D03*
Y21387D02*
D03*
D77*
X7972Y14792D02*
D03*
Y47076D02*
D03*
D78*
X33740Y69418D02*
D03*
D79*
X43740D02*
D03*
X53740D02*
D03*
X63740D02*
D03*
D80*
X175689Y14694D02*
D03*
X181299Y9477D02*
D03*
X147441Y61249D02*
D03*
X146260Y67351D02*
D03*
X144095Y61150D02*
D03*
X96752Y56532D02*
D03*
Y52269D02*
D03*
Y60795D02*
D03*
Y48007D02*
D03*
Y18169D02*
D03*
X96851Y14694D02*
D03*
X96752Y22432D02*
D03*
Y65057D02*
D03*
Y26694D02*
D03*
Y30957D02*
D03*
X144587Y50619D02*
D03*
X96752Y39482D02*
D03*
Y35219D02*
D03*
X186713Y74733D02*
D03*
X86614D02*
D03*
X83465Y59871D02*
D03*
X177165Y75127D02*
D03*
X142027Y74733D02*
D03*
X180413D02*
D03*
X183563Y74832D02*
D03*
X133502Y74733D02*
D03*
X137765D02*
D03*
X129240D02*
D03*
X124977D02*
D03*
X108003Y64497D02*
D03*
X189075Y73355D02*
D03*
X175492Y72371D02*
D03*
X108692Y51800D02*
D03*
X120791Y64497D02*
D03*
X131595Y68828D02*
D03*
X144390Y70402D02*
D03*
X104429Y51800D02*
D03*
X116528Y64497D02*
D03*
X103665Y74733D02*
D03*
X120715D02*
D03*
X116452D02*
D03*
X112190D02*
D03*
X107927D02*
D03*
X83169Y64398D02*
D03*
X96752Y43744D02*
D03*
X112265Y64497D02*
D03*
X149508Y67548D02*
D03*
X152756Y67351D02*
D03*
X156102Y68532D02*
D03*
X151673Y61249D02*
D03*
X159252Y68631D02*
D03*
X149213Y50520D02*
D03*
X157283Y53867D02*
D03*
X163878Y58395D02*
D03*
X160925Y53375D02*
D03*
X163386Y61643D02*
D03*
X170374Y61544D02*
D03*
X172835Y69024D02*
D03*
X163189Y48158D02*
D03*
X167028Y67745D02*
D03*
X125348Y17647D02*
D03*
X121086D02*
D03*
X116823D02*
D03*
X112561D02*
D03*
X108298D02*
D03*
X104035D02*
D03*
X126628Y28867D02*
D03*
X122365D02*
D03*
X118103D02*
D03*
X113840D02*
D03*
X109578D02*
D03*
X105315D02*
D03*
X125053Y64497D02*
D03*
X103740D02*
D03*
X125742Y51800D02*
D03*
X121479D02*
D03*
X117217D02*
D03*
X112954D02*
D03*
X125644Y38906D02*
D03*
X121381D02*
D03*
X117118D02*
D03*
X112856D02*
D03*
X108593D02*
D03*
X104331D02*
D03*
X154134Y50816D02*
D03*
X37303Y7214D02*
D03*
X46260Y6820D02*
D03*
X54429Y7017D02*
D03*
X75591Y27883D02*
D03*
X67717Y27784D02*
D03*
X54528Y40678D02*
D03*
X68406Y47863D02*
D03*
X83268Y54654D02*
D03*
X83169Y69713D02*
D03*
X66142Y61446D02*
D03*
X57677Y60363D02*
D03*
X50295Y61938D02*
D03*
X27165Y60166D02*
D03*
X25197Y51111D02*
D03*
X29921Y34576D02*
D03*
X28445Y21288D02*
D03*
X34154Y13710D02*
D03*
X55020Y13611D02*
D03*
X60827Y10855D02*
D03*
X90256Y2784D02*
D03*
X94519D02*
D03*
X98781D02*
D03*
X103044D02*
D03*
X107306D02*
D03*
X111569D02*
D03*
X115831D02*
D03*
X120094D02*
D03*
X124356D02*
D03*
X128619D02*
D03*
X132882D02*
D03*
X137144D02*
D03*
X141407D02*
D03*
X145669D02*
D03*
X90877Y74733D02*
D03*
X95139D02*
D03*
X99402D02*
D03*
X131595Y64565D02*
D03*
Y60303D02*
D03*
Y56040D02*
D03*
Y51777D02*
D03*
Y47515D02*
D03*
Y43252D02*
D03*
Y38990D02*
D03*
Y34727D02*
D03*
Y30465D02*
D03*
Y26202D02*
D03*
Y21939D02*
D03*
Y17677D02*
D03*
X96752Y69320D02*
D03*
X87697Y47273D02*
D03*
X87599Y43631D02*
D03*
X145276Y39694D02*
D03*
X185728Y50619D02*
D03*
X189567Y34280D02*
D03*
Y38021D02*
D03*
X190059Y41662D02*
D03*
X188976Y44910D02*
D03*
X185728Y46584D02*
D03*
X194291Y18237D02*
D03*
X194488Y13710D02*
D03*
X186024Y8985D02*
D03*
X175787Y18926D02*
D03*
X173228Y33690D02*
D03*
X176378Y33099D02*
D03*
X179725Y34084D02*
D03*
X162992Y44910D02*
D03*
X164075Y51603D02*
D03*
X163976Y55048D02*
D03*
X170374Y52784D02*
D03*
X170768Y55442D02*
D03*
X170669Y58296D02*
D03*
X173327Y60855D02*
D03*
X175689Y59576D02*
D03*
Y56328D02*
D03*
X178740Y55048D02*
D03*
X181791Y54851D02*
D03*
X184843Y54753D02*
D03*
X188189D02*
D03*
X189567Y57706D02*
D03*
X189862Y60855D02*
D03*
Y64005D02*
D03*
X189961Y67154D02*
D03*
X189567Y70501D02*
D03*
X175886Y69123D02*
D03*
X169980Y67745D02*
D03*
X162992Y67646D02*
D03*
D81*
X146654Y31426D02*
D03*
X174311Y51702D02*
D03*
X43209Y24536D02*
D03*
X84302Y30967D02*
D03*
X145571Y35166D02*
D03*
X60925Y16761D02*
D03*
X158661Y26111D02*
D03*
X82776Y26505D02*
D03*
X48720Y42745D02*
D03*
X25295Y25816D02*
D03*
X28445Y28276D02*
D03*
X28329Y30942D02*
D03*
M02*
