G04*
G04 #@! TF.GenerationSoftware,Altium Limited,Altium Designer,22.3.1 (43)*
G04*
G04 Layer_Color=8388736*
%FSLAX25Y25*%
%MOIN*%
G70*
G04*
G04 #@! TF.SameCoordinates,B0CD7CAE-3E36-43F7-B439-C09FFECED3EA*
G04*
G04*
G04 #@! TF.FilePolarity,Negative*
G04*
G01*
G75*
%ADD19R,0.09843X0.05906*%
%ADD20R,0.05906X0.06693*%
%ADD21R,0.05906X0.03150*%
%ADD22R,0.05827X0.05827*%
%ADD23R,0.03740X0.03740*%
%ADD24R,0.05512X0.03937*%
%ADD25C,0.04331*%
%ADD26O,0.08268X0.06693*%
D19*
X102657Y27264D02*
D03*
Y88287D02*
D03*
D20*
X64862Y86024D02*
D03*
D21*
X62500Y67028D02*
D03*
Y62697D02*
D03*
Y41043D02*
D03*
Y45374D02*
D03*
Y49705D02*
D03*
Y54035D02*
D03*
Y58366D02*
D03*
Y36713D02*
D03*
Y32382D02*
D03*
D22*
X65158Y26870D02*
D03*
D23*
X43996Y55905D02*
D03*
X37303D02*
D03*
X90748Y16732D02*
D03*
X84055D02*
D03*
X66929Y16929D02*
D03*
X73622D02*
D03*
X88189Y99705D02*
D03*
X94882D02*
D03*
X63779Y99508D02*
D03*
X70473D02*
D03*
X38583Y36083D02*
D03*
X45276D02*
D03*
X38937Y26024D02*
D03*
X45630D02*
D03*
D24*
X46850Y81004D02*
D03*
Y86122D02*
D03*
X30315Y86024D02*
D03*
Y80905D02*
D03*
X38583Y86024D02*
D03*
Y80905D02*
D03*
D25*
X104232Y38878D02*
D03*
Y70374D02*
D03*
D26*
X15842Y85905D02*
D03*
Y25905D02*
D03*
Y35906D02*
D03*
Y45906D02*
D03*
Y55905D02*
D03*
Y65905D02*
D03*
Y75906D02*
D03*
M02*
