G04*
G04 #@! TF.GenerationSoftware,Altium Limited,Altium Designer,22.3.1 (43)*
G04*
G04 Layer_Physical_Order=1*
G04 Layer_Color=255*
%FSLAX25Y25*%
%MOIN*%
G70*
G04*
G04 #@! TF.SameCoordinates,B0CD7CAE-3E36-43F7-B439-C09FFECED3EA*
G04*
G04*
G04 #@! TF.FilePolarity,Positive*
G04*
G01*
G75*
%ADD13R,0.09449X0.05512*%
%ADD14R,0.05512X0.06299*%
%ADD15R,0.05512X0.02756*%
%ADD16R,0.05433X0.05433*%
%ADD17R,0.03347X0.03347*%
%ADD18R,0.05118X0.03543*%
%ADD27C,0.01000*%
%ADD28C,0.01500*%
%ADD29C,0.03937*%
%ADD30O,0.07874X0.06299*%
%ADD31C,0.02362*%
G36*
X113139Y1427D02*
X1427D01*
Y116387D01*
X113139D01*
X113139Y1427D01*
D02*
G37*
%LPC*%
G36*
X97255Y102078D02*
X92509D01*
Y97332D01*
X97255D01*
Y98277D01*
X99075D01*
X99510Y97842D01*
X100275Y97525D01*
X101103D01*
X101868Y97842D01*
X102453Y98427D01*
X102770Y99192D01*
Y100020D01*
X102453Y100785D01*
X101868Y101371D01*
X101103Y101687D01*
X100275D01*
X99510Y101371D01*
X99272Y101132D01*
X97255D01*
Y102078D01*
D02*
G37*
G36*
X88554Y107445D02*
X87726D01*
X86961Y107128D01*
X86375Y106543D01*
X86059Y105778D01*
Y104950D01*
X86375Y104185D01*
X86507Y104054D01*
Y102078D01*
X85816D01*
Y97332D01*
X90562D01*
Y102078D01*
X89871D01*
Y104153D01*
X89904Y104185D01*
X90221Y104950D01*
Y105778D01*
X89904Y106543D01*
X89319Y107128D01*
X88554Y107445D01*
D02*
G37*
G36*
X66153Y101881D02*
X61406D01*
Y101190D01*
X57382D01*
X56738Y101062D01*
X56192Y100698D01*
X51665Y96170D01*
X51300Y95624D01*
X51172Y94980D01*
Y91560D01*
X13189D01*
X12916Y91506D01*
X12684Y91351D01*
X10322Y88989D01*
X10167Y88757D01*
X10113Y88484D01*
Y83169D01*
X10167Y82896D01*
X10322Y82665D01*
X11897Y81090D01*
X12128Y80935D01*
X12402Y80881D01*
X20965D01*
X21238Y80935D01*
X21469Y81090D01*
X23327Y82948D01*
X52756D01*
X53029Y83002D01*
X53261Y83157D01*
X54146Y84043D01*
X54146Y84043D01*
X54301Y84274D01*
X54355Y84547D01*
X54355Y89372D01*
X54409Y89452D01*
X54537Y90096D01*
Y94283D01*
X58079Y97825D01*
X61406D01*
Y97135D01*
X66153D01*
Y101881D01*
D02*
G37*
G36*
X104623Y73343D02*
X103841D01*
X103086Y73140D01*
X102410Y72749D01*
X101857Y72197D01*
X101466Y71520D01*
X101264Y70765D01*
Y69983D01*
X101466Y69228D01*
X101857Y68551D01*
X102410Y67999D01*
X103086Y67608D01*
X103841Y67405D01*
X104623D01*
X105378Y67608D01*
X106055Y67999D01*
X106608Y68551D01*
X106999Y69228D01*
X107201Y69983D01*
Y70765D01*
X106999Y71520D01*
X106608Y72197D01*
X106055Y72749D01*
X105378Y73140D01*
X104623Y73343D01*
D02*
G37*
G36*
X72846Y101881D02*
X68099D01*
Y97135D01*
X72846D01*
Y97153D01*
X73308Y97345D01*
X76566Y94087D01*
Y71760D01*
X69682Y64876D01*
X69566D01*
X68801Y64560D01*
X68621Y64379D01*
X66309D01*
X65956Y64733D01*
X65956Y65275D01*
Y69105D01*
X59044D01*
X59044Y64733D01*
X58691Y64379D01*
X56307D01*
X53591Y67095D01*
X53045Y67460D01*
X52402Y67588D01*
X20315D01*
X20166Y67948D01*
X19517Y68794D01*
X18671Y69443D01*
X17686Y69851D01*
X16629Y69990D01*
X15054D01*
X13997Y69851D01*
X13012Y69443D01*
X12166Y68794D01*
X11517Y67948D01*
X11109Y66963D01*
X10970Y65905D01*
X11109Y64848D01*
X11517Y63863D01*
X12166Y63017D01*
X13012Y62368D01*
X13997Y61960D01*
X15054Y61821D01*
X16629D01*
X17686Y61960D01*
X18671Y62368D01*
X19517Y63017D01*
X20166Y63863D01*
X20315Y64223D01*
X51705D01*
X54421Y61507D01*
X54966Y61143D01*
X55610Y61014D01*
X58691D01*
X59044Y60661D01*
X59044Y60294D01*
X58679Y59794D01*
X54680D01*
X54680Y59794D01*
X54134Y59685D01*
X53671Y59376D01*
X53671Y59376D01*
X51628Y57333D01*
X46369D01*
Y58279D01*
X41623D01*
Y53532D01*
X46369D01*
Y54478D01*
X52219D01*
X52219Y54478D01*
X52766Y54587D01*
X53229Y54896D01*
X55271Y56939D01*
X59044D01*
Y56362D01*
X58895Y56262D01*
X58550Y55918D01*
X58396Y55686D01*
X58341Y55413D01*
X58341Y52658D01*
X58396Y52384D01*
X58550Y52153D01*
X58944Y51759D01*
X59044Y51692D01*
Y51132D01*
X52362D01*
X51816Y51024D01*
X51353Y50714D01*
X51353Y50714D01*
X47972Y47333D01*
X29757D01*
X29657Y47833D01*
X30190Y48054D01*
X30796Y48518D01*
X31260Y49124D01*
X31553Y49830D01*
X31648Y50551D01*
X31655Y50587D01*
Y54405D01*
X31673D01*
X31689Y54444D01*
X31727Y54460D01*
Y54478D01*
X34930D01*
Y53532D01*
X39676D01*
Y58279D01*
X38790D01*
Y59035D01*
X39127Y59372D01*
X39443Y60137D01*
Y60965D01*
X39127Y61730D01*
X38541Y62315D01*
X37776Y62632D01*
X36948D01*
X36183Y62315D01*
X35598Y61730D01*
X35281Y60965D01*
Y60137D01*
X35598Y59372D01*
X35935Y59035D01*
Y58279D01*
X34930D01*
Y57333D01*
X31727D01*
X31691Y57326D01*
X30970Y57231D01*
X30265Y56939D01*
X29659Y56474D01*
X29194Y55868D01*
X29155Y55773D01*
X28655Y55872D01*
Y60285D01*
X28648Y60320D01*
X28553Y61041D01*
X28260Y61747D01*
X27796Y62353D01*
X27190Y62818D01*
X26484Y63110D01*
X25727Y63209D01*
X24970Y63110D01*
X24265Y62818D01*
X23659Y62353D01*
X23194Y61747D01*
X22902Y61041D01*
X22807Y60320D01*
X22800Y60285D01*
Y57406D01*
X22781D01*
X22765Y57367D01*
X22727Y57351D01*
Y57333D01*
X20421D01*
X20166Y57948D01*
X19517Y58794D01*
X18671Y59443D01*
X17686Y59851D01*
X16629Y59990D01*
X15054D01*
X13997Y59851D01*
X13012Y59443D01*
X12166Y58794D01*
X11517Y57948D01*
X11109Y56963D01*
X10970Y55905D01*
X11109Y54848D01*
X11517Y53863D01*
X12166Y53017D01*
X13012Y52368D01*
X13997Y51960D01*
X15054Y51821D01*
X16629D01*
X17686Y51960D01*
X18671Y52368D01*
X19517Y53017D01*
X20166Y53863D01*
X20421Y54478D01*
X22727D01*
X22763Y54485D01*
X23484Y54580D01*
X24190Y54872D01*
X24796Y55337D01*
X25260Y55943D01*
X25300Y56038D01*
X25800Y55939D01*
Y50587D01*
X25807Y50551D01*
X25902Y49830D01*
X26194Y49124D01*
X26659Y48518D01*
X27265Y48054D01*
X27797Y47833D01*
X27698Y47333D01*
X20421D01*
X20166Y47948D01*
X19517Y48794D01*
X18671Y49443D01*
X17686Y49851D01*
X16629Y49990D01*
X15054D01*
X13997Y49851D01*
X13012Y49443D01*
X12166Y48794D01*
X11517Y47948D01*
X11109Y46963D01*
X10970Y45906D01*
X11109Y44848D01*
X11517Y43863D01*
X12166Y43017D01*
X13012Y42368D01*
X13997Y41960D01*
X15054Y41821D01*
X16629D01*
X17686Y41960D01*
X18671Y42368D01*
X19517Y43017D01*
X20166Y43863D01*
X20421Y44478D01*
X48563D01*
X48563Y44478D01*
X49109Y44587D01*
X49572Y44896D01*
X52953Y48277D01*
X59044D01*
Y47627D01*
X65956D01*
Y51550D01*
X70324D01*
X70843Y51032D01*
X70843Y49949D01*
X70867Y49830D01*
X70897Y49676D01*
X70897Y49676D01*
X70897Y49676D01*
X70956Y49588D01*
X71052Y49444D01*
X71641Y48856D01*
X71641Y48856D01*
X71873Y48701D01*
X72146Y48647D01*
X76722Y48647D01*
X76996Y48701D01*
X77227Y48856D01*
X78162Y49791D01*
X78317Y50022D01*
X78371Y50295D01*
Y58169D01*
X78317Y58442D01*
X78162Y58674D01*
X78162Y58674D01*
X77325Y59511D01*
X77094Y59665D01*
X76821Y59720D01*
X72638D01*
X72365Y59665D01*
X72133Y59511D01*
X71050Y58428D01*
X70896Y58196D01*
X70841Y57923D01*
Y56841D01*
X70472Y56472D01*
X65956D01*
X65956Y60661D01*
X66309Y61014D01*
X68841D01*
X69566Y60714D01*
X70394D01*
X71159Y61031D01*
X71745Y61616D01*
X72061Y62381D01*
Y62497D01*
X79438Y69873D01*
X79438Y69873D01*
X79802Y70419D01*
X79930Y71063D01*
Y94783D01*
X79930Y94784D01*
X79802Y95427D01*
X79438Y95973D01*
X74713Y100698D01*
X74168Y101062D01*
X73524Y101190D01*
X72846D01*
Y101881D01*
D02*
G37*
G36*
X104623Y41846D02*
X103841D01*
X103086Y41644D01*
X102410Y41253D01*
X101857Y40701D01*
X101466Y40024D01*
X101264Y39269D01*
Y38487D01*
X101466Y37732D01*
X101857Y37055D01*
X102410Y36503D01*
X103086Y36112D01*
X103841Y35909D01*
X104623D01*
X105378Y36112D01*
X106055Y36503D01*
X106608Y37055D01*
X106999Y37732D01*
X107201Y38487D01*
Y39269D01*
X106999Y40024D01*
X106608Y40701D01*
X106055Y41253D01*
X105378Y41644D01*
X104623Y41846D01*
D02*
G37*
G36*
X38997Y42869D02*
X38169D01*
X37404Y42552D01*
X36818Y41966D01*
X36502Y41201D01*
Y40373D01*
X36818Y39609D01*
X37155Y39272D01*
Y38456D01*
X36209D01*
Y37333D01*
X32461D01*
X32425Y37326D01*
X31704Y37231D01*
X30999Y36939D01*
X30393Y36474D01*
X29928Y35868D01*
X29889Y35773D01*
X29389Y35872D01*
Y39341D01*
X29382Y39377D01*
X29287Y40098D01*
X28994Y40803D01*
X28530Y41409D01*
X27924Y41874D01*
X27218Y42166D01*
X26461Y42266D01*
X25704Y42166D01*
X24999Y41874D01*
X24393Y41409D01*
X23928Y40803D01*
X23636Y40098D01*
X23541Y39377D01*
X23534Y39341D01*
Y37405D01*
X23515D01*
X23500Y37367D01*
X23461Y37351D01*
Y37333D01*
X20421D01*
X20166Y37948D01*
X19517Y38794D01*
X18671Y39443D01*
X17686Y39851D01*
X16629Y39990D01*
X15054D01*
X13997Y39851D01*
X13012Y39443D01*
X12166Y38794D01*
X11517Y37948D01*
X11109Y36963D01*
X10970Y35906D01*
X11109Y34848D01*
X11517Y33863D01*
X12166Y33017D01*
X13012Y32368D01*
X13997Y31960D01*
X15054Y31821D01*
X16629D01*
X17686Y31960D01*
X18671Y32368D01*
X19517Y33017D01*
X20166Y33863D01*
X20421Y34478D01*
X23461D01*
X23497Y34485D01*
X24218Y34580D01*
X24924Y34872D01*
X25530Y35337D01*
X25994Y35943D01*
X26034Y36038D01*
X26534Y35939D01*
Y32574D01*
X26541Y32539D01*
X26636Y31817D01*
X26928Y31112D01*
X27393Y30506D01*
X27999Y30041D01*
X28704Y29749D01*
X29461Y29649D01*
X30218Y29749D01*
X30924Y30041D01*
X31530Y30506D01*
X31994Y31112D01*
X32287Y31817D01*
X32382Y32539D01*
X32389Y32574D01*
Y34405D01*
X32407D01*
X32423Y34444D01*
X32461Y34460D01*
Y34478D01*
X36209D01*
Y33709D01*
X40956D01*
Y38456D01*
X40010D01*
Y39272D01*
X40347Y39609D01*
X40664Y40373D01*
Y41201D01*
X40347Y41966D01*
X39761Y42552D01*
X38997Y42869D01*
D02*
G37*
G36*
X65956Y43121D02*
X59044D01*
Y42471D01*
X56693D01*
X56147Y42362D01*
X55684Y42053D01*
X55684Y42053D01*
X51141Y37510D01*
X47649D01*
Y38456D01*
X42902D01*
Y33709D01*
X47649D01*
Y34655D01*
X51732D01*
X51732Y34655D01*
X52279Y34764D01*
X52742Y35073D01*
X57284Y39616D01*
X58691D01*
X59044Y39262D01*
Y38965D01*
X59044Y38465D01*
Y34960D01*
X59044Y34635D01*
X59044Y34309D01*
X58679Y33809D01*
X56595D01*
X56595Y33809D01*
X56048Y33701D01*
X55585Y33391D01*
X55585Y33391D01*
X49645Y27451D01*
X48003D01*
Y28397D01*
X43257D01*
Y23650D01*
X48003D01*
Y24596D01*
X50236D01*
X50236Y24596D01*
X50783Y24705D01*
X51246Y25014D01*
X57186Y30955D01*
X59044D01*
Y30304D01*
X65956D01*
Y34135D01*
X65956Y34460D01*
X65956Y34960D01*
Y38465D01*
X65956Y38791D01*
X65956Y39291D01*
Y43121D01*
D02*
G37*
G36*
X93121Y19105D02*
X88375D01*
Y14359D01*
X93121D01*
Y15050D01*
X95196D01*
X95352Y14894D01*
X96117Y14577D01*
X96944D01*
X97709Y14894D01*
X98295Y15480D01*
X98612Y16244D01*
Y17072D01*
X98295Y17837D01*
X97709Y18423D01*
X96944Y18740D01*
X96117D01*
X95352Y18423D01*
X95344Y18415D01*
X93121D01*
Y19105D01*
D02*
G37*
G36*
X16629Y29990D02*
X15054D01*
X13997Y29851D01*
X13012Y29443D01*
X12166Y28794D01*
X11517Y27948D01*
X11109Y26963D01*
X10970Y25905D01*
X11109Y24848D01*
X11517Y23863D01*
X12166Y23017D01*
X13012Y22368D01*
X13997Y21960D01*
X15054Y21821D01*
X16629D01*
X17686Y21960D01*
X18671Y22368D01*
X19517Y23017D01*
X20166Y23863D01*
X20421Y24478D01*
X36564D01*
Y23650D01*
X37510D01*
Y19232D01*
X37510Y19232D01*
X37618Y18686D01*
X37928Y18223D01*
X40231Y15920D01*
X40231Y15920D01*
X40694Y15610D01*
X41240Y15502D01*
X41240Y15502D01*
X64556D01*
Y14556D01*
X69302D01*
Y19302D01*
X64556D01*
Y18357D01*
X41831D01*
X40364Y19824D01*
Y23650D01*
X41310D01*
Y28397D01*
X36564D01*
Y27333D01*
X20421D01*
X20166Y27948D01*
X19517Y28794D01*
X18671Y29443D01*
X17686Y29851D01*
X16629Y29990D01*
D02*
G37*
G36*
X86428Y19105D02*
X81682D01*
Y14359D01*
X82422D01*
Y12235D01*
X82389Y12202D01*
X82073Y11438D01*
Y10610D01*
X82389Y9845D01*
X82975Y9259D01*
X83740Y8942D01*
X84567D01*
X85332Y9259D01*
X85918Y9845D01*
X86235Y10610D01*
Y11438D01*
X85918Y12202D01*
X85787Y12334D01*
Y14359D01*
X86428D01*
Y19105D01*
D02*
G37*
G36*
X75995Y19302D02*
X71249D01*
Y14556D01*
X71890D01*
Y12235D01*
X71759Y12104D01*
X71443Y11339D01*
Y10511D01*
X71759Y9746D01*
X72345Y9161D01*
X73110Y8844D01*
X73938D01*
X74703Y9161D01*
X75288Y9746D01*
X75605Y10511D01*
Y11339D01*
X75288Y12104D01*
X75255Y12137D01*
Y14556D01*
X75995D01*
Y19302D01*
D02*
G37*
%LPD*%
G36*
X53642Y89961D02*
X53642Y84547D01*
X52756Y83661D01*
X23031D01*
X20965Y81595D01*
X12402D01*
X10827Y83169D01*
Y88484D01*
X13189Y90847D01*
X52756D01*
X53642Y89961D01*
D02*
G37*
G36*
X77658Y58169D02*
Y50295D01*
X76722Y49360D01*
X72146Y49360D01*
X71557Y49949D01*
X71556Y51327D01*
X70768Y52116D01*
X70620Y52264D01*
X59449D01*
X59055Y52658D01*
X59055Y55413D01*
X59400Y55758D01*
X70768D01*
X71555Y56545D01*
Y57923D01*
X72638Y59006D01*
X76821D01*
X77658Y58169D01*
D02*
G37*
D13*
X102657Y27264D02*
D03*
Y88287D02*
D03*
D14*
X64862Y86024D02*
D03*
D15*
X62500Y67028D02*
D03*
Y62697D02*
D03*
Y41043D02*
D03*
Y45374D02*
D03*
Y49705D02*
D03*
Y54035D02*
D03*
Y58366D02*
D03*
Y36713D02*
D03*
Y32382D02*
D03*
D16*
X65158Y26870D02*
D03*
D17*
X43996Y55905D02*
D03*
X37303D02*
D03*
X90748Y16732D02*
D03*
X84055D02*
D03*
X66929Y16929D02*
D03*
X73622D02*
D03*
X88189Y99705D02*
D03*
X94882D02*
D03*
X63779Y99508D02*
D03*
X70473D02*
D03*
X38583Y36083D02*
D03*
X45276D02*
D03*
X38937Y26024D02*
D03*
X45630D02*
D03*
D18*
X46850Y81004D02*
D03*
Y86122D02*
D03*
X30315Y86024D02*
D03*
Y80905D02*
D03*
X38583Y86024D02*
D03*
Y80905D02*
D03*
D27*
X31727Y55905D02*
G03*
X30227Y54405I0J-1500D01*
G01*
X27227Y50587D02*
G03*
X30227Y50587I1500J0D01*
G01*
X27227Y60285D02*
G03*
X24227Y60285I-1500J0D01*
G01*
X22727Y55905D02*
G03*
X24227Y57406I0J1500D01*
G01*
X32461Y35906D02*
G03*
X30961Y34405I0J-1500D01*
G01*
X27961Y32574D02*
G03*
X30961Y32574I1500J0D01*
G01*
X27961Y39341D02*
G03*
X24961Y39341I-1500J0D01*
G01*
X23461Y35906D02*
G03*
X24961Y37405I0J1500D01*
G01*
X31727Y55905D02*
X34705D01*
X30227Y50587D02*
Y54405D01*
X27227Y50587D02*
Y60285D01*
X24227Y57406D02*
Y60285D01*
X22227Y55905D02*
X22727D01*
X15842D02*
X22227D01*
X34705D02*
X37303D01*
X50236Y26024D02*
X56595Y32382D01*
X45630Y26024D02*
X50236D01*
X45276Y36083D02*
X51732D01*
X15842Y45906D02*
X48563D01*
X43996Y55905D02*
X52219D01*
X56595Y32382D02*
X62500D01*
X52219Y55905D02*
X54680Y58366D01*
X62500D01*
X51732Y36083D02*
X56693Y41043D01*
X62500D01*
X48563Y45906D02*
X52362Y49705D01*
X62500D01*
X38937Y19232D02*
Y26024D01*
Y19232D02*
X41240Y16929D01*
X38819Y25905D02*
X38937Y26024D01*
X15842Y25905D02*
X38819D01*
X41240Y16929D02*
X66929D01*
X38583Y36083D02*
Y40787D01*
X100591Y99705D02*
X100689Y99606D01*
X94882Y99705D02*
X100591D01*
X37362Y55964D02*
Y60551D01*
X38405Y35906D02*
X38581Y36081D01*
X32461Y35906D02*
X38405D01*
X30961Y32574D02*
Y34405D01*
X27961Y32574D02*
Y39341D01*
X24961Y37405D02*
Y39341D01*
X22961Y35906D02*
X23461D01*
X15842D02*
X22961D01*
D28*
X73524Y99508D02*
X78248Y94784D01*
Y71063D02*
Y94784D01*
X70473Y99508D02*
X73524D01*
X96457Y16732D02*
X96530Y16658D01*
X90723Y16757D02*
X90773Y16708D01*
X90748Y16732D02*
X96457D01*
X52402Y65905D02*
X55610Y62697D01*
X15842Y65905D02*
X52402D01*
X62500Y62697D02*
X69882D01*
X55610D02*
X62500D01*
X51870Y88878D02*
Y89111D01*
X38581Y36081D02*
X38583Y36083D01*
Y40787D02*
X38583Y40787D01*
X51870Y89111D02*
X52854Y90096D01*
Y94980D02*
X57382Y99508D01*
X52854Y90096D02*
Y94980D01*
X57382Y99508D02*
X63779D01*
X88189Y99705D02*
Y105315D01*
X88140Y105364D02*
X88189Y105315D01*
X73573Y16880D02*
X73622Y16929D01*
X73573Y10974D02*
Y16880D01*
X73524Y10925D02*
X73573Y10974D01*
X84055Y16732D02*
X84104Y16683D01*
Y11073D02*
X84153Y11024D01*
X84104Y11073D02*
Y16683D01*
X94882Y99705D02*
X94931Y99655D01*
X69882Y62697D02*
X78248Y71063D01*
D29*
X104232Y38878D02*
D03*
Y70374D02*
D03*
D30*
X15842Y85905D02*
D03*
Y25905D02*
D03*
Y35906D02*
D03*
Y45906D02*
D03*
Y55905D02*
D03*
Y65905D02*
D03*
Y75906D02*
D03*
D31*
X21161Y14567D02*
D03*
X32874Y15157D02*
D03*
X34646Y10138D02*
D03*
X56890Y9843D02*
D03*
X43012Y9252D02*
D03*
X28150Y12795D02*
D03*
X17224Y10827D02*
D03*
X12106Y13976D02*
D03*
X104134Y18898D02*
D03*
X89567Y45472D02*
D03*
X96161Y40453D02*
D03*
X103347Y79528D02*
D03*
X103051Y60039D02*
D03*
X104528Y50886D02*
D03*
X93996Y33268D02*
D03*
X80709Y30610D02*
D03*
X80610Y41142D02*
D03*
X90847Y24311D02*
D03*
X77264Y26772D02*
D03*
X88189Y39272D02*
D03*
X9252Y91634D02*
D03*
X13091Y94095D02*
D03*
X22835Y93996D02*
D03*
X29921Y94193D02*
D03*
X37894Y94390D02*
D03*
X48425Y94980D02*
D03*
X81102Y100591D02*
D03*
X84350Y92913D02*
D03*
X71653Y79331D02*
D03*
X72835Y89862D02*
D03*
X67716Y93209D02*
D03*
X58760Y93701D02*
D03*
X57480Y86713D02*
D03*
X56201Y76378D02*
D03*
X47539Y75689D02*
D03*
X40059Y75295D02*
D03*
X31890Y74606D02*
D03*
X25197Y73622D02*
D03*
X23819Y78543D02*
D03*
X71161Y38583D02*
D03*
X56811Y36181D02*
D03*
X52244Y33071D02*
D03*
X50315Y60551D02*
D03*
X50945Y42087D02*
D03*
X56102Y45551D02*
D03*
X48031Y31220D02*
D03*
X47598Y50433D02*
D03*
X51870Y88878D02*
D03*
X88090Y79823D02*
D03*
Y71949D02*
D03*
X87992Y61713D02*
D03*
Y53839D02*
D03*
X95374Y61516D02*
D03*
Y57579D02*
D03*
Y49705D02*
D03*
X95177Y77756D02*
D03*
Y69882D02*
D03*
X103937Y5118D02*
D03*
X100000D02*
D03*
X96063D02*
D03*
X92126D02*
D03*
X88189D02*
D03*
X84252D02*
D03*
X80315D02*
D03*
X76378D02*
D03*
X72441D02*
D03*
X5512Y16929D02*
D03*
Y12992D02*
D03*
Y9055D02*
D03*
X5610Y105807D02*
D03*
Y101870D02*
D03*
Y97933D02*
D03*
Y93996D02*
D03*
Y90059D02*
D03*
X70669Y108858D02*
D03*
X66732D02*
D03*
X62795D02*
D03*
X58858D02*
D03*
X54921D02*
D03*
X50984D02*
D03*
X47047D02*
D03*
X43110D02*
D03*
X39173D02*
D03*
X31299D02*
D03*
X35236D02*
D03*
X27362D02*
D03*
X23425D02*
D03*
X19488D02*
D03*
X15551D02*
D03*
X11614D02*
D03*
X7677D02*
D03*
X74606D02*
D03*
X78543D02*
D03*
X82480D02*
D03*
X86417D02*
D03*
X90354D02*
D03*
X98228D02*
D03*
X94291D02*
D03*
X102165D02*
D03*
X106102D02*
D03*
X108071Y112303D02*
D03*
X104134D02*
D03*
X100197D02*
D03*
X92323D02*
D03*
X96260D02*
D03*
X88386D02*
D03*
X84449D02*
D03*
X80512D02*
D03*
X76575D02*
D03*
X72638D02*
D03*
X110433Y108169D02*
D03*
Y104232D02*
D03*
Y100295D02*
D03*
Y92421D02*
D03*
Y96358D02*
D03*
Y88484D02*
D03*
Y84547D02*
D03*
Y80610D02*
D03*
Y76673D02*
D03*
Y72736D02*
D03*
Y5807D02*
D03*
Y9744D02*
D03*
Y13681D02*
D03*
Y17618D02*
D03*
Y21555D02*
D03*
Y25492D02*
D03*
Y33366D02*
D03*
Y29429D02*
D03*
Y37303D02*
D03*
Y41240D02*
D03*
Y45177D02*
D03*
Y49114D02*
D03*
Y53051D02*
D03*
Y56988D02*
D03*
Y60925D02*
D03*
Y64862D02*
D03*
Y68799D02*
D03*
X5512Y5118D02*
D03*
X9449D02*
D03*
X13386D02*
D03*
X17323D02*
D03*
X21260D02*
D03*
X25197D02*
D03*
X33071D02*
D03*
X29134D02*
D03*
X37008D02*
D03*
X40945D02*
D03*
X44882D02*
D03*
X48819D02*
D03*
X52756D02*
D03*
X56693D02*
D03*
X60630D02*
D03*
X64567D02*
D03*
X68504D02*
D03*
X5709Y112303D02*
D03*
X9646D02*
D03*
X13583D02*
D03*
X17520D02*
D03*
X21457D02*
D03*
X25394D02*
D03*
X33268D02*
D03*
X29331D02*
D03*
X37205D02*
D03*
X41142D02*
D03*
X45079D02*
D03*
X49016D02*
D03*
X52953D02*
D03*
X56890D02*
D03*
X60827D02*
D03*
X64764D02*
D03*
X68701D02*
D03*
X5610Y23130D02*
D03*
Y27067D02*
D03*
Y31004D02*
D03*
Y34941D02*
D03*
Y38878D02*
D03*
Y42815D02*
D03*
Y46752D02*
D03*
Y50689D02*
D03*
Y54626D02*
D03*
Y62500D02*
D03*
Y58563D02*
D03*
Y66437D02*
D03*
Y70374D02*
D03*
Y74311D02*
D03*
Y78248D02*
D03*
Y82185D02*
D03*
Y86122D02*
D03*
X21378Y20787D02*
D03*
X24803Y23071D02*
D03*
X29606Y23110D02*
D03*
X34488Y23071D02*
D03*
X45984Y21102D02*
D03*
X50197Y21811D02*
D03*
X53110Y23898D02*
D03*
X55984Y26299D02*
D03*
X59724Y28386D02*
D03*
X42953Y31181D02*
D03*
X22402Y29134D02*
D03*
X27067Y28937D02*
D03*
X28543Y43209D02*
D03*
X33622Y31850D02*
D03*
X23858Y32677D02*
D03*
X21732Y41024D02*
D03*
X33110Y40866D02*
D03*
X44764Y42165D02*
D03*
X68583Y45197D02*
D03*
X41378Y49409D02*
D03*
X34173Y49528D02*
D03*
X22953Y52047D02*
D03*
X20709Y61221D02*
D03*
X30787Y59842D02*
D03*
X56260Y54016D02*
D03*
X37362Y60551D02*
D03*
X38583Y40787D02*
D03*
X74508Y61122D02*
D03*
X68602Y50098D02*
D03*
X68504Y57972D02*
D03*
X74705Y47244D02*
D03*
X80020Y54921D02*
D03*
X74508Y56102D02*
D03*
X74705Y51870D02*
D03*
X88140Y105364D02*
D03*
X73524Y10925D02*
D03*
X84153Y11024D02*
D03*
X51870Y85236D02*
D03*
X96530Y16658D02*
D03*
X100689Y99606D02*
D03*
X69980Y62795D02*
D03*
M02*
