M48
;Layer_Color=9474304
;FILE_FORMAT=2:5
INCH,LZ
;TYPE=PLATED
T1F00S00C0.01181
T4F00S00C0.04331
T5F00S00C0.05906
T6F00S00C0.06693
%
T01
X0054429Y0007017
X005502Y0013611
X0060827Y0010855
X0060925Y0016761
X0067717Y0027784
X0075591Y0027883
X0082776Y0026505
X0084302Y0030967
X0096752Y0030957
Y0026694
Y0022432
Y0018169
X0096851Y0014694
X0104035Y0017647
X0108298
X0112561
X0116823
X0121086
X0125348
X0131595Y0017677
Y0021939
Y0026202
Y0030465
Y0034727
Y003899
Y0043252
Y0047515
Y0051777
Y005604
Y0060303
Y0064565
Y0068828
X0133502Y0074733
X0137765
X0142027
X014439Y0070402
X014626Y0067351
X0149508Y0067548
X0152756Y0067351
X0156102Y0068532
X0159252Y0068631
X0162992Y0067646
X0167028Y0067745
X016998
X0172835Y0069024
X0175886Y0069123
X0175492Y0072371
X0177165Y0075127
X0180413Y0074733
X0183563Y0074832
X0186713Y0074733
X0189075Y0073355
X0189567Y0070501
X0189961Y0067154
X0189862Y0064005
Y0060855
X0189567Y0057706
X0188189Y0054753
X0184843
X0181791Y0054851
X017874Y0055048
X0175689Y0056328
Y0059576
X0173327Y0060855
X0170374Y0061544
X0170669Y0058296
X0170768Y0055442
X0170374Y0052784
X0174311Y0051702
X0164075Y0051603
X0163976Y0055048
X0163878Y0058395
X0163386Y0061643
X0160925Y0053375
X0157283Y0053867
X0154134Y0050816
X0149213Y005052
X0144587Y0050619
X0144095Y006115
X0147441Y0061249
X0151673
X0163189Y0048158
X0162992Y004491
X0173228Y003369
X0176378Y0033099
X0179725Y0034084
X0189567Y003428
Y0038021
X0190059Y0041662
X0188976Y004491
X0185728Y0046584
Y0050619
X0194291Y0018237
X0194488Y001371
X0186024Y0008985
X0181299Y0009477
X0175689Y0014694
X0175787Y0018926
X0158661Y0026111
X0146654Y0031426
X0145571Y0035166
X0145276Y0039694
X0125644Y0038906
X0121381
X0117118
X0112856
X0108593
X0104331
X0096752Y0039482
Y0035219
Y0043744
Y0048007
Y0052269
Y0056532
Y0060795
Y0065057
Y006932
X0095139Y0074733
X0090877
X0086614
X0083169Y0069713
Y0064398
X0083465Y0059871
X0083268Y0054654
X0087697Y0047273
X0087599Y0043631
X0068406Y0047863
X0066142Y0061446
X0057677Y0060363
X0050295Y0061938
X004872Y0042745
X0054528Y0040678
X0104429Y00518
X0108692
X0112954
X0117217
X0121479
X0125742
X0125053Y0064497
X0120791
X0116528
X0112265
X0108003
X010374
X0103665Y0074733
X0107927
X011219
X0116452
X0120715
X0124977
X012924
X0099402
X0105315Y0028867
X0109578
X011384
X0118103
X0122365
X0126628
X0128619Y0002784
X0124356
X0120094
X0115831
X0111569
X0107306
X0103044
X0098781
X0094519
X0090256
X0132882
X0137144
X0141407
X0145669
X004626Y000682
X0037303Y0007214
X0034154Y001371
X0028445Y0021288
Y0028276
X0028329Y0030942
X0029921Y0034576
X0025295Y0025816
X0043209Y0024536
X0025197Y0051111
X0027165Y0060166
T04
X005374Y0069418
X006374
X004374
X003374
T05
X0184547Y0016367
T06
X0174547Y0006367
X0194547
Y0026367
X0174547
M30
