G04*
G04 #@! TF.GenerationSoftware,Altium Limited,Altium Designer,22.10.1 (41)*
G04*
G04 Layer_Color=128*
%FSLAX25Y25*%
%MOIN*%
G70*
G04*
G04 #@! TF.SameCoordinates,F8C157B4-DA96-4F04-9901-D09C045D4249*
G04*
G04*
G04 #@! TF.FilePolarity,Positive*
G04*
G01*
G75*
%ADD121C,0.00200*%
D121*
X239832Y153150D02*
X243632D01*
X241732Y151250D02*
Y155050D01*
X239832Y143150D02*
X243632D01*
X241732Y141250D02*
Y145050D01*
X239832Y133150D02*
X243632D01*
X241732Y131250D02*
Y135050D01*
X239832Y123150D02*
X243632D01*
X241732Y121250D02*
Y125050D01*
X239832Y113150D02*
X243632D01*
X241732Y111250D02*
Y115050D01*
X239832Y103150D02*
X243632D01*
X241732Y101250D02*
Y105050D01*
X239832Y93150D02*
X243632D01*
X241732Y91250D02*
Y95050D01*
X239832Y83150D02*
X243632D01*
X241732Y81250D02*
Y85050D01*
X239832Y73150D02*
X243632D01*
X241732Y71250D02*
Y75050D01*
X239832Y63150D02*
X243632D01*
X241732Y61250D02*
Y65050D01*
X239832Y53150D02*
X243632D01*
X241732Y51250D02*
Y55050D01*
X239832Y43150D02*
X243632D01*
X241732Y41250D02*
Y45050D01*
X239832Y33150D02*
X243632D01*
X241732Y31250D02*
Y35050D01*
X239832Y23150D02*
X243632D01*
X241732Y21250D02*
Y25050D01*
X239832Y13150D02*
X243632D01*
X241732Y11250D02*
Y15050D01*
X139832Y13150D02*
X143632D01*
X141732Y11250D02*
Y15050D01*
X139832Y23150D02*
X143632D01*
X141732Y21250D02*
Y25050D01*
X139832Y33150D02*
X143632D01*
X141732Y31250D02*
Y35050D01*
X139832Y43150D02*
X143632D01*
X141732Y41250D02*
Y45050D01*
X139832Y53150D02*
X143632D01*
X141732Y51250D02*
Y55050D01*
X139832Y63150D02*
X143632D01*
X141732Y61250D02*
Y65050D01*
X139832Y73150D02*
X143632D01*
X141732Y71250D02*
Y75050D01*
X139832Y83150D02*
X143632D01*
X141732Y81250D02*
Y85050D01*
X139832Y93150D02*
X143632D01*
X141732Y91250D02*
Y95050D01*
X139832Y103150D02*
X143632D01*
X141732Y101250D02*
Y105050D01*
X139832Y113150D02*
X143632D01*
X141732Y111250D02*
Y115050D01*
X139832Y123150D02*
X143632D01*
X141732Y121250D02*
Y125050D01*
X139832Y133150D02*
X143632D01*
X141732Y131250D02*
Y135050D01*
X139832Y143150D02*
X143632D01*
X141732Y141250D02*
Y145050D01*
X139832Y153150D02*
X143632D01*
X141732Y151250D02*
Y155050D01*
X413189Y230315D02*
X419488D01*
X416339Y227165D02*
Y233465D01*
X413189Y210630D02*
X419488D01*
X416339Y207480D02*
Y213779D01*
X413189Y190945D02*
X419488D01*
X416339Y187795D02*
Y194095D01*
X344587Y39665D02*
X350886D01*
X347736Y36516D02*
Y42815D01*
X324902Y39665D02*
X331201D01*
X328051Y36516D02*
Y42815D01*
X305217Y39665D02*
X311516D01*
X308366Y36516D02*
Y42815D01*
X34941Y39370D02*
X41240D01*
X38091Y36220D02*
Y42520D01*
X34941Y59055D02*
X41240D01*
X38091Y55905D02*
Y62205D01*
X34941Y78740D02*
X41240D01*
X38091Y75591D02*
Y81890D01*
X101772Y39173D02*
X108071D01*
X104921Y36024D02*
Y42323D01*
X82087Y39173D02*
X88386D01*
X85236Y36024D02*
Y42323D01*
X62402Y39173D02*
X68701D01*
X65551Y36024D02*
Y42323D01*
X35236Y113878D02*
X41535D01*
X38386Y110728D02*
Y117027D01*
X35236Y133563D02*
X41535D01*
X38386Y130413D02*
Y136713D01*
X399902Y39934D02*
X406201D01*
X403051Y36784D02*
Y43083D01*
X380217Y39934D02*
X386516D01*
X383366Y36784D02*
Y43083D01*
X412992Y146457D02*
X419291D01*
X416142Y143307D02*
Y149606D01*
X412992Y126772D02*
X419291D01*
X416142Y123622D02*
Y129921D01*
X35728Y173130D02*
X42028D01*
X38878Y169980D02*
Y176279D01*
X35728Y192815D02*
X42028D01*
X38878Y189665D02*
Y195965D01*
X36122Y230315D02*
X42421D01*
X39272Y227165D02*
Y233465D01*
X36122Y250000D02*
X42421D01*
X39272Y246850D02*
Y253150D01*
X386821Y355850D02*
X393120D01*
X389970Y352701D02*
Y359000D01*
X406505Y355850D02*
X412805D01*
X409655Y352701D02*
Y359000D01*
X36075Y318110D02*
X42374D01*
X39224Y314961D02*
Y321260D01*
X36075Y337795D02*
X42374D01*
X39224Y334646D02*
Y340945D01*
X228937Y355905D02*
X235236D01*
X232087Y352756D02*
Y359055D01*
X248622Y355905D02*
X254921D01*
X251772Y352756D02*
Y359055D01*
X80709Y319390D02*
X83465D01*
X82087Y318012D02*
Y320768D01*
X80709Y339075D02*
X83465D01*
X82087Y337697D02*
Y340453D01*
X433563Y15650D02*
X445768D01*
X439665Y9547D02*
Y21752D01*
X13437Y375984D02*
X25642D01*
X19539Y369882D02*
Y382087D01*
X432874Y378839D02*
X445079D01*
X438976Y372736D02*
Y384941D01*
X170413Y214567D02*
X174350D01*
X172382Y212598D02*
Y216535D01*
X180413Y214567D02*
X184350D01*
X182382Y212598D02*
Y216535D01*
X160413Y214567D02*
X164350D01*
X162382Y212598D02*
Y216535D01*
X190413Y214567D02*
X194350D01*
X192382Y212598D02*
Y216535D01*
X200413Y214567D02*
X204350D01*
X202382Y212598D02*
Y216535D01*
X210413Y214567D02*
X214350D01*
X212382Y212598D02*
Y216535D01*
X272342Y52638D02*
X276279D01*
X274311Y50669D02*
Y54606D01*
X272342Y62638D02*
X276279D01*
X274311Y60669D02*
Y64606D01*
X272342Y72638D02*
X276279D01*
X274311Y70669D02*
Y74606D01*
X272342Y82638D02*
X276279D01*
X274311Y80669D02*
Y84606D01*
X349016Y91870D02*
X352953D01*
X350984Y89902D02*
Y93839D01*
X349016Y111870D02*
X352953D01*
X350984Y109902D02*
Y113839D01*
X349016Y101870D02*
X352953D01*
X350984Y99902D02*
Y103839D01*
X295609Y93268D02*
X299546D01*
X297578Y91299D02*
Y95236D01*
X295609Y73268D02*
X299546D01*
X297578Y71299D02*
Y75236D01*
X295609Y83268D02*
X299546D01*
X297578Y81299D02*
Y85236D01*
X82480Y84311D02*
X86417D01*
X84449Y82342D02*
Y86279D01*
X82480Y64311D02*
X86417D01*
X84449Y62343D02*
Y66280D01*
X82480Y74311D02*
X86417D01*
X84449Y72342D02*
Y76279D01*
X308366Y63622D02*
X312303D01*
X310335Y61654D02*
Y65591D01*
X308366Y83622D02*
X312303D01*
X310335Y81653D02*
Y85590D01*
X308366Y73622D02*
X312303D01*
X310335Y71653D02*
Y75590D01*
X142224Y239252D02*
X146161D01*
X144193Y237283D02*
Y241220D01*
X142224Y259252D02*
X146161D01*
X144193Y257283D02*
Y261221D01*
X142224Y249252D02*
X146161D01*
X144193Y247284D02*
Y251220D01*
X156890Y239252D02*
X160827D01*
X158858Y237283D02*
Y241220D01*
X156890Y259252D02*
X160827D01*
X158858Y257283D02*
Y261221D01*
X156890Y249252D02*
X160827D01*
X158858Y247284D02*
Y251220D01*
X282697Y208850D02*
X286634D01*
X284665Y206881D02*
Y210818D01*
X262697Y208850D02*
X266634D01*
X264665Y206881D02*
Y210818D01*
X272697Y208850D02*
X276634D01*
X274665Y206881D02*
Y210818D01*
X331004Y209012D02*
X334941D01*
X332972Y207043D02*
Y210980D01*
X311004Y209012D02*
X314941D01*
X312972Y207043D02*
Y210980D01*
X321004Y209012D02*
X324941D01*
X322972Y207043D02*
Y210980D01*
X270472Y152461D02*
X274409D01*
X272441Y150492D02*
Y154429D01*
X270472Y162461D02*
X274409D01*
X272441Y160492D02*
Y164429D01*
X110335Y154035D02*
X114272D01*
X112303Y152067D02*
Y156004D01*
X110335Y164035D02*
X114272D01*
X112303Y162067D02*
Y166004D01*
X112106Y113789D02*
X116043D01*
X114075Y111821D02*
Y115758D01*
X112106Y103789D02*
X116043D01*
X114075Y101821D02*
Y105758D01*
X272342Y33150D02*
X276279D01*
X274311Y31181D02*
Y35118D01*
X272342Y23150D02*
X276279D01*
X274311Y21181D02*
Y25118D01*
X380447Y78106D02*
X381628D01*
X381037Y77516D02*
Y78697D01*
X8400Y7240D02*
X9581D01*
X8990Y6650D02*
Y7831D01*
X20211Y7240D02*
X21392D01*
X20801Y6650D02*
Y7831D01*
X8400Y19051D02*
X9581D01*
X8990Y18461D02*
Y19642D01*
X20211Y19051D02*
X21392D01*
X20801Y18461D02*
Y19642D01*
X87389Y245202D02*
X88570D01*
X87980Y244612D02*
Y245793D01*
X109547Y80216D02*
X110728D01*
X110138Y79626D02*
Y80807D01*
X116339Y58150D02*
X117520D01*
X116929Y57559D02*
Y58740D01*
X141142Y180610D02*
X142323D01*
X141732Y180020D02*
Y181201D01*
X153740Y202658D02*
X154921D01*
X154331Y202067D02*
Y203248D01*
X153445Y209941D02*
X154626D01*
X154035Y209350D02*
Y210531D01*
X208481Y221850D02*
X209662D01*
X209071Y221260D02*
Y222441D01*
X196238Y221850D02*
X197419D01*
X196828Y221260D02*
Y222441D01*
X186417Y221850D02*
X187598D01*
X187008Y221260D02*
Y222441D01*
X161791Y221850D02*
X162972D01*
X162382Y221260D02*
Y222441D01*
X174311Y221850D02*
X175492D01*
X174902Y221260D02*
Y222441D01*
X132415Y37257D02*
X133597D01*
X133006Y36666D02*
Y37847D01*
X130020Y48150D02*
X131201D01*
X130610Y47559D02*
Y48740D01*
X126510Y58150D02*
X127691D01*
X127101Y57559D02*
Y58740D01*
X382741Y318352D02*
X383922D01*
X383331Y317762D02*
Y318943D01*
X379087Y315053D02*
X380268D01*
X379677Y314463D02*
Y315644D01*
X375210Y311598D02*
X376392D01*
X375801Y311007D02*
Y312189D01*
X385753Y322370D02*
X386934D01*
X386344Y321779D02*
Y322960D01*
X388647Y325263D02*
X389828D01*
X389237Y324673D02*
Y325854D01*
X391855Y328157D02*
X393036D01*
X392446Y327566D02*
Y328747D01*
X381800Y327784D02*
X382981D01*
X382390Y327194D02*
Y328375D01*
X378104Y324318D02*
X379285D01*
X378695Y323727D02*
Y324908D01*
X374867Y321109D02*
X376048D01*
X375457Y320519D02*
Y321700D01*
X392647Y343039D02*
X393828D01*
X393237Y342449D02*
Y343630D01*
X385657Y343039D02*
X386839D01*
X386248Y342449D02*
Y343630D01*
X392647Y337724D02*
X393828D01*
X393237Y337134D02*
Y338315D01*
X385657Y337724D02*
X386839D01*
X386248Y337134D02*
Y338315D01*
X392647Y332409D02*
X393828D01*
X393237Y331819D02*
Y333000D01*
X385657Y332409D02*
X386839D01*
X386248Y331819D02*
Y333000D01*
X222787Y323562D02*
X223968D01*
X223377Y322971D02*
Y324152D01*
X219200Y320129D02*
X220381D01*
X219791Y319538D02*
Y320719D01*
X215748Y316732D02*
X216929D01*
X216339Y316142D02*
Y317323D01*
X212697Y313386D02*
X213878D01*
X213287Y312795D02*
Y313976D01*
X209008Y310924D02*
X210189D01*
X209599Y310334D02*
Y311515D01*
X221673Y332087D02*
X222854D01*
X222264Y331496D02*
Y332677D01*
X218012Y328740D02*
X219193D01*
X218602Y328150D02*
Y329331D01*
X213878Y324606D02*
X215059D01*
X214469Y324016D02*
Y325197D01*
X209769Y321075D02*
X210950D01*
X210359Y320484D02*
Y321665D01*
X204527Y317913D02*
X205709D01*
X205118Y317323D02*
Y318504D01*
X204527Y310924D02*
X205709D01*
X205118Y310334D02*
Y311515D01*
X199213Y317913D02*
X200394D01*
X199803Y317323D02*
Y318504D01*
X199213Y310924D02*
X200394D01*
X199803Y310334D02*
Y311515D01*
X193898Y317913D02*
X195079D01*
X194488Y317323D02*
Y318504D01*
X193898Y310924D02*
X195079D01*
X194488Y310334D02*
Y311515D01*
X188583Y317913D02*
X189764D01*
X189173Y317323D02*
Y318504D01*
X188583Y310924D02*
X189764D01*
X189173Y310334D02*
Y311515D01*
X183268Y317913D02*
X184449D01*
X183858Y317323D02*
Y318504D01*
X183268Y310924D02*
X184449D01*
X183858Y310334D02*
Y311515D01*
X177953Y317913D02*
X179134D01*
X178543Y317323D02*
Y318504D01*
X177953Y310924D02*
X179134D01*
X178543Y310334D02*
Y311515D01*
X172638Y317913D02*
X173819D01*
X173228Y317323D02*
Y318504D01*
X172638Y310924D02*
X173819D01*
X173228Y310334D02*
Y311515D01*
X167323Y317913D02*
X168504D01*
X167913Y317323D02*
Y318504D01*
X167323Y310924D02*
X168504D01*
X167913Y310334D02*
Y311515D01*
X162008Y317913D02*
X163189D01*
X162598Y317323D02*
Y318504D01*
X162008Y310924D02*
X163189D01*
X162598Y310334D02*
Y311515D01*
X156693Y317913D02*
X157874D01*
X157283Y317323D02*
Y318504D01*
X156693Y310924D02*
X157874D01*
X157283Y310334D02*
Y311515D01*
X370866Y318110D02*
X372047D01*
X371457Y317520D02*
Y318701D01*
X370866Y311121D02*
X372047D01*
X371457Y310530D02*
Y311712D01*
X365551Y318110D02*
X366732D01*
X366142Y317520D02*
Y318701D01*
X365551Y311121D02*
X366732D01*
X366142Y310530D02*
Y311712D01*
X360236Y318110D02*
X361417D01*
X360827Y317520D02*
Y318701D01*
X360236Y311121D02*
X361417D01*
X360827Y310530D02*
Y311712D01*
X354921Y318110D02*
X356102D01*
X355512Y317520D02*
Y318701D01*
X354921Y311121D02*
X356102D01*
X355512Y310530D02*
Y311712D01*
X349606Y318110D02*
X350787D01*
X350197Y317520D02*
Y318701D01*
X349606Y311121D02*
X350787D01*
X350197Y310530D02*
Y311712D01*
X344291Y318110D02*
X345472D01*
X344882Y317520D02*
Y318701D01*
X344291Y311121D02*
X345472D01*
X344882Y310530D02*
Y311712D01*
X338976Y318110D02*
X340158D01*
X339567Y317520D02*
Y318701D01*
X338976Y311121D02*
X340158D01*
X339567Y310530D02*
Y311712D01*
X333661Y318110D02*
X334842D01*
X334252Y317520D02*
Y318701D01*
X333661Y311121D02*
X334842D01*
X334252Y310530D02*
Y311712D01*
X328346Y318110D02*
X329528D01*
X328937Y317520D02*
Y318701D01*
X328346Y311121D02*
X329528D01*
X328937Y310530D02*
Y311712D01*
X323031Y311121D02*
X324213D01*
X323622Y310530D02*
Y311712D01*
X317717Y311121D02*
X318898D01*
X318307Y310530D02*
Y311712D01*
X323031Y318110D02*
X324213D01*
X323622Y317520D02*
Y318701D01*
X317717Y318110D02*
X318898D01*
X318307Y317520D02*
Y318701D01*
X6890Y275197D02*
X8071D01*
X7480Y274606D02*
Y275787D01*
X20211Y276181D02*
X21392D01*
X20801Y275591D02*
Y276772D01*
X32022Y276181D02*
X33203D01*
X32612Y275591D02*
Y276772D01*
X43833Y277157D02*
X45014D01*
X44423Y276567D02*
Y277748D01*
X439502Y361571D02*
X440683D01*
X440093Y360980D02*
Y362161D01*
X445407Y349760D02*
X446589D01*
X445998Y349169D02*
Y350350D01*
X439502Y337949D02*
X440683D01*
X440093Y337358D02*
Y338539D01*
X445407Y326138D02*
X446589D01*
X445998Y325547D02*
Y326728D01*
X439502Y314327D02*
X440683D01*
X440093Y313736D02*
Y314917D01*
X445407Y302516D02*
X446589D01*
X445998Y301925D02*
Y303106D01*
X439502Y290704D02*
X440683D01*
X440093Y290114D02*
Y291295D01*
X445407Y278893D02*
X446589D01*
X445998Y278303D02*
Y279484D01*
X439502Y267083D02*
X440683D01*
X440093Y266492D02*
Y267673D01*
X445407Y255272D02*
X446589D01*
X445998Y254681D02*
Y255862D01*
X439502Y243460D02*
X440683D01*
X440093Y242870D02*
Y244051D01*
X445407Y231649D02*
X446589D01*
X445998Y231059D02*
Y232240D01*
X439502Y219838D02*
X440683D01*
X440093Y219248D02*
Y220429D01*
X445407Y208027D02*
X446589D01*
X445998Y207437D02*
Y208618D01*
X439502Y196216D02*
X440683D01*
X440093Y195626D02*
Y196807D01*
X445407Y184405D02*
X446589D01*
X445998Y183815D02*
Y184996D01*
X439502Y172594D02*
X440683D01*
X440093Y172004D02*
Y173185D01*
X445407Y160783D02*
X446589D01*
X445998Y160193D02*
Y161374D01*
X439502Y148972D02*
X440683D01*
X440093Y148382D02*
Y149563D01*
X445407Y137161D02*
X446589D01*
X445998Y136571D02*
Y137752D01*
X439502Y125350D02*
X440683D01*
X440093Y124760D02*
Y125941D01*
X445407Y113539D02*
X446589D01*
X445998Y112949D02*
Y114130D01*
X439502Y101728D02*
X440683D01*
X440093Y101138D02*
Y102319D01*
X445407Y89917D02*
X446589D01*
X445998Y89327D02*
Y90508D01*
X439502Y78106D02*
X440683D01*
X440093Y77516D02*
Y78697D01*
X445407Y66295D02*
X446589D01*
X445998Y65705D02*
Y66886D01*
X439502Y54484D02*
X440683D01*
X440093Y53894D02*
Y55075D01*
X445407Y42673D02*
X446589D01*
X445998Y42083D02*
Y43264D01*
X439502Y30862D02*
X440683D01*
X440093Y30272D02*
Y31453D01*
X427691Y361571D02*
X428872D01*
X428281Y360980D02*
Y362161D01*
X433597Y349760D02*
X434778D01*
X434187Y349169D02*
Y350350D01*
X427691Y337949D02*
X428872D01*
X428281Y337358D02*
Y338539D01*
X433597Y326138D02*
X434778D01*
X434187Y325547D02*
Y326728D01*
X427691Y314327D02*
X428872D01*
X428281Y313736D02*
Y314917D01*
X433597Y302516D02*
X434778D01*
X434187Y301925D02*
Y303106D01*
X427691Y290704D02*
X428872D01*
X428281Y290114D02*
Y291295D01*
X433597Y278893D02*
X434778D01*
X434187Y278303D02*
Y279484D01*
X427691Y267083D02*
X428872D01*
X428281Y266492D02*
Y267673D01*
X433597Y255272D02*
X434778D01*
X434187Y254681D02*
Y255862D01*
X427691Y243460D02*
X428872D01*
X428281Y242870D02*
Y244051D01*
X433597Y231649D02*
X434778D01*
X434187Y231059D02*
Y232240D01*
X427691Y219838D02*
X428872D01*
X428281Y219248D02*
Y220429D01*
X433597Y208027D02*
X434778D01*
X434187Y207437D02*
Y208618D01*
X427691Y196216D02*
X428872D01*
X428281Y195626D02*
Y196807D01*
X433597Y184405D02*
X434778D01*
X434187Y183815D02*
Y184996D01*
X427691Y172594D02*
X428872D01*
X428281Y172004D02*
Y173185D01*
X433597Y160783D02*
X434778D01*
X434187Y160193D02*
Y161374D01*
X427691Y148972D02*
X428872D01*
X428281Y148382D02*
Y149563D01*
X433597Y137161D02*
X434778D01*
X434187Y136571D02*
Y137752D01*
X427691Y125350D02*
X428872D01*
X428281Y124760D02*
Y125941D01*
X433597Y113539D02*
X434778D01*
X434187Y112949D02*
Y114130D01*
X427691Y101728D02*
X428872D01*
X428281Y101138D02*
Y102319D01*
X433597Y89917D02*
X434778D01*
X434187Y89327D02*
Y90508D01*
X427691Y78106D02*
X428872D01*
X428281Y77516D02*
Y78697D01*
X433597Y66295D02*
X434778D01*
X434187Y65705D02*
Y66886D01*
X427691Y54484D02*
X428872D01*
X428281Y53894D02*
Y55075D01*
X433597Y42673D02*
X434778D01*
X434187Y42083D02*
Y43264D01*
X427691Y30862D02*
X428872D01*
X428281Y30272D02*
Y31453D01*
X427691Y7240D02*
X428872D01*
X428281Y6650D02*
Y7831D01*
X415880Y385193D02*
X417061D01*
X416470Y384602D02*
Y385783D01*
X421785Y373382D02*
X422967D01*
X422376Y372791D02*
Y373972D01*
X415880Y361571D02*
X417061D01*
X416470Y360980D02*
Y362161D01*
X421785Y349760D02*
X422967D01*
X422376Y349169D02*
Y350350D01*
X415880Y337949D02*
X417061D01*
X416470Y337358D02*
Y338539D01*
X421785Y278893D02*
X422967D01*
X422376Y278303D02*
Y279484D01*
X415880Y267083D02*
X417061D01*
X416470Y266492D02*
Y267673D01*
X421785Y255272D02*
X422967D01*
X422376Y254681D02*
Y255862D01*
X415880Y243460D02*
X417061D01*
X416470Y242870D02*
Y244051D01*
X415880Y219838D02*
X417061D01*
X416470Y219248D02*
Y220429D01*
X421785Y184405D02*
X422967D01*
X422376Y183815D02*
Y184996D01*
X415880Y172594D02*
X417061D01*
X416470Y172004D02*
Y173185D01*
X421785Y160783D02*
X422967D01*
X422376Y160193D02*
Y161374D01*
X421785Y137161D02*
X422967D01*
X422376Y136571D02*
Y137752D01*
X421785Y113539D02*
X422967D01*
X422376Y112949D02*
Y114130D01*
X415880Y101728D02*
X417061D01*
X416470Y101138D02*
Y102319D01*
X421785Y89917D02*
X422967D01*
X422376Y89327D02*
Y90508D01*
X415880Y78106D02*
X417061D01*
X416470Y77516D02*
Y78697D01*
X421785Y66295D02*
X422967D01*
X422376Y65705D02*
Y66886D01*
X415880Y54484D02*
X417061D01*
X416470Y53894D02*
Y55075D01*
X421785Y42673D02*
X422967D01*
X422376Y42083D02*
Y43264D01*
X415880Y30862D02*
X417061D01*
X416470Y30272D02*
Y31453D01*
X421785Y19051D02*
X422967D01*
X422376Y18461D02*
Y19642D01*
X415880Y7240D02*
X417061D01*
X416470Y6650D02*
Y7831D01*
X409974Y373382D02*
X411156D01*
X410565Y372791D02*
Y373972D01*
X409974Y255272D02*
X411156D01*
X410565Y254681D02*
Y255862D01*
X404069Y243460D02*
X405250D01*
X404660Y242870D02*
Y244051D01*
X404069Y219838D02*
X405250D01*
X404660Y219248D02*
Y220429D01*
X404069Y196216D02*
X405250D01*
X404660Y195626D02*
Y196807D01*
X409974Y184405D02*
X411156D01*
X410565Y183815D02*
Y184996D01*
X404069Y172594D02*
X405250D01*
X404660Y172004D02*
Y173185D01*
X409974Y160783D02*
X411156D01*
X410565Y160193D02*
Y161374D01*
X409974Y137161D02*
X411156D01*
X410565Y136571D02*
Y137752D01*
X409974Y113539D02*
X411156D01*
X410565Y112949D02*
Y114130D01*
X409974Y89917D02*
X411156D01*
X410565Y89327D02*
Y90508D01*
X409974Y66295D02*
X411156D01*
X410565Y65705D02*
Y66886D01*
X409974Y42673D02*
X411156D01*
X410565Y42083D02*
Y43264D01*
X404069Y30862D02*
X405250D01*
X404660Y30272D02*
Y31453D01*
X409974Y19051D02*
X411156D01*
X410565Y18461D02*
Y19642D01*
X404069Y7240D02*
X405250D01*
X404660Y6650D02*
Y7831D01*
X398163Y255272D02*
X399344D01*
X398754Y254681D02*
Y255862D01*
X392258Y243460D02*
X393439D01*
X392848Y242870D02*
Y244051D01*
X398163Y231649D02*
X399344D01*
X398754Y231059D02*
Y232240D01*
X392258Y219838D02*
X393439D01*
X392848Y219248D02*
Y220429D01*
X398163Y184405D02*
X399344D01*
X398754Y183815D02*
Y184996D01*
X392258Y172594D02*
X393439D01*
X392848Y172004D02*
Y173185D01*
X398163Y160783D02*
X399344D01*
X398754Y160193D02*
Y161374D01*
X392258Y148972D02*
X393439D01*
X392848Y148382D02*
Y149563D01*
X398163Y113539D02*
X399344D01*
X398754Y112949D02*
Y114130D01*
X392258Y54484D02*
X393439D01*
X392848Y53894D02*
Y55075D01*
X392258Y30862D02*
X393439D01*
X392848Y30272D02*
Y31453D01*
X398163Y19051D02*
X399344D01*
X398754Y18461D02*
Y19642D01*
X392258Y7240D02*
X393439D01*
X392848Y6650D02*
Y7831D01*
X386352Y255272D02*
X387533D01*
X386943Y254681D02*
Y255862D01*
X380447Y243460D02*
X381628D01*
X381037Y242870D02*
Y244051D01*
X386352Y231649D02*
X387533D01*
X386943Y231059D02*
Y232240D01*
X380447Y219838D02*
X381628D01*
X381037Y219248D02*
Y220429D01*
X386352Y208027D02*
X387533D01*
X386943Y207437D02*
Y208618D01*
X386352Y184405D02*
X387533D01*
X386943Y183815D02*
Y184996D01*
X380447Y172594D02*
X381628D01*
X381037Y172004D02*
Y173185D01*
X386352Y160783D02*
X387533D01*
X386943Y160193D02*
Y161374D01*
X380447Y148972D02*
X381628D01*
X381037Y148382D02*
Y149563D01*
X386352Y137161D02*
X387533D01*
X386943Y136571D02*
Y137752D01*
X380447Y125350D02*
X381628D01*
X381037Y124760D02*
Y125941D01*
X386352Y113539D02*
X387533D01*
X386943Y112949D02*
Y114130D01*
X380447Y101728D02*
X381628D01*
X381037Y101138D02*
Y102319D01*
X380447Y30862D02*
X381628D01*
X381037Y30272D02*
Y31453D01*
X386352Y19051D02*
X387533D01*
X386943Y18461D02*
Y19642D01*
X380447Y7240D02*
X381628D01*
X381037Y6650D02*
Y7831D01*
X374541Y255272D02*
X375723D01*
X375132Y254681D02*
Y255862D01*
X368636Y243460D02*
X369817D01*
X369226Y242870D02*
Y244051D01*
X374541Y231649D02*
X375723D01*
X375132Y231059D02*
Y232240D01*
X368636Y219838D02*
X369817D01*
X369226Y219248D02*
Y220429D01*
X374541Y208027D02*
X375723D01*
X375132Y207437D02*
Y208618D01*
X374541Y184405D02*
X375723D01*
X375132Y183815D02*
Y184996D01*
X368636Y172594D02*
X369817D01*
X369226Y172004D02*
Y173185D01*
X374541Y160783D02*
X375723D01*
X375132Y160193D02*
Y161374D01*
X368636Y148972D02*
X369817D01*
X369226Y148382D02*
Y149563D01*
X374541Y137161D02*
X375723D01*
X375132Y136571D02*
Y137752D01*
X368636Y125350D02*
X369817D01*
X369226Y124760D02*
Y125941D01*
X374541Y113539D02*
X375723D01*
X375132Y112949D02*
Y114130D01*
X368636Y101728D02*
X369817D01*
X369226Y101138D02*
Y102319D01*
X368636Y78106D02*
X369817D01*
X369226Y77516D02*
Y78697D01*
X368636Y54484D02*
X369817D01*
X369226Y53894D02*
Y55075D01*
X374541Y42673D02*
X375723D01*
X375132Y42083D02*
Y43264D01*
X368636Y30862D02*
X369817D01*
X369226Y30272D02*
Y31453D01*
X374541Y19051D02*
X375723D01*
X375132Y18461D02*
Y19642D01*
X368636Y7240D02*
X369817D01*
X369226Y6650D02*
Y7831D01*
X362730Y255272D02*
X363912D01*
X363321Y254681D02*
Y255862D01*
X356825Y243460D02*
X358006D01*
X357415Y242870D02*
Y244051D01*
X362730Y231649D02*
X363912D01*
X363321Y231059D02*
Y232240D01*
X356825Y219838D02*
X358006D01*
X357415Y219248D02*
Y220429D01*
X362730Y208027D02*
X363912D01*
X363321Y207437D02*
Y208618D01*
X356825Y196216D02*
X358006D01*
X357415Y195626D02*
Y196807D01*
X356825Y172594D02*
X358006D01*
X357415Y172004D02*
Y173185D01*
X362730Y160783D02*
X363912D01*
X363321Y160193D02*
Y161374D01*
X356825Y148972D02*
X358006D01*
X357415Y148382D02*
Y149563D01*
X362730Y137161D02*
X363912D01*
X363321Y136571D02*
Y137752D01*
X356825Y125350D02*
X358006D01*
X357415Y124760D02*
Y125941D01*
X356825Y101728D02*
X358006D01*
X357415Y101138D02*
Y102319D01*
X356825Y78106D02*
X358006D01*
X357415Y77516D02*
Y78697D01*
X362730Y66295D02*
X363912D01*
X363321Y65705D02*
Y66886D01*
X356825Y54484D02*
X358006D01*
X357415Y53894D02*
Y55075D01*
X362730Y42673D02*
X363912D01*
X363321Y42083D02*
Y43264D01*
X356825Y30862D02*
X358006D01*
X357415Y30272D02*
Y31453D01*
X362730Y19051D02*
X363912D01*
X363321Y18461D02*
Y19642D01*
X356825Y7240D02*
X358006D01*
X357415Y6650D02*
Y7831D01*
X350919Y255272D02*
X352100D01*
X351510Y254681D02*
Y255862D01*
X345014Y243460D02*
X346195D01*
X345604Y242870D02*
Y244051D01*
X350919Y231649D02*
X352100D01*
X351510Y231059D02*
Y232240D01*
X345014Y219838D02*
X346195D01*
X345604Y219248D02*
Y220429D01*
X350919Y208027D02*
X352100D01*
X351510Y207437D02*
Y208618D01*
X345014Y196216D02*
X346195D01*
X345604Y195626D02*
Y196807D01*
X350919Y184405D02*
X352100D01*
X351510Y183815D02*
Y184996D01*
X350919Y160783D02*
X352100D01*
X351510Y160193D02*
Y161374D01*
X345014Y148972D02*
X346195D01*
X345604Y148382D02*
Y149563D01*
X350919Y137161D02*
X352100D01*
X351510Y136571D02*
Y137752D01*
X345014Y125350D02*
X346195D01*
X345604Y124760D02*
Y125941D01*
X345014Y78106D02*
X346195D01*
X345604Y77516D02*
Y78697D01*
X350919Y66295D02*
X352100D01*
X351510Y65705D02*
Y66886D01*
X345014Y30862D02*
X346195D01*
X345604Y30272D02*
Y31453D01*
X350919Y19051D02*
X352100D01*
X351510Y18461D02*
Y19642D01*
X345014Y7240D02*
X346195D01*
X345604Y6650D02*
Y7831D01*
X339108Y255272D02*
X340289D01*
X339699Y254681D02*
Y255862D01*
X333203Y243460D02*
X334384D01*
X333793Y242870D02*
Y244051D01*
X339108Y231649D02*
X340289D01*
X339699Y231059D02*
Y232240D01*
X333203Y219838D02*
X334384D01*
X333793Y219248D02*
Y220429D01*
X339108Y208027D02*
X340289D01*
X339699Y207437D02*
Y208618D01*
X333203Y196216D02*
X334384D01*
X333793Y195626D02*
Y196807D01*
X339108Y184405D02*
X340289D01*
X339699Y183815D02*
Y184996D01*
X333203Y172594D02*
X334384D01*
X333793Y172004D02*
Y173185D01*
X333203Y148972D02*
X334384D01*
X333793Y148382D02*
Y149563D01*
X339108Y137161D02*
X340289D01*
X339699Y136571D02*
Y137752D01*
X333203Y125350D02*
X334384D01*
X333793Y124760D02*
Y125941D01*
X339108Y113539D02*
X340289D01*
X339699Y112949D02*
Y114130D01*
X339108Y89917D02*
X340289D01*
X339699Y89327D02*
Y90508D01*
X333203Y78106D02*
X334384D01*
X333793Y77516D02*
Y78697D01*
X333203Y54484D02*
X334384D01*
X333793Y53894D02*
Y55075D01*
X339108Y42673D02*
X340289D01*
X339699Y42083D02*
Y43264D01*
X333203Y30862D02*
X334384D01*
X333793Y30272D02*
Y31453D01*
X339108Y19051D02*
X340289D01*
X339699Y18461D02*
Y19642D01*
X333203Y7240D02*
X334384D01*
X333793Y6650D02*
Y7831D01*
X327297Y255272D02*
X328478D01*
X327888Y254681D02*
Y255862D01*
X321392Y243460D02*
X322573D01*
X321982Y242870D02*
Y244051D01*
X321392Y219838D02*
X322573D01*
X321982Y219248D02*
Y220429D01*
X321392Y196216D02*
X322573D01*
X321982Y195626D02*
Y196807D01*
X327297Y184405D02*
X328478D01*
X327888Y183815D02*
Y184996D01*
X321392Y172594D02*
X322573D01*
X321982Y172004D02*
Y173185D01*
X327297Y160783D02*
X328478D01*
X327888Y160193D02*
Y161374D01*
X321392Y125350D02*
X322573D01*
X321982Y124760D02*
Y125941D01*
X321392Y78106D02*
X322573D01*
X321982Y77516D02*
Y78697D01*
X327297Y66295D02*
X328478D01*
X327888Y65705D02*
Y66886D01*
X321392Y30862D02*
X322573D01*
X321982Y30272D02*
Y31453D01*
X327297Y19051D02*
X328478D01*
X327888Y18461D02*
Y19642D01*
X321392Y7240D02*
X322573D01*
X321982Y6650D02*
Y7831D01*
X315486Y255272D02*
X316667D01*
X316077Y254681D02*
Y255862D01*
X309581Y243460D02*
X310762D01*
X310171Y242870D02*
Y244051D01*
X309581Y219838D02*
X310762D01*
X310171Y219248D02*
Y220429D01*
X309581Y196216D02*
X310762D01*
X310171Y195626D02*
Y196807D01*
X315486Y184405D02*
X316667D01*
X316077Y183815D02*
Y184996D01*
X315486Y160783D02*
X316667D01*
X316077Y160193D02*
Y161374D01*
X309581Y148972D02*
X310762D01*
X310171Y148382D02*
Y149563D01*
X309581Y125350D02*
X310762D01*
X310171Y124760D02*
Y125941D01*
X315486Y89917D02*
X316667D01*
X316077Y89327D02*
Y90508D01*
X315486Y66295D02*
X316667D01*
X316077Y65705D02*
Y66886D01*
X309581Y54484D02*
X310762D01*
X310171Y53894D02*
Y55075D01*
X315486Y42673D02*
X316667D01*
X316077Y42083D02*
Y43264D01*
X309581Y30862D02*
X310762D01*
X310171Y30272D02*
Y31453D01*
X315486Y19051D02*
X316667D01*
X316077Y18461D02*
Y19642D01*
X309581Y7240D02*
X310762D01*
X310171Y6650D02*
Y7831D01*
X303675Y255272D02*
X304856D01*
X304266Y254681D02*
Y255862D01*
X297770Y243460D02*
X298951D01*
X298360Y242870D02*
Y244051D01*
X303675Y231649D02*
X304856D01*
X304266Y231059D02*
Y232240D01*
X297770Y219838D02*
X298951D01*
X298360Y219248D02*
Y220429D01*
X303675Y208027D02*
X304856D01*
X304266Y207437D02*
Y208618D01*
X297770Y196216D02*
X298951D01*
X298360Y195626D02*
Y196807D01*
X303675Y184405D02*
X304856D01*
X304266Y183815D02*
Y184996D01*
X297770Y172594D02*
X298951D01*
X298360Y172004D02*
Y173185D01*
X303675Y160783D02*
X304856D01*
X304266Y160193D02*
Y161374D01*
X297770Y148972D02*
X298951D01*
X298360Y148382D02*
Y149563D01*
X303675Y137161D02*
X304856D01*
X304266Y136571D02*
Y137752D01*
X303675Y113539D02*
X304856D01*
X304266Y112949D02*
Y114130D01*
X303675Y89917D02*
X304856D01*
X304266Y89327D02*
Y90508D01*
X303675Y66295D02*
X304856D01*
X304266Y65705D02*
Y66886D01*
X297770Y54484D02*
X298951D01*
X298360Y53894D02*
Y55075D01*
X297770Y30862D02*
X298951D01*
X298360Y30272D02*
Y31453D01*
X303675Y19051D02*
X304856D01*
X304266Y18461D02*
Y19642D01*
X297770Y7240D02*
X298951D01*
X298360Y6650D02*
Y7831D01*
X291864Y255272D02*
X293045D01*
X292455Y254681D02*
Y255862D01*
X285959Y243460D02*
X287140D01*
X286549Y242870D02*
Y244051D01*
X291864Y231649D02*
X293045D01*
X292455Y231059D02*
Y232240D01*
X285959Y219838D02*
X287140D01*
X286549Y219248D02*
Y220429D01*
X291864Y208027D02*
X293045D01*
X292455Y207437D02*
Y208618D01*
X291864Y184405D02*
X293045D01*
X292455Y183815D02*
Y184996D01*
X285959Y172594D02*
X287140D01*
X286549Y172004D02*
Y173185D01*
X291864Y160783D02*
X293045D01*
X292455Y160193D02*
Y161374D01*
X291864Y137161D02*
X293045D01*
X292455Y136571D02*
Y137752D01*
X285959Y125350D02*
X287140D01*
X286549Y124760D02*
Y125941D01*
X291864Y66295D02*
X293045D01*
X292455Y65705D02*
Y66886D01*
X291864Y42673D02*
X293045D01*
X292455Y42083D02*
Y43264D01*
X285959Y30862D02*
X287140D01*
X286549Y30272D02*
Y31453D01*
X291864Y19051D02*
X293045D01*
X292455Y18461D02*
Y19642D01*
X285959Y7240D02*
X287140D01*
X286549Y6650D02*
Y7831D01*
X280053Y255272D02*
X281234D01*
X280644Y254681D02*
Y255862D01*
X274148Y243460D02*
X275329D01*
X274738Y242870D02*
Y244051D01*
X280053Y231649D02*
X281234D01*
X280644Y231059D02*
Y232240D01*
X274148Y219838D02*
X275329D01*
X274738Y219248D02*
Y220429D01*
X274148Y196216D02*
X275329D01*
X274738Y195626D02*
Y196807D01*
X280053Y184405D02*
X281234D01*
X280644Y183815D02*
Y184996D01*
X274148Y172594D02*
X275329D01*
X274738Y172004D02*
Y173185D01*
X280053Y160783D02*
X281234D01*
X280644Y160193D02*
Y161374D01*
X280053Y137161D02*
X281234D01*
X280644Y136571D02*
Y137752D01*
X274148Y125350D02*
X275329D01*
X274738Y124760D02*
Y125941D01*
X280053Y113539D02*
X281234D01*
X280644Y112949D02*
Y114130D01*
X280053Y89917D02*
X281234D01*
X280644Y89327D02*
Y90508D01*
X280053Y66295D02*
X281234D01*
X280644Y65705D02*
Y66886D01*
X280053Y19051D02*
X281234D01*
X280644Y18461D02*
Y19642D01*
X274148Y7240D02*
X275329D01*
X274738Y6650D02*
Y7831D01*
X268242Y255272D02*
X269423D01*
X268833Y254681D02*
Y255862D01*
X262337Y243460D02*
X263518D01*
X262927Y242870D02*
Y244051D01*
X262337Y196216D02*
X263518D01*
X262927Y195626D02*
Y196807D01*
X268242Y184405D02*
X269423D01*
X268833Y183815D02*
Y184996D01*
X262337Y172594D02*
X263518D01*
X262927Y172004D02*
Y173185D01*
X268242Y137161D02*
X269423D01*
X268833Y136571D02*
Y137752D01*
X262337Y125350D02*
X263518D01*
X262927Y124760D02*
Y125941D01*
X268242Y113539D02*
X269423D01*
X268833Y112949D02*
Y114130D01*
X268242Y89917D02*
X269423D01*
X268833Y89327D02*
Y90508D01*
X262337Y78106D02*
X263518D01*
X262927Y77516D02*
Y78697D01*
X268242Y66295D02*
X269423D01*
X268833Y65705D02*
Y66886D01*
X268242Y19051D02*
X269423D01*
X268833Y18461D02*
Y19642D01*
X262337Y7240D02*
X263518D01*
X262927Y6650D02*
Y7831D01*
X256431Y255272D02*
X257612D01*
X257022Y254681D02*
Y255862D01*
X250526Y243460D02*
X251707D01*
X251116Y242870D02*
Y244051D01*
X250526Y219838D02*
X251707D01*
X251116Y219248D02*
Y220429D01*
X256431Y208027D02*
X257612D01*
X257022Y207437D02*
Y208618D01*
X250526Y196216D02*
X251707D01*
X251116Y195626D02*
Y196807D01*
X256431Y184405D02*
X257612D01*
X257022Y183815D02*
Y184996D01*
X250526Y172594D02*
X251707D01*
X251116Y172004D02*
Y173185D01*
X256431Y160783D02*
X257612D01*
X257022Y160193D02*
Y161374D01*
X256431Y137161D02*
X257612D01*
X257022Y136571D02*
Y137752D01*
X250526Y125350D02*
X251707D01*
X251116Y124760D02*
Y125941D01*
X256431Y113539D02*
X257612D01*
X257022Y112949D02*
Y114130D01*
X256431Y89917D02*
X257612D01*
X257022Y89327D02*
Y90508D01*
X250526Y78106D02*
X251707D01*
X251116Y77516D02*
Y78697D01*
X256431Y66295D02*
X257612D01*
X257022Y65705D02*
Y66886D01*
X256431Y19051D02*
X257612D01*
X257022Y18461D02*
Y19642D01*
X250526Y7240D02*
X251707D01*
X251116Y6650D02*
Y7831D01*
X238715Y219838D02*
X239896D01*
X239305Y219248D02*
Y220429D01*
X244620Y208027D02*
X245801D01*
X245211Y207437D02*
Y208618D01*
X238715Y196216D02*
X239896D01*
X239305Y195626D02*
Y196807D01*
X244620Y184405D02*
X245801D01*
X245211Y183815D02*
Y184996D01*
X238715Y172594D02*
X239896D01*
X239305Y172004D02*
Y173185D01*
X244620Y160783D02*
X245801D01*
X245211Y160193D02*
Y161374D01*
X238715Y7240D02*
X239896D01*
X239305Y6650D02*
Y7831D01*
X226904Y219838D02*
X228085D01*
X227494Y219248D02*
Y220429D01*
X232809Y208027D02*
X233990D01*
X233400Y207437D02*
Y208618D01*
X226904Y196216D02*
X228085D01*
X227494Y195626D02*
Y196807D01*
X232809Y184405D02*
X233990D01*
X233400Y183815D02*
Y184996D01*
X226904Y172594D02*
X228085D01*
X227494Y172004D02*
Y173185D01*
X232809Y160783D02*
X233990D01*
X233400Y160193D02*
Y161374D01*
X226904Y148972D02*
X228085D01*
X227494Y148382D02*
Y149563D01*
X232809Y137161D02*
X233990D01*
X233400Y136571D02*
Y137752D01*
X226904Y101728D02*
X228085D01*
X227494Y101138D02*
Y102319D01*
X232809Y89917D02*
X233990D01*
X233400Y89327D02*
Y90508D01*
X226904Y78106D02*
X228085D01*
X227494Y77516D02*
Y78697D01*
X232809Y66295D02*
X233990D01*
X233400Y65705D02*
Y66886D01*
X226904Y54484D02*
X228085D01*
X227494Y53894D02*
Y55075D01*
X232809Y42673D02*
X233990D01*
X233400Y42083D02*
Y43264D01*
X226904Y30862D02*
X228085D01*
X227494Y30272D02*
Y31453D01*
X232809Y19051D02*
X233990D01*
X233400Y18461D02*
Y19642D01*
X226904Y7240D02*
X228085D01*
X227494Y6650D02*
Y7831D01*
X215093Y243460D02*
X216274D01*
X215683Y242870D02*
Y244051D01*
X220998Y208027D02*
X222179D01*
X221589Y207437D02*
Y208618D01*
X215093Y196216D02*
X216274D01*
X215683Y195626D02*
Y196807D01*
X220998Y184405D02*
X222179D01*
X221589Y183815D02*
Y184996D01*
X215093Y172594D02*
X216274D01*
X215683Y172004D02*
Y173185D01*
X220998Y160783D02*
X222179D01*
X221589Y160193D02*
Y161374D01*
X220998Y137161D02*
X222179D01*
X221589Y136571D02*
Y137752D01*
X215093Y101728D02*
X216274D01*
X215683Y101138D02*
Y102319D01*
X220998Y89917D02*
X222179D01*
X221589Y89327D02*
Y90508D01*
X215093Y78106D02*
X216274D01*
X215683Y77516D02*
Y78697D01*
X220998Y66295D02*
X222179D01*
X221589Y65705D02*
Y66886D01*
X215093Y54484D02*
X216274D01*
X215683Y53894D02*
Y55075D01*
X220998Y42673D02*
X222179D01*
X221589Y42083D02*
Y43264D01*
X215093Y30862D02*
X216274D01*
X215683Y30272D02*
Y31453D01*
X220998Y19051D02*
X222179D01*
X221589Y18461D02*
Y19642D01*
X215093Y7240D02*
X216274D01*
X215683Y6650D02*
Y7831D01*
X209187Y208027D02*
X210368D01*
X209778Y207437D02*
Y208618D01*
X209187Y184405D02*
X210368D01*
X209778Y183815D02*
Y184996D01*
X209187Y160783D02*
X210368D01*
X209778Y160193D02*
Y161374D01*
X209187Y137161D02*
X210368D01*
X209778Y136571D02*
Y137752D01*
X203282Y125350D02*
X204463D01*
X203872Y124760D02*
Y125941D01*
X209187Y113539D02*
X210368D01*
X209778Y112949D02*
Y114130D01*
X203282Y101728D02*
X204463D01*
X203872Y101138D02*
Y102319D01*
X209187Y89917D02*
X210368D01*
X209778Y89327D02*
Y90508D01*
X203282Y78106D02*
X204463D01*
X203872Y77516D02*
Y78697D01*
X209187Y66295D02*
X210368D01*
X209778Y65705D02*
Y66886D01*
X203282Y54484D02*
X204463D01*
X203872Y53894D02*
Y55075D01*
X209187Y42673D02*
X210368D01*
X209778Y42083D02*
Y43264D01*
X203282Y30862D02*
X204463D01*
X203872Y30272D02*
Y31453D01*
X209187Y19051D02*
X210368D01*
X209778Y18461D02*
Y19642D01*
X203282Y7240D02*
X204463D01*
X203872Y6650D02*
Y7831D01*
X197376Y208027D02*
X198557D01*
X197967Y207437D02*
Y208618D01*
X197376Y184405D02*
X198557D01*
X197967Y183815D02*
Y184996D01*
X197376Y160783D02*
X198557D01*
X197967Y160193D02*
Y161374D01*
X191471Y125350D02*
X192652D01*
X192061Y124760D02*
Y125941D01*
X197376Y113539D02*
X198557D01*
X197967Y112949D02*
Y114130D01*
X191471Y101728D02*
X192652D01*
X192061Y101138D02*
Y102319D01*
X197376Y89917D02*
X198557D01*
X197967Y89327D02*
Y90508D01*
X191471Y78106D02*
X192652D01*
X192061Y77516D02*
Y78697D01*
X197376Y66295D02*
X198557D01*
X197967Y65705D02*
Y66886D01*
X191471Y54484D02*
X192652D01*
X192061Y53894D02*
Y55075D01*
X197376Y42673D02*
X198557D01*
X197967Y42083D02*
Y43264D01*
X191471Y30862D02*
X192652D01*
X192061Y30272D02*
Y31453D01*
X197376Y19051D02*
X198557D01*
X197967Y18461D02*
Y19642D01*
X191471Y7240D02*
X192652D01*
X192061Y6650D02*
Y7831D01*
X185565Y208027D02*
X186746D01*
X186156Y207437D02*
Y208618D01*
X185565Y184405D02*
X186746D01*
X186156Y183815D02*
Y184996D01*
X185565Y160783D02*
X186746D01*
X186156Y160193D02*
Y161374D01*
X179660Y148972D02*
X180841D01*
X180250Y148382D02*
Y149563D01*
X185565Y137161D02*
X186746D01*
X186156Y136571D02*
Y137752D01*
X179660Y125350D02*
X180841D01*
X180250Y124760D02*
Y125941D01*
X185565Y113539D02*
X186746D01*
X186156Y112949D02*
Y114130D01*
X179660Y101728D02*
X180841D01*
X180250Y101138D02*
Y102319D01*
X185565Y89917D02*
X186746D01*
X186156Y89327D02*
Y90508D01*
X179660Y78106D02*
X180841D01*
X180250Y77516D02*
Y78697D01*
X185565Y66295D02*
X186746D01*
X186156Y65705D02*
Y66886D01*
X179660Y54484D02*
X180841D01*
X180250Y53894D02*
Y55075D01*
X185565Y42673D02*
X186746D01*
X186156Y42083D02*
Y43264D01*
X179660Y30862D02*
X180841D01*
X180250Y30272D02*
Y31453D01*
X185565Y19051D02*
X186746D01*
X186156Y18461D02*
Y19642D01*
X179660Y7240D02*
X180841D01*
X180250Y6650D02*
Y7831D01*
X167849Y243460D02*
X169030D01*
X168439Y242870D02*
Y244051D01*
X167849Y196216D02*
X169030D01*
X168439Y195626D02*
Y196807D01*
X167849Y172594D02*
X169030D01*
X168439Y172004D02*
Y173185D01*
X173754Y137161D02*
X174935D01*
X174345Y136571D02*
Y137752D01*
X167849Y125350D02*
X169030D01*
X168439Y124760D02*
Y125941D01*
X173754Y113539D02*
X174935D01*
X174345Y112949D02*
Y114130D01*
X167849Y101728D02*
X169030D01*
X168439Y101138D02*
Y102319D01*
X173754Y89917D02*
X174935D01*
X174345Y89327D02*
Y90508D01*
X167849Y78106D02*
X169030D01*
X168439Y77516D02*
Y78697D01*
X173754Y66295D02*
X174935D01*
X174345Y65705D02*
Y66886D01*
X167849Y54484D02*
X169030D01*
X168439Y53894D02*
Y55075D01*
X173754Y42673D02*
X174935D01*
X174345Y42083D02*
Y43264D01*
X167849Y30862D02*
X169030D01*
X168439Y30272D02*
Y31453D01*
X173754Y19051D02*
X174935D01*
X174345Y18461D02*
Y19642D01*
X167849Y7240D02*
X169030D01*
X168439Y6650D02*
Y7831D01*
X156037Y219838D02*
X157219D01*
X156628Y219248D02*
Y220429D01*
X156037Y196216D02*
X157219D01*
X156628Y195626D02*
Y196807D01*
X156037Y172594D02*
X157219D01*
X156628Y172004D02*
Y173185D01*
X161943Y160783D02*
X163124D01*
X162534Y160193D02*
Y161374D01*
X156037Y148972D02*
X157219D01*
X156628Y148382D02*
Y149563D01*
X161943Y137161D02*
X163124D01*
X162534Y136571D02*
Y137752D01*
X156037Y125350D02*
X157219D01*
X156628Y124760D02*
Y125941D01*
X161943Y113539D02*
X163124D01*
X162534Y112949D02*
Y114130D01*
X156037Y101728D02*
X157219D01*
X156628Y101138D02*
Y102319D01*
X161943Y89917D02*
X163124D01*
X162534Y89327D02*
Y90508D01*
X156037Y78106D02*
X157219D01*
X156628Y77516D02*
Y78697D01*
X161943Y66295D02*
X163124D01*
X162534Y65705D02*
Y66886D01*
X156037Y54484D02*
X157219D01*
X156628Y53894D02*
Y55075D01*
X161943Y42673D02*
X163124D01*
X162534Y42083D02*
Y43264D01*
X156037Y30862D02*
X157219D01*
X156628Y30272D02*
Y31453D01*
X161943Y19051D02*
X163124D01*
X162534Y18461D02*
Y19642D01*
X156037Y7240D02*
X157219D01*
X156628Y6650D02*
Y7831D01*
X150132Y184405D02*
X151313D01*
X150723Y183815D02*
Y184996D01*
X144227Y172594D02*
X145408D01*
X144817Y172004D02*
Y173185D01*
X150132Y113539D02*
X151313D01*
X150723Y112949D02*
Y114130D01*
X150132Y89917D02*
X151313D01*
X150723Y89327D02*
Y90508D01*
X150132Y66295D02*
X151313D01*
X150723Y65705D02*
Y66886D01*
X150132Y42673D02*
X151313D01*
X150723Y42083D02*
Y43264D01*
X150132Y19051D02*
X151313D01*
X150723Y18461D02*
Y19642D01*
X144227Y7240D02*
X145408D01*
X144817Y6650D02*
Y7831D01*
X138321Y255272D02*
X139502D01*
X138911Y254681D02*
Y255862D01*
X132415Y243460D02*
X133597D01*
X133006Y242870D02*
Y244051D01*
X138321Y208027D02*
X139502D01*
X138911Y207437D02*
Y208618D01*
X132415Y78106D02*
X133597D01*
X133006Y77516D02*
Y78697D01*
X132415Y30862D02*
X133597D01*
X133006Y30272D02*
Y31453D01*
X132415Y7240D02*
X133597D01*
X133006Y6650D02*
Y7831D01*
X126510Y255272D02*
X127691D01*
X127101Y254681D02*
Y255862D01*
X120605Y243460D02*
X121786D01*
X121195Y242870D02*
Y244051D01*
X126510Y231649D02*
X127691D01*
X127101Y231059D02*
Y232240D01*
X126510Y184405D02*
X127691D01*
X127101Y183815D02*
Y184996D01*
X126510Y137161D02*
X127691D01*
X127101Y136571D02*
Y137752D01*
X120605Y125350D02*
X121786D01*
X121195Y124760D02*
Y125941D01*
X120605Y101728D02*
X121786D01*
X121195Y101138D02*
Y102319D01*
X126510Y66295D02*
X127691D01*
X127101Y65705D02*
Y66886D01*
X126510Y42673D02*
X127691D01*
X127101Y42083D02*
Y43264D01*
X120605Y30862D02*
X121786D01*
X121195Y30272D02*
Y31453D01*
X126510Y19051D02*
X127691D01*
X127101Y18461D02*
Y19642D01*
X120605Y7240D02*
X121786D01*
X121195Y6650D02*
Y7831D01*
X114699Y255272D02*
X115880D01*
X115289Y254681D02*
Y255862D01*
X114699Y231649D02*
X115880D01*
X115289Y231059D02*
Y232240D01*
X108793Y219838D02*
X109975D01*
X109384Y219248D02*
Y220429D01*
X108793Y172594D02*
X109975D01*
X109384Y172004D02*
Y173185D01*
X114699Y137161D02*
X115880D01*
X115289Y136571D02*
Y137752D01*
X108793Y125350D02*
X109975D01*
X109384Y124760D02*
Y125941D01*
X114699Y89917D02*
X115880D01*
X115289Y89327D02*
Y90508D01*
X108793Y30862D02*
X109975D01*
X109384Y30272D02*
Y31453D01*
X114699Y19051D02*
X115880D01*
X115289Y18461D02*
Y19642D01*
X108793Y7240D02*
X109975D01*
X109384Y6650D02*
Y7831D01*
X102888Y255272D02*
X104069D01*
X103479Y254681D02*
Y255862D01*
X96982Y30862D02*
X98163D01*
X97573Y30272D02*
Y31453D01*
X102888Y19051D02*
X104069D01*
X103479Y18461D02*
Y19642D01*
X96982Y7240D02*
X98163D01*
X97573Y6650D02*
Y7831D01*
X85171Y101728D02*
X86352D01*
X85762Y101138D02*
Y102319D01*
X85171Y54484D02*
X86352D01*
X85762Y53894D02*
Y55075D01*
X85171Y30862D02*
X86352D01*
X85762Y30272D02*
Y31453D01*
X91077Y19051D02*
X92258D01*
X91667Y18461D02*
Y19642D01*
X85171Y7240D02*
X86352D01*
X85762Y6650D02*
Y7831D01*
X79266Y349760D02*
X80447D01*
X79856Y349169D02*
Y350350D01*
X73360Y337949D02*
X74541D01*
X73951Y337358D02*
Y338539D01*
X79266Y89917D02*
X80447D01*
X79856Y89327D02*
Y90508D01*
X73360Y78106D02*
X74541D01*
X73951Y77516D02*
Y78697D01*
X73360Y54484D02*
X74541D01*
X73951Y53894D02*
Y55075D01*
X73360Y30862D02*
X74541D01*
X73951Y30272D02*
Y31453D01*
X79266Y19051D02*
X80447D01*
X79856Y18461D02*
Y19642D01*
X73360Y7240D02*
X74541D01*
X73951Y6650D02*
Y7831D01*
X67455Y349760D02*
X68636D01*
X68045Y349169D02*
Y350350D01*
X61549Y337949D02*
X62730D01*
X62140Y337358D02*
Y338539D01*
X67455Y66295D02*
X68636D01*
X68045Y65705D02*
Y66886D01*
X61549Y54484D02*
X62730D01*
X62140Y53894D02*
Y55075D01*
X61549Y30862D02*
X62730D01*
X62140Y30272D02*
Y31453D01*
X67455Y19051D02*
X68636D01*
X68045Y18461D02*
Y19642D01*
X61549Y7240D02*
X62730D01*
X62140Y6650D02*
Y7831D01*
X55644Y349760D02*
X56825D01*
X56234Y349169D02*
Y350350D01*
X49738Y337949D02*
X50919D01*
X50329Y337358D02*
Y338539D01*
X49738Y243460D02*
X50919D01*
X50329Y242870D02*
Y244051D01*
X49738Y219838D02*
X50919D01*
X50329Y219248D02*
Y220429D01*
X49738Y196216D02*
X50919D01*
X50329Y195626D02*
Y196807D01*
X55644Y184405D02*
X56825D01*
X56234Y183815D02*
Y184996D01*
X49738Y148972D02*
X50919D01*
X50329Y148382D02*
Y149563D01*
X55644Y66295D02*
X56825D01*
X56234Y65705D02*
Y66886D01*
X49738Y54484D02*
X50919D01*
X50329Y53894D02*
Y55075D01*
X55644Y42673D02*
X56825D01*
X56234Y42083D02*
Y43264D01*
X49738Y30862D02*
X50919D01*
X50329Y30272D02*
Y31453D01*
X55644Y19051D02*
X56825D01*
X56234Y18461D02*
Y19642D01*
X49738Y7240D02*
X50919D01*
X50329Y6650D02*
Y7831D01*
X37927Y385193D02*
X39108D01*
X38518Y384602D02*
Y385783D01*
X37927Y361571D02*
X39108D01*
X38518Y360980D02*
Y362161D01*
X43833Y349760D02*
X45014D01*
X44423Y349169D02*
Y350350D01*
X37927Y267083D02*
X39108D01*
X38518Y266492D02*
Y267673D01*
X37927Y219838D02*
X39108D01*
X38518Y219248D02*
Y220429D01*
X43833Y184405D02*
X45014D01*
X44423Y183815D02*
Y184996D01*
X43833Y160783D02*
X45014D01*
X44423Y160193D02*
Y161374D01*
X37927Y148972D02*
X39108D01*
X38518Y148382D02*
Y149563D01*
X43833Y66295D02*
X45014D01*
X44423Y65705D02*
Y66886D01*
X43833Y42673D02*
X45014D01*
X44423Y42083D02*
Y43264D01*
X37927Y30862D02*
X39108D01*
X38518Y30272D02*
Y31453D01*
X43833Y19051D02*
X45014D01*
X44423Y18461D02*
Y19642D01*
X37927Y7240D02*
X39108D01*
X38518Y6650D02*
Y7831D01*
X32022Y373382D02*
X33203D01*
X32612Y372791D02*
Y373972D01*
X26116Y361571D02*
X27297D01*
X26707Y360980D02*
Y362161D01*
X32022Y349760D02*
X33203D01*
X32612Y349169D02*
Y350350D01*
X26116Y337949D02*
X27297D01*
X26707Y337358D02*
Y338539D01*
X26116Y267083D02*
X27297D01*
X26707Y266492D02*
Y267673D01*
X32022Y255272D02*
X33203D01*
X32612Y254681D02*
Y255862D01*
X26116Y243460D02*
X27297D01*
X26707Y242870D02*
Y244051D01*
X26116Y219838D02*
X27297D01*
X26707Y219248D02*
Y220429D01*
X32022Y208027D02*
X33203D01*
X32612Y207437D02*
Y208618D01*
X26116Y196216D02*
X27297D01*
X26707Y195626D02*
Y196807D01*
X32022Y184405D02*
X33203D01*
X32612Y183815D02*
Y184996D01*
X26116Y172594D02*
X27297D01*
X26707Y172004D02*
Y173185D01*
X32022Y160783D02*
X33203D01*
X32612Y160193D02*
Y161374D01*
X26116Y148972D02*
X27297D01*
X26707Y148382D02*
Y149563D01*
X32022Y66295D02*
X33203D01*
X32612Y65705D02*
Y66886D01*
X26116Y54484D02*
X27297D01*
X26707Y53894D02*
Y55075D01*
X26116Y30862D02*
X27297D01*
X26707Y30272D02*
Y31453D01*
X32022Y19051D02*
X33203D01*
X32612Y18461D02*
Y19642D01*
X14305Y361571D02*
X15486D01*
X14896Y360980D02*
Y362161D01*
X20211Y349760D02*
X21392D01*
X20801Y349169D02*
Y350350D01*
X14305Y337949D02*
X15486D01*
X14896Y337358D02*
Y338539D01*
X14305Y267083D02*
X15486D01*
X14896Y266492D02*
Y267673D01*
X20211Y255272D02*
X21392D01*
X20801Y254681D02*
Y255862D01*
X14305Y243460D02*
X15486D01*
X14896Y242870D02*
Y244051D01*
X20211Y231649D02*
X21392D01*
X20801Y231059D02*
Y232240D01*
X14305Y219838D02*
X15486D01*
X14896Y219248D02*
Y220429D01*
X20211Y208027D02*
X21392D01*
X20801Y207437D02*
Y208618D01*
X14305Y196216D02*
X15486D01*
X14896Y195626D02*
Y196807D01*
X20211Y184405D02*
X21392D01*
X20801Y183815D02*
Y184996D01*
X14305Y172594D02*
X15486D01*
X14896Y172004D02*
Y173185D01*
X20211Y160783D02*
X21392D01*
X20801Y160193D02*
Y161374D01*
X14305Y148972D02*
X15486D01*
X14896Y148382D02*
Y149563D01*
X20211Y137161D02*
X21392D01*
X20801Y136571D02*
Y137752D01*
X14305Y125350D02*
X15486D01*
X14896Y124760D02*
Y125941D01*
X20211Y113539D02*
X21392D01*
X20801Y112949D02*
Y114130D01*
X14305Y101728D02*
X15486D01*
X14896Y101138D02*
Y102319D01*
X20211Y89917D02*
X21392D01*
X20801Y89327D02*
Y90508D01*
X14305Y78106D02*
X15486D01*
X14896Y77516D02*
Y78697D01*
X20211Y66295D02*
X21392D01*
X20801Y65705D02*
Y66886D01*
X14305Y54484D02*
X15486D01*
X14896Y53894D02*
Y55075D01*
X20211Y42673D02*
X21392D01*
X20801Y42083D02*
Y43264D01*
X14305Y30862D02*
X15486D01*
X14896Y30272D02*
Y31453D01*
X8400Y349760D02*
X9581D01*
X8990Y349169D02*
Y350350D01*
X8400Y255272D02*
X9581D01*
X8990Y254681D02*
Y255862D01*
X8400Y231649D02*
X9581D01*
X8990Y231059D02*
Y232240D01*
X8400Y208027D02*
X9581D01*
X8990Y207437D02*
Y208618D01*
X8400Y184405D02*
X9581D01*
X8990Y183815D02*
Y184996D01*
X8400Y160783D02*
X9581D01*
X8990Y160193D02*
Y161374D01*
X8400Y137161D02*
X9581D01*
X8990Y136571D02*
Y137752D01*
X8400Y113539D02*
X9581D01*
X8990Y112949D02*
Y114130D01*
X8400Y89917D02*
X9581D01*
X8990Y89327D02*
Y90508D01*
X8400Y66295D02*
X9581D01*
X8990Y65705D02*
Y66886D01*
X8400Y42673D02*
X9581D01*
X8990Y42083D02*
Y43264D01*
X111713Y74311D02*
X112894D01*
X112303Y73721D02*
Y74902D01*
X92760Y184350D02*
X93941D01*
X93351Y183760D02*
Y184941D01*
X191437Y239252D02*
X192618D01*
X192027Y238661D02*
Y239843D01*
X339108Y97244D02*
X340289D01*
X339699Y96653D02*
Y97835D01*
X340945Y53744D02*
X342126D01*
X341535Y53153D02*
Y54334D01*
X339862Y71457D02*
X341043D01*
X340453Y70866D02*
Y72047D01*
X310677Y95793D02*
X311858D01*
X311268Y95202D02*
Y96384D01*
X286713Y95079D02*
X287894D01*
X287303Y94488D02*
Y95669D01*
X360531Y87213D02*
X361713D01*
X361122Y86623D02*
Y87804D01*
X98595Y233957D02*
X99777D01*
X99186Y233366D02*
Y234547D01*
X88882Y152202D02*
X90064D01*
X89473Y151611D02*
Y152792D01*
X55413Y163091D02*
X56595D01*
X56004Y162500D02*
Y163681D01*
X88583Y163091D02*
X89764D01*
X89173Y162500D02*
Y163681D01*
X257165Y28688D02*
X258346D01*
X257755Y28098D02*
Y29279D01*
X257165Y57611D02*
X258346D01*
X257755Y57020D02*
Y58201D01*
X290650Y108366D02*
X291831D01*
X291240Y107776D02*
Y108957D01*
X336319Y61811D02*
X337500D01*
X336909Y61221D02*
Y62402D01*
X102888Y177833D02*
X104069D01*
X103479Y177243D02*
Y178424D01*
X123992Y195025D02*
X125173D01*
X124583Y194434D02*
Y195615D01*
X118909Y194987D02*
X120090D01*
X119499Y194396D02*
Y195578D01*
X169783Y233836D02*
X170965D01*
X170374Y233246D02*
Y234427D01*
X177362Y238976D02*
X178543D01*
X177953Y238386D02*
Y239567D01*
X142903Y229831D02*
X144085D01*
X143494Y229240D02*
Y230421D01*
X128660Y226053D02*
X129841D01*
X129250Y225463D02*
Y226644D01*
X120913Y275255D02*
X122094D01*
X121504Y274664D02*
Y275845D01*
X296260Y279626D02*
X297441D01*
X296850Y279035D02*
Y280217D01*
X284733Y279596D02*
X285914D01*
X285323Y279006D02*
Y280187D01*
X96834Y301659D02*
X98015D01*
X97424Y301069D02*
Y302250D01*
X107174Y301689D02*
X108355D01*
X107764Y301098D02*
Y302280D01*
X115650Y280610D02*
X116831D01*
X116240Y280020D02*
Y281201D01*
X115650Y276181D02*
X116831D01*
X116240Y275591D02*
Y276772D01*
X243110Y280807D02*
X244291D01*
X243701Y280217D02*
Y281398D01*
X243110Y276870D02*
X244291D01*
X243701Y276279D02*
Y277461D01*
X247047Y276870D02*
X248228D01*
X247638Y276279D02*
Y277461D01*
X252067Y276780D02*
X253248D01*
X252658Y276190D02*
Y277371D01*
X256004Y280717D02*
X257185D01*
X256594Y280127D02*
Y281308D01*
X256004Y276780D02*
X257185D01*
X256594Y276190D02*
Y277371D01*
X243110Y272933D02*
X244291D01*
X243701Y272342D02*
Y273524D01*
X247047Y272933D02*
X248228D01*
X247638Y272342D02*
Y273524D01*
X252067Y272843D02*
X253248D01*
X252658Y272253D02*
Y273434D01*
X256004Y272843D02*
X257185D01*
X256594Y272253D02*
Y273434D01*
X256004Y285245D02*
X257185D01*
X256594Y284654D02*
Y285836D01*
X256004Y289075D02*
X257185D01*
X256594Y288484D02*
Y289665D01*
X243110Y285335D02*
X244291D01*
X243701Y284744D02*
Y285925D01*
X243110Y289164D02*
X244291D01*
X243701Y288574D02*
Y289755D01*
X259606Y354438D02*
X260787D01*
X260197Y353847D02*
Y355028D01*
X259606Y358268D02*
X260787D01*
X260197Y357677D02*
Y358858D01*
X243858Y354438D02*
X245039D01*
X244449Y353847D02*
Y355028D01*
X243858Y358268D02*
X245039D01*
X244449Y357677D02*
Y358858D01*
X145516Y310471D02*
X146697D01*
X146106Y309880D02*
Y311061D01*
X145516Y319133D02*
X146697D01*
X146106Y318543D02*
Y319724D01*
X311122Y319783D02*
X312303D01*
X311713Y319193D02*
Y320374D01*
X311122Y311121D02*
X312303D01*
X311713Y310530D02*
Y311712D01*
X243858Y370669D02*
X245039D01*
X244449Y370079D02*
Y371260D01*
X247795Y370669D02*
X248976D01*
X248386Y370079D02*
Y371260D01*
X251732Y370669D02*
X252913D01*
X252323Y370079D02*
Y371260D01*
X255669Y370669D02*
X256850D01*
X256260Y370079D02*
Y371260D01*
X259606Y370669D02*
X260787D01*
X260197Y370079D02*
Y371260D01*
X243858Y366732D02*
X245039D01*
X244449Y366142D02*
Y367323D01*
X243858Y362795D02*
X245039D01*
X244449Y362205D02*
Y363386D01*
X247795Y366732D02*
X248976D01*
X248386Y366142D02*
Y367323D01*
X251732Y366732D02*
X252913D01*
X252323Y366142D02*
Y367323D01*
X255669Y366732D02*
X256850D01*
X256260Y366142D02*
Y367323D01*
X259606Y366732D02*
X260787D01*
X260197Y366142D02*
Y367323D01*
X247795Y362795D02*
X248976D01*
X248386Y362205D02*
Y363386D01*
X251732Y362795D02*
X252913D01*
X252323Y362205D02*
Y363386D01*
X255669Y362795D02*
X256850D01*
X256260Y362205D02*
Y363386D01*
X259606Y362795D02*
X260787D01*
X260197Y362205D02*
Y363386D01*
X321949Y379626D02*
X323130D01*
X322539Y379035D02*
Y380217D01*
X325886Y379626D02*
X327067D01*
X326476Y379035D02*
Y380217D01*
X329823Y379626D02*
X331004D01*
X330413Y379035D02*
Y380217D01*
X333760Y379626D02*
X334941D01*
X334350Y379035D02*
Y380217D01*
X337697Y379626D02*
X338878D01*
X338287Y379035D02*
Y380217D01*
X321949Y375689D02*
X323130D01*
X322539Y375098D02*
Y376279D01*
X321949Y371752D02*
X323130D01*
X322539Y371161D02*
Y372342D01*
X325886Y375689D02*
X327067D01*
X326476Y375098D02*
Y376279D01*
X329823Y375689D02*
X331004D01*
X330413Y375098D02*
Y376279D01*
X333760Y375689D02*
X334941D01*
X334350Y375098D02*
Y376279D01*
X337697Y375689D02*
X338878D01*
X338287Y375098D02*
Y376279D01*
X325886Y371752D02*
X327067D01*
X326476Y371161D02*
Y372342D01*
X329823Y371752D02*
X331004D01*
X330413Y371161D02*
Y372342D01*
X333760Y371752D02*
X334941D01*
X334350Y371161D02*
Y372342D01*
X337697Y371752D02*
X338878D01*
X338287Y371161D02*
Y372342D01*
X173524Y373327D02*
X174705D01*
X174114Y372736D02*
Y373917D01*
X169587Y373327D02*
X170768D01*
X170177Y372736D02*
Y373917D01*
X165650Y373327D02*
X166831D01*
X166240Y372736D02*
Y373917D01*
X161713Y373327D02*
X162894D01*
X162303Y372736D02*
Y373917D01*
X173524Y377264D02*
X174705D01*
X174114Y376673D02*
Y377854D01*
X169587Y377264D02*
X170768D01*
X170177Y376673D02*
Y377854D01*
X165650Y377264D02*
X166831D01*
X166240Y376673D02*
Y377854D01*
X161713Y377264D02*
X162894D01*
X162303Y376673D02*
Y377854D01*
X157776Y373327D02*
X158957D01*
X158366Y372736D02*
Y373917D01*
X157776Y377264D02*
X158957D01*
X158366Y376673D02*
Y377854D01*
X173524Y381201D02*
X174705D01*
X174114Y380610D02*
Y381791D01*
X169587Y381201D02*
X170768D01*
X170177Y380610D02*
Y381791D01*
X165650Y381201D02*
X166831D01*
X166240Y380610D02*
Y381791D01*
X161713Y381201D02*
X162894D01*
X162303Y380610D02*
Y381791D01*
X157776Y381201D02*
X158957D01*
X158366Y380610D02*
Y381791D01*
X275117Y370747D02*
X276299D01*
X275708Y370156D02*
Y371338D01*
X275117Y364842D02*
X276299D01*
X275708Y364251D02*
Y365432D01*
X275117Y358936D02*
X276299D01*
X275708Y358345D02*
Y359526D01*
X275117Y353030D02*
X276299D01*
X275708Y352440D02*
Y353621D01*
X275117Y347125D02*
X276299D01*
X275708Y346534D02*
Y347715D01*
X275117Y341219D02*
X276299D01*
X275708Y340629D02*
Y341810D01*
X275117Y335314D02*
X276299D01*
X275708Y334723D02*
Y335905D01*
X281023Y335314D02*
X282204D01*
X281613Y334723D02*
Y335905D01*
X286929Y335314D02*
X288110D01*
X287519Y334723D02*
Y335905D01*
X292834Y335314D02*
X294015D01*
X293425Y334723D02*
Y335905D01*
X298740Y335314D02*
X299921D01*
X299330Y334723D02*
Y335905D01*
X304645Y335314D02*
X305826D01*
X305236Y334723D02*
Y335905D01*
X310550Y335314D02*
X311732D01*
X311141Y334723D02*
Y335905D01*
X310550Y341219D02*
X311732D01*
X311141Y340629D02*
Y341810D01*
X304645Y341219D02*
X305826D01*
X305236Y340629D02*
Y341810D01*
X298740Y341219D02*
X299921D01*
X299330Y340629D02*
Y341810D01*
X292834Y341219D02*
X294015D01*
X293425Y340629D02*
Y341810D01*
X286929Y341219D02*
X288110D01*
X287519Y340629D02*
Y341810D01*
X281023Y341219D02*
X282204D01*
X281613Y340629D02*
Y341810D01*
X310550Y347125D02*
X311732D01*
X311141Y346534D02*
Y347715D01*
X304645Y347125D02*
X305826D01*
X305236Y346534D02*
Y347715D01*
X298740Y347125D02*
X299921D01*
X299330Y346534D02*
Y347715D01*
X292834Y347125D02*
X294015D01*
X293425Y346534D02*
Y347715D01*
X286929Y347125D02*
X288110D01*
X287519Y346534D02*
Y347715D01*
X281023Y347125D02*
X282204D01*
X281613Y346534D02*
Y347715D01*
X310550Y353030D02*
X311732D01*
X311141Y352440D02*
Y353621D01*
X304645Y353030D02*
X305826D01*
X305236Y352440D02*
Y353621D01*
X298740Y353030D02*
X299921D01*
X299330Y352440D02*
Y353621D01*
X292834Y353030D02*
X294015D01*
X293425Y352440D02*
Y353621D01*
X286929Y353030D02*
X288110D01*
X287519Y352440D02*
Y353621D01*
X281023Y353030D02*
X282204D01*
X281613Y352440D02*
Y353621D01*
X310550Y358936D02*
X311732D01*
X311141Y358345D02*
Y359526D01*
X304645Y358936D02*
X305826D01*
X305236Y358345D02*
Y359526D01*
X298740Y358936D02*
X299921D01*
X299330Y358345D02*
Y359526D01*
X292834Y358936D02*
X294015D01*
X293425Y358345D02*
Y359526D01*
X286929Y358936D02*
X288110D01*
X287519Y358345D02*
Y359526D01*
X281023Y358936D02*
X282204D01*
X281613Y358345D02*
Y359526D01*
X310550Y364842D02*
X311732D01*
X311141Y364251D02*
Y365432D01*
X304645Y364842D02*
X305826D01*
X305236Y364251D02*
Y365432D01*
X298740Y364842D02*
X299921D01*
X299330Y364251D02*
Y365432D01*
X292834Y364842D02*
X294015D01*
X293425Y364251D02*
Y365432D01*
X286929Y364842D02*
X288110D01*
X287519Y364251D02*
Y365432D01*
X281023Y364842D02*
X282204D01*
X281613Y364251D02*
Y365432D01*
X310550Y370747D02*
X311732D01*
X311141Y370156D02*
Y371338D01*
X304645Y370747D02*
X305826D01*
X305236Y370156D02*
Y371338D01*
X298740Y370747D02*
X299921D01*
X299330Y370156D02*
Y371338D01*
X292834Y370747D02*
X294015D01*
X293425Y370156D02*
Y371338D01*
X286929Y370747D02*
X288110D01*
X287519Y370156D02*
Y371338D01*
X281023Y370747D02*
X282204D01*
X281613Y370156D02*
Y371338D01*
X77555Y191057D02*
X78736D01*
X78146Y190466D02*
Y191647D01*
X72429Y191057D02*
X73610D01*
X73019Y190466D02*
Y191647D01*
X82074Y250000D02*
X83255D01*
X82664Y249410D02*
Y250591D01*
X329035Y131201D02*
X330217D01*
X329626Y130610D02*
Y131791D01*
X328445Y229528D02*
X329626D01*
X329035Y228937D02*
Y230118D01*
X189467Y235335D02*
X190648D01*
X190058Y234744D02*
Y235925D01*
X193012Y262500D02*
X194193D01*
X193602Y261909D02*
Y263090D01*
X187992Y262500D02*
X189173D01*
X188583Y261909D02*
Y263090D01*
X193405Y235335D02*
X194587D01*
X193996Y234744D02*
Y235925D01*
X99594Y189665D02*
X100776D01*
X100185Y189075D02*
Y190256D01*
X108858Y226306D02*
X110039D01*
X109449Y225716D02*
Y226897D01*
X113484Y226285D02*
X114665D01*
X114075Y225694D02*
Y226875D01*
X113484Y204276D02*
X114665D01*
X114075Y203685D02*
Y204867D01*
X299937Y314663D02*
X301118D01*
X300528Y314072D02*
Y315253D01*
X134331Y314308D02*
X135512D01*
X134921Y313717D02*
Y314898D01*
X115453Y370079D02*
X116634D01*
X116043Y369488D02*
Y370669D01*
X121358Y370079D02*
X122539D01*
X121949Y369488D02*
Y370669D01*
X127264Y370079D02*
X128445D01*
X127854Y369488D02*
Y370669D01*
X133169Y370079D02*
X134350D01*
X133760Y369488D02*
Y370669D01*
X139075Y370079D02*
X140256D01*
X139665Y369488D02*
Y370669D01*
X144980Y370079D02*
X146161D01*
X145571Y369488D02*
Y370669D01*
X115453Y364173D02*
X116634D01*
X116043Y363583D02*
Y364764D01*
X121358Y364173D02*
X122539D01*
X121949Y363583D02*
Y364764D01*
X127264Y364173D02*
X128445D01*
X127854Y363583D02*
Y364764D01*
X133169Y364173D02*
X134350D01*
X133760Y363583D02*
Y364764D01*
X139075Y364173D02*
X140256D01*
X139665Y363583D02*
Y364764D01*
X144980Y364173D02*
X146161D01*
X145571Y363583D02*
Y364764D01*
X115453Y358268D02*
X116634D01*
X116043Y357677D02*
Y358858D01*
X121358Y358268D02*
X122539D01*
X121949Y357677D02*
Y358858D01*
X127264Y358268D02*
X128445D01*
X127854Y357677D02*
Y358858D01*
X133169Y358268D02*
X134350D01*
X133760Y357677D02*
Y358858D01*
X139075Y358268D02*
X140256D01*
X139665Y357677D02*
Y358858D01*
X144980Y358268D02*
X146161D01*
X145571Y357677D02*
Y358858D01*
X115453Y352362D02*
X116634D01*
X116043Y351772D02*
Y352953D01*
X121358Y352362D02*
X122539D01*
X121949Y351772D02*
Y352953D01*
X127264Y352362D02*
X128445D01*
X127854Y351772D02*
Y352953D01*
X133169Y352362D02*
X134350D01*
X133760Y351772D02*
Y352953D01*
X139075Y352362D02*
X140256D01*
X139665Y351772D02*
Y352953D01*
X144980Y352362D02*
X146161D01*
X145571Y351772D02*
Y352953D01*
X115453Y346457D02*
X116634D01*
X116043Y345866D02*
Y347047D01*
X121358Y346457D02*
X122539D01*
X121949Y345866D02*
Y347047D01*
X127264Y346457D02*
X128445D01*
X127854Y345866D02*
Y347047D01*
X133169Y346457D02*
X134350D01*
X133760Y345866D02*
Y347047D01*
X139075Y346457D02*
X140256D01*
X139665Y345866D02*
Y347047D01*
X144980Y346457D02*
X146161D01*
X145571Y345866D02*
Y347047D01*
X115453Y340551D02*
X116634D01*
X116043Y339961D02*
Y341142D01*
X121358Y340551D02*
X122539D01*
X121949Y339961D02*
Y341142D01*
X127264Y340551D02*
X128445D01*
X127854Y339961D02*
Y341142D01*
X133169Y340551D02*
X134350D01*
X133760Y339961D02*
Y341142D01*
X139075Y340551D02*
X140256D01*
X139665Y339961D02*
Y341142D01*
X144980Y340551D02*
X146161D01*
X145571Y339961D02*
Y341142D01*
X144980Y334646D02*
X146161D01*
X145571Y334055D02*
Y335236D01*
X139075Y334646D02*
X140256D01*
X139665Y334055D02*
Y335236D01*
X133169Y334646D02*
X134350D01*
X133760Y334055D02*
Y335236D01*
X127264Y334646D02*
X128445D01*
X127854Y334055D02*
Y335236D01*
X121358Y334646D02*
X122539D01*
X121949Y334055D02*
Y335236D01*
X115453Y334646D02*
X116634D01*
X116043Y334055D02*
Y335236D01*
X109547Y334646D02*
X110728D01*
X110138Y334055D02*
Y335236D01*
X109547Y340551D02*
X110728D01*
X110138Y339961D02*
Y341142D01*
X109547Y346457D02*
X110728D01*
X110138Y345866D02*
Y347047D01*
X109547Y352362D02*
X110728D01*
X110138Y351772D02*
Y352953D01*
X109547Y358268D02*
X110728D01*
X110138Y357677D02*
Y358858D01*
X109547Y364173D02*
X110728D01*
X110138Y363583D02*
Y364764D01*
X109547Y370079D02*
X110728D01*
X110138Y369488D02*
Y370669D01*
X102461Y205807D02*
X103642D01*
X103051Y205217D02*
Y206398D01*
X99245Y209022D02*
X100426D01*
X99836Y208432D02*
Y209613D01*
X74213Y229823D02*
X75394D01*
X74803Y229232D02*
Y230413D01*
X77555Y229831D02*
X78736D01*
X78146Y229240D02*
Y230421D01*
X99245Y215453D02*
X100426D01*
X99836Y214862D02*
Y216043D01*
X102461Y215453D02*
X103642D01*
X103051Y214862D02*
Y216043D01*
X92815Y215453D02*
X93996D01*
X93405Y214862D02*
Y216043D01*
X102461Y209022D02*
X103642D01*
X103051Y208432D02*
Y209613D01*
X102461Y212238D02*
X103642D01*
X103051Y211647D02*
Y212828D01*
X99245Y205807D02*
X100426D01*
X99836Y205217D02*
Y206398D01*
X99245Y212238D02*
X100426D01*
X99836Y211647D02*
Y212828D01*
X96030Y205807D02*
X97211D01*
X96621Y205217D02*
Y206398D01*
X96030Y209022D02*
X97211D01*
X96621Y208432D02*
Y209613D01*
X96030Y212238D02*
X97211D01*
X96621Y211647D02*
Y212828D01*
X96030Y215453D02*
X97211D01*
X96621Y214862D02*
Y216043D01*
X92815Y209022D02*
X93996D01*
X93405Y208432D02*
Y209613D01*
X92815Y212238D02*
X93996D01*
X93405Y211647D02*
Y212828D01*
X92815Y205807D02*
X93996D01*
X93405Y205217D02*
Y206398D01*
X61531Y277887D02*
X62712D01*
X62121Y277297D02*
Y278478D01*
X83465Y277887D02*
X84646D01*
X84055Y277297D02*
Y278478D01*
X69750Y271867D02*
X70932D01*
X70341Y271276D02*
Y272458D01*
X75771Y271867D02*
X76952D01*
X76361Y271276D02*
Y272458D01*
X63730Y271867D02*
X64911D01*
X64320Y271276D02*
Y272458D01*
X81791Y271867D02*
X82972D01*
X82382Y271276D02*
Y272458D01*
X63730Y265846D02*
X64911D01*
X64320Y265256D02*
Y266437D01*
X69750Y265846D02*
X70932D01*
X70341Y265256D02*
Y266437D01*
X75771Y265846D02*
X76952D01*
X76361Y265256D02*
Y266437D01*
X81791Y265846D02*
X82972D01*
X82382Y265256D02*
Y266437D01*
M02*
