G04*
G04 #@! TF.GenerationSoftware,Altium Limited,Altium Designer,22.10.1 (41)*
G04*
G04 Layer_Color=32768*
%FSLAX25Y25*%
%MOIN*%
G70*
G04*
G04 #@! TF.SameCoordinates,F8C157B4-DA96-4F04-9901-D09C045D4249*
G04*
G04*
G04 #@! TF.FilePolarity,Positive*
G04*
G01*
G75*
%ADD14C,0.01000*%
%ADD85C,0.01500*%
%ADD117C,0.00100*%
D14*
X944563Y622252D02*
Y616254D01*
X947562D01*
X948562Y617254D01*
Y618254D01*
X947562Y619253D01*
X944563D01*
X947562D01*
X948562Y620253D01*
Y621253D01*
X947562Y622252D01*
X944563D01*
X951561Y616254D02*
X953560D01*
X954560Y617254D01*
Y619253D01*
X953560Y620253D01*
X951561D01*
X950561Y619253D01*
Y617254D01*
X951561Y616254D01*
X957559Y620253D02*
X959558D01*
X960558Y619253D01*
Y616254D01*
X957559D01*
X956559Y617254D01*
X957559Y618254D01*
X960558D01*
X962557Y620253D02*
Y616254D01*
Y618254D01*
X963557Y619253D01*
X964557Y620253D01*
X965556D01*
X972554Y622252D02*
Y616254D01*
X969555D01*
X968555Y617254D01*
Y619253D01*
X969555Y620253D01*
X972554D01*
X980551Y622252D02*
Y616254D01*
X984550D01*
X987549Y620253D02*
X989548D01*
X990548Y619253D01*
Y616254D01*
X987549D01*
X986549Y617254D01*
X987549Y618254D01*
X990548D01*
X992548Y620253D02*
Y617254D01*
X993547Y616254D01*
X996546D01*
Y615255D01*
X995547Y614255D01*
X994547D01*
X996546Y616254D02*
Y620253D01*
X1001545Y616254D02*
X999545D01*
X998546Y617254D01*
Y619253D01*
X999545Y620253D01*
X1001545D01*
X1002544Y619253D01*
Y618254D01*
X998546D01*
X1004544Y620253D02*
Y616254D01*
Y618254D01*
X1005543Y619253D01*
X1006543Y620253D01*
X1007543D01*
X1020539Y621253D02*
X1019539Y622252D01*
X1017540D01*
X1016540Y621253D01*
Y620253D01*
X1017540Y619253D01*
X1019539D01*
X1020539Y618254D01*
Y617254D01*
X1019539Y616254D01*
X1017540D01*
X1016540Y617254D01*
X1023538Y621253D02*
Y620253D01*
X1022538D01*
X1024537D01*
X1023538D01*
Y617254D01*
X1024537Y616254D01*
X1028536Y620253D02*
X1030535D01*
X1031535Y619253D01*
Y616254D01*
X1028536D01*
X1027536Y617254D01*
X1028536Y618254D01*
X1031535D01*
X1037533Y620253D02*
X1034534D01*
X1033534Y619253D01*
Y617254D01*
X1034534Y616254D01*
X1037533D01*
X1039532D02*
Y622252D01*
Y618254D02*
X1042531Y620253D01*
X1039532Y618254D02*
X1042531Y616254D01*
X890576Y592254D02*
Y598252D01*
X887577Y595253D01*
X891576D01*
X890576Y556254D02*
Y562252D01*
X887577Y559253D01*
X891576D01*
X893575Y556254D02*
Y557254D01*
X894575D01*
Y556254D01*
X893575D01*
X898573Y561253D02*
X899573Y562252D01*
X901573D01*
X902572Y561253D01*
Y560253D01*
X901573Y559253D01*
X900573D01*
X901573D01*
X902572Y558254D01*
Y557254D01*
X901573Y556254D01*
X899573D01*
X898573Y557254D01*
X890576Y544254D02*
Y550252D01*
X887577Y547253D01*
X891576D01*
X893575Y544254D02*
Y545254D01*
X894575D01*
Y544254D01*
X893575D01*
X898573Y549253D02*
X899573Y550252D01*
X901573D01*
X902572Y549253D01*
Y548253D01*
X901573Y547253D01*
X900573D01*
X901573D01*
X902572Y546254D01*
Y545254D01*
X901573Y544254D01*
X899573D01*
X898573Y545254D01*
X890576Y520254D02*
Y526252D01*
X887577Y523253D01*
X891576D01*
X893575Y520254D02*
Y521254D01*
X894575D01*
Y520254D01*
X893575D01*
X898573Y525253D02*
X899573Y526252D01*
X901573D01*
X902572Y525253D01*
Y524253D01*
X901573Y523253D01*
X902572Y522254D01*
Y521254D01*
X901573Y520254D01*
X899573D01*
X898573Y521254D01*
Y522254D01*
X899573Y523253D01*
X898573Y524253D01*
Y525253D01*
X899573Y523253D02*
X901573D01*
X890576Y496254D02*
Y502252D01*
X887577Y499253D01*
X891576D01*
X893575Y496254D02*
Y497254D01*
X894575D01*
Y496254D01*
X893575D01*
X898573Y501253D02*
X899573Y502252D01*
X901573D01*
X902572Y501253D01*
Y500253D01*
X901573Y499253D01*
X900573D01*
X901573D01*
X902572Y498254D01*
Y497254D01*
X901573Y496254D01*
X899573D01*
X898573Y497254D01*
X890576Y484254D02*
Y490252D01*
X887577Y487253D01*
X891576D01*
X893575Y484254D02*
Y485254D01*
X894575D01*
Y484254D01*
X893575D01*
X898573Y489253D02*
X899573Y490252D01*
X901573D01*
X902572Y489253D01*
Y488253D01*
X901573Y487253D01*
X900573D01*
X901573D01*
X902572Y486254D01*
Y485254D01*
X901573Y484254D01*
X899573D01*
X898573Y485254D01*
X890576Y448254D02*
Y454252D01*
X887577Y451253D01*
X891576D01*
Y621253D02*
X890576Y622252D01*
X888577D01*
X887577Y621253D01*
Y617254D01*
X888577Y616254D01*
X890576D01*
X891576Y617254D01*
X894575Y616254D02*
X896574D01*
X897574Y617254D01*
Y619253D01*
X896574Y620253D01*
X894575D01*
X893575Y619253D01*
Y617254D01*
X894575Y616254D01*
X899573D02*
Y620253D01*
X902572D01*
X903572Y619253D01*
Y616254D01*
X905571D02*
X908570D01*
X909570Y617254D01*
X908570Y618254D01*
X906571D01*
X905571Y619253D01*
X906571Y620253D01*
X909570D01*
X912569Y621253D02*
Y620253D01*
X911569D01*
X913569D01*
X912569D01*
Y617254D01*
X913569Y616254D01*
X917567Y620253D02*
X919567D01*
X920566Y619253D01*
Y616254D01*
X917567D01*
X916568Y617254D01*
X917567Y618254D01*
X920566D01*
X922566Y616254D02*
Y620253D01*
X925565D01*
X926564Y619253D01*
Y616254D01*
X929563Y621253D02*
Y620253D01*
X928564D01*
X930563D01*
X929563D01*
Y617254D01*
X930563Y616254D01*
X822593Y592254D02*
X824593D01*
X823593D01*
Y598252D01*
X822593Y597253D01*
X827592Y592254D02*
Y593254D01*
X828592D01*
Y592254D01*
X827592D01*
X832590Y597253D02*
X833590Y598252D01*
X835589D01*
X836589Y597253D01*
Y593254D01*
X835589Y592254D01*
X833590D01*
X832590Y593254D01*
Y597253D01*
X838588D02*
X839588Y598252D01*
X841587D01*
X842587Y597253D01*
Y593254D01*
X841587Y592254D01*
X839588D01*
X838588Y593254D01*
Y597253D01*
X844586Y592254D02*
Y596253D01*
X845586D01*
X846586Y595253D01*
Y592254D01*
Y595253D01*
X847585Y596253D01*
X848585Y595253D01*
Y592254D01*
X850584D02*
X852584D01*
X851584D01*
Y596253D01*
X850584D01*
X855583Y592254D02*
X857582D01*
X856583D01*
Y598252D01*
X855583D01*
X822593Y585253D02*
X823593Y586252D01*
X825593D01*
X826592Y585253D01*
Y581254D01*
X825593Y580254D01*
X823593D01*
X822593Y581254D01*
Y585253D01*
X828592Y580254D02*
Y581254D01*
X829591D01*
Y580254D01*
X828592D01*
X833590Y586252D02*
X837589D01*
Y585253D01*
X833590Y581254D01*
Y580254D01*
X839588Y581254D02*
X840588Y580254D01*
X842587D01*
X843587Y581254D01*
Y585253D01*
X842587Y586252D01*
X840588D01*
X839588Y585253D01*
Y584253D01*
X840588Y583253D01*
X843587D01*
X845586Y580254D02*
Y584253D01*
X846586D01*
X847585Y583253D01*
Y580254D01*
Y583253D01*
X848585Y584253D01*
X849585Y583253D01*
Y580254D01*
X851584D02*
X853583D01*
X852584D01*
Y584253D01*
X851584D01*
X856583Y580254D02*
X858582D01*
X857582D01*
Y586252D01*
X856583D01*
X822593Y568254D02*
X824593D01*
X823593D01*
Y574252D01*
X822593Y573253D01*
X827592Y568254D02*
Y569254D01*
X828592D01*
Y568254D01*
X827592D01*
X832590Y573253D02*
X833590Y574252D01*
X835589D01*
X836589Y573253D01*
Y572253D01*
X835589Y571253D01*
X834590D01*
X835589D01*
X836589Y570254D01*
Y569254D01*
X835589Y568254D01*
X833590D01*
X832590Y569254D01*
X838588Y573253D02*
X839588Y574252D01*
X841587D01*
X842587Y573253D01*
Y572253D01*
X841587Y571253D01*
X842587Y570254D01*
Y569254D01*
X841587Y568254D01*
X839588D01*
X838588Y569254D01*
Y570254D01*
X839588Y571253D01*
X838588Y572253D01*
Y573253D01*
X839588Y571253D02*
X841587D01*
X844586Y568254D02*
Y572253D01*
X845586D01*
X846586Y571253D01*
Y568254D01*
Y571253D01*
X847585Y572253D01*
X848585Y571253D01*
Y568254D01*
X850584D02*
X852584D01*
X851584D01*
Y572253D01*
X850584D01*
X855583Y568254D02*
X857582D01*
X856583D01*
Y574252D01*
X855583D01*
X826592Y562252D02*
X822593D01*
Y559253D01*
X824593Y560253D01*
X825593D01*
X826592Y559253D01*
Y557254D01*
X825593Y556254D01*
X823593D01*
X822593Y557254D01*
X828592Y556254D02*
Y557254D01*
X829591D01*
Y556254D01*
X828592D01*
X833590D02*
X835589D01*
X834590D01*
Y562252D01*
X833590Y561253D01*
X838588D02*
X839588Y562252D01*
X841587D01*
X842587Y561253D01*
Y557254D01*
X841587Y556254D01*
X839588D01*
X838588Y557254D01*
Y561253D01*
X844586Y556254D02*
Y560253D01*
X845586D01*
X846586Y559253D01*
Y556254D01*
Y559253D01*
X847585Y560253D01*
X848585Y559253D01*
Y556254D01*
X850584D02*
X852584D01*
X851584D01*
Y560253D01*
X850584D01*
X855583Y556254D02*
X857582D01*
X856583D01*
Y562252D01*
X855583D01*
X826592Y550252D02*
X822593D01*
Y547253D01*
X824593Y548253D01*
X825593D01*
X826592Y547253D01*
Y545254D01*
X825593Y544254D01*
X823593D01*
X822593Y545254D01*
X828592Y544254D02*
Y545254D01*
X829591D01*
Y544254D01*
X828592D01*
X833590D02*
X835589D01*
X834590D01*
Y550252D01*
X833590Y549253D01*
X838588D02*
X839588Y550252D01*
X841587D01*
X842587Y549253D01*
Y545254D01*
X841587Y544254D01*
X839588D01*
X838588Y545254D01*
Y549253D01*
X844586Y544254D02*
Y548253D01*
X845586D01*
X846586Y547253D01*
Y544254D01*
Y547253D01*
X847585Y548253D01*
X848585Y547253D01*
Y544254D01*
X850584D02*
X852584D01*
X851584D01*
Y548253D01*
X850584D01*
X855583Y544254D02*
X857582D01*
X856583D01*
Y550252D01*
X855583D01*
X822593Y532254D02*
X824593D01*
X823593D01*
Y538252D01*
X822593Y537253D01*
X827592Y532254D02*
Y533254D01*
X828592D01*
Y532254D01*
X827592D01*
X832590Y537253D02*
X833590Y538252D01*
X835589D01*
X836589Y537253D01*
Y536253D01*
X835589Y535253D01*
X834590D01*
X835589D01*
X836589Y534254D01*
Y533254D01*
X835589Y532254D01*
X833590D01*
X832590Y533254D01*
X838588Y537253D02*
X839588Y538252D01*
X841587D01*
X842587Y537253D01*
Y536253D01*
X841587Y535253D01*
X842587Y534254D01*
Y533254D01*
X841587Y532254D01*
X839588D01*
X838588Y533254D01*
Y534254D01*
X839588Y535253D01*
X838588Y536253D01*
Y537253D01*
X839588Y535253D02*
X841587D01*
X844586Y532254D02*
Y536253D01*
X845586D01*
X846586Y535253D01*
Y532254D01*
Y535253D01*
X847585Y536253D01*
X848585Y535253D01*
Y532254D01*
X850584D02*
X852584D01*
X851584D01*
Y536253D01*
X850584D01*
X855583Y532254D02*
X857582D01*
X856583D01*
Y538252D01*
X855583D01*
X826592Y520254D02*
X822593D01*
X826592Y524253D01*
Y525253D01*
X825593Y526252D01*
X823593D01*
X822593Y525253D01*
X828592D02*
X829591Y526252D01*
X831591D01*
X832590Y525253D01*
Y524253D01*
X831591Y523253D01*
X832590Y522254D01*
Y521254D01*
X831591Y520254D01*
X829591D01*
X828592Y521254D01*
Y522254D01*
X829591Y523253D01*
X828592Y524253D01*
Y525253D01*
X829591Y523253D02*
X831591D01*
X834590Y520254D02*
Y521254D01*
X835589D01*
Y520254D01*
X834590D01*
X839588Y525253D02*
X840588Y526252D01*
X842587D01*
X843587Y525253D01*
Y521254D01*
X842587Y520254D01*
X840588D01*
X839588Y521254D01*
Y525253D01*
X845586D02*
X846586Y526252D01*
X848585D01*
X849585Y525253D01*
Y521254D01*
X848585Y520254D01*
X846586D01*
X845586Y521254D01*
Y525253D01*
X851584Y520254D02*
Y524253D01*
X852584D01*
X853583Y523253D01*
Y520254D01*
Y523253D01*
X854583Y524253D01*
X855583Y523253D01*
Y520254D01*
X857582D02*
X859581D01*
X858582D01*
Y524253D01*
X857582D01*
X862580Y520254D02*
X864580D01*
X863580D01*
Y526252D01*
X862580D01*
X822593Y508254D02*
X824593D01*
X823593D01*
Y514252D01*
X822593Y513253D01*
X827592Y508254D02*
Y509254D01*
X828592D01*
Y508254D01*
X827592D01*
X832590Y513253D02*
X833590Y514252D01*
X835589D01*
X836589Y513253D01*
Y512253D01*
X835589Y511253D01*
X834590D01*
X835589D01*
X836589Y510254D01*
Y509254D01*
X835589Y508254D01*
X833590D01*
X832590Y509254D01*
X838588Y513253D02*
X839588Y514252D01*
X841587D01*
X842587Y513253D01*
Y512253D01*
X841587Y511253D01*
X842587Y510254D01*
Y509254D01*
X841587Y508254D01*
X839588D01*
X838588Y509254D01*
Y510254D01*
X839588Y511253D01*
X838588Y512253D01*
Y513253D01*
X839588Y511253D02*
X841587D01*
X844586Y508254D02*
Y512253D01*
X845586D01*
X846586Y511253D01*
Y508254D01*
Y511253D01*
X847585Y512253D01*
X848585Y511253D01*
Y508254D01*
X850584D02*
X852584D01*
X851584D01*
Y512253D01*
X850584D01*
X855583Y508254D02*
X857582D01*
X856583D01*
Y514252D01*
X855583D01*
X826592Y502252D02*
X822593D01*
Y499253D01*
X824593Y500253D01*
X825593D01*
X826592Y499253D01*
Y497254D01*
X825593Y496254D01*
X823593D01*
X822593Y497254D01*
X828592Y496254D02*
Y497254D01*
X829591D01*
Y496254D01*
X828592D01*
X833590D02*
X835589D01*
X834590D01*
Y502252D01*
X833590Y501253D01*
X838588D02*
X839588Y502252D01*
X841587D01*
X842587Y501253D01*
Y497254D01*
X841587Y496254D01*
X839588D01*
X838588Y497254D01*
Y501253D01*
X844586Y496254D02*
Y500253D01*
X845586D01*
X846586Y499253D01*
Y496254D01*
Y499253D01*
X847585Y500253D01*
X848585Y499253D01*
Y496254D01*
X850584D02*
X852584D01*
X851584D01*
Y500253D01*
X850584D01*
X855583Y496254D02*
X857582D01*
X856583D01*
Y502252D01*
X855583D01*
X826592Y490252D02*
X822593D01*
Y487253D01*
X824593Y488253D01*
X825593D01*
X826592Y487253D01*
Y485254D01*
X825593Y484254D01*
X823593D01*
X822593Y485254D01*
X828592Y484254D02*
Y485254D01*
X829591D01*
Y484254D01*
X828592D01*
X833590D02*
X835589D01*
X834590D01*
Y490252D01*
X833590Y489253D01*
X838588D02*
X839588Y490252D01*
X841587D01*
X842587Y489253D01*
Y485254D01*
X841587Y484254D01*
X839588D01*
X838588Y485254D01*
Y489253D01*
X844586Y484254D02*
Y488253D01*
X845586D01*
X846586Y487253D01*
Y484254D01*
Y487253D01*
X847585Y488253D01*
X848585Y487253D01*
Y484254D01*
X850584D02*
X852584D01*
X851584D01*
Y488253D01*
X850584D01*
X855583Y484254D02*
X857582D01*
X856583D01*
Y490252D01*
X855583D01*
X822593Y472254D02*
X824593D01*
X823593D01*
Y478252D01*
X822593Y477253D01*
X827592Y472254D02*
Y473254D01*
X828592D01*
Y472254D01*
X827592D01*
X832590Y477253D02*
X833590Y478252D01*
X835589D01*
X836589Y477253D01*
Y476253D01*
X835589Y475253D01*
X834590D01*
X835589D01*
X836589Y474254D01*
Y473254D01*
X835589Y472254D01*
X833590D01*
X832590Y473254D01*
X838588Y477253D02*
X839588Y478252D01*
X841587D01*
X842587Y477253D01*
Y476253D01*
X841587Y475253D01*
X842587Y474254D01*
Y473254D01*
X841587Y472254D01*
X839588D01*
X838588Y473254D01*
Y474254D01*
X839588Y475253D01*
X838588Y476253D01*
Y477253D01*
X839588Y475253D02*
X841587D01*
X844586Y472254D02*
Y476253D01*
X845586D01*
X846586Y475253D01*
Y472254D01*
Y475253D01*
X847585Y476253D01*
X848585Y475253D01*
Y472254D01*
X850584D02*
X852584D01*
X851584D01*
Y476253D01*
X850584D01*
X855583Y472254D02*
X857582D01*
X856583D01*
Y478252D01*
X855583D01*
X822593Y465253D02*
X823593Y466252D01*
X825593D01*
X826592Y465253D01*
Y461254D01*
X825593Y460254D01*
X823593D01*
X822593Y461254D01*
Y465253D01*
X828592Y460254D02*
Y461254D01*
X829591D01*
Y460254D01*
X828592D01*
X833590Y466252D02*
X837589D01*
Y465253D01*
X833590Y461254D01*
Y460254D01*
X839588Y461254D02*
X840588Y460254D01*
X842587D01*
X843587Y461254D01*
Y465253D01*
X842587Y466252D01*
X840588D01*
X839588Y465253D01*
Y464253D01*
X840588Y463253D01*
X843587D01*
X845586Y460254D02*
Y464253D01*
X846586D01*
X847585Y463253D01*
Y460254D01*
Y463253D01*
X848585Y464253D01*
X849585Y463253D01*
Y460254D01*
X851584D02*
X853583D01*
X852584D01*
Y464253D01*
X851584D01*
X856583Y460254D02*
X858582D01*
X857582D01*
Y466252D01*
X856583D01*
X822593Y448254D02*
X824593D01*
X823593D01*
Y454252D01*
X822593Y453253D01*
X827592Y448254D02*
Y449254D01*
X828592D01*
Y448254D01*
X827592D01*
X832590Y453253D02*
X833590Y454252D01*
X835589D01*
X836589Y453253D01*
Y449254D01*
X835589Y448254D01*
X833590D01*
X832590Y449254D01*
Y453253D01*
X838588D02*
X839588Y454252D01*
X841587D01*
X842587Y453253D01*
Y449254D01*
X841587Y448254D01*
X839588D01*
X838588Y449254D01*
Y453253D01*
X844586Y448254D02*
Y452253D01*
X845586D01*
X846586Y451253D01*
Y448254D01*
Y451253D01*
X847585Y452253D01*
X848585Y451253D01*
Y448254D01*
X850584D02*
X852584D01*
X851584D01*
Y452253D01*
X850584D01*
X855583Y448254D02*
X857582D01*
X856583D01*
Y454252D01*
X855583D01*
X822593Y622252D02*
X826592D01*
X824593D01*
Y616254D01*
X828592Y622252D02*
Y616254D01*
Y619253D01*
X829591Y620253D01*
X831591D01*
X832590Y619253D01*
Y616254D01*
X834590D02*
X836589D01*
X835589D01*
Y620253D01*
X834590D01*
X843587D02*
X840588D01*
X839588Y619253D01*
Y617254D01*
X840588Y616254D01*
X843587D01*
X845586D02*
Y622252D01*
Y618254D02*
X848585Y620253D01*
X845586Y618254D02*
X848585Y616254D01*
X851584D02*
Y620253D01*
X854583D01*
X855583Y619253D01*
Y616254D01*
X860581D02*
X858582D01*
X857582Y617254D01*
Y619253D01*
X858582Y620253D01*
X860581D01*
X861581Y619253D01*
Y618254D01*
X857582D01*
X863580Y616254D02*
X866579D01*
X867579Y617254D01*
X866579Y618254D01*
X864580D01*
X863580Y619253D01*
X864580Y620253D01*
X867579D01*
X869578Y616254D02*
X872577D01*
X873577Y617254D01*
X872577Y618254D01*
X870578D01*
X869578Y619253D01*
X870578Y620253D01*
X873577D01*
X766607Y597253D02*
X765607Y598252D01*
X763608D01*
X762608Y597253D01*
Y596253D01*
X763608Y595253D01*
X765607D01*
X766607Y594254D01*
Y593254D01*
X765607Y592254D01*
X763608D01*
X762608Y593254D01*
X768606Y592254D02*
Y598252D01*
X770606Y596253D01*
X772605Y598252D01*
Y592254D01*
X774605Y595253D02*
X778603D01*
X780603Y597253D02*
X781602Y598252D01*
X783602D01*
X784601Y597253D01*
Y593254D01*
X783602Y592254D01*
X781602D01*
X780603Y593254D01*
Y597253D01*
X786601D02*
X787600Y598252D01*
X789600D01*
X790599Y597253D01*
Y593254D01*
X789600Y592254D01*
X787600D01*
X786601Y593254D01*
Y597253D01*
X792599Y592254D02*
X794598D01*
X793598D01*
Y598252D01*
X792599Y597253D01*
X762608Y580254D02*
Y586252D01*
X765607D01*
X766607Y585253D01*
Y583253D01*
X765607Y582254D01*
X762608D01*
X768606Y586252D02*
Y580254D01*
X771605D01*
X772605Y581254D01*
Y582254D01*
Y583253D01*
X771605Y584253D01*
X768606D01*
X778603Y585253D02*
X777603Y586252D01*
X775604D01*
X774605Y585253D01*
Y584253D01*
X775604Y583253D01*
X777603D01*
X778603Y582254D01*
Y581254D01*
X777603Y580254D01*
X775604D01*
X774605Y581254D01*
X780603Y580254D02*
Y584253D01*
X783602D01*
X784601Y583253D01*
Y580254D01*
X766607Y573253D02*
X765607Y574252D01*
X763608D01*
X762608Y573253D01*
Y569254D01*
X763608Y568254D01*
X765607D01*
X766607Y569254D01*
X772605Y574252D02*
X768606D01*
Y571253D01*
X770606D01*
X768606D01*
Y568254D01*
X774605Y571253D02*
X778603D01*
X780603Y573253D02*
X781602Y574252D01*
X783602D01*
X784601Y573253D01*
Y569254D01*
X783602Y568254D01*
X781602D01*
X780603Y569254D01*
Y573253D01*
X786601D02*
X787600Y574252D01*
X789600D01*
X790599Y573253D01*
Y569254D01*
X789600Y568254D01*
X787600D01*
X786601Y569254D01*
Y573253D01*
X795598Y568254D02*
Y574252D01*
X792599Y571253D01*
X796597D01*
X762608Y556254D02*
Y562252D01*
X765607D01*
X766607Y561253D01*
Y559253D01*
X765607Y558254D01*
X762608D01*
X768606Y556254D02*
Y562252D01*
X771605D01*
X772605Y561253D01*
Y559253D01*
X771605Y558254D01*
X768606D01*
X774605Y559253D02*
X778603D01*
X780603Y561253D02*
X781602Y562252D01*
X783602D01*
X784601Y561253D01*
Y557254D01*
X783602Y556254D01*
X781602D01*
X780603Y557254D01*
Y561253D01*
X786601Y556254D02*
X788600D01*
X787600D01*
Y562252D01*
X786601Y561253D01*
X791599Y562252D02*
X795598D01*
Y561253D01*
X791599Y557254D01*
Y556254D01*
X762608Y544254D02*
Y550252D01*
X765607D01*
X766607Y549253D01*
Y547253D01*
X765607Y546254D01*
X762608D01*
X768606Y544254D02*
Y550252D01*
X771605D01*
X772605Y549253D01*
Y547253D01*
X771605Y546254D01*
X768606D01*
X774605Y547253D02*
X778603D01*
X780603Y549253D02*
X781602Y550252D01*
X783602D01*
X784601Y549253D01*
Y545254D01*
X783602Y544254D01*
X781602D01*
X780603Y545254D01*
Y549253D01*
X786601Y544254D02*
X788600D01*
X787600D01*
Y550252D01*
X786601Y549253D01*
X791599Y550252D02*
X795598D01*
Y549253D01*
X791599Y545254D01*
Y544254D01*
X766607Y537253D02*
X765607Y538252D01*
X763608D01*
X762608Y537253D01*
Y533254D01*
X763608Y532254D01*
X765607D01*
X766607Y533254D01*
X772605Y538252D02*
X768606D01*
Y535253D01*
X770606D01*
X768606D01*
Y532254D01*
X774605Y535253D02*
X778603D01*
X780603Y537253D02*
X781602Y538252D01*
X783602D01*
X784601Y537253D01*
Y533254D01*
X783602Y532254D01*
X781602D01*
X780603Y533254D01*
Y537253D01*
X786601D02*
X787600Y538252D01*
X789600D01*
X790599Y537253D01*
Y533254D01*
X789600Y532254D01*
X787600D01*
X786601Y533254D01*
Y537253D01*
X795598Y532254D02*
Y538252D01*
X792599Y535253D01*
X796597D01*
X766607Y525253D02*
X765607Y526252D01*
X763608D01*
X762608Y525253D01*
Y521254D01*
X763608Y520254D01*
X765607D01*
X766607Y521254D01*
X769606Y520254D02*
X771605D01*
X772605Y521254D01*
Y523253D01*
X771605Y524253D01*
X769606D01*
X768606Y523253D01*
Y521254D01*
X769606Y520254D01*
X774605Y524253D02*
Y520254D01*
Y522254D01*
X775604Y523253D01*
X776604Y524253D01*
X777603D01*
X783602Y520254D02*
X781602D01*
X780603Y521254D01*
Y523253D01*
X781602Y524253D01*
X783602D01*
X784601Y523253D01*
Y522254D01*
X780603D01*
X786601Y523253D02*
X790599D01*
X792599Y525253D02*
X793598Y526252D01*
X795598D01*
X796597Y525253D01*
Y521254D01*
X795598Y520254D01*
X793598D01*
X792599Y521254D01*
Y525253D01*
X798597D02*
X799596Y526252D01*
X801596D01*
X802595Y525253D01*
Y524253D01*
X801596Y523253D01*
X800596D01*
X801596D01*
X802595Y522254D01*
Y521254D01*
X801596Y520254D01*
X799596D01*
X798597Y521254D01*
X804595D02*
X805594Y520254D01*
X807594D01*
X808593Y521254D01*
Y525253D01*
X807594Y526252D01*
X805594D01*
X804595Y525253D01*
Y524253D01*
X805594Y523253D01*
X808593D01*
X766607Y513253D02*
X765607Y514252D01*
X763608D01*
X762608Y513253D01*
Y509254D01*
X763608Y508254D01*
X765607D01*
X766607Y509254D01*
X772605Y514252D02*
X768606D01*
Y511253D01*
X770606D01*
X768606D01*
Y508254D01*
X774605Y511253D02*
X778603D01*
X780603Y513253D02*
X781602Y514252D01*
X783602D01*
X784601Y513253D01*
Y509254D01*
X783602Y508254D01*
X781602D01*
X780603Y509254D01*
Y513253D01*
X786601D02*
X787600Y514252D01*
X789600D01*
X790599Y513253D01*
Y509254D01*
X789600Y508254D01*
X787600D01*
X786601Y509254D01*
Y513253D01*
X795598Y508254D02*
Y514252D01*
X792599Y511253D01*
X796597D01*
X762608Y496254D02*
Y502252D01*
X765607D01*
X766607Y501253D01*
Y499253D01*
X765607Y498254D01*
X762608D01*
X768606Y496254D02*
Y502252D01*
X771605D01*
X772605Y501253D01*
Y499253D01*
X771605Y498254D01*
X768606D01*
X774605Y499253D02*
X778603D01*
X780603Y501253D02*
X781602Y502252D01*
X783602D01*
X784601Y501253D01*
Y497254D01*
X783602Y496254D01*
X781602D01*
X780603Y497254D01*
Y501253D01*
X786601Y496254D02*
X788600D01*
X787600D01*
Y502252D01*
X786601Y501253D01*
X791599Y502252D02*
X795598D01*
Y501253D01*
X791599Y497254D01*
Y496254D01*
X762608Y484254D02*
Y490252D01*
X765607D01*
X766607Y489253D01*
Y487253D01*
X765607Y486254D01*
X762608D01*
X768606Y484254D02*
Y490252D01*
X771605D01*
X772605Y489253D01*
Y487253D01*
X771605Y486254D01*
X768606D01*
X774605Y487253D02*
X778603D01*
X780603Y489253D02*
X781602Y490252D01*
X783602D01*
X784601Y489253D01*
Y485254D01*
X783602Y484254D01*
X781602D01*
X780603Y485254D01*
Y489253D01*
X786601Y484254D02*
X788600D01*
X787600D01*
Y490252D01*
X786601Y489253D01*
X791599Y490252D02*
X795598D01*
Y489253D01*
X791599Y485254D01*
Y484254D01*
X766607Y477253D02*
X765607Y478252D01*
X763608D01*
X762608Y477253D01*
Y473254D01*
X763608Y472254D01*
X765607D01*
X766607Y473254D01*
X772605Y478252D02*
X768606D01*
Y475253D01*
X770606D01*
X768606D01*
Y472254D01*
X774605Y475253D02*
X778603D01*
X780603Y477253D02*
X781602Y478252D01*
X783602D01*
X784601Y477253D01*
Y473254D01*
X783602Y472254D01*
X781602D01*
X780603Y473254D01*
Y477253D01*
X786601D02*
X787600Y478252D01*
X789600D01*
X790599Y477253D01*
Y473254D01*
X789600Y472254D01*
X787600D01*
X786601Y473254D01*
Y477253D01*
X795598Y472254D02*
Y478252D01*
X792599Y475253D01*
X796597D01*
X762608Y460254D02*
Y466252D01*
X765607D01*
X766607Y465253D01*
Y463253D01*
X765607Y462254D01*
X762608D01*
X768606Y466252D02*
Y460254D01*
X771605D01*
X772605Y461254D01*
Y462254D01*
Y463253D01*
X771605Y464253D01*
X768606D01*
X778603Y465253D02*
X777603Y466252D01*
X775604D01*
X774605Y465253D01*
Y464253D01*
X775604Y463253D01*
X777603D01*
X778603Y462254D01*
Y461254D01*
X777603Y460254D01*
X775604D01*
X774605Y461254D01*
X780603Y460254D02*
Y464253D01*
X783602D01*
X784601Y463253D01*
Y460254D01*
X766607Y453253D02*
X765607Y454252D01*
X763608D01*
X762608Y453253D01*
Y452253D01*
X763608Y451253D01*
X765607D01*
X766607Y450254D01*
Y449254D01*
X765607Y448254D01*
X763608D01*
X762608Y449254D01*
X768606Y448254D02*
Y454252D01*
X770606Y452253D01*
X772605Y454252D01*
Y448254D01*
X774605Y451253D02*
X778603D01*
X780603Y453253D02*
X781602Y454252D01*
X783602D01*
X784601Y453253D01*
Y449254D01*
X783602Y448254D01*
X781602D01*
X780603Y449254D01*
Y453253D01*
X786601D02*
X787600Y454252D01*
X789600D01*
X790599Y453253D01*
Y449254D01*
X789600Y448254D01*
X787600D01*
X786601Y449254D01*
Y453253D01*
X792599Y448254D02*
X794598D01*
X793598D01*
Y454252D01*
X792599Y453253D01*
X762608Y616254D02*
Y622252D01*
X764608Y620253D01*
X766607Y622252D01*
Y616254D01*
X769606Y620253D02*
X771605D01*
X772605Y619253D01*
Y616254D01*
X769606D01*
X768606Y617254D01*
X769606Y618254D01*
X772605D01*
X775604Y621253D02*
Y620253D01*
X774605D01*
X776604D01*
X775604D01*
Y617254D01*
X776604Y616254D01*
X782602D02*
X780603D01*
X779603Y617254D01*
Y619253D01*
X780603Y620253D01*
X782602D01*
X783602Y619253D01*
Y618254D01*
X779603D01*
X785601Y620253D02*
Y616254D01*
Y618254D01*
X786601Y619253D01*
X787600Y620253D01*
X788600D01*
X791599Y616254D02*
X793598D01*
X792599D01*
Y620253D01*
X791599D01*
X797597D02*
X799596D01*
X800596Y619253D01*
Y616254D01*
X797597D01*
X796597Y617254D01*
X797597Y618254D01*
X800596D01*
X802595Y616254D02*
X804595D01*
X803595D01*
Y622252D01*
X802595D01*
X629647Y610252D02*
X633645D01*
X631646D01*
Y604254D01*
X636645D02*
X638644D01*
X639644Y605254D01*
Y607253D01*
X638644Y608253D01*
X636645D01*
X635645Y607253D01*
Y605254D01*
X636645Y604254D01*
X641643Y602255D02*
Y608253D01*
X644642D01*
X645642Y607253D01*
Y605254D01*
X644642Y604254D01*
X641643D01*
X656638Y610252D02*
X654639D01*
X653639Y609253D01*
Y605254D01*
X654639Y604254D01*
X656638D01*
X657638Y605254D01*
Y609253D01*
X656638Y610252D01*
X659637Y608253D02*
X661636Y604254D01*
X663636Y608253D01*
X668634Y604254D02*
X666635D01*
X665635Y605254D01*
Y607253D01*
X666635Y608253D01*
X668634D01*
X669634Y607253D01*
Y606254D01*
X665635D01*
X671633Y608253D02*
Y604254D01*
Y606254D01*
X672633Y607253D01*
X673633Y608253D01*
X674632D01*
X677631Y604254D02*
X679631D01*
X678631D01*
Y610252D01*
X677631D01*
X683629Y608253D02*
X685629D01*
X686628Y607253D01*
Y604254D01*
X683629D01*
X682630Y605254D01*
X683629Y606254D01*
X686628D01*
X688628Y608253D02*
Y605254D01*
X689627Y604254D01*
X692626D01*
Y603255D01*
X691627Y602255D01*
X690627D01*
X692626Y604254D02*
Y608253D01*
X629647Y598252D02*
X633645D01*
X631646D01*
Y592254D01*
X636645D02*
X638644D01*
X639644Y593254D01*
Y595253D01*
X638644Y596253D01*
X636645D01*
X635645Y595253D01*
Y593254D01*
X636645Y592254D01*
X641643Y590255D02*
Y596253D01*
X644642D01*
X645642Y595253D01*
Y593254D01*
X644642Y592254D01*
X641643D01*
X657638Y597253D02*
X656638Y598252D01*
X654639D01*
X653639Y597253D01*
Y596253D01*
X654639Y595253D01*
X656638D01*
X657638Y594254D01*
Y593254D01*
X656638Y592254D01*
X654639D01*
X653639Y593254D01*
X660637Y592254D02*
X662636D01*
X663636Y593254D01*
Y595253D01*
X662636Y596253D01*
X660637D01*
X659637Y595253D01*
Y593254D01*
X660637Y592254D01*
X665635D02*
X667634D01*
X666635D01*
Y598252D01*
X665635D01*
X674632D02*
Y592254D01*
X671633D01*
X670634Y593254D01*
Y595253D01*
X671633Y596253D01*
X674632D01*
X679631Y592254D02*
X677631D01*
X676632Y593254D01*
Y595253D01*
X677631Y596253D01*
X679631D01*
X680630Y595253D01*
Y594254D01*
X676632D01*
X682630Y596253D02*
Y592254D01*
Y594254D01*
X683629Y595253D01*
X684629Y596253D01*
X685629D01*
X629647Y586252D02*
X633645D01*
X631646D01*
Y580254D01*
X636645D02*
X638644D01*
X639644Y581254D01*
Y583253D01*
X638644Y584253D01*
X636645D01*
X635645Y583253D01*
Y581254D01*
X636645Y580254D01*
X641643Y578255D02*
Y584253D01*
X644642D01*
X645642Y583253D01*
Y581254D01*
X644642Y580254D01*
X641643D01*
X657638Y585253D02*
X656638Y586252D01*
X654639D01*
X653639Y585253D01*
Y584253D01*
X654639Y583253D01*
X656638D01*
X657638Y582254D01*
Y581254D01*
X656638Y580254D01*
X654639D01*
X653639Y581254D01*
X659637Y584253D02*
Y581254D01*
X660637Y580254D01*
X663636D01*
Y584253D01*
X665635D02*
Y580254D01*
Y582254D01*
X666635Y583253D01*
X667634Y584253D01*
X668634D01*
X672633Y580254D02*
Y585253D01*
Y583253D01*
X671633D01*
X673633D01*
X672633D01*
Y585253D01*
X673633Y586252D01*
X677631Y584253D02*
X679631D01*
X680630Y583253D01*
Y580254D01*
X677631D01*
X676632Y581254D01*
X677631Y582254D01*
X680630D01*
X686628Y584253D02*
X683629D01*
X682630Y583253D01*
Y581254D01*
X683629Y580254D01*
X686628D01*
X691627D02*
X689627D01*
X688628Y581254D01*
Y583253D01*
X689627Y584253D01*
X691627D01*
X692626Y583253D01*
Y582254D01*
X688628D01*
X704623Y586252D02*
X700624D01*
Y583253D01*
X702623D01*
X700624D01*
Y580254D01*
X706622D02*
X708621D01*
X707622D01*
Y584253D01*
X706622D01*
X711620Y580254D02*
Y584253D01*
X714619D01*
X715619Y583253D01*
Y580254D01*
X717618D02*
X719618D01*
X718618D01*
Y584253D01*
X717618D01*
X722617Y580254D02*
X725616D01*
X726615Y581254D01*
X725616Y582254D01*
X723616D01*
X722617Y583253D01*
X723616Y584253D01*
X726615D01*
X728615Y586252D02*
Y580254D01*
Y583253D01*
X729614Y584253D01*
X731614D01*
X732614Y583253D01*
Y580254D01*
X629647Y574252D02*
X633645D01*
X631646D01*
Y568254D01*
X636645D02*
X638644D01*
X639644Y569254D01*
Y571253D01*
X638644Y572253D01*
X636645D01*
X635645Y571253D01*
Y569254D01*
X636645Y568254D01*
X641643Y566255D02*
Y572253D01*
X644642D01*
X645642Y571253D01*
Y569254D01*
X644642Y568254D01*
X641643D01*
X653639Y574252D02*
Y568254D01*
X657638D01*
X660637Y572253D02*
X662636D01*
X663636Y571253D01*
Y568254D01*
X660637D01*
X659637Y569254D01*
X660637Y570254D01*
X663636D01*
X665635Y572253D02*
Y569254D01*
X666635Y568254D01*
X669634D01*
Y567255D01*
X668634Y566255D01*
X667634D01*
X669634Y568254D02*
Y572253D01*
X674632Y568254D02*
X672633D01*
X671633Y569254D01*
Y571253D01*
X672633Y572253D01*
X674632D01*
X675632Y571253D01*
Y570254D01*
X671633D01*
X677631Y572253D02*
Y568254D01*
Y570254D01*
X678631Y571253D01*
X679631Y572253D01*
X680630D01*
X629647Y562252D02*
Y556254D01*
X632646D01*
X633645Y557254D01*
Y561253D01*
X632646Y562252D01*
X629647D01*
X635645Y556254D02*
X637644D01*
X636645D01*
Y560253D01*
X635645D01*
X643642Y556254D02*
X641643D01*
X640643Y557254D01*
Y559253D01*
X641643Y560253D01*
X643642D01*
X644642Y559253D01*
Y558254D01*
X640643D01*
X646641Y556254D02*
X648641D01*
X647641D01*
Y562252D01*
X646641D01*
X654639Y556254D02*
X652639D01*
X651640Y557254D01*
Y559253D01*
X652639Y560253D01*
X654639D01*
X655638Y559253D01*
Y558254D01*
X651640D01*
X661636Y560253D02*
X658637D01*
X657638Y559253D01*
Y557254D01*
X658637Y556254D01*
X661636D01*
X664636Y561253D02*
Y560253D01*
X663636D01*
X665635D01*
X664636D01*
Y557254D01*
X665635Y556254D01*
X668634Y560253D02*
Y556254D01*
Y558254D01*
X669634Y559253D01*
X670634Y560253D01*
X671633D01*
X674632Y556254D02*
X676632D01*
X675632D01*
Y560253D01*
X674632D01*
X683629D02*
X680630D01*
X679631Y559253D01*
Y557254D01*
X680630Y556254D01*
X683629D01*
X691627D02*
X693626D01*
X692626D01*
Y562252D01*
X691627Y561253D01*
X629647Y550252D02*
Y544254D01*
X632646D01*
X633645Y545254D01*
Y549253D01*
X632646Y550252D01*
X629647D01*
X635645Y544254D02*
X637644D01*
X636645D01*
Y548253D01*
X635645D01*
X643642Y544254D02*
X641643D01*
X640643Y545254D01*
Y547253D01*
X641643Y548253D01*
X643642D01*
X644642Y547253D01*
Y546254D01*
X640643D01*
X646641Y544254D02*
X648641D01*
X647641D01*
Y550252D01*
X646641D01*
X654639Y544254D02*
X652639D01*
X651640Y545254D01*
Y547253D01*
X652639Y548253D01*
X654639D01*
X655638Y547253D01*
Y546254D01*
X651640D01*
X661636Y548253D02*
X658637D01*
X657638Y547253D01*
Y545254D01*
X658637Y544254D01*
X661636D01*
X664636Y549253D02*
Y548253D01*
X663636D01*
X665635D01*
X664636D01*
Y545254D01*
X665635Y544254D01*
X668634Y548253D02*
Y544254D01*
Y546254D01*
X669634Y547253D01*
X670634Y548253D01*
X671633D01*
X674632Y544254D02*
X676632D01*
X675632D01*
Y548253D01*
X674632D01*
X683629D02*
X680630D01*
X679631Y547253D01*
Y545254D01*
X680630Y544254D01*
X683629D01*
X695625D02*
X691627D01*
X695625Y548253D01*
Y549253D01*
X694626Y550252D01*
X692626D01*
X691627Y549253D01*
X629647Y538252D02*
X631646D01*
X630647D01*
Y532254D01*
X629647D01*
X631646D01*
X634645D02*
Y536253D01*
X637644D01*
X638644Y535253D01*
Y532254D01*
X641643Y537253D02*
Y536253D01*
X640643D01*
X642643D01*
X641643D01*
Y533254D01*
X642643Y532254D01*
X645642D02*
X647641D01*
X646641D01*
Y538252D01*
X645642Y537253D01*
X658637Y532254D02*
X656638Y534254D01*
Y536253D01*
X658637Y538252D01*
X665635Y537253D02*
X664636Y538252D01*
X662636D01*
X661636Y537253D01*
Y533254D01*
X662636Y532254D01*
X664636D01*
X665635Y533254D01*
Y535253D01*
X663636D01*
X667634Y532254D02*
Y538252D01*
X671633Y532254D01*
Y538252D01*
X673633D02*
Y532254D01*
X676632D01*
X677631Y533254D01*
Y537253D01*
X676632Y538252D01*
X673633D01*
X679631Y532254D02*
X681630Y534254D01*
Y536253D01*
X679631Y538252D01*
X629647Y526252D02*
Y520254D01*
X632646D01*
X633645Y521254D01*
Y525253D01*
X632646Y526252D01*
X629647D01*
X635645Y520254D02*
X637644D01*
X636645D01*
Y524253D01*
X635645D01*
X643642Y520254D02*
X641643D01*
X640643Y521254D01*
Y523253D01*
X641643Y524253D01*
X643642D01*
X644642Y523253D01*
Y522254D01*
X640643D01*
X646641Y520254D02*
X648641D01*
X647641D01*
Y526252D01*
X646641D01*
X654639Y520254D02*
X652639D01*
X651640Y521254D01*
Y523253D01*
X652639Y524253D01*
X654639D01*
X655638Y523253D01*
Y522254D01*
X651640D01*
X661636Y524253D02*
X658637D01*
X657638Y523253D01*
Y521254D01*
X658637Y520254D01*
X661636D01*
X664636Y525253D02*
Y524253D01*
X663636D01*
X665635D01*
X664636D01*
Y521254D01*
X665635Y520254D01*
X668634Y524253D02*
Y520254D01*
Y522254D01*
X669634Y523253D01*
X670634Y524253D01*
X671633D01*
X674632Y520254D02*
X676632D01*
X675632D01*
Y524253D01*
X674632D01*
X683629D02*
X680630D01*
X679631Y523253D01*
Y521254D01*
X680630Y520254D01*
X683629D01*
X691627Y525253D02*
X692626Y526252D01*
X694626D01*
X695625Y525253D01*
Y524253D01*
X694626Y523253D01*
X693626D01*
X694626D01*
X695625Y522254D01*
Y521254D01*
X694626Y520254D01*
X692626D01*
X691627Y521254D01*
X629647Y514252D02*
X631646D01*
X630647D01*
Y508254D01*
X629647D01*
X631646D01*
X634645D02*
Y512253D01*
X637644D01*
X638644Y511253D01*
Y508254D01*
X641643Y513253D02*
Y512253D01*
X640643D01*
X642643D01*
X641643D01*
Y509254D01*
X642643Y508254D01*
X649640D02*
X645642D01*
X649640Y512253D01*
Y513253D01*
X648641Y514252D01*
X646641D01*
X645642Y513253D01*
X659637Y508254D02*
X657638Y510254D01*
Y512253D01*
X659637Y514252D01*
X662636Y508254D02*
Y514252D01*
X665635D01*
X666635Y513253D01*
Y511253D01*
X665635Y510254D01*
X662636D01*
X668634Y514252D02*
Y508254D01*
X670634Y510254D01*
X672633Y508254D01*
Y514252D01*
X674632Y508254D02*
Y514252D01*
X677631D01*
X678631Y513253D01*
Y511253D01*
X677631Y510254D01*
X674632D01*
X676632D02*
X678631Y508254D01*
X680630D02*
X682630Y510254D01*
Y512253D01*
X680630Y514252D01*
X629647Y502252D02*
Y496254D01*
X632646D01*
X633645Y497254D01*
Y501253D01*
X632646Y502252D01*
X629647D01*
X635645Y496254D02*
X637644D01*
X636645D01*
Y500253D01*
X635645D01*
X643642Y496254D02*
X641643D01*
X640643Y497254D01*
Y499253D01*
X641643Y500253D01*
X643642D01*
X644642Y499253D01*
Y498254D01*
X640643D01*
X646641Y496254D02*
X648641D01*
X647641D01*
Y502252D01*
X646641D01*
X654639Y496254D02*
X652639D01*
X651640Y497254D01*
Y499253D01*
X652639Y500253D01*
X654639D01*
X655638Y499253D01*
Y498254D01*
X651640D01*
X661636Y500253D02*
X658637D01*
X657638Y499253D01*
Y497254D01*
X658637Y496254D01*
X661636D01*
X664636Y501253D02*
Y500253D01*
X663636D01*
X665635D01*
X664636D01*
Y497254D01*
X665635Y496254D01*
X668634Y500253D02*
Y496254D01*
Y498254D01*
X669634Y499253D01*
X670634Y500253D01*
X671633D01*
X674632Y496254D02*
X676632D01*
X675632D01*
Y500253D01*
X674632D01*
X683629D02*
X680630D01*
X679631Y499253D01*
Y497254D01*
X680630Y496254D01*
X683629D01*
X694626D02*
Y502252D01*
X691627Y499253D01*
X695625D01*
X629647Y490252D02*
Y484254D01*
X632646D01*
X633645Y485254D01*
Y489253D01*
X632646Y490252D01*
X629647D01*
X635645Y484254D02*
X637644D01*
X636645D01*
Y488253D01*
X635645D01*
X643642Y484254D02*
X641643D01*
X640643Y485254D01*
Y487253D01*
X641643Y488253D01*
X643642D01*
X644642Y487253D01*
Y486254D01*
X640643D01*
X646641Y484254D02*
X648641D01*
X647641D01*
Y490252D01*
X646641D01*
X654639Y484254D02*
X652639D01*
X651640Y485254D01*
Y487253D01*
X652639Y488253D01*
X654639D01*
X655638Y487253D01*
Y486254D01*
X651640D01*
X661636Y488253D02*
X658637D01*
X657638Y487253D01*
Y485254D01*
X658637Y484254D01*
X661636D01*
X664636Y489253D02*
Y488253D01*
X663636D01*
X665635D01*
X664636D01*
Y485254D01*
X665635Y484254D01*
X668634Y488253D02*
Y484254D01*
Y486254D01*
X669634Y487253D01*
X670634Y488253D01*
X671633D01*
X674632Y484254D02*
X676632D01*
X675632D01*
Y488253D01*
X674632D01*
X683629D02*
X680630D01*
X679631Y487253D01*
Y485254D01*
X680630Y484254D01*
X683629D01*
X695625Y490252D02*
X691627D01*
Y487253D01*
X693626Y488253D01*
X694626D01*
X695625Y487253D01*
Y485254D01*
X694626Y484254D01*
X692626D01*
X691627Y485254D01*
X629647Y478252D02*
Y472254D01*
X632646D01*
X633645Y473254D01*
Y474254D01*
X632646Y475253D01*
X629647D01*
X632646D01*
X633645Y476253D01*
Y477253D01*
X632646Y478252D01*
X629647D01*
X636645Y472254D02*
X638644D01*
X639644Y473254D01*
Y475253D01*
X638644Y476253D01*
X636645D01*
X635645Y475253D01*
Y473254D01*
X636645Y472254D01*
X642643Y477253D02*
Y476253D01*
X641643D01*
X643642D01*
X642643D01*
Y473254D01*
X643642Y472254D01*
X647641Y477253D02*
Y476253D01*
X646641D01*
X648641D01*
X647641D01*
Y473254D01*
X648641Y472254D01*
X652639D02*
X654639D01*
X655638Y473254D01*
Y475253D01*
X654639Y476253D01*
X652639D01*
X651640Y475253D01*
Y473254D01*
X652639Y472254D01*
X657638D02*
Y476253D01*
X658637D01*
X659637Y475253D01*
Y472254D01*
Y475253D01*
X660637Y476253D01*
X661636Y475253D01*
Y472254D01*
X669634Y478252D02*
Y472254D01*
X673633D01*
X676632Y476253D02*
X678631D01*
X679631Y475253D01*
Y472254D01*
X676632D01*
X675632Y473254D01*
X676632Y474254D01*
X679631D01*
X681630Y476253D02*
Y473254D01*
X682630Y472254D01*
X685629D01*
Y471255D01*
X684629Y470255D01*
X683629D01*
X685629Y472254D02*
Y476253D01*
X690627Y472254D02*
X688628D01*
X687628Y473254D01*
Y475253D01*
X688628Y476253D01*
X690627D01*
X691627Y475253D01*
Y474254D01*
X687628D01*
X693626Y476253D02*
Y472254D01*
Y474254D01*
X694626Y475253D01*
X695625Y476253D01*
X696625D01*
X629647Y466252D02*
Y460254D01*
X632646D01*
X633645Y461254D01*
Y462254D01*
X632646Y463253D01*
X629647D01*
X632646D01*
X633645Y464253D01*
Y465253D01*
X632646Y466252D01*
X629647D01*
X636645Y460254D02*
X638644D01*
X639644Y461254D01*
Y463253D01*
X638644Y464253D01*
X636645D01*
X635645Y463253D01*
Y461254D01*
X636645Y460254D01*
X642643Y465253D02*
Y464253D01*
X641643D01*
X643642D01*
X642643D01*
Y461254D01*
X643642Y460254D01*
X647641Y465253D02*
Y464253D01*
X646641D01*
X648641D01*
X647641D01*
Y461254D01*
X648641Y460254D01*
X652639D02*
X654639D01*
X655638Y461254D01*
Y463253D01*
X654639Y464253D01*
X652639D01*
X651640Y463253D01*
Y461254D01*
X652639Y460254D01*
X657638D02*
Y464253D01*
X658637D01*
X659637Y463253D01*
Y460254D01*
Y463253D01*
X660637Y464253D01*
X661636Y463253D01*
Y460254D01*
X673633Y465253D02*
X672633Y466252D01*
X670634D01*
X669634Y465253D01*
Y464253D01*
X670634Y463253D01*
X672633D01*
X673633Y462254D01*
Y461254D01*
X672633Y460254D01*
X670634D01*
X669634Y461254D01*
X675632Y464253D02*
Y461254D01*
X676632Y460254D01*
X679631D01*
Y464253D01*
X681630D02*
Y460254D01*
Y462254D01*
X682630Y463253D01*
X683629Y464253D01*
X684629D01*
X688628Y460254D02*
Y465253D01*
Y463253D01*
X687628D01*
X689627D01*
X688628D01*
Y465253D01*
X689627Y466252D01*
X693626Y464253D02*
X695625D01*
X696625Y463253D01*
Y460254D01*
X693626D01*
X692626Y461254D01*
X693626Y462254D01*
X696625D01*
X702623Y464253D02*
X699624D01*
X698625Y463253D01*
Y461254D01*
X699624Y460254D01*
X702623D01*
X707622D02*
X705622D01*
X704623Y461254D01*
Y463253D01*
X705622Y464253D01*
X707622D01*
X708621Y463253D01*
Y462254D01*
X704623D01*
X720617Y466252D02*
X716619D01*
Y463253D01*
X718618D01*
X716619D01*
Y460254D01*
X722617D02*
X724616D01*
X723616D01*
Y464253D01*
X722617D01*
X727615Y460254D02*
Y464253D01*
X730614D01*
X731614Y463253D01*
Y460254D01*
X733613D02*
X735612D01*
X734613D01*
Y464253D01*
X733613D01*
X738612Y460254D02*
X741611D01*
X742610Y461254D01*
X741611Y462254D01*
X739611D01*
X738612Y463253D01*
X739611Y464253D01*
X742610D01*
X744610Y466252D02*
Y460254D01*
Y463253D01*
X745609Y464253D01*
X747609D01*
X748608Y463253D01*
Y460254D01*
X629647Y454252D02*
Y448254D01*
X632646D01*
X633645Y449254D01*
Y450254D01*
X632646Y451253D01*
X629647D01*
X632646D01*
X633645Y452253D01*
Y453253D01*
X632646Y454252D01*
X629647D01*
X636645Y448254D02*
X638644D01*
X639644Y449254D01*
Y451253D01*
X638644Y452253D01*
X636645D01*
X635645Y451253D01*
Y449254D01*
X636645Y448254D01*
X642643Y453253D02*
Y452253D01*
X641643D01*
X643642D01*
X642643D01*
Y449254D01*
X643642Y448254D01*
X647641Y453253D02*
Y452253D01*
X646641D01*
X648641D01*
X647641D01*
Y449254D01*
X648641Y448254D01*
X652639D02*
X654639D01*
X655638Y449254D01*
Y451253D01*
X654639Y452253D01*
X652639D01*
X651640Y451253D01*
Y449254D01*
X652639Y448254D01*
X657638D02*
Y452253D01*
X658637D01*
X659637Y451253D01*
Y448254D01*
Y451253D01*
X660637Y452253D01*
X661636Y451253D01*
Y448254D01*
X673633Y453253D02*
X672633Y454252D01*
X670634D01*
X669634Y453253D01*
Y452253D01*
X670634Y451253D01*
X672633D01*
X673633Y450254D01*
Y449254D01*
X672633Y448254D01*
X670634D01*
X669634Y449254D01*
X676632Y448254D02*
X678631D01*
X679631Y449254D01*
Y451253D01*
X678631Y452253D01*
X676632D01*
X675632Y451253D01*
Y449254D01*
X676632Y448254D01*
X681630D02*
X683629D01*
X682630D01*
Y454252D01*
X681630D01*
X690627D02*
Y448254D01*
X687628D01*
X686628Y449254D01*
Y451253D01*
X687628Y452253D01*
X690627D01*
X695625Y448254D02*
X693626D01*
X692626Y449254D01*
Y451253D01*
X693626Y452253D01*
X695625D01*
X696625Y451253D01*
Y450254D01*
X692626D01*
X698625Y452253D02*
Y448254D01*
Y450254D01*
X699624Y451253D01*
X700624Y452253D01*
X701623D01*
X629647Y442252D02*
Y436254D01*
X632646D01*
X633645Y437254D01*
Y438254D01*
X632646Y439253D01*
X629647D01*
X632646D01*
X633645Y440253D01*
Y441253D01*
X632646Y442252D01*
X629647D01*
X636645Y436254D02*
X638644D01*
X639644Y437254D01*
Y439253D01*
X638644Y440253D01*
X636645D01*
X635645Y439253D01*
Y437254D01*
X636645Y436254D01*
X642643Y441253D02*
Y440253D01*
X641643D01*
X643642D01*
X642643D01*
Y437254D01*
X643642Y436254D01*
X647641Y441253D02*
Y440253D01*
X646641D01*
X648641D01*
X647641D01*
Y437254D01*
X648641Y436254D01*
X652639D02*
X654639D01*
X655638Y437254D01*
Y439253D01*
X654639Y440253D01*
X652639D01*
X651640Y439253D01*
Y437254D01*
X652639Y436254D01*
X657638D02*
Y440253D01*
X658637D01*
X659637Y439253D01*
Y436254D01*
Y439253D01*
X660637Y440253D01*
X661636Y439253D01*
Y436254D01*
X672633Y442252D02*
X670634D01*
X669634Y441253D01*
Y437254D01*
X670634Y436254D01*
X672633D01*
X673633Y437254D01*
Y441253D01*
X672633Y442252D01*
X675632Y440253D02*
X677631Y436254D01*
X679631Y440253D01*
X684629Y436254D02*
X682630D01*
X681630Y437254D01*
Y439253D01*
X682630Y440253D01*
X684629D01*
X685629Y439253D01*
Y438254D01*
X681630D01*
X687628Y440253D02*
Y436254D01*
Y438254D01*
X688628Y439253D01*
X689627Y440253D01*
X690627D01*
X693626Y436254D02*
X695625D01*
X694626D01*
Y442252D01*
X693626D01*
X699624Y440253D02*
X701623D01*
X702623Y439253D01*
Y436254D01*
X699624D01*
X698625Y437254D01*
X699624Y438254D01*
X702623D01*
X704623Y440253D02*
Y437254D01*
X705622Y436254D01*
X708621D01*
Y435255D01*
X707622Y434255D01*
X706622D01*
X708621Y436254D02*
Y440253D01*
X629647Y616254D02*
Y622252D01*
X633645Y616254D01*
Y622252D01*
X636645Y620253D02*
X638644D01*
X639644Y619253D01*
Y616254D01*
X636645D01*
X635645Y617254D01*
X636645Y618254D01*
X639644D01*
X641643Y616254D02*
Y620253D01*
X642643D01*
X643642Y619253D01*
Y616254D01*
Y619253D01*
X644642Y620253D01*
X645642Y619253D01*
Y616254D01*
X650640D02*
X648641D01*
X647641Y617254D01*
Y619253D01*
X648641Y620253D01*
X650640D01*
X651640Y619253D01*
Y618254D01*
X647641D01*
X588656Y568254D02*
X590655D01*
X589655D01*
Y574252D01*
X588656Y573253D01*
X592654Y532254D02*
X588656D01*
X592654Y536253D01*
Y537253D01*
X591655Y538252D01*
X589655D01*
X588656Y537253D01*
Y513253D02*
X589655Y514252D01*
X591655D01*
X592654Y513253D01*
Y512253D01*
X591655Y511253D01*
X590655D01*
X591655D01*
X592654Y510254D01*
Y509254D01*
X591655Y508254D01*
X589655D01*
X588656Y509254D01*
X591655Y472254D02*
Y478252D01*
X588656Y475253D01*
X592654D01*
X588656Y622252D02*
Y616254D01*
X592654D01*
X595653Y620253D02*
X597653D01*
X598652Y619253D01*
Y616254D01*
X595653D01*
X594654Y617254D01*
X595653Y618254D01*
X598652D01*
X600652Y620253D02*
Y617254D01*
X601651Y616254D01*
X604650D01*
Y615255D01*
X603651Y614255D01*
X602651D01*
X604650Y616254D02*
Y620253D01*
X609649Y616254D02*
X607649D01*
X606650Y617254D01*
Y619253D01*
X607649Y620253D01*
X609649D01*
X610648Y619253D01*
Y618254D01*
X606650D01*
X612648Y620253D02*
Y616254D01*
Y618254D01*
X613648Y619253D01*
X614647Y620253D01*
X615647D01*
D85*
X581656Y410156D02*
X581656Y40617D01*
X581656Y410156D02*
X581656Y411473D01*
X581999Y414085D01*
X582681Y416630D01*
X583689Y419064D01*
X585007Y421346D01*
X586611Y423436D01*
X588474Y425299D01*
X590564Y426903D01*
X592846Y428220D01*
X595280Y429228D01*
X597825Y429910D01*
X600437Y430254D01*
X601754D01*
X1032312Y430235D01*
X1033437Y430241D01*
X1035669Y429959D01*
X1037846Y429388D01*
X1039929Y428536D01*
X1041882Y427418D01*
X1043672Y426054D01*
X1045267Y424468D01*
X1046642Y422686D01*
X1047771Y420739D01*
X1048635Y418661D01*
X1049219Y416488D01*
X1049514Y414257D01*
X1049514Y413132D02*
X1049514Y414257D01*
X1049514Y413132D02*
X1049531Y40510D01*
Y39427D02*
Y40510D01*
X1049249Y37278D02*
X1049531Y39427D01*
X1048688Y35185D02*
X1049249Y37278D01*
X1047858Y33183D02*
X1048688Y35185D01*
X1046775Y31306D02*
X1047858Y33183D01*
X1045456Y29587D02*
X1046775Y31306D01*
X1043923Y28054D02*
X1045456Y29587D01*
X1042204Y26735D02*
X1043923Y28054D01*
X1040327Y25651D02*
X1042204Y26735D01*
X1038325Y24822D02*
X1040327Y25651D01*
X1036232Y24261D02*
X1038325Y24822D01*
X1034083Y23978D02*
X1036232Y24261D01*
X1033000Y23978D02*
X1034083D01*
X598188Y24062D02*
X1033000Y23978D01*
X597105Y24085D02*
X598188Y24062D01*
X594956Y24368D02*
X597105Y24085D01*
X592863Y24929D02*
X594956Y24368D01*
X590861Y25758D02*
X592863Y24929D01*
X588984Y26842D02*
X590861Y25758D01*
X587265Y28161D02*
X588984Y26842D01*
X585732Y29693D02*
X587265Y28161D01*
X584413Y31413D02*
X585732Y29693D01*
X583329Y33289D02*
X584413Y31413D01*
X582500Y35292D02*
X583329Y33289D01*
X581939Y37385D02*
X582500Y35292D01*
X581656Y39533D02*
X581939Y37385D01*
X581656Y39533D02*
Y40617D01*
X1049531Y433254D02*
Y625254D01*
X937563Y601254D02*
X1049531D01*
X937563Y589254D02*
X1049531D01*
X937563Y577254D02*
X1049531D01*
X937563Y565254D02*
X1049531D01*
X937563Y553254D02*
X1049531D01*
X937563Y541254D02*
X1049531D01*
X937563Y529254D02*
X1049531D01*
X937563Y517254D02*
X1049531D01*
X937563Y505254D02*
X1049531D01*
X937563Y493254D02*
X1049531D01*
X937563Y481254D02*
X1049531D01*
X937563Y469254D02*
X1049531D01*
X937563Y457254D02*
X1049531D01*
X937563Y445254D02*
X1049531D01*
X937563Y433254D02*
X1049531D01*
X937563D02*
Y625254D01*
X880577Y601254D02*
X937563D01*
X880577Y589254D02*
X937563D01*
X880577Y577254D02*
X937563D01*
X880577Y565254D02*
X937563D01*
X880577Y553254D02*
X937563D01*
X880577Y541254D02*
X937563D01*
X880577Y529254D02*
X937563D01*
X880577Y517254D02*
X937563D01*
X880577Y505254D02*
X937563D01*
X880577Y493254D02*
X937563D01*
X880577Y481254D02*
X937563D01*
X880577Y469254D02*
X937563D01*
X880577Y457254D02*
X937563D01*
X880577Y445254D02*
X937563D01*
X880577Y433254D02*
X937563D01*
X880577D02*
Y625254D01*
X815594Y601254D02*
X880577D01*
X815594Y589254D02*
X880577D01*
X815594Y577254D02*
X880577D01*
X815594Y565254D02*
X880577D01*
X815594Y553254D02*
X880577D01*
X815594Y541254D02*
X880577D01*
X815594Y529254D02*
X880577D01*
X815594Y517254D02*
X880577D01*
X815594Y505254D02*
X880577D01*
X815594Y493254D02*
X880577D01*
X815594Y481254D02*
X880577D01*
X815594Y469254D02*
X880577D01*
X815594Y457254D02*
X880577D01*
X815594Y445254D02*
X880577D01*
X815594Y433254D02*
X880577D01*
X815594D02*
Y625254D01*
X755608Y601254D02*
X815594D01*
X755608Y589254D02*
X815594D01*
X755608Y577254D02*
X815594D01*
X755608Y565254D02*
X815594D01*
X755608Y553254D02*
X815594D01*
X755608Y541254D02*
X815594D01*
X755608Y529254D02*
X815594D01*
X755608Y517254D02*
X815594D01*
X755608Y505254D02*
X815594D01*
X755608Y493254D02*
X815594D01*
X755608Y481254D02*
X815594D01*
X755608Y469254D02*
X815594D01*
X755608Y457254D02*
X815594D01*
X755608Y445254D02*
X815594D01*
X755608Y433254D02*
X815594D01*
X755608D02*
Y625254D01*
X622647Y601254D02*
X755608D01*
X622647Y589254D02*
X755608D01*
X622647Y577254D02*
X755608D01*
X622647Y565254D02*
X755608D01*
X622647Y553254D02*
X755608D01*
X622647Y541254D02*
X755608D01*
X622647Y529254D02*
X755608D01*
X622647Y517254D02*
X755608D01*
X622647Y505254D02*
X755608D01*
X622647Y493254D02*
X755608D01*
X622647Y481254D02*
X755608D01*
X622647Y469254D02*
X755608D01*
X622647Y457254D02*
X755608D01*
X622647Y445254D02*
X755608D01*
X622647Y433254D02*
X755608D01*
X622647D02*
Y625254D01*
X581656Y601254D02*
X622647D01*
X581656Y589254D02*
X622647D01*
X581656Y577254D02*
X622647D01*
X581656Y565254D02*
X622647D01*
X581656Y553254D02*
X622647D01*
X581656Y541254D02*
X622647D01*
X581656Y529254D02*
X622647D01*
X581656Y517254D02*
X622647D01*
X581656Y505254D02*
X622647D01*
X581656Y493254D02*
X622647D01*
X581656Y481254D02*
X622647D01*
X581656Y469254D02*
X622647D01*
X581656Y457254D02*
X622647D01*
X581656Y445254D02*
X622647D01*
X581656Y433254D02*
X622647D01*
X581656D02*
Y625254D01*
X1049531D01*
X581656Y613254D02*
X1049531D01*
D117*
X582103Y414550D02*
X597436Y429883D01*
X581656Y408102D02*
X603862Y430308D01*
X581656Y402102D02*
X609861Y430308D01*
X581656Y396102D02*
X615861Y430308D01*
X581656Y390103D02*
X621861Y430308D01*
X581656Y384103D02*
X627861Y430308D01*
X581656Y378102D02*
X633861Y430308D01*
X581656Y372102D02*
X639861Y430308D01*
X581656Y366103D02*
X645861Y430308D01*
X581656Y360103D02*
X651861Y430307D01*
X581656Y354103D02*
X657861Y430307D01*
X581656Y348103D02*
X663860Y430307D01*
X581656Y342103D02*
X669860Y430307D01*
X581656Y336103D02*
X675860Y430307D01*
X581656Y330103D02*
X681860Y430307D01*
X581656Y324103D02*
X687860Y430307D01*
X581656Y318103D02*
X693860Y430307D01*
X581656Y312103D02*
X699860Y430307D01*
X581656Y306103D02*
X705860Y430306D01*
X581656Y300103D02*
X711859Y430306D01*
X581656Y294103D02*
X717859Y430306D01*
X581656Y288103D02*
X723859Y430306D01*
X581656Y282103D02*
X729859Y430306D01*
X581656Y276103D02*
X735859Y430306D01*
X581656Y270103D02*
X741859Y430306D01*
X581656Y264103D02*
X747859Y430306D01*
X581656Y258103D02*
X753859Y430306D01*
X581656Y252103D02*
X759859Y430305D01*
X581656Y246103D02*
X765858Y430305D01*
X581656Y240103D02*
X771858Y430305D01*
X581656Y234103D02*
X777858Y430305D01*
X581656Y228103D02*
X783858Y430305D01*
X581656Y222103D02*
X789858Y430305D01*
X581656Y216103D02*
X795858Y430305D01*
X581656Y210103D02*
X801858Y430305D01*
X581656Y204103D02*
X807858Y430304D01*
X581656Y198103D02*
X813857Y430304D01*
X581656Y192103D02*
X819857Y430304D01*
X581656Y186103D02*
X825857Y430304D01*
X581656Y180103D02*
X831857Y430304D01*
X581656Y174103D02*
X837857Y430304D01*
X581656Y168103D02*
X843857Y430304D01*
X581656Y162103D02*
X849857Y430304D01*
X581656Y156103D02*
X855857Y430304D01*
X581656Y150103D02*
X861857Y430303D01*
X581656Y144103D02*
X867857Y430303D01*
X581656Y138103D02*
X873856Y430303D01*
X581656Y132103D02*
X879856Y430303D01*
X581656Y126103D02*
X885856Y430303D01*
X581656Y120103D02*
X891856Y430303D01*
X581656Y114103D02*
X897856Y430303D01*
X581656Y108103D02*
X903856Y430303D01*
X581656Y102103D02*
X909856Y430303D01*
X581656Y96103D02*
X915856Y430302D01*
X581656Y90103D02*
X921855Y430302D01*
X581656Y84103D02*
X927855Y430302D01*
X581656Y78103D02*
X933855Y430302D01*
X581656Y72103D02*
X939855Y430302D01*
X581656Y66103D02*
X945855Y430302D01*
X581656Y60103D02*
X951855Y430302D01*
X581656Y54103D02*
X957855Y430302D01*
X581656Y48103D02*
X963855Y430302D01*
X581656Y42103D02*
X969855Y430301D01*
X582134Y36581D02*
X975854Y430301D01*
X583855Y32302D02*
X981854Y430301D01*
X586451Y28898D02*
X987854Y430301D01*
X589830Y26277D02*
X993854Y430301D01*
X594079Y24526D02*
X999854Y430301D01*
X599539Y23986D02*
X1005854Y430301D01*
X605538Y23984D02*
X1011854Y430301D01*
X611536Y23983D02*
X1017854Y430301D01*
X617535Y23982D02*
X1023853Y430300D01*
X623534Y23981D02*
X1029853Y430300D01*
X629533Y23980D02*
X1035598Y430045D01*
X635532Y23979D02*
X1040079Y428526D01*
X641531Y23978D02*
X1043678Y426125D01*
X647530Y23976D02*
X1046500Y422947D01*
X653528Y23975D02*
X1048534Y418981D01*
X659527Y23974D02*
X1049514Y413961D01*
X665526Y23973D02*
X1049514Y407961D01*
X671525Y23972D02*
X1049515Y401962D01*
X677524Y23971D02*
X1049515Y395962D01*
X683523Y23969D02*
X1049515Y389962D01*
X689521Y23968D02*
X1049516Y383962D01*
X695520Y23967D02*
X1049516Y377963D01*
X701519Y23966D02*
X1049516Y371963D01*
X707518Y23965D02*
X1049516Y365963D01*
X713517Y23964D02*
X1049517Y359963D01*
X719516Y23963D02*
X1049517Y353964D01*
X725514Y23961D02*
X1049517Y347964D01*
X731513Y23960D02*
X1049518Y341964D01*
X737512Y23959D02*
X1049518Y335965D01*
X743511Y23958D02*
X1049518Y329965D01*
X749510Y23957D02*
X1049518Y323965D01*
X755509Y23956D02*
X1049519Y317966D01*
X761507Y23954D02*
X1049519Y311966D01*
X767506Y23953D02*
X1049519Y305966D01*
X773505Y23952D02*
X1049519Y299966D01*
X779504Y23951D02*
X1049520Y293967D01*
X785503Y23950D02*
X1049520Y287967D01*
X791502Y23948D02*
X1049520Y281967D01*
X797501Y23947D02*
X1049520Y275967D01*
X803499Y23946D02*
X1049521Y269968D01*
X809498Y23945D02*
X1049521Y263968D01*
X815497Y23944D02*
X1049521Y257968D01*
X821496Y23943D02*
X1049522Y251969D01*
X827495Y23942D02*
X1049522Y245969D01*
X833494Y23940D02*
X1049522Y239969D01*
X839493Y23940D02*
X1049522Y233969D01*
X845492Y23939D02*
X1049523Y227970D01*
X851492Y23939D02*
X1049523Y221970D01*
X857491Y23938D02*
X1049523Y215970D01*
X863491Y23938D02*
X1049524Y209970D01*
X869490Y23937D02*
X1049524Y203971D01*
X875490Y23937D02*
X1049524Y197971D01*
X881489Y23936D02*
X1049524Y191971D01*
X887489Y23936D02*
X1049525Y185972D01*
X893489Y23935D02*
X1049525Y179972D01*
X899488Y23935D02*
X1049525Y173972D01*
X905488Y23934D02*
X1049526Y167973D01*
X911487Y23934D02*
X1049526Y161973D01*
X917487Y23934D02*
X1049526Y155973D01*
X923486Y23933D02*
X1049526Y149973D01*
X929486Y23933D02*
X1049527Y143974D01*
X935485Y23932D02*
X1049527Y137974D01*
X941485Y23932D02*
X1049527Y131974D01*
X947484Y23931D02*
X1049527Y125974D01*
X953484Y23931D02*
X1049528Y119975D01*
X959483Y23930D02*
X1049528Y113975D01*
X965483Y23930D02*
X1049528Y107975D01*
X971482Y23929D02*
X1049529Y101976D01*
X977482Y23929D02*
X1049529Y95976D01*
X983481Y23928D02*
X1049529Y89976D01*
X989481Y23928D02*
X1049529Y83976D01*
X995480Y23927D02*
X1049530Y77977D01*
X1001480Y23927D02*
X1049530Y71977D01*
X1007479Y23926D02*
X1049530Y65977D01*
X1013479Y23926D02*
X1049531Y59977D01*
X1019478Y23925D02*
X1049531Y53978D01*
X1025478Y23925D02*
X1049531Y47978D01*
X1031477Y23924D02*
X1049531Y41978D01*
X1038289Y24736D02*
X1048697Y35144D01*
X937563Y609286D02*
X941531Y613254D01*
X937563Y603286D02*
X947531Y613254D01*
X941531Y601254D02*
X953531Y613254D01*
X947531Y601254D02*
X959531Y613254D01*
X953531Y601254D02*
X965531Y613254D01*
X959531Y601254D02*
X971531Y613254D01*
X965531Y601254D02*
X977531Y613254D01*
X971531Y601254D02*
X983531Y613254D01*
X977531Y601254D02*
X989531Y613254D01*
X983531Y601254D02*
X995531Y613254D01*
X989531Y601254D02*
X1001531Y613254D01*
X995531Y601254D02*
X1007531Y613254D01*
X1001531Y601254D02*
X1013531Y613254D01*
X1007531Y601254D02*
X1019531Y613254D01*
X1013531Y601254D02*
X1025531Y613254D01*
X1019531Y601254D02*
X1031531Y613254D01*
X1025531Y601254D02*
X1037531Y613254D01*
X1031531Y601254D02*
X1043531Y613254D01*
X1037531Y601254D02*
X1049531Y613254D01*
X1043531Y601254D02*
X1049531Y607254D01*
X937563Y597286D02*
X941531Y601254D01*
X937563Y591286D02*
X947531Y601254D01*
X941531Y589254D02*
X953531Y601254D01*
X947531Y589254D02*
X959531Y601254D01*
X953531Y589254D02*
X965531Y601254D01*
X959531Y589254D02*
X971531Y601254D01*
X965531Y589254D02*
X977531Y601254D01*
X971531Y589254D02*
X983531Y601254D01*
X977531Y589254D02*
X989531Y601254D01*
X983531Y589254D02*
X995531Y601254D01*
X989531Y589254D02*
X1001531Y601254D01*
X995531Y589254D02*
X1007531Y601254D01*
X1001531Y589254D02*
X1013531Y601254D01*
X1007531Y589254D02*
X1019531Y601254D01*
X1013531Y589254D02*
X1025531Y601254D01*
X1019531Y589254D02*
X1031531Y601254D01*
X1025531Y589254D02*
X1037531Y601254D01*
X1031531Y589254D02*
X1043531Y601254D01*
X1037531Y589254D02*
X1049531Y601254D01*
X1043531Y589254D02*
X1049531Y595254D01*
X937563Y585286D02*
X941531Y589254D01*
X937563Y579286D02*
X947531Y589254D01*
X941531Y577254D02*
X953531Y589254D01*
X947531Y577254D02*
X959531Y589254D01*
X953531Y577254D02*
X965531Y589254D01*
X959531Y577254D02*
X971531Y589254D01*
X965531Y577254D02*
X977531Y589254D01*
X971531Y577254D02*
X983531Y589254D01*
X977531Y577254D02*
X989531Y589254D01*
X983531Y577254D02*
X995531Y589254D01*
X989531Y577254D02*
X1001531Y589254D01*
X995531Y577254D02*
X1007531Y589254D01*
X1001531Y577254D02*
X1013531Y589254D01*
X1007531Y577254D02*
X1019531Y589254D01*
X1013531Y577254D02*
X1025531Y589254D01*
X1019531Y577254D02*
X1031531Y589254D01*
X1025531Y577254D02*
X1037531Y589254D01*
X1031531Y577254D02*
X1043531Y589254D01*
X1037531Y577254D02*
X1049531Y589254D01*
X1043531Y577254D02*
X1049531Y583254D01*
X937563Y573286D02*
X941531Y577254D01*
X937563Y567286D02*
X947531Y577254D01*
X941531Y565254D02*
X953531Y577254D01*
X947531Y565254D02*
X959531Y577254D01*
X953531Y565254D02*
X965531Y577254D01*
X959531Y565254D02*
X971531Y577254D01*
X965531Y565254D02*
X977531Y577254D01*
X971531Y565254D02*
X983531Y577254D01*
X977531Y565254D02*
X989531Y577254D01*
X983531Y565254D02*
X995531Y577254D01*
X989531Y565254D02*
X1001531Y577254D01*
X995531Y565254D02*
X1007531Y577254D01*
X1001531Y565254D02*
X1013531Y577254D01*
X1007531Y565254D02*
X1019531Y577254D01*
X1013531Y565254D02*
X1025531Y577254D01*
X1019531Y565254D02*
X1031531Y577254D01*
X1025531Y565254D02*
X1037531Y577254D01*
X1031531Y565254D02*
X1043531Y577254D01*
X1037531Y565254D02*
X1049531Y577254D01*
X1043531Y565254D02*
X1049531Y571254D01*
X937563Y561286D02*
X941531Y565254D01*
X937563Y555286D02*
X947531Y565254D01*
X941531Y553254D02*
X953531Y565254D01*
X947531Y553254D02*
X959531Y565254D01*
X953531Y553254D02*
X965531Y565254D01*
X959531Y553254D02*
X971531Y565254D01*
X965531Y553254D02*
X977531Y565254D01*
X971531Y553254D02*
X983531Y565254D01*
X977531Y553254D02*
X989531Y565254D01*
X983531Y553254D02*
X995531Y565254D01*
X989531Y553254D02*
X1001531Y565254D01*
X995531Y553254D02*
X1007531Y565254D01*
X1001531Y553254D02*
X1013531Y565254D01*
X1007531Y553254D02*
X1019531Y565254D01*
X1013531Y553254D02*
X1025531Y565254D01*
X1019531Y553254D02*
X1031531Y565254D01*
X1025531Y553254D02*
X1037531Y565254D01*
X1031531Y553254D02*
X1043531Y565254D01*
X1037531Y553254D02*
X1049531Y565254D01*
X1043531Y553254D02*
X1049531Y559254D01*
X937563Y549286D02*
X941531Y553254D01*
X937563Y543286D02*
X947531Y553254D01*
X941531Y541254D02*
X953531Y553254D01*
X947531Y541254D02*
X959531Y553254D01*
X953531Y541254D02*
X965531Y553254D01*
X959531Y541254D02*
X971531Y553254D01*
X965531Y541254D02*
X977531Y553254D01*
X971531Y541254D02*
X983531Y553254D01*
X977531Y541254D02*
X989531Y553254D01*
X983531Y541254D02*
X995531Y553254D01*
X989531Y541254D02*
X1001531Y553254D01*
X995531Y541254D02*
X1007531Y553254D01*
X1001531Y541254D02*
X1013531Y553254D01*
X1007531Y541254D02*
X1019531Y553254D01*
X1013531Y541254D02*
X1025531Y553254D01*
X1019531Y541254D02*
X1031531Y553254D01*
X1025531Y541254D02*
X1037531Y553254D01*
X1031531Y541254D02*
X1043531Y553254D01*
X1037531Y541254D02*
X1049531Y553254D01*
X1043531Y541254D02*
X1049531Y547254D01*
X937563Y537286D02*
X941531Y541254D01*
X937563Y531286D02*
X947531Y541254D01*
X941531Y529254D02*
X953531Y541254D01*
X947531Y529254D02*
X959531Y541254D01*
X953531Y529254D02*
X965531Y541254D01*
X959531Y529254D02*
X971531Y541254D01*
X965531Y529254D02*
X977531Y541254D01*
X971531Y529254D02*
X983531Y541254D01*
X977531Y529254D02*
X989531Y541254D01*
X983531Y529254D02*
X995531Y541254D01*
X989531Y529254D02*
X1001531Y541254D01*
X995531Y529254D02*
X1007531Y541254D01*
X1001531Y529254D02*
X1013531Y541254D01*
X1007531Y529254D02*
X1019531Y541254D01*
X1013531Y529254D02*
X1025531Y541254D01*
X1019531Y529254D02*
X1031531Y541254D01*
X1025531Y529254D02*
X1037531Y541254D01*
X1031531Y529254D02*
X1043531Y541254D01*
X1037531Y529254D02*
X1049531Y541254D01*
X1043531Y529254D02*
X1049531Y535254D01*
X937563Y525286D02*
X941531Y529254D01*
X937563Y519286D02*
X947531Y529254D01*
X941531Y517254D02*
X953531Y529254D01*
X947531Y517254D02*
X959531Y529254D01*
X953531Y517254D02*
X965531Y529254D01*
X959531Y517254D02*
X971531Y529254D01*
X965531Y517254D02*
X977531Y529254D01*
X971531Y517254D02*
X983531Y529254D01*
X977531Y517254D02*
X989531Y529254D01*
X983531Y517254D02*
X995531Y529254D01*
X989531Y517254D02*
X1001531Y529254D01*
X995531Y517254D02*
X1007531Y529254D01*
X1001531Y517254D02*
X1013531Y529254D01*
X1007531Y517254D02*
X1019531Y529254D01*
X1013531Y517254D02*
X1025531Y529254D01*
X1019531Y517254D02*
X1031531Y529254D01*
X1025531Y517254D02*
X1037531Y529254D01*
X1031531Y517254D02*
X1043531Y529254D01*
X1037531Y517254D02*
X1049531Y529254D01*
X1043531Y517254D02*
X1049531Y523254D01*
X937563Y513286D02*
X941531Y517254D01*
X937563Y507286D02*
X947531Y517254D01*
X941531Y505254D02*
X953531Y517254D01*
X947531Y505254D02*
X959531Y517254D01*
X953531Y505254D02*
X965531Y517254D01*
X959531Y505254D02*
X971531Y517254D01*
X965531Y505254D02*
X977531Y517254D01*
X971531Y505254D02*
X983531Y517254D01*
X977531Y505254D02*
X989531Y517254D01*
X983531Y505254D02*
X995531Y517254D01*
X989531Y505254D02*
X1001531Y517254D01*
X995531Y505254D02*
X1007531Y517254D01*
X1001531Y505254D02*
X1013531Y517254D01*
X1007531Y505254D02*
X1019531Y517254D01*
X1013531Y505254D02*
X1025531Y517254D01*
X1019531Y505254D02*
X1031531Y517254D01*
X1025531Y505254D02*
X1037531Y517254D01*
X1031531Y505254D02*
X1043531Y517254D01*
X1037531Y505254D02*
X1049531Y517254D01*
X1043531Y505254D02*
X1049531Y511254D01*
X937563Y501286D02*
X941531Y505254D01*
X937563Y495286D02*
X947531Y505254D01*
X941531Y493254D02*
X953531Y505254D01*
X947531Y493254D02*
X959531Y505254D01*
X953531Y493254D02*
X965531Y505254D01*
X959531Y493254D02*
X971531Y505254D01*
X965531Y493254D02*
X977531Y505254D01*
X971531Y493254D02*
X983531Y505254D01*
X977531Y493254D02*
X989531Y505254D01*
X983531Y493254D02*
X995531Y505254D01*
X989531Y493254D02*
X1001531Y505254D01*
X995531Y493254D02*
X1007531Y505254D01*
X1001531Y493254D02*
X1013531Y505254D01*
X1007531Y493254D02*
X1019531Y505254D01*
X1013531Y493254D02*
X1025531Y505254D01*
X1019531Y493254D02*
X1031531Y505254D01*
X1025531Y493254D02*
X1037531Y505254D01*
X1031531Y493254D02*
X1043531Y505254D01*
X1037531Y493254D02*
X1049531Y505254D01*
X1043531Y493254D02*
X1049531Y499254D01*
X937563Y489286D02*
X941531Y493254D01*
X937563Y483286D02*
X947531Y493254D01*
X941531Y481254D02*
X953531Y493254D01*
X947531Y481254D02*
X959531Y493254D01*
X953531Y481254D02*
X965531Y493254D01*
X959531Y481254D02*
X971531Y493254D01*
X965531Y481254D02*
X977531Y493254D01*
X971531Y481254D02*
X983531Y493254D01*
X977531Y481254D02*
X989531Y493254D01*
X983531Y481254D02*
X995531Y493254D01*
X989531Y481254D02*
X1001531Y493254D01*
X995531Y481254D02*
X1007531Y493254D01*
X1001531Y481254D02*
X1013531Y493254D01*
X1007531Y481254D02*
X1019531Y493254D01*
X1013531Y481254D02*
X1025531Y493254D01*
X1019531Y481254D02*
X1031531Y493254D01*
X1025531Y481254D02*
X1037531Y493254D01*
X1031531Y481254D02*
X1043531Y493254D01*
X1037531Y481254D02*
X1049531Y493254D01*
X1043531Y481254D02*
X1049531Y487254D01*
X937563Y477286D02*
X941531Y481254D01*
X937563Y471286D02*
X947531Y481254D01*
X941531Y469254D02*
X953531Y481254D01*
X947531Y469254D02*
X959531Y481254D01*
X953531Y469254D02*
X965531Y481254D01*
X959531Y469254D02*
X971531Y481254D01*
X965531Y469254D02*
X977531Y481254D01*
X971531Y469254D02*
X983531Y481254D01*
X977531Y469254D02*
X989531Y481254D01*
X983531Y469254D02*
X995531Y481254D01*
X989531Y469254D02*
X1001531Y481254D01*
X995531Y469254D02*
X1007531Y481254D01*
X1001531Y469254D02*
X1013531Y481254D01*
X1007531Y469254D02*
X1019531Y481254D01*
X1013531Y469254D02*
X1025531Y481254D01*
X1019531Y469254D02*
X1031531Y481254D01*
X1025531Y469254D02*
X1037531Y481254D01*
X1031531Y469254D02*
X1043531Y481254D01*
X1037531Y469254D02*
X1049531Y481254D01*
X1043531Y469254D02*
X1049531Y475254D01*
X937563Y465286D02*
X941531Y469254D01*
X937563Y459286D02*
X947531Y469254D01*
X941531Y457254D02*
X953531Y469254D01*
X947531Y457254D02*
X959531Y469254D01*
X953531Y457254D02*
X965531Y469254D01*
X959531Y457254D02*
X971531Y469254D01*
X965531Y457254D02*
X977531Y469254D01*
X971531Y457254D02*
X983531Y469254D01*
X977531Y457254D02*
X989531Y469254D01*
X983531Y457254D02*
X995531Y469254D01*
X989531Y457254D02*
X1001531Y469254D01*
X995531Y457254D02*
X1007531Y469254D01*
X1001531Y457254D02*
X1013531Y469254D01*
X1007531Y457254D02*
X1019531Y469254D01*
X1013531Y457254D02*
X1025531Y469254D01*
X1019531Y457254D02*
X1031531Y469254D01*
X1025531Y457254D02*
X1037531Y469254D01*
X1031531Y457254D02*
X1043531Y469254D01*
X1037531Y457254D02*
X1049531Y469254D01*
X1043531Y457254D02*
X1049531Y463254D01*
X937563Y453286D02*
X941531Y457254D01*
X937563Y447286D02*
X947531Y457254D01*
X941531Y445254D02*
X953531Y457254D01*
X947531Y445254D02*
X959531Y457254D01*
X953531Y445254D02*
X965531Y457254D01*
X959531Y445254D02*
X971531Y457254D01*
X965531Y445254D02*
X977531Y457254D01*
X971531Y445254D02*
X983531Y457254D01*
X977531Y445254D02*
X989531Y457254D01*
X983531Y445254D02*
X995531Y457254D01*
X989531Y445254D02*
X1001531Y457254D01*
X995531Y445254D02*
X1007531Y457254D01*
X1001531Y445254D02*
X1013531Y457254D01*
X1007531Y445254D02*
X1019531Y457254D01*
X1013531Y445254D02*
X1025531Y457254D01*
X1019531Y445254D02*
X1031531Y457254D01*
X1025531Y445254D02*
X1037531Y457254D01*
X1031531Y445254D02*
X1043531Y457254D01*
X1037531Y445254D02*
X1049531Y457254D01*
X1043531Y445254D02*
X1049531Y451254D01*
X937563Y441286D02*
X941531Y445254D01*
X937563Y435286D02*
X947531Y445254D01*
X941531Y433254D02*
X953531Y445254D01*
X947531Y433254D02*
X959531Y445254D01*
X953531Y433254D02*
X965531Y445254D01*
X959531Y433254D02*
X971531Y445254D01*
X965531Y433254D02*
X977531Y445254D01*
X971531Y433254D02*
X983531Y445254D01*
X977531Y433254D02*
X989531Y445254D01*
X983531Y433254D02*
X995531Y445254D01*
X989531Y433254D02*
X1001531Y445254D01*
X995531Y433254D02*
X1007531Y445254D01*
X1001531Y433254D02*
X1013531Y445254D01*
X1007531Y433254D02*
X1019531Y445254D01*
X1013531Y433254D02*
X1025531Y445254D01*
X1019531Y433254D02*
X1031531Y445254D01*
X1025531Y433254D02*
X1037531Y445254D01*
X1031531Y433254D02*
X1043531Y445254D01*
X1037531Y433254D02*
X1049531Y445254D01*
X1043531Y433254D02*
X1049531Y439254D01*
M02*
