G04*
G04 #@! TF.GenerationSoftware,Altium Limited,Altium Designer,22.10.1 (41)*
G04*
G04 Layer_Color=65535*
%FSLAX25Y25*%
%MOIN*%
G70*
G04*
G04 #@! TF.SameCoordinates,F8C157B4-DA96-4F04-9901-D09C045D4249*
G04*
G04*
G04 #@! TF.FilePolarity,Positive*
G04*
G01*
G75*
%ADD10C,0.00787*%
%ADD11C,0.00394*%
%ADD12C,0.00600*%
%ADD13C,0.01575*%
%ADD14C,0.01000*%
%ADD15C,0.00500*%
%ADD16C,0.00276*%
%ADD17C,0.00591*%
%ADD18C,0.01181*%
%ADD19R,0.07874X0.01575*%
G36*
X127133Y167680D02*
X124771D01*
X125952Y169255D01*
X127133Y167680D01*
D02*
G37*
G36*
X26181Y288878D02*
X28543D01*
X27362Y287303D01*
X26181Y288878D01*
D02*
G37*
G36*
X138417Y220022D02*
Y222384D01*
X139992Y221203D01*
X138417Y220022D01*
D02*
G37*
G36*
X281666Y149378D02*
X284028D01*
X282847Y147803D01*
X281666Y149378D01*
D02*
G37*
G36*
X324929Y232118D02*
X322567D01*
X323748Y233693D01*
X324929Y232118D01*
D02*
G37*
G36*
X265846Y232677D02*
X263484D01*
X264665Y234252D01*
X265846Y232677D01*
D02*
G37*
G36*
X219772Y287458D02*
Y285096D01*
X218197Y286277D01*
X219772Y287458D01*
D02*
G37*
D10*
X102165Y329232D02*
G03*
X102165Y329232I-20079J0D01*
G01*
X280842Y304722D02*
G03*
X280842Y304722I-394J0D01*
G01*
X115236Y304072D02*
G03*
X115236Y304072I-394J0D01*
G01*
X202919Y261738D02*
G03*
X202919Y261738I-394J0D01*
G01*
X408465Y244094D02*
X455709D01*
Y177165D02*
Y244094D01*
X408465Y177165D02*
X455709D01*
X408465D02*
Y244094D01*
X361516Y295D02*
Y47539D01*
X294587Y295D02*
X361516D01*
X294587D02*
Y47539D01*
X361516D01*
X-1279Y25591D02*
X45965D01*
X-1279D02*
Y92520D01*
X45965D01*
Y25591D02*
Y92520D01*
X118701Y-197D02*
Y47047D01*
X51772Y-197D02*
X118701D01*
X51772D02*
Y47047D01*
X118701D01*
X46260Y100098D02*
Y147343D01*
X-984D02*
X46260D01*
X-984Y100098D02*
Y147343D01*
Y100098D02*
X46260D01*
X369587Y47808D02*
X416831D01*
X369587Y564D02*
Y47808D01*
Y564D02*
X416831D01*
Y47808D01*
X408268Y112992D02*
Y160236D01*
Y112992D02*
X455512D01*
Y160236D01*
X408268D02*
X455512D01*
X46752Y159350D02*
Y206594D01*
X-492D02*
X46752D01*
X-492Y159350D02*
Y206594D01*
Y159350D02*
X46752D01*
X47146Y216535D02*
Y263779D01*
X-98D02*
X47146D01*
X-98Y216535D02*
Y263779D01*
Y216535D02*
X47146D01*
X376190Y347976D02*
X423435D01*
Y395220D01*
X376190D02*
X423435D01*
X376190Y347976D02*
Y395220D01*
X47098Y304331D02*
Y351575D01*
X-146D02*
X47098D01*
X-146Y304331D02*
Y351575D01*
Y304331D02*
X47098D01*
X218307Y348031D02*
X265551D01*
Y395275D01*
X218307D02*
X265551D01*
X218307Y348031D02*
Y395275D01*
X234055Y285039D02*
X245197D01*
X255591D02*
X266732D01*
X241142Y317717D02*
X245197D01*
X255591D02*
X259646D01*
X266732Y310630D01*
Y285039D02*
Y310630D01*
X234055Y285039D02*
Y310630D01*
X241142Y317717D01*
X156313Y291210D02*
X167730D01*
X193321Y291210D02*
X204738D01*
X156313Y340029D02*
X167730D01*
X193321D02*
X204738D01*
Y291210D02*
Y340029D01*
X156313Y291210D02*
Y340029D01*
X322638Y289862D02*
X334055D01*
X359646Y289862D02*
X371063D01*
X322638Y338681D02*
X334055D01*
X359646D02*
X371063D01*
Y289862D02*
Y338681D01*
X322638Y289862D02*
Y338681D01*
X156516Y220079D02*
X218248D01*
Y209055D02*
Y220079D01*
X156516Y209055D02*
X218248D01*
X156516D02*
Y220079D01*
X268799Y87756D02*
X279823D01*
X268799Y47697D02*
X279823D01*
X268799D02*
Y87756D01*
X279823Y47697D02*
Y87756D01*
X350984Y85728D02*
X353346D01*
X350984Y118012D02*
X352953D01*
X356102Y85728D02*
Y118012D01*
X345866D02*
X356102D01*
X345866Y85728D02*
Y118012D01*
Y85728D02*
X356102D01*
X295216Y99409D02*
X297578D01*
X295609Y67126D02*
X297578D01*
X292460D02*
Y99409D01*
Y67126D02*
X302696D01*
Y99409D01*
X292460D02*
X302696D01*
X82087Y90453D02*
X84449D01*
X82480Y58169D02*
X84449D01*
X79331D02*
Y90453D01*
Y58169D02*
X89567D01*
Y90453D01*
X79331D02*
X89567D01*
X310335Y57480D02*
X312697D01*
X310335Y89764D02*
X312303D01*
X315453Y57480D02*
Y89764D01*
X305217D02*
X315453D01*
X305217Y57480D02*
Y89764D01*
Y57480D02*
X315453D01*
X144193Y233110D02*
X146555D01*
X144193Y265394D02*
X146161D01*
X149311Y233110D02*
Y265394D01*
X139075D02*
X149311D01*
X139075Y233110D02*
Y265394D01*
Y233110D02*
X149311D01*
X158858D02*
X161221D01*
X158858Y265394D02*
X160827D01*
X163976Y233110D02*
Y265394D01*
X153740D02*
X163976D01*
X153740Y233110D02*
Y265394D01*
Y233110D02*
X163976D01*
X290807Y208850D02*
Y211212D01*
X258524Y208850D02*
Y210818D01*
Y213968D02*
X290807D01*
X258524Y203732D02*
Y213968D01*
Y203732D02*
X290807D01*
Y213968D01*
X339114Y209012D02*
Y211374D01*
X306831Y209012D02*
Y210980D01*
Y214130D02*
X339114D01*
X306831Y203894D02*
Y214130D01*
Y203894D02*
X339114D01*
Y214130D01*
X272441Y146319D02*
X274803D01*
X277559D02*
Y167027D01*
X267323D02*
X277559D01*
X267323Y146319D02*
Y167027D01*
Y146319D02*
X277559D01*
X112303Y147894D02*
X114665D01*
X117421D02*
Y168602D01*
X107185D02*
X117421D01*
X107185Y147894D02*
Y168602D01*
Y147894D02*
X117421D01*
X111713Y119931D02*
X114075D01*
X108957Y99222D02*
Y119931D01*
Y99222D02*
X119193D01*
Y119931D01*
X108957D02*
X119193D01*
X271949Y39291D02*
X274311D01*
X269193Y18583D02*
Y39291D01*
Y18583D02*
X279429D01*
Y39291D01*
X269193D02*
X279429D01*
X307087Y49705D02*
Y57087D01*
Y49705D02*
X314469D01*
Y57087D01*
X313583Y89764D02*
Y97146D01*
X306201D02*
X313583D01*
X306201Y89764D02*
Y97146D01*
Y89764D02*
X307087D01*
X425440Y27461D02*
Y41043D01*
X416831Y27461D02*
X425440D01*
X417028Y41043D02*
X425440D01*
X427756Y160236D02*
Y168649D01*
Y160236D02*
X436516D01*
X441339D01*
Y161586D01*
Y168649D01*
X427756D02*
X441339D01*
X356327Y99586D02*
X361740D01*
Y90768D02*
Y99586D01*
X356695Y90768D02*
X361740D01*
X356471Y103052D02*
X361516D01*
Y111870D01*
X356102D02*
X361516D01*
X123641Y203840D02*
X131338D01*
Y225286D02*
X131338D01*
X131338Y203840D02*
Y226292D01*
Y225286D02*
Y227350D01*
X123641D02*
X131338D01*
X123641Y203840D02*
Y227350D01*
X14138Y273427D02*
X21835D01*
Y294872D02*
X21835D01*
X21835Y273427D02*
Y295878D01*
Y294872D02*
Y296936D01*
X14138D02*
X21835D01*
X14138Y273427D02*
Y296936D01*
X394923Y306591D02*
X443249D01*
Y287398D02*
Y306591D01*
X394923Y287398D02*
X443249D01*
X394923D02*
Y306591D01*
X308897Y243138D02*
Y250836D01*
X257693Y243195D02*
X281203D01*
X257693D02*
Y250892D01*
X259757D01*
X258751D02*
X281203D01*
X259757D02*
Y250892D01*
X281203Y243195D02*
Y250892D01*
X308897Y250836D02*
X310961D01*
Y250836D01*
X309955Y250836D02*
X332407D01*
X308897Y243138D02*
X332407D01*
Y250836D01*
X94510Y175963D02*
Y175963D01*
X89542Y175963D02*
X94510D01*
X89542Y169270D02*
Y175963D01*
Y169270D02*
X117244D01*
Y175963D01*
X93505D02*
X117244D01*
X281477Y163247D02*
X305217D01*
Y156554D02*
Y163247D01*
X280419Y156554D02*
X305217D01*
X280419D02*
Y163247D01*
X282483D01*
Y163247D01*
X210128Y298524D02*
Y298524D01*
X208064Y298524D02*
X210128D01*
X208064Y291831D02*
Y298524D01*
Y291831D02*
X228839D01*
Y298524D01*
X209122D02*
X228839D01*
X396201Y280568D02*
Y277944D01*
X397513Y276632D01*
X398825Y277944D01*
Y280568D01*
X400793Y276632D02*
X402105D01*
X402761Y277288D01*
Y278600D01*
X402105Y279256D01*
X400793D01*
X400137Y278600D01*
Y277288D01*
X400793Y276632D01*
X404073Y279256D02*
Y277288D01*
X404729Y276632D01*
X406697D01*
Y275976D01*
X406041Y275320D01*
X405385D01*
X406697Y276632D02*
Y279256D01*
X408665D02*
X409976D01*
X410632Y278600D01*
Y276632D01*
X408665D01*
X408009Y277288D01*
X408665Y277944D01*
X410632D01*
X413256Y275320D02*
X413912D01*
X414568Y275976D01*
Y279256D01*
X412600D01*
X411944Y278600D01*
Y277288D01*
X412600Y276632D01*
X414568D01*
X417848D02*
X416536D01*
X415880Y277288D01*
Y278600D01*
X416536Y279256D01*
X417848D01*
X418504Y278600D01*
Y277944D01*
X415880D01*
X419816Y279256D02*
Y276632D01*
Y277944D01*
X420472Y278600D01*
X421128Y279256D01*
X421784D01*
X427687D02*
X428999Y276632D01*
X430311Y279256D01*
X431623Y276632D02*
X432935D01*
X432279D01*
Y280568D01*
X431623Y279911D01*
X434903Y276632D02*
Y277288D01*
X435559D01*
Y276632D01*
X434903D01*
X438183Y279911D02*
X438839Y280568D01*
X440150D01*
X440806Y279911D01*
Y277288D01*
X440150Y276632D01*
X438839D01*
X438183Y277288D01*
Y279911D01*
X129434Y220294D02*
Y217933D01*
Y219113D01*
X125892D01*
Y216752D02*
X129434D01*
X128253Y215571D01*
X129434Y214391D01*
X125892D01*
X128843Y210848D02*
X129434Y211439D01*
Y212619D01*
X128843Y213210D01*
X126482D01*
X125892Y212619D01*
Y211439D01*
X126482Y210848D01*
X16388Y287519D02*
Y289881D01*
X18750Y287519D01*
X19340D01*
X19931Y288110D01*
Y289290D01*
X19340Y289881D01*
X16388Y284568D02*
X19931D01*
X18159Y286339D01*
Y283977D01*
X19931Y282797D02*
X17569D01*
X16388Y281616D01*
X17569Y280435D01*
X19931D01*
X400276Y302357D02*
X397653D01*
Y298421D01*
X400276D01*
X397653Y300389D02*
X398964D01*
X401588Y298421D02*
Y302357D01*
X404212Y298421D01*
Y302357D01*
X408148D02*
X405524D01*
Y298421D01*
X408148D01*
X405524Y300389D02*
X406836D01*
X412084Y301701D02*
X411428Y302357D01*
X410116D01*
X409460Y301701D01*
Y301045D01*
X410116Y300389D01*
X411428D01*
X412084Y299733D01*
Y299077D01*
X411428Y298421D01*
X410116D01*
X409460Y299077D01*
X417331Y298421D02*
Y302357D01*
X418643Y301045D01*
X419955Y302357D01*
Y298421D01*
X423891Y302357D02*
X421267D01*
Y298421D01*
X423891D01*
X421267Y300389D02*
X422579D01*
X425203Y298421D02*
Y302357D01*
X427171D01*
X427826Y301701D01*
Y300389D01*
X427171Y299733D01*
X425203D01*
X426515D02*
X427826Y298421D01*
X431762Y301701D02*
X431106Y302357D01*
X429794D01*
X429139Y301701D01*
Y299077D01*
X429794Y298421D01*
X431106D01*
X431762Y299077D01*
X433074Y298421D02*
Y301045D01*
X434386Y302357D01*
X435698Y301045D01*
Y298421D01*
Y300389D01*
X433074D01*
X437010Y298421D02*
Y302357D01*
X439634Y298421D01*
Y302357D01*
X264749Y248398D02*
X265339Y248988D01*
X266520D01*
X267110Y248398D01*
Y247807D01*
X266520Y247217D01*
X265929D01*
X266520D01*
X267110Y246626D01*
Y246036D01*
X266520Y245446D01*
X265339D01*
X264749Y246036D01*
X268291Y248988D02*
Y246626D01*
X269472Y245446D01*
X270652Y246626D01*
Y248988D01*
X271833Y248398D02*
X272423Y248988D01*
X273604D01*
X274195Y248398D01*
Y247807D01*
X273604Y247217D01*
X273014D01*
X273604D01*
X274195Y246626D01*
Y246036D01*
X273604Y245446D01*
X272423D01*
X271833Y246036D01*
X320085Y248931D02*
X317724D01*
Y247160D01*
X318905Y247750D01*
X319495D01*
X320085Y247160D01*
Y245979D01*
X319495Y245389D01*
X318314D01*
X317724Y245979D01*
X321266Y248931D02*
Y246570D01*
X322447Y245389D01*
X323627Y246570D01*
Y248931D01*
X92105Y173720D02*
X92696Y174310D01*
X93876D01*
X94467Y173720D01*
Y173129D01*
X93876Y172539D01*
X93286D01*
X93876D01*
X94467Y171948D01*
Y171358D01*
X93876Y170768D01*
X92696D01*
X92105Y171358D01*
X95647Y174310D02*
Y171948D01*
X96828Y170768D01*
X98009Y171948D01*
Y174310D01*
X99190Y173720D02*
X99780Y174310D01*
X100961D01*
X101551Y173720D01*
Y173129D01*
X100961Y172539D01*
X100370D01*
X100961D01*
X101551Y171948D01*
Y171358D01*
X100961Y170768D01*
X99780D01*
X99190Y171358D01*
X106274Y170768D02*
Y174310D01*
X107455Y173129D01*
X108635Y174310D01*
Y170768D01*
X112177Y173720D02*
X111587Y174310D01*
X110406D01*
X109816Y173720D01*
Y171358D01*
X110406Y170768D01*
X111587D01*
X112177Y171358D01*
X113358Y174310D02*
Y171358D01*
X113949Y170768D01*
X115129D01*
X115720Y171358D01*
Y174310D01*
X285325Y161599D02*
X282963D01*
Y159828D01*
X284144Y160419D01*
X284734D01*
X285325Y159828D01*
Y158648D01*
X284734Y158057D01*
X283554D01*
X282963Y158648D01*
X286505Y161599D02*
Y159238D01*
X287686Y158057D01*
X288867Y159238D01*
Y161599D01*
X293590Y158057D02*
Y161599D01*
X294770Y160419D01*
X295951Y161599D01*
Y158057D01*
X299493Y161009D02*
X298903Y161599D01*
X297722D01*
X297132Y161009D01*
Y158648D01*
X297722Y158057D01*
X298903D01*
X299493Y158648D01*
X300674Y161599D02*
Y158648D01*
X301264Y158057D01*
X302445D01*
X303035Y158648D01*
Y161599D01*
X210891Y293599D02*
X212072D01*
X211482D01*
Y297141D01*
X210891Y296551D01*
X216205Y293599D02*
X213843D01*
X216205Y295961D01*
Y296551D01*
X215614Y297141D01*
X214434D01*
X213843Y296551D01*
X217385Y297141D02*
Y294780D01*
X218566Y293599D01*
X219747Y294780D01*
Y297141D01*
X220927D02*
Y293599D01*
X222698D01*
X223289Y294190D01*
Y296551D01*
X222698Y297141D01*
X220927D01*
X226831Y296551D02*
X226241Y297141D01*
X225060D01*
X224470Y296551D01*
Y294190D01*
X225060Y293599D01*
X226241D01*
X226831Y294190D01*
X128108Y239738D02*
X127386Y240459D01*
X125943D01*
X125221Y239738D01*
Y236852D01*
X125943Y236130D01*
X127386D01*
X128108Y236852D01*
Y238295D01*
X126664D01*
X129551Y236130D02*
Y240459D01*
X132437Y236130D01*
Y240459D01*
X133880D02*
Y236130D01*
X136045D01*
X136766Y236852D01*
Y239738D01*
X136045Y240459D01*
X133880D01*
X125221Y260545D02*
X125943Y261266D01*
X127386D01*
X128108Y260545D01*
Y259823D01*
X127386Y259102D01*
X126664D01*
X127386D01*
X128108Y258380D01*
Y257659D01*
X127386Y256937D01*
X125943D01*
X125221Y257659D01*
X129551Y261266D02*
Y258380D01*
X130994Y256937D01*
X132437Y258380D01*
Y261266D01*
X133880Y260545D02*
X134601Y261266D01*
X136045D01*
X136766Y260545D01*
Y259823D01*
X136045Y259102D01*
X135323D01*
X136045D01*
X136766Y258380D01*
Y257659D01*
X136045Y256937D01*
X134601D01*
X133880Y257659D01*
X125221Y246533D02*
Y250863D01*
X126664Y249420D01*
X128108Y250863D01*
Y246533D01*
X132437Y250141D02*
X131715Y250863D01*
X130272D01*
X129551Y250141D01*
Y249420D01*
X130272Y248698D01*
X131715D01*
X132437Y247977D01*
Y247255D01*
X131715Y246533D01*
X130272D01*
X129551Y247255D01*
X136766Y246533D02*
X133880D01*
X136766Y249420D01*
Y250141D01*
X136045Y250863D01*
X134601D01*
X133880Y250141D01*
X169249Y239876D02*
X168528Y240597D01*
X167085D01*
X166363Y239876D01*
Y236989D01*
X167085Y236268D01*
X168528D01*
X169249Y236989D01*
Y238432D01*
X167806D01*
X170692Y236268D02*
Y240597D01*
X173579Y236268D01*
Y240597D01*
X175022D02*
Y236268D01*
X177186D01*
X177908Y236989D01*
Y239876D01*
X177186Y240597D01*
X175022D01*
X166363Y246898D02*
Y251227D01*
X167806Y249784D01*
X169249Y251227D01*
Y246898D01*
X173579Y250505D02*
X172857Y251227D01*
X171414D01*
X170692Y250505D01*
Y249784D01*
X171414Y249062D01*
X172857D01*
X173579Y248341D01*
Y247619D01*
X172857Y246898D01*
X171414D01*
X170692Y247619D01*
X177908Y246898D02*
X175022D01*
X177908Y249784D01*
Y250505D01*
X177186Y251227D01*
X175743D01*
X175022Y250505D01*
X166363Y261135D02*
X167085Y261857D01*
X168528D01*
X169249Y261135D01*
Y260414D01*
X168528Y259692D01*
X167806D01*
X168528D01*
X169249Y258971D01*
Y258249D01*
X168528Y257528D01*
X167085D01*
X166363Y258249D01*
X170692Y261857D02*
Y258971D01*
X172135Y257528D01*
X173579Y258971D01*
Y261857D01*
X175022Y261135D02*
X175743Y261857D01*
X177186D01*
X177908Y261135D01*
Y260414D01*
X177186Y259692D01*
X176465D01*
X177186D01*
X177908Y258971D01*
Y258249D01*
X177186Y257528D01*
X175743D01*
X175022Y258249D01*
D11*
X451083Y15650D02*
G03*
X451083Y15650I-11417J0D01*
G01*
X30957Y375984D02*
G03*
X30957Y375984I-11417J0D01*
G01*
X450394Y378839D02*
G03*
X450394Y378839I-11417J0D01*
G01*
X407537Y88090D02*
G03*
X407537Y88090I-197J0D01*
G01*
X74208Y266470D02*
X77358D01*
X75783Y264895D02*
Y268045D01*
X103736Y266864D02*
X106885D01*
X194882Y377854D02*
X198031D01*
X196457Y376279D02*
Y379429D01*
X165354Y377461D02*
X168504D01*
X359055Y376279D02*
X362205D01*
X360630Y374705D02*
Y377854D01*
X329528Y375886D02*
X332677D01*
X262402Y317520D02*
X265945D01*
X264173Y315748D02*
Y319291D01*
X256063Y312375D02*
X259607D01*
X257835Y310603D02*
Y314147D01*
X80118Y312992D02*
X84055D01*
X82087Y311024D02*
Y314961D01*
X26181Y287303D02*
X28543D01*
X23720Y294685D02*
X30906D01*
Y281496D02*
Y294685D01*
X23720Y281496D02*
Y294685D01*
Y281496D02*
X30906D01*
X263484Y234252D02*
X265846D01*
X261122Y226870D02*
X268307D01*
X261122D02*
Y240059D01*
X268307Y226870D02*
Y240059D01*
X261122D02*
X268307D01*
X124771Y169255D02*
X127133D01*
X122409Y161873D02*
X129594D01*
X122409D02*
Y175062D01*
X129594Y161873D02*
Y175062D01*
X122409D02*
X129594D01*
X322567Y233693D02*
X324929D01*
X321250Y238779D02*
X326168D01*
Y226969D02*
Y238779D01*
X321250Y226969D02*
X326168D01*
X321250D02*
Y238779D01*
X218197Y285096D02*
Y287458D01*
X213110Y283779D02*
Y288697D01*
X224921D01*
Y283779D02*
Y288697D01*
X213110Y283779D02*
X224921D01*
X139992Y220022D02*
Y222384D01*
X145079Y218782D02*
Y223700D01*
X133268Y218782D02*
X145079D01*
X133268D02*
Y223700D01*
X145079D01*
X281666Y147803D02*
X284028D01*
X280427Y142717D02*
X285344D01*
X280427D02*
Y154528D01*
X285344D01*
Y142717D02*
Y154528D01*
X249598Y143098D02*
X256701D01*
X249598D02*
Y153752D01*
X256701D01*
Y143098D02*
Y153752D01*
X257866Y143000D02*
X264968D01*
X257866D02*
Y153654D01*
X264968D01*
Y143000D02*
Y153654D01*
X355622Y51567D02*
Y58669D01*
X344969Y51567D02*
X355622D01*
X344969D02*
Y58669D01*
X355622D01*
X381225Y63173D02*
Y70276D01*
X370571Y63173D02*
X381225D01*
X370571D02*
Y70276D01*
X381225D01*
X394185Y138768D02*
X401287D01*
X394185D02*
Y149421D01*
X401287D01*
Y138768D02*
Y149421D01*
X182862Y251665D02*
Y258768D01*
X193516D01*
Y251665D02*
Y258768D01*
X182862Y251665D02*
X193516D01*
X182310Y240868D02*
Y247970D01*
X192963D01*
Y240868D02*
Y247970D01*
X182310Y240868D02*
X192963D01*
X127059Y153457D02*
X134161D01*
Y142803D02*
Y153457D01*
X127059Y142803D02*
X134161D01*
X127059D02*
Y153457D01*
X118890Y153457D02*
X125992D01*
Y142803D02*
Y153457D01*
X118890Y142803D02*
X125992D01*
X118890D02*
Y153457D01*
X99879Y307565D02*
Y310616D01*
X105427Y298964D02*
Y310616D01*
X99879D02*
X105427D01*
X99879Y302053D02*
Y307565D01*
X99884Y298964D02*
X105427D01*
X99884D02*
Y302047D01*
X99879Y302053D02*
X99884Y302047D01*
X324508Y93307D02*
X336319D01*
Y87008D02*
Y93307D01*
X324508Y87008D02*
X336319D01*
X324508D02*
Y93307D01*
X73543Y155483D02*
X85354D01*
Y149184D02*
Y155483D01*
X73543Y149184D02*
X85354D01*
X73543D02*
Y155483D01*
X60918Y155709D02*
X72729D01*
Y149410D02*
Y155709D01*
X60918Y149410D02*
X72729D01*
X60918D02*
Y155709D01*
X382561Y63681D02*
X394372D01*
X382561D02*
Y69980D01*
X394372D01*
Y63681D02*
Y69980D01*
X394587Y124606D02*
Y136417D01*
X400886D01*
Y124606D02*
Y136417D01*
X394587Y124606D02*
X400886D01*
X60925Y166634D02*
Y178445D01*
X54626Y166634D02*
X60925D01*
X54626D02*
Y178445D01*
X60925D01*
X193799Y266043D02*
X205610D01*
X193799D02*
Y272342D01*
X205610D01*
Y266043D02*
Y272342D01*
X270168Y228338D02*
Y240149D01*
X276468D01*
Y228338D02*
Y240149D01*
X270168Y228338D02*
X276468D01*
X116535Y175984D02*
X128347D01*
X116535D02*
Y182283D01*
X128347D01*
Y175984D02*
Y182283D01*
X295276Y108071D02*
X307087D01*
Y101772D02*
Y108071D01*
X295276Y101772D02*
X307087D01*
X295276D02*
Y108071D01*
X318209Y64967D02*
X322933D01*
X318209Y53520D02*
Y64967D01*
Y53520D02*
X322933D01*
Y64967D01*
X392717Y202159D02*
X397441D01*
Y213605D01*
X392717D02*
X397441D01*
X392717Y202159D02*
Y213605D01*
Y188734D02*
X397441D01*
Y200180D01*
X392717D02*
X397441D01*
X392717Y188734D02*
Y200180D01*
X317815Y80899D02*
X322539D01*
Y92346D01*
X317815D02*
X322539D01*
X317815Y80899D02*
Y92346D01*
X406896Y64468D02*
Y69193D01*
X395450D02*
X406896D01*
X395450Y64468D02*
Y69193D01*
Y64468D02*
X406896D01*
Y70325D02*
Y75049D01*
X395450D02*
X406896D01*
X395450Y70325D02*
Y75049D01*
Y70325D02*
X406896D01*
Y76181D02*
Y80905D01*
X395450D02*
X406896D01*
X395450Y76181D02*
Y80905D01*
Y76181D02*
X406896D01*
X383169Y117907D02*
X387894D01*
Y129354D01*
X383169D02*
X387894D01*
X383169Y117907D02*
Y129354D01*
X388541Y89659D02*
X393265D01*
Y101105D01*
X388541D02*
X393265D01*
X388541Y89659D02*
Y101105D01*
X400454Y117913D02*
Y122638D01*
X389007D02*
X400454D01*
X389007Y117913D02*
Y122638D01*
Y117913D02*
X400454D01*
X382953Y76181D02*
Y80905D01*
Y76181D02*
X394400D01*
Y80905D01*
X382953D02*
X394400D01*
X406559Y96653D02*
Y101378D01*
X395112D02*
X406559D01*
X395112Y96653D02*
Y101378D01*
Y96653D02*
X406559D01*
Y102239D02*
Y106964D01*
X395112D02*
X406559D01*
X395112Y102239D02*
Y106964D01*
Y102239D02*
X406559D01*
X224810Y278248D02*
Y282972D01*
X213363D02*
X224810D01*
X213363Y278248D02*
Y282972D01*
Y278248D02*
X224810D01*
X315551Y227159D02*
X320276D01*
Y238605D01*
X315551D02*
X320276D01*
X315551Y227159D02*
Y238605D01*
X31890Y293117D02*
X36614D01*
X31890Y281670D02*
Y293117D01*
Y281670D02*
X36614D01*
Y293117D01*
X37697Y281588D02*
X42421D01*
Y293035D01*
X37697D02*
X42421D01*
X37697Y281588D02*
Y293035D01*
X133458Y212795D02*
Y217520D01*
Y212795D02*
X144905D01*
Y217520D01*
X133458D02*
X144905D01*
X286614Y142907D02*
X291339D01*
Y154354D01*
X286614D02*
X291339D01*
X286614Y142907D02*
Y154354D01*
X316142Y121660D02*
X320866D01*
X316142Y110213D02*
Y121660D01*
Y110213D02*
X320866D01*
Y121660D01*
X126609Y301059D02*
X127790D01*
Y279012D02*
Y301059D01*
X126609Y279012D02*
X127790D01*
X117553D02*
X118735D01*
X117553D02*
Y301059D01*
X118735D01*
X294390Y298524D02*
X295571D01*
Y276476D02*
Y298524D01*
X294390Y276476D02*
X295571D01*
X285335D02*
X286516D01*
X285335D02*
Y298524D01*
X286516D01*
X401083Y52264D02*
X408071D01*
X401083D02*
Y53740D01*
Y55315D01*
X408071D01*
Y52264D02*
Y55315D01*
X401083Y52264D02*
X408071D01*
X401083D02*
Y53740D01*
Y55315D01*
X408071D01*
Y52264D02*
Y55315D01*
X402854Y121358D02*
Y128347D01*
X404331D01*
X405905D01*
Y121358D02*
Y128347D01*
X402854Y121358D02*
X405905D01*
X402854D02*
Y128347D01*
X404331D01*
X405905D01*
Y121358D02*
Y128347D01*
X402854Y121358D02*
X405905D01*
D12*
X70652Y176932D02*
G03*
X70652Y176932I-500J0D01*
G01*
X236382Y159450D02*
X247182D01*
Y116850D02*
Y159450D01*
X236382Y116850D02*
Y159450D01*
Y6850D02*
X247182D01*
Y76850D02*
Y119450D01*
X236382Y76850D02*
Y119450D01*
X247182Y36850D02*
Y79450D01*
X236382Y36850D02*
Y79450D01*
X247182Y6791D02*
Y39450D01*
X236382Y6791D02*
Y39450D01*
X136382Y6791D02*
Y39450D01*
X147182Y6791D02*
Y39450D01*
X136382Y36850D02*
Y79450D01*
X147182Y36850D02*
Y79450D01*
X136382Y76850D02*
Y119450D01*
X147182Y76850D02*
Y119450D01*
X136382Y6850D02*
X147182D01*
X136382Y116850D02*
Y159450D01*
X147182Y116850D02*
Y159450D01*
X136382D02*
X147182D01*
X76692Y257687D02*
X110156D01*
X69756Y264623D02*
X76692Y257687D01*
X69756Y264623D02*
Y270013D01*
Y285368D02*
Y291546D01*
X76298Y298087D01*
X110156D01*
Y285368D02*
Y298087D01*
Y257687D02*
Y271195D01*
X162083Y386637D02*
X195548D01*
X202484Y379702D01*
Y374311D02*
Y379702D01*
Y352779D02*
Y358957D01*
X195942Y346237D02*
X202484Y352779D01*
X162083Y346237D02*
X195942D01*
X162083D02*
Y358957D01*
Y373130D02*
Y386637D01*
X326257Y385062D02*
X359721D01*
X366657Y378127D01*
Y372736D02*
Y378127D01*
Y351204D02*
Y357382D01*
X360115Y344662D02*
X366657Y351204D01*
X326257Y344662D02*
X360115D01*
X326257D02*
Y357382D01*
Y371555D02*
Y385062D01*
X80020Y176961D02*
Y180401D01*
X64220Y180201D02*
Y180401D01*
Y164801D02*
X80020D01*
Y168241D01*
X64220Y180401D02*
X80020D01*
X64220Y164801D02*
Y165006D01*
X80069Y107537D02*
X81132D01*
Y132029D01*
X54597D02*
X81132D01*
X54597Y107537D02*
Y132029D01*
Y107537D02*
X55660D01*
X209122Y260032D02*
X209922D01*
X209122Y255532D02*
X209922D01*
X209122Y257232D02*
X209922D01*
X209122Y252732D02*
X209922D01*
X209122Y246532D02*
X209922D01*
X209122Y242032D02*
X209922D01*
X209122Y243732D02*
X209922D01*
X209122Y239232D02*
X209922D01*
X211822Y251532D02*
Y263332D01*
X208434Y251532D02*
X211822D01*
X207822Y247938D02*
Y251326D01*
X208434Y247732D02*
X211822D01*
Y235932D02*
Y247732D01*
Y235932D02*
X237322D01*
X211822Y263332D02*
X237322D01*
D13*
X163169Y205906D02*
G03*
X163169Y205906I-787J0D01*
G01*
D14*
X82791Y138829D02*
G03*
X82791Y138829I-557J0D01*
G01*
X61400Y-3404D02*
X59401D01*
X60401D01*
Y-8402D01*
X59401Y-9402D01*
X58401D01*
X57402Y-8402D01*
X63400Y-4403D02*
X64399Y-3404D01*
X66399D01*
X67398Y-4403D01*
Y-5403D01*
X66399Y-6402D01*
X65399D01*
X66399D01*
X67398Y-7402D01*
Y-8402D01*
X66399Y-9402D01*
X64399D01*
X63400Y-8402D01*
X69398Y-3404D02*
X73396D01*
Y-4403D01*
X69398Y-8402D01*
Y-9402D01*
X470100Y247897D02*
X468101D01*
X469101D01*
Y242898D01*
X468101Y241898D01*
X467101D01*
X466102Y242898D01*
X472100Y241898D02*
X474099D01*
X473099D01*
Y247897D01*
X472100Y246897D01*
X477098D02*
X478098Y247897D01*
X480097D01*
X481097Y246897D01*
Y242898D01*
X480097Y241898D01*
X478098D01*
X477098Y242898D01*
Y246897D01*
X222800Y486197D02*
X220801D01*
X221801D01*
Y481198D01*
X220801Y480198D01*
X219801D01*
X218802Y481198D01*
X224800Y485197D02*
X225799Y486197D01*
X227799D01*
X228798Y485197D01*
Y484197D01*
X227799Y483197D01*
X226799D01*
X227799D01*
X228798Y482198D01*
Y481198D01*
X227799Y480198D01*
X225799D01*
X224800Y481198D01*
X233797Y480198D02*
Y486197D01*
X230798Y483197D01*
X234796D01*
X-71100Y354996D02*
X-73099D01*
X-72099D01*
Y349998D01*
X-73099Y348998D01*
X-74099D01*
X-75098Y349998D01*
X-69100Y353997D02*
X-68101Y354996D01*
X-66101D01*
X-65102Y353997D01*
Y352997D01*
X-66101Y351997D01*
X-67101D01*
X-66101D01*
X-65102Y350998D01*
Y349998D01*
X-66101Y348998D01*
X-68101D01*
X-69100Y349998D01*
X-63102Y353997D02*
X-62103Y354996D01*
X-60103D01*
X-59104Y353997D01*
Y352997D01*
X-60103Y351997D01*
X-61103D01*
X-60103D01*
X-59104Y350998D01*
Y349998D01*
X-60103Y348998D01*
X-62103D01*
X-63102Y349998D01*
X383600Y484897D02*
X381601D01*
X382601D01*
Y479898D01*
X381601Y478898D01*
X380601D01*
X379602Y479898D01*
X385600Y483897D02*
X386599Y484897D01*
X388599D01*
X389598Y483897D01*
Y482897D01*
X388599Y481897D01*
X387599D01*
X388599D01*
X389598Y480898D01*
Y479898D01*
X388599Y478898D01*
X386599D01*
X385600Y479898D01*
X395596Y478898D02*
X391598D01*
X395596Y482897D01*
Y483897D01*
X394597Y484897D01*
X392597D01*
X391598Y483897D01*
X-71300Y267997D02*
X-73299D01*
X-72299D01*
Y262998D01*
X-73299Y261998D01*
X-74299D01*
X-75298Y262998D01*
X-65302Y261998D02*
X-69300D01*
X-65302Y265997D01*
Y266997D01*
X-66301Y267997D01*
X-68301D01*
X-69300Y266997D01*
X-63302D02*
X-62303Y267997D01*
X-60303D01*
X-59304Y266997D01*
Y265997D01*
X-60303Y264998D01*
X-59304Y263998D01*
Y262998D01*
X-60303Y261998D01*
X-62303D01*
X-63302Y262998D01*
Y263998D01*
X-62303Y264998D01*
X-63302Y265997D01*
Y266997D01*
X-62303Y264998D02*
X-60303D01*
X-71100Y211997D02*
X-73099D01*
X-72099D01*
Y206998D01*
X-73099Y205998D01*
X-74099D01*
X-75098Y206998D01*
X-65102Y205998D02*
X-69100D01*
X-65102Y209997D01*
Y210997D01*
X-66101Y211997D01*
X-68101D01*
X-69100Y210997D01*
X-59104Y211997D02*
X-61103Y210997D01*
X-63102Y208998D01*
Y206998D01*
X-62103Y205998D01*
X-60103D01*
X-59104Y206998D01*
Y207998D01*
X-60103Y208998D01*
X-63102D01*
X469200Y165596D02*
X467201D01*
X468201D01*
Y160598D01*
X467201Y159598D01*
X466201D01*
X465202Y160598D01*
X475198Y159598D02*
X471200D01*
X475198Y163597D01*
Y164597D01*
X474199Y165596D01*
X472199D01*
X471200Y164597D01*
X481196Y159598D02*
X477198D01*
X481196Y163597D01*
Y164597D01*
X480197Y165596D01*
X478197D01*
X477198Y164597D01*
X365013Y-28786D02*
Y-30786D01*
Y-29786D01*
X370011D01*
X371011Y-30786D01*
Y-31785D01*
X370011Y-32785D01*
X371011Y-22788D02*
Y-26787D01*
X367012Y-22788D01*
X366013D01*
X365013Y-23788D01*
Y-25787D01*
X366013Y-26787D01*
X371011Y-20789D02*
Y-18790D01*
Y-19789D01*
X365013D01*
X366013Y-20789D01*
X-73700Y97597D02*
X-75699D01*
X-74699D01*
Y92598D01*
X-75699Y91598D01*
X-76699D01*
X-77698Y92598D01*
X-71700Y91598D02*
X-69701D01*
X-70701D01*
Y97597D01*
X-71700Y96597D01*
X-66702Y97597D02*
X-62703D01*
Y96597D01*
X-66702Y92598D01*
Y91598D01*
X-71800Y152197D02*
X-73799D01*
X-72799D01*
Y147198D01*
X-73799Y146198D01*
X-74799D01*
X-75798Y147198D01*
X-69800Y146198D02*
X-67801D01*
X-68801D01*
Y152197D01*
X-69800Y151197D01*
X-60803Y152197D02*
X-62803Y151197D01*
X-64802Y149197D01*
Y147198D01*
X-63802Y146198D01*
X-61803D01*
X-60803Y147198D01*
Y148198D01*
X-61803Y149197D01*
X-64802D01*
X303300Y-4803D02*
X301301D01*
X302301D01*
Y-9802D01*
X301301Y-10802D01*
X300301D01*
X299302Y-9802D01*
X305300Y-10802D02*
X307299D01*
X306299D01*
Y-4803D01*
X305300Y-5803D01*
X310298Y-10802D02*
X312297D01*
X311298D01*
Y-4803D01*
X310298Y-5803D01*
D15*
X271500Y328029D02*
Y337025D01*
Y328029D02*
X316182D01*
Y337005D01*
X105894Y327379D02*
Y336375D01*
Y327379D02*
X150575D01*
Y336355D01*
X398186Y95413D02*
X403108D01*
X398186Y86279D02*
X403108D01*
D16*
X83268Y145571D02*
X87205D01*
X83268Y138484D02*
Y145571D01*
Y138484D02*
X87205D01*
Y145571D01*
D17*
X319783Y95177D02*
Y98130D01*
Y95177D02*
X323622D01*
X319685Y104035D02*
Y106988D01*
X323524D01*
X422985Y36997D02*
X423542Y37554D01*
Y38669D01*
X422985Y39227D01*
X422427D01*
X421870Y38669D01*
Y37554D01*
X421312Y36997D01*
X420755D01*
X420197Y37554D01*
Y38669D01*
X420755Y39227D01*
X423542Y35882D02*
X420197D01*
X421312Y34767D01*
X420197Y33652D01*
X423542D01*
X420197Y30306D02*
Y32536D01*
X422427Y30306D01*
X422985D01*
X423542Y30864D01*
Y31979D01*
X422985Y32536D01*
X432678Y165485D02*
X432120Y166042D01*
X431005D01*
X430447Y165485D01*
Y164927D01*
X431005Y164369D01*
X432120D01*
X432678Y163812D01*
Y163254D01*
X432120Y162697D01*
X431005D01*
X430447Y163254D01*
X433793Y166042D02*
Y162697D01*
X434908Y163812D01*
X436023Y162697D01*
Y166042D01*
X437138Y162697D02*
X438253D01*
X437696D01*
Y166042D01*
X437138Y165485D01*
X366957Y96935D02*
X367514Y97492D01*
Y98607D01*
X366957Y99165D01*
X366399D01*
X365842Y98607D01*
Y97492D01*
X365284Y96935D01*
X364726D01*
X364169Y97492D01*
Y98607D01*
X364726Y99165D01*
X367514Y95819D02*
X364169D01*
X365284Y94704D01*
X364169Y93589D01*
X367514D01*
X364169Y90244D02*
Y92474D01*
X366399Y90244D01*
X366957D01*
X367514Y90801D01*
Y91917D01*
X366957Y92474D01*
X361124Y82118D02*
X360566Y82676D01*
X359451D01*
X358894Y82118D01*
Y81561D01*
X359451Y81003D01*
X360566D01*
X361124Y80446D01*
Y79888D01*
X360566Y79331D01*
X359451D01*
X358894Y79888D01*
X362239Y82676D02*
Y79331D01*
X363354Y80446D01*
X364469Y79331D01*
Y82676D01*
X367815Y79331D02*
X365584D01*
X367815Y81561D01*
Y82118D01*
X367257Y82676D01*
X366142D01*
X365584Y82118D01*
X366733Y109382D02*
X367290Y109939D01*
Y111054D01*
X366733Y111612D01*
X366175D01*
X365617Y111054D01*
Y109939D01*
X365060Y109382D01*
X364502D01*
X363945Y109939D01*
Y111054D01*
X364502Y111612D01*
X367290Y108267D02*
X363945D01*
X365060Y107151D01*
X363945Y106036D01*
X367290D01*
X363945Y104921D02*
Y103806D01*
Y104364D01*
X367290D01*
X366733Y104921D01*
X23656Y152677D02*
X21426D01*
Y151004D01*
X22541D01*
X21426D01*
Y149331D01*
X24771D02*
Y151562D01*
X25886Y152677D01*
X27002Y151562D01*
Y149331D01*
Y151004D01*
X24771D01*
X28117Y149331D02*
Y152677D01*
X30347Y149331D01*
Y152677D01*
X33692Y149331D02*
X31462D01*
X33692Y151562D01*
Y152119D01*
X33135Y152677D01*
X32020D01*
X31462Y152119D01*
X24214Y97512D02*
X21983D01*
Y95839D01*
X23099D01*
X21983D01*
Y94167D01*
X25329D02*
Y96397D01*
X26444Y97512D01*
X27559Y96397D01*
Y94167D01*
Y95839D01*
X25329D01*
X28674Y94167D02*
Y97512D01*
X30904Y94167D01*
Y97512D01*
X32020Y94167D02*
X33135D01*
X32577D01*
Y97512D01*
X32020Y96955D01*
X68800Y65649D02*
X66570D01*
Y63976D01*
X67685D01*
X66570D01*
Y62303D01*
X69915D02*
Y64533D01*
X71030Y65649D01*
X72146Y64533D01*
Y62303D01*
Y63976D01*
X69915D01*
X73261Y62303D02*
Y65649D01*
X75491Y62303D01*
Y65649D01*
X76606Y62303D02*
X77721D01*
X77164D01*
Y65649D01*
X76606Y65091D01*
X67490Y86161D02*
X65260D01*
Y84488D01*
X66375D01*
X65260D01*
Y82815D01*
X68605D02*
Y85046D01*
X69720Y86161D01*
X70835Y85046D01*
Y82815D01*
Y84488D01*
X68605D01*
X71950Y82815D02*
Y86161D01*
X74181Y82815D01*
Y86161D01*
X77526Y82815D02*
X75296D01*
X77526Y85046D01*
Y85603D01*
X76968Y86161D01*
X75853D01*
X75296Y85603D01*
X106889Y105852D02*
X103544D01*
Y104179D01*
X104101Y103622D01*
X106332D01*
X106889Y104179D01*
Y105852D01*
Y100277D02*
Y102507D01*
X105217D01*
X105774Y101392D01*
Y100834D01*
X105217Y100277D01*
X104101D01*
X103544Y100834D01*
Y101949D01*
X104101Y102507D01*
X106889Y117666D02*
X103544D01*
Y115993D01*
X104101Y115436D01*
X106332D01*
X106889Y115993D01*
Y117666D01*
X103544Y112648D02*
X106889D01*
X105217Y114320D01*
Y112090D01*
X403917Y290252D02*
X401687D01*
X403917Y292482D01*
Y293040D01*
X403360Y293598D01*
X402245D01*
X401687Y293040D01*
X405032D02*
X405590Y293598D01*
X406705D01*
X407263Y293040D01*
Y292482D01*
X406705Y291925D01*
X406147D01*
X406705D01*
X407263Y291367D01*
Y290810D01*
X406705Y290252D01*
X405590D01*
X405032Y290810D01*
X413396Y293598D02*
X412281D01*
X411723Y293040D01*
Y290810D01*
X412281Y290252D01*
X413396D01*
X413953Y290810D01*
Y293040D01*
X413396Y293598D01*
X417299Y293040D02*
X416741Y293598D01*
X415626D01*
X415068Y293040D01*
Y290810D01*
X415626Y290252D01*
X416741D01*
X417299Y290810D01*
X418414Y293598D02*
X420644D01*
X419529D01*
Y290252D01*
X427335D02*
X425105D01*
X427335Y292482D01*
Y293040D01*
X426777Y293598D01*
X425662D01*
X425105Y293040D01*
X428450D02*
X429008Y293598D01*
X430123D01*
X430680Y293040D01*
Y290810D01*
X430123Y290252D01*
X429008D01*
X428450Y290810D01*
Y293040D01*
X434026Y290252D02*
X431795D01*
X434026Y292482D01*
Y293040D01*
X433468Y293598D01*
X432353D01*
X431795Y293040D01*
X437371Y290252D02*
X435141D01*
X437371Y292482D01*
Y293040D01*
X436813Y293598D01*
X435698D01*
X435141Y293040D01*
X308061Y55830D02*
Y52485D01*
Y54157D01*
X310291D01*
Y55830D01*
Y52485D01*
X313637D02*
X311406D01*
X313637Y54715D01*
Y55272D01*
X313079Y55830D01*
X311964D01*
X311406Y55272D01*
X308104Y94782D02*
Y91437D01*
Y93110D01*
X310335D01*
Y94782D01*
Y91437D01*
X311450D02*
X312565D01*
X312007D01*
Y94782D01*
X311450Y94225D01*
X284152Y26016D02*
X281922D01*
X280807Y24901D01*
X281922Y23786D01*
X284152D01*
X280807Y22671D02*
X284152D01*
Y20998D01*
X283595Y20440D01*
X282480D01*
X281922Y20998D01*
Y22671D01*
X284546Y36646D02*
X282316D01*
X281201Y35531D01*
X282316Y34416D01*
X284546D01*
X281201Y33301D02*
X284546D01*
X281201Y31070D01*
X284546D01*
X285110Y91468D02*
X281765D01*
Y89796D01*
X282322Y89238D01*
X284553D01*
X285110Y89796D01*
Y91468D01*
X281765Y85893D02*
Y88123D01*
X283995Y85893D01*
X284553D01*
X285110Y86450D01*
Y87565D01*
X284553Y88123D01*
X285110Y82547D02*
Y84778D01*
X283437D01*
X283995Y83662D01*
Y83105D01*
X283437Y82547D01*
X282322D01*
X281765Y83105D01*
Y84220D01*
X282322Y84778D01*
X285110Y79655D02*
X281765D01*
Y77982D01*
X282322Y77425D01*
X284553D01*
X285110Y77982D01*
Y79655D01*
X284553Y76309D02*
X285110Y75752D01*
Y74637D01*
X284553Y74079D01*
X283995D01*
X283437Y74637D01*
Y75194D01*
Y74637D01*
X282880Y74079D01*
X282322D01*
X281765Y74637D01*
Y75752D01*
X282322Y76309D01*
X284553Y72964D02*
X285110Y72406D01*
Y71291D01*
X284553Y70734D01*
X283995D01*
X283437Y71291D01*
Y71849D01*
Y71291D01*
X282880Y70734D01*
X282322D01*
X281765Y71291D01*
Y72406D01*
X282322Y72964D01*
X285110Y67841D02*
X281765D01*
Y66168D01*
X282322Y65611D01*
X284553D01*
X285110Y66168D01*
Y67841D01*
X284553Y64496D02*
X285110Y63938D01*
Y62823D01*
X284553Y62265D01*
X283995D01*
X283437Y62823D01*
Y63380D01*
Y62823D01*
X282880Y62265D01*
X282322D01*
X281765Y62823D01*
Y63938D01*
X282322Y64496D01*
X281765Y58920D02*
Y61150D01*
X283995Y58920D01*
X284553D01*
X285110Y59478D01*
Y60593D01*
X284553Y61150D01*
X285110Y56027D02*
X281765D01*
Y54355D01*
X282322Y53797D01*
X284553D01*
X285110Y54355D01*
Y56027D01*
X284553Y52682D02*
X285110Y52125D01*
Y51009D01*
X284553Y50452D01*
X283995D01*
X283437Y51009D01*
Y51567D01*
Y51009D01*
X282880Y50452D01*
X282322D01*
X281765Y51009D01*
Y52125D01*
X282322Y52682D01*
X285110Y47106D02*
Y49337D01*
X283437D01*
X283995Y48221D01*
Y47664D01*
X283437Y47106D01*
X282322D01*
X281765Y47664D01*
Y48779D01*
X282322Y49337D01*
X287698Y64953D02*
X291043D01*
X289371D01*
Y67183D01*
X287698D01*
X291043D01*
Y68299D02*
X288813D01*
X287698Y69414D01*
X288813Y70529D01*
X291043D01*
X289371D01*
Y68299D01*
X287698Y71644D02*
X291043D01*
Y73874D01*
X287698Y74989D02*
X291043D01*
Y77220D01*
Y80565D02*
Y78335D01*
X288813Y80565D01*
X288256D01*
X287698Y80007D01*
Y78892D01*
X288256Y78335D01*
X287403Y88421D02*
X290748D01*
X289075D01*
Y90651D01*
X287403D01*
X290748D01*
Y91766D02*
X288518D01*
X287403Y92881D01*
X288518Y93996D01*
X290748D01*
X289075D01*
Y91766D01*
X287403Y95112D02*
X290748D01*
Y97342D01*
X287403Y98457D02*
X290748D01*
Y100687D01*
Y101802D02*
Y102917D01*
Y102360D01*
X287403D01*
X287960Y101802D01*
X259027Y201303D02*
X259585Y201861D01*
X260700D01*
X261258Y201303D01*
Y200746D01*
X260700Y200188D01*
X260142D01*
X260700D01*
X261258Y199630D01*
Y199073D01*
X260700Y198515D01*
X259585D01*
X259027Y199073D01*
X262373Y201861D02*
Y199630D01*
X263488Y198515D01*
X264603Y199630D01*
Y201861D01*
X265718Y201303D02*
X266276Y201861D01*
X267391D01*
X267948Y201303D01*
Y200746D01*
X267391Y200188D01*
X266833D01*
X267391D01*
X267948Y199630D01*
Y199073D01*
X267391Y198515D01*
X266276D01*
X265718Y199073D01*
X270205Y201303D02*
X270762Y201861D01*
X271878D01*
X272435Y201303D01*
Y200746D01*
X271878Y200188D01*
X271320D01*
X271878D01*
X272435Y199630D01*
Y199073D01*
X271878Y198515D01*
X270762D01*
X270205Y199073D01*
X273550Y201861D02*
Y199630D01*
X274665Y198515D01*
X275781Y199630D01*
Y201861D01*
X276896Y201303D02*
X277453Y201861D01*
X278568D01*
X279126Y201303D01*
Y200746D01*
X278568Y200188D01*
X278011D01*
X278568D01*
X279126Y199630D01*
Y199073D01*
X278568Y198515D01*
X277453D01*
X276896Y199073D01*
X284404Y201303D02*
X283846Y201861D01*
X282731D01*
X282173Y201303D01*
Y199073D01*
X282731Y198515D01*
X283846D01*
X284404Y199073D01*
Y200188D01*
X283289D01*
X285519Y198515D02*
Y201861D01*
X287749Y198515D01*
Y201861D01*
X288864D02*
Y198515D01*
X290537D01*
X291094Y199073D01*
Y201303D01*
X290537Y201861D01*
X288864D01*
X332120Y201465D02*
X331563Y202022D01*
X330447D01*
X329890Y201465D01*
Y199235D01*
X330447Y198677D01*
X331563D01*
X332120Y199235D01*
Y200350D01*
X331005D01*
X333235Y198677D02*
Y202022D01*
X335466Y198677D01*
Y202022D01*
X336581D02*
Y198677D01*
X338253D01*
X338811Y199235D01*
Y201465D01*
X338253Y202022D01*
X336581D01*
X322415D02*
X320185D01*
Y200350D01*
X321300Y200907D01*
X321857D01*
X322415Y200350D01*
Y199235D01*
X321857Y198677D01*
X320742D01*
X320185Y199235D01*
X323530Y202022D02*
Y199792D01*
X324645Y198677D01*
X325760Y199792D01*
Y202022D01*
X312533D02*
X310303D01*
Y200350D01*
X311418Y200907D01*
X311975D01*
X312533Y200350D01*
Y199235D01*
X311975Y198677D01*
X310860D01*
X310303Y199235D01*
X313648Y202022D02*
Y199792D01*
X314763Y198677D01*
X315878Y199792D01*
Y202022D01*
X236844Y163681D02*
X235729D01*
X236287D01*
Y160893D01*
X235729Y160335D01*
X235172D01*
X234614Y160893D01*
X239632Y160335D02*
Y163681D01*
X237960Y162008D01*
X240190D01*
X241305Y163123D02*
X241863Y163681D01*
X242978D01*
X243535Y163123D01*
Y160893D01*
X242978Y160335D01*
X241863D01*
X241305Y160893D01*
Y163123D01*
X141963Y164468D02*
X140848D01*
X141405D01*
Y161680D01*
X140848Y161123D01*
X140290D01*
X139732Y161680D01*
X143078Y163910D02*
X143635Y164468D01*
X144750D01*
X145308Y163910D01*
Y163353D01*
X144750Y162795D01*
X144193D01*
X144750D01*
X145308Y162238D01*
Y161680D01*
X144750Y161123D01*
X143635D01*
X143078Y161680D01*
X146423D02*
X146981Y161123D01*
X148096D01*
X148653Y161680D01*
Y163910D01*
X148096Y164468D01*
X146981D01*
X146423Y163910D01*
Y163353D01*
X146981Y162795D01*
X148653D01*
X50295Y10203D02*
Y11318D01*
Y10760D01*
X47507D01*
X46949Y11318D01*
Y11875D01*
X47507Y12433D01*
X49737Y9088D02*
X50295Y8530D01*
Y7415D01*
X49737Y6857D01*
X49180D01*
X48622Y7415D01*
Y7972D01*
Y7415D01*
X48065Y6857D01*
X47507D01*
X46949Y7415D01*
Y8530D01*
X47507Y9088D01*
X49737Y5742D02*
X50295Y5185D01*
Y4070D01*
X49737Y3512D01*
X49180D01*
X48622Y4070D01*
X48065Y3512D01*
X47507D01*
X46949Y4070D01*
Y5185D01*
X47507Y5742D01*
X48065D01*
X48622Y5185D01*
X49180Y5742D01*
X49737D01*
X48622Y5185D02*
Y4070D01*
X90977Y143503D02*
X91535Y144061D01*
Y145176D01*
X90977Y145734D01*
X90420D01*
X89862Y145176D01*
Y144061D01*
X89305Y143503D01*
X88747D01*
X88190Y144061D01*
Y145176D01*
X88747Y145734D01*
X91535Y140158D02*
Y141273D01*
Y140716D01*
X88747D01*
X88190Y141273D01*
Y141831D01*
X88747Y142388D01*
X88190Y139043D02*
Y137928D01*
Y138485D01*
X91535D01*
X90977Y139043D01*
X315524Y122245D02*
Y125590D01*
X317197D01*
X317755Y125032D01*
Y123917D01*
X317197Y123360D01*
X315524D01*
X316639D02*
X317755Y122245D01*
X318870Y122802D02*
X319427Y122245D01*
X320542D01*
X321100Y122802D01*
Y125032D01*
X320542Y125590D01*
X319427D01*
X318870Y125032D01*
Y124475D01*
X319427Y123917D01*
X321100D01*
X308126Y107709D02*
X311472D01*
Y106036D01*
X310914Y105479D01*
X309799D01*
X309242Y106036D01*
Y107709D01*
Y106594D02*
X308126Y105479D01*
X310914Y104364D02*
X311472Y103806D01*
Y102691D01*
X310914Y102133D01*
X310357D01*
X309799Y102691D01*
X309242Y102133D01*
X308684D01*
X308126Y102691D01*
Y103806D01*
X308684Y104364D01*
X309242D01*
X309799Y103806D01*
X310357Y104364D01*
X310914D01*
X309799Y103806D02*
Y102691D01*
X117980Y183465D02*
Y186811D01*
X119653D01*
X120210Y186253D01*
Y185138D01*
X119653Y184580D01*
X117980D01*
X119095D02*
X120210Y183465D01*
X123556D02*
X121325D01*
X123556Y185695D01*
Y186253D01*
X122998Y186811D01*
X121883D01*
X121325Y186253D01*
X287501Y139337D02*
X290846D01*
Y137664D01*
X290288Y137106D01*
X289173D01*
X288616Y137664D01*
Y139337D01*
Y138221D02*
X287501Y137106D01*
Y135991D02*
Y134876D01*
Y135434D01*
X290846D01*
X290288Y135991D01*
X133858Y174146D02*
X130512D01*
Y172473D01*
X131070Y171916D01*
X133300D01*
X133858Y172473D01*
Y174146D01*
X130512Y168570D02*
Y170801D01*
X132743Y168570D01*
X133300D01*
X133858Y169128D01*
Y170243D01*
X133300Y170801D01*
X284520Y140998D02*
X281174D01*
Y139325D01*
X281732Y138768D01*
X283962D01*
X284520Y139325D01*
Y140998D01*
X281174Y137653D02*
Y136537D01*
Y137095D01*
X284520D01*
X283962Y137653D01*
X111844Y141699D02*
X112401Y142257D01*
Y143372D01*
X111844Y143930D01*
X109613D01*
X109056Y143372D01*
Y142257D01*
X109613Y141699D01*
X109056Y138911D02*
X112401D01*
X110728Y140584D01*
Y138354D01*
X117158Y141699D02*
X117716Y142257D01*
Y143372D01*
X117158Y143930D01*
X114928D01*
X114371Y143372D01*
Y142257D01*
X114928Y141699D01*
X114371Y138354D02*
Y140584D01*
X116601Y138354D01*
X117158D01*
X117716Y138911D01*
Y140027D01*
X117158Y140584D01*
X133957Y207382D02*
Y210728D01*
X135629D01*
X136187Y210170D01*
Y209055D01*
X135629Y208498D01*
X133957D01*
X135072D02*
X136187Y207382D01*
X139532D02*
X137302D01*
X139532Y209613D01*
Y210170D01*
X138974Y210728D01*
X137859D01*
X137302Y210170D01*
X140647D02*
X141205Y210728D01*
X142320D01*
X142877Y210170D01*
Y209613D01*
X142320Y209055D01*
X141762D01*
X142320D01*
X142877Y208498D01*
Y207940D01*
X142320Y207382D01*
X141205D01*
X140647Y207940D01*
X133925Y228051D02*
Y224705D01*
X135598D01*
X136155Y225263D01*
Y227493D01*
X135598Y228051D01*
X133925D01*
X137270Y227493D02*
X137828Y228051D01*
X138943D01*
X139500Y227493D01*
Y226936D01*
X138943Y226378D01*
X138385D01*
X138943D01*
X139500Y225820D01*
Y225263D01*
X138943Y224705D01*
X137828D01*
X137270Y225263D01*
X48624Y290779D02*
X51969D01*
Y289107D01*
X51412Y288549D01*
X50297D01*
X49739Y289107D01*
Y290779D01*
Y289664D02*
X48624Y288549D01*
X51412Y287434D02*
X51969Y286877D01*
Y285761D01*
X51412Y285204D01*
X50854D01*
X50297Y285761D01*
Y286319D01*
Y285761D01*
X49739Y285204D01*
X49181D01*
X48624Y285761D01*
Y286877D01*
X49181Y287434D01*
X51412Y284089D02*
X51969Y283531D01*
Y282416D01*
X51412Y281858D01*
X49181D01*
X48624Y282416D01*
Y283531D01*
X49181Y284089D01*
X51412D01*
X43701Y290779D02*
X47047D01*
Y289107D01*
X46489Y288549D01*
X45374D01*
X44816Y289107D01*
Y290779D01*
Y289664D02*
X43701Y288549D01*
Y285204D02*
Y287434D01*
X45932Y285204D01*
X46489D01*
X47047Y285761D01*
Y286877D01*
X46489Y287434D01*
X47047Y281858D02*
X46489Y282974D01*
X45374Y284089D01*
X44259D01*
X43701Y283531D01*
Y282416D01*
X44259Y281858D01*
X44816D01*
X45374Y282416D01*
Y284089D01*
X206454Y288540D02*
Y285195D01*
X208127D01*
X208684Y285752D01*
Y287983D01*
X208127Y288540D01*
X206454D01*
X212030D02*
X209800D01*
Y286867D01*
X210915Y287425D01*
X211472D01*
X212030Y286867D01*
Y285752D01*
X211472Y285195D01*
X210357D01*
X209800Y285752D01*
X218072Y267716D02*
Y264928D01*
X218629Y264371D01*
X219744D01*
X220302Y264928D01*
Y267716D01*
X223647D02*
X221417D01*
Y266043D01*
X222532Y266601D01*
X223090D01*
X223647Y266043D01*
Y264928D01*
X223090Y264371D01*
X221975D01*
X221417Y264928D01*
X110598Y379133D02*
Y376345D01*
X111156Y375788D01*
X112271D01*
X112828Y376345D01*
Y379133D01*
X115616Y375788D02*
Y379133D01*
X113943Y377461D01*
X116174D01*
X407842Y93503D02*
Y90716D01*
X408400Y90158D01*
X409515D01*
X410072Y90716D01*
Y93503D01*
X413418Y90158D02*
X411188D01*
X413418Y92388D01*
Y92946D01*
X412860Y93503D01*
X411745D01*
X411188Y92946D01*
X406003Y142551D02*
Y140320D01*
Y141435D01*
X402658D01*
X406003Y139205D02*
X403773D01*
X402658Y138090D01*
X403773Y136975D01*
X406003D01*
X405446Y133630D02*
X406003Y134187D01*
Y135302D01*
X405446Y135860D01*
X404888D01*
X404331Y135302D01*
Y134187D01*
X403773Y133630D01*
X403216D01*
X402658Y134187D01*
Y135302D01*
X403216Y135860D01*
X402658Y130284D02*
Y132514D01*
X404888Y130284D01*
X405446D01*
X406003Y130842D01*
Y131957D01*
X405446Y132514D01*
X398993Y59843D02*
X401223D01*
X400108D01*
Y56498D01*
X402338Y59843D02*
Y57613D01*
X403453Y56498D01*
X404569Y57613D01*
Y59843D01*
X407914Y59286D02*
X407356Y59843D01*
X406241D01*
X405684Y59286D01*
Y58728D01*
X406241Y58171D01*
X407356D01*
X407914Y57613D01*
Y57055D01*
X407356Y56498D01*
X406241D01*
X405684Y57055D01*
X409029Y56498D02*
X410144D01*
X409587D01*
Y59843D01*
X409029Y59286D01*
X275035Y378029D02*
Y381374D01*
X276707D01*
X277265Y380817D01*
Y379702D01*
X276707Y379144D01*
X275035D01*
X276150D02*
X277265Y378029D01*
X280610Y381374D02*
X278380D01*
Y378029D01*
X280610D01*
X278380Y379702D02*
X279495D01*
X283956Y380817D02*
X283398Y381374D01*
X282283D01*
X281725Y380817D01*
Y378587D01*
X282283Y378029D01*
X283398D01*
X283956Y378587D01*
Y379702D01*
X282840D01*
X285071Y378029D02*
X286186D01*
X285628D01*
Y381374D01*
X285071Y380817D01*
X311648Y222540D02*
Y225885D01*
X313321D01*
X313878Y225328D01*
Y224213D01*
X313321Y223655D01*
X311648D01*
X312763D02*
X313878Y222540D01*
X314994Y225328D02*
X315551Y225885D01*
X316666D01*
X317224Y225328D01*
Y224770D01*
X316666Y224213D01*
X316109D01*
X316666D01*
X317224Y223655D01*
Y223097D01*
X316666Y222540D01*
X315551D01*
X314994Y223097D01*
X318339Y222540D02*
X319454D01*
X318897D01*
Y225885D01*
X318339Y225328D01*
X278152Y238297D02*
X281498D01*
Y236624D01*
X280940Y236067D01*
X279825D01*
X279268Y236624D01*
Y238297D01*
Y237182D02*
X278152Y236067D01*
Y232721D02*
Y234951D01*
X280383Y232721D01*
X280940D01*
X281498Y233279D01*
Y234394D01*
X280940Y234951D01*
X278710Y231606D02*
X278152Y231048D01*
Y229933D01*
X278710Y229376D01*
X280940D01*
X281498Y229933D01*
Y231048D01*
X280940Y231606D01*
X280383D01*
X279825Y231048D01*
Y229376D01*
X203512Y279134D02*
Y282480D01*
X205185D01*
X205742Y281922D01*
Y280807D01*
X205185Y280250D01*
X203512D01*
X204627D02*
X205742Y279134D01*
X209088D02*
X206857D01*
X209088Y281365D01*
Y281922D01*
X208530Y282480D01*
X207415D01*
X206857Y281922D01*
X210203D02*
X210760Y282480D01*
X211875D01*
X212433Y281922D01*
Y281365D01*
X211875Y280807D01*
X212433Y280250D01*
Y279692D01*
X211875Y279134D01*
X210760D01*
X210203Y279692D01*
Y280250D01*
X210760Y280807D01*
X210203Y281365D01*
Y281922D01*
X210760Y280807D02*
X211875D01*
X194260Y273032D02*
Y276377D01*
X195933D01*
X196490Y275820D01*
Y274705D01*
X195933Y274147D01*
X194260D01*
X195375D02*
X196490Y273032D01*
X199836D02*
X197605D01*
X199836Y275262D01*
Y275820D01*
X199278Y276377D01*
X198163D01*
X197605Y275820D01*
X200951Y276377D02*
X203181D01*
Y275820D01*
X200951Y273590D01*
Y273032D01*
X53217Y162008D02*
Y165354D01*
X54889D01*
X55447Y164796D01*
Y163681D01*
X54889Y163124D01*
X53217D01*
X54332D02*
X55447Y162008D01*
X58792D02*
X56562D01*
X58792Y164239D01*
Y164796D01*
X58235Y165354D01*
X57120D01*
X56562Y164796D01*
X62138Y165354D02*
X59907D01*
Y163681D01*
X61023Y164239D01*
X61580D01*
X62138Y163681D01*
Y162566D01*
X61580Y162008D01*
X60465D01*
X59907Y162566D01*
X407547Y103052D02*
Y106397D01*
X409220D01*
X409778Y105840D01*
Y104724D01*
X409220Y104167D01*
X407547D01*
X408663D02*
X409778Y103052D01*
X413123D02*
X410893D01*
X413123Y105282D01*
Y105840D01*
X412565Y106397D01*
X411450D01*
X410893Y105840D01*
X416468Y103052D02*
X414238D01*
X416468Y105282D01*
Y105840D01*
X415911Y106397D01*
X414796D01*
X414238Y105840D01*
X407715Y97484D02*
Y100830D01*
X409388D01*
X409945Y100272D01*
Y99157D01*
X409388Y98599D01*
X407715D01*
X408830D02*
X409945Y97484D01*
X413291D02*
X411061D01*
X413291Y99715D01*
Y100272D01*
X412733Y100830D01*
X411618D01*
X411061Y100272D01*
X414406Y97484D02*
X415521D01*
X414964D01*
Y100830D01*
X414406Y100272D01*
X384667Y82247D02*
Y85592D01*
X386339D01*
X386897Y85035D01*
Y83920D01*
X386339Y83362D01*
X384667D01*
X385782D02*
X386897Y82247D01*
X390242D02*
X388012D01*
X390242Y84477D01*
Y85035D01*
X389685Y85592D01*
X388570D01*
X388012Y85035D01*
X391357D02*
X391915Y85592D01*
X393030D01*
X393588Y85035D01*
Y82804D01*
X393030Y82247D01*
X391915D01*
X391357Y82804D01*
Y85035D01*
X390760Y113682D02*
Y117027D01*
X392433D01*
X392990Y116470D01*
Y115354D01*
X392433Y114797D01*
X390760D01*
X391875D02*
X392990Y113682D01*
X394105D02*
X395220D01*
X394663D01*
Y117027D01*
X394105Y116470D01*
X396893Y114239D02*
X397451Y113682D01*
X398566D01*
X399124Y114239D01*
Y116470D01*
X398566Y117027D01*
X397451D01*
X396893Y116470D01*
Y115912D01*
X397451Y115354D01*
X399124D01*
X384056Y99359D02*
X387401D01*
Y97686D01*
X386843Y97129D01*
X385728D01*
X385171Y97686D01*
Y99359D01*
Y98244D02*
X384056Y97129D01*
Y96013D02*
Y94898D01*
Y95456D01*
X387401D01*
X386843Y96013D01*
Y93226D02*
X387401Y92668D01*
Y91553D01*
X386843Y90995D01*
X386286D01*
X385728Y91553D01*
X385171Y90995D01*
X384613D01*
X384056Y91553D01*
Y92668D01*
X384613Y93226D01*
X385171D01*
X385728Y92668D01*
X386286Y93226D01*
X386843D01*
X385728Y92668D02*
Y91553D01*
X378741Y128099D02*
X382086D01*
Y126426D01*
X381528Y125869D01*
X380413D01*
X379856Y126426D01*
Y128099D01*
Y126984D02*
X378741Y125869D01*
Y124754D02*
Y123638D01*
Y124196D01*
X382086D01*
X381528Y124754D01*
X382086Y121966D02*
Y119736D01*
X381528D01*
X379298Y121966D01*
X378741D01*
X408121Y77068D02*
Y80413D01*
X409794D01*
X410352Y79855D01*
Y78740D01*
X409794Y78183D01*
X408121D01*
X409236D02*
X410352Y77068D01*
X411467D02*
X412582D01*
X412024D01*
Y80413D01*
X411467Y79855D01*
X416485Y80413D02*
X415370Y79855D01*
X414255Y78740D01*
Y77625D01*
X414812Y77068D01*
X415927D01*
X416485Y77625D01*
Y78183D01*
X415927Y78740D01*
X414255D01*
X408121Y71086D02*
Y74432D01*
X409794D01*
X410352Y73874D01*
Y72759D01*
X409794Y72202D01*
X408121D01*
X409236D02*
X410352Y71086D01*
X411467D02*
X412582D01*
X412024D01*
Y74432D01*
X411467Y73874D01*
X416485Y74432D02*
X414255D01*
Y72759D01*
X415370Y73317D01*
X415927D01*
X416485Y72759D01*
Y71644D01*
X415927Y71086D01*
X414812D01*
X414255Y71644D01*
X408325Y65148D02*
Y68493D01*
X409998D01*
X410556Y67936D01*
Y66820D01*
X409998Y66263D01*
X408325D01*
X409441D02*
X410556Y65148D01*
X411671D02*
X412786D01*
X412228D01*
Y68493D01*
X411671Y67936D01*
X416131Y65148D02*
Y68493D01*
X414459Y66820D01*
X416689D01*
X389863Y134497D02*
X393208D01*
Y132825D01*
X392651Y132267D01*
X391535D01*
X390978Y132825D01*
Y134497D01*
Y133382D02*
X389863Y132267D01*
Y131152D02*
Y130037D01*
Y130594D01*
X393208D01*
X392651Y131152D01*
Y128364D02*
X393208Y127806D01*
Y126691D01*
X392651Y126134D01*
X392093D01*
X391535Y126691D01*
Y127249D01*
Y126691D01*
X390978Y126134D01*
X390420D01*
X389863Y126691D01*
Y127806D01*
X390420Y128364D01*
X383515Y59056D02*
Y62401D01*
X385188D01*
X385745Y61844D01*
Y60728D01*
X385188Y60171D01*
X383515D01*
X384630D02*
X385745Y59056D01*
X386860D02*
X387976D01*
X387418D01*
Y62401D01*
X386860Y61844D01*
X391879Y59056D02*
X389648D01*
X391879Y61286D01*
Y61844D01*
X391321Y62401D01*
X390206D01*
X389648Y61844D01*
X63502Y156398D02*
Y159744D01*
X65175D01*
X65732Y159186D01*
Y158071D01*
X65175Y157513D01*
X63502D01*
X64617D02*
X65732Y156398D01*
X66847D02*
X67962D01*
X67405D01*
Y159744D01*
X66847Y159186D01*
X69635Y156398D02*
X70750D01*
X70193D01*
Y159744D01*
X69635Y159186D01*
X76429Y156398D02*
Y159744D01*
X78101D01*
X78659Y159186D01*
Y158071D01*
X78101Y157513D01*
X76429D01*
X77544D02*
X78659Y156398D01*
X79774D02*
X80889D01*
X80331D01*
Y159744D01*
X79774Y159186D01*
X82562D02*
X83119Y159744D01*
X84234D01*
X84792Y159186D01*
Y156956D01*
X84234Y156398D01*
X83119D01*
X82562Y156956D01*
Y159186D01*
X323721Y84874D02*
X327066D01*
Y83202D01*
X326509Y82644D01*
X325394D01*
X324836Y83202D01*
Y84874D01*
Y83759D02*
X323721Y82644D01*
X327066Y81529D02*
Y79299D01*
X326509D01*
X324279Y81529D01*
X323721D01*
X398327Y195308D02*
X401673D01*
Y193635D01*
X401115Y193077D01*
X400000D01*
X399443Y193635D01*
Y195308D01*
Y194192D02*
X398327Y193077D01*
X401673Y189732D02*
X401115Y190847D01*
X400000Y191962D01*
X398885D01*
X398327Y191404D01*
Y190289D01*
X398885Y189732D01*
X399443D01*
X400000Y190289D01*
Y191962D01*
X337894Y92847D02*
X341240D01*
Y91174D01*
X340682Y90617D01*
X339567D01*
X339009Y91174D01*
Y92847D01*
Y91732D02*
X337894Y90617D01*
X341240Y87271D02*
Y89502D01*
X339567D01*
X340125Y88386D01*
Y87829D01*
X339567Y87271D01*
X338452D01*
X337894Y87829D01*
Y88944D01*
X338452Y89502D01*
X398130Y207611D02*
X401476D01*
Y205938D01*
X400918Y205380D01*
X399803D01*
X399246Y205938D01*
Y207611D01*
Y206495D02*
X398130Y205380D01*
Y202593D02*
X401476D01*
X399803Y204265D01*
Y202035D01*
X318133Y66212D02*
Y69558D01*
X319806D01*
X320363Y69000D01*
Y67885D01*
X319806Y67327D01*
X318133D01*
X319248D02*
X320363Y66212D01*
X321478Y69000D02*
X322036Y69558D01*
X323151D01*
X323709Y69000D01*
Y68443D01*
X323151Y67885D01*
X322593D01*
X323151D01*
X323709Y67327D01*
Y66770D01*
X323151Y66212D01*
X322036D01*
X321478Y66770D01*
X82842Y123786D02*
X85072D01*
X85629Y124344D01*
Y125459D01*
X85072Y126016D01*
X82842D01*
X82284Y125459D01*
Y124344D01*
X83399Y124901D02*
X82284Y123786D01*
Y124344D02*
X82842Y123786D01*
X82284Y120440D02*
Y122671D01*
X84514Y120440D01*
X85072D01*
X85629Y120998D01*
Y122113D01*
X85072Y122671D01*
X327830Y109098D02*
Y111328D01*
X327272Y111886D01*
X326157D01*
X325599Y111328D01*
Y109098D01*
X326157Y108541D01*
X327272D01*
X326714Y109656D02*
X327830Y108541D01*
X327272D02*
X327830Y109098D01*
X328945Y108541D02*
X330060D01*
X329502D01*
Y111886D01*
X328945Y111328D01*
X71393Y181693D02*
Y185039D01*
X73066D01*
X73623Y184481D01*
Y183366D01*
X73066Y182809D01*
X71393D01*
X76411Y185039D02*
X75296D01*
X74738Y184481D01*
Y182251D01*
X75296Y181693D01*
X76411D01*
X76968Y182251D01*
Y184481D01*
X76411Y185039D01*
X78084D02*
X80314D01*
X79199D01*
Y181693D01*
X81429D02*
X82544D01*
X81987D01*
Y185039D01*
X81429Y184481D01*
X320343Y295052D02*
X316998D01*
Y292822D01*
Y289477D02*
Y291707D01*
X319228Y289477D01*
X319786D01*
X320343Y290034D01*
Y291149D01*
X319786Y291707D01*
X155302Y347344D02*
Y343998D01*
X157532D01*
X158647D02*
X159762D01*
X159204D01*
Y347344D01*
X158647Y346786D01*
X344429Y211439D02*
Y212554D01*
Y211996D01*
X341641D01*
X341083Y212554D01*
Y213111D01*
X341641Y213669D01*
X343871Y210324D02*
X344429Y209766D01*
Y208651D01*
X343871Y208093D01*
X343313D01*
X342756Y208651D01*
Y209208D01*
Y208651D01*
X342198Y208093D01*
X341641D01*
X341083Y208651D01*
Y209766D01*
X341641Y210324D01*
X344429Y204748D02*
X343871Y205863D01*
X342756Y206978D01*
X341641D01*
X341083Y206421D01*
Y205306D01*
X341641Y204748D01*
X342198D01*
X342756Y205306D01*
Y206978D01*
X295078Y210848D02*
Y211963D01*
Y211406D01*
X292290D01*
X291733Y211963D01*
Y212521D01*
X292290Y213078D01*
X294521Y209733D02*
X295078Y209176D01*
Y208060D01*
X294521Y207503D01*
X293963D01*
X293406Y208060D01*
Y208618D01*
Y208060D01*
X292848Y207503D01*
X292290D01*
X291733Y208060D01*
Y209176D01*
X292290Y209733D01*
X295078Y204157D02*
Y206388D01*
X293406D01*
X293963Y205273D01*
Y204715D01*
X293406Y204157D01*
X292290D01*
X291733Y204715D01*
Y205830D01*
X292290Y206388D01*
X217126Y389468D02*
Y390583D01*
Y390025D01*
X214338D01*
X213780Y390583D01*
Y391141D01*
X214338Y391698D01*
X216568Y388353D02*
X217126Y387795D01*
Y386680D01*
X216568Y386123D01*
X216010D01*
X215453Y386680D01*
Y387238D01*
Y386680D01*
X214895Y386123D01*
X214338D01*
X213780Y386680D01*
Y387795D01*
X214338Y388353D01*
X213780Y385008D02*
Y383892D01*
Y384450D01*
X217126D01*
X216568Y385008D01*
X5545Y356003D02*
X4430D01*
X4988D01*
Y353216D01*
X4430Y352658D01*
X3873D01*
X3315Y353216D01*
X6661Y355446D02*
X7218Y356003D01*
X8333D01*
X8891Y355446D01*
Y354888D01*
X8333Y354331D01*
X7776D01*
X8333D01*
X8891Y353773D01*
Y353216D01*
X8333Y352658D01*
X7218D01*
X6661Y353216D01*
X10006Y355446D02*
X10563Y356003D01*
X11678D01*
X12236Y355446D01*
Y353216D01*
X11678Y352658D01*
X10563D01*
X10006Y353216D01*
Y355446D01*
X378632Y401544D02*
X377517D01*
X378074D01*
Y398756D01*
X377517Y398198D01*
X376959D01*
X376402Y398756D01*
X381977Y398198D02*
X379747D01*
X381977Y400429D01*
Y400986D01*
X381420Y401544D01*
X380305D01*
X379747Y400986D01*
X383092Y398756D02*
X383650Y398198D01*
X384765D01*
X385323Y398756D01*
Y400986D01*
X384765Y401544D01*
X383650D01*
X383092Y400986D01*
Y400429D01*
X383650Y399871D01*
X385323D01*
X5545Y268143D02*
X4430D01*
X4988D01*
Y265355D01*
X4430Y264797D01*
X3873D01*
X3315Y265355D01*
X8891Y264797D02*
X6661D01*
X8891Y267028D01*
Y267585D01*
X8333Y268143D01*
X7218D01*
X6661Y267585D01*
X10006Y268143D02*
X12236D01*
Y267585D01*
X10006Y265355D01*
Y264797D01*
X5545Y211220D02*
X4430D01*
X4988D01*
Y208432D01*
X4430Y207875D01*
X3873D01*
X3315Y208432D01*
X8891Y207875D02*
X6661D01*
X8891Y210105D01*
Y210662D01*
X8333Y211220D01*
X7218D01*
X6661Y210662D01*
X12236Y211220D02*
X10006D01*
Y209547D01*
X11121Y210105D01*
X11678D01*
X12236Y209547D01*
Y208432D01*
X11678Y207875D01*
X10563D01*
X10006Y208432D01*
X154082Y270275D02*
X152967D01*
X153525D01*
Y267487D01*
X152967Y266930D01*
X152410D01*
X151852Y267487D01*
X157428Y266930D02*
X155198D01*
X157428Y269160D01*
Y269718D01*
X156870Y270275D01*
X155755D01*
X155198Y269718D01*
X160215Y266930D02*
Y270275D01*
X158543Y268602D01*
X160773D01*
X139896Y270275D02*
X138781D01*
X139338D01*
Y267487D01*
X138781Y266930D01*
X138223D01*
X137665Y267487D01*
X143241Y266930D02*
X141011D01*
X143241Y269160D01*
Y269718D01*
X142683Y270275D01*
X141568D01*
X141011Y269718D01*
X144356D02*
X144914Y270275D01*
X146029D01*
X146587Y269718D01*
Y269160D01*
X146029Y268602D01*
X145471D01*
X146029D01*
X146587Y268045D01*
Y267487D01*
X146029Y266930D01*
X144914D01*
X144356Y267487D01*
X410206Y164931D02*
X409090D01*
X409648D01*
Y162144D01*
X409090Y161586D01*
X408533D01*
X407975Y162144D01*
X413551Y161586D02*
X411321D01*
X413551Y163816D01*
Y164374D01*
X412993Y164931D01*
X411878D01*
X411321Y164374D01*
X414666D02*
X415224Y164931D01*
X416339D01*
X416896Y164374D01*
Y162144D01*
X416339Y161586D01*
X415224D01*
X414666Y162144D01*
Y164374D01*
X372568Y52170D02*
X371453D01*
X372011D01*
Y49382D01*
X371453Y48824D01*
X370896D01*
X370338Y49382D01*
X373684Y48824D02*
X374799D01*
X374241D01*
Y52170D01*
X373684Y51612D01*
X376471Y49382D02*
X377029Y48824D01*
X378144D01*
X378702Y49382D01*
Y51612D01*
X378144Y52170D01*
X377029D01*
X376471Y51612D01*
Y51054D01*
X377029Y50497D01*
X378702D01*
X5891Y96922D02*
X4775D01*
X5333D01*
Y94134D01*
X4775Y93576D01*
X4218D01*
X3660Y94134D01*
X7006Y93576D02*
X8121D01*
X7563D01*
Y96922D01*
X7006Y96364D01*
X9794D02*
X10351Y96922D01*
X11466D01*
X12024Y96364D01*
Y95806D01*
X11466Y95249D01*
X12024Y94691D01*
Y94134D01*
X11466Y93576D01*
X10351D01*
X9794Y94134D01*
Y94691D01*
X10351Y95249D01*
X9794Y95806D01*
Y96364D01*
X10351Y95249D02*
X11466D01*
X5930Y152086D02*
X4814D01*
X5372D01*
Y149298D01*
X4814Y148741D01*
X4257D01*
X3699Y149298D01*
X7045Y148741D02*
X8160D01*
X7602D01*
Y152086D01*
X7045Y151529D01*
X12063Y152086D02*
X9833D01*
Y150414D01*
X10948Y150971D01*
X11505D01*
X12063Y150414D01*
Y149298D01*
X11505Y148741D01*
X10390D01*
X9833Y149298D01*
X293306Y9727D02*
Y10842D01*
Y10285D01*
X290519D01*
X289961Y10842D01*
Y11400D01*
X290519Y11957D01*
X289961Y8612D02*
Y7497D01*
Y8054D01*
X293306D01*
X292749Y8612D01*
X289961Y4151D02*
X293306D01*
X291634Y5824D01*
Y3594D01*
X409663Y249212D02*
X408548D01*
X409105D01*
Y246424D01*
X408548Y245867D01*
X407990D01*
X407433Y246424D01*
X410778Y245867D02*
X411893D01*
X411335D01*
Y249212D01*
X410778Y248655D01*
X415796Y245867D02*
X413566D01*
X415796Y248097D01*
Y248655D01*
X415238Y249212D01*
X414123D01*
X413566Y248655D01*
X161057Y224477D02*
X159941D01*
X160499D01*
Y221690D01*
X159941Y221132D01*
X159384D01*
X158826Y221690D01*
X162172Y223920D02*
X162729Y224477D01*
X163844D01*
X164402Y223920D01*
Y223362D01*
X163844Y222805D01*
X164402Y222247D01*
Y221690D01*
X163844Y221132D01*
X162729D01*
X162172Y221690D01*
Y222247D01*
X162729Y222805D01*
X162172Y223362D01*
Y223920D01*
X162729Y222805D02*
X163844D01*
X350782Y123333D02*
X349667D01*
X350225D01*
Y120545D01*
X349667Y119987D01*
X349110D01*
X348552Y120545D01*
X354128Y123333D02*
X353012Y122775D01*
X351897Y121660D01*
Y120545D01*
X352455Y119987D01*
X353570D01*
X354128Y120545D01*
Y121102D01*
X353570Y121660D01*
X351897D01*
X300729Y291912D02*
X297384D01*
Y290239D01*
X297941Y289682D01*
X300172D01*
X300729Y290239D01*
Y291912D01*
X297941Y288566D02*
X297384Y288009D01*
Y286894D01*
X297941Y286336D01*
X300172D01*
X300729Y286894D01*
Y288009D01*
X300172Y288566D01*
X299614D01*
X299057Y288009D01*
Y286336D01*
X323324Y225885D02*
Y222540D01*
X324996D01*
X325554Y223097D01*
Y225328D01*
X324996Y225885D01*
X323324D01*
X326669Y225328D02*
X327227Y225885D01*
X328342D01*
X328899Y225328D01*
Y224770D01*
X328342Y224213D01*
X328899Y223655D01*
Y223097D01*
X328342Y222540D01*
X327227D01*
X326669Y223097D01*
Y223655D01*
X327227Y224213D01*
X326669Y224770D01*
Y225328D01*
X327227Y224213D02*
X328342D01*
X132809Y293974D02*
X129463D01*
Y292301D01*
X130021Y291744D01*
X132251D01*
X132809Y292301D01*
Y293974D01*
Y290629D02*
Y288398D01*
X132251D01*
X130021Y290629D01*
X129463D01*
X259539Y236624D02*
X256193D01*
Y234951D01*
X256751Y234394D01*
X258981D01*
X259539Y234951D01*
Y236624D01*
Y231048D02*
X258981Y232164D01*
X257866Y233279D01*
X256751D01*
X256193Y232721D01*
Y231606D01*
X256751Y231048D01*
X257309D01*
X257866Y231606D01*
Y233279D01*
X25067Y279626D02*
Y276280D01*
X26739D01*
X27297Y276838D01*
Y279068D01*
X26739Y279626D01*
X25067D01*
X30085Y276280D02*
Y279626D01*
X28412Y277953D01*
X30642D01*
X323753Y383234D02*
X324310Y383792D01*
Y384907D01*
X323753Y385464D01*
X321523D01*
X320965Y384907D01*
Y383792D01*
X321523Y383234D01*
X320965Y379889D02*
Y382119D01*
X323195Y379889D01*
X323753D01*
X324310Y380446D01*
Y381561D01*
X323753Y382119D01*
X324310Y376543D02*
X323753Y377659D01*
X322638Y378774D01*
X321523D01*
X320965Y378216D01*
Y377101D01*
X321523Y376543D01*
X322080D01*
X322638Y377101D01*
Y378774D01*
X236648Y322178D02*
X236090Y322736D01*
X234975D01*
X234418Y322178D01*
Y319948D01*
X234975Y319390D01*
X236090D01*
X236648Y319948D01*
X239993Y319390D02*
X237763D01*
X239993Y321621D01*
Y322178D01*
X239436Y322736D01*
X238320D01*
X237763Y322178D01*
X243338Y322736D02*
X241108D01*
Y321063D01*
X242223Y321621D01*
X242781D01*
X243338Y321063D01*
Y319948D01*
X242781Y319390D01*
X241666D01*
X241108Y319948D01*
X186254Y239353D02*
X185696Y239911D01*
X184581D01*
X184024Y239353D01*
Y237123D01*
X184581Y236565D01*
X185696D01*
X186254Y237123D01*
X189599Y236565D02*
X187369D01*
X189599Y238796D01*
Y239353D01*
X189042Y239911D01*
X187927D01*
X187369Y239353D01*
X192387Y236565D02*
Y239911D01*
X190715Y238238D01*
X192945D01*
X185784Y262514D02*
X185226Y263071D01*
X184111D01*
X183554Y262514D01*
Y260283D01*
X184111Y259726D01*
X185226D01*
X185784Y260283D01*
X189129Y259726D02*
X186899D01*
X189129Y261956D01*
Y262514D01*
X188572Y263071D01*
X187456D01*
X186899Y262514D01*
X190244D02*
X190802Y263071D01*
X191917D01*
X192474Y262514D01*
Y261956D01*
X191917Y261398D01*
X191359D01*
X191917D01*
X192474Y260841D01*
Y260283D01*
X191917Y259726D01*
X190802D01*
X190244Y260283D01*
X164404Y390977D02*
X163846Y391535D01*
X162731D01*
X162173Y390977D01*
Y388747D01*
X162731Y388190D01*
X163846D01*
X164404Y388747D01*
X167749Y388190D02*
X165519D01*
X167749Y390420D01*
Y390977D01*
X167191Y391535D01*
X166076D01*
X165519Y390977D01*
X171094Y388190D02*
X168864D01*
X171094Y390420D01*
Y390977D01*
X170537Y391535D01*
X169422D01*
X168864Y390977D01*
X102063Y315427D02*
X101505Y315985D01*
X100390D01*
X99833Y315427D01*
Y313197D01*
X100390Y312640D01*
X101505D01*
X102063Y313197D01*
X105408Y312640D02*
X103178D01*
X105408Y314870D01*
Y315427D01*
X104851Y315985D01*
X103736D01*
X103178Y315427D01*
X106523Y312640D02*
X107639D01*
X107081D01*
Y315985D01*
X106523Y315427D01*
X79167Y353773D02*
X78610Y354330D01*
X77495D01*
X76937Y353773D01*
Y351542D01*
X77495Y350985D01*
X78610D01*
X79167Y351542D01*
X82513Y350985D02*
X80282D01*
X82513Y353215D01*
Y353773D01*
X81955Y354330D01*
X80840D01*
X80282Y353773D01*
X83628D02*
X84185Y354330D01*
X85301D01*
X85858Y353773D01*
Y351542D01*
X85301Y350985D01*
X84185D01*
X83628Y351542D01*
Y353773D01*
X84876Y302296D02*
X84318Y302854D01*
X83203D01*
X82645Y302296D01*
Y300066D01*
X83203Y299508D01*
X84318D01*
X84876Y300066D01*
X85991Y302296D02*
X86548Y302854D01*
X87663D01*
X88221Y302296D01*
Y301739D01*
X87663Y301181D01*
X88221Y300623D01*
Y300066D01*
X87663Y299508D01*
X86548D01*
X85991Y300066D01*
Y300623D01*
X86548Y301181D01*
X85991Y301739D01*
Y302296D01*
X86548Y301181D02*
X87663D01*
X396883Y153379D02*
X396326Y153937D01*
X395211D01*
X394653Y153379D01*
Y151149D01*
X395211Y150591D01*
X396326D01*
X396883Y151149D01*
X397998Y153937D02*
X400229D01*
Y153379D01*
X397998Y151149D01*
Y150591D01*
X372209Y73874D02*
X371652Y74432D01*
X370537D01*
X369979Y73874D01*
Y71644D01*
X370537Y71086D01*
X371652D01*
X372209Y71644D01*
X375555Y74432D02*
X374440Y73874D01*
X373324Y72759D01*
Y71644D01*
X373882Y71086D01*
X374997D01*
X375555Y71644D01*
Y72202D01*
X374997Y72759D01*
X373324D01*
X349541Y62729D02*
X348983Y63287D01*
X347868D01*
X347311Y62729D01*
Y60499D01*
X347868Y59942D01*
X348983D01*
X349541Y60499D01*
X352886Y63287D02*
X350656D01*
Y61614D01*
X351771Y62172D01*
X352329D01*
X352886Y61614D01*
Y60499D01*
X352329Y59942D01*
X351214D01*
X350656Y60499D01*
X262106Y159875D02*
X261549Y160433D01*
X260434D01*
X259876Y159875D01*
Y157645D01*
X260434Y157087D01*
X261549D01*
X262106Y157645D01*
X263221Y157087D02*
X264336D01*
X263779D01*
Y160433D01*
X263221Y159875D01*
X252592Y159580D02*
X252034Y160137D01*
X250919D01*
X250362Y159580D01*
Y157349D01*
X250919Y156792D01*
X252034D01*
X252592Y157349D01*
X253707Y159580D02*
X254265Y160137D01*
X255380D01*
X255937Y159580D01*
Y159022D01*
X255380Y158465D01*
X254822D01*
X255380D01*
X255937Y157907D01*
Y157349D01*
X255380Y156792D01*
X254265D01*
X253707Y157349D01*
D18*
X61638Y52924D02*
X60851Y53711D01*
X59276D01*
X58489Y52924D01*
Y49775D01*
X59276Y48988D01*
X60851D01*
X61638Y49775D01*
Y51350D01*
X60064D01*
X63212Y48988D02*
Y53711D01*
X66361Y48988D01*
Y53711D01*
X67935D02*
Y48988D01*
X70297D01*
X71084Y49775D01*
Y52924D01*
X70297Y53711D01*
X67935D01*
X79091Y48753D02*
Y53475D01*
X81452D01*
X82239Y52688D01*
Y51114D01*
X81452Y50327D01*
X79091D01*
X80665D02*
X82239Y48753D01*
X83814Y53475D02*
X86962Y48753D01*
Y53475D02*
X83814Y48753D01*
X91685D02*
X88536D01*
X91685Y51901D01*
Y52688D01*
X90898Y53475D01*
X89324D01*
X88536Y52688D01*
X99692Y53946D02*
X102840D01*
X101266D01*
Y49224D01*
X104415Y53946D02*
X107563Y49224D01*
Y53946D02*
X104415Y49224D01*
X112286D02*
X109138D01*
X112286Y52372D01*
Y53159D01*
X111499Y53946D01*
X109925D01*
X109138Y53159D01*
X408367Y345176D02*
X407580Y345963D01*
X406006D01*
X405219Y345176D01*
Y342027D01*
X406006Y341240D01*
X407580D01*
X408367Y342027D01*
Y343602D01*
X406793D01*
X409941Y341240D02*
Y345963D01*
X413090Y341240D01*
Y345963D01*
X414664D02*
Y341240D01*
X417026D01*
X417813Y342027D01*
Y345176D01*
X417026Y345963D01*
X414664D01*
X389183D02*
X386034D01*
Y343602D01*
X387609Y344389D01*
X388396D01*
X389183Y343602D01*
Y342027D01*
X388396Y341240D01*
X386822D01*
X386034Y342027D01*
X390757Y345963D02*
Y342814D01*
X392332Y341240D01*
X393906Y342814D01*
Y345963D01*
X249903Y345176D02*
X249115Y345963D01*
X247541D01*
X246754Y345176D01*
Y342027D01*
X247541Y341240D01*
X249115D01*
X249903Y342027D01*
Y343602D01*
X248328D01*
X251477Y341240D02*
Y345963D01*
X254626Y341240D01*
Y345963D01*
X256200D02*
Y341240D01*
X258561D01*
X259348Y342027D01*
Y345176D01*
X258561Y345963D01*
X256200D01*
X226183Y341210D02*
X227757D01*
X226970D01*
Y345933D01*
X226183Y345146D01*
X233267Y341210D02*
X230119D01*
X233267Y344359D01*
Y345146D01*
X232480Y345933D01*
X230906D01*
X230119Y345146D01*
X234842Y345933D02*
Y342785D01*
X236416Y341210D01*
X237990Y342785D01*
Y345933D01*
X47441Y136712D02*
Y139860D01*
X50590Y136712D01*
X51377D01*
X52164Y137499D01*
Y139073D01*
X51377Y139860D01*
X47441Y132776D02*
X52164D01*
X49803Y135137D01*
Y131989D01*
X52164Y130414D02*
X49015D01*
X47441Y128840D01*
X49015Y127266D01*
X52164D01*
X47933Y195165D02*
X51082D01*
X52656Y193591D01*
X51082Y192016D01*
X47933D01*
X50295D01*
Y195165D01*
X47933Y190442D02*
Y188868D01*
Y189655D01*
X52656D01*
X51869Y190442D01*
X49902Y320373D02*
Y323522D01*
X53050Y320373D01*
X53837D01*
X54624Y321160D01*
Y322734D01*
X53837Y323522D01*
X49902Y316437D02*
X54624D01*
X52263Y318799D01*
Y315650D01*
X54624Y314076D02*
X51476D01*
X49902Y312502D01*
X51476Y310927D01*
X54624D01*
X53837Y339523D02*
X54624Y340311D01*
Y341885D01*
X53837Y342672D01*
X50689D01*
X49902Y341885D01*
Y340311D01*
X50689Y339523D01*
X52263D01*
Y341098D01*
X49902Y337949D02*
X54624D01*
X49902Y334801D01*
X54624D01*
Y333226D02*
X49902D01*
Y330865D01*
X50689Y330078D01*
X53837D01*
X54624Y330865D01*
Y333226D01*
X54039Y252762D02*
X49316D01*
Y250400D01*
X50103Y249613D01*
X50890D01*
X51677Y250400D01*
Y252762D01*
Y250400D01*
X52464Y249613D01*
X53251D01*
X54039Y250400D01*
Y252762D01*
X49316Y244890D02*
Y248039D01*
X52464Y244890D01*
X53251D01*
X54039Y245677D01*
Y247252D01*
X53251Y248039D01*
X53755Y233662D02*
X49032D01*
Y231301D01*
X49819Y230514D01*
X50606D01*
X51393Y231301D01*
Y233662D01*
Y231301D01*
X52180Y230514D01*
X52968D01*
X53755Y231301D01*
Y233662D01*
X49032Y228939D02*
Y227365D01*
Y228152D01*
X53755D01*
X52968Y228939D01*
X47933Y177164D02*
X51082D01*
X52656Y175590D01*
X51082Y174015D01*
X47933D01*
X50295D01*
Y177164D01*
X47933Y169293D02*
Y172441D01*
X51082Y169293D01*
X51869D01*
X52656Y170080D01*
Y171654D01*
X51869Y172441D01*
X51408Y115661D02*
X52195Y116448D01*
Y118023D01*
X51408Y118810D01*
X48259D01*
X47472Y118023D01*
Y116448D01*
X48259Y115661D01*
X49834D01*
Y117236D01*
X47472Y114087D02*
X52195D01*
X47472Y110939D01*
X52195D01*
Y109364D02*
X47472D01*
Y107003D01*
X48259Y106216D01*
X51408D01*
X52195Y107003D01*
Y109364D01*
D19*
X122671Y304602D02*
D03*
X290453Y302067D02*
D03*
M02*
