G04*
G04 #@! TF.GenerationSoftware,Altium Limited,Altium Designer,22.10.1 (41)*
G04*
G04 Layer_Physical_Order=1*
G04 Layer_Color=255*
%FSLAX25Y25*%
%MOIN*%
G70*
G04*
G04 #@! TF.SameCoordinates,F8C157B4-DA96-4F04-9901-D09C045D4249*
G04*
G04*
G04 #@! TF.FilePolarity,Positive*
G04*
G01*
G75*
%ADD14C,0.01000*%
G04:AMPARAMS|DCode=20|XSize=159.06mil|YSize=83.46mil|CornerRadius=16.69mil|HoleSize=0mil|Usage=FLASHONLY|Rotation=180.000|XOffset=0mil|YOffset=0mil|HoleType=Round|Shape=RoundedRectangle|*
%AMROUNDEDRECTD20*
21,1,0.15906,0.05008,0,0,180.0*
21,1,0.12567,0.08346,0,0,180.0*
1,1,0.03339,-0.06284,0.02504*
1,1,0.03339,0.06284,0.02504*
1,1,0.03339,0.06284,-0.02504*
1,1,0.03339,-0.06284,-0.02504*
%
%ADD20ROUNDEDRECTD20*%
%ADD21R,0.07874X0.15748*%
%ADD22R,0.21654X0.11811*%
%ADD23R,0.03937X0.13780*%
G04:AMPARAMS|DCode=24|XSize=41.73mil|YSize=15.35mil|CornerRadius=1.92mil|HoleSize=0mil|Usage=FLASHONLY|Rotation=180.000|XOffset=0mil|YOffset=0mil|HoleType=Round|Shape=RoundedRectangle|*
%AMROUNDEDRECTD24*
21,1,0.04173,0.01152,0,0,180.0*
21,1,0.03789,0.01535,0,0,180.0*
1,1,0.00384,-0.01895,0.00576*
1,1,0.00384,0.01895,0.00576*
1,1,0.00384,0.01895,-0.00576*
1,1,0.00384,-0.01895,-0.00576*
%
%ADD24ROUNDEDRECTD24*%
%ADD25R,0.05700X0.03000*%
%ADD26R,0.04900X0.04902*%
%ADD27R,0.05906X0.06299*%
%ADD28R,0.03150X0.03150*%
%ADD29R,0.03150X0.03150*%
%ADD30R,0.05118X0.03543*%
%ADD31R,0.03543X0.05118*%
%ADD32R,0.03937X0.03740*%
G04:AMPARAMS|DCode=33|XSize=48.03mil|YSize=111.42mil|CornerRadius=12.01mil|HoleSize=0mil|Usage=FLASHONLY|Rotation=180.000|XOffset=0mil|YOffset=0mil|HoleType=Round|Shape=RoundedRectangle|*
%AMROUNDEDRECTD33*
21,1,0.04803,0.08740,0,0,180.0*
21,1,0.02402,0.11142,0,0,180.0*
1,1,0.02402,-0.01201,0.04370*
1,1,0.02402,0.01201,0.04370*
1,1,0.02402,0.01201,-0.04370*
1,1,0.02402,-0.01201,-0.04370*
%
%ADD33ROUNDEDRECTD33*%
%ADD34R,0.11142X0.03189*%
%ADD35R,0.23622X0.23622*%
%ADD36R,0.03150X0.05118*%
%ADD37R,0.05118X0.03150*%
%ADD38R,0.03347X0.03347*%
%ADD39R,0.03347X0.03347*%
%ADD40R,0.02362X0.01968*%
%ADD41R,0.06693X0.09843*%
%ADD42R,0.03543X0.03150*%
G04:AMPARAMS|DCode=43|XSize=19.68mil|YSize=13.78mil|CornerRadius=3.45mil|HoleSize=0mil|Usage=FLASHONLY|Rotation=180.000|XOffset=0mil|YOffset=0mil|HoleType=Round|Shape=RoundedRectangle|*
%AMROUNDEDRECTD43*
21,1,0.01968,0.00689,0,0,180.0*
21,1,0.01280,0.01378,0,0,180.0*
1,1,0.00689,-0.00640,0.00345*
1,1,0.00689,0.00640,0.00345*
1,1,0.00689,0.00640,-0.00345*
1,1,0.00689,-0.00640,-0.00345*
%
%ADD43ROUNDEDRECTD43*%
G04:AMPARAMS|DCode=44|XSize=19.68mil|YSize=13.78mil|CornerRadius=3.45mil|HoleSize=0mil|Usage=FLASHONLY|Rotation=90.000|XOffset=0mil|YOffset=0mil|HoleType=Round|Shape=RoundedRectangle|*
%AMROUNDEDRECTD44*
21,1,0.01968,0.00689,0,0,90.0*
21,1,0.01280,0.01378,0,0,90.0*
1,1,0.00689,0.00345,0.00640*
1,1,0.00689,0.00345,-0.00640*
1,1,0.00689,-0.00345,-0.00640*
1,1,0.00689,-0.00345,0.00640*
%
%ADD44ROUNDEDRECTD44*%
%ADD72C,0.05800*%
%ADD77C,0.21654*%
%ADD82R,0.42126X0.42126*%
G04:AMPARAMS|DCode=83|XSize=221.65mil|YSize=240.16mil|CornerRadius=11.08mil|HoleSize=0mil|Usage=FLASHONLY|Rotation=180.000|XOffset=0mil|YOffset=0mil|HoleType=Round|Shape=RoundedRectangle|*
%AMROUNDEDRECTD83*
21,1,0.22165,0.21799,0,0,180.0*
21,1,0.19949,0.24016,0,0,180.0*
1,1,0.02217,-0.09974,0.10900*
1,1,0.02217,0.09974,0.10900*
1,1,0.02217,0.09974,-0.10900*
1,1,0.02217,-0.09974,-0.10900*
%
%ADD83ROUNDEDRECTD83*%
%ADD84C,0.02000*%
%ADD85C,0.01500*%
%ADD86C,0.02500*%
%ADD87C,0.03000*%
%ADD88C,0.00700*%
%ADD89C,0.09449*%
G04:AMPARAMS|DCode=90|XSize=94.49mil|YSize=94.49mil|CornerRadius=23.62mil|HoleSize=0mil|Usage=FLASHONLY|Rotation=90.000|XOffset=0mil|YOffset=0mil|HoleType=Round|Shape=RoundedRectangle|*
%AMROUNDEDRECTD90*
21,1,0.09449,0.04724,0,0,90.0*
21,1,0.04724,0.09449,0,0,90.0*
1,1,0.04724,0.02362,0.02362*
1,1,0.04724,0.02362,-0.02362*
1,1,0.04724,-0.02362,-0.02362*
1,1,0.04724,-0.02362,0.02362*
%
%ADD90ROUNDEDRECTD90*%
G04:AMPARAMS|DCode=91|XSize=94.49mil|YSize=94.49mil|CornerRadius=23.62mil|HoleSize=0mil|Usage=FLASHONLY|Rotation=0.000|XOffset=0mil|YOffset=0mil|HoleType=Round|Shape=RoundedRectangle|*
%AMROUNDEDRECTD91*
21,1,0.09449,0.04724,0,0,0.0*
21,1,0.04724,0.09449,0,0,0.0*
1,1,0.04724,0.02362,-0.02362*
1,1,0.04724,-0.02362,-0.02362*
1,1,0.04724,-0.02362,0.02362*
1,1,0.04724,0.02362,0.02362*
%
%ADD91ROUNDEDRECTD91*%
%ADD92C,0.04331*%
%ADD93C,0.06299*%
%ADD94R,0.06299X0.06299*%
%ADD95R,0.06299X0.06299*%
%ADD96C,0.02362*%
G36*
X176181Y381406D02*
X176181Y363386D01*
X173524Y360728D01*
X157972D01*
X155118Y363583D01*
Y380512D01*
Y381791D01*
X156693Y383366D01*
X174221D01*
X176181Y381406D01*
D02*
G37*
G36*
X340650Y379536D02*
X340650Y362106D01*
X337697Y359154D01*
X322146D01*
X319291Y362008D01*
Y378937D01*
Y380217D01*
X320866Y381791D01*
X338394D01*
X340650Y379536D01*
D02*
G37*
G36*
X262264Y370875D02*
X262264Y352854D01*
X259606Y350197D01*
X255592D01*
X255492Y350697D01*
X255722Y350792D01*
X256380Y351297D01*
X256885Y351955D01*
X257202Y352721D01*
X257311Y353543D01*
Y354655D01*
X251772D01*
X246233D01*
Y353543D01*
X246341Y352721D01*
X246658Y351955D01*
X247163Y351297D01*
X247821Y350792D01*
X248051Y350697D01*
X247952Y350197D01*
X244055D01*
X241201Y353051D01*
Y369980D01*
Y371260D01*
X242776Y372835D01*
X260304D01*
X262264Y370875D01*
D02*
G37*
G36*
X42323Y394241D02*
Y364469D01*
X53347Y353445D01*
X89468D01*
X93898Y349016D01*
Y334646D01*
X88976Y329724D01*
X1466D01*
X1465Y375595D01*
X1465Y375599D01*
X1465Y376092D01*
X1481Y376586D01*
X1605Y378463D01*
X2068Y380794D01*
X2832Y383044D01*
X3883Y385175D01*
X5203Y387151D01*
X6770Y388937D01*
X8556Y390504D01*
X10532Y391824D01*
X12663Y392875D01*
X14913Y393639D01*
X17244Y394103D01*
X19122Y394226D01*
X19615Y394242D01*
Y394242D01*
X19615Y394242D01*
X42323Y394241D01*
D02*
G37*
G36*
X296550Y331094D02*
X296295Y331003D01*
X296070Y330853D01*
X295875Y330642D01*
X295710Y330371D01*
X295575Y330040D01*
X295470Y329648D01*
X295395Y329196D01*
X295350Y328684D01*
X295335Y328112D01*
X292335D01*
X292320Y328684D01*
X292275Y329196D01*
X292200Y329648D01*
X292095Y330040D01*
X291960Y330371D01*
X291795Y330642D01*
X291600Y330853D01*
X291375Y331003D01*
X291120Y331094D01*
X290835Y331124D01*
X296835D01*
X296550Y331094D01*
D02*
G37*
G36*
X130943Y330444D02*
X130688Y330353D01*
X130463Y330203D01*
X130268Y329992D01*
X130103Y329721D01*
X129968Y329389D01*
X129863Y328998D01*
X129788Y328546D01*
X129743Y328034D01*
X129728Y327462D01*
X126728D01*
X126713Y328034D01*
X126668Y328546D01*
X126593Y328998D01*
X126488Y329389D01*
X126353Y329721D01*
X126188Y329992D01*
X125993Y330203D01*
X125768Y330353D01*
X125513Y330444D01*
X125228Y330474D01*
X131228D01*
X130943Y330444D01*
D02*
G37*
G36*
X395866Y363272D02*
Y351528D01*
X390846Y346508D01*
X377315D01*
X356945Y326138D01*
X334689Y326138D01*
X332776Y328051D01*
Y340944D01*
X334745Y342913D01*
X346654D01*
X353843Y350103D01*
Y367815D01*
X358082Y371457D01*
X387681D01*
X395866Y363272D01*
D02*
G37*
G36*
X295339Y324266D02*
X295449Y322586D01*
X295499Y322316D01*
X295558Y322106D01*
X295627Y321956D01*
X295704Y321866D01*
X295791Y321836D01*
X291878D01*
X291965Y321866D01*
X292042Y321956D01*
X292111Y322106D01*
X292170Y322316D01*
X292220Y322586D01*
X292262Y322916D01*
X292316Y323756D01*
X292335Y324836D01*
X295335D01*
X295339Y324266D01*
D02*
G37*
G36*
X129733Y323616D02*
X129842Y321936D01*
X129893Y321666D01*
X129952Y321456D01*
X130020Y321306D01*
X130098Y321216D01*
X130185Y321186D01*
X126272D01*
X126359Y321216D01*
X126436Y321306D01*
X126505Y321456D01*
X126564Y321666D01*
X126614Y321936D01*
X126655Y322266D01*
X126710Y323106D01*
X126728Y324186D01*
X129728D01*
X129733Y323616D01*
D02*
G37*
G36*
X301292Y313745D02*
X301237Y313651D01*
X301188Y313537D01*
X301145Y313403D01*
X301109Y313248D01*
X301080Y313074D01*
X301041Y312665D01*
X301031Y312430D01*
X301028Y312176D01*
X300028D01*
X300024Y312430D01*
X299975Y313074D01*
X299946Y313248D01*
X299910Y313403D01*
X299867Y313537D01*
X299818Y313651D01*
X299763Y313745D01*
X299701Y313820D01*
X301354D01*
X301292Y313745D01*
D02*
G37*
G36*
X314173Y320673D02*
X314173Y310037D01*
X311518Y307382D01*
X305941D01*
X304978Y308345D01*
Y321623D01*
X306132Y322777D01*
X312069D01*
X314173Y320673D01*
D02*
G37*
G36*
X148567Y320023D02*
X148567Y309387D01*
X145911Y306732D01*
X140335D01*
X139661Y307405D01*
Y321263D01*
X140525Y322127D01*
X146463D01*
X148567Y320023D01*
D02*
G37*
G36*
X220079Y366634D02*
X234842D01*
X238878Y362598D01*
Y354438D01*
Y328740D01*
X243996Y323622D01*
X280610D01*
X282969Y321264D01*
Y308559D01*
X281004Y306594D01*
X236417D01*
X227364Y315648D01*
Y343600D01*
X224508Y346457D01*
X202097D01*
X192618Y336978D01*
Y329624D01*
X191341Y328346D01*
X170374Y328346D01*
X168209Y330512D01*
X168209Y345029D01*
X170866Y348425D01*
X175591D01*
X181693Y354527D01*
Y367323D01*
X188484Y374114D01*
X212598D01*
X220079Y366634D01*
D02*
G37*
G36*
X104616Y303402D02*
X104691Y303298D01*
X104816Y303207D01*
X104991Y303128D01*
X105216Y303061D01*
X105491Y303007D01*
X105816Y302964D01*
X106616Y302915D01*
X107091Y302909D01*
Y300409D01*
X106616Y300403D01*
X105491Y300312D01*
X105216Y300257D01*
X104991Y300190D01*
X104816Y300111D01*
X104691Y300020D01*
X104616Y299917D01*
X104591Y299801D01*
Y303517D01*
X104616Y303402D01*
D02*
G37*
G36*
X100678Y299801D02*
X100653Y299922D01*
X100578Y300031D01*
X100453Y300127D01*
X100278Y300209D01*
X100053Y300280D01*
X99778Y300337D01*
X99453Y300382D01*
X98653Y300433D01*
X98178Y300439D01*
Y302939D01*
X98653Y302945D01*
X99778Y303032D01*
X100053Y303084D01*
X100278Y303147D01*
X100453Y303222D01*
X100578Y303309D01*
X100653Y303407D01*
X100678Y303517D01*
Y299801D01*
D02*
G37*
G36*
X27490Y294488D02*
X27505Y294316D01*
X27529Y294164D01*
X27564Y294033D01*
X27610Y293921D01*
X27665Y293830D01*
X27729Y293759D01*
X27804Y293709D01*
X27889Y293678D01*
X27984Y293668D01*
X25984D01*
X26079Y293678D01*
X26164Y293709D01*
X26239Y293759D01*
X26305Y293830D01*
X26360Y293921D01*
X26405Y294033D01*
X26439Y294164D01*
X26465Y294316D01*
X26480Y294488D01*
X26485Y294680D01*
X27485D01*
X27490Y294488D01*
D02*
G37*
G36*
X38410Y290203D02*
X38403Y290270D01*
X38381Y290330D01*
X38346Y290382D01*
X38296Y290427D01*
X38232Y290466D01*
X38153Y290497D01*
X38061Y290522D01*
X37954Y290540D01*
X37833Y290550D01*
X37698Y290553D01*
Y291253D01*
X37833Y291257D01*
X37954Y291267D01*
X38061Y291285D01*
X38153Y291309D01*
X38232Y291341D01*
X38296Y291379D01*
X38346Y291425D01*
X38381Y291477D01*
X38403Y291537D01*
X38410Y291603D01*
Y290203D01*
D02*
G37*
G36*
X35908Y291537D02*
X35930Y291477D01*
X35965Y291425D01*
X36015Y291379D01*
X36079Y291341D01*
X36158Y291309D01*
X36250Y291285D01*
X36357Y291267D01*
X36478Y291257D01*
X36613Y291253D01*
Y290553D01*
X36478Y290550D01*
X36357Y290540D01*
X36250Y290522D01*
X36158Y290497D01*
X36079Y290466D01*
X36015Y290427D01*
X35965Y290382D01*
X35930Y290330D01*
X35908Y290270D01*
X35901Y290203D01*
Y291603D01*
X35908Y291537D01*
D02*
G37*
G36*
X124606Y322933D02*
Y305692D01*
X127050Y303248D01*
X163287D01*
X165551Y305512D01*
X192027D01*
X195276Y302264D01*
Y291831D01*
X192618Y289173D01*
X121752D01*
X118405Y292520D01*
Y322933D01*
X119685Y324213D01*
X123327D01*
X124606Y322933D01*
D02*
G37*
G36*
X289567Y322443D02*
Y306102D01*
X293406Y302264D01*
X360531D01*
X363287Y299508D01*
Y290650D01*
X360827Y288189D01*
X286417D01*
X284547Y290059D01*
Y322539D01*
X285138Y323130D01*
X288880D01*
X289567Y322443D01*
D02*
G37*
G36*
X222769Y288620D02*
X222784Y288448D01*
X222809Y288296D01*
X222844Y288165D01*
X222889Y288053D01*
X222944Y287962D01*
X223009Y287892D01*
X223084Y287841D01*
X223169Y287811D01*
X223264Y287800D01*
X221264D01*
X221359Y287811D01*
X221444Y287841D01*
X221519Y287892D01*
X221584Y287962D01*
X221639Y288053D01*
X221684Y288165D01*
X221719Y288296D01*
X221744Y288448D01*
X221759Y288620D01*
X221764Y288812D01*
X222764D01*
X222769Y288620D01*
D02*
G37*
G36*
X216653Y284677D02*
X216568Y284647D01*
X216493Y284597D01*
X216428Y284527D01*
X216373Y284437D01*
X216328Y284327D01*
X216293Y284197D01*
X216268Y284047D01*
X216253Y283877D01*
X216248Y283687D01*
X215248D01*
X215243Y283877D01*
X215228Y284047D01*
X215203Y284197D01*
X215168Y284327D01*
X215123Y284437D01*
X215068Y284527D01*
X215003Y284597D01*
X214928Y284647D01*
X214843Y284677D01*
X214748Y284687D01*
X216748D01*
X216653Y284677D01*
D02*
G37*
G36*
X126193Y287094D02*
Y277157D01*
X121969Y272933D01*
X113775Y272933D01*
X100098Y272933D01*
X98499Y274533D01*
Y281507D01*
X100101Y283109D01*
X115164Y283109D01*
X119329Y287274D01*
X126014D01*
X126193Y287094D01*
D02*
G37*
G36*
X32591Y283092D02*
X32584Y283159D01*
X32563Y283218D01*
X32528Y283271D01*
X32479Y283316D01*
X32416Y283355D01*
X32339Y283386D01*
X32248Y283411D01*
X32143Y283428D01*
X32024Y283439D01*
X31891Y283442D01*
Y284142D01*
X32024Y284146D01*
X32143Y284156D01*
X32248Y284174D01*
X32339Y284198D01*
X32416Y284230D01*
X32479Y284268D01*
X32528Y284314D01*
X32563Y284366D01*
X32584Y284426D01*
X32591Y284492D01*
Y283092D01*
D02*
G37*
G36*
X30207Y284426D02*
X30228Y284366D01*
X30263Y284314D01*
X30312Y284268D01*
X30375Y284230D01*
X30452Y284198D01*
X30543Y284174D01*
X30648Y284156D01*
X30767Y284146D01*
X30900Y284142D01*
Y283442D01*
X30767Y283439D01*
X30648Y283428D01*
X30543Y283411D01*
X30452Y283386D01*
X30375Y283355D01*
X30312Y283316D01*
X30263Y283271D01*
X30228Y283218D01*
X30207Y283159D01*
X30200Y283092D01*
Y284492D01*
X30207Y284426D01*
D02*
G37*
G36*
X216253Y283082D02*
X216268Y282911D01*
X216293Y282762D01*
X216328Y282631D01*
X216373Y282522D01*
X216428Y282432D01*
X216493Y282362D01*
X216568Y282312D01*
X216653Y282281D01*
X216748Y282272D01*
X214748D01*
X214843Y282281D01*
X214928Y282312D01*
X215003Y282362D01*
X215068Y282432D01*
X215123Y282522D01*
X215168Y282631D01*
X215203Y282762D01*
X215228Y282911D01*
X215243Y283082D01*
X215248Y283272D01*
X216248D01*
X216253Y283082D01*
D02*
G37*
G36*
X40964Y282297D02*
X40879Y282267D01*
X40804Y282216D01*
X40739Y282146D01*
X40684Y282054D01*
X40639Y281943D01*
X40604Y281812D01*
X40579Y281660D01*
X40564Y281488D01*
X40559Y281295D01*
X39559D01*
X39554Y281488D01*
X39539Y281660D01*
X39514Y281812D01*
X39479Y281943D01*
X39434Y282054D01*
X39379Y282146D01*
X39314Y282216D01*
X39239Y282267D01*
X39154Y282297D01*
X39059Y282308D01*
X41059D01*
X40964Y282297D01*
D02*
G37*
G36*
X224100Y281515D02*
X224131Y281430D01*
X224181Y281355D01*
X224252Y281290D01*
X224343Y281235D01*
X224454Y281190D01*
X224586Y281155D01*
X224738Y281130D01*
X224910Y281115D01*
X225102Y281110D01*
Y280110D01*
X224910Y280105D01*
X224738Y280090D01*
X224586Y280065D01*
X224454Y280030D01*
X224343Y279985D01*
X224252Y279930D01*
X224181Y279865D01*
X224131Y279790D01*
X224100Y279705D01*
X224090Y279610D01*
Y281610D01*
X224100Y281515D01*
D02*
G37*
G36*
X287130Y277861D02*
X287112Y277959D01*
X287059Y278046D01*
X286970Y278123D01*
X286846Y278190D01*
X286686Y278247D01*
X286491Y278293D01*
X286259Y278330D01*
X285993Y278355D01*
X285353Y278376D01*
Y280876D01*
X285691Y280881D01*
X286259Y280922D01*
X286491Y280958D01*
X286686Y281005D01*
X286846Y281062D01*
X286970Y281129D01*
X287059Y281206D01*
X287112Y281293D01*
X287130Y281391D01*
Y277861D01*
D02*
G37*
G36*
X293800Y281889D02*
X293876Y281676D01*
X294001Y281488D01*
X294177Y281326D01*
X294403Y281189D01*
X294679Y281076D01*
X295006Y280989D01*
X295383Y280926D01*
X295810Y280889D01*
X296287Y280876D01*
Y278376D01*
X295810Y278363D01*
X295383Y278326D01*
X295006Y278263D01*
X294679Y278176D01*
X294403Y278064D01*
X294177Y277926D01*
X294001Y277764D01*
X293876Y277576D01*
X293800Y277363D01*
X293775Y277126D01*
Y282126D01*
X293800Y281889D01*
D02*
G37*
G36*
X254528Y295374D02*
X258071Y291831D01*
Y272146D01*
X257382Y271457D01*
X243012Y271457D01*
X241988Y272480D01*
Y280089D01*
X241584Y280108D01*
X241330Y280110D01*
X241142Y281110D01*
X241397Y281114D01*
X241988Y281166D01*
Y290905D01*
X246457Y295374D01*
X254528Y295374D01*
D02*
G37*
G36*
X204350Y266648D02*
X204265Y266617D01*
X204190Y266567D01*
X204125Y266496D01*
X204070Y266405D01*
X204025Y266294D01*
X203990Y266162D01*
X203965Y266010D01*
X203950Y265838D01*
X203945Y265646D01*
X202945D01*
X202940Y265838D01*
X202925Y266010D01*
X202900Y266162D01*
X202865Y266294D01*
X202820Y266405D01*
X202765Y266496D01*
X202700Y266567D01*
X202625Y266617D01*
X202540Y266648D01*
X202445Y266658D01*
X204445D01*
X204350Y266648D01*
D02*
G37*
G36*
X196870D02*
X196785Y266617D01*
X196710Y266567D01*
X196645Y266496D01*
X196590Y266405D01*
X196545Y266294D01*
X196510Y266162D01*
X196485Y266010D01*
X196470Y265838D01*
X196465Y265646D01*
X195465D01*
X195460Y265838D01*
X195445Y266010D01*
X195420Y266162D01*
X195385Y266294D01*
X195340Y266405D01*
X195285Y266496D01*
X195220Y266567D01*
X195145Y266617D01*
X195060Y266648D01*
X194965Y266658D01*
X196965D01*
X196870Y266648D01*
D02*
G37*
G36*
X203950Y261022D02*
X203965Y260850D01*
X203990Y260699D01*
X204025Y260567D01*
X204070Y260456D01*
X204125Y260365D01*
X204190Y260294D01*
X204265Y260243D01*
X204350Y260213D01*
X204445Y260203D01*
X202445D01*
X202540Y260213D01*
X202625Y260243D01*
X202700Y260294D01*
X202765Y260365D01*
X202820Y260456D01*
X202865Y260567D01*
X202900Y260699D01*
X202925Y260850D01*
X202940Y261022D01*
X202945Y261215D01*
X203945D01*
X203950Y261022D01*
D02*
G37*
G36*
X116831Y324213D02*
Y306483D01*
X115859Y305512D01*
X90551D01*
X86811Y301772D01*
Y260039D01*
X84139Y257367D01*
X62121Y257367D01*
X59449Y260039D01*
Y303346D01*
X57284Y305512D01*
X25886D01*
X21555Y309842D01*
X21654Y321063D01*
X26673Y326083D01*
X114961D01*
X116831Y324213D01*
D02*
G37*
G36*
X195866Y263878D02*
X195866Y256945D01*
X196828Y255983D01*
X209071D01*
X210126Y254928D01*
X210111Y252581D01*
Y252110D01*
X209533Y251532D01*
X189511D01*
X188484Y252559D01*
X188484Y258076D01*
X188102Y258459D01*
Y258476D01*
X188085D01*
X185630Y260931D01*
Y263976D01*
X187008Y265354D01*
X194390D01*
X195866Y263878D01*
D02*
G37*
G36*
X437412Y394222D02*
X439001Y394222D01*
X439001Y394222D01*
X439009Y394224D01*
X440568Y394131D01*
X441485Y394059D01*
X443813Y393500D01*
X446024Y392584D01*
X448065Y391334D01*
X449886Y389779D01*
X451440Y387959D01*
X452691Y385917D01*
X453607Y383706D01*
X454166Y381378D01*
X454231Y380551D01*
X454329Y378991D01*
X454330Y377391D01*
X454346Y16038D01*
X454363Y15956D01*
X454188Y13738D01*
X453650Y11496D01*
X452767Y9365D01*
X451562Y7398D01*
X450064Y5645D01*
X448310Y4147D01*
X446344Y2942D01*
X444213Y2059D01*
X441970Y1521D01*
X439757Y1346D01*
X439677Y1362D01*
X16253Y1444D01*
X16142Y1466D01*
X16060Y1450D01*
X13842Y1625D01*
X11600Y2163D01*
X9469Y3046D01*
X7502Y4251D01*
X5749Y5749D01*
X4251Y7502D01*
X3046Y9469D01*
X2163Y11600D01*
X1625Y13842D01*
X1450Y16060D01*
X1466Y16142D01*
X1466Y269193D01*
X49902D01*
Y260728D01*
X57185Y253445D01*
X80524D01*
X80754Y253151D01*
X81164Y251500D01*
X80704Y250812D01*
X80542Y250000D01*
X80704Y249188D01*
X81164Y248500D01*
X81852Y248040D01*
X82664Y247878D01*
X83476Y248040D01*
X84165Y248500D01*
X84625Y249188D01*
X84786Y250000D01*
X84625Y250812D01*
X84165Y251500D01*
X84575Y253151D01*
X84804Y253445D01*
X88836D01*
X95276Y259884D01*
X134294D01*
X140650Y266240D01*
X184622D01*
X185284Y264640D01*
X185125Y264481D01*
X184970Y264249D01*
X184916Y263976D01*
Y260931D01*
X184970Y260658D01*
X185125Y260426D01*
X187580Y257971D01*
X187590Y257964D01*
X187597Y257954D01*
X187770Y257781D01*
X187770Y252559D01*
X187825Y252286D01*
X187980Y252054D01*
X189006Y251028D01*
X189238Y250873D01*
X189511Y250818D01*
X209533D01*
X209806Y250873D01*
X210038Y251028D01*
X210615Y251605D01*
X210770Y251836D01*
X210824Y252110D01*
Y252579D01*
X210840Y254924D01*
X210839Y254926D01*
X210840Y254928D01*
X210813Y255063D01*
X210787Y255197D01*
X210786Y255199D01*
X210785Y255202D01*
X210709Y255315D01*
X210634Y255430D01*
X210632Y255431D01*
X210631Y255433D01*
X209576Y256487D01*
X209345Y256642D01*
X209093Y256692D01*
Y260927D01*
X204872D01*
Y265934D01*
X205720D01*
Y266240D01*
X403051D01*
X425787Y288976D01*
Y326378D01*
X401476Y350689D01*
Y381890D01*
Y393093D01*
X402608Y394224D01*
X437412Y394222D01*
D02*
G37*
%LPC*%
G36*
X254134Y361444D02*
X253022D01*
Y357155D01*
X257311D01*
Y358268D01*
X257202Y359090D01*
X256885Y359856D01*
X256380Y360514D01*
X255722Y361019D01*
X254956Y361336D01*
X254134Y361444D01*
D02*
G37*
G36*
X250522D02*
X249409D01*
X248587Y361336D01*
X247821Y361019D01*
X247163Y360514D01*
X246658Y359856D01*
X246341Y359090D01*
X246233Y358268D01*
Y357155D01*
X250522D01*
Y361444D01*
D02*
G37*
G36*
X83087Y341945D02*
Y340075D01*
X84957D01*
X84912Y340245D01*
X84512Y340936D01*
X83948Y341501D01*
X83257Y341900D01*
X83087Y341945D01*
D02*
G37*
G36*
X81087D02*
X80917Y341900D01*
X80225Y341501D01*
X79661Y340936D01*
X79262Y340245D01*
X79216Y340075D01*
X81087D01*
Y341945D01*
D02*
G37*
G36*
X84957Y338075D02*
X83087D01*
Y336204D01*
X83257Y336250D01*
X83948Y336649D01*
X84512Y337213D01*
X84912Y337905D01*
X84957Y338075D01*
D02*
G37*
G36*
X81087D02*
X79216D01*
X79262Y337905D01*
X79661Y337213D01*
X80225Y336649D01*
X80917Y336250D01*
X81087Y336204D01*
Y338075D01*
D02*
G37*
G36*
X412017Y361389D02*
X410905D01*
Y357100D01*
X415194D01*
Y358212D01*
X415086Y359035D01*
X414769Y359801D01*
X414264Y360459D01*
X413606Y360964D01*
X412840Y361281D01*
X412017Y361389D01*
D02*
G37*
G36*
X408405D02*
X407293D01*
X406471Y361281D01*
X405704Y360964D01*
X405047Y360459D01*
X404542Y359801D01*
X404224Y359035D01*
X404116Y358212D01*
Y357100D01*
X408405D01*
Y361389D01*
D02*
G37*
G36*
X415194Y354600D02*
X410905D01*
Y350311D01*
X412017D01*
X412840Y350420D01*
X413606Y350737D01*
X414264Y351242D01*
X414769Y351900D01*
X415086Y352666D01*
X415194Y353488D01*
Y354600D01*
D02*
G37*
G36*
X408405D02*
X404116D01*
Y353488D01*
X404224Y352666D01*
X404542Y351900D01*
X405047Y351242D01*
X405704Y350737D01*
X406471Y350420D01*
X407293Y350311D01*
X408405D01*
Y354600D01*
D02*
G37*
G36*
X158858Y263336D02*
X157801Y263197D01*
X156816Y262789D01*
X155970Y262140D01*
X155321Y261294D01*
X154913Y260309D01*
X154774Y259252D01*
X154913Y258195D01*
X155321Y257210D01*
X155970Y256364D01*
X156816Y255715D01*
X157801Y255307D01*
X158858Y255167D01*
X159915Y255307D01*
X160900Y255715D01*
X161747Y256364D01*
X162396Y257210D01*
X162804Y258195D01*
X162943Y259252D01*
X162804Y260309D01*
X162396Y261294D01*
X161747Y262140D01*
X160900Y262789D01*
X159915Y263197D01*
X158858Y263336D01*
D02*
G37*
G36*
X144193D02*
X143136Y263197D01*
X142151Y262789D01*
X141305Y262140D01*
X140656Y261294D01*
X140248Y260309D01*
X140108Y259252D01*
X140248Y258195D01*
X140656Y257210D01*
X141305Y256364D01*
X142151Y255715D01*
X143136Y255307D01*
X144193Y255167D01*
X145250Y255307D01*
X146235Y255715D01*
X147081Y256364D01*
X147730Y257210D01*
X148138Y258195D01*
X148277Y259252D01*
X148138Y260309D01*
X147730Y261294D01*
X147081Y262140D01*
X146235Y262789D01*
X145250Y263197D01*
X144193Y263336D01*
D02*
G37*
G36*
X209533Y249041D02*
X206594D01*
X206592Y249040D01*
X206591Y249041D01*
X188972Y248942D01*
X188838Y248915D01*
X188703Y248888D01*
X188702Y248887D01*
X188700Y248886D01*
X188586Y248810D01*
X188472Y248733D01*
X187509Y247771D01*
X187355Y247539D01*
X187300Y247266D01*
Y233836D01*
X187355Y233563D01*
X187509Y233332D01*
X187509Y233332D01*
X188472Y232369D01*
X188703Y232215D01*
X188976Y232160D01*
X194587Y232160D01*
X194757Y232194D01*
X198778Y228173D01*
X198778Y228173D01*
X199324Y227809D01*
X199968Y227681D01*
X260598D01*
X261115Y227163D01*
Y227163D01*
X262479Y226592D01*
X262983Y226152D01*
Y214221D01*
X262138D01*
X261864Y214167D01*
X261633Y214012D01*
X259242Y211620D01*
X259087Y211389D01*
X259033Y211116D01*
Y206487D01*
X259087Y206214D01*
X259242Y205982D01*
X261996Y203227D01*
X262228Y203072D01*
X262501Y203018D01*
X277362D01*
X277635Y203072D01*
X277867Y203227D01*
X279253Y204613D01*
X280584Y204884D01*
X280996Y204913D01*
X281204Y204913D01*
X284165D01*
Y208850D01*
Y212787D01*
X280987D01*
X280728Y212787D01*
X279128Y212747D01*
X277864Y214012D01*
X277632Y214167D01*
X277359Y214221D01*
X266348D01*
Y227163D01*
X268215D01*
Y231563D01*
X262715D01*
X261836Y231563D01*
X261827Y231565D01*
X261115Y231563D01*
X259730Y231045D01*
X200664D01*
X196383Y235327D01*
Y236807D01*
X196551Y238338D01*
X209093D01*
Y242460D01*
X209855D01*
X210128Y242514D01*
X210359Y242669D01*
X210632Y242942D01*
X210787Y243174D01*
X210841Y243447D01*
Y247732D01*
X210787Y248005D01*
X210632Y248237D01*
X210038Y248831D01*
X209806Y248986D01*
X209533Y249041D01*
D02*
G37*
G36*
X158858Y253337D02*
X157801Y253197D01*
X156816Y252789D01*
X155970Y252140D01*
X155321Y251294D01*
X154913Y250309D01*
X154774Y249252D01*
X154913Y248195D01*
X155321Y247210D01*
X155970Y246364D01*
X156816Y245715D01*
X157801Y245307D01*
X158858Y245167D01*
X159915Y245307D01*
X160900Y245715D01*
X161747Y246364D01*
X162396Y247210D01*
X162804Y248195D01*
X162943Y249252D01*
X162804Y250309D01*
X162396Y251294D01*
X161747Y252140D01*
X160900Y252789D01*
X159915Y253197D01*
X158858Y253337D01*
D02*
G37*
G36*
X144193D02*
X143136Y253197D01*
X142151Y252789D01*
X141305Y252140D01*
X140656Y251294D01*
X140248Y250309D01*
X140108Y249252D01*
X140248Y248195D01*
X140656Y247210D01*
X141305Y246364D01*
X142151Y245715D01*
X143136Y245307D01*
X144193Y245167D01*
X145250Y245307D01*
X146235Y245715D01*
X147081Y246364D01*
X147730Y247210D01*
X148138Y248195D01*
X148277Y249252D01*
X148138Y250309D01*
X147730Y251294D01*
X147081Y252140D01*
X146235Y252789D01*
X145250Y253197D01*
X144193Y253337D01*
D02*
G37*
G36*
X41634Y255653D02*
X36909D01*
X36058Y255540D01*
X35264Y255212D01*
X34583Y254689D01*
X34060Y254007D01*
X33731Y253214D01*
X33619Y252362D01*
Y247638D01*
X33731Y246786D01*
X34060Y245993D01*
X34583Y245311D01*
X35264Y244788D01*
X36058Y244460D01*
X36909Y244347D01*
X41634D01*
X42486Y244460D01*
X43279Y244788D01*
X43961Y245311D01*
X44484Y245993D01*
X44812Y246786D01*
X44924Y247638D01*
Y252362D01*
X44812Y253214D01*
X44484Y254007D01*
X43961Y254689D01*
X43279Y255212D01*
X42486Y255540D01*
X41634Y255653D01*
D02*
G37*
G36*
X162795Y243189D02*
X159508D01*
Y239902D01*
X162795D01*
Y243189D01*
D02*
G37*
G36*
X148130D02*
X144843D01*
Y239902D01*
X148130D01*
Y243189D01*
D02*
G37*
G36*
X143543D02*
X140256D01*
Y239902D01*
X143543D01*
Y243189D01*
D02*
G37*
G36*
X158208D02*
X154921D01*
Y239902D01*
X158208D01*
Y243189D01*
D02*
G37*
G36*
X276577Y240259D02*
X270059D01*
Y239411D01*
X268215D01*
Y239963D01*
X261115D01*
Y235563D01*
X268215D01*
Y236556D01*
X270059D01*
Y235709D01*
X276577D01*
Y240259D01*
D02*
G37*
G36*
X162795Y238602D02*
X159508D01*
Y235315D01*
X162795D01*
Y238602D01*
D02*
G37*
G36*
X158208D02*
X154921D01*
Y235315D01*
X158208D01*
Y238602D01*
D02*
G37*
G36*
X148130D02*
X144843D01*
Y235315D01*
X148130D01*
Y238602D01*
D02*
G37*
G36*
X143543D02*
X140256D01*
Y235315D01*
X143543D01*
Y238602D01*
D02*
G37*
G36*
X318687Y238594D02*
X315540D01*
Y233847D01*
X320287D01*
Y233847D01*
X321446Y233847D01*
Y233847D01*
X325995D01*
Y238397D01*
X321805D01*
X320287Y238594D01*
X318687Y238594D01*
D02*
G37*
G36*
X78146Y231953D02*
X77334Y231791D01*
X76645Y231331D01*
X75615Y231783D01*
X74803Y231945D01*
X73991Y231783D01*
X73303Y231323D01*
X72843Y230635D01*
X72681Y229823D01*
X72843Y229011D01*
X73303Y228322D01*
X73991Y227863D01*
X74803Y227701D01*
X75615Y227863D01*
X76303Y228322D01*
X77334Y227870D01*
X78146Y227709D01*
X78958Y227870D01*
X79646Y228330D01*
X80106Y229019D01*
X80268Y229831D01*
X80106Y230643D01*
X79646Y231331D01*
X78958Y231791D01*
X78146Y231953D01*
D02*
G37*
G36*
X325995Y231901D02*
X321446D01*
Y227351D01*
X325995D01*
Y227671D01*
X327595Y227987D01*
X328223Y227567D01*
X329035Y227406D01*
X329847Y227567D01*
X330536Y228027D01*
X330996Y228716D01*
X331157Y229528D01*
X330996Y230340D01*
X330536Y231028D01*
X329847Y231488D01*
X329035Y231649D01*
X328223Y231488D01*
X327573Y231053D01*
X325995D01*
Y231901D01*
D02*
G37*
G36*
X39272Y235988D02*
X37804Y235795D01*
X36435Y235228D01*
X35260Y234326D01*
X34359Y233151D01*
X33792Y231783D01*
X33599Y230315D01*
X33792Y228847D01*
X34359Y227479D01*
X35260Y226304D01*
X36435Y225402D01*
X37804Y224835D01*
X39272Y224642D01*
X40740Y224835D01*
X42108Y225402D01*
X43283Y226304D01*
X44185Y227479D01*
X44751Y228847D01*
X44945Y230315D01*
X44751Y231783D01*
X44185Y233151D01*
X43283Y234326D01*
X42108Y235228D01*
X40740Y235795D01*
X39272Y235988D01*
D02*
G37*
G36*
X416339Y235988D02*
X414870Y235795D01*
X413502Y235228D01*
X412327Y234326D01*
X411426Y233151D01*
X410859Y231783D01*
X410666Y230315D01*
X410859Y228847D01*
X411426Y227479D01*
X412327Y226304D01*
X413502Y225402D01*
X414870Y224835D01*
X416339Y224642D01*
X417807Y224835D01*
X419175Y225402D01*
X420350Y226304D01*
X421251Y227479D01*
X421818Y228847D01*
X422012Y230315D01*
X421818Y231783D01*
X421251Y233151D01*
X420350Y234326D01*
X419175Y235228D01*
X417807Y235795D01*
X416339Y235988D01*
D02*
G37*
G36*
X129250Y228175D02*
X128438Y228014D01*
X127750Y227554D01*
X127290Y226865D01*
X127128Y226053D01*
X127290Y225241D01*
X127750Y224553D01*
X127823Y224504D01*
Y223801D01*
X127823Y223801D01*
X127931Y223255D01*
X128241Y222792D01*
X130812Y220221D01*
X131275Y219911D01*
X131821Y219802D01*
X131821Y219802D01*
X133650D01*
Y218955D01*
X138200D01*
Y223505D01*
X133650D01*
Y223505D01*
X132050Y223020D01*
X131723Y223347D01*
X130751Y224553D01*
X131210Y225241D01*
X131372Y226053D01*
X131210Y226865D01*
X130751Y227554D01*
X130062Y228014D01*
X129250Y228175D01*
D02*
G37*
G36*
X212882Y218687D02*
Y215067D01*
X216501D01*
X216425Y215650D01*
X216007Y216660D01*
X215341Y217527D01*
X214475Y218192D01*
X213465Y218610D01*
X212882Y218687D01*
D02*
G37*
G36*
X211882D02*
X211299Y218610D01*
X210289Y218192D01*
X209422Y217527D01*
X208757Y216660D01*
X208339Y215650D01*
X208262Y215067D01*
X211882D01*
Y218687D01*
D02*
G37*
G36*
X144696Y223505D02*
X140147D01*
Y218955D01*
X140146D01*
Y217531D01*
X140147D01*
Y212784D01*
X144893D01*
Y217437D01*
X144893Y217531D01*
X144893D01*
X144696Y218955D01*
X144696D01*
Y223505D01*
D02*
G37*
G36*
X416339Y216303D02*
X414870Y216109D01*
X413502Y215543D01*
X412327Y214641D01*
X411568Y213651D01*
X411381Y213502D01*
X410806Y213114D01*
X410204Y212779D01*
X409574Y212495D01*
X408916Y212262D01*
X408227Y212080D01*
X408104Y212057D01*
X397452D01*
Y213594D01*
X392705D01*
Y208847D01*
X397452D01*
Y209203D01*
X408104D01*
X408227Y209180D01*
X408916Y208998D01*
X409574Y208765D01*
X410204Y208481D01*
X410806Y208146D01*
X411381Y207758D01*
X411568Y207608D01*
X412327Y206618D01*
X413502Y205717D01*
X414870Y205150D01*
X416339Y204957D01*
X417807Y205150D01*
X419175Y205717D01*
X420350Y206618D01*
X421251Y207793D01*
X421818Y209162D01*
X422012Y210630D01*
X421818Y212098D01*
X421251Y213466D01*
X420350Y214641D01*
X419175Y215543D01*
X417807Y216109D01*
X416339Y216303D01*
D02*
G37*
G36*
X216501Y214067D02*
X212882D01*
Y210447D01*
X213465Y210524D01*
X214475Y210942D01*
X215341Y211607D01*
X216007Y212474D01*
X216425Y213484D01*
X216501Y214067D01*
D02*
G37*
G36*
X211882D02*
X208262D01*
X208339Y213484D01*
X208757Y212474D01*
X209422Y211607D01*
X210289Y210942D01*
X211299Y210524D01*
X211882Y210447D01*
Y214067D01*
D02*
G37*
G36*
X337122Y213161D02*
X333472D01*
Y209512D01*
X337122D01*
Y213161D01*
D02*
G37*
G36*
X332472D02*
X328823D01*
Y209512D01*
X332472D01*
Y213161D01*
D02*
G37*
G36*
X285165Y212787D02*
Y209350D01*
X288602D01*
Y212787D01*
X285165D01*
D02*
G37*
G36*
X322972Y213096D02*
X321915Y212957D01*
X320930Y212549D01*
X320084Y211900D01*
X319435Y211054D01*
X319027Y210069D01*
X318888Y209012D01*
X319027Y207955D01*
X319435Y206969D01*
X320084Y206123D01*
X320930Y205474D01*
X321915Y205066D01*
X322972Y204927D01*
X324030Y205066D01*
X325015Y205474D01*
X325861Y206123D01*
X326510Y206969D01*
X326918Y207955D01*
X327057Y209012D01*
X326918Y210069D01*
X326510Y211054D01*
X325861Y211900D01*
X325015Y212549D01*
X324030Y212957D01*
X322972Y213096D01*
D02*
G37*
G36*
X312972D02*
X311915Y212957D01*
X310930Y212549D01*
X310084Y211900D01*
X309435Y211054D01*
X309027Y210069D01*
X308888Y209012D01*
X309027Y207955D01*
X309435Y206969D01*
X310084Y206123D01*
X310930Y205474D01*
X311915Y205066D01*
X312972Y204927D01*
X314030Y205066D01*
X315015Y205474D01*
X315861Y206123D01*
X316510Y206969D01*
X316918Y207955D01*
X317057Y209012D01*
X316918Y210069D01*
X316510Y211054D01*
X315861Y211900D01*
X315015Y212549D01*
X314030Y212957D01*
X312972Y213096D01*
D02*
G37*
G36*
X288602Y208350D02*
X285165D01*
Y204913D01*
X288602D01*
Y208350D01*
D02*
G37*
G36*
X337122Y208512D02*
X333472D01*
Y204862D01*
X337122D01*
Y208512D01*
D02*
G37*
G36*
X332472D02*
X328823D01*
Y204862D01*
X332472D01*
Y208512D01*
D02*
G37*
G36*
X397452Y206901D02*
X392705D01*
Y202154D01*
X393651D01*
Y200168D01*
X392705D01*
Y199223D01*
X374370D01*
X374370Y199223D01*
X373824Y199114D01*
X373361Y198805D01*
X373361Y198805D01*
X269133Y94577D01*
X246275D01*
X246246Y94584D01*
X245861Y94704D01*
X245503Y94850D01*
X245171Y95020D01*
X245008Y95123D01*
X244443Y95860D01*
X243649Y96469D01*
X242724Y96852D01*
X241732Y96982D01*
X240740Y96852D01*
X239816Y96469D01*
X239022Y95860D01*
X238413Y95066D01*
X238030Y94142D01*
X237899Y93150D01*
X238030Y92158D01*
X238413Y91233D01*
X239022Y90439D01*
X239816Y89830D01*
X240740Y89447D01*
X241732Y89317D01*
X242724Y89447D01*
X243649Y89830D01*
X244443Y90439D01*
X245008Y91176D01*
X245171Y91279D01*
X245503Y91449D01*
X245861Y91595D01*
X246246Y91716D01*
X246275Y91722D01*
X269724D01*
X269724Y91722D01*
X270271Y91831D01*
X270734Y92140D01*
X374961Y196368D01*
X392705D01*
Y195422D01*
X397452D01*
Y200168D01*
X396506D01*
Y202154D01*
X397452D01*
Y206901D01*
D02*
G37*
G36*
X87980Y247324D02*
X87168Y247163D01*
X86479Y246703D01*
X86019Y246014D01*
X85858Y245202D01*
X86019Y244390D01*
X86479Y243702D01*
X87168Y243242D01*
X87980Y243080D01*
X88792Y243242D01*
X89480Y243702D01*
X89529Y243775D01*
X110899D01*
X121739Y232935D01*
Y218158D01*
X121739Y218158D01*
X121848Y217611D01*
X122157Y217148D01*
X129848Y209458D01*
Y195893D01*
X128176Y194221D01*
X126701Y195009D01*
X126705Y195025D01*
X126543Y195837D01*
X126083Y196525D01*
X125395Y196985D01*
X124583Y197147D01*
X123771Y196985D01*
X123082Y196525D01*
X122917Y196278D01*
X122752Y196224D01*
X121378Y196207D01*
X121140Y196278D01*
X121000Y196487D01*
X120311Y196947D01*
X119499Y197109D01*
X118687Y196947D01*
X117999Y196487D01*
X117539Y195799D01*
X117377Y194987D01*
X117539Y194175D01*
X117999Y193487D01*
X118687Y193027D01*
X119499Y192865D01*
X120311Y193027D01*
X121000Y193487D01*
X121165Y193734D01*
X121330Y193788D01*
X122704Y193805D01*
X122943Y193734D01*
X123082Y193525D01*
X123771Y193065D01*
X124583Y192903D01*
X124599Y192906D01*
X125387Y191432D01*
X121012Y187057D01*
X104232D01*
X103686Y186949D01*
X103223Y186639D01*
X103223Y186639D01*
X97490Y180906D01*
X97180Y180443D01*
X97072Y179897D01*
X97072Y179897D01*
Y68873D01*
X97072Y68873D01*
X97180Y68327D01*
X97490Y67864D01*
X113213Y52140D01*
X113213Y52140D01*
X113676Y51831D01*
X114222Y51722D01*
X137190D01*
X137219Y51715D01*
X137603Y51595D01*
X137961Y51449D01*
X138294Y51279D01*
X138457Y51176D01*
X139022Y50439D01*
X139816Y49830D01*
X140740Y49447D01*
X141732Y49317D01*
X142724Y49447D01*
X143649Y49830D01*
X144442Y50439D01*
X145052Y51233D01*
X145434Y52158D01*
X145565Y53150D01*
X145434Y54142D01*
X145052Y55066D01*
X144442Y55860D01*
X143649Y56469D01*
X142724Y56852D01*
X141732Y56982D01*
X140740Y56852D01*
X139816Y56469D01*
X139022Y55860D01*
X138457Y55123D01*
X138294Y55020D01*
X137961Y54850D01*
X137603Y54704D01*
X137219Y54584D01*
X137190Y54577D01*
X114814D01*
X99926Y69464D01*
Y175456D01*
X101526Y176133D01*
X102051Y175624D01*
Y75355D01*
X102051Y75355D01*
X102160Y74809D01*
X102469Y74346D01*
X114674Y62140D01*
X114675Y62140D01*
X115138Y61831D01*
X115684Y61722D01*
X137190D01*
X137219Y61716D01*
X137603Y61595D01*
X137961Y61449D01*
X138294Y61279D01*
X138457Y61176D01*
X139022Y60439D01*
X139816Y59830D01*
X140740Y59447D01*
X141732Y59317D01*
X142724Y59447D01*
X143649Y59830D01*
X144442Y60439D01*
X145052Y61233D01*
X145434Y62158D01*
X145565Y63150D01*
X145434Y64142D01*
X145052Y65066D01*
X144442Y65860D01*
X143649Y66469D01*
X142724Y66852D01*
X141732Y66982D01*
X140740Y66852D01*
X139816Y66469D01*
X139022Y65860D01*
X138457Y65123D01*
X138294Y65020D01*
X137961Y64850D01*
X137603Y64704D01*
X137219Y64584D01*
X137190Y64577D01*
X116275D01*
X104906Y75946D01*
Y176284D01*
X104979Y176333D01*
X105439Y177021D01*
X105600Y177833D01*
X105439Y178645D01*
X104979Y179333D01*
X104290Y179793D01*
X103479Y179955D01*
X102666Y179793D01*
X101679Y181058D01*
X104824Y184203D01*
X121604D01*
X121604Y184203D01*
X122150Y184311D01*
X122613Y184621D01*
X132284Y194292D01*
X132284Y194292D01*
X132594Y194755D01*
X132703Y195301D01*
X132702Y195301D01*
Y210049D01*
X132703Y210049D01*
X132594Y210595D01*
X132284Y211058D01*
X132284Y211058D01*
X124594Y218749D01*
Y233526D01*
X124594Y233527D01*
X124485Y234073D01*
X124176Y234536D01*
X112500Y246212D01*
X112037Y246521D01*
X111490Y246630D01*
X111490Y246630D01*
X89529D01*
X89480Y246703D01*
X88792Y247163D01*
X87980Y247324D01*
D02*
G37*
G36*
X78146Y193179D02*
X77334Y193017D01*
X76645Y192557D01*
X76471Y192297D01*
X76191Y192216D01*
X74974D01*
X74694Y192297D01*
X74520Y192557D01*
X73831Y193017D01*
X73019Y193179D01*
X72207Y193017D01*
X71519Y192557D01*
X71059Y191869D01*
X70897Y191057D01*
X71059Y190245D01*
X71519Y189557D01*
X72207Y189096D01*
X73019Y188935D01*
X73831Y189096D01*
X74520Y189557D01*
X74694Y189817D01*
X74974Y189897D01*
X76191D01*
X76471Y189817D01*
X76645Y189557D01*
X77334Y189096D01*
X78146Y188935D01*
X78958Y189096D01*
X79646Y189557D01*
X80106Y190245D01*
X80268Y191057D01*
X80106Y191869D01*
X79646Y192557D01*
X78958Y193017D01*
X78146Y193179D01*
D02*
G37*
G36*
X418701Y196698D02*
X417139D01*
Y191745D01*
X422092D01*
Y193307D01*
X421977Y194185D01*
X421638Y195003D01*
X421099Y195705D01*
X420396Y196244D01*
X419579Y196583D01*
X418701Y196698D01*
D02*
G37*
G36*
X415539D02*
X413976D01*
X413099Y196583D01*
X412281Y196244D01*
X411578Y195705D01*
X411039Y195003D01*
X410701Y194185D01*
X410585Y193307D01*
Y191745D01*
X415539D01*
Y196698D01*
D02*
G37*
G36*
X100185Y191787D02*
X99373Y191626D01*
X98685Y191166D01*
X98636Y191093D01*
X90256D01*
X90256Y191093D01*
X89710Y190984D01*
X89247Y190675D01*
X89246Y190675D01*
X77804Y179232D01*
X77495Y178769D01*
X77386Y178223D01*
X77386Y178223D01*
Y176451D01*
X75160D01*
Y168752D01*
X82466D01*
Y176451D01*
X81253D01*
X80660Y178051D01*
X90847Y188238D01*
X98636D01*
X98685Y188165D01*
X99373Y187705D01*
X100185Y187543D01*
X100997Y187705D01*
X101685Y188165D01*
X102145Y188853D01*
X102307Y189665D01*
X102145Y190477D01*
X101685Y191166D01*
X100997Y191626D01*
X100185Y191787D01*
D02*
G37*
G36*
X41240Y198468D02*
X36516D01*
X35664Y198355D01*
X34871Y198027D01*
X34189Y197504D01*
X33666Y196822D01*
X33338Y196029D01*
X33226Y195177D01*
Y190453D01*
X33338Y189601D01*
X33666Y188808D01*
X34189Y188126D01*
X34871Y187603D01*
X35664Y187275D01*
X36516Y187162D01*
X41240D01*
X42092Y187275D01*
X42885Y187603D01*
X43567Y188126D01*
X44090Y188808D01*
X44418Y189601D01*
X44531Y190453D01*
Y195177D01*
X44418Y196029D01*
X44090Y196822D01*
X43567Y197504D01*
X42885Y198027D01*
X42092Y198355D01*
X41240Y198468D01*
D02*
G37*
G36*
X422092Y190145D02*
X417139D01*
Y185192D01*
X418701D01*
X419579Y185307D01*
X420396Y185646D01*
X421099Y186185D01*
X421638Y186887D01*
X421977Y187705D01*
X422092Y188583D01*
Y190145D01*
D02*
G37*
G36*
X415539D02*
X410585D01*
Y188583D01*
X410701Y187705D01*
X411039Y186887D01*
X411578Y186185D01*
X412281Y185646D01*
X413099Y185307D01*
X413976Y185192D01*
X415539D01*
Y190145D01*
D02*
G37*
G36*
X69070Y179788D02*
X62770D01*
Y177707D01*
X61035D01*
Y178554D01*
X54517D01*
Y174005D01*
X61035D01*
Y174852D01*
X62770D01*
Y173486D01*
X69070D01*
Y179788D01*
D02*
G37*
G36*
X128456Y182393D02*
X123906D01*
Y175875D01*
X122683Y174966D01*
X122402D01*
Y170566D01*
X129502D01*
Y174966D01*
X129502D01*
X128456Y175875D01*
Y182393D01*
D02*
G37*
G36*
X38878Y178803D02*
X37410Y178610D01*
X36042Y178043D01*
X34867Y177141D01*
X33965Y175966D01*
X33398Y174598D01*
X33205Y173130D01*
X33398Y171662D01*
X33965Y170293D01*
X34867Y169119D01*
X36042Y168217D01*
X37410Y167650D01*
X38878Y167457D01*
X40346Y167650D01*
X41715Y168217D01*
X42889Y169119D01*
X43791Y170293D01*
X44358Y171662D01*
X44551Y173130D01*
X44358Y174598D01*
X43791Y175966D01*
X42889Y177141D01*
X41715Y178043D01*
X40346Y178610D01*
X38878Y178803D01*
D02*
G37*
G36*
X93351Y186472D02*
X92539Y186311D01*
X91851Y185851D01*
X91391Y185162D01*
X91229Y184350D01*
X91391Y183538D01*
X91851Y182850D01*
X92077Y182699D01*
Y165370D01*
X91314Y164947D01*
X90477Y164722D01*
X89985Y165051D01*
X89173Y165212D01*
X88361Y165051D01*
X87673Y164591D01*
X87213Y163903D01*
X87051Y163091D01*
X87213Y162279D01*
X87673Y161590D01*
X88361Y161130D01*
X89173Y160969D01*
X89985Y161130D01*
X90477Y161459D01*
X91314Y161234D01*
X92077Y160811D01*
Y154743D01*
X92017Y154686D01*
X90477Y154034D01*
X90285Y154162D01*
X89473Y154324D01*
X88661Y154162D01*
X87973Y153702D01*
X87924Y153629D01*
X85464D01*
Y155592D01*
X80914D01*
Y149074D01*
X81761Y148701D01*
X81870Y148155D01*
X82179Y147692D01*
X82940Y146931D01*
X83355Y145503D01*
X83355Y145503D01*
X83355D01*
X83355Y145503D01*
X83355Y142135D01*
X82060Y141398D01*
X80019D01*
Y144341D01*
X79871Y145082D01*
X79451Y145711D01*
X78822Y146131D01*
X78081Y146279D01*
X77648D01*
Y149074D01*
X77983D01*
Y155592D01*
X73434D01*
X73434Y155592D01*
X72838Y155819D01*
Y155819D01*
X71927Y155819D01*
X68289D01*
Y149301D01*
X72838D01*
X72838Y149301D01*
Y149301D01*
X73434Y149074D01*
X74793Y148492D01*
Y146034D01*
X74309Y145711D01*
X73889Y145082D01*
X73741Y144341D01*
Y135600D01*
X73889Y134859D01*
X74309Y134230D01*
X74937Y133810D01*
X75679Y133662D01*
X78081D01*
X78822Y133810D01*
X79451Y134230D01*
X79871Y134859D01*
X80019Y135600D01*
Y138543D01*
X84970D01*
X84970Y138543D01*
X85015Y138552D01*
X87117D01*
X87117Y141920D01*
X87117Y143520D01*
Y145503D01*
X86664D01*
Y146653D01*
X86555Y147200D01*
X86246Y147663D01*
X86246Y147663D01*
X85279Y148629D01*
X85464Y149074D01*
X85464D01*
Y150774D01*
X87924D01*
X87973Y150701D01*
X88661Y150241D01*
X89473Y150080D01*
X90285Y150241D01*
X90477Y150370D01*
X92017Y149718D01*
X92077Y149661D01*
Y65684D01*
X92077Y65684D01*
X92186Y65137D01*
X92495Y64674D01*
X135029Y22140D01*
X135029Y22140D01*
X135492Y21831D01*
X136039Y21722D01*
X137789D01*
X137893Y21692D01*
X138138Y21594D01*
X138299Y21509D01*
X138413Y21233D01*
X139022Y20439D01*
X139816Y19830D01*
X140740Y19447D01*
X141732Y19317D01*
X142724Y19447D01*
X143649Y19830D01*
X144442Y20439D01*
X145052Y21233D01*
X145434Y22158D01*
X145565Y23150D01*
X145434Y24142D01*
X145052Y25066D01*
X144442Y25860D01*
X143649Y26469D01*
X142724Y26852D01*
X141732Y26982D01*
X140740Y26852D01*
X139816Y26469D01*
X139022Y25860D01*
X138413Y25066D01*
X138299Y24791D01*
X138138Y24705D01*
X137893Y24608D01*
X137789Y24577D01*
X136630D01*
X94932Y66275D01*
Y182971D01*
X95311Y183538D01*
X95473Y184350D01*
X95311Y185162D01*
X94851Y185851D01*
X94163Y186311D01*
X93351Y186472D01*
D02*
G37*
G36*
X61035Y171074D02*
X54517D01*
Y166524D01*
X54517D01*
X55004Y165035D01*
X55003Y164924D01*
X54504Y164591D01*
X54044Y163903D01*
X53882Y163091D01*
X54044Y162279D01*
X54504Y161590D01*
X55192Y161130D01*
X56004Y160969D01*
X56816Y161130D01*
X57504Y161590D01*
X57964Y162279D01*
X58126Y163091D01*
X58109Y163177D01*
X58785Y163853D01*
X58785Y163853D01*
X59094Y164316D01*
X59203Y164862D01*
X59203Y164862D01*
Y166524D01*
X61035D01*
Y171074D01*
D02*
G37*
G36*
X166431Y218617D02*
X158332D01*
Y210517D01*
X160445D01*
Y174602D01*
X145415Y159572D01*
X140062D01*
X127349Y159653D01*
Y162166D01*
X129502D01*
Y166566D01*
X122402D01*
Y162166D01*
X123915D01*
X124174Y160939D01*
X123068Y159680D01*
X115966Y159725D01*
X115496Y160589D01*
X115331Y161329D01*
X115840Y161993D01*
X116249Y162978D01*
X116388Y164035D01*
X116249Y165093D01*
X115840Y166078D01*
X115191Y166924D01*
X114345Y167573D01*
X113360Y167981D01*
X112303Y168120D01*
X111246Y167981D01*
X110261Y167573D01*
X109415Y166924D01*
X108766Y166078D01*
X108358Y165093D01*
X108219Y164035D01*
X108358Y162978D01*
X108766Y161993D01*
X109246Y161368D01*
X109150Y160544D01*
X108802Y159753D01*
X108782Y159714D01*
X108668Y159639D01*
X108554Y159563D01*
X108552Y159561D01*
X108550Y159560D01*
X106877Y157887D01*
X106722Y157655D01*
X106668Y157382D01*
Y150394D01*
X106722Y150121D01*
X106877Y149889D01*
X108747Y148019D01*
X108979Y147864D01*
X109252Y147810D01*
X124114D01*
X145571Y147810D01*
X145844Y147864D01*
X146075Y148019D01*
X147749Y149692D01*
X147904Y149924D01*
X147958Y150197D01*
X147958Y156635D01*
X163752Y172429D01*
X164172Y173058D01*
X164319Y173799D01*
Y210517D01*
X166431D01*
Y218617D01*
D02*
G37*
G36*
X272441Y166545D02*
X271384Y166406D01*
X270399Y165998D01*
X269553Y165349D01*
X268904Y164503D01*
X268496Y163518D01*
X268356Y162461D01*
X268496Y161404D01*
X268904Y160418D01*
X269553Y159572D01*
X269794Y159388D01*
X269250Y157788D01*
X238352D01*
X238079Y157733D01*
X237848Y157579D01*
X236011Y155742D01*
X235856Y155510D01*
X235802Y155237D01*
Y150998D01*
X235805Y150985D01*
X235803Y150972D01*
X235832Y150849D01*
X235856Y150725D01*
X235864Y150714D01*
X235867Y150701D01*
X235941Y150599D01*
X236011Y150494D01*
X236022Y150486D01*
X236030Y150475D01*
X238377Y148296D01*
X238485Y148230D01*
X238590Y148160D01*
X238603Y148157D01*
X238614Y148150D01*
X238739Y148130D01*
X238863Y148105D01*
X277067D01*
X277340Y148160D01*
X277572Y148314D01*
X278949Y149692D01*
X279308Y149720D01*
X279433Y149595D01*
X280600Y149595D01*
X285149D01*
Y154145D01*
X279159D01*
Y155787D01*
X279104Y156061D01*
X278949Y156292D01*
X278949Y156292D01*
X277663Y157579D01*
X277432Y157733D01*
X277158Y157788D01*
X275631D01*
X275088Y159388D01*
X275329Y159572D01*
X275978Y160418D01*
X276386Y161404D01*
X276525Y162461D01*
X276386Y163518D01*
X275978Y164503D01*
X275329Y165349D01*
X274483Y165998D01*
X273498Y166406D01*
X272441Y166545D01*
D02*
G37*
G36*
X416142Y152130D02*
X414673Y151936D01*
X413305Y151370D01*
X412130Y150468D01*
X411371Y149478D01*
X411184Y149328D01*
X410609Y148941D01*
X410007Y148605D01*
X409377Y148321D01*
X408719Y148088D01*
X408030Y147906D01*
X407907Y147884D01*
X400995D01*
Y149125D01*
X394477D01*
Y145607D01*
X394477Y144182D01*
X394477Y142582D01*
Y139064D01*
X396309D01*
Y136527D01*
X394477D01*
Y131977D01*
X400995D01*
Y136527D01*
X399164D01*
Y139064D01*
X400995D01*
Y142582D01*
X400995Y144007D01*
X402172Y145029D01*
X407907D01*
X408030Y145007D01*
X408719Y144825D01*
X409377Y144592D01*
X410007Y144308D01*
X410609Y143973D01*
X411184Y143585D01*
X411371Y143435D01*
X412130Y142445D01*
X413305Y141544D01*
X414673Y140977D01*
X416142Y140784D01*
X417610Y140977D01*
X418978Y141544D01*
X420153Y142445D01*
X421055Y143620D01*
X421621Y144988D01*
X421815Y146457D01*
X421621Y147925D01*
X421055Y149293D01*
X420153Y150468D01*
X418978Y151370D01*
X417610Y151936D01*
X416142Y152130D01*
D02*
G37*
G36*
X291350Y147649D02*
X280599D01*
Y143099D01*
X286406D01*
X286603Y142902D01*
X291350D01*
Y147649D01*
D02*
G37*
G36*
X172382Y218652D02*
X171325Y218512D01*
X170340Y218104D01*
X169494Y217455D01*
X168845Y216609D01*
X168437Y215624D01*
X168297Y214567D01*
X168437Y213510D01*
X168845Y212525D01*
X169494Y211679D01*
X170275Y211079D01*
X170428Y210840D01*
X170621Y210471D01*
X170785Y210075D01*
X170921Y209653D01*
X170954Y209513D01*
Y156339D01*
X149192Y134577D01*
X146275D01*
X146246Y134584D01*
X145861Y134704D01*
X145503Y134850D01*
X145171Y135020D01*
X145008Y135123D01*
X144442Y135860D01*
X143649Y136469D01*
X142724Y136852D01*
X141732Y136982D01*
X140740Y136852D01*
X139816Y136469D01*
X139022Y135860D01*
X138413Y135066D01*
X138030Y134142D01*
X137899Y133150D01*
X138030Y132158D01*
X138413Y131233D01*
X139022Y130439D01*
X139816Y129830D01*
X140740Y129447D01*
X141732Y129317D01*
X142724Y129447D01*
X143649Y129830D01*
X144442Y130439D01*
X145008Y131176D01*
X145171Y131279D01*
X145503Y131449D01*
X145861Y131595D01*
X146246Y131716D01*
X146275Y131722D01*
X149783D01*
X149784Y131722D01*
X150330Y131831D01*
X150793Y132140D01*
X173391Y154739D01*
X173391Y154739D01*
X173701Y155202D01*
X173809Y155748D01*
X173809Y155748D01*
Y209513D01*
X173843Y209653D01*
X173978Y210075D01*
X174143Y210471D01*
X174335Y210840D01*
X174488Y211079D01*
X175270Y211679D01*
X175919Y212525D01*
X176327Y213510D01*
X176466Y214567D01*
X176327Y215624D01*
X175919Y216609D01*
X175270Y217455D01*
X174424Y218104D01*
X173439Y218512D01*
X172382Y218652D01*
D02*
G37*
G36*
X202382D02*
X201325Y218512D01*
X200340Y218104D01*
X199494Y217455D01*
X198845Y216609D01*
X198436Y215624D01*
X198297Y214567D01*
X198436Y213510D01*
X198845Y212525D01*
X199494Y211679D01*
X200275Y211079D01*
X200428Y210840D01*
X200621Y210471D01*
X200785Y210075D01*
X200921Y209653D01*
X200954Y209513D01*
Y162579D01*
X200954Y162579D01*
X201063Y162032D01*
X201373Y161569D01*
X230802Y132140D01*
X230802Y132140D01*
X231265Y131831D01*
X231811Y131722D01*
X231811Y131722D01*
X237190D01*
X237219Y131716D01*
X237603Y131595D01*
X237961Y131449D01*
X238294Y131279D01*
X238457Y131176D01*
X239022Y130439D01*
X239816Y129830D01*
X240740Y129447D01*
X241732Y129317D01*
X242724Y129447D01*
X243649Y129830D01*
X244443Y130439D01*
X245052Y131233D01*
X245434Y132158D01*
X245565Y133150D01*
X245434Y134142D01*
X245052Y135066D01*
X244443Y135860D01*
X243649Y136469D01*
X242724Y136852D01*
X241732Y136982D01*
X240740Y136852D01*
X239816Y136469D01*
X239022Y135860D01*
X238457Y135123D01*
X238294Y135020D01*
X237961Y134850D01*
X237603Y134704D01*
X237219Y134584D01*
X237190Y134577D01*
X232402D01*
X203809Y163170D01*
Y209513D01*
X203843Y209653D01*
X203978Y210075D01*
X204143Y210471D01*
X204335Y210840D01*
X204488Y211079D01*
X205270Y211679D01*
X205919Y212525D01*
X206327Y213510D01*
X206466Y214567D01*
X206327Y215624D01*
X205919Y216609D01*
X205270Y217455D01*
X204424Y218104D01*
X203439Y218512D01*
X202382Y218652D01*
D02*
G37*
G36*
X418504Y132424D02*
X413779D01*
X412928Y132312D01*
X412134Y131983D01*
X411453Y131460D01*
X410930Y130779D01*
X410601Y129985D01*
X410489Y129134D01*
Y128199D01*
X405376D01*
X405083Y128395D01*
X404675Y128476D01*
X403986D01*
X403579Y128395D01*
X403285Y128199D01*
X400995D01*
Y129046D01*
X394477D01*
Y127904D01*
X387905D01*
Y129342D01*
X383158D01*
Y124595D01*
X387905D01*
Y125049D01*
X394477D01*
Y124497D01*
X400995D01*
Y125344D01*
X403285D01*
X403579Y125148D01*
X403986Y125067D01*
X404675D01*
X405083Y125148D01*
X405376Y125344D01*
X410489D01*
Y124409D01*
X410601Y123558D01*
X410930Y122764D01*
X411453Y122083D01*
X412134Y121560D01*
X412928Y121231D01*
X413779Y121119D01*
X418504D01*
X419355Y121231D01*
X420149Y121560D01*
X420830Y122083D01*
X421353Y122764D01*
X421682Y123558D01*
X421794Y124409D01*
Y129134D01*
X421682Y129985D01*
X421353Y130779D01*
X420830Y131460D01*
X420149Y131983D01*
X419355Y132312D01*
X418504Y132424D01*
D02*
G37*
G36*
X40748Y139216D02*
X36024D01*
X35172Y139103D01*
X34378Y138775D01*
X33697Y138252D01*
X33174Y137570D01*
X32846Y136777D01*
X32733Y135925D01*
Y131201D01*
X32846Y130349D01*
X33174Y129556D01*
X33697Y128874D01*
X34378Y128351D01*
X35172Y128023D01*
X36024Y127910D01*
X40748D01*
X41600Y128023D01*
X42393Y128351D01*
X43075Y128874D01*
X43598Y129556D01*
X43926Y130349D01*
X44039Y131201D01*
Y135925D01*
X43926Y136777D01*
X43598Y137570D01*
X43075Y138252D01*
X42393Y138775D01*
X41600Y139103D01*
X40748Y139216D01*
D02*
G37*
G36*
X387905Y122649D02*
Y122649D01*
X387419Y122649D01*
X383158D01*
Y121703D01*
X375646D01*
X375646Y121703D01*
X375099Y121594D01*
X374636Y121285D01*
X374636Y121285D01*
X366649Y113297D01*
X356038D01*
X355898Y113331D01*
X355476Y113467D01*
X355081Y113631D01*
X354711Y113823D01*
X354472Y113977D01*
X353872Y114758D01*
X353027Y115407D01*
X352041Y115815D01*
X350984Y115955D01*
X349927Y115815D01*
X348942Y115407D01*
X348096Y114758D01*
X347447Y113912D01*
X347039Y112927D01*
X346900Y111870D01*
X347039Y110813D01*
X347447Y109828D01*
X348096Y108982D01*
X348942Y108333D01*
X349927Y107925D01*
X350984Y107785D01*
X352041Y107925D01*
X353027Y108333D01*
X353872Y108982D01*
X354472Y109764D01*
X354711Y109917D01*
X355081Y110109D01*
X355476Y110274D01*
X355898Y110409D01*
X356038Y110443D01*
X367240D01*
X367240Y110443D01*
X367786Y110551D01*
X368250Y110861D01*
X376237Y118848D01*
X383158D01*
Y117902D01*
X387905D01*
Y117902D01*
X389019Y117902D01*
Y117902D01*
X393765D01*
Y122649D01*
X389505D01*
X389019Y122649D01*
Y122649D01*
X387905Y122649D01*
D02*
G37*
G36*
X192382Y218652D02*
X191325Y218512D01*
X190340Y218104D01*
X189494Y217455D01*
X188845Y216609D01*
X188436Y215624D01*
X188297Y214567D01*
X188436Y213510D01*
X188845Y212525D01*
X189494Y211679D01*
X190275Y211079D01*
X190428Y210840D01*
X190621Y210471D01*
X190785Y210075D01*
X190921Y209653D01*
X190954Y209513D01*
Y160768D01*
X190954Y160768D01*
X191063Y160222D01*
X191373Y159758D01*
X229896Y121235D01*
X230359Y120925D01*
X230906Y120817D01*
X230906Y120817D01*
X237822D01*
X238019Y120774D01*
X238430Y120663D01*
X238825Y120533D01*
X239005Y120461D01*
X239022Y120439D01*
X239816Y119830D01*
X240740Y119447D01*
X241732Y119317D01*
X242724Y119447D01*
X243649Y119830D01*
X244443Y120439D01*
X245052Y121233D01*
X245434Y122158D01*
X245565Y123150D01*
X245434Y124142D01*
X245052Y125066D01*
X244443Y125860D01*
X243649Y126469D01*
X242724Y126852D01*
X241732Y126982D01*
X240740Y126852D01*
X239816Y126469D01*
X239022Y125860D01*
X238413Y125066D01*
X238043Y124173D01*
X237993Y124126D01*
X237760Y123962D01*
X237483Y123817D01*
X237160Y123694D01*
X237079Y123671D01*
X231497D01*
X193809Y161359D01*
Y209513D01*
X193843Y209653D01*
X193978Y210075D01*
X194143Y210471D01*
X194335Y210840D01*
X194488Y211079D01*
X195270Y211679D01*
X195919Y212525D01*
X196327Y213510D01*
X196466Y214567D01*
X196327Y215624D01*
X195919Y216609D01*
X195270Y217455D01*
X194424Y218104D01*
X193439Y218512D01*
X192382Y218652D01*
D02*
G37*
G36*
X141732Y126982D02*
X140740Y126852D01*
X139816Y126469D01*
X139022Y125860D01*
X138413Y125066D01*
X138030Y124142D01*
X137899Y123150D01*
X138030Y122158D01*
X138413Y121233D01*
X139022Y120439D01*
X139816Y119830D01*
X140740Y119447D01*
X141732Y119317D01*
X142724Y119447D01*
X143649Y119830D01*
X144442Y120439D01*
X145052Y121233D01*
X145434Y122158D01*
X145565Y123150D01*
X145434Y124142D01*
X145052Y125066D01*
X144442Y125860D01*
X143649Y126469D01*
X142724Y126852D01*
X141732Y126982D01*
D02*
G37*
G36*
X182382Y218652D02*
X181325Y218512D01*
X180340Y218104D01*
X179494Y217455D01*
X178845Y216609D01*
X178437Y215624D01*
X178297Y214567D01*
X178437Y213510D01*
X178845Y212525D01*
X179494Y211679D01*
X180275Y211079D01*
X180428Y210840D01*
X180621Y210471D01*
X180785Y210075D01*
X180921Y209653D01*
X180954Y209513D01*
Y156102D01*
X180954Y156102D01*
X181063Y155556D01*
X181372Y155093D01*
X224325Y112140D01*
X224325Y112140D01*
X224788Y111831D01*
X225335Y111722D01*
X225335Y111722D01*
X237190D01*
X237219Y111715D01*
X237603Y111595D01*
X237961Y111449D01*
X238294Y111279D01*
X238457Y111176D01*
X239022Y110439D01*
X239816Y109830D01*
X240740Y109447D01*
X241732Y109317D01*
X242724Y109447D01*
X243649Y109830D01*
X244443Y110439D01*
X245052Y111233D01*
X245434Y112158D01*
X245565Y113150D01*
X245434Y114142D01*
X245052Y115066D01*
X244443Y115860D01*
X243649Y116469D01*
X242724Y116852D01*
X241732Y116982D01*
X240740Y116852D01*
X239816Y116469D01*
X239022Y115860D01*
X238457Y115123D01*
X238294Y115020D01*
X237961Y114850D01*
X237603Y114704D01*
X237219Y114584D01*
X237190Y114577D01*
X225926D01*
X183809Y156694D01*
Y209513D01*
X183843Y209653D01*
X183978Y210075D01*
X184143Y210471D01*
X184335Y210840D01*
X184488Y211079D01*
X185270Y211679D01*
X185919Y212525D01*
X186327Y213510D01*
X186466Y214567D01*
X186327Y215624D01*
X185919Y216609D01*
X185270Y217455D01*
X184424Y218104D01*
X183439Y218512D01*
X182382Y218652D01*
D02*
G37*
G36*
X118124Y117839D02*
X110025D01*
Y109740D01*
X118124D01*
Y111722D01*
X137190D01*
X137219Y111715D01*
X137603Y111595D01*
X137961Y111449D01*
X138294Y111279D01*
X138457Y111176D01*
X139022Y110439D01*
X139816Y109830D01*
X140740Y109447D01*
X141732Y109317D01*
X142724Y109447D01*
X143649Y109830D01*
X144442Y110439D01*
X145052Y111233D01*
X145434Y112158D01*
X145565Y113150D01*
X145434Y114142D01*
X145052Y115066D01*
X144442Y115860D01*
X143649Y116469D01*
X142724Y116852D01*
X141732Y116982D01*
X140740Y116852D01*
X139816Y116469D01*
X139022Y115860D01*
X138457Y115123D01*
X138294Y115020D01*
X137961Y114850D01*
X137603Y114704D01*
X137219Y114584D01*
X137190Y114577D01*
X118124D01*
Y117839D01*
D02*
G37*
G36*
X320877Y114972D02*
X316131D01*
Y110225D01*
X317076D01*
Y104488D01*
X316180Y103259D01*
X314580Y102848D01*
X311497Y105931D01*
X311034Y106240D01*
X310488Y106349D01*
X310488Y106349D01*
X307196D01*
Y108180D01*
X302646D01*
Y101662D01*
X307196D01*
Y103494D01*
X309897D01*
X313416Y99975D01*
X313416Y99975D01*
X313879Y99665D01*
X314425Y99557D01*
X314425Y99557D01*
X316180D01*
Y98709D01*
X321123D01*
Y103259D01*
X319931D01*
Y110225D01*
X320877D01*
Y114972D01*
D02*
G37*
G36*
X81201Y127781D02*
X54528D01*
X54254Y127726D01*
X54023Y127572D01*
X47834Y121383D01*
X35531D01*
X35258Y121329D01*
X35027Y121174D01*
X30007Y116154D01*
X29852Y115923D01*
X29798Y115650D01*
Y104823D01*
X29852Y104550D01*
X30007Y104318D01*
X34633Y99692D01*
X34865Y99537D01*
X35138Y99483D01*
X82185D01*
X82458Y99537D01*
X82690Y99692D01*
X83969Y100972D01*
X84124Y101203D01*
X84178Y101476D01*
Y124803D01*
X84124Y125076D01*
X83969Y125308D01*
X81705Y127572D01*
X81474Y127726D01*
X81201Y127781D01*
D02*
G37*
G36*
X241732Y106982D02*
X240740Y106852D01*
X239816Y106469D01*
X239022Y105860D01*
X238413Y105066D01*
X238030Y104142D01*
X237899Y103150D01*
X238030Y102158D01*
X238413Y101233D01*
X239022Y100439D01*
X239816Y99830D01*
X240740Y99447D01*
X241732Y99317D01*
X242724Y99447D01*
X243649Y99830D01*
X244443Y100439D01*
X245052Y101233D01*
X245434Y102158D01*
X245565Y103150D01*
X245434Y104142D01*
X245052Y105066D01*
X244443Y105860D01*
X243649Y106469D01*
X242724Y106852D01*
X241732Y106982D01*
D02*
G37*
G36*
X141732D02*
X140740Y106852D01*
X139816Y106469D01*
X139022Y105860D01*
X138413Y105066D01*
X138030Y104142D01*
X137899Y103150D01*
X138030Y102158D01*
X138413Y101233D01*
X139022Y100439D01*
X139816Y99830D01*
X140740Y99447D01*
X141732Y99317D01*
X142724Y99447D01*
X143649Y99830D01*
X144442Y100439D01*
X145052Y101233D01*
X145434Y102158D01*
X145565Y103150D01*
X145434Y104142D01*
X145052Y105066D01*
X144442Y105860D01*
X143649Y106469D01*
X142724Y106852D01*
X141732Y106982D01*
D02*
G37*
G36*
X350984Y105955D02*
X349927Y105815D01*
X348942Y105407D01*
X348096Y104758D01*
X347447Y103912D01*
X347039Y102927D01*
X346900Y101870D01*
X347039Y100813D01*
X347447Y99828D01*
X348096Y98982D01*
X348942Y98333D01*
X349927Y97925D01*
X350984Y97786D01*
X352041Y97925D01*
X353027Y98333D01*
X353872Y98982D01*
X354522Y99828D01*
X354930Y100813D01*
X355069Y101870D01*
X354930Y102927D01*
X354522Y103912D01*
X353872Y104758D01*
X353027Y105407D01*
X352041Y105815D01*
X350984Y105955D01*
D02*
G37*
G36*
X329096Y99519D02*
X324152D01*
Y94969D01*
X324284D01*
X324398Y93417D01*
X324398D01*
Y91388D01*
X322550D01*
Y92334D01*
X317804D01*
Y87587D01*
X322550D01*
Y88533D01*
X324398D01*
Y86898D01*
X328948D01*
Y93417D01*
X328948D01*
X329062Y94969D01*
X329096D01*
Y99519D01*
D02*
G37*
G36*
X406564Y106975D02*
X401817D01*
Y102228D01*
Y96643D01*
X402901D01*
Y94891D01*
X402433D01*
X402085Y94822D01*
X401790Y94624D01*
X401593Y94329D01*
X401524Y93981D01*
Y92830D01*
X401593Y92482D01*
X401790Y92187D01*
X402085Y91989D01*
X402433Y91920D01*
X406223D01*
X406571Y91989D01*
X406866Y92187D01*
X407063Y92482D01*
X407132Y92830D01*
Y93981D01*
X407063Y94329D01*
X406866Y94624D01*
X406571Y94822D01*
Y96635D01*
X406564Y96643D01*
Y102228D01*
Y106975D01*
D02*
G37*
G36*
X329626Y133323D02*
X328814Y133161D01*
X328126Y132701D01*
X327666Y132013D01*
X327504Y131201D01*
X327666Y130389D01*
X328126Y129700D01*
X328199Y129652D01*
Y113091D01*
X325615Y110507D01*
X325305Y110044D01*
X325197Y109498D01*
X325197Y109498D01*
Y106999D01*
X324152D01*
Y102450D01*
X329096D01*
Y102495D01*
X330696Y102965D01*
X332726Y100934D01*
Y93417D01*
X331879D01*
Y86898D01*
X332726D01*
Y84843D01*
X332726Y84842D01*
X332835Y84296D01*
X333144Y83833D01*
X336096Y80881D01*
X336096Y80881D01*
X336560Y80572D01*
X337106Y80463D01*
X337106Y80463D01*
X366194D01*
X366194Y80463D01*
X366740Y80572D01*
X367203Y80881D01*
X373182Y86860D01*
X381693D01*
X381693Y86860D01*
X394781D01*
X395071Y86802D01*
X398861D01*
X399209Y86871D01*
X399504Y87069D01*
X399701Y87364D01*
X399770Y87712D01*
Y88863D01*
X399701Y89211D01*
X399504Y89506D01*
X399209Y89703D01*
X398861Y89773D01*
X395071D01*
X394876Y89734D01*
X394410Y89732D01*
X394210Y89931D01*
X394435Y91843D01*
X394558Y91905D01*
X394876Y91959D01*
X395071Y91920D01*
X398861D01*
X399209Y91989D01*
X399504Y92187D01*
X399701Y92482D01*
X399770Y92830D01*
Y93981D01*
X399701Y94329D01*
X399504Y94624D01*
X399209Y94822D01*
X398861Y94891D01*
X398393D01*
Y96643D01*
X399871D01*
Y101389D01*
X395124D01*
Y100148D01*
X393276D01*
Y101094D01*
X388530D01*
Y96347D01*
X393276D01*
X393524Y96595D01*
X395124Y96529D01*
Y94944D01*
X395071Y94891D01*
X394723Y94822D01*
X394707Y94810D01*
X393632Y94503D01*
X392966Y94401D01*
X388530Y94401D01*
Y93455D01*
X355034D01*
Y95920D01*
X346935D01*
Y87821D01*
X355034D01*
Y90600D01*
X370674D01*
X370981Y90160D01*
X371285Y89000D01*
X365602Y83318D01*
X337697D01*
X335716Y85298D01*
X335908Y86898D01*
X336428D01*
Y93417D01*
X335581D01*
Y101525D01*
X335581Y101526D01*
X335472Y102072D01*
X335163Y102535D01*
X335163Y102535D01*
X331964Y105734D01*
X331501Y106043D01*
X330955Y106152D01*
X330955Y106152D01*
X329096D01*
Y106999D01*
X328051D01*
Y108907D01*
X330635Y111491D01*
X330635Y111491D01*
X330945Y111954D01*
X331053Y112500D01*
X331053Y112500D01*
Y129652D01*
X331126Y129700D01*
X331586Y130389D01*
X331748Y131201D01*
X331586Y132013D01*
X331126Y132701D01*
X330438Y133161D01*
X329626Y133323D01*
D02*
G37*
G36*
X141732Y96982D02*
X140740Y96852D01*
X139816Y96469D01*
X139022Y95860D01*
X138413Y95066D01*
X138030Y94142D01*
X137899Y93150D01*
X138030Y92158D01*
X138413Y91233D01*
X139022Y90439D01*
X139816Y89830D01*
X140740Y89447D01*
X141732Y89317D01*
X142724Y89447D01*
X143649Y89830D01*
X144442Y90439D01*
X145052Y91233D01*
X145434Y92158D01*
X145565Y93150D01*
X145434Y94142D01*
X145052Y95066D01*
X144442Y95860D01*
X143649Y96469D01*
X142724Y96852D01*
X141732Y96982D01*
D02*
G37*
G36*
X299716Y108180D02*
X295166D01*
Y101662D01*
X296013D01*
Y97317D01*
X293528D01*
Y89218D01*
X301627D01*
Y97317D01*
X298868D01*
Y101662D01*
X299716D01*
Y108180D01*
D02*
G37*
G36*
X297578Y87352D02*
X296521Y87213D01*
X295536Y86805D01*
X294690Y86156D01*
X294090Y85374D01*
X293851Y85221D01*
X293481Y85028D01*
X293086Y84864D01*
X292664Y84728D01*
X292524Y84695D01*
X288960D01*
X288959Y84695D01*
X288413Y84587D01*
X287950Y84277D01*
X287950Y84277D01*
X285391Y81718D01*
X285082Y81255D01*
X284973Y80709D01*
X284973Y80709D01*
Y50925D01*
X278625Y44577D01*
X246275D01*
X246246Y44584D01*
X245861Y44704D01*
X245503Y44850D01*
X245171Y45020D01*
X245008Y45123D01*
X244443Y45860D01*
X243649Y46469D01*
X242724Y46852D01*
X241732Y46982D01*
X240740Y46852D01*
X239816Y46469D01*
X239022Y45860D01*
X238413Y45066D01*
X238030Y44142D01*
X237899Y43150D01*
X238030Y42158D01*
X238413Y41233D01*
X239022Y40439D01*
X239816Y39830D01*
X240740Y39447D01*
X241732Y39317D01*
X242724Y39447D01*
X243649Y39830D01*
X244443Y40439D01*
X245008Y41176D01*
X245171Y41279D01*
X245503Y41449D01*
X245861Y41595D01*
X246246Y41715D01*
X246275Y41722D01*
X279216D01*
X279216Y41722D01*
X279763Y41831D01*
X280226Y42140D01*
X287410Y49324D01*
X287410Y49324D01*
X287719Y49787D01*
X287828Y50334D01*
Y80117D01*
X289551Y81840D01*
X292524D01*
X292664Y81807D01*
X293086Y81671D01*
X293482Y81507D01*
X293851Y81314D01*
X294090Y81161D01*
X294690Y80379D01*
X295536Y79730D01*
X296521Y79322D01*
X297578Y79183D01*
X298635Y79322D01*
X299620Y79730D01*
X300466Y80379D01*
X301115Y81225D01*
X301523Y82210D01*
X301662Y83268D01*
X301523Y84325D01*
X301115Y85310D01*
X300466Y86156D01*
X299620Y86805D01*
X298635Y87213D01*
X297578Y87352D01*
D02*
G37*
G36*
X310335Y87707D02*
X309278Y87567D01*
X308292Y87159D01*
X307446Y86510D01*
X306797Y85664D01*
X306389Y84679D01*
X306250Y83622D01*
X306389Y82565D01*
X306797Y81580D01*
X307446Y80734D01*
X308292Y80085D01*
X309278Y79677D01*
X310335Y79537D01*
X311392Y79677D01*
X312377Y80085D01*
X313223Y80734D01*
X313823Y81516D01*
X314061Y81669D01*
X314431Y81861D01*
X314826Y82025D01*
X315248Y82161D01*
X315389Y82195D01*
X317315D01*
X317762Y82106D01*
X317804Y80895D01*
X322550D01*
Y85641D01*
X317804D01*
Y85157D01*
X317673Y85049D01*
X317673Y85049D01*
X315389D01*
X315248Y85083D01*
X314826Y85219D01*
X314431Y85383D01*
X314061Y85575D01*
X313823Y85729D01*
X313223Y86510D01*
X312377Y87159D01*
X311392Y87567D01*
X310335Y87707D01*
D02*
G37*
G36*
X88498Y88361D02*
X80399D01*
Y80261D01*
X88498D01*
Y88361D01*
D02*
G37*
G36*
X114075Y107874D02*
X113018Y107735D01*
X112032Y107327D01*
X111187Y106678D01*
X110538Y105832D01*
X110129Y104847D01*
X109990Y103789D01*
X110129Y102732D01*
X110538Y101747D01*
X111187Y100901D01*
X111968Y100301D01*
X112121Y100063D01*
X112314Y99693D01*
X112478Y99298D01*
X112614Y98876D01*
X112647Y98735D01*
Y95758D01*
X112647Y95758D01*
X112756Y95212D01*
X113066Y94749D01*
X125154Y82660D01*
X125617Y82350D01*
X126163Y82242D01*
X126163Y82242D01*
X137080D01*
X137155Y82223D01*
X137505Y82098D01*
X137817Y81949D01*
X138093Y81778D01*
X138233Y81667D01*
X138413Y81233D01*
X139022Y80439D01*
X139816Y79830D01*
X140740Y79447D01*
X141732Y79317D01*
X142724Y79447D01*
X143649Y79830D01*
X144442Y80439D01*
X145052Y81233D01*
X145434Y82158D01*
X145565Y83150D01*
X145434Y84142D01*
X145052Y85066D01*
X144442Y85860D01*
X143649Y86469D01*
X142724Y86852D01*
X141732Y86982D01*
X140740Y86852D01*
X139816Y86469D01*
X139022Y85860D01*
X138835Y85616D01*
X138560Y85482D01*
X138172Y85325D01*
X137770Y85191D01*
X137415Y85097D01*
X126755D01*
X115502Y96349D01*
Y98735D01*
X115535Y98876D01*
X115671Y99298D01*
X115836Y99693D01*
X116028Y100063D01*
X116181Y100301D01*
X116963Y100901D01*
X117612Y101747D01*
X118020Y102732D01*
X118159Y103789D01*
X118020Y104847D01*
X117612Y105832D01*
X116963Y106678D01*
X116117Y107327D01*
X115132Y107735D01*
X114075Y107874D01*
D02*
G37*
G36*
X241732Y86982D02*
X240740Y86852D01*
X239816Y86469D01*
X239022Y85860D01*
X238413Y85066D01*
X238030Y84142D01*
X237899Y83150D01*
X238030Y82158D01*
X238413Y81233D01*
X239022Y80439D01*
X239816Y79830D01*
X240740Y79447D01*
X241732Y79317D01*
X242724Y79447D01*
X243649Y79830D01*
X244443Y80439D01*
X245008Y81176D01*
X245171Y81279D01*
X245503Y81449D01*
X245861Y81595D01*
X246246Y81716D01*
X246275Y81722D01*
X270261D01*
Y78588D01*
X278361D01*
Y86687D01*
X270261D01*
Y84577D01*
X246275D01*
X246246Y84584D01*
X245861Y84704D01*
X245503Y84850D01*
X245171Y85020D01*
X245008Y85123D01*
X244443Y85860D01*
X243649Y86469D01*
X242724Y86852D01*
X241732Y86982D01*
D02*
G37*
G36*
X141732Y76982D02*
X140740Y76852D01*
X139816Y76469D01*
X139022Y75860D01*
X138457Y75123D01*
X138294Y75020D01*
X137961Y74850D01*
X137603Y74704D01*
X137219Y74584D01*
X137190Y74577D01*
X114372D01*
X114263Y75123D01*
X113804Y75811D01*
X113115Y76271D01*
X112303Y76433D01*
X111491Y76271D01*
X110803Y75811D01*
X110343Y75123D01*
X110181Y74311D01*
X110343Y73499D01*
X110803Y72811D01*
X111491Y72351D01*
X112303Y72189D01*
X112389Y72206D01*
X112455Y72140D01*
X112918Y71831D01*
X113465Y71722D01*
X113465Y71722D01*
X137190D01*
X137219Y71715D01*
X137603Y71595D01*
X137961Y71449D01*
X138294Y71279D01*
X138457Y71176D01*
X139022Y70439D01*
X139816Y69830D01*
X140740Y69447D01*
X141732Y69317D01*
X142724Y69447D01*
X143649Y69830D01*
X144442Y70439D01*
X145052Y71233D01*
X145434Y72158D01*
X145565Y73150D01*
X145434Y74142D01*
X145052Y75066D01*
X144442Y75860D01*
X143649Y76469D01*
X142724Y76852D01*
X141732Y76982D01*
D02*
G37*
G36*
X40453Y84393D02*
X35728D01*
X34877Y84281D01*
X34083Y83952D01*
X33402Y83429D01*
X32879Y82748D01*
X32550Y81954D01*
X32438Y81102D01*
Y76378D01*
X32550Y75526D01*
X32879Y74733D01*
X33402Y74051D01*
X34083Y73528D01*
X34877Y73200D01*
X35728Y73088D01*
X40453D01*
X41304Y73200D01*
X42098Y73528D01*
X42779Y74051D01*
X43302Y74733D01*
X43631Y75526D01*
X43743Y76378D01*
Y81102D01*
X43631Y81954D01*
X43302Y82748D01*
X42779Y83429D01*
X42098Y83952D01*
X41304Y84281D01*
X40453Y84393D01*
D02*
G37*
G36*
X84449Y78396D02*
X83392Y78256D01*
X82407Y77848D01*
X81561Y77199D01*
X80911Y76353D01*
X80503Y75368D01*
X80364Y74311D01*
X80503Y73254D01*
X80911Y72269D01*
X81561Y71423D01*
X82407Y70774D01*
X83392Y70366D01*
X84449Y70227D01*
X85506Y70366D01*
X86491Y70774D01*
X87337Y71423D01*
X87986Y72269D01*
X88394Y73254D01*
X88533Y74311D01*
X88394Y75368D01*
X87986Y76353D01*
X87337Y77199D01*
X86491Y77848D01*
X85506Y78256D01*
X84449Y78396D01*
D02*
G37*
G36*
X382452Y70090D02*
X380928Y69984D01*
X380928Y69984D01*
X377410D01*
X375985Y69984D01*
X374385Y69984D01*
X370867D01*
Y63465D01*
X371911D01*
Y60593D01*
X371911Y60593D01*
X372020Y60047D01*
X372329Y59584D01*
X381939Y49975D01*
Y45586D01*
X381004D01*
X380152Y45474D01*
X379359Y45145D01*
X378677Y44623D01*
X378154Y43941D01*
X377826Y43148D01*
X377714Y42296D01*
Y37571D01*
X377826Y36720D01*
X378154Y35926D01*
X378677Y35245D01*
X379359Y34722D01*
X380152Y34393D01*
X381004Y34281D01*
X385728D01*
X386580Y34393D01*
X387373Y34722D01*
X388055Y35245D01*
X388578Y35926D01*
X388907Y36720D01*
X389019Y37571D01*
Y42296D01*
X388907Y43148D01*
X388578Y43941D01*
X388055Y44623D01*
X387373Y45145D01*
X386580Y45474D01*
X385728Y45586D01*
X384794D01*
Y50566D01*
X384794Y50566D01*
X384685Y51112D01*
X384376Y51575D01*
X384376Y51575D01*
X374898Y61053D01*
X374971Y62700D01*
X375985Y63465D01*
X377410Y63465D01*
X380896D01*
X380928Y63465D01*
Y63465D01*
X382452Y63572D01*
Y63572D01*
X387001D01*
Y70090D01*
X382485D01*
X382452Y70090D01*
D02*
G37*
G36*
X241732Y76982D02*
X240740Y76852D01*
X239816Y76469D01*
X239022Y75860D01*
X238413Y75066D01*
X238030Y74142D01*
X237899Y73150D01*
X238030Y72158D01*
X238413Y71233D01*
X239022Y70439D01*
X239816Y69830D01*
X240740Y69447D01*
X241732Y69317D01*
X242724Y69447D01*
X243649Y69830D01*
X244443Y70439D01*
X244805Y70911D01*
X245048Y71047D01*
X245407Y71212D01*
X245787Y71353D01*
X246177Y71466D01*
X269197D01*
X269361Y71425D01*
X269766Y71286D01*
X270139Y71119D01*
X270481Y70924D01*
X270703Y70766D01*
X270774Y70596D01*
X271423Y69750D01*
X272269Y69100D01*
X273254Y68692D01*
X274311Y68553D01*
X275368Y68692D01*
X276353Y69100D01*
X277199Y69750D01*
X277848Y70596D01*
X278256Y71581D01*
X278396Y72638D01*
X278256Y73695D01*
X277848Y74680D01*
X277199Y75526D01*
X276353Y76175D01*
X275368Y76583D01*
X274311Y76722D01*
X273254Y76583D01*
X272269Y76175D01*
X271423Y75526D01*
X271026Y75008D01*
X270701Y74823D01*
X270304Y74635D01*
X269887Y74476D01*
X269449Y74344D01*
X269345Y74321D01*
X246344D01*
X246287Y74335D01*
X245919Y74459D01*
X245583Y74607D01*
X245278Y74779D01*
X245126Y74887D01*
X245052Y75066D01*
X244443Y75860D01*
X243649Y76469D01*
X242724Y76852D01*
X241732Y76982D01*
D02*
G37*
G36*
X406223Y89773D02*
X402433D01*
X402085Y89703D01*
X401790Y89506D01*
X401593Y89211D01*
X401524Y88863D01*
Y87712D01*
X401593Y87364D01*
X401790Y87069D01*
X402085Y86871D01*
X402433Y86802D01*
X402901D01*
Y83883D01*
X402901Y83883D01*
X402930Y83736D01*
Y80917D01*
X402154D01*
Y76660D01*
X402154Y76170D01*
Y75060D01*
X402154Y74570D01*
Y70314D01*
X402154D01*
Y69204D01*
X402154D01*
Y64457D01*
X406901D01*
Y69204D01*
X406901D01*
Y70314D01*
X406901D01*
Y74570D01*
X406901Y75060D01*
Y76170D01*
X406901Y76660D01*
Y80917D01*
X405785D01*
Y83854D01*
X405785Y83854D01*
X405756Y84000D01*
Y86802D01*
X406223D01*
X406571Y86871D01*
X406866Y87069D01*
X407063Y87364D01*
X407132Y87712D01*
Y88863D01*
X407063Y89211D01*
X406866Y89506D01*
X406571Y89703D01*
X406223Y89773D01*
D02*
G37*
G36*
X84449Y68396D02*
X83392Y68256D01*
X82407Y67848D01*
X81561Y67199D01*
X80961Y66417D01*
X80722Y66264D01*
X80352Y66072D01*
X79957Y65908D01*
X79535Y65772D01*
X79395Y65738D01*
X71595D01*
X71048Y65630D01*
X70585Y65320D01*
X70585Y65320D01*
X65747Y60483D01*
X54429D01*
X54429Y60483D01*
X54429Y60483D01*
X46326D01*
X46202Y60505D01*
X45513Y60687D01*
X44855Y60920D01*
X44225Y61204D01*
X43623Y61539D01*
X43048Y61927D01*
X42862Y62077D01*
X42102Y63067D01*
X40927Y63968D01*
X39559Y64535D01*
X38091Y64728D01*
X36622Y64535D01*
X35254Y63968D01*
X34079Y63067D01*
X33178Y61892D01*
X32611Y60523D01*
X32418Y59055D01*
X32611Y57587D01*
X33178Y56219D01*
X34079Y55044D01*
X35254Y54142D01*
X36622Y53575D01*
X38091Y53382D01*
X39559Y53575D01*
X40927Y54142D01*
X42102Y55044D01*
X42862Y56034D01*
X43048Y56183D01*
X43623Y56571D01*
X44225Y56906D01*
X44855Y57191D01*
X45513Y57423D01*
X46202Y57605D01*
X46326Y57628D01*
X54429D01*
X54429Y57628D01*
X66338D01*
X66339Y57628D01*
X66885Y57736D01*
X67348Y58046D01*
X72186Y62884D01*
X79395D01*
X79535Y62850D01*
X79957Y62714D01*
X80353Y62550D01*
X80722Y62358D01*
X80961Y62205D01*
X81561Y61423D01*
X82407Y60774D01*
X83392Y60366D01*
X84449Y60227D01*
X85506Y60366D01*
X86491Y60774D01*
X87337Y61423D01*
X87986Y62269D01*
X88394Y63254D01*
X88533Y64311D01*
X88394Y65368D01*
X87986Y66353D01*
X87337Y67199D01*
X86491Y67848D01*
X85506Y68256D01*
X84449Y68396D01*
D02*
G37*
G36*
X297578Y77352D02*
X296521Y77213D01*
X295536Y76805D01*
X294690Y76156D01*
X294040Y75310D01*
X293633Y74325D01*
X293493Y73268D01*
X293633Y72211D01*
X294040Y71225D01*
X294690Y70380D01*
X295471Y69780D01*
X295624Y69541D01*
X295817Y69171D01*
X295981Y68776D01*
X296117Y68354D01*
X296150Y68214D01*
Y65688D01*
X296150Y65688D01*
X296259Y65142D01*
X296568Y64679D01*
X298635Y62613D01*
X298635Y62613D01*
X299098Y62303D01*
X299644Y62195D01*
X299644Y62195D01*
X303115D01*
X303155Y62187D01*
X303155Y62187D01*
X305376D01*
X305376Y62187D01*
X306285Y60997D01*
Y59572D01*
X314384D01*
Y61261D01*
X316429D01*
X316429Y61261D01*
X316469Y61269D01*
X318198D01*
Y60225D01*
X322944D01*
Y64972D01*
X318198D01*
Y64124D01*
X316437D01*
X316437Y64124D01*
X316397Y64116D01*
X314384D01*
Y67672D01*
X306285D01*
Y66225D01*
X305384Y65049D01*
X305344Y65042D01*
X303187D01*
X303147Y65049D01*
X303147Y65049D01*
X300235D01*
X299005Y66279D01*
Y68214D01*
X299039Y68354D01*
X299174Y68776D01*
X299339Y69172D01*
X299531Y69541D01*
X299684Y69780D01*
X300466Y70380D01*
X301115Y71225D01*
X301523Y72211D01*
X301662Y73268D01*
X301523Y74325D01*
X301115Y75310D01*
X300466Y76156D01*
X299620Y76805D01*
X298635Y77213D01*
X297578Y77352D01*
D02*
G37*
G36*
X241732Y66982D02*
X240740Y66852D01*
X239816Y66469D01*
X239022Y65860D01*
X238413Y65066D01*
X238030Y64142D01*
X237899Y63150D01*
X238030Y62158D01*
X238413Y61233D01*
X239022Y60439D01*
X239816Y59830D01*
X240740Y59447D01*
X241732Y59317D01*
X242724Y59447D01*
X243649Y59830D01*
X244443Y60439D01*
X244805Y60911D01*
X245048Y61047D01*
X245407Y61212D01*
X245787Y61353D01*
X246177Y61466D01*
X269197D01*
X269361Y61425D01*
X269766Y61286D01*
X270139Y61119D01*
X270481Y60924D01*
X270703Y60766D01*
X270774Y60596D01*
X271423Y59750D01*
X272269Y59101D01*
X273254Y58692D01*
X274311Y58553D01*
X275368Y58692D01*
X276353Y59101D01*
X277199Y59750D01*
X277848Y60596D01*
X278256Y61581D01*
X278396Y62638D01*
X278256Y63695D01*
X277848Y64680D01*
X277199Y65526D01*
X276353Y66175D01*
X275368Y66583D01*
X274311Y66722D01*
X273254Y66583D01*
X272269Y66175D01*
X271423Y65526D01*
X271026Y65008D01*
X270701Y64823D01*
X270304Y64635D01*
X269887Y64476D01*
X269449Y64345D01*
X269345Y64321D01*
X246344D01*
X246287Y64335D01*
X245919Y64459D01*
X245583Y64607D01*
X245278Y64779D01*
X245126Y64887D01*
X245052Y65066D01*
X244443Y65860D01*
X243649Y66469D01*
X242724Y66852D01*
X241732Y66982D01*
D02*
G37*
G36*
Y56982D02*
X240740Y56852D01*
X239816Y56469D01*
X239022Y55860D01*
X238413Y55066D01*
X238030Y54142D01*
X237899Y53150D01*
X238030Y52158D01*
X238413Y51233D01*
X239022Y50439D01*
X239816Y49830D01*
X240740Y49447D01*
X241732Y49317D01*
X242724Y49447D01*
X243649Y49830D01*
X244443Y50439D01*
X245008Y51176D01*
X245171Y51279D01*
X245503Y51449D01*
X245861Y51595D01*
X246246Y51715D01*
X246275Y51722D01*
X259842D01*
X259842Y51722D01*
X259843Y51722D01*
X269163D01*
X269341Y51676D01*
X269729Y51535D01*
X270079Y51367D01*
X270393Y51172D01*
X270604Y51006D01*
X270774Y50595D01*
X271423Y49750D01*
X272269Y49101D01*
X273254Y48692D01*
X274311Y48553D01*
X275368Y48692D01*
X276353Y49101D01*
X277199Y49750D01*
X277848Y50595D01*
X278256Y51581D01*
X278396Y52638D01*
X278256Y53695D01*
X277848Y54680D01*
X277199Y55526D01*
X276353Y56175D01*
X275368Y56583D01*
X274311Y56722D01*
X273254Y56583D01*
X272269Y56175D01*
X271423Y55526D01*
X271197Y55231D01*
X270831Y55047D01*
X270407Y54866D01*
X269968Y54713D01*
X269515Y54588D01*
X269462Y54577D01*
X259842D01*
X259842Y54577D01*
X246275D01*
X246246Y54584D01*
X245861Y54704D01*
X245503Y54850D01*
X245171Y55020D01*
X245008Y55123D01*
X244443Y55860D01*
X243649Y56469D01*
X242724Y56852D01*
X241732Y56982D01*
D02*
G37*
G36*
X310728Y45419D02*
X309166D01*
Y40465D01*
X314120D01*
Y42028D01*
X314004Y42905D01*
X313665Y43723D01*
X313126Y44426D01*
X312424Y44965D01*
X311606Y45303D01*
X310728Y45419D01*
D02*
G37*
G36*
X307566D02*
X306004D01*
X305126Y45303D01*
X304308Y44965D01*
X303606Y44426D01*
X303067Y43723D01*
X302728Y42905D01*
X302613Y42028D01*
Y40465D01*
X307566D01*
Y45419D01*
D02*
G37*
G36*
X38891Y45039D02*
Y40170D01*
X43759D01*
X43668Y40864D01*
X43091Y42257D01*
X42173Y43453D01*
X40978Y44370D01*
X39585Y44947D01*
X38891Y45039D01*
D02*
G37*
G36*
X37291Y45039D02*
X36596Y44947D01*
X35204Y44370D01*
X34008Y43453D01*
X33090Y42257D01*
X32514Y40864D01*
X32422Y40170D01*
X37291D01*
Y45039D01*
D02*
G37*
G36*
X67913Y44927D02*
X66351D01*
Y39973D01*
X71305D01*
Y41535D01*
X71189Y42413D01*
X70850Y43231D01*
X70311Y43933D01*
X69609Y44472D01*
X68791Y44811D01*
X67913Y44927D01*
D02*
G37*
G36*
X64751D02*
X63189D01*
X62311Y44811D01*
X61493Y44472D01*
X60791Y43933D01*
X60252Y43231D01*
X59913Y42413D01*
X59798Y41535D01*
Y39973D01*
X64751D01*
Y44927D01*
D02*
G37*
G36*
X141732Y46982D02*
X140740Y46852D01*
X139816Y46469D01*
X139022Y45860D01*
X138413Y45066D01*
X138030Y44142D01*
X137899Y43150D01*
X138030Y42158D01*
X138413Y41233D01*
X139022Y40439D01*
X139816Y39830D01*
X140740Y39447D01*
X141732Y39317D01*
X142724Y39447D01*
X143649Y39830D01*
X144442Y40439D01*
X145052Y41233D01*
X145434Y42158D01*
X145565Y43150D01*
X145434Y44142D01*
X145052Y45066D01*
X144442Y45860D01*
X143649Y46469D01*
X142724Y46852D01*
X141732Y46982D01*
D02*
G37*
G36*
X278361Y37199D02*
X270261D01*
Y34577D01*
X246275D01*
X246246Y34584D01*
X245861Y34704D01*
X245503Y34850D01*
X245171Y35020D01*
X245008Y35123D01*
X244443Y35860D01*
X243649Y36469D01*
X242724Y36852D01*
X241732Y36982D01*
X240740Y36852D01*
X239816Y36469D01*
X239022Y35860D01*
X238413Y35066D01*
X238030Y34142D01*
X237899Y33150D01*
X238030Y32158D01*
X238413Y31233D01*
X239022Y30439D01*
X239816Y29830D01*
X240740Y29447D01*
X241732Y29317D01*
X242724Y29447D01*
X243649Y29830D01*
X244443Y30439D01*
X245008Y31176D01*
X245171Y31279D01*
X245503Y31449D01*
X245861Y31595D01*
X246246Y31716D01*
X246275Y31722D01*
X270261D01*
Y29100D01*
X278361D01*
Y37199D01*
D02*
G37*
G36*
X394388Y80917D02*
Y80917D01*
X393861Y80917D01*
X389641D01*
Y76170D01*
X394321D01*
X395019Y75491D01*
X395461Y75015D01*
Y71284D01*
X394555Y70179D01*
X393954Y70090D01*
X389932D01*
Y63572D01*
X394482D01*
Y63572D01*
X394807Y63866D01*
X396407Y63156D01*
Y60174D01*
X396407Y60174D01*
X396516Y59628D01*
X396825Y59165D01*
X401220Y54770D01*
X401034Y54492D01*
X400953Y54085D01*
Y53396D01*
X401034Y52988D01*
X401160Y52800D01*
X401160Y52799D01*
X401161Y52798D01*
X401265Y52643D01*
X401282Y52631D01*
Y48099D01*
X401268Y48018D01*
X401092Y47318D01*
X400866Y46639D01*
X400589Y45980D01*
X400263Y45341D01*
X399885Y44720D01*
X399686Y44441D01*
X399040Y43945D01*
X398138Y42770D01*
X397571Y41402D01*
X397378Y39934D01*
X397571Y38465D01*
X398138Y37097D01*
X399040Y35922D01*
X400215Y35021D01*
X401583Y34454D01*
X403051Y34261D01*
X404519Y34454D01*
X405888Y35021D01*
X407062Y35922D01*
X407964Y37097D01*
X408531Y38465D01*
X408724Y39934D01*
X408531Y41402D01*
X407964Y42770D01*
X407062Y43945D01*
X405888Y44847D01*
X405742Y44907D01*
X405616Y45047D01*
X405222Y45578D01*
X404880Y46143D01*
X404591Y46742D01*
X404353Y47379D01*
X404166Y48055D01*
X404137Y48211D01*
Y52772D01*
X404281Y52988D01*
X404362Y53396D01*
Y54085D01*
X404281Y54492D01*
X404085Y54786D01*
Y55351D01*
X404085Y55351D01*
X403976Y55897D01*
X403667Y56361D01*
X403667Y56361D01*
X399262Y60765D01*
Y64457D01*
X400208D01*
Y68714D01*
X400208Y69204D01*
Y70314D01*
X400208Y70804D01*
Y75060D01*
X400208D01*
Y76170D01*
X400208D01*
Y80917D01*
X395988D01*
X395461Y80917D01*
Y80917D01*
X394388D01*
D02*
G37*
G36*
X310335Y77707D02*
X309278Y77567D01*
X308292Y77159D01*
X307446Y76510D01*
X306797Y75664D01*
X306389Y74679D01*
X306250Y73622D01*
X306389Y72565D01*
X306797Y71580D01*
X307446Y70734D01*
X308292Y70085D01*
X309278Y69677D01*
X310335Y69538D01*
X311392Y69677D01*
X312377Y70085D01*
X313223Y70734D01*
X313823Y71516D01*
X314061Y71669D01*
X314431Y71861D01*
X314826Y72026D01*
X315248Y72161D01*
X315389Y72195D01*
X332578D01*
X344933Y59840D01*
X345265Y58377D01*
X345265D01*
Y51859D01*
X346309D01*
Y47900D01*
X346286Y47777D01*
X346105Y47088D01*
X345871Y46430D01*
X345587Y45800D01*
X345252Y45198D01*
X344864Y44623D01*
X344715Y44436D01*
X343725Y43677D01*
X342823Y42502D01*
X342257Y41134D01*
X342063Y39665D01*
X342257Y38197D01*
X342823Y36829D01*
X343725Y35654D01*
X344900Y34753D01*
X346268Y34186D01*
X347736Y33992D01*
X349204Y34186D01*
X350573Y34753D01*
X351748Y35654D01*
X352649Y36829D01*
X353216Y38197D01*
X353409Y39665D01*
X353216Y41134D01*
X352649Y42502D01*
X351748Y43677D01*
X350758Y44436D01*
X350608Y44623D01*
X350220Y45198D01*
X349885Y45800D01*
X349601Y46430D01*
X349368Y47088D01*
X349186Y47777D01*
X349164Y47900D01*
Y51859D01*
X350208D01*
Y58377D01*
X350208Y58377D01*
X350208Y58377D01*
X349074Y59504D01*
X349055Y59601D01*
X348746Y60065D01*
X348745Y60065D01*
X334179Y74631D01*
X333716Y74941D01*
X333169Y75050D01*
X333169Y75050D01*
X315389D01*
X315248Y75083D01*
X314826Y75219D01*
X314431Y75383D01*
X314061Y75576D01*
X313823Y75728D01*
X313223Y76510D01*
X312377Y77159D01*
X311392Y77567D01*
X310335Y77707D01*
D02*
G37*
G36*
X322944Y58279D02*
X318198D01*
Y53532D01*
X322944D01*
Y54478D01*
X325298D01*
X326624Y53152D01*
Y47900D01*
X326601Y47777D01*
X326419Y47088D01*
X326186Y46430D01*
X325903Y45800D01*
X325567Y45198D01*
X325179Y44623D01*
X325030Y44436D01*
X324040Y43677D01*
X323138Y42502D01*
X322571Y41134D01*
X322378Y39665D01*
X322571Y38197D01*
X323138Y36829D01*
X324040Y35654D01*
X325215Y34753D01*
X326583Y34186D01*
X328051Y33992D01*
X329519Y34186D01*
X330888Y34753D01*
X332063Y35654D01*
X332964Y36829D01*
X333531Y38197D01*
X333724Y39665D01*
X333531Y41134D01*
X332964Y42502D01*
X332063Y43677D01*
X331073Y44436D01*
X330923Y44623D01*
X330535Y45198D01*
X330200Y45800D01*
X329916Y46430D01*
X329683Y47088D01*
X329501Y47777D01*
X329479Y47900D01*
Y53744D01*
X329479Y53744D01*
X329370Y54290D01*
X329061Y54753D01*
X329061Y54753D01*
X326899Y56915D01*
X326436Y57224D01*
X325889Y57333D01*
X325889Y57333D01*
X322944D01*
Y58279D01*
D02*
G37*
G36*
X314120Y38865D02*
X309166D01*
Y33912D01*
X310728D01*
X311606Y34028D01*
X312424Y34366D01*
X313126Y34905D01*
X313665Y35608D01*
X314004Y36426D01*
X314120Y37303D01*
Y38865D01*
D02*
G37*
G36*
X307566D02*
X302613D01*
Y37303D01*
X302728Y36426D01*
X303067Y35608D01*
X303606Y34905D01*
X304308Y34366D01*
X305126Y34028D01*
X306004Y33912D01*
X307566D01*
Y38865D01*
D02*
G37*
G36*
X37291Y38570D02*
X32422D01*
X32514Y37876D01*
X33090Y36483D01*
X34008Y35287D01*
X35204Y34370D01*
X36596Y33793D01*
X37291Y33702D01*
Y38570D01*
D02*
G37*
G36*
X43759D02*
X38891D01*
Y33702D01*
X39585Y33793D01*
X40978Y34370D01*
X42173Y35287D01*
X43091Y36483D01*
X43668Y37876D01*
X43759Y38570D01*
D02*
G37*
G36*
X104921Y44846D02*
X103453Y44653D01*
X102085Y44086D01*
X100910Y43185D01*
X100008Y42010D01*
X99442Y40641D01*
X99248Y39173D01*
X99442Y37705D01*
X100008Y36337D01*
X100910Y35162D01*
X102085Y34260D01*
X103453Y33694D01*
X104921Y33500D01*
X106389Y33694D01*
X107758Y34260D01*
X108933Y35162D01*
X109834Y36337D01*
X110401Y37705D01*
X110594Y39173D01*
X110401Y40641D01*
X109834Y42010D01*
X108933Y43185D01*
X107758Y44086D01*
X106389Y44653D01*
X104921Y44846D01*
D02*
G37*
G36*
X85236D02*
X83768Y44653D01*
X82400Y44086D01*
X81225Y43185D01*
X80323Y42010D01*
X79757Y40641D01*
X79563Y39173D01*
X79757Y37705D01*
X80323Y36337D01*
X81225Y35162D01*
X82400Y34260D01*
X83768Y33694D01*
X85236Y33500D01*
X86704Y33694D01*
X88073Y34260D01*
X89248Y35162D01*
X90149Y36337D01*
X90716Y37705D01*
X90909Y39173D01*
X90716Y40641D01*
X90149Y42010D01*
X89248Y43185D01*
X88073Y44086D01*
X86704Y44653D01*
X85236Y44846D01*
D02*
G37*
G36*
X71305Y38373D02*
X66351D01*
Y33420D01*
X67913D01*
X68791Y33535D01*
X69609Y33874D01*
X70311Y34413D01*
X70850Y35115D01*
X71189Y35933D01*
X71305Y36811D01*
Y38373D01*
D02*
G37*
G36*
X64751D02*
X59798D01*
Y36811D01*
X59913Y35933D01*
X60252Y35115D01*
X60791Y34413D01*
X61493Y33874D01*
X62311Y33535D01*
X63189Y33420D01*
X64751D01*
Y38373D01*
D02*
G37*
G36*
X141732Y36982D02*
X140740Y36852D01*
X139816Y36469D01*
X139022Y35860D01*
X138413Y35066D01*
X138030Y34142D01*
X137899Y33150D01*
X138030Y32158D01*
X138413Y31233D01*
X139022Y30439D01*
X139816Y29830D01*
X140740Y29447D01*
X141732Y29317D01*
X142724Y29447D01*
X143649Y29830D01*
X144442Y30439D01*
X145052Y31233D01*
X145434Y32158D01*
X145565Y33150D01*
X145434Y34142D01*
X145052Y35066D01*
X144442Y35860D01*
X143649Y36469D01*
X142724Y36852D01*
X141732Y36982D01*
D02*
G37*
G36*
X274311Y27234D02*
X273254Y27095D01*
X272269Y26687D01*
X271423Y26038D01*
X270823Y25256D01*
X270584Y25103D01*
X270215Y24910D01*
X269820Y24746D01*
X269397Y24610D01*
X269257Y24577D01*
X246275D01*
X246246Y24584D01*
X245861Y24704D01*
X245503Y24850D01*
X245171Y25020D01*
X245008Y25123D01*
X244443Y25860D01*
X243649Y26469D01*
X242724Y26852D01*
X241732Y26982D01*
X240740Y26852D01*
X239816Y26469D01*
X239022Y25860D01*
X238413Y25066D01*
X238030Y24142D01*
X237899Y23150D01*
X238030Y22158D01*
X238413Y21233D01*
X239022Y20439D01*
X239816Y19830D01*
X240740Y19447D01*
X241732Y19317D01*
X242724Y19447D01*
X243649Y19830D01*
X244443Y20439D01*
X245008Y21176D01*
X245171Y21279D01*
X245503Y21449D01*
X245861Y21595D01*
X246246Y21715D01*
X246275Y21722D01*
X269257D01*
X269397Y21689D01*
X269820Y21553D01*
X270215Y21389D01*
X270584Y21196D01*
X270823Y21043D01*
X271423Y20261D01*
X272269Y19612D01*
X273254Y19204D01*
X274311Y19065D01*
X275368Y19204D01*
X276353Y19612D01*
X277199Y20261D01*
X277848Y21107D01*
X278256Y22092D01*
X278396Y23150D01*
X278256Y24207D01*
X277848Y25192D01*
X277199Y26038D01*
X276353Y26687D01*
X275368Y27095D01*
X274311Y27234D01*
D02*
G37*
G36*
X241732Y16982D02*
X240740Y16852D01*
X239816Y16469D01*
X239022Y15860D01*
X238413Y15066D01*
X238030Y14142D01*
X237899Y13150D01*
X238030Y12158D01*
X238413Y11233D01*
X239022Y10439D01*
X239816Y9830D01*
X240740Y9447D01*
X241732Y9317D01*
X242724Y9447D01*
X243649Y9830D01*
X244443Y10439D01*
X245052Y11233D01*
X245434Y12158D01*
X245565Y13150D01*
X245434Y14142D01*
X245052Y15066D01*
X244443Y15860D01*
X243649Y16469D01*
X242724Y16852D01*
X241732Y16982D01*
D02*
G37*
G36*
X141732D02*
X140740Y16852D01*
X139816Y16469D01*
X139022Y15860D01*
X138413Y15066D01*
X138030Y14142D01*
X137899Y13150D01*
X138030Y12158D01*
X138413Y11233D01*
X139022Y10439D01*
X139816Y9830D01*
X140740Y9447D01*
X141732Y9317D01*
X142724Y9447D01*
X143649Y9830D01*
X144442Y10439D01*
X145052Y11233D01*
X145434Y12158D01*
X145565Y13150D01*
X145434Y14142D01*
X145052Y15066D01*
X144442Y15860D01*
X143649Y16469D01*
X142724Y16852D01*
X141732Y16982D01*
D02*
G37*
%LPD*%
G36*
X210128Y247732D02*
Y243447D01*
X209855Y243174D01*
X196323D01*
X195669Y242520D01*
Y234738D01*
X195984Y234408D01*
X196174Y234218D01*
X195113Y233157D01*
X194985Y233272D01*
X194587Y232874D01*
X188976Y232874D01*
X188014Y233836D01*
Y247266D01*
X188976Y248228D01*
X206594Y248327D01*
X209533D01*
X210128Y247732D01*
D02*
G37*
G36*
X261827Y227875D02*
X261812Y228015D01*
X261767Y228141D01*
X261692Y228251D01*
X261587Y228347D01*
X261452Y228429D01*
X261287Y228495D01*
X261092Y228547D01*
X260867Y228584D01*
X260612Y228606D01*
X260327Y228613D01*
Y230113D01*
X260612Y230120D01*
X260867Y230142D01*
X261092Y230179D01*
X261287Y230231D01*
X261452Y230297D01*
X261587Y230379D01*
X261692Y230475D01*
X261767Y230585D01*
X261812Y230711D01*
X261827Y230851D01*
Y227875D01*
D02*
G37*
G36*
X266023Y227872D02*
X265895Y227826D01*
X265783Y227751D01*
X265685Y227645D01*
X265603Y227509D01*
X265535Y227343D01*
X265483Y227146D01*
X265445Y226919D01*
X265423Y226662D01*
X265415Y226375D01*
X263915D01*
X263908Y226662D01*
X263885Y226919D01*
X263848Y227146D01*
X263795Y227343D01*
X263728Y227509D01*
X263645Y227645D01*
X263548Y227751D01*
X263435Y227826D01*
X263308Y227872D01*
X263165Y227887D01*
X266165D01*
X266023Y227872D01*
D02*
G37*
G36*
X265430Y215073D02*
X265546Y213947D01*
X265634Y213507D01*
X277359D01*
X278937Y211929D01*
Y205307D01*
X277362Y203732D01*
X262501D01*
X259746Y206487D01*
Y211116D01*
X262138Y213507D01*
X263697D01*
X263784Y213947D01*
X263857Y214493D01*
X263901Y215073D01*
X263915Y215688D01*
X265415D01*
X265430Y215073D01*
D02*
G37*
G36*
X270783Y236984D02*
X270773Y237079D01*
X270743Y237164D01*
X270692Y237239D01*
X270621Y237304D01*
X270530Y237359D01*
X270419Y237404D01*
X270287Y237439D01*
X270135Y237464D01*
X269963Y237479D01*
X269771Y237484D01*
Y238484D01*
X269963Y238489D01*
X270135Y238504D01*
X270287Y238529D01*
X270419Y238564D01*
X270530Y238609D01*
X270621Y238664D01*
X270692Y238729D01*
X270743Y238804D01*
X270773Y238889D01*
X270783Y238984D01*
Y236984D01*
D02*
G37*
G36*
X267501Y238889D02*
X267532Y238804D01*
X267582Y238729D01*
X267653Y238664D01*
X267744Y238609D01*
X267856Y238564D01*
X267987Y238529D01*
X268139Y238504D01*
X268311Y238489D01*
X268503Y238484D01*
Y237484D01*
X268311Y237479D01*
X268139Y237464D01*
X267987Y237439D01*
X267856Y237404D01*
X267744Y237359D01*
X267653Y237304D01*
X267582Y237239D01*
X267532Y237164D01*
X267501Y237079D01*
X267491Y236984D01*
Y238984D01*
X267501Y238889D01*
D02*
G37*
G36*
X322158Y235122D02*
X322148Y235217D01*
X322118Y235302D01*
X322068Y235377D01*
X321998Y235442D01*
X321908Y235497D01*
X321798Y235542D01*
X321668Y235577D01*
X321518Y235602D01*
X321348Y235617D01*
X321158Y235622D01*
Y236622D01*
X321348Y236627D01*
X321518Y236642D01*
X321668Y236667D01*
X321798Y236702D01*
X321908Y236747D01*
X321998Y236802D01*
X322068Y236867D01*
X322118Y236942D01*
X322148Y237027D01*
X322158Y237122D01*
Y235122D01*
D02*
G37*
G36*
X319585Y237027D02*
X319615Y236942D01*
X319665Y236867D01*
X319735Y236802D01*
X319825Y236747D01*
X319935Y236702D01*
X320065Y236667D01*
X320215Y236642D01*
X320385Y236627D01*
X320575Y236622D01*
Y235622D01*
X320385Y235617D01*
X320215Y235602D01*
X320065Y235577D01*
X319935Y235542D01*
X319825Y235497D01*
X319735Y235442D01*
X319665Y235377D01*
X319615Y235302D01*
X319585Y235217D01*
X319575Y235122D01*
Y237122D01*
X319585Y237027D01*
D02*
G37*
G36*
X328126Y228774D02*
X328057Y228841D01*
X327968Y228901D01*
X327858Y228954D01*
X327727Y228999D01*
X327575Y229038D01*
X327403Y229070D01*
X327210Y229094D01*
X326762Y229122D01*
X326507Y229126D01*
X326600Y230126D01*
X326854Y230129D01*
X327500Y230173D01*
X327676Y230200D01*
X327833Y230233D01*
X327970Y230271D01*
X328088Y230315D01*
X328185Y230365D01*
X328264Y230422D01*
X328126Y228774D01*
D02*
G37*
G36*
X325281Y230531D02*
X325312Y230446D01*
X325362Y230371D01*
X325433Y230306D01*
X325524Y230251D01*
X325636Y230206D01*
X325767Y230171D01*
X325919Y230146D01*
X326091Y230131D01*
X326283Y230126D01*
Y229126D01*
X326091Y229121D01*
X325919Y229106D01*
X325767Y229081D01*
X325636Y229046D01*
X325524Y229001D01*
X325433Y228946D01*
X325362Y228881D01*
X325312Y228806D01*
X325281Y228721D01*
X325271Y228626D01*
Y230626D01*
X325281Y230531D01*
D02*
G37*
G36*
X129851Y225025D02*
X129830Y224976D01*
X129811Y224906D01*
X129795Y224814D01*
X129781Y224700D01*
X129755Y224226D01*
X129750Y223801D01*
X128750D01*
X128749Y224025D01*
X128689Y224906D01*
X128670Y224976D01*
X128649Y225025D01*
X128625Y225051D01*
X129875D01*
X129851Y225025D01*
D02*
G37*
G36*
X134374Y220230D02*
X134364Y220325D01*
X134334Y220410D01*
X134283Y220485D01*
X134213Y220550D01*
X134121Y220605D01*
X134010Y220650D01*
X133879Y220685D01*
X133727Y220710D01*
X133555Y220725D01*
X133362Y220730D01*
Y221730D01*
X133555Y221735D01*
X133727Y221750D01*
X133879Y221775D01*
X134010Y221810D01*
X134121Y221855D01*
X134213Y221910D01*
X134283Y221975D01*
X134334Y222050D01*
X134364Y222135D01*
X134374Y222230D01*
Y220230D01*
D02*
G37*
G36*
X143326Y219669D02*
X143241Y219639D01*
X143166Y219588D01*
X143101Y219517D01*
X143046Y219426D01*
X143001Y219315D01*
X142966Y219183D01*
X142941Y219031D01*
X142926Y218859D01*
X142921Y218667D01*
X141921D01*
X141916Y218859D01*
X141901Y219031D01*
X141876Y219183D01*
X141841Y219315D01*
X141796Y219426D01*
X141741Y219517D01*
X141676Y219588D01*
X141601Y219639D01*
X141516Y219669D01*
X141421Y219679D01*
X143421D01*
X143326Y219669D01*
D02*
G37*
G36*
X142926Y217626D02*
X142941Y217454D01*
X142966Y217303D01*
X143001Y217171D01*
X143046Y217060D01*
X143101Y216969D01*
X143166Y216898D01*
X143241Y216847D01*
X143326Y216817D01*
X143421Y216807D01*
X141421D01*
X141516Y216817D01*
X141601Y216847D01*
X141676Y216898D01*
X141741Y216969D01*
X141796Y217060D01*
X141841Y217171D01*
X141876Y217303D01*
X141901Y217454D01*
X141916Y217626D01*
X141921Y217819D01*
X142921D01*
X142926Y217626D01*
D02*
G37*
G36*
X396750Y211535D02*
X396780Y211450D01*
X396830Y211375D01*
X396900Y211310D01*
X396990Y211255D01*
X397100Y211210D01*
X397230Y211175D01*
X397380Y211150D01*
X397550Y211135D01*
X397740Y211130D01*
Y210130D01*
X397550Y210125D01*
X397380Y210110D01*
X397230Y210085D01*
X397100Y210050D01*
X396990Y210005D01*
X396900Y209950D01*
X396830Y209885D01*
X396780Y209810D01*
X396750Y209725D01*
X396740Y209630D01*
Y211630D01*
X396750Y211535D01*
D02*
G37*
G36*
X412965Y207323D02*
X412399Y207856D01*
X411804Y208333D01*
X411180Y208754D01*
X410525Y209119D01*
X409841Y209428D01*
X409126Y209681D01*
X408382Y209877D01*
X407609Y210018D01*
X406805Y210102D01*
X405971Y210130D01*
Y211130D01*
X406805Y211158D01*
X407609Y211242D01*
X408382Y211383D01*
X409126Y211579D01*
X409841Y211832D01*
X410525Y212140D01*
X411180Y212505D01*
X411804Y212927D01*
X412399Y213404D01*
X412965Y213937D01*
Y207323D01*
D02*
G37*
G36*
X395984Y202868D02*
X395899Y202838D01*
X395824Y202787D01*
X395759Y202716D01*
X395704Y202625D01*
X395659Y202514D01*
X395624Y202382D01*
X395599Y202231D01*
X395584Y202059D01*
X395579Y201866D01*
X394579D01*
X394574Y202059D01*
X394559Y202231D01*
X394534Y202382D01*
X394499Y202514D01*
X394454Y202625D01*
X394399Y202716D01*
X394334Y202787D01*
X394259Y202838D01*
X394174Y202868D01*
X394079Y202878D01*
X396079D01*
X395984Y202868D01*
D02*
G37*
G36*
X395584Y200264D02*
X395599Y200092D01*
X395624Y199940D01*
X395659Y199809D01*
X395704Y199697D01*
X395759Y199606D01*
X395824Y199536D01*
X395899Y199485D01*
X395984Y199455D01*
X396079Y199444D01*
X394079D01*
X394174Y199455D01*
X394259Y199485D01*
X394334Y199536D01*
X394399Y199606D01*
X394454Y199697D01*
X394499Y199809D01*
X394534Y199940D01*
X394559Y200092D01*
X394574Y200264D01*
X394579Y200457D01*
X395579D01*
X395584Y200264D01*
D02*
G37*
G36*
X393429Y196795D02*
X393419Y196890D01*
X393389Y196975D01*
X393338Y197050D01*
X393268Y197115D01*
X393177Y197170D01*
X393065Y197215D01*
X392934Y197250D01*
X392782Y197275D01*
X392610Y197290D01*
X392418Y197295D01*
Y198295D01*
X392610Y198300D01*
X392782Y198315D01*
X392934Y198340D01*
X393065Y198375D01*
X393177Y198420D01*
X393268Y198475D01*
X393338Y198540D01*
X393389Y198615D01*
X393419Y198700D01*
X393429Y198795D01*
Y196795D01*
D02*
G37*
G36*
X244116Y94889D02*
X244454Y94629D01*
X244817Y94399D01*
X245206Y94200D01*
X245620Y94032D01*
X246059Y93894D01*
X246523Y93787D01*
X247013Y93711D01*
X247528Y93665D01*
X248069Y93650D01*
Y92650D01*
X247528Y92634D01*
X247013Y92588D01*
X246523Y92512D01*
X246059Y92405D01*
X245620Y92267D01*
X245206Y92099D01*
X244817Y91900D01*
X244454Y91670D01*
X244116Y91410D01*
X243803Y91120D01*
Y95180D01*
X244116Y94889D01*
D02*
G37*
G36*
X88897Y245967D02*
X88991Y245912D01*
X89105Y245863D01*
X89240Y245820D01*
X89394Y245784D01*
X89569Y245755D01*
X89978Y245715D01*
X90212Y245706D01*
X90467Y245702D01*
Y244702D01*
X90212Y244699D01*
X89569Y244650D01*
X89394Y244621D01*
X89240Y244585D01*
X89105Y244542D01*
X88991Y244493D01*
X88897Y244438D01*
X88823Y244376D01*
Y246029D01*
X88897Y245967D01*
D02*
G37*
G36*
X104243Y176916D02*
X104188Y176821D01*
X104139Y176707D01*
X104096Y176573D01*
X104060Y176418D01*
X104031Y176244D01*
X103992Y175835D01*
X103982Y175600D01*
X103979Y175346D01*
X102979D01*
X102975Y175600D01*
X102926Y176244D01*
X102897Y176418D01*
X102861Y176573D01*
X102818Y176707D01*
X102769Y176821D01*
X102714Y176916D01*
X102652Y176990D01*
X104305D01*
X104243Y176916D01*
D02*
G37*
G36*
X139661Y61120D02*
X139349Y61410D01*
X139011Y61670D01*
X138647Y61900D01*
X138259Y62099D01*
X137845Y62267D01*
X137406Y62405D01*
X136941Y62512D01*
X136451Y62588D01*
X135936Y62634D01*
X135396Y62650D01*
Y63650D01*
X135936Y63665D01*
X136451Y63711D01*
X136941Y63787D01*
X137406Y63894D01*
X137845Y64032D01*
X138259Y64200D01*
X138647Y64399D01*
X139011Y64629D01*
X139349Y64889D01*
X139661Y65180D01*
Y61120D01*
D02*
G37*
G36*
Y51120D02*
X139349Y51410D01*
X139011Y51670D01*
X138647Y51900D01*
X138259Y52099D01*
X137845Y52267D01*
X137406Y52405D01*
X136941Y52512D01*
X136451Y52588D01*
X135936Y52634D01*
X135396Y52650D01*
Y53650D01*
X135936Y53665D01*
X136451Y53711D01*
X136941Y53787D01*
X137406Y53894D01*
X137845Y54032D01*
X138259Y54200D01*
X138647Y54399D01*
X139011Y54629D01*
X139349Y54889D01*
X139661Y55180D01*
Y51120D01*
D02*
G37*
G36*
X99342Y188839D02*
X99268Y188901D01*
X99173Y188956D01*
X99059Y189005D01*
X98925Y189048D01*
X98770Y189084D01*
X98596Y189113D01*
X98187Y189152D01*
X97952Y189162D01*
X97698Y189165D01*
Y190165D01*
X97952Y190169D01*
X98596Y190218D01*
X98770Y190247D01*
X98925Y190283D01*
X99059Y190325D01*
X99173Y190375D01*
X99268Y190430D01*
X99342Y190492D01*
Y188839D01*
D02*
G37*
G36*
X79318Y176547D02*
X79333Y176375D01*
X79358Y176223D01*
X79393Y176091D01*
X79438Y175980D01*
X79493Y175889D01*
X79558Y175818D01*
X79633Y175768D01*
X79718Y175737D01*
X79813Y175727D01*
X77813D01*
X77908Y175737D01*
X77993Y175768D01*
X78068Y175818D01*
X78133Y175889D01*
X78188Y175980D01*
X78233Y176091D01*
X78268Y176223D01*
X78293Y176375D01*
X78308Y176547D01*
X78313Y176739D01*
X79313D01*
X79318Y176547D01*
D02*
G37*
G36*
X63482Y175279D02*
X63472Y175374D01*
X63441Y175460D01*
X63392Y175534D01*
X63322Y175600D01*
X63232Y175654D01*
X63122Y175699D01*
X62991Y175734D01*
X62841Y175759D01*
X62672Y175775D01*
X62482Y175779D01*
Y176779D01*
X62672Y176785D01*
X62841Y176799D01*
X62991Y176824D01*
X63122Y176859D01*
X63232Y176904D01*
X63322Y176960D01*
X63392Y177024D01*
X63441Y177100D01*
X63472Y177184D01*
X63482Y177279D01*
Y175279D01*
D02*
G37*
G36*
X60321Y177184D02*
X60351Y177100D01*
X60402Y177024D01*
X60473Y176960D01*
X60564Y176904D01*
X60675Y176859D01*
X60807Y176824D01*
X60958Y176799D01*
X61130Y176785D01*
X61323Y176779D01*
Y175779D01*
X61130Y175775D01*
X60958Y175759D01*
X60807Y175734D01*
X60675Y175699D01*
X60564Y175654D01*
X60473Y175600D01*
X60402Y175534D01*
X60351Y175460D01*
X60321Y175374D01*
X60311Y175279D01*
Y177279D01*
X60321Y177184D01*
D02*
G37*
G36*
X126857Y176589D02*
X126772Y176558D01*
X126697Y176508D01*
X126632Y176437D01*
X126577Y176346D01*
X126532Y176234D01*
X126497Y176103D01*
X126472Y175951D01*
X126457Y175779D01*
X126452Y175587D01*
X125452D01*
X125447Y175779D01*
X125432Y175951D01*
X125407Y176103D01*
X125372Y176234D01*
X125327Y176346D01*
X125272Y176437D01*
X125207Y176508D01*
X125132Y176558D01*
X125047Y176589D01*
X124952Y176599D01*
X126952D01*
X126857Y176589D01*
D02*
G37*
G36*
X126457Y175062D02*
X126472Y174890D01*
X126497Y174738D01*
X126532Y174606D01*
X126577Y174495D01*
X126632Y174404D01*
X126697Y174333D01*
X126772Y174282D01*
X126857Y174252D01*
X126952Y174242D01*
X124952D01*
X125047Y174252D01*
X125132Y174282D01*
X125207Y174333D01*
X125272Y174404D01*
X125327Y174495D01*
X125372Y174606D01*
X125407Y174738D01*
X125432Y174890D01*
X125447Y175062D01*
X125452Y175254D01*
X126452D01*
X126457Y175062D01*
D02*
G37*
G36*
X94228Y183542D02*
X94181Y183442D01*
X94140Y183323D01*
X94104Y183185D01*
X94073Y183028D01*
X94029Y182655D01*
X94016Y182439D01*
X94004Y181949D01*
X93005Y181804D01*
X93001Y182059D01*
X92946Y182698D01*
X92914Y182869D01*
X92874Y183019D01*
X92826Y183147D01*
X92772Y183255D01*
X92710Y183341D01*
X92641Y183406D01*
X94280Y183622D01*
X94228Y183542D01*
D02*
G37*
G36*
X74158Y151540D02*
X74147Y151635D01*
X74117Y151720D01*
X74067Y151795D01*
X73996Y151860D01*
X73905Y151915D01*
X73793Y151960D01*
X73662Y151995D01*
X73510Y152020D01*
X73338Y152035D01*
X73146Y152040D01*
Y153040D01*
X73338Y153045D01*
X73510Y153060D01*
X73662Y153085D01*
X73793Y153120D01*
X73905Y153165D01*
X73996Y153220D01*
X74067Y153285D01*
X74117Y153360D01*
X74147Y153445D01*
X74158Y153540D01*
Y151540D01*
D02*
G37*
G36*
X72125Y153445D02*
X72155Y153360D01*
X72206Y153285D01*
X72276Y153220D01*
X72368Y153165D01*
X72479Y153120D01*
X72610Y153085D01*
X72762Y153060D01*
X72934Y153045D01*
X73127Y153040D01*
Y152040D01*
X72934Y152035D01*
X72762Y152020D01*
X72610Y151995D01*
X72479Y151960D01*
X72368Y151915D01*
X72276Y151860D01*
X72206Y151795D01*
X72155Y151720D01*
X72125Y151635D01*
X72114Y151540D01*
Y153540D01*
X72125Y153445D01*
D02*
G37*
G36*
X88630Y151375D02*
X88556Y151437D01*
X88461Y151493D01*
X88347Y151542D01*
X88213Y151584D01*
X88059Y151620D01*
X87884Y151650D01*
X87475Y151689D01*
X87240Y151699D01*
X86986Y151702D01*
Y152702D01*
X87240Y152705D01*
X87884Y152754D01*
X88059Y152784D01*
X88213Y152820D01*
X88347Y152862D01*
X88461Y152911D01*
X88556Y152967D01*
X88630Y153029D01*
Y151375D01*
D02*
G37*
G36*
X84750Y153107D02*
X84780Y153022D01*
X84831Y152947D01*
X84901Y152882D01*
X84992Y152827D01*
X85104Y152782D01*
X85235Y152747D01*
X85387Y152722D01*
X85559Y152707D01*
X85751Y152702D01*
Y151702D01*
X85559Y151697D01*
X85387Y151682D01*
X85235Y151657D01*
X85104Y151622D01*
X84992Y151577D01*
X84901Y151522D01*
X84831Y151457D01*
X84780Y151382D01*
X84750Y151297D01*
X84740Y151202D01*
Y153202D01*
X84750Y153107D01*
D02*
G37*
G36*
X84094Y149776D02*
X84009Y149746D01*
X83934Y149696D01*
X83869Y149626D01*
X83814Y149536D01*
X83769Y149426D01*
X83734Y149296D01*
X83709Y149146D01*
X83694Y148976D01*
X83689Y148786D01*
X82689D01*
X82684Y148976D01*
X82669Y149146D01*
X82644Y149296D01*
X82609Y149426D01*
X82564Y149536D01*
X82509Y149626D01*
X82444Y149696D01*
X82369Y149746D01*
X82284Y149776D01*
X82189Y149786D01*
X84189D01*
X84094Y149776D01*
D02*
G37*
G36*
X77125D02*
X77040Y149746D01*
X76965Y149696D01*
X76900Y149626D01*
X76845Y149536D01*
X76800Y149426D01*
X76765Y149296D01*
X76740Y149146D01*
X76725Y148976D01*
X76720Y148786D01*
X75720D01*
X75715Y148976D01*
X75700Y149146D01*
X75675Y149296D01*
X75640Y149426D01*
X75595Y149536D01*
X75540Y149626D01*
X75475Y149696D01*
X75400Y149746D01*
X75315Y149776D01*
X75220Y149786D01*
X77220D01*
X77125Y149776D01*
D02*
G37*
G36*
X76725Y146343D02*
X76740Y146167D01*
X76765Y146013D01*
X76800Y145880D01*
X76845Y145768D01*
X76900Y145677D01*
X76965Y145608D01*
X77040Y145560D01*
X77125Y145533D01*
X77220Y145528D01*
X75225Y145426D01*
X75319Y145442D01*
X75403Y145479D01*
X75477Y145537D01*
X75542Y145616D01*
X75596Y145717D01*
X75641Y145839D01*
X75675Y145982D01*
X75700Y146147D01*
X75715Y146333D01*
X75720Y146540D01*
X76720D01*
X76725Y146343D01*
D02*
G37*
G36*
X85741Y145599D02*
X85756Y145427D01*
X85781Y145275D01*
X85816Y145143D01*
X85861Y145032D01*
X85916Y144941D01*
X85981Y144870D01*
X86056Y144820D01*
X86141Y144789D01*
X86236Y144779D01*
X84236D01*
X84331Y144789D01*
X84416Y144820D01*
X84491Y144870D01*
X84556Y144941D01*
X84611Y145032D01*
X84656Y145143D01*
X84691Y145275D01*
X84716Y145427D01*
X84731Y145599D01*
X84736Y145791D01*
X85736D01*
X85741Y145599D01*
D02*
G37*
G36*
X84067Y139264D02*
X84057Y139303D01*
X84027Y139338D01*
X83977Y139369D01*
X83907Y139396D01*
X83817Y139419D01*
X83707Y139437D01*
X83577Y139452D01*
X83257Y139468D01*
X83067Y139471D01*
Y140471D01*
X83257Y140475D01*
X83427Y140490D01*
X83577Y140515D01*
X83707Y140550D01*
X83817Y140595D01*
X83907Y140650D01*
X83977Y140716D01*
X84027Y140790D01*
X84057Y140875D01*
X84067Y140971D01*
Y139264D01*
D02*
G37*
G36*
X79278Y140875D02*
X79308Y140790D01*
X79359Y140716D01*
X79430Y140650D01*
X79521Y140595D01*
X79632Y140550D01*
X79764Y140515D01*
X79915Y140490D01*
X80088Y140475D01*
X80280Y140471D01*
Y139471D01*
X80088Y139465D01*
X79915Y139451D01*
X79764Y139426D01*
X79632Y139391D01*
X79521Y139346D01*
X79430Y139290D01*
X79359Y139225D01*
X79308Y139151D01*
X79278Y139066D01*
X79268Y138970D01*
Y140971D01*
X79278Y140875D01*
D02*
G37*
G36*
X139333Y21520D02*
X139162Y21735D01*
X138956Y21927D01*
X138715Y22096D01*
X138438Y22243D01*
X138126Y22367D01*
X137779Y22469D01*
X137397Y22548D01*
X136979Y22604D01*
X136526Y22638D01*
X136039Y22650D01*
Y23650D01*
X136526Y23661D01*
X137397Y23751D01*
X137779Y23830D01*
X138126Y23932D01*
X138438Y24056D01*
X138715Y24203D01*
X138956Y24373D01*
X139162Y24565D01*
X139333Y24779D01*
Y21520D01*
D02*
G37*
G36*
X58681Y167238D02*
X58596Y167208D01*
X58521Y167157D01*
X58456Y167087D01*
X58401Y166995D01*
X58356Y166884D01*
X58321Y166753D01*
X58296Y166601D01*
X58281Y166429D01*
X58276Y166236D01*
X57276D01*
X57271Y166429D01*
X57256Y166601D01*
X57231Y166753D01*
X57196Y166884D01*
X57151Y166995D01*
X57096Y167087D01*
X57031Y167157D01*
X56956Y167208D01*
X56871Y167238D01*
X56776Y167248D01*
X58776D01*
X58681Y167238D01*
D02*
G37*
G36*
X58116Y164496D02*
X57934Y164310D01*
X57506Y163824D01*
X57402Y163686D01*
X57319Y163560D01*
X57255Y163446D01*
X57211Y163344D01*
X57187Y163254D01*
X57182Y163176D01*
X56089Y164269D01*
X56167Y164273D01*
X56257Y164298D01*
X56359Y164342D01*
X56473Y164406D01*
X56599Y164489D01*
X56737Y164592D01*
X57049Y164858D01*
X57409Y165203D01*
X58116Y164496D01*
D02*
G37*
G36*
X164192Y211409D02*
X164022Y211349D01*
X163872Y211249D01*
X163742Y211109D01*
X163632Y210929D01*
X163542Y210709D01*
X163472Y210449D01*
X163422Y210149D01*
X163392Y209809D01*
X163382Y209429D01*
X161382D01*
X161372Y209809D01*
X161342Y210149D01*
X161292Y210449D01*
X161222Y210709D01*
X161132Y210929D01*
X161022Y211109D01*
X160892Y211249D01*
X160742Y211349D01*
X160572Y211409D01*
X160382Y211429D01*
X164382D01*
X164192Y211409D01*
D02*
G37*
G36*
X126827Y162880D02*
X126742Y162849D01*
X126667Y162799D01*
X126602Y162728D01*
X126547Y162637D01*
X126502Y162526D01*
X126467Y162394D01*
X126442Y162242D01*
X126427Y162070D01*
X126422Y161878D01*
X125422D01*
X125417Y162070D01*
X125402Y162242D01*
X125377Y162394D01*
X125342Y162526D01*
X125297Y162637D01*
X125242Y162728D01*
X125177Y162799D01*
X125102Y162849D01*
X125017Y162880D01*
X124922Y162890D01*
X126922D01*
X126827Y162880D01*
D02*
G37*
G36*
X140059Y158858D02*
X145866D01*
X147244Y157480D01*
X147244Y150197D01*
X145571Y148524D01*
X124114Y148524D01*
X109252D01*
X107382Y150394D01*
Y157382D01*
X109055Y159055D01*
X140059Y158858D01*
D02*
G37*
G36*
X281323Y150969D02*
X281313Y151064D01*
X281283Y151148D01*
X281232Y151224D01*
X281161Y151288D01*
X281070Y151344D01*
X280959Y151389D01*
X280827Y151424D01*
X280676Y151449D01*
X280504Y151463D01*
X280311Y151469D01*
Y152469D01*
X280504Y152473D01*
X280676Y152489D01*
X280827Y152514D01*
X280959Y152549D01*
X281070Y152594D01*
X281161Y152648D01*
X281232Y152714D01*
X281283Y152788D01*
X281313Y152874D01*
X281323Y152969D01*
Y150969D01*
D02*
G37*
G36*
X278445Y155787D02*
Y150197D01*
X277067Y148819D01*
X238863D01*
X236516Y150998D01*
Y155237D01*
X238352Y157074D01*
X277158D01*
X278445Y155787D01*
D02*
G37*
G36*
X400293Y147362D02*
X400323Y147277D01*
X400373Y147202D01*
X400443Y147137D01*
X400533Y147082D01*
X400643Y147037D01*
X400773Y147002D01*
X400923Y146977D01*
X401093Y146962D01*
X401283Y146957D01*
Y145957D01*
X401093Y145952D01*
X400923Y145937D01*
X400773Y145912D01*
X400643Y145877D01*
X400533Y145832D01*
X400443Y145777D01*
X400373Y145712D01*
X400323Y145637D01*
X400293Y145552D01*
X400283Y145457D01*
Y147457D01*
X400293Y147362D01*
D02*
G37*
G36*
X412768Y143150D02*
X412203Y143683D01*
X411608Y144160D01*
X410983Y144581D01*
X410328Y144946D01*
X409644Y145255D01*
X408929Y145508D01*
X408185Y145704D01*
X407411Y145844D01*
X406608Y145929D01*
X405774Y145957D01*
Y146957D01*
X406608Y146985D01*
X407411Y147069D01*
X408185Y147209D01*
X408929Y147406D01*
X409644Y147658D01*
X410328Y147967D01*
X410983Y148332D01*
X411608Y148753D01*
X412203Y149230D01*
X412768Y149764D01*
Y143150D01*
D02*
G37*
G36*
X398641Y139778D02*
X398556Y139747D01*
X398481Y139697D01*
X398416Y139626D01*
X398361Y139535D01*
X398316Y139424D01*
X398281Y139292D01*
X398256Y139140D01*
X398241Y138968D01*
X398236Y138776D01*
X397236D01*
X397231Y138968D01*
X397216Y139140D01*
X397191Y139292D01*
X397156Y139424D01*
X397111Y139535D01*
X397056Y139626D01*
X396991Y139697D01*
X396916Y139747D01*
X396831Y139778D01*
X396736Y139788D01*
X398736D01*
X398641Y139778D01*
D02*
G37*
G36*
X398241Y136623D02*
X398256Y136450D01*
X398281Y136299D01*
X398316Y136167D01*
X398361Y136056D01*
X398416Y135965D01*
X398481Y135894D01*
X398556Y135843D01*
X398641Y135813D01*
X398736Y135803D01*
X396736D01*
X396831Y135813D01*
X396916Y135843D01*
X396991Y135894D01*
X397056Y135965D01*
X397111Y136056D01*
X397156Y136167D01*
X397191Y136299D01*
X397216Y136450D01*
X397231Y136623D01*
X397236Y136815D01*
X398236D01*
X398241Y136623D01*
D02*
G37*
G36*
X287327Y144374D02*
X287317Y144469D01*
X287287Y144554D01*
X287236Y144629D01*
X287165Y144694D01*
X287074Y144749D01*
X286963Y144794D01*
X286831Y144829D01*
X286680Y144854D01*
X286507Y144869D01*
X286315Y144874D01*
Y145874D01*
X286507Y145879D01*
X286680Y145894D01*
X286831Y145919D01*
X286963Y145954D01*
X287074Y145999D01*
X287165Y146054D01*
X287236Y146119D01*
X287287Y146194D01*
X287317Y146279D01*
X287327Y146374D01*
Y144374D01*
D02*
G37*
G36*
X284447Y146279D02*
X284477Y146194D01*
X284527Y146119D01*
X284597Y146054D01*
X284687Y145999D01*
X284797Y145954D01*
X284927Y145919D01*
X285077Y145894D01*
X285247Y145879D01*
X285437Y145874D01*
Y144874D01*
X285247Y144869D01*
X285077Y144854D01*
X284927Y144829D01*
X284797Y144794D01*
X284687Y144749D01*
X284597Y144694D01*
X284527Y144629D01*
X284477Y144554D01*
X284447Y144469D01*
X284437Y144374D01*
Y146374D01*
X284447Y146279D01*
D02*
G37*
G36*
X174263Y211970D02*
X173973Y211597D01*
X173717Y211198D01*
X173496Y210773D01*
X173308Y210322D01*
X173155Y209845D01*
X173035Y209342D01*
X172950Y208813D01*
X172899Y208259D01*
X172882Y207678D01*
X171882D01*
X171865Y208259D01*
X171814Y208813D01*
X171728Y209342D01*
X171609Y209845D01*
X171456Y210322D01*
X171268Y210773D01*
X171047Y211198D01*
X170791Y211597D01*
X170501Y211970D01*
X170177Y212318D01*
X174587D01*
X174263Y211970D01*
D02*
G37*
G36*
X144116Y134889D02*
X144454Y134629D01*
X144817Y134399D01*
X145206Y134200D01*
X145619Y134032D01*
X146059Y133894D01*
X146523Y133787D01*
X147013Y133711D01*
X147528Y133665D01*
X148069Y133650D01*
Y132650D01*
X147528Y132634D01*
X147013Y132588D01*
X146523Y132512D01*
X146059Y132405D01*
X145619Y132267D01*
X145206Y132099D01*
X144817Y131900D01*
X144454Y131670D01*
X144116Y131410D01*
X143803Y131120D01*
Y135180D01*
X144116Y134889D01*
D02*
G37*
G36*
X204263Y211970D02*
X203973Y211597D01*
X203717Y211198D01*
X203496Y210773D01*
X203308Y210322D01*
X203155Y209845D01*
X203035Y209342D01*
X202950Y208813D01*
X202899Y208259D01*
X202882Y207678D01*
X201882D01*
X201865Y208259D01*
X201814Y208813D01*
X201728Y209342D01*
X201609Y209845D01*
X201456Y210322D01*
X201268Y210773D01*
X201047Y211198D01*
X200791Y211597D01*
X200501Y211970D01*
X200177Y212318D01*
X204587D01*
X204263Y211970D01*
D02*
G37*
G36*
X239661Y131120D02*
X239349Y131410D01*
X239011Y131670D01*
X238648Y131900D01*
X238259Y132099D01*
X237845Y132267D01*
X237406Y132405D01*
X236941Y132512D01*
X236451Y132588D01*
X235936Y132634D01*
X235396Y132650D01*
Y133650D01*
X235936Y133665D01*
X236451Y133711D01*
X236941Y133787D01*
X237406Y133894D01*
X237845Y134032D01*
X238259Y134200D01*
X238648Y134399D01*
X239011Y134629D01*
X239349Y134889D01*
X239661Y135180D01*
Y131120D01*
D02*
G37*
G36*
X404972Y127579D02*
X405040Y127515D01*
X405120Y127458D01*
X405212Y127408D01*
X405316Y127366D01*
X405432Y127332D01*
X405560Y127306D01*
X405700Y127287D01*
X405851Y127275D01*
X406014Y127272D01*
Y126272D01*
X405851Y126268D01*
X405560Y126237D01*
X405432Y126211D01*
X405316Y126177D01*
X405212Y126135D01*
X405120Y126086D01*
X405040Y126029D01*
X404972Y125964D01*
X404915Y125892D01*
Y127651D01*
X404972Y127579D01*
D02*
G37*
G36*
X403747Y125892D02*
X403690Y125964D01*
X403621Y126029D01*
X403541Y126086D01*
X403449Y126135D01*
X403345Y126177D01*
X403229Y126211D01*
X403101Y126237D01*
X402962Y126257D01*
X402810Y126268D01*
X402647Y126272D01*
Y127272D01*
X402810Y127275D01*
X403101Y127306D01*
X403229Y127332D01*
X403345Y127366D01*
X403449Y127408D01*
X403541Y127458D01*
X403621Y127515D01*
X403690Y127579D01*
X403747Y127651D01*
Y125892D01*
D02*
G37*
G36*
X411430Y125772D02*
X411420Y125867D01*
X411389Y125952D01*
X411339Y126027D01*
X411268Y126092D01*
X411177Y126147D01*
X411065Y126192D01*
X410934Y126227D01*
X410782Y126252D01*
X410610Y126267D01*
X410418Y126272D01*
Y127272D01*
X410610Y127277D01*
X410782Y127292D01*
X410934Y127317D01*
X411065Y127352D01*
X411177Y127397D01*
X411268Y127452D01*
X411339Y127517D01*
X411389Y127592D01*
X411420Y127677D01*
X411430Y127772D01*
Y125772D01*
D02*
G37*
G36*
X400293Y127677D02*
X400323Y127592D01*
X400373Y127517D01*
X400443Y127452D01*
X400533Y127397D01*
X400643Y127352D01*
X400773Y127317D01*
X400923Y127292D01*
X401093Y127277D01*
X401283Y127272D01*
Y126272D01*
X401093Y126267D01*
X400923Y126252D01*
X400773Y126227D01*
X400643Y126192D01*
X400533Y126147D01*
X400443Y126092D01*
X400373Y126027D01*
X400323Y125952D01*
X400293Y125867D01*
X400283Y125772D01*
Y127772D01*
X400293Y127677D01*
D02*
G37*
G36*
X395201Y125476D02*
X395191Y125571D01*
X395161Y125656D01*
X395110Y125731D01*
X395039Y125796D01*
X394948Y125851D01*
X394837Y125896D01*
X394705Y125931D01*
X394553Y125956D01*
X394381Y125971D01*
X394189Y125976D01*
Y126976D01*
X394381Y126981D01*
X394553Y126996D01*
X394705Y127021D01*
X394837Y127056D01*
X394948Y127101D01*
X395039Y127156D01*
X395110Y127221D01*
X395161Y127296D01*
X395191Y127381D01*
X395201Y127476D01*
Y125476D01*
D02*
G37*
G36*
X387203Y127381D02*
X387233Y127296D01*
X387283Y127221D01*
X387353Y127156D01*
X387443Y127101D01*
X387553Y127056D01*
X387683Y127021D01*
X387833Y126996D01*
X388003Y126981D01*
X388193Y126976D01*
Y125976D01*
X388003Y125971D01*
X387833Y125956D01*
X387683Y125931D01*
X387553Y125896D01*
X387443Y125851D01*
X387353Y125796D01*
X387283Y125731D01*
X387233Y125656D01*
X387203Y125571D01*
X387193Y125476D01*
Y127476D01*
X387203Y127381D01*
D02*
G37*
G36*
X389743Y119276D02*
X389733Y119371D01*
X389702Y119456D01*
X389652Y119531D01*
X389581Y119596D01*
X389490Y119651D01*
X389379Y119696D01*
X389247Y119731D01*
X389095Y119756D01*
X388923Y119771D01*
X388731Y119776D01*
Y120776D01*
X388923Y120781D01*
X389095Y120796D01*
X389247Y120821D01*
X389379Y120856D01*
X389490Y120901D01*
X389581Y120956D01*
X389652Y121021D01*
X389702Y121096D01*
X389733Y121181D01*
X389743Y121276D01*
Y119276D01*
D02*
G37*
G36*
X387203Y121181D02*
X387233Y121096D01*
X387283Y121021D01*
X387353Y120956D01*
X387443Y120901D01*
X387553Y120856D01*
X387683Y120821D01*
X387833Y120796D01*
X388003Y120781D01*
X388193Y120776D01*
Y119776D01*
X388003Y119771D01*
X387833Y119756D01*
X387683Y119731D01*
X387553Y119696D01*
X387443Y119651D01*
X387353Y119596D01*
X387283Y119531D01*
X387233Y119456D01*
X387203Y119371D01*
X387193Y119276D01*
Y121276D01*
X387203Y121181D01*
D02*
G37*
G36*
X383882Y119276D02*
X383872Y119371D01*
X383842Y119456D01*
X383791Y119531D01*
X383720Y119596D01*
X383629Y119651D01*
X383518Y119696D01*
X383386Y119731D01*
X383235Y119756D01*
X383063Y119771D01*
X382870Y119776D01*
Y120776D01*
X383063Y120781D01*
X383235Y120796D01*
X383386Y120821D01*
X383518Y120856D01*
X383629Y120901D01*
X383720Y120956D01*
X383791Y121021D01*
X383842Y121096D01*
X383872Y121181D01*
X383882Y121276D01*
Y119276D01*
D02*
G37*
G36*
X353581Y113751D02*
X353954Y113461D01*
X354353Y113205D01*
X354778Y112984D01*
X355229Y112796D01*
X355706Y112643D01*
X356209Y112523D01*
X356738Y112438D01*
X357293Y112387D01*
X357873Y112370D01*
Y111370D01*
X357293Y111353D01*
X356738Y111302D01*
X356209Y111217D01*
X355706Y111097D01*
X355229Y110944D01*
X354778Y110756D01*
X354353Y110535D01*
X353954Y110279D01*
X353581Y109989D01*
X353234Y109665D01*
Y114075D01*
X353581Y113751D01*
D02*
G37*
G36*
X194263Y211970D02*
X193973Y211597D01*
X193717Y211198D01*
X193496Y210773D01*
X193308Y210322D01*
X193155Y209845D01*
X193035Y209342D01*
X192950Y208813D01*
X192899Y208259D01*
X192882Y207678D01*
X191882D01*
X191865Y208259D01*
X191814Y208813D01*
X191728Y209342D01*
X191609Y209845D01*
X191456Y210322D01*
X191268Y210773D01*
X191047Y211198D01*
X190791Y211597D01*
X190501Y211970D01*
X190177Y212318D01*
X194587D01*
X194263Y211970D01*
D02*
G37*
G36*
X240276Y120642D02*
X239889Y120851D01*
X239486Y121039D01*
X239068Y121204D01*
X238635Y121347D01*
X238187Y121468D01*
X237723Y121568D01*
X236750Y121700D01*
X236240Y121733D01*
X235716Y121744D01*
X235381Y122744D01*
X235944Y122761D01*
X236465Y122812D01*
X236944Y122896D01*
X237382Y123014D01*
X237778Y123166D01*
X238132Y123352D01*
X238444Y123571D01*
X238715Y123824D01*
X238944Y124111D01*
X239131Y124431D01*
X240276Y120642D01*
D02*
G37*
G36*
X184263Y211970D02*
X183973Y211597D01*
X183717Y211198D01*
X183496Y210773D01*
X183308Y210322D01*
X183155Y209845D01*
X183035Y209342D01*
X182950Y208813D01*
X182899Y208259D01*
X182882Y207678D01*
X181882D01*
X181865Y208259D01*
X181814Y208813D01*
X181728Y209342D01*
X181609Y209845D01*
X181456Y210322D01*
X181268Y210773D01*
X181047Y211198D01*
X180791Y211597D01*
X180501Y211970D01*
X180177Y212318D01*
X184587D01*
X184263Y211970D01*
D02*
G37*
G36*
X239661Y111120D02*
X239349Y111410D01*
X239011Y111670D01*
X238648Y111900D01*
X238259Y112099D01*
X237845Y112267D01*
X237406Y112405D01*
X236941Y112512D01*
X236451Y112588D01*
X235936Y112634D01*
X235396Y112650D01*
Y113650D01*
X235936Y113665D01*
X236451Y113711D01*
X236941Y113787D01*
X237406Y113894D01*
X237845Y114032D01*
X238259Y114200D01*
X238648Y114399D01*
X239011Y114629D01*
X239349Y114889D01*
X239661Y115180D01*
Y111120D01*
D02*
G37*
G36*
X117210Y114055D02*
X117241Y113970D01*
X117291Y113895D01*
X117362Y113830D01*
X117453Y113775D01*
X117565Y113730D01*
X117696Y113695D01*
X117848Y113670D01*
X118020Y113655D01*
X118212Y113650D01*
Y112650D01*
X118020Y112645D01*
X117848Y112630D01*
X117696Y112605D01*
X117565Y112570D01*
X117453Y112525D01*
X117362Y112470D01*
X117291Y112405D01*
X117241Y112330D01*
X117210Y112245D01*
X117200Y112150D01*
Y114150D01*
X117210Y114055D01*
D02*
G37*
G36*
X139661Y111120D02*
X139349Y111410D01*
X139011Y111670D01*
X138647Y111900D01*
X138259Y112099D01*
X137845Y112267D01*
X137406Y112405D01*
X136941Y112512D01*
X136451Y112588D01*
X135936Y112634D01*
X135396Y112650D01*
Y113650D01*
X135936Y113665D01*
X136451Y113711D01*
X136941Y113787D01*
X137406Y113894D01*
X137845Y114032D01*
X138259Y114200D01*
X138647Y114399D01*
X139011Y114629D01*
X139349Y114889D01*
X139661Y115180D01*
Y111120D01*
D02*
G37*
G36*
X319409Y110939D02*
X319324Y110909D01*
X319249Y110858D01*
X319184Y110787D01*
X319129Y110696D01*
X319084Y110585D01*
X319049Y110453D01*
X319024Y110301D01*
X319009Y110129D01*
X319004Y109937D01*
X318004D01*
X317999Y110129D01*
X317984Y110301D01*
X317959Y110453D01*
X317924Y110585D01*
X317879Y110696D01*
X317824Y110787D01*
X317759Y110858D01*
X317684Y110909D01*
X317599Y110939D01*
X317504Y110949D01*
X319504D01*
X319409Y110939D01*
D02*
G37*
G36*
X306482Y105826D02*
X306512Y105741D01*
X306563Y105666D01*
X306634Y105601D01*
X306725Y105546D01*
X306836Y105501D01*
X306968Y105466D01*
X307120Y105441D01*
X307292Y105426D01*
X307484Y105421D01*
Y104421D01*
X307292Y104416D01*
X307120Y104401D01*
X306968Y104376D01*
X306836Y104341D01*
X306725Y104296D01*
X306634Y104241D01*
X306563Y104176D01*
X306512Y104101D01*
X306482Y104016D01*
X306472Y103921D01*
Y105921D01*
X306482Y105826D01*
D02*
G37*
G36*
X319009Y103357D02*
X319024Y103187D01*
X319049Y103037D01*
X319084Y102907D01*
X319129Y102797D01*
X319184Y102707D01*
X319249Y102637D01*
X319324Y102587D01*
X319409Y102557D01*
X319504Y102547D01*
X317504D01*
X317599Y102557D01*
X317684Y102587D01*
X317759Y102637D01*
X317824Y102707D01*
X317879Y102797D01*
X317924Y102907D01*
X317959Y103037D01*
X317984Y103187D01*
X317999Y103357D01*
X318004Y103547D01*
X319004D01*
X319009Y103357D01*
D02*
G37*
G36*
X316904Y99984D02*
X316894Y100079D01*
X316863Y100164D01*
X316813Y100239D01*
X316742Y100304D01*
X316651Y100359D01*
X316540Y100404D01*
X316408Y100439D01*
X316256Y100464D01*
X316084Y100479D01*
X315892Y100484D01*
Y101484D01*
X316084Y101489D01*
X316256Y101504D01*
X316408Y101529D01*
X316540Y101564D01*
X316651Y101609D01*
X316742Y101664D01*
X316813Y101729D01*
X316863Y101804D01*
X316894Y101889D01*
X316904Y101984D01*
Y99984D01*
D02*
G37*
G36*
X83465Y124803D02*
Y101476D01*
X82185Y100197D01*
X35138D01*
X30512Y104823D01*
Y115650D01*
X35531Y120669D01*
X48130D01*
X54528Y127067D01*
X81201D01*
X83465Y124803D01*
D02*
G37*
G36*
X327529Y95683D02*
X327444Y95653D01*
X327369Y95602D01*
X327304Y95531D01*
X327249Y95440D01*
X327204Y95329D01*
X327169Y95197D01*
X327144Y95046D01*
X327129Y94874D01*
X327124Y94681D01*
X326124D01*
X326119Y94874D01*
X326104Y95046D01*
X326079Y95197D01*
X326044Y95329D01*
X325999Y95440D01*
X325944Y95531D01*
X325879Y95602D01*
X325804Y95653D01*
X325719Y95683D01*
X325624Y95693D01*
X327624D01*
X327529Y95683D01*
D02*
G37*
G36*
X327129Y93512D02*
X327144Y93340D01*
X327169Y93188D01*
X327204Y93057D01*
X327249Y92945D01*
X327304Y92854D01*
X327369Y92784D01*
X327444Y92733D01*
X327529Y92703D01*
X327624Y92693D01*
X325624D01*
X325719Y92703D01*
X325804Y92733D01*
X325879Y92784D01*
X325944Y92854D01*
X325999Y92945D01*
X326044Y93057D01*
X326079Y93188D01*
X326104Y93340D01*
X326119Y93512D01*
X326124Y93704D01*
X327124D01*
X327129Y93512D01*
D02*
G37*
G36*
X325122Y88961D02*
X325112Y89056D01*
X325082Y89141D01*
X325031Y89216D01*
X324960Y89281D01*
X324869Y89336D01*
X324758Y89381D01*
X324626Y89416D01*
X324475Y89441D01*
X324303Y89456D01*
X324110Y89461D01*
Y90461D01*
X324303Y90466D01*
X324475Y90481D01*
X324626Y90506D01*
X324758Y90541D01*
X324869Y90586D01*
X324960Y90641D01*
X325031Y90706D01*
X325082Y90781D01*
X325112Y90866D01*
X325122Y90961D01*
Y88961D01*
D02*
G37*
G36*
X321848Y90866D02*
X321878Y90781D01*
X321928Y90706D01*
X321998Y90641D01*
X322088Y90586D01*
X322198Y90541D01*
X322328Y90506D01*
X322478Y90481D01*
X322648Y90466D01*
X322838Y90461D01*
Y89461D01*
X322648Y89456D01*
X322478Y89441D01*
X322328Y89416D01*
X322198Y89381D01*
X322088Y89336D01*
X321998Y89281D01*
X321928Y89216D01*
X321878Y89141D01*
X321848Y89056D01*
X321838Y88961D01*
Y90961D01*
X321848Y90866D01*
D02*
G37*
G36*
X405233Y102942D02*
X405148Y102912D01*
X405073Y102861D01*
X405008Y102790D01*
X404953Y102699D01*
X404908Y102588D01*
X404873Y102456D01*
X404848Y102304D01*
X404833Y102132D01*
X404828Y101940D01*
X403828D01*
X403823Y102132D01*
X403808Y102304D01*
X403783Y102456D01*
X403748Y102588D01*
X403703Y102699D01*
X403648Y102790D01*
X403583Y102861D01*
X403508Y102912D01*
X403423Y102942D01*
X403328Y102952D01*
X405328D01*
X405233Y102942D01*
D02*
G37*
G36*
X404833Y101487D02*
X404848Y101317D01*
X404873Y101167D01*
X404908Y101037D01*
X404953Y100927D01*
X405008Y100837D01*
X405073Y100767D01*
X405148Y100717D01*
X405233Y100687D01*
X405328Y100677D01*
X403328D01*
X403423Y100687D01*
X403508Y100717D01*
X403583Y100767D01*
X403648Y100837D01*
X403703Y100927D01*
X403748Y101037D01*
X403783Y101167D01*
X403808Y101317D01*
X403823Y101487D01*
X403828Y101677D01*
X404828D01*
X404833Y101487D01*
D02*
G37*
G36*
X405233Y97356D02*
X405148Y97326D01*
X405073Y97275D01*
X405008Y97205D01*
X404953Y97114D01*
X404908Y97002D01*
X404873Y96871D01*
X404848Y96719D01*
X404833Y96547D01*
X404828Y96355D01*
X403828D01*
X403823Y96547D01*
X403808Y96719D01*
X403783Y96871D01*
X403748Y97002D01*
X403703Y97114D01*
X403648Y97205D01*
X403583Y97275D01*
X403508Y97326D01*
X403423Y97356D01*
X403328Y97366D01*
X405328D01*
X405233Y97356D01*
D02*
G37*
G36*
X404833Y94984D02*
X404848Y94812D01*
X404873Y94660D01*
X404908Y94528D01*
X404953Y94417D01*
X405008Y94326D01*
X405073Y94255D01*
X405148Y94204D01*
X405233Y94174D01*
X405328Y94164D01*
X403328D01*
X403423Y94174D01*
X403508Y94204D01*
X403583Y94255D01*
X403648Y94326D01*
X403703Y94417D01*
X403748Y94528D01*
X403783Y94660D01*
X403808Y94812D01*
X403823Y94984D01*
X403828Y95176D01*
X404828D01*
X404833Y94984D01*
D02*
G37*
G36*
X330391Y130283D02*
X330335Y130189D01*
X330286Y130075D01*
X330244Y129941D01*
X330208Y129786D01*
X330178Y129612D01*
X330139Y129203D01*
X330129Y128968D01*
X330126Y128713D01*
X329126D01*
X329123Y128968D01*
X329074Y129612D01*
X329044Y129786D01*
X329008Y129941D01*
X328966Y130075D01*
X328917Y130189D01*
X328861Y130283D01*
X328799Y130357D01*
X330453D01*
X330391Y130283D01*
D02*
G37*
G36*
X327129Y107097D02*
X327144Y106927D01*
X327169Y106777D01*
X327204Y106647D01*
X327249Y106537D01*
X327304Y106447D01*
X327369Y106377D01*
X327444Y106327D01*
X327529Y106297D01*
X327624Y106287D01*
X325624D01*
X325719Y106297D01*
X325804Y106327D01*
X325879Y106377D01*
X325944Y106447D01*
X325999Y106537D01*
X326044Y106647D01*
X326079Y106777D01*
X326104Y106927D01*
X326119Y107097D01*
X326124Y107287D01*
X327124D01*
X327129Y107097D01*
D02*
G37*
G36*
X328382Y105629D02*
X328412Y105544D01*
X328463Y105469D01*
X328534Y105404D01*
X328625Y105349D01*
X328736Y105304D01*
X328868Y105269D01*
X329019Y105244D01*
X329191Y105229D01*
X329384Y105224D01*
Y104224D01*
X329191Y104219D01*
X329019Y104204D01*
X328868Y104179D01*
X328736Y104144D01*
X328625Y104099D01*
X328534Y104044D01*
X328463Y103979D01*
X328412Y103904D01*
X328382Y103819D01*
X328372Y103724D01*
Y105724D01*
X328382Y105629D01*
D02*
G37*
G36*
X395848Y97720D02*
X395838Y97816D01*
X395808Y97900D01*
X395757Y97975D01*
X395686Y98040D01*
X395595Y98096D01*
X395484Y98141D01*
X395352Y98176D01*
X395200Y98201D01*
X395028Y98216D01*
X394836Y98220D01*
Y99221D01*
X395028Y99225D01*
X395200Y99240D01*
X395352Y99265D01*
X395484Y99300D01*
X395595Y99345D01*
X395686Y99401D01*
X395757Y99466D01*
X395808Y99541D01*
X395838Y99625D01*
X395848Y99721D01*
Y97720D01*
D02*
G37*
G36*
X392574Y99625D02*
X392604Y99541D01*
X392654Y99466D01*
X392724Y99401D01*
X392814Y99345D01*
X392924Y99300D01*
X393054Y99265D01*
X393204Y99240D01*
X393374Y99225D01*
X393564Y99221D01*
Y98220D01*
X393374Y98216D01*
X393204Y98201D01*
X393054Y98176D01*
X392924Y98141D01*
X392814Y98096D01*
X392724Y98040D01*
X392654Y97975D01*
X392604Y97900D01*
X392574Y97816D01*
X392564Y97720D01*
Y99721D01*
X392574Y99625D01*
D02*
G37*
G36*
X397871Y97356D02*
X397786Y97326D01*
X397711Y97275D01*
X397646Y97205D01*
X397591Y97114D01*
X397546Y97002D01*
X397511Y96871D01*
X397486Y96719D01*
X397471Y96547D01*
X397466Y96355D01*
X396466D01*
X396461Y96547D01*
X396446Y96719D01*
X396421Y96871D01*
X396386Y97002D01*
X396341Y97114D01*
X396286Y97205D01*
X396221Y97275D01*
X396146Y97326D01*
X396061Y97356D01*
X395966Y97366D01*
X397966D01*
X397871Y97356D01*
D02*
G37*
G36*
X397471Y94984D02*
X397486Y94812D01*
X397511Y94660D01*
X397546Y94528D01*
X397591Y94417D01*
X397646Y94326D01*
X397711Y94255D01*
X397786Y94204D01*
X397871Y94174D01*
X397966Y94164D01*
X395966D01*
X396061Y94174D01*
X396146Y94204D01*
X396221Y94255D01*
X396286Y94326D01*
X396341Y94417D01*
X396386Y94528D01*
X396421Y94660D01*
X396446Y94812D01*
X396461Y94984D01*
X396466Y95176D01*
X397466D01*
X397471Y94984D01*
D02*
G37*
G36*
X334659Y93512D02*
X334674Y93340D01*
X334699Y93188D01*
X334734Y93057D01*
X334778Y92945D01*
X334834Y92854D01*
X334898Y92784D01*
X334974Y92733D01*
X335058Y92703D01*
X335154Y92693D01*
X333154D01*
X333248Y92703D01*
X333333Y92733D01*
X333408Y92784D01*
X333473Y92854D01*
X333528Y92945D01*
X333574Y93057D01*
X333609Y93188D01*
X333633Y93340D01*
X333648Y93512D01*
X333653Y93704D01*
X334653D01*
X334659Y93512D01*
D02*
G37*
G36*
X389254Y91028D02*
X389244Y91123D01*
X389213Y91208D01*
X389163Y91283D01*
X389092Y91348D01*
X389001Y91403D01*
X388889Y91448D01*
X388758Y91483D01*
X388606Y91508D01*
X388434Y91523D01*
X388242Y91528D01*
Y92528D01*
X388434Y92533D01*
X388606Y92548D01*
X388758Y92573D01*
X388889Y92608D01*
X389001Y92653D01*
X389092Y92708D01*
X389163Y92773D01*
X389213Y92848D01*
X389244Y92933D01*
X389254Y93028D01*
Y91028D01*
D02*
G37*
G36*
X354120Y92933D02*
X354150Y92848D01*
X354201Y92773D01*
X354272Y92708D01*
X354363Y92653D01*
X354474Y92608D01*
X354606Y92573D01*
X354757Y92548D01*
X354930Y92533D01*
X355122Y92528D01*
Y91528D01*
X354930Y91523D01*
X354757Y91508D01*
X354606Y91483D01*
X354474Y91448D01*
X354363Y91403D01*
X354272Y91348D01*
X354201Y91283D01*
X354150Y91208D01*
X354120Y91123D01*
X354110Y91028D01*
Y93028D01*
X354120Y92933D01*
D02*
G37*
G36*
X394934Y87574D02*
X394907Y87615D01*
X394863Y87651D01*
X394801Y87683D01*
X394722Y87710D01*
X394625Y87734D01*
X394511Y87753D01*
X394378Y87768D01*
X394061Y87785D01*
X393877Y87787D01*
Y88787D01*
X394061Y88789D01*
X394511Y88822D01*
X394625Y88841D01*
X394722Y88864D01*
X394801Y88892D01*
X394863Y88924D01*
X394907Y88960D01*
X394934Y89001D01*
Y87574D01*
D02*
G37*
G36*
X335058Y87600D02*
X334974Y87570D01*
X334898Y87520D01*
X334834Y87450D01*
X334778Y87360D01*
X334734Y87250D01*
X334699Y87120D01*
X334674Y86970D01*
X334659Y86800D01*
X334653Y86610D01*
X333653D01*
X333648Y86800D01*
X333633Y86970D01*
X333609Y87120D01*
X333574Y87250D01*
X333528Y87360D01*
X333473Y87450D01*
X333408Y87520D01*
X333333Y87570D01*
X333248Y87600D01*
X333154Y87610D01*
X335154D01*
X335058Y87600D01*
D02*
G37*
G36*
X298346Y102364D02*
X298261Y102334D01*
X298186Y102284D01*
X298121Y102214D01*
X298066Y102124D01*
X298021Y102014D01*
X297986Y101884D01*
X297961Y101734D01*
X297946Y101564D01*
X297941Y101374D01*
X296941D01*
X296936Y101564D01*
X296921Y101734D01*
X296896Y101884D01*
X296861Y102014D01*
X296816Y102124D01*
X296761Y102214D01*
X296696Y102284D01*
X296621Y102334D01*
X296536Y102364D01*
X296441Y102374D01*
X298441D01*
X298346Y102364D01*
D02*
G37*
G36*
X297946Y97213D02*
X297961Y97041D01*
X297986Y96889D01*
X298021Y96758D01*
X298066Y96646D01*
X298121Y96555D01*
X298186Y96484D01*
X298261Y96434D01*
X298346Y96403D01*
X298441Y96393D01*
X296441D01*
X296536Y96403D01*
X296621Y96434D01*
X296696Y96484D01*
X296761Y96555D01*
X296816Y96646D01*
X296861Y96758D01*
X296896Y96889D01*
X296921Y97041D01*
X296936Y97213D01*
X296941Y97405D01*
X297941D01*
X297946Y97213D01*
D02*
G37*
G36*
X295328Y81063D02*
X294981Y81387D01*
X294608Y81677D01*
X294209Y81932D01*
X293784Y82154D01*
X293333Y82341D01*
X292856Y82495D01*
X292353Y82614D01*
X291824Y82700D01*
X291269Y82751D01*
X290689Y82768D01*
Y83768D01*
X291269Y83785D01*
X291824Y83836D01*
X292353Y83921D01*
X292856Y84040D01*
X293333Y84194D01*
X293784Y84381D01*
X294209Y84603D01*
X294608Y84859D01*
X294981Y85149D01*
X295328Y85472D01*
Y81063D01*
D02*
G37*
G36*
X244116Y44889D02*
X244454Y44629D01*
X244817Y44399D01*
X245206Y44200D01*
X245620Y44032D01*
X246059Y43894D01*
X246523Y43787D01*
X247013Y43711D01*
X247528Y43665D01*
X248069Y43650D01*
Y42650D01*
X247528Y42634D01*
X247013Y42588D01*
X246523Y42512D01*
X246059Y42405D01*
X245620Y42267D01*
X245206Y42099D01*
X244817Y41900D01*
X244454Y41670D01*
X244116Y41410D01*
X243803Y41120D01*
Y45180D01*
X244116Y44889D01*
D02*
G37*
G36*
X318528Y82779D02*
X318520Y82828D01*
X318497Y82871D01*
X318459Y82909D01*
X318405Y82942D01*
X318337Y82970D01*
X318252Y82993D01*
X318153Y83010D01*
X318038Y83023D01*
X317762Y83033D01*
Y84033D01*
X317908Y84036D01*
X318153Y84056D01*
X318252Y84074D01*
X318337Y84096D01*
X318405Y84124D01*
X318459Y84157D01*
X318497Y84196D01*
X318520Y84239D01*
X318528Y84287D01*
Y82779D01*
D02*
G37*
G36*
X312931Y85503D02*
X313304Y85213D01*
X313703Y84957D01*
X314128Y84736D01*
X314579Y84548D01*
X315056Y84395D01*
X315559Y84276D01*
X316088Y84190D01*
X316643Y84139D01*
X317224Y84122D01*
Y83122D01*
X316643Y83105D01*
X316088Y83054D01*
X315559Y82969D01*
X315056Y82849D01*
X314579Y82696D01*
X314128Y82508D01*
X313703Y82287D01*
X313304Y82031D01*
X312931Y81741D01*
X312584Y81417D01*
Y85827D01*
X312931Y85503D01*
D02*
G37*
G36*
X115956Y101193D02*
X115666Y100820D01*
X115410Y100421D01*
X115189Y99996D01*
X115001Y99545D01*
X114848Y99068D01*
X114728Y98565D01*
X114643Y98036D01*
X114592Y97481D01*
X114575Y96900D01*
X113575D01*
X113558Y97481D01*
X113507Y98036D01*
X113421Y98565D01*
X113302Y99068D01*
X113149Y99545D01*
X112961Y99996D01*
X112740Y100421D01*
X112484Y100820D01*
X112194Y101193D01*
X111870Y101540D01*
X116279D01*
X115956Y101193D01*
D02*
G37*
G36*
X139331Y81524D02*
X139091Y81836D01*
X138815Y82116D01*
X138505Y82363D01*
X138160Y82577D01*
X137779Y82758D01*
X137364Y82906D01*
X136913Y83021D01*
X136428Y83104D01*
X135908Y83153D01*
X135352Y83169D01*
X135538Y84169D01*
X136053Y84183D01*
X136554Y84223D01*
X137042Y84291D01*
X137515Y84385D01*
X137974Y84506D01*
X138419Y84655D01*
X138850Y84830D01*
X139267Y85032D01*
X139670Y85262D01*
X140059Y85518D01*
X139331Y81524D01*
D02*
G37*
G36*
X271185Y82150D02*
X271175Y82245D01*
X271145Y82330D01*
X271094Y82405D01*
X271024Y82470D01*
X270932Y82525D01*
X270821Y82570D01*
X270690Y82605D01*
X270538Y82630D01*
X270366Y82645D01*
X270173Y82650D01*
Y83650D01*
X270366Y83655D01*
X270538Y83670D01*
X270690Y83695D01*
X270821Y83730D01*
X270932Y83775D01*
X271024Y83830D01*
X271094Y83895D01*
X271145Y83970D01*
X271175Y84055D01*
X271185Y84150D01*
Y82150D01*
D02*
G37*
G36*
X244116Y84889D02*
X244454Y84629D01*
X244817Y84399D01*
X245206Y84200D01*
X245620Y84032D01*
X246059Y83894D01*
X246523Y83787D01*
X247013Y83711D01*
X247528Y83665D01*
X248069Y83650D01*
Y82650D01*
X247528Y82634D01*
X247013Y82588D01*
X246523Y82512D01*
X246059Y82405D01*
X245620Y82267D01*
X245206Y82099D01*
X244817Y81900D01*
X244454Y81670D01*
X244116Y81410D01*
X243803Y81120D01*
Y85180D01*
X244116Y84889D01*
D02*
G37*
G36*
X139661Y71120D02*
X139349Y71410D01*
X139011Y71670D01*
X138647Y71900D01*
X138259Y72099D01*
X137845Y72267D01*
X137406Y72405D01*
X136941Y72512D01*
X136451Y72588D01*
X135936Y72634D01*
X135396Y72650D01*
Y73650D01*
X135936Y73665D01*
X136451Y73711D01*
X136941Y73787D01*
X137406Y73894D01*
X137845Y74032D01*
X138259Y74200D01*
X138647Y74399D01*
X139011Y74629D01*
X139349Y74889D01*
X139661Y75180D01*
Y71120D01*
D02*
G37*
G36*
X383176Y65724D02*
X383166Y65819D01*
X383135Y65904D01*
X383085Y65979D01*
X383014Y66044D01*
X382923Y66099D01*
X382812Y66144D01*
X382680Y66179D01*
X382528Y66204D01*
X382356Y66219D01*
X382164Y66224D01*
Y67224D01*
X382356Y67229D01*
X382528Y67244D01*
X382680Y67269D01*
X382812Y67304D01*
X382923Y67349D01*
X383014Y67404D01*
X383085Y67469D01*
X383135Y67544D01*
X383166Y67629D01*
X383176Y67724D01*
Y65724D01*
D02*
G37*
G36*
X380215Y67629D02*
X380245Y67544D01*
X380296Y67469D01*
X380366Y67404D01*
X380457Y67349D01*
X380569Y67304D01*
X380700Y67269D01*
X380852Y67244D01*
X381024Y67229D01*
X381217Y67224D01*
Y66224D01*
X381024Y66219D01*
X380852Y66204D01*
X380700Y66179D01*
X380569Y66144D01*
X380457Y66099D01*
X380366Y66044D01*
X380296Y65979D01*
X380245Y65904D01*
X380215Y65819D01*
X380205Y65724D01*
Y67724D01*
X380215Y67629D01*
D02*
G37*
G36*
X374244Y64179D02*
X374159Y64149D01*
X374084Y64098D01*
X374019Y64027D01*
X373964Y63936D01*
X373919Y63825D01*
X373884Y63693D01*
X373859Y63542D01*
X373844Y63370D01*
X373839Y63177D01*
X372839D01*
X372834Y63370D01*
X372819Y63542D01*
X372794Y63693D01*
X372759Y63825D01*
X372714Y63936D01*
X372659Y64027D01*
X372594Y64098D01*
X372519Y64149D01*
X372434Y64179D01*
X372339Y64189D01*
X374339D01*
X374244Y64179D01*
D02*
G37*
G36*
X383871Y45465D02*
X383886Y45293D01*
X383911Y45141D01*
X383946Y45010D01*
X383991Y44899D01*
X384046Y44807D01*
X384111Y44737D01*
X384186Y44686D01*
X384271Y44656D01*
X384366Y44646D01*
X382366D01*
X382461Y44656D01*
X382546Y44686D01*
X382621Y44737D01*
X382686Y44807D01*
X382741Y44899D01*
X382786Y45010D01*
X382821Y45141D01*
X382846Y45293D01*
X382861Y45465D01*
X382866Y45658D01*
X383866D01*
X383871Y45465D01*
D02*
G37*
G36*
X244251Y74686D02*
X244558Y74415D01*
X244896Y74175D01*
X245263Y73968D01*
X245661Y73792D01*
X246089Y73649D01*
X246547Y73537D01*
X247035Y73457D01*
X247553Y73410D01*
X248102Y73394D01*
X248012Y72394D01*
X247482Y72379D01*
X246972Y72336D01*
X246482Y72263D01*
X246013Y72162D01*
X245563Y72031D01*
X245133Y71872D01*
X244724Y71684D01*
X244335Y71466D01*
X243965Y71220D01*
X243616Y70945D01*
X243974Y74989D01*
X244251Y74686D01*
D02*
G37*
G36*
X271890Y70623D02*
X271580Y70960D01*
X271239Y71260D01*
X270866Y71526D01*
X270463Y71756D01*
X270029Y71951D01*
X269563Y72110D01*
X269067Y72234D01*
X268539Y72323D01*
X267981Y72376D01*
X267391Y72394D01*
X267474Y73394D01*
X268044Y73410D01*
X268593Y73459D01*
X269122Y73540D01*
X269630Y73654D01*
X270118Y73800D01*
X270585Y73978D01*
X271031Y74190D01*
X271458Y74433D01*
X271863Y74709D01*
X272248Y75018D01*
X271890Y70623D01*
D02*
G37*
G36*
X405233Y87519D02*
X405148Y87488D01*
X405073Y87438D01*
X405008Y87367D01*
X404953Y87276D01*
X404908Y87164D01*
X404873Y87033D01*
X404848Y86881D01*
X404833Y86709D01*
X404828Y86517D01*
X403828D01*
X403823Y86709D01*
X403808Y86881D01*
X403783Y87033D01*
X403748Y87164D01*
X403703Y87276D01*
X403648Y87367D01*
X403583Y87438D01*
X403508Y87488D01*
X403423Y87519D01*
X403328Y87529D01*
X405328D01*
X405233Y87519D01*
D02*
G37*
G36*
X404862Y81015D02*
X404877Y80844D01*
X404902Y80695D01*
X404937Y80564D01*
X404982Y80454D01*
X405037Y80365D01*
X405102Y80295D01*
X405177Y80244D01*
X405262Y80215D01*
X405357Y80204D01*
X403357D01*
X403452Y80215D01*
X403537Y80244D01*
X403612Y80295D01*
X403677Y80365D01*
X403732Y80454D01*
X403777Y80564D01*
X403812Y80695D01*
X403837Y80844D01*
X403852Y81015D01*
X403857Y81204D01*
X404857D01*
X404862Y81015D01*
D02*
G37*
G36*
X405772Y71028D02*
X405687Y70997D01*
X405612Y70947D01*
X405547Y70876D01*
X405492Y70785D01*
X405447Y70674D01*
X405412Y70542D01*
X405387Y70390D01*
X405372Y70218D01*
X405367Y70026D01*
X404367D01*
X404362Y70218D01*
X404347Y70390D01*
X404322Y70542D01*
X404287Y70674D01*
X404242Y70785D01*
X404187Y70876D01*
X404122Y70947D01*
X404047Y70997D01*
X403962Y71028D01*
X403867Y71038D01*
X405867D01*
X405772Y71028D01*
D02*
G37*
G36*
X405372Y69302D02*
X405387Y69132D01*
X405412Y68982D01*
X405447Y68852D01*
X405492Y68742D01*
X405547Y68652D01*
X405612Y68582D01*
X405687Y68532D01*
X405772Y68502D01*
X405867Y68492D01*
X403867D01*
X403962Y68502D01*
X404047Y68532D01*
X404122Y68582D01*
X404187Y68652D01*
X404242Y68742D01*
X404287Y68852D01*
X404322Y68982D01*
X404347Y69132D01*
X404362Y69302D01*
X404367Y69492D01*
X405367D01*
X405372Y69302D01*
D02*
G37*
G36*
X82200Y62106D02*
X81852Y62430D01*
X81479Y62720D01*
X81080Y62976D01*
X80655Y63197D01*
X80204Y63385D01*
X79727Y63538D01*
X79224Y63658D01*
X78695Y63743D01*
X78140Y63794D01*
X77560Y63811D01*
Y64811D01*
X78140Y64828D01*
X78695Y64879D01*
X79224Y64964D01*
X79727Y65084D01*
X80204Y65237D01*
X80655Y65425D01*
X81080Y65646D01*
X81479Y65902D01*
X81852Y66192D01*
X82200Y66516D01*
Y62106D01*
D02*
G37*
G36*
X42030Y61829D02*
X42625Y61352D01*
X43250Y60931D01*
X43904Y60566D01*
X44589Y60257D01*
X45303Y60004D01*
X46047Y59808D01*
X46821Y59667D01*
X47624Y59583D01*
X48458Y59555D01*
Y58555D01*
X47624Y58527D01*
X46821Y58443D01*
X46047Y58302D01*
X45303Y58106D01*
X44589Y57853D01*
X43904Y57545D01*
X43250Y57180D01*
X42625Y56759D01*
X42030Y56281D01*
X41464Y55748D01*
Y62362D01*
X42030Y61829D01*
D02*
G37*
G36*
X299459Y70671D02*
X299169Y70298D01*
X298913Y69899D01*
X298692Y69474D01*
X298504Y69023D01*
X298351Y68546D01*
X298231Y68043D01*
X298146Y67514D01*
X298095Y66959D01*
X298078Y66378D01*
X297078D01*
X297061Y66959D01*
X297010Y67514D01*
X296924Y68043D01*
X296805Y68546D01*
X296652Y69023D01*
X296464Y69474D01*
X296242Y69899D01*
X295987Y70298D01*
X295697Y70671D01*
X295373Y71018D01*
X299782D01*
X299459Y70671D01*
D02*
G37*
G36*
X307209Y62622D02*
X307199Y62717D01*
X307169Y62802D01*
X307118Y62877D01*
X307047Y62942D01*
X306956Y62997D01*
X306845Y63042D01*
X306713Y63077D01*
X306561Y63102D01*
X306389Y63117D01*
X306197Y63122D01*
Y64122D01*
X306389Y64127D01*
X306561Y64142D01*
X306713Y64167D01*
X306845Y64202D01*
X306956Y64247D01*
X307047Y64302D01*
X307118Y64367D01*
X307169Y64442D01*
X307199Y64527D01*
X307209Y64622D01*
Y62622D01*
D02*
G37*
G36*
X318910Y61697D02*
X318900Y61792D01*
X318870Y61877D01*
X318820Y61952D01*
X318750Y62017D01*
X318660Y62072D01*
X318550Y62117D01*
X318420Y62152D01*
X318270Y62177D01*
X318100Y62192D01*
X317910Y62197D01*
Y63197D01*
X318100Y63202D01*
X318270Y63217D01*
X318420Y63242D01*
X318550Y63277D01*
X318660Y63322D01*
X318750Y63377D01*
X318820Y63442D01*
X318870Y63517D01*
X318900Y63602D01*
X318910Y63697D01*
Y61697D01*
D02*
G37*
G36*
X313470Y63594D02*
X313501Y63509D01*
X313551Y63434D01*
X313622Y63369D01*
X313713Y63314D01*
X313825Y63269D01*
X313956Y63234D01*
X314108Y63209D01*
X314280Y63194D01*
X314472Y63189D01*
Y62189D01*
X314280Y62184D01*
X314108Y62169D01*
X313956Y62144D01*
X313825Y62109D01*
X313713Y62064D01*
X313622Y62009D01*
X313551Y61944D01*
X313501Y61869D01*
X313470Y61784D01*
X313460Y61689D01*
Y63689D01*
X313470Y63594D01*
D02*
G37*
G36*
X244251Y64686D02*
X244558Y64415D01*
X244896Y64175D01*
X245263Y63968D01*
X245661Y63793D01*
X246089Y63649D01*
X246547Y63537D01*
X247035Y63458D01*
X247553Y63410D01*
X248102Y63394D01*
X248012Y62394D01*
X247482Y62379D01*
X246972Y62336D01*
X246482Y62263D01*
X246013Y62162D01*
X245563Y62032D01*
X245133Y61872D01*
X244724Y61684D01*
X244335Y61466D01*
X243965Y61220D01*
X243616Y60945D01*
X243974Y64989D01*
X244251Y64686D01*
D02*
G37*
G36*
X271890Y60623D02*
X271580Y60960D01*
X271239Y61260D01*
X270866Y61526D01*
X270463Y61756D01*
X270029Y61951D01*
X269563Y62110D01*
X269067Y62234D01*
X268539Y62323D01*
X267981Y62376D01*
X267391Y62394D01*
X267474Y63394D01*
X268044Y63410D01*
X268593Y63459D01*
X269122Y63540D01*
X269630Y63654D01*
X270118Y63800D01*
X270585Y63978D01*
X271031Y64190D01*
X271458Y64433D01*
X271863Y64709D01*
X272248Y65018D01*
X271890Y60623D01*
D02*
G37*
G36*
X244116Y54889D02*
X244454Y54629D01*
X244817Y54399D01*
X245206Y54200D01*
X245620Y54032D01*
X246059Y53894D01*
X246523Y53787D01*
X247013Y53711D01*
X247528Y53665D01*
X248069Y53650D01*
Y52650D01*
X247528Y52634D01*
X247013Y52588D01*
X246523Y52512D01*
X246059Y52405D01*
X245620Y52267D01*
X245206Y52099D01*
X244817Y51900D01*
X244454Y51670D01*
X244116Y51410D01*
X243803Y51120D01*
Y55180D01*
X244116Y54889D01*
D02*
G37*
G36*
X271733Y50828D02*
X271460Y51174D01*
X271150Y51484D01*
X270805Y51757D01*
X270423Y51994D01*
X270006Y52194D01*
X269553Y52358D01*
X269064Y52486D01*
X268539Y52577D01*
X267979Y52631D01*
X267382Y52650D01*
X267549Y53650D01*
X268104Y53665D01*
X268645Y53711D01*
X269172Y53787D01*
X269683Y53894D01*
X270181Y54032D01*
X270664Y54200D01*
X271132Y54399D01*
X271586Y54628D01*
X272025Y54888D01*
X272450Y55179D01*
X271733Y50828D01*
D02*
G37*
G36*
X271185Y32150D02*
X271175Y32245D01*
X271145Y32330D01*
X271094Y32405D01*
X271024Y32470D01*
X270932Y32525D01*
X270821Y32570D01*
X270690Y32605D01*
X270538Y32630D01*
X270366Y32645D01*
X270173Y32650D01*
Y33650D01*
X270366Y33655D01*
X270538Y33670D01*
X270690Y33695D01*
X270821Y33730D01*
X270932Y33775D01*
X271024Y33830D01*
X271094Y33895D01*
X271145Y33970D01*
X271175Y34055D01*
X271185Y34150D01*
Y32150D01*
D02*
G37*
G36*
X244116Y34889D02*
X244454Y34629D01*
X244817Y34399D01*
X245206Y34200D01*
X245620Y34032D01*
X246059Y33894D01*
X246523Y33787D01*
X247013Y33711D01*
X247528Y33665D01*
X248069Y33650D01*
Y32650D01*
X247528Y32634D01*
X247013Y32588D01*
X246523Y32512D01*
X246059Y32405D01*
X245620Y32267D01*
X245206Y32099D01*
X244817Y31900D01*
X244454Y31670D01*
X244116Y31410D01*
X243803Y31120D01*
Y35180D01*
X244116Y34889D01*
D02*
G37*
G36*
X396185Y77543D02*
X396175Y77638D01*
X396145Y77723D01*
X396094Y77798D01*
X396024Y77863D01*
X395932Y77918D01*
X395821Y77963D01*
X395690Y77998D01*
X395538Y78023D01*
X395366Y78038D01*
X395173Y78043D01*
Y79043D01*
X395366Y79048D01*
X395538Y79063D01*
X395690Y79088D01*
X395821Y79123D01*
X395932Y79168D01*
X396024Y79223D01*
X396094Y79288D01*
X396145Y79363D01*
X396175Y79448D01*
X396185Y79543D01*
Y77543D01*
D02*
G37*
G36*
X393674Y79448D02*
X393704Y79363D01*
X393755Y79288D01*
X393826Y79223D01*
X393917Y79168D01*
X394028Y79123D01*
X394160Y79088D01*
X394311Y79063D01*
X394484Y79048D01*
X394676Y79043D01*
Y78043D01*
X394484Y78038D01*
X394311Y78023D01*
X394160Y77998D01*
X394028Y77963D01*
X393917Y77918D01*
X393826Y77863D01*
X393755Y77798D01*
X393704Y77723D01*
X393674Y77638D01*
X393664Y77543D01*
Y79543D01*
X393674Y79448D01*
D02*
G37*
G36*
X398740Y76884D02*
X398655Y76854D01*
X398580Y76803D01*
X398515Y76732D01*
X398460Y76641D01*
X398415Y76530D01*
X398380Y76398D01*
X398355Y76246D01*
X398340Y76074D01*
X398335Y75882D01*
X397335D01*
X397330Y76074D01*
X397315Y76246D01*
X397290Y76398D01*
X397255Y76530D01*
X397210Y76641D01*
X397155Y76732D01*
X397090Y76803D01*
X397015Y76854D01*
X396930Y76884D01*
X396835Y76894D01*
X398835D01*
X398740Y76884D01*
D02*
G37*
G36*
X398340Y75158D02*
X398355Y74988D01*
X398380Y74838D01*
X398415Y74708D01*
X398460Y74598D01*
X398515Y74508D01*
X398580Y74438D01*
X398655Y74388D01*
X398740Y74358D01*
X398835Y74348D01*
X396835D01*
X396930Y74358D01*
X397015Y74388D01*
X397090Y74438D01*
X397155Y74508D01*
X397210Y74598D01*
X397255Y74708D01*
X397290Y74838D01*
X397315Y74988D01*
X397330Y75158D01*
X397335Y75348D01*
X398335D01*
X398340Y75158D01*
D02*
G37*
G36*
X396185Y65831D02*
X396175Y65926D01*
X396145Y66011D01*
X396094Y66086D01*
X396024Y66151D01*
X395932Y66206D01*
X395821Y66251D01*
X395690Y66286D01*
X395538Y66311D01*
X395366Y66326D01*
X395173Y66331D01*
Y67331D01*
X395366Y67336D01*
X395538Y67351D01*
X395690Y67376D01*
X395821Y67411D01*
X395932Y67456D01*
X396024Y67511D01*
X396094Y67576D01*
X396145Y67651D01*
X396175Y67736D01*
X396185Y67831D01*
Y65831D01*
D02*
G37*
G36*
X393768Y67736D02*
X393798Y67651D01*
X393849Y67576D01*
X393920Y67511D01*
X394011Y67456D01*
X394122Y67411D01*
X394254Y67376D01*
X394406Y67351D01*
X394578Y67336D01*
X394770Y67331D01*
Y66331D01*
X394578Y66326D01*
X394406Y66311D01*
X394254Y66286D01*
X394122Y66251D01*
X394011Y66206D01*
X393920Y66151D01*
X393849Y66086D01*
X393798Y66011D01*
X393768Y65926D01*
X393758Y65831D01*
Y67831D01*
X393768Y67736D01*
D02*
G37*
G36*
X398740Y65171D02*
X398655Y65141D01*
X398580Y65090D01*
X398515Y65020D01*
X398460Y64929D01*
X398415Y64817D01*
X398380Y64686D01*
X398355Y64534D01*
X398340Y64362D01*
X398335Y64170D01*
X397335D01*
X397330Y64362D01*
X397315Y64534D01*
X397290Y64686D01*
X397255Y64817D01*
X397210Y64929D01*
X397155Y65020D01*
X397090Y65090D01*
X397015Y65141D01*
X396930Y65171D01*
X396835Y65181D01*
X398835D01*
X398740Y65171D01*
D02*
G37*
G36*
X403161Y55202D02*
X403173Y55063D01*
X403192Y54934D01*
X403218Y54816D01*
X403252Y54708D01*
X403294Y54610D01*
X403343Y54523D01*
X403400Y54447D01*
X403465Y54380D01*
X403537Y54324D01*
X401778D01*
X401850Y54380D01*
X401915Y54447D01*
X401971Y54523D01*
X402021Y54610D01*
X402063Y54708D01*
X402097Y54816D01*
X402123Y54934D01*
X402142Y55063D01*
X402154Y55202D01*
X402157Y55351D01*
X403158D01*
X403161Y55202D01*
D02*
G37*
G36*
X403475Y53106D02*
X403419Y53042D01*
X403370Y52965D01*
X403327Y52875D01*
X403291Y52772D01*
X403262Y52655D01*
X403239Y52525D01*
X403223Y52382D01*
X403209Y52057D01*
X402210D01*
X402205Y52214D01*
X402192Y52360D01*
X402171Y52496D01*
X402140Y52622D01*
X402102Y52737D01*
X402054Y52842D01*
X401998Y52936D01*
X401933Y53020D01*
X401860Y53093D01*
X401778Y53156D01*
X403537D01*
X403475Y53106D01*
D02*
G37*
G36*
X403238Y49477D02*
X403325Y48667D01*
X403470Y47894D01*
X403673Y47159D01*
X403933Y46462D01*
X404252Y45802D01*
X404629Y45180D01*
X405063Y44595D01*
X405555Y44048D01*
X406106Y43538D01*
X399509Y43060D01*
X400022Y43682D01*
X400481Y44327D01*
X400886Y44992D01*
X401237Y45680D01*
X401534Y46388D01*
X401777Y47118D01*
X401966Y47869D01*
X402101Y48642D01*
X402182Y49436D01*
X402210Y50252D01*
X403209Y50325D01*
X403238Y49477D01*
D02*
G37*
G36*
X312931Y75503D02*
X313304Y75213D01*
X313703Y74957D01*
X314128Y74736D01*
X314579Y74548D01*
X315056Y74395D01*
X315559Y74275D01*
X316088Y74190D01*
X316643Y74139D01*
X317224Y74122D01*
Y73122D01*
X316643Y73105D01*
X316088Y73054D01*
X315559Y72969D01*
X315056Y72849D01*
X314579Y72696D01*
X314128Y72508D01*
X313703Y72287D01*
X313304Y72031D01*
X312931Y71741D01*
X312584Y71417D01*
Y75827D01*
X312931Y75503D01*
D02*
G37*
G36*
X348241Y58475D02*
X348256Y58305D01*
X348281Y58155D01*
X348316Y58025D01*
X348361Y57915D01*
X348416Y57825D01*
X348481Y57755D01*
X348556Y57705D01*
X348641Y57675D01*
X348736Y57665D01*
X346736D01*
X346831Y57675D01*
X346916Y57705D01*
X346991Y57755D01*
X347056Y57825D01*
X347111Y57915D01*
X347156Y58025D01*
X347191Y58155D01*
X347216Y58305D01*
X347231Y58475D01*
X347236Y58665D01*
X348236D01*
X348241Y58475D01*
D02*
G37*
G36*
X348641Y52573D02*
X348556Y52543D01*
X348481Y52492D01*
X348416Y52421D01*
X348361Y52330D01*
X348316Y52219D01*
X348281Y52087D01*
X348256Y51935D01*
X348241Y51763D01*
X348236Y51571D01*
X347236D01*
X347231Y51763D01*
X347216Y51935D01*
X347191Y52087D01*
X347156Y52219D01*
X347111Y52330D01*
X347056Y52421D01*
X346991Y52492D01*
X346916Y52543D01*
X346831Y52573D01*
X346736Y52583D01*
X348736D01*
X348641Y52573D01*
D02*
G37*
G36*
X348264Y49199D02*
X348348Y48395D01*
X348489Y47622D01*
X348685Y46878D01*
X348938Y46163D01*
X349247Y45479D01*
X349612Y44824D01*
X350033Y44199D01*
X350510Y43604D01*
X351043Y43039D01*
X344429D01*
X344963Y43604D01*
X345440Y44199D01*
X345861Y44824D01*
X346226Y45479D01*
X346534Y46163D01*
X346787Y46878D01*
X346984Y47622D01*
X347124Y48395D01*
X347208Y49199D01*
X347236Y50033D01*
X348236D01*
X348264Y49199D01*
D02*
G37*
G36*
X322230Y56810D02*
X322261Y56726D01*
X322311Y56651D01*
X322382Y56586D01*
X322473Y56530D01*
X322584Y56485D01*
X322716Y56450D01*
X322868Y56425D01*
X323040Y56410D01*
X323232Y56406D01*
Y55405D01*
X323040Y55401D01*
X322868Y55386D01*
X322716Y55361D01*
X322584Y55326D01*
X322473Y55281D01*
X322382Y55225D01*
X322311Y55160D01*
X322261Y55085D01*
X322230Y55001D01*
X322220Y54905D01*
Y56906D01*
X322230Y56810D01*
D02*
G37*
G36*
X328579Y49199D02*
X328663Y48395D01*
X328804Y47622D01*
X329000Y46878D01*
X329253Y46163D01*
X329562Y45479D01*
X329927Y44824D01*
X330348Y44199D01*
X330825Y43604D01*
X331358Y43039D01*
X324744D01*
X325277Y43604D01*
X325755Y44199D01*
X326176Y44824D01*
X326541Y45479D01*
X326849Y46163D01*
X327102Y46878D01*
X327298Y47622D01*
X327439Y48395D01*
X327523Y49199D01*
X327551Y50033D01*
X328551D01*
X328579Y49199D01*
D02*
G37*
G36*
X244116Y24889D02*
X244454Y24629D01*
X244817Y24399D01*
X245206Y24200D01*
X245620Y24032D01*
X246059Y23894D01*
X246523Y23787D01*
X247013Y23711D01*
X247528Y23665D01*
X248069Y23650D01*
Y22650D01*
X247528Y22634D01*
X247013Y22588D01*
X246523Y22512D01*
X246059Y22405D01*
X245620Y22267D01*
X245206Y22099D01*
X244817Y21900D01*
X244454Y21670D01*
X244116Y21410D01*
X243803Y21120D01*
Y25180D01*
X244116Y24889D01*
D02*
G37*
G36*
X272062Y20945D02*
X271715Y21269D01*
X271341Y21559D01*
X270942Y21814D01*
X270517Y22036D01*
X270066Y22223D01*
X269589Y22377D01*
X269086Y22496D01*
X268558Y22581D01*
X268003Y22633D01*
X267422Y22650D01*
Y23650D01*
X268003Y23667D01*
X268558Y23718D01*
X269086Y23803D01*
X269589Y23922D01*
X270066Y24076D01*
X270517Y24263D01*
X270942Y24485D01*
X271341Y24741D01*
X271715Y25030D01*
X272062Y25354D01*
Y20945D01*
D02*
G37*
D14*
X136039Y23150D02*
X141732D01*
X93505Y65684D02*
X136039Y23150D01*
X93505Y65684D02*
Y184197D01*
X93351Y184350D02*
X93505Y184197D01*
X115684Y63150D02*
X141732D01*
X103479Y75355D02*
Y177833D01*
Y75355D02*
X115684Y63150D01*
X126163Y83669D02*
X141213D01*
X141732Y83150D01*
X114075Y95758D02*
Y103789D01*
Y95758D02*
X126163Y83669D01*
X141732Y133150D02*
X149784D01*
X172382Y155748D02*
Y214567D01*
X149784Y133150D02*
X172382Y155748D01*
X114724Y113150D02*
X141732D01*
X114719Y113145D02*
X114724Y113150D01*
X114719Y113145D02*
X114719D01*
X114075Y113789D02*
X114719Y113145D01*
X113465Y73150D02*
X141732D01*
X112303Y74311D02*
X113465Y73150D01*
X114222Y53150D02*
X141732D01*
X98499Y68873D02*
X114222Y53150D01*
X98499Y68873D02*
Y179897D01*
X104232Y185630D01*
X121604D01*
X131275Y195301D01*
Y210049D01*
X123166Y218158D02*
X131275Y210049D01*
X123166Y218158D02*
Y233527D01*
X111490Y245202D02*
X123166Y233527D01*
X87980Y245202D02*
X111490D01*
X351142Y92028D02*
X390903D01*
X404328Y83883D02*
Y88287D01*
X381693D02*
X396966D01*
Y93405D02*
Y98484D01*
X397202Y98721D01*
X404328Y93405D02*
Y98878D01*
X404190Y99016D02*
X404328Y98878D01*
Y99154D02*
Y104464D01*
X404190Y104601D02*
X404328Y104464D01*
X390903Y98721D02*
X397202D01*
X404190Y99016D02*
X404328Y99154D01*
X397202Y98721D02*
X397497Y99016D01*
X334154Y84842D02*
Y90158D01*
Y84842D02*
X337106Y81890D01*
X366194D01*
X372591Y88287D01*
X381693D01*
X404328Y83883D02*
X404357Y83854D01*
Y78714D02*
Y83854D01*
Y78714D02*
X404528Y78543D01*
X350984Y91870D02*
X351142Y92028D01*
X66339Y59055D02*
X71595Y64311D01*
X54429Y59055D02*
X66339D01*
X71595Y64311D02*
X84449D01*
X54429Y59055D02*
X54429Y59055D01*
X38091Y59055D02*
X54429D01*
X402709Y40275D02*
Y53688D01*
Y40275D02*
X403051Y39934D01*
X402658Y53740D02*
X402709Y53688D01*
X383366Y39934D02*
Y50566D01*
X373339Y60593D02*
Y66724D01*
Y60593D02*
X383366Y50566D01*
X328051Y39665D02*
Y53744D01*
X325889Y55905D02*
X328051Y53744D01*
X320571Y55905D02*
X325889D01*
X347736Y39665D02*
Y52928D01*
X300528Y310037D02*
Y314663D01*
X299644Y63622D02*
X303147D01*
X303155Y63614D02*
X305376D01*
X305384Y63622D01*
X303147D02*
X303155Y63614D01*
X305384Y63622D02*
X310335D01*
X297578Y65688D02*
X299644Y63622D01*
X297578Y65688D02*
Y73268D01*
X297441Y93405D02*
Y104921D01*
X288959Y83268D02*
X297578D01*
X286400Y80709D02*
X288959Y83268D01*
X297441Y93405D02*
X297578Y93268D01*
X286400Y50334D02*
Y80709D01*
X279216Y43150D02*
X286400Y50334D01*
X241732Y43150D02*
X279216D01*
X318504Y101132D02*
Y112598D01*
Y101132D02*
X318652Y100984D01*
X76880Y139971D02*
X84970D01*
X85236Y143819D02*
Y146653D01*
X84970Y139971D02*
X85236Y140236D01*
X83189Y148701D02*
Y152333D01*
Y148701D02*
X85236Y146653D01*
X310488Y104921D02*
X314425Y100984D01*
X304921Y104921D02*
X310488D01*
X314425Y100984D02*
X318652D01*
X320177Y89961D02*
X326476D01*
X326673Y90158D01*
X326624Y90207D02*
X326673Y90158D01*
X326624Y90207D02*
Y97244D01*
X334154Y90158D02*
Y101526D01*
X330955Y104724D02*
X334154Y101526D01*
X326624Y104724D02*
X330955D01*
X83189Y152333D02*
X83320Y152202D01*
X89473D01*
X56004Y163091D02*
X57776Y164862D01*
Y168799D01*
X264665Y237763D02*
X264886Y237984D01*
X273318D01*
X129250Y223801D02*
Y226053D01*
X131821Y221230D02*
X135925D01*
X129250Y223801D02*
X131821Y221230D01*
X40059Y263779D02*
Y283957D01*
X243504Y280610D02*
X243701Y280807D01*
X222441Y280610D02*
X243504D01*
X117791Y282161D02*
X122671D01*
X116240Y280610D02*
X117791Y282161D01*
X293425Y335314D02*
X293835Y334904D01*
X127854Y334646D02*
X128228Y334272D01*
X329626Y112500D02*
Y131201D01*
X326624Y109498D02*
X329626Y112500D01*
X326624Y104724D02*
Y109498D01*
X323721Y229626D02*
X328937D01*
X329035Y229528D01*
X318012Y236122D02*
X323721D01*
X317913Y236221D02*
X318012Y236122D01*
X392207Y66831D02*
X397835D01*
X378457Y66724D02*
X384620D01*
X384727Y66831D01*
X397933Y146457D02*
X416142D01*
X397736Y146653D02*
X397933Y146457D01*
X269724Y93150D02*
X374370Y197795D01*
X395079D01*
X241732Y93150D02*
X269724D01*
X375646Y120276D02*
X391392D01*
X367240Y111870D02*
X375646Y120276D01*
X350984Y111870D02*
X367240D01*
X386024Y126476D02*
X397441D01*
X397736Y126772D01*
X385531Y126969D02*
X386024Y126476D01*
X397736Y126772D02*
X404331D01*
X397736Y134252D02*
Y141535D01*
X404331Y126772D02*
Y126772D01*
X416142D02*
X416142Y126772D01*
X404331Y126772D02*
X416142D01*
X395079Y197795D02*
Y204527D01*
X395669Y210630D02*
X416339D01*
X395079Y211221D02*
X395669Y210630D01*
X222264Y297657D02*
X239961Y315354D01*
X222264Y286250D02*
Y297657D01*
X239961Y315354D02*
X250394D01*
X215748Y280610D02*
Y286250D01*
X142421Y215256D02*
Y221230D01*
Y215256D02*
X142520Y215158D01*
X347736Y52928D02*
Y59055D01*
X402658Y53740D02*
Y55351D01*
X397835Y60174D02*
X402658Y55351D01*
X320472Y62697D02*
X320571Y62598D01*
X311268Y62689D02*
X316429D01*
X316437Y62697D01*
X320472D01*
X310335Y63622D02*
X311268Y62689D01*
X310335Y73622D02*
X333169D01*
X319912Y83533D02*
X320177Y83268D01*
X317762Y83533D02*
X319912D01*
X317673Y83622D02*
X317762Y83533D01*
X310335Y83622D02*
X317673D01*
X397835Y60174D02*
Y66831D01*
X333169Y73622D02*
X347736Y59055D01*
X125952Y178905D02*
X126181Y179134D01*
X125952Y172766D02*
Y178905D01*
X193602Y262500D02*
X195965Y264862D01*
Y269193D02*
X196274Y269502D01*
X203445Y259255D02*
Y269193D01*
X195965Y264862D02*
Y269193D01*
X191832Y254132D02*
X202822D01*
X190748Y255217D02*
X191832Y254132D01*
X202822Y258632D02*
X203445Y259255D01*
X190855Y245079D02*
X202768D01*
X190196Y244419D02*
X190855Y245079D01*
X202768D02*
X202822Y245132D01*
X241988Y72894D02*
X274055D01*
X241732Y73150D02*
X241988Y72894D01*
X241732Y53150D02*
X259842D01*
X241732Y83150D02*
X273799D01*
X231811Y133150D02*
X241732D01*
Y33150D02*
X274311D01*
X241988Y62894D02*
X274055D01*
X241732Y63150D02*
X241988Y62894D01*
X241732Y23150D02*
X274311D01*
X225335Y113150D02*
X241732D01*
X230906Y122244D02*
X240827D01*
X241732Y123150D01*
X192382Y160768D02*
Y214567D01*
Y160768D02*
X230906Y122244D01*
X182382Y156102D02*
Y214567D01*
Y156102D02*
X225335Y113150D01*
X274055Y62894D02*
X274311Y62638D01*
X202382Y162579D02*
Y214567D01*
Y162579D02*
X231811Y133150D01*
X273799Y83150D02*
X274311Y82638D01*
X273799Y53150D02*
X274311Y52638D01*
X259842Y53150D02*
X273799D01*
X259842Y53150D02*
X259842Y53150D01*
X274055Y72894D02*
X274311Y72638D01*
X125922Y155778D02*
X125952Y155748D01*
X125922Y164336D02*
X125952Y164366D01*
X125922Y155778D02*
Y164336D01*
X125952Y150689D02*
X126378Y151115D01*
X122441Y150689D02*
X125952D01*
X76220Y140630D02*
X76880Y139971D01*
X76220Y140630D02*
Y151822D01*
X75502Y152540D02*
X76220Y151822D01*
X70583Y152540D02*
X75502D01*
X70564Y152560D02*
X70583Y152540D01*
X90256Y189665D02*
X100185D01*
X78813Y178223D02*
X90256Y189665D01*
X78813Y172601D02*
Y178223D01*
X65562Y176279D02*
X65920Y176637D01*
X57776Y176279D02*
X65562D01*
X26985Y292570D02*
Y307577D01*
Y292570D02*
X27362Y292192D01*
X392015Y78543D02*
X397835D01*
Y72687D02*
Y78543D01*
X404626Y72638D02*
X404867Y72397D01*
Y67170D02*
Y72397D01*
X404528Y66831D02*
X404867Y67170D01*
X121535Y299045D02*
Y314308D01*
Y299045D02*
X122671Y297909D01*
X123455Y296328D02*
X180328D01*
X122273Y297511D02*
X123455Y296328D01*
X272441Y151969D02*
Y152461D01*
Y151969D02*
X282776D01*
X288878Y145374D02*
X288976Y145276D01*
X282874Y145374D02*
X288878D01*
X282776Y151969D02*
X282874Y151870D01*
D20*
X106551Y277887D02*
D03*
X73362D02*
D03*
X165689Y366437D02*
D03*
X198878D02*
D03*
X329862Y364862D02*
D03*
X363051D02*
D03*
D21*
X250394Y287402D02*
D03*
Y315354D02*
D03*
D22*
X180328Y296328D02*
D03*
Y335305D02*
D03*
X346654Y294980D02*
D03*
Y333957D02*
D03*
D23*
X287142Y314958D02*
D03*
X293835D02*
D03*
X300528D02*
D03*
X307221D02*
D03*
X280449D02*
D03*
X121535Y314308D02*
D03*
X128228D02*
D03*
X134921D02*
D03*
X141614D02*
D03*
X114842D02*
D03*
D24*
X396966Y93405D02*
D03*
Y88287D02*
D03*
X404328Y93405D02*
D03*
Y90847D02*
D03*
Y88287D02*
D03*
D25*
X27362Y283792D02*
D03*
Y292192D02*
D03*
X264665Y237763D02*
D03*
Y229363D02*
D03*
X125952Y172766D02*
D03*
Y164366D02*
D03*
D26*
X65920Y176637D02*
D03*
Y168566D02*
D03*
D27*
X78813Y172601D02*
D03*
D28*
X323721Y236122D02*
D03*
Y229626D02*
D03*
X282874Y145374D02*
D03*
Y151870D02*
D03*
D29*
X215768Y286250D02*
D03*
X222264D02*
D03*
X142421Y221230D02*
D03*
X135925D02*
D03*
D30*
X253150Y150984D02*
D03*
Y145866D02*
D03*
X261417Y150886D02*
D03*
Y145768D02*
D03*
X397736Y146653D02*
D03*
Y141535D02*
D03*
X130610Y145571D02*
D03*
Y150689D02*
D03*
X122441Y145571D02*
D03*
Y150689D02*
D03*
D31*
X347736Y55118D02*
D03*
X352854D02*
D03*
X373339Y66724D02*
D03*
X378457D02*
D03*
X190748Y255217D02*
D03*
X185630D02*
D03*
X190196Y244419D02*
D03*
X185078D02*
D03*
D32*
X102635Y301659D02*
D03*
Y307958D02*
D03*
D33*
X76880Y139971D02*
D03*
X58848D02*
D03*
D34*
X202822Y258632D02*
D03*
Y254132D02*
D03*
Y245132D02*
D03*
Y240632D02*
D03*
D35*
X233022Y249632D02*
D03*
D36*
X334154Y90158D02*
D03*
X326673D02*
D03*
X83189Y152333D02*
D03*
X75708D02*
D03*
X70564Y152560D02*
D03*
X63083D02*
D03*
X384727Y66831D02*
D03*
X392207D02*
D03*
X195965Y269193D02*
D03*
X203445D02*
D03*
X118701Y179134D02*
D03*
X126181D02*
D03*
X304921Y104921D02*
D03*
X297441D02*
D03*
D37*
X397736Y134252D02*
D03*
Y126772D02*
D03*
X57776Y168799D02*
D03*
Y176279D02*
D03*
X273318Y237984D02*
D03*
Y230504D02*
D03*
D38*
X320571Y62598D02*
D03*
Y55905D02*
D03*
X395079Y204527D02*
D03*
Y211221D02*
D03*
Y191102D02*
D03*
Y197795D02*
D03*
X320177Y83268D02*
D03*
Y89961D02*
D03*
X385531Y120276D02*
D03*
Y126969D02*
D03*
X390903Y92028D02*
D03*
Y98721D02*
D03*
X317913Y229528D02*
D03*
Y236221D02*
D03*
X34252Y290748D02*
D03*
Y284055D02*
D03*
X40059Y283957D02*
D03*
Y290650D02*
D03*
X288976Y145276D02*
D03*
Y151969D02*
D03*
X318504Y119291D02*
D03*
Y112598D02*
D03*
D39*
X404528Y66831D02*
D03*
X397835D02*
D03*
X404528Y72687D02*
D03*
X397835D02*
D03*
X404528Y78543D02*
D03*
X397835D02*
D03*
X398085Y120276D02*
D03*
X391392D02*
D03*
X385322Y78543D02*
D03*
X392015D02*
D03*
X404190Y99016D02*
D03*
X397497D02*
D03*
X404190Y104601D02*
D03*
X397497D02*
D03*
X222441Y280610D02*
D03*
X215748D02*
D03*
X135827Y215158D02*
D03*
X142520D02*
D03*
D40*
X85236Y140236D02*
D03*
Y143819D02*
D03*
D41*
X122671Y297909D02*
D03*
Y282161D02*
D03*
X290453Y295374D02*
D03*
Y279626D02*
D03*
D42*
X326624Y97244D02*
D03*
Y104724D02*
D03*
X318652Y100984D02*
D03*
D43*
X402658Y53740D02*
D03*
X406595D02*
D03*
D44*
X404331Y126772D02*
D03*
Y122835D02*
D03*
D72*
X241732Y153150D02*
D03*
Y143150D02*
D03*
Y133150D02*
D03*
Y123150D02*
D03*
Y113150D02*
D03*
Y103150D02*
D03*
Y93150D02*
D03*
Y83150D02*
D03*
Y73150D02*
D03*
Y63150D02*
D03*
Y53150D02*
D03*
Y43150D02*
D03*
Y33150D02*
D03*
Y23150D02*
D03*
Y13150D02*
D03*
X141732D02*
D03*
Y23150D02*
D03*
Y33150D02*
D03*
Y43150D02*
D03*
Y53150D02*
D03*
Y63150D02*
D03*
Y73150D02*
D03*
Y83150D02*
D03*
Y93150D02*
D03*
Y103150D02*
D03*
Y113150D02*
D03*
Y123150D02*
D03*
Y133150D02*
D03*
Y143150D02*
D03*
Y153150D02*
D03*
D77*
X439665Y15650D02*
D03*
X19539Y375984D02*
D03*
X438976Y378839D02*
D03*
D82*
X293843Y352163D02*
D03*
X128236Y351513D02*
D03*
D83*
X67864Y113789D02*
D03*
D84*
X141732Y153150D02*
X162382Y173799D01*
Y214567D01*
X290533Y279596D02*
X290563Y279626D01*
X107734Y301659D02*
X107764Y301689D01*
D85*
X199968Y229363D02*
X264665D01*
X193996Y235335D02*
X199968Y229363D01*
X264665Y208850D02*
Y228883D01*
D86*
X290563Y279626D02*
X296850D01*
X285353Y279626D02*
X290453D01*
X97454Y301689D02*
X102554D01*
X102635Y301659D02*
X107734D01*
D87*
X293835Y314958D02*
Y334904D01*
X128228Y314308D02*
Y334272D01*
D88*
X34407Y290903D02*
X39805D01*
X40059Y290650D01*
X34252Y290748D02*
X34407Y290903D01*
X27251Y283792D02*
X33989D01*
X34252Y284055D01*
X26101Y282642D02*
X27251Y283792D01*
D89*
X416339Y230315D02*
D03*
Y210630D02*
D03*
X347736Y39665D02*
D03*
X328051D02*
D03*
X38091Y39370D02*
D03*
Y59055D02*
D03*
X104921Y39173D02*
D03*
X85236D02*
D03*
X38386Y113878D02*
D03*
X403051Y39934D02*
D03*
X416142Y146457D02*
D03*
X38878Y173130D02*
D03*
X39272Y230315D02*
D03*
X389970Y355850D02*
D03*
X39224Y318110D02*
D03*
X232087Y355905D02*
D03*
D90*
X416339Y190945D02*
D03*
X38091Y78740D02*
D03*
X38386Y133563D02*
D03*
X416142Y126772D02*
D03*
X38878Y192815D02*
D03*
X39272Y250000D02*
D03*
X39224Y337795D02*
D03*
D91*
X308366Y39665D02*
D03*
X65551Y39173D02*
D03*
X383366Y39934D02*
D03*
X409655Y355850D02*
D03*
X251772Y355905D02*
D03*
D92*
X82087Y319390D02*
D03*
Y339075D02*
D03*
D93*
X172382Y214567D02*
D03*
X182382D02*
D03*
X192382D02*
D03*
X202382D02*
D03*
X212382D02*
D03*
X274311Y52638D02*
D03*
Y62638D02*
D03*
Y72638D02*
D03*
X350984Y111870D02*
D03*
Y101870D02*
D03*
X297578Y73268D02*
D03*
Y83268D02*
D03*
X84449Y64311D02*
D03*
Y74311D02*
D03*
X310335Y83622D02*
D03*
Y73622D02*
D03*
X144193Y259252D02*
D03*
Y249252D02*
D03*
X158858Y259252D02*
D03*
Y249252D02*
D03*
X264665Y208850D02*
D03*
X274665D02*
D03*
X312972Y209012D02*
D03*
X322972D02*
D03*
X272441Y162461D02*
D03*
X112303Y164035D02*
D03*
X114075Y103789D02*
D03*
X274311Y23150D02*
D03*
D94*
X162382Y214567D02*
D03*
X284665Y208850D02*
D03*
X332972Y209012D02*
D03*
D95*
X274311Y82638D02*
D03*
X350984Y91870D02*
D03*
X297578Y93268D02*
D03*
X84449Y84311D02*
D03*
X310335Y63622D02*
D03*
X144193Y239252D02*
D03*
X158858D02*
D03*
X272441Y152461D02*
D03*
X112303Y154035D02*
D03*
X114075Y113789D02*
D03*
X274311Y33150D02*
D03*
D96*
X381037Y78106D02*
D03*
X8990Y7240D02*
D03*
X20801D02*
D03*
X8990Y19051D02*
D03*
X20801D02*
D03*
X87980Y245202D02*
D03*
X110138Y80216D02*
D03*
X116929Y58150D02*
D03*
X141732Y180610D02*
D03*
X154331Y202658D02*
D03*
X154035Y209941D02*
D03*
X209071Y221850D02*
D03*
X196828D02*
D03*
X187008D02*
D03*
X162382D02*
D03*
X174902D02*
D03*
X133006Y37257D02*
D03*
X130610Y48150D02*
D03*
X127101Y58150D02*
D03*
X383331Y318352D02*
D03*
X379677Y315053D02*
D03*
X375801Y311598D02*
D03*
X386344Y322370D02*
D03*
X389237Y325263D02*
D03*
X392446Y328157D02*
D03*
X382390Y327784D02*
D03*
X378695Y324318D02*
D03*
X375457Y321109D02*
D03*
X393237Y343039D02*
D03*
X386248D02*
D03*
X393237Y337724D02*
D03*
X386248D02*
D03*
X393237Y332409D02*
D03*
X386248D02*
D03*
X223377Y323562D02*
D03*
X219791Y320129D02*
D03*
X216339Y316732D02*
D03*
X213287Y313386D02*
D03*
X209599Y310924D02*
D03*
X222264Y332087D02*
D03*
X218602Y328740D02*
D03*
X214469Y324606D02*
D03*
X210359Y321075D02*
D03*
X205118Y317913D02*
D03*
Y310924D02*
D03*
X199803Y317913D02*
D03*
Y310924D02*
D03*
X194488Y317913D02*
D03*
Y310924D02*
D03*
X189173Y317913D02*
D03*
Y310924D02*
D03*
X183858Y317913D02*
D03*
Y310924D02*
D03*
X178543Y317913D02*
D03*
Y310924D02*
D03*
X173228Y317913D02*
D03*
Y310924D02*
D03*
X167913Y317913D02*
D03*
Y310924D02*
D03*
X162598Y317913D02*
D03*
Y310924D02*
D03*
X157283Y317913D02*
D03*
Y310924D02*
D03*
X371457Y318110D02*
D03*
Y311121D02*
D03*
X366142Y318110D02*
D03*
Y311121D02*
D03*
X360827Y318110D02*
D03*
Y311121D02*
D03*
X355512Y318110D02*
D03*
Y311121D02*
D03*
X350197Y318110D02*
D03*
Y311121D02*
D03*
X344882Y318110D02*
D03*
Y311121D02*
D03*
X339567Y318110D02*
D03*
Y311121D02*
D03*
X334252Y318110D02*
D03*
Y311121D02*
D03*
X328937Y318110D02*
D03*
Y311121D02*
D03*
X323622D02*
D03*
X318307D02*
D03*
X323622Y318110D02*
D03*
X318307D02*
D03*
X7480Y275197D02*
D03*
X20801Y276181D02*
D03*
X32612D02*
D03*
X44423Y277157D02*
D03*
X440093Y361571D02*
D03*
X445998Y349760D02*
D03*
X440093Y337949D02*
D03*
X445998Y326138D02*
D03*
X440093Y314327D02*
D03*
X445998Y302516D02*
D03*
X440093Y290704D02*
D03*
X445998Y278893D02*
D03*
X440093Y267083D02*
D03*
X445998Y255272D02*
D03*
X440093Y243460D02*
D03*
X445998Y231649D02*
D03*
X440093Y219838D02*
D03*
X445998Y208027D02*
D03*
X440093Y196216D02*
D03*
X445998Y184405D02*
D03*
X440093Y172594D02*
D03*
X445998Y160783D02*
D03*
X440093Y148972D02*
D03*
X445998Y137161D02*
D03*
X440093Y125350D02*
D03*
X445998Y113539D02*
D03*
X440093Y101728D02*
D03*
X445998Y89917D02*
D03*
X440093Y78106D02*
D03*
X445998Y66295D02*
D03*
X440093Y54484D02*
D03*
X445998Y42673D02*
D03*
X440093Y30862D02*
D03*
X428281Y361571D02*
D03*
X434187Y349760D02*
D03*
X428281Y337949D02*
D03*
X434187Y326138D02*
D03*
X428281Y314327D02*
D03*
X434187Y302516D02*
D03*
X428281Y290704D02*
D03*
X434187Y278893D02*
D03*
X428281Y267083D02*
D03*
X434187Y255272D02*
D03*
X428281Y243460D02*
D03*
X434187Y231649D02*
D03*
X428281Y219838D02*
D03*
X434187Y208027D02*
D03*
X428281Y196216D02*
D03*
X434187Y184405D02*
D03*
X428281Y172594D02*
D03*
X434187Y160783D02*
D03*
X428281Y148972D02*
D03*
X434187Y137161D02*
D03*
X428281Y125350D02*
D03*
X434187Y113539D02*
D03*
X428281Y101728D02*
D03*
X434187Y89917D02*
D03*
X428281Y78106D02*
D03*
X434187Y66295D02*
D03*
X428281Y54484D02*
D03*
X434187Y42673D02*
D03*
X428281Y30862D02*
D03*
Y7240D02*
D03*
X416470Y385193D02*
D03*
X422376Y373382D02*
D03*
X416470Y361571D02*
D03*
X422376Y349760D02*
D03*
X416470Y337949D02*
D03*
X422376Y278893D02*
D03*
X416470Y267083D02*
D03*
X422376Y255272D02*
D03*
X416470Y243460D02*
D03*
Y219838D02*
D03*
X422376Y184405D02*
D03*
X416470Y172594D02*
D03*
X422376Y160783D02*
D03*
Y137161D02*
D03*
Y113539D02*
D03*
X416470Y101728D02*
D03*
X422376Y89917D02*
D03*
X416470Y78106D02*
D03*
X422376Y66295D02*
D03*
X416470Y54484D02*
D03*
X422376Y42673D02*
D03*
X416470Y30862D02*
D03*
X422376Y19051D02*
D03*
X416470Y7240D02*
D03*
X410565Y373382D02*
D03*
Y255272D02*
D03*
X404660Y243460D02*
D03*
Y219838D02*
D03*
Y196216D02*
D03*
X410565Y184405D02*
D03*
X404660Y172594D02*
D03*
X410565Y160783D02*
D03*
Y137161D02*
D03*
Y113539D02*
D03*
Y89917D02*
D03*
Y66295D02*
D03*
Y42673D02*
D03*
X404660Y30862D02*
D03*
X410565Y19051D02*
D03*
X404660Y7240D02*
D03*
X398754Y255272D02*
D03*
X392848Y243460D02*
D03*
X398754Y231649D02*
D03*
X392848Y219838D02*
D03*
X398754Y184405D02*
D03*
X392848Y172594D02*
D03*
X398754Y160783D02*
D03*
X392848Y148972D02*
D03*
X398754Y113539D02*
D03*
X392848Y54484D02*
D03*
Y30862D02*
D03*
X398754Y19051D02*
D03*
X392848Y7240D02*
D03*
X386943Y255272D02*
D03*
X381037Y243460D02*
D03*
X386943Y231649D02*
D03*
X381037Y219838D02*
D03*
X386943Y208027D02*
D03*
Y184405D02*
D03*
X381037Y172594D02*
D03*
X386943Y160783D02*
D03*
X381037Y148972D02*
D03*
X386943Y137161D02*
D03*
X381037Y125350D02*
D03*
X386943Y113539D02*
D03*
X381037Y101728D02*
D03*
Y30862D02*
D03*
X386943Y19051D02*
D03*
X381037Y7240D02*
D03*
X375132Y255272D02*
D03*
X369226Y243460D02*
D03*
X375132Y231649D02*
D03*
X369226Y219838D02*
D03*
X375132Y208027D02*
D03*
Y184405D02*
D03*
X369226Y172594D02*
D03*
X375132Y160783D02*
D03*
X369226Y148972D02*
D03*
X375132Y137161D02*
D03*
X369226Y125350D02*
D03*
X375132Y113539D02*
D03*
X369226Y101728D02*
D03*
Y78106D02*
D03*
Y54484D02*
D03*
X375132Y42673D02*
D03*
X369226Y30862D02*
D03*
X375132Y19051D02*
D03*
X369226Y7240D02*
D03*
X363321Y255272D02*
D03*
X357415Y243460D02*
D03*
X363321Y231649D02*
D03*
X357415Y219838D02*
D03*
X363321Y208027D02*
D03*
X357415Y196216D02*
D03*
Y172594D02*
D03*
X363321Y160783D02*
D03*
X357415Y148972D02*
D03*
X363321Y137161D02*
D03*
X357415Y125350D02*
D03*
Y101728D02*
D03*
Y78106D02*
D03*
X363321Y66295D02*
D03*
X357415Y54484D02*
D03*
X363321Y42673D02*
D03*
X357415Y30862D02*
D03*
X363321Y19051D02*
D03*
X357415Y7240D02*
D03*
X351510Y255272D02*
D03*
X345604Y243460D02*
D03*
X351510Y231649D02*
D03*
X345604Y219838D02*
D03*
X351510Y208027D02*
D03*
X345604Y196216D02*
D03*
X351510Y184405D02*
D03*
Y160783D02*
D03*
X345604Y148972D02*
D03*
X351510Y137161D02*
D03*
X345604Y125350D02*
D03*
Y78106D02*
D03*
X351510Y66295D02*
D03*
X345604Y30862D02*
D03*
X351510Y19051D02*
D03*
X345604Y7240D02*
D03*
X339699Y255272D02*
D03*
X333793Y243460D02*
D03*
X339699Y231649D02*
D03*
X333793Y219838D02*
D03*
X339699Y208027D02*
D03*
X333793Y196216D02*
D03*
X339699Y184405D02*
D03*
X333793Y172594D02*
D03*
Y148972D02*
D03*
X339699Y137161D02*
D03*
X333793Y125350D02*
D03*
X339699Y113539D02*
D03*
Y89917D02*
D03*
X333793Y78106D02*
D03*
Y54484D02*
D03*
X339699Y42673D02*
D03*
X333793Y30862D02*
D03*
X339699Y19051D02*
D03*
X333793Y7240D02*
D03*
X327888Y255272D02*
D03*
X321982Y243460D02*
D03*
Y219838D02*
D03*
Y196216D02*
D03*
X327888Y184405D02*
D03*
X321982Y172594D02*
D03*
X327888Y160783D02*
D03*
X321982Y125350D02*
D03*
Y78106D02*
D03*
X327888Y66295D02*
D03*
X321982Y30862D02*
D03*
X327888Y19051D02*
D03*
X321982Y7240D02*
D03*
X316077Y255272D02*
D03*
X310171Y243460D02*
D03*
Y219838D02*
D03*
Y196216D02*
D03*
X316077Y184405D02*
D03*
Y160783D02*
D03*
X310171Y148972D02*
D03*
Y125350D02*
D03*
X316077Y89917D02*
D03*
Y66295D02*
D03*
X310171Y54484D02*
D03*
X316077Y42673D02*
D03*
X310171Y30862D02*
D03*
X316077Y19051D02*
D03*
X310171Y7240D02*
D03*
X304266Y255272D02*
D03*
X298360Y243460D02*
D03*
X304266Y231649D02*
D03*
X298360Y219838D02*
D03*
X304266Y208027D02*
D03*
X298360Y196216D02*
D03*
X304266Y184405D02*
D03*
X298360Y172594D02*
D03*
X304266Y160783D02*
D03*
X298360Y148972D02*
D03*
X304266Y137161D02*
D03*
Y113539D02*
D03*
Y89917D02*
D03*
Y66295D02*
D03*
X298360Y54484D02*
D03*
Y30862D02*
D03*
X304266Y19051D02*
D03*
X298360Y7240D02*
D03*
X292455Y255272D02*
D03*
X286549Y243460D02*
D03*
X292455Y231649D02*
D03*
X286549Y219838D02*
D03*
X292455Y208027D02*
D03*
Y184405D02*
D03*
X286549Y172594D02*
D03*
X292455Y160783D02*
D03*
Y137161D02*
D03*
X286549Y125350D02*
D03*
X292455Y66295D02*
D03*
Y42673D02*
D03*
X286549Y30862D02*
D03*
X292455Y19051D02*
D03*
X286549Y7240D02*
D03*
X280644Y255272D02*
D03*
X274738Y243460D02*
D03*
X280644Y231649D02*
D03*
X274738Y219838D02*
D03*
Y196216D02*
D03*
X280644Y184405D02*
D03*
X274738Y172594D02*
D03*
X280644Y160783D02*
D03*
Y137161D02*
D03*
X274738Y125350D02*
D03*
X280644Y113539D02*
D03*
Y89917D02*
D03*
Y66295D02*
D03*
Y19051D02*
D03*
X274738Y7240D02*
D03*
X268833Y255272D02*
D03*
X262927Y243460D02*
D03*
Y196216D02*
D03*
X268833Y184405D02*
D03*
X262927Y172594D02*
D03*
X268833Y137161D02*
D03*
X262927Y125350D02*
D03*
X268833Y113539D02*
D03*
Y89917D02*
D03*
X262927Y78106D02*
D03*
X268833Y66295D02*
D03*
Y19051D02*
D03*
X262927Y7240D02*
D03*
X257022Y255272D02*
D03*
X251116Y243460D02*
D03*
Y219838D02*
D03*
X257022Y208027D02*
D03*
X251116Y196216D02*
D03*
X257022Y184405D02*
D03*
X251116Y172594D02*
D03*
X257022Y160783D02*
D03*
Y137161D02*
D03*
X251116Y125350D02*
D03*
X257022Y113539D02*
D03*
Y89917D02*
D03*
X251116Y78106D02*
D03*
X257022Y66295D02*
D03*
Y19051D02*
D03*
X251116Y7240D02*
D03*
X239305Y219838D02*
D03*
X245211Y208027D02*
D03*
X239305Y196216D02*
D03*
X245211Y184405D02*
D03*
X239305Y172594D02*
D03*
X245211Y160783D02*
D03*
X239305Y7240D02*
D03*
X227494Y219838D02*
D03*
X233400Y208027D02*
D03*
X227494Y196216D02*
D03*
X233400Y184405D02*
D03*
X227494Y172594D02*
D03*
X233400Y160783D02*
D03*
X227494Y148972D02*
D03*
X233400Y137161D02*
D03*
X227494Y101728D02*
D03*
X233400Y89917D02*
D03*
X227494Y78106D02*
D03*
X233400Y66295D02*
D03*
X227494Y54484D02*
D03*
X233400Y42673D02*
D03*
X227494Y30862D02*
D03*
X233400Y19051D02*
D03*
X227494Y7240D02*
D03*
X215683Y243460D02*
D03*
X221589Y208027D02*
D03*
X215683Y196216D02*
D03*
X221589Y184405D02*
D03*
X215683Y172594D02*
D03*
X221589Y160783D02*
D03*
Y137161D02*
D03*
X215683Y101728D02*
D03*
X221589Y89917D02*
D03*
X215683Y78106D02*
D03*
X221589Y66295D02*
D03*
X215683Y54484D02*
D03*
X221589Y42673D02*
D03*
X215683Y30862D02*
D03*
X221589Y19051D02*
D03*
X215683Y7240D02*
D03*
X209778Y208027D02*
D03*
Y184405D02*
D03*
Y160783D02*
D03*
Y137161D02*
D03*
X203872Y125350D02*
D03*
X209778Y113539D02*
D03*
X203872Y101728D02*
D03*
X209778Y89917D02*
D03*
X203872Y78106D02*
D03*
X209778Y66295D02*
D03*
X203872Y54484D02*
D03*
X209778Y42673D02*
D03*
X203872Y30862D02*
D03*
X209778Y19051D02*
D03*
X203872Y7240D02*
D03*
X197967Y208027D02*
D03*
Y184405D02*
D03*
Y160783D02*
D03*
X192061Y125350D02*
D03*
X197967Y113539D02*
D03*
X192061Y101728D02*
D03*
X197967Y89917D02*
D03*
X192061Y78106D02*
D03*
X197967Y66295D02*
D03*
X192061Y54484D02*
D03*
X197967Y42673D02*
D03*
X192061Y30862D02*
D03*
X197967Y19051D02*
D03*
X192061Y7240D02*
D03*
X186156Y208027D02*
D03*
Y184405D02*
D03*
Y160783D02*
D03*
X180250Y148972D02*
D03*
X186156Y137161D02*
D03*
X180250Y125350D02*
D03*
X186156Y113539D02*
D03*
X180250Y101728D02*
D03*
X186156Y89917D02*
D03*
X180250Y78106D02*
D03*
X186156Y66295D02*
D03*
X180250Y54484D02*
D03*
X186156Y42673D02*
D03*
X180250Y30862D02*
D03*
X186156Y19051D02*
D03*
X180250Y7240D02*
D03*
X168439Y243460D02*
D03*
Y196216D02*
D03*
Y172594D02*
D03*
X174345Y137161D02*
D03*
X168439Y125350D02*
D03*
X174345Y113539D02*
D03*
X168439Y101728D02*
D03*
X174345Y89917D02*
D03*
X168439Y78106D02*
D03*
X174345Y66295D02*
D03*
X168439Y54484D02*
D03*
X174345Y42673D02*
D03*
X168439Y30862D02*
D03*
X174345Y19051D02*
D03*
X168439Y7240D02*
D03*
X156628Y219838D02*
D03*
Y196216D02*
D03*
Y172594D02*
D03*
X162534Y160783D02*
D03*
X156628Y148972D02*
D03*
X162534Y137161D02*
D03*
X156628Y125350D02*
D03*
X162534Y113539D02*
D03*
X156628Y101728D02*
D03*
X162534Y89917D02*
D03*
X156628Y78106D02*
D03*
X162534Y66295D02*
D03*
X156628Y54484D02*
D03*
X162534Y42673D02*
D03*
X156628Y30862D02*
D03*
X162534Y19051D02*
D03*
X156628Y7240D02*
D03*
X150723Y184405D02*
D03*
X144817Y172594D02*
D03*
X150723Y113539D02*
D03*
Y89917D02*
D03*
Y66295D02*
D03*
Y42673D02*
D03*
Y19051D02*
D03*
X144817Y7240D02*
D03*
X138911Y255272D02*
D03*
X133006Y243460D02*
D03*
X138911Y208027D02*
D03*
X133006Y78106D02*
D03*
Y30862D02*
D03*
Y7240D02*
D03*
X127101Y255272D02*
D03*
X121195Y243460D02*
D03*
X127101Y231649D02*
D03*
Y184405D02*
D03*
Y137161D02*
D03*
X121195Y125350D02*
D03*
Y101728D02*
D03*
X127101Y66295D02*
D03*
Y42673D02*
D03*
X121195Y30862D02*
D03*
X127101Y19051D02*
D03*
X121195Y7240D02*
D03*
X115289Y255272D02*
D03*
Y231649D02*
D03*
X109384Y219838D02*
D03*
Y172594D02*
D03*
X115289Y137161D02*
D03*
X109384Y125350D02*
D03*
X115289Y89917D02*
D03*
X109384Y30862D02*
D03*
X115289Y19051D02*
D03*
X109384Y7240D02*
D03*
X103479Y255272D02*
D03*
X97573Y30862D02*
D03*
X103479Y19051D02*
D03*
X97573Y7240D02*
D03*
X85762Y101728D02*
D03*
Y54484D02*
D03*
Y30862D02*
D03*
X91667Y19051D02*
D03*
X85762Y7240D02*
D03*
X79856Y349760D02*
D03*
X73951Y337949D02*
D03*
X79856Y89917D02*
D03*
X73951Y78106D02*
D03*
Y54484D02*
D03*
Y30862D02*
D03*
X79856Y19051D02*
D03*
X73951Y7240D02*
D03*
X68045Y349760D02*
D03*
X62140Y337949D02*
D03*
X68045Y66295D02*
D03*
X62140Y54484D02*
D03*
Y30862D02*
D03*
X68045Y19051D02*
D03*
X62140Y7240D02*
D03*
X56234Y349760D02*
D03*
X50329Y337949D02*
D03*
Y243460D02*
D03*
Y219838D02*
D03*
Y196216D02*
D03*
X56234Y184405D02*
D03*
X50329Y148972D02*
D03*
X56234Y66295D02*
D03*
X50329Y54484D02*
D03*
X56234Y42673D02*
D03*
X50329Y30862D02*
D03*
X56234Y19051D02*
D03*
X50329Y7240D02*
D03*
X38518Y385193D02*
D03*
Y361571D02*
D03*
X44423Y349760D02*
D03*
X38518Y267083D02*
D03*
Y219838D02*
D03*
X44423Y184405D02*
D03*
Y160783D02*
D03*
X38518Y148972D02*
D03*
X44423Y66295D02*
D03*
Y42673D02*
D03*
X38518Y30862D02*
D03*
X44423Y19051D02*
D03*
X38518Y7240D02*
D03*
X32612Y373382D02*
D03*
X26707Y361571D02*
D03*
X32612Y349760D02*
D03*
X26707Y337949D02*
D03*
Y267083D02*
D03*
X32612Y255272D02*
D03*
X26707Y243460D02*
D03*
Y219838D02*
D03*
X32612Y208027D02*
D03*
X26707Y196216D02*
D03*
X32612Y184405D02*
D03*
X26707Y172594D02*
D03*
X32612Y160783D02*
D03*
X26707Y148972D02*
D03*
X32612Y66295D02*
D03*
X26707Y54484D02*
D03*
Y30862D02*
D03*
X32612Y19051D02*
D03*
X14896Y361571D02*
D03*
X20801Y349760D02*
D03*
X14896Y337949D02*
D03*
Y267083D02*
D03*
X20801Y255272D02*
D03*
X14896Y243460D02*
D03*
X20801Y231649D02*
D03*
X14896Y219838D02*
D03*
X20801Y208027D02*
D03*
X14896Y196216D02*
D03*
X20801Y184405D02*
D03*
X14896Y172594D02*
D03*
X20801Y160783D02*
D03*
X14896Y148972D02*
D03*
X20801Y137161D02*
D03*
X14896Y125350D02*
D03*
X20801Y113539D02*
D03*
X14896Y101728D02*
D03*
X20801Y89917D02*
D03*
X14896Y78106D02*
D03*
X20801Y66295D02*
D03*
X14896Y54484D02*
D03*
X20801Y42673D02*
D03*
X14896Y30862D02*
D03*
X8990Y349760D02*
D03*
Y255272D02*
D03*
Y231649D02*
D03*
Y208027D02*
D03*
Y184405D02*
D03*
Y160783D02*
D03*
Y137161D02*
D03*
Y113539D02*
D03*
Y89917D02*
D03*
Y66295D02*
D03*
Y42673D02*
D03*
X112303Y74311D02*
D03*
X93351Y184350D02*
D03*
X192027Y239252D02*
D03*
X339699Y97244D02*
D03*
X341535Y53744D02*
D03*
X340453Y71457D02*
D03*
X311268Y95793D02*
D03*
X287303Y95079D02*
D03*
X361122Y87213D02*
D03*
X99186Y233957D02*
D03*
X89473Y152202D02*
D03*
X56004Y163091D02*
D03*
X89173D02*
D03*
X257755Y28688D02*
D03*
Y57611D02*
D03*
X291240Y108366D02*
D03*
X336909Y61811D02*
D03*
X103479Y177833D02*
D03*
X124583Y195025D02*
D03*
X119499Y194987D02*
D03*
X170374Y233836D02*
D03*
X177953Y238976D02*
D03*
X143494Y229831D02*
D03*
X129250Y226053D02*
D03*
X121504Y275255D02*
D03*
X296850Y279626D02*
D03*
X285323Y279596D02*
D03*
X97424Y301659D02*
D03*
X107764Y301689D02*
D03*
X116240Y280610D02*
D03*
Y276181D02*
D03*
X243701Y280807D02*
D03*
Y276870D02*
D03*
X247638D02*
D03*
X252658Y276780D02*
D03*
X256594Y280717D02*
D03*
Y276780D02*
D03*
X243701Y272933D02*
D03*
X247638D02*
D03*
X252658Y272843D02*
D03*
X256594D02*
D03*
Y285245D02*
D03*
Y289075D02*
D03*
X243701Y285335D02*
D03*
Y289164D02*
D03*
X260197Y354438D02*
D03*
Y358268D02*
D03*
X244449Y354438D02*
D03*
Y358268D02*
D03*
X146106Y310471D02*
D03*
Y319133D02*
D03*
X311713Y319783D02*
D03*
Y311121D02*
D03*
X244449Y370669D02*
D03*
X248386D02*
D03*
X252323D02*
D03*
X256260D02*
D03*
X260197D02*
D03*
X244449Y366732D02*
D03*
Y362795D02*
D03*
X248386Y366732D02*
D03*
X252323D02*
D03*
X256260D02*
D03*
X260197D02*
D03*
X248386Y362795D02*
D03*
X252323D02*
D03*
X256260D02*
D03*
X260197D02*
D03*
X322539Y379626D02*
D03*
X326476D02*
D03*
X330413D02*
D03*
X334350D02*
D03*
X338287D02*
D03*
X322539Y375689D02*
D03*
Y371752D02*
D03*
X326476Y375689D02*
D03*
X330413D02*
D03*
X334350D02*
D03*
X338287D02*
D03*
X326476Y371752D02*
D03*
X330413D02*
D03*
X334350D02*
D03*
X338287D02*
D03*
X174114Y373327D02*
D03*
X170177D02*
D03*
X166240D02*
D03*
X162303D02*
D03*
X174114Y377264D02*
D03*
X170177D02*
D03*
X166240D02*
D03*
X162303D02*
D03*
X158366Y373327D02*
D03*
Y377264D02*
D03*
X174114Y381201D02*
D03*
X170177D02*
D03*
X166240D02*
D03*
X162303D02*
D03*
X158366D02*
D03*
X275708Y370747D02*
D03*
Y364842D02*
D03*
Y358936D02*
D03*
Y353030D02*
D03*
Y347125D02*
D03*
Y341219D02*
D03*
Y335314D02*
D03*
X281613D02*
D03*
X287519D02*
D03*
X293425D02*
D03*
X299330D02*
D03*
X305236D02*
D03*
X311141D02*
D03*
Y341219D02*
D03*
X305236D02*
D03*
X299330D02*
D03*
X293425D02*
D03*
X287519D02*
D03*
X281613D02*
D03*
X311141Y347125D02*
D03*
X305236D02*
D03*
X299330D02*
D03*
X293425D02*
D03*
X287519D02*
D03*
X281613D02*
D03*
X311141Y353030D02*
D03*
X305236D02*
D03*
X299330D02*
D03*
X293425D02*
D03*
X287519D02*
D03*
X281613D02*
D03*
X311141Y358936D02*
D03*
X305236D02*
D03*
X299330D02*
D03*
X293425D02*
D03*
X287519D02*
D03*
X281613D02*
D03*
X311141Y364842D02*
D03*
X305236D02*
D03*
X299330D02*
D03*
X293425D02*
D03*
X287519D02*
D03*
X281613D02*
D03*
X311141Y370747D02*
D03*
X305236D02*
D03*
X299330D02*
D03*
X293425D02*
D03*
X287519D02*
D03*
X281613D02*
D03*
X78146Y191057D02*
D03*
X73019D02*
D03*
X82664Y250000D02*
D03*
X329626Y131201D02*
D03*
X329035Y229528D02*
D03*
X190058Y235335D02*
D03*
X193602Y262500D02*
D03*
X188583D02*
D03*
X193996Y235335D02*
D03*
X100185Y189665D02*
D03*
X109449Y226306D02*
D03*
X114075Y226285D02*
D03*
Y204276D02*
D03*
X300528Y314663D02*
D03*
X134921Y314308D02*
D03*
X116043Y370079D02*
D03*
X121949D02*
D03*
X127854D02*
D03*
X133760D02*
D03*
X139665D02*
D03*
X145571D02*
D03*
X116043Y364173D02*
D03*
X121949D02*
D03*
X127854D02*
D03*
X133760D02*
D03*
X139665D02*
D03*
X145571D02*
D03*
X116043Y358268D02*
D03*
X121949D02*
D03*
X127854D02*
D03*
X133760D02*
D03*
X139665D02*
D03*
X145571D02*
D03*
X116043Y352362D02*
D03*
X121949D02*
D03*
X127854D02*
D03*
X133760D02*
D03*
X139665D02*
D03*
X145571D02*
D03*
X116043Y346457D02*
D03*
X121949D02*
D03*
X127854D02*
D03*
X133760D02*
D03*
X139665D02*
D03*
X145571D02*
D03*
X116043Y340551D02*
D03*
X121949D02*
D03*
X127854D02*
D03*
X133760D02*
D03*
X139665D02*
D03*
X145571D02*
D03*
Y334646D02*
D03*
X139665D02*
D03*
X133760D02*
D03*
X127854D02*
D03*
X121949D02*
D03*
X116043D02*
D03*
X110138D02*
D03*
Y340551D02*
D03*
Y346457D02*
D03*
Y352362D02*
D03*
Y358268D02*
D03*
Y364173D02*
D03*
Y370079D02*
D03*
X103051Y205807D02*
D03*
X99836Y209022D02*
D03*
X74803Y229823D02*
D03*
X78146Y229831D02*
D03*
X99836Y215453D02*
D03*
X103051D02*
D03*
X93405D02*
D03*
X103051Y209022D02*
D03*
Y212238D02*
D03*
X99836Y205807D02*
D03*
Y212238D02*
D03*
X96621Y205807D02*
D03*
Y209022D02*
D03*
Y212238D02*
D03*
Y215453D02*
D03*
X93405Y209022D02*
D03*
Y212238D02*
D03*
Y205807D02*
D03*
X62121Y277887D02*
D03*
X84055D02*
D03*
X70341Y271867D02*
D03*
X76361D02*
D03*
X64320D02*
D03*
X82382D02*
D03*
X64320Y265846D02*
D03*
X70341D02*
D03*
X76361D02*
D03*
X82382D02*
D03*
M02*
