G04*
G04 #@! TF.GenerationSoftware,Altium Limited,Altium Designer,22.10.1 (41)*
G04*
G04 Layer_Color=255*
%FSLAX25Y25*%
%MOIN*%
G70*
G04*
G04 #@! TF.SameCoordinates,F8C157B4-DA96-4F04-9901-D09C045D4249*
G04*
G04*
G04 #@! TF.FilePolarity,Positive*
G04*
G01*
G75*
%ADD32R,0.03937X0.03740*%
%ADD36R,0.03150X0.05118*%
%ADD37R,0.05118X0.03150*%
%ADD72C,0.05800*%
%ADD77C,0.21654*%
%ADD89C,0.09449*%
G04:AMPARAMS|DCode=90|XSize=94.49mil|YSize=94.49mil|CornerRadius=23.62mil|HoleSize=0mil|Usage=FLASHONLY|Rotation=90.000|XOffset=0mil|YOffset=0mil|HoleType=Round|Shape=RoundedRectangle|*
%AMROUNDEDRECTD90*
21,1,0.09449,0.04724,0,0,90.0*
21,1,0.04724,0.09449,0,0,90.0*
1,1,0.04724,0.02362,0.02362*
1,1,0.04724,0.02362,-0.02362*
1,1,0.04724,-0.02362,-0.02362*
1,1,0.04724,-0.02362,0.02362*
%
%ADD90ROUNDEDRECTD90*%
G04:AMPARAMS|DCode=91|XSize=94.49mil|YSize=94.49mil|CornerRadius=23.62mil|HoleSize=0mil|Usage=FLASHONLY|Rotation=0.000|XOffset=0mil|YOffset=0mil|HoleType=Round|Shape=RoundedRectangle|*
%AMROUNDEDRECTD91*
21,1,0.09449,0.04724,0,0,0.0*
21,1,0.04724,0.09449,0,0,0.0*
1,1,0.04724,0.02362,-0.02362*
1,1,0.04724,-0.02362,-0.02362*
1,1,0.04724,-0.02362,0.02362*
1,1,0.04724,0.02362,0.02362*
%
%ADD91ROUNDEDRECTD91*%
%ADD92C,0.04331*%
%ADD93C,0.06299*%
%ADD94R,0.06299X0.06299*%
%ADD95R,0.06299X0.06299*%
%ADD105R,0.03740X0.03937*%
%ADD106R,0.02480X0.02323*%
%ADD107R,0.02323X0.02480*%
G04:AMPARAMS|DCode=108|XSize=37.8mil|YSize=10.63mil|CornerRadius=1.33mil|HoleSize=0mil|Usage=FLASHONLY|Rotation=180.000|XOffset=0mil|YOffset=0mil|HoleType=Round|Shape=RoundedRectangle|*
%AMROUNDEDRECTD108*
21,1,0.03780,0.00797,0,0,180.0*
21,1,0.03514,0.01063,0,0,180.0*
1,1,0.00266,-0.01757,0.00399*
1,1,0.00266,0.01757,0.00399*
1,1,0.00266,0.01757,-0.00399*
1,1,0.00266,-0.01757,-0.00399*
%
%ADD108ROUNDEDRECTD108*%
G04:AMPARAMS|DCode=109|XSize=37.8mil|YSize=10.63mil|CornerRadius=1.33mil|HoleSize=0mil|Usage=FLASHONLY|Rotation=270.000|XOffset=0mil|YOffset=0mil|HoleType=Round|Shape=RoundedRectangle|*
%AMROUNDEDRECTD109*
21,1,0.03780,0.00797,0,0,270.0*
21,1,0.03514,0.01063,0,0,270.0*
1,1,0.00266,-0.00399,-0.01757*
1,1,0.00266,-0.00399,0.01757*
1,1,0.00266,0.00399,0.01757*
1,1,0.00266,0.00399,-0.01757*
%
%ADD109ROUNDEDRECTD109*%
%ADD110R,0.12205X0.12205*%
D32*
X126673Y205610D02*
D03*
Y199311D02*
D03*
X120374Y205413D02*
D03*
Y199114D02*
D03*
Y227713D02*
D03*
Y221413D02*
D03*
D36*
X95460Y239252D02*
D03*
X87980D02*
D03*
D37*
X51703Y208921D02*
D03*
Y201441D02*
D03*
X51673Y173327D02*
D03*
Y180807D02*
D03*
X51870Y249803D02*
D03*
Y257283D02*
D03*
X50590Y225197D02*
D03*
Y232677D02*
D03*
D72*
X241732Y153150D02*
D03*
Y143150D02*
D03*
Y133150D02*
D03*
Y123150D02*
D03*
Y113150D02*
D03*
Y103150D02*
D03*
Y93150D02*
D03*
Y83150D02*
D03*
Y73150D02*
D03*
Y63150D02*
D03*
Y53150D02*
D03*
Y43150D02*
D03*
Y33150D02*
D03*
Y23150D02*
D03*
Y13150D02*
D03*
X141732D02*
D03*
Y23150D02*
D03*
Y33150D02*
D03*
Y43150D02*
D03*
Y53150D02*
D03*
Y63150D02*
D03*
Y73150D02*
D03*
Y83150D02*
D03*
Y93150D02*
D03*
Y103150D02*
D03*
Y113150D02*
D03*
Y123150D02*
D03*
Y133150D02*
D03*
Y143150D02*
D03*
Y153150D02*
D03*
D77*
X439665Y15650D02*
D03*
X19539Y375984D02*
D03*
X438976Y378839D02*
D03*
D89*
X416339Y230315D02*
D03*
Y210630D02*
D03*
X347736Y39665D02*
D03*
X328051D02*
D03*
X38091Y39370D02*
D03*
Y59055D02*
D03*
X104921Y39173D02*
D03*
X85236D02*
D03*
X38386Y113878D02*
D03*
X403051Y39934D02*
D03*
X416142Y146457D02*
D03*
X38878Y173130D02*
D03*
X39272Y230315D02*
D03*
X389970Y355850D02*
D03*
X39224Y318110D02*
D03*
X232087Y355905D02*
D03*
D90*
X416339Y190945D02*
D03*
X38091Y78740D02*
D03*
X38386Y133563D02*
D03*
X416142Y126772D02*
D03*
X38878Y192815D02*
D03*
X39272Y250000D02*
D03*
X39224Y337795D02*
D03*
D91*
X308366Y39665D02*
D03*
X65551Y39173D02*
D03*
X383366Y39934D02*
D03*
X409655Y355850D02*
D03*
X251772Y355905D02*
D03*
D92*
X82087Y319390D02*
D03*
Y339075D02*
D03*
D93*
X172382Y214567D02*
D03*
X182382D02*
D03*
X192382D02*
D03*
X202382D02*
D03*
X212382D02*
D03*
X274311Y52638D02*
D03*
Y62638D02*
D03*
Y72638D02*
D03*
X350984Y111870D02*
D03*
Y101870D02*
D03*
X297578Y73268D02*
D03*
Y83268D02*
D03*
X84449Y64311D02*
D03*
Y74311D02*
D03*
X310335Y83622D02*
D03*
Y73622D02*
D03*
X144193Y259252D02*
D03*
Y249252D02*
D03*
X158858Y259252D02*
D03*
Y249252D02*
D03*
X264665Y208850D02*
D03*
X274665D02*
D03*
X312972Y209012D02*
D03*
X322972D02*
D03*
X272441Y162461D02*
D03*
X112303Y164035D02*
D03*
X114075Y103789D02*
D03*
X274311Y23150D02*
D03*
D94*
X162382Y214567D02*
D03*
X284665Y208850D02*
D03*
X332972Y209012D02*
D03*
D95*
X274311Y82638D02*
D03*
X350984Y91870D02*
D03*
X297578Y93268D02*
D03*
X84449Y84311D02*
D03*
X310335Y63622D02*
D03*
X144193Y239252D02*
D03*
X158858D02*
D03*
X272441Y152461D02*
D03*
X112303Y154035D02*
D03*
X114075Y113789D02*
D03*
X274311Y33150D02*
D03*
D105*
X69095Y225295D02*
D03*
X75394D02*
D03*
X110716Y238855D02*
D03*
X104417D02*
D03*
X67335Y195607D02*
D03*
X73634D02*
D03*
D106*
X58415Y205190D02*
D03*
Y208733D02*
D03*
X58415Y176870D02*
D03*
Y173327D02*
D03*
X58465Y253248D02*
D03*
Y249705D02*
D03*
X56250Y228630D02*
D03*
Y225087D02*
D03*
D107*
X98064Y229823D02*
D03*
X101608D02*
D03*
D108*
X107567Y216530D02*
D03*
Y214561D02*
D03*
Y212593D02*
D03*
Y210624D02*
D03*
Y208656D02*
D03*
Y206687D02*
D03*
Y204719D02*
D03*
X88866D02*
D03*
Y206687D02*
D03*
Y208656D02*
D03*
Y210624D02*
D03*
Y212593D02*
D03*
Y214561D02*
D03*
Y216530D02*
D03*
D109*
X92311Y219975D02*
D03*
X94279D02*
D03*
X96248D02*
D03*
X98216D02*
D03*
X100185D02*
D03*
X102154D02*
D03*
X104122D02*
D03*
Y201274D02*
D03*
X102154D02*
D03*
X98216D02*
D03*
X96248D02*
D03*
X94279D02*
D03*
X92311D02*
D03*
X100185D02*
D03*
D110*
X98216Y210624D02*
D03*
M02*
