G04*
G04 #@! TF.GenerationSoftware,Altium Limited,Altium Designer,22.10.1 (41)*
G04*
G04 Layer_Physical_Order=3*
G04 Layer_Color=128*
%FSLAX25Y25*%
%MOIN*%
G70*
G04*
G04 #@! TF.SameCoordinates,F8C157B4-DA96-4F04-9901-D09C045D4249*
G04*
G04*
G04 #@! TF.FilePolarity,Negative*
G04*
G01*
G75*
%ADD10C,0.00787*%
%ADD18C,0.01181*%
%ADD97C,0.04000*%
%ADD98C,0.06398*%
%ADD99C,0.08898*%
%ADD100C,0.05354*%
%ADD101C,0.06535*%
%ADD102C,0.03780*%
%ADD103C,0.00984*%
%ADD104C,0.14803*%
D10*
X108071Y161614D02*
Y167224D01*
X109164Y168318D01*
X277362Y203732D02*
X328543Y152551D01*
X262501Y203732D02*
X277362D01*
X328543Y151969D02*
Y152551D01*
X328482Y135962D02*
Y151907D01*
X325984Y133465D02*
X328482Y135962D01*
Y151907D02*
X328543Y151969D01*
X328482Y135962D02*
Y136909D01*
X328051Y135531D02*
X328482Y135962D01*
X325984Y129269D02*
X328482Y126772D01*
X325984Y129269D02*
Y133465D01*
X328482Y126772D02*
X331299D01*
X109164Y168318D02*
X113889D01*
X330807Y135962D02*
Y153437D01*
Y135962D02*
X333389Y133380D01*
Y128862D02*
Y133380D01*
X331299Y126772D02*
X333389Y128862D01*
X278937Y205307D02*
X330807Y153437D01*
X197836Y231494D02*
X259372D01*
X278937Y211929D01*
Y205307D02*
Y211929D01*
X259746Y206487D02*
X262501Y203732D01*
X259746Y206487D02*
Y216632D01*
X251677Y224701D02*
X259746Y216632D01*
X191043Y224701D02*
X251677D01*
X455411Y279528D02*
X455762Y279177D01*
X91005Y279528D02*
X455411D01*
X86811D02*
X91005D01*
X38Y281299D02*
Y283328D01*
Y281299D02*
X1810Y279528D01*
X59252D01*
X168701Y262795D02*
X187205Y244291D01*
X142028Y262795D02*
X168701D01*
X139665Y260433D02*
X142028Y262795D01*
X139665Y257486D02*
Y260433D01*
Y257486D02*
X141639Y255512D01*
X167875D01*
X183033Y240354D01*
X183268D01*
X113889Y168318D02*
X141732Y196161D01*
Y219390D01*
X152953Y230610D01*
X179876D01*
X183268Y234002D01*
Y240354D01*
X187205Y244291D02*
X195374D01*
X198130Y241535D01*
Y231788D02*
Y241535D01*
X158658Y224701D02*
X191043D01*
X150394Y216437D02*
X158658Y224701D01*
X150394Y193996D02*
Y216437D01*
X118701Y162303D02*
X150394Y193996D01*
X116634Y160236D02*
X118701Y162303D01*
X109449Y160236D02*
X116634D01*
X108071Y161614D02*
X109449Y160236D01*
D18*
X86811Y141437D02*
Y155118D01*
X45177Y69488D02*
X51870Y76181D01*
Y106496D01*
X86811Y141437D01*
X33169Y69488D02*
X45177D01*
X26476Y76181D02*
X33169Y69488D01*
X26476Y76181D02*
Y128248D01*
X86811Y155118D02*
Y206201D01*
X26476Y128248D02*
Y137008D01*
X33957Y144488D01*
X56496D01*
X59252Y147244D01*
Y204331D01*
D97*
X19615Y395669D02*
G03*
X38Y376092I0J-19577D01*
G01*
X455757Y378991D02*
G03*
X439001Y395650I-16659J0D01*
G01*
X439671Y-65D02*
G03*
X455774Y16038I0J16103D01*
G01*
X39Y16142D02*
G03*
X16142Y39I16103J0D01*
G01*
X38Y376092D02*
X39Y16142D01*
X19615Y395669D02*
X439001Y395650D01*
X455757Y378991D02*
X455774Y16038D01*
X439671Y-65D02*
X439677D01*
X16142Y17D02*
X439677Y-65D01*
X16142Y17D02*
Y39D01*
D98*
X241732Y153150D02*
D03*
Y143150D02*
D03*
Y133150D02*
D03*
Y123150D02*
D03*
Y113150D02*
D03*
Y103150D02*
D03*
Y93150D02*
D03*
Y83150D02*
D03*
Y73150D02*
D03*
Y63150D02*
D03*
Y53150D02*
D03*
Y43150D02*
D03*
Y33150D02*
D03*
Y23150D02*
D03*
Y13150D02*
D03*
X141732D02*
D03*
Y23150D02*
D03*
Y33150D02*
D03*
Y43150D02*
D03*
Y53150D02*
D03*
Y63150D02*
D03*
Y73150D02*
D03*
Y83150D02*
D03*
Y93150D02*
D03*
Y103150D02*
D03*
Y113150D02*
D03*
Y123150D02*
D03*
Y133150D02*
D03*
Y143150D02*
D03*
Y153150D02*
D03*
D99*
X416339Y210630D02*
D03*
Y190945D02*
D03*
X347736Y39665D02*
D03*
X308366D02*
D03*
X38091Y39370D02*
D03*
Y59055D02*
D03*
X104921Y39173D02*
D03*
X85236D02*
D03*
X65551D02*
D03*
X38386Y113878D02*
D03*
X403051Y39934D02*
D03*
X416142Y126772D02*
D03*
X38878Y173130D02*
D03*
Y192815D02*
D03*
X39272Y230315D02*
D03*
Y250000D02*
D03*
X389970Y355850D02*
D03*
X409655D02*
D03*
X39224Y318110D02*
D03*
Y337795D02*
D03*
X232087Y355905D02*
D03*
X251772D02*
D03*
D100*
X82087Y319390D02*
D03*
Y339075D02*
D03*
D101*
X172382Y214567D02*
D03*
X182382D02*
D03*
X162382D02*
D03*
X192382D02*
D03*
X202382D02*
D03*
X212382D02*
D03*
X274311Y52638D02*
D03*
Y62638D02*
D03*
Y72638D02*
D03*
Y82638D02*
D03*
X350984Y91870D02*
D03*
Y111870D02*
D03*
Y101870D02*
D03*
X297578Y93268D02*
D03*
Y73268D02*
D03*
Y83268D02*
D03*
X84449Y84311D02*
D03*
Y64311D02*
D03*
Y74311D02*
D03*
X310335Y63622D02*
D03*
Y83622D02*
D03*
Y73622D02*
D03*
X144193Y239252D02*
D03*
Y249252D02*
D03*
X158858Y239252D02*
D03*
Y249252D02*
D03*
X284665Y208850D02*
D03*
X332972Y209012D02*
D03*
X272441Y152461D02*
D03*
X112303Y154035D02*
D03*
X114075Y113789D02*
D03*
Y103789D02*
D03*
X274311Y33150D02*
D03*
Y23150D02*
D03*
D102*
X381037Y78106D02*
D03*
X8990Y7240D02*
D03*
X20801D02*
D03*
X8990Y19051D02*
D03*
X20801D02*
D03*
X87980Y245202D02*
D03*
X110138Y80216D02*
D03*
X116929Y58150D02*
D03*
X141732Y180610D02*
D03*
X154331Y202658D02*
D03*
X154035Y209941D02*
D03*
X209071Y221850D02*
D03*
X196828D02*
D03*
X187008D02*
D03*
X162382D02*
D03*
X174902D02*
D03*
X133006Y37257D02*
D03*
X130610Y48150D02*
D03*
X127101Y58150D02*
D03*
X383331Y318352D02*
D03*
X379677Y315053D02*
D03*
X375801Y311598D02*
D03*
X386344Y322370D02*
D03*
X389237Y325263D02*
D03*
X392446Y328157D02*
D03*
X382390Y327784D02*
D03*
X378695Y324318D02*
D03*
X375457Y321109D02*
D03*
X393237Y343039D02*
D03*
X386248D02*
D03*
X393237Y337724D02*
D03*
X386248D02*
D03*
X393237Y332409D02*
D03*
X386248D02*
D03*
X223377Y323562D02*
D03*
X219791Y320129D02*
D03*
X216339Y316732D02*
D03*
X213287Y313386D02*
D03*
X209599Y310924D02*
D03*
X222264Y332087D02*
D03*
X218602Y328740D02*
D03*
X214469Y324606D02*
D03*
X210359Y321075D02*
D03*
X205118Y317913D02*
D03*
Y310924D02*
D03*
X199803Y317913D02*
D03*
Y310924D02*
D03*
X194488Y317913D02*
D03*
Y310924D02*
D03*
X189173Y317913D02*
D03*
Y310924D02*
D03*
X183858Y317913D02*
D03*
Y310924D02*
D03*
X178543Y317913D02*
D03*
Y310924D02*
D03*
X173228Y317913D02*
D03*
Y310924D02*
D03*
X167913Y317913D02*
D03*
Y310924D02*
D03*
X162598Y317913D02*
D03*
Y310924D02*
D03*
X157283Y317913D02*
D03*
Y310924D02*
D03*
X371457Y318110D02*
D03*
Y311121D02*
D03*
X366142Y318110D02*
D03*
Y311121D02*
D03*
X360827Y318110D02*
D03*
Y311121D02*
D03*
X355512Y318110D02*
D03*
Y311121D02*
D03*
X350197Y318110D02*
D03*
Y311121D02*
D03*
X344882Y318110D02*
D03*
Y311121D02*
D03*
X339567Y318110D02*
D03*
Y311121D02*
D03*
X334252Y318110D02*
D03*
Y311121D02*
D03*
X328937Y318110D02*
D03*
Y311121D02*
D03*
X323622D02*
D03*
X318307D02*
D03*
X323622Y318110D02*
D03*
X318307D02*
D03*
X7480Y275197D02*
D03*
X20801Y276181D02*
D03*
X32612D02*
D03*
X44423Y277157D02*
D03*
X440093Y361571D02*
D03*
X445998Y349760D02*
D03*
X440093Y337949D02*
D03*
X445998Y326138D02*
D03*
X440093Y314327D02*
D03*
X445998Y302516D02*
D03*
X440093Y290704D02*
D03*
X445998Y278893D02*
D03*
X440093Y267083D02*
D03*
X445998Y255272D02*
D03*
X440093Y243460D02*
D03*
X445998Y231649D02*
D03*
X440093Y219838D02*
D03*
X445998Y208027D02*
D03*
X440093Y196216D02*
D03*
X445998Y184405D02*
D03*
X440093Y172594D02*
D03*
X445998Y160783D02*
D03*
X440093Y148972D02*
D03*
X445998Y137161D02*
D03*
X440093Y125350D02*
D03*
X445998Y113539D02*
D03*
X440093Y101728D02*
D03*
X445998Y89917D02*
D03*
X440093Y78106D02*
D03*
X445998Y66295D02*
D03*
X440093Y54484D02*
D03*
X445998Y42673D02*
D03*
X440093Y30862D02*
D03*
X428281Y361571D02*
D03*
X434187Y349760D02*
D03*
X428281Y337949D02*
D03*
X434187Y326138D02*
D03*
X428281Y314327D02*
D03*
X434187Y302516D02*
D03*
X428281Y290704D02*
D03*
X434187Y278893D02*
D03*
X428281Y267083D02*
D03*
X434187Y255272D02*
D03*
X428281Y243460D02*
D03*
X434187Y231649D02*
D03*
X428281Y219838D02*
D03*
X434187Y208027D02*
D03*
X428281Y196216D02*
D03*
X434187Y184405D02*
D03*
X428281Y172594D02*
D03*
X434187Y160783D02*
D03*
X428281Y148972D02*
D03*
X434187Y137161D02*
D03*
X428281Y125350D02*
D03*
X434187Y113539D02*
D03*
X428281Y101728D02*
D03*
X434187Y89917D02*
D03*
X428281Y78106D02*
D03*
X434187Y66295D02*
D03*
X428281Y54484D02*
D03*
X434187Y42673D02*
D03*
X428281Y30862D02*
D03*
Y7240D02*
D03*
X416470Y385193D02*
D03*
X422376Y373382D02*
D03*
X416470Y361571D02*
D03*
X422376Y349760D02*
D03*
X416470Y337949D02*
D03*
X422376Y278893D02*
D03*
X416470Y267083D02*
D03*
X422376Y255272D02*
D03*
X416470Y243460D02*
D03*
Y219838D02*
D03*
X422376Y184405D02*
D03*
X416470Y172594D02*
D03*
X422376Y160783D02*
D03*
Y137161D02*
D03*
Y113539D02*
D03*
X416470Y101728D02*
D03*
X422376Y89917D02*
D03*
X416470Y78106D02*
D03*
X422376Y66295D02*
D03*
X416470Y54484D02*
D03*
X422376Y42673D02*
D03*
X416470Y30862D02*
D03*
X422376Y19051D02*
D03*
X416470Y7240D02*
D03*
X410565Y373382D02*
D03*
Y255272D02*
D03*
X404660Y243460D02*
D03*
Y219838D02*
D03*
Y196216D02*
D03*
X410565Y184405D02*
D03*
X404660Y172594D02*
D03*
X410565Y160783D02*
D03*
Y137161D02*
D03*
Y113539D02*
D03*
Y89917D02*
D03*
Y66295D02*
D03*
Y42673D02*
D03*
X404660Y30862D02*
D03*
X410565Y19051D02*
D03*
X404660Y7240D02*
D03*
X398754Y255272D02*
D03*
X392848Y243460D02*
D03*
X398754Y231649D02*
D03*
X392848Y219838D02*
D03*
X398754Y184405D02*
D03*
X392848Y172594D02*
D03*
X398754Y160783D02*
D03*
X392848Y148972D02*
D03*
X398754Y113539D02*
D03*
X392848Y54484D02*
D03*
Y30862D02*
D03*
X398754Y19051D02*
D03*
X392848Y7240D02*
D03*
X386943Y255272D02*
D03*
X381037Y243460D02*
D03*
X386943Y231649D02*
D03*
X381037Y219838D02*
D03*
X386943Y208027D02*
D03*
Y184405D02*
D03*
X381037Y172594D02*
D03*
X386943Y160783D02*
D03*
X381037Y148972D02*
D03*
X386943Y137161D02*
D03*
X381037Y125350D02*
D03*
X386943Y113539D02*
D03*
X381037Y101728D02*
D03*
Y30862D02*
D03*
X386943Y19051D02*
D03*
X381037Y7240D02*
D03*
X375132Y255272D02*
D03*
X369226Y243460D02*
D03*
X375132Y231649D02*
D03*
X369226Y219838D02*
D03*
X375132Y208027D02*
D03*
Y184405D02*
D03*
X369226Y172594D02*
D03*
X375132Y160783D02*
D03*
X369226Y148972D02*
D03*
X375132Y137161D02*
D03*
X369226Y125350D02*
D03*
X375132Y113539D02*
D03*
X369226Y101728D02*
D03*
Y78106D02*
D03*
Y54484D02*
D03*
X375132Y42673D02*
D03*
X369226Y30862D02*
D03*
X375132Y19051D02*
D03*
X369226Y7240D02*
D03*
X363321Y255272D02*
D03*
X357415Y243460D02*
D03*
X363321Y231649D02*
D03*
X357415Y219838D02*
D03*
X363321Y208027D02*
D03*
X357415Y196216D02*
D03*
Y172594D02*
D03*
X363321Y160783D02*
D03*
X357415Y148972D02*
D03*
X363321Y137161D02*
D03*
X357415Y125350D02*
D03*
Y101728D02*
D03*
Y78106D02*
D03*
X363321Y66295D02*
D03*
X357415Y54484D02*
D03*
X363321Y42673D02*
D03*
X357415Y30862D02*
D03*
X363321Y19051D02*
D03*
X357415Y7240D02*
D03*
X351510Y255272D02*
D03*
X345604Y243460D02*
D03*
X351510Y231649D02*
D03*
X345604Y219838D02*
D03*
X351510Y208027D02*
D03*
X345604Y196216D02*
D03*
X351510Y184405D02*
D03*
Y160783D02*
D03*
X345604Y148972D02*
D03*
X351510Y137161D02*
D03*
X345604Y125350D02*
D03*
Y78106D02*
D03*
X351510Y66295D02*
D03*
X345604Y30862D02*
D03*
X351510Y19051D02*
D03*
X345604Y7240D02*
D03*
X339699Y255272D02*
D03*
X333793Y243460D02*
D03*
X339699Y231649D02*
D03*
X333793Y219838D02*
D03*
X339699Y208027D02*
D03*
X333793Y196216D02*
D03*
X339699Y184405D02*
D03*
X333793Y172594D02*
D03*
Y148972D02*
D03*
X339699Y137161D02*
D03*
X333793Y125350D02*
D03*
X339699Y113539D02*
D03*
Y89917D02*
D03*
X333793Y78106D02*
D03*
Y54484D02*
D03*
X339699Y42673D02*
D03*
X333793Y30862D02*
D03*
X339699Y19051D02*
D03*
X333793Y7240D02*
D03*
X327888Y255272D02*
D03*
X321982Y243460D02*
D03*
Y219838D02*
D03*
Y196216D02*
D03*
X327888Y184405D02*
D03*
X321982Y172594D02*
D03*
X327888Y160783D02*
D03*
X321982Y125350D02*
D03*
Y78106D02*
D03*
X327888Y66295D02*
D03*
X321982Y30862D02*
D03*
X327888Y19051D02*
D03*
X321982Y7240D02*
D03*
X316077Y255272D02*
D03*
X310171Y243460D02*
D03*
Y219838D02*
D03*
Y196216D02*
D03*
X316077Y184405D02*
D03*
Y160783D02*
D03*
X310171Y148972D02*
D03*
Y125350D02*
D03*
X316077Y89917D02*
D03*
Y66295D02*
D03*
X310171Y54484D02*
D03*
X316077Y42673D02*
D03*
X310171Y30862D02*
D03*
X316077Y19051D02*
D03*
X310171Y7240D02*
D03*
X304266Y255272D02*
D03*
X298360Y243460D02*
D03*
X304266Y231649D02*
D03*
X298360Y219838D02*
D03*
X304266Y208027D02*
D03*
X298360Y196216D02*
D03*
X304266Y184405D02*
D03*
X298360Y172594D02*
D03*
X304266Y160783D02*
D03*
X298360Y148972D02*
D03*
X304266Y137161D02*
D03*
Y113539D02*
D03*
Y89917D02*
D03*
Y66295D02*
D03*
X298360Y54484D02*
D03*
Y30862D02*
D03*
X304266Y19051D02*
D03*
X298360Y7240D02*
D03*
X292455Y255272D02*
D03*
X286549Y243460D02*
D03*
X292455Y231649D02*
D03*
X286549Y219838D02*
D03*
X292455Y208027D02*
D03*
Y184405D02*
D03*
X286549Y172594D02*
D03*
X292455Y160783D02*
D03*
Y137161D02*
D03*
X286549Y125350D02*
D03*
X292455Y66295D02*
D03*
Y42673D02*
D03*
X286549Y30862D02*
D03*
X292455Y19051D02*
D03*
X286549Y7240D02*
D03*
X280644Y255272D02*
D03*
X274738Y243460D02*
D03*
X280644Y231649D02*
D03*
X274738Y219838D02*
D03*
Y196216D02*
D03*
X280644Y184405D02*
D03*
X274738Y172594D02*
D03*
X280644Y160783D02*
D03*
Y137161D02*
D03*
X274738Y125350D02*
D03*
X280644Y113539D02*
D03*
Y89917D02*
D03*
Y66295D02*
D03*
Y19051D02*
D03*
X274738Y7240D02*
D03*
X268833Y255272D02*
D03*
X262927Y243460D02*
D03*
Y196216D02*
D03*
X268833Y184405D02*
D03*
X262927Y172594D02*
D03*
X268833Y137161D02*
D03*
X262927Y125350D02*
D03*
X268833Y113539D02*
D03*
Y89917D02*
D03*
X262927Y78106D02*
D03*
X268833Y66295D02*
D03*
Y19051D02*
D03*
X262927Y7240D02*
D03*
X257022Y255272D02*
D03*
X251116Y243460D02*
D03*
Y219838D02*
D03*
X257022Y208027D02*
D03*
X251116Y196216D02*
D03*
X257022Y184405D02*
D03*
X251116Y172594D02*
D03*
X257022Y160783D02*
D03*
Y137161D02*
D03*
X251116Y125350D02*
D03*
X257022Y113539D02*
D03*
Y89917D02*
D03*
X251116Y78106D02*
D03*
X257022Y66295D02*
D03*
Y19051D02*
D03*
X251116Y7240D02*
D03*
X239305Y219838D02*
D03*
X245211Y208027D02*
D03*
X239305Y196216D02*
D03*
X245211Y184405D02*
D03*
X239305Y172594D02*
D03*
X245211Y160783D02*
D03*
X239305Y7240D02*
D03*
X227494Y219838D02*
D03*
X233400Y208027D02*
D03*
X227494Y196216D02*
D03*
X233400Y184405D02*
D03*
X227494Y172594D02*
D03*
X233400Y160783D02*
D03*
X227494Y148972D02*
D03*
X233400Y137161D02*
D03*
X227494Y101728D02*
D03*
X233400Y89917D02*
D03*
X227494Y78106D02*
D03*
X233400Y66295D02*
D03*
X227494Y54484D02*
D03*
X233400Y42673D02*
D03*
X227494Y30862D02*
D03*
X233400Y19051D02*
D03*
X227494Y7240D02*
D03*
X215683Y243460D02*
D03*
X221589Y208027D02*
D03*
X215683Y196216D02*
D03*
X221589Y184405D02*
D03*
X215683Y172594D02*
D03*
X221589Y160783D02*
D03*
Y137161D02*
D03*
X215683Y101728D02*
D03*
X221589Y89917D02*
D03*
X215683Y78106D02*
D03*
X221589Y66295D02*
D03*
X215683Y54484D02*
D03*
X221589Y42673D02*
D03*
X215683Y30862D02*
D03*
X221589Y19051D02*
D03*
X215683Y7240D02*
D03*
X209778Y208027D02*
D03*
Y184405D02*
D03*
Y160783D02*
D03*
Y137161D02*
D03*
X203872Y125350D02*
D03*
X209778Y113539D02*
D03*
X203872Y101728D02*
D03*
X209778Y89917D02*
D03*
X203872Y78106D02*
D03*
X209778Y66295D02*
D03*
X203872Y54484D02*
D03*
X209778Y42673D02*
D03*
X203872Y30862D02*
D03*
X209778Y19051D02*
D03*
X203872Y7240D02*
D03*
X197967Y208027D02*
D03*
Y184405D02*
D03*
Y160783D02*
D03*
X192061Y125350D02*
D03*
X197967Y113539D02*
D03*
X192061Y101728D02*
D03*
X197967Y89917D02*
D03*
X192061Y78106D02*
D03*
X197967Y66295D02*
D03*
X192061Y54484D02*
D03*
X197967Y42673D02*
D03*
X192061Y30862D02*
D03*
X197967Y19051D02*
D03*
X192061Y7240D02*
D03*
X186156Y208027D02*
D03*
Y184405D02*
D03*
Y160783D02*
D03*
X180250Y148972D02*
D03*
X186156Y137161D02*
D03*
X180250Y125350D02*
D03*
X186156Y113539D02*
D03*
X180250Y101728D02*
D03*
X186156Y89917D02*
D03*
X180250Y78106D02*
D03*
X186156Y66295D02*
D03*
X180250Y54484D02*
D03*
X186156Y42673D02*
D03*
X180250Y30862D02*
D03*
X186156Y19051D02*
D03*
X180250Y7240D02*
D03*
X168439Y243460D02*
D03*
Y196216D02*
D03*
Y172594D02*
D03*
X174345Y137161D02*
D03*
X168439Y125350D02*
D03*
X174345Y113539D02*
D03*
X168439Y101728D02*
D03*
X174345Y89917D02*
D03*
X168439Y78106D02*
D03*
X174345Y66295D02*
D03*
X168439Y54484D02*
D03*
X174345Y42673D02*
D03*
X168439Y30862D02*
D03*
X174345Y19051D02*
D03*
X168439Y7240D02*
D03*
X156628Y219838D02*
D03*
Y196216D02*
D03*
Y172594D02*
D03*
X162534Y160783D02*
D03*
X156628Y148972D02*
D03*
X162534Y137161D02*
D03*
X156628Y125350D02*
D03*
X162534Y113539D02*
D03*
X156628Y101728D02*
D03*
X162534Y89917D02*
D03*
X156628Y78106D02*
D03*
X162534Y66295D02*
D03*
X156628Y54484D02*
D03*
X162534Y42673D02*
D03*
X156628Y30862D02*
D03*
X162534Y19051D02*
D03*
X156628Y7240D02*
D03*
X150723Y184405D02*
D03*
X144817Y172594D02*
D03*
X150723Y113539D02*
D03*
Y89917D02*
D03*
Y66295D02*
D03*
Y42673D02*
D03*
Y19051D02*
D03*
X144817Y7240D02*
D03*
X138911Y255272D02*
D03*
X133006Y243460D02*
D03*
X138911Y208027D02*
D03*
X133006Y78106D02*
D03*
Y30862D02*
D03*
Y7240D02*
D03*
X127101Y255272D02*
D03*
X121195Y243460D02*
D03*
X127101Y231649D02*
D03*
Y184405D02*
D03*
Y137161D02*
D03*
X121195Y125350D02*
D03*
Y101728D02*
D03*
X127101Y66295D02*
D03*
Y42673D02*
D03*
X121195Y30862D02*
D03*
X127101Y19051D02*
D03*
X121195Y7240D02*
D03*
X115289Y255272D02*
D03*
Y231649D02*
D03*
X109384Y219838D02*
D03*
Y172594D02*
D03*
X115289Y137161D02*
D03*
X109384Y125350D02*
D03*
X115289Y89917D02*
D03*
X109384Y30862D02*
D03*
X115289Y19051D02*
D03*
X109384Y7240D02*
D03*
X103479Y255272D02*
D03*
X97573Y30862D02*
D03*
X103479Y19051D02*
D03*
X97573Y7240D02*
D03*
X85762Y101728D02*
D03*
Y54484D02*
D03*
Y30862D02*
D03*
X91667Y19051D02*
D03*
X85762Y7240D02*
D03*
X79856Y349760D02*
D03*
X73951Y337949D02*
D03*
X79856Y89917D02*
D03*
X73951Y78106D02*
D03*
Y54484D02*
D03*
Y30862D02*
D03*
X79856Y19051D02*
D03*
X73951Y7240D02*
D03*
X68045Y349760D02*
D03*
X62140Y337949D02*
D03*
X68045Y66295D02*
D03*
X62140Y54484D02*
D03*
Y30862D02*
D03*
X68045Y19051D02*
D03*
X62140Y7240D02*
D03*
X56234Y349760D02*
D03*
X50329Y337949D02*
D03*
Y243460D02*
D03*
Y219838D02*
D03*
Y196216D02*
D03*
X56234Y184405D02*
D03*
X50329Y148972D02*
D03*
X56234Y66295D02*
D03*
X50329Y54484D02*
D03*
X56234Y42673D02*
D03*
X50329Y30862D02*
D03*
X56234Y19051D02*
D03*
X50329Y7240D02*
D03*
X38518Y385193D02*
D03*
Y361571D02*
D03*
X44423Y349760D02*
D03*
X38518Y267083D02*
D03*
Y219838D02*
D03*
X44423Y184405D02*
D03*
Y160783D02*
D03*
X38518Y148972D02*
D03*
X44423Y66295D02*
D03*
Y42673D02*
D03*
X38518Y30862D02*
D03*
X44423Y19051D02*
D03*
X38518Y7240D02*
D03*
X32612Y373382D02*
D03*
X26707Y361571D02*
D03*
X32612Y349760D02*
D03*
X26707Y337949D02*
D03*
Y267083D02*
D03*
X32612Y255272D02*
D03*
X26707Y243460D02*
D03*
Y219838D02*
D03*
X32612Y208027D02*
D03*
X26707Y196216D02*
D03*
X32612Y184405D02*
D03*
X26707Y172594D02*
D03*
X32612Y160783D02*
D03*
X26707Y148972D02*
D03*
X32612Y66295D02*
D03*
X26707Y54484D02*
D03*
Y30862D02*
D03*
X32612Y19051D02*
D03*
X14896Y361571D02*
D03*
X20801Y349760D02*
D03*
X14896Y337949D02*
D03*
Y267083D02*
D03*
X20801Y255272D02*
D03*
X14896Y243460D02*
D03*
X20801Y231649D02*
D03*
X14896Y219838D02*
D03*
X20801Y208027D02*
D03*
X14896Y196216D02*
D03*
X20801Y184405D02*
D03*
X14896Y172594D02*
D03*
X20801Y160783D02*
D03*
X14896Y148972D02*
D03*
X20801Y137161D02*
D03*
X14896Y125350D02*
D03*
X20801Y113539D02*
D03*
X14896Y101728D02*
D03*
X20801Y89917D02*
D03*
X14896Y78106D02*
D03*
X20801Y66295D02*
D03*
X14896Y54484D02*
D03*
X20801Y42673D02*
D03*
X14896Y30862D02*
D03*
X8990Y349760D02*
D03*
Y255272D02*
D03*
Y231649D02*
D03*
Y208027D02*
D03*
Y184405D02*
D03*
Y160783D02*
D03*
Y137161D02*
D03*
Y113539D02*
D03*
Y89917D02*
D03*
Y66295D02*
D03*
Y42673D02*
D03*
X112303Y74311D02*
D03*
X93351Y184350D02*
D03*
X339699Y97244D02*
D03*
X341535Y53744D02*
D03*
X340453Y71457D02*
D03*
X311268Y95793D02*
D03*
X287303Y95079D02*
D03*
X361122Y87213D02*
D03*
X99186Y233957D02*
D03*
X89473Y152202D02*
D03*
X257755Y28688D02*
D03*
Y57611D02*
D03*
X291240Y108366D02*
D03*
X336909Y61811D02*
D03*
X103479Y177833D02*
D03*
X170374Y233836D02*
D03*
X177953Y238976D02*
D03*
X143494Y229831D02*
D03*
X129250Y226053D02*
D03*
X121504Y275255D02*
D03*
X296850Y279626D02*
D03*
X285323Y279596D02*
D03*
X97424Y301659D02*
D03*
X107764Y301689D02*
D03*
X116240Y280610D02*
D03*
Y276181D02*
D03*
X243701Y280807D02*
D03*
Y276870D02*
D03*
X247638D02*
D03*
X252658Y276780D02*
D03*
X256594Y280717D02*
D03*
Y276780D02*
D03*
X243701Y272933D02*
D03*
X247638D02*
D03*
X252658Y272843D02*
D03*
X256594D02*
D03*
Y285245D02*
D03*
Y289075D02*
D03*
X243701Y285335D02*
D03*
Y289164D02*
D03*
X260197Y354438D02*
D03*
Y358268D02*
D03*
X244449Y354438D02*
D03*
Y358268D02*
D03*
X146106Y310471D02*
D03*
Y319133D02*
D03*
X311713Y319783D02*
D03*
Y311121D02*
D03*
X244449Y370669D02*
D03*
X248386D02*
D03*
X252323D02*
D03*
X256260D02*
D03*
X260197D02*
D03*
X244449Y366732D02*
D03*
Y362795D02*
D03*
X248386Y366732D02*
D03*
X252323D02*
D03*
X256260D02*
D03*
X260197D02*
D03*
X248386Y362795D02*
D03*
X252323D02*
D03*
X256260D02*
D03*
X260197D02*
D03*
X322539Y379626D02*
D03*
X326476D02*
D03*
X330413D02*
D03*
X334350D02*
D03*
X338287D02*
D03*
X322539Y375689D02*
D03*
Y371752D02*
D03*
X326476Y375689D02*
D03*
X330413D02*
D03*
X334350D02*
D03*
X338287D02*
D03*
X326476Y371752D02*
D03*
X330413D02*
D03*
X334350D02*
D03*
X338287D02*
D03*
X174114Y373327D02*
D03*
X170177D02*
D03*
X166240D02*
D03*
X162303D02*
D03*
X174114Y377264D02*
D03*
X170177D02*
D03*
X166240D02*
D03*
X162303D02*
D03*
X158366Y373327D02*
D03*
Y377264D02*
D03*
X174114Y381201D02*
D03*
X170177D02*
D03*
X166240D02*
D03*
X162303D02*
D03*
X158366D02*
D03*
X275708Y370747D02*
D03*
Y364842D02*
D03*
Y358936D02*
D03*
Y353030D02*
D03*
Y347125D02*
D03*
Y341219D02*
D03*
Y335314D02*
D03*
X281613D02*
D03*
X287519D02*
D03*
X293425D02*
D03*
X299330D02*
D03*
X305236D02*
D03*
X311141D02*
D03*
Y341219D02*
D03*
X305236D02*
D03*
X299330D02*
D03*
X293425D02*
D03*
X287519D02*
D03*
X281613D02*
D03*
X311141Y347125D02*
D03*
X305236D02*
D03*
X299330D02*
D03*
X293425D02*
D03*
X287519D02*
D03*
X281613D02*
D03*
X311141Y353030D02*
D03*
X305236D02*
D03*
X299330D02*
D03*
X293425D02*
D03*
X287519D02*
D03*
X281613D02*
D03*
X311141Y358936D02*
D03*
X305236D02*
D03*
X299330D02*
D03*
X293425D02*
D03*
X287519D02*
D03*
X281613D02*
D03*
X311141Y364842D02*
D03*
X305236D02*
D03*
X299330D02*
D03*
X293425D02*
D03*
X287519D02*
D03*
X281613D02*
D03*
X311141Y370747D02*
D03*
X305236D02*
D03*
X299330D02*
D03*
X293425D02*
D03*
X287519D02*
D03*
X281613D02*
D03*
X100185Y189665D02*
D03*
X109449Y226306D02*
D03*
X114075Y226285D02*
D03*
Y204276D02*
D03*
X300528Y314663D02*
D03*
X134921Y314308D02*
D03*
X116043Y370079D02*
D03*
X121949D02*
D03*
X127854D02*
D03*
X133760D02*
D03*
X139665D02*
D03*
X145571D02*
D03*
X116043Y364173D02*
D03*
X121949D02*
D03*
X127854D02*
D03*
X133760D02*
D03*
X139665D02*
D03*
X145571D02*
D03*
X116043Y358268D02*
D03*
X121949D02*
D03*
X127854D02*
D03*
X133760D02*
D03*
X139665D02*
D03*
X145571D02*
D03*
X116043Y352362D02*
D03*
X121949D02*
D03*
X127854D02*
D03*
X133760D02*
D03*
X139665D02*
D03*
X145571D02*
D03*
X116043Y346457D02*
D03*
X121949D02*
D03*
X127854D02*
D03*
X133760D02*
D03*
X139665D02*
D03*
X145571D02*
D03*
X116043Y340551D02*
D03*
X121949D02*
D03*
X127854D02*
D03*
X133760D02*
D03*
X139665D02*
D03*
X145571D02*
D03*
Y334646D02*
D03*
X139665D02*
D03*
X133760D02*
D03*
X127854D02*
D03*
X121949D02*
D03*
X116043D02*
D03*
X110138D02*
D03*
Y340551D02*
D03*
Y346457D02*
D03*
Y352362D02*
D03*
Y358268D02*
D03*
Y364173D02*
D03*
Y370079D02*
D03*
X103051Y205807D02*
D03*
X99836Y209022D02*
D03*
Y215453D02*
D03*
X103051D02*
D03*
X93405D02*
D03*
X103051Y209022D02*
D03*
Y212238D02*
D03*
X99836Y205807D02*
D03*
Y212238D02*
D03*
X96621Y205807D02*
D03*
Y209022D02*
D03*
Y212238D02*
D03*
Y215453D02*
D03*
X93405Y209022D02*
D03*
Y212238D02*
D03*
Y205807D02*
D03*
D103*
X86811Y246555D02*
Y260039D01*
Y206201D02*
Y246555D01*
X59252Y204331D02*
Y255315D01*
Y260138D01*
Y279528D02*
X61024Y281299D01*
X84941D01*
X86713Y279528D01*
X86811D01*
Y260039D02*
Y279528D01*
X59252Y260138D02*
Y279528D01*
D104*
X439665Y15650D02*
D03*
X19539Y375984D02*
D03*
X438976Y378839D02*
D03*
M02*
