M48
;Layer_Color=9474304
;FILE_FORMAT=2:5
INCH,LZ
;TYPE=PLATED
T1F00S00C0.01181
T2F00S00C0.02756
T3F00S00C0.03800
T4F00S00C0.03937
T5F00S00C0.06299
T6F00S00C0.12205
%
T01
X000899Y000724
X0020801
Y0019051
X000899
X0014896Y0030862
X0026707
X0038518
X0050329
X0044423Y0042673
X0050329Y0054484
X0044423Y0066295
X0032612
X0020801
X000899
X0014896Y0078106
X0020801Y0089917
X000899
X0014896Y0101728
Y0054484
X0026707
X0020801Y0042673
X000899
X0032612Y0019051
X0044423
X0050329Y000724
X0038518
X006214
X0073951
X0085762
X0097573
X0109384
X0121195
X0133006
X0144817
X0156628
X0168439
X018025
X0192061
X0203872
X0197967Y0019051
X0186156
X0174345
X0162534
X0150723
X0156628Y0030862
X0168439
X018025
X0192061
X0203872
X0197967Y0042673
X0186156
X0174345
X0162534
X0150723
X0156628Y0054484
X0168439
X018025
X0192061
X0203872
X0197967Y0066295
X0186156
X0174345
X0162534
X0150723
X0156628Y0078106
X0168439
X018025
X0192061
X0203872
X0197967Y0089917
X0186156
X0174345
X0162534
X0150723
X0156628Y0101728
X0168439
X018025
X0192061
X0203872
X0121195
X0115289Y0089917
X0110138Y0080216
X0112303Y0074311
X0116929Y005815
X0127101
Y0066295
X0133006Y0078106
X013061Y004815
X0127101Y0042673
X0133006Y0037257
Y0030862
X0121195
X0109384
X0097573
X0085762
X0073951
X006214
X0068045Y0019051
X0079856
X0091667
X0103479
X0115289
X0127101
X0056234
Y0042673
X006214Y0054484
X0073951
X0085762
X0068045Y0066295
X0056234
X0073951Y0078106
X0079856Y0089917
X0085762Y0101728
X0215683
X0227494
X02334Y0089917
X0221589
X0209778
X0215683Y0078106
X0227494
X02334Y0066295
X0221589
X0209778
X0215683Y0054484
X0227494
X02334Y0042673
X0221589
X0209778
X0215683Y0030862
X0227494
X02334Y0019051
X0221589
X0209778
X0215683Y000724
X0227494
X0239305
X0251116
X0262927
X0274738
X0286549
X029836
X0310171
X0321982
X0333793
X0345604
X0357415
X0363321Y0019051
X035151
X0339699
X0327888
X0316077
X0304266
X0292455
X0280644
X0268833
X0257022
X0257755Y0028688
Y0057611
X0257022Y0066295
X0268833
X0280644
X0292455
X0304266
X0316077
X0327888
X0336909Y0061811
X0333793Y0054484
X0341535Y0053744
X0339699Y0042673
X0345604Y0030862
X0357415
X0363321Y0042673
X0357415Y0054484
X0363321Y0066295
X035151
X0340453Y0071457
X0345604Y0078106
X0357415
X0361122Y0087213
X0357415Y0101728
X0339699Y0097244
Y0089917
X0333793Y0078106
X0321982
X0316077Y0089917
X0311268Y0095793
X0304266Y0089917
X0287303Y0095079
X0280644Y0089917
X0268833
X0257022
X0262927Y0078106
X0251116
X029124Y0108366
X029836Y0054484
X0310171
X0316077Y0042673
X0321982Y0030862
X0333793
X0310171
X029836
X0286549
X0292455Y0042673
X0375132
X0381037Y0030862
X0392848
X040466
X041647
X0428281
X0440093
X0445998Y0042673
X0434187
X0422376
X0410565
X041647Y0054484
X0428281
X0440093
X0445998Y0066295
X0434187
X0422376
X0410565
X041647Y0078106
X0428281
X0440093
X0445998Y0089917
X0434187
X0422376
X0410565
X041647Y0101728
X0428281
X0440093
X0381037
X0369226
Y0078106
X0381037
X0392848Y0054484
X0369226
Y0030862
X0375132Y0019051
X0386943
X0398754
X0410565
X0422376
X0428281Y000724
X041647
X040466
X0392848
X0381037
X0369226
X0375132Y0113539
X0386943
X0398754
X0410565
X0422376
X0434187
X0445998
X0440093Y012535
X0428281
X0434187Y0137161
X0445998
X0440093Y0148972
X0428281
X0434187Y0160783
X0445998
X0440093Y0172594
X0428281
X041647
X040466
X0392848
X0381037
X0369226
X0375132Y0184405
X0386943
X0398754
X0410565
X0422376
X0434187
X0445998
X0440093Y0196216
X0428281
X0434187Y0208027
X0445998
X0440093Y0219838
X0428281
X041647
X040466
X0392848
X0381037
X0369226
X0375132Y0231649
X0386943
X0398754
X040466Y024346
X041647
X0428281
X0440093
X0445998Y0255272
X0434187
X0422376
X0410565
X0398754
X0386943
X0375132
X0381037Y024346
X0392848
X0369226
X0375132Y0208027
X0386943
X040466Y0196216
X0410565Y0160783
X0422376
Y0137161
X0410565
X0386943
X0375132
X0381037Y0148972
X0392848
X0398754Y0160783
X0386943
X0375132
X0369226Y0148972
Y012535
X0381037
X0434187Y0231649
X0445998
X0363321
X035151
X0339699
X0329035Y0229528
X0333793Y0219838
X0345604
X0357415
X0363321Y0208027
X035151
X0339699
X0345604Y0196216
X0357415
X035151Y0184405
X0339699
X0327888
X0316077
X0304266
X0292455
X0280644
X0268833
X0257022
X0245211
X02334
X0221589
X0209778
X0215683Y0196216
X0227494
X0239305
X0251116
X0262927
X0274738
X029836
X0310171
X0321982
X0333793
Y0172594
X0321982
X0327888Y0160783
X0316077
X0304266
X0292455
X0280644
X0286549Y0172594
X029836
Y0148972
X0310171
X0304266Y0137161
X0292455
X0280644
X0268833
X0257022
X0262927Y012535
X0274738
X0286549
X0280644Y0113539
X0268833
X0257022
X0251116Y012535
X02334Y0137161
X0221589
X0209778
Y0160783
X0221589
X02334
X0245211
X0257022
X0262927Y0172594
X0274738
X0251116
X0239305
X0227494
X0215683
X0227494Y0148972
X0209778Y0113539
X0304266
X0310171Y012535
X0321982
X0333793
X0329626Y0131201
X0339699Y0137161
X035151
X0363321
X0357415Y0148972
X0345604
X0333793
X035151Y0160783
X0363321
X0357415Y0172594
Y012535
X0345604
X0339699Y0113539
X0321982Y0219838
X0310171
X029836
X0286549
X0274738
X0280644Y0231649
X0292455
X0304266
X0310171Y024346
X0321982
X0333793
X0345604
X0357415
X0363321Y0255272
X035151
X0339699
X0327888
X0316077
X0304266
X0292455
X0280644
X0268833
X0257022
X0262927Y024346
X0274738
X0286549
X029836
X0304266Y0208027
X0292455
X0257022
X0245211
X02334
X0221589
X0209778
X0209071Y022185
X0227494Y0219838
X0239305
X0251116
Y024346
X0215683
X0192027Y0239252
X0193996Y0235335
X0190058
X0177953Y0238976
X0170374Y0233836
X0168439Y024346
X0162382Y022185
X0156628Y0219838
X0154035Y0209941
X0154331Y0202658
X0156628Y0196216
X0168439
Y0172594
X0156628
X0144817
X0141732Y018061
X0150723Y0184405
X0127101
X0124583Y0195025
X0119499Y0194987
X0114075Y0204276
X0103051Y0205807
Y0209022
X0099836
Y0205807
X0096621
Y0209022
Y0212238
X0099836
X0103051
Y0215453
X0099836
X0096621
X0093405
Y0212238
Y0209022
Y0205807
X0093351Y018435
X0100185Y0189665
X0103479Y0177833
X0109384Y0172594
X0089173Y0163091
X0089473Y0152202
X0115289Y0137161
X0127101
X0121195Y012535
X0109384
X0156628
X0168439
X018025
X0192061
X0203872
X0197967Y0113539
X0186156
X0174345
X0162534
X0150723
X0162534Y0137161
X0174345
X0186156
X018025Y0148972
X0186156Y0160783
X0197967
Y0184405
X0186156
Y0208027
X0197967
X0196828Y022185
X0187008
X0174902
X0143494Y0229831
X012925Y0226053
X0127101Y0231649
X0115289
X0114075Y0226285
X0109449Y0226306
X0109384Y0219838
X0099186Y0233957
X008798Y0245202
X0082664Y025
X0082382Y0265846
X0076361
X0070341
X006432
X0074803Y0229823
X0078146Y0229831
Y0191057
X0073019
X0056234Y0184405
X0056004Y0163091
X0162534Y0160783
X0156628Y0148972
X0138911Y0208027
X0133006Y024346
X0121195
X0127101Y0255272
X0138911
X0115289
X0103479
X0188583Y02625
X0193602
X0050329Y024346
Y0219838
X0038518
X0026707
X0014896
X0020801Y0231649
X000899
X0014896Y024346
X0026707
X0032612Y0255272
X0020801
X000899
Y0208027
X0020801
X0032612
X0026707Y0196216
X0014896
X0020801Y0184405
X0032612
X0044423
X0050329Y0196216
X0044423Y0160783
X0032612
X0020801
X000899
X0014896Y0172594
X0026707
Y0148972
X0038518
X0050329
X0014896
X0020801Y0137161
X000899
X0014896Y012535
X0020801Y0113539
X000899
Y0184405
X0014896Y0267083
X0026707
X0038518
X0032612Y0276181
X0020801
X000748Y0275197
X0044423Y0277157
X0050329Y0337949
X0044423Y034976
X0032612
X0020801
X000899
X0014896Y0361571
X0026707
X0038518
X0032612Y0373382
X0038518Y0385193
X0026707Y0337949
X0014896
X006214
X0073951
X0079856Y034976
X0068045
X0056234
X0110138Y0352362
X0116043
Y0358268
Y0364173
Y0370079
X0121949
X0127854
X013376
X0139665
X0145571
Y0364173
X0139665
X013376
X0127854
X0121949
Y0358268
X0127854
X013376
X0139665
X0145571
Y0352362
X0139665
X013376
X0127854
X0121949
Y0346457
X0116043
Y0340551
X0121949
X0127854
Y0346457
X013376
X0139665
X0145571
Y0340551
X0139665
X013376
Y0334646
X0139665
X0145571
X0146106Y0319133
Y0310471
X0157283Y0310924
X0162598
X0167913
X0173228
X0178543
X0183858
X0189173
X0194488
X0199803
X0205118
Y0317913
X0199803
X0194488
X0189173
X0183858
X0178543
X0173228
X0167913
X0162598
X0157283
X0134921Y0314308
X0127854Y0334646
X0121949
X0116043
X0110138
Y0340551
Y0346457
Y0358268
Y0364173
Y0370079
X0158366Y0373327
X0162303
X016624
X0170177
X0174114
Y0377264
X0170177
X016624
X0162303
X0158366
Y0381201
X0162303
X016624
X0170177
X0174114
X0107764Y0301689
X0097424Y0301659
X0084055Y0277887
X0082382Y0271867
X0076361
X0070341
X006432
X0062121Y0277887
X011624Y0276181
Y028061
X0121504Y0275255
X0209599Y0310924
X0213287Y0313386
X0216339Y0316732
X0219791Y0320129
X0223377Y0323562
X0222264Y0332087
X0218602Y032874
X0214469Y0324606
X0210359Y0321075
X0243701Y0289164
Y0285335
Y0280807
Y027687
X0247638
Y0272933
X0243701
X0252658Y0272843
Y027678
X0256594
Y0280717
Y0285245
Y0289075
Y0272843
X0285323Y0279596
X029685Y0279626
X0300528Y0314663
X0311713Y0311121
X0318307
X0323622
X0328937
X0334252
X0339567
X0344882
X0350197
X0355512
X0360827
Y031811
X0355512
X0350197
X0344882
X0339567
X0334252
X0328937
X0323622
X0318307
X0311713Y0319783
X0311141Y0335314
X0305236
X029933
X0293425
X0287519
X0281613
X0275708
Y0341219
Y0347125
Y035303
Y0358936
Y0364842
Y0370747
X0281613
Y0364842
Y0358936
Y035303
Y0347125
Y0341219
X0287519
X0293425
X029933
X0305236
X0311141
Y0347125
X0305236
X029933
X0293425
X0287519
Y035303
X0293425
X029933
X0305236
X0311141
Y0358936
X0305236
X029933
X0293425
X0287519
Y0364842
X0293425
X029933
X0305236
X0311141
Y0370747
X0305236
X029933
X0293425
X0287519
X0260197Y0370669
X025626
X0252323
X0248386
X0244449
Y0366732
Y0362795
X0248386
Y0366732
X0252323
X025626
X0260197
Y0362795
X025626
X0252323
X0260197Y0358268
Y0354438
X0244449
Y0358268
X0322539Y0371752
Y0375689
Y0379626
X0326476
X0330413
X033435
X0338287
Y0375689
X033435
X0330413
X0326476
Y0371752
X0330413
X033435
X0338287
X0410565Y0373382
X0422376
X0428281Y0361571
X0440093
X0445998Y034976
X0434187
X0422376
X0428281Y0337949
X0440093
X0445998Y0326138
X0434187
X0440093Y0314327
X0428281
X0434187Y0302516
X0445998
X0440093Y0290704
X0428281
X0434187Y0278893
X0445998
X0440093Y0267083
X0428281
X041647
X0422376Y0278893
X041647Y0337949
X0393237Y0337724
Y0343039
X0386248
Y0337724
Y0332409
X0393237
X0392446Y0328157
X0389237Y0325263
X0386344Y032237
X0383331Y0318352
X0379677Y0315053
X0375801Y0311598
X0371457Y0311121
X0366142
Y031811
X0371457
X0375457Y0321109
X0378695Y0324318
X038239Y0327784
X041647Y0361571
Y0385193
T02
X0082087Y031939
Y0339075
T03
X0141732Y001315
Y002315
Y003315
Y004315
Y005315
Y006315
Y007315
Y008315
Y009315
Y010315
X0241732
Y009315
Y008315
Y007315
Y006315
Y005315
Y004315
Y003315
Y002315
Y001315
Y011315
Y012315
Y013315
Y014315
Y015315
X0141732
Y014315
Y013315
Y012315
Y011315
T04
X0084449Y0064311
Y0074311
Y0084311
X0114075Y0103789
X0274311Y0082638
Y0072638
Y0062638
Y0052638
Y003315
Y002315
X0297578Y0073268
Y0083268
Y0093268
X0310335Y0083622
Y0073622
Y0063622
X0350984Y009187
Y010187
Y011187
X0332972Y0209012
X0322972
X0312972
X0284665Y020885
X0274665
X0264665
X0272441Y0162461
Y0152461
X0212382Y0214567
X0202382
X0192382
X0182382
X0172382
X0162382
X0158858Y0239252
Y0249252
Y0259252
X0144193
Y0249252
Y0239252
X0112303Y0164035
Y0154035
X0114075Y0113789
T05
X0038091Y003937
Y0059055
Y007874
X0065551Y0039173
X0085236
X0104921
X0308366Y0039665
X0328051
X0347736
X0383366Y0039934
X0403051
X0416142Y0126772
Y0146457
X0416339Y0190945
Y021063
Y0230315
X0039272Y0230315
Y025
X0038878Y0192815
Y017313
X0038386Y0133563
Y0113878
X0039224Y031811
Y0337795
X0232087Y0355905
X0251772
X038997Y035585
X0409655
T06
X0439665Y001565
X0019539Y0375984
X0438976Y0378839
M30
