G04*
G04 #@! TF.GenerationSoftware,Altium Limited,Altium Designer,22.10.1 (41)*
G04*
G04 Layer_Color=8388736*
%FSLAX25Y25*%
%MOIN*%
G70*
G04*
G04 #@! TF.SameCoordinates,F8C157B4-DA96-4F04-9901-D09C045D4249*
G04*
G04*
G04 #@! TF.FilePolarity,Positive*
G04*
G01*
G75*
%ADD10C,0.00787*%
%ADD11C,0.00394*%
%ADD12C,0.00600*%
%ADD117C,0.00100*%
%ADD118C,0.00197*%
D10*
X102165Y329232D02*
G03*
X102165Y329232I-20079J0D01*
G01*
X46260Y100098D02*
Y147343D01*
X-984D02*
X46260D01*
X-984Y100098D02*
Y147343D01*
Y100098D02*
X46260D01*
X22638Y119783D02*
Y127657D01*
X18701Y123721D02*
X26575D01*
X369587Y47808D02*
X416831D01*
X369587Y564D02*
Y47808D01*
Y564D02*
X416831D01*
Y47808D01*
X389272Y24186D02*
X397146D01*
X393209Y20249D02*
Y28123D01*
X408268Y112992D02*
Y160236D01*
Y112992D02*
X455512D01*
Y160236D01*
X408268D02*
X455512D01*
X431890Y132677D02*
Y140551D01*
X427953Y136614D02*
X435827D01*
X46752Y159350D02*
Y206594D01*
X-492D02*
X46752D01*
X-492Y159350D02*
Y206594D01*
Y159350D02*
X46752D01*
X23130Y179035D02*
Y186909D01*
X19193Y182973D02*
X27067D01*
X47146Y216535D02*
Y263779D01*
X-98D02*
X47146D01*
X-98Y216535D02*
Y263779D01*
Y216535D02*
X47146D01*
X23524Y236221D02*
Y244094D01*
X19587Y240158D02*
X27461D01*
X376190Y347976D02*
X423435D01*
Y395220D01*
X376190D02*
X423435D01*
X376190Y347976D02*
Y395220D01*
X395876Y371598D02*
X403750D01*
X399813Y367661D02*
Y375535D01*
X47098Y304331D02*
Y351575D01*
X-146D02*
X47098D01*
X-146Y304331D02*
Y351575D01*
Y304331D02*
X47098D01*
X23476Y324016D02*
Y331890D01*
X19539Y327953D02*
X27413D01*
X218307Y348031D02*
X265551D01*
Y395275D01*
X218307D02*
X265551D01*
X218307Y348031D02*
Y395275D01*
X237992Y371654D02*
X245866D01*
X241929Y367717D02*
Y375591D01*
X155131Y290029D02*
X205525D01*
X155131D02*
Y340423D01*
X205525D01*
Y290029D02*
Y340423D01*
X180328Y306958D02*
Y321525D01*
X173045Y314242D02*
X187612D01*
X321457Y288681D02*
X371850D01*
X321457D02*
Y339075D01*
X371850D01*
Y288681D02*
Y339075D01*
X346654Y305610D02*
Y320177D01*
X339370Y312894D02*
X353937D01*
X156575Y209044D02*
Y220067D01*
Y220067D02*
X218307D01*
X156575Y209044D02*
X218307D01*
Y209044D02*
Y220067D01*
X268799Y47697D02*
Y87756D01*
X279823D01*
X268799Y47697D02*
X279823D01*
Y87756D01*
X345866Y85728D02*
Y118012D01*
Y85728D02*
X356102D01*
X350984D02*
X353346D01*
X350984Y118012D02*
X352953D01*
X345866D02*
X356102D01*
Y85728D02*
Y118012D01*
X302696Y67126D02*
Y99409D01*
X292460D02*
X302696D01*
X295216D02*
X297578D01*
X295609Y67126D02*
X297578D01*
X292460D02*
X302696D01*
X292460D02*
Y99409D01*
X89567Y58169D02*
Y90453D01*
X79331D02*
X89567D01*
X82087D02*
X84449D01*
X82480Y58169D02*
X84449D01*
X79331D02*
X89567D01*
X79331D02*
Y90453D01*
X305217Y57480D02*
Y89764D01*
Y57480D02*
X315453D01*
X310335D02*
X312697D01*
X310335Y89764D02*
X312303D01*
X305217D02*
X315453D01*
Y57480D02*
Y89764D01*
X139075Y233110D02*
Y265394D01*
Y233110D02*
X149311D01*
X144193D02*
X146555D01*
X144193Y265394D02*
X146161D01*
X139075D02*
X149311D01*
Y233110D02*
Y265394D01*
X153740Y233110D02*
Y265394D01*
Y233110D02*
X163976D01*
X158858D02*
X161221D01*
X158858Y265394D02*
X160827D01*
X153740D02*
X163976D01*
Y233110D02*
Y265394D01*
X258524Y203732D02*
X290807D01*
Y213968D01*
Y208850D02*
Y211212D01*
X258524Y208850D02*
Y210818D01*
Y203732D02*
Y213968D01*
X290807D01*
X306831Y203894D02*
X339114D01*
Y214130D01*
Y209012D02*
Y211374D01*
X306831Y209012D02*
Y210980D01*
Y203894D02*
Y214130D01*
X339114D01*
X267323Y146319D02*
Y167027D01*
Y146319D02*
X277559D01*
X272441D02*
X274803D01*
X267323Y167027D02*
X277559D01*
Y146319D02*
Y167027D01*
X107185Y147894D02*
Y168602D01*
Y147894D02*
X117421D01*
X112303D02*
X114665D01*
X107185Y168602D02*
X117421D01*
Y147894D02*
Y168602D01*
X119193Y99222D02*
Y119931D01*
X108957D02*
X119193D01*
X111713D02*
X114075D01*
X108957Y99222D02*
X119193D01*
X108957D02*
Y119931D01*
X279429Y18583D02*
Y39291D01*
X269193D02*
X279429D01*
X271949D02*
X274311D01*
X269193Y18583D02*
X279429D01*
X269193D02*
Y39291D01*
X217922Y244514D02*
Y254750D01*
X212804Y249632D02*
X223040D01*
X245776Y235951D02*
Y264101D01*
X197056Y235951D02*
X245776D01*
X197056D02*
Y264101D01*
X245776D01*
D11*
X450295Y15650D02*
G03*
X450295Y15650I-10630J0D01*
G01*
X30169Y375984D02*
G03*
X30169Y375984I-10630J0D01*
G01*
X449606Y378839D02*
G03*
X449606Y378839I-10630J0D01*
G01*
X241683Y150345D02*
Y155955D01*
X238878Y153150D02*
X244488D01*
X138878D02*
X144488D01*
X141683Y150345D02*
Y155955D01*
X408465Y177165D02*
Y244094D01*
Y177165D02*
X455709D01*
Y244094D01*
X408465D02*
X455709D01*
X428150Y210630D02*
X432087D01*
X436024D01*
X432087Y206693D02*
Y210630D01*
Y214567D01*
X294587Y47539D02*
X361516D01*
X294587Y295D02*
Y47539D01*
Y295D02*
X361516D01*
Y47539D01*
X328051Y23917D02*
Y27854D01*
Y19980D02*
Y23917D01*
X324114D02*
X328051D01*
X331988D01*
X45965Y25591D02*
Y92520D01*
X-1279D02*
X45965D01*
X-1279Y25591D02*
Y92520D01*
Y25591D02*
X45965D01*
X22343Y59055D02*
X26280D01*
X18406D02*
X22343D01*
Y62992D01*
Y55118D02*
Y59055D01*
X51772Y47047D02*
X118701D01*
X51772Y-197D02*
Y47047D01*
Y-197D02*
X118701D01*
Y47047D01*
X85236Y23425D02*
Y27362D01*
Y19488D02*
Y23425D01*
X81299D02*
X85236D01*
X89173D01*
X65940Y257809D02*
Y297966D01*
Y257809D02*
X113775D01*
Y297966D01*
X65940D02*
X113775D01*
X85939Y277887D02*
X93813D01*
X89956Y273950D02*
Y281824D01*
X206299Y346358D02*
Y386516D01*
X158465D02*
X206299D01*
X158465Y346358D02*
Y386516D01*
Y346358D02*
X206299D01*
X178426Y366437D02*
X186301D01*
X182283Y362500D02*
Y370374D01*
X370472Y344783D02*
Y384941D01*
X322638D02*
X370472D01*
X322638Y344783D02*
Y384941D01*
Y344783D02*
X370472D01*
X342600Y364862D02*
X350474D01*
X346457Y360925D02*
Y368799D01*
X233739Y278445D02*
Y324514D01*
Y278445D02*
X266943D01*
X233739Y324514D02*
X266943D01*
Y278445D02*
Y324514D01*
X246457Y301378D02*
X254331D01*
X250394Y297441D02*
Y305315D01*
X82087Y327264D02*
Y331201D01*
X80118Y329232D02*
X84055D01*
X439665Y13681D02*
Y17618D01*
X437697Y15650D02*
X441634D01*
X17571Y375984D02*
X21508D01*
X19539Y374016D02*
Y377953D01*
X438976Y376870D02*
Y380807D01*
X437008Y378839D02*
X440945D01*
X271500Y306691D02*
X315988D01*
Y373620D01*
X271500D02*
X315988D01*
X271500Y306691D02*
Y373620D01*
X292366Y340155D02*
X296303D01*
X294335Y338187D02*
Y342124D01*
X105894Y306040D02*
X150382D01*
Y372969D01*
X105894D02*
X150382D01*
X105894Y306040D02*
Y372969D01*
X126760Y339505D02*
X130697D01*
X128728Y337536D02*
Y341473D01*
X394446Y86221D02*
Y95374D01*
X407045Y86221D02*
Y95374D01*
X394446Y86221D02*
X407045D01*
X394446Y95374D02*
X407045D01*
X400647Y88878D02*
Y90847D01*
X402615D01*
X400647D02*
Y92815D01*
X398678Y90847D02*
X400647D01*
X23720Y281496D02*
X30902D01*
Y285039D02*
Y290551D01*
X23720Y281496D02*
Y294685D01*
X30902D01*
X26178Y287992D02*
X28540D01*
X27362Y286810D02*
Y289172D01*
X30902Y281496D02*
Y285039D01*
Y290551D02*
Y294685D01*
X261126Y240059D02*
X268307D01*
X261126Y231004D02*
Y236516D01*
X268307Y226870D02*
Y240059D01*
X261126Y226870D02*
X268307D01*
X263488Y233563D02*
X265850D01*
X264665Y232383D02*
Y234745D01*
X261126Y236516D02*
Y240059D01*
Y226870D02*
Y231004D01*
X122412Y175062D02*
X129594D01*
X122412Y166007D02*
Y171519D01*
X129594Y161873D02*
Y175062D01*
X122412Y161873D02*
X129594D01*
X124774Y168566D02*
X127137D01*
X125952Y167386D02*
Y169748D01*
X122412Y171519D02*
Y175062D01*
Y161873D02*
Y166007D01*
X68183Y172601D02*
X76057D01*
X72120Y168664D02*
Y172601D01*
Y176538D01*
X322962Y232886D02*
X324537D01*
X323721Y232087D02*
Y233661D01*
X326140Y226969D02*
Y238779D01*
X321416Y226969D02*
X326140D01*
X321416D02*
Y238779D01*
X326140D01*
X219004Y285491D02*
Y287066D01*
X218228Y286250D02*
X219803D01*
X213110Y288669D02*
X224921D01*
Y283945D02*
Y288669D01*
X213110Y283945D02*
X224921D01*
X213110D02*
Y288669D01*
X139185Y220414D02*
Y221989D01*
X138386Y221230D02*
X139961D01*
X133268Y218810D02*
X145079D01*
X133268D02*
Y223534D01*
X145079D01*
Y218810D02*
Y223534D01*
X282058Y148610D02*
X283633D01*
X282874Y147835D02*
Y149409D01*
X280454Y142717D02*
Y154528D01*
X285179D01*
Y142717D02*
Y154528D01*
X280454Y142717D02*
X285179D01*
X256693Y150984D02*
Y153740D01*
Y142913D02*
Y145472D01*
X253153Y147243D02*
Y149605D01*
X251969Y148425D02*
X254331D01*
X249606Y153937D02*
X256693D01*
X249606Y142913D02*
Y153937D01*
X256693Y145472D02*
Y150984D01*
X249606Y142913D02*
X256693D01*
X264961Y150886D02*
Y153642D01*
Y142815D02*
Y145374D01*
X261421Y147144D02*
Y149507D01*
X260236Y148327D02*
X262598D01*
X257874Y153839D02*
X264961D01*
X257874Y142815D02*
Y153839D01*
X264961Y145374D02*
Y150886D01*
X257874Y142815D02*
X264961D01*
X344980Y58661D02*
X347736D01*
X353248D02*
X355807D01*
X349115Y55122D02*
X351478D01*
X350295Y53937D02*
Y56299D01*
X344783Y51575D02*
Y58661D01*
Y51575D02*
X355807D01*
X347736Y58661D02*
X353248D01*
X355807Y51575D02*
Y58661D01*
X370583Y70268D02*
X373339D01*
X378851D02*
X381410D01*
X374718Y66728D02*
X377080D01*
X375898Y65543D02*
Y67905D01*
X370386Y63181D02*
Y70268D01*
Y63181D02*
X381410D01*
X373339Y70268D02*
X378851D01*
X381410Y63181D02*
Y70268D01*
X401279Y146653D02*
Y149409D01*
Y138583D02*
Y141142D01*
X397740Y142912D02*
Y145274D01*
X396555Y144095D02*
X398917D01*
X394193Y149606D02*
X401279D01*
X394193Y138583D02*
Y149606D01*
X401279Y141142D02*
Y146653D01*
X394193Y138583D02*
X401279D01*
X190748Y251673D02*
X193504D01*
X182677D02*
X185236D01*
X187007Y255213D02*
X189369D01*
X188189Y254035D02*
Y256398D01*
X193701Y251673D02*
Y258760D01*
X182677D02*
X193701D01*
X185236Y251673D02*
X190748D01*
X182677D02*
Y258760D01*
X190196Y240876D02*
X192952D01*
X182125D02*
X184684D01*
X186454Y244415D02*
X188816D01*
X187636Y243238D02*
Y245600D01*
X193148Y240876D02*
Y247962D01*
X182125D02*
X193148D01*
X184684Y240876D02*
X190196D01*
X182125D02*
Y247962D01*
X127067Y142815D02*
Y145571D01*
Y151083D02*
Y153642D01*
X130607Y146950D02*
Y149312D01*
X129429Y148130D02*
X131791D01*
X127067Y142618D02*
X134153D01*
Y153642D01*
X127067Y145571D02*
Y151083D01*
Y153642D02*
X134153D01*
X118898Y142815D02*
Y145571D01*
Y151083D02*
Y153642D01*
X122437Y146950D02*
Y149312D01*
X121260Y148130D02*
X123622D01*
X118898Y142618D02*
X125984D01*
Y153642D01*
X118898Y145571D02*
Y151083D01*
Y153642D02*
X125984D01*
X100272Y299297D02*
Y310321D01*
X104997D01*
Y299297D02*
Y310321D01*
X100272Y299297D02*
X104997D01*
X101847Y304809D02*
X103422D01*
X102635Y304021D02*
Y305596D01*
X160413Y214567D02*
X164350D01*
X162382Y212598D02*
Y216535D01*
X272342Y82638D02*
X276279D01*
X274311Y80669D02*
Y84606D01*
X349016Y91870D02*
X352953D01*
X350984Y89902D02*
Y93839D01*
X295609Y93268D02*
X299546D01*
X297578Y91299D02*
Y95236D01*
X82480Y84311D02*
X86417D01*
X84449Y82342D02*
Y86279D01*
X308366Y63622D02*
X312303D01*
X310335Y61654D02*
Y65591D01*
X142224Y239252D02*
X146161D01*
X144193Y237283D02*
Y241220D01*
X156890Y239252D02*
X160827D01*
X158858Y237283D02*
Y241220D01*
X284665Y206881D02*
Y210818D01*
X282697Y208850D02*
X286634D01*
X332972Y207043D02*
Y210980D01*
X331004Y209012D02*
X334941D01*
X270472Y152461D02*
X274409D01*
X272441Y150492D02*
Y154429D01*
X110335Y154035D02*
X114272D01*
X112303Y152067D02*
Y156004D01*
X112106Y113789D02*
X116043D01*
X114075Y111821D02*
Y115758D01*
X272342Y33150D02*
X276279D01*
X274311Y31181D02*
Y35118D01*
X67806Y123625D02*
Y127955D01*
X67864Y123671D02*
X72195D01*
X67806Y119294D02*
Y123625D01*
X63534Y123671D02*
X67864D01*
X81644Y101230D02*
Y146112D01*
X54872D02*
X81644D01*
X54872Y101230D02*
Y146112D01*
Y101230D02*
X81644D01*
X324508Y93307D02*
X336319D01*
X324508Y87008D02*
Y93307D01*
Y87008D02*
X336319D01*
Y93307D01*
X330413Y89370D02*
Y90945D01*
X329626Y90158D02*
X331201D01*
X73543Y155483D02*
X85354D01*
X73543Y149184D02*
Y155483D01*
Y149184D02*
X85354D01*
Y155483D01*
X79449Y151546D02*
Y153121D01*
X78661Y152333D02*
X80236D01*
X60918Y155709D02*
X72729D01*
X60918Y149410D02*
Y155709D01*
Y149410D02*
X72729D01*
Y155709D01*
X66824Y151772D02*
Y153347D01*
X66036Y152560D02*
X67611D01*
X382561Y63681D02*
X394372D01*
Y69980D01*
X382561D02*
X394372D01*
X382561Y63681D02*
Y69980D01*
X388467Y66043D02*
Y67618D01*
X387680Y66831D02*
X389254D01*
X394587Y124606D02*
Y136417D01*
Y124606D02*
X400886D01*
Y136417D01*
X394587D02*
X400886D01*
X396949Y130512D02*
X398524D01*
X397736Y129724D02*
Y131299D01*
X60925Y166634D02*
Y178445D01*
X54626D02*
X60925D01*
X54626Y166634D02*
Y178445D01*
Y166634D02*
X60925D01*
X56988Y172539D02*
X58563D01*
X57776Y171752D02*
Y173327D01*
X193799Y266043D02*
X205610D01*
Y272342D01*
X193799D02*
X205610D01*
X193799Y266043D02*
Y272342D01*
X199705Y268406D02*
Y269980D01*
X198917Y269193D02*
X200492D01*
X270168Y228338D02*
Y240149D01*
Y228338D02*
X276468D01*
Y240149D01*
X270168D02*
X276468D01*
X272531Y234244D02*
X274105D01*
X273318Y233456D02*
Y235031D01*
X116535Y175984D02*
X128347D01*
Y182283D01*
X116535D02*
X128347D01*
X116535Y175984D02*
Y182283D01*
X122441Y178347D02*
Y179921D01*
X121653Y179134D02*
X123228D01*
X295276Y108071D02*
X307087D01*
X295276Y101772D02*
Y108071D01*
Y101772D02*
X307087D01*
Y108071D01*
X301181Y104134D02*
Y105709D01*
X300394Y104921D02*
X301969D01*
X318209Y64967D02*
X322933D01*
X318209Y53520D02*
Y64967D01*
Y53520D02*
X322933D01*
Y64967D01*
X319783Y59252D02*
X321358D01*
X320571Y58464D02*
Y60039D01*
X392717Y202159D02*
X397441D01*
Y213605D01*
X392717D02*
X397441D01*
X392717Y202159D02*
Y213605D01*
X394291Y207874D02*
X395866D01*
X395079Y207087D02*
Y208661D01*
X392717Y188734D02*
X397441D01*
Y200180D01*
X392717D02*
X397441D01*
X392717Y188734D02*
Y200180D01*
X394291Y194449D02*
X395866D01*
X395079Y193661D02*
Y195236D01*
X317815Y80899D02*
X322539D01*
Y92346D01*
X317815D02*
X322539D01*
X317815Y80899D02*
Y92346D01*
X319390Y86614D02*
X320965D01*
X320177Y85827D02*
Y87401D01*
X406896Y64468D02*
Y69193D01*
X395450D02*
X406896D01*
X395450Y64468D02*
Y69193D01*
Y64468D02*
X406896D01*
X401181Y66043D02*
Y67618D01*
X400394Y66831D02*
X401968D01*
X406896Y70325D02*
Y75049D01*
X395450D02*
X406896D01*
X395450Y70325D02*
Y75049D01*
Y70325D02*
X406896D01*
X401181Y71900D02*
Y73474D01*
X400394Y72687D02*
X401968D01*
X406896Y76181D02*
Y80905D01*
X395450D02*
X406896D01*
X395450Y76181D02*
Y80905D01*
Y76181D02*
X406896D01*
X401181Y77756D02*
Y79331D01*
X400394Y78543D02*
X401968D01*
X383169Y117907D02*
X387894D01*
Y129354D01*
X383169D02*
X387894D01*
X383169Y117907D02*
Y129354D01*
X384744Y123622D02*
X386319D01*
X385531Y122835D02*
Y124409D01*
X388541Y89659D02*
X393265D01*
Y101105D01*
X388541D02*
X393265D01*
X388541Y89659D02*
Y101105D01*
X390115Y95374D02*
X391690D01*
X390903Y94587D02*
Y96161D01*
X400454Y117913D02*
Y122638D01*
X389007D02*
X400454D01*
X389007Y117913D02*
Y122638D01*
Y117913D02*
X400454D01*
X394739Y119488D02*
Y121063D01*
X393951Y120276D02*
X395526D01*
X382953Y76181D02*
Y80905D01*
Y76181D02*
X394400D01*
Y80905D01*
X382953D02*
X394400D01*
X388668Y77756D02*
Y79331D01*
X387881Y78543D02*
X389456D01*
X406559Y96653D02*
Y101378D01*
X395112D02*
X406559D01*
X395112Y96653D02*
Y101378D01*
Y96653D02*
X406559D01*
X400844Y98228D02*
Y99803D01*
X400056Y99016D02*
X401631D01*
X406559Y102239D02*
Y106964D01*
X395112D02*
X406559D01*
X395112Y102239D02*
Y106964D01*
Y102239D02*
X406559D01*
X400844Y103814D02*
Y105389D01*
X400056Y104601D02*
X401631D01*
X224810Y278248D02*
Y282972D01*
X213363D02*
X224810D01*
X213363Y278248D02*
Y282972D01*
Y278248D02*
X224810D01*
X219094Y279823D02*
Y281398D01*
X218307Y280610D02*
X219882D01*
X315551Y227159D02*
X320276D01*
Y238605D01*
X315551D02*
X320276D01*
X315551Y227159D02*
Y238605D01*
X317126Y232874D02*
X318701D01*
X317913Y232087D02*
Y233661D01*
X31890Y293117D02*
X36614D01*
X31890Y281670D02*
Y293117D01*
Y281670D02*
X36614D01*
Y293117D01*
X33465Y287402D02*
X35039D01*
X34252Y286614D02*
Y288189D01*
X37697Y281588D02*
X42421D01*
Y293035D01*
X37697D02*
X42421D01*
X37697Y281588D02*
Y293035D01*
X39272Y287303D02*
X40846D01*
X40059Y286516D02*
Y288090D01*
X133458Y212795D02*
Y217520D01*
Y212795D02*
X144905D01*
Y217520D01*
X133458D02*
X144905D01*
X139173Y214370D02*
Y215945D01*
X138386Y215158D02*
X139961D01*
X286614Y142907D02*
X291339D01*
Y154354D01*
X286614D02*
X291339D01*
X286614Y142907D02*
Y154354D01*
X288189Y148622D02*
X289764D01*
X288976Y147835D02*
Y149409D01*
X316142Y121660D02*
X320866D01*
X316142Y110213D02*
Y121660D01*
Y110213D02*
X320866D01*
Y121660D01*
X317717Y115945D02*
X319291D01*
X318504Y115157D02*
Y116732D01*
X83661Y145177D02*
X86811D01*
X83661Y138878D02*
Y145177D01*
Y138878D02*
X86811D01*
Y145177D01*
X84449Y142028D02*
X86024D01*
X85236Y141240D02*
Y142815D01*
X120703Y290035D02*
X124640D01*
X122564Y288082D02*
Y292019D01*
X128183Y276649D02*
Y303421D01*
X117160Y276649D02*
X128183D01*
X117160D02*
Y303421D01*
X128183D01*
X288484Y287500D02*
X292421D01*
X290346Y285547D02*
Y289484D01*
X295965Y274114D02*
Y300886D01*
X284941Y274114D02*
X295965D01*
X284941D02*
Y300886D01*
X295965D01*
X316781Y95079D02*
X328592D01*
Y106890D01*
X316781D02*
X328592D01*
X316781Y95079D02*
Y106890D01*
X322638Y99016D02*
Y102953D01*
X320669Y100984D02*
X324606D01*
X408071Y52264D02*
Y55315D01*
X401083Y52264D02*
Y53740D01*
Y52264D02*
X408071D01*
X401083Y53740D02*
Y55315D01*
X408071D01*
X402854Y121358D02*
X405905D01*
X402854Y128347D02*
X404331D01*
X402854Y121358D02*
Y128347D01*
X404331D02*
X405905D01*
Y121358D02*
Y128347D01*
D12*
X247182Y76850D02*
Y119450D01*
X236382Y159450D02*
X247182D01*
X236382Y76850D02*
Y119450D01*
Y116850D02*
Y159450D01*
X247182Y36850D02*
Y79450D01*
X236382Y36850D02*
Y79450D01*
X247182Y6791D02*
Y39450D01*
Y116850D02*
Y159450D01*
X236382Y6791D02*
Y39450D01*
Y6850D02*
X247182D01*
X136382D02*
X147182D01*
X136382Y6791D02*
Y39450D01*
X147182Y116850D02*
Y159450D01*
Y6791D02*
Y39450D01*
X136382Y36850D02*
Y79450D01*
X147182Y36850D02*
Y79450D01*
X136382Y116850D02*
Y159450D01*
Y76850D02*
Y119450D01*
Y159450D02*
X147182D01*
Y76850D02*
Y119450D01*
D117*
X64720Y165301D02*
X79520D01*
X64720D02*
Y179901D01*
Y174688D02*
Y178388D01*
Y166814D02*
Y170514D01*
Y179901D02*
X79520D01*
Y165301D02*
Y179901D01*
Y169651D02*
Y175551D01*
D118*
X403937Y53740D02*
X404626D01*
Y54429D01*
Y53740D02*
X405315D01*
X404626Y53051D02*
Y53740D01*
X404331Y124803D02*
Y125492D01*
Y124803D02*
X405020D01*
X404331Y124114D02*
Y124803D01*
X403642D02*
X404331D01*
M02*
