G04*
G04 #@! TF.GenerationSoftware,Altium Limited,Altium Designer,22.10.1 (41)*
G04*
G04 Layer_Color=32768*
%FSLAX25Y25*%
%MOIN*%
G70*
G04*
G04 #@! TF.SameCoordinates,F8C157B4-DA96-4F04-9901-D09C045D4249*
G04*
G04*
G04 #@! TF.FilePolarity,Positive*
G04*
G01*
G75*
%ADD10C,0.00787*%
%ADD12C,0.00600*%
%ADD14C,0.01000*%
%ADD17C,0.00591*%
D10*
X98Y375984D02*
Y453084D01*
X455757Y378991D02*
Y456091D01*
D12*
X192363Y450740D02*
X192324Y456738D01*
X189345Y453720D01*
X193343Y453746D01*
X199322Y456784D02*
X195323Y456758D01*
X195343Y453759D01*
X197336Y454771D01*
X198335Y454778D01*
X199341Y453785D01*
X199354Y451785D01*
X198361Y450779D01*
X196362Y450766D01*
X195356Y451759D01*
X205320Y456823D02*
X201321Y456797D01*
X201341Y453798D01*
X203333Y454810D01*
X204333Y454817D01*
X205339Y453824D01*
X205352Y451825D01*
X204359Y450818D01*
X202360Y450805D01*
X201354Y451798D01*
X211318Y456862D02*
X209325Y455849D01*
X207339Y453837D01*
X207352Y451838D01*
X208358Y450844D01*
X210357Y450857D01*
X211350Y451864D01*
X211344Y452863D01*
X210337Y453857D01*
X207339Y453837D01*
X213356Y450877D02*
X213350Y451877D01*
X214349Y451883D01*
X214356Y450884D01*
X213356Y450877D01*
X222314Y456934D02*
X220321Y455921D01*
X218335Y453909D01*
X218348Y451909D01*
X219354Y450916D01*
X221353Y450929D01*
X222346Y451935D01*
X222340Y452935D01*
X221334Y453928D01*
X218335Y453909D01*
X224320Y455947D02*
X225313Y456953D01*
X227312Y456966D01*
X228318Y455973D01*
X228325Y454974D01*
X227332Y453967D01*
X228338Y452974D01*
X228344Y451975D01*
X227351Y450968D01*
X225352Y450955D01*
X224346Y451948D01*
X224339Y452948D01*
X225332Y453954D01*
X224326Y454948D01*
X224320Y455947D01*
X225332Y453954D02*
X227332Y453967D01*
X230318Y455986D02*
X231311Y456992D01*
X233310Y457006D01*
X234316Y456012D01*
X234323Y455013D01*
X233330Y454006D01*
X232330Y454000D01*
X233330Y454006D01*
X234336Y453013D01*
X234342Y452014D01*
X233349Y451008D01*
X231350Y450994D01*
X230344Y451988D01*
X244345Y451079D02*
X242333Y453066D01*
X242320Y455065D01*
X244306Y457077D01*
X247344Y451099D02*
X247318Y455097D01*
X248318Y455104D01*
X249324Y454111D01*
X249344Y451112D01*
X249324Y454111D01*
X250317Y455117D01*
X251323Y454124D01*
X251343Y451125D01*
X253342Y451138D02*
X255342Y451151D01*
X254342Y451145D01*
X254316Y455143D01*
X253316Y455137D01*
X258341Y451171D02*
X260340Y451184D01*
X259340Y451177D01*
X259301Y457175D01*
X258301Y457169D01*
X263339Y451203D02*
X265325Y453216D01*
X265312Y455215D01*
X263300Y457201D01*
X-241723Y180854D02*
Y182166D01*
Y181510D01*
X-245659D01*
X-245003Y180854D01*
Y184134D02*
X-245659Y184790D01*
Y186102D01*
X-245003Y186758D01*
X-242379D01*
X-241723Y186102D01*
Y184790D01*
X-242379Y184134D01*
X-245003D01*
Y188070D02*
X-245659Y188726D01*
Y190038D01*
X-245003Y190694D01*
X-242379D01*
X-241723Y190038D01*
Y188726D01*
X-242379Y188070D01*
X-245003D01*
X-241723Y192006D02*
X-242379D01*
Y192662D01*
X-241723D01*
Y192006D01*
Y197253D02*
X-245659D01*
X-243691Y195285D01*
Y197909D01*
X-242379Y199221D02*
X-241723Y199877D01*
Y201189D01*
X-242379Y201845D01*
X-245003D01*
X-245659Y201189D01*
Y199877D01*
X-245003Y199221D01*
X-244347D01*
X-243691Y199877D01*
Y201845D01*
X-241723Y203157D02*
X-244347D01*
Y203813D01*
X-243691Y204469D01*
X-241723D01*
X-243691D01*
X-244347Y205125D01*
X-243691Y205781D01*
X-241723D01*
Y207093D02*
X-244347D01*
Y207749D01*
X-243691Y208405D01*
X-241723D01*
X-243691D01*
X-244347Y209061D01*
X-243691Y209717D01*
X-241723D01*
D14*
X455751Y457058D02*
X455763Y455058D01*
X92Y454084D02*
X105Y452084D01*
X449770Y454019D02*
X455757Y456058D01*
X449744Y458019D02*
X455757Y456058D01*
X98Y453084D02*
X6111Y451124D01*
X98Y453084D02*
X6085Y455123D01*
X267515Y454830D02*
X455757Y456058D01*
X98Y453084D02*
X188341Y454313D01*
X-244291Y395669D02*
X-242291Y389669D01*
X-246291D02*
X-244291Y395669D01*
X-246291Y6039D02*
X-244291Y39D01*
X-242291Y6039D01*
X-244291Y212285D02*
Y395669D01*
Y39D02*
Y178286D01*
D17*
X-244882Y395669D02*
X18631D01*
X-244882Y39D02*
X15157D01*
M02*
