G04*
G04 #@! TF.GenerationSoftware,Altium Limited,Altium Designer,22.10.1 (41)*
G04*
G04 Layer_Color=16711935*
%FSLAX25Y25*%
%MOIN*%
G70*
G04*
G04 #@! TF.SameCoordinates,F8C157B4-DA96-4F04-9901-D09C045D4249*
G04*
G04*
G04 #@! TF.FilePolarity,Negative*
G04*
G01*
G75*
%ADD58R,0.04331X0.04134*%
%ADD63R,0.03543X0.05512*%
%ADD64R,0.05512X0.03543*%
%ADD72C,0.05800*%
%ADD73C,0.09843*%
G04:AMPARAMS|DCode=74|XSize=98.43mil|YSize=98.43mil|CornerRadius=25.59mil|HoleSize=0mil|Usage=FLASHONLY|Rotation=90.000|XOffset=0mil|YOffset=0mil|HoleType=Round|Shape=RoundedRectangle|*
%AMROUNDEDRECTD74*
21,1,0.09843,0.04724,0,0,90.0*
21,1,0.04724,0.09843,0,0,90.0*
1,1,0.05118,0.02362,0.02362*
1,1,0.05118,0.02362,-0.02362*
1,1,0.05118,-0.02362,-0.02362*
1,1,0.05118,-0.02362,0.02362*
%
%ADD74ROUNDEDRECTD74*%
G04:AMPARAMS|DCode=75|XSize=98.43mil|YSize=98.43mil|CornerRadius=25.59mil|HoleSize=0mil|Usage=FLASHONLY|Rotation=0.000|XOffset=0mil|YOffset=0mil|HoleType=Round|Shape=RoundedRectangle|*
%AMROUNDEDRECTD75*
21,1,0.09843,0.04724,0,0,0.0*
21,1,0.04724,0.09843,0,0,0.0*
1,1,0.05118,0.02362,-0.02362*
1,1,0.05118,-0.02362,-0.02362*
1,1,0.05118,-0.02362,0.02362*
1,1,0.05118,0.02362,0.02362*
%
%ADD75ROUNDEDRECTD75*%
%ADD76C,0.04724*%
%ADD77C,0.21654*%
%ADD78C,0.06693*%
%ADD79R,0.06693X0.06693*%
%ADD80R,0.06693X0.06693*%
%ADD81C,0.02756*%
%ADD111R,0.04134X0.04331*%
%ADD112R,0.02874X0.02717*%
%ADD113R,0.02717X0.02874*%
G04:AMPARAMS|DCode=114|XSize=41.73mil|YSize=14.57mil|CornerRadius=3.3mil|HoleSize=0mil|Usage=FLASHONLY|Rotation=180.000|XOffset=0mil|YOffset=0mil|HoleType=Round|Shape=RoundedRectangle|*
%AMROUNDEDRECTD114*
21,1,0.04173,0.00797,0,0,180.0*
21,1,0.03514,0.01457,0,0,180.0*
1,1,0.00659,-0.01757,0.00399*
1,1,0.00659,0.01757,0.00399*
1,1,0.00659,0.01757,-0.00399*
1,1,0.00659,-0.01757,-0.00399*
%
%ADD114ROUNDEDRECTD114*%
G04:AMPARAMS|DCode=115|XSize=41.73mil|YSize=14.57mil|CornerRadius=3.3mil|HoleSize=0mil|Usage=FLASHONLY|Rotation=270.000|XOffset=0mil|YOffset=0mil|HoleType=Round|Shape=RoundedRectangle|*
%AMROUNDEDRECTD115*
21,1,0.04173,0.00797,0,0,270.0*
21,1,0.03514,0.01457,0,0,270.0*
1,1,0.00659,-0.00399,-0.01757*
1,1,0.00659,-0.00399,0.01757*
1,1,0.00659,0.00399,0.01757*
1,1,0.00659,0.00399,-0.01757*
%
%ADD115ROUNDEDRECTD115*%
%ADD116R,0.12598X0.12598*%
G36*
X107010Y372966D02*
Y330219D01*
X149345D01*
Y372966D01*
X107010D01*
D02*
G37*
G36*
X272638Y373327D02*
Y331004D01*
X315013D01*
Y373316D01*
X315022Y373325D01*
X272638Y373327D01*
D02*
G37*
D58*
X126673Y205610D02*
D03*
Y199311D02*
D03*
X120374Y205413D02*
D03*
Y199114D02*
D03*
Y227713D02*
D03*
Y221413D02*
D03*
D63*
X95460Y239252D02*
D03*
X87980D02*
D03*
D64*
X51703Y208921D02*
D03*
Y201441D02*
D03*
X51673Y173327D02*
D03*
Y180807D02*
D03*
X51870Y249803D02*
D03*
Y257283D02*
D03*
X50590Y225197D02*
D03*
Y232677D02*
D03*
D72*
X241732Y153150D02*
D03*
Y143150D02*
D03*
Y133150D02*
D03*
Y123150D02*
D03*
Y113150D02*
D03*
Y103150D02*
D03*
Y93150D02*
D03*
Y83150D02*
D03*
Y73150D02*
D03*
Y63150D02*
D03*
Y53150D02*
D03*
Y43150D02*
D03*
Y33150D02*
D03*
Y23150D02*
D03*
Y13150D02*
D03*
X141732D02*
D03*
Y23150D02*
D03*
Y33150D02*
D03*
Y43150D02*
D03*
Y53150D02*
D03*
Y63150D02*
D03*
Y73150D02*
D03*
Y83150D02*
D03*
Y93150D02*
D03*
Y103150D02*
D03*
Y113150D02*
D03*
Y123150D02*
D03*
Y133150D02*
D03*
Y143150D02*
D03*
Y153150D02*
D03*
D73*
X416339Y230315D02*
D03*
Y210630D02*
D03*
X347736Y39665D02*
D03*
X328051D02*
D03*
X38091Y39370D02*
D03*
Y59055D02*
D03*
X104921Y39173D02*
D03*
X85236D02*
D03*
X38386Y113878D02*
D03*
X403051Y39934D02*
D03*
X416142Y146457D02*
D03*
X38878Y173130D02*
D03*
X39272Y230315D02*
D03*
X389970Y355850D02*
D03*
X39224Y318110D02*
D03*
X232087Y355905D02*
D03*
D74*
X416339Y190945D02*
D03*
X38091Y78740D02*
D03*
X38386Y133563D02*
D03*
X416142Y126772D02*
D03*
X38878Y192815D02*
D03*
X39272Y250000D02*
D03*
X39224Y337795D02*
D03*
D75*
X308366Y39665D02*
D03*
X65551Y39173D02*
D03*
X383366Y39934D02*
D03*
X409655Y355850D02*
D03*
X251772Y355905D02*
D03*
D76*
X82087Y319390D02*
D03*
Y339075D02*
D03*
D77*
X439665Y15650D02*
D03*
X19539Y375984D02*
D03*
X438976Y378839D02*
D03*
D78*
X172382Y214567D02*
D03*
X182382D02*
D03*
X192382D02*
D03*
X202382D02*
D03*
X212382D02*
D03*
X274311Y52638D02*
D03*
Y62638D02*
D03*
Y72638D02*
D03*
X350984Y111870D02*
D03*
Y101870D02*
D03*
X297578Y73268D02*
D03*
Y83268D02*
D03*
X84449Y64311D02*
D03*
Y74311D02*
D03*
X310335Y83622D02*
D03*
Y73622D02*
D03*
X144193Y259252D02*
D03*
Y249252D02*
D03*
X158858Y259252D02*
D03*
Y249252D02*
D03*
X264665Y208850D02*
D03*
X274665D02*
D03*
X312972Y209012D02*
D03*
X322972D02*
D03*
X272441Y162461D02*
D03*
X112303Y164035D02*
D03*
X114075Y103789D02*
D03*
X274311Y23150D02*
D03*
D79*
X162382Y214567D02*
D03*
X284665Y208850D02*
D03*
X332972Y209012D02*
D03*
D80*
X274311Y82638D02*
D03*
X350984Y91870D02*
D03*
X297578Y93268D02*
D03*
X84449Y84311D02*
D03*
X310335Y63622D02*
D03*
X144193Y239252D02*
D03*
X158858D02*
D03*
X272441Y152461D02*
D03*
X112303Y154035D02*
D03*
X114075Y113789D02*
D03*
X274311Y33150D02*
D03*
D81*
X275708Y370747D02*
D03*
Y364842D02*
D03*
Y358936D02*
D03*
Y353030D02*
D03*
Y347125D02*
D03*
Y341219D02*
D03*
Y335314D02*
D03*
X281613D02*
D03*
X287519D02*
D03*
X293425D02*
D03*
X299330D02*
D03*
X305236D02*
D03*
X311141D02*
D03*
Y341219D02*
D03*
X305236D02*
D03*
X299330D02*
D03*
X293425D02*
D03*
X287519D02*
D03*
X281613D02*
D03*
X311141Y347125D02*
D03*
X305236D02*
D03*
X299330D02*
D03*
X293425D02*
D03*
X287519D02*
D03*
X281613D02*
D03*
X311141Y353030D02*
D03*
X305236D02*
D03*
X299330D02*
D03*
X293425D02*
D03*
X287519D02*
D03*
X281613D02*
D03*
X311141Y358936D02*
D03*
X305236D02*
D03*
X299330D02*
D03*
X293425D02*
D03*
X287519D02*
D03*
X281613D02*
D03*
X311141Y364842D02*
D03*
X305236D02*
D03*
X299330D02*
D03*
X293425D02*
D03*
X287519D02*
D03*
X281613D02*
D03*
X311141Y370747D02*
D03*
X305236D02*
D03*
X299330D02*
D03*
X293425D02*
D03*
X287519D02*
D03*
X281613D02*
D03*
X116043Y370079D02*
D03*
X121949D02*
D03*
X127854D02*
D03*
X133760D02*
D03*
X139665D02*
D03*
X145571D02*
D03*
X116043Y364173D02*
D03*
X121949D02*
D03*
X127854D02*
D03*
X133760D02*
D03*
X139665D02*
D03*
X145571D02*
D03*
X116043Y358268D02*
D03*
X121949D02*
D03*
X127854D02*
D03*
X133760D02*
D03*
X139665D02*
D03*
X145571D02*
D03*
X116043Y352362D02*
D03*
X121949D02*
D03*
X127854D02*
D03*
X133760D02*
D03*
X139665D02*
D03*
X145571D02*
D03*
X116043Y346457D02*
D03*
X121949D02*
D03*
X127854D02*
D03*
X133760D02*
D03*
X139665D02*
D03*
X145571D02*
D03*
X116043Y340551D02*
D03*
X121949D02*
D03*
X127854D02*
D03*
X133760D02*
D03*
X139665D02*
D03*
X145571D02*
D03*
Y334646D02*
D03*
X139665D02*
D03*
X133760D02*
D03*
X127854D02*
D03*
X121949D02*
D03*
X116043D02*
D03*
X110138D02*
D03*
Y340551D02*
D03*
Y346457D02*
D03*
Y352362D02*
D03*
Y358268D02*
D03*
Y364173D02*
D03*
Y370079D02*
D03*
X103051Y205807D02*
D03*
X99836Y209022D02*
D03*
Y215453D02*
D03*
X103051D02*
D03*
X93405D02*
D03*
X103051Y209022D02*
D03*
Y212238D02*
D03*
X99836Y205807D02*
D03*
Y212238D02*
D03*
X96621Y205807D02*
D03*
Y209022D02*
D03*
Y212238D02*
D03*
Y215453D02*
D03*
X93405Y209022D02*
D03*
Y212238D02*
D03*
Y205807D02*
D03*
D111*
X69095Y225295D02*
D03*
X75394D02*
D03*
X110716Y238855D02*
D03*
X104417D02*
D03*
X67335Y195607D02*
D03*
X73634D02*
D03*
D112*
X58415Y205190D02*
D03*
Y208733D02*
D03*
X58415Y176870D02*
D03*
Y173327D02*
D03*
X58465Y253248D02*
D03*
Y249705D02*
D03*
X56250Y228630D02*
D03*
Y225087D02*
D03*
D113*
X98064Y229823D02*
D03*
X101608D02*
D03*
D114*
X107567Y216530D02*
D03*
Y214561D02*
D03*
Y212593D02*
D03*
Y210624D02*
D03*
Y208656D02*
D03*
Y206687D02*
D03*
Y204719D02*
D03*
X88866D02*
D03*
Y206687D02*
D03*
Y208656D02*
D03*
Y210624D02*
D03*
Y212593D02*
D03*
Y214561D02*
D03*
Y216530D02*
D03*
D115*
X92311Y219975D02*
D03*
X94279D02*
D03*
X96248D02*
D03*
X98216D02*
D03*
X100185D02*
D03*
X102154D02*
D03*
X104122D02*
D03*
Y201274D02*
D03*
X102154D02*
D03*
X98216D02*
D03*
X96248D02*
D03*
X94279D02*
D03*
X92311D02*
D03*
X100185D02*
D03*
D116*
X98216Y210624D02*
D03*
M02*
