G04*
G04 #@! TF.GenerationSoftware,Altium Limited,Altium Designer,22.10.1 (41)*
G04*
G04 Layer_Color=255*
%FSLAX25Y25*%
%MOIN*%
G70*
G04*
G04 #@! TF.SameCoordinates,F8C157B4-DA96-4F04-9901-D09C045D4249*
G04*
G04*
G04 #@! TF.FilePolarity,Positive*
G04*
G01*
G75*
G04:AMPARAMS|DCode=20|XSize=159.06mil|YSize=83.46mil|CornerRadius=16.69mil|HoleSize=0mil|Usage=FLASHONLY|Rotation=180.000|XOffset=0mil|YOffset=0mil|HoleType=Round|Shape=RoundedRectangle|*
%AMROUNDEDRECTD20*
21,1,0.15906,0.05008,0,0,180.0*
21,1,0.12567,0.08346,0,0,180.0*
1,1,0.03339,-0.06284,0.02504*
1,1,0.03339,0.06284,0.02504*
1,1,0.03339,0.06284,-0.02504*
1,1,0.03339,-0.06284,-0.02504*
%
%ADD20ROUNDEDRECTD20*%
%ADD21R,0.07874X0.15748*%
%ADD22R,0.21654X0.11811*%
%ADD23R,0.03937X0.13780*%
G04:AMPARAMS|DCode=24|XSize=41.73mil|YSize=15.35mil|CornerRadius=1.92mil|HoleSize=0mil|Usage=FLASHONLY|Rotation=180.000|XOffset=0mil|YOffset=0mil|HoleType=Round|Shape=RoundedRectangle|*
%AMROUNDEDRECTD24*
21,1,0.04173,0.01152,0,0,180.0*
21,1,0.03789,0.01535,0,0,180.0*
1,1,0.00384,-0.01895,0.00576*
1,1,0.00384,0.01895,0.00576*
1,1,0.00384,0.01895,-0.00576*
1,1,0.00384,-0.01895,-0.00576*
%
%ADD24ROUNDEDRECTD24*%
%ADD25R,0.05700X0.03000*%
%ADD26R,0.04900X0.04902*%
%ADD27R,0.05906X0.06299*%
%ADD28R,0.03150X0.03150*%
%ADD29R,0.03150X0.03150*%
%ADD30R,0.05118X0.03543*%
%ADD31R,0.03543X0.05118*%
%ADD32R,0.03937X0.03740*%
G04:AMPARAMS|DCode=33|XSize=48.03mil|YSize=111.42mil|CornerRadius=12.01mil|HoleSize=0mil|Usage=FLASHONLY|Rotation=180.000|XOffset=0mil|YOffset=0mil|HoleType=Round|Shape=RoundedRectangle|*
%AMROUNDEDRECTD33*
21,1,0.04803,0.08740,0,0,180.0*
21,1,0.02402,0.11142,0,0,180.0*
1,1,0.02402,-0.01201,0.04370*
1,1,0.02402,0.01201,0.04370*
1,1,0.02402,0.01201,-0.04370*
1,1,0.02402,-0.01201,-0.04370*
%
%ADD33ROUNDEDRECTD33*%
%ADD34R,0.11142X0.03189*%
%ADD35R,0.23622X0.23622*%
%ADD36R,0.03150X0.05118*%
%ADD37R,0.05118X0.03150*%
%ADD38R,0.03347X0.03347*%
%ADD39R,0.03347X0.03347*%
%ADD40R,0.02362X0.01968*%
%ADD41R,0.06693X0.09843*%
%ADD42R,0.03543X0.03150*%
G04:AMPARAMS|DCode=43|XSize=19.68mil|YSize=13.78mil|CornerRadius=3.45mil|HoleSize=0mil|Usage=FLASHONLY|Rotation=180.000|XOffset=0mil|YOffset=0mil|HoleType=Round|Shape=RoundedRectangle|*
%AMROUNDEDRECTD43*
21,1,0.01968,0.00689,0,0,180.0*
21,1,0.01280,0.01378,0,0,180.0*
1,1,0.00689,-0.00640,0.00345*
1,1,0.00689,0.00640,0.00345*
1,1,0.00689,0.00640,-0.00345*
1,1,0.00689,-0.00640,-0.00345*
%
%ADD43ROUNDEDRECTD43*%
G04:AMPARAMS|DCode=44|XSize=19.68mil|YSize=13.78mil|CornerRadius=3.45mil|HoleSize=0mil|Usage=FLASHONLY|Rotation=90.000|XOffset=0mil|YOffset=0mil|HoleType=Round|Shape=RoundedRectangle|*
%AMROUNDEDRECTD44*
21,1,0.01968,0.00689,0,0,90.0*
21,1,0.01280,0.01378,0,0,90.0*
1,1,0.00689,0.00345,0.00640*
1,1,0.00689,0.00345,-0.00640*
1,1,0.00689,-0.00345,-0.00640*
1,1,0.00689,-0.00345,0.00640*
%
%ADD44ROUNDEDRECTD44*%
%ADD72C,0.05800*%
%ADD77C,0.21654*%
%ADD82R,0.42126X0.42126*%
G04:AMPARAMS|DCode=83|XSize=221.65mil|YSize=240.16mil|CornerRadius=11.08mil|HoleSize=0mil|Usage=FLASHONLY|Rotation=180.000|XOffset=0mil|YOffset=0mil|HoleType=Round|Shape=RoundedRectangle|*
%AMROUNDEDRECTD83*
21,1,0.22165,0.21799,0,0,180.0*
21,1,0.19949,0.24016,0,0,180.0*
1,1,0.02217,-0.09974,0.10900*
1,1,0.02217,0.09974,0.10900*
1,1,0.02217,0.09974,-0.10900*
1,1,0.02217,-0.09974,-0.10900*
%
%ADD83ROUNDEDRECTD83*%
%ADD89C,0.09449*%
G04:AMPARAMS|DCode=90|XSize=94.49mil|YSize=94.49mil|CornerRadius=23.62mil|HoleSize=0mil|Usage=FLASHONLY|Rotation=90.000|XOffset=0mil|YOffset=0mil|HoleType=Round|Shape=RoundedRectangle|*
%AMROUNDEDRECTD90*
21,1,0.09449,0.04724,0,0,90.0*
21,1,0.04724,0.09449,0,0,90.0*
1,1,0.04724,0.02362,0.02362*
1,1,0.04724,0.02362,-0.02362*
1,1,0.04724,-0.02362,-0.02362*
1,1,0.04724,-0.02362,0.02362*
%
%ADD90ROUNDEDRECTD90*%
G04:AMPARAMS|DCode=91|XSize=94.49mil|YSize=94.49mil|CornerRadius=23.62mil|HoleSize=0mil|Usage=FLASHONLY|Rotation=0.000|XOffset=0mil|YOffset=0mil|HoleType=Round|Shape=RoundedRectangle|*
%AMROUNDEDRECTD91*
21,1,0.09449,0.04724,0,0,0.0*
21,1,0.04724,0.09449,0,0,0.0*
1,1,0.04724,0.02362,-0.02362*
1,1,0.04724,-0.02362,-0.02362*
1,1,0.04724,-0.02362,0.02362*
1,1,0.04724,0.02362,0.02362*
%
%ADD91ROUNDEDRECTD91*%
%ADD92C,0.04331*%
%ADD93C,0.06299*%
%ADD94R,0.06299X0.06299*%
%ADD95R,0.06299X0.06299*%
D20*
X106551Y277887D02*
D03*
X73362D02*
D03*
X165689Y366437D02*
D03*
X198878D02*
D03*
X329862Y364862D02*
D03*
X363051D02*
D03*
D21*
X250394Y287402D02*
D03*
Y315354D02*
D03*
D22*
X180328Y296328D02*
D03*
Y335305D02*
D03*
X346654Y294980D02*
D03*
Y333957D02*
D03*
D23*
X287142Y314958D02*
D03*
X293835D02*
D03*
X300528D02*
D03*
X307221D02*
D03*
X280449D02*
D03*
X121535Y314308D02*
D03*
X128228D02*
D03*
X134921D02*
D03*
X141614D02*
D03*
X114842D02*
D03*
D24*
X396966Y93405D02*
D03*
Y88287D02*
D03*
X404328Y93405D02*
D03*
Y90847D02*
D03*
Y88287D02*
D03*
D25*
X27362Y283792D02*
D03*
Y292192D02*
D03*
X264665Y237763D02*
D03*
Y229363D02*
D03*
X125952Y172766D02*
D03*
Y164366D02*
D03*
D26*
X65920Y176637D02*
D03*
Y168566D02*
D03*
D27*
X78813Y172601D02*
D03*
D28*
X323721Y236122D02*
D03*
Y229626D02*
D03*
X282874Y145374D02*
D03*
Y151870D02*
D03*
D29*
X215768Y286250D02*
D03*
X222264D02*
D03*
X142421Y221230D02*
D03*
X135925D02*
D03*
D30*
X253150Y150984D02*
D03*
Y145866D02*
D03*
X261417Y150886D02*
D03*
Y145768D02*
D03*
X397736Y146653D02*
D03*
Y141535D02*
D03*
X130610Y145571D02*
D03*
Y150689D02*
D03*
X122441Y145571D02*
D03*
Y150689D02*
D03*
D31*
X347736Y55118D02*
D03*
X352854D02*
D03*
X373339Y66724D02*
D03*
X378457D02*
D03*
X190748Y255217D02*
D03*
X185630D02*
D03*
X190196Y244419D02*
D03*
X185078D02*
D03*
D32*
X102635Y301659D02*
D03*
Y307958D02*
D03*
D33*
X76880Y139971D02*
D03*
X58848D02*
D03*
D34*
X202822Y258632D02*
D03*
Y254132D02*
D03*
Y245132D02*
D03*
Y240632D02*
D03*
D35*
X233022Y249632D02*
D03*
D36*
X334154Y90158D02*
D03*
X326673D02*
D03*
X83189Y152333D02*
D03*
X75708D02*
D03*
X70564Y152560D02*
D03*
X63083D02*
D03*
X384727Y66831D02*
D03*
X392207D02*
D03*
X195965Y269193D02*
D03*
X203445D02*
D03*
X118701Y179134D02*
D03*
X126181D02*
D03*
X304921Y104921D02*
D03*
X297441D02*
D03*
D37*
X397736Y134252D02*
D03*
Y126772D02*
D03*
X57776Y168799D02*
D03*
Y176279D02*
D03*
X273318Y237984D02*
D03*
Y230504D02*
D03*
D38*
X320571Y62598D02*
D03*
Y55905D02*
D03*
X395079Y204527D02*
D03*
Y211221D02*
D03*
Y191102D02*
D03*
Y197795D02*
D03*
X320177Y83268D02*
D03*
Y89961D02*
D03*
X385531Y120276D02*
D03*
Y126969D02*
D03*
X390903Y92028D02*
D03*
Y98721D02*
D03*
X317913Y229528D02*
D03*
Y236221D02*
D03*
X34252Y290748D02*
D03*
Y284055D02*
D03*
X40059Y283957D02*
D03*
Y290650D02*
D03*
X288976Y145276D02*
D03*
Y151969D02*
D03*
X318504Y119291D02*
D03*
Y112598D02*
D03*
D39*
X404528Y66831D02*
D03*
X397835D02*
D03*
X404528Y72687D02*
D03*
X397835D02*
D03*
X404528Y78543D02*
D03*
X397835D02*
D03*
X398085Y120276D02*
D03*
X391392D02*
D03*
X385322Y78543D02*
D03*
X392015D02*
D03*
X404190Y99016D02*
D03*
X397497D02*
D03*
X404190Y104601D02*
D03*
X397497D02*
D03*
X222441Y280610D02*
D03*
X215748D02*
D03*
X135827Y215158D02*
D03*
X142520D02*
D03*
D40*
X85236Y140236D02*
D03*
Y143819D02*
D03*
D41*
X122671Y297909D02*
D03*
Y282161D02*
D03*
X290453Y295374D02*
D03*
Y279626D02*
D03*
D42*
X326624Y97244D02*
D03*
Y104724D02*
D03*
X318652Y100984D02*
D03*
D43*
X402658Y53740D02*
D03*
X406595D02*
D03*
D44*
X404331Y126772D02*
D03*
Y122835D02*
D03*
D72*
X241732Y153150D02*
D03*
Y143150D02*
D03*
Y133150D02*
D03*
Y123150D02*
D03*
Y113150D02*
D03*
Y103150D02*
D03*
Y93150D02*
D03*
Y83150D02*
D03*
Y73150D02*
D03*
Y63150D02*
D03*
Y53150D02*
D03*
Y43150D02*
D03*
Y33150D02*
D03*
Y23150D02*
D03*
Y13150D02*
D03*
X141732D02*
D03*
Y23150D02*
D03*
Y33150D02*
D03*
Y43150D02*
D03*
Y53150D02*
D03*
Y63150D02*
D03*
Y73150D02*
D03*
Y83150D02*
D03*
Y93150D02*
D03*
Y103150D02*
D03*
Y113150D02*
D03*
Y123150D02*
D03*
Y133150D02*
D03*
Y143150D02*
D03*
Y153150D02*
D03*
D77*
X439665Y15650D02*
D03*
X19539Y375984D02*
D03*
X438976Y378839D02*
D03*
D82*
X293843Y352163D02*
D03*
X128236Y351513D02*
D03*
D83*
X67864Y113789D02*
D03*
D89*
X416339Y230315D02*
D03*
Y210630D02*
D03*
X347736Y39665D02*
D03*
X328051D02*
D03*
X38091Y39370D02*
D03*
Y59055D02*
D03*
X104921Y39173D02*
D03*
X85236D02*
D03*
X38386Y113878D02*
D03*
X403051Y39934D02*
D03*
X416142Y146457D02*
D03*
X38878Y173130D02*
D03*
X39272Y230315D02*
D03*
X389970Y355850D02*
D03*
X39224Y318110D02*
D03*
X232087Y355905D02*
D03*
D90*
X416339Y190945D02*
D03*
X38091Y78740D02*
D03*
X38386Y133563D02*
D03*
X416142Y126772D02*
D03*
X38878Y192815D02*
D03*
X39272Y250000D02*
D03*
X39224Y337795D02*
D03*
D91*
X308366Y39665D02*
D03*
X65551Y39173D02*
D03*
X383366Y39934D02*
D03*
X409655Y355850D02*
D03*
X251772Y355905D02*
D03*
D92*
X82087Y319390D02*
D03*
Y339075D02*
D03*
D93*
X172382Y214567D02*
D03*
X182382D02*
D03*
X192382D02*
D03*
X202382D02*
D03*
X212382D02*
D03*
X274311Y52638D02*
D03*
Y62638D02*
D03*
Y72638D02*
D03*
X350984Y111870D02*
D03*
Y101870D02*
D03*
X297578Y73268D02*
D03*
Y83268D02*
D03*
X84449Y64311D02*
D03*
Y74311D02*
D03*
X310335Y83622D02*
D03*
Y73622D02*
D03*
X144193Y259252D02*
D03*
Y249252D02*
D03*
X158858Y259252D02*
D03*
Y249252D02*
D03*
X264665Y208850D02*
D03*
X274665D02*
D03*
X312972Y209012D02*
D03*
X322972D02*
D03*
X272441Y162461D02*
D03*
X112303Y164035D02*
D03*
X114075Y103789D02*
D03*
X274311Y23150D02*
D03*
D94*
X162382Y214567D02*
D03*
X284665Y208850D02*
D03*
X332972Y209012D02*
D03*
D95*
X274311Y82638D02*
D03*
X350984Y91870D02*
D03*
X297578Y93268D02*
D03*
X84449Y84311D02*
D03*
X310335Y63622D02*
D03*
X144193Y239252D02*
D03*
X158858D02*
D03*
X272441Y152461D02*
D03*
X112303Y154035D02*
D03*
X114075Y113789D02*
D03*
X274311Y33150D02*
D03*
M02*
