G04*
G04 #@! TF.GenerationSoftware,Altium Limited,Altium Designer,22.10.1 (41)*
G04*
G04 Layer_Color=65280*
%FSLAX25Y25*%
%MOIN*%
G70*
G04*
G04 #@! TF.SameCoordinates,F8C157B4-DA96-4F04-9901-D09C045D4249*
G04*
G04*
G04 #@! TF.FilePolarity,Positive*
G04*
G01*
G75*
%ADD10C,0.00787*%
%ADD11C,0.00394*%
%ADD12C,0.00600*%
%ADD13C,0.01575*%
%ADD17C,0.00591*%
%ADD18C,0.01181*%
%ADD119C,0.00236*%
%ADD120C,0.00630*%
D10*
X102165Y329232D02*
G03*
X102165Y329232I-20079J0D01*
G01*
X408465Y177165D02*
Y244094D01*
X455709D01*
X408465Y177165D02*
X455709D01*
Y244094D01*
X294587Y47539D02*
X361516D01*
Y295D02*
Y47539D01*
X294587Y295D02*
Y47539D01*
Y295D02*
X361516D01*
X45965Y25591D02*
Y92520D01*
X-1279Y25591D02*
X45965D01*
X-1279Y92520D02*
X45965D01*
X-1279Y25591D02*
Y92520D01*
X51772Y47047D02*
X118701D01*
Y-197D02*
Y47047D01*
X51772Y-197D02*
Y47047D01*
Y-197D02*
X118701D01*
X46260Y100098D02*
Y147343D01*
X-984D02*
X46260D01*
X-984Y100098D02*
Y147343D01*
Y100098D02*
X46260D01*
X369587Y47808D02*
X416831D01*
X369587Y564D02*
Y47808D01*
Y564D02*
X416831D01*
Y47808D01*
X408268Y112992D02*
Y160236D01*
Y112992D02*
X455512D01*
Y160236D01*
X408268D02*
X455512D01*
X46752Y159350D02*
Y206594D01*
X-492D02*
X46752D01*
X-492Y159350D02*
Y206594D01*
Y159350D02*
X46752D01*
X47146Y216535D02*
Y263779D01*
X-98D02*
X47146D01*
X-98Y216535D02*
Y263779D01*
Y216535D02*
X47146D01*
X376190Y347976D02*
X423435D01*
Y395220D01*
X376190D02*
X423435D01*
X376190Y347976D02*
Y395220D01*
X47098Y304331D02*
Y351575D01*
X-146D02*
X47098D01*
X-146Y304331D02*
Y351575D01*
Y304331D02*
X47098D01*
X218307Y348031D02*
X265551D01*
Y395275D01*
X218307D02*
X265551D01*
X218307Y348031D02*
Y395275D01*
X155525Y290029D02*
X205525D01*
X155525D02*
Y340029D01*
X205525D01*
Y290029D02*
Y340029D01*
X321850Y288681D02*
X371850D01*
X321850D02*
Y338681D01*
X371850D01*
Y288681D02*
Y338681D01*
X79994Y164826D02*
Y180475D01*
X64050Y164826D02*
X79994D01*
X64050D02*
Y180475D01*
X79994D01*
X156516Y209055D02*
Y220079D01*
Y220079D02*
X218248D01*
X156516Y209055D02*
X218248D01*
Y209055D02*
Y220079D01*
X268799Y47697D02*
X279823D01*
Y87756D01*
X268799Y47697D02*
Y87756D01*
X279823D01*
X350984Y85728D02*
X353346D01*
X350984Y118012D02*
X352953D01*
X356102Y85728D02*
Y118012D01*
X345866D02*
X356102D01*
X345866Y85728D02*
Y118012D01*
Y85728D02*
X356102D01*
X295216Y99409D02*
X297578D01*
X295609Y67126D02*
X297578D01*
X292460D02*
Y99409D01*
Y67126D02*
X302696D01*
Y99409D01*
X292460D02*
X302696D01*
X82087Y90453D02*
X84449D01*
X82480Y58169D02*
X84449D01*
X79331D02*
Y90453D01*
Y58169D02*
X89567D01*
Y90453D01*
X79331D02*
X89567D01*
X310335Y57480D02*
X312697D01*
X310335Y89764D02*
X312303D01*
X315453Y57480D02*
Y89764D01*
X305217D02*
X315453D01*
X305217Y57480D02*
Y89764D01*
Y57480D02*
X315453D01*
X144193Y233110D02*
X146555D01*
X144193Y265394D02*
X146161D01*
X149311Y233110D02*
Y265394D01*
X139075D02*
X149311D01*
X139075Y233110D02*
Y265394D01*
Y233110D02*
X149311D01*
X158858D02*
X161221D01*
X158858Y265394D02*
X160827D01*
X163976Y233110D02*
Y265394D01*
X153740D02*
X163976D01*
X153740Y233110D02*
Y265394D01*
Y233110D02*
X163976D01*
X290807Y208850D02*
Y211212D01*
X258524Y208850D02*
Y210818D01*
Y213968D02*
X290807D01*
X258524Y203732D02*
Y213968D01*
Y203732D02*
X290807D01*
Y213968D01*
X339114Y209012D02*
Y211374D01*
X306831Y209012D02*
Y210980D01*
Y214130D02*
X339114D01*
X306831Y203894D02*
Y214130D01*
Y203894D02*
X339114D01*
Y214130D01*
X272441Y146319D02*
X274803D01*
X277559D02*
Y167027D01*
X267323D02*
X277559D01*
X267323Y146319D02*
Y167027D01*
Y146319D02*
X277559D01*
X112303Y147894D02*
X114665D01*
X117421D02*
Y168602D01*
X107185D02*
X117421D01*
X107185Y147894D02*
Y168602D01*
Y147894D02*
X117421D01*
X111713Y119931D02*
X114075D01*
X108957Y99222D02*
Y119931D01*
Y99222D02*
X119193D01*
Y119931D01*
X108957D02*
X119193D01*
X271949Y39291D02*
X274311D01*
X269193Y18583D02*
Y39291D01*
Y18583D02*
X279429D01*
Y39291D01*
X269193D02*
X279429D01*
X197056Y235951D02*
X245776D01*
X197056D02*
Y264101D01*
X245776D01*
Y235951D02*
Y264101D01*
X163037Y215747D02*
X161725D01*
X162381D01*
Y212467D01*
X161725Y211811D01*
X161069D01*
X160413Y212467D01*
X164349Y215091D02*
X165005Y215747D01*
X166317D01*
X166973Y215091D01*
Y214435D01*
X166317Y213779D01*
X166973Y213123D01*
Y212467D01*
X166317Y211811D01*
X165005D01*
X164349Y212467D01*
Y213123D01*
X165005Y213779D01*
X164349Y214435D01*
Y215091D01*
X165005Y213779D02*
X166317D01*
D11*
X449114Y15650D02*
G03*
X449114Y15650I-9449J0D01*
G01*
X28988Y375984D02*
G03*
X28988Y375984I-9449J0D01*
G01*
X448425Y378839D02*
G03*
X448425Y378839I-9449J0D01*
G01*
X65940Y257809D02*
Y297966D01*
Y257809D02*
X113775D01*
Y297966D01*
X65940D02*
X113775D01*
X206299Y346358D02*
Y386516D01*
X158465D02*
X206299D01*
X158465Y346358D02*
Y386516D01*
Y346358D02*
X206299D01*
X370472Y344783D02*
Y384941D01*
X322638D02*
X370472D01*
X322638Y344783D02*
Y384941D01*
Y344783D02*
X370472D01*
X266929Y278445D02*
Y324508D01*
X234055Y278445D02*
X266929D01*
X234055D02*
Y324508D01*
X266929D01*
X271500Y306691D02*
Y373620D01*
Y306691D02*
X315988D01*
X271500Y373620D02*
X315988D01*
Y306691D02*
Y373620D01*
X105894Y306040D02*
Y372969D01*
Y306040D02*
X150382D01*
X105894Y372969D02*
X150382D01*
Y306040D02*
Y372969D01*
X394446Y86221D02*
X407045D01*
X394446D02*
Y95374D01*
X407045D01*
Y86221D02*
Y95374D01*
X30902Y281505D02*
Y294685D01*
X23720Y281504D02*
Y294685D01*
X30902D01*
X24547Y281515D02*
X29134D01*
X23720Y281504D02*
X24547Y281515D01*
X29134D02*
X30902Y281505D01*
X261126Y226870D02*
Y240050D01*
X268307Y226870D02*
Y240051D01*
X261126Y226870D02*
X268307D01*
X262894Y240040D02*
X267480D01*
X268307Y240051D01*
X261126Y240050D02*
X262894Y240040D01*
X122412Y161873D02*
Y175053D01*
X129594Y161873D02*
Y175054D01*
X122412Y161873D02*
X129594D01*
X124180Y175043D02*
X128767D01*
X129594Y175054D01*
X122412Y175053D02*
X124180Y175043D01*
X321387Y226969D02*
Y238779D01*
Y226969D02*
X326112D01*
Y238779D01*
X321387D02*
X326112D01*
X213110Y283916D02*
X224921D01*
Y288641D01*
X213110D02*
X224921D01*
X213110Y283916D02*
Y288641D01*
X133268Y223563D02*
X145079D01*
X133268Y218839D02*
Y223563D01*
Y218839D02*
X145079D01*
Y223563D01*
X285207Y142717D02*
Y154528D01*
X280483D02*
X285207D01*
X280483Y142717D02*
Y154528D01*
Y142717D02*
X285207D01*
X254268Y142913D02*
X254768D01*
X255768D02*
X256693D01*
X254768D02*
X255768D01*
X252031D02*
X254268D01*
X249606D02*
X252031D01*
X249606D02*
Y153819D01*
X256693D01*
Y142913D02*
Y153819D01*
X262535Y142815D02*
X263035D01*
X264035D02*
X264961D01*
X263035D02*
X264035D01*
X260299D02*
X262535D01*
X257874D02*
X260299D01*
X257874D02*
Y153720D01*
X264961D01*
Y142815D02*
Y153720D01*
X355807Y56236D02*
Y56736D01*
Y57736D02*
Y58661D01*
Y56736D02*
Y57736D01*
Y54000D02*
Y56236D01*
Y51575D02*
Y54000D01*
X344902Y51575D02*
X355807D01*
X344902D02*
Y58661D01*
X355807D01*
X381410Y67843D02*
Y68343D01*
Y69342D02*
Y70268D01*
Y68343D02*
Y69342D01*
Y65606D02*
Y67843D01*
Y63181D02*
Y65606D01*
X370504Y63181D02*
X381410D01*
X370504D02*
Y70268D01*
X381410D01*
X398854Y138583D02*
X399354D01*
X400354D02*
X401279D01*
X399354D02*
X400354D01*
X396618D02*
X398854D01*
X394193D02*
X396618D01*
X394193D02*
Y149488D01*
X401279D01*
Y138583D02*
Y149488D01*
X182677Y253598D02*
Y254098D01*
Y251673D02*
Y252598D01*
Y253598D01*
Y254098D02*
Y256335D01*
Y258760D01*
X193583D01*
Y251673D02*
Y258760D01*
X182677Y251673D02*
X193583D01*
X182125Y242801D02*
Y243301D01*
Y240876D02*
Y241801D01*
Y242801D01*
Y243301D02*
Y245537D01*
Y247962D01*
X193030D01*
Y240876D02*
Y247962D01*
X182125Y240876D02*
X193030D01*
X128992Y153642D02*
X129492D01*
X127067D02*
X127992D01*
X128992D01*
X129492D02*
X131728D01*
X134153D01*
Y142736D02*
Y153642D01*
X127067Y142736D02*
X134153D01*
X127067D02*
Y153642D01*
X120823Y153642D02*
X121323D01*
X118898D02*
X119823D01*
X120823D01*
X121323D02*
X123559D01*
X125984D01*
Y142736D02*
Y153642D01*
X118898Y142736D02*
X125984D01*
X118898D02*
Y153642D01*
X100272Y299297D02*
Y310321D01*
X104997D01*
Y299297D02*
Y310321D01*
X100272Y299297D02*
X104997D01*
X81644Y101230D02*
Y146112D01*
X54872D02*
X81644D01*
X54872Y101230D02*
Y146112D01*
Y101230D02*
X81644D01*
X324508Y93307D02*
X336319D01*
Y87008D02*
Y93307D01*
X324508Y87008D02*
X336319D01*
X324508D02*
Y93307D01*
X73543Y155483D02*
X85354D01*
Y149184D02*
Y155483D01*
X73543Y149184D02*
X85354D01*
X73543D02*
Y155483D01*
X60918Y155709D02*
X72729D01*
Y149410D02*
Y155709D01*
X60918Y149410D02*
X72729D01*
X60918D02*
Y155709D01*
X382561Y63681D02*
X394372D01*
X382561D02*
Y69980D01*
X394372D01*
Y63681D02*
Y69980D01*
X394587Y124606D02*
Y136417D01*
X400886D01*
Y124606D02*
Y136417D01*
X394587Y124606D02*
X400886D01*
X60925Y166634D02*
Y178445D01*
X54626Y166634D02*
X60925D01*
X54626D02*
Y178445D01*
X60925D01*
X193799Y266043D02*
X205610D01*
X193799D02*
Y272342D01*
X205610D01*
Y266043D02*
Y272342D01*
X270168Y228338D02*
Y240149D01*
X276468D01*
Y228338D02*
Y240149D01*
X270168Y228338D02*
X276468D01*
X116535Y175984D02*
X128347D01*
X116535D02*
Y182283D01*
X128347D01*
Y175984D02*
Y182283D01*
X295276Y108071D02*
X307087D01*
Y101772D02*
Y108071D01*
X295276Y101772D02*
X307087D01*
X295276D02*
Y108071D01*
X318209Y64967D02*
X322933D01*
X318209Y53520D02*
Y64967D01*
Y53520D02*
X322933D01*
Y64967D01*
X392717Y202159D02*
X397441D01*
Y213605D01*
X392717D02*
X397441D01*
X392717Y202159D02*
Y213605D01*
Y188734D02*
X397441D01*
Y200180D01*
X392717D02*
X397441D01*
X392717Y188734D02*
Y200180D01*
X317815Y80899D02*
X322539D01*
Y92346D01*
X317815D02*
X322539D01*
X317815Y80899D02*
Y92346D01*
X406896Y64468D02*
Y69193D01*
X395450D02*
X406896D01*
X395450Y64468D02*
Y69193D01*
Y64468D02*
X406896D01*
Y70325D02*
Y75049D01*
X395450D02*
X406896D01*
X395450Y70325D02*
Y75049D01*
Y70325D02*
X406896D01*
Y76181D02*
Y80905D01*
X395450D02*
X406896D01*
X395450Y76181D02*
Y80905D01*
Y76181D02*
X406896D01*
X383169Y117907D02*
X387894D01*
Y129354D01*
X383169D02*
X387894D01*
X383169Y117907D02*
Y129354D01*
X388541Y89659D02*
X393265D01*
Y101105D01*
X388541D02*
X393265D01*
X388541Y89659D02*
Y101105D01*
X400454Y117913D02*
Y122638D01*
X389007D02*
X400454D01*
X389007Y117913D02*
Y122638D01*
Y117913D02*
X400454D01*
X382953Y76181D02*
Y80905D01*
Y76181D02*
X394400D01*
Y80905D01*
X382953D02*
X394400D01*
X406559Y96653D02*
Y101378D01*
X395112D02*
X406559D01*
X395112Y96653D02*
Y101378D01*
Y96653D02*
X406559D01*
Y102239D02*
Y106964D01*
X395112D02*
X406559D01*
X395112Y102239D02*
Y106964D01*
Y102239D02*
X406559D01*
X224810Y278248D02*
Y282972D01*
X213363D02*
X224810D01*
X213363Y278248D02*
Y282972D01*
Y278248D02*
X224810D01*
X315551Y227159D02*
X320276D01*
Y238605D01*
X315551D02*
X320276D01*
X315551Y227159D02*
Y238605D01*
X31890Y293117D02*
X36614D01*
X31890Y281670D02*
Y293117D01*
Y281670D02*
X36614D01*
Y293117D01*
X37697Y281588D02*
X42421D01*
Y293035D01*
X37697D02*
X42421D01*
X37697Y281588D02*
Y293035D01*
X133458Y212795D02*
Y217520D01*
Y212795D02*
X144905D01*
Y217520D01*
X133458D02*
X144905D01*
X286614Y142907D02*
X291339D01*
Y154354D01*
X286614D02*
X291339D01*
X286614Y142907D02*
Y154354D01*
X316142Y121660D02*
X320866D01*
X316142Y110213D02*
Y121660D01*
Y110213D02*
X320866D01*
Y121660D01*
X83661Y145177D02*
X86811D01*
X83661Y138878D02*
Y145177D01*
X86811Y138878D02*
Y145177D01*
X83661Y138878D02*
X86811D01*
X117160Y276649D02*
Y303421D01*
X128183D01*
X117160Y276649D02*
X128183D01*
Y303421D01*
X284941Y274114D02*
Y300886D01*
X295965D01*
X284941Y274114D02*
X295965D01*
Y300886D01*
X328592Y95079D02*
Y106890D01*
X316781Y95079D02*
Y106890D01*
Y95079D02*
X328592D01*
X316781Y106890D02*
X328592D01*
X408071Y52264D02*
Y55315D01*
X401083Y52264D02*
Y53740D01*
Y52264D02*
X408071D01*
X401083Y53740D02*
Y55315D01*
X408071D01*
X402854Y121358D02*
X405905D01*
X402854Y128347D02*
X404331D01*
X402854Y121358D02*
Y128347D01*
X404331D02*
X405905D01*
Y121358D02*
Y128347D01*
Y79724D02*
Y78150D01*
X405118D01*
X404856Y78412D01*
Y78937D01*
X405118Y79200D01*
X405905D01*
X405381D02*
X404856Y79724D01*
X404331D02*
X403806D01*
X404069D01*
Y78150D01*
X404331Y78412D01*
X401970Y78150D02*
X402494Y78412D01*
X403019Y78937D01*
Y79462D01*
X402757Y79724D01*
X402232D01*
X401970Y79462D01*
Y79200D01*
X402232Y78937D01*
X403019D01*
X431791Y14075D02*
Y15649D01*
X432316Y15124D01*
X432841Y15649D01*
Y14075D01*
X433366Y15649D02*
Y14075D01*
Y14862D01*
X434415D01*
Y15649D01*
Y14075D01*
X434940D02*
X435465D01*
X435202D01*
Y15649D01*
X434940Y15387D01*
X397737Y140944D02*
X397343Y140551D01*
Y139764D01*
X397737Y139370D01*
X399311D01*
X399705Y139764D01*
Y140551D01*
X399311Y140944D01*
X397343Y141732D02*
Y143306D01*
X397737D01*
X399311Y141732D01*
X399705D01*
X319390Y63976D02*
X320964D01*
Y63189D01*
X320702Y62927D01*
X320177D01*
X319915Y63189D01*
Y63976D01*
Y63452D02*
X319390Y62927D01*
X320702Y62402D02*
X320964Y62140D01*
Y61615D01*
X320702Y61352D01*
X320439D01*
X320177Y61615D01*
Y61877D01*
Y61615D01*
X319915Y61352D01*
X319652D01*
X319390Y61615D01*
Y62140D01*
X319652Y62402D01*
X130610Y151280D02*
X131003Y151674D01*
Y152461D01*
X130610Y152854D01*
X129035D01*
X128642Y152461D01*
Y151674D01*
X129035Y151280D01*
X128642Y148919D02*
Y150493D01*
X130216Y148919D01*
X130610D01*
X131003Y149312D01*
Y150099D01*
X130610Y150493D01*
X321358Y81890D02*
X319784D01*
Y82677D01*
X320046Y82939D01*
X320571D01*
X320833Y82677D01*
Y81890D01*
Y82415D02*
X321358Y82939D01*
X319784Y83464D02*
Y84514D01*
X320046D01*
X321096Y83464D01*
X321358D01*
X383944Y77362D02*
Y78936D01*
X384731D01*
X384993Y78674D01*
Y78149D01*
X384731Y77887D01*
X383944D01*
X384469D02*
X384993Y77362D01*
X386567D02*
X385518D01*
X386567Y78412D01*
Y78674D01*
X386305Y78936D01*
X385780D01*
X385518Y78674D01*
X387092D02*
X387355Y78936D01*
X387879D01*
X388142Y78674D01*
Y77625D01*
X387879Y77362D01*
X387355D01*
X387092Y77625D01*
Y78674D01*
X396260Y203150D02*
X394686D01*
Y203937D01*
X394948Y204199D01*
X395473D01*
X395735Y203937D01*
Y203150D01*
Y203674D02*
X396260Y204199D01*
Y205511D02*
X394686D01*
X395473Y204724D01*
Y205773D01*
X386713Y118898D02*
X385138D01*
Y119685D01*
X385401Y119947D01*
X385926D01*
X386188Y119685D01*
Y118898D01*
Y119422D02*
X386713Y119947D01*
Y120472D02*
Y120997D01*
Y120734D01*
X385138D01*
X385401Y120472D01*
X385138Y121784D02*
Y122833D01*
X385401D01*
X386450Y121784D01*
X386713D01*
X74331Y150758D02*
Y153120D01*
X75511D01*
X75905Y152726D01*
Y151939D01*
X75511Y151546D01*
X74331D01*
X75118D02*
X75905Y150758D01*
X76692D02*
X77479D01*
X77086D01*
Y153120D01*
X76692Y152726D01*
X78660D02*
X79053Y153120D01*
X79840D01*
X80234Y152726D01*
Y151152D01*
X79840Y150758D01*
X79053D01*
X78660Y151152D01*
Y152726D01*
X253150Y145275D02*
X252757Y144881D01*
Y144094D01*
X253150Y143701D01*
X254725D01*
X255118Y144094D01*
Y144881D01*
X254725Y145275D01*
X253150Y146062D02*
X252757Y146456D01*
Y147243D01*
X253150Y147636D01*
X253544D01*
X253937Y147243D01*
Y146849D01*
Y147243D01*
X254331Y147636D01*
X254725D01*
X255118Y147243D01*
Y146456D01*
X254725Y146062D01*
X396260Y189724D02*
X394686D01*
Y190512D01*
X394948Y190774D01*
X395473D01*
X395735Y190512D01*
Y189724D01*
Y190249D02*
X396260Y190774D01*
X394686Y192348D02*
X394948Y191823D01*
X395473Y191299D01*
X395998D01*
X396260Y191561D01*
Y192086D01*
X395998Y192348D01*
X395735D01*
X395473Y192086D01*
Y191299D01*
X261418Y145177D02*
X261024Y144783D01*
Y143996D01*
X261418Y143602D01*
X262992D01*
X263386Y143996D01*
Y144783D01*
X262992Y145177D01*
X263386Y145964D02*
Y146751D01*
Y146357D01*
X261024D01*
X261418Y145964D01*
X317323Y120669D02*
X318897D01*
Y119882D01*
X318635Y119620D01*
X318110D01*
X317848Y119882D01*
Y120669D01*
Y120144D02*
X317323Y119620D01*
X317585Y119095D02*
X317323Y118833D01*
Y118308D01*
X317585Y118045D01*
X318635D01*
X318897Y118308D01*
Y118833D01*
X318635Y119095D01*
X318372D01*
X318110Y118833D01*
Y118045D01*
X185039Y255216D02*
X184645Y255609D01*
X183858D01*
X183465Y255216D01*
Y253642D01*
X183858Y253248D01*
X184645D01*
X185039Y253642D01*
X187400Y253248D02*
X185826D01*
X187400Y254822D01*
Y255216D01*
X187007Y255609D01*
X186220D01*
X185826Y255216D01*
X188187D02*
X188581Y255609D01*
X189368D01*
X189762Y255216D01*
Y254822D01*
X189368Y254429D01*
X188975D01*
X189368D01*
X189762Y254035D01*
Y253642D01*
X189368Y253248D01*
X188581D01*
X188187Y253642D01*
X405905Y73868D02*
Y72294D01*
X405118D01*
X404856Y72556D01*
Y73081D01*
X405118Y73343D01*
X405905D01*
X405381D02*
X404856Y73868D01*
X404331D02*
X403806D01*
X404069D01*
Y72294D01*
X404331Y72556D01*
X401970Y72294D02*
X403019D01*
Y73081D01*
X402494Y72819D01*
X402232D01*
X401970Y73081D01*
Y73606D01*
X402232Y73868D01*
X402757D01*
X403019Y73606D01*
X325295Y88583D02*
Y90944D01*
X326476D01*
X326870Y90551D01*
Y89763D01*
X326476Y89370D01*
X325295D01*
X326082D02*
X326870Y88583D01*
X329231Y90944D02*
X327657D01*
Y89763D01*
X328444Y90157D01*
X328837D01*
X329231Y89763D01*
Y88976D01*
X328837Y88583D01*
X328050D01*
X327657Y88976D01*
X143898Y220808D02*
Y222776D01*
X142914D01*
X142586Y222448D01*
Y221136D01*
X142914Y220808D01*
X143898D01*
X141930Y221136D02*
X141602Y220808D01*
X140946D01*
X140618Y221136D01*
Y221464D01*
X140946Y221792D01*
X141274D01*
X140946D01*
X140618Y222120D01*
Y222448D01*
X140946Y222776D01*
X141602D01*
X141930Y222448D01*
X126837Y173783D02*
X124476D01*
Y172602D01*
X124869Y172208D01*
X126444D01*
X126837Y172602D01*
Y173783D01*
X124476Y169847D02*
Y171421D01*
X126050Y169847D01*
X126444D01*
X126837Y170240D01*
Y171028D01*
X126444Y171421D01*
X134449Y213976D02*
Y215551D01*
X135236D01*
X135498Y215288D01*
Y214763D01*
X135236Y214501D01*
X134449D01*
X134974D02*
X135498Y213976D01*
X137073D02*
X136023D01*
X137073Y215026D01*
Y215288D01*
X136810Y215551D01*
X136285D01*
X136023Y215288D01*
X137597D02*
X137860Y215551D01*
X138384D01*
X138647Y215288D01*
Y215026D01*
X138384Y214763D01*
X138122D01*
X138384D01*
X138647Y214501D01*
Y214239D01*
X138384Y213976D01*
X137860D01*
X137597Y214239D01*
X33071Y292126D02*
X34645D01*
Y291339D01*
X34383Y291076D01*
X33858D01*
X33596Y291339D01*
Y292126D01*
Y291601D02*
X33071Y291076D01*
Y289502D02*
Y290552D01*
X34120Y289502D01*
X34383D01*
X34645Y289764D01*
Y290289D01*
X34383Y290552D01*
X34645Y287928D02*
X34383Y288453D01*
X33858Y288977D01*
X33333D01*
X33071Y288715D01*
Y288190D01*
X33333Y287928D01*
X33596D01*
X33858Y288190D01*
Y288977D01*
X274893Y229125D02*
X272531D01*
Y230306D01*
X272925Y230700D01*
X273712D01*
X274106Y230306D01*
Y229125D01*
Y229913D02*
X274893Y230700D01*
Y233061D02*
Y231487D01*
X273319Y233061D01*
X272925D01*
X272531Y232668D01*
Y231880D01*
X272925Y231487D01*
X274499Y233848D02*
X274893Y234242D01*
Y235029D01*
X274499Y235423D01*
X272925D01*
X272531Y235029D01*
Y234242D01*
X272925Y233848D01*
X273319D01*
X273712Y234242D01*
Y235423D01*
X353445Y55119D02*
X353839Y54725D01*
X354626D01*
X355020Y55119D01*
Y56693D01*
X354626Y57087D01*
X353839D01*
X353445Y56693D01*
X351084Y54725D02*
X352658D01*
Y55906D01*
X351871Y55512D01*
X351478D01*
X351084Y55906D01*
Y56693D01*
X351478Y57087D01*
X352265D01*
X352658Y56693D01*
X214291Y286671D02*
Y284704D01*
X215275D01*
X215603Y285032D01*
Y286344D01*
X215275Y286671D01*
X214291D01*
X217571D02*
X216259D01*
Y285688D01*
X216915Y286016D01*
X217243D01*
X217571Y285688D01*
Y285032D01*
X217243Y284704D01*
X216587D01*
X216259Y285032D01*
X405568Y105782D02*
Y104208D01*
X404781D01*
X404519Y104471D01*
Y104995D01*
X404781Y105258D01*
X405568D01*
X405044D02*
X404519Y105782D01*
X402944D02*
X403994D01*
X402944Y104733D01*
Y104471D01*
X403207Y104208D01*
X403732D01*
X403994Y104471D01*
X401370Y105782D02*
X402420D01*
X401370Y104733D01*
Y104471D01*
X401632Y104208D01*
X402157D01*
X402420Y104471D01*
X282452Y143898D02*
X284420D01*
Y144882D01*
X284092Y145210D01*
X282780D01*
X282452Y144882D01*
Y143898D01*
X284420Y145865D02*
Y146521D01*
Y146194D01*
X282452D01*
X282780Y145865D01*
X204823Y270768D02*
Y268406D01*
X203642D01*
X203249Y268800D01*
Y269587D01*
X203642Y269981D01*
X204823D01*
X204036D02*
X203249Y270768D01*
X200887D02*
X202461D01*
X200887Y269193D01*
Y268800D01*
X201281Y268406D01*
X202068D01*
X202461Y268800D01*
X200100Y268406D02*
X198526D01*
Y268800D01*
X200100Y270374D01*
Y270768D01*
X265550Y238780D02*
X263189D01*
Y237599D01*
X263582Y237205D01*
X265157D01*
X265550Y237599D01*
Y238780D01*
Y234844D02*
X265157Y235631D01*
X264370Y236418D01*
X263582D01*
X263189Y236024D01*
Y235237D01*
X263582Y234844D01*
X263976D01*
X264370Y235237D01*
Y236418D01*
X392084Y90650D02*
X390510D01*
Y91437D01*
X390772Y91699D01*
X391297D01*
X391559Y91437D01*
Y90650D01*
Y91174D02*
X392084Y91699D01*
Y92224D02*
Y92749D01*
Y92486D01*
X390510D01*
X390772Y92224D01*
Y93536D02*
X390510Y93798D01*
Y94323D01*
X390772Y94585D01*
X391035D01*
X391297Y94323D01*
X391559Y94585D01*
X391822D01*
X392084Y94323D01*
Y93798D01*
X391822Y93536D01*
X391559D01*
X391297Y93798D01*
X391035Y93536D01*
X390772D01*
X391297Y93798D02*
Y94323D01*
X184486Y244418D02*
X184093Y244812D01*
X183306D01*
X182912Y244418D01*
Y242844D01*
X183306Y242450D01*
X184093D01*
X184486Y242844D01*
X186848Y242450D02*
X185274D01*
X186848Y244025D01*
Y244418D01*
X186454Y244812D01*
X185667D01*
X185274Y244418D01*
X188816Y242450D02*
Y244812D01*
X187635Y243631D01*
X189209D01*
X431102Y377264D02*
Y378838D01*
X431627Y378313D01*
X432152Y378838D01*
Y377264D01*
X432677Y378838D02*
Y377264D01*
Y378051D01*
X433726D01*
Y378838D01*
Y377264D01*
X435038D02*
Y378838D01*
X434251Y378051D01*
X435300D01*
X405905Y68012D02*
Y66438D01*
X405118D01*
X404856Y66700D01*
Y67225D01*
X405118Y67487D01*
X405905D01*
X405381D02*
X404856Y68012D01*
X404331D02*
X403806D01*
X404069D01*
Y66438D01*
X404331Y66700D01*
X402232Y68012D02*
Y66438D01*
X403019Y67225D01*
X401970D01*
X122440Y151280D02*
X122834Y151674D01*
Y152461D01*
X122440Y152854D01*
X120866D01*
X120472Y152461D01*
Y151674D01*
X120866Y151280D01*
X120472Y149312D02*
X122834D01*
X121653Y150493D01*
Y148919D01*
X26477Y282776D02*
X28839D01*
Y283956D01*
X28445Y284350D01*
X26871D01*
X26477Y283956D01*
Y282776D01*
X28839Y286318D02*
X26477D01*
X27658Y285137D01*
Y286711D01*
X319094Y228150D02*
X317520D01*
Y228937D01*
X317783Y229199D01*
X318307D01*
X318570Y228937D01*
Y228150D01*
Y228674D02*
X319094Y229199D01*
X317783Y229724D02*
X317520Y229986D01*
Y230511D01*
X317783Y230773D01*
X318045D01*
X318307Y230511D01*
Y230249D01*
Y230511D01*
X318570Y230773D01*
X318832D01*
X319094Y230511D01*
Y229986D01*
X318832Y229724D01*
X319094Y231298D02*
Y231823D01*
Y231561D01*
X317520D01*
X317783Y231298D01*
X102412Y301516D02*
X102084Y301188D01*
Y300532D01*
X102412Y300204D01*
X103724D01*
X104052Y300532D01*
Y301188D01*
X103724Y301516D01*
X104052Y303484D02*
Y302172D01*
X102740Y303484D01*
X102412D01*
X102084Y303156D01*
Y302500D01*
X102412Y302172D01*
X104052Y304139D02*
Y304796D01*
Y304468D01*
X102084D01*
X102412Y304139D01*
X290158Y143898D02*
X288583D01*
Y144685D01*
X288846Y144947D01*
X289370D01*
X289633Y144685D01*
Y143898D01*
Y144422D02*
X290158Y144947D01*
Y145472D02*
Y145997D01*
Y145734D01*
X288583D01*
X288846Y145472D01*
X324142Y237598D02*
X322175D01*
Y236614D01*
X322502Y236286D01*
X323814D01*
X324142Y236614D01*
Y237598D01*
X323814Y235630D02*
X324142Y235303D01*
Y234647D01*
X323814Y234319D01*
X323486D01*
X323158Y234647D01*
X322830Y234319D01*
X322502D01*
X322175Y234647D01*
Y235303D01*
X322502Y235630D01*
X322830D01*
X323158Y235303D01*
X323486Y235630D01*
X323814D01*
X323158Y235303D02*
Y234647D01*
X399311Y125394D02*
X396950D01*
Y126574D01*
X397343Y126968D01*
X398130D01*
X398524Y126574D01*
Y125394D01*
Y126181D02*
X399311Y126968D01*
Y127755D02*
Y128542D01*
Y128149D01*
X396950D01*
X397343Y127755D01*
Y129723D02*
X396950Y130117D01*
Y130904D01*
X397343Y131297D01*
X397737D01*
X398130Y130904D01*
Y130510D01*
Y130904D01*
X398524Y131297D01*
X398917D01*
X399311Y130904D01*
Y130117D01*
X398917Y129723D01*
X61705Y150985D02*
Y153346D01*
X62886D01*
X63280Y152953D01*
Y152166D01*
X62886Y151772D01*
X61705D01*
X62493D02*
X63280Y150985D01*
X64067D02*
X64854D01*
X64460D01*
Y153346D01*
X64067Y152953D01*
X66035Y150985D02*
X66822D01*
X66428D01*
Y153346D01*
X66035Y152953D01*
X296063Y103347D02*
Y105708D01*
X297244D01*
X297637Y105314D01*
Y104527D01*
X297244Y104134D01*
X296063D01*
X296850D02*
X297637Y103347D01*
X298424Y105314D02*
X298818Y105708D01*
X299605D01*
X299999Y105314D01*
Y104921D01*
X299605Y104527D01*
X299999Y104134D01*
Y103740D01*
X299605Y103347D01*
X298818D01*
X298424Y103740D01*
Y104134D01*
X298818Y104527D01*
X298424Y104921D01*
Y105314D01*
X298818Y104527D02*
X299605D01*
X405568Y100197D02*
Y98623D01*
X404781D01*
X404519Y98885D01*
Y99410D01*
X404781Y99672D01*
X405568D01*
X405044D02*
X404519Y100197D01*
X402944D02*
X403994D01*
X402944Y99147D01*
Y98885D01*
X403207Y98623D01*
X403732D01*
X403994Y98885D01*
X402420Y100197D02*
X401895D01*
X402157D01*
Y98623D01*
X402420Y98885D01*
X399463Y121457D02*
Y119882D01*
X398676D01*
X398413Y120145D01*
Y120669D01*
X398676Y120932D01*
X399463D01*
X398938D02*
X398413Y121457D01*
X397889D02*
X397364D01*
X397626D01*
Y119882D01*
X397889Y120145D01*
X396577Y121194D02*
X396314Y121457D01*
X395790D01*
X395527Y121194D01*
Y120145D01*
X395790Y119882D01*
X396314D01*
X396577Y120145D01*
Y120407D01*
X396314Y120669D01*
X395527D01*
X56201Y177657D02*
X58562D01*
Y176477D01*
X58169Y176083D01*
X57381D01*
X56988Y176477D01*
Y177657D01*
Y176870D02*
X56201Y176083D01*
Y173722D02*
Y175296D01*
X57775Y173722D01*
X58169D01*
X58562Y174115D01*
Y174902D01*
X58169Y175296D01*
X58562Y171360D02*
Y172935D01*
X57381D01*
X57775Y172147D01*
Y171754D01*
X57381Y171360D01*
X56594D01*
X56201Y171754D01*
Y172541D01*
X56594Y172935D01*
X41240Y282579D02*
X39666D01*
Y283366D01*
X39928Y283628D01*
X40453D01*
X40715Y283366D01*
Y282579D01*
Y283103D02*
X41240Y283628D01*
X39928Y284153D02*
X39666Y284415D01*
Y284940D01*
X39928Y285203D01*
X40191D01*
X40453Y284940D01*
Y284678D01*
Y284940D01*
X40715Y285203D01*
X40978D01*
X41240Y284940D01*
Y284415D01*
X40978Y284153D01*
X39928Y285727D02*
X39666Y285990D01*
Y286514D01*
X39928Y286777D01*
X40978D01*
X41240Y286514D01*
Y285990D01*
X40978Y285727D01*
X39928D01*
X223819Y281791D02*
Y280217D01*
X223032D01*
X222769Y280479D01*
Y281004D01*
X223032Y281267D01*
X223819D01*
X223294D02*
X222769Y281791D01*
X221195D02*
X222245D01*
X221195Y280742D01*
Y280479D01*
X221457Y280217D01*
X221982D01*
X222245Y280479D01*
X220670D02*
X220408Y280217D01*
X219883D01*
X219621Y280479D01*
Y280742D01*
X219883Y281004D01*
X219621Y281267D01*
Y281529D01*
X219883Y281791D01*
X220408D01*
X220670Y281529D01*
Y281267D01*
X220408Y281004D01*
X220670Y280742D01*
Y280479D01*
X220408Y281004D02*
X219883D01*
X393585Y68405D02*
Y66044D01*
X392404D01*
X392011Y66438D01*
Y67225D01*
X392404Y67618D01*
X393585D01*
X392798D02*
X392011Y68405D01*
X391224D02*
X390436D01*
X390830D01*
Y66044D01*
X391224Y66438D01*
X387681Y68405D02*
X389256D01*
X387681Y66831D01*
Y66438D01*
X388075Y66044D01*
X388862D01*
X389256Y66438D01*
X379048Y66725D02*
X379441Y66331D01*
X380229D01*
X380622Y66725D01*
Y68299D01*
X380229Y68693D01*
X379441D01*
X379048Y68299D01*
X376687Y66331D02*
X377474Y66725D01*
X378261Y67512D01*
Y68299D01*
X377867Y68693D01*
X377080D01*
X376687Y68299D01*
Y67906D01*
X377080Y67512D01*
X378261D01*
X127559Y180709D02*
Y178347D01*
X126378D01*
X125985Y178741D01*
Y179528D01*
X126378Y179921D01*
X127559D01*
X126772D02*
X125985Y180709D01*
X123623D02*
X125198D01*
X123623Y179134D01*
Y178741D01*
X124017Y178347D01*
X124804D01*
X125198Y178741D01*
X17965Y383858D02*
X19539D01*
X19014Y383333D01*
X19539Y382809D01*
X17965D01*
X19539Y382284D02*
X17965D01*
X18752D01*
Y381235D01*
X19539D01*
X17965D01*
X19276Y380710D02*
X19539Y380447D01*
Y379923D01*
X19276Y379660D01*
X19014D01*
X18752Y379923D01*
Y380185D01*
Y379923D01*
X18489Y379660D01*
X18227D01*
X17965Y379923D01*
Y380447D01*
X18227Y380710D01*
D12*
X247182Y76850D02*
Y119450D01*
X236382Y159450D02*
X247182D01*
X236382Y76850D02*
Y119450D01*
Y116850D02*
Y159450D01*
X247182Y36850D02*
Y79450D01*
X236382Y36850D02*
Y79450D01*
X247182Y6791D02*
Y39450D01*
Y116850D02*
Y159450D01*
X236382Y6850D02*
X247182D01*
X236382Y6791D02*
Y39450D01*
X136382Y6791D02*
Y39450D01*
Y6850D02*
X147182D01*
Y116850D02*
Y159450D01*
Y6791D02*
Y39450D01*
X136382Y36850D02*
Y79450D01*
X147182Y36850D02*
Y79450D01*
X136382Y116850D02*
Y159450D01*
Y76850D02*
Y119450D01*
Y159450D02*
X147182D01*
Y76850D02*
Y119450D01*
D13*
X299453Y312596D02*
X291581D01*
Y316532D01*
X292893Y317844D01*
X295517D01*
X296829Y316532D01*
Y312596D01*
Y315220D02*
X299453Y317844D01*
X291581Y325715D02*
Y320468D01*
X299453D01*
Y325715D01*
X295517Y320468D02*
Y323091D01*
X292893Y333587D02*
X291581Y332275D01*
Y329651D01*
X292893Y328339D01*
X298141D01*
X299453Y329651D01*
Y332275D01*
X298141Y333587D01*
X295517D01*
Y330963D01*
X299453Y336210D02*
Y338834D01*
Y337522D01*
X291581D01*
X292893Y336210D01*
X125975Y311946D02*
X132535D01*
X133846Y313258D01*
Y315881D01*
X132535Y317193D01*
X125975D01*
X133846Y323753D02*
X125975D01*
X129911Y319817D01*
Y325065D01*
D17*
X83467Y65086D02*
Y64167D01*
Y64626D01*
X85762D01*
X86222Y64167D01*
Y63708D01*
X85762Y63249D01*
Y66004D02*
X86222Y66463D01*
Y67382D01*
X85762Y67841D01*
X83926D01*
X83467Y67382D01*
Y66463D01*
X83926Y66004D01*
X84385D01*
X84844Y66463D01*
Y67841D01*
X273722Y54751D02*
Y53833D01*
Y54292D01*
X276018D01*
X276477Y53833D01*
Y53374D01*
X276018Y52914D01*
X274182Y55669D02*
X273722Y56129D01*
Y57047D01*
X274182Y57506D01*
X274641D01*
X275100Y57047D01*
Y56588D01*
Y57047D01*
X275559Y57506D01*
X276018D01*
X276477Y57047D01*
Y56129D01*
X276018Y55669D01*
X112698Y104012D02*
Y103094D01*
Y103553D01*
X114994D01*
X115453Y103094D01*
Y102634D01*
X114994Y102175D01*
X115453Y106308D02*
X112698D01*
X114075Y104930D01*
Y106767D01*
X291436Y298721D02*
X288287D01*
Y297146D01*
X288812Y296621D01*
X290911D01*
X291436Y297146D01*
Y298721D01*
X288812Y295572D02*
X288287Y295047D01*
Y293998D01*
X288812Y293473D01*
X290911D01*
X291436Y293998D01*
Y295047D01*
X290911Y295572D01*
X290387D01*
X289862Y295047D01*
Y293473D01*
X323622Y97637D02*
X322048D01*
X321654Y97244D01*
Y96456D01*
X322048Y96063D01*
X323622D01*
X324016Y96456D01*
Y97244D01*
X323229Y96850D02*
X324016Y97637D01*
Y97244D02*
X323622Y97637D01*
X324016Y98424D02*
Y99212D01*
Y98818D01*
X321654D01*
X322048Y98424D01*
X273818Y162238D02*
Y163156D01*
Y162697D01*
X271522D01*
X271063Y163156D01*
Y163616D01*
X271522Y164075D01*
X271063Y161320D02*
Y160401D01*
Y160861D01*
X273818D01*
X273359Y161320D01*
X159841Y258477D02*
Y259396D01*
Y258937D01*
X157545D01*
X157086Y259396D01*
Y259855D01*
X157545Y260314D01*
X157086Y255722D02*
Y257559D01*
X158922Y255722D01*
X159381D01*
X159841Y256181D01*
Y257100D01*
X159381Y257559D01*
X157086Y253426D02*
X159841D01*
X158463Y254804D01*
Y252967D01*
X265440Y209832D02*
X264522D01*
X264981D01*
Y207536D01*
X264522Y207077D01*
X264062D01*
X263603Y207536D01*
X266358Y209373D02*
X266817Y209832D01*
X267736D01*
X268195Y209373D01*
Y208914D01*
X267736Y208455D01*
X267277D01*
X267736D01*
X268195Y207996D01*
Y207536D01*
X267736Y207077D01*
X266817D01*
X266358Y207536D01*
X270950Y209832D02*
X269113D01*
Y208455D01*
X270032Y208914D01*
X270491D01*
X270950Y208455D01*
Y207536D01*
X270491Y207077D01*
X269572D01*
X269113Y207536D01*
X311317Y82847D02*
Y83766D01*
Y83306D01*
X309021D01*
X308562Y83766D01*
Y84225D01*
X309021Y84684D01*
X308562Y81929D02*
Y81011D01*
Y81470D01*
X311317D01*
X310858Y81929D01*
Y79633D02*
X311317Y79174D01*
Y78256D01*
X310858Y77797D01*
X310399D01*
X309939Y78256D01*
Y78715D01*
Y78256D01*
X309480Y77797D01*
X309021D01*
X308562Y78256D01*
Y79174D01*
X309021Y79633D01*
X123655Y301256D02*
X120506D01*
Y299681D01*
X121031Y299156D01*
X123130D01*
X123655Y299681D01*
Y301256D01*
Y298107D02*
Y296008D01*
X123130D01*
X121031Y298107D01*
X120506D01*
X351967Y111095D02*
Y112014D01*
Y111555D01*
X349671D01*
X349212Y112014D01*
Y112473D01*
X349671Y112932D01*
X351967Y108340D02*
X351507Y109259D01*
X350589Y110177D01*
X349671D01*
X349212Y109718D01*
Y108800D01*
X349671Y108340D01*
X350130D01*
X350589Y108800D01*
Y110177D01*
X113680Y163813D02*
Y164731D01*
Y164272D01*
X111384D01*
X110925Y164731D01*
Y165190D01*
X111384Y165650D01*
X110925Y161058D02*
Y162895D01*
X112762Y161058D01*
X113221D01*
X113680Y161517D01*
Y162435D01*
X113221Y162895D01*
X145175Y258477D02*
Y259396D01*
Y258937D01*
X142879D01*
X142420Y259396D01*
Y259855D01*
X142879Y260314D01*
X142420Y255722D02*
Y257559D01*
X144257Y255722D01*
X144716D01*
X145175Y256181D01*
Y257100D01*
X144716Y257559D01*
Y254804D02*
X145175Y254345D01*
Y253426D01*
X144716Y252967D01*
X144257D01*
X143798Y253426D01*
Y253886D01*
Y253426D01*
X143339Y252967D01*
X142879D01*
X142420Y253426D01*
Y254345D01*
X142879Y254804D01*
X272934Y23372D02*
Y22454D01*
Y22913D01*
X275230D01*
X275689Y22454D01*
Y21995D01*
X275230Y21535D01*
X272934Y26127D02*
Y24290D01*
X274311D01*
X273852Y25209D01*
Y25668D01*
X274311Y26127D01*
X275230D01*
X275689Y25668D01*
Y24750D01*
X275230Y24290D01*
X296596Y74042D02*
Y73124D01*
Y73583D01*
X298891D01*
X299351Y73124D01*
Y72665D01*
X298891Y72206D01*
X296596Y74961D02*
Y76797D01*
X297055D01*
X298891Y74961D01*
X299351D01*
X313747Y209994D02*
X312829D01*
X313288D01*
Y207698D01*
X312829Y207239D01*
X312370D01*
X311910Y207698D01*
X314665Y209535D02*
X315125Y209994D01*
X316043D01*
X316502Y209535D01*
Y209076D01*
X316043Y208616D01*
X315584D01*
X316043D01*
X316502Y208157D01*
Y207698D01*
X316043Y207239D01*
X315125D01*
X314665Y207698D01*
X319257Y209994D02*
X318339Y209535D01*
X317420Y208616D01*
Y207698D01*
X317880Y207239D01*
X318798D01*
X319257Y207698D01*
Y208157D01*
X318798Y208616D01*
X317420D01*
X243109Y86187D02*
Y87302D01*
Y86745D01*
X240321D01*
X239764Y87302D01*
Y87860D01*
X240321Y88417D01*
X239764Y83399D02*
X243109D01*
X241437Y85072D01*
Y82842D01*
X242552Y81726D02*
X243109Y81169D01*
Y80054D01*
X242552Y79496D01*
X240321D01*
X239764Y80054D01*
Y81169D01*
X240321Y81726D01*
X242552D01*
X143109Y86187D02*
Y87302D01*
Y86745D01*
X140321D01*
X139764Y87302D01*
Y87860D01*
X140321Y88417D01*
X142552Y85072D02*
X143109Y84514D01*
Y83399D01*
X142552Y82842D01*
X141994D01*
X141437Y83399D01*
Y83957D01*
Y83399D01*
X140879Y82842D01*
X140321D01*
X139764Y83399D01*
Y84514D01*
X140321Y85072D01*
Y81726D02*
X139764Y81169D01*
Y80054D01*
X140321Y79496D01*
X142552D01*
X143109Y80054D01*
Y81169D01*
X142552Y81726D01*
X141994D01*
X141437Y81169D01*
Y79496D01*
X429135Y207186D02*
Y205218D01*
Y206202D01*
X434055D01*
X435039Y205218D01*
Y204234D01*
X434055Y203250D01*
X435039Y209154D02*
Y211122D01*
Y210138D01*
X429135D01*
X430119Y209154D01*
X435039Y218009D02*
Y214074D01*
X431103Y218009D01*
X430119D01*
X429135Y217025D01*
Y215058D01*
X430119Y214074D01*
X324607Y26869D02*
X322639D01*
X323623D01*
Y21949D01*
X322639Y20966D01*
X321656D01*
X320672Y21949D01*
X326575Y20966D02*
X328543D01*
X327559D01*
Y26869D01*
X326575Y25885D01*
X334447Y20966D02*
Y26869D01*
X331495Y23917D01*
X335431D01*
X25294Y62499D02*
Y64467D01*
Y63483D01*
X20375D01*
X19391Y64467D01*
Y65451D01*
X20375Y66435D01*
X19391Y60531D02*
Y58563D01*
Y59547D01*
X25294D01*
X24310Y60531D01*
Y55611D02*
X25294Y54627D01*
Y52659D01*
X24310Y51676D01*
X23326D01*
X22343Y52659D01*
X21359Y51676D01*
X20375D01*
X19391Y52659D01*
Y54627D01*
X20375Y55611D01*
X21359D01*
X22343Y54627D01*
X23326Y55611D01*
X24310D01*
X22343Y54627D02*
Y52659D01*
X81300Y26377D02*
X79333D01*
X80317D01*
Y21457D01*
X79333Y20473D01*
X78349D01*
X77365Y21457D01*
X83268Y25393D02*
X84252Y26377D01*
X86220D01*
X87204Y25393D01*
Y24409D01*
X86220Y23425D01*
X85236D01*
X86220D01*
X87204Y22441D01*
Y21457D01*
X86220Y20473D01*
X84252D01*
X83268Y21457D01*
X89172Y25393D02*
X90156Y26377D01*
X92124D01*
X93108Y25393D01*
Y24409D01*
X92124Y23425D01*
X93108Y22441D01*
Y21457D01*
X92124Y20473D01*
X90156D01*
X89172Y21457D01*
Y22441D01*
X90156Y23425D01*
X89172Y24409D01*
Y25393D01*
X90156Y23425D02*
X92124D01*
X24605Y125672D02*
Y126787D01*
Y126230D01*
X21817D01*
X21260Y126787D01*
Y127345D01*
X21817Y127902D01*
X21260Y124557D02*
Y123442D01*
Y123999D01*
X24605D01*
X24048Y124557D01*
X24605Y119539D02*
Y121769D01*
X22932D01*
X23490Y120654D01*
Y120096D01*
X22932Y119539D01*
X21817D01*
X21260Y120096D01*
Y121211D01*
X21817Y121769D01*
X391257Y26153D02*
X390142D01*
X390700D01*
Y23365D01*
X390142Y22808D01*
X389584D01*
X389027Y23365D01*
X392372Y22808D02*
X393487D01*
X392930D01*
Y26153D01*
X392372Y25595D01*
X395160Y23365D02*
X395718Y22808D01*
X396833D01*
X397390Y23365D01*
Y25595D01*
X396833Y26153D01*
X395718D01*
X395160Y25595D01*
Y25038D01*
X395718Y24480D01*
X397390D01*
X429922Y134384D02*
Y133269D01*
Y133826D01*
X432710D01*
X433268Y133269D01*
Y132711D01*
X432710Y132154D01*
X433268Y137729D02*
Y135499D01*
X431037Y137729D01*
X430480D01*
X429922Y137172D01*
Y136057D01*
X430480Y135499D01*
Y138844D02*
X429922Y139402D01*
Y140517D01*
X430480Y141075D01*
X432710D01*
X433268Y140517D01*
Y139402D01*
X432710Y138844D01*
X430480D01*
X25097Y185203D02*
Y186318D01*
Y185760D01*
X22309D01*
X21752Y186318D01*
Y186875D01*
X22309Y187433D01*
X21752Y181857D02*
Y184088D01*
X23982Y181857D01*
X24540D01*
X25097Y182415D01*
Y183530D01*
X24540Y184088D01*
X25097Y178512D02*
Y180742D01*
X23425D01*
X23982Y179627D01*
Y179069D01*
X23425Y178512D01*
X22309D01*
X21752Y179069D01*
Y180185D01*
X22309Y180742D01*
X25491Y242388D02*
Y243503D01*
Y242945D01*
X22703D01*
X22146Y243503D01*
Y244060D01*
X22703Y244618D01*
X22146Y239042D02*
Y241273D01*
X24376Y239042D01*
X24934D01*
X25491Y239600D01*
Y240715D01*
X24934Y241273D01*
X25491Y237927D02*
Y235697D01*
X24934D01*
X22703Y237927D01*
X22146D01*
X402043Y369631D02*
X403158D01*
X402600D01*
Y372419D01*
X403158Y372976D01*
X403716D01*
X404273Y372419D01*
X398697Y372976D02*
X400928D01*
X398697Y370746D01*
Y370188D01*
X399255Y369631D01*
X400370D01*
X400928Y370188D01*
X397582Y372419D02*
X397025Y372976D01*
X395910D01*
X395352Y372419D01*
Y370188D01*
X395910Y369631D01*
X397025D01*
X397582Y370188D01*
Y370746D01*
X397025Y371304D01*
X395352D01*
X25444Y330183D02*
Y331298D01*
Y330741D01*
X22656D01*
X22098Y331298D01*
Y331856D01*
X22656Y332413D01*
X24886Y329068D02*
X25444Y328510D01*
Y327395D01*
X24886Y326838D01*
X24329D01*
X23771Y327395D01*
Y327953D01*
Y327395D01*
X23214Y326838D01*
X22656D01*
X22098Y327395D01*
Y328510D01*
X22656Y329068D01*
X24886Y325723D02*
X25444Y325165D01*
Y324050D01*
X24886Y323492D01*
X22656D01*
X22098Y324050D01*
Y325165D01*
X22656Y325723D01*
X24886D01*
X243602Y369686D02*
X244717D01*
X244159D01*
Y372474D01*
X244717Y373031D01*
X245274D01*
X245832Y372474D01*
X242487Y370244D02*
X241929Y369686D01*
X240814D01*
X240256Y370244D01*
Y370801D01*
X240814Y371359D01*
X241372D01*
X240814D01*
X240256Y371916D01*
Y372474D01*
X240814Y373031D01*
X241929D01*
X242487Y372474D01*
X239141Y373031D02*
X238026D01*
X238584D01*
Y369686D01*
X239141Y370244D01*
X251607Y303411D02*
X252164Y303969D01*
Y305084D01*
X251607Y305642D01*
X249377D01*
X248819Y305084D01*
Y303969D01*
X249377Y303411D01*
X248819Y300066D02*
Y302296D01*
X251049Y300066D01*
X251607D01*
X252164Y300623D01*
Y301739D01*
X251607Y302296D01*
X252164Y296721D02*
Y298951D01*
X250492D01*
X251049Y297836D01*
Y297278D01*
X250492Y296721D01*
X249377D01*
X248819Y297278D01*
Y298393D01*
X249377Y298951D01*
X180984Y312865D02*
Y316210D01*
X178754D01*
X177638D02*
X176523D01*
X177081D01*
Y312865D01*
X177638Y313422D01*
X347867Y311517D02*
Y314862D01*
X345636D01*
X342291D02*
X344521D01*
X342291Y312632D01*
Y312074D01*
X342848Y311517D01*
X343964D01*
X344521Y312074D01*
X404419Y89076D02*
Y91864D01*
X403861Y92421D01*
X402746D01*
X402189Y91864D01*
Y89076D01*
X398843Y92421D02*
X401074D01*
X398843Y90191D01*
Y89633D01*
X399401Y89076D01*
X400516D01*
X401074Y89633D01*
X70742Y177783D02*
X74088D01*
Y176111D01*
X73530Y175553D01*
X72415D01*
X71858Y176111D01*
Y177783D01*
X74088Y172765D02*
Y173880D01*
X73530Y174438D01*
X71300D01*
X70742Y173880D01*
Y172765D01*
X71300Y172208D01*
X73530D01*
X74088Y172765D01*
Y171092D02*
Y168862D01*
Y169977D01*
X70742D01*
Y167747D02*
Y166632D01*
Y167190D01*
X74088D01*
X73530Y167747D01*
X61729Y125279D02*
Y123049D01*
X62286Y122491D01*
X63402D01*
X63959Y123049D01*
Y125279D01*
X63402Y125837D01*
X62286D01*
X62844Y124722D02*
X61729Y125837D01*
X62286D02*
X61729Y125279D01*
X58384Y125837D02*
X60614D01*
X58384Y123606D01*
Y123049D01*
X58941Y122491D01*
X60056D01*
X60614Y123049D01*
X219859Y251993D02*
Y249205D01*
X220416Y248648D01*
X221531D01*
X222089Y249205D01*
Y251993D01*
X225434D02*
X223204D01*
Y250321D01*
X224319Y250878D01*
X224877D01*
X225434Y250321D01*
Y249205D01*
X224877Y248648D01*
X223762D01*
X223204Y249205D01*
X401639Y52855D02*
X399408D01*
X400524D01*
Y56201D01*
X398293Y52855D02*
Y55086D01*
X397178Y56201D01*
X396063Y55086D01*
Y52855D01*
X392718Y53413D02*
X393275Y52855D01*
X394390D01*
X394948Y53413D01*
Y53970D01*
X394390Y54528D01*
X393275D01*
X392718Y55086D01*
Y55643D01*
X393275Y56201D01*
X394390D01*
X394948Y55643D01*
X391602Y56201D02*
X390487D01*
X391045D01*
Y52855D01*
X391602Y53413D01*
X403446Y127233D02*
Y129463D01*
Y128348D01*
X406791D01*
X403446Y130578D02*
X405676D01*
X406791Y131693D01*
X405676Y132808D01*
X403446D01*
X404003Y136154D02*
X403446Y135596D01*
Y134481D01*
X404003Y133924D01*
X404561D01*
X405119Y134481D01*
Y135596D01*
X405676Y136154D01*
X406234D01*
X406791Y135596D01*
Y134481D01*
X406234Y133924D01*
X406791Y139499D02*
Y137269D01*
X404561Y139499D01*
X404003D01*
X403446Y138942D01*
Y137827D01*
X404003Y137269D01*
D18*
X95867Y329037D02*
X96851Y328053D01*
X98819D01*
X99803Y329037D01*
Y332973D01*
X98819Y333957D01*
X96851D01*
X95867Y332973D01*
X89964Y333957D02*
X93900D01*
X89964Y330021D01*
Y329037D01*
X90948Y328053D01*
X92916D01*
X93900Y329037D01*
X87996D02*
X87012Y328053D01*
X85044D01*
X84060Y329037D01*
Y332973D01*
X85044Y333957D01*
X87012D01*
X87996Y332973D01*
Y329037D01*
D119*
X85291Y143588D02*
X85487Y143784D01*
Y144178D01*
X85291Y144375D01*
X85094D01*
X84897Y144178D01*
Y143784D01*
X84700Y143588D01*
X84504D01*
X84307Y143784D01*
Y144178D01*
X84504Y144375D01*
X85487Y142407D02*
Y142800D01*
Y142604D01*
X84504D01*
X84307Y142800D01*
Y142997D01*
X84504Y143194D01*
X84307Y142013D02*
Y141620D01*
Y141816D01*
X85487D01*
X85291Y142013D01*
D120*
X349080Y366858D02*
X349736Y366202D01*
X351048D01*
X351704Y366858D01*
Y369482D01*
X351048Y370138D01*
X349736D01*
X349080Y369482D01*
X345145Y370138D02*
X347769D01*
X345145Y367514D01*
Y366858D01*
X345801Y366202D01*
X347113D01*
X347769Y366858D01*
X341209Y366202D02*
X342521Y366858D01*
X343833Y368170D01*
Y369482D01*
X343177Y370138D01*
X341865D01*
X341209Y369482D01*
Y368826D01*
X341865Y368170D01*
X343833D01*
X89300Y275892D02*
X88644Y276548D01*
X87332D01*
X86676Y275892D01*
Y273268D01*
X87332Y272612D01*
X88644D01*
X89300Y273268D01*
X90612Y275892D02*
X91268Y276548D01*
X92580D01*
X93236Y275892D01*
Y275236D01*
X92580Y274580D01*
X93236Y273924D01*
Y273268D01*
X92580Y272612D01*
X91268D01*
X90612Y273268D01*
Y273924D01*
X91268Y274580D01*
X90612Y275236D01*
Y275892D01*
X91268Y274580D02*
X92580D01*
X184907Y368433D02*
X185563Y367777D01*
X186875D01*
X187531Y368433D01*
Y371057D01*
X186875Y371713D01*
X185563D01*
X184907Y371057D01*
X180972Y371713D02*
X183595D01*
X180972Y369089D01*
Y368433D01*
X181628Y367777D01*
X182939D01*
X183595Y368433D01*
X177036Y371713D02*
X179660D01*
X177036Y369089D01*
Y368433D01*
X177692Y367777D01*
X179004D01*
X179660Y368433D01*
M02*
