G04*
G04 #@! TF.GenerationSoftware,Altium Limited,Altium Designer,22.10.1 (41)*
G04*
G04 Layer_Physical_Order=4*
G04 Layer_Color=16711680*
%FSLAX25Y25*%
%MOIN*%
G70*
G04*
G04 #@! TF.SameCoordinates,F8C157B4-DA96-4F04-9901-D09C045D4249*
G04*
G04*
G04 #@! TF.FilePolarity,Positive*
G04*
G01*
G75*
%ADD14C,0.01000*%
%ADD32R,0.03937X0.03740*%
%ADD36R,0.03150X0.05118*%
%ADD37R,0.05118X0.03150*%
%ADD72C,0.05800*%
%ADD77C,0.21654*%
%ADD84C,0.02000*%
%ADD88C,0.00700*%
%ADD89C,0.09449*%
G04:AMPARAMS|DCode=90|XSize=94.49mil|YSize=94.49mil|CornerRadius=23.62mil|HoleSize=0mil|Usage=FLASHONLY|Rotation=90.000|XOffset=0mil|YOffset=0mil|HoleType=Round|Shape=RoundedRectangle|*
%AMROUNDEDRECTD90*
21,1,0.09449,0.04724,0,0,90.0*
21,1,0.04724,0.09449,0,0,90.0*
1,1,0.04724,0.02362,0.02362*
1,1,0.04724,0.02362,-0.02362*
1,1,0.04724,-0.02362,-0.02362*
1,1,0.04724,-0.02362,0.02362*
%
%ADD90ROUNDEDRECTD90*%
G04:AMPARAMS|DCode=91|XSize=94.49mil|YSize=94.49mil|CornerRadius=23.62mil|HoleSize=0mil|Usage=FLASHONLY|Rotation=0.000|XOffset=0mil|YOffset=0mil|HoleType=Round|Shape=RoundedRectangle|*
%AMROUNDEDRECTD91*
21,1,0.09449,0.04724,0,0,0.0*
21,1,0.04724,0.09449,0,0,0.0*
1,1,0.04724,0.02362,-0.02362*
1,1,0.04724,-0.02362,-0.02362*
1,1,0.04724,-0.02362,0.02362*
1,1,0.04724,0.02362,0.02362*
%
%ADD91ROUNDEDRECTD91*%
%ADD92C,0.04331*%
%ADD93C,0.06299*%
%ADD94R,0.06299X0.06299*%
%ADD95R,0.06299X0.06299*%
%ADD96C,0.02362*%
%ADD105R,0.03740X0.03937*%
%ADD106R,0.02480X0.02323*%
%ADD107R,0.02323X0.02480*%
G04:AMPARAMS|DCode=108|XSize=37.8mil|YSize=10.63mil|CornerRadius=1.33mil|HoleSize=0mil|Usage=FLASHONLY|Rotation=180.000|XOffset=0mil|YOffset=0mil|HoleType=Round|Shape=RoundedRectangle|*
%AMROUNDEDRECTD108*
21,1,0.03780,0.00797,0,0,180.0*
21,1,0.03514,0.01063,0,0,180.0*
1,1,0.00266,-0.01757,0.00399*
1,1,0.00266,0.01757,0.00399*
1,1,0.00266,0.01757,-0.00399*
1,1,0.00266,-0.01757,-0.00399*
%
%ADD108ROUNDEDRECTD108*%
G04:AMPARAMS|DCode=109|XSize=37.8mil|YSize=10.63mil|CornerRadius=1.33mil|HoleSize=0mil|Usage=FLASHONLY|Rotation=270.000|XOffset=0mil|YOffset=0mil|HoleType=Round|Shape=RoundedRectangle|*
%AMROUNDEDRECTD109*
21,1,0.03780,0.00797,0,0,270.0*
21,1,0.03514,0.01063,0,0,270.0*
1,1,0.00266,-0.00399,-0.01757*
1,1,0.00266,-0.00399,0.01757*
1,1,0.00266,0.00399,0.01757*
1,1,0.00266,0.00399,-0.01757*
%
%ADD109ROUNDEDRECTD109*%
%ADD110R,0.12205X0.12205*%
G36*
X234860Y351966D02*
X234383Y351371D01*
X233962Y350746D01*
X233597Y350092D01*
X233288Y349408D01*
X233036Y348693D01*
X232839Y347949D01*
X232699Y347175D01*
X232615Y346372D01*
X232587Y345538D01*
X231587D01*
X231558Y346372D01*
X231474Y347175D01*
X231334Y347949D01*
X231137Y348693D01*
X230885Y349408D01*
X230576Y350092D01*
X230211Y350746D01*
X229790Y351371D01*
X229313Y351966D01*
X228780Y352532D01*
X235394D01*
X234860Y351966D01*
D02*
G37*
G36*
X392744Y351911D02*
X392267Y351316D01*
X391845Y350691D01*
X391481Y350037D01*
X391172Y349352D01*
X390919Y348638D01*
X390723Y347894D01*
X390582Y347120D01*
X390498Y346317D01*
X390470Y345483D01*
X389470D01*
X389442Y346317D01*
X389358Y347120D01*
X389217Y347894D01*
X389021Y348638D01*
X388768Y349352D01*
X388459Y350037D01*
X388095Y350691D01*
X387673Y351316D01*
X387196Y351911D01*
X386663Y352476D01*
X393277D01*
X392744Y351911D01*
D02*
G37*
G36*
X315021Y373325D02*
X315021Y373324D01*
Y331012D01*
X315013Y331004D01*
X272638D01*
Y372973D01*
X272991Y373327D01*
X315021Y373325D01*
D02*
G37*
G36*
X149345Y330219D02*
X107010D01*
Y372966D01*
X149345D01*
Y330219D01*
D02*
G37*
G36*
X301445Y315428D02*
X301539Y315372D01*
X301654Y315323D01*
X301788Y315281D01*
X301942Y315245D01*
X302117Y315215D01*
X302526Y315176D01*
X302760Y315166D01*
X303015Y315163D01*
Y314163D01*
X302760Y314160D01*
X302117Y314111D01*
X301942Y314081D01*
X301788Y314045D01*
X301654Y314003D01*
X301539Y313954D01*
X301445Y313898D01*
X301371Y313836D01*
Y315490D01*
X301445Y315428D01*
D02*
G37*
G36*
X135839Y315073D02*
X135933Y315017D01*
X136047Y314968D01*
X136181Y314926D01*
X136336Y314890D01*
X136510Y314860D01*
X136919Y314821D01*
X137154Y314811D01*
X137409Y314808D01*
Y313808D01*
X137154Y313805D01*
X136510Y313756D01*
X136336Y313726D01*
X136181Y313690D01*
X136047Y313648D01*
X135933Y313599D01*
X135839Y313543D01*
X135765Y313481D01*
Y315135D01*
X135839Y315073D01*
D02*
G37*
G36*
X454346Y16038D02*
X454363Y15956D01*
X454188Y13738D01*
X453650Y11496D01*
X452767Y9365D01*
X451562Y7398D01*
X450064Y5645D01*
X448310Y4147D01*
X446344Y2942D01*
X444213Y2059D01*
X441970Y1521D01*
X439757Y1346D01*
X439677Y1362D01*
X16253Y1444D01*
X16142Y1466D01*
X16060Y1450D01*
X13842Y1625D01*
X11600Y2163D01*
X9469Y3046D01*
X7502Y4251D01*
X5749Y5749D01*
X4251Y7502D01*
X3046Y9469D01*
X2163Y11600D01*
X1625Y13842D01*
X1450Y16060D01*
X1466Y16142D01*
X1466Y269980D01*
X49902D01*
Y260728D01*
X57185Y253445D01*
X88836D01*
X95276Y259884D01*
X134294D01*
X140650Y266240D01*
X403051D01*
X406791Y269980D01*
X454335D01*
X454346Y16038D01*
D02*
G37*
%LPC*%
G36*
X194016Y264581D02*
X193188D01*
X192423Y264264D01*
X191838Y263679D01*
X191521Y262914D01*
Y262086D01*
X191838Y261321D01*
X192423Y260736D01*
X193188Y260419D01*
X194016D01*
X194781Y260736D01*
X195367Y261321D01*
X195684Y262086D01*
Y262914D01*
X195367Y263679D01*
X194781Y264264D01*
X194016Y264581D01*
D02*
G37*
G36*
X188997D02*
X188169D01*
X187404Y264264D01*
X186818Y263679D01*
X186502Y262914D01*
Y262086D01*
X186818Y261321D01*
X187404Y260736D01*
X188169Y260419D01*
X188997D01*
X189761Y260736D01*
X190347Y261321D01*
X190664Y262086D01*
Y262914D01*
X190347Y263679D01*
X189761Y264264D01*
X188997Y264581D01*
D02*
G37*
G36*
X159391Y263302D02*
X158325D01*
X157295Y263026D01*
X156372Y262492D01*
X155618Y261738D01*
X155085Y260815D01*
X154809Y259785D01*
Y258719D01*
X155085Y257689D01*
X155618Y256766D01*
X156372Y256012D01*
X157295Y255478D01*
X158325Y255202D01*
X159391D01*
X160421Y255478D01*
X161345Y256012D01*
X162099Y256766D01*
X162632Y257689D01*
X162908Y258719D01*
Y259785D01*
X162632Y260815D01*
X162099Y261738D01*
X161345Y262492D01*
X160421Y263026D01*
X159391Y263302D01*
D02*
G37*
G36*
X144726D02*
X143660D01*
X142630Y263026D01*
X141706Y262492D01*
X140952Y261738D01*
X140419Y260815D01*
X140143Y259785D01*
Y258719D01*
X140419Y257689D01*
X140952Y256766D01*
X141706Y256012D01*
X142630Y255478D01*
X143660Y255202D01*
X144726D01*
X145756Y255478D01*
X146679Y256012D01*
X147433Y256766D01*
X147967Y257689D01*
X148242Y258719D01*
Y259785D01*
X147967Y260815D01*
X147433Y261738D01*
X146679Y262492D01*
X145756Y263026D01*
X144726Y263302D01*
D02*
G37*
G36*
X41634Y255653D02*
X36909D01*
X36058Y255540D01*
X35264Y255212D01*
X34583Y254689D01*
X34060Y254007D01*
X33731Y253214D01*
X33619Y252362D01*
Y247638D01*
X33731Y246786D01*
X34060Y245993D01*
X34583Y245311D01*
X35264Y244788D01*
X36058Y244460D01*
X36909Y244347D01*
X41634D01*
X42486Y244460D01*
X43279Y244788D01*
X43961Y245311D01*
X44484Y245993D01*
X44812Y246786D01*
X44924Y247638D01*
Y247817D01*
X48611D01*
Y247528D01*
X49314D01*
X49323Y247527D01*
X49332Y247528D01*
X54409D01*
X54417Y247527D01*
X54426Y247528D01*
X55129D01*
Y247817D01*
X58217D01*
X58465Y247767D01*
X66759D01*
X89947Y224580D01*
X89947Y219197D01*
X89911Y219088D01*
X89551Y218697D01*
X87462Y218697D01*
X81127Y225032D01*
Y230192D01*
X81073Y230465D01*
X80918Y230697D01*
X79540Y232075D01*
X79309Y232229D01*
X79035Y232284D01*
X73401D01*
X73128Y232229D01*
X72896Y232075D01*
X72133Y231312D01*
X71978Y231080D01*
X71924Y230807D01*
Y223622D01*
X71978Y223349D01*
X72133Y223117D01*
X73216Y222035D01*
X73447Y221880D01*
X73721Y221826D01*
X79626D01*
X80141Y221826D01*
X84223Y217743D01*
X86504Y215463D01*
X86735Y215308D01*
X87008Y215254D01*
X90661D01*
X90934Y215308D01*
X91166Y215463D01*
X91369Y215666D01*
X91524Y215898D01*
X91578Y216171D01*
Y216925D01*
X91912Y217369D01*
X92710D01*
X93035Y217433D01*
X93295Y217607D01*
X93556Y217433D01*
X93881Y217369D01*
X94678D01*
X95003Y217433D01*
X95279Y217617D01*
X95463Y217893D01*
X95527Y218218D01*
Y219322D01*
X95598Y219428D01*
X95707Y219975D01*
Y227873D01*
X96203Y227883D01*
X96702Y227882D01*
Y220061D01*
X96702Y220061D01*
X96811Y219515D01*
X96969Y219279D01*
Y218218D01*
X97033Y217893D01*
X97217Y217617D01*
X97493Y217433D01*
X97818Y217369D01*
X98615D01*
X98940Y217433D01*
X99201Y217607D01*
X99461Y217433D01*
X99786Y217369D01*
X100584D01*
X100909Y217433D01*
X101169Y217607D01*
X101430Y217433D01*
X101755Y217369D01*
X102552D01*
X102877Y217433D01*
X103138Y217607D01*
X103399Y217433D01*
X103723Y217369D01*
X104521D01*
X104551Y217375D01*
X104967Y216959D01*
X104961Y216929D01*
Y216131D01*
X105025Y215806D01*
X105200Y215546D01*
X105025Y215285D01*
X104961Y214960D01*
Y214163D01*
X105025Y213838D01*
X105200Y213577D01*
X105025Y213316D01*
X104961Y212991D01*
Y212194D01*
X105025Y211869D01*
X105200Y211609D01*
X105025Y211348D01*
X104961Y211023D01*
Y210226D01*
X105025Y209901D01*
X105200Y209640D01*
X105025Y209380D01*
X104961Y209054D01*
Y208257D01*
X105025Y207932D01*
X105210Y207657D01*
X105485Y207473D01*
X105810Y207408D01*
X109324D01*
X109649Y207473D01*
X109924Y207657D01*
X110108Y207932D01*
X110173Y208257D01*
Y209054D01*
X110290Y209197D01*
X129593D01*
X131525Y207264D01*
Y123735D01*
X131525Y123735D01*
X131634Y123189D01*
X131943Y122726D01*
X132529Y122140D01*
X132529Y122140D01*
X132992Y121831D01*
X133539Y121722D01*
X137190D01*
X137219Y121715D01*
X137603Y121595D01*
X137961Y121449D01*
X138294Y121279D01*
X138499Y121149D01*
X138691Y120816D01*
X139399Y120109D01*
X140266Y119609D01*
X141232Y119350D01*
X142233D01*
X143199Y119609D01*
X144065Y120109D01*
X144773Y120816D01*
X145273Y121683D01*
X145532Y122649D01*
Y123650D01*
X145273Y124616D01*
X144773Y125483D01*
X144065Y126190D01*
X143199Y126691D01*
X142233Y126950D01*
X141232D01*
X140266Y126691D01*
X139399Y126190D01*
X138691Y125483D01*
X138499Y125150D01*
X138294Y125020D01*
X137961Y124850D01*
X137603Y124704D01*
X137219Y124584D01*
X137190Y124577D01*
X134380D01*
Y207855D01*
X134380Y207855D01*
X134272Y208402D01*
X133962Y208865D01*
X132123Y210703D01*
X132315Y211165D01*
X136307D01*
X136307Y211165D01*
X136853Y211274D01*
X137316Y211584D01*
X152486Y226753D01*
X152795Y227216D01*
X152904Y227763D01*
X152904Y227763D01*
Y247785D01*
X153937D01*
X154027Y247764D01*
X154436Y247636D01*
X154814Y247482D01*
X155162Y247302D01*
X155394Y247152D01*
X155618Y246765D01*
X156372Y246011D01*
X157295Y245478D01*
X158325Y245202D01*
X159391D01*
X160421Y245478D01*
X161345Y246011D01*
X162099Y246765D01*
X162632Y247689D01*
X162868Y248569D01*
X162933Y248666D01*
X163042Y249213D01*
X162933Y249759D01*
X162903Y249804D01*
X162632Y250815D01*
X162099Y251739D01*
X161345Y252492D01*
X160421Y253026D01*
X159391Y253302D01*
X158325D01*
X157295Y253026D01*
X156372Y252492D01*
X155618Y251739D01*
X155351Y251277D01*
X155128Y251128D01*
X154789Y250947D01*
X154419Y250792D01*
X154016Y250663D01*
X153917Y250640D01*
X152062D01*
X151516Y250531D01*
X151053Y250222D01*
X151053Y250222D01*
X150467Y249636D01*
X150158Y249173D01*
X150049Y248627D01*
X150049Y248627D01*
Y228354D01*
X135715Y214020D01*
X131392D01*
X131201Y214482D01*
X138116Y221397D01*
X138116Y221397D01*
X138425Y221860D01*
X138534Y222407D01*
Y247046D01*
X139272Y247785D01*
X140340D01*
X140400Y247762D01*
X140419Y247689D01*
X140952Y246765D01*
X141706Y246011D01*
X142630Y245478D01*
X143660Y245202D01*
X144726D01*
X145756Y245478D01*
X146679Y246011D01*
X147433Y246765D01*
X147967Y247689D01*
X148202Y248569D01*
X148268Y248666D01*
X148376Y249213D01*
X148268Y249759D01*
X148238Y249804D01*
X147967Y250815D01*
X147433Y251739D01*
X146679Y252492D01*
X145756Y253026D01*
X144726Y253302D01*
X143660D01*
X142630Y253026D01*
X141706Y252492D01*
X140952Y251739D01*
X140419Y250815D01*
X140379Y250664D01*
X140318Y250640D01*
X138681D01*
X138135Y250531D01*
X137672Y250222D01*
X137672Y250222D01*
X136097Y248647D01*
X135787Y248184D01*
X135679Y247638D01*
X135679Y247638D01*
Y222998D01*
X128670Y215989D01*
X113055D01*
X112864Y216451D01*
X116399Y219986D01*
X117706D01*
Y218843D01*
X123043D01*
Y221356D01*
X125980D01*
X125980Y221356D01*
X126526Y221465D01*
X126990Y221774D01*
X129188Y223972D01*
X129664D01*
X130429Y224289D01*
X131015Y224875D01*
X131331Y225640D01*
Y226467D01*
X131015Y227232D01*
X130429Y227818D01*
X129664Y228134D01*
X128836D01*
X128071Y227818D01*
X127486Y227232D01*
X127169Y226467D01*
Y225991D01*
X125389Y224211D01*
X121744D01*
X121744Y224211D01*
X121198Y224102D01*
X121020Y223984D01*
X117706D01*
Y222841D01*
X115808D01*
X115808Y222841D01*
X115261Y222732D01*
X114798Y222423D01*
X114798Y222423D01*
X110333Y217957D01*
X107567D01*
X107021Y217849D01*
X106914Y217778D01*
X105810D01*
X105780Y217772D01*
X105364Y218188D01*
X105370Y218218D01*
Y221732D01*
X105305Y222057D01*
X105121Y222332D01*
X104846Y222516D01*
X104521Y222581D01*
X104020D01*
X103813Y223081D01*
X111726Y230994D01*
X111726Y230994D01*
X112035Y231457D01*
X112144Y232003D01*
Y236187D01*
X113287D01*
Y241524D01*
X108146D01*
Y236187D01*
X109289D01*
Y232594D01*
X104513Y227818D01*
X104482D01*
X104417Y227883D01*
X103469D01*
Y231763D01*
X96203D01*
Y230379D01*
X96183Y230345D01*
X95703Y229958D01*
X95289D01*
X94941Y230306D01*
X89754Y235493D01*
X89961Y235993D01*
X90254D01*
Y242511D01*
X89407D01*
Y243687D01*
X89744Y244023D01*
X90061Y244788D01*
Y245616D01*
X89744Y246381D01*
X89158Y246967D01*
X88393Y247284D01*
X87566D01*
X86801Y246967D01*
X86215Y246381D01*
X85899Y245616D01*
Y244788D01*
X86215Y244023D01*
X86552Y243687D01*
Y242511D01*
X85705D01*
Y235993D01*
X85472D01*
X84743Y235263D01*
X68932Y251075D01*
X68303Y251495D01*
X67562Y251642D01*
X58663D01*
X58415Y251691D01*
X55129D01*
Y252078D01*
X54426D01*
X54417Y252080D01*
X54409Y252078D01*
X49332D01*
X49323Y252080D01*
X49314Y252078D01*
X48611D01*
Y251691D01*
X44924D01*
Y252362D01*
X44812Y253214D01*
X44484Y254007D01*
X43961Y254689D01*
X43279Y255212D01*
X42486Y255540D01*
X41634Y255653D01*
D02*
G37*
G36*
X162795Y243189D02*
X159508D01*
Y239902D01*
X162795D01*
Y243189D01*
D02*
G37*
G36*
X148130D02*
X144843D01*
Y239902D01*
X148130D01*
Y243189D01*
D02*
G37*
G36*
X143543D02*
X140256D01*
Y239902D01*
X143543D01*
Y243189D01*
D02*
G37*
G36*
X158208D02*
X154921D01*
Y239902D01*
X158208D01*
Y243189D01*
D02*
G37*
G36*
X83078Y252081D02*
X82250D01*
X81485Y251764D01*
X80900Y251179D01*
X80583Y250414D01*
Y249586D01*
X80900Y248821D01*
X81485Y248236D01*
X82250Y247919D01*
X83078D01*
X83843Y248236D01*
X84180Y248573D01*
X96051D01*
X102599Y242024D01*
X102392Y241524D01*
X101847D01*
Y236187D01*
X106987D01*
Y241524D01*
X105845D01*
Y242224D01*
X105736Y242771D01*
X105427Y243234D01*
X105427Y243234D01*
X97651Y251009D01*
X97188Y251319D01*
X96642Y251427D01*
X96642Y251427D01*
X84180D01*
X83843Y251764D01*
X83078Y252081D01*
D02*
G37*
G36*
X162795Y238602D02*
X159508D01*
Y235315D01*
X162795D01*
Y238602D01*
D02*
G37*
G36*
X158208D02*
X154921D01*
Y235315D01*
X158208D01*
Y238602D01*
D02*
G37*
G36*
X148130D02*
X144843D01*
Y235315D01*
X148130D01*
Y238602D01*
D02*
G37*
G36*
X143543D02*
X140256D01*
Y235315D01*
X143543D01*
Y238602D01*
D02*
G37*
G36*
X192441Y241333D02*
X191614D01*
X190849Y241016D01*
X190263Y240431D01*
X189946Y239666D01*
Y238838D01*
X190263Y238073D01*
X190421Y237916D01*
X190214Y237416D01*
X189644D01*
X188879Y237099D01*
X188293Y236513D01*
X187976Y235749D01*
Y234921D01*
X188293Y234156D01*
X188879Y233570D01*
X189644Y233254D01*
X190471D01*
X191236Y233570D01*
X191729Y234063D01*
X192027Y234118D01*
X192324Y234063D01*
X192817Y233570D01*
X193582Y233254D01*
X194410D01*
X195175Y233570D01*
X195760Y234156D01*
X196077Y234921D01*
Y235749D01*
X195760Y236513D01*
X195175Y237099D01*
X194410Y237416D01*
X193842D01*
X193634Y237916D01*
X193792Y238073D01*
X194109Y238838D01*
Y239666D01*
X193792Y240431D01*
X193206Y241016D01*
X192441Y241333D01*
D02*
G37*
G36*
X329449Y231609D02*
X328622D01*
X327857Y231292D01*
X327271Y230706D01*
X326954Y229942D01*
Y229114D01*
X327271Y228349D01*
X327857Y227763D01*
X328622Y227447D01*
X329449D01*
X330214Y227763D01*
X330800Y228349D01*
X331117Y229114D01*
Y229942D01*
X330800Y230706D01*
X330214Y231292D01*
X329449Y231609D01*
D02*
G37*
G36*
X417079Y235939D02*
X415598D01*
X414168Y235556D01*
X412885Y234816D01*
X411838Y233768D01*
X411097Y232486D01*
X410714Y231055D01*
Y229574D01*
X411097Y228144D01*
X411838Y226862D01*
X412885Y225814D01*
X414168Y225074D01*
X415598Y224691D01*
X417079D01*
X418509Y225074D01*
X419792Y225814D01*
X420839Y226862D01*
X421580Y228144D01*
X421963Y229574D01*
Y231055D01*
X421580Y232486D01*
X420839Y233768D01*
X419792Y234816D01*
X418509Y235556D01*
X417079Y235939D01*
D02*
G37*
G36*
X212928Y218717D02*
X212882D01*
Y215067D01*
X216531D01*
Y215113D01*
X216249Y216169D01*
X215702Y217115D01*
X214930Y217887D01*
X213984Y218434D01*
X212928Y218717D01*
D02*
G37*
G36*
X211882D02*
X211836D01*
X210780Y218434D01*
X209834Y217887D01*
X209061Y217115D01*
X208515Y216169D01*
X208232Y215113D01*
Y215067D01*
X211882D01*
Y218717D01*
D02*
G37*
G36*
X40012Y235939D02*
X38531D01*
X37101Y235556D01*
X35818Y234816D01*
X34771Y233768D01*
X34031Y232486D01*
X33647Y231055D01*
Y229574D01*
X34031Y228144D01*
X34771Y226862D01*
X35818Y225814D01*
X37101Y225074D01*
X38531Y224691D01*
X40012D01*
X41443Y225074D01*
X41652Y225195D01*
X43008Y223839D01*
X43637Y223419D01*
X44378Y223271D01*
X47332D01*
Y222922D01*
X48035D01*
X48044Y222920D01*
X48052Y222922D01*
X53129D01*
X53138Y222920D01*
X53146Y222922D01*
X53850D01*
Y223159D01*
X56203D01*
X56250Y223149D01*
X56309Y223161D01*
X57350D01*
X69288Y211223D01*
X69367Y211171D01*
X69215Y210671D01*
X58948D01*
X58896Y210705D01*
X58155Y210853D01*
X54962D01*
Y211196D01*
X54259D01*
X54251Y211197D01*
X54242Y211196D01*
X49165D01*
X49156Y211197D01*
X49148Y211196D01*
X48444D01*
Y210854D01*
X47205D01*
X46463Y210707D01*
X45835Y210287D01*
X37508Y201960D01*
X37088Y201332D01*
X36941Y200591D01*
Y198468D01*
X36516D01*
X35664Y198355D01*
X34871Y198027D01*
X34189Y197504D01*
X33666Y196822D01*
X33338Y196029D01*
X33226Y195177D01*
Y190453D01*
X33338Y189601D01*
X33666Y188808D01*
X34189Y188126D01*
X34871Y187603D01*
X35664Y187275D01*
X36516Y187162D01*
X41240D01*
X42092Y187275D01*
X42885Y187603D01*
X43567Y188126D01*
X44090Y188808D01*
X44418Y189601D01*
X44531Y190453D01*
Y195177D01*
X44418Y196029D01*
X44090Y196822D01*
X43567Y197504D01*
X42885Y198027D01*
X42092Y198355D01*
X41240Y198468D01*
X40815D01*
Y199788D01*
X47944Y206917D01*
X48444Y206829D01*
Y206646D01*
X49148D01*
X49156Y206645D01*
X49165Y206646D01*
X54242D01*
X54251Y206645D01*
X54259Y206646D01*
X54962D01*
Y206978D01*
X56475D01*
Y206872D01*
X57179D01*
X57187Y206870D01*
X57196Y206872D01*
X57955D01*
X58337Y206796D01*
X58376Y206804D01*
X58415Y206796D01*
X78958D01*
X79699Y206944D01*
X80125Y207228D01*
X88866D01*
X89412Y207337D01*
X89519Y207408D01*
X90623D01*
X90948Y207473D01*
X91224Y207657D01*
X91408Y207932D01*
X91472Y208257D01*
Y209054D01*
X91408Y209380D01*
X91233Y209640D01*
X91408Y209901D01*
X91472Y210226D01*
Y211023D01*
X91408Y211348D01*
X91233Y211609D01*
X91408Y211869D01*
X91472Y212194D01*
Y212991D01*
X91408Y213316D01*
X91224Y213592D01*
X90948Y213776D01*
X90623Y213841D01*
X89519D01*
X89412Y213912D01*
X88866Y214020D01*
X80325D01*
X79782Y214383D01*
X79041Y214530D01*
X71460D01*
X59522Y226468D01*
X58894Y226888D01*
X58152Y227036D01*
X56262D01*
X56245Y227032D01*
X56241Y227033D01*
X53850D01*
Y227472D01*
X53146D01*
X53138Y227473D01*
X53129Y227472D01*
X48052D01*
X48044Y227473D01*
X48035Y227472D01*
X47332D01*
Y227146D01*
X45180D01*
X44392Y227935D01*
X44513Y228144D01*
X44896Y229574D01*
Y231055D01*
X44513Y232486D01*
X43772Y233768D01*
X42725Y234816D01*
X41443Y235556D01*
X40012Y235939D01*
D02*
G37*
G36*
X202915Y218617D02*
X201849D01*
X200819Y218340D01*
X199895Y217807D01*
X199141Y217053D01*
X198608Y216130D01*
X198332Y215100D01*
Y214034D01*
X198608Y213004D01*
X199141Y212080D01*
X199895Y211326D01*
X200819Y210793D01*
X201849Y210517D01*
X202915D01*
X203945Y210793D01*
X204868Y211326D01*
X205622Y212080D01*
X206155Y213004D01*
X206432Y214034D01*
Y215100D01*
X206155Y216130D01*
X205622Y217053D01*
X204868Y217807D01*
X203945Y218340D01*
X202915Y218617D01*
D02*
G37*
G36*
X192915D02*
X191849D01*
X190819Y218340D01*
X189895Y217807D01*
X189141Y217053D01*
X188608Y216130D01*
X188332Y215100D01*
Y214034D01*
X188608Y213004D01*
X189141Y212080D01*
X189895Y211326D01*
X190819Y210793D01*
X191849Y210517D01*
X192915D01*
X193945Y210793D01*
X194868Y211326D01*
X195622Y212080D01*
X196156Y213004D01*
X196432Y214034D01*
Y215100D01*
X196156Y216130D01*
X195622Y217053D01*
X194868Y217807D01*
X193945Y218340D01*
X192915Y218617D01*
D02*
G37*
G36*
X182915D02*
X181849D01*
X180819Y218340D01*
X179895Y217807D01*
X179141Y217053D01*
X178608Y216130D01*
X178332Y215100D01*
Y214034D01*
X178608Y213004D01*
X179141Y212080D01*
X179895Y211326D01*
X180819Y210793D01*
X181849Y210517D01*
X182915D01*
X183945Y210793D01*
X184868Y211326D01*
X185622Y212080D01*
X186155Y213004D01*
X186432Y214034D01*
Y215100D01*
X186155Y216130D01*
X185622Y217053D01*
X184868Y217807D01*
X183945Y218340D01*
X182915Y218617D01*
D02*
G37*
G36*
X172915D02*
X171849D01*
X170819Y218340D01*
X169895Y217807D01*
X169141Y217053D01*
X168608Y216130D01*
X168332Y215100D01*
Y214034D01*
X168608Y213004D01*
X169141Y212080D01*
X169895Y211326D01*
X170819Y210793D01*
X171849Y210517D01*
X172915D01*
X173945Y210793D01*
X174868Y211326D01*
X175622Y212080D01*
X176155Y213004D01*
X176432Y214034D01*
Y215100D01*
X176155Y216130D01*
X175622Y217053D01*
X174868Y217807D01*
X173945Y218340D01*
X172915Y218617D01*
D02*
G37*
G36*
X166431D02*
X158332D01*
Y210517D01*
X166431D01*
Y218617D01*
D02*
G37*
G36*
X216531Y214067D02*
X212882D01*
Y210417D01*
X212928D01*
X213984Y210700D01*
X214930Y211246D01*
X215702Y212019D01*
X216249Y212965D01*
X216531Y214021D01*
Y214067D01*
D02*
G37*
G36*
X211882D02*
X208232D01*
Y214021D01*
X208515Y212965D01*
X209061Y212019D01*
X209834Y211246D01*
X210780Y210700D01*
X211836Y210417D01*
X211882D01*
Y214067D01*
D02*
G37*
G36*
X337122Y213161D02*
X333472D01*
Y209512D01*
X337122D01*
Y213161D01*
D02*
G37*
G36*
X332472D02*
X328823D01*
Y209512D01*
X332472D01*
Y213161D01*
D02*
G37*
G36*
X288602Y212787D02*
X285165D01*
Y209350D01*
X288602D01*
Y212787D01*
D02*
G37*
G36*
X284165D02*
X280728D01*
Y209350D01*
X284165D01*
Y212787D01*
D02*
G37*
G36*
X417079Y216254D02*
X415598D01*
X414168Y215871D01*
X412885Y215131D01*
X411838Y214083D01*
X411097Y212801D01*
X410714Y211370D01*
Y209889D01*
X411097Y208459D01*
X411838Y207176D01*
X412885Y206129D01*
X414168Y205389D01*
X415598Y205006D01*
X417079D01*
X418509Y205389D01*
X419792Y206129D01*
X420839Y207176D01*
X421580Y208459D01*
X421963Y209889D01*
Y211370D01*
X421580Y212801D01*
X420839Y214083D01*
X419792Y215131D01*
X418509Y215871D01*
X417079Y216254D01*
D02*
G37*
G36*
X323505Y213061D02*
X322439D01*
X321409Y212785D01*
X320486Y212252D01*
X319732Y211498D01*
X319199Y210575D01*
X318923Y209545D01*
Y208479D01*
X319199Y207449D01*
X319732Y206525D01*
X320486Y205771D01*
X321409Y205238D01*
X322439Y204962D01*
X323505D01*
X324535Y205238D01*
X325459Y205771D01*
X326213Y206525D01*
X326746Y207449D01*
X327022Y208479D01*
Y209545D01*
X326746Y210575D01*
X326213Y211498D01*
X325459Y212252D01*
X324535Y212785D01*
X323505Y213061D01*
D02*
G37*
G36*
X313506D02*
X312439D01*
X311409Y212785D01*
X310486Y212252D01*
X309732Y211498D01*
X309199Y210575D01*
X308923Y209545D01*
Y208479D01*
X309199Y207449D01*
X309732Y206525D01*
X310486Y205771D01*
X311409Y205238D01*
X312439Y204962D01*
X313506D01*
X314535Y205238D01*
X315459Y205771D01*
X316213Y206525D01*
X316746Y207449D01*
X317022Y208479D01*
Y209545D01*
X316746Y210575D01*
X316213Y211498D01*
X315459Y212252D01*
X314535Y212785D01*
X313506Y213061D01*
D02*
G37*
G36*
X288602Y208350D02*
X285165D01*
Y204913D01*
X288602D01*
Y208350D01*
D02*
G37*
G36*
X284165D02*
X280728D01*
Y204913D01*
X284165D01*
Y208350D01*
D02*
G37*
G36*
X337122Y208512D02*
X333472D01*
Y204862D01*
X337122D01*
Y208512D01*
D02*
G37*
G36*
X332472D02*
X328823D01*
Y204862D01*
X332472D01*
Y208512D01*
D02*
G37*
G36*
X275199Y212899D02*
X274132D01*
X273102Y212624D01*
X272179Y212090D01*
X271425Y211336D01*
X270892Y210413D01*
X270616Y209383D01*
Y208317D01*
X270892Y207287D01*
X271425Y206363D01*
X272179Y205609D01*
X273102Y205076D01*
X274132Y204800D01*
X275199D01*
X276228Y205076D01*
X277152Y205609D01*
X277906Y206363D01*
X278439Y207287D01*
X278715Y208317D01*
Y209383D01*
X278439Y210413D01*
X277906Y211336D01*
X277152Y212090D01*
X276228Y212624D01*
X275199Y212899D01*
D02*
G37*
G36*
X265198D02*
X264132D01*
X263102Y212624D01*
X262179Y212090D01*
X261425Y211336D01*
X260892Y210413D01*
X260616Y209383D01*
Y208317D01*
X260892Y207287D01*
X261425Y206363D01*
X262179Y205609D01*
X263102Y205076D01*
X264132Y204800D01*
X265198D01*
X266228Y205076D01*
X267152Y205609D01*
X267906Y206363D01*
X268439Y207287D01*
X268715Y208317D01*
Y209383D01*
X268439Y210413D01*
X267906Y211336D01*
X267152Y212090D01*
X266228Y212624D01*
X265198Y212899D01*
D02*
G37*
G36*
X104674Y203961D02*
X103720D01*
X103447Y203906D01*
X103216Y203752D01*
X103118Y203654D01*
X102877Y203816D01*
X102552Y203880D01*
X101755D01*
X101430Y203816D01*
X101169Y203641D01*
X100909Y203816D01*
X100584Y203880D01*
X99786D01*
X99461Y203816D01*
X99186Y203631D01*
X99002Y203356D01*
X98937Y203031D01*
Y201408D01*
X98910Y201274D01*
Y191334D01*
X98421Y190844D01*
X98104Y190079D01*
Y189251D01*
X98421Y188487D01*
X99006Y187901D01*
X99771Y187584D01*
X100599D01*
X101364Y187901D01*
X101551Y188088D01*
X102051Y187881D01*
Y179349D01*
X101714Y179012D01*
X101397Y178247D01*
Y177419D01*
X101714Y176654D01*
X102300Y176069D01*
X103065Y175752D01*
X103892D01*
X104657Y176069D01*
X105243Y176654D01*
X105560Y177419D01*
Y178247D01*
X105243Y179012D01*
X104906Y179349D01*
Y193754D01*
X104906Y193755D01*
X104797Y194301D01*
X104488Y194764D01*
X104488Y194764D01*
X104060Y195191D01*
X103597Y195501D01*
X103519Y195516D01*
X103428Y195607D01*
Y197859D01*
X103890Y198051D01*
X105606Y196335D01*
X105837Y196180D01*
X106110Y196126D01*
X116978D01*
Y193772D01*
X117032Y193499D01*
X117187Y193267D01*
X118144Y192310D01*
X118376Y192156D01*
X118649Y192101D01*
X128499D01*
X128772Y192156D01*
X129004Y192310D01*
X129970Y193277D01*
X130125Y193509D01*
X130179Y193782D01*
Y201242D01*
X130125Y201516D01*
X129970Y201747D01*
X129540Y202178D01*
X129308Y202333D01*
X129035Y202387D01*
X106544D01*
X105179Y203752D01*
X104947Y203906D01*
X104674Y203961D01*
D02*
G37*
G36*
X418701Y196698D02*
X417139D01*
Y191745D01*
X422092D01*
Y193307D01*
X421977Y194185D01*
X421638Y195003D01*
X421099Y195705D01*
X420396Y196244D01*
X419579Y196583D01*
X418701Y196698D01*
D02*
G37*
G36*
X415539D02*
X413976D01*
X413099Y196583D01*
X412281Y196244D01*
X411578Y195705D01*
X411039Y195003D01*
X410701Y194185D01*
X410585Y193307D01*
Y191745D01*
X415539D01*
Y196698D01*
D02*
G37*
G36*
X422092Y190145D02*
X417139D01*
Y185192D01*
X418701D01*
X419579Y185307D01*
X420396Y185646D01*
X421099Y186185D01*
X421638Y186887D01*
X421977Y187705D01*
X422092Y188583D01*
Y190145D01*
D02*
G37*
G36*
X415539D02*
X410585D01*
Y188583D01*
X410701Y187705D01*
X411039Y186887D01*
X411578Y186185D01*
X412281Y185646D01*
X413099Y185307D01*
X413976Y185192D01*
X415539D01*
Y190145D01*
D02*
G37*
G36*
X90623Y205967D02*
X87109D01*
X87068Y205959D01*
X87033D01*
X86760Y205904D01*
X86528Y205750D01*
X80279Y199501D01*
X79488Y200293D01*
X79256Y200448D01*
X78983Y200502D01*
X72412Y200502D01*
X72139Y200448D01*
X71907Y200293D01*
X70596Y198982D01*
X70441Y198750D01*
X70387Y198477D01*
Y189920D01*
X70441Y189646D01*
X70596Y189415D01*
X71708Y188303D01*
X71940Y188148D01*
X72213Y188094D01*
X79511D01*
X79784Y188148D01*
X80015Y188303D01*
X80918Y189206D01*
X81073Y189437D01*
X81127Y189710D01*
Y193317D01*
X89868Y202058D01*
X90330Y201867D01*
Y196246D01*
X69348Y175264D01*
X58415D01*
X58415Y175264D01*
X54932D01*
Y175602D01*
X54229D01*
X54220Y175603D01*
X54212Y175602D01*
X49135D01*
X49126Y175603D01*
X49118Y175602D01*
X48414D01*
Y175166D01*
X46556D01*
X45976Y175286D01*
X45309Y175477D01*
X44691Y175707D01*
X44121Y175976D01*
X43597Y176284D01*
X43519Y176341D01*
X43379Y176583D01*
X42331Y177631D01*
X41049Y178371D01*
X39619Y178754D01*
X38138D01*
X36707Y178371D01*
X35425Y177631D01*
X34377Y176583D01*
X33637Y175301D01*
X33254Y173870D01*
Y172389D01*
X33637Y170959D01*
X34377Y169676D01*
X35425Y168629D01*
X36707Y167889D01*
X38138Y167506D01*
X39619D01*
X41049Y167889D01*
X42331Y168629D01*
X43379Y169676D01*
X43607Y170072D01*
X43705Y170148D01*
X44208Y170460D01*
X44760Y170734D01*
X45364Y170969D01*
X46021Y171163D01*
X46619Y171291D01*
X48414D01*
Y171052D01*
X49118D01*
X49126Y171050D01*
X49135Y171052D01*
X54212D01*
X54220Y171050D01*
X54229Y171052D01*
X54932D01*
Y171390D01*
X58415D01*
X58415Y171390D01*
X70151D01*
X70892Y171537D01*
X71520Y171957D01*
X93271Y193708D01*
X93691Y194336D01*
X93838Y195077D01*
X93691Y195819D01*
X93557Y196019D01*
X93599Y198441D01*
X93881Y198668D01*
X94678D01*
X94973Y198425D01*
Y193561D01*
X92883Y191470D01*
X92805Y191455D01*
X92342Y191145D01*
X92032Y190682D01*
X91923Y190136D01*
X91923Y190136D01*
Y185866D01*
X91587Y185529D01*
X91270Y184764D01*
Y183936D01*
X91587Y183172D01*
X92172Y182586D01*
X92937Y182269D01*
X93765D01*
X94530Y182586D01*
X95115Y183172D01*
X95432Y183936D01*
Y184764D01*
X95115Y185529D01*
X94778Y185866D01*
Y189761D01*
X97149Y192132D01*
X97426Y192545D01*
X97522Y193033D01*
Y201274D01*
X97496Y201408D01*
Y203031D01*
X97431Y203356D01*
X97247Y203631D01*
X96972Y203816D01*
X96647Y203880D01*
X95849D01*
X95524Y203816D01*
X95264Y203641D01*
X95003Y203816D01*
X94678Y203880D01*
X93881D01*
X93556Y203816D01*
X93347Y203676D01*
X93325Y203680D01*
X93320Y203683D01*
X93317Y203689D01*
X93204Y203761D01*
X93094Y203835D01*
X93088Y203836D01*
X93082Y203839D01*
X92951Y203863D01*
X92821Y203889D01*
X91605D01*
X91514Y204000D01*
Y205177D01*
X91460Y205450D01*
X91305Y205682D01*
X91237Y205750D01*
X91006Y205904D01*
X90732Y205959D01*
X90664D01*
X90623Y205967D01*
D02*
G37*
G36*
X89587Y165172D02*
X88759D01*
X87994Y164855D01*
X87657Y164518D01*
X57520D01*
X57183Y164855D01*
X56418Y165172D01*
X55590D01*
X54825Y164855D01*
X54240Y164269D01*
X53923Y163505D01*
Y162677D01*
X54240Y161912D01*
X54825Y161326D01*
X55590Y161010D01*
X56418D01*
X57183Y161326D01*
X57520Y161663D01*
X87657D01*
X87994Y161326D01*
X88759Y161010D01*
X89587D01*
X90352Y161326D01*
X90938Y161912D01*
X91254Y162677D01*
Y163505D01*
X90938Y164269D01*
X90352Y164855D01*
X89587Y165172D01*
D02*
G37*
G36*
X112836Y168085D02*
X111770D01*
X110740Y167809D01*
X109817Y167276D01*
X109063Y166522D01*
X108529Y165598D01*
X108254Y164569D01*
Y163502D01*
X108529Y162472D01*
X109063Y161549D01*
X109817Y160795D01*
X110740Y160262D01*
X111770Y159986D01*
X112836D01*
X113866Y160262D01*
X114790Y160795D01*
X115544Y161549D01*
X116077Y162472D01*
X116353Y163502D01*
Y164569D01*
X116077Y165598D01*
X115544Y166522D01*
X114790Y167276D01*
X113866Y167809D01*
X112836Y168085D01*
D02*
G37*
G36*
X272974Y166510D02*
X271908D01*
X270878Y166234D01*
X269954Y165701D01*
X269200Y164947D01*
X268667Y164024D01*
X268391Y162994D01*
Y161927D01*
X268667Y160898D01*
X269200Y159974D01*
X269954Y159220D01*
X270878Y158687D01*
X271908Y158411D01*
X272974D01*
X274004Y158687D01*
X274927Y159220D01*
X275681Y159974D01*
X276215Y160898D01*
X276490Y161927D01*
Y162994D01*
X276215Y164024D01*
X275681Y164947D01*
X274927Y165701D01*
X274004Y166234D01*
X272974Y166510D01*
D02*
G37*
G36*
X116353Y158085D02*
X108254D01*
Y149986D01*
X116353D01*
Y158085D01*
D02*
G37*
G36*
X242233Y156950D02*
X241232D01*
X240265Y156691D01*
X239399Y156190D01*
X238691Y155483D01*
X238191Y154616D01*
X237932Y153650D01*
Y152649D01*
X238191Y151683D01*
X238691Y150816D01*
X239399Y150109D01*
X240265Y149609D01*
X241232Y149350D01*
X242233D01*
X243199Y149609D01*
X244065Y150109D01*
X244773Y150816D01*
X245273Y151683D01*
X245532Y152649D01*
Y153650D01*
X245273Y154616D01*
X244773Y155483D01*
X244065Y156190D01*
X243199Y156691D01*
X242233Y156950D01*
D02*
G37*
G36*
X142233D02*
X141232D01*
X140266Y156691D01*
X139399Y156190D01*
X138691Y155483D01*
X138191Y154616D01*
X137932Y153650D01*
Y152649D01*
X138191Y151683D01*
X138691Y150816D01*
X139399Y150109D01*
X140266Y149609D01*
X141232Y149350D01*
X142233D01*
X143199Y149609D01*
X144065Y150109D01*
X144773Y150816D01*
X145273Y151683D01*
X145532Y152649D01*
Y153650D01*
X145273Y154616D01*
X144773Y155483D01*
X144065Y156190D01*
X143199Y156691D01*
X142233Y156950D01*
D02*
G37*
G36*
X276490Y156510D02*
X268391D01*
Y148411D01*
X276490D01*
Y156510D01*
D02*
G37*
G36*
X416882Y152081D02*
X415401D01*
X413971Y151698D01*
X412688Y150957D01*
X411641Y149910D01*
X410900Y148628D01*
X410517Y147197D01*
Y145716D01*
X410900Y144286D01*
X411641Y143003D01*
X412688Y141956D01*
X413971Y141216D01*
X415401Y140832D01*
X416882D01*
X418313Y141216D01*
X419595Y141956D01*
X420642Y143003D01*
X421383Y144286D01*
X421766Y145716D01*
Y147197D01*
X421383Y148628D01*
X420642Y149910D01*
X419595Y150957D01*
X418313Y151698D01*
X416882Y152081D01*
D02*
G37*
G36*
X242233Y136950D02*
X241232D01*
X240265Y136691D01*
X239399Y136190D01*
X238691Y135483D01*
X238191Y134616D01*
X237932Y133650D01*
Y132649D01*
X238191Y131683D01*
X238691Y130816D01*
X239399Y130109D01*
X240265Y129609D01*
X241232Y129350D01*
X242233D01*
X243199Y129609D01*
X244065Y130109D01*
X244773Y130816D01*
X245273Y131683D01*
X245532Y132649D01*
Y133650D01*
X245273Y134616D01*
X244773Y135483D01*
X244065Y136190D01*
X243199Y136691D01*
X242233Y136950D01*
D02*
G37*
G36*
X142233D02*
X141232D01*
X140266Y136691D01*
X139399Y136190D01*
X138691Y135483D01*
X138191Y134616D01*
X137932Y133650D01*
Y132649D01*
X138191Y131683D01*
X138691Y130816D01*
X139399Y130109D01*
X140266Y129609D01*
X141232Y129350D01*
X142233D01*
X143199Y129609D01*
X144065Y130109D01*
X144773Y130816D01*
X145273Y131683D01*
X145532Y132649D01*
Y133650D01*
X145273Y134616D01*
X144773Y135483D01*
X144065Y136190D01*
X143199Y136691D01*
X142233Y136950D01*
D02*
G37*
G36*
X330040Y133282D02*
X329212D01*
X328447Y132965D01*
X327862Y132380D01*
X327545Y131615D01*
Y130787D01*
X327862Y130022D01*
X328447Y129437D01*
X329212Y129120D01*
X330040D01*
X330805Y129437D01*
X331390Y130022D01*
X331707Y130787D01*
Y131615D01*
X331390Y132380D01*
X330805Y132965D01*
X330040Y133282D01*
D02*
G37*
G36*
X40748Y139216D02*
X36024D01*
X35172Y139103D01*
X34378Y138775D01*
X33697Y138252D01*
X33174Y137570D01*
X32846Y136777D01*
X32733Y135925D01*
Y131201D01*
X32846Y130349D01*
X33174Y129556D01*
X33697Y128874D01*
X34378Y128351D01*
X35172Y128023D01*
X36024Y127910D01*
X40748D01*
X41600Y128023D01*
X42393Y128351D01*
X43075Y128874D01*
X43598Y129556D01*
X43926Y130349D01*
X44039Y131201D01*
Y135925D01*
X43926Y136777D01*
X43598Y137570D01*
X43075Y138252D01*
X42393Y138775D01*
X41600Y139103D01*
X40748Y139216D01*
D02*
G37*
G36*
X418504Y132424D02*
X413779D01*
X412928Y132312D01*
X412134Y131983D01*
X411453Y131460D01*
X410930Y130779D01*
X410601Y129985D01*
X410489Y129134D01*
Y124409D01*
X410601Y123558D01*
X410930Y122764D01*
X411453Y122083D01*
X412134Y121560D01*
X412928Y121231D01*
X413779Y121119D01*
X418504D01*
X419355Y121231D01*
X420149Y121560D01*
X420830Y122083D01*
X421353Y122764D01*
X421682Y123558D01*
X421794Y124409D01*
Y129134D01*
X421682Y129985D01*
X421353Y130779D01*
X420830Y131460D01*
X420149Y131983D01*
X419355Y132312D01*
X418504Y132424D01*
D02*
G37*
G36*
X242233Y126950D02*
X241232D01*
X240265Y126691D01*
X239399Y126190D01*
X238691Y125483D01*
X238191Y124616D01*
X237932Y123650D01*
Y122649D01*
X238191Y121683D01*
X238691Y120816D01*
X239399Y120109D01*
X240265Y119609D01*
X241232Y119350D01*
X242233D01*
X243199Y119609D01*
X244065Y120109D01*
X244773Y120816D01*
X245273Y121683D01*
X245532Y122649D01*
Y123650D01*
X245273Y124616D01*
X244773Y125483D01*
X244065Y126190D01*
X243199Y126691D01*
X242233Y126950D01*
D02*
G37*
G36*
X118124Y117839D02*
X110025D01*
Y109740D01*
X118124D01*
Y117839D01*
D02*
G37*
G36*
X242233Y116950D02*
X241232D01*
X240265Y116691D01*
X239399Y116190D01*
X238691Y115483D01*
X238191Y114616D01*
X237932Y113650D01*
Y112649D01*
X238191Y111683D01*
X238691Y110816D01*
X239399Y110109D01*
X240265Y109609D01*
X241232Y109350D01*
X242233D01*
X243199Y109609D01*
X244065Y110109D01*
X244773Y110816D01*
X245273Y111683D01*
X245532Y112649D01*
Y113650D01*
X245273Y114616D01*
X244773Y115483D01*
X244065Y116190D01*
X243199Y116691D01*
X242233Y116950D01*
D02*
G37*
G36*
X142233D02*
X141232D01*
X140266Y116691D01*
X139399Y116190D01*
X138691Y115483D01*
X138191Y114616D01*
X137932Y113650D01*
Y112649D01*
X138191Y111683D01*
X138691Y110816D01*
X139399Y110109D01*
X140266Y109609D01*
X141232Y109350D01*
X142233D01*
X143199Y109609D01*
X144065Y110109D01*
X144773Y110816D01*
X145273Y111683D01*
X145532Y112649D01*
Y113650D01*
X145273Y114616D01*
X144773Y115483D01*
X144065Y116190D01*
X143199Y116691D01*
X142233Y116950D01*
D02*
G37*
G36*
X39126Y119502D02*
X37645D01*
X36215Y119119D01*
X34933Y118379D01*
X33885Y117331D01*
X33145Y116049D01*
X32761Y114618D01*
Y113137D01*
X33145Y111707D01*
X33885Y110424D01*
X34933Y109377D01*
X36215Y108637D01*
X37645Y108254D01*
X39126D01*
X40557Y108637D01*
X41839Y109377D01*
X42887Y110424D01*
X43627Y111707D01*
X44010Y113137D01*
Y114618D01*
X43627Y116049D01*
X42887Y117331D01*
X41839Y118379D01*
X40557Y119119D01*
X39126Y119502D01*
D02*
G37*
G36*
X351517Y115920D02*
X350451D01*
X349421Y115644D01*
X348498Y115111D01*
X347744Y114357D01*
X347211Y113433D01*
X346935Y112403D01*
Y111337D01*
X347211Y110307D01*
X347744Y109384D01*
X348498Y108630D01*
X349421Y108097D01*
X350451Y107820D01*
X351517D01*
X352547Y108097D01*
X353471Y108630D01*
X354225Y109384D01*
X354758Y110307D01*
X355034Y111337D01*
Y112403D01*
X354758Y113433D01*
X354225Y114357D01*
X353471Y115111D01*
X352547Y115644D01*
X351517Y115920D01*
D02*
G37*
G36*
X142233Y106950D02*
X141232D01*
X140266Y106691D01*
X139399Y106190D01*
X138691Y105483D01*
X138499Y105150D01*
X138294Y105020D01*
X137961Y104850D01*
X137603Y104704D01*
X137219Y104584D01*
X137190Y104577D01*
X130918D01*
X130918Y104577D01*
X130371Y104468D01*
X129908Y104159D01*
X119758Y94009D01*
X119449Y93546D01*
X119340Y93000D01*
X119340Y93000D01*
Y75394D01*
X113215Y69269D01*
X104062D01*
X104062Y69269D01*
X103516Y69160D01*
X103053Y68851D01*
X103053Y68851D01*
X94266Y60065D01*
X93957Y59601D01*
X93848Y59055D01*
X93848Y59055D01*
Y49804D01*
X90050Y46006D01*
X89947Y45934D01*
X89331Y45576D01*
X88701Y45275D01*
X88055Y45030D01*
X87392Y44842D01*
X86711Y44709D01*
X86424Y44678D01*
X85977Y44798D01*
X84496D01*
X83065Y44414D01*
X81783Y43674D01*
X80736Y42627D01*
X79995Y41344D01*
X79612Y39914D01*
Y38433D01*
X79995Y37002D01*
X80736Y35720D01*
X81783Y34673D01*
X83065Y33932D01*
X84496Y33549D01*
X85977D01*
X87407Y33932D01*
X88690Y34673D01*
X89737Y35720D01*
X90477Y37002D01*
X90861Y38433D01*
Y39914D01*
X90741Y40361D01*
X90772Y40648D01*
X90905Y41329D01*
X91093Y41992D01*
X91338Y42638D01*
X91639Y43268D01*
X91997Y43884D01*
X92069Y43987D01*
X96285Y48203D01*
X96285Y48203D01*
X96594Y48666D01*
X96703Y49213D01*
Y58464D01*
X104654Y66414D01*
X113806D01*
X113806Y66414D01*
X114353Y66523D01*
X114816Y66832D01*
X121777Y73794D01*
X122087Y74257D01*
X122195Y74803D01*
X122195Y74803D01*
Y92409D01*
X131509Y101722D01*
X137190D01*
X137219Y101716D01*
X137603Y101595D01*
X137961Y101449D01*
X138294Y101279D01*
X138499Y101149D01*
X138691Y100816D01*
X139399Y100109D01*
X140266Y99609D01*
X141232Y99350D01*
X142233D01*
X143199Y99609D01*
X144065Y100109D01*
X144773Y100816D01*
X145273Y101683D01*
X145532Y102649D01*
Y103650D01*
X145273Y104616D01*
X144773Y105483D01*
X144065Y106190D01*
X143199Y106691D01*
X142233Y106950D01*
D02*
G37*
G36*
X114608Y107839D02*
X113542D01*
X112512Y107563D01*
X111588Y107030D01*
X110834Y106276D01*
X110301Y105352D01*
X110025Y104323D01*
Y103256D01*
X110301Y102226D01*
X110834Y101303D01*
X111588Y100549D01*
X112512Y100016D01*
X113542Y99740D01*
X114608D01*
X115638Y100016D01*
X116561Y100549D01*
X117315Y101303D01*
X117848Y102226D01*
X118124Y103256D01*
Y104323D01*
X117848Y105352D01*
X117315Y106276D01*
X116561Y107030D01*
X115638Y107563D01*
X114608Y107839D01*
D02*
G37*
G36*
X242233Y106950D02*
X241232D01*
X240265Y106691D01*
X239399Y106190D01*
X238691Y105483D01*
X238191Y104616D01*
X237932Y103650D01*
Y102649D01*
X238191Y101683D01*
X238691Y100816D01*
X239399Y100109D01*
X240265Y99609D01*
X241232Y99350D01*
X242233D01*
X243199Y99609D01*
X244065Y100109D01*
X244537Y100580D01*
X244835Y100715D01*
X245237Y100869D01*
X245648Y100999D01*
X245980Y101082D01*
X345829D01*
X346011Y101034D01*
X346390Y100893D01*
X346729Y100725D01*
X347029Y100531D01*
X347185Y100401D01*
X347211Y100307D01*
X347744Y99384D01*
X348498Y98630D01*
X349421Y98097D01*
X350451Y97821D01*
X351517D01*
X352547Y98097D01*
X353471Y98630D01*
X354225Y99384D01*
X354758Y100307D01*
X355034Y101337D01*
Y102403D01*
X354758Y103433D01*
X354225Y104357D01*
X353471Y105111D01*
X352547Y105644D01*
X351517Y105920D01*
X350451D01*
X349421Y105644D01*
X348498Y105111D01*
X347955Y104568D01*
X347574Y104387D01*
X347135Y104212D01*
X346686Y104063D01*
X346226Y103941D01*
X346205Y103937D01*
X246392D01*
X246313Y103958D01*
X245971Y104083D01*
X245670Y104231D01*
X245407Y104400D01*
X245309Y104482D01*
X245273Y104616D01*
X244773Y105483D01*
X244065Y106190D01*
X243199Y106691D01*
X242233Y106950D01*
D02*
G37*
G36*
Y96950D02*
X241232D01*
X240265Y96691D01*
X239399Y96190D01*
X238691Y95483D01*
X238191Y94616D01*
X237932Y93650D01*
Y92649D01*
X238191Y91683D01*
X238691Y90816D01*
X239399Y90109D01*
X240265Y89609D01*
X241232Y89350D01*
X242233D01*
X243199Y89609D01*
X244065Y90109D01*
X244773Y90816D01*
X245273Y91683D01*
X245532Y92649D01*
Y93650D01*
X245273Y94616D01*
X244773Y95483D01*
X244065Y96190D01*
X243199Y96691D01*
X242233Y96950D01*
D02*
G37*
G36*
X142233D02*
X141232D01*
X140266Y96691D01*
X139399Y96190D01*
X138691Y95483D01*
X138499Y95150D01*
X138294Y95020D01*
X137961Y94850D01*
X137603Y94704D01*
X137219Y94584D01*
X137190Y94577D01*
X131929D01*
X131383Y94468D01*
X130920Y94159D01*
X130920Y94159D01*
X126747Y89986D01*
X126437Y89523D01*
X126329Y88976D01*
X126329Y88976D01*
Y73524D01*
X116436Y63632D01*
X109744D01*
X109744Y63632D01*
X109198Y63524D01*
X108735Y63214D01*
X108735Y63214D01*
X103912Y58391D01*
X103603Y57928D01*
X103494Y57382D01*
X103494Y57382D01*
Y47408D01*
X103471Y47284D01*
X103289Y46596D01*
X103057Y45937D01*
X102773Y45308D01*
X102437Y44706D01*
X102049Y44131D01*
X101869Y43905D01*
X101468Y43674D01*
X100421Y42627D01*
X99680Y41344D01*
X99297Y39914D01*
Y38433D01*
X99680Y37002D01*
X100421Y35720D01*
X101468Y34673D01*
X102750Y33932D01*
X104181Y33549D01*
X105662D01*
X107092Y33932D01*
X108375Y34673D01*
X109422Y35720D01*
X110162Y37002D01*
X110546Y38433D01*
Y39914D01*
X110162Y41344D01*
X109422Y42627D01*
X108375Y43674D01*
X107974Y43905D01*
X107793Y44131D01*
X107405Y44706D01*
X107070Y45308D01*
X106786Y45937D01*
X106553Y46596D01*
X106371Y47284D01*
X106349Y47408D01*
Y56791D01*
X110335Y60777D01*
X117027D01*
X117027Y60777D01*
X117574Y60886D01*
X118037Y61195D01*
X128765Y71924D01*
X128765Y71924D01*
X129075Y72387D01*
X129183Y72933D01*
X129183Y72933D01*
Y88385D01*
X132520Y91722D01*
X137190D01*
X137219Y91716D01*
X137603Y91595D01*
X137961Y91449D01*
X138294Y91279D01*
X138499Y91149D01*
X138691Y90816D01*
X139399Y90109D01*
X140266Y89609D01*
X141232Y89350D01*
X142233D01*
X143199Y89609D01*
X144065Y90109D01*
X144773Y90816D01*
X145273Y91683D01*
X145532Y92649D01*
Y93650D01*
X145273Y94616D01*
X144773Y95483D01*
X144065Y96190D01*
X143199Y96691D01*
X142233Y96950D01*
D02*
G37*
G36*
X301627Y97317D02*
X293528D01*
Y89218D01*
X301627D01*
Y97317D01*
D02*
G37*
G36*
X355034Y95920D02*
X346935D01*
Y87821D01*
X355034D01*
Y95920D01*
D02*
G37*
G36*
X89887Y154283D02*
X89059D01*
X88294Y153966D01*
X87709Y153381D01*
X87392Y152616D01*
Y151788D01*
X87709Y151023D01*
X88046Y150686D01*
Y99900D01*
X83439Y95294D01*
X83130Y94831D01*
X83021Y94284D01*
X83021Y94284D01*
Y88361D01*
X80399D01*
Y80261D01*
X88498D01*
Y88361D01*
X85876D01*
Y93693D01*
X90482Y98299D01*
X90482Y98299D01*
X90792Y98762D01*
X90900Y99309D01*
Y150686D01*
X91237Y151023D01*
X91554Y151788D01*
Y152616D01*
X91237Y153381D01*
X90652Y153966D01*
X89887Y154283D01*
D02*
G37*
G36*
X310868Y87672D02*
X309802D01*
X308771Y87396D01*
X307848Y86862D01*
X307094Y86108D01*
X306561Y85185D01*
X306285Y84155D01*
Y83089D01*
X306561Y82059D01*
X307094Y81135D01*
X307848Y80382D01*
X308771Y79848D01*
X309802Y79572D01*
X310868D01*
X311898Y79848D01*
X312821Y80382D01*
X313575Y81135D01*
X314108Y82059D01*
X314384Y83089D01*
Y84155D01*
X314108Y85185D01*
X313575Y86108D01*
X312821Y86862D01*
X311898Y87396D01*
X310868Y87672D01*
D02*
G37*
G36*
X242233Y86950D02*
X241232D01*
X240265Y86691D01*
X239399Y86190D01*
X238691Y85483D01*
X238191Y84616D01*
X237932Y83650D01*
Y82649D01*
X238191Y81683D01*
X238691Y80816D01*
X239399Y80109D01*
X240265Y79609D01*
X241232Y79350D01*
X242233D01*
X243199Y79609D01*
X244065Y80109D01*
X244773Y80816D01*
X245273Y81683D01*
X245532Y82649D01*
Y83650D01*
X245273Y84616D01*
X244773Y85483D01*
X244065Y86190D01*
X243199Y86691D01*
X242233Y86950D01*
D02*
G37*
G36*
X142233D02*
X141232D01*
X140266Y86691D01*
X139399Y86190D01*
X138691Y85483D01*
X138191Y84616D01*
X137932Y83650D01*
Y82649D01*
X138191Y81683D01*
X138691Y80816D01*
X139399Y80109D01*
X140266Y79609D01*
X141232Y79350D01*
X142233D01*
X143199Y79609D01*
X144065Y80109D01*
X144773Y80816D01*
X145273Y81683D01*
X145532Y82649D01*
Y83650D01*
X145273Y84616D01*
X144773Y85483D01*
X144065Y86190D01*
X143199Y86691D01*
X142233Y86950D01*
D02*
G37*
G36*
X298111Y87317D02*
X297045D01*
X296015Y87041D01*
X295091Y86508D01*
X294337Y85754D01*
X293804Y84831D01*
X293528Y83801D01*
Y82735D01*
X293804Y81705D01*
X294337Y80781D01*
X295091Y80027D01*
X296015Y79494D01*
X297045Y79218D01*
X298111D01*
X299141Y79494D01*
X300064Y80027D01*
X300818Y80781D01*
X301351Y81705D01*
X301627Y82735D01*
Y83801D01*
X301351Y84831D01*
X300818Y85754D01*
X300064Y86508D01*
X299141Y87041D01*
X298111Y87317D01*
D02*
G37*
G36*
X278361Y86687D02*
X270261D01*
Y78588D01*
X278361D01*
Y86687D01*
D02*
G37*
G36*
X40453Y84393D02*
X35728D01*
X34877Y84281D01*
X34083Y83952D01*
X33402Y83429D01*
X32879Y82748D01*
X32550Y81954D01*
X32438Y81102D01*
Y76378D01*
X32550Y75526D01*
X32879Y74733D01*
X33402Y74051D01*
X34083Y73528D01*
X34877Y73200D01*
X35728Y73088D01*
X40453D01*
X41304Y73200D01*
X42098Y73528D01*
X42779Y74051D01*
X43302Y74733D01*
X43631Y75526D01*
X43743Y76378D01*
Y81102D01*
X43631Y81954D01*
X43302Y82748D01*
X42779Y83429D01*
X42098Y83952D01*
X41304Y84281D01*
X40453Y84393D01*
D02*
G37*
G36*
X84982Y78361D02*
X83916D01*
X82886Y78085D01*
X81962Y77552D01*
X81208Y76797D01*
X80675Y75874D01*
X80399Y74844D01*
Y73778D01*
X80675Y72748D01*
X81208Y71825D01*
X81962Y71071D01*
X82886Y70537D01*
X83916Y70261D01*
X84982D01*
X86012Y70537D01*
X86935Y71071D01*
X87689Y71825D01*
X87892Y72176D01*
X88176Y72358D01*
X88545Y72550D01*
X88940Y72715D01*
X89363Y72850D01*
X89503Y72884D01*
X110787D01*
X111124Y72547D01*
X111889Y72230D01*
X112717D01*
X113482Y72547D01*
X114067Y73132D01*
X114384Y73897D01*
Y74725D01*
X114067Y75490D01*
X113482Y76075D01*
X112717Y76392D01*
X111889D01*
X111124Y76075D01*
X110787Y75739D01*
X89503D01*
X89363Y75772D01*
X88940Y75908D01*
X88545Y76072D01*
X88176Y76265D01*
X87892Y76446D01*
X87689Y76797D01*
X86935Y77552D01*
X86012Y78085D01*
X84982Y78361D01*
D02*
G37*
G36*
X310868Y77672D02*
X309802D01*
X308771Y77396D01*
X307848Y76863D01*
X307094Y76108D01*
X306561Y75185D01*
X306285Y74155D01*
Y73089D01*
X306561Y72059D01*
X307094Y71135D01*
X307848Y70382D01*
X308771Y69848D01*
X309802Y69572D01*
X310868D01*
X311898Y69848D01*
X312821Y70382D01*
X313575Y71135D01*
X314108Y72059D01*
X314384Y73089D01*
Y74155D01*
X314108Y75185D01*
X313575Y76108D01*
X312821Y76863D01*
X311898Y77396D01*
X310868Y77672D01*
D02*
G37*
G36*
X242233Y76950D02*
X241232D01*
X240265Y76691D01*
X239399Y76190D01*
X238691Y75483D01*
X238191Y74616D01*
X237932Y73650D01*
Y72649D01*
X238191Y71683D01*
X238691Y70816D01*
X239399Y70109D01*
X240265Y69609D01*
X241232Y69350D01*
X242233D01*
X243199Y69609D01*
X244065Y70109D01*
X244773Y70816D01*
X245273Y71683D01*
X245532Y72649D01*
Y73650D01*
X245273Y74616D01*
X244773Y75483D01*
X244065Y76190D01*
X243199Y76691D01*
X242233Y76950D01*
D02*
G37*
G36*
X142233D02*
X141232D01*
X140266Y76691D01*
X139399Y76190D01*
X138691Y75483D01*
X138191Y74616D01*
X137932Y73650D01*
Y72649D01*
X138191Y71683D01*
X138691Y70816D01*
X139399Y70109D01*
X140266Y69609D01*
X141232Y69350D01*
X142233D01*
X143199Y69609D01*
X144065Y70109D01*
X144773Y70816D01*
X145273Y71683D01*
X145532Y72649D01*
Y73650D01*
X145273Y74616D01*
X144773Y75483D01*
X144065Y76190D01*
X143199Y76691D01*
X142233Y76950D01*
D02*
G37*
G36*
X298111Y77317D02*
X297045D01*
X296015Y77041D01*
X295091Y76508D01*
X294337Y75754D01*
X293804Y74831D01*
X293528Y73801D01*
Y72735D01*
X293804Y71705D01*
X294337Y70781D01*
X295091Y70027D01*
X296015Y69494D01*
X297045Y69218D01*
X298111D01*
X299141Y69494D01*
X300064Y70027D01*
X300818Y70781D01*
X301351Y71705D01*
X301627Y72735D01*
Y73801D01*
X301351Y74831D01*
X300818Y75754D01*
X300064Y76508D01*
X299141Y77041D01*
X298111Y77317D01*
D02*
G37*
G36*
X274844Y76687D02*
X273778D01*
X272748Y76411D01*
X271825Y75878D01*
X271071Y75124D01*
X270537Y74201D01*
X270261Y73171D01*
Y72105D01*
X270537Y71075D01*
X271071Y70151D01*
X271825Y69397D01*
X272748Y68864D01*
X273778Y68588D01*
X274844D01*
X275874Y68864D01*
X276798Y69397D01*
X277552Y70151D01*
X278085Y71075D01*
X278361Y72105D01*
Y73171D01*
X278085Y74201D01*
X277552Y75124D01*
X276798Y75878D01*
X275874Y76411D01*
X274844Y76687D01*
D02*
G37*
G36*
X84982Y68361D02*
X83916D01*
X82886Y68085D01*
X81962Y67551D01*
X81208Y66798D01*
X80675Y65874D01*
X80399Y64844D01*
Y63778D01*
X80675Y62748D01*
X81208Y61825D01*
X81962Y61071D01*
X82886Y60537D01*
X83916Y60261D01*
X84982D01*
X86012Y60537D01*
X86935Y61071D01*
X87689Y61825D01*
X88222Y62748D01*
X88498Y63778D01*
Y64844D01*
X88222Y65874D01*
X87689Y66798D01*
X86935Y67551D01*
X86012Y68085D01*
X84982Y68361D01*
D02*
G37*
G36*
X314384Y67672D02*
X306285D01*
Y59572D01*
X314384D01*
Y67672D01*
D02*
G37*
G36*
X242233Y66950D02*
X241232D01*
X240265Y66691D01*
X239399Y66190D01*
X238691Y65483D01*
X238191Y64616D01*
X237932Y63650D01*
Y62649D01*
X238191Y61683D01*
X238691Y60816D01*
X239399Y60109D01*
X240265Y59609D01*
X241232Y59350D01*
X242233D01*
X243199Y59609D01*
X244065Y60109D01*
X244773Y60816D01*
X245273Y61683D01*
X245532Y62649D01*
Y63650D01*
X245273Y64616D01*
X244773Y65483D01*
X244065Y66190D01*
X243199Y66691D01*
X242233Y66950D01*
D02*
G37*
G36*
X142233D02*
X141232D01*
X140266Y66691D01*
X139399Y66190D01*
X138691Y65483D01*
X138191Y64616D01*
X137932Y63650D01*
Y62649D01*
X138191Y61683D01*
X138691Y60816D01*
X139399Y60109D01*
X140266Y59609D01*
X141232Y59350D01*
X142233D01*
X143199Y59609D01*
X144065Y60109D01*
X144773Y60816D01*
X145273Y61683D01*
X145532Y62649D01*
Y63650D01*
X145273Y64616D01*
X144773Y65483D01*
X144065Y66190D01*
X143199Y66691D01*
X142233Y66950D01*
D02*
G37*
G36*
X274844Y66687D02*
X273778D01*
X272748Y66411D01*
X271825Y65878D01*
X271071Y65124D01*
X270537Y64201D01*
X270261Y63171D01*
Y62105D01*
X270537Y61075D01*
X271071Y60151D01*
X271825Y59397D01*
X272748Y58864D01*
X273778Y58588D01*
X274844D01*
X275874Y58864D01*
X276798Y59397D01*
X277552Y60151D01*
X278085Y61075D01*
X278361Y62105D01*
Y63171D01*
X278085Y64201D01*
X277552Y65124D01*
X276798Y65878D01*
X275874Y66411D01*
X274844Y66687D01*
D02*
G37*
G36*
X38831Y64679D02*
X37350D01*
X35920Y64296D01*
X34637Y63556D01*
X33590Y62509D01*
X32849Y61226D01*
X32466Y59796D01*
Y58315D01*
X32849Y56884D01*
X33590Y55602D01*
X34637Y54554D01*
X35920Y53814D01*
X37350Y53431D01*
X38831D01*
X40262Y53814D01*
X41544Y54554D01*
X42591Y55602D01*
X43332Y56884D01*
X43715Y58315D01*
Y59796D01*
X43332Y61226D01*
X42591Y62509D01*
X41544Y63556D01*
X40262Y64296D01*
X38831Y64679D01*
D02*
G37*
G36*
X242233Y56950D02*
X241232D01*
X240265Y56691D01*
X239399Y56190D01*
X238691Y55483D01*
X238191Y54616D01*
X237932Y53650D01*
Y52649D01*
X238191Y51683D01*
X238691Y50816D01*
X239399Y50109D01*
X240265Y49609D01*
X241232Y49350D01*
X242233D01*
X243199Y49609D01*
X244065Y50109D01*
X244773Y50816D01*
X245273Y51683D01*
X245532Y52649D01*
Y53650D01*
X245273Y54616D01*
X244773Y55483D01*
X244065Y56190D01*
X243199Y56691D01*
X242233Y56950D01*
D02*
G37*
G36*
X142233D02*
X141232D01*
X140266Y56691D01*
X139399Y56190D01*
X138691Y55483D01*
X138191Y54616D01*
X137932Y53650D01*
Y52649D01*
X138191Y51683D01*
X138691Y50816D01*
X139399Y50109D01*
X140266Y49609D01*
X141232Y49350D01*
X142233D01*
X143199Y49609D01*
X144065Y50109D01*
X144773Y50816D01*
X145273Y51683D01*
X145532Y52649D01*
Y53650D01*
X145273Y54616D01*
X144773Y55483D01*
X144065Y56190D01*
X143199Y56691D01*
X142233Y56950D01*
D02*
G37*
G36*
X274844Y56687D02*
X273778D01*
X272748Y56411D01*
X271825Y55878D01*
X271071Y55124D01*
X270537Y54201D01*
X270261Y53171D01*
Y52105D01*
X270537Y51075D01*
X271071Y50151D01*
X271825Y49397D01*
X272748Y48864D01*
X273778Y48588D01*
X274844D01*
X275874Y48864D01*
X276798Y49397D01*
X277552Y50151D01*
X278085Y51075D01*
X278361Y52105D01*
Y53171D01*
X278085Y54201D01*
X277552Y55124D01*
X276798Y55878D01*
X275874Y56411D01*
X274844Y56687D01*
D02*
G37*
G36*
X310728Y45419D02*
X309166D01*
Y40465D01*
X314120D01*
Y42028D01*
X314004Y42905D01*
X313665Y43723D01*
X313126Y44426D01*
X312424Y44965D01*
X311606Y45303D01*
X310728Y45419D01*
D02*
G37*
G36*
X307566D02*
X306004D01*
X305126Y45303D01*
X304308Y44965D01*
X303606Y44426D01*
X303067Y43723D01*
X302728Y42905D01*
X302613Y42028D01*
Y40465D01*
X307566D01*
Y45419D01*
D02*
G37*
G36*
X38891Y45082D02*
Y40170D01*
X43803D01*
X43425Y41580D01*
X42671Y42885D01*
X41605Y43951D01*
X40300Y44704D01*
X38891Y45082D01*
D02*
G37*
G36*
X37291Y45082D02*
X35881Y44704D01*
X34576Y43951D01*
X33510Y42885D01*
X32756Y41580D01*
X32379Y40170D01*
X37291D01*
Y45082D01*
D02*
G37*
G36*
X67913Y44927D02*
X66351D01*
Y39973D01*
X71305D01*
Y41535D01*
X71189Y42413D01*
X70850Y43231D01*
X70311Y43933D01*
X69609Y44472D01*
X68791Y44811D01*
X67913Y44927D01*
D02*
G37*
G36*
X64751D02*
X63189D01*
X62311Y44811D01*
X61493Y44472D01*
X60791Y43933D01*
X60252Y43231D01*
X59913Y42413D01*
X59798Y41535D01*
Y39973D01*
X64751D01*
Y44927D01*
D02*
G37*
G36*
X242233Y46950D02*
X241232D01*
X240265Y46691D01*
X239399Y46190D01*
X238691Y45483D01*
X238191Y44616D01*
X237932Y43650D01*
Y42649D01*
X238191Y41683D01*
X238691Y40816D01*
X239399Y40109D01*
X240265Y39609D01*
X241232Y39350D01*
X242233D01*
X243199Y39609D01*
X244065Y40109D01*
X244773Y40816D01*
X245273Y41683D01*
X245532Y42649D01*
Y43650D01*
X245273Y44616D01*
X244773Y45483D01*
X244065Y46190D01*
X243199Y46691D01*
X242233Y46950D01*
D02*
G37*
G36*
X142233D02*
X141232D01*
X140266Y46691D01*
X139399Y46190D01*
X138691Y45483D01*
X138191Y44616D01*
X137932Y43650D01*
Y42649D01*
X138191Y41683D01*
X138691Y40816D01*
X139399Y40109D01*
X140266Y39609D01*
X141232Y39350D01*
X142233D01*
X143199Y39609D01*
X144065Y40109D01*
X144773Y40816D01*
X145273Y41683D01*
X145532Y42649D01*
Y43650D01*
X145273Y44616D01*
X144773Y45483D01*
X144065Y46190D01*
X143199Y46691D01*
X142233Y46950D01*
D02*
G37*
G36*
X403792Y45558D02*
X402311D01*
X400880Y45175D01*
X399598Y44434D01*
X398551Y43387D01*
X397810Y42105D01*
X397427Y40674D01*
Y39193D01*
X397810Y37763D01*
X398551Y36480D01*
X399598Y35433D01*
X400880Y34693D01*
X402311Y34309D01*
X403792D01*
X405222Y34693D01*
X406505Y35433D01*
X407552Y36480D01*
X408292Y37763D01*
X408676Y39193D01*
Y40674D01*
X408292Y42105D01*
X407552Y43387D01*
X406505Y44434D01*
X405222Y45175D01*
X403792Y45558D01*
D02*
G37*
G36*
X385728Y45586D02*
X381004D01*
X380152Y45474D01*
X379359Y45145D01*
X378677Y44623D01*
X378154Y43941D01*
X377826Y43148D01*
X377714Y42296D01*
Y37571D01*
X377826Y36720D01*
X378154Y35926D01*
X378677Y35245D01*
X379359Y34722D01*
X380152Y34393D01*
X381004Y34281D01*
X385728D01*
X386580Y34393D01*
X387373Y34722D01*
X388055Y35245D01*
X388578Y35926D01*
X388907Y36720D01*
X389019Y37571D01*
Y42296D01*
X388907Y43148D01*
X388578Y43941D01*
X388055Y44623D01*
X387373Y45145D01*
X386580Y45474D01*
X385728Y45586D01*
D02*
G37*
G36*
X348477Y45290D02*
X346996D01*
X345565Y44906D01*
X344283Y44166D01*
X343236Y43119D01*
X342495Y41836D01*
X342112Y40406D01*
Y38925D01*
X342495Y37495D01*
X343236Y36212D01*
X344283Y35165D01*
X345565Y34424D01*
X346996Y34041D01*
X348477D01*
X349907Y34424D01*
X351190Y35165D01*
X352237Y36212D01*
X352977Y37495D01*
X353361Y38925D01*
Y40406D01*
X352977Y41836D01*
X352237Y43119D01*
X351190Y44166D01*
X349907Y44906D01*
X348477Y45290D01*
D02*
G37*
G36*
X328792D02*
X327311D01*
X325880Y44906D01*
X324598Y44166D01*
X323551Y43119D01*
X322810Y41836D01*
X322427Y40406D01*
Y38925D01*
X322810Y37495D01*
X323551Y36212D01*
X324598Y35165D01*
X325880Y34424D01*
X327311Y34041D01*
X328792D01*
X330222Y34424D01*
X331505Y35165D01*
X332552Y36212D01*
X333292Y37495D01*
X333676Y38925D01*
Y40406D01*
X333292Y41836D01*
X332552Y43119D01*
X331505Y44166D01*
X330222Y44906D01*
X328792Y45290D01*
D02*
G37*
G36*
X314120Y38865D02*
X309166D01*
Y33912D01*
X310728D01*
X311606Y34028D01*
X312424Y34366D01*
X313126Y34905D01*
X313665Y35608D01*
X314004Y36426D01*
X314120Y37303D01*
Y38865D01*
D02*
G37*
G36*
X307566D02*
X302613D01*
Y37303D01*
X302728Y36426D01*
X303067Y35608D01*
X303606Y34905D01*
X304308Y34366D01*
X305126Y34028D01*
X306004Y33912D01*
X307566D01*
Y38865D01*
D02*
G37*
G36*
X37291Y38570D02*
X32379D01*
X32756Y37161D01*
X33510Y35855D01*
X34576Y34789D01*
X35881Y34036D01*
X37291Y33658D01*
Y38570D01*
D02*
G37*
G36*
X43803D02*
X38891D01*
Y33658D01*
X40300Y34036D01*
X41605Y34789D01*
X42671Y35855D01*
X43425Y37161D01*
X43803Y38570D01*
D02*
G37*
G36*
X71305Y38373D02*
X66351D01*
Y33420D01*
X67913D01*
X68791Y33535D01*
X69609Y33874D01*
X70311Y34413D01*
X70850Y35115D01*
X71189Y35933D01*
X71305Y36811D01*
Y38373D01*
D02*
G37*
G36*
X64751D02*
X59798D01*
Y36811D01*
X59913Y35933D01*
X60252Y35115D01*
X60791Y34413D01*
X61493Y33874D01*
X62311Y33535D01*
X63189Y33420D01*
X64751D01*
Y38373D01*
D02*
G37*
G36*
X242233Y36950D02*
X241232D01*
X240265Y36691D01*
X239399Y36190D01*
X238691Y35483D01*
X238191Y34616D01*
X237932Y33650D01*
Y32649D01*
X238191Y31683D01*
X238691Y30816D01*
X239399Y30109D01*
X240265Y29609D01*
X241232Y29350D01*
X242233D01*
X243199Y29609D01*
X244065Y30109D01*
X244773Y30816D01*
X245273Y31683D01*
X245532Y32649D01*
Y33650D01*
X245273Y34616D01*
X244773Y35483D01*
X244065Y36190D01*
X243199Y36691D01*
X242233Y36950D01*
D02*
G37*
G36*
X142233D02*
X141232D01*
X140266Y36691D01*
X139399Y36190D01*
X138691Y35483D01*
X138191Y34616D01*
X137932Y33650D01*
Y32649D01*
X138191Y31683D01*
X138691Y30816D01*
X139399Y30109D01*
X140266Y29609D01*
X141232Y29350D01*
X142233D01*
X143199Y29609D01*
X144065Y30109D01*
X144773Y30816D01*
X145273Y31683D01*
X145532Y32649D01*
Y33650D01*
X145273Y34616D01*
X144773Y35483D01*
X144065Y36190D01*
X143199Y36691D01*
X142233Y36950D01*
D02*
G37*
G36*
X278361Y37199D02*
X270261D01*
Y29100D01*
X278361D01*
Y37199D01*
D02*
G37*
G36*
X242233Y26950D02*
X241232D01*
X240265Y26691D01*
X239399Y26190D01*
X238691Y25483D01*
X238191Y24616D01*
X237932Y23650D01*
Y22649D01*
X238191Y21683D01*
X238691Y20816D01*
X239399Y20109D01*
X240265Y19609D01*
X241232Y19350D01*
X242233D01*
X243199Y19609D01*
X244065Y20109D01*
X244773Y20816D01*
X245273Y21683D01*
X245532Y22649D01*
Y23650D01*
X245273Y24616D01*
X244773Y25483D01*
X244065Y26190D01*
X243199Y26691D01*
X242233Y26950D01*
D02*
G37*
G36*
X142233D02*
X141232D01*
X140266Y26691D01*
X139399Y26190D01*
X138691Y25483D01*
X138191Y24616D01*
X137932Y23650D01*
Y22649D01*
X138191Y21683D01*
X138691Y20816D01*
X139399Y20109D01*
X140266Y19609D01*
X141232Y19350D01*
X142233D01*
X143199Y19609D01*
X144065Y20109D01*
X144773Y20816D01*
X145273Y21683D01*
X145532Y22649D01*
Y23650D01*
X145273Y24616D01*
X144773Y25483D01*
X144065Y26190D01*
X143199Y26691D01*
X142233Y26950D01*
D02*
G37*
G36*
X274844Y27199D02*
X273778D01*
X272748Y26923D01*
X271825Y26390D01*
X271071Y25636D01*
X270537Y24713D01*
X270261Y23683D01*
Y22616D01*
X270537Y21587D01*
X271071Y20663D01*
X271825Y19909D01*
X272748Y19376D01*
X273778Y19100D01*
X274844D01*
X275874Y19376D01*
X276798Y19909D01*
X277552Y20663D01*
X278085Y21587D01*
X278361Y22616D01*
Y23683D01*
X278085Y24713D01*
X277552Y25636D01*
X276798Y26390D01*
X275874Y26923D01*
X274844Y27199D01*
D02*
G37*
G36*
X242233Y16950D02*
X241232D01*
X240265Y16691D01*
X239399Y16190D01*
X238691Y15483D01*
X238191Y14616D01*
X237932Y13650D01*
Y12649D01*
X238191Y11683D01*
X238691Y10816D01*
X239399Y10109D01*
X240265Y9609D01*
X241232Y9350D01*
X242233D01*
X243199Y9609D01*
X244065Y10109D01*
X244773Y10816D01*
X245273Y11683D01*
X245532Y12649D01*
Y13650D01*
X245273Y14616D01*
X244773Y15483D01*
X244065Y16190D01*
X243199Y16691D01*
X242233Y16950D01*
D02*
G37*
G36*
X142233D02*
X141232D01*
X140266Y16691D01*
X139399Y16190D01*
X138691Y15483D01*
X138191Y14616D01*
X137932Y13650D01*
Y12649D01*
X138191Y11683D01*
X138691Y10816D01*
X139399Y10109D01*
X140266Y9609D01*
X141232Y9350D01*
X142233D01*
X143199Y9609D01*
X144065Y10109D01*
X144773Y10816D01*
X145273Y11683D01*
X145532Y12649D01*
Y13650D01*
X145273Y14616D01*
X144773Y15483D01*
X144065Y16190D01*
X143199Y16691D01*
X142233Y16950D01*
D02*
G37*
%LPD*%
G36*
X59713Y250826D02*
X59773Y250800D01*
X59873Y250778D01*
X60013Y250759D01*
X60413Y250729D01*
X61693Y250705D01*
Y248705D01*
X61313Y248703D01*
X59773Y248609D01*
X59713Y248584D01*
X59693Y248555D01*
Y250854D01*
X59713Y250826D01*
D02*
G37*
G36*
X54437Y251250D02*
X54497Y251146D01*
X54597Y251054D01*
X54737Y250974D01*
X54917Y250907D01*
X55137Y250852D01*
X55397Y250809D01*
X55697Y250778D01*
X55714Y250778D01*
X57236Y250854D01*
Y248555D01*
X57216Y248593D01*
X57156Y248627D01*
X57056Y248657D01*
X56916Y248682D01*
X56736Y248704D01*
X56256Y248736D01*
X55951Y248741D01*
X55137Y248672D01*
X54917Y248625D01*
X54737Y248569D01*
X54597Y248502D01*
X54497Y248425D01*
X54437Y248338D01*
X54417Y248240D01*
Y251366D01*
X54437Y251250D01*
D02*
G37*
G36*
X49323Y248240D02*
X49303Y248338D01*
X49243Y248425D01*
X49143Y248502D01*
X49003Y248569D01*
X48823Y248625D01*
X48603Y248672D01*
X48343Y248708D01*
X47703Y248749D01*
X47323Y248754D01*
Y250754D01*
X47703Y250760D01*
X48343Y250809D01*
X48603Y250852D01*
X48823Y250907D01*
X49003Y250974D01*
X49143Y251054D01*
X49243Y251146D01*
X49303Y251250D01*
X49323Y251366D01*
Y248240D01*
D02*
G37*
G36*
X141378Y247839D02*
X141272Y248005D01*
X141130Y248153D01*
X140951Y248284D01*
X140736Y248398D01*
X140484Y248494D01*
X140197Y248573D01*
X139872Y248634D01*
X139512Y248678D01*
X139115Y248704D01*
X138681Y248713D01*
Y249713D01*
X139112Y249721D01*
X139865Y249792D01*
X140186Y249854D01*
X140470Y249933D01*
X140718Y250030D01*
X140930Y250145D01*
X141104Y250277D01*
X141242Y250427D01*
X141344Y250595D01*
X141378Y247839D01*
D02*
G37*
G36*
X44004Y251564D02*
X44064Y251394D01*
X44165Y251244D01*
X44306Y251114D01*
X44486Y251004D01*
X44708Y250914D01*
X44969Y250844D01*
X45271Y250794D01*
X45613Y250764D01*
X45996Y250754D01*
Y248754D01*
X45613Y248744D01*
X45271Y248714D01*
X44969Y248664D01*
X44708Y248594D01*
X44486Y248504D01*
X44306Y248394D01*
X44165Y248264D01*
X44064Y248114D01*
X44004Y247944D01*
X43984Y247754D01*
Y251754D01*
X44004Y251564D01*
D02*
G37*
G36*
X156562Y247096D02*
X156244Y247403D01*
X155896Y247678D01*
X155520Y247920D01*
X155113Y248131D01*
X154678Y248308D01*
X154214Y248454D01*
X153720Y248567D01*
X153196Y248648D01*
X152644Y248696D01*
X152062Y248713D01*
Y249713D01*
X152644Y249729D01*
X153195Y249778D01*
X153716Y249860D01*
X154206Y249975D01*
X154666Y250122D01*
X155096Y250302D01*
X155495Y250515D01*
X155863Y250761D01*
X156202Y251039D01*
X156509Y251350D01*
X156562Y247096D01*
D02*
G37*
G36*
X88744Y244285D02*
X88689Y244191D01*
X88640Y244076D01*
X88597Y243942D01*
X88561Y243788D01*
X88532Y243613D01*
X88493Y243204D01*
X88483Y242970D01*
X88480Y242771D01*
X88485Y242607D01*
X88500Y242435D01*
X88525Y242283D01*
X88560Y242151D01*
X88605Y242040D01*
X88660Y241949D01*
X88725Y241878D01*
X88800Y241828D01*
X88885Y241797D01*
X88980Y241787D01*
X86980D01*
X87075Y241797D01*
X87160Y241828D01*
X87235Y241878D01*
X87300Y241949D01*
X87355Y242040D01*
X87400Y242151D01*
X87435Y242283D01*
X87460Y242435D01*
X87475Y242607D01*
X87479Y242771D01*
X87476Y242970D01*
X87427Y243613D01*
X87398Y243788D01*
X87362Y243942D01*
X87319Y244076D01*
X87270Y244191D01*
X87215Y244285D01*
X87153Y244359D01*
X88806D01*
X88744Y244285D01*
D02*
G37*
G36*
X111621Y236900D02*
X111537Y236870D01*
X111461Y236820D01*
X111397Y236749D01*
X111342Y236658D01*
X111296Y236546D01*
X111261Y236415D01*
X111237Y236263D01*
X111222Y236091D01*
X111216Y235899D01*
X110216D01*
X110212Y236091D01*
X110196Y236263D01*
X110171Y236415D01*
X110136Y236546D01*
X110091Y236658D01*
X110037Y236749D01*
X109971Y236820D01*
X109897Y236870D01*
X109811Y236900D01*
X109716Y236911D01*
X111716D01*
X111621Y236900D01*
D02*
G37*
G36*
X88885Y236695D02*
X88800Y236665D01*
X88725Y236615D01*
X88660Y236545D01*
X88605Y236455D01*
X88560Y236345D01*
X88525Y236215D01*
X88500Y236065D01*
X88485Y235895D01*
X88480Y235705D01*
X87480D01*
X87475Y235895D01*
X87460Y236065D01*
X87435Y236215D01*
X87400Y236345D01*
X87355Y236455D01*
X87300Y236545D01*
X87235Y236615D01*
X87160Y236665D01*
X87075Y236695D01*
X86980Y236705D01*
X88980D01*
X88885Y236695D01*
D02*
G37*
G36*
X102578Y228585D02*
X102493Y228555D01*
X102418Y228505D01*
X102353Y228435D01*
X102298Y228345D01*
X102253Y228235D01*
X102218Y228105D01*
X102193Y227955D01*
X102178Y227785D01*
X102173Y227595D01*
X101173D01*
X101168Y227785D01*
X101153Y227955D01*
X101128Y228105D01*
X101093Y228235D01*
X101048Y228345D01*
X100993Y228435D01*
X100928Y228505D01*
X100853Y228555D01*
X100768Y228585D01*
X100673Y228595D01*
X102673D01*
X102578Y228585D01*
D02*
G37*
G36*
X99035D02*
X98950Y228555D01*
X98875Y228505D01*
X98810Y228435D01*
X98755Y228345D01*
X98710Y228235D01*
X98675Y228105D01*
X98650Y227955D01*
X98635Y227785D01*
X98630Y227595D01*
X97630D01*
X97625Y227785D01*
X97610Y227955D01*
X97585Y228105D01*
X97550Y228235D01*
X97505Y228345D01*
X97450Y228435D01*
X97385Y228505D01*
X97310Y228555D01*
X97225Y228585D01*
X97130Y228595D01*
X99130D01*
X99035Y228585D01*
D02*
G37*
G36*
X129238Y224872D02*
X129142Y224864D01*
X129036Y224837D01*
X128921Y224791D01*
X128796Y224726D01*
X128661Y224642D01*
X128517Y224539D01*
X128200Y224278D01*
X128027Y224119D01*
X127845Y223941D01*
X127138Y224648D01*
X127316Y224831D01*
X127736Y225320D01*
X127839Y225465D01*
X127922Y225599D01*
X127987Y225724D01*
X128033Y225839D01*
X128061Y225945D01*
X128069Y226042D01*
X129238Y224872D01*
D02*
G37*
G36*
X123330Y222284D02*
X123139Y222278D01*
X122968Y222264D01*
X122816Y222238D01*
X122685Y222203D01*
X122573Y222159D01*
X122482Y222104D01*
X122411Y222039D01*
X122360Y221964D01*
X122329Y221879D01*
X122318Y221783D01*
X122330Y223271D01*
X122341Y223274D01*
X122371Y223276D01*
X122820Y223283D01*
X123330Y223284D01*
Y222284D01*
D02*
G37*
G36*
X98630Y222856D02*
X98631Y222666D01*
X98680Y221876D01*
X98693Y221840D01*
X98708Y221824D01*
X97687Y221732D01*
X97676Y221718D01*
X97667Y221733D01*
X97658Y221776D01*
X97650Y221846D01*
X97639Y222073D01*
X97630Y222863D01*
X98630Y222856D01*
D02*
G37*
G36*
X118418Y220413D02*
X118407Y220508D01*
X118377Y220593D01*
X118327Y220668D01*
X118257Y220733D01*
X118167Y220789D01*
X118058Y220833D01*
X117928Y220868D01*
X117778Y220893D01*
X117607Y220908D01*
X117418Y220914D01*
Y221914D01*
X117607Y221918D01*
X117778Y221933D01*
X117928Y221958D01*
X118058Y221993D01*
X118167Y222039D01*
X118257Y222093D01*
X118327Y222158D01*
X118377Y222233D01*
X118407Y222318D01*
X118418Y222413D01*
Y220413D01*
D02*
G37*
G36*
X92778Y225801D02*
X92815Y218147D01*
X91641Y218147D01*
X90661Y219128D01*
X90661Y225801D01*
X91166Y226306D01*
X92273D01*
X92778Y225801D01*
D02*
G37*
G36*
X80413Y230192D02*
Y226759D01*
Y224736D01*
X87166Y217983D01*
X90365Y217983D01*
X90864Y217571D01*
Y216171D01*
X90661Y215968D01*
X87008D01*
X84728Y218248D01*
X80437Y222539D01*
X79626Y222539D01*
X73721D01*
X72638Y223622D01*
Y230807D01*
X73401Y231570D01*
X79035D01*
X80413Y230192D01*
D02*
G37*
G36*
X139661Y121120D02*
X139349Y121410D01*
X139011Y121670D01*
X138647Y121900D01*
X138259Y122099D01*
X137845Y122267D01*
X137406Y122405D01*
X136941Y122512D01*
X136451Y122588D01*
X135936Y122634D01*
X135396Y122650D01*
Y123650D01*
X135936Y123665D01*
X136451Y123711D01*
X136941Y123787D01*
X137406Y123894D01*
X137845Y124032D01*
X138259Y124200D01*
X138647Y124399D01*
X139011Y124629D01*
X139349Y124889D01*
X139661Y125180D01*
Y121120D01*
D02*
G37*
G36*
X83582Y250765D02*
X83676Y250709D01*
X83790Y250660D01*
X83925Y250618D01*
X84079Y250582D01*
X84253Y250552D01*
X84662Y250513D01*
X84897Y250503D01*
X85152Y250500D01*
Y249500D01*
X84897Y249497D01*
X84253Y249448D01*
X84079Y249418D01*
X83925Y249382D01*
X83790Y249340D01*
X83676Y249291D01*
X83582Y249235D01*
X83508Y249173D01*
Y250827D01*
X83582Y250765D01*
D02*
G37*
G36*
X104922Y241622D02*
X104937Y241452D01*
X104962Y241302D01*
X104997Y241172D01*
X105042Y241062D01*
X105097Y240972D01*
X105162Y240902D01*
X105237Y240852D01*
X105322Y240822D01*
X105417Y240812D01*
X103417D01*
X103512Y240822D01*
X103597Y240852D01*
X103672Y240902D01*
X103737Y240972D01*
X103792Y241062D01*
X103837Y241172D01*
X103872Y241302D01*
X103897Y241452D01*
X103912Y241622D01*
X103917Y241812D01*
X104917D01*
X104922Y241622D01*
D02*
G37*
G36*
X43456Y228067D02*
X43474Y227940D01*
X43532Y227785D01*
X43632Y227602D01*
X43772Y227391D01*
X43953Y227151D01*
X44437Y226589D01*
X45085Y225916D01*
X43671Y224502D01*
X43320Y224846D01*
X42196Y225815D01*
X41985Y225955D01*
X41802Y226054D01*
X41647Y226113D01*
X41519Y226130D01*
X41420Y226107D01*
X43480Y228167D01*
X43456Y228067D01*
D02*
G37*
G36*
X53158Y226634D02*
X53218Y226521D01*
X53318Y226421D01*
X53458Y226335D01*
X53638Y226262D01*
X53858Y226202D01*
X54118Y226156D01*
X54221Y226144D01*
X54942Y226186D01*
X55002Y226209D01*
X55022Y226236D01*
Y226100D01*
X55138Y226096D01*
Y224096D01*
X55022Y224095D01*
Y223937D01*
X55002Y223967D01*
X54942Y223994D01*
X54842Y224018D01*
X54702Y224039D01*
X54393Y224063D01*
X53858Y224022D01*
X53638Y223980D01*
X53458Y223930D01*
X53318Y223870D01*
X53218Y223800D01*
X53158Y223722D01*
X53138Y223634D01*
Y224096D01*
X53022Y224096D01*
Y226096D01*
X53138Y226096D01*
Y226760D01*
X53158Y226634D01*
D02*
G37*
G36*
X48044Y223634D02*
X48024Y223743D01*
X47964Y223841D01*
X47864Y223927D01*
X47723Y224002D01*
X47543Y224065D01*
X47324Y224117D01*
X47063Y224157D01*
X46764Y224186D01*
X46044Y224209D01*
Y226209D01*
X46424Y226214D01*
X47063Y226258D01*
X47324Y226297D01*
X47543Y226346D01*
X47723Y226407D01*
X47864Y226479D01*
X47964Y226561D01*
X48024Y226655D01*
X48044Y226760D01*
Y223634D01*
D02*
G37*
G36*
X79807Y213261D02*
X79900Y213226D01*
X80029Y213195D01*
X80193Y213168D01*
X80625Y213126D01*
X81534Y213095D01*
X81907Y213093D01*
Y212093D01*
X81534Y212091D01*
X80029Y211991D01*
X79900Y211960D01*
X79807Y211925D01*
X79748Y211885D01*
Y213300D01*
X79807Y213261D01*
D02*
G37*
G36*
X59663Y209854D02*
X59724Y209829D01*
X59824Y209807D01*
X59964Y209787D01*
X60364Y209757D01*
X61643Y209733D01*
Y207733D01*
X61264Y207732D01*
X59724Y207638D01*
X59663Y207612D01*
X59644Y207584D01*
Y209883D01*
X59663Y209854D01*
D02*
G37*
G36*
X54270Y210376D02*
X54330Y210279D01*
X54431Y210194D01*
X54571Y210120D01*
X54751Y210057D01*
X54971Y210006D01*
X55230Y209966D01*
X55531Y209938D01*
X56251Y209915D01*
Y209898D01*
X57187Y209883D01*
Y207584D01*
X57167Y207647D01*
X57107Y207703D01*
X57007Y207753D01*
X56867Y207796D01*
X56687Y207833D01*
X56467Y207862D01*
X55907Y207902D01*
X55791Y207904D01*
X55230Y207865D01*
X54971Y207826D01*
X54751Y207776D01*
X54571Y207715D01*
X54431Y207642D01*
X54330Y207559D01*
X54270Y207464D01*
X54251Y207358D01*
Y210484D01*
X54270Y210376D01*
D02*
G37*
G36*
X49156Y207358D02*
X49137Y207464D01*
X49078Y207559D01*
X48981Y207643D01*
X48844Y207716D01*
X48668Y207778D01*
X48454Y207828D01*
X48200Y207867D01*
X47907Y207895D01*
X47205Y207917D01*
Y209917D01*
X47576Y209923D01*
X48200Y209968D01*
X48454Y210008D01*
X48668Y210059D01*
X48844Y210121D01*
X48981Y210195D01*
X49078Y210280D01*
X49137Y210376D01*
X49156Y210484D01*
Y207358D01*
D02*
G37*
G36*
X39888Y199156D02*
X39918Y198814D01*
X39968Y198513D01*
X40038Y198251D01*
X40128Y198030D01*
X40238Y197849D01*
X40368Y197708D01*
X40518Y197607D01*
X40688Y197547D01*
X40878Y197527D01*
X36878D01*
X37068Y197547D01*
X37238Y197607D01*
X37388Y197708D01*
X37518Y197849D01*
X37628Y198030D01*
X37718Y198251D01*
X37788Y198513D01*
X37838Y198814D01*
X37868Y199156D01*
X37878Y199539D01*
X39878D01*
X39888Y199156D01*
D02*
G37*
G36*
X102618Y199407D02*
X102594Y199376D01*
X102573Y199334D01*
X102554Y199278D01*
X102539Y199211D01*
X102526Y199131D01*
X102509Y198933D01*
X102504Y198686D01*
X101804D01*
X101802Y198816D01*
X101781Y199131D01*
X101768Y199211D01*
X101753Y199278D01*
X101734Y199334D01*
X101713Y199376D01*
X101689Y199407D01*
X101662Y199425D01*
X102645D01*
X102618Y199407D01*
D02*
G37*
G36*
X100649D02*
X100625Y199376D01*
X100604Y199334D01*
X100586Y199278D01*
X100570Y199211D01*
X100558Y199131D01*
X100541Y198933D01*
X100535Y198686D01*
X99835D01*
X99834Y198816D01*
X99813Y199131D01*
X99800Y199211D01*
X99784Y199278D01*
X99766Y199334D01*
X99745Y199376D01*
X99721Y199407D01*
X99694Y199425D01*
X100676D01*
X100649Y199407D01*
D02*
G37*
G36*
X103087Y194681D02*
X102552Y194146D01*
X102545Y194160D01*
X102526Y194187D01*
X102493Y194226D01*
X102234Y194500D01*
X101906Y194832D01*
X102401Y195327D01*
X103087Y194681D01*
D02*
G37*
G36*
X106248Y201673D02*
X129035D01*
X129465Y201242D01*
Y193782D01*
X128499Y192815D01*
X118649D01*
X117692Y193772D01*
Y196452D01*
X117305Y196840D01*
X106110D01*
X103577Y199373D01*
Y203103D01*
X103720Y203247D01*
X104674D01*
X106248Y201673D01*
D02*
G37*
G36*
X100540Y191972D02*
X100578Y191539D01*
X100611Y191346D01*
X100654Y191168D01*
X100707Y191005D01*
X100769Y190858D01*
X100840Y190726D01*
X100921Y190610D01*
X101012Y190509D01*
X99358D01*
X99449Y190610D01*
X99530Y190726D01*
X99601Y190858D01*
X99663Y191005D01*
X99716Y191168D01*
X99759Y191346D01*
X99792Y191539D01*
X99816Y191748D01*
X99835Y192211D01*
X100535D01*
X100540Y191972D01*
D02*
G37*
G36*
X103982Y180066D02*
X104031Y179422D01*
X104060Y179248D01*
X104096Y179093D01*
X104139Y178959D01*
X104188Y178845D01*
X104243Y178751D01*
X104305Y178676D01*
X102652D01*
X102714Y178751D01*
X102769Y178845D01*
X102818Y178959D01*
X102861Y179093D01*
X102897Y179248D01*
X102926Y179422D01*
X102965Y179831D01*
X102975Y180066D01*
X102979Y180320D01*
X103979D01*
X103982Y180066D01*
D02*
G37*
G36*
X90800Y205177D02*
Y204000D01*
X80413Y193613D01*
Y189710D01*
X79511Y188808D01*
X72213D01*
X71101Y189920D01*
Y198477D01*
X72412Y199788D01*
X78983Y199788D01*
X80062Y198709D01*
X80497D01*
X87033Y205245D01*
X90732D01*
X90800Y205177D01*
D02*
G37*
G36*
X96712Y199407D02*
X96688Y199376D01*
X96667Y199334D01*
X96649Y199278D01*
X96633Y199211D01*
X96621Y199131D01*
X96604Y198933D01*
X96598Y198686D01*
X95898D01*
X95897Y198816D01*
X95876Y199131D01*
X95863Y199211D01*
X95847Y199278D01*
X95829Y199334D01*
X95808Y199376D01*
X95784Y199407D01*
X95757Y199425D01*
X96739D01*
X96712Y199407D01*
D02*
G37*
G36*
X92894Y198956D02*
X92821Y194735D01*
X92656Y194699D01*
X91043Y195276D01*
Y202842D01*
X91377Y203175D01*
X92821D01*
X92894Y198956D01*
D02*
G37*
G36*
X94558Y190848D02*
X93851Y190136D01*
X93350Y190636D01*
X93359Y190643D01*
X93467Y190749D01*
X94063Y191343D01*
X94558Y190848D01*
D02*
G37*
G36*
X93854Y186583D02*
X93903Y185939D01*
X93932Y185765D01*
X93968Y185611D01*
X94011Y185476D01*
X94060Y185362D01*
X94116Y185268D01*
X94178Y185194D01*
X92524D01*
X92586Y185268D01*
X92642Y185362D01*
X92691Y185476D01*
X92733Y185611D01*
X92769Y185765D01*
X92799Y185939D01*
X92838Y186348D01*
X92848Y186583D01*
X92851Y186838D01*
X93851D01*
X93854Y186583D01*
D02*
G37*
G36*
X59663Y174448D02*
X59724Y174422D01*
X59824Y174400D01*
X59964Y174381D01*
X60364Y174351D01*
X61643Y174327D01*
Y172327D01*
X61264Y172325D01*
X59724Y172231D01*
X59663Y172206D01*
X59644Y172177D01*
Y174476D01*
X59663Y174448D01*
D02*
G37*
G36*
X54240Y174783D02*
X54300Y174687D01*
X54400Y174602D01*
X54540Y174529D01*
X54720Y174468D01*
X54940Y174417D01*
X55200Y174377D01*
X55500Y174349D01*
X55772Y174341D01*
X57107Y174422D01*
X57167Y174448D01*
X57187Y174476D01*
Y172177D01*
X57167Y172206D01*
X57107Y172231D01*
X57007Y172254D01*
X56867Y172273D01*
X56467Y172303D01*
X55766Y172316D01*
X55200Y172276D01*
X54940Y172237D01*
X54720Y172186D01*
X54540Y172124D01*
X54400Y172051D01*
X54300Y171967D01*
X54240Y171871D01*
X54220Y171764D01*
Y174890D01*
X54240Y174783D01*
D02*
G37*
G36*
X42671Y176074D02*
X43206Y175686D01*
X43786Y175345D01*
X44413Y175048D01*
X45086Y174798D01*
X45805Y174593D01*
X46571Y174433D01*
X47382Y174320D01*
X47965Y174273D01*
X48146Y174288D01*
X48406Y174334D01*
X48626Y174394D01*
X48806Y174466D01*
X48946Y174552D01*
X49046Y174652D01*
X49106Y174764D01*
X49126Y174890D01*
Y174229D01*
X49142Y174228D01*
X49185Y172228D01*
X49126Y172227D01*
Y171764D01*
X49106Y171852D01*
X49046Y171931D01*
X48946Y172001D01*
X48806Y172061D01*
X48626Y172112D01*
X48406Y172154D01*
X48146Y172187D01*
X48090Y172190D01*
X47416Y172135D01*
X46606Y172018D01*
X45845Y171855D01*
X45134Y171645D01*
X44472Y171388D01*
X43860Y171084D01*
X43297Y170734D01*
X42784Y170337D01*
X42320Y169894D01*
X42182Y176507D01*
X42671Y176074D01*
D02*
G37*
G36*
X88330Y162264D02*
X88256Y162326D01*
X88161Y162381D01*
X88047Y162430D01*
X87913Y162473D01*
X87759Y162509D01*
X87584Y162538D01*
X87175Y162577D01*
X86940Y162587D01*
X86686Y162591D01*
Y163591D01*
X86940Y163594D01*
X87584Y163643D01*
X87759Y163672D01*
X87913Y163708D01*
X88047Y163751D01*
X88161Y163800D01*
X88256Y163855D01*
X88330Y163917D01*
Y162264D01*
D02*
G37*
G36*
X56921Y163855D02*
X57016Y163800D01*
X57130Y163751D01*
X57264Y163708D01*
X57419Y163672D01*
X57593Y163643D01*
X58002Y163604D01*
X58237Y163594D01*
X58491Y163591D01*
Y162591D01*
X58237Y162587D01*
X57593Y162538D01*
X57419Y162509D01*
X57264Y162473D01*
X57130Y162430D01*
X57016Y162381D01*
X56921Y162326D01*
X56847Y162264D01*
Y163917D01*
X56921Y163855D01*
D02*
G37*
G36*
X139661Y101120D02*
X139349Y101410D01*
X139011Y101670D01*
X138647Y101900D01*
X138259Y102099D01*
X137845Y102267D01*
X137406Y102405D01*
X136941Y102512D01*
X136451Y102588D01*
X135936Y102634D01*
X135396Y102650D01*
Y103650D01*
X135936Y103665D01*
X136451Y103711D01*
X136941Y103787D01*
X137406Y103894D01*
X137845Y104032D01*
X138259Y104200D01*
X138647Y104399D01*
X139011Y104629D01*
X139349Y104889D01*
X139661Y105180D01*
Y101120D01*
D02*
G37*
G36*
X92921Y46150D02*
X92351Y45541D01*
X91842Y44913D01*
X91394Y44267D01*
X91007Y43602D01*
X90681Y42918D01*
X90415Y42216D01*
X90210Y41495D01*
X90066Y40755D01*
X89983Y39997D01*
X89960Y39220D01*
X85283Y43897D01*
X86060Y43920D01*
X86818Y44003D01*
X87558Y44147D01*
X88279Y44352D01*
X88981Y44618D01*
X89665Y44944D01*
X90330Y45331D01*
X90976Y45779D01*
X91604Y46288D01*
X92213Y46858D01*
X92921Y46150D01*
D02*
G37*
G36*
X244424Y104357D02*
X244685Y104074D01*
X244983Y103825D01*
X245318Y103609D01*
X245690Y103426D01*
X246100Y103276D01*
X246547Y103159D01*
X247030Y103076D01*
X247551Y103026D01*
X248109Y103010D01*
X247879Y102010D01*
X247372Y101997D01*
X246876Y101958D01*
X246390Y101893D01*
X245916Y101802D01*
X245453Y101686D01*
X245001Y101543D01*
X244561Y101374D01*
X244131Y101180D01*
X243712Y100959D01*
X243304Y100713D01*
X244200Y104673D01*
X244424Y104357D01*
D02*
G37*
G36*
X348334Y100168D02*
X348078Y100518D01*
X347785Y100831D01*
X347452Y101107D01*
X347082Y101347D01*
X346674Y101549D01*
X346227Y101715D01*
X345742Y101844D01*
X345219Y101936D01*
X344658Y101991D01*
X344058Y102010D01*
X344269Y103010D01*
X344815Y103025D01*
X345351Y103069D01*
X345875Y103143D01*
X346388Y103246D01*
X346889Y103379D01*
X347380Y103541D01*
X347859Y103733D01*
X348327Y103954D01*
X348784Y104205D01*
X349230Y104486D01*
X348334Y100168D01*
D02*
G37*
G36*
X139661Y91120D02*
X139349Y91410D01*
X139011Y91670D01*
X138647Y91900D01*
X138259Y92099D01*
X137845Y92267D01*
X137406Y92405D01*
X136941Y92512D01*
X136451Y92588D01*
X135936Y92634D01*
X135396Y92650D01*
Y93650D01*
X135936Y93665D01*
X136451Y93711D01*
X136941Y93787D01*
X137406Y93894D01*
X137845Y94032D01*
X138259Y94200D01*
X138647Y94399D01*
X139011Y94629D01*
X139349Y94889D01*
X139661Y95180D01*
Y91120D01*
D02*
G37*
G36*
X105449Y48707D02*
X105534Y47903D01*
X105674Y47129D01*
X105870Y46385D01*
X106123Y45671D01*
X106432Y44987D01*
X106797Y44332D01*
X107218Y43707D01*
X107695Y43112D01*
X108228Y42547D01*
X101614D01*
X102147Y43112D01*
X102625Y43707D01*
X103046Y44332D01*
X103411Y44987D01*
X103719Y45671D01*
X103972Y46385D01*
X104169Y47129D01*
X104309Y47903D01*
X104393Y48707D01*
X104421Y49540D01*
X105421D01*
X105449Y48707D01*
D02*
G37*
G36*
X90238Y151284D02*
X90182Y151190D01*
X90133Y151076D01*
X90091Y150942D01*
X90055Y150787D01*
X90025Y150613D01*
X89986Y150204D01*
X89976Y149969D01*
X89973Y149715D01*
X88973D01*
X88970Y149969D01*
X88921Y150613D01*
X88891Y150787D01*
X88855Y150942D01*
X88813Y151076D01*
X88764Y151190D01*
X88708Y151284D01*
X88646Y151358D01*
X90300D01*
X90238Y151284D01*
D02*
G37*
G36*
X84954Y88256D02*
X84969Y88084D01*
X84994Y87932D01*
X85029Y87801D01*
X85074Y87690D01*
X85129Y87599D01*
X85194Y87528D01*
X85269Y87477D01*
X85354Y87447D01*
X85449Y87437D01*
X83449D01*
X83544Y87447D01*
X83629Y87477D01*
X83704Y87528D01*
X83769Y87599D01*
X83824Y87690D01*
X83869Y87801D01*
X83904Y87932D01*
X83929Y88084D01*
X83944Y88256D01*
X83949Y88449D01*
X84949D01*
X84954Y88256D01*
D02*
G37*
G36*
X111460Y73484D02*
X111386Y73546D01*
X111291Y73602D01*
X111177Y73651D01*
X111043Y73693D01*
X110889Y73729D01*
X110714Y73759D01*
X110305Y73798D01*
X110071Y73808D01*
X109816Y73811D01*
Y74811D01*
X110071Y74814D01*
X110714Y74863D01*
X110889Y74893D01*
X111043Y74929D01*
X111177Y74971D01*
X111291Y75020D01*
X111386Y75076D01*
X111460Y75138D01*
Y73484D01*
D02*
G37*
G36*
X87045Y76192D02*
X87418Y75902D01*
X87818Y75646D01*
X88243Y75425D01*
X88693Y75237D01*
X89170Y75084D01*
X89673Y74964D01*
X90202Y74879D01*
X90757Y74828D01*
X91338Y74811D01*
Y73811D01*
X90757Y73794D01*
X90202Y73743D01*
X89673Y73658D01*
X89170Y73538D01*
X88693Y73385D01*
X88243Y73197D01*
X87818Y72976D01*
X87418Y72720D01*
X87045Y72430D01*
X86698Y72106D01*
Y76516D01*
X87045Y76192D01*
D02*
G37*
D14*
X130918Y103150D02*
X141732D01*
X120768Y93000D02*
X130918Y103150D01*
X120768Y74803D02*
Y93000D01*
X113806Y67842D02*
X120768Y74803D01*
X104062Y67842D02*
X113806D01*
X95276Y59055D02*
X104062Y67842D01*
X95276Y49213D02*
Y59055D01*
X85236Y39173D02*
X95276Y49213D01*
X133539Y123150D02*
X141732D01*
X132953Y123735D02*
X133539Y123150D01*
X132953Y123735D02*
Y207855D01*
X130184Y210624D02*
X132953Y207855D01*
X107567Y210624D02*
X130184D01*
X131929Y93150D02*
X141732D01*
X127756Y88976D02*
X131929Y93150D01*
X127756Y72933D02*
Y88976D01*
X117027Y62205D02*
X127756Y72933D01*
X109744Y62205D02*
X117027D01*
X104921Y57382D02*
X109744Y62205D01*
X104921Y39173D02*
Y57382D01*
X87980Y235249D02*
Y239252D01*
Y245202D01*
X84449Y74311D02*
X112303D01*
X93351Y184350D02*
Y190136D01*
X93351Y190136D02*
X93351Y190136D01*
X89473Y99309D02*
Y152202D01*
X84449Y94284D02*
X89473Y99309D01*
X84449Y84311D02*
Y94284D01*
X56004Y163091D02*
X89173D01*
X103479Y177833D02*
Y193755D01*
X103051Y194182D02*
X103479Y193755D01*
X209190Y314308D02*
X232087Y337205D01*
Y355905D01*
X121744Y222783D02*
X125980D01*
X120374Y221413D02*
X121744Y222783D01*
X125980D02*
X129250Y226053D01*
X115808Y221413D02*
X120374D01*
X91541Y221950D02*
Y225726D01*
X94279Y219975D02*
Y228949D01*
X98130Y220061D02*
Y229757D01*
Y220061D02*
X98216Y219975D01*
X100185D02*
Y224785D01*
X92127Y221365D02*
X92279D01*
X92311Y221333D01*
Y219975D02*
Y221333D01*
X100185Y224785D02*
X101673Y226273D01*
Y229757D01*
X300528Y314663D02*
X373816D01*
X389970Y330817D01*
X96642Y250000D02*
X104417Y242224D01*
Y238855D02*
Y242224D01*
X82664Y250000D02*
X96642D01*
X87980Y235249D02*
X94279Y228949D01*
X136307Y212593D02*
X151476Y227763D01*
X107567Y212593D02*
X136307D01*
X152062Y249213D02*
X158858D01*
X151476Y248627D02*
X152062Y249213D01*
X158858D02*
X161614D01*
X151476Y227763D02*
Y248627D01*
X137106Y247638D02*
X138681Y249213D01*
X137106Y222407D02*
Y247638D01*
X138681Y249213D02*
X144193D01*
X146949D01*
X129261Y214561D02*
X137106Y222407D01*
X107567Y214561D02*
X129261D01*
X350344Y102510D02*
X350984Y101870D01*
X241732Y103150D02*
X242372Y102510D01*
X350344D01*
X79350Y203175D02*
X80344D01*
X83856Y206687D02*
X88866D01*
X80344Y203175D02*
X83856Y206687D01*
X389970Y330817D02*
Y355850D01*
X134921Y314308D02*
X209190D01*
X110924Y216530D02*
X115808Y221413D01*
X107567Y216530D02*
X110924D01*
X102154Y206687D02*
X107567D01*
X51575Y173228D02*
X51673Y173327D01*
X38878Y173130D02*
X38976Y173228D01*
X102154Y219975D02*
Y223440D01*
X110716Y232003D01*
X79035Y208656D02*
X88866D01*
X79041Y212593D02*
X88866D01*
X84616Y214561D02*
X88866D01*
X82210Y216967D02*
X84616Y214561D01*
X98216Y201274D02*
Y210624D01*
X102154Y206687D01*
X96248Y215826D02*
X96621Y215453D01*
X96248Y215826D02*
Y219975D01*
X98185Y199606D02*
Y201242D01*
X98216Y201274D01*
X76673Y216967D02*
X82210D01*
X98064Y229823D02*
X98130Y229757D01*
X110716Y232003D02*
Y238855D01*
X101608Y229823D02*
X101673Y229757D01*
D32*
X126673Y205610D02*
D03*
Y199311D02*
D03*
X120374Y205413D02*
D03*
Y199114D02*
D03*
Y227713D02*
D03*
Y221413D02*
D03*
D36*
X95460Y239252D02*
D03*
X87980D02*
D03*
D37*
X51703Y208921D02*
D03*
Y201441D02*
D03*
X51673Y173327D02*
D03*
Y180807D02*
D03*
X51870Y249803D02*
D03*
Y257283D02*
D03*
X50590Y225197D02*
D03*
Y232677D02*
D03*
D72*
X241732Y153150D02*
D03*
Y143150D02*
D03*
Y133150D02*
D03*
Y123150D02*
D03*
Y113150D02*
D03*
Y103150D02*
D03*
Y93150D02*
D03*
Y83150D02*
D03*
Y73150D02*
D03*
Y63150D02*
D03*
Y53150D02*
D03*
Y43150D02*
D03*
Y33150D02*
D03*
Y23150D02*
D03*
Y13150D02*
D03*
X141732D02*
D03*
Y23150D02*
D03*
Y33150D02*
D03*
Y43150D02*
D03*
Y53150D02*
D03*
Y63150D02*
D03*
Y73150D02*
D03*
Y83150D02*
D03*
Y93150D02*
D03*
Y103150D02*
D03*
Y113150D02*
D03*
Y123150D02*
D03*
Y133150D02*
D03*
Y143150D02*
D03*
Y153150D02*
D03*
D77*
X439665Y15650D02*
D03*
X19539Y375984D02*
D03*
X438976Y378839D02*
D03*
D84*
X51709Y208915D02*
X58155D01*
X51703Y208921D02*
X51709Y208915D01*
X58415Y208733D02*
X78958D01*
X58155Y208915D02*
X58337Y208733D01*
X70151Y173327D02*
X91901Y195077D01*
X58415Y173327D02*
X70151D01*
X58465Y249705D02*
X67562D01*
X91541Y225726D01*
X50579Y225209D02*
X50691Y225096D01*
X56241D01*
X56250Y225087D01*
X44378Y225209D02*
X50579D01*
X39272Y230315D02*
X44378Y225209D01*
X56262Y225098D02*
X58152D01*
X56250Y225087D02*
X56262Y225098D01*
X70658Y212593D02*
X79041D01*
X58152Y225098D02*
X70658Y212593D01*
X47205Y208917D02*
X51700D01*
X51703Y208921D01*
X38878Y200591D02*
X47205Y208917D01*
X38878Y192815D02*
Y200591D01*
X39518Y249754D02*
X51870D01*
X58415D01*
X51673Y173327D02*
X58415D01*
X38976Y173228D02*
X51575D01*
X39272Y250000D02*
X39518Y249754D01*
X58415D02*
X58465Y249705D01*
D88*
X93351Y190136D02*
X96248Y193033D01*
Y201274D01*
X102154Y195080D02*
X103051Y194182D01*
X102154Y195080D02*
Y201274D01*
X100185Y189665D02*
Y201274D01*
D89*
X416339Y230315D02*
D03*
Y210630D02*
D03*
X347736Y39665D02*
D03*
X328051D02*
D03*
X38091Y39370D02*
D03*
Y59055D02*
D03*
X104921Y39173D02*
D03*
X85236D02*
D03*
X38386Y113878D02*
D03*
X403051Y39934D02*
D03*
X416142Y146457D02*
D03*
X38878Y173130D02*
D03*
X39272Y230315D02*
D03*
X389970Y355850D02*
D03*
X39224Y318110D02*
D03*
X232087Y355905D02*
D03*
D90*
X416339Y190945D02*
D03*
X38091Y78740D02*
D03*
X38386Y133563D02*
D03*
X416142Y126772D02*
D03*
X38878Y192815D02*
D03*
X39272Y250000D02*
D03*
X39224Y337795D02*
D03*
D91*
X308366Y39665D02*
D03*
X65551Y39173D02*
D03*
X383366Y39934D02*
D03*
X409655Y355850D02*
D03*
X251772Y355905D02*
D03*
D92*
X82087Y319390D02*
D03*
Y339075D02*
D03*
D93*
X172382Y214567D02*
D03*
X182382D02*
D03*
X192382D02*
D03*
X202382D02*
D03*
X212382D02*
D03*
X274311Y52638D02*
D03*
Y62638D02*
D03*
Y72638D02*
D03*
X350984Y111870D02*
D03*
Y101870D02*
D03*
X297578Y73268D02*
D03*
Y83268D02*
D03*
X84449Y64311D02*
D03*
Y74311D02*
D03*
X310335Y83622D02*
D03*
Y73622D02*
D03*
X144193Y259252D02*
D03*
Y249252D02*
D03*
X158858Y259252D02*
D03*
Y249252D02*
D03*
X264665Y208850D02*
D03*
X274665D02*
D03*
X312972Y209012D02*
D03*
X322972D02*
D03*
X272441Y162461D02*
D03*
X112303Y164035D02*
D03*
X114075Y103789D02*
D03*
X274311Y23150D02*
D03*
D94*
X162382Y214567D02*
D03*
X284665Y208850D02*
D03*
X332972Y209012D02*
D03*
D95*
X274311Y82638D02*
D03*
X350984Y91870D02*
D03*
X297578Y93268D02*
D03*
X84449Y84311D02*
D03*
X310335Y63622D02*
D03*
X144193Y239252D02*
D03*
X158858D02*
D03*
X272441Y152461D02*
D03*
X112303Y154035D02*
D03*
X114075Y113789D02*
D03*
X274311Y33150D02*
D03*
D96*
X381037Y78106D02*
D03*
X8990Y7240D02*
D03*
X20801D02*
D03*
X8990Y19051D02*
D03*
X20801D02*
D03*
X87980Y245202D02*
D03*
X110138Y80216D02*
D03*
X116929Y58150D02*
D03*
X141732Y180610D02*
D03*
X154331Y202658D02*
D03*
X154035Y209941D02*
D03*
X209071Y221850D02*
D03*
X196828D02*
D03*
X187008D02*
D03*
X162382D02*
D03*
X174902D02*
D03*
X133006Y37257D02*
D03*
X130610Y48150D02*
D03*
X127101Y58150D02*
D03*
X383331Y318352D02*
D03*
X379677Y315053D02*
D03*
X375801Y311598D02*
D03*
X386344Y322370D02*
D03*
X389237Y325263D02*
D03*
X392446Y328157D02*
D03*
X382390Y327784D02*
D03*
X378695Y324318D02*
D03*
X375457Y321109D02*
D03*
X393237Y343039D02*
D03*
X386248D02*
D03*
X393237Y337724D02*
D03*
X386248D02*
D03*
X393237Y332409D02*
D03*
X386248D02*
D03*
X223377Y323562D02*
D03*
X219791Y320129D02*
D03*
X216339Y316732D02*
D03*
X213287Y313386D02*
D03*
X209599Y310924D02*
D03*
X222264Y332087D02*
D03*
X218602Y328740D02*
D03*
X214469Y324606D02*
D03*
X210359Y321075D02*
D03*
X205118Y317913D02*
D03*
Y310924D02*
D03*
X199803Y317913D02*
D03*
Y310924D02*
D03*
X194488Y317913D02*
D03*
Y310924D02*
D03*
X189173Y317913D02*
D03*
Y310924D02*
D03*
X183858Y317913D02*
D03*
Y310924D02*
D03*
X178543Y317913D02*
D03*
Y310924D02*
D03*
X173228Y317913D02*
D03*
Y310924D02*
D03*
X167913Y317913D02*
D03*
Y310924D02*
D03*
X162598Y317913D02*
D03*
Y310924D02*
D03*
X157283Y317913D02*
D03*
Y310924D02*
D03*
X371457Y318110D02*
D03*
Y311121D02*
D03*
X366142Y318110D02*
D03*
Y311121D02*
D03*
X360827Y318110D02*
D03*
Y311121D02*
D03*
X355512Y318110D02*
D03*
Y311121D02*
D03*
X350197Y318110D02*
D03*
Y311121D02*
D03*
X344882Y318110D02*
D03*
Y311121D02*
D03*
X339567Y318110D02*
D03*
Y311121D02*
D03*
X334252Y318110D02*
D03*
Y311121D02*
D03*
X328937Y318110D02*
D03*
Y311121D02*
D03*
X323622D02*
D03*
X318307D02*
D03*
X323622Y318110D02*
D03*
X318307D02*
D03*
X7480Y275197D02*
D03*
X20801Y276181D02*
D03*
X32612D02*
D03*
X44423Y277157D02*
D03*
X440093Y361571D02*
D03*
X445998Y349760D02*
D03*
X440093Y337949D02*
D03*
X445998Y326138D02*
D03*
X440093Y314327D02*
D03*
X445998Y302516D02*
D03*
X440093Y290704D02*
D03*
X445998Y278893D02*
D03*
X440093Y267083D02*
D03*
X445998Y255272D02*
D03*
X440093Y243460D02*
D03*
X445998Y231649D02*
D03*
X440093Y219838D02*
D03*
X445998Y208027D02*
D03*
X440093Y196216D02*
D03*
X445998Y184405D02*
D03*
X440093Y172594D02*
D03*
X445998Y160783D02*
D03*
X440093Y148972D02*
D03*
X445998Y137161D02*
D03*
X440093Y125350D02*
D03*
X445998Y113539D02*
D03*
X440093Y101728D02*
D03*
X445998Y89917D02*
D03*
X440093Y78106D02*
D03*
X445998Y66295D02*
D03*
X440093Y54484D02*
D03*
X445998Y42673D02*
D03*
X440093Y30862D02*
D03*
X428281Y361571D02*
D03*
X434187Y349760D02*
D03*
X428281Y337949D02*
D03*
X434187Y326138D02*
D03*
X428281Y314327D02*
D03*
X434187Y302516D02*
D03*
X428281Y290704D02*
D03*
X434187Y278893D02*
D03*
X428281Y267083D02*
D03*
X434187Y255272D02*
D03*
X428281Y243460D02*
D03*
X434187Y231649D02*
D03*
X428281Y219838D02*
D03*
X434187Y208027D02*
D03*
X428281Y196216D02*
D03*
X434187Y184405D02*
D03*
X428281Y172594D02*
D03*
X434187Y160783D02*
D03*
X428281Y148972D02*
D03*
X434187Y137161D02*
D03*
X428281Y125350D02*
D03*
X434187Y113539D02*
D03*
X428281Y101728D02*
D03*
X434187Y89917D02*
D03*
X428281Y78106D02*
D03*
X434187Y66295D02*
D03*
X428281Y54484D02*
D03*
X434187Y42673D02*
D03*
X428281Y30862D02*
D03*
Y7240D02*
D03*
X416470Y385193D02*
D03*
X422376Y373382D02*
D03*
X416470Y361571D02*
D03*
X422376Y349760D02*
D03*
X416470Y337949D02*
D03*
X422376Y278893D02*
D03*
X416470Y267083D02*
D03*
X422376Y255272D02*
D03*
X416470Y243460D02*
D03*
Y219838D02*
D03*
X422376Y184405D02*
D03*
X416470Y172594D02*
D03*
X422376Y160783D02*
D03*
Y137161D02*
D03*
Y113539D02*
D03*
X416470Y101728D02*
D03*
X422376Y89917D02*
D03*
X416470Y78106D02*
D03*
X422376Y66295D02*
D03*
X416470Y54484D02*
D03*
X422376Y42673D02*
D03*
X416470Y30862D02*
D03*
X422376Y19051D02*
D03*
X416470Y7240D02*
D03*
X410565Y373382D02*
D03*
Y255272D02*
D03*
X404660Y243460D02*
D03*
Y219838D02*
D03*
Y196216D02*
D03*
X410565Y184405D02*
D03*
X404660Y172594D02*
D03*
X410565Y160783D02*
D03*
Y137161D02*
D03*
Y113539D02*
D03*
Y89917D02*
D03*
Y66295D02*
D03*
Y42673D02*
D03*
X404660Y30862D02*
D03*
X410565Y19051D02*
D03*
X404660Y7240D02*
D03*
X398754Y255272D02*
D03*
X392848Y243460D02*
D03*
X398754Y231649D02*
D03*
X392848Y219838D02*
D03*
X398754Y184405D02*
D03*
X392848Y172594D02*
D03*
X398754Y160783D02*
D03*
X392848Y148972D02*
D03*
X398754Y113539D02*
D03*
X392848Y54484D02*
D03*
Y30862D02*
D03*
X398754Y19051D02*
D03*
X392848Y7240D02*
D03*
X386943Y255272D02*
D03*
X381037Y243460D02*
D03*
X386943Y231649D02*
D03*
X381037Y219838D02*
D03*
X386943Y208027D02*
D03*
Y184405D02*
D03*
X381037Y172594D02*
D03*
X386943Y160783D02*
D03*
X381037Y148972D02*
D03*
X386943Y137161D02*
D03*
X381037Y125350D02*
D03*
X386943Y113539D02*
D03*
X381037Y101728D02*
D03*
Y30862D02*
D03*
X386943Y19051D02*
D03*
X381037Y7240D02*
D03*
X375132Y255272D02*
D03*
X369226Y243460D02*
D03*
X375132Y231649D02*
D03*
X369226Y219838D02*
D03*
X375132Y208027D02*
D03*
Y184405D02*
D03*
X369226Y172594D02*
D03*
X375132Y160783D02*
D03*
X369226Y148972D02*
D03*
X375132Y137161D02*
D03*
X369226Y125350D02*
D03*
X375132Y113539D02*
D03*
X369226Y101728D02*
D03*
Y78106D02*
D03*
Y54484D02*
D03*
X375132Y42673D02*
D03*
X369226Y30862D02*
D03*
X375132Y19051D02*
D03*
X369226Y7240D02*
D03*
X363321Y255272D02*
D03*
X357415Y243460D02*
D03*
X363321Y231649D02*
D03*
X357415Y219838D02*
D03*
X363321Y208027D02*
D03*
X357415Y196216D02*
D03*
Y172594D02*
D03*
X363321Y160783D02*
D03*
X357415Y148972D02*
D03*
X363321Y137161D02*
D03*
X357415Y125350D02*
D03*
Y101728D02*
D03*
Y78106D02*
D03*
X363321Y66295D02*
D03*
X357415Y54484D02*
D03*
X363321Y42673D02*
D03*
X357415Y30862D02*
D03*
X363321Y19051D02*
D03*
X357415Y7240D02*
D03*
X351510Y255272D02*
D03*
X345604Y243460D02*
D03*
X351510Y231649D02*
D03*
X345604Y219838D02*
D03*
X351510Y208027D02*
D03*
X345604Y196216D02*
D03*
X351510Y184405D02*
D03*
Y160783D02*
D03*
X345604Y148972D02*
D03*
X351510Y137161D02*
D03*
X345604Y125350D02*
D03*
Y78106D02*
D03*
X351510Y66295D02*
D03*
X345604Y30862D02*
D03*
X351510Y19051D02*
D03*
X345604Y7240D02*
D03*
X339699Y255272D02*
D03*
X333793Y243460D02*
D03*
X339699Y231649D02*
D03*
X333793Y219838D02*
D03*
X339699Y208027D02*
D03*
X333793Y196216D02*
D03*
X339699Y184405D02*
D03*
X333793Y172594D02*
D03*
Y148972D02*
D03*
X339699Y137161D02*
D03*
X333793Y125350D02*
D03*
X339699Y113539D02*
D03*
Y89917D02*
D03*
X333793Y78106D02*
D03*
Y54484D02*
D03*
X339699Y42673D02*
D03*
X333793Y30862D02*
D03*
X339699Y19051D02*
D03*
X333793Y7240D02*
D03*
X327888Y255272D02*
D03*
X321982Y243460D02*
D03*
Y219838D02*
D03*
Y196216D02*
D03*
X327888Y184405D02*
D03*
X321982Y172594D02*
D03*
X327888Y160783D02*
D03*
X321982Y125350D02*
D03*
Y78106D02*
D03*
X327888Y66295D02*
D03*
X321982Y30862D02*
D03*
X327888Y19051D02*
D03*
X321982Y7240D02*
D03*
X316077Y255272D02*
D03*
X310171Y243460D02*
D03*
Y219838D02*
D03*
Y196216D02*
D03*
X316077Y184405D02*
D03*
Y160783D02*
D03*
X310171Y148972D02*
D03*
Y125350D02*
D03*
X316077Y89917D02*
D03*
Y66295D02*
D03*
X310171Y54484D02*
D03*
X316077Y42673D02*
D03*
X310171Y30862D02*
D03*
X316077Y19051D02*
D03*
X310171Y7240D02*
D03*
X304266Y255272D02*
D03*
X298360Y243460D02*
D03*
X304266Y231649D02*
D03*
X298360Y219838D02*
D03*
X304266Y208027D02*
D03*
X298360Y196216D02*
D03*
X304266Y184405D02*
D03*
X298360Y172594D02*
D03*
X304266Y160783D02*
D03*
X298360Y148972D02*
D03*
X304266Y137161D02*
D03*
Y113539D02*
D03*
Y89917D02*
D03*
Y66295D02*
D03*
X298360Y54484D02*
D03*
Y30862D02*
D03*
X304266Y19051D02*
D03*
X298360Y7240D02*
D03*
X292455Y255272D02*
D03*
X286549Y243460D02*
D03*
X292455Y231649D02*
D03*
X286549Y219838D02*
D03*
X292455Y208027D02*
D03*
Y184405D02*
D03*
X286549Y172594D02*
D03*
X292455Y160783D02*
D03*
Y137161D02*
D03*
X286549Y125350D02*
D03*
X292455Y66295D02*
D03*
Y42673D02*
D03*
X286549Y30862D02*
D03*
X292455Y19051D02*
D03*
X286549Y7240D02*
D03*
X280644Y255272D02*
D03*
X274738Y243460D02*
D03*
X280644Y231649D02*
D03*
X274738Y219838D02*
D03*
Y196216D02*
D03*
X280644Y184405D02*
D03*
X274738Y172594D02*
D03*
X280644Y160783D02*
D03*
Y137161D02*
D03*
X274738Y125350D02*
D03*
X280644Y113539D02*
D03*
Y89917D02*
D03*
Y66295D02*
D03*
Y19051D02*
D03*
X274738Y7240D02*
D03*
X268833Y255272D02*
D03*
X262927Y243460D02*
D03*
Y196216D02*
D03*
X268833Y184405D02*
D03*
X262927Y172594D02*
D03*
X268833Y137161D02*
D03*
X262927Y125350D02*
D03*
X268833Y113539D02*
D03*
Y89917D02*
D03*
X262927Y78106D02*
D03*
X268833Y66295D02*
D03*
Y19051D02*
D03*
X262927Y7240D02*
D03*
X257022Y255272D02*
D03*
X251116Y243460D02*
D03*
Y219838D02*
D03*
X257022Y208027D02*
D03*
X251116Y196216D02*
D03*
X257022Y184405D02*
D03*
X251116Y172594D02*
D03*
X257022Y160783D02*
D03*
Y137161D02*
D03*
X251116Y125350D02*
D03*
X257022Y113539D02*
D03*
Y89917D02*
D03*
X251116Y78106D02*
D03*
X257022Y66295D02*
D03*
Y19051D02*
D03*
X251116Y7240D02*
D03*
X239305Y219838D02*
D03*
X245211Y208027D02*
D03*
X239305Y196216D02*
D03*
X245211Y184405D02*
D03*
X239305Y172594D02*
D03*
X245211Y160783D02*
D03*
X239305Y7240D02*
D03*
X227494Y219838D02*
D03*
X233400Y208027D02*
D03*
X227494Y196216D02*
D03*
X233400Y184405D02*
D03*
X227494Y172594D02*
D03*
X233400Y160783D02*
D03*
X227494Y148972D02*
D03*
X233400Y137161D02*
D03*
X227494Y101728D02*
D03*
X233400Y89917D02*
D03*
X227494Y78106D02*
D03*
X233400Y66295D02*
D03*
X227494Y54484D02*
D03*
X233400Y42673D02*
D03*
X227494Y30862D02*
D03*
X233400Y19051D02*
D03*
X227494Y7240D02*
D03*
X215683Y243460D02*
D03*
X221589Y208027D02*
D03*
X215683Y196216D02*
D03*
X221589Y184405D02*
D03*
X215683Y172594D02*
D03*
X221589Y160783D02*
D03*
Y137161D02*
D03*
X215683Y101728D02*
D03*
X221589Y89917D02*
D03*
X215683Y78106D02*
D03*
X221589Y66295D02*
D03*
X215683Y54484D02*
D03*
X221589Y42673D02*
D03*
X215683Y30862D02*
D03*
X221589Y19051D02*
D03*
X215683Y7240D02*
D03*
X209778Y208027D02*
D03*
Y184405D02*
D03*
Y160783D02*
D03*
Y137161D02*
D03*
X203872Y125350D02*
D03*
X209778Y113539D02*
D03*
X203872Y101728D02*
D03*
X209778Y89917D02*
D03*
X203872Y78106D02*
D03*
X209778Y66295D02*
D03*
X203872Y54484D02*
D03*
X209778Y42673D02*
D03*
X203872Y30862D02*
D03*
X209778Y19051D02*
D03*
X203872Y7240D02*
D03*
X197967Y208027D02*
D03*
Y184405D02*
D03*
Y160783D02*
D03*
X192061Y125350D02*
D03*
X197967Y113539D02*
D03*
X192061Y101728D02*
D03*
X197967Y89917D02*
D03*
X192061Y78106D02*
D03*
X197967Y66295D02*
D03*
X192061Y54484D02*
D03*
X197967Y42673D02*
D03*
X192061Y30862D02*
D03*
X197967Y19051D02*
D03*
X192061Y7240D02*
D03*
X186156Y208027D02*
D03*
Y184405D02*
D03*
Y160783D02*
D03*
X180250Y148972D02*
D03*
X186156Y137161D02*
D03*
X180250Y125350D02*
D03*
X186156Y113539D02*
D03*
X180250Y101728D02*
D03*
X186156Y89917D02*
D03*
X180250Y78106D02*
D03*
X186156Y66295D02*
D03*
X180250Y54484D02*
D03*
X186156Y42673D02*
D03*
X180250Y30862D02*
D03*
X186156Y19051D02*
D03*
X180250Y7240D02*
D03*
X168439Y243460D02*
D03*
Y196216D02*
D03*
Y172594D02*
D03*
X174345Y137161D02*
D03*
X168439Y125350D02*
D03*
X174345Y113539D02*
D03*
X168439Y101728D02*
D03*
X174345Y89917D02*
D03*
X168439Y78106D02*
D03*
X174345Y66295D02*
D03*
X168439Y54484D02*
D03*
X174345Y42673D02*
D03*
X168439Y30862D02*
D03*
X174345Y19051D02*
D03*
X168439Y7240D02*
D03*
X156628Y219838D02*
D03*
Y196216D02*
D03*
Y172594D02*
D03*
X162534Y160783D02*
D03*
X156628Y148972D02*
D03*
X162534Y137161D02*
D03*
X156628Y125350D02*
D03*
X162534Y113539D02*
D03*
X156628Y101728D02*
D03*
X162534Y89917D02*
D03*
X156628Y78106D02*
D03*
X162534Y66295D02*
D03*
X156628Y54484D02*
D03*
X162534Y42673D02*
D03*
X156628Y30862D02*
D03*
X162534Y19051D02*
D03*
X156628Y7240D02*
D03*
X150723Y184405D02*
D03*
X144817Y172594D02*
D03*
X150723Y113539D02*
D03*
Y89917D02*
D03*
Y66295D02*
D03*
Y42673D02*
D03*
Y19051D02*
D03*
X144817Y7240D02*
D03*
X138911Y255272D02*
D03*
X133006Y243460D02*
D03*
X138911Y208027D02*
D03*
X133006Y78106D02*
D03*
Y30862D02*
D03*
Y7240D02*
D03*
X127101Y255272D02*
D03*
X121195Y243460D02*
D03*
X127101Y231649D02*
D03*
Y184405D02*
D03*
Y137161D02*
D03*
X121195Y125350D02*
D03*
Y101728D02*
D03*
X127101Y66295D02*
D03*
Y42673D02*
D03*
X121195Y30862D02*
D03*
X127101Y19051D02*
D03*
X121195Y7240D02*
D03*
X115289Y255272D02*
D03*
Y231649D02*
D03*
X109384Y219838D02*
D03*
Y172594D02*
D03*
X115289Y137161D02*
D03*
X109384Y125350D02*
D03*
X115289Y89917D02*
D03*
X109384Y30862D02*
D03*
X115289Y19051D02*
D03*
X109384Y7240D02*
D03*
X103479Y255272D02*
D03*
X97573Y30862D02*
D03*
X103479Y19051D02*
D03*
X97573Y7240D02*
D03*
X85762Y101728D02*
D03*
Y54484D02*
D03*
Y30862D02*
D03*
X91667Y19051D02*
D03*
X85762Y7240D02*
D03*
X79856Y349760D02*
D03*
X73951Y337949D02*
D03*
X79856Y89917D02*
D03*
X73951Y78106D02*
D03*
Y54484D02*
D03*
Y30862D02*
D03*
X79856Y19051D02*
D03*
X73951Y7240D02*
D03*
X68045Y349760D02*
D03*
X62140Y337949D02*
D03*
X68045Y66295D02*
D03*
X62140Y54484D02*
D03*
Y30862D02*
D03*
X68045Y19051D02*
D03*
X62140Y7240D02*
D03*
X56234Y349760D02*
D03*
X50329Y337949D02*
D03*
Y243460D02*
D03*
Y219838D02*
D03*
Y196216D02*
D03*
X56234Y184405D02*
D03*
X50329Y148972D02*
D03*
X56234Y66295D02*
D03*
X50329Y54484D02*
D03*
X56234Y42673D02*
D03*
X50329Y30862D02*
D03*
X56234Y19051D02*
D03*
X50329Y7240D02*
D03*
X38518Y385193D02*
D03*
Y361571D02*
D03*
X44423Y349760D02*
D03*
X38518Y267083D02*
D03*
Y219838D02*
D03*
X44423Y184405D02*
D03*
Y160783D02*
D03*
X38518Y148972D02*
D03*
X44423Y66295D02*
D03*
Y42673D02*
D03*
X38518Y30862D02*
D03*
X44423Y19051D02*
D03*
X38518Y7240D02*
D03*
X32612Y373382D02*
D03*
X26707Y361571D02*
D03*
X32612Y349760D02*
D03*
X26707Y337949D02*
D03*
Y267083D02*
D03*
X32612Y255272D02*
D03*
X26707Y243460D02*
D03*
Y219838D02*
D03*
X32612Y208027D02*
D03*
X26707Y196216D02*
D03*
X32612Y184405D02*
D03*
X26707Y172594D02*
D03*
X32612Y160783D02*
D03*
X26707Y148972D02*
D03*
X32612Y66295D02*
D03*
X26707Y54484D02*
D03*
Y30862D02*
D03*
X32612Y19051D02*
D03*
X14896Y361571D02*
D03*
X20801Y349760D02*
D03*
X14896Y337949D02*
D03*
Y267083D02*
D03*
X20801Y255272D02*
D03*
X14896Y243460D02*
D03*
X20801Y231649D02*
D03*
X14896Y219838D02*
D03*
X20801Y208027D02*
D03*
X14896Y196216D02*
D03*
X20801Y184405D02*
D03*
X14896Y172594D02*
D03*
X20801Y160783D02*
D03*
X14896Y148972D02*
D03*
X20801Y137161D02*
D03*
X14896Y125350D02*
D03*
X20801Y113539D02*
D03*
X14896Y101728D02*
D03*
X20801Y89917D02*
D03*
X14896Y78106D02*
D03*
X20801Y66295D02*
D03*
X14896Y54484D02*
D03*
X20801Y42673D02*
D03*
X14896Y30862D02*
D03*
X8990Y349760D02*
D03*
Y255272D02*
D03*
Y231649D02*
D03*
Y208027D02*
D03*
Y184405D02*
D03*
Y160783D02*
D03*
Y137161D02*
D03*
Y113539D02*
D03*
Y89917D02*
D03*
Y66295D02*
D03*
Y42673D02*
D03*
X112303Y74311D02*
D03*
X93351Y184350D02*
D03*
X192027Y239252D02*
D03*
X339699Y97244D02*
D03*
X341535Y53744D02*
D03*
X340453Y71457D02*
D03*
X311268Y95793D02*
D03*
X287303Y95079D02*
D03*
X361122Y87213D02*
D03*
X99186Y233957D02*
D03*
X89473Y152202D02*
D03*
X56004Y163091D02*
D03*
X89173D02*
D03*
X257755Y28688D02*
D03*
Y57611D02*
D03*
X291240Y108366D02*
D03*
X336909Y61811D02*
D03*
X103479Y177833D02*
D03*
X124583Y195025D02*
D03*
X119499Y194987D02*
D03*
X170374Y233836D02*
D03*
X177953Y238976D02*
D03*
X143494Y229831D02*
D03*
X129250Y226053D02*
D03*
X121504Y275255D02*
D03*
X296850Y279626D02*
D03*
X285323Y279596D02*
D03*
X97424Y301659D02*
D03*
X107764Y301689D02*
D03*
X116240Y280610D02*
D03*
Y276181D02*
D03*
X243701Y280807D02*
D03*
Y276870D02*
D03*
X247638D02*
D03*
X252658Y276780D02*
D03*
X256594Y280717D02*
D03*
Y276780D02*
D03*
X243701Y272933D02*
D03*
X247638D02*
D03*
X252658Y272843D02*
D03*
X256594D02*
D03*
Y285245D02*
D03*
Y289075D02*
D03*
X243701Y285335D02*
D03*
Y289164D02*
D03*
X260197Y354438D02*
D03*
Y358268D02*
D03*
X244449Y354438D02*
D03*
Y358268D02*
D03*
X146106Y310471D02*
D03*
Y319133D02*
D03*
X311713Y319783D02*
D03*
Y311121D02*
D03*
X244449Y370669D02*
D03*
X248386D02*
D03*
X252323D02*
D03*
X256260D02*
D03*
X260197D02*
D03*
X244449Y366732D02*
D03*
Y362795D02*
D03*
X248386Y366732D02*
D03*
X252323D02*
D03*
X256260D02*
D03*
X260197D02*
D03*
X248386Y362795D02*
D03*
X252323D02*
D03*
X256260D02*
D03*
X260197D02*
D03*
X322539Y379626D02*
D03*
X326476D02*
D03*
X330413D02*
D03*
X334350D02*
D03*
X338287D02*
D03*
X322539Y375689D02*
D03*
Y371752D02*
D03*
X326476Y375689D02*
D03*
X330413D02*
D03*
X334350D02*
D03*
X338287D02*
D03*
X326476Y371752D02*
D03*
X330413D02*
D03*
X334350D02*
D03*
X338287D02*
D03*
X174114Y373327D02*
D03*
X170177D02*
D03*
X166240D02*
D03*
X162303D02*
D03*
X174114Y377264D02*
D03*
X170177D02*
D03*
X166240D02*
D03*
X162303D02*
D03*
X158366Y373327D02*
D03*
Y377264D02*
D03*
X174114Y381201D02*
D03*
X170177D02*
D03*
X166240D02*
D03*
X162303D02*
D03*
X158366D02*
D03*
X275708Y370747D02*
D03*
Y364842D02*
D03*
Y358936D02*
D03*
Y353030D02*
D03*
Y347125D02*
D03*
Y341219D02*
D03*
Y335314D02*
D03*
X281613D02*
D03*
X287519D02*
D03*
X293425D02*
D03*
X299330D02*
D03*
X305236D02*
D03*
X311141D02*
D03*
Y341219D02*
D03*
X305236D02*
D03*
X299330D02*
D03*
X293425D02*
D03*
X287519D02*
D03*
X281613D02*
D03*
X311141Y347125D02*
D03*
X305236D02*
D03*
X299330D02*
D03*
X293425D02*
D03*
X287519D02*
D03*
X281613D02*
D03*
X311141Y353030D02*
D03*
X305236D02*
D03*
X299330D02*
D03*
X293425D02*
D03*
X287519D02*
D03*
X281613D02*
D03*
X311141Y358936D02*
D03*
X305236D02*
D03*
X299330D02*
D03*
X293425D02*
D03*
X287519D02*
D03*
X281613D02*
D03*
X311141Y364842D02*
D03*
X305236D02*
D03*
X299330D02*
D03*
X293425D02*
D03*
X287519D02*
D03*
X281613D02*
D03*
X311141Y370747D02*
D03*
X305236D02*
D03*
X299330D02*
D03*
X293425D02*
D03*
X287519D02*
D03*
X281613D02*
D03*
X78146Y191057D02*
D03*
X73019D02*
D03*
X82664Y250000D02*
D03*
X329626Y131201D02*
D03*
X329035Y229528D02*
D03*
X190058Y235335D02*
D03*
X193602Y262500D02*
D03*
X188583D02*
D03*
X193996Y235335D02*
D03*
X100185Y189665D02*
D03*
X109449Y226306D02*
D03*
X114075Y226285D02*
D03*
Y204276D02*
D03*
X300528Y314663D02*
D03*
X134921Y314308D02*
D03*
X116043Y370079D02*
D03*
X121949D02*
D03*
X127854D02*
D03*
X133760D02*
D03*
X139665D02*
D03*
X145571D02*
D03*
X116043Y364173D02*
D03*
X121949D02*
D03*
X127854D02*
D03*
X133760D02*
D03*
X139665D02*
D03*
X145571D02*
D03*
X116043Y358268D02*
D03*
X121949D02*
D03*
X127854D02*
D03*
X133760D02*
D03*
X139665D02*
D03*
X145571D02*
D03*
X116043Y352362D02*
D03*
X121949D02*
D03*
X127854D02*
D03*
X133760D02*
D03*
X139665D02*
D03*
X145571D02*
D03*
X116043Y346457D02*
D03*
X121949D02*
D03*
X127854D02*
D03*
X133760D02*
D03*
X139665D02*
D03*
X145571D02*
D03*
X116043Y340551D02*
D03*
X121949D02*
D03*
X127854D02*
D03*
X133760D02*
D03*
X139665D02*
D03*
X145571D02*
D03*
Y334646D02*
D03*
X139665D02*
D03*
X133760D02*
D03*
X127854D02*
D03*
X121949D02*
D03*
X116043D02*
D03*
X110138D02*
D03*
Y340551D02*
D03*
Y346457D02*
D03*
Y352362D02*
D03*
Y358268D02*
D03*
Y364173D02*
D03*
Y370079D02*
D03*
X103051Y205807D02*
D03*
X99836Y209022D02*
D03*
X74803Y229823D02*
D03*
X78146Y229831D02*
D03*
X99836Y215453D02*
D03*
X103051D02*
D03*
X93405D02*
D03*
X103051Y209022D02*
D03*
Y212238D02*
D03*
X99836Y205807D02*
D03*
Y212238D02*
D03*
X96621Y205807D02*
D03*
Y209022D02*
D03*
Y212238D02*
D03*
Y215453D02*
D03*
X93405Y209022D02*
D03*
Y212238D02*
D03*
Y205807D02*
D03*
X62121Y277887D02*
D03*
X84055D02*
D03*
X70341Y271867D02*
D03*
X76361D02*
D03*
X64320D02*
D03*
X82382D02*
D03*
X64320Y265846D02*
D03*
X70341D02*
D03*
X76361D02*
D03*
X82382D02*
D03*
D105*
X69095Y225295D02*
D03*
X75394D02*
D03*
X110716Y238855D02*
D03*
X104417D02*
D03*
X67335Y195607D02*
D03*
X73634D02*
D03*
D106*
X58415Y205190D02*
D03*
Y208733D02*
D03*
X58415Y176870D02*
D03*
Y173327D02*
D03*
X58465Y253248D02*
D03*
Y249705D02*
D03*
X56250Y228630D02*
D03*
Y225087D02*
D03*
D107*
X98064Y229823D02*
D03*
X101608D02*
D03*
D108*
X107567Y216530D02*
D03*
Y214561D02*
D03*
Y212593D02*
D03*
Y210624D02*
D03*
Y208656D02*
D03*
Y206687D02*
D03*
Y204719D02*
D03*
X88866D02*
D03*
Y206687D02*
D03*
Y208656D02*
D03*
Y210624D02*
D03*
Y212593D02*
D03*
Y214561D02*
D03*
Y216530D02*
D03*
D109*
X92311Y219975D02*
D03*
X94279D02*
D03*
X96248D02*
D03*
X98216D02*
D03*
X100185D02*
D03*
X102154D02*
D03*
X104122D02*
D03*
Y201274D02*
D03*
X102154D02*
D03*
X98216D02*
D03*
X96248D02*
D03*
X94279D02*
D03*
X92311D02*
D03*
X100185D02*
D03*
D110*
X98216Y210624D02*
D03*
M02*
