G04*
G04 #@! TF.GenerationSoftware,Altium Limited,Altium Designer,22.10.1 (41)*
G04*
G04 Layer_Color=128*
%FSLAX25Y25*%
%MOIN*%
G70*
G04*
G04 #@! TF.SameCoordinates,F8C157B4-DA96-4F04-9901-D09C045D4249*
G04*
G04*
G04 #@! TF.FilePolarity,Positive*
G04*
G01*
G75*
%ADD32R,0.03937X0.03740*%
%ADD36R,0.03150X0.05118*%
%ADD37R,0.05118X0.03150*%
%ADD105R,0.03740X0.03937*%
%ADD106R,0.02480X0.02323*%
%ADD107R,0.02323X0.02480*%
G04:AMPARAMS|DCode=108|XSize=37.8mil|YSize=10.63mil|CornerRadius=1.33mil|HoleSize=0mil|Usage=FLASHONLY|Rotation=180.000|XOffset=0mil|YOffset=0mil|HoleType=Round|Shape=RoundedRectangle|*
%AMROUNDEDRECTD108*
21,1,0.03780,0.00797,0,0,180.0*
21,1,0.03514,0.01063,0,0,180.0*
1,1,0.00266,-0.01757,0.00399*
1,1,0.00266,0.01757,0.00399*
1,1,0.00266,0.01757,-0.00399*
1,1,0.00266,-0.01757,-0.00399*
%
%ADD108ROUNDEDRECTD108*%
G04:AMPARAMS|DCode=109|XSize=37.8mil|YSize=10.63mil|CornerRadius=1.33mil|HoleSize=0mil|Usage=FLASHONLY|Rotation=270.000|XOffset=0mil|YOffset=0mil|HoleType=Round|Shape=RoundedRectangle|*
%AMROUNDEDRECTD109*
21,1,0.03780,0.00797,0,0,270.0*
21,1,0.03514,0.01063,0,0,270.0*
1,1,0.00266,-0.00399,-0.01757*
1,1,0.00266,-0.00399,0.01757*
1,1,0.00266,0.00399,0.01757*
1,1,0.00266,0.00399,-0.01757*
%
%ADD109ROUNDEDRECTD109*%
D32*
X126673Y205610D02*
D03*
Y199311D02*
D03*
X120374Y205413D02*
D03*
Y199114D02*
D03*
Y227713D02*
D03*
Y221413D02*
D03*
D36*
X95460Y239252D02*
D03*
X87980D02*
D03*
D37*
X51703Y208921D02*
D03*
Y201441D02*
D03*
X51673Y173327D02*
D03*
Y180807D02*
D03*
X51870Y249803D02*
D03*
Y257283D02*
D03*
X50590Y225197D02*
D03*
Y232677D02*
D03*
D105*
X69095Y225295D02*
D03*
X75394D02*
D03*
X110716Y238855D02*
D03*
X104417D02*
D03*
X67335Y195607D02*
D03*
X73634D02*
D03*
D106*
X58415Y205190D02*
D03*
Y208733D02*
D03*
X58415Y176870D02*
D03*
Y173327D02*
D03*
X58465Y253248D02*
D03*
Y249705D02*
D03*
X56250Y228630D02*
D03*
Y225087D02*
D03*
D107*
X98064Y229823D02*
D03*
X101608D02*
D03*
D108*
X107567Y216530D02*
D03*
Y214561D02*
D03*
Y212593D02*
D03*
Y210624D02*
D03*
Y208656D02*
D03*
Y206687D02*
D03*
Y204719D02*
D03*
X88866D02*
D03*
Y206687D02*
D03*
Y208656D02*
D03*
Y210624D02*
D03*
Y212593D02*
D03*
Y214561D02*
D03*
Y216530D02*
D03*
D109*
X92311Y219975D02*
D03*
X94279D02*
D03*
X96248D02*
D03*
X98216D02*
D03*
X100185D02*
D03*
X102154D02*
D03*
X104122D02*
D03*
Y201274D02*
D03*
X102154D02*
D03*
X98216D02*
D03*
X96248D02*
D03*
X94279D02*
D03*
X92311D02*
D03*
X100185D02*
D03*
M02*
