G04*
G04 #@! TF.GenerationSoftware,Altium Limited,Altium Designer,21.9.1 (22)*
G04*
G04 Layer_Color=8388736*
%FSLAX25Y25*%
%MOIN*%
G70*
G04*
G04 #@! TF.SameCoordinates,BA265606-766D-4053-9833-5615DE46E1CD*
G04*
G04*
G04 #@! TF.FilePolarity,Positive*
G04*
G01*
G75*
%ADD11C,0.00394*%
%ADD12C,0.00787*%
%ADD20C,0.00591*%
D11*
X84646Y-11831D02*
X112598D01*
X84646Y-32303D02*
X112598D01*
X84646D02*
Y-11831D01*
X112598Y-32303D02*
Y-11831D01*
X-150984Y-12027D02*
X-123031D01*
X-150984Y-32500D02*
X-123031D01*
X-150984D02*
Y-12027D01*
X-123031Y-32500D02*
Y-12027D01*
X124016Y-28642D02*
X142815D01*
Y-47835D02*
Y-28642D01*
X124016Y-47835D02*
X142815D01*
X124016D02*
Y-28642D01*
X128937Y-27559D02*
Y9449D01*
X115551Y-27559D02*
X128937D01*
X115551D02*
Y9449D01*
X128937D01*
X-108563Y-29921D02*
Y7087D01*
X-121949Y-29921D02*
X-108563D01*
X-121949D02*
Y7087D01*
X-108563D01*
D12*
X99999Y-29417D02*
Y-31516D01*
X98425D01*
Y-30466D01*
Y-31516D01*
X96850D01*
X99999Y-26268D02*
Y-28367D01*
X96850D01*
Y-26268D01*
X98425Y-28367D02*
Y-27318D01*
X99999Y-25219D02*
Y-23120D01*
Y-24169D01*
X96850D01*
Y-22070D02*
Y-21020D01*
Y-21545D01*
X99999D01*
X99474Y-22070D01*
X-110925Y5118D02*
X-116829D01*
Y2166D01*
X-115845Y1183D01*
X-113877D01*
X-112893Y2166D01*
Y5118D01*
X-110925Y-785D02*
X-114861D01*
X-116829Y-2753D01*
X-114861Y-4721D01*
X-110925D01*
X-113877D01*
Y-785D01*
X-116829Y-6689D02*
X-110925D01*
Y-9641D01*
X-111909Y-10625D01*
X-115845D01*
X-116829Y-9641D01*
Y-6689D01*
X-110925Y-16528D02*
Y-12593D01*
X-114861Y-16528D01*
X-115845D01*
X-116829Y-15544D01*
Y-13576D01*
X-115845Y-12593D01*
X-135631Y-29614D02*
Y-31713D01*
X-137205D01*
Y-30663D01*
Y-31713D01*
X-138779D01*
X-135631Y-26465D02*
Y-28564D01*
X-138779D01*
Y-26465D01*
X-137205Y-28564D02*
Y-27514D01*
X-135631Y-25415D02*
Y-23316D01*
Y-24366D01*
X-138779D01*
Y-20168D02*
Y-22267D01*
X-136680Y-20168D01*
X-136156D01*
X-135631Y-20693D01*
Y-21742D01*
X-136156Y-22267D01*
X126575Y7481D02*
X120671D01*
Y4529D01*
X121655Y3545D01*
X123623D01*
X124607Y4529D01*
Y7481D01*
X126575Y1577D02*
X122639D01*
X120671Y-391D01*
X122639Y-2359D01*
X126575D01*
X123623D01*
Y1577D01*
X120671Y-4327D02*
X126575D01*
Y-7278D01*
X125591Y-8262D01*
X121655D01*
X120671Y-7278D01*
Y-4327D01*
X126575Y-10230D02*
Y-12198D01*
Y-11214D01*
X120671D01*
X121655Y-10230D01*
D20*
X135630Y-43735D02*
X132481D01*
Y-45309D01*
X133006Y-45834D01*
X134056D01*
X134580Y-45309D01*
Y-43735D01*
Y-44785D02*
X135630Y-45834D01*
X133006Y-46883D02*
X132481Y-47408D01*
Y-48458D01*
X133006Y-48983D01*
X133531D01*
X134056Y-48458D01*
Y-47933D01*
Y-48458D01*
X134580Y-48983D01*
X135105D01*
X135630Y-48458D01*
Y-47408D01*
X135105Y-46883D01*
X132481Y-50032D02*
Y-52131D01*
X133006D01*
X135105Y-50032D01*
X135630D01*
M02*
