G04*
G04 #@! TF.GenerationSoftware,Altium Limited,Altium Designer,21.9.1 (22)*
G04*
G04 Layer_Physical_Order=4*
G04 Layer_Color=16440176*
%FSLAX25Y25*%
%MOIN*%
G70*
G04*
G04 #@! TF.SameCoordinates,BA265606-766D-4053-9833-5615DE46E1CD*
G04*
G04*
G04 #@! TF.FilePolarity,Positive*
G04*
G01*
G75*
%ADD21C,0.00800*%
%ADD22C,0.01000*%
%ADD126C,0.02362*%
%ADD128C,0.01200*%
%ADD130C,0.01500*%
%ADD131C,0.02500*%
%ADD141C,0.03937*%
%ADD151C,0.01968*%
G36*
X7940Y171741D02*
X15863Y171191D01*
X23752Y170275D01*
X31591Y168997D01*
X39362Y167358D01*
X47049Y165361D01*
X54636Y163012D01*
X62106Y160315D01*
X69444Y157275D01*
X76633Y153900D01*
X83659Y150197D01*
X90506Y146173D01*
X97161Y141837D01*
X103607Y137198D01*
X109833Y132267D01*
X115825Y127053D01*
X121569Y121569D01*
X127053Y115825D01*
X132267Y109833D01*
X137198Y103607D01*
X141837Y97161D01*
X146173Y90506D01*
X150197Y83659D01*
X153900Y76633D01*
X157275Y69444D01*
X160315Y62106D01*
X163012Y54636D01*
X165361Y47049D01*
X167358Y39362D01*
X168997Y31591D01*
X170275Y23752D01*
X171191Y15863D01*
X171741Y7940D01*
X171922Y96D01*
X171903Y0D01*
X171922Y-96D01*
X171741Y-7940D01*
X171191Y-15863D01*
X170275Y-23752D01*
X168997Y-31591D01*
X167358Y-39362D01*
X165361Y-47049D01*
X163012Y-54636D01*
X160315Y-62106D01*
X157275Y-69444D01*
X153900Y-76633D01*
X150197Y-83659D01*
X146173Y-90506D01*
X141837Y-97161D01*
X137198Y-103607D01*
X132267Y-109833D01*
X127053Y-115825D01*
X121569Y-121569D01*
X115825Y-127053D01*
X109833Y-132267D01*
X103607Y-137198D01*
X97161Y-141837D01*
X90506Y-146173D01*
X83659Y-150197D01*
X76633Y-153900D01*
X69444Y-157275D01*
X62106Y-160315D01*
X54636Y-163012D01*
X47049Y-165361D01*
X39362Y-167358D01*
X31591Y-168997D01*
X23752Y-170275D01*
X15863Y-171191D01*
X7940Y-171741D01*
X96Y-171922D01*
X0Y-171903D01*
X-96Y-171922D01*
X-7940Y-171741D01*
X-15863Y-171191D01*
X-23752Y-170275D01*
X-31591Y-168997D01*
X-39362Y-167358D01*
X-47049Y-165361D01*
X-54636Y-163012D01*
X-62106Y-160315D01*
X-69444Y-157275D01*
X-76633Y-153900D01*
X-83659Y-150197D01*
X-90506Y-146173D01*
X-97161Y-141837D01*
X-103607Y-137198D01*
X-109833Y-132267D01*
X-115825Y-127053D01*
X-121569Y-121569D01*
X-127053Y-115825D01*
X-132267Y-109833D01*
X-137198Y-103607D01*
X-141837Y-97161D01*
X-146173Y-90506D01*
X-150197Y-83659D01*
X-153900Y-76633D01*
X-157275Y-69444D01*
X-160315Y-62106D01*
X-163012Y-54636D01*
X-165361Y-47049D01*
X-167358Y-39362D01*
X-168997Y-31591D01*
X-170275Y-23752D01*
X-171191Y-15863D01*
X-171741Y-7940D01*
X-171922Y-96D01*
X-171903Y0D01*
X-171922Y96D01*
X-171741Y7940D01*
X-171191Y15863D01*
X-170275Y23752D01*
X-168997Y31591D01*
X-167358Y39362D01*
X-165361Y47049D01*
X-163012Y54636D01*
X-160315Y62106D01*
X-157275Y69444D01*
X-153900Y76633D01*
X-150197Y83659D01*
X-146173Y90506D01*
X-141837Y97161D01*
X-137198Y103607D01*
X-132267Y109833D01*
X-127053Y115825D01*
X-121569Y121569D01*
X-115825Y127053D01*
X-109833Y132267D01*
X-103607Y137198D01*
X-97161Y141837D01*
X-90506Y146173D01*
X-83659Y150197D01*
X-76633Y153900D01*
X-69444Y157275D01*
X-62106Y160315D01*
X-54636Y163012D01*
X-47049Y165361D01*
X-39362Y167358D01*
X-31591Y168997D01*
X-23752Y170275D01*
X-15863Y171191D01*
X-7940Y171741D01*
X-96Y171922D01*
X0Y171903D01*
X96Y171922D01*
X7940Y171741D01*
D02*
G37*
%LPC*%
G36*
X28760Y165959D02*
X27933D01*
X27168Y165642D01*
X26582Y165057D01*
X26529Y164930D01*
X26030D01*
X25977Y165057D01*
X25392Y165642D01*
X24627Y165959D01*
X23799D01*
X23034Y165642D01*
X22448Y165057D01*
X22318Y164742D01*
X21777D01*
X21646Y165057D01*
X21061Y165642D01*
X20296Y165959D01*
X19468D01*
X18703Y165642D01*
X18118Y165057D01*
X17801Y164292D01*
Y163464D01*
X18118Y162699D01*
X18703Y162114D01*
X19468Y161797D01*
X20296D01*
X21061Y162114D01*
X21646Y162699D01*
X21777Y163014D01*
X22318D01*
X22448Y162699D01*
X23034Y162114D01*
X23799Y161797D01*
X24627D01*
X25392Y162114D01*
X25977Y162699D01*
X26030Y162826D01*
X26529D01*
X26582Y162699D01*
X27168Y162114D01*
X27933Y161797D01*
X28760D01*
X29525Y162114D01*
X30111Y162699D01*
X30428Y163464D01*
Y164292D01*
X30111Y165057D01*
X29525Y165642D01*
X28760Y165959D01*
D02*
G37*
G36*
X15375D02*
X14547D01*
X13782Y165642D01*
X13196Y165057D01*
X12879Y164292D01*
Y163464D01*
X13196Y162699D01*
X13782Y162114D01*
X14547Y161797D01*
X15375D01*
X16139Y162114D01*
X16725Y162699D01*
X17042Y163464D01*
Y164292D01*
X16725Y165057D01*
X16139Y165642D01*
X15375Y165959D01*
D02*
G37*
G36*
X10453D02*
X9625D01*
X8861Y165642D01*
X8275Y165057D01*
X7958Y164292D01*
Y163464D01*
X8275Y162699D01*
X8861Y162114D01*
X9625Y161797D01*
X10453D01*
X11218Y162114D01*
X11804Y162699D01*
X12121Y163464D01*
Y164292D01*
X11804Y165057D01*
X11218Y165642D01*
X10453Y165959D01*
D02*
G37*
G36*
X-46732Y163105D02*
X-47560D01*
X-48324Y162788D01*
X-48910Y162203D01*
X-49227Y161438D01*
Y160610D01*
X-48910Y159845D01*
X-48324Y159259D01*
X-47560Y158942D01*
X-46732D01*
X-45967Y159259D01*
X-45381Y159845D01*
X-45065Y160610D01*
Y161438D01*
X-45381Y162203D01*
X-45967Y162788D01*
X-46732Y163105D01*
D02*
G37*
G36*
X33780Y165073D02*
X32952D01*
X32187Y164756D01*
X31602Y164171D01*
X31285Y163406D01*
Y162578D01*
X31602Y161813D01*
X32187Y161228D01*
X32952Y160911D01*
X33689D01*
X34074Y160533D01*
X34041Y160453D01*
Y159625D01*
X34358Y158861D01*
X34943Y158275D01*
X35708Y157958D01*
X36536D01*
X37301Y158275D01*
X37886Y158861D01*
X38203Y159625D01*
Y160453D01*
X37886Y161218D01*
X37301Y161804D01*
X36536Y162120D01*
X35799D01*
X35414Y162499D01*
X35447Y162578D01*
Y163406D01*
X35130Y164171D01*
X34545Y164756D01*
X33780Y165073D01*
D02*
G37*
G36*
X37028Y157396D02*
X36200D01*
X35435Y157079D01*
X34850Y156494D01*
X34533Y155729D01*
Y154901D01*
X34850Y154136D01*
X35435Y153551D01*
X36200Y153234D01*
X37028D01*
X37793Y153551D01*
X38378Y154136D01*
X38695Y154901D01*
Y155729D01*
X38378Y156494D01*
X37793Y157079D01*
X37028Y157396D01*
D02*
G37*
G36*
X-45748Y156510D02*
X-46575D01*
X-47340Y156193D01*
X-47926Y155608D01*
X-48243Y154843D01*
Y154015D01*
X-47926Y153250D01*
X-47340Y152665D01*
X-46575Y152348D01*
X-45748D01*
X-44983Y152665D01*
X-44397Y153250D01*
X-44080Y154015D01*
Y154843D01*
X-44397Y155608D01*
X-44983Y156193D01*
X-45748Y156510D01*
D02*
G37*
G36*
X-62578Y155821D02*
X-63406D01*
X-64171Y155504D01*
X-64756Y154919D01*
X-65073Y154154D01*
Y153326D01*
X-64756Y152561D01*
X-64171Y151976D01*
X-63406Y151659D01*
X-62578D01*
X-61813Y151976D01*
X-61228Y152561D01*
X-60911Y153326D01*
Y154154D01*
X-61228Y154919D01*
X-61813Y155504D01*
X-62578Y155821D01*
D02*
G37*
G36*
X41556Y155428D02*
X40728D01*
X39963Y155111D01*
X39377Y154525D01*
X39061Y153760D01*
Y152933D01*
X39377Y152168D01*
X39963Y151582D01*
X40728Y151265D01*
X41556D01*
X42321Y151582D01*
X42906Y152168D01*
X43223Y152933D01*
Y153760D01*
X42906Y154525D01*
X42321Y155111D01*
X41556Y155428D01*
D02*
G37*
G36*
X63898Y150408D02*
X63070D01*
X62305Y150091D01*
X61720Y149506D01*
X61403Y148741D01*
Y147913D01*
X61720Y147148D01*
X62305Y146563D01*
X63070Y146246D01*
X63898D01*
X64663Y146563D01*
X65249Y147148D01*
X65565Y147913D01*
Y148741D01*
X65249Y149506D01*
X64663Y150091D01*
X63898Y150408D01*
D02*
G37*
G36*
X-55688Y144207D02*
X-56516D01*
X-57281Y143890D01*
X-57867Y143305D01*
X-58183Y142540D01*
Y141712D01*
X-57867Y140947D01*
X-57281Y140362D01*
X-56516Y140045D01*
X-55688D01*
X-54923Y140362D01*
X-54338Y140947D01*
X-54021Y141712D01*
Y142540D01*
X-54338Y143305D01*
X-54923Y143890D01*
X-55688Y144207D01*
D02*
G37*
G36*
X68504Y140945D02*
X64961D01*
X63386Y139370D01*
Y135827D01*
X64961Y134252D01*
X68504Y134252D01*
X70079Y135827D01*
Y139370D01*
X68504Y140945D01*
D02*
G37*
G36*
X48819D02*
X45276D01*
X43701Y139370D01*
Y135827D01*
X45276Y134252D01*
X48819Y134252D01*
X50394Y135827D01*
Y139370D01*
X48819Y140945D01*
D02*
G37*
G36*
X92146Y137120D02*
X91318D01*
X90553Y136804D01*
X89968Y136218D01*
X89651Y135453D01*
Y134625D01*
X89968Y133861D01*
X90553Y133275D01*
X91318Y132958D01*
X92146D01*
X92911Y133275D01*
X93497Y133861D01*
X93813Y134625D01*
Y135453D01*
X93497Y136218D01*
X92911Y136804D01*
X92146Y137120D01*
D02*
G37*
G36*
X-95846Y134365D02*
X-96674D01*
X-97439Y134048D01*
X-98024Y133462D01*
X-98341Y132697D01*
Y131869D01*
X-98024Y131105D01*
X-97439Y130519D01*
X-96674Y130202D01*
X-95846D01*
X-95081Y130519D01*
X-94496Y131105D01*
X-94179Y131869D01*
Y132697D01*
X-94496Y133462D01*
X-95081Y134048D01*
X-95846Y134365D01*
D02*
G37*
G36*
X-29310Y159955D02*
X-30138D01*
X-30903Y159638D01*
X-31489Y159053D01*
X-31806Y158288D01*
Y157460D01*
X-31489Y156695D01*
X-30903Y156110D01*
X-30609Y155988D01*
X-30617Y155450D01*
X-31198Y155209D01*
X-31784Y154624D01*
X-32101Y153859D01*
Y153031D01*
X-31784Y152266D01*
X-31198Y151681D01*
X-30434Y151364D01*
X-30521Y150900D01*
X-30532D01*
X-31297Y150583D01*
X-31882Y149998D01*
X-32199Y149233D01*
Y148405D01*
X-31882Y147640D01*
X-31297Y147055D01*
X-30863Y146875D01*
Y146334D01*
X-31297Y146154D01*
X-31882Y145569D01*
X-32199Y144804D01*
Y143976D01*
X-31882Y143211D01*
X-31297Y142625D01*
X-30982Y142495D01*
Y141954D01*
X-31297Y141823D01*
X-31882Y141238D01*
X-32199Y140473D01*
Y139645D01*
X-31882Y138880D01*
X-31297Y138295D01*
X-30532Y137978D01*
Y137514D01*
X-31297Y137197D01*
X-31882Y136612D01*
X-32199Y135847D01*
Y135019D01*
X-31882Y134254D01*
X-31297Y133669D01*
X-30532Y133352D01*
X-29704D01*
X-29564Y133410D01*
X-29148Y133132D01*
Y132854D01*
X-28831Y132089D01*
X-28246Y131503D01*
X-27481Y131187D01*
X-26653D01*
X-26119Y131408D01*
X-25737Y131025D01*
X-25900Y130631D01*
Y129803D01*
X-25583Y129038D01*
X-24998Y128452D01*
X-24233Y128135D01*
X-23405D01*
X-22640Y128452D01*
X-22055Y129038D01*
X-21738Y129803D01*
Y130631D01*
X-22055Y131395D01*
X-22640Y131981D01*
X-23405Y132298D01*
X-24233D01*
X-24767Y132077D01*
X-25149Y132459D01*
X-24986Y132854D01*
Y133682D01*
X-25303Y134447D01*
X-25888Y135032D01*
X-26653Y135349D01*
X-27481D01*
X-27621Y135291D01*
X-28037Y135568D01*
Y135847D01*
X-28354Y136612D01*
X-28939Y137197D01*
X-29704Y137514D01*
Y137978D01*
X-28939Y138295D01*
X-28354Y138880D01*
X-28037Y139645D01*
Y140473D01*
X-28354Y141238D01*
X-28939Y141823D01*
X-29254Y141954D01*
Y142495D01*
X-28939Y142625D01*
X-28354Y143211D01*
X-28037Y143976D01*
Y144804D01*
X-28354Y145569D01*
X-28939Y146154D01*
X-29373Y146334D01*
Y146875D01*
X-28939Y147055D01*
X-28354Y147640D01*
X-28037Y148405D01*
Y149233D01*
X-28354Y149998D01*
X-28939Y150583D01*
X-29704Y150900D01*
X-29617Y151364D01*
X-29606D01*
X-28841Y151681D01*
X-28255Y152266D01*
X-27939Y153031D01*
Y153859D01*
X-28255Y154624D01*
X-28841Y155209D01*
X-29135Y155331D01*
X-29127Y155869D01*
X-28546Y156110D01*
X-27960Y156695D01*
X-27643Y157460D01*
Y158288D01*
X-27960Y159053D01*
X-28546Y159638D01*
X-29310Y159955D01*
D02*
G37*
G36*
X39882Y131806D02*
X39055D01*
X38290Y131489D01*
X37704Y130903D01*
X37387Y130138D01*
Y129310D01*
X37704Y128546D01*
X38290Y127960D01*
X39055Y127643D01*
X39882D01*
X40647Y127960D01*
X41233Y128546D01*
X41550Y129310D01*
Y130138D01*
X41233Y130903D01*
X40647Y131489D01*
X39882Y131806D01*
D02*
G37*
G36*
X34075D02*
X33248D01*
X32483Y131489D01*
X31897Y130903D01*
X31580Y130138D01*
Y129310D01*
X31897Y128546D01*
X32483Y127960D01*
X33248Y127643D01*
X34075D01*
X34840Y127960D01*
X35426Y128546D01*
X35743Y129310D01*
Y130138D01*
X35426Y130903D01*
X34840Y131489D01*
X34075Y131806D01*
D02*
G37*
G36*
X28662D02*
X27834D01*
X27069Y131489D01*
X26484Y130903D01*
X26167Y130138D01*
Y129310D01*
X26484Y128546D01*
X27069Y127960D01*
X27834Y127643D01*
X28662D01*
X29427Y127960D01*
X30012Y128546D01*
X30329Y129310D01*
Y130138D01*
X30012Y130903D01*
X29427Y131489D01*
X28662Y131806D01*
D02*
G37*
G36*
X26378Y161024D02*
X-23622D01*
X-25984Y158661D01*
Y136221D01*
X-23735Y133971D01*
Y133746D01*
X-23509D01*
X-22047Y132283D01*
X-18282D01*
X-18229Y131806D01*
X-18994Y131489D01*
X-19579Y130903D01*
X-19896Y130138D01*
Y129310D01*
X-19579Y128546D01*
X-18994Y127960D01*
X-18229Y127643D01*
X-17401D01*
X-16636Y127960D01*
X-16051Y128546D01*
X-15734Y129310D01*
Y130138D01*
X-16051Y130903D01*
X-16636Y131489D01*
X-17401Y131806D01*
X-17348Y132283D01*
X-12278D01*
X-12225Y131806D01*
X-12990Y131489D01*
X-13575Y130903D01*
X-13892Y130138D01*
Y129310D01*
X-13575Y128546D01*
X-12990Y127960D01*
X-12225Y127643D01*
X-11397D01*
X-10632Y127960D01*
X-10047Y128546D01*
X-9730Y129310D01*
Y130138D01*
X-10047Y130903D01*
X-10632Y131489D01*
X-11397Y131806D01*
X-11344Y132283D01*
X-6766D01*
X-6713Y131806D01*
X-7478Y131489D01*
X-8063Y130903D01*
X-8380Y130138D01*
Y129310D01*
X-8063Y128546D01*
X-7478Y127960D01*
X-6713Y127643D01*
X-5885D01*
X-5120Y127960D01*
X-4535Y128546D01*
X-4218Y129310D01*
X-3754D01*
X-3438Y128546D01*
X-2852Y127960D01*
X-2087Y127643D01*
X-1259D01*
X-494Y127960D01*
X-3Y128452D01*
X295Y128507D01*
X593Y128452D01*
X1085Y127960D01*
X1850Y127643D01*
X2678D01*
X3443Y127960D01*
X4028Y128546D01*
X4109Y128742D01*
X4651D01*
X4732Y128546D01*
X5317Y127960D01*
X6082Y127643D01*
X6910D01*
X7675Y127960D01*
X8260Y128546D01*
X8577Y129310D01*
Y130138D01*
X8260Y130903D01*
X7675Y131489D01*
X6910Y131806D01*
X6963Y132283D01*
X11049D01*
X11102Y131806D01*
X10337Y131489D01*
X9752Y130903D01*
X9435Y130138D01*
Y129310D01*
X9752Y128546D01*
X10337Y127960D01*
X11102Y127643D01*
X11930D01*
X12695Y127960D01*
X13280Y128546D01*
X13597Y129310D01*
Y130138D01*
X13280Y130903D01*
X12695Y131489D01*
X11930Y131806D01*
X11983Y132283D01*
X16364D01*
X16417Y131806D01*
X15652Y131489D01*
X15066Y130903D01*
X14750Y130138D01*
Y129310D01*
X15066Y128546D01*
X15652Y127960D01*
X16417Y127643D01*
X17245D01*
X18010Y127960D01*
X18595Y128546D01*
X18912Y129310D01*
Y130138D01*
X18595Y130903D01*
X18010Y131489D01*
X17245Y131806D01*
X17298Y132283D01*
X21974D01*
X22027Y131806D01*
X21262Y131489D01*
X20677Y130903D01*
X20360Y130138D01*
Y129310D01*
X20677Y128546D01*
X21262Y127960D01*
X22027Y127643D01*
X22855D01*
X23620Y127960D01*
X24205Y128546D01*
X24522Y129310D01*
Y130138D01*
X24205Y130903D01*
X23620Y131489D01*
X22855Y131806D01*
X22908Y132283D01*
X27165D01*
X30315Y135433D01*
Y157087D01*
X26378Y161024D01*
D02*
G37*
G36*
X-33051Y123833D02*
X-33878D01*
X-34643Y123516D01*
X-35229Y122931D01*
X-35546Y122166D01*
Y121338D01*
X-35229Y120573D01*
X-34643Y119988D01*
X-33878Y119671D01*
X-33051D01*
X-32286Y119988D01*
X-31700Y120573D01*
X-31383Y121338D01*
Y122166D01*
X-31700Y122931D01*
X-32286Y123516D01*
X-33051Y123833D01*
D02*
G37*
G36*
X115867Y123439D02*
X115039D01*
X114274Y123123D01*
X113689Y122537D01*
X113372Y121772D01*
Y120944D01*
X113689Y120179D01*
X114274Y119594D01*
X115039Y119277D01*
X115867D01*
X116632Y119594D01*
X117217Y120179D01*
X117534Y120944D01*
Y121772D01*
X117217Y122537D01*
X116632Y123123D01*
X115867Y123439D01*
D02*
G37*
G36*
X-69960Y122947D02*
X-70788D01*
X-71553Y122630D01*
X-72138Y122045D01*
X-72455Y121280D01*
Y120452D01*
X-72138Y119687D01*
X-71553Y119102D01*
X-70788Y118785D01*
X-69960D01*
X-69195Y119102D01*
X-68610Y119687D01*
X-68293Y120452D01*
Y121280D01*
X-68610Y122045D01*
X-69195Y122630D01*
X-69960Y122947D01*
D02*
G37*
G36*
X-62185Y120388D02*
X-63012D01*
X-63777Y120071D01*
X-64363Y119486D01*
X-64679Y118721D01*
Y117893D01*
X-64363Y117128D01*
X-63777Y116543D01*
X-63012Y116226D01*
X-62185D01*
X-61420Y116543D01*
X-60834Y117128D01*
X-60517Y117893D01*
Y118721D01*
X-60834Y119486D01*
X-61420Y120071D01*
X-62185Y120388D01*
D02*
G37*
G36*
X73347Y120191D02*
X72519D01*
X71754Y119875D01*
X71169Y119289D01*
X70852Y118524D01*
Y117696D01*
X71169Y116931D01*
X71754Y116346D01*
X72519Y116029D01*
X73347D01*
X74112Y116346D01*
X74697Y116931D01*
X75014Y117696D01*
Y118524D01*
X74697Y119289D01*
X74112Y119875D01*
X73347Y120191D01*
D02*
G37*
G36*
X81516Y119798D02*
X80688D01*
X79923Y119481D01*
X79338Y118895D01*
X79021Y118131D01*
Y117303D01*
X79338Y116538D01*
X79923Y115952D01*
X80688Y115635D01*
X81516D01*
X82281Y115952D01*
X82867Y116538D01*
X83183Y117303D01*
Y118131D01*
X82867Y118895D01*
X82281Y119481D01*
X81516Y119798D01*
D02*
G37*
G36*
X-87775Y116845D02*
X-88603D01*
X-89368Y116528D01*
X-89953Y115943D01*
X-90270Y115178D01*
Y114350D01*
X-89953Y113585D01*
X-89368Y112999D01*
X-88603Y112683D01*
X-87775D01*
X-87010Y112999D01*
X-86425Y113585D01*
X-86108Y114350D01*
Y115178D01*
X-86425Y115943D01*
X-87010Y116528D01*
X-87775Y116845D01*
D02*
G37*
G36*
X111930Y112809D02*
X111102D01*
X110337Y112493D01*
X109751Y111907D01*
X109435Y111142D01*
Y110314D01*
X109751Y109549D01*
X110337Y108964D01*
X111102Y108647D01*
X111930D01*
X112695Y108964D01*
X113280Y109549D01*
X113597Y110314D01*
Y111142D01*
X113280Y111907D01*
X112695Y112493D01*
X111930Y112809D01*
D02*
G37*
G36*
X128170Y108676D02*
X127342D01*
X126577Y108359D01*
X125992Y107773D01*
X125675Y107008D01*
Y106181D01*
X125992Y105416D01*
X126577Y104830D01*
X127342Y104513D01*
X128170D01*
X128935Y104830D01*
X129520Y105416D01*
X129837Y106181D01*
Y107008D01*
X129520Y107773D01*
X128935Y108359D01*
X128170Y108676D01*
D02*
G37*
G36*
X-46732Y108479D02*
X-47560D01*
X-48324Y108162D01*
X-48910Y107577D01*
X-49227Y106812D01*
Y105984D01*
X-48910Y105219D01*
X-48324Y104633D01*
X-47560Y104316D01*
X-46732D01*
X-45967Y104633D01*
X-45381Y105219D01*
X-45065Y105984D01*
Y106812D01*
X-45381Y107577D01*
X-45967Y108162D01*
X-46732Y108479D01*
D02*
G37*
G36*
X87717Y107494D02*
X86889D01*
X86124Y107178D01*
X85539Y106592D01*
X85222Y105827D01*
Y104999D01*
X85539Y104235D01*
X86124Y103649D01*
X86889Y103332D01*
X87717D01*
X88482Y103649D01*
X89067Y104235D01*
X89384Y104999D01*
Y105827D01*
X89067Y106592D01*
X88482Y107178D01*
X87717Y107494D01*
D02*
G37*
G36*
X44213D02*
X43385D01*
X42620Y107178D01*
X42035Y106592D01*
X41718Y105827D01*
Y104999D01*
X42035Y104235D01*
X42620Y103649D01*
X43385Y103332D01*
X44213D01*
X44978Y103649D01*
X45564Y104235D01*
X45880Y104999D01*
Y105827D01*
X45564Y106592D01*
X44978Y107178D01*
X44213Y107494D01*
D02*
G37*
G36*
X-66122Y103951D02*
X-66949D01*
X-67714Y103634D01*
X-68300Y103049D01*
X-68616Y102284D01*
Y101456D01*
X-68300Y100691D01*
X-67714Y100106D01*
X-66949Y99789D01*
X-66122D01*
X-65357Y100106D01*
X-64771Y100691D01*
X-64454Y101456D01*
Y102284D01*
X-64771Y103049D01*
X-65357Y103634D01*
X-66122Y103951D01*
D02*
G37*
G36*
X-35413Y99620D02*
X-36241D01*
X-37006Y99304D01*
X-37591Y98718D01*
X-37908Y97953D01*
Y97125D01*
X-37591Y96360D01*
X-37006Y95775D01*
X-36241Y95458D01*
X-35413D01*
X-34648Y95775D01*
X-34062Y96360D01*
X-33746Y97125D01*
Y97953D01*
X-34062Y98718D01*
X-34648Y99304D01*
X-35413Y99620D01*
D02*
G37*
G36*
X46772Y96569D02*
X45944D01*
X45179Y96253D01*
X44594Y95667D01*
X44277Y94902D01*
Y94074D01*
X44594Y93309D01*
X45179Y92724D01*
X45944Y92407D01*
X46772D01*
X47537Y92724D01*
X48123Y93309D01*
X48439Y94074D01*
Y94902D01*
X48123Y95667D01*
X47537Y96253D01*
X46772Y96569D01*
D02*
G37*
G36*
X-100680Y111076D02*
X-102544D01*
X-104373Y110713D01*
X-106095Y109999D01*
X-107645Y108963D01*
X-108963Y107645D01*
X-109999Y106095D01*
X-110713Y104373D01*
X-111076Y102544D01*
Y100680D01*
X-110713Y98851D01*
X-109999Y97129D01*
X-108963Y95578D01*
X-107645Y94260D01*
X-106095Y93224D01*
X-104373Y92511D01*
X-102544Y92147D01*
X-100680D01*
X-98851Y92511D01*
X-97129Y93224D01*
X-95578Y94260D01*
X-94260Y95578D01*
X-93224Y97129D01*
X-92511Y98851D01*
X-92147Y100680D01*
Y102544D01*
X-92511Y104373D01*
X-93224Y106095D01*
X-94260Y107645D01*
X-95578Y108963D01*
X-97129Y109999D01*
X-98851Y110713D01*
X-100680Y111076D01*
D02*
G37*
G36*
X102542Y111075D02*
X100678D01*
X98849Y110711D01*
X97127Y109998D01*
X95577Y108962D01*
X94259Y107643D01*
X93223Y106093D01*
X92509Y104371D01*
X92146Y102542D01*
Y100678D01*
X92509Y98849D01*
X93223Y97127D01*
X94259Y95577D01*
X95577Y94259D01*
X97127Y93223D01*
X98849Y92509D01*
X100678Y92146D01*
X102542D01*
X104371Y92509D01*
X106093Y93223D01*
X107643Y94259D01*
X108962Y95577D01*
X109998Y97127D01*
X110711Y98849D01*
X111075Y100678D01*
Y102542D01*
X110711Y104371D01*
X109998Y106093D01*
X108962Y107643D01*
X107643Y108962D01*
X106093Y109998D01*
X104371Y110711D01*
X102542Y111075D01*
D02*
G37*
G36*
X-84625Y95979D02*
X-85453D01*
X-86218Y95662D01*
X-86804Y95077D01*
X-87120Y94312D01*
Y93484D01*
X-86804Y92719D01*
X-86218Y92133D01*
X-85453Y91817D01*
X-84625D01*
X-83860Y92133D01*
X-83275Y92719D01*
X-82958Y93484D01*
Y94312D01*
X-83275Y95077D01*
X-83860Y95662D01*
X-84625Y95979D01*
D02*
G37*
G36*
X136986Y99058D02*
X136212Y98956D01*
X135490Y98657D01*
X131910Y96590D01*
X131290Y96115D01*
X130815Y95495D01*
X130516Y94773D01*
X130414Y93999D01*
X130516Y93224D01*
X130815Y92502D01*
X131290Y91883D01*
X131910Y91407D01*
X132632Y91108D01*
X133406Y91006D01*
X134181Y91108D01*
X134902Y91407D01*
X138482Y93474D01*
X139102Y93950D01*
X139578Y94569D01*
X139877Y95291D01*
X139979Y96066D01*
X139877Y96840D01*
X139578Y97562D01*
X139102Y98182D01*
X138482Y98657D01*
X137761Y98956D01*
X136986Y99058D01*
D02*
G37*
G36*
X-118976Y93223D02*
X-119804D01*
X-120569Y92906D01*
X-121154Y92321D01*
X-121471Y91556D01*
Y90728D01*
X-121154Y89963D01*
X-120569Y89377D01*
X-119804Y89061D01*
X-118976D01*
X-118211Y89377D01*
X-117625Y89963D01*
X-117309Y90728D01*
Y91556D01*
X-117625Y92321D01*
X-118211Y92906D01*
X-118976Y93223D01*
D02*
G37*
G36*
X-139940Y88892D02*
X-140768D01*
X-141533Y88575D01*
X-142119Y87990D01*
X-142435Y87225D01*
Y86397D01*
X-142119Y85632D01*
X-141533Y85047D01*
X-140768Y84730D01*
X-139940D01*
X-139175Y85047D01*
X-138590Y85632D01*
X-138273Y86397D01*
Y87225D01*
X-138590Y87990D01*
X-139175Y88575D01*
X-139940Y88892D01*
D02*
G37*
G36*
X-43779Y87022D02*
X-44607D01*
X-45372Y86705D01*
X-45957Y86120D01*
X-46274Y85355D01*
Y84527D01*
X-45957Y83762D01*
X-45372Y83177D01*
X-44607Y82860D01*
X-43779D01*
X-43014Y83177D01*
X-42429Y83762D01*
X-42112Y84527D01*
Y85355D01*
X-42429Y86120D01*
X-43014Y86705D01*
X-43779Y87022D01*
D02*
G37*
G36*
X80729Y84266D02*
X79901D01*
X79136Y83949D01*
X78551Y83364D01*
X78234Y82599D01*
Y81771D01*
X78551Y81006D01*
X79136Y80421D01*
X79901Y80104D01*
X80729D01*
X81494Y80421D01*
X82079Y81006D01*
X82396Y81771D01*
Y82599D01*
X82079Y83364D01*
X81494Y83949D01*
X80729Y84266D01*
D02*
G37*
G36*
X129026Y86547D02*
X128094Y86231D01*
X125366Y84656D01*
X124626Y84007D01*
X124191Y83124D01*
X124127Y82142D01*
X124443Y81209D01*
X125092Y80469D01*
X125975Y80034D01*
X126957Y79969D01*
X127890Y80286D01*
X130617Y81861D01*
X131358Y82510D01*
X131793Y83393D01*
X131858Y84375D01*
X131541Y85307D01*
X130892Y86048D01*
X130009Y86483D01*
X129026Y86547D01*
D02*
G37*
G36*
X113308Y83282D02*
X112480D01*
X111715Y82965D01*
X111129Y82380D01*
X110813Y81615D01*
Y80787D01*
X111129Y80022D01*
X111715Y79436D01*
X112480Y79120D01*
X113308D01*
X114073Y79436D01*
X114658Y80022D01*
X114975Y80787D01*
Y81615D01*
X114658Y82380D01*
X114073Y82965D01*
X113308Y83282D01*
D02*
G37*
G36*
X112225Y78065D02*
X111397D01*
X110632Y77749D01*
X110047Y77163D01*
X109730Y76398D01*
Y75570D01*
X110047Y74805D01*
X110632Y74220D01*
X111397Y73903D01*
X112225D01*
X112990Y74220D01*
X113575Y74805D01*
X113892Y75570D01*
Y76398D01*
X113575Y77163D01*
X112990Y77749D01*
X112225Y78065D01*
D02*
G37*
G36*
X-131082Y75506D02*
X-131910D01*
X-132675Y75190D01*
X-133260Y74604D01*
X-133577Y73839D01*
Y73011D01*
X-133260Y72246D01*
X-132675Y71661D01*
X-131910Y71344D01*
X-131082D01*
X-130317Y71661D01*
X-129732Y72246D01*
X-129415Y73011D01*
Y73839D01*
X-129732Y74604D01*
X-130317Y75190D01*
X-131082Y75506D01*
D02*
G37*
G36*
X-146830Y74620D02*
X-147658D01*
X-148423Y74304D01*
X-149008Y73718D01*
X-149325Y72953D01*
Y72125D01*
X-149008Y71360D01*
X-148423Y70775D01*
X-147658Y70458D01*
X-146830D01*
X-146065Y70775D01*
X-145480Y71360D01*
X-145163Y72125D01*
Y72953D01*
X-145480Y73718D01*
X-146065Y74304D01*
X-146830Y74620D01*
D02*
G37*
G36*
X99331Y73538D02*
X98503D01*
X97738Y73221D01*
X97153Y72636D01*
X96836Y71871D01*
Y71043D01*
X97153Y70278D01*
X97738Y69692D01*
X98503Y69376D01*
X99331D01*
X100096Y69692D01*
X100682Y70278D01*
X100998Y71043D01*
Y71871D01*
X100682Y72636D01*
X100096Y73221D01*
X99331Y73538D01*
D02*
G37*
G36*
X126005Y71766D02*
X125177D01*
X124412Y71449D01*
X123826Y70864D01*
X123509Y70099D01*
Y69271D01*
X123826Y68506D01*
X124412Y67921D01*
X125177Y67604D01*
X126005D01*
X126769Y67921D01*
X127355Y68506D01*
X127672Y69271D01*
Y70099D01*
X127355Y70864D01*
X126769Y71449D01*
X126005Y71766D01*
D02*
G37*
G36*
X25591Y70866D02*
X22047D01*
X20866Y69685D01*
Y65354D01*
X21654Y64567D01*
X25984Y64567D01*
X26772Y65354D01*
Y69685D01*
X25591Y70866D01*
D02*
G37*
G36*
X138574Y70011D02*
X137641Y69695D01*
X134914Y68120D01*
X134174Y67471D01*
X133738Y66588D01*
X133674Y65605D01*
X133990Y64673D01*
X134639Y63933D01*
X135522Y63497D01*
X136505Y63433D01*
X137437Y63749D01*
X140165Y65324D01*
X140905Y65973D01*
X141340Y66856D01*
X141405Y67839D01*
X141088Y68771D01*
X140439Y69511D01*
X139556Y69947D01*
X138574Y70011D01*
D02*
G37*
G36*
X105335Y67435D02*
X104507D01*
X103742Y67119D01*
X103157Y66533D01*
X102840Y65768D01*
Y64940D01*
X103157Y64175D01*
X103742Y63590D01*
X104507Y63273D01*
X105335D01*
X106100Y63590D01*
X106685Y64175D01*
X107002Y64940D01*
Y65768D01*
X106685Y66533D01*
X106100Y67119D01*
X105335Y67435D01*
D02*
G37*
G36*
X153128Y71100D02*
X152353Y70998D01*
X151632Y70699D01*
X148052Y68632D01*
X147432Y68157D01*
X146956Y67537D01*
X146657Y66815D01*
X146555Y66040D01*
X146657Y65266D01*
X146956Y64544D01*
X147432Y63924D01*
X148052Y63449D01*
X148773Y63150D01*
X149548Y63048D01*
X150322Y63150D01*
X151044Y63449D01*
X154624Y65516D01*
X155244Y65991D01*
X155719Y66611D01*
X156018Y67333D01*
X156120Y68107D01*
X156018Y68882D01*
X155719Y69604D01*
X155244Y70223D01*
X154624Y70699D01*
X153902Y70998D01*
X153128Y71100D01*
D02*
G37*
G36*
X-65826Y66550D02*
X-66654D01*
X-67419Y66233D01*
X-68004Y65647D01*
X-68321Y64882D01*
Y64055D01*
X-68004Y63290D01*
X-67419Y62704D01*
X-66654Y62387D01*
X-65826D01*
X-65061Y62704D01*
X-64476Y63290D01*
X-64159Y64055D01*
Y64882D01*
X-64476Y65647D01*
X-65061Y66233D01*
X-65826Y66550D01*
D02*
G37*
G36*
X82589Y66362D02*
X81761D01*
X80997Y66045D01*
X80411Y65460D01*
X80094Y64695D01*
Y63867D01*
X80411Y63102D01*
X80997Y62517D01*
X81761Y62200D01*
X82589D01*
X83354Y62517D01*
X83940Y63102D01*
X84257Y63867D01*
Y64695D01*
X83940Y65460D01*
X83354Y66045D01*
X82589Y66362D01*
D02*
G37*
G36*
X64193Y66254D02*
X63366D01*
X62601Y65938D01*
X62015Y65352D01*
X61698Y64587D01*
Y63759D01*
X62015Y62994D01*
X62601Y62409D01*
X63366Y62092D01*
X64193D01*
X64958Y62409D01*
X65544Y62994D01*
X65861Y63759D01*
Y64587D01*
X65544Y65352D01*
X64958Y65938D01*
X64193Y66254D01*
D02*
G37*
G36*
X-132559Y64483D02*
X-133386D01*
X-134151Y64166D01*
X-134737Y63580D01*
X-135054Y62815D01*
Y61988D01*
X-134737Y61223D01*
X-134151Y60637D01*
X-133386Y60321D01*
X-132559D01*
X-131794Y60637D01*
X-131208Y61223D01*
X-130891Y61988D01*
Y62815D01*
X-131208Y63580D01*
X-131794Y64166D01*
X-132559Y64483D01*
D02*
G37*
G36*
X149347Y60250D02*
X148597D01*
X147905Y59964D01*
X147638Y59697D01*
X147371Y59964D01*
X146678Y60250D01*
X145929D01*
X145236Y59964D01*
X144706Y59434D01*
X144419Y58741D01*
Y57991D01*
X144706Y57299D01*
X145236Y56769D01*
X145929Y56482D01*
X146678D01*
X147371Y56769D01*
X147638Y57036D01*
X147905Y56769D01*
X148597Y56482D01*
X149347D01*
X150039Y56769D01*
X150569Y57299D01*
X150856Y57991D01*
Y58741D01*
X150569Y59434D01*
X150039Y59964D01*
X149347Y60250D01*
D02*
G37*
G36*
X-108051Y62711D02*
X-108879D01*
X-109643Y62394D01*
X-110229Y61809D01*
X-110546Y61044D01*
Y60216D01*
X-110229Y59451D01*
X-109643Y58866D01*
X-108879Y58549D01*
X-108051D01*
X-107286Y58866D01*
X-106700Y59451D01*
X-106384Y60216D01*
Y61044D01*
X-106700Y61809D01*
X-107286Y62394D01*
X-108051Y62711D01*
D02*
G37*
G36*
X133780Y62219D02*
X132952D01*
X132187Y61902D01*
X131602Y61317D01*
X131285Y60552D01*
Y59724D01*
X131602Y58959D01*
X132187Y58373D01*
X132952Y58057D01*
X133780D01*
X134545Y58373D01*
X135130Y58959D01*
X135447Y59724D01*
Y60552D01*
X135130Y61317D01*
X134545Y61902D01*
X133780Y62219D01*
D02*
G37*
G36*
X156221Y62120D02*
X155393D01*
X154628Y61804D01*
X154043Y61218D01*
X153726Y60453D01*
Y59625D01*
X154043Y58860D01*
X154628Y58275D01*
X155393Y57958D01*
X156221D01*
X156986Y58275D01*
X157571Y58860D01*
X157888Y59625D01*
Y60453D01*
X157571Y61218D01*
X156986Y61804D01*
X156221Y62120D01*
D02*
G37*
G36*
X118898Y94216D02*
X118852Y94207D01*
X118484D01*
X118143Y94066D01*
X118098Y94057D01*
X118059Y94031D01*
X117719Y93890D01*
X117458Y93630D01*
X117420Y93604D01*
X117394Y93565D01*
X117133Y93305D01*
X116992Y92965D01*
X116967Y92926D01*
X116957Y92880D01*
X116816Y92540D01*
Y92172D01*
X116807Y92126D01*
Y45276D01*
X116807Y45276D01*
X116967Y44476D01*
X117420Y43798D01*
X162083Y-866D01*
Y-26693D01*
X159546Y-29231D01*
X159093Y-29909D01*
X158933Y-30709D01*
X158933Y-30709D01*
Y-35827D01*
X158942Y-35872D01*
Y-36241D01*
X159083Y-36581D01*
X159093Y-36627D01*
X159118Y-36665D01*
X159259Y-37006D01*
X159520Y-37266D01*
X159546Y-37305D01*
X159584Y-37330D01*
X159845Y-37591D01*
X160185Y-37732D01*
X160224Y-37758D01*
X160269Y-37767D01*
X160610Y-37908D01*
X160978D01*
X161024Y-37917D01*
X161069Y-37908D01*
X161438D01*
X161778Y-37767D01*
X161823Y-37758D01*
X161862Y-37732D01*
X162203Y-37591D01*
X162463Y-37330D01*
X162502Y-37305D01*
X162527Y-37266D01*
X162788Y-37006D01*
X162929Y-36665D01*
X162955Y-36627D01*
X162964Y-36581D01*
X163105Y-36241D01*
Y-35872D01*
X163114Y-35827D01*
Y-31574D01*
X165651Y-29037D01*
X166104Y-28359D01*
X166263Y-27559D01*
Y-15091D01*
X166763Y-14884D01*
X167030Y-15150D01*
X167795Y-15467D01*
X168623D01*
X169387Y-15150D01*
X169973Y-14565D01*
X170290Y-13800D01*
Y-12972D01*
X169973Y-12207D01*
X169387Y-11622D01*
X168623Y-11305D01*
X167795D01*
X167030Y-11622D01*
X166763Y-11888D01*
X166263Y-11681D01*
Y0D01*
X166104Y800D01*
X165651Y1478D01*
X165651Y1478D01*
X120988Y46141D01*
Y57449D01*
X121488Y57656D01*
X121754Y57389D01*
X122519Y57072D01*
X123347D01*
X124112Y57389D01*
X124697Y57975D01*
X125014Y58740D01*
Y59567D01*
X124697Y60332D01*
X124112Y60918D01*
X123347Y61235D01*
X122519D01*
X121754Y60918D01*
X121488Y60651D01*
X120988Y60859D01*
Y92126D01*
X120979Y92172D01*
Y92540D01*
X120838Y92880D01*
X120829Y92926D01*
X120803Y92965D01*
X120662Y93305D01*
X120401Y93565D01*
X120376Y93604D01*
X120337Y93630D01*
X120077Y93890D01*
X119736Y94031D01*
X119697Y94057D01*
X119652Y94066D01*
X119312Y94207D01*
X118943D01*
X118898Y94216D01*
D02*
G37*
G36*
X-155590Y60152D02*
X-156418D01*
X-157183Y59835D01*
X-157768Y59250D01*
X-158085Y58485D01*
Y57657D01*
X-157768Y56892D01*
X-157183Y56307D01*
X-156418Y55990D01*
X-155590D01*
X-154825Y56307D01*
X-154240Y56892D01*
X-153923Y57657D01*
Y58485D01*
X-154240Y59250D01*
X-154825Y59835D01*
X-155590Y60152D01*
D02*
G37*
G36*
X40551Y101697D02*
X40506Y101687D01*
X40137D01*
X39797Y101546D01*
X39751Y101537D01*
X39713Y101512D01*
X39372Y101371D01*
X39112Y101110D01*
X39073Y101084D01*
X39047Y101046D01*
X38787Y100785D01*
X38646Y100445D01*
X38620Y100406D01*
X38611Y100361D01*
X38470Y100020D01*
Y99652D01*
X38461Y99606D01*
Y75486D01*
X24045Y61071D01*
X22065D01*
X20884Y59889D01*
Y55559D01*
X21671Y54771D01*
X26002Y54771D01*
X26790Y55559D01*
Y57850D01*
X26851Y57932D01*
X27084Y58197D01*
X42029Y73143D01*
X42482Y73821D01*
X42641Y74621D01*
Y99606D01*
X42632Y99652D01*
Y100020D01*
X42491Y100361D01*
X42482Y100406D01*
X42456Y100445D01*
X42315Y100785D01*
X42055Y101046D01*
X42029Y101084D01*
X41991Y101110D01*
X41730Y101371D01*
X41390Y101512D01*
X41351Y101537D01*
X41306Y101546D01*
X40965Y101687D01*
X40597D01*
X40551Y101697D01*
D02*
G37*
G36*
X37028Y51687D02*
X36200D01*
X35435Y51371D01*
X34850Y50785D01*
X34533Y50020D01*
Y49192D01*
X34850Y48427D01*
X35435Y47842D01*
X36200Y47525D01*
X37028D01*
X37793Y47842D01*
X38378Y48427D01*
X38695Y49192D01*
Y50020D01*
X38378Y50785D01*
X37793Y51371D01*
X37028Y51687D01*
D02*
G37*
G36*
X22461Y49719D02*
X21633D01*
X20868Y49402D01*
X20283Y48817D01*
X19966Y48052D01*
Y47224D01*
X20283Y46459D01*
X20868Y45873D01*
X21633Y45557D01*
X22461D01*
X23226Y45873D01*
X23811Y46459D01*
X24128Y47224D01*
Y48052D01*
X23811Y48817D01*
X23226Y49402D01*
X22461Y49719D01*
D02*
G37*
G36*
X-133149Y48932D02*
X-133977D01*
X-134742Y48615D01*
X-135327Y48029D01*
X-135644Y47264D01*
Y46436D01*
X-135327Y45671D01*
X-134742Y45086D01*
X-133977Y44769D01*
X-133149D01*
X-132384Y45086D01*
X-131799Y45671D01*
X-131482Y46436D01*
Y47264D01*
X-131799Y48029D01*
X-132384Y48615D01*
X-133149Y48932D01*
D02*
G37*
G36*
X83583Y47750D02*
X82755D01*
X81990Y47434D01*
X81405Y46848D01*
X81088Y46083D01*
Y45255D01*
X81405Y44490D01*
X81990Y43905D01*
X82755Y43588D01*
X83583D01*
X84348Y43905D01*
X84934Y44490D01*
X85250Y45255D01*
Y46083D01*
X84934Y46848D01*
X84348Y47434D01*
X83583Y47750D01*
D02*
G37*
G36*
X-5610Y48770D02*
X-7185D01*
X-8242Y48630D01*
X-9227Y48222D01*
X-10073Y47573D01*
X-10722Y46727D01*
X-11130Y45742D01*
X-11270Y44685D01*
X-11130Y43628D01*
X-10722Y42643D01*
X-10073Y41797D01*
X-9227Y41148D01*
X-8242Y40740D01*
X-7185Y40600D01*
X-5610D01*
X-4553Y40740D01*
X-3568Y41148D01*
X-2722Y41797D01*
X-2073Y42643D01*
X-1665Y43628D01*
X-1526Y44685D01*
X-1665Y45742D01*
X-2073Y46727D01*
X-2722Y47573D01*
X-3568Y48222D01*
X-4553Y48630D01*
X-5610Y48770D01*
D02*
G37*
G36*
X58682Y41845D02*
X57854D01*
X57089Y41528D01*
X56503Y40943D01*
X56187Y40178D01*
Y39350D01*
X56503Y38585D01*
X57089Y37999D01*
X57854Y37683D01*
X58682D01*
X59447Y37999D01*
X60032Y38585D01*
X60349Y39350D01*
Y40178D01*
X60032Y40943D01*
X59447Y41528D01*
X58682Y41845D01*
D02*
G37*
G36*
X45591Y41648D02*
X44763D01*
X43998Y41331D01*
X43413Y40746D01*
X43096Y39981D01*
Y39153D01*
X43413Y38388D01*
X43998Y37803D01*
X44763Y37486D01*
X45591D01*
X46356Y37803D01*
X46941Y38388D01*
X47258Y39153D01*
Y39981D01*
X46941Y40746D01*
X46356Y41331D01*
X45591Y41648D01*
D02*
G37*
G36*
X-156279Y40664D02*
X-157107D01*
X-157872Y40347D01*
X-158457Y39761D01*
X-158774Y38997D01*
Y38169D01*
X-158457Y37404D01*
X-157872Y36818D01*
X-157107Y36502D01*
X-156279D01*
X-155514Y36818D01*
X-154929Y37404D01*
X-154612Y38169D01*
Y38997D01*
X-154929Y39761D01*
X-155514Y40347D01*
X-156279Y40664D01*
D02*
G37*
G36*
X32894Y40270D02*
X32066D01*
X31302Y39953D01*
X30716Y39368D01*
X30399Y38603D01*
Y37775D01*
X30716Y37010D01*
X31302Y36425D01*
X32066Y36108D01*
X32894D01*
X33659Y36425D01*
X34245Y37010D01*
X34561Y37775D01*
Y38603D01*
X34245Y39368D01*
X33659Y39953D01*
X32894Y40270D01*
D02*
G37*
G36*
X68524Y42239D02*
X67696D01*
X66931Y41922D01*
X66346Y41336D01*
X66029Y40571D01*
Y39744D01*
X66346Y38979D01*
X66931Y38393D01*
X67696Y38076D01*
X68524D01*
X69289Y38393D01*
X69832Y38936D01*
X69875Y38979D01*
X70310Y38761D01*
X70293Y38721D01*
X70163Y38406D01*
Y37578D01*
X70480Y36813D01*
X71065Y36228D01*
X71830Y35911D01*
X72658D01*
X73423Y36228D01*
X74008Y36813D01*
X74325Y37578D01*
Y38406D01*
X74008Y39171D01*
X73423Y39756D01*
X72658Y40073D01*
X71830D01*
X71065Y39756D01*
X70522Y39213D01*
X70480Y39171D01*
X70044Y39389D01*
X70061Y39428D01*
X70191Y39744D01*
Y40571D01*
X69875Y41336D01*
X69289Y41922D01*
X68524Y42239D01*
D02*
G37*
G36*
X-121338Y39384D02*
X-122166D01*
X-122931Y39067D01*
X-123516Y38482D01*
X-123833Y37717D01*
Y36889D01*
X-123516Y36124D01*
X-122931Y35539D01*
X-122166Y35222D01*
X-121338D01*
X-120573Y35539D01*
X-119988Y36124D01*
X-119671Y36889D01*
Y37717D01*
X-119988Y38482D01*
X-120573Y39067D01*
X-121338Y39384D01*
D02*
G37*
G36*
X-131771Y38498D02*
X-132599D01*
X-133364Y38182D01*
X-133949Y37596D01*
X-134266Y36831D01*
Y36003D01*
X-133949Y35239D01*
X-133364Y34653D01*
X-132599Y34336D01*
X-131771D01*
X-131006Y34653D01*
X-130421Y35239D01*
X-130104Y36003D01*
Y36831D01*
X-130421Y37596D01*
X-131006Y38182D01*
X-131771Y38498D01*
D02*
G37*
G36*
X146871Y37514D02*
X146043D01*
X145278Y37197D01*
X144692Y36612D01*
X144376Y35847D01*
Y35019D01*
X144692Y34254D01*
X145278Y33669D01*
X146043Y33352D01*
X146871D01*
X147635Y33669D01*
X148221Y34254D01*
X148538Y35019D01*
Y35847D01*
X148221Y36612D01*
X147635Y37197D01*
X146871Y37514D01*
D02*
G37*
G36*
X-49606Y38625D02*
X-94488D01*
X-94956Y38532D01*
X-95353Y38267D01*
X-101265Y32356D01*
X-101385Y32380D01*
X-101971Y32965D01*
X-102736Y33282D01*
X-103564D01*
X-104329Y32965D01*
X-104914Y32380D01*
X-105231Y31615D01*
Y30787D01*
X-104914Y30022D01*
X-104329Y29436D01*
X-103564Y29120D01*
X-102736D01*
X-102520Y28976D01*
Y2478D01*
X-102427Y2010D01*
X-102162Y1613D01*
X-99104Y-1445D01*
X-99088Y-1465D01*
X-99050Y-1524D01*
X-99013Y-1592D01*
X-98976Y-1672D01*
X-98940Y-1762D01*
X-98931Y-1790D01*
Y-2382D01*
X-98615Y-3147D01*
X-98029Y-3733D01*
X-97264Y-4050D01*
X-96436D01*
X-95671Y-3733D01*
X-95253Y-3314D01*
X-95227Y-3301D01*
X-95138Y-3261D01*
X-95055Y-3231D01*
X-94981Y-3210D01*
X-94912Y-3195D01*
X-94895Y-3193D01*
X-89545Y-8542D01*
X-89148Y-8808D01*
X-88680Y-8901D01*
X-57987D01*
Y-9075D01*
X-57670Y-9840D01*
X-57084Y-10426D01*
X-56319Y-10742D01*
X-55492D01*
X-54727Y-10426D01*
X-54141Y-9840D01*
X-53824Y-9075D01*
Y-8901D01*
X-33263D01*
X-33237Y-8904D01*
X-33169Y-8918D01*
X-33094Y-8940D01*
X-33012Y-8970D01*
X-32923Y-9009D01*
X-32897Y-9023D01*
X-32478Y-9441D01*
X-31713Y-9758D01*
X-30885D01*
X-30120Y-9441D01*
X-29535Y-8856D01*
X-29218Y-8091D01*
Y-7263D01*
X-29535Y-6498D01*
X-30120Y-5913D01*
X-30885Y-5596D01*
X-31713D01*
X-32478Y-5913D01*
X-32897Y-6332D01*
X-32923Y-6345D01*
X-33012Y-6384D01*
X-33094Y-6414D01*
X-33169Y-6436D01*
X-33237Y-6450D01*
X-33263Y-6454D01*
X-33980D01*
X-34314Y-5954D01*
X-34139Y-5532D01*
Y-4704D01*
X-34456Y-3939D01*
X-35042Y-3354D01*
X-35807Y-3037D01*
X-36634D01*
X-37399Y-3354D01*
X-37759Y-3714D01*
X-37814Y-3734D01*
X-37894Y-3759D01*
X-37975Y-3777D01*
X-38058Y-3791D01*
X-38076Y-3793D01*
X-88427D01*
X-93814Y1594D01*
X-93825Y1607D01*
X-93875Y1676D01*
X-93919Y1747D01*
X-93958Y1820D01*
X-93982Y1873D01*
Y2382D01*
X-94299Y3147D01*
X-94884Y3733D01*
X-95649Y4050D01*
X-96477D01*
X-97242Y3733D01*
X-97827Y3147D01*
X-98144Y2382D01*
Y1763D01*
X-98644Y1555D01*
X-100073Y2985D01*
Y5630D01*
X-99573Y5859D01*
X-98938Y5596D01*
X-98110D01*
X-97345Y5913D01*
X-96759Y6498D01*
X-96443Y7263D01*
Y8091D01*
X-96759Y8856D01*
X-97119Y9216D01*
X-97140Y9271D01*
X-97164Y9350D01*
X-97183Y9431D01*
X-97196Y9515D01*
X-97198Y9533D01*
Y29274D01*
X-94018Y32454D01*
X-93518Y32247D01*
Y31968D01*
X-93201Y31203D01*
X-92616Y30618D01*
X-91851Y30301D01*
X-91023D01*
X-90258Y30618D01*
X-89673Y31203D01*
X-89356Y31968D01*
Y32796D01*
X-89529Y33214D01*
X-89195Y33714D01*
X-74105D01*
X-74100Y33708D01*
X-73670Y33421D01*
X-73163Y33320D01*
X-55005D01*
X-54987Y33318D01*
X-54904Y33305D01*
X-54823Y33286D01*
X-54743Y33262D01*
X-54689Y33242D01*
X-54329Y32881D01*
X-53564Y32565D01*
X-52736D01*
X-51971Y32881D01*
X-51385Y33467D01*
X-51069Y34232D01*
Y35060D01*
X-51325Y35678D01*
X-51086Y36178D01*
X-50113D01*
X-49891Y35956D01*
X-49876Y35936D01*
X-49837Y35878D01*
X-49800Y35809D01*
X-49763Y35730D01*
X-49728Y35639D01*
X-49719Y35612D01*
Y35019D01*
X-49402Y34254D01*
X-48817Y33669D01*
X-48052Y33352D01*
X-47224D01*
X-46459Y33669D01*
X-45873Y34254D01*
X-45557Y35019D01*
Y35847D01*
X-45873Y36612D01*
X-46459Y37197D01*
X-47224Y37514D01*
X-47816D01*
X-47844Y37523D01*
X-47935Y37558D01*
X-48014Y37595D01*
X-48083Y37633D01*
X-48141Y37671D01*
X-48161Y37686D01*
X-48741Y38267D01*
X-49138Y38532D01*
X-49606Y38625D01*
D02*
G37*
G36*
X162520Y35546D02*
X161692D01*
X160927Y35229D01*
X160342Y34643D01*
X160025Y33878D01*
Y33051D01*
X160342Y32286D01*
X160927Y31700D01*
X161692Y31383D01*
X162520D01*
X163285Y31700D01*
X163871Y32286D01*
X164187Y33051D01*
Y33878D01*
X163871Y34643D01*
X163285Y35229D01*
X162520Y35546D01*
D02*
G37*
G36*
X-5610Y38770D02*
X-7185D01*
X-8242Y38630D01*
X-9227Y38222D01*
X-10073Y37573D01*
X-10722Y36727D01*
X-11130Y35742D01*
X-11270Y34685D01*
X-11130Y33628D01*
X-10722Y32643D01*
X-10073Y31797D01*
X-9227Y31148D01*
X-8242Y30740D01*
X-7185Y30601D01*
X-5610D01*
X-4553Y30740D01*
X-3568Y31148D01*
X-2722Y31797D01*
X-2073Y32643D01*
X-1665Y33628D01*
X-1526Y34685D01*
X-1665Y35742D01*
X-2073Y36727D01*
X-2722Y37573D01*
X-3568Y38222D01*
X-4553Y38630D01*
X-5610Y38770D01*
D02*
G37*
G36*
X16162Y32495D02*
X15334D01*
X14569Y32178D01*
X13984Y31592D01*
X13667Y30827D01*
Y29999D01*
X13984Y29234D01*
X14569Y28649D01*
X15334Y28332D01*
X16162D01*
X16927Y28649D01*
X17512Y29234D01*
X17829Y29999D01*
Y30827D01*
X17512Y31592D01*
X16927Y32178D01*
X16162Y32495D01*
D02*
G37*
G36*
X-64547Y31904D02*
X-65375D01*
X-66140Y31587D01*
X-66725Y31002D01*
X-67042Y30237D01*
Y29409D01*
X-66725Y28644D01*
X-66140Y28059D01*
X-65375Y27742D01*
X-64547D01*
X-63782Y28059D01*
X-63196Y28644D01*
X-62880Y29409D01*
Y30237D01*
X-63196Y31002D01*
X-63782Y31587D01*
X-64547Y31904D01*
D02*
G37*
G36*
X-126062Y31018D02*
X-126890D01*
X-127655Y30701D01*
X-128241Y30116D01*
X-128558Y29351D01*
Y28523D01*
X-128241Y27758D01*
X-127655Y27173D01*
X-126890Y26856D01*
X-126062D01*
X-125297Y27173D01*
X-124712Y27758D01*
X-124395Y28523D01*
Y29351D01*
X-124712Y30116D01*
X-125297Y30701D01*
X-126062Y31018D01*
D02*
G37*
G36*
X22461Y30821D02*
X21633D01*
X20868Y30504D01*
X20283Y29919D01*
X19966Y29154D01*
Y28326D01*
X20283Y27561D01*
X20868Y26976D01*
X21633Y26659D01*
X22461D01*
X23226Y26976D01*
X23811Y27561D01*
X24128Y28326D01*
Y29154D01*
X23811Y29919D01*
X23226Y30504D01*
X22461Y30821D01*
D02*
G37*
G36*
X-159921Y28558D02*
X-160749D01*
X-161513Y28241D01*
X-162099Y27655D01*
X-162416Y26890D01*
Y26062D01*
X-162099Y25297D01*
X-161513Y24712D01*
X-160749Y24395D01*
X-159921D01*
X-159156Y24712D01*
X-158570Y25297D01*
X-158254Y26062D01*
Y26890D01*
X-158570Y27655D01*
X-159156Y28241D01*
X-159921Y28558D01*
D02*
G37*
G36*
X-133740Y28262D02*
X-134567D01*
X-135332Y27945D01*
X-135918Y27360D01*
X-136235Y26595D01*
Y25767D01*
X-135918Y25002D01*
X-135332Y24417D01*
X-134567Y24100D01*
X-133740D01*
X-132975Y24417D01*
X-132389Y25002D01*
X-132072Y25767D01*
Y26595D01*
X-132389Y27360D01*
X-132975Y27945D01*
X-133740Y28262D01*
D02*
G37*
G36*
X-109035Y27180D02*
X-109863D01*
X-110628Y26863D01*
X-111213Y26277D01*
X-111530Y25512D01*
Y24685D01*
X-111213Y23920D01*
X-110628Y23334D01*
X-109863Y23017D01*
X-109035D01*
X-108270Y23334D01*
X-107685Y23920D01*
X-107368Y24685D01*
Y25512D01*
X-107685Y26277D01*
X-108270Y26863D01*
X-109035Y27180D01*
D02*
G37*
G36*
X7107Y26687D02*
X6279D01*
X5514Y26371D01*
X4929Y25785D01*
X4612Y25020D01*
Y24192D01*
X4929Y23427D01*
X5514Y22842D01*
X6279Y22525D01*
X7107D01*
X7872Y22842D01*
X8457Y23427D01*
X8774Y24192D01*
Y25020D01*
X8457Y25785D01*
X7872Y26371D01*
X7107Y26687D01*
D02*
G37*
G36*
X-90826Y26589D02*
X-91654D01*
X-92419Y26272D01*
X-93004Y25687D01*
X-93321Y24922D01*
Y24094D01*
X-93004Y23329D01*
X-92419Y22744D01*
X-91654Y22427D01*
X-90826D01*
X-90061Y22744D01*
X-89476Y23329D01*
X-89159Y24094D01*
Y24922D01*
X-89476Y25687D01*
X-90061Y26272D01*
X-90826Y26589D01*
D02*
G37*
G36*
X-117696D02*
X-118524D01*
X-119289Y26272D01*
X-119875Y25687D01*
X-120191Y24922D01*
Y24094D01*
X-119875Y23329D01*
X-119289Y22744D01*
X-118524Y22427D01*
X-117696D01*
X-116931Y22744D01*
X-116346Y23329D01*
X-116029Y24094D01*
Y24922D01*
X-116346Y25687D01*
X-116931Y26272D01*
X-117696Y26589D01*
D02*
G37*
G36*
X-13956Y26195D02*
X-14784D01*
X-15549Y25878D01*
X-16134Y25293D01*
X-16451Y24528D01*
Y23700D01*
X-16134Y22935D01*
X-15549Y22350D01*
X-14784Y22033D01*
X-13956D01*
X-13191Y22350D01*
X-12606Y22935D01*
X-12289Y23700D01*
Y24528D01*
X-12606Y25293D01*
X-13191Y25878D01*
X-13956Y26195D01*
D02*
G37*
G36*
X110650Y30034D02*
X109822D01*
X109057Y29717D01*
X108472Y29132D01*
X108155Y28367D01*
Y27539D01*
X108472Y26774D01*
X109057Y26188D01*
X109372Y26058D01*
Y25517D01*
X109057Y25386D01*
X108472Y24801D01*
X108155Y24036D01*
Y23208D01*
X108472Y22443D01*
X109057Y21858D01*
X109822Y21541D01*
X110650D01*
X111415Y21858D01*
X112001Y22443D01*
X112317Y23208D01*
Y24036D01*
X112001Y24801D01*
X111415Y25386D01*
X111100Y25517D01*
Y26058D01*
X111415Y26188D01*
X112001Y26774D01*
X112317Y27539D01*
Y28367D01*
X112001Y29132D01*
X111415Y29717D01*
X110650Y30034D01*
D02*
G37*
G36*
X77875Y24916D02*
X77047D01*
X76282Y24599D01*
X75696Y24013D01*
X75380Y23249D01*
Y22421D01*
X75696Y21656D01*
X76282Y21070D01*
X77047Y20754D01*
X77875D01*
X78640Y21070D01*
X79225Y21656D01*
X79542Y22421D01*
Y23249D01*
X79225Y24013D01*
X78640Y24599D01*
X77875Y24916D01*
D02*
G37*
G36*
X-1561Y28735D02*
X-11235D01*
Y20635D01*
X-1561D01*
Y28735D01*
D02*
G37*
G36*
X69902Y24719D02*
X69074D01*
X68309Y24402D01*
X67724Y23817D01*
X67407Y23052D01*
Y22224D01*
X67724Y21459D01*
X68309Y20874D01*
X69074Y20557D01*
X69902D01*
X70667Y20874D01*
X71253Y21459D01*
X71569Y22224D01*
Y23052D01*
X71253Y23817D01*
X70667Y24402D01*
X69902Y24719D01*
D02*
G37*
G36*
X41064Y24621D02*
X40236D01*
X39471Y24304D01*
X38885Y23718D01*
X38568Y22953D01*
Y22125D01*
X38885Y21361D01*
X39471Y20775D01*
X40236Y20458D01*
X41064D01*
X41829Y20775D01*
X42414Y21361D01*
X42731Y22125D01*
Y22953D01*
X42414Y23718D01*
X41829Y24304D01*
X41064Y24621D01*
D02*
G37*
G36*
X93426Y24522D02*
X92598D01*
X91833Y24205D01*
X91247Y23620D01*
X90931Y22855D01*
Y22027D01*
X91247Y21262D01*
X91833Y20677D01*
X92598Y20360D01*
X93426D01*
X94191Y20677D01*
X94776Y21262D01*
X95093Y22027D01*
Y22855D01*
X94776Y23620D01*
X94191Y24205D01*
X93426Y24522D01*
D02*
G37*
G36*
X87815Y24424D02*
X86988D01*
X86223Y24107D01*
X85637Y23521D01*
X85321Y22757D01*
Y21929D01*
X85637Y21164D01*
X86223Y20578D01*
X86988Y20261D01*
X87815D01*
X88580Y20578D01*
X89166Y21164D01*
X89483Y21929D01*
Y22757D01*
X89166Y23521D01*
X88580Y24107D01*
X87815Y24424D01*
D02*
G37*
G36*
X33878Y23341D02*
X33051D01*
X32286Y23024D01*
X31700Y22439D01*
X31383Y21674D01*
Y20846D01*
X31700Y20081D01*
X32286Y19496D01*
X33051Y19179D01*
X33878D01*
X34643Y19496D01*
X35229Y20081D01*
X35546Y20846D01*
Y21674D01*
X35229Y22439D01*
X34643Y23024D01*
X33878Y23341D01*
D02*
G37*
G36*
X53465Y22947D02*
X52637D01*
X51872Y22630D01*
X51287Y22045D01*
X50970Y21280D01*
Y20452D01*
X51287Y19687D01*
X51872Y19102D01*
X52637Y18785D01*
X53465D01*
X54230Y19102D01*
X54815Y19687D01*
X55132Y20452D01*
Y21280D01*
X54815Y22045D01*
X54230Y22630D01*
X53465Y22947D01*
D02*
G37*
G36*
X163012Y21766D02*
X162185D01*
X161420Y21449D01*
X160834Y20864D01*
X160517Y20099D01*
Y19271D01*
X160834Y18506D01*
X161420Y17921D01*
X162185Y17604D01*
X163012D01*
X163777Y17921D01*
X164363Y18506D01*
X164680Y19271D01*
Y20099D01*
X164363Y20864D01*
X163777Y21449D01*
X163012Y21766D01*
D02*
G37*
G36*
X16457Y21471D02*
X15629D01*
X14864Y21154D01*
X14279Y20569D01*
X13962Y19804D01*
Y18976D01*
X14279Y18211D01*
X14864Y17626D01*
X15629Y17309D01*
X16457D01*
X17222Y17626D01*
X17808Y18211D01*
X18124Y18976D01*
Y19804D01*
X17808Y20569D01*
X17222Y21154D01*
X16457Y21471D01*
D02*
G37*
G36*
X-91023Y18617D02*
X-91851D01*
X-92616Y18300D01*
X-93201Y17714D01*
X-93518Y16949D01*
Y16122D01*
X-93201Y15357D01*
X-92616Y14771D01*
X-91851Y14454D01*
X-91023D01*
X-90258Y14771D01*
X-89673Y15357D01*
X-89356Y16122D01*
Y16949D01*
X-89673Y17714D01*
X-90258Y18300D01*
X-91023Y18617D01*
D02*
G37*
G36*
X66851Y18420D02*
X66023D01*
X65258Y18103D01*
X64673Y17517D01*
X64356Y16752D01*
Y15925D01*
X64673Y15160D01*
X65258Y14574D01*
X66023Y14257D01*
X66851D01*
X67616Y14574D01*
X68201Y15160D01*
X68518Y15925D01*
Y16752D01*
X68201Y17517D01*
X67616Y18103D01*
X66851Y18420D01*
D02*
G37*
G36*
X-68898Y28346D02*
X-85827D01*
X-87402Y26772D01*
Y5512D01*
X-84646Y2756D01*
X-68898D01*
X-66929Y4724D01*
Y13082D01*
X-66429Y13289D01*
X-66041Y12901D01*
X-65276Y12584D01*
X-64448D01*
X-63683Y12901D01*
X-63098Y13487D01*
X-62781Y14251D01*
Y15079D01*
X-63098Y15844D01*
X-63683Y16430D01*
X-64448Y16746D01*
X-65276D01*
X-66041Y16430D01*
X-66429Y16041D01*
X-66929Y16249D01*
Y26378D01*
X-68898Y28346D01*
D02*
G37*
G36*
X16949Y15861D02*
X16122D01*
X15357Y15544D01*
X14771Y14958D01*
X14454Y14194D01*
Y13366D01*
X14771Y12601D01*
X15357Y12015D01*
X16122Y11698D01*
X16949D01*
X17714Y12015D01*
X18300Y12601D01*
X18617Y13366D01*
Y14194D01*
X18300Y14958D01*
X17714Y15544D01*
X16949Y15861D01*
D02*
G37*
G36*
X-164350Y13006D02*
X-165178D01*
X-165943Y12689D01*
X-166528Y12104D01*
X-166845Y11339D01*
Y10511D01*
X-166528Y9746D01*
X-165943Y9161D01*
X-165178Y8844D01*
X-164350D01*
X-163585Y9161D01*
X-162999Y9746D01*
X-162683Y10511D01*
Y11339D01*
X-162999Y12104D01*
X-163585Y12689D01*
X-164350Y13006D01*
D02*
G37*
G36*
X-53031Y12908D02*
X-53859D01*
X-54624Y12591D01*
X-55209Y12006D01*
X-55526Y11241D01*
Y10413D01*
X-55209Y9648D01*
X-54624Y9063D01*
X-53859Y8746D01*
X-53031D01*
X-52266Y9063D01*
X-51681Y9648D01*
X-51364Y10413D01*
Y11241D01*
X-51681Y12006D01*
X-52266Y12591D01*
X-53031Y12908D01*
D02*
G37*
G36*
X-11889Y12219D02*
X-12717D01*
X-13482Y11902D01*
X-14067Y11317D01*
X-14384Y10552D01*
Y9724D01*
X-14067Y8959D01*
X-13482Y8373D01*
X-12717Y8057D01*
X-11889D01*
X-11124Y8373D01*
X-10539Y8959D01*
X-10222Y9724D01*
Y10552D01*
X-10539Y11317D01*
X-11124Y11902D01*
X-11889Y12219D01*
D02*
G37*
G36*
X42048Y11530D02*
X41220D01*
X40455Y11213D01*
X39870Y10628D01*
X39553Y9863D01*
Y9035D01*
X39870Y8270D01*
X40455Y7685D01*
X41220Y7368D01*
X42048D01*
X42813Y7685D01*
X43398Y8270D01*
X43715Y9035D01*
Y9863D01*
X43398Y10628D01*
X42813Y11213D01*
X42048Y11530D01*
D02*
G37*
G36*
X31319Y10841D02*
X30492D01*
X29727Y10524D01*
X29141Y9939D01*
X28824Y9174D01*
Y8346D01*
X29141Y7581D01*
X29727Y6996D01*
X30492Y6679D01*
X31319D01*
X32084Y6996D01*
X32670Y7581D01*
X32987Y8346D01*
Y9174D01*
X32670Y9939D01*
X32084Y10524D01*
X31319Y10841D01*
D02*
G37*
G36*
X17146Y10546D02*
X16318D01*
X15553Y10229D01*
X14968Y9643D01*
X14651Y8879D01*
Y8051D01*
X14968Y7286D01*
X15553Y6700D01*
X16318Y6384D01*
X17146D01*
X17911Y6700D01*
X18496Y7286D01*
X18813Y8051D01*
Y8879D01*
X18496Y9643D01*
X17911Y10229D01*
X17146Y10546D01*
D02*
G37*
G36*
X67869Y9861D02*
X66914D01*
X66032Y9495D01*
X65357Y8820D01*
X64992Y7938D01*
Y6983D01*
X65241Y6382D01*
X64858Y5999D01*
X64257Y6248D01*
X63302D01*
X62701Y5999D01*
X62318Y6382D01*
X62567Y6983D01*
Y7938D01*
X62202Y8820D01*
X61527Y9495D01*
X60645Y9861D01*
X59690D01*
X58808Y9495D01*
X58133Y8820D01*
X57767Y7938D01*
Y6983D01*
X58016Y6382D01*
X57634Y5999D01*
X57033Y6248D01*
X56078D01*
X55196Y5883D01*
X54520Y5208D01*
X54155Y4326D01*
Y3371D01*
X54520Y2489D01*
X55196Y1814D01*
X56078Y1448D01*
X57033D01*
X57634Y1697D01*
X58016Y1315D01*
X57767Y714D01*
Y-241D01*
X58016Y-842D01*
X57634Y-1225D01*
X57033Y-976D01*
X56078D01*
X55196Y-1341D01*
X54520Y-2017D01*
X54155Y-2899D01*
Y-3853D01*
X54520Y-4735D01*
X55196Y-5411D01*
X56078Y-5776D01*
X57033D01*
X57634Y-5527D01*
X58016Y-5910D01*
X57767Y-6511D01*
Y-7466D01*
X58133Y-8348D01*
X58808Y-9023D01*
X59690Y-9388D01*
X60645D01*
X61527Y-9023D01*
X62202Y-8348D01*
X62567Y-7466D01*
Y-6511D01*
X62318Y-5910D01*
X62701Y-5527D01*
X63302Y-5776D01*
X64257D01*
X64858Y-5527D01*
X65241Y-5910D01*
X64992Y-6511D01*
Y-7466D01*
X65357Y-8348D01*
X66032Y-9023D01*
X66914Y-9388D01*
X67869D01*
X68751Y-9023D01*
X69426Y-8348D01*
X69792Y-7466D01*
Y-6511D01*
X69543Y-5910D01*
X69925Y-5527D01*
X70527Y-5776D01*
X71481D01*
X72363Y-5411D01*
X73039Y-4735D01*
X73404Y-3853D01*
Y-2899D01*
X73039Y-2017D01*
X72363Y-1341D01*
X71481Y-976D01*
X70527D01*
X69925Y-1225D01*
X69543Y-842D01*
X69792Y-241D01*
Y714D01*
X69543Y1315D01*
X69925Y1697D01*
X70527Y1448D01*
X71481D01*
X72363Y1814D01*
X73039Y2489D01*
X73404Y3371D01*
Y4326D01*
X73039Y5208D01*
X72363Y5883D01*
X71481Y6248D01*
X70527D01*
X69925Y5999D01*
X69543Y6382D01*
X69792Y6983D01*
Y7938D01*
X69426Y8820D01*
X68751Y9495D01*
X67869Y9861D01*
D02*
G37*
G36*
X-61791Y8380D02*
X-62619D01*
X-63384Y8063D01*
X-63969Y7478D01*
X-64286Y6713D01*
Y5885D01*
X-63969Y5120D01*
X-63384Y4535D01*
X-62619Y4218D01*
X-61791D01*
X-61026Y4535D01*
X-60440Y5120D01*
X-60124Y5885D01*
Y6713D01*
X-60440Y7478D01*
X-61026Y8063D01*
X-61791Y8380D01*
D02*
G37*
G36*
X101398Y7396D02*
X100570D01*
X99805Y7079D01*
X99220Y6494D01*
X98903Y5729D01*
Y4901D01*
X99220Y4136D01*
X99805Y3551D01*
X100570Y3234D01*
X101398D01*
X102163Y3551D01*
X102749Y4136D01*
X103065Y4901D01*
Y5729D01*
X102749Y6494D01*
X102163Y7079D01*
X101398Y7396D01*
D02*
G37*
G36*
X-16122Y4935D02*
X-16949D01*
X-17714Y4619D01*
X-18300Y4033D01*
X-18617Y3268D01*
Y2440D01*
X-18300Y1675D01*
X-17714Y1090D01*
X-16949Y773D01*
X-16122D01*
X-15357Y1090D01*
X-14771Y1675D01*
X-14454Y2440D01*
Y3268D01*
X-14771Y4033D01*
X-15357Y4619D01*
X-16122Y4935D01*
D02*
G37*
G36*
X-57066Y2868D02*
X-57894D01*
X-58659Y2552D01*
X-59245Y1966D01*
X-59561Y1201D01*
Y373D01*
X-59245Y-391D01*
X-58659Y-977D01*
X-57894Y-1294D01*
X-57066D01*
X-56301Y-977D01*
X-55716Y-391D01*
X-55399Y373D01*
Y1201D01*
X-55716Y1966D01*
X-56301Y2552D01*
X-57066Y2868D01*
D02*
G37*
G36*
X17048Y2180D02*
X16220D01*
X15455Y1863D01*
X14870Y1277D01*
X14553Y512D01*
Y-316D01*
X14870Y-1080D01*
X15455Y-1666D01*
X16220Y-1983D01*
X17048D01*
X17813Y-1666D01*
X18398Y-1080D01*
X18715Y-316D01*
Y512D01*
X18398Y1277D01*
X17813Y1863D01*
X17048Y2180D01*
D02*
G37*
G36*
X-164547Y1786D02*
X-165375D01*
X-166139Y1469D01*
X-166725Y884D01*
X-167042Y119D01*
Y-709D01*
X-166725Y-1474D01*
X-166139Y-2060D01*
X-165375Y-2376D01*
X-164547D01*
X-163782Y-2060D01*
X-163196Y-1474D01*
X-162880Y-709D01*
Y119D01*
X-163196Y884D01*
X-163782Y1469D01*
X-164547Y1786D01*
D02*
G37*
G36*
X86733Y1392D02*
X85905D01*
X85140Y1075D01*
X84555Y490D01*
X84238Y-275D01*
Y-1103D01*
X84555Y-1868D01*
X85140Y-2453D01*
X85905Y-2770D01*
X86733D01*
X87498Y-2453D01*
X88083Y-1868D01*
X88400Y-1103D01*
Y-275D01*
X88083Y490D01*
X87498Y1075D01*
X86733Y1392D01*
D02*
G37*
G36*
X-31082Y1195D02*
X-31910D01*
X-32675Y878D01*
X-33260Y293D01*
X-33577Y-472D01*
Y-1300D01*
X-33260Y-2065D01*
X-32675Y-2650D01*
X-31910Y-2967D01*
X-31082D01*
X-30317Y-2650D01*
X-29732Y-2065D01*
X-29415Y-1300D01*
Y-472D01*
X-29732Y293D01*
X-30317Y878D01*
X-31082Y1195D01*
D02*
G37*
G36*
X102284Y-3529D02*
X101456D01*
X100691Y-3846D01*
X100106Y-4431D01*
X99789Y-5196D01*
Y-6024D01*
X100106Y-6789D01*
X100691Y-7374D01*
X101456Y-7691D01*
X102284D01*
X103049Y-7374D01*
X103634Y-6789D01*
X103951Y-6024D01*
Y-5196D01*
X103634Y-4431D01*
X103049Y-3846D01*
X102284Y-3529D01*
D02*
G37*
G36*
X87623Y-6679D02*
X86795D01*
X86030Y-6996D01*
X85445Y-7581D01*
X85128Y-8346D01*
Y-9174D01*
X85445Y-9939D01*
X86030Y-10525D01*
X86795Y-10841D01*
X87623D01*
X88388Y-10525D01*
X88973Y-9939D01*
X89290Y-9174D01*
Y-8346D01*
X88973Y-7581D01*
X88388Y-6996D01*
X87623Y-6679D01*
D02*
G37*
G36*
X32599Y-7072D02*
X31771D01*
X31006Y-7389D01*
X30421Y-7975D01*
X30104Y-8740D01*
Y-9567D01*
X30421Y-10332D01*
X31006Y-10918D01*
X31771Y-11235D01*
X32599D01*
X33364Y-10918D01*
X33949Y-10332D01*
X34266Y-9567D01*
Y-8740D01*
X33949Y-7975D01*
X33364Y-7389D01*
X32599Y-7072D01*
D02*
G37*
G36*
X44213Y-7269D02*
X43385D01*
X42620Y-7586D01*
X42035Y-8172D01*
X41718Y-8936D01*
Y-9764D01*
X42035Y-10529D01*
X42620Y-11115D01*
X43385Y-11432D01*
X44213D01*
X44978Y-11115D01*
X45564Y-10529D01*
X45880Y-9764D01*
Y-8936D01*
X45564Y-8172D01*
X44978Y-7586D01*
X44213Y-7269D01*
D02*
G37*
G36*
X83485Y22554D02*
X82657D01*
X81892Y22237D01*
X81307Y21651D01*
X80990Y20886D01*
Y20231D01*
X80827Y19960D01*
X80557Y19798D01*
X79901D01*
X79136Y19481D01*
X78551Y18895D01*
X78234Y18131D01*
Y17303D01*
X78551Y16538D01*
X79096Y15992D01*
X79187Y15538D01*
X79474Y15108D01*
X97094Y-2512D01*
X97524Y-2799D01*
X98032Y-2900D01*
X136065D01*
X142276Y-9111D01*
X141937Y-9451D01*
X141620Y-10216D01*
Y-11044D01*
X141937Y-11809D01*
X142522Y-12394D01*
X143287Y-12711D01*
X144115D01*
X144880Y-12394D01*
X145465Y-11809D01*
X145782Y-11044D01*
Y-10763D01*
X146203Y-10646D01*
X146282Y-10642D01*
X146853Y-11213D01*
X147617Y-11530D01*
X148445D01*
X149210Y-11213D01*
X149796Y-10628D01*
X150113Y-9863D01*
Y-9035D01*
X149796Y-8270D01*
X149210Y-7685D01*
X148445Y-7368D01*
X147936D01*
X147883Y-7344D01*
X147810Y-7305D01*
X147739Y-7260D01*
X147670Y-7211D01*
X147657Y-7199D01*
X139126Y1331D01*
X138696Y1618D01*
X138189Y1719D01*
X99368D01*
X91327Y9760D01*
X91510Y10284D01*
X92124Y10539D01*
X92709Y11124D01*
X93026Y11889D01*
Y12717D01*
X92709Y13482D01*
X92124Y14067D01*
X91359Y14384D01*
X90531D01*
X89766Y14067D01*
X89181Y13482D01*
X88926Y12868D01*
X88402Y12685D01*
X84396Y16691D01*
Y18617D01*
X84398Y18635D01*
X84412Y18718D01*
X84430Y18799D01*
X84454Y18879D01*
X84475Y18934D01*
X84835Y19294D01*
X85152Y20058D01*
Y20886D01*
X84835Y21651D01*
X84250Y22237D01*
X83485Y22554D01*
D02*
G37*
G36*
X16949Y-10635D02*
X16122D01*
X15357Y-10951D01*
X14771Y-11537D01*
X14454Y-12302D01*
Y-13130D01*
X14771Y-13895D01*
X15357Y-14480D01*
X16122Y-14797D01*
X16949D01*
X17714Y-14480D01*
X18300Y-13895D01*
X18617Y-13130D01*
Y-12302D01*
X18300Y-11537D01*
X17714Y-10951D01*
X16949Y-10635D01*
D02*
G37*
G36*
X78957Y-13076D02*
X78129D01*
X77364Y-13393D01*
X76779Y-13979D01*
X76462Y-14743D01*
Y-15571D01*
X76779Y-16336D01*
X77364Y-16922D01*
X78129Y-17239D01*
X78957D01*
X79722Y-16922D01*
X80308Y-16336D01*
X80624Y-15571D01*
Y-14743D01*
X80308Y-13979D01*
X79722Y-13393D01*
X78957Y-13076D01*
D02*
G37*
G36*
X-161003Y-13470D02*
X-161831D01*
X-162596Y-13787D01*
X-163182Y-14372D01*
X-163498Y-15137D01*
Y-15965D01*
X-163182Y-16730D01*
X-162596Y-17315D01*
X-161831Y-17632D01*
X-161003D01*
X-160239Y-17315D01*
X-159653Y-16730D01*
X-159336Y-15965D01*
Y-15137D01*
X-159653Y-14372D01*
X-160239Y-13787D01*
X-161003Y-13470D01*
D02*
G37*
G36*
X33288Y-16620D02*
X32460D01*
X31695Y-16937D01*
X31110Y-17522D01*
X30793Y-18287D01*
Y-19115D01*
X31110Y-19880D01*
X31695Y-20465D01*
X32460Y-20782D01*
X33288D01*
X34053Y-20465D01*
X34638Y-19880D01*
X34955Y-19115D01*
Y-18287D01*
X34638Y-17522D01*
X34053Y-16937D01*
X33288Y-16620D01*
D02*
G37*
G36*
X-42499Y-17309D02*
X-43327D01*
X-44092Y-17626D01*
X-44678Y-18211D01*
X-44995Y-18976D01*
Y-19804D01*
X-44678Y-20569D01*
X-44092Y-21154D01*
X-43327Y-21471D01*
X-42499D01*
X-41734Y-21154D01*
X-41149Y-20569D01*
X-40832Y-19804D01*
Y-18976D01*
X-41149Y-18211D01*
X-41734Y-17626D01*
X-42499Y-17309D01*
D02*
G37*
G36*
X-152342Y-17899D02*
X-153170D01*
X-153935Y-18216D01*
X-154520Y-18801D01*
X-154837Y-19566D01*
Y-20394D01*
X-154520Y-21159D01*
X-153935Y-21745D01*
X-153170Y-22061D01*
X-152342D01*
X-151577Y-21745D01*
X-150992Y-21159D01*
X-150675Y-20394D01*
Y-19566D01*
X-150992Y-18801D01*
X-151577Y-18216D01*
X-152342Y-17899D01*
D02*
G37*
G36*
X95257Y-15942D02*
X94507D01*
X93815Y-16229D01*
X93284Y-16759D01*
X92998Y-17451D01*
Y-18201D01*
X93284Y-18893D01*
X93551Y-19160D01*
X93284Y-19427D01*
X92998Y-20120D01*
Y-20869D01*
X93284Y-21562D01*
X93815Y-22092D01*
X94507Y-22379D01*
X95257D01*
X95949Y-22092D01*
X96479Y-21562D01*
X96766Y-20869D01*
Y-20120D01*
X96479Y-19427D01*
X96212Y-19160D01*
X96479Y-18893D01*
X96766Y-18201D01*
Y-17451D01*
X96479Y-16759D01*
X95949Y-16229D01*
X95257Y-15942D01*
D02*
G37*
G36*
X-80590Y-21442D02*
X-81418D01*
X-82183Y-21759D01*
X-82768Y-22345D01*
X-83085Y-23110D01*
Y-23938D01*
X-82768Y-24702D01*
X-82183Y-25288D01*
X-81418Y-25605D01*
X-80590D01*
X-79825Y-25288D01*
X-79240Y-24702D01*
X-78923Y-23938D01*
Y-23110D01*
X-79240Y-22345D01*
X-79825Y-21759D01*
X-80590Y-21442D01*
D02*
G37*
G36*
X72264Y-22033D02*
X71436D01*
X70671Y-22350D01*
X70086Y-22935D01*
X69769Y-23700D01*
Y-24528D01*
X70086Y-25293D01*
X70671Y-25878D01*
X71436Y-26195D01*
X72264D01*
X73029Y-25878D01*
X73615Y-25293D01*
X73931Y-24528D01*
Y-23700D01*
X73615Y-22935D01*
X73029Y-22350D01*
X72264Y-22033D01*
D02*
G37*
G36*
X-160905Y-23313D02*
X-161733D01*
X-162498Y-23629D01*
X-163083Y-24215D01*
X-163400Y-24980D01*
Y-25808D01*
X-163083Y-26573D01*
X-162498Y-27158D01*
X-161733Y-27475D01*
X-160905D01*
X-160140Y-27158D01*
X-159555Y-26573D01*
X-159238Y-25808D01*
Y-24980D01*
X-159555Y-24215D01*
X-160140Y-23629D01*
X-160905Y-23313D01*
D02*
G37*
G36*
X54941Y-26659D02*
X54114D01*
X53349Y-26976D01*
X52763Y-27561D01*
X52447Y-28326D01*
Y-29154D01*
X52763Y-29919D01*
X53349Y-30504D01*
X54114Y-30821D01*
X54941D01*
X55706Y-30504D01*
X56292Y-29919D01*
X56609Y-29154D01*
Y-28326D01*
X56292Y-27561D01*
X55706Y-26976D01*
X54941Y-26659D01*
D02*
G37*
G36*
X-152342Y-27151D02*
X-153170D01*
X-153935Y-27468D01*
X-154520Y-28053D01*
X-154837Y-28818D01*
Y-29646D01*
X-154520Y-30411D01*
X-153935Y-30997D01*
X-153170Y-31313D01*
X-152342D01*
X-151577Y-30997D01*
X-150992Y-30411D01*
X-150675Y-29646D01*
Y-28818D01*
X-150992Y-28053D01*
X-151577Y-27468D01*
X-152342Y-27151D01*
D02*
G37*
G36*
X43130Y-27446D02*
X42303D01*
X41538Y-27763D01*
X40952Y-28349D01*
X40635Y-29114D01*
Y-29941D01*
X40952Y-30706D01*
X41538Y-31292D01*
X42303Y-31609D01*
X43130D01*
X43895Y-31292D01*
X44481Y-30706D01*
X44798Y-29941D01*
Y-29114D01*
X44481Y-28349D01*
X43895Y-27763D01*
X43130Y-27446D01*
D02*
G37*
G36*
X92737Y-27545D02*
X91909D01*
X91144Y-27862D01*
X90559Y-28447D01*
X90242Y-29212D01*
Y-30040D01*
X90559Y-30805D01*
X91144Y-31390D01*
X91909Y-31707D01*
X92737D01*
X93502Y-31390D01*
X94087Y-30805D01*
X94404Y-30040D01*
Y-29212D01*
X94087Y-28447D01*
X93502Y-27862D01*
X92737Y-27545D01*
D02*
G37*
G36*
X33878Y-27840D02*
X33051D01*
X32286Y-28157D01*
X31700Y-28742D01*
X31383Y-29507D01*
Y-30335D01*
X31700Y-31100D01*
X32286Y-31686D01*
X33051Y-32002D01*
X33878D01*
X34643Y-31686D01*
X35229Y-31100D01*
X35546Y-30335D01*
Y-29507D01*
X35229Y-28742D01*
X34643Y-28157D01*
X33878Y-27840D01*
D02*
G37*
G36*
X17934Y-28234D02*
X17106D01*
X16341Y-28551D01*
X15755Y-29136D01*
X15439Y-29901D01*
Y-30729D01*
X15755Y-31494D01*
X16341Y-32079D01*
X17106Y-32396D01*
X17934D01*
X18699Y-32079D01*
X19284Y-31494D01*
X19601Y-30729D01*
Y-29901D01*
X19284Y-29136D01*
X18699Y-28551D01*
X17934Y-28234D01*
D02*
G37*
G36*
X-16122Y-30715D02*
X-16949D01*
X-17714Y-31032D01*
X-18300Y-31617D01*
X-18617Y-32382D01*
Y-33210D01*
X-18300Y-33975D01*
X-17714Y-34560D01*
X-16949Y-34877D01*
X-16122D01*
X-15357Y-34560D01*
X-14771Y-33975D01*
X-14454Y-33210D01*
Y-32382D01*
X-14771Y-31617D01*
X-15357Y-31032D01*
X-16122Y-30715D01*
D02*
G37*
G36*
X-22814D02*
X-23642D01*
X-24407Y-31032D01*
X-24993Y-31617D01*
X-25310Y-32382D01*
Y-33210D01*
X-24993Y-33975D01*
X-24407Y-34560D01*
X-23642Y-34877D01*
X-22814D01*
X-22050Y-34560D01*
X-21464Y-33975D01*
X-21147Y-33210D01*
Y-32382D01*
X-21464Y-31617D01*
X-22050Y-31032D01*
X-22814Y-30715D01*
D02*
G37*
G36*
X155926Y-7368D02*
X155098D01*
X154333Y-7685D01*
X153747Y-8270D01*
X153431Y-9035D01*
Y-9863D01*
X153747Y-10628D01*
X154040Y-10920D01*
X154058Y-10996D01*
X154072Y-11074D01*
X154084Y-11205D01*
Y-21850D01*
X140747Y-35187D01*
X19439D01*
X19352Y-35176D01*
X19263Y-35160D01*
X19188Y-35142D01*
X18895Y-34850D01*
X18131Y-34533D01*
X17303D01*
X16538Y-34850D01*
X15952Y-35435D01*
X15635Y-36200D01*
Y-37028D01*
X15952Y-37793D01*
X16538Y-38378D01*
X17303Y-38695D01*
X18131D01*
X18398Y-38585D01*
X18785Y-38956D01*
Y-39784D01*
X19102Y-40549D01*
X19687Y-41134D01*
X20452Y-41451D01*
X21280D01*
X22045Y-41134D01*
X22464Y-40715D01*
X22490Y-40702D01*
X22579Y-40663D01*
X22661Y-40633D01*
X22736Y-40611D01*
X22804Y-40597D01*
X22829Y-40594D01*
X141339D01*
X141807Y-40501D01*
X142204Y-40235D01*
X159133Y-23306D01*
X159398Y-22909D01*
X159491Y-22441D01*
Y-14168D01*
X159494Y-14143D01*
X159509Y-14075D01*
X159530Y-14000D01*
X159561Y-13917D01*
X159600Y-13828D01*
X159613Y-13803D01*
X160032Y-13384D01*
X160349Y-12619D01*
Y-11791D01*
X160032Y-11026D01*
X159447Y-10440D01*
X158682Y-10124D01*
X158026D01*
X157756Y-9961D01*
X157593Y-9691D01*
Y-9035D01*
X157276Y-8270D01*
X156691Y-7685D01*
X155926Y-7368D01*
D02*
G37*
G36*
X-135944Y-11108D02*
X-136694D01*
X-137386Y-11395D01*
X-137916Y-11925D01*
X-138203Y-12617D01*
Y-13367D01*
X-137916Y-14060D01*
X-137899Y-14076D01*
Y-30645D01*
X-139327Y-32072D01*
X-139351D01*
X-140044Y-32359D01*
X-140574Y-32889D01*
X-140861Y-33582D01*
Y-34332D01*
X-140574Y-35024D01*
X-140044Y-35554D01*
X-139351Y-35841D01*
X-138602D01*
X-137909Y-35554D01*
X-137379Y-35024D01*
X-137092Y-34332D01*
Y-34307D01*
X-135201Y-32417D01*
X-134859Y-31904D01*
X-134739Y-31299D01*
Y-14076D01*
X-134722Y-14060D01*
X-134435Y-13367D01*
Y-12617D01*
X-134722Y-11925D01*
X-135252Y-11395D01*
X-135944Y-11108D01*
D02*
G37*
G36*
X-9429Y-30715D02*
X-10256D01*
X-11021Y-31032D01*
X-11607Y-31617D01*
X-11924Y-32382D01*
Y-33210D01*
X-11607Y-33975D01*
X-11021Y-34560D01*
X-10256Y-34877D01*
X-9429D01*
X-8664Y-34560D01*
X-8343Y-34928D01*
X-8457Y-35042D01*
X-8774Y-35807D01*
Y-36634D01*
X-8457Y-37399D01*
X-7872Y-37985D01*
X-7107Y-38302D01*
X-6279D01*
X-5514Y-37985D01*
X-4929Y-37399D01*
X-4612Y-36634D01*
Y-35807D01*
X-4929Y-35042D01*
X-5514Y-34456D01*
X-6279Y-34139D01*
X-7107D01*
X-7872Y-34456D01*
X-8192Y-34089D01*
X-8078Y-33975D01*
X-7761Y-33210D01*
Y-32382D01*
X-8078Y-31617D01*
X-8664Y-31032D01*
X-9429Y-30715D01*
D02*
G37*
G36*
X-158247Y-35714D02*
X-159075D01*
X-159840Y-36031D01*
X-160426Y-36616D01*
X-160742Y-37381D01*
Y-38209D01*
X-160426Y-38974D01*
X-159840Y-39560D01*
X-159075Y-39876D01*
X-158247D01*
X-157483Y-39560D01*
X-156897Y-38974D01*
X-156580Y-38209D01*
Y-37381D01*
X-156897Y-36616D01*
X-157483Y-36031D01*
X-158247Y-35714D01*
D02*
G37*
G36*
X-49685Y-38273D02*
X-50512D01*
X-51277Y-38590D01*
X-51863Y-39176D01*
X-52179Y-39940D01*
Y-40768D01*
X-51863Y-41533D01*
X-51277Y-42119D01*
X-50512Y-42435D01*
X-49685D01*
X-48920Y-42119D01*
X-48334Y-41533D01*
X-48017Y-40768D01*
Y-39940D01*
X-48334Y-39176D01*
X-48920Y-38590D01*
X-49685Y-38273D01*
D02*
G37*
G36*
X-61791Y-38470D02*
X-62619D01*
X-63384Y-38787D01*
X-63969Y-39372D01*
X-64286Y-40137D01*
Y-40965D01*
X-63969Y-41730D01*
X-63384Y-42315D01*
X-62619Y-42632D01*
X-61791D01*
X-61026Y-42315D01*
X-60440Y-41730D01*
X-60124Y-40965D01*
Y-40137D01*
X-60440Y-39372D01*
X-61026Y-38787D01*
X-61791Y-38470D01*
D02*
G37*
G36*
X-55492Y-38568D02*
X-56319D01*
X-57084Y-38885D01*
X-57670Y-39471D01*
X-57987Y-40236D01*
Y-41064D01*
X-57670Y-41829D01*
X-57084Y-42414D01*
X-56319Y-42731D01*
X-55492D01*
X-54727Y-42414D01*
X-54141Y-41829D01*
X-53824Y-41064D01*
Y-40236D01*
X-54141Y-39471D01*
X-54727Y-38885D01*
X-55492Y-38568D01*
D02*
G37*
G36*
X-68090Y-39651D02*
X-68918D01*
X-69683Y-39968D01*
X-70268Y-40553D01*
X-70585Y-41318D01*
Y-42146D01*
X-70268Y-42911D01*
X-69683Y-43497D01*
X-68918Y-43813D01*
X-68090D01*
X-67325Y-43497D01*
X-66740Y-42911D01*
X-66423Y-42146D01*
Y-41318D01*
X-66740Y-40553D01*
X-67325Y-39968D01*
X-68090Y-39651D01*
D02*
G37*
G36*
X-6673Y-40045D02*
X-7501D01*
X-8265Y-40362D01*
X-8851Y-40947D01*
X-9168Y-41712D01*
Y-42540D01*
X-8851Y-43305D01*
X-8265Y-43890D01*
X-7501Y-44207D01*
X-6673D01*
X-5908Y-43890D01*
X-5322Y-43305D01*
X-5006Y-42540D01*
Y-41712D01*
X-5322Y-40947D01*
X-5908Y-40362D01*
X-6673Y-40045D01*
D02*
G37*
G36*
X63209Y-43588D02*
X62381D01*
X61616Y-43905D01*
X61031Y-44490D01*
X60714Y-45255D01*
X60250D01*
X59934Y-44490D01*
X59348Y-43905D01*
X58583Y-43588D01*
X57755D01*
X56990Y-43905D01*
X56405Y-44490D01*
X56088Y-45255D01*
Y-46083D01*
X56405Y-46848D01*
X56990Y-47434D01*
X57755Y-47750D01*
X58583D01*
X59348Y-47434D01*
X59934Y-46848D01*
X60250Y-46083D01*
X60714D01*
X61031Y-46848D01*
X61616Y-47434D01*
X62381Y-47750D01*
X63209D01*
X63974Y-47434D01*
X64560Y-46848D01*
X64876Y-46083D01*
Y-45255D01*
X64560Y-44490D01*
X63974Y-43905D01*
X63209Y-43588D01*
D02*
G37*
G36*
X-136300Y-38041D02*
X-137319D01*
X-138303Y-38305D01*
X-139185Y-38814D01*
X-139905Y-39534D01*
X-140414Y-40416D01*
X-140678Y-41400D01*
Y-42419D01*
X-140414Y-43403D01*
X-139905Y-44285D01*
X-139185Y-45005D01*
X-138303Y-45514D01*
X-137319Y-45778D01*
X-136300D01*
X-135316Y-45514D01*
X-134434Y-45005D01*
X-133714Y-44285D01*
X-133204Y-43403D01*
X-132941Y-42419D01*
Y-41400D01*
X-133204Y-40416D01*
X-133714Y-39534D01*
X-134434Y-38814D01*
X-135316Y-38305D01*
X-136300Y-38041D01*
D02*
G37*
G36*
X95296Y-43588D02*
X94468D01*
X93703Y-43905D01*
X93118Y-44490D01*
X92801Y-45255D01*
Y-46083D01*
X93118Y-46848D01*
X93703Y-47434D01*
X94468Y-47750D01*
X95296D01*
X96061Y-47434D01*
X96646Y-46848D01*
X96963Y-46083D01*
Y-45255D01*
X96646Y-44490D01*
X96061Y-43905D01*
X95296Y-43588D01*
D02*
G37*
G36*
X38504Y-43785D02*
X37677D01*
X36912Y-44102D01*
X36326Y-44687D01*
X36009Y-45452D01*
Y-46280D01*
X36326Y-47045D01*
X36912Y-47630D01*
X37677Y-47947D01*
X38504D01*
X39269Y-47630D01*
X39855Y-47045D01*
X40172Y-46280D01*
Y-45452D01*
X39855Y-44687D01*
X39269Y-44102D01*
X38504Y-43785D01*
D02*
G37*
G36*
X-68877Y-45950D02*
X-69705D01*
X-70470Y-46267D01*
X-71056Y-46853D01*
X-71372Y-47618D01*
Y-48445D01*
X-71056Y-49210D01*
X-70470Y-49796D01*
X-69705Y-50113D01*
X-68877D01*
X-68112Y-49796D01*
X-67527Y-49210D01*
X-67210Y-48445D01*
Y-47618D01*
X-67527Y-46853D01*
X-68112Y-46267D01*
X-68877Y-45950D01*
D02*
G37*
G36*
X43918Y-46344D02*
X43090D01*
X42325Y-46661D01*
X41740Y-47246D01*
X41423Y-48011D01*
Y-48839D01*
X41740Y-49604D01*
X42325Y-50190D01*
X43090Y-50506D01*
X43918D01*
X44683Y-50190D01*
X45268Y-49604D01*
X45585Y-48839D01*
Y-48011D01*
X45268Y-47246D01*
X44683Y-46661D01*
X43918Y-46344D01*
D02*
G37*
G36*
X-57460D02*
X-58288D01*
X-59053Y-46661D01*
X-59638Y-47246D01*
X-59955Y-48011D01*
Y-48839D01*
X-59638Y-49604D01*
X-59053Y-50190D01*
X-58288Y-50506D01*
X-57460D01*
X-56695Y-50190D01*
X-56110Y-49604D01*
X-55793Y-48839D01*
Y-48011D01*
X-56110Y-47246D01*
X-56695Y-46661D01*
X-57460Y-46344D01*
D02*
G37*
G36*
X7107Y-47427D02*
X6279D01*
X5514Y-47744D01*
X4929Y-48329D01*
X4612Y-49094D01*
Y-49922D01*
X4929Y-50687D01*
X5514Y-51272D01*
X6279Y-51589D01*
X7107D01*
X7872Y-51272D01*
X8457Y-50687D01*
X8774Y-49922D01*
Y-49094D01*
X8457Y-48329D01*
X7872Y-47744D01*
X7107Y-47427D01*
D02*
G37*
G36*
X-6673Y-47525D02*
X-7501D01*
X-8265Y-47842D01*
X-8851Y-48427D01*
X-9168Y-49192D01*
Y-50020D01*
X-8851Y-50785D01*
X-8265Y-51371D01*
X-7501Y-51687D01*
X-6673D01*
X-5908Y-51371D01*
X-5322Y-50785D01*
X-5006Y-50020D01*
Y-49192D01*
X-5322Y-48427D01*
X-5908Y-47842D01*
X-6673Y-47525D01*
D02*
G37*
G36*
X-27933D02*
X-28760D01*
X-29525Y-47842D01*
X-30111Y-48427D01*
X-30428Y-49192D01*
Y-50020D01*
X-30111Y-50785D01*
X-29525Y-51371D01*
X-28760Y-51687D01*
X-27933D01*
X-27168Y-51371D01*
X-26582Y-50785D01*
X-26265Y-50020D01*
Y-49192D01*
X-26582Y-48427D01*
X-27168Y-47842D01*
X-27933Y-47525D01*
D02*
G37*
G36*
X-44468D02*
X-45296D01*
X-46061Y-47842D01*
X-46646Y-48427D01*
X-46963Y-49192D01*
Y-50020D01*
X-46646Y-50785D01*
X-46061Y-51371D01*
X-45296Y-51687D01*
X-44468D01*
X-43703Y-51371D01*
X-43118Y-50785D01*
X-42801Y-50020D01*
Y-49192D01*
X-43118Y-48427D01*
X-43703Y-47842D01*
X-44468Y-47525D01*
D02*
G37*
G36*
X25808Y-47919D02*
X24980D01*
X24215Y-48236D01*
X23629Y-48821D01*
X23313Y-49586D01*
Y-50414D01*
X23629Y-51179D01*
X24215Y-51764D01*
X24980Y-52081D01*
X25808D01*
X26573Y-51764D01*
X27158Y-51179D01*
X27475Y-50414D01*
Y-49586D01*
X27158Y-48821D01*
X26573Y-48236D01*
X25808Y-47919D01*
D02*
G37*
G36*
X-151259Y-48017D02*
X-152087D01*
X-152852Y-48334D01*
X-153437Y-48920D01*
X-153754Y-49685D01*
Y-50512D01*
X-153437Y-51277D01*
X-152852Y-51863D01*
X-152087Y-52179D01*
X-151259D01*
X-150494Y-51863D01*
X-149909Y-51277D01*
X-149592Y-50512D01*
Y-49685D01*
X-149909Y-48920D01*
X-150494Y-48334D01*
X-151259Y-48017D01*
D02*
G37*
G36*
X-52637Y-48214D02*
X-53465D01*
X-54230Y-48531D01*
X-54815Y-49116D01*
X-55132Y-49881D01*
Y-50709D01*
X-54815Y-51474D01*
X-54230Y-52060D01*
X-53465Y-52376D01*
X-52637D01*
X-51872Y-52060D01*
X-51287Y-51474D01*
X-50970Y-50709D01*
Y-49881D01*
X-51287Y-49116D01*
X-51872Y-48531D01*
X-52637Y-48214D01*
D02*
G37*
G36*
X-61102Y-51069D02*
X-61930D01*
X-62695Y-51385D01*
X-63280Y-51971D01*
X-63597Y-52736D01*
Y-53564D01*
X-63280Y-54329D01*
X-62695Y-54914D01*
X-61930Y-55231D01*
X-61102D01*
X-60337Y-54914D01*
X-59751Y-54329D01*
X-59435Y-53564D01*
Y-52736D01*
X-59751Y-51971D01*
X-60337Y-51385D01*
X-61102Y-51069D01*
D02*
G37*
G36*
X-85118Y-51659D02*
X-85945D01*
X-86710Y-51976D01*
X-87296Y-52561D01*
X-87613Y-53326D01*
Y-54154D01*
X-87296Y-54919D01*
X-86710Y-55504D01*
X-85945Y-55821D01*
X-85118D01*
X-84353Y-55504D01*
X-83767Y-54919D01*
X-83450Y-54154D01*
Y-53326D01*
X-83767Y-52561D01*
X-84353Y-51976D01*
X-85118Y-51659D01*
D02*
G37*
G36*
X102284Y-52053D02*
X101456D01*
X100691Y-52370D01*
X100106Y-52955D01*
X99789Y-53720D01*
Y-54548D01*
X100106Y-55313D01*
X100691Y-55898D01*
X101456Y-56215D01*
X102284D01*
X103049Y-55898D01*
X103634Y-55313D01*
X103951Y-54548D01*
Y-53720D01*
X103634Y-52955D01*
X103049Y-52370D01*
X102284Y-52053D01*
D02*
G37*
G36*
X158288Y-53234D02*
X157460D01*
X156695Y-53551D01*
X156110Y-54136D01*
X155793Y-54901D01*
Y-55729D01*
X156110Y-56494D01*
X156695Y-57079D01*
X157460Y-57396D01*
X158288D01*
X159053Y-57079D01*
X159638Y-56494D01*
X159955Y-55729D01*
Y-54901D01*
X159638Y-54136D01*
X159053Y-53551D01*
X158288Y-53234D01*
D02*
G37*
G36*
X83682Y-54415D02*
X82854D01*
X82089Y-54732D01*
X81503Y-55317D01*
X81187Y-56082D01*
Y-56910D01*
X81503Y-57675D01*
X82089Y-58260D01*
X82854Y-58577D01*
X83682D01*
X84447Y-58260D01*
X85032Y-57675D01*
X85349Y-56910D01*
Y-56082D01*
X85032Y-55317D01*
X84447Y-54732D01*
X83682Y-54415D01*
D02*
G37*
G36*
X91162Y-54710D02*
X90334D01*
X89569Y-55027D01*
X88984Y-55612D01*
X88667Y-56377D01*
Y-57205D01*
X88984Y-57970D01*
X89569Y-58556D01*
X90334Y-58872D01*
X91162D01*
X91927Y-58556D01*
X92512Y-57970D01*
X92829Y-57205D01*
Y-56377D01*
X92512Y-55612D01*
X91927Y-55027D01*
X91162Y-54710D01*
D02*
G37*
G36*
X117048Y-54809D02*
X116220D01*
X115455Y-55125D01*
X114870Y-55711D01*
X114553Y-56476D01*
Y-57304D01*
X114870Y-58069D01*
X115455Y-58654D01*
X116220Y-58971D01*
X117048D01*
X117813Y-58654D01*
X118398Y-58069D01*
X118715Y-57304D01*
Y-56476D01*
X118398Y-55711D01*
X117813Y-55125D01*
X117048Y-54809D01*
D02*
G37*
G36*
X54056D02*
X53228D01*
X52463Y-55125D01*
X51877Y-55711D01*
X51561Y-56476D01*
Y-57304D01*
X51877Y-58069D01*
X52463Y-58654D01*
X53228Y-58971D01*
X54056D01*
X54821Y-58654D01*
X55406Y-58069D01*
X55723Y-57304D01*
Y-56476D01*
X55406Y-55711D01*
X54821Y-55125D01*
X54056Y-54809D01*
D02*
G37*
G36*
X76398Y-55399D02*
X75570D01*
X74805Y-55716D01*
X74220Y-56301D01*
X73903Y-57066D01*
Y-57894D01*
X74220Y-58659D01*
X74805Y-59245D01*
X75570Y-59561D01*
X76398D01*
X77163Y-59245D01*
X77749Y-58659D01*
X78065Y-57894D01*
Y-57066D01*
X77749Y-56301D01*
X77163Y-55716D01*
X76398Y-55399D01*
D02*
G37*
G36*
X68918D02*
X68090D01*
X67325Y-55716D01*
X66740Y-56301D01*
X66423Y-57066D01*
Y-57894D01*
X66740Y-58659D01*
X67325Y-59245D01*
X68090Y-59561D01*
X68918D01*
X69683Y-59245D01*
X70268Y-58659D01*
X70585Y-57894D01*
Y-57066D01*
X70268Y-56301D01*
X69683Y-55716D01*
X68918Y-55399D01*
D02*
G37*
G36*
X-61003Y-56187D02*
X-61831D01*
X-62596Y-56503D01*
X-63182Y-57089D01*
X-63498Y-57854D01*
Y-58682D01*
X-63182Y-59447D01*
X-62596Y-60032D01*
X-61831Y-60349D01*
X-61003D01*
X-60238Y-60032D01*
X-59653Y-59447D01*
X-59336Y-58682D01*
Y-57854D01*
X-59653Y-57089D01*
X-60238Y-56503D01*
X-61003Y-56187D01*
D02*
G37*
G36*
X-6673Y-56580D02*
X-7501D01*
X-8265Y-56897D01*
X-8851Y-57483D01*
X-9168Y-58248D01*
Y-59075D01*
X-8851Y-59840D01*
X-8265Y-60426D01*
X-7501Y-60742D01*
X-6673D01*
X-5908Y-60426D01*
X-5322Y-59840D01*
X-5006Y-59075D01*
Y-58248D01*
X-5322Y-57483D01*
X-5908Y-56897D01*
X-6673Y-56580D01*
D02*
G37*
G36*
X-110319Y-53041D02*
X-111338D01*
X-112322Y-53305D01*
X-113204Y-53814D01*
X-113924Y-54534D01*
X-114433Y-55416D01*
X-114697Y-56400D01*
Y-57419D01*
X-114433Y-58403D01*
X-113924Y-59285D01*
X-113204Y-60005D01*
X-112322Y-60514D01*
X-111338Y-60778D01*
X-110319D01*
X-109335Y-60514D01*
X-108453Y-60005D01*
X-107733Y-59285D01*
X-107224Y-58403D01*
X-106960Y-57419D01*
Y-56400D01*
X-107224Y-55416D01*
X-107733Y-54534D01*
X-108453Y-53814D01*
X-109335Y-53305D01*
X-110319Y-53041D01*
D02*
G37*
G36*
X-38562Y-58549D02*
X-39390D01*
X-40155Y-58866D01*
X-40741Y-59451D01*
X-41058Y-60216D01*
Y-61044D01*
X-40741Y-61809D01*
X-40155Y-62394D01*
X-39390Y-62711D01*
X-38562D01*
X-37797Y-62394D01*
X-37212Y-61809D01*
X-36895Y-61044D01*
Y-60216D01*
X-37212Y-59451D01*
X-37797Y-58866D01*
X-38562Y-58549D01*
D02*
G37*
G36*
X-45255D02*
X-46083D01*
X-46848Y-58866D01*
X-47434Y-59451D01*
X-47750Y-60216D01*
Y-61044D01*
X-47434Y-61809D01*
X-46848Y-62394D01*
X-46083Y-62711D01*
X-45255D01*
X-44490Y-62394D01*
X-43905Y-61809D01*
X-43588Y-61044D01*
Y-60216D01*
X-43905Y-59451D01*
X-44490Y-58866D01*
X-45255Y-58549D01*
D02*
G37*
G36*
X30040Y-58647D02*
X29212D01*
X28447Y-58964D01*
X27862Y-59549D01*
X27545Y-60314D01*
Y-61142D01*
X27862Y-61907D01*
X28447Y-62493D01*
X29212Y-62809D01*
X30040D01*
X30805Y-62493D01*
X31390Y-61907D01*
X31707Y-61142D01*
Y-60314D01*
X31390Y-59549D01*
X30805Y-58964D01*
X30040Y-58647D01*
D02*
G37*
G36*
X-25570Y-58943D02*
X-26398D01*
X-27163Y-59259D01*
X-27749Y-59845D01*
X-28065Y-60610D01*
Y-61438D01*
X-27749Y-62203D01*
X-27163Y-62788D01*
X-26398Y-63105D01*
X-25570D01*
X-24805Y-62788D01*
X-24220Y-62203D01*
X-23903Y-61438D01*
Y-60610D01*
X-24220Y-59845D01*
X-24805Y-59259D01*
X-25570Y-58943D01*
D02*
G37*
G36*
X-32263D02*
X-33091D01*
X-33856Y-59259D01*
X-34441Y-59845D01*
X-34758Y-60610D01*
Y-61438D01*
X-34441Y-62203D01*
X-33856Y-62788D01*
X-33091Y-63105D01*
X-32263D01*
X-31498Y-62788D01*
X-30913Y-62203D01*
X-30596Y-61438D01*
Y-60610D01*
X-30913Y-59845D01*
X-31498Y-59259D01*
X-32263Y-58943D01*
D02*
G37*
G36*
X-52342D02*
X-53170D01*
X-53935Y-59259D01*
X-54520Y-59845D01*
X-54837Y-60610D01*
Y-61438D01*
X-54520Y-62203D01*
X-53935Y-62788D01*
X-53170Y-63105D01*
X-52342D01*
X-51577Y-62788D01*
X-50992Y-62203D01*
X-50675Y-61438D01*
Y-60610D01*
X-50992Y-59845D01*
X-51577Y-59259D01*
X-52342Y-58943D01*
D02*
G37*
G36*
X-144862Y-59632D02*
X-145690D01*
X-146454Y-59948D01*
X-147040Y-60534D01*
X-147357Y-61299D01*
Y-62127D01*
X-147040Y-62891D01*
X-146454Y-63477D01*
X-145690Y-63794D01*
X-144862D01*
X-144097Y-63477D01*
X-143511Y-62891D01*
X-143194Y-62127D01*
Y-61299D01*
X-143511Y-60534D01*
X-144097Y-59948D01*
X-144862Y-59632D01*
D02*
G37*
G36*
X-18805Y-59690D02*
X-19633D01*
X-20398Y-60007D01*
X-20983Y-60593D01*
X-21300Y-61358D01*
Y-62186D01*
X-20983Y-62950D01*
X-20398Y-63536D01*
X-19633Y-63853D01*
X-18805D01*
X-18040Y-63536D01*
X-17454Y-62950D01*
X-17138Y-62186D01*
Y-61358D01*
X-17454Y-60593D01*
X-18040Y-60007D01*
X-18805Y-59690D01*
D02*
G37*
G36*
X-78326Y-59730D02*
X-79154D01*
X-79919Y-60047D01*
X-80504Y-60632D01*
X-80821Y-61397D01*
Y-62225D01*
X-80504Y-62990D01*
X-79919Y-63575D01*
X-79154Y-63892D01*
X-78326D01*
X-77561Y-63575D01*
X-76976Y-62990D01*
X-76659Y-62225D01*
Y-61397D01*
X-76976Y-60632D01*
X-77561Y-60047D01*
X-78326Y-59730D01*
D02*
G37*
G36*
X-83051D02*
X-83878D01*
X-84643Y-60047D01*
X-85229Y-60632D01*
X-85546Y-61397D01*
Y-62225D01*
X-85229Y-62990D01*
X-84643Y-63575D01*
X-83878Y-63892D01*
X-83051D01*
X-82286Y-63575D01*
X-81700Y-62990D01*
X-81384Y-62225D01*
Y-61397D01*
X-81700Y-60632D01*
X-82286Y-60047D01*
X-83051Y-59730D01*
D02*
G37*
G36*
X139489Y-60813D02*
X138661D01*
X137896Y-61129D01*
X137311Y-61715D01*
X136994Y-62480D01*
Y-63308D01*
X137311Y-64073D01*
X137896Y-64658D01*
X138661Y-64975D01*
X139489D01*
X140254Y-64658D01*
X140839Y-64073D01*
X141156Y-63308D01*
Y-62480D01*
X140839Y-61715D01*
X140254Y-61129D01*
X139489Y-60813D01*
D02*
G37*
G36*
X-6673Y-61305D02*
X-7501D01*
X-8265Y-61622D01*
X-8851Y-62207D01*
X-9168Y-62972D01*
Y-63800D01*
X-8851Y-64565D01*
X-8265Y-65150D01*
X-7501Y-65467D01*
X-6673D01*
X-5908Y-65150D01*
X-5322Y-64565D01*
X-5006Y-63800D01*
Y-62972D01*
X-5322Y-62207D01*
X-5908Y-61622D01*
X-6673Y-61305D01*
D02*
G37*
G36*
X103760Y-62387D02*
X102933D01*
X102168Y-62704D01*
X101582Y-63290D01*
X101265Y-64055D01*
Y-64882D01*
X101582Y-65647D01*
X102168Y-66233D01*
X102933Y-66550D01*
X103760D01*
X104525Y-66233D01*
X105111Y-65647D01*
X105428Y-64882D01*
Y-64055D01*
X105111Y-63290D01*
X104525Y-62704D01*
X103760Y-62387D01*
D02*
G37*
G36*
X-14940Y-63667D02*
X-15768D01*
X-16533Y-63984D01*
X-17119Y-64569D01*
X-17435Y-65334D01*
Y-66162D01*
X-17119Y-66927D01*
X-16533Y-67512D01*
X-15768Y-67829D01*
X-14940D01*
X-14175Y-67512D01*
X-13590Y-66927D01*
X-13273Y-66162D01*
Y-65334D01*
X-13590Y-64569D01*
X-14175Y-63984D01*
X-14940Y-63667D01*
D02*
G37*
G36*
X-83051Y-64848D02*
X-83878D01*
X-84643Y-65165D01*
X-85229Y-65750D01*
X-85546Y-66515D01*
Y-67343D01*
X-85229Y-68108D01*
X-84643Y-68693D01*
X-83878Y-69010D01*
X-83051D01*
X-82286Y-68693D01*
X-81700Y-68108D01*
X-81384Y-67343D01*
Y-66515D01*
X-81700Y-65750D01*
X-82286Y-65165D01*
X-83051Y-64848D01*
D02*
G37*
G36*
X-122525Y-65934D02*
X-123353D01*
X-124118Y-66251D01*
X-124703Y-66836D01*
X-125020Y-67601D01*
Y-68429D01*
X-124703Y-69194D01*
X-124118Y-69779D01*
X-123353Y-70096D01*
X-122525D01*
X-121760Y-69779D01*
X-121175Y-69194D01*
X-120858Y-68429D01*
Y-67601D01*
X-121175Y-66836D01*
X-121760Y-66251D01*
X-122525Y-65934D01*
D02*
G37*
G36*
X-6673Y-66423D02*
X-7501D01*
X-8265Y-66740D01*
X-8851Y-67325D01*
X-9168Y-68090D01*
Y-68918D01*
X-8851Y-69683D01*
X-8265Y-70268D01*
X-7501Y-70585D01*
X-6673D01*
X-5908Y-70268D01*
X-5322Y-69683D01*
X-5006Y-68918D01*
Y-68090D01*
X-5322Y-67325D01*
X-5908Y-66740D01*
X-6673Y-66423D01*
D02*
G37*
G36*
X35749Y-68391D02*
X34921D01*
X34156Y-68708D01*
X33570Y-69294D01*
X33254Y-70059D01*
Y-70886D01*
X33570Y-71651D01*
X34156Y-72237D01*
X34921Y-72553D01*
X35749D01*
X36514Y-72237D01*
X37099Y-71651D01*
X37416Y-70886D01*
Y-70059D01*
X37099Y-69294D01*
X36514Y-68708D01*
X35749Y-68391D01*
D02*
G37*
G36*
X-139645D02*
X-140473D01*
X-141238Y-68708D01*
X-141823Y-69294D01*
X-142140Y-70059D01*
Y-70886D01*
X-141823Y-71651D01*
X-141238Y-72237D01*
X-140473Y-72553D01*
X-139645D01*
X-138880Y-72237D01*
X-138295Y-71651D01*
X-137978Y-70886D01*
Y-70059D01*
X-138295Y-69294D01*
X-138880Y-68708D01*
X-139645Y-68391D01*
D02*
G37*
G36*
X-15334Y-69179D02*
X-16162D01*
X-16927Y-69496D01*
X-17512Y-70081D01*
X-17829Y-70846D01*
Y-71674D01*
X-17512Y-72439D01*
X-16927Y-73024D01*
X-16162Y-73341D01*
X-15334D01*
X-14569Y-73024D01*
X-13984Y-72439D01*
X-13667Y-71674D01*
Y-70846D01*
X-13984Y-70081D01*
X-14569Y-69496D01*
X-15334Y-69179D01*
D02*
G37*
G36*
X-20907Y-72496D02*
X-21735D01*
X-22500Y-72812D01*
X-22864Y-73177D01*
X-23191Y-73344D01*
X-23518Y-73177D01*
X-23882Y-72812D01*
X-24647Y-72496D01*
X-25475D01*
X-26240Y-72812D01*
X-26685Y-73258D01*
X-27130Y-72812D01*
X-27895Y-72496D01*
X-28723D01*
X-29488Y-72812D01*
X-29982Y-73307D01*
X-30477Y-72812D01*
X-31242Y-72496D01*
X-32070D01*
X-32834Y-72812D01*
X-33101Y-73079D01*
X-33427Y-73391D01*
X-33754Y-73079D01*
X-34020Y-72812D01*
X-34785Y-72496D01*
X-35613D01*
X-36378Y-72812D01*
X-36869Y-73304D01*
X-37167Y-73360D01*
X-37465Y-73304D01*
X-37957Y-72812D01*
X-38722Y-72496D01*
X-39550D01*
X-40315Y-72812D01*
X-40806Y-73304D01*
X-41104Y-73360D01*
X-41402Y-73304D01*
X-41894Y-72812D01*
X-42659Y-72496D01*
X-43487D01*
X-44252Y-72812D01*
X-44837Y-73398D01*
X-45154Y-74163D01*
Y-74849D01*
X-45351Y-75017D01*
X-45500Y-75104D01*
X-45616Y-75142D01*
X-46301Y-74858D01*
X-47128D01*
X-47893Y-75175D01*
X-48354Y-75635D01*
X-48778Y-75352D01*
X-48669Y-75089D01*
Y-74261D01*
X-48986Y-73496D01*
X-49571Y-72911D01*
X-50336Y-72594D01*
X-51164D01*
X-51929Y-72911D01*
X-52351Y-73333D01*
X-52669Y-73443D01*
X-52988Y-73333D01*
X-53410Y-72911D01*
X-54175Y-72594D01*
X-55003D01*
X-55767Y-72911D01*
X-56353Y-73496D01*
X-56434Y-73693D01*
X-56975D01*
X-57057Y-73496D01*
X-57642Y-72911D01*
X-58407Y-72594D01*
X-59235D01*
X-60000Y-72911D01*
X-60315Y-73226D01*
X-60642Y-73457D01*
X-60968Y-73226D01*
X-61284Y-72911D01*
X-62049Y-72594D01*
X-62877D01*
X-63642Y-72911D01*
X-64185Y-73454D01*
X-64729Y-72911D01*
X-65494Y-72594D01*
X-66321D01*
X-67086Y-72911D01*
X-67451Y-73276D01*
X-67778Y-73442D01*
X-68104Y-73276D01*
X-68469Y-72911D01*
X-69234Y-72594D01*
X-70062D01*
X-70827Y-72911D01*
X-71093Y-73177D01*
X-71419Y-73489D01*
X-71746Y-73177D01*
X-72012Y-72911D01*
X-72777Y-72594D01*
X-73605D01*
X-74370Y-72911D01*
X-74734Y-73276D01*
X-75061Y-73442D01*
X-75388Y-73276D01*
X-75752Y-72911D01*
X-76517Y-72594D01*
X-77345D01*
X-78110Y-72911D01*
X-78695Y-73496D01*
X-79012Y-74261D01*
Y-75089D01*
X-78695Y-75854D01*
X-78110Y-76439D01*
X-77345Y-76756D01*
X-76517D01*
X-75752Y-76439D01*
X-75388Y-76075D01*
X-75061Y-75908D01*
X-74734Y-76075D01*
X-74370Y-76439D01*
X-73605Y-76756D01*
X-72777D01*
X-72012Y-76439D01*
X-71785Y-76212D01*
X-71606Y-76118D01*
X-71185Y-76136D01*
X-71092Y-76240D01*
X-71199Y-76774D01*
X-71614Y-76946D01*
X-72199Y-77532D01*
X-72516Y-78297D01*
Y-79125D01*
X-72199Y-79890D01*
X-71835Y-80254D01*
X-71668Y-80581D01*
X-71835Y-80907D01*
X-72199Y-81272D01*
X-72516Y-82037D01*
Y-82865D01*
X-72199Y-83630D01*
X-71754Y-84075D01*
X-72199Y-84520D01*
X-72516Y-85285D01*
Y-86113D01*
X-72199Y-86878D01*
X-71705Y-87372D01*
X-72199Y-87866D01*
X-72516Y-88631D01*
Y-89459D01*
X-72199Y-90224D01*
X-71933Y-90490D01*
X-71621Y-90817D01*
X-71933Y-91144D01*
X-72199Y-91410D01*
X-72516Y-92175D01*
Y-93002D01*
X-72199Y-93767D01*
X-71708Y-94259D01*
X-71652Y-94557D01*
X-71708Y-94855D01*
X-72199Y-95347D01*
X-72516Y-96112D01*
Y-96939D01*
X-72199Y-97704D01*
X-71708Y-98196D01*
X-71652Y-98494D01*
X-71708Y-98792D01*
X-72199Y-99284D01*
X-72516Y-100049D01*
Y-100877D01*
X-72199Y-101641D01*
X-71614Y-102227D01*
X-71635Y-102759D01*
X-71811Y-102832D01*
X-72396Y-103418D01*
X-72713Y-104183D01*
Y-105010D01*
X-72396Y-105775D01*
X-71811Y-106361D01*
X-71046Y-106677D01*
X-70961D01*
X-70844Y-107098D01*
X-70841Y-107177D01*
X-71093Y-107429D01*
X-71419Y-107741D01*
X-71746Y-107429D01*
X-72012Y-107163D01*
X-72777Y-106846D01*
X-73605D01*
X-74370Y-107163D01*
X-74734Y-107527D01*
X-75061Y-107694D01*
X-75388Y-107527D01*
X-75752Y-107163D01*
X-76517Y-106846D01*
X-77345D01*
X-78110Y-107163D01*
X-78695Y-107748D01*
X-79012Y-108513D01*
Y-109341D01*
X-78695Y-110106D01*
X-78110Y-110691D01*
X-77345Y-111008D01*
X-76517D01*
X-75752Y-110691D01*
X-75388Y-110327D01*
X-75061Y-110160D01*
X-74734Y-110327D01*
X-74370Y-110691D01*
X-73605Y-111008D01*
X-72777D01*
X-72012Y-110691D01*
X-71746Y-110425D01*
X-71419Y-110113D01*
X-71093Y-110425D01*
X-70827Y-110691D01*
X-70062Y-111008D01*
X-69234D01*
X-68469Y-110691D01*
X-68104Y-110327D01*
X-67778Y-110160D01*
X-67451Y-110327D01*
X-67086Y-110691D01*
X-66321Y-111008D01*
X-65494D01*
X-64729Y-110691D01*
X-64185Y-110148D01*
X-63642Y-110691D01*
X-62877Y-111008D01*
X-62049D01*
X-61284Y-110691D01*
X-60968Y-110376D01*
X-60642Y-110146D01*
X-60315Y-110376D01*
X-60000Y-110691D01*
X-59235Y-111008D01*
X-58407D01*
X-57642Y-110691D01*
X-57057Y-110106D01*
X-56975Y-109910D01*
X-56434D01*
X-56353Y-110106D01*
X-55767Y-110691D01*
X-55003Y-111008D01*
X-54175D01*
X-53410Y-110691D01*
X-52988Y-110269D01*
X-52669Y-110160D01*
X-52351Y-110269D01*
X-51929Y-110691D01*
X-51164Y-111008D01*
X-50336D01*
X-49571Y-110691D01*
X-48986Y-110106D01*
X-48669Y-109341D01*
Y-108513D01*
X-48986Y-107748D01*
X-49571Y-107163D01*
X-50336Y-106846D01*
X-51164D01*
X-51929Y-107163D01*
X-52351Y-107585D01*
X-52669Y-107695D01*
X-52988Y-107585D01*
X-53410Y-107163D01*
X-54175Y-106846D01*
X-55003D01*
X-55767Y-107163D01*
X-56353Y-107748D01*
X-56434Y-107945D01*
X-56975D01*
X-57057Y-107748D01*
X-57642Y-107163D01*
X-58407Y-106846D01*
X-58491D01*
X-58608Y-106425D01*
X-58612Y-106346D01*
X-58041Y-105775D01*
X-57724Y-105010D01*
Y-104183D01*
X-58041Y-103418D01*
X-58626Y-102832D01*
X-58605Y-102300D01*
X-58429Y-102227D01*
X-57844Y-101641D01*
X-57527Y-100877D01*
Y-100049D01*
X-57844Y-99284D01*
X-58336Y-98792D01*
X-58391Y-98494D01*
X-58336Y-98196D01*
X-57844Y-97704D01*
X-57527Y-96939D01*
Y-96112D01*
X-57844Y-95347D01*
X-58336Y-94855D01*
X-58391Y-94557D01*
X-58336Y-94259D01*
X-57844Y-93767D01*
X-57527Y-93002D01*
Y-92175D01*
X-57844Y-91410D01*
X-58110Y-91144D01*
X-58422Y-90817D01*
X-58110Y-90490D01*
X-57844Y-90224D01*
X-57527Y-89459D01*
Y-88631D01*
X-57844Y-87866D01*
X-58338Y-87372D01*
X-57844Y-86878D01*
X-57527Y-86113D01*
Y-85285D01*
X-57844Y-84520D01*
X-58289Y-84075D01*
X-57844Y-83630D01*
X-57527Y-82865D01*
Y-82037D01*
X-57844Y-81272D01*
X-58209Y-80907D01*
X-58375Y-80581D01*
X-58209Y-80254D01*
X-57844Y-79890D01*
X-57527Y-79125D01*
Y-78297D01*
X-57844Y-77532D01*
X-58175Y-77201D01*
X-58057Y-76612D01*
X-57642Y-76439D01*
X-57057Y-75854D01*
X-56975Y-75658D01*
X-56434D01*
X-56353Y-75854D01*
X-55767Y-76439D01*
X-55003Y-76756D01*
X-54175D01*
X-53410Y-76439D01*
X-52988Y-76017D01*
X-52669Y-75908D01*
X-52351Y-76017D01*
X-51929Y-76439D01*
X-51164Y-76756D01*
X-50336D01*
X-49571Y-76439D01*
X-49111Y-75979D01*
X-48687Y-76262D01*
X-48796Y-76525D01*
Y-77353D01*
X-48479Y-78118D01*
X-47893Y-78703D01*
X-47128Y-79020D01*
X-46301D01*
X-45536Y-78703D01*
X-44950Y-78118D01*
X-44633Y-77353D01*
Y-76666D01*
X-44436Y-76498D01*
X-44287Y-76412D01*
X-44172Y-76374D01*
X-43487Y-76658D01*
X-42659D01*
X-41894Y-76341D01*
X-41402Y-75849D01*
X-41104Y-75794D01*
X-40806Y-75849D01*
X-40315Y-76341D01*
X-39550Y-76658D01*
X-38722D01*
X-37957Y-76341D01*
X-37479Y-75863D01*
X-36975Y-75873D01*
X-36720Y-76214D01*
X-36843Y-76715D01*
X-37165Y-76848D01*
X-37751Y-77433D01*
X-38067Y-78198D01*
Y-79026D01*
X-37751Y-79791D01*
X-37386Y-80156D01*
X-37219Y-80482D01*
X-37386Y-80809D01*
X-37751Y-81173D01*
X-38067Y-81938D01*
Y-82766D01*
X-37751Y-83531D01*
X-37305Y-83976D01*
X-37751Y-84421D01*
X-38067Y-85186D01*
Y-86014D01*
X-37751Y-86779D01*
X-37256Y-87274D01*
X-37751Y-87768D01*
X-38067Y-88533D01*
Y-89361D01*
X-37751Y-90126D01*
X-37484Y-90392D01*
X-37172Y-90719D01*
X-37484Y-91045D01*
X-37751Y-91311D01*
X-38067Y-92076D01*
Y-92904D01*
X-37751Y-93669D01*
X-37259Y-94161D01*
X-37203Y-94459D01*
X-37259Y-94757D01*
X-37751Y-95248D01*
X-38067Y-96013D01*
Y-96841D01*
X-37751Y-97606D01*
X-37259Y-98098D01*
X-37203Y-98396D01*
X-37259Y-98694D01*
X-37751Y-99185D01*
X-38067Y-99950D01*
Y-100778D01*
X-37751Y-101543D01*
X-37165Y-102128D01*
X-37186Y-102661D01*
X-37362Y-102734D01*
X-37947Y-103319D01*
X-38264Y-104084D01*
Y-104912D01*
X-37947Y-105677D01*
X-37362Y-106262D01*
X-36597Y-106579D01*
X-35769D01*
X-35004Y-106262D01*
X-34419Y-105677D01*
X-34102Y-104912D01*
Y-104084D01*
X-34419Y-103319D01*
X-35004Y-102734D01*
X-34983Y-102201D01*
X-34807Y-102128D01*
X-34222Y-101543D01*
X-33905Y-100778D01*
Y-99950D01*
X-34222Y-99185D01*
X-34714Y-98694D01*
X-34769Y-98396D01*
X-34714Y-98098D01*
X-34222Y-97606D01*
X-33905Y-96841D01*
Y-96013D01*
X-34222Y-95248D01*
X-34714Y-94757D01*
X-34769Y-94459D01*
X-34714Y-94161D01*
X-34222Y-93669D01*
X-33905Y-92904D01*
Y-92076D01*
X-34222Y-91311D01*
X-34488Y-91045D01*
X-34800Y-90719D01*
X-34488Y-90392D01*
X-34222Y-90126D01*
X-33905Y-89361D01*
Y-88533D01*
X-34222Y-87768D01*
X-34716Y-87274D01*
X-34222Y-86779D01*
X-33905Y-86014D01*
Y-85186D01*
X-34222Y-84421D01*
X-34667Y-83976D01*
X-34222Y-83531D01*
X-33905Y-82766D01*
Y-81938D01*
X-34222Y-81173D01*
X-34587Y-80809D01*
X-34753Y-80482D01*
X-34587Y-80156D01*
X-34222Y-79791D01*
X-33905Y-79026D01*
Y-78198D01*
X-34222Y-77433D01*
X-34552Y-77103D01*
X-34435Y-76513D01*
X-34020Y-76341D01*
X-33754Y-76075D01*
X-33427Y-75763D01*
X-33101Y-76075D01*
X-32834Y-76341D01*
X-32070Y-76658D01*
X-31242D01*
X-30477Y-76341D01*
X-29982Y-75847D01*
X-29488Y-76341D01*
X-28723Y-76658D01*
X-27895D01*
X-27130Y-76341D01*
X-27037Y-76248D01*
X-26970Y-76283D01*
X-26997Y-76836D01*
X-27027Y-76848D01*
X-27613Y-77433D01*
X-27929Y-78198D01*
Y-79026D01*
X-27613Y-79791D01*
X-27248Y-80156D01*
X-27081Y-80482D01*
X-27248Y-80809D01*
X-27613Y-81173D01*
X-27929Y-81938D01*
Y-82766D01*
X-27613Y-83531D01*
X-27167Y-83976D01*
X-27613Y-84421D01*
X-27929Y-85186D01*
Y-86014D01*
X-27613Y-86779D01*
X-27118Y-87274D01*
X-27613Y-87768D01*
X-27929Y-88533D01*
Y-89361D01*
X-27613Y-90126D01*
X-27347Y-90392D01*
X-27034Y-90719D01*
X-27347Y-91045D01*
X-27613Y-91311D01*
X-27929Y-92076D01*
Y-92904D01*
X-27613Y-93669D01*
X-27121Y-94161D01*
X-27065Y-94459D01*
X-27121Y-94757D01*
X-27613Y-95248D01*
X-27929Y-96013D01*
Y-96841D01*
X-27613Y-97606D01*
X-27121Y-98098D01*
X-27065Y-98396D01*
X-27121Y-98694D01*
X-27613Y-99185D01*
X-27929Y-99950D01*
Y-100778D01*
X-27613Y-101543D01*
X-27027Y-102128D01*
X-27048Y-102661D01*
X-27224Y-102734D01*
X-27810Y-103319D01*
X-28126Y-104084D01*
Y-104912D01*
X-27810Y-105677D01*
X-27224Y-106262D01*
X-26459Y-106579D01*
X-25631D01*
X-24866Y-106262D01*
X-24281Y-105677D01*
X-23964Y-104912D01*
Y-104084D01*
X-24281Y-103319D01*
X-24866Y-102734D01*
X-24845Y-102201D01*
X-24670Y-102128D01*
X-24084Y-101543D01*
X-23767Y-100778D01*
Y-99950D01*
X-24084Y-99185D01*
X-24576Y-98694D01*
X-24631Y-98396D01*
X-24576Y-98098D01*
X-24084Y-97606D01*
X-23767Y-96841D01*
Y-96013D01*
X-24084Y-95248D01*
X-24576Y-94757D01*
X-24631Y-94459D01*
X-24576Y-94161D01*
X-24084Y-93669D01*
X-23767Y-92904D01*
Y-92076D01*
X-24084Y-91311D01*
X-24350Y-91045D01*
X-24663Y-90719D01*
X-24350Y-90392D01*
X-24084Y-90126D01*
X-23767Y-89361D01*
Y-88533D01*
X-24084Y-87768D01*
X-24579Y-87274D01*
X-24084Y-86779D01*
X-23767Y-86014D01*
Y-85186D01*
X-24084Y-84421D01*
X-24529Y-83976D01*
X-24084Y-83531D01*
X-23767Y-82766D01*
Y-81938D01*
X-24084Y-81173D01*
X-24449Y-80809D01*
X-24615Y-80482D01*
X-24449Y-80156D01*
X-24084Y-79791D01*
X-23767Y-79026D01*
Y-78198D01*
X-24084Y-77433D01*
X-24415Y-77103D01*
X-24297Y-76513D01*
X-23882Y-76341D01*
X-23518Y-75976D01*
X-23191Y-75810D01*
X-22864Y-75976D01*
X-22500Y-76341D01*
X-21735Y-76658D01*
X-20907D01*
X-20142Y-76341D01*
X-20116Y-76315D01*
X-19775Y-76473D01*
X-19662Y-76568D01*
Y-77353D01*
X-19345Y-78118D01*
X-18760Y-78703D01*
X-17995Y-79020D01*
Y-79484D01*
X-18760Y-79801D01*
X-19345Y-80386D01*
X-19662Y-81151D01*
Y-81979D01*
X-19345Y-82744D01*
X-18760Y-83329D01*
X-17995Y-83646D01*
X-17167D01*
X-16402Y-83329D01*
X-15816Y-82744D01*
X-15500Y-81979D01*
Y-81151D01*
X-15816Y-80386D01*
X-16402Y-79801D01*
X-17167Y-79484D01*
Y-79020D01*
X-16402Y-78703D01*
X-15816Y-78118D01*
X-15500Y-77353D01*
Y-76525D01*
X-15816Y-75760D01*
X-16402Y-75175D01*
X-17167Y-74858D01*
X-17995D01*
X-18760Y-75175D01*
X-18786Y-75201D01*
X-19127Y-75043D01*
X-19240Y-74948D01*
Y-74163D01*
X-19557Y-73398D01*
X-20142Y-72812D01*
X-20907Y-72496D01*
D02*
G37*
G36*
X-82029Y-71413D02*
X-82857D01*
X-83622Y-71730D01*
X-84207Y-72315D01*
X-84524Y-73080D01*
Y-73908D01*
X-84207Y-74673D01*
X-83622Y-75258D01*
X-82857Y-75575D01*
X-82029D01*
X-81264Y-75258D01*
X-80679Y-74673D01*
X-80362Y-73908D01*
Y-73080D01*
X-80679Y-72315D01*
X-81264Y-71730D01*
X-82029Y-71413D01*
D02*
G37*
G36*
X-6673Y-71935D02*
X-7501D01*
X-8265Y-72251D01*
X-8851Y-72837D01*
X-9168Y-73602D01*
Y-74430D01*
X-8851Y-75195D01*
X-8265Y-75780D01*
X-7501Y-76097D01*
X-6673D01*
X-5908Y-75780D01*
X-5322Y-75195D01*
X-5006Y-74430D01*
Y-73602D01*
X-5322Y-72837D01*
X-5908Y-72251D01*
X-6673Y-71935D01*
D02*
G37*
G36*
X-110019Y-73411D02*
X-110847D01*
X-111612Y-73728D01*
X-112197Y-74313D01*
X-112514Y-75078D01*
Y-75906D01*
X-112197Y-76671D01*
X-111612Y-77256D01*
X-110847Y-77573D01*
X-110019D01*
X-109254Y-77256D01*
X-108669Y-76671D01*
X-108352Y-75906D01*
Y-75078D01*
X-108669Y-74313D01*
X-109254Y-73728D01*
X-110019Y-73411D01*
D02*
G37*
G36*
X51398Y-73805D02*
X50570D01*
X49805Y-74122D01*
X49220Y-74707D01*
X48903Y-75472D01*
Y-76300D01*
X49220Y-77065D01*
X49805Y-77650D01*
X50570Y-77967D01*
X51398D01*
X52163Y-77650D01*
X52749Y-77065D01*
X53065Y-76300D01*
Y-75472D01*
X52749Y-74707D01*
X52163Y-74122D01*
X51398Y-73805D01*
D02*
G37*
G36*
X-82029Y-76236D02*
X-82857D01*
X-83622Y-76553D01*
X-84207Y-77138D01*
X-84524Y-77903D01*
Y-78731D01*
X-84207Y-79496D01*
X-83622Y-80081D01*
X-82857Y-80398D01*
X-82029D01*
X-81264Y-80081D01*
X-80679Y-79496D01*
X-80362Y-78731D01*
Y-77903D01*
X-80679Y-77138D01*
X-81264Y-76553D01*
X-82029Y-76236D01*
D02*
G37*
G36*
X145985Y-76462D02*
X145157D01*
X144392Y-76779D01*
X143807Y-77364D01*
X143490Y-78129D01*
Y-78957D01*
X143807Y-79722D01*
X144392Y-80308D01*
X145157Y-80624D01*
X145985D01*
X146750Y-80308D01*
X147335Y-79722D01*
X147652Y-78957D01*
Y-78129D01*
X147335Y-77364D01*
X146750Y-76779D01*
X145985Y-76462D01*
D02*
G37*
G36*
X79252Y-76561D02*
X78425D01*
X77660Y-76877D01*
X77074Y-77463D01*
X76758Y-78228D01*
Y-79056D01*
X77074Y-79821D01*
X77660Y-80406D01*
X78425Y-80723D01*
X79252D01*
X80017Y-80406D01*
X80603Y-79821D01*
X80920Y-79056D01*
Y-78228D01*
X80603Y-77463D01*
X80017Y-76877D01*
X79252Y-76561D01*
D02*
G37*
G36*
X-6673Y-77053D02*
X-7501D01*
X-8265Y-77370D01*
X-8851Y-77955D01*
X-9168Y-78720D01*
Y-79548D01*
X-8851Y-80313D01*
X-8265Y-80898D01*
X-7501Y-81215D01*
X-6673D01*
X-5908Y-80898D01*
X-5322Y-80313D01*
X-5006Y-79548D01*
Y-78720D01*
X-5322Y-77955D01*
X-5908Y-77370D01*
X-6673Y-77053D01*
D02*
G37*
G36*
X11044Y-77250D02*
X10216D01*
X9451Y-77566D01*
X8866Y-78152D01*
X8549Y-78917D01*
Y-79745D01*
X8866Y-80510D01*
X9451Y-81095D01*
X10216Y-81412D01*
X11044D01*
X11809Y-81095D01*
X12394Y-80510D01*
X12711Y-79745D01*
Y-78917D01*
X12394Y-78152D01*
X11809Y-77566D01*
X11044Y-77250D01*
D02*
G37*
G36*
X-98110Y-77447D02*
X-98938D01*
X-99703Y-77763D01*
X-100288Y-78349D01*
X-100605Y-79114D01*
Y-79941D01*
X-100288Y-80706D01*
X-99703Y-81292D01*
X-98938Y-81609D01*
X-98110D01*
X-97345Y-81292D01*
X-96759Y-80706D01*
X-96443Y-79941D01*
Y-79114D01*
X-96759Y-78349D01*
X-97345Y-77763D01*
X-98110Y-77447D01*
D02*
G37*
G36*
X101398Y-78628D02*
X100570D01*
X99805Y-78944D01*
X99220Y-79530D01*
X98903Y-80295D01*
Y-81123D01*
X99220Y-81888D01*
X99805Y-82473D01*
X100570Y-82790D01*
X101398D01*
X102163Y-82473D01*
X102749Y-81888D01*
X103065Y-81123D01*
Y-80295D01*
X102749Y-79530D01*
X102163Y-78944D01*
X101398Y-78628D01*
D02*
G37*
G36*
X-46301Y-79779D02*
X-47128D01*
X-47893Y-80096D01*
X-48479Y-80681D01*
X-48796Y-81446D01*
Y-82274D01*
X-48479Y-83039D01*
X-47893Y-83625D01*
X-47128Y-83941D01*
X-46301D01*
X-45536Y-83625D01*
X-44950Y-83039D01*
X-44633Y-82274D01*
Y-81446D01*
X-44950Y-80681D01*
X-45536Y-80096D01*
X-46301Y-79779D01*
D02*
G37*
G36*
X-82029Y-81256D02*
X-82857D01*
X-83622Y-81572D01*
X-84207Y-82158D01*
X-84524Y-82923D01*
Y-83751D01*
X-84207Y-84516D01*
X-83622Y-85101D01*
X-82857Y-85418D01*
X-82029D01*
X-81264Y-85101D01*
X-80679Y-84516D01*
X-80362Y-83751D01*
Y-82923D01*
X-80679Y-82158D01*
X-81264Y-81572D01*
X-82029Y-81256D01*
D02*
G37*
G36*
X-6673Y-82171D02*
X-7501D01*
X-8265Y-82488D01*
X-8851Y-83073D01*
X-9168Y-83838D01*
Y-84666D01*
X-8851Y-85431D01*
X-8265Y-86016D01*
X-7501Y-86333D01*
X-6673D01*
X-5908Y-86016D01*
X-5322Y-85431D01*
X-5006Y-84666D01*
Y-83838D01*
X-5322Y-83073D01*
X-5908Y-82488D01*
X-6673Y-82171D01*
D02*
G37*
G36*
X-133247Y-83254D02*
X-134075D01*
X-134840Y-83570D01*
X-135426Y-84156D01*
X-135742Y-84921D01*
Y-85749D01*
X-135426Y-86514D01*
X-134840Y-87099D01*
X-134075Y-87416D01*
X-133247D01*
X-132483Y-87099D01*
X-131897Y-86514D01*
X-131580Y-85749D01*
Y-84921D01*
X-131897Y-84156D01*
X-132483Y-83570D01*
X-133247Y-83254D01*
D02*
G37*
G36*
X-114842Y-83352D02*
X-115670D01*
X-116435Y-83669D01*
X-117020Y-84254D01*
X-117337Y-85019D01*
Y-85847D01*
X-117020Y-86612D01*
X-116435Y-87197D01*
X-115670Y-87514D01*
X-114842D01*
X-114077Y-87197D01*
X-113492Y-86612D01*
X-113175Y-85847D01*
Y-85019D01*
X-113492Y-84254D01*
X-114077Y-83669D01*
X-114842Y-83352D01*
D02*
G37*
G36*
X65473Y-84336D02*
X64645D01*
X63880Y-84653D01*
X63295Y-85238D01*
X62978Y-86003D01*
Y-86831D01*
X63295Y-87596D01*
X63880Y-88182D01*
X64645Y-88498D01*
X65473D01*
X66238Y-88182D01*
X66823Y-87596D01*
X67140Y-86831D01*
Y-86003D01*
X66823Y-85238D01*
X66238Y-84653D01*
X65473Y-84336D01*
D02*
G37*
G36*
X-17167Y-84700D02*
X-17995D01*
X-18760Y-85017D01*
X-19345Y-85603D01*
X-19662Y-86367D01*
Y-87195D01*
X-19345Y-87960D01*
X-18760Y-88546D01*
X-17995Y-88863D01*
X-17167D01*
X-16402Y-88546D01*
X-15816Y-87960D01*
X-15500Y-87195D01*
Y-86367D01*
X-15816Y-85603D01*
X-16402Y-85017D01*
X-17167Y-84700D01*
D02*
G37*
G36*
X-46301D02*
X-47128D01*
X-47893Y-85017D01*
X-48479Y-85603D01*
X-48796Y-86367D01*
Y-87195D01*
X-48479Y-87960D01*
X-47893Y-88546D01*
X-47128Y-88863D01*
X-46301D01*
X-45536Y-88546D01*
X-44950Y-87960D01*
X-44633Y-87195D01*
Y-86367D01*
X-44950Y-85603D01*
X-45536Y-85017D01*
X-46301Y-84700D01*
D02*
G37*
G36*
X132205Y-84927D02*
X131377D01*
X130613Y-85244D01*
X130027Y-85829D01*
X129710Y-86594D01*
Y-87422D01*
X130027Y-88187D01*
X130613Y-88772D01*
X131377Y-89089D01*
X132205D01*
X132970Y-88772D01*
X133556Y-88187D01*
X133872Y-87422D01*
Y-86594D01*
X133556Y-85829D01*
X132970Y-85244D01*
X132205Y-84927D01*
D02*
G37*
G36*
X-89940Y-85911D02*
X-90768D01*
X-91533Y-86228D01*
X-92119Y-86813D01*
X-92435Y-87578D01*
Y-88406D01*
X-92119Y-89171D01*
X-91533Y-89756D01*
X-90768Y-90073D01*
X-89940D01*
X-89175Y-89756D01*
X-88590Y-89171D01*
X-88273Y-88406D01*
Y-87578D01*
X-88590Y-86813D01*
X-89175Y-86228D01*
X-89940Y-85911D01*
D02*
G37*
G36*
X-82029Y-86078D02*
X-82857D01*
X-83622Y-86395D01*
X-84207Y-86981D01*
X-84524Y-87745D01*
Y-88573D01*
X-84207Y-89338D01*
X-83622Y-89924D01*
X-82857Y-90241D01*
X-82029D01*
X-81264Y-89924D01*
X-80679Y-89338D01*
X-80362Y-88573D01*
Y-87745D01*
X-80679Y-86981D01*
X-81264Y-86395D01*
X-82029Y-86078D01*
D02*
G37*
G36*
X127383Y-86698D02*
X126555D01*
X125790Y-87015D01*
X125204Y-87601D01*
X124887Y-88366D01*
Y-89193D01*
X125204Y-89958D01*
X125790Y-90544D01*
X126555Y-90861D01*
X127383D01*
X128147Y-90544D01*
X128733Y-89958D01*
X129050Y-89193D01*
Y-88366D01*
X128733Y-87601D01*
X128147Y-87015D01*
X127383Y-86698D01*
D02*
G37*
G36*
X-6673Y-86895D02*
X-7501D01*
X-8265Y-87212D01*
X-8851Y-87797D01*
X-9168Y-88562D01*
Y-89390D01*
X-8851Y-90155D01*
X-8265Y-90741D01*
X-7501Y-91057D01*
X-6673D01*
X-5908Y-90741D01*
X-5322Y-90155D01*
X-5006Y-89390D01*
Y-88562D01*
X-5322Y-87797D01*
X-5908Y-87212D01*
X-6673Y-86895D01*
D02*
G37*
G36*
X11241Y-89258D02*
X10413D01*
X9648Y-89574D01*
X9063Y-90160D01*
X8746Y-90925D01*
Y-91752D01*
X9063Y-92517D01*
X9648Y-93103D01*
X10413Y-93420D01*
X11241D01*
X12006Y-93103D01*
X12591Y-92517D01*
X12908Y-91752D01*
Y-90925D01*
X12591Y-90160D01*
X12006Y-89574D01*
X11241Y-89258D01*
D02*
G37*
G36*
X-17167Y-89425D02*
X-17995D01*
X-18760Y-89742D01*
X-19345Y-90327D01*
X-19662Y-91092D01*
Y-91920D01*
X-19345Y-92685D01*
X-18760Y-93270D01*
X-17995Y-93587D01*
X-17167D01*
X-16402Y-93270D01*
X-15816Y-92685D01*
X-15500Y-91920D01*
Y-91092D01*
X-15816Y-90327D01*
X-16402Y-89742D01*
X-17167Y-89425D01*
D02*
G37*
G36*
X-46301Y-89622D02*
X-47128D01*
X-47893Y-89938D01*
X-48479Y-90524D01*
X-48796Y-91289D01*
Y-92117D01*
X-48479Y-92882D01*
X-47893Y-93467D01*
X-47128Y-93784D01*
X-46301D01*
X-45536Y-93467D01*
X-44950Y-92882D01*
X-44633Y-92117D01*
Y-91289D01*
X-44950Y-90524D01*
X-45536Y-89938D01*
X-46301Y-89622D01*
D02*
G37*
G36*
X-82029Y-91098D02*
X-82857D01*
X-83622Y-91415D01*
X-84207Y-92000D01*
X-84524Y-92765D01*
Y-93593D01*
X-84207Y-94358D01*
X-83622Y-94943D01*
X-82857Y-95260D01*
X-82029D01*
X-81264Y-94943D01*
X-80679Y-94358D01*
X-80362Y-93593D01*
Y-92765D01*
X-80679Y-92000D01*
X-81264Y-91415D01*
X-82029Y-91098D01*
D02*
G37*
G36*
X80434Y-91521D02*
X79606D01*
X78841Y-91838D01*
X78255Y-92423D01*
X77939Y-93188D01*
Y-94016D01*
X78255Y-94781D01*
X78841Y-95367D01*
X79606Y-95683D01*
X80434D01*
X81199Y-95367D01*
X81784Y-94781D01*
X82101Y-94016D01*
Y-93188D01*
X81784Y-92423D01*
X81199Y-91838D01*
X80434Y-91521D01*
D02*
G37*
G36*
X-6673Y-91620D02*
X-7501D01*
X-8265Y-91936D01*
X-8851Y-92522D01*
X-9168Y-93287D01*
Y-94115D01*
X-8851Y-94880D01*
X-8265Y-95465D01*
X-7501Y-95782D01*
X-6673D01*
X-5908Y-95465D01*
X-5322Y-94880D01*
X-5006Y-94115D01*
Y-93287D01*
X-5322Y-92522D01*
X-5908Y-91936D01*
X-6673Y-91620D01*
D02*
G37*
G36*
X-17167Y-94543D02*
X-17995D01*
X-18760Y-94860D01*
X-19345Y-95445D01*
X-19662Y-96210D01*
Y-97038D01*
X-19345Y-97803D01*
X-18760Y-98388D01*
X-17995Y-98705D01*
X-17167D01*
X-16402Y-98388D01*
X-15816Y-97803D01*
X-15500Y-97038D01*
Y-96210D01*
X-15816Y-95445D01*
X-16402Y-94860D01*
X-17167Y-94543D01*
D02*
G37*
G36*
X50315Y-95065D02*
X49488D01*
X48723Y-95381D01*
X48137Y-95967D01*
X47820Y-96732D01*
Y-97560D01*
X48137Y-98325D01*
X48723Y-98910D01*
X49488Y-99227D01*
X50315D01*
X51080Y-98910D01*
X51666Y-98325D01*
X51983Y-97560D01*
Y-96732D01*
X51666Y-95967D01*
X51080Y-95381D01*
X50315Y-95065D01*
D02*
G37*
G36*
X-122027Y-95557D02*
X-122855D01*
X-123620Y-95873D01*
X-124205Y-96459D01*
X-124522Y-97224D01*
Y-98052D01*
X-124205Y-98817D01*
X-123620Y-99402D01*
X-122855Y-99719D01*
X-122027D01*
X-121262Y-99402D01*
X-120677Y-98817D01*
X-120360Y-98052D01*
Y-97224D01*
X-120677Y-96459D01*
X-121262Y-95873D01*
X-122027Y-95557D01*
D02*
G37*
G36*
X-82029Y-95921D02*
X-82857D01*
X-83622Y-96238D01*
X-84207Y-96823D01*
X-84524Y-97588D01*
Y-98416D01*
X-84207Y-99181D01*
X-83622Y-99766D01*
X-82857Y-100083D01*
X-82029D01*
X-81264Y-99766D01*
X-80679Y-99181D01*
X-80362Y-98416D01*
Y-97588D01*
X-80679Y-96823D01*
X-81264Y-96238D01*
X-82029Y-95921D01*
D02*
G37*
G36*
X129449Y-95950D02*
X128621D01*
X127857Y-96267D01*
X127271Y-96853D01*
X126954Y-97618D01*
Y-98445D01*
X127271Y-99210D01*
X127857Y-99796D01*
X128621Y-100113D01*
X129449D01*
X130214Y-99796D01*
X130800Y-99210D01*
X131116Y-98445D01*
Y-97618D01*
X130800Y-96853D01*
X130214Y-96267D01*
X129449Y-95950D01*
D02*
G37*
G36*
X-6673Y-97132D02*
X-7501D01*
X-8265Y-97448D01*
X-8851Y-98034D01*
X-9168Y-98799D01*
Y-99627D01*
X-8851Y-100391D01*
X-8265Y-100977D01*
X-7501Y-101294D01*
X-6673D01*
X-5908Y-100977D01*
X-5322Y-100391D01*
X-5006Y-99627D01*
Y-98799D01*
X-5322Y-98034D01*
X-5908Y-97448D01*
X-6673Y-97132D01*
D02*
G37*
G36*
X-46301Y-94543D02*
X-47128D01*
X-47893Y-94860D01*
X-48479Y-95445D01*
X-48796Y-96210D01*
Y-97038D01*
X-48479Y-97803D01*
X-47893Y-98388D01*
X-47129Y-98705D01*
Y-99169D01*
X-47893Y-99486D01*
X-48479Y-100071D01*
X-48796Y-100836D01*
Y-101664D01*
X-48479Y-102429D01*
X-47893Y-103014D01*
X-47128Y-103331D01*
X-46301D01*
X-45536Y-103014D01*
X-44950Y-102429D01*
X-44633Y-101664D01*
Y-100836D01*
X-44950Y-100071D01*
X-45536Y-99486D01*
X-46301Y-99169D01*
Y-98705D01*
X-45536Y-98388D01*
X-44950Y-97803D01*
X-44633Y-97038D01*
Y-96210D01*
X-44950Y-95445D01*
X-45536Y-94860D01*
X-46301Y-94543D01*
D02*
G37*
G36*
X-17167Y-99366D02*
X-17995D01*
X-18760Y-99683D01*
X-19345Y-100268D01*
X-19662Y-101033D01*
Y-101861D01*
X-19345Y-102626D01*
X-18760Y-103211D01*
X-17995Y-103528D01*
X-17167D01*
X-16402Y-103211D01*
X-15816Y-102626D01*
X-15500Y-101861D01*
Y-101033D01*
X-15816Y-100268D01*
X-16402Y-99683D01*
X-17167Y-99366D01*
D02*
G37*
G36*
X-88070Y-99494D02*
X-88898D01*
X-89663Y-99810D01*
X-90249Y-100396D01*
X-90565Y-101161D01*
Y-101989D01*
X-90249Y-102754D01*
X-89663Y-103339D01*
X-88898Y-103656D01*
X-88070D01*
X-87305Y-103339D01*
X-86720Y-102754D01*
X-86403Y-101989D01*
Y-101161D01*
X-86720Y-100396D01*
X-87305Y-99810D01*
X-88070Y-99494D01*
D02*
G37*
G36*
X-82029Y-100645D02*
X-82857D01*
X-83622Y-100962D01*
X-84207Y-101548D01*
X-84524Y-102312D01*
Y-103140D01*
X-84207Y-103905D01*
X-83622Y-104491D01*
X-82857Y-104807D01*
X-82029D01*
X-81264Y-104491D01*
X-80679Y-103905D01*
X-80362Y-103140D01*
Y-102312D01*
X-80679Y-101548D01*
X-81264Y-100962D01*
X-82029Y-100645D01*
D02*
G37*
G36*
X-6673Y-101856D02*
X-7501D01*
X-8265Y-102173D01*
X-8851Y-102758D01*
X-9168Y-103523D01*
Y-104351D01*
X-8851Y-105116D01*
X-8265Y-105701D01*
X-7501Y-106018D01*
X-6673D01*
X-5908Y-105701D01*
X-5322Y-105116D01*
X-5006Y-104351D01*
Y-103523D01*
X-5322Y-102758D01*
X-5908Y-102173D01*
X-6673Y-101856D01*
D02*
G37*
G36*
X1300Y-103923D02*
X472D01*
X-293Y-104240D01*
X-878Y-104825D01*
X-1195Y-105590D01*
Y-106418D01*
X-878Y-107183D01*
X-293Y-107768D01*
X472Y-108085D01*
X1300D01*
X2065Y-107768D01*
X2650Y-107183D01*
X2967Y-106418D01*
Y-105590D01*
X2650Y-104825D01*
X2065Y-104240D01*
X1300Y-103923D01*
D02*
G37*
G36*
X-17167Y-104385D02*
X-17995D01*
X-18760Y-104702D01*
X-19345Y-105288D01*
X-19662Y-106053D01*
Y-106880D01*
X-19345Y-107645D01*
X-18760Y-108231D01*
X-17995Y-108548D01*
X-17167D01*
X-16402Y-108231D01*
X-15816Y-107645D01*
X-15500Y-106880D01*
Y-106053D01*
X-15816Y-105288D01*
X-16402Y-104702D01*
X-17167Y-104385D01*
D02*
G37*
G36*
X-46301D02*
X-47128D01*
X-47893Y-104702D01*
X-48479Y-105288D01*
X-48796Y-106053D01*
Y-106880D01*
X-48479Y-107645D01*
X-47893Y-108231D01*
X-47128Y-108548D01*
X-46301D01*
X-45536Y-108231D01*
X-44950Y-107645D01*
X-44633Y-106880D01*
Y-106053D01*
X-44950Y-105288D01*
X-45536Y-104702D01*
X-46301Y-104385D01*
D02*
G37*
G36*
X-20710Y-107830D02*
X-21538D01*
X-22303Y-108147D01*
X-22569Y-108413D01*
X-22896Y-108726D01*
X-23222Y-108413D01*
X-23489Y-108147D01*
X-24253Y-107830D01*
X-25081D01*
X-25846Y-108147D01*
X-26162Y-108463D01*
X-26488Y-108693D01*
X-26815Y-108463D01*
X-27130Y-108147D01*
X-27895Y-107830D01*
X-28723D01*
X-29488Y-108147D01*
X-29754Y-108413D01*
X-30081Y-108726D01*
X-30407Y-108413D01*
X-30674Y-108147D01*
X-31438Y-107830D01*
X-32266D01*
X-33031Y-108147D01*
X-33526Y-108642D01*
X-34020Y-108147D01*
X-34785Y-107830D01*
X-35613D01*
X-36378Y-108147D01*
X-36872Y-108642D01*
X-37366Y-108147D01*
X-38131Y-107830D01*
X-38959D01*
X-39724Y-108147D01*
X-40310Y-108733D01*
X-40362Y-108860D01*
X-40862D01*
X-40915Y-108733D01*
X-41500Y-108147D01*
X-42265Y-107830D01*
X-43093D01*
X-43858Y-108147D01*
X-44443Y-108733D01*
X-44760Y-109497D01*
Y-110325D01*
X-44443Y-111090D01*
X-43858Y-111676D01*
X-43093Y-111993D01*
X-42265D01*
X-41500Y-111676D01*
X-40915Y-111090D01*
X-40862Y-110963D01*
X-40362D01*
X-40310Y-111090D01*
X-39724Y-111676D01*
X-38959Y-111993D01*
X-38131D01*
X-37366Y-111676D01*
X-36872Y-111181D01*
X-36378Y-111676D01*
X-35613Y-111993D01*
X-34785D01*
X-34020Y-111676D01*
X-33526Y-111181D01*
X-33031Y-111676D01*
X-32266Y-111993D01*
X-31438D01*
X-30674Y-111676D01*
X-30407Y-111409D01*
X-30081Y-111097D01*
X-29754Y-111409D01*
X-29488Y-111676D01*
X-28723Y-111993D01*
X-27895D01*
X-27130Y-111676D01*
X-26815Y-111360D01*
X-26488Y-111130D01*
X-26162Y-111360D01*
X-25846Y-111676D01*
X-25081Y-111993D01*
X-24253D01*
X-23489Y-111676D01*
X-23222Y-111409D01*
X-22896Y-111097D01*
X-22569Y-111409D01*
X-22303Y-111676D01*
X-21538Y-111993D01*
X-20710D01*
X-19945Y-111676D01*
X-19360Y-111090D01*
X-19043Y-110325D01*
Y-109497D01*
X-19360Y-108733D01*
X-19945Y-108147D01*
X-20710Y-107830D01*
D02*
G37*
G36*
X-82029Y-105763D02*
X-82857D01*
X-83622Y-106080D01*
X-84207Y-106666D01*
X-84524Y-107431D01*
Y-108258D01*
X-84207Y-109023D01*
X-83622Y-109609D01*
X-82857Y-109926D01*
X-82029D01*
X-81264Y-109609D01*
X-80679Y-109023D01*
X-80362Y-108258D01*
Y-107431D01*
X-80679Y-106666D01*
X-81264Y-106080D01*
X-82029Y-105763D01*
D02*
G37*
G36*
X25611Y-106876D02*
X24783D01*
X24018Y-107192D01*
X23433Y-107778D01*
X23116Y-108543D01*
Y-109371D01*
X23433Y-110135D01*
X24018Y-110721D01*
X24783Y-111038D01*
X25611D01*
X26376Y-110721D01*
X26961Y-110135D01*
X27278Y-109371D01*
Y-108543D01*
X26961Y-107778D01*
X26376Y-107192D01*
X25611Y-106876D01*
D02*
G37*
G36*
X102544Y-92147D02*
X100680D01*
X98851Y-92511D01*
X97129Y-93224D01*
X95578Y-94260D01*
X94260Y-95578D01*
X93224Y-97129D01*
X92511Y-98851D01*
X92147Y-100680D01*
Y-102544D01*
X92511Y-104373D01*
X93224Y-106095D01*
X94260Y-107645D01*
X95578Y-108963D01*
X97129Y-109999D01*
X98851Y-110713D01*
X100680Y-111076D01*
X102544D01*
X104373Y-110713D01*
X106095Y-109999D01*
X107645Y-108963D01*
X108963Y-107645D01*
X109999Y-106095D01*
X110713Y-104373D01*
X111076Y-102544D01*
Y-100680D01*
X110713Y-98851D01*
X109999Y-97129D01*
X108963Y-95578D01*
X107645Y-94260D01*
X106095Y-93224D01*
X104373Y-92511D01*
X102544Y-92147D01*
D02*
G37*
G36*
X-100680D02*
X-102544D01*
X-104373Y-92511D01*
X-106095Y-93224D01*
X-107645Y-94260D01*
X-108963Y-95578D01*
X-109999Y-97129D01*
X-110713Y-98851D01*
X-111076Y-100680D01*
Y-102544D01*
X-110713Y-104373D01*
X-109999Y-106095D01*
X-108963Y-107645D01*
X-107645Y-108963D01*
X-106095Y-109999D01*
X-104373Y-110713D01*
X-102544Y-111076D01*
X-100680D01*
X-98851Y-110713D01*
X-97129Y-109999D01*
X-95578Y-108963D01*
X-94260Y-107645D01*
X-93224Y-106095D01*
X-92511Y-104373D01*
X-92147Y-102544D01*
Y-100680D01*
X-92511Y-98851D01*
X-93224Y-97129D01*
X-94260Y-95578D01*
X-95578Y-94260D01*
X-97129Y-93224D01*
X-98851Y-92511D01*
X-100680Y-92147D01*
D02*
G37*
G36*
X-6673Y-106974D02*
X-7501D01*
X-8265Y-107291D01*
X-8851Y-107876D01*
X-9168Y-108641D01*
Y-109469D01*
X-8851Y-110234D01*
X-8265Y-110819D01*
X-7501Y-111136D01*
X-6673D01*
X-5908Y-110819D01*
X-5322Y-110234D01*
X-5006Y-109469D01*
Y-108641D01*
X-5322Y-107876D01*
X-5908Y-107291D01*
X-6673Y-106974D01*
D02*
G37*
G36*
X33485Y-107072D02*
X32657D01*
X31892Y-107389D01*
X31307Y-107975D01*
X30990Y-108740D01*
Y-109567D01*
X31307Y-110332D01*
X31892Y-110918D01*
X32657Y-111235D01*
X33485D01*
X34250Y-110918D01*
X34835Y-110332D01*
X35152Y-109567D01*
Y-108740D01*
X34835Y-107975D01*
X34250Y-107389D01*
X33485Y-107072D01*
D02*
G37*
G36*
X18721Y-109336D02*
X17893D01*
X17128Y-109653D01*
X16543Y-110239D01*
X16226Y-111003D01*
Y-111831D01*
X16543Y-112596D01*
X17128Y-113182D01*
X17893Y-113498D01*
X18721D01*
X19486Y-113182D01*
X20071Y-112596D01*
X20388Y-111831D01*
Y-111003D01*
X20071Y-110239D01*
X19486Y-109653D01*
X18721Y-109336D01*
D02*
G37*
G36*
X119705Y-110025D02*
X118877D01*
X118113Y-110342D01*
X117527Y-110927D01*
X117210Y-111692D01*
Y-112520D01*
X117527Y-113285D01*
X118113Y-113871D01*
X118877Y-114187D01*
X119705D01*
X120470Y-113871D01*
X121056Y-113285D01*
X121372Y-112520D01*
Y-111692D01*
X121056Y-110927D01*
X120470Y-110342D01*
X119705Y-110025D01*
D02*
G37*
G36*
X108091D02*
X107263D01*
X106498Y-110342D01*
X105913Y-110927D01*
X105596Y-111692D01*
Y-112520D01*
X105913Y-113285D01*
X106498Y-113871D01*
X107263Y-114187D01*
X108091D01*
X108856Y-113871D01*
X109441Y-113285D01*
X109758Y-112520D01*
Y-111692D01*
X109441Y-110927D01*
X108856Y-110342D01*
X108091Y-110025D01*
D02*
G37*
G36*
X-15728Y-110124D02*
X-16556D01*
X-17321Y-110441D01*
X-17906Y-111026D01*
X-18223Y-111791D01*
Y-112619D01*
X-17906Y-113384D01*
X-17321Y-113969D01*
X-16556Y-114286D01*
X-15728D01*
X-14963Y-113969D01*
X-14378Y-113384D01*
X-14061Y-112619D01*
Y-111791D01*
X-14378Y-111026D01*
X-14963Y-110441D01*
X-15728Y-110124D01*
D02*
G37*
G36*
X-83444Y-110911D02*
X-84272D01*
X-85037Y-111228D01*
X-85623Y-111813D01*
X-85939Y-112578D01*
Y-113406D01*
X-85623Y-114171D01*
X-85037Y-114756D01*
X-84272Y-115073D01*
X-83444D01*
X-82679Y-114756D01*
X-82094Y-114171D01*
X-81777Y-113406D01*
Y-112578D01*
X-82094Y-111813D01*
X-82679Y-111228D01*
X-83444Y-110911D01*
D02*
G37*
G36*
X-116614Y-112092D02*
X-117441D01*
X-118206Y-112409D01*
X-118792Y-112994D01*
X-119109Y-113759D01*
Y-114587D01*
X-118792Y-115352D01*
X-118206Y-115937D01*
X-117441Y-116254D01*
X-116614D01*
X-115849Y-115937D01*
X-115263Y-115352D01*
X-114946Y-114587D01*
Y-113759D01*
X-115263Y-112994D01*
X-115849Y-112409D01*
X-116614Y-112092D01*
D02*
G37*
G36*
X-6673Y-112486D02*
X-7501D01*
X-8265Y-112803D01*
X-8851Y-113388D01*
X-9168Y-114153D01*
Y-114981D01*
X-8851Y-115746D01*
X-8265Y-116331D01*
X-7501Y-116648D01*
X-6673D01*
X-5908Y-116331D01*
X-5322Y-115746D01*
X-5006Y-114981D01*
Y-114153D01*
X-5322Y-113388D01*
X-5908Y-112803D01*
X-6673Y-112486D01*
D02*
G37*
G36*
X46969Y-113470D02*
X46141D01*
X45376Y-113787D01*
X44791Y-114372D01*
X44474Y-115137D01*
Y-115965D01*
X44791Y-116730D01*
X45376Y-117315D01*
X46141Y-117632D01*
X46969D01*
X47734Y-117315D01*
X48319Y-116730D01*
X48636Y-115965D01*
Y-115137D01*
X48319Y-114372D01*
X47734Y-113787D01*
X46969Y-113470D01*
D02*
G37*
G36*
X-16122Y-114848D02*
X-16949D01*
X-17714Y-115165D01*
X-18300Y-115750D01*
X-18617Y-116515D01*
Y-117343D01*
X-18300Y-118108D01*
X-17714Y-118693D01*
X-16949Y-119010D01*
X-16122D01*
X-15357Y-118693D01*
X-14771Y-118108D01*
X-14454Y-117343D01*
Y-116515D01*
X-14771Y-115750D01*
X-15357Y-115165D01*
X-16122Y-114848D01*
D02*
G37*
G36*
X-92795D02*
X-93623D01*
X-94388Y-115165D01*
X-94973Y-115750D01*
X-95290Y-116515D01*
Y-117343D01*
X-94973Y-118108D01*
X-94388Y-118693D01*
X-93623Y-119010D01*
X-92795D01*
X-92030Y-118693D01*
X-91444Y-118108D01*
X-91128Y-117343D01*
Y-116515D01*
X-91444Y-115750D01*
X-92030Y-115165D01*
X-92795Y-114848D01*
D02*
G37*
G36*
X-83444Y-116423D02*
X-84272D01*
X-85037Y-116740D01*
X-85623Y-117325D01*
X-85939Y-118090D01*
Y-118918D01*
X-85623Y-119683D01*
X-85037Y-120268D01*
X-84272Y-120585D01*
X-83444D01*
X-82679Y-120268D01*
X-82094Y-119683D01*
X-81777Y-118918D01*
Y-118090D01*
X-82094Y-117325D01*
X-82679Y-116740D01*
X-83444Y-116423D01*
D02*
G37*
G36*
X-6673Y-117604D02*
X-7501D01*
X-8265Y-117921D01*
X-8851Y-118506D01*
X-9168Y-119271D01*
Y-120099D01*
X-8851Y-120864D01*
X-8265Y-121449D01*
X-7501Y-121766D01*
X-6673D01*
X-5908Y-121449D01*
X-5322Y-120864D01*
X-5006Y-120099D01*
Y-119271D01*
X-5322Y-118506D01*
X-5908Y-117921D01*
X-6673Y-117604D01*
D02*
G37*
G36*
X111813Y-113074D02*
X110772Y-113305D01*
X109826Y-113797D01*
X109040Y-114517D01*
X108467Y-115417D01*
X108147Y-116434D01*
X108100Y-117499D01*
X108331Y-118540D01*
X108823Y-119486D01*
X109726Y-120776D01*
X110447Y-121562D01*
X111346Y-122135D01*
X112363Y-122455D01*
X113428Y-122502D01*
X114469Y-122271D01*
X115415Y-121779D01*
X116201Y-121058D01*
X116774Y-120159D01*
X117095Y-119142D01*
X117141Y-118077D01*
X116911Y-117036D01*
X116418Y-116090D01*
X115515Y-114800D01*
X114795Y-114014D01*
X113895Y-113441D01*
X112878Y-113120D01*
X111813Y-113074D01*
D02*
G37*
G36*
X-45255Y-118391D02*
X-46083D01*
X-46848Y-118708D01*
X-47434Y-119294D01*
X-47750Y-120059D01*
Y-120886D01*
X-47434Y-121651D01*
X-46848Y-122237D01*
X-46083Y-122554D01*
X-45255D01*
X-44490Y-122237D01*
X-43905Y-121651D01*
X-43588Y-120886D01*
Y-120059D01*
X-43905Y-119294D01*
X-44490Y-118708D01*
X-45255Y-118391D01*
D02*
G37*
G36*
X88012Y-120163D02*
X87185D01*
X86420Y-120480D01*
X85834Y-121065D01*
X85517Y-121830D01*
Y-122658D01*
X85834Y-123423D01*
X86420Y-124008D01*
X87185Y-124325D01*
X88012D01*
X88777Y-124008D01*
X89363Y-123423D01*
X89679Y-122658D01*
Y-121830D01*
X89363Y-121065D01*
X88777Y-120480D01*
X88012Y-120163D01*
D02*
G37*
G36*
X-52736Y-121541D02*
X-53564D01*
X-54329Y-121858D01*
X-54914Y-122443D01*
X-55231Y-123208D01*
Y-124036D01*
X-54914Y-124801D01*
X-54329Y-125386D01*
X-53564Y-125703D01*
X-52736D01*
X-51971Y-125386D01*
X-51385Y-124801D01*
X-51069Y-124036D01*
Y-123208D01*
X-51385Y-122443D01*
X-51971Y-121858D01*
X-52736Y-121541D01*
D02*
G37*
G36*
X-57854D02*
X-58682D01*
X-59447Y-121858D01*
X-60032Y-122443D01*
X-60349Y-123208D01*
Y-124036D01*
X-60032Y-124801D01*
X-59447Y-125386D01*
X-58682Y-125703D01*
X-57854D01*
X-57089Y-125386D01*
X-56503Y-124801D01*
X-56187Y-124036D01*
Y-123208D01*
X-56503Y-122443D01*
X-57089Y-121858D01*
X-57854Y-121541D01*
D02*
G37*
G36*
X-62578D02*
X-63406D01*
X-64171Y-121858D01*
X-64756Y-122443D01*
X-65073Y-123208D01*
Y-124036D01*
X-64756Y-124801D01*
X-64171Y-125386D01*
X-63406Y-125703D01*
X-62578D01*
X-61813Y-125386D01*
X-61228Y-124801D01*
X-60911Y-124036D01*
Y-123208D01*
X-61228Y-122443D01*
X-61813Y-121858D01*
X-62578Y-121541D01*
D02*
G37*
G36*
X-67696D02*
X-68524D01*
X-69289Y-121858D01*
X-69875Y-122443D01*
X-70191Y-123208D01*
Y-124036D01*
X-69875Y-124801D01*
X-69289Y-125386D01*
X-68524Y-125703D01*
X-67696D01*
X-66931Y-125386D01*
X-66346Y-124801D01*
X-66029Y-124036D01*
Y-123208D01*
X-66346Y-122443D01*
X-66931Y-121858D01*
X-67696Y-121541D01*
D02*
G37*
G36*
X-72814D02*
X-73642D01*
X-74407Y-121858D01*
X-74993Y-122443D01*
X-75309Y-123208D01*
Y-124036D01*
X-74993Y-124801D01*
X-74407Y-125386D01*
X-73642Y-125703D01*
X-72814D01*
X-72049Y-125386D01*
X-71464Y-124801D01*
X-71147Y-124036D01*
Y-123208D01*
X-71464Y-122443D01*
X-72049Y-121858D01*
X-72814Y-121541D01*
D02*
G37*
G36*
X-77933D02*
X-78760D01*
X-79525Y-121858D01*
X-80111Y-122443D01*
X-80428Y-123208D01*
Y-124036D01*
X-80111Y-124801D01*
X-79525Y-125386D01*
X-78760Y-125703D01*
X-77933D01*
X-77168Y-125386D01*
X-76582Y-124801D01*
X-76265Y-124036D01*
Y-123208D01*
X-76582Y-122443D01*
X-77168Y-121858D01*
X-77933Y-121541D01*
D02*
G37*
G36*
X-83444D02*
X-84272D01*
X-85037Y-121858D01*
X-85623Y-122443D01*
X-85939Y-123208D01*
Y-124036D01*
X-85623Y-124801D01*
X-85037Y-125386D01*
X-84272Y-125703D01*
X-83444D01*
X-82679Y-125386D01*
X-82094Y-124801D01*
X-81777Y-124036D01*
Y-123208D01*
X-82094Y-122443D01*
X-82679Y-121858D01*
X-83444Y-121541D01*
D02*
G37*
G36*
X29745Y-121836D02*
X28917D01*
X28152Y-122153D01*
X27566Y-122739D01*
X27250Y-123503D01*
Y-124331D01*
X27566Y-125096D01*
X28152Y-125682D01*
X28917Y-125998D01*
X29745D01*
X30510Y-125682D01*
X31095Y-125096D01*
X31412Y-124331D01*
Y-123503D01*
X31095Y-122739D01*
X30510Y-122153D01*
X29745Y-121836D01*
D02*
G37*
G36*
X-6673Y-122722D02*
X-7501D01*
X-8265Y-123039D01*
X-8851Y-123624D01*
X-9168Y-124389D01*
Y-125217D01*
X-8851Y-125982D01*
X-8265Y-126567D01*
X-7501Y-126884D01*
X-6673D01*
X-5908Y-126567D01*
X-5322Y-125982D01*
X-5006Y-125217D01*
Y-124389D01*
X-5322Y-123624D01*
X-5908Y-123039D01*
X-6673Y-122722D01*
D02*
G37*
G36*
X76004Y-123509D02*
X75177D01*
X74412Y-123826D01*
X73826Y-124412D01*
X73510Y-125177D01*
Y-126005D01*
X73826Y-126769D01*
X74412Y-127355D01*
X75177Y-127672D01*
X76004D01*
X76769Y-127355D01*
X77355Y-126769D01*
X77672Y-126005D01*
Y-125177D01*
X77355Y-124412D01*
X76769Y-123826D01*
X76004Y-123509D01*
D02*
G37*
G36*
X103621Y-118810D02*
X102580Y-119040D01*
X101635Y-119533D01*
X100849Y-120253D01*
X100276Y-121152D01*
X99955Y-122169D01*
X99909Y-123235D01*
X100139Y-124276D01*
X100632Y-125221D01*
X101535Y-126511D01*
X102255Y-127298D01*
X103155Y-127871D01*
X104172Y-128191D01*
X105237Y-128238D01*
X106278Y-128007D01*
X107224Y-127515D01*
X108010Y-126794D01*
X108583Y-125895D01*
X108903Y-124878D01*
X108950Y-123813D01*
X108719Y-122772D01*
X108227Y-121826D01*
X107323Y-120536D01*
X106603Y-119750D01*
X105704Y-119177D01*
X104687Y-118856D01*
X103621Y-118810D01*
D02*
G37*
G36*
X-95354Y-125478D02*
X-96182D01*
X-96947Y-125795D01*
X-97532Y-126380D01*
X-97849Y-127145D01*
Y-127973D01*
X-97532Y-128738D01*
X-96947Y-129323D01*
X-96182Y-129640D01*
X-95354D01*
X-94589Y-129323D01*
X-94003Y-128738D01*
X-93687Y-127973D01*
Y-127145D01*
X-94003Y-126380D01*
X-94589Y-125795D01*
X-95354Y-125478D01*
D02*
G37*
G36*
X-51948Y-126659D02*
X-52776D01*
X-53541Y-126976D01*
X-54127Y-127561D01*
X-54443Y-128326D01*
Y-129154D01*
X-54127Y-129919D01*
X-53541Y-130504D01*
X-52776Y-130821D01*
X-51948D01*
X-51183Y-130504D01*
X-50598Y-129919D01*
X-50281Y-129154D01*
Y-128326D01*
X-50598Y-127561D01*
X-51183Y-126976D01*
X-51948Y-126659D01*
D02*
G37*
G36*
X-65334Y-127053D02*
X-66162D01*
X-66927Y-127370D01*
X-67512Y-127955D01*
X-67829Y-128720D01*
Y-129548D01*
X-67512Y-130313D01*
X-66927Y-130898D01*
X-66162Y-131215D01*
X-65334D01*
X-64569Y-130898D01*
X-63984Y-130313D01*
X-63667Y-129548D01*
Y-128720D01*
X-63984Y-127955D01*
X-64569Y-127370D01*
X-65334Y-127053D01*
D02*
G37*
G36*
X-6673Y-127446D02*
X-7501D01*
X-8265Y-127763D01*
X-8851Y-128349D01*
X-9168Y-129114D01*
Y-129941D01*
X-8851Y-130706D01*
X-8265Y-131292D01*
X-7501Y-131609D01*
X-6673D01*
X-5908Y-131292D01*
X-5322Y-130706D01*
X-5006Y-129941D01*
Y-129114D01*
X-5322Y-128349D01*
X-5908Y-127763D01*
X-6673Y-127446D01*
D02*
G37*
G36*
X60650Y-127742D02*
X59822D01*
X59057Y-128059D01*
X58472Y-128644D01*
X58155Y-129409D01*
Y-130237D01*
X58472Y-131002D01*
X59057Y-131587D01*
X59822Y-131904D01*
X60650D01*
X61415Y-131587D01*
X62001Y-131002D01*
X62317Y-130237D01*
Y-129409D01*
X62001Y-128644D01*
X61415Y-128059D01*
X60650Y-127742D01*
D02*
G37*
G36*
X95430Y-124545D02*
X94389Y-124776D01*
X93443Y-125268D01*
X92657Y-125989D01*
X92084Y-126888D01*
X91764Y-127905D01*
X91717Y-128970D01*
X91948Y-130011D01*
X92440Y-130957D01*
X93343Y-132247D01*
X94064Y-133033D01*
X94963Y-133606D01*
X95980Y-133927D01*
X97045Y-133973D01*
X98086Y-133743D01*
X99032Y-133250D01*
X99818Y-132530D01*
X100391Y-131631D01*
X100712Y-130614D01*
X100758Y-129548D01*
X100528Y-128507D01*
X100035Y-127562D01*
X99132Y-126272D01*
X98412Y-125485D01*
X97512Y-124913D01*
X96495Y-124592D01*
X95430Y-124545D01*
D02*
G37*
G36*
X-57066Y-130596D02*
X-57894D01*
X-58659Y-130913D01*
X-59245Y-131498D01*
X-59561Y-132263D01*
Y-133091D01*
X-59245Y-133856D01*
X-58659Y-134441D01*
X-57894Y-134758D01*
X-57066D01*
X-56301Y-134441D01*
X-55716Y-133856D01*
X-55399Y-133091D01*
Y-132263D01*
X-55716Y-131498D01*
X-56301Y-130913D01*
X-57066Y-130596D01*
D02*
G37*
G36*
X-6673Y-132171D02*
X-7501D01*
X-8265Y-132488D01*
X-8851Y-133073D01*
X-9168Y-133838D01*
Y-134666D01*
X-8851Y-135431D01*
X-8265Y-136016D01*
X-7501Y-136333D01*
X-6673D01*
X-5908Y-136016D01*
X-5322Y-135431D01*
X-5006Y-134666D01*
Y-133838D01*
X-5322Y-133073D01*
X-5908Y-132488D01*
X-6673Y-132171D01*
D02*
G37*
G36*
X77579Y-132860D02*
X76751D01*
X75986Y-133177D01*
X75401Y-133762D01*
X75084Y-134527D01*
Y-135355D01*
X75401Y-136120D01*
X75986Y-136705D01*
X76751Y-137022D01*
X77579D01*
X78344Y-136705D01*
X78930Y-136120D01*
X79246Y-135355D01*
Y-134527D01*
X78930Y-133762D01*
X78344Y-133177D01*
X77579Y-132860D01*
D02*
G37*
G36*
X47560Y-133746D02*
X46732D01*
X45967Y-134063D01*
X45381Y-134648D01*
X45065Y-135413D01*
Y-136241D01*
X45381Y-137006D01*
X45967Y-137591D01*
X46732Y-137908D01*
X47560D01*
X48324Y-137591D01*
X48910Y-137006D01*
X49227Y-136241D01*
Y-135413D01*
X48910Y-134648D01*
X48324Y-134063D01*
X47560Y-133746D01*
D02*
G37*
G36*
X-51555Y-134139D02*
X-52382D01*
X-53147Y-134456D01*
X-53733Y-135042D01*
X-54050Y-135807D01*
Y-136634D01*
X-53733Y-137399D01*
X-53147Y-137985D01*
X-52382Y-138302D01*
X-51555D01*
X-50790Y-137985D01*
X-50204Y-137399D01*
X-49887Y-136634D01*
Y-135807D01*
X-50204Y-135042D01*
X-50790Y-134456D01*
X-51555Y-134139D01*
D02*
G37*
G36*
X5138Y-136895D02*
X4310D01*
X3546Y-137212D01*
X2960Y-137797D01*
X2643Y-138562D01*
Y-139390D01*
X2960Y-140155D01*
X3546Y-140741D01*
X4310Y-141058D01*
X5138D01*
X5903Y-140741D01*
X6489Y-140155D01*
X6805Y-139390D01*
Y-138562D01*
X6489Y-137797D01*
X5903Y-137212D01*
X5138Y-136895D01*
D02*
G37*
G36*
X88589Y-128710D02*
X81954Y-133356D01*
X87503Y-141280D01*
X94138Y-136635D01*
X88589Y-128710D01*
D02*
G37*
G36*
X-6673Y-137289D02*
X-7501D01*
X-8265Y-137606D01*
X-8851Y-138191D01*
X-9168Y-138956D01*
Y-139784D01*
X-8851Y-140549D01*
X-8265Y-141134D01*
X-7501Y-141451D01*
X-6673D01*
X-5908Y-141134D01*
X-5322Y-140549D01*
X-5006Y-139784D01*
Y-138956D01*
X-5322Y-138191D01*
X-5908Y-137606D01*
X-6673Y-137289D01*
D02*
G37*
G36*
X-56673Y-138470D02*
X-57501D01*
X-58266Y-138787D01*
X-58851Y-139372D01*
X-59168Y-140137D01*
Y-140965D01*
X-58851Y-141730D01*
X-58266Y-142315D01*
X-57501Y-142632D01*
X-56673D01*
X-55908Y-142315D01*
X-55322Y-141730D01*
X-55006Y-140965D01*
Y-140137D01*
X-55322Y-139372D01*
X-55908Y-138787D01*
X-56673Y-138470D01*
D02*
G37*
G36*
X-49980Y-139651D02*
X-50808D01*
X-51573Y-139968D01*
X-52158Y-140553D01*
X-52475Y-141318D01*
Y-142146D01*
X-52158Y-142911D01*
X-51573Y-143497D01*
X-50808Y-143813D01*
X-49980D01*
X-49215Y-143497D01*
X-48629Y-142911D01*
X-48313Y-142146D01*
Y-141318D01*
X-48629Y-140553D01*
X-49215Y-139968D01*
X-49980Y-139651D01*
D02*
G37*
G36*
X81812Y-141226D02*
X80984D01*
X80219Y-141543D01*
X79633Y-142128D01*
X79317Y-142893D01*
Y-143721D01*
X79633Y-144486D01*
X80219Y-145071D01*
X80984Y-145388D01*
X81812D01*
X82577Y-145071D01*
X83162Y-144486D01*
X83479Y-143721D01*
Y-142893D01*
X83162Y-142128D01*
X82577Y-141543D01*
X81812Y-141226D01*
D02*
G37*
G36*
X-62972D02*
X-63800D01*
X-64565Y-141543D01*
X-65150Y-142128D01*
X-65467Y-142893D01*
Y-143721D01*
X-65150Y-144486D01*
X-64565Y-145071D01*
X-63800Y-145388D01*
X-62972D01*
X-62207Y-145071D01*
X-61622Y-144486D01*
X-61305Y-143721D01*
Y-142893D01*
X-61622Y-142128D01*
X-62207Y-141543D01*
X-62972Y-141226D01*
D02*
G37*
G36*
X32894Y-141423D02*
X32066D01*
X31302Y-141740D01*
X30716Y-142325D01*
X30399Y-143090D01*
Y-143918D01*
X30716Y-144683D01*
X31302Y-145268D01*
X32066Y-145585D01*
X32894D01*
X33659Y-145268D01*
X34245Y-144683D01*
X34561Y-143918D01*
Y-143090D01*
X34245Y-142325D01*
X33659Y-141740D01*
X32894Y-141423D01*
D02*
G37*
G36*
X-6673Y-142801D02*
X-7501D01*
X-8265Y-143118D01*
X-8851Y-143703D01*
X-9168Y-144468D01*
Y-145296D01*
X-8851Y-146061D01*
X-8265Y-146646D01*
X-7501Y-146963D01*
X-6673D01*
X-5908Y-146646D01*
X-5322Y-146061D01*
X-5006Y-145296D01*
Y-144468D01*
X-5322Y-143703D01*
X-5908Y-143118D01*
X-6673Y-142801D01*
D02*
G37*
G36*
X47067Y-145950D02*
X46240D01*
X45475Y-146267D01*
X44889Y-146853D01*
X44572Y-147617D01*
Y-148445D01*
X44889Y-149210D01*
X45475Y-149796D01*
X46240Y-150113D01*
X47067D01*
X47832Y-149796D01*
X48418Y-149210D01*
X48735Y-148445D01*
Y-147617D01*
X48418Y-146853D01*
X47832Y-146267D01*
X47067Y-145950D01*
D02*
G37*
G36*
X-6673Y-147525D02*
X-7501D01*
X-8265Y-147842D01*
X-8851Y-148427D01*
X-9168Y-149192D01*
Y-150020D01*
X-8851Y-150785D01*
X-8265Y-151371D01*
X-7501Y-151687D01*
X-6673D01*
X-5908Y-151371D01*
X-5322Y-150785D01*
X-5006Y-150020D01*
Y-149192D01*
X-5322Y-148427D01*
X-5908Y-147842D01*
X-6673Y-147525D01*
D02*
G37*
G36*
Y-152250D02*
X-7501D01*
X-8265Y-152566D01*
X-8851Y-153152D01*
X-9168Y-153917D01*
Y-154745D01*
X-8851Y-155510D01*
X-8265Y-156095D01*
X-7501Y-156412D01*
X-6673D01*
X-5908Y-156095D01*
X-5322Y-155510D01*
X-5006Y-154745D01*
Y-153917D01*
X-5322Y-153152D01*
X-5908Y-152566D01*
X-6673Y-152250D01*
D02*
G37*
G36*
X11044Y-155202D02*
X10216D01*
X9451Y-155519D01*
X8866Y-156105D01*
X8549Y-156869D01*
Y-157697D01*
X8866Y-158462D01*
X9451Y-159048D01*
X10216Y-159365D01*
X11044D01*
X11809Y-159048D01*
X12394Y-158462D01*
X12711Y-157697D01*
Y-156869D01*
X12394Y-156105D01*
X11809Y-155519D01*
X11044Y-155202D01*
D02*
G37*
G36*
X-6673Y-157761D02*
X-7501D01*
X-8265Y-158078D01*
X-8851Y-158664D01*
X-9168Y-159429D01*
Y-160257D01*
X-8851Y-161021D01*
X-8265Y-161607D01*
X-7501Y-161924D01*
X-6673D01*
X-5908Y-161607D01*
X-5322Y-161021D01*
X-5006Y-160257D01*
Y-159429D01*
X-5322Y-158664D01*
X-5908Y-158078D01*
X-6673Y-157761D01*
D02*
G37*
G36*
X-10216Y-162092D02*
X-11044D01*
X-11809Y-162409D01*
X-12394Y-162994D01*
X-12711Y-163759D01*
Y-164587D01*
X-12394Y-165352D01*
X-11809Y-165937D01*
X-11044Y-166254D01*
X-10216D01*
X-9451Y-165937D01*
X-8866Y-165352D01*
X-8549Y-164587D01*
Y-163759D01*
X-8866Y-162994D01*
X-9451Y-162409D01*
X-10216Y-162092D01*
D02*
G37*
G36*
X-18090Y-119179D02*
X-18918D01*
X-19683Y-119496D01*
X-20167Y-119980D01*
X-37598D01*
X-44685Y-126025D01*
Y-140439D01*
X-44902D01*
X-45667Y-140755D01*
X-46253Y-141341D01*
X-46569Y-142106D01*
Y-142934D01*
X-46253Y-143699D01*
X-45667Y-144284D01*
X-44902Y-144601D01*
X-44685D01*
Y-147013D01*
X-44862Y-147132D01*
X-45690D01*
X-46454Y-147448D01*
X-47040Y-148034D01*
X-47357Y-148799D01*
Y-149627D01*
X-47040Y-150391D01*
X-46454Y-150977D01*
X-45690Y-151294D01*
X-45260D01*
X-44811Y-151773D01*
X-44820Y-151856D01*
X-45296D01*
X-46061Y-152173D01*
X-46646Y-152758D01*
X-46963Y-153523D01*
Y-154351D01*
X-46646Y-155116D01*
X-46061Y-155701D01*
X-45296Y-156018D01*
X-44685D01*
Y-156816D01*
X-44880Y-156897D01*
X-45465Y-157483D01*
X-45782Y-158247D01*
Y-159075D01*
X-45465Y-159840D01*
X-44880Y-160426D01*
X-44115Y-160742D01*
X-43287D01*
X-42522Y-160426D01*
X-42155Y-160793D01*
X-42222Y-161129D01*
X-42808Y-161715D01*
X-43124Y-162480D01*
Y-163308D01*
X-42808Y-164073D01*
X-42222Y-164658D01*
X-41457Y-164975D01*
X-40629D01*
X-39865Y-164658D01*
X-39279Y-164073D01*
X-38962Y-163308D01*
Y-162480D01*
X-39073Y-162213D01*
X-38739Y-161713D01*
X-35844D01*
X-35744Y-162213D01*
X-36218Y-162409D01*
X-36804Y-162994D01*
X-37121Y-163759D01*
Y-164587D01*
X-36804Y-165352D01*
X-36218Y-165937D01*
X-35453Y-166254D01*
X-34625D01*
X-33860Y-165937D01*
X-33275Y-165352D01*
X-32958Y-164587D01*
Y-163759D01*
X-33275Y-162994D01*
X-33860Y-162409D01*
X-34335Y-162213D01*
X-34235Y-161713D01*
X-15650D01*
X-14730Y-160459D01*
X-14175Y-160229D01*
X-13590Y-159643D01*
X-13273Y-158879D01*
Y-158472D01*
X-11319Y-155807D01*
Y-126969D01*
X-15650Y-119980D01*
X-16840D01*
X-17325Y-119496D01*
X-18090Y-119179D01*
D02*
G37*
G36*
X-16122Y-162880D02*
X-16949D01*
X-17714Y-163196D01*
X-18300Y-163782D01*
X-18617Y-164547D01*
Y-165375D01*
X-18300Y-166139D01*
X-17714Y-166725D01*
X-16949Y-167042D01*
X-16122D01*
X-15357Y-166725D01*
X-14771Y-166139D01*
X-14454Y-165375D01*
Y-164547D01*
X-14771Y-163782D01*
X-15357Y-163196D01*
X-16122Y-162880D01*
D02*
G37*
G36*
X-22421Y-163273D02*
X-23249D01*
X-24013Y-163590D01*
X-24599Y-164175D01*
X-24916Y-164940D01*
Y-165768D01*
X-24599Y-166533D01*
X-24013Y-167119D01*
X-23249Y-167435D01*
X-22421D01*
X-21656Y-167119D01*
X-21070Y-166533D01*
X-20754Y-165768D01*
Y-164940D01*
X-21070Y-164175D01*
X-21656Y-163590D01*
X-22421Y-163273D01*
D02*
G37*
G36*
X-28326D02*
X-29154D01*
X-29919Y-163590D01*
X-30504Y-164175D01*
X-30821Y-164940D01*
Y-165768D01*
X-30504Y-166533D01*
X-29919Y-167119D01*
X-29154Y-167435D01*
X-28326D01*
X-27561Y-167119D01*
X-26976Y-166533D01*
X-26659Y-165768D01*
Y-164940D01*
X-26976Y-164175D01*
X-27561Y-163590D01*
X-28326Y-163273D01*
D02*
G37*
%LPD*%
G36*
X26901Y59202D02*
X26701Y58998D01*
X26217Y58446D01*
X26095Y58283D01*
X25910Y57988D01*
X25846Y57856D01*
X25802Y57735D01*
X25777Y57623D01*
X23554Y59847D01*
X23665Y59871D01*
X23787Y59916D01*
X23919Y59979D01*
X24061Y60062D01*
X24214Y60165D01*
X24550Y60429D01*
X24734Y60590D01*
X25133Y60970D01*
X26901Y59202D01*
D02*
G37*
G36*
X-48716Y37085D02*
X-48614Y37006D01*
X-48503Y36933D01*
X-48383Y36867D01*
X-48254Y36807D01*
X-48116Y36754D01*
X-47969Y36707D01*
X-47813Y36666D01*
X-47473Y36603D01*
X-48807Y35269D01*
X-48836Y35443D01*
X-48911Y35764D01*
X-48959Y35912D01*
X-49012Y36050D01*
X-49072Y36179D01*
X-49138Y36299D01*
X-49211Y36410D01*
X-49289Y36511D01*
X-49375Y36604D01*
X-48809Y37170D01*
X-48716Y37085D01*
D02*
G37*
G36*
X-53860Y33702D02*
X-53979Y33787D01*
X-54101Y33862D01*
X-54225Y33928D01*
X-54351Y33986D01*
X-54481Y34035D01*
X-54612Y34075D01*
X-54747Y34106D01*
X-54883Y34128D01*
X-55023Y34141D01*
X-55164Y34146D01*
Y35146D01*
X-55023Y35150D01*
X-54883Y35163D01*
X-54747Y35186D01*
X-54612Y35217D01*
X-54481Y35256D01*
X-54351Y35305D01*
X-54225Y35363D01*
X-54101Y35429D01*
X-53979Y35505D01*
X-53860Y35589D01*
Y33702D01*
D02*
G37*
G36*
X-98019Y9550D02*
X-98006Y9411D01*
X-97984Y9274D01*
X-97953Y9140D01*
X-97913Y9008D01*
X-97864Y8879D01*
X-97806Y8752D01*
X-97740Y8628D01*
X-97664Y8507D01*
X-97580Y8388D01*
X-99467D01*
X-99383Y8507D01*
X-99307Y8628D01*
X-99241Y8752D01*
X-99183Y8879D01*
X-99134Y9008D01*
X-99095Y9140D01*
X-99063Y9274D01*
X-99041Y9411D01*
X-99028Y9550D01*
X-99024Y9692D01*
X-98024D01*
X-98019Y9550D01*
D02*
G37*
G36*
X-94869Y1989D02*
X-94836Y1850D01*
X-94796Y1715D01*
X-94747Y1585D01*
X-94690Y1459D01*
X-94625Y1338D01*
X-94552Y1221D01*
X-94471Y1109D01*
X-94382Y1001D01*
X-94285Y897D01*
X-94992Y190D01*
X-95095Y287D01*
X-95203Y377D01*
X-95316Y458D01*
X-95432Y531D01*
X-95554Y595D01*
X-95680Y652D01*
X-95810Y701D01*
X-95945Y742D01*
X-96084Y774D01*
X-96227Y799D01*
X-94893Y2133D01*
X-94869Y1989D01*
D02*
G37*
G36*
X-97929Y-317D02*
X-97827Y-396D01*
X-97716Y-468D01*
X-97596Y-534D01*
X-97467Y-594D01*
X-97329Y-648D01*
X-97182Y-695D01*
X-97026Y-736D01*
X-96686Y-799D01*
X-98020Y-2133D01*
X-98048Y-1959D01*
X-98124Y-1637D01*
X-98171Y-1490D01*
X-98225Y-1352D01*
X-98285Y-1223D01*
X-98351Y-1103D01*
X-98423Y-992D01*
X-98502Y-890D01*
X-98587Y-797D01*
X-98022Y-232D01*
X-97929Y-317D01*
D02*
G37*
G36*
X-95996Y-1128D02*
X-95716Y-1302D01*
X-95578Y-1373D01*
X-95443Y-1433D01*
X-95309Y-1482D01*
X-95178Y-1520D01*
X-95048Y-1547D01*
X-94920Y-1563D01*
X-94794Y-1568D01*
Y-2369D01*
X-94920Y-2374D01*
X-95048Y-2390D01*
X-95178Y-2417D01*
X-95309Y-2455D01*
X-95443Y-2504D01*
X-95578Y-2564D01*
X-95716Y-2635D01*
X-95855Y-2716D01*
X-96140Y-2912D01*
Y-1025D01*
X-95996Y-1128D01*
D02*
G37*
G36*
X-36931Y-6061D02*
X-37050Y-5977D01*
X-37172Y-5902D01*
X-37296Y-5835D01*
X-37422Y-5778D01*
X-37551Y-5729D01*
X-37683Y-5689D01*
X-37817Y-5658D01*
X-37954Y-5636D01*
X-38094Y-5623D01*
X-38235Y-5618D01*
Y-4618D01*
X-38094Y-4614D01*
X-37954Y-4600D01*
X-37817Y-4578D01*
X-37683Y-4547D01*
X-37551Y-4507D01*
X-37422Y-4459D01*
X-37296Y-4401D01*
X-37172Y-4334D01*
X-37050Y-4259D01*
X-36931Y-4175D01*
Y-6061D01*
D02*
G37*
G36*
X-53934Y-8077D02*
X-54090Y-8082D01*
X-54229Y-8098D01*
X-54351Y-8124D01*
X-54456Y-8160D01*
X-54543Y-8206D01*
X-54614Y-8263D01*
X-54668Y-8330D01*
X-54704Y-8407D01*
X-54724Y-8495D01*
X-54726Y-8593D01*
X-55905Y-7579D01*
X-57085Y-8593D01*
X-57087Y-8495D01*
X-57107Y-8407D01*
X-57143Y-8330D01*
X-57197Y-8263D01*
X-57268Y-8206D01*
X-57355Y-8160D01*
X-57460Y-8124D01*
X-57582Y-8098D01*
X-57721Y-8082D01*
X-57877Y-8077D01*
X-57503Y-7277D01*
X-56014Y-7485D01*
X-55905Y-7579D01*
X-55797Y-7485D01*
X-54308Y-7277D01*
X-53934Y-8077D01*
D02*
G37*
G36*
X-32010Y-8620D02*
X-32153Y-8517D01*
X-32434Y-8343D01*
X-32571Y-8273D01*
X-32707Y-8213D01*
X-32840Y-8164D01*
X-32972Y-8126D01*
X-33102Y-8099D01*
X-33230Y-8083D01*
X-33355Y-8077D01*
Y-7277D01*
X-33230Y-7272D01*
X-33102Y-7255D01*
X-32972Y-7228D01*
X-32840Y-7190D01*
X-32707Y-7141D01*
X-32571Y-7082D01*
X-32434Y-7011D01*
X-32294Y-6929D01*
X-32010Y-6734D01*
Y-8620D01*
D02*
G37*
G36*
X83930Y19643D02*
X83855Y19521D01*
X83788Y19397D01*
X83731Y19271D01*
X83682Y19141D01*
X83642Y19010D01*
X83611Y18876D01*
X83589Y18739D01*
X83575Y18599D01*
X83571Y18458D01*
X82571D01*
X82566Y18599D01*
X82553Y18739D01*
X82531Y18876D01*
X82500Y19010D01*
X82460Y19141D01*
X82411Y19271D01*
X82354Y19397D01*
X82287Y19521D01*
X82212Y19643D01*
X82128Y19762D01*
X84014D01*
X83930Y19643D01*
D02*
G37*
G36*
X147064Y-7768D02*
X147172Y-7857D01*
X147284Y-7938D01*
X147401Y-8011D01*
X147522Y-8076D01*
X147648Y-8133D01*
X147778Y-8181D01*
X147913Y-8222D01*
X148052Y-8255D01*
X148196Y-8279D01*
X146862Y-9613D01*
X146837Y-9470D01*
X146805Y-9330D01*
X146764Y-9196D01*
X146715Y-9065D01*
X146658Y-8940D01*
X146593Y-8818D01*
X146521Y-8701D01*
X146440Y-8589D01*
X146350Y-8481D01*
X146253Y-8378D01*
X146960Y-7671D01*
X147064Y-7768D01*
D02*
G37*
G36*
X144204Y-8822D02*
X144227Y-9108D01*
X144247Y-9234D01*
X144273Y-9349D01*
X144304Y-9452D01*
X144342Y-9544D01*
X144385Y-9624D01*
X144434Y-9692D01*
X144488Y-9750D01*
X142913D01*
X142968Y-9692D01*
X143017Y-9624D01*
X143060Y-9544D01*
X143097Y-9452D01*
X143129Y-9349D01*
X143155Y-9234D01*
X143175Y-9108D01*
X143189Y-8971D01*
X143201Y-8661D01*
X144201D01*
X144204Y-8822D01*
D02*
G37*
G36*
X156390Y-10254D02*
X156332Y-10355D01*
X156280Y-10464D01*
X156235Y-10578D01*
X156198Y-10700D01*
X156167Y-10829D01*
X156143Y-10964D01*
X156125Y-11106D01*
X156112Y-11411D01*
X154912D01*
X154908Y-11255D01*
X154881Y-10964D01*
X154857Y-10829D01*
X154826Y-10700D01*
X154788Y-10578D01*
X154744Y-10464D01*
X154692Y-10355D01*
X154634Y-10254D01*
X154569Y-10160D01*
X156455D01*
X156390Y-10254D01*
D02*
G37*
G36*
X159108Y-13059D02*
X158934Y-13339D01*
X158863Y-13477D01*
X158803Y-13612D01*
X158755Y-13746D01*
X158717Y-13878D01*
X158689Y-14007D01*
X158673Y-14135D01*
X158668Y-14261D01*
X157868D01*
X157862Y-14135D01*
X157846Y-14007D01*
X157819Y-13878D01*
X157781Y-13746D01*
X157732Y-13612D01*
X157672Y-13477D01*
X157601Y-13339D01*
X157520Y-13200D01*
X157324Y-12915D01*
X159211D01*
X159108Y-13059D01*
D02*
G37*
G36*
X18522Y-35736D02*
X18623Y-35794D01*
X18731Y-35846D01*
X18846Y-35891D01*
X18968Y-35928D01*
X19096Y-35959D01*
X19232Y-35983D01*
X19374Y-36000D01*
X19679Y-36014D01*
Y-37214D01*
X19523Y-37218D01*
X19232Y-37245D01*
X19096Y-37269D01*
X18968Y-37300D01*
X18846Y-37338D01*
X18731Y-37382D01*
X18623Y-37434D01*
X18522Y-37492D01*
X18427Y-37558D01*
Y-35671D01*
X18522Y-35736D01*
D02*
G37*
G36*
X21720Y-38530D02*
X22001Y-38704D01*
X22138Y-38774D01*
X22274Y-38834D01*
X22407Y-38883D01*
X22539Y-38921D01*
X22669Y-38948D01*
X22796Y-38965D01*
X22922Y-38970D01*
Y-39770D01*
X22796Y-39775D01*
X22669Y-39792D01*
X22539Y-39819D01*
X22407Y-39857D01*
X22274Y-39906D01*
X22138Y-39966D01*
X22001Y-40036D01*
X21861Y-40118D01*
X21577Y-40313D01*
Y-38427D01*
X21720Y-38530D01*
D02*
G37*
D21*
X-101297Y2478D02*
Y30593D01*
Y2478D02*
X-96850Y-1969D01*
X-94389D02*
X-88680Y-7677D01*
X-31299D01*
X-101297Y30593D02*
X-94488Y37402D01*
X20866Y-39370D02*
X141339D01*
X158268Y-22441D02*
Y-12205D01*
X141339Y-39370D02*
X158268Y-22441D01*
X-49606Y37402D02*
X-47638Y35433D01*
X-94488Y37402D02*
X-49606D01*
X-96850Y-1969D02*
X-94389D01*
D22*
X98032Y-1575D02*
X136614D01*
X143701Y-8661D01*
Y-10630D02*
Y-8661D01*
X-98524Y7677D02*
Y29823D01*
X-93307Y35039D01*
X-73163Y34646D02*
X-53150D01*
X-73556Y35039D02*
X-73163Y34646D01*
X-93307Y35039D02*
X-73556D01*
X-96063Y1969D02*
X-88976Y-5118D01*
X-36220D01*
X80411Y16045D02*
Y17620D01*
X80315Y17717D02*
X80411Y17620D01*
Y16045D02*
X98032Y-1575D01*
X83071Y16142D02*
X98819Y394D01*
X83071Y16142D02*
Y20472D01*
X98819Y394D02*
X138189D01*
X148031Y-9449D01*
D126*
X-83760Y-137500D02*
D03*
X-104724Y7874D02*
D03*
X-98524Y7677D02*
D03*
X-96850Y-1969D02*
D03*
X-96063Y1969D02*
D03*
X-94587Y-12402D02*
D03*
X-123275Y55589D02*
D03*
X-121099Y48281D02*
D03*
X-115967Y43762D02*
D03*
X-115650Y62205D02*
D03*
X-112205Y70866D02*
D03*
X-110236Y83071D02*
D03*
X-102633Y60331D02*
D03*
X-102522Y41307D02*
D03*
X-100394Y82677D02*
D03*
X-94488Y70866D02*
D03*
Y82677D02*
D03*
X-92089Y41586D02*
D03*
X-91634Y60433D02*
D03*
X-88583Y82677D02*
D03*
X-82677Y64961D02*
D03*
Y76772D02*
D03*
Y82677D02*
D03*
X-82382Y141142D02*
D03*
X-45669Y-39173D02*
D03*
X-36909Y-33071D02*
D03*
X-58858Y-19291D02*
D03*
X-55905Y-8661D02*
D03*
X-36220Y-5118D02*
D03*
X-35925Y3051D02*
D03*
X-25391Y6466D02*
D03*
X-40551Y10138D02*
D03*
X-54704Y16318D02*
D03*
X-29528Y17717D02*
D03*
X-76772Y82677D02*
D03*
X-73032Y59941D02*
D03*
X-72889Y71114D02*
D03*
X-71977Y76345D02*
D03*
X-68997Y49707D02*
D03*
X-53150Y34646D02*
D03*
X-53062Y27265D02*
D03*
X-51177Y44172D02*
D03*
X-47638Y35433D02*
D03*
X-41339Y41339D02*
D03*
X-41040Y18041D02*
D03*
X-38140Y112648D02*
D03*
X-35433Y29528D02*
D03*
X-28918Y43564D02*
D03*
X-22411Y24467D02*
D03*
X7087Y-71063D02*
D03*
X1575Y-70866D02*
D03*
X3839Y-41732D02*
D03*
X20866Y-39370D02*
D03*
X17717Y-36614D02*
D03*
X39272Y-143701D02*
D03*
X44390Y-140945D02*
D03*
X44488Y-87402D02*
D03*
X57284Y-69980D02*
D03*
X90059Y-72933D02*
D03*
X149508Y-45669D02*
D03*
X153150Y-42028D02*
D03*
X161024Y-35827D02*
D03*
X80315Y17717D02*
D03*
X83071Y20472D02*
D03*
X158268Y-12205D02*
D03*
X143701Y-10630D02*
D03*
X148031Y-9449D02*
D03*
X155512D02*
D03*
X105709Y5709D02*
D03*
X114961Y27165D02*
D03*
X40551Y99606D02*
D03*
X118898Y92126D02*
D03*
X91732Y91437D02*
D03*
X99213Y87106D02*
D03*
X-31299Y-7677D02*
D03*
D128*
X155512Y-22441D02*
Y-9449D01*
X17717Y-36614D02*
X141339D01*
X155512Y-22441D01*
D130*
X-136319Y-31299D02*
Y-12992D01*
X-138976Y-33957D02*
X-136319Y-31299D01*
D131*
X164173Y-27559D02*
Y0D01*
X118898Y45276D02*
X164173Y0D01*
X161024Y-30709D02*
X164173Y-27559D01*
X118898Y45276D02*
Y92126D01*
X23828Y57897D02*
X40551Y74621D01*
Y99606D01*
X161024Y-35827D02*
Y-30709D01*
D141*
X23828Y57897D02*
D03*
D151*
X-138976Y-33957D02*
D03*
X-136319Y-12992D02*
D03*
M02*
