G04*
G04 #@! TF.GenerationSoftware,Altium Limited,Altium Designer,21.9.1 (22)*
G04*
G04 Layer_Color=32896*
%FSLAX25Y25*%
%MOIN*%
G70*
G04*
G04 #@! TF.SameCoordinates,BA265606-766D-4053-9833-5615DE46E1CD*
G04*
G04*
G04 #@! TF.FilePolarity,Positive*
G04*
G01*
G75*
%ADD10C,0.00500*%
%ADD11C,0.00394*%
%ADD12C,0.00787*%
%ADD15C,0.01181*%
%ADD18C,0.00600*%
%ADD20C,0.00591*%
%ADD21C,0.00800*%
%ADD22C,0.01000*%
%ADD198C,0.00512*%
%ADD199C,0.00472*%
%ADD200R,0.01575X0.07874*%
G04:AMPARAMS|DCode=201|XSize=15.75mil|YSize=78.74mil|CornerRadius=0mil|HoleSize=0mil|Usage=FLASHONLY|Rotation=30.000|XOffset=0mil|YOffset=0mil|HoleType=Round|Shape=Rectangle|*
%AMROTATEDRECTD201*
4,1,4,0.01287,-0.03803,-0.02650,0.03016,-0.01287,0.03803,0.02650,-0.03016,0.01287,-0.03803,0.0*
%
%ADD201ROTATEDRECTD201*%

G36*
X-4439Y-22087D02*
X-4288D01*
Y-22239D01*
X-4136D01*
Y-22390D01*
X-3985D01*
Y-22542D01*
X-3833D01*
Y-22694D01*
X-4136D01*
Y-22845D01*
X-4288D01*
Y-22997D01*
X-4439D01*
Y-23149D01*
Y-23300D01*
X-4591D01*
Y-23452D01*
X-4743D01*
Y-23604D01*
Y-23755D01*
X-5046D01*
Y-23907D01*
Y-24058D01*
Y-24210D01*
X-5198D01*
Y-24362D01*
Y-24513D01*
X-5349D01*
Y-24665D01*
X-5501D01*
Y-24816D01*
Y-24968D01*
Y-25120D01*
Y-25271D01*
X-5652D01*
Y-25423D01*
Y-25575D01*
X-5804D01*
Y-25726D01*
Y-25878D01*
Y-26030D01*
Y-26181D01*
X-5956D01*
Y-26333D01*
Y-26484D01*
Y-26636D01*
Y-26788D01*
Y-26939D01*
Y-27091D01*
X-5804D01*
Y-27242D01*
X-5956D01*
Y-27394D01*
Y-27546D01*
X-5804D01*
Y-27697D01*
X-5956D01*
Y-27849D01*
Y-28001D01*
Y-28152D01*
Y-28304D01*
Y-28455D01*
Y-28607D01*
X-5804D01*
Y-28759D01*
Y-28910D01*
Y-29062D01*
Y-29214D01*
X-5652D01*
Y-29365D01*
Y-29517D01*
X-5501D01*
Y-29668D01*
Y-29820D01*
Y-29972D01*
Y-30123D01*
X-5349D01*
Y-30275D01*
X-5198D01*
Y-30427D01*
Y-30578D01*
X-5046D01*
Y-30730D01*
Y-30881D01*
Y-31033D01*
X-4743D01*
Y-31185D01*
Y-31336D01*
X-4591D01*
Y-31488D01*
Y-31640D01*
X-4439D01*
Y-31791D01*
X-4288D01*
Y-31943D01*
X-4136D01*
Y-32094D01*
X-3985D01*
Y-32246D01*
X-3833D01*
Y-32398D01*
X-3681D01*
Y-32549D01*
X-3530D01*
Y-32701D01*
X-3226D01*
Y-32853D01*
X-2923D01*
Y-33004D01*
X-2771D01*
Y-33156D01*
X-2468D01*
Y-33307D01*
X-2317D01*
Y-33459D01*
X-1862D01*
Y-33611D01*
X-1407D01*
Y-33762D01*
X-1104D01*
Y-33914D01*
X564D01*
Y-34065D01*
X1019D01*
Y-33914D01*
X2384D01*
Y-33762D01*
X2839D01*
Y-33611D01*
X3293D01*
Y-33459D01*
X3597D01*
Y-33307D01*
X3900D01*
Y-33156D01*
X4203D01*
Y-33004D01*
X4355D01*
Y-32853D01*
X4658D01*
Y-32701D01*
X4810D01*
Y-32549D01*
X5113D01*
Y-32398D01*
Y-32246D01*
X5416D01*
Y-32094D01*
Y-31943D01*
X5568D01*
Y-32094D01*
X5719D01*
Y-32246D01*
X5871D01*
Y-32398D01*
X6023D01*
Y-32549D01*
X6174D01*
Y-32701D01*
Y-32853D01*
X5871D01*
Y-33004D01*
X5719D01*
Y-33156D01*
X5568D01*
Y-33307D01*
X5416D01*
Y-33459D01*
X5113D01*
Y-33611D01*
X4961D01*
Y-33762D01*
X4810D01*
Y-33914D01*
X4506D01*
Y-34065D01*
X4203D01*
Y-34217D01*
X3900D01*
Y-34369D01*
X3597D01*
Y-34520D01*
X3142D01*
Y-34672D01*
X2535D01*
Y-34824D01*
X2080D01*
Y-34975D01*
X-649D01*
Y-34824D01*
X-1255D01*
Y-34672D01*
X-1710D01*
Y-34520D01*
X-2165D01*
Y-34369D01*
X-2468D01*
Y-34217D01*
X-2771D01*
Y-34065D01*
X-3075D01*
Y-33914D01*
X-3378D01*
Y-33762D01*
X-3530D01*
Y-33611D01*
X-3833D01*
Y-33459D01*
X-3985D01*
Y-33307D01*
X-4136D01*
Y-33156D01*
X-4288D01*
Y-33004D01*
X-4591D01*
Y-32853D01*
X-4743D01*
Y-32701D01*
X-4894D01*
Y-32549D01*
Y-32398D01*
X-5046D01*
Y-32246D01*
X-5198D01*
Y-32094D01*
X-5349D01*
Y-31943D01*
X-5501D01*
Y-31791D01*
Y-31640D01*
X-5652D01*
Y-31488D01*
Y-31336D01*
X-5804D01*
Y-31185D01*
X-5956D01*
Y-31033D01*
X-6107D01*
Y-30881D01*
Y-30730D01*
Y-30578D01*
X-6259D01*
Y-30427D01*
Y-30275D01*
X-6410D01*
Y-30123D01*
Y-29972D01*
Y-29820D01*
Y-29668D01*
X-6562D01*
Y-29517D01*
Y-29365D01*
X-6714D01*
Y-29214D01*
Y-29062D01*
Y-28910D01*
Y-28759D01*
X-6865D01*
Y-28607D01*
Y-28455D01*
Y-28304D01*
Y-28152D01*
Y-28001D01*
Y-27849D01*
Y-27697D01*
Y-27546D01*
Y-27394D01*
Y-27242D01*
Y-27091D01*
Y-26939D01*
Y-26788D01*
Y-26636D01*
Y-26484D01*
Y-26333D01*
Y-26181D01*
Y-26030D01*
X-6714D01*
Y-25878D01*
Y-25726D01*
Y-25575D01*
Y-25423D01*
X-6562D01*
Y-25271D01*
Y-25120D01*
X-6410D01*
Y-24968D01*
Y-24816D01*
Y-24665D01*
Y-24513D01*
X-6259D01*
Y-24362D01*
Y-24210D01*
X-6107D01*
Y-24058D01*
Y-23907D01*
Y-23755D01*
X-5956D01*
Y-23604D01*
X-5804D01*
Y-23452D01*
X-5652D01*
Y-23300D01*
Y-23149D01*
X-5501D01*
Y-22997D01*
X-5349D01*
Y-22845D01*
Y-22694D01*
X-5198D01*
Y-22542D01*
X-5046D01*
Y-22390D01*
X-4894D01*
Y-22239D01*
Y-22087D01*
X-4743D01*
Y-21936D01*
X-4439D01*
Y-22087D01*
D02*
G37*
G36*
X-8533Y-17993D02*
X-8382D01*
Y-18145D01*
X-8230D01*
Y-18297D01*
X-8078D01*
Y-18448D01*
X-7927D01*
Y-18600D01*
Y-18752D01*
X-8078D01*
Y-18903D01*
X-8230D01*
Y-19055D01*
X-8382D01*
Y-19206D01*
X-8533D01*
Y-19358D01*
X-8685D01*
Y-19510D01*
X-8836D01*
Y-19661D01*
X-8988D01*
Y-19813D01*
X-9140D01*
Y-19964D01*
Y-20116D01*
X-9291D01*
Y-20268D01*
X-9443D01*
Y-20419D01*
X-9595D01*
Y-20571D01*
Y-20723D01*
X-9746D01*
Y-20874D01*
X-9898D01*
Y-21026D01*
Y-21178D01*
X-10049D01*
Y-21329D01*
Y-21481D01*
X-10201D01*
Y-21632D01*
X-10353D01*
Y-21784D01*
Y-21936D01*
X-10504D01*
Y-22087D01*
Y-22239D01*
Y-22390D01*
Y-22542D01*
X-10656D01*
Y-22694D01*
X-10808D01*
Y-22845D01*
Y-22997D01*
X-10959D01*
Y-23149D01*
X-10808D01*
Y-23300D01*
X-10959D01*
Y-23452D01*
Y-23604D01*
X-11111D01*
Y-23755D01*
Y-23907D01*
Y-24058D01*
X-11262D01*
Y-24210D01*
Y-24362D01*
Y-24513D01*
Y-24665D01*
Y-24816D01*
Y-24968D01*
X-11414D01*
Y-25120D01*
Y-25271D01*
Y-25423D01*
Y-25575D01*
X-11566D01*
Y-25726D01*
Y-25878D01*
Y-26030D01*
Y-26181D01*
Y-26333D01*
Y-26484D01*
Y-26636D01*
Y-26788D01*
Y-26939D01*
X-11717D01*
Y-27091D01*
Y-27242D01*
Y-27394D01*
Y-27546D01*
Y-27697D01*
Y-27849D01*
Y-28001D01*
X-11566D01*
Y-28152D01*
Y-28304D01*
Y-28455D01*
Y-28607D01*
Y-28759D01*
Y-28910D01*
Y-29062D01*
Y-29214D01*
X-11414D01*
Y-29365D01*
Y-29517D01*
Y-29668D01*
Y-29820D01*
X-11262D01*
Y-29972D01*
Y-30123D01*
Y-30275D01*
Y-30427D01*
Y-30578D01*
Y-30730D01*
Y-30881D01*
X-11111D01*
Y-31033D01*
Y-31185D01*
X-10959D01*
Y-31336D01*
Y-31488D01*
X-10808D01*
Y-31640D01*
X-10959D01*
Y-31791D01*
X-10808D01*
Y-31943D01*
Y-32094D01*
X-10656D01*
Y-32246D01*
X-10504D01*
Y-32398D01*
Y-32549D01*
Y-32701D01*
Y-32853D01*
X-10353D01*
Y-33004D01*
Y-33156D01*
X-10201D01*
Y-33307D01*
X-10049D01*
Y-33459D01*
Y-33611D01*
X-9898D01*
Y-33762D01*
Y-33914D01*
X-9746D01*
Y-34065D01*
X-9595D01*
Y-34217D01*
Y-34369D01*
X-9443D01*
Y-34520D01*
X-9291D01*
Y-34672D01*
X-9140D01*
Y-34824D01*
Y-34975D01*
X-8988D01*
Y-35127D01*
X-8836D01*
Y-35278D01*
X-8685D01*
Y-35430D01*
X-8533D01*
Y-35582D01*
X-8382D01*
Y-35733D01*
X-8230D01*
Y-35885D01*
X-8078D01*
Y-36037D01*
X-7927D01*
Y-36188D01*
X-7775D01*
Y-36340D01*
X-7623D01*
Y-36492D01*
X-7472D01*
Y-36643D01*
X-7320D01*
Y-36795D01*
X-7169D01*
Y-36946D01*
X-7017D01*
Y-37098D01*
X-6865D01*
Y-37250D01*
X-6562D01*
Y-37401D01*
X-6410D01*
Y-37553D01*
X-6259D01*
Y-37705D01*
X-5956D01*
Y-37856D01*
X-5652D01*
Y-38008D01*
X-5501D01*
Y-38159D01*
X-5198D01*
Y-38311D01*
X-4894D01*
Y-38463D01*
X-4591D01*
Y-38614D01*
X-4136D01*
Y-38766D01*
X-3985D01*
Y-38917D01*
X-3378D01*
Y-39069D01*
X-3075D01*
Y-39221D01*
X-2620D01*
Y-39372D01*
X-1710D01*
Y-39524D01*
X-1104D01*
Y-39676D01*
X413D01*
Y-39827D01*
X1019D01*
Y-39676D01*
X2535D01*
Y-39524D01*
X3142D01*
Y-39372D01*
X4052D01*
Y-39221D01*
X4506D01*
Y-39069D01*
X4810D01*
Y-38917D01*
X5265D01*
Y-38766D01*
X5568D01*
Y-38614D01*
X6023D01*
Y-38463D01*
X6326D01*
Y-38311D01*
X6629D01*
Y-38159D01*
X6932D01*
Y-38008D01*
X7084D01*
Y-37856D01*
X7236D01*
Y-37705D01*
X7690D01*
Y-37553D01*
X7842D01*
Y-37401D01*
X7994D01*
Y-37250D01*
X8297D01*
Y-37098D01*
X8449D01*
Y-36946D01*
X8600D01*
Y-36795D01*
X8752D01*
Y-36643D01*
X8903D01*
Y-36492D01*
X9055D01*
Y-36340D01*
X9207D01*
Y-36188D01*
X9358D01*
Y-36037D01*
X9662D01*
Y-36188D01*
X9813D01*
Y-36340D01*
X9965D01*
Y-36492D01*
X10116D01*
Y-36643D01*
X10268D01*
Y-36795D01*
X10116D01*
Y-36946D01*
X9965D01*
Y-37098D01*
X9662D01*
Y-37250D01*
X9510D01*
Y-37401D01*
X9358D01*
Y-37553D01*
X9207D01*
Y-37705D01*
X9055D01*
Y-37856D01*
X8752D01*
Y-38008D01*
X8600D01*
Y-38159D01*
X8449D01*
Y-38311D01*
X8145D01*
Y-38463D01*
X7994D01*
Y-38614D01*
X7690D01*
Y-38766D01*
X7387D01*
Y-38917D01*
X7236D01*
Y-39069D01*
X6932D01*
Y-39221D01*
X6629D01*
Y-39372D01*
X6326D01*
Y-39524D01*
X5871D01*
Y-39676D01*
X5568D01*
Y-39827D01*
X5265D01*
Y-39979D01*
X4810D01*
Y-40130D01*
X4203D01*
Y-40282D01*
X3445D01*
Y-40434D01*
X2687D01*
Y-40585D01*
X1929D01*
Y-40737D01*
X-497D01*
Y-40585D01*
X-1255D01*
Y-40434D01*
X-2013D01*
Y-40282D01*
X-2771D01*
Y-40130D01*
X-3378D01*
Y-39979D01*
X-3985D01*
Y-39827D01*
X-4136D01*
Y-39676D01*
X-4591D01*
Y-39524D01*
X-4894D01*
Y-39372D01*
X-5198D01*
Y-39221D01*
X-5501D01*
Y-39069D01*
X-5804D01*
Y-38917D01*
X-5956D01*
Y-38766D01*
X-6259D01*
Y-38614D01*
X-6562D01*
Y-38463D01*
X-6714D01*
Y-38311D01*
X-7017D01*
Y-38159D01*
X-7169D01*
Y-38008D01*
X-7320D01*
Y-37856D01*
X-7623D01*
Y-37705D01*
X-7775D01*
Y-37553D01*
X-7927D01*
Y-37401D01*
X-8230D01*
Y-37250D01*
X-8382D01*
Y-37098D01*
X-8533D01*
Y-36946D01*
X-8685D01*
Y-36795D01*
X-8836D01*
Y-36643D01*
X-8988D01*
Y-36492D01*
X-9140D01*
Y-36340D01*
X-9291D01*
Y-36188D01*
X-9443D01*
Y-36037D01*
Y-35885D01*
X-9595D01*
Y-35733D01*
X-9746D01*
Y-35582D01*
X-9898D01*
Y-35430D01*
Y-35278D01*
X-10049D01*
Y-35127D01*
X-10201D01*
Y-34975D01*
Y-34824D01*
X-10353D01*
Y-34672D01*
X-10504D01*
Y-34520D01*
X-10656D01*
Y-34369D01*
Y-34217D01*
Y-34065D01*
X-10808D01*
Y-33914D01*
X-10959D01*
Y-33762D01*
Y-33611D01*
X-11111D01*
Y-33459D01*
Y-33307D01*
X-11262D01*
Y-33156D01*
Y-33004D01*
X-11414D01*
Y-32853D01*
Y-32701D01*
Y-32549D01*
X-11566D01*
Y-32398D01*
Y-32246D01*
X-11717D01*
Y-32094D01*
X-11869D01*
Y-31943D01*
Y-31791D01*
Y-31640D01*
Y-31488D01*
Y-31336D01*
X-12021D01*
Y-31185D01*
Y-31033D01*
Y-30881D01*
X-12172D01*
Y-30730D01*
Y-30578D01*
X-12324D01*
Y-30427D01*
Y-30275D01*
Y-30123D01*
Y-29972D01*
Y-29820D01*
Y-29668D01*
Y-29517D01*
X-12475D01*
Y-29365D01*
Y-29214D01*
Y-29062D01*
Y-28910D01*
Y-28759D01*
X-12627D01*
Y-28607D01*
Y-28455D01*
Y-28304D01*
Y-28152D01*
Y-28001D01*
Y-27849D01*
Y-27697D01*
Y-27546D01*
Y-27394D01*
Y-27242D01*
Y-27091D01*
Y-26939D01*
Y-26788D01*
Y-26636D01*
Y-26484D01*
Y-26333D01*
Y-26181D01*
Y-26030D01*
X-12475D01*
Y-25878D01*
Y-25726D01*
Y-25575D01*
Y-25423D01*
Y-25271D01*
X-12324D01*
Y-25120D01*
Y-24968D01*
Y-24816D01*
Y-24665D01*
Y-24513D01*
Y-24362D01*
X-12172D01*
Y-24210D01*
Y-24058D01*
Y-23907D01*
X-12021D01*
Y-23755D01*
Y-23604D01*
Y-23452D01*
X-11869D01*
Y-23300D01*
Y-23149D01*
Y-22997D01*
Y-22845D01*
Y-22694D01*
X-11717D01*
Y-22542D01*
X-11566D01*
Y-22390D01*
Y-22239D01*
X-11414D01*
Y-22087D01*
Y-21936D01*
Y-21784D01*
X-11262D01*
Y-21632D01*
Y-21481D01*
X-11111D01*
Y-21329D01*
Y-21178D01*
X-10959D01*
Y-21026D01*
Y-20874D01*
X-10808D01*
Y-20723D01*
X-10656D01*
Y-20571D01*
Y-20419D01*
Y-20268D01*
X-10353D01*
Y-20116D01*
Y-19964D01*
X-10201D01*
Y-19813D01*
Y-19661D01*
X-10049D01*
Y-19510D01*
X-9898D01*
Y-19358D01*
Y-19206D01*
X-9746D01*
Y-19055D01*
X-9595D01*
Y-18903D01*
X-9443D01*
Y-18752D01*
Y-18600D01*
X-9291D01*
Y-18448D01*
X-9140D01*
Y-18297D01*
X-8988D01*
Y-18145D01*
X-8836D01*
Y-17993D01*
X-8685D01*
Y-17842D01*
X-8533D01*
Y-17993D01*
D02*
G37*
G36*
X-12021Y-14506D02*
X-11869D01*
Y-14658D01*
X-11717D01*
Y-14809D01*
X-11566D01*
Y-14961D01*
X-11414D01*
Y-15113D01*
X-11566D01*
Y-15264D01*
X-11717D01*
Y-15416D01*
X-11869D01*
Y-15567D01*
X-12021D01*
Y-15719D01*
X-12172D01*
Y-15871D01*
X-12324D01*
Y-16022D01*
X-12475D01*
Y-16174D01*
Y-16326D01*
X-12779D01*
Y-16477D01*
X-12930D01*
Y-16629D01*
Y-16780D01*
X-13082D01*
Y-16932D01*
X-13234D01*
Y-17084D01*
Y-17235D01*
X-13385D01*
Y-17387D01*
X-13537D01*
Y-17539D01*
Y-17690D01*
X-13688D01*
Y-17842D01*
X-13840D01*
Y-17993D01*
X-13992D01*
Y-18145D01*
Y-18297D01*
X-14143D01*
Y-18448D01*
Y-18600D01*
X-14295D01*
Y-18752D01*
X-14446D01*
Y-18903D01*
Y-19055D01*
X-14598D01*
Y-19206D01*
Y-19358D01*
X-14750D01*
Y-19510D01*
X-14901D01*
Y-19661D01*
Y-19813D01*
Y-19964D01*
X-15053D01*
Y-20116D01*
Y-20268D01*
Y-20419D01*
X-15205D01*
Y-20571D01*
X-15356D01*
Y-20723D01*
Y-20874D01*
X-15508D01*
Y-21026D01*
X-15356D01*
Y-21178D01*
X-15508D01*
Y-21329D01*
Y-21481D01*
X-15660D01*
Y-21632D01*
Y-21784D01*
X-15811D01*
Y-21936D01*
Y-22087D01*
Y-22239D01*
Y-22390D01*
Y-22542D01*
X-15963D01*
Y-22694D01*
Y-22845D01*
X-16114D01*
Y-22997D01*
Y-23149D01*
Y-23300D01*
X-16266D01*
Y-23452D01*
Y-23604D01*
Y-23755D01*
Y-23907D01*
Y-24058D01*
Y-24210D01*
Y-24362D01*
X-16418D01*
Y-24513D01*
Y-24665D01*
Y-24816D01*
Y-24968D01*
Y-25120D01*
Y-25271D01*
X-16569D01*
Y-25423D01*
Y-25575D01*
Y-25726D01*
Y-25878D01*
Y-26030D01*
Y-26181D01*
Y-26333D01*
Y-26484D01*
Y-26636D01*
X-16721D01*
Y-26788D01*
Y-26939D01*
Y-27091D01*
Y-27242D01*
Y-27394D01*
Y-27546D01*
Y-27697D01*
Y-27849D01*
Y-28001D01*
Y-28152D01*
X-16569D01*
Y-28304D01*
Y-28455D01*
Y-28607D01*
Y-28759D01*
Y-28910D01*
Y-29062D01*
Y-29214D01*
Y-29365D01*
Y-29517D01*
Y-29668D01*
X-16418D01*
Y-29820D01*
Y-29972D01*
Y-30123D01*
Y-30275D01*
Y-30427D01*
X-16266D01*
Y-30578D01*
Y-30730D01*
Y-30881D01*
Y-31033D01*
Y-31185D01*
Y-31336D01*
Y-31488D01*
X-16114D01*
Y-31640D01*
Y-31791D01*
Y-31943D01*
X-15963D01*
Y-32094D01*
Y-32246D01*
Y-32398D01*
X-15811D01*
Y-32549D01*
Y-32701D01*
Y-32853D01*
Y-33004D01*
X-15660D01*
Y-33156D01*
Y-33307D01*
X-15508D01*
Y-33459D01*
Y-33611D01*
X-15356D01*
Y-33762D01*
X-15508D01*
Y-33914D01*
X-15356D01*
Y-34065D01*
Y-34217D01*
X-15205D01*
Y-34369D01*
X-15053D01*
Y-34520D01*
Y-34672D01*
Y-34824D01*
Y-34975D01*
X-14901D01*
Y-35127D01*
Y-35278D01*
X-14750D01*
Y-35430D01*
X-14598D01*
Y-35582D01*
Y-35733D01*
X-14446D01*
Y-35885D01*
Y-36037D01*
X-14295D01*
Y-36188D01*
X-14143D01*
Y-36340D01*
Y-36492D01*
X-13992D01*
Y-36643D01*
Y-36795D01*
X-13840D01*
Y-36946D01*
X-13688D01*
Y-37098D01*
X-13537D01*
Y-37250D01*
Y-37401D01*
X-13385D01*
Y-37553D01*
Y-37705D01*
X-13234D01*
Y-37856D01*
X-13082D01*
Y-38008D01*
X-12930D01*
Y-38159D01*
Y-38311D01*
X-12779D01*
Y-38463D01*
X-12475D01*
Y-38614D01*
Y-38766D01*
X-12324D01*
Y-38917D01*
X-12172D01*
Y-39069D01*
X-12021D01*
Y-39221D01*
X-11869D01*
Y-39372D01*
X-11717D01*
Y-39524D01*
X-11566D01*
Y-39676D01*
X-11414D01*
Y-39827D01*
X-11262D01*
Y-39979D01*
X-11111D01*
Y-40130D01*
X-10959D01*
Y-40282D01*
X-10808D01*
Y-40434D01*
X-10656D01*
Y-40585D01*
X-10353D01*
Y-40737D01*
Y-40889D01*
X-10049D01*
Y-41040D01*
X-9898D01*
Y-41192D01*
X-9746D01*
Y-41343D01*
X-9595D01*
Y-41495D01*
X-9291D01*
Y-41647D01*
X-8988D01*
Y-41798D01*
X-8836D01*
Y-41950D01*
X-8685D01*
Y-42102D01*
X-8382D01*
Y-42253D01*
X-8078D01*
Y-42405D01*
X-7775D01*
Y-42556D01*
X-7623D01*
Y-42708D01*
X-7320D01*
Y-42860D01*
X-7017D01*
Y-43011D01*
X-6714D01*
Y-43163D01*
X-6259D01*
Y-43314D01*
X-6107D01*
Y-43466D01*
X-5501D01*
Y-43618D01*
X-5198D01*
Y-43769D01*
X-4743D01*
Y-43921D01*
X-4136D01*
Y-44073D01*
X-3681D01*
Y-44224D01*
X-3226D01*
Y-44376D01*
X-2317D01*
Y-44528D01*
X-1558D01*
Y-44679D01*
X109D01*
Y-44831D01*
X1171D01*
Y-44679D01*
X2839D01*
Y-44528D01*
X3597D01*
Y-44376D01*
X4658D01*
Y-44224D01*
X5113D01*
Y-44073D01*
X5568D01*
Y-43921D01*
X6174D01*
Y-43769D01*
X6629D01*
Y-43618D01*
X6932D01*
Y-43466D01*
X7387D01*
Y-43314D01*
X7690D01*
Y-43163D01*
X7994D01*
Y-43011D01*
X8449D01*
Y-42860D01*
X8752D01*
Y-42708D01*
X9055D01*
Y-42556D01*
X9207D01*
Y-42405D01*
X9510D01*
Y-42253D01*
X9813D01*
Y-42102D01*
X9965D01*
Y-41950D01*
X10268D01*
Y-41798D01*
X10420D01*
Y-41647D01*
X10723D01*
Y-41495D01*
X10875D01*
Y-41343D01*
X11178D01*
Y-41192D01*
X11329D01*
Y-41040D01*
X11481D01*
Y-40889D01*
X11633D01*
Y-40737D01*
X11784D01*
Y-40585D01*
X11936D01*
Y-40434D01*
X12239D01*
Y-40282D01*
X12391D01*
Y-40130D01*
X12542D01*
Y-39979D01*
X12694D01*
Y-39827D01*
X12846D01*
Y-39676D01*
X12997D01*
Y-39524D01*
X13149D01*
Y-39676D01*
X13301D01*
Y-39827D01*
X13452D01*
Y-39979D01*
X13604D01*
Y-40130D01*
X13755D01*
Y-40282D01*
X13604D01*
Y-40434D01*
X13452D01*
Y-40585D01*
X13301D01*
Y-40737D01*
X13149D01*
Y-40889D01*
X12997D01*
Y-41040D01*
X12846D01*
Y-41192D01*
X12694D01*
Y-41343D01*
X12542D01*
Y-41495D01*
X12391D01*
Y-41647D01*
X12088D01*
Y-41798D01*
X11936D01*
Y-41950D01*
X11633D01*
Y-42102D01*
X11481D01*
Y-42253D01*
X11178D01*
Y-42405D01*
X11026D01*
Y-42556D01*
X10875D01*
Y-42708D01*
X10723D01*
Y-42860D01*
X10268D01*
Y-43011D01*
X10116D01*
Y-43163D01*
X9813D01*
Y-43314D01*
X9662D01*
Y-43466D01*
X9358D01*
Y-43618D01*
X9055D01*
Y-43769D01*
X8752D01*
Y-43921D01*
X8449D01*
Y-44073D01*
X7994D01*
Y-44224D01*
X7690D01*
Y-44376D01*
X7387D01*
Y-44528D01*
X6781D01*
Y-44679D01*
X6477D01*
Y-44831D01*
X5871D01*
Y-44982D01*
X5416D01*
Y-45134D01*
X4961D01*
Y-45286D01*
X4052D01*
Y-45437D01*
X3142D01*
Y-45589D01*
X2232D01*
Y-45741D01*
X-952D01*
Y-45589D01*
X-1710D01*
Y-45437D01*
X-2620D01*
Y-45286D01*
X-3530D01*
Y-45134D01*
X-3985D01*
Y-44982D01*
X-4439D01*
Y-44831D01*
X-5046D01*
Y-44679D01*
X-5501D01*
Y-44528D01*
X-6107D01*
Y-44376D01*
X-6259D01*
Y-44224D01*
X-6562D01*
Y-44073D01*
X-7017D01*
Y-43921D01*
X-7320D01*
Y-43769D01*
X-7623D01*
Y-43618D01*
X-7927D01*
Y-43466D01*
X-8230D01*
Y-43314D01*
X-8382D01*
Y-43163D01*
X-8685D01*
Y-43011D01*
X-8836D01*
Y-42860D01*
X-9291D01*
Y-42708D01*
X-9443D01*
Y-42556D01*
X-9746D01*
Y-42405D01*
X-9898D01*
Y-42253D01*
X-10049D01*
Y-42102D01*
X-10201D01*
Y-41950D01*
X-10504D01*
Y-41798D01*
X-10656D01*
Y-41647D01*
X-10959D01*
Y-41495D01*
X-11111D01*
Y-41343D01*
X-11262D01*
Y-41192D01*
X-11414D01*
Y-41040D01*
X-11566D01*
Y-40889D01*
X-11717D01*
Y-40737D01*
X-12021D01*
Y-40585D01*
Y-40434D01*
X-12324D01*
Y-40282D01*
Y-40130D01*
X-12475D01*
Y-39979D01*
X-12779D01*
Y-39827D01*
Y-39676D01*
Y-39524D01*
X-13082D01*
Y-39372D01*
X-13234D01*
Y-39221D01*
X-13385D01*
Y-39069D01*
X-13537D01*
Y-38917D01*
Y-38766D01*
X-13688D01*
Y-38614D01*
X-13840D01*
Y-38463D01*
X-13992D01*
Y-38311D01*
Y-38159D01*
X-14143D01*
Y-38008D01*
Y-37856D01*
X-14446D01*
Y-37705D01*
X-14598D01*
Y-37553D01*
Y-37401D01*
X-14750D01*
Y-37250D01*
Y-37098D01*
X-14901D01*
Y-36946D01*
Y-36795D01*
X-15053D01*
Y-36643D01*
X-15205D01*
Y-36492D01*
Y-36340D01*
X-15356D01*
Y-36188D01*
Y-36037D01*
X-15508D01*
Y-35885D01*
Y-35733D01*
X-15660D01*
Y-35582D01*
Y-35430D01*
X-15811D01*
Y-35278D01*
Y-35127D01*
X-15963D01*
Y-34975D01*
Y-34824D01*
Y-34672D01*
X-16114D01*
Y-34520D01*
Y-34369D01*
X-16266D01*
Y-34217D01*
Y-34065D01*
X-16418D01*
Y-33914D01*
Y-33762D01*
Y-33611D01*
Y-33459D01*
X-16569D01*
Y-33307D01*
Y-33156D01*
X-16721D01*
Y-33004D01*
Y-32853D01*
X-16872D01*
Y-32701D01*
Y-32549D01*
Y-32398D01*
Y-32246D01*
Y-32094D01*
X-17024D01*
Y-31943D01*
Y-31791D01*
Y-31640D01*
X-17176D01*
Y-31488D01*
Y-31336D01*
Y-31185D01*
X-17327D01*
Y-31033D01*
Y-30881D01*
Y-30730D01*
Y-30578D01*
Y-30427D01*
Y-30275D01*
Y-30123D01*
Y-29972D01*
Y-29820D01*
X-17479D01*
Y-29668D01*
Y-29517D01*
Y-29365D01*
Y-29214D01*
Y-29062D01*
X-17631D01*
Y-28910D01*
Y-28759D01*
Y-28607D01*
Y-28455D01*
Y-28304D01*
Y-28152D01*
Y-28001D01*
Y-27849D01*
Y-27697D01*
Y-27546D01*
Y-27394D01*
Y-27242D01*
Y-27091D01*
Y-26939D01*
Y-26788D01*
Y-26636D01*
Y-26484D01*
Y-26333D01*
Y-26181D01*
Y-26030D01*
Y-25878D01*
Y-25726D01*
X-17479D01*
Y-25575D01*
Y-25423D01*
Y-25271D01*
Y-25120D01*
Y-24968D01*
X-17327D01*
Y-24816D01*
Y-24665D01*
Y-24513D01*
Y-24362D01*
Y-24210D01*
Y-24058D01*
Y-23907D01*
Y-23755D01*
Y-23604D01*
X-17176D01*
Y-23452D01*
Y-23300D01*
Y-23149D01*
X-17024D01*
Y-22997D01*
Y-22845D01*
Y-22694D01*
X-16872D01*
Y-22542D01*
Y-22390D01*
Y-22239D01*
Y-22087D01*
Y-21936D01*
X-16721D01*
Y-21784D01*
Y-21632D01*
X-16569D01*
Y-21481D01*
Y-21329D01*
X-16418D01*
Y-21178D01*
Y-21026D01*
Y-20874D01*
Y-20723D01*
X-16266D01*
Y-20571D01*
Y-20419D01*
X-16114D01*
Y-20268D01*
Y-20116D01*
Y-19964D01*
X-15963D01*
Y-19813D01*
Y-19661D01*
X-15811D01*
Y-19510D01*
X-15660D01*
Y-19358D01*
Y-19206D01*
Y-19055D01*
X-15508D01*
Y-18903D01*
Y-18752D01*
X-15356D01*
Y-18600D01*
Y-18448D01*
X-15205D01*
Y-18297D01*
Y-18145D01*
X-15053D01*
Y-17993D01*
X-14901D01*
Y-17842D01*
Y-17690D01*
X-14750D01*
Y-17539D01*
Y-17387D01*
X-14446D01*
Y-17235D01*
Y-17084D01*
Y-16932D01*
X-14143D01*
Y-16780D01*
Y-16629D01*
X-13992D01*
Y-16477D01*
Y-16326D01*
X-13840D01*
Y-16174D01*
X-13537D01*
Y-16022D01*
Y-15871D01*
Y-15719D01*
X-13385D01*
Y-15567D01*
X-13234D01*
Y-15416D01*
X-13082D01*
Y-15264D01*
X-12930D01*
Y-15113D01*
X-12779D01*
Y-14961D01*
Y-14809D01*
X-12475D01*
Y-14658D01*
X-12324D01*
Y-14506D01*
Y-14355D01*
X-12021D01*
Y-14506D01*
D02*
G37*
G36*
X-12930Y7783D02*
X-12779D01*
Y7631D01*
X-12627D01*
Y7479D01*
X-12475D01*
Y7328D01*
X-12324D01*
Y7176D01*
X-12172D01*
Y7024D01*
X-12021D01*
Y6873D01*
X-11869D01*
Y6721D01*
X-11717D01*
Y6570D01*
X-11566D01*
Y6418D01*
X-11414D01*
Y6266D01*
X-11262D01*
Y6115D01*
X-11111D01*
Y5963D01*
X-10959D01*
Y5811D01*
X-10808D01*
Y5660D01*
X-10656D01*
Y5508D01*
X-10504D01*
Y5357D01*
X-10353D01*
Y5205D01*
X-10201D01*
Y5053D01*
X-10049D01*
Y4902D01*
X-9898D01*
Y4750D01*
X-9746D01*
Y4598D01*
X-9595D01*
Y4447D01*
X-9443D01*
Y4295D01*
X-9291D01*
Y4144D01*
X-9140D01*
Y3992D01*
X-8988D01*
Y3840D01*
X-8836D01*
Y3689D01*
X-8685D01*
Y3537D01*
X-8533D01*
Y3385D01*
X-8382D01*
Y3234D01*
X-8230D01*
Y3082D01*
X-8078D01*
Y2931D01*
X-7927D01*
Y2779D01*
X-7775D01*
Y2627D01*
X-7623D01*
Y2476D01*
X-7472D01*
Y2324D01*
X-7320D01*
Y2173D01*
X-7169D01*
Y2021D01*
X-7017D01*
Y1869D01*
X-6865D01*
Y1718D01*
X-6714D01*
Y1566D01*
X-6562D01*
Y1414D01*
X-6410D01*
Y1263D01*
X-6259D01*
Y1111D01*
X-6107D01*
Y960D01*
X-5956D01*
Y808D01*
X-5804D01*
Y656D01*
X-5652D01*
Y505D01*
X-5501D01*
Y353D01*
X-5349D01*
Y201D01*
X-5198D01*
Y50D01*
X-5046D01*
Y-102D01*
X-4894D01*
Y-253D01*
X-4743D01*
Y-405D01*
X-4591D01*
Y-557D01*
X-4439D01*
Y-708D01*
X-4288D01*
Y-860D01*
X-4136D01*
Y-1012D01*
X-3985D01*
Y-1163D01*
X-3833D01*
Y-1315D01*
X-3681D01*
Y-1467D01*
X-3530D01*
Y-1618D01*
X-3378D01*
Y-1770D01*
X-3226D01*
Y-1921D01*
X-3075D01*
Y-2073D01*
X-2923D01*
Y-2225D01*
X-2771D01*
Y-2376D01*
X-2620D01*
Y-2528D01*
X-2468D01*
Y-2679D01*
X-2317D01*
Y-2831D01*
X-2165D01*
Y-2983D01*
X-2013D01*
Y-3134D01*
X-1862D01*
Y-3286D01*
X-1710D01*
Y-3438D01*
X-1558D01*
Y-3589D01*
X-1407D01*
Y-3741D01*
X-1255D01*
Y-3892D01*
X-1104D01*
Y-4044D01*
X-952D01*
Y-4196D01*
X-800D01*
Y-4347D01*
X-649D01*
Y-4499D01*
X-497D01*
Y-4651D01*
X-345D01*
Y-4802D01*
X-194D01*
Y-4954D01*
X-42D01*
Y-5105D01*
X109D01*
Y-5257D01*
X261D01*
Y-5409D01*
X413D01*
Y-5560D01*
X564D01*
Y-5712D01*
X716D01*
Y-5864D01*
X867D01*
Y-6015D01*
X1019D01*
Y-6167D01*
X1171D01*
Y-6318D01*
X1322D01*
Y-6470D01*
X1474D01*
Y-6622D01*
X1626D01*
Y-6773D01*
X1777D01*
Y-6925D01*
X1929D01*
Y-7077D01*
X2080D01*
Y-7228D01*
X2232D01*
Y-7380D01*
X2384D01*
Y-7531D01*
X2535D01*
Y-7683D01*
X2687D01*
Y-7835D01*
X2839D01*
Y-7986D01*
X2990D01*
Y-8138D01*
X3142D01*
Y-8290D01*
X3293D01*
Y-8441D01*
X3445D01*
Y-8593D01*
X3597D01*
Y-8744D01*
X3748D01*
Y-8896D01*
X3900D01*
Y-9048D01*
X4052D01*
Y-9199D01*
X4203D01*
Y-9351D01*
X4355D01*
Y-9503D01*
X4506D01*
Y-9654D01*
X4658D01*
Y-9806D01*
X4810D01*
Y-9957D01*
X4961D01*
Y-10109D01*
X5113D01*
Y-10261D01*
X5265D01*
Y-10412D01*
X5416D01*
Y-10564D01*
X5568D01*
Y-10716D01*
X5719D01*
Y-10867D01*
X5871D01*
Y-11019D01*
X6023D01*
Y-11170D01*
X6174D01*
Y-11322D01*
X6326D01*
Y-11474D01*
X6477D01*
Y-11625D01*
X6629D01*
Y-11777D01*
X6326D01*
Y-11929D01*
Y-12080D01*
X6174D01*
Y-12232D01*
X5871D01*
Y-12383D01*
Y-12535D01*
X5719D01*
Y-12687D01*
X5416D01*
Y-12838D01*
Y-12990D01*
X5265D01*
Y-13141D01*
X5113D01*
Y-13293D01*
X4961D01*
Y-13445D01*
X4658D01*
Y-13596D01*
Y-13748D01*
X4506D01*
Y-13900D01*
X4203D01*
Y-14051D01*
Y-14203D01*
X4052D01*
Y-14355D01*
X3748D01*
Y-14506D01*
X3597D01*
Y-14658D01*
X3748D01*
Y-14809D01*
X3900D01*
Y-14961D01*
X4052D01*
Y-15113D01*
X4203D01*
Y-15264D01*
X4355D01*
Y-15416D01*
X4506D01*
Y-15567D01*
X4658D01*
Y-15719D01*
X4810D01*
Y-15871D01*
X5113D01*
Y-15719D01*
X5265D01*
Y-15567D01*
X5416D01*
Y-15416D01*
X5568D01*
Y-15264D01*
X5719D01*
Y-15113D01*
X5871D01*
Y-14961D01*
X6023D01*
Y-14809D01*
X6174D01*
Y-14658D01*
X6326D01*
Y-14506D01*
X6477D01*
Y-14355D01*
X6629D01*
Y-14203D01*
X6781D01*
Y-14051D01*
X6932D01*
Y-13900D01*
X7084D01*
Y-13748D01*
X7236D01*
Y-13596D01*
X7387D01*
Y-13445D01*
X7539D01*
Y-13293D01*
X7690D01*
Y-13141D01*
X7842D01*
Y-12990D01*
X7994D01*
Y-12838D01*
X8145D01*
Y-12687D01*
X8297D01*
Y-12535D01*
X8449D01*
Y-12383D01*
X8600D01*
Y-12232D01*
X8752D01*
Y-12080D01*
X8903D01*
Y-11929D01*
X9055D01*
Y-11777D01*
X9207D01*
Y-11625D01*
X9358D01*
Y-11474D01*
X9510D01*
Y-11322D01*
X9662D01*
Y-11170D01*
X9813D01*
Y-11019D01*
X9965D01*
Y-10867D01*
X10116D01*
Y-10716D01*
X10268D01*
Y-10564D01*
X10420D01*
Y-10412D01*
X10571D01*
Y-10261D01*
X10723D01*
Y-10109D01*
X10875D01*
Y-9957D01*
X11026D01*
Y-9806D01*
X11178D01*
Y-9654D01*
X11329D01*
Y-9503D01*
X11481D01*
Y-9351D01*
X11633D01*
Y-9199D01*
X11784D01*
Y-9048D01*
X11936D01*
Y-8896D01*
X12239D01*
Y-8744D01*
X12391D01*
Y-8593D01*
X13452D01*
Y-8744D01*
X13755D01*
Y-8896D01*
X13907D01*
Y-9048D01*
X14210D01*
Y-9199D01*
Y-9351D01*
X14362D01*
Y-9503D01*
X14514D01*
Y-9654D01*
X14665D01*
Y-9806D01*
X14968D01*
Y-9957D01*
Y-10109D01*
X15120D01*
Y-10261D01*
X15423D01*
Y-10412D01*
Y-10564D01*
X15575D01*
Y-10716D01*
X15878D01*
Y-10867D01*
Y-11019D01*
X16181D01*
Y-11170D01*
Y-11322D01*
X16333D01*
Y-11474D01*
X16636D01*
Y-11625D01*
Y-11777D01*
X16788D01*
Y-11929D01*
X17091D01*
Y-12080D01*
Y-12232D01*
X17243D01*
Y-12383D01*
X17546D01*
Y-12535D01*
Y-12687D01*
X17849D01*
Y-12838D01*
Y-12990D01*
X18001D01*
Y-13141D01*
X18304D01*
Y-13293D01*
Y-13445D01*
X18456D01*
Y-13596D01*
X18759D01*
Y-13748D01*
Y-13900D01*
X18911D01*
Y-14051D01*
X19214D01*
Y-14203D01*
Y-14355D01*
Y-14506D01*
X19365D01*
Y-14658D01*
X19517D01*
Y-14809D01*
Y-14961D01*
Y-15113D01*
Y-15264D01*
Y-15416D01*
Y-15567D01*
Y-15719D01*
X19365D01*
Y-15871D01*
X19214D01*
Y-16022D01*
Y-16174D01*
X19062D01*
Y-16326D01*
X18911D01*
Y-16477D01*
X18759D01*
Y-16629D01*
X18607D01*
Y-16780D01*
X18456D01*
Y-16932D01*
X18304D01*
Y-17084D01*
X18153D01*
Y-17235D01*
X18001D01*
Y-17387D01*
X17849D01*
Y-17539D01*
X17698D01*
Y-17690D01*
X17546D01*
Y-17842D01*
X17394D01*
Y-17993D01*
X17243D01*
Y-18145D01*
X17091D01*
Y-18297D01*
X16939D01*
Y-18448D01*
X16788D01*
Y-18600D01*
X16636D01*
Y-18752D01*
X16485D01*
Y-18903D01*
X16333D01*
Y-19055D01*
X16181D01*
Y-19206D01*
X16030D01*
Y-19358D01*
X15878D01*
Y-19510D01*
X15727D01*
Y-19661D01*
X15575D01*
Y-19813D01*
X15423D01*
Y-19964D01*
X15272D01*
Y-20116D01*
X15120D01*
Y-20268D01*
X14968D01*
Y-20419D01*
X14817D01*
Y-20571D01*
X14665D01*
Y-20723D01*
X14514D01*
Y-20874D01*
X14362D01*
Y-21026D01*
X14210D01*
Y-21178D01*
X14059D01*
Y-21329D01*
X13907D01*
Y-21481D01*
X13755D01*
Y-21632D01*
X13604D01*
Y-21784D01*
X13452D01*
Y-21936D01*
X13301D01*
Y-22087D01*
X13149D01*
Y-22239D01*
X12997D01*
Y-22390D01*
X12846D01*
Y-22542D01*
X12694D01*
Y-22694D01*
X12542D01*
Y-22845D01*
X12239D01*
Y-22997D01*
Y-23149D01*
Y-23300D01*
X12391D01*
Y-23452D01*
X12542D01*
Y-23604D01*
X12694D01*
Y-23755D01*
X12846D01*
Y-23907D01*
X12997D01*
Y-24058D01*
X13149D01*
Y-24210D01*
X13301D01*
Y-24362D01*
X13755D01*
Y-24210D01*
Y-24058D01*
X13907D01*
Y-23907D01*
X14210D01*
Y-23755D01*
Y-23604D01*
X14362D01*
Y-23452D01*
X14665D01*
Y-23300D01*
Y-23149D01*
X14968D01*
Y-22997D01*
X15120D01*
Y-22845D01*
Y-22694D01*
X15423D01*
Y-22542D01*
Y-22390D01*
X15575D01*
Y-22239D01*
X15878D01*
Y-22087D01*
Y-21936D01*
X16181D01*
Y-21784D01*
X16333D01*
Y-21632D01*
Y-21481D01*
X16485D01*
Y-21632D01*
X16636D01*
Y-21784D01*
X16788D01*
Y-21936D01*
X16939D01*
Y-22087D01*
X17091D01*
Y-22239D01*
X17243D01*
Y-22390D01*
X17394D01*
Y-22542D01*
X17546D01*
Y-22694D01*
X17698D01*
Y-22845D01*
X17849D01*
Y-22997D01*
X18001D01*
Y-23149D01*
X18153D01*
Y-23300D01*
X18304D01*
Y-23452D01*
X18456D01*
Y-23604D01*
X18607D01*
Y-23755D01*
X18759D01*
Y-23907D01*
X18911D01*
Y-24058D01*
X19062D01*
Y-24210D01*
X19214D01*
Y-24362D01*
X19365D01*
Y-24513D01*
X19517D01*
Y-24665D01*
X19669D01*
Y-24816D01*
X19820D01*
Y-24968D01*
X19972D01*
Y-25120D01*
X20124D01*
Y-25271D01*
X20275D01*
Y-25423D01*
X20427D01*
Y-25575D01*
X20579D01*
Y-25726D01*
X20730D01*
Y-25878D01*
X20882D01*
Y-26030D01*
X21033D01*
Y-26181D01*
X21185D01*
Y-26333D01*
X21337D01*
Y-26484D01*
X21488D01*
Y-26636D01*
X21640D01*
Y-26788D01*
X21791D01*
Y-26939D01*
X21943D01*
Y-27091D01*
X22095D01*
Y-27242D01*
X22246D01*
Y-27394D01*
X22398D01*
Y-27546D01*
X22550D01*
Y-27697D01*
X22701D01*
Y-27849D01*
X22853D01*
Y-28001D01*
X23005D01*
Y-28152D01*
X23156D01*
Y-28304D01*
X23308D01*
Y-28455D01*
X23459D01*
Y-28607D01*
X23611D01*
Y-28759D01*
X23763D01*
Y-28910D01*
X23914D01*
Y-29062D01*
X24066D01*
Y-29214D01*
X24217D01*
Y-29365D01*
X24369D01*
Y-29517D01*
X24521D01*
Y-29668D01*
X24672D01*
Y-29820D01*
X24824D01*
Y-29972D01*
X24976D01*
Y-30123D01*
X25127D01*
Y-30275D01*
X25279D01*
Y-30427D01*
X25430D01*
Y-30578D01*
X25582D01*
Y-30730D01*
X25734D01*
Y-30881D01*
X25885D01*
Y-31033D01*
X26037D01*
Y-31185D01*
X26189D01*
Y-31336D01*
X26340D01*
Y-31488D01*
X26492D01*
Y-31640D01*
X26643D01*
Y-31791D01*
X26795D01*
Y-31943D01*
X26947D01*
Y-32094D01*
X27098D01*
Y-32246D01*
X27250D01*
Y-32398D01*
X27402D01*
Y-32549D01*
X27553D01*
Y-32701D01*
X27705D01*
Y-32853D01*
X27856D01*
Y-33004D01*
X28008D01*
Y-33156D01*
X28160D01*
Y-33307D01*
X28311D01*
Y-33459D01*
X28463D01*
Y-33611D01*
X28615D01*
Y-33762D01*
X28766D01*
Y-33914D01*
X28918D01*
Y-34065D01*
X29069D01*
Y-34217D01*
X29221D01*
Y-34369D01*
X29373D01*
Y-34520D01*
X29524D01*
Y-34672D01*
X29676D01*
Y-34824D01*
X29827D01*
Y-34975D01*
X29979D01*
Y-35127D01*
X30131D01*
Y-35278D01*
X30282D01*
Y-35430D01*
X30434D01*
Y-35582D01*
X30586D01*
Y-35733D01*
X30737D01*
Y-35885D01*
X30889D01*
Y-36037D01*
X31040D01*
Y-36188D01*
X31192D01*
Y-36340D01*
X31344D01*
Y-36492D01*
X31495D01*
Y-36643D01*
X31647D01*
Y-36795D01*
X31799D01*
Y-36946D01*
X31950D01*
Y-37098D01*
X32102D01*
Y-37250D01*
X32254D01*
Y-37401D01*
X32405D01*
Y-37553D01*
X32557D01*
Y-37705D01*
X32708D01*
Y-37856D01*
X32860D01*
Y-38008D01*
X33012D01*
Y-38159D01*
X33163D01*
Y-38311D01*
X33315D01*
Y-38463D01*
X33467D01*
Y-38614D01*
X33618D01*
Y-38766D01*
X33770D01*
Y-38917D01*
X33921D01*
Y-39069D01*
X34073D01*
Y-39221D01*
X34225D01*
Y-39372D01*
X34376D01*
Y-39524D01*
X34528D01*
Y-39676D01*
X34679D01*
Y-39827D01*
X34831D01*
Y-39979D01*
X34983D01*
Y-40130D01*
X35134D01*
Y-40282D01*
X35286D01*
Y-40434D01*
X35438D01*
Y-40585D01*
X35589D01*
Y-40737D01*
X35741D01*
Y-40889D01*
X35893D01*
Y-41040D01*
X36044D01*
Y-41192D01*
Y-41343D01*
X35893D01*
Y-41495D01*
X35741D01*
Y-41647D01*
X35589D01*
Y-41798D01*
X35438D01*
Y-41950D01*
X35286D01*
Y-42102D01*
X35134D01*
Y-42253D01*
X34983D01*
Y-42405D01*
X34831D01*
Y-42556D01*
X34679D01*
Y-42708D01*
X34528D01*
Y-42860D01*
X34376D01*
Y-43011D01*
X34225D01*
Y-43163D01*
X34073D01*
Y-43314D01*
X33921D01*
Y-43466D01*
X33770D01*
Y-43618D01*
X33618D01*
Y-43769D01*
X33467D01*
Y-43921D01*
X33315D01*
Y-44073D01*
X33163D01*
Y-44224D01*
X33012D01*
Y-44376D01*
X32860D01*
Y-44528D01*
X32708D01*
Y-44679D01*
X32557D01*
Y-44831D01*
X32405D01*
Y-44982D01*
X32254D01*
Y-45134D01*
X32102D01*
Y-45286D01*
X31950D01*
Y-45437D01*
X31799D01*
Y-45589D01*
X31647D01*
Y-45741D01*
X31495D01*
Y-45892D01*
X31344D01*
Y-46044D01*
X31192D01*
Y-46195D01*
X31040D01*
Y-46347D01*
X30889D01*
Y-46499D01*
X30737D01*
Y-46650D01*
X30586D01*
Y-46802D01*
X30434D01*
Y-46953D01*
X30282D01*
Y-47105D01*
X30131D01*
Y-47257D01*
X29979D01*
Y-47408D01*
X29827D01*
Y-47560D01*
X29676D01*
Y-47712D01*
X29524D01*
Y-47863D01*
X29373D01*
Y-48015D01*
X29221D01*
Y-48166D01*
X29069D01*
Y-48318D01*
X28918D01*
Y-48470D01*
X28766D01*
Y-48621D01*
X28463D01*
Y-48470D01*
X28311D01*
Y-48318D01*
X28160D01*
Y-48166D01*
X28008D01*
Y-48015D01*
X27856D01*
Y-47863D01*
X27705D01*
Y-47712D01*
X27553D01*
Y-47560D01*
X27402D01*
Y-47408D01*
X27250D01*
Y-47257D01*
X27098D01*
Y-47105D01*
X26947D01*
Y-46953D01*
X26795D01*
Y-46802D01*
X26643D01*
Y-46650D01*
X26492D01*
Y-46499D01*
X26340D01*
Y-46347D01*
X26189D01*
Y-46195D01*
X26037D01*
Y-46044D01*
X25885D01*
Y-45892D01*
X25734D01*
Y-45741D01*
X25582D01*
Y-45589D01*
X25430D01*
Y-45437D01*
X25279D01*
Y-45286D01*
X25127D01*
Y-45134D01*
X24976D01*
Y-44982D01*
X24824D01*
Y-44831D01*
X24672D01*
Y-44679D01*
X24521D01*
Y-44528D01*
X24369D01*
Y-44376D01*
X24217D01*
Y-44224D01*
X24066D01*
Y-44073D01*
X23914D01*
Y-43921D01*
X23763D01*
Y-43769D01*
X23611D01*
Y-43618D01*
X23459D01*
Y-43466D01*
X23308D01*
Y-43314D01*
X23156D01*
Y-43163D01*
X23005D01*
Y-43011D01*
X22853D01*
Y-42860D01*
X22701D01*
Y-42708D01*
X22550D01*
Y-42556D01*
X22398D01*
Y-42405D01*
X22246D01*
Y-42253D01*
X22095D01*
Y-42102D01*
X21943D01*
Y-41950D01*
X21791D01*
Y-41798D01*
X21640D01*
Y-41647D01*
X21488D01*
Y-41495D01*
X21337D01*
Y-41343D01*
X21185D01*
Y-41192D01*
X21033D01*
Y-41040D01*
X20882D01*
Y-40889D01*
X20730D01*
Y-40737D01*
X20579D01*
Y-40585D01*
X20427D01*
Y-40434D01*
X20275D01*
Y-40282D01*
X20124D01*
Y-40130D01*
X19972D01*
Y-39979D01*
X19820D01*
Y-39827D01*
X19669D01*
Y-39676D01*
X19517D01*
Y-39524D01*
X19365D01*
Y-39372D01*
X19214D01*
Y-39221D01*
X19062D01*
Y-39069D01*
X18911D01*
Y-38917D01*
X18759D01*
Y-38766D01*
X18607D01*
Y-38614D01*
X18456D01*
Y-38463D01*
X18304D01*
Y-38311D01*
X18153D01*
Y-38159D01*
X18001D01*
Y-38008D01*
X17849D01*
Y-37856D01*
X17698D01*
Y-37705D01*
X17546D01*
Y-37553D01*
X17394D01*
Y-37401D01*
X17243D01*
Y-37250D01*
X17091D01*
Y-37098D01*
X16939D01*
Y-36946D01*
X16788D01*
Y-36795D01*
X16636D01*
Y-36643D01*
X16485D01*
Y-36492D01*
X16333D01*
Y-36340D01*
X16181D01*
Y-36188D01*
X16030D01*
Y-36037D01*
X15878D01*
Y-35885D01*
X15727D01*
Y-35733D01*
X15575D01*
Y-35582D01*
X15423D01*
Y-35430D01*
X15272D01*
Y-35278D01*
X15120D01*
Y-35127D01*
X14968D01*
Y-34975D01*
X14817D01*
Y-34824D01*
X14665D01*
Y-34672D01*
X14514D01*
Y-34520D01*
X14362D01*
Y-34369D01*
X14210D01*
Y-34217D01*
X14059D01*
Y-34065D01*
X13907D01*
Y-33914D01*
X13755D01*
Y-33762D01*
X13604D01*
Y-33611D01*
X13452D01*
Y-33459D01*
X13301D01*
Y-33307D01*
X13149D01*
Y-33156D01*
X12997D01*
Y-33004D01*
X12846D01*
Y-32853D01*
X12694D01*
Y-32701D01*
X12542D01*
Y-32549D01*
X12391D01*
Y-32398D01*
X12239D01*
Y-32246D01*
X12088D01*
Y-32094D01*
X11936D01*
Y-31943D01*
X11784D01*
Y-31791D01*
X11633D01*
Y-31640D01*
X11481D01*
Y-31488D01*
X11329D01*
Y-31336D01*
X11178D01*
Y-31185D01*
X11026D01*
Y-31033D01*
X10875D01*
Y-30881D01*
X10723D01*
Y-30730D01*
X10571D01*
Y-30578D01*
X10420D01*
Y-30427D01*
X10268D01*
Y-30275D01*
X10116D01*
Y-30123D01*
X9965D01*
Y-29972D01*
X9813D01*
Y-29820D01*
X9662D01*
Y-29668D01*
X9510D01*
Y-29517D01*
X9358D01*
Y-29365D01*
X9207D01*
Y-29214D01*
X9055D01*
Y-29062D01*
X8903D01*
Y-28910D01*
X9055D01*
Y-28759D01*
X9207D01*
Y-28607D01*
X9358D01*
Y-28455D01*
X9510D01*
Y-28304D01*
X9662D01*
Y-28152D01*
X9813D01*
Y-28001D01*
X9965D01*
Y-27849D01*
X10116D01*
Y-27697D01*
X10420D01*
Y-27546D01*
Y-27394D01*
X10571D01*
Y-27242D01*
X10875D01*
Y-27091D01*
Y-26939D01*
X11026D01*
Y-26788D01*
X11329D01*
Y-26636D01*
Y-26484D01*
X11481D01*
Y-26333D01*
X11784D01*
Y-26181D01*
X11936D01*
Y-26030D01*
X11784D01*
Y-25878D01*
X11633D01*
Y-25726D01*
X11481D01*
Y-25575D01*
X11329D01*
Y-25423D01*
X11178D01*
Y-25271D01*
X11026D01*
Y-25120D01*
X10875D01*
Y-24968D01*
X10723D01*
Y-24816D01*
X10420D01*
Y-24968D01*
X10268D01*
Y-25120D01*
X10116D01*
Y-25271D01*
X9965D01*
Y-25423D01*
X9813D01*
Y-25575D01*
X9662D01*
Y-25726D01*
X9510D01*
Y-25878D01*
X9358D01*
Y-26030D01*
X9207D01*
Y-26181D01*
X9055D01*
Y-26333D01*
X8903D01*
Y-26484D01*
X8752D01*
Y-26636D01*
X8600D01*
Y-26788D01*
X8449D01*
Y-26939D01*
X8297D01*
Y-27091D01*
X7690D01*
Y-27242D01*
X7236D01*
Y-27091D01*
X6629D01*
Y-26939D01*
X6477D01*
Y-26788D01*
X6326D01*
Y-26636D01*
X6023D01*
Y-26484D01*
X5871D01*
Y-26333D01*
X5719D01*
Y-26181D01*
X5568D01*
Y-26030D01*
X5416D01*
Y-25878D01*
X5265D01*
Y-25726D01*
X5113D01*
Y-25575D01*
X4961D01*
Y-25423D01*
X4810D01*
Y-25271D01*
X4658D01*
Y-25120D01*
X4506D01*
Y-24968D01*
X4355D01*
Y-25120D01*
X4203D01*
Y-25271D01*
Y-25423D01*
X3900D01*
Y-25575D01*
X3748D01*
Y-25726D01*
Y-25878D01*
X3445D01*
Y-26030D01*
X3293D01*
Y-26181D01*
Y-26333D01*
X2990D01*
Y-26484D01*
Y-26636D01*
X2687D01*
Y-26788D01*
X2535D01*
Y-26939D01*
Y-27091D01*
X2232D01*
Y-27242D01*
X2080D01*
Y-27394D01*
Y-27546D01*
X1777D01*
Y-27697D01*
X1626D01*
Y-27849D01*
Y-28001D01*
Y-28152D01*
X1777D01*
Y-28304D01*
X1929D01*
Y-28455D01*
X2080D01*
Y-28607D01*
X2232D01*
Y-28759D01*
X2384D01*
Y-28910D01*
X2535D01*
Y-29062D01*
X2687D01*
Y-29214D01*
Y-29365D01*
X2535D01*
Y-29517D01*
X2384D01*
Y-29668D01*
X2232D01*
Y-29820D01*
X2080D01*
Y-29972D01*
X1474D01*
Y-30123D01*
X867D01*
Y-30275D01*
X413D01*
Y-30123D01*
X-42D01*
Y-29972D01*
X-649D01*
Y-29820D01*
X-800D01*
Y-29668D01*
X-952D01*
Y-29517D01*
X-1255D01*
Y-29365D01*
Y-29214D01*
X-1407D01*
Y-29062D01*
X-1558D01*
Y-28910D01*
X-1710D01*
Y-28759D01*
X-1862D01*
Y-28607D01*
Y-28455D01*
Y-28304D01*
Y-28152D01*
X-2013D01*
Y-28001D01*
Y-27849D01*
Y-27697D01*
Y-27546D01*
X-2165D01*
Y-27394D01*
X-2013D01*
Y-27242D01*
Y-27091D01*
Y-26939D01*
Y-26788D01*
Y-26636D01*
X-1862D01*
Y-26484D01*
Y-26333D01*
Y-26181D01*
Y-26030D01*
X-1710D01*
Y-25878D01*
X-1558D01*
Y-25726D01*
X-1407D01*
Y-25575D01*
X-1255D01*
Y-25423D01*
Y-25271D01*
X-1104D01*
Y-25423D01*
X-952D01*
Y-25575D01*
X-800D01*
Y-25726D01*
X-649D01*
Y-25878D01*
X-497D01*
Y-26030D01*
X-345D01*
Y-26181D01*
X-194D01*
Y-26333D01*
X-42D01*
Y-26484D01*
X261D01*
Y-26333D01*
X413D01*
Y-26181D01*
X564D01*
Y-26030D01*
X716D01*
Y-25878D01*
X867D01*
Y-25726D01*
X1019D01*
Y-25575D01*
X1171D01*
Y-25423D01*
X1322D01*
Y-25271D01*
X1474D01*
Y-25120D01*
X1626D01*
Y-24968D01*
X1777D01*
Y-24816D01*
X1929D01*
Y-24665D01*
X2080D01*
Y-24513D01*
X2232D01*
Y-24362D01*
X2535D01*
Y-24210D01*
Y-24058D01*
X2687D01*
Y-23907D01*
X2990D01*
Y-23755D01*
X3142D01*
Y-23604D01*
Y-23452D01*
X2839D01*
Y-23300D01*
X2687D01*
Y-23149D01*
X2535D01*
Y-22997D01*
X2384D01*
Y-22845D01*
X2232D01*
Y-22694D01*
X2080D01*
Y-22542D01*
X1929D01*
Y-22390D01*
X1777D01*
Y-22239D01*
X1626D01*
Y-22087D01*
X1474D01*
Y-21936D01*
X1322D01*
Y-21784D01*
X1474D01*
Y-21632D01*
X1171D01*
Y-21481D01*
X1019D01*
Y-21329D01*
Y-21178D01*
Y-21026D01*
Y-20874D01*
X867D01*
Y-20723D01*
Y-20571D01*
Y-20419D01*
X1019D01*
Y-20268D01*
Y-20116D01*
Y-19964D01*
Y-19813D01*
X1171D01*
Y-19661D01*
X1322D01*
Y-19510D01*
X1474D01*
Y-19358D01*
X1626D01*
Y-19206D01*
X1777D01*
Y-19055D01*
X1929D01*
Y-18903D01*
X2080D01*
Y-18752D01*
X2232D01*
Y-18600D01*
X2384D01*
Y-18448D01*
X2535D01*
Y-18297D01*
X2687D01*
Y-18145D01*
X2839D01*
Y-17993D01*
X2990D01*
Y-17842D01*
X3293D01*
Y-17690D01*
Y-17539D01*
Y-17387D01*
X3142D01*
Y-17235D01*
X2990D01*
Y-17084D01*
X2839D01*
Y-16932D01*
X2687D01*
Y-16780D01*
X2535D01*
Y-16629D01*
X2384D01*
Y-16477D01*
X2232D01*
Y-16326D01*
X1777D01*
Y-16477D01*
Y-16629D01*
X1626D01*
Y-16780D01*
X1322D01*
Y-16932D01*
Y-17084D01*
X1171D01*
Y-17235D01*
X867D01*
Y-17387D01*
Y-17539D01*
X564D01*
Y-17690D01*
X413D01*
Y-17842D01*
Y-17993D01*
X109D01*
Y-18145D01*
Y-18297D01*
X-42D01*
Y-18448D01*
X-345D01*
Y-18600D01*
Y-18752D01*
X-649D01*
Y-18903D01*
X-800D01*
Y-19055D01*
Y-19206D01*
X-952D01*
Y-19055D01*
X-1104D01*
Y-18903D01*
X-1255D01*
Y-18752D01*
X-1407D01*
Y-18600D01*
X-1558D01*
Y-18448D01*
X-1710D01*
Y-18297D01*
X-1862D01*
Y-18145D01*
X-2013D01*
Y-17993D01*
X-2165D01*
Y-17842D01*
X-2317D01*
Y-17690D01*
X-2468D01*
Y-17539D01*
X-2620D01*
Y-17387D01*
X-2771D01*
Y-17235D01*
X-2923D01*
Y-17084D01*
X-3075D01*
Y-16932D01*
X-3226D01*
Y-16780D01*
X-3378D01*
Y-16629D01*
X-3530D01*
Y-16477D01*
X-3681D01*
Y-16326D01*
X-3833D01*
Y-16174D01*
X-3985D01*
Y-16022D01*
X-4136D01*
Y-15871D01*
X-4288D01*
Y-15719D01*
X-4439D01*
Y-15567D01*
X-4591D01*
Y-15416D01*
X-4743D01*
Y-15264D01*
X-4894D01*
Y-15113D01*
X-5046D01*
Y-14961D01*
X-5198D01*
Y-14809D01*
X-5349D01*
Y-14658D01*
X-5501D01*
Y-14506D01*
X-5652D01*
Y-14355D01*
X-5804D01*
Y-14203D01*
X-5956D01*
Y-14051D01*
X-6107D01*
Y-13900D01*
X-6259D01*
Y-13748D01*
X-6410D01*
Y-13596D01*
X-6562D01*
Y-13445D01*
X-6714D01*
Y-13293D01*
X-6865D01*
Y-13141D01*
X-7017D01*
Y-12990D01*
X-7169D01*
Y-12838D01*
X-7320D01*
Y-12687D01*
X-7472D01*
Y-12535D01*
X-7623D01*
Y-12383D01*
X-7775D01*
Y-12232D01*
X-7927D01*
Y-12080D01*
X-8078D01*
Y-11929D01*
X-8230D01*
Y-11777D01*
X-8382D01*
Y-11625D01*
X-8533D01*
Y-11474D01*
X-8685D01*
Y-11322D01*
X-8836D01*
Y-11170D01*
X-8988D01*
Y-11019D01*
X-9140D01*
Y-10867D01*
X-9291D01*
Y-10716D01*
X-9443D01*
Y-10564D01*
X-9595D01*
Y-10412D01*
X-9746D01*
Y-10261D01*
X-9898D01*
Y-10109D01*
X-10049D01*
Y-9957D01*
X-10201D01*
Y-9806D01*
X-10353D01*
Y-9654D01*
X-10504D01*
Y-9503D01*
X-10656D01*
Y-9351D01*
X-10808D01*
Y-9199D01*
X-10959D01*
Y-9048D01*
X-11111D01*
Y-8896D01*
X-11262D01*
Y-8744D01*
X-11414D01*
Y-8593D01*
X-11566D01*
Y-8441D01*
X-11717D01*
Y-8290D01*
X-11869D01*
Y-8138D01*
X-12021D01*
Y-7986D01*
X-12172D01*
Y-7835D01*
X-12324D01*
Y-7683D01*
X-12475D01*
Y-7531D01*
X-12627D01*
Y-7380D01*
X-12779D01*
Y-7228D01*
X-12930D01*
Y-7077D01*
X-13082D01*
Y-6925D01*
X-13234D01*
Y-6773D01*
X-13385D01*
Y-6622D01*
X-13537D01*
Y-6470D01*
X-13688D01*
Y-6318D01*
X-13840D01*
Y-6167D01*
X-13992D01*
Y-6015D01*
X-14143D01*
Y-5864D01*
X-14295D01*
Y-5712D01*
X-14446D01*
Y-5560D01*
X-14598D01*
Y-5409D01*
X-14750D01*
Y-5257D01*
X-14901D01*
Y-5105D01*
X-15053D01*
Y-4954D01*
X-15205D01*
Y-4802D01*
X-15356D01*
Y-4651D01*
X-15508D01*
Y-4499D01*
X-15660D01*
Y-4347D01*
X-15811D01*
Y-4196D01*
X-15963D01*
Y-4044D01*
X-16114D01*
Y-3892D01*
X-16266D01*
Y-3741D01*
X-16418D01*
Y-3589D01*
X-16569D01*
Y-3438D01*
X-16721D01*
Y-3286D01*
X-16872D01*
Y-3134D01*
X-17024D01*
Y-2983D01*
X-17176D01*
Y-2831D01*
X-17327D01*
Y-2679D01*
X-17479D01*
Y-2528D01*
X-17631D01*
Y-2376D01*
X-17782D01*
Y-2225D01*
X-17934D01*
Y-2073D01*
X-18086D01*
Y-1921D01*
X-18237D01*
Y-1770D01*
X-18389D01*
Y-1618D01*
X-18540D01*
Y-1467D01*
X-18692D01*
Y-1315D01*
X-18844D01*
Y-1163D01*
X-18995D01*
Y-1012D01*
X-19147D01*
Y-860D01*
X-19298D01*
Y-708D01*
X-19450D01*
Y-557D01*
X-19602D01*
Y-405D01*
X-19753D01*
Y-253D01*
X-19905D01*
Y-102D01*
X-20057D01*
Y50D01*
X-20208D01*
Y201D01*
X-20360D01*
Y353D01*
X-20511D01*
Y505D01*
Y656D01*
X-20360D01*
Y808D01*
X-20208D01*
Y960D01*
X-20057D01*
Y1111D01*
X-19905D01*
Y1263D01*
X-19753D01*
Y1414D01*
X-19602D01*
Y1566D01*
X-19450D01*
Y1718D01*
X-19298D01*
Y1869D01*
X-19147D01*
Y2021D01*
X-18995D01*
Y2173D01*
X-18844D01*
Y2324D01*
X-18692D01*
Y2476D01*
X-18540D01*
Y2627D01*
X-18389D01*
Y2779D01*
X-18237D01*
Y2931D01*
X-18086D01*
Y3082D01*
X-17934D01*
Y3234D01*
X-17782D01*
Y3385D01*
X-17631D01*
Y3537D01*
X-17479D01*
Y3689D01*
X-17327D01*
Y3840D01*
X-17176D01*
Y3992D01*
X-17024D01*
Y4144D01*
X-16872D01*
Y4295D01*
X-16721D01*
Y4447D01*
X-16569D01*
Y4598D01*
X-16418D01*
Y4750D01*
X-16266D01*
Y4902D01*
X-16114D01*
Y5053D01*
X-15963D01*
Y5205D01*
X-15811D01*
Y5357D01*
X-15660D01*
Y5508D01*
X-15508D01*
Y5660D01*
X-15356D01*
Y5811D01*
X-15205D01*
Y5963D01*
X-15053D01*
Y6115D01*
X-14901D01*
Y6266D01*
X-14750D01*
Y6418D01*
X-14598D01*
Y6570D01*
X-14446D01*
Y6721D01*
X-14295D01*
Y6873D01*
X-14143D01*
Y7024D01*
X-13992D01*
Y7176D01*
X-13840D01*
Y7328D01*
X-13688D01*
Y7479D01*
X-13537D01*
Y7631D01*
X-13385D01*
Y7783D01*
X-13234D01*
Y7934D01*
X-12930D01*
Y7783D01*
D02*
G37*
G36*
X94586Y-49955D02*
X94664D01*
Y-49981D01*
X94716D01*
Y-50007D01*
X94768D01*
Y-50033D01*
X94819D01*
Y-50059D01*
X94871D01*
Y-50085D01*
X94897D01*
Y-50111D01*
X94923D01*
Y-50137D01*
X94975D01*
Y-50163D01*
X95001D01*
Y-50189D01*
X95027D01*
Y-50215D01*
X95053D01*
Y-50241D01*
Y-50266D01*
X95079D01*
Y-50292D01*
Y-50318D01*
X95105D01*
Y-50344D01*
Y-50370D01*
X95131D01*
Y-50396D01*
X95157D01*
Y-50422D01*
Y-50448D01*
X95182D01*
Y-50474D01*
Y-50500D01*
X95208D01*
Y-50526D01*
Y-50552D01*
X95234D01*
Y-50578D01*
X95260D01*
Y-50604D01*
Y-50630D01*
X95286D01*
Y-50655D01*
Y-50681D01*
X95312D01*
Y-50707D01*
Y-50733D01*
X95338D01*
Y-50759D01*
Y-50785D01*
X95364D01*
Y-50811D01*
X95390D01*
Y-50837D01*
Y-50863D01*
X95416D01*
Y-50889D01*
Y-50915D01*
X95442D01*
Y-50941D01*
Y-50967D01*
X95468D01*
Y-50993D01*
X95494D01*
Y-51018D01*
Y-51044D01*
X95520D01*
Y-51070D01*
Y-51096D01*
X95546D01*
Y-51122D01*
Y-51148D01*
X95571D01*
Y-51174D01*
Y-51200D01*
X95597D01*
Y-51226D01*
X95623D01*
Y-51252D01*
Y-51278D01*
X95649D01*
Y-51304D01*
Y-51329D01*
X95675D01*
Y-51355D01*
Y-51381D01*
X95701D01*
Y-51407D01*
X95727D01*
Y-51433D01*
Y-51459D01*
X95753D01*
Y-51485D01*
Y-51511D01*
X95779D01*
Y-51537D01*
Y-51563D01*
X95805D01*
Y-51589D01*
Y-51615D01*
X95831D01*
Y-51641D01*
X95857D01*
Y-51667D01*
Y-51692D01*
X95882D01*
Y-51718D01*
Y-51744D01*
X95908D01*
Y-51770D01*
Y-51796D01*
X95934D01*
Y-51822D01*
Y-51848D01*
X95960D01*
Y-51874D01*
X95986D01*
Y-51900D01*
Y-51926D01*
X96012D01*
Y-51952D01*
Y-51978D01*
X96038D01*
Y-52004D01*
Y-52030D01*
X96064D01*
Y-52056D01*
X96090D01*
Y-52082D01*
Y-52107D01*
X96116D01*
Y-52133D01*
Y-52159D01*
X96142D01*
Y-52185D01*
Y-52211D01*
X96168D01*
Y-52237D01*
Y-52263D01*
X96194D01*
Y-52289D01*
X96220D01*
Y-52315D01*
Y-52341D01*
X96245D01*
Y-52367D01*
Y-52393D01*
X96271D01*
Y-52419D01*
Y-52444D01*
X96297D01*
Y-52470D01*
X96323D01*
Y-52496D01*
Y-52522D01*
X96349D01*
Y-52548D01*
Y-52574D01*
X96375D01*
Y-52600D01*
Y-52626D01*
X96401D01*
Y-52652D01*
Y-52678D01*
X96427D01*
Y-52704D01*
X96453D01*
Y-52730D01*
Y-52756D01*
X96479D01*
Y-52781D01*
Y-52807D01*
X96505D01*
Y-52833D01*
Y-52859D01*
X96531D01*
Y-52885D01*
X96557D01*
Y-52911D01*
Y-52937D01*
X96583D01*
Y-52963D01*
Y-52989D01*
X96609D01*
Y-53015D01*
Y-53041D01*
X96634D01*
Y-53067D01*
Y-53093D01*
X96660D01*
Y-53119D01*
X96686D01*
Y-53145D01*
Y-53170D01*
X96712D01*
Y-53196D01*
Y-53222D01*
X96738D01*
Y-53248D01*
Y-53274D01*
X96764D01*
Y-53300D01*
X96790D01*
Y-53326D01*
Y-53352D01*
X96816D01*
Y-53378D01*
Y-53404D01*
X96842D01*
Y-53430D01*
Y-53456D01*
X96868D01*
Y-53482D01*
Y-53508D01*
X96894D01*
Y-53533D01*
X96920D01*
Y-53559D01*
Y-53585D01*
X96946D01*
Y-53611D01*
Y-53637D01*
X96971D01*
Y-53663D01*
Y-53689D01*
X96997D01*
Y-53715D01*
X97023D01*
Y-53741D01*
Y-53767D01*
X97049D01*
Y-53793D01*
Y-53819D01*
X97075D01*
Y-53845D01*
Y-53870D01*
X97101D01*
Y-53896D01*
Y-53922D01*
X97127D01*
Y-53948D01*
X97153D01*
Y-53974D01*
Y-54000D01*
X97179D01*
Y-54026D01*
Y-54052D01*
X97205D01*
Y-54078D01*
Y-54104D01*
X97231D01*
Y-54130D01*
X97257D01*
Y-54156D01*
Y-54182D01*
X97283D01*
Y-54208D01*
Y-54233D01*
X97309D01*
Y-54259D01*
Y-54285D01*
X97334D01*
Y-54311D01*
Y-54337D01*
X97360D01*
Y-54363D01*
X97386D01*
Y-54389D01*
Y-54415D01*
X97412D01*
Y-54441D01*
Y-54467D01*
X97438D01*
Y-54493D01*
Y-54519D01*
X97464D01*
Y-54545D01*
X97490D01*
Y-54571D01*
Y-54597D01*
X97516D01*
Y-54622D01*
Y-54648D01*
X97542D01*
Y-54674D01*
Y-54700D01*
X97568D01*
Y-54726D01*
Y-54752D01*
X97594D01*
Y-54778D01*
X97620D01*
Y-54804D01*
Y-54830D01*
X97646D01*
Y-54856D01*
Y-54882D01*
X97672D01*
Y-54908D01*
Y-54934D01*
X97698D01*
Y-54959D01*
X97723D01*
Y-54985D01*
Y-55011D01*
X97749D01*
Y-55037D01*
Y-55063D01*
X97775D01*
Y-55089D01*
Y-55115D01*
X97801D01*
Y-55141D01*
Y-55167D01*
X97827D01*
Y-55193D01*
X97853D01*
Y-55219D01*
Y-55245D01*
X97879D01*
Y-55271D01*
Y-55297D01*
X97905D01*
Y-55322D01*
Y-55348D01*
X97931D01*
Y-55374D01*
X97957D01*
Y-55400D01*
Y-55426D01*
X97983D01*
Y-55452D01*
Y-55478D01*
X98009D01*
Y-55504D01*
Y-55530D01*
X98035D01*
Y-55556D01*
Y-55582D01*
X98061D01*
Y-55608D01*
X98086D01*
Y-55634D01*
Y-55660D01*
X98112D01*
Y-55686D01*
Y-55711D01*
X98138D01*
Y-55737D01*
Y-55763D01*
X98164D01*
Y-55789D01*
Y-55815D01*
X98190D01*
Y-55841D01*
X98216D01*
Y-55867D01*
Y-55893D01*
X98242D01*
Y-55919D01*
Y-55945D01*
X98268D01*
Y-55971D01*
Y-55997D01*
X98294D01*
Y-56023D01*
X98320D01*
Y-56049D01*
Y-56074D01*
X98346D01*
Y-56100D01*
Y-56126D01*
X98372D01*
Y-56152D01*
Y-56178D01*
X98398D01*
Y-56204D01*
Y-56230D01*
X98423D01*
Y-56256D01*
X98449D01*
Y-56282D01*
Y-56308D01*
X98475D01*
Y-56334D01*
Y-56360D01*
X98501D01*
Y-56385D01*
Y-56411D01*
X98527D01*
Y-56437D01*
X98553D01*
Y-56463D01*
Y-56489D01*
X98579D01*
Y-56515D01*
Y-56541D01*
X98605D01*
Y-56567D01*
Y-56593D01*
X98631D01*
Y-56619D01*
Y-56645D01*
X98657D01*
Y-56671D01*
X98683D01*
Y-56697D01*
Y-56723D01*
X98709D01*
Y-56748D01*
Y-56774D01*
X98735D01*
Y-56800D01*
Y-56826D01*
X98760D01*
Y-56852D01*
Y-56878D01*
X98786D01*
Y-56904D01*
X98812D01*
Y-56930D01*
Y-56956D01*
X98838D01*
Y-56982D01*
Y-57008D01*
X98864D01*
Y-57034D01*
Y-57060D01*
X98890D01*
Y-57086D01*
X98916D01*
Y-57112D01*
Y-57138D01*
X98942D01*
Y-57163D01*
Y-57189D01*
X98968D01*
Y-57215D01*
Y-57241D01*
X98994D01*
Y-57267D01*
Y-57293D01*
X99020D01*
Y-57319D01*
X99046D01*
Y-57345D01*
Y-57371D01*
X99072D01*
Y-57397D01*
Y-57423D01*
X99098D01*
Y-57449D01*
Y-57474D01*
X99124D01*
Y-57500D01*
X99150D01*
Y-57526D01*
Y-57552D01*
X99175D01*
Y-57578D01*
Y-57604D01*
X99201D01*
Y-57630D01*
Y-57656D01*
X99227D01*
Y-57682D01*
Y-57708D01*
X99253D01*
Y-57734D01*
X99279D01*
Y-57760D01*
Y-57786D01*
X99305D01*
Y-57812D01*
Y-57837D01*
X99331D01*
Y-57863D01*
Y-57889D01*
X99357D01*
Y-57915D01*
X99383D01*
Y-57941D01*
Y-57967D01*
X99409D01*
Y-57993D01*
Y-58019D01*
X99435D01*
Y-58045D01*
Y-58071D01*
X99461D01*
Y-58097D01*
Y-58123D01*
X99487D01*
Y-58149D01*
X99512D01*
Y-58175D01*
Y-58201D01*
X99538D01*
Y-58226D01*
Y-58252D01*
X99564D01*
Y-58278D01*
Y-58304D01*
X99590D01*
Y-58330D01*
Y-58356D01*
X99616D01*
Y-58382D01*
X99642D01*
Y-58408D01*
Y-58434D01*
X99668D01*
Y-58460D01*
Y-58486D01*
X99694D01*
Y-58512D01*
Y-58538D01*
X99720D01*
Y-58564D01*
X99746D01*
Y-58589D01*
Y-58615D01*
X99772D01*
Y-58641D01*
Y-58667D01*
X99798D01*
Y-58693D01*
Y-58719D01*
X99824D01*
Y-58745D01*
Y-58771D01*
X99849D01*
Y-58797D01*
X99875D01*
Y-58823D01*
Y-58849D01*
X99901D01*
Y-58875D01*
Y-58901D01*
X99927D01*
Y-58926D01*
Y-58952D01*
X99953D01*
Y-58978D01*
X99979D01*
Y-59004D01*
Y-59030D01*
X100005D01*
Y-59056D01*
Y-59082D01*
X100031D01*
Y-59108D01*
Y-59134D01*
X100057D01*
Y-59160D01*
Y-59186D01*
X100083D01*
Y-59212D01*
X100109D01*
Y-59238D01*
Y-59264D01*
X100135D01*
Y-59289D01*
Y-59315D01*
X100161D01*
Y-59341D01*
Y-59367D01*
X100187D01*
Y-59393D01*
Y-59419D01*
X100213D01*
Y-59445D01*
X100239D01*
Y-59471D01*
Y-59497D01*
X100264D01*
Y-59523D01*
Y-59549D01*
X100290D01*
Y-59575D01*
Y-59601D01*
X100316D01*
Y-59627D01*
X100342D01*
Y-59653D01*
Y-59678D01*
X100368D01*
Y-59704D01*
Y-59730D01*
X100394D01*
Y-59756D01*
Y-59782D01*
X100420D01*
Y-59808D01*
Y-59834D01*
X100446D01*
Y-59860D01*
X100472D01*
Y-59886D01*
Y-59912D01*
X100498D01*
Y-59938D01*
Y-59964D01*
X100524D01*
Y-59990D01*
Y-60015D01*
X100550D01*
Y-60041D01*
X100575D01*
Y-60067D01*
Y-60093D01*
X100601D01*
Y-60119D01*
Y-60145D01*
X100627D01*
Y-60171D01*
Y-60197D01*
X100653D01*
Y-60223D01*
Y-60249D01*
X100679D01*
Y-60275D01*
X100705D01*
Y-60301D01*
Y-60327D01*
X100731D01*
Y-60352D01*
Y-60378D01*
X100757D01*
Y-60404D01*
Y-60430D01*
X100783D01*
Y-60456D01*
Y-60482D01*
X100809D01*
Y-60508D01*
X100835D01*
Y-60534D01*
Y-60560D01*
X100861D01*
Y-60586D01*
Y-60612D01*
X100887D01*
Y-60638D01*
Y-60664D01*
X100913D01*
Y-60690D01*
X100938D01*
Y-60716D01*
Y-60742D01*
X100964D01*
Y-60767D01*
Y-60793D01*
X100990D01*
Y-60819D01*
Y-60845D01*
X101016D01*
Y-60871D01*
Y-60897D01*
X101042D01*
Y-60923D01*
X101068D01*
Y-60949D01*
Y-60975D01*
X101094D01*
Y-61001D01*
Y-61027D01*
X101120D01*
Y-61053D01*
Y-61079D01*
X101146D01*
Y-61105D01*
X101172D01*
Y-61130D01*
Y-61156D01*
X101198D01*
Y-61182D01*
Y-61208D01*
X101224D01*
Y-61234D01*
Y-61260D01*
X101250D01*
Y-61286D01*
Y-61312D01*
X101276D01*
Y-61338D01*
X101302D01*
Y-61364D01*
Y-61390D01*
Y-61416D01*
X101327D01*
Y-61441D01*
Y-61467D01*
Y-61493D01*
Y-61519D01*
Y-61545D01*
Y-61571D01*
Y-61597D01*
Y-61623D01*
Y-61649D01*
Y-61675D01*
Y-61701D01*
Y-61727D01*
Y-61753D01*
X101302D01*
Y-61779D01*
Y-61804D01*
Y-61830D01*
Y-61856D01*
X101276D01*
Y-61882D01*
Y-61908D01*
X101250D01*
Y-61934D01*
Y-61960D01*
X101224D01*
Y-61986D01*
Y-62012D01*
X101198D01*
Y-62038D01*
Y-62064D01*
X101172D01*
Y-62090D01*
X101146D01*
Y-62116D01*
Y-62142D01*
X101120D01*
Y-62168D01*
X101094D01*
Y-62193D01*
X101042D01*
Y-62219D01*
X101016D01*
Y-62245D01*
X100938D01*
Y-62271D01*
X87949D01*
Y-62245D01*
X87871D01*
Y-62219D01*
X87845D01*
Y-62193D01*
X87793D01*
Y-62168D01*
X87767D01*
Y-62142D01*
X87741D01*
Y-62116D01*
X87715D01*
Y-62090D01*
Y-62064D01*
X87689D01*
Y-62038D01*
X87663D01*
Y-62012D01*
Y-61986D01*
X87637D01*
Y-61960D01*
X87611D01*
Y-61934D01*
Y-61908D01*
Y-61882D01*
X87586D01*
Y-61856D01*
Y-61830D01*
X87560D01*
Y-61804D01*
Y-61779D01*
Y-61753D01*
Y-61727D01*
X87534D01*
Y-61701D01*
Y-61675D01*
Y-61649D01*
Y-61623D01*
Y-61597D01*
Y-61571D01*
Y-61545D01*
Y-61519D01*
Y-61493D01*
Y-61467D01*
X87560D01*
Y-61441D01*
Y-61416D01*
Y-61390D01*
X87586D01*
Y-61364D01*
X87611D01*
Y-61338D01*
Y-61312D01*
X87637D01*
Y-61286D01*
Y-61260D01*
X87663D01*
Y-61234D01*
Y-61208D01*
X87689D01*
Y-61182D01*
Y-61156D01*
X87715D01*
Y-61130D01*
X87741D01*
Y-61105D01*
Y-61079D01*
X87767D01*
Y-61053D01*
Y-61027D01*
X87793D01*
Y-61001D01*
Y-60975D01*
X87819D01*
Y-60949D01*
X87845D01*
Y-60923D01*
Y-60897D01*
X87871D01*
Y-60871D01*
Y-60845D01*
X87897D01*
Y-60819D01*
Y-60793D01*
X87923D01*
Y-60767D01*
Y-60742D01*
X87949D01*
Y-60716D01*
X87974D01*
Y-60690D01*
Y-60664D01*
X88000D01*
Y-60638D01*
Y-60612D01*
X88026D01*
Y-60586D01*
Y-60560D01*
X88052D01*
Y-60534D01*
Y-60508D01*
X88078D01*
Y-60482D01*
X88104D01*
Y-60456D01*
Y-60430D01*
X88130D01*
Y-60404D01*
Y-60378D01*
X88156D01*
Y-60352D01*
Y-60327D01*
X88182D01*
Y-60301D01*
X88208D01*
Y-60275D01*
Y-60249D01*
X88234D01*
Y-60223D01*
Y-60197D01*
X88260D01*
Y-60171D01*
Y-60145D01*
X88286D01*
Y-60119D01*
Y-60093D01*
X88311D01*
Y-60067D01*
X88337D01*
Y-60041D01*
Y-60015D01*
X88363D01*
Y-59990D01*
Y-59964D01*
X88389D01*
Y-59938D01*
Y-59912D01*
X88415D01*
Y-59886D01*
X88441D01*
Y-59860D01*
Y-59834D01*
X88467D01*
Y-59808D01*
Y-59782D01*
X88493D01*
Y-59756D01*
Y-59730D01*
X88519D01*
Y-59704D01*
Y-59678D01*
X88545D01*
Y-59653D01*
X88571D01*
Y-59627D01*
Y-59601D01*
X88597D01*
Y-59575D01*
Y-59549D01*
X88623D01*
Y-59523D01*
Y-59497D01*
X88649D01*
Y-59471D01*
Y-59445D01*
X88674D01*
Y-59419D01*
X88700D01*
Y-59393D01*
Y-59367D01*
X88726D01*
Y-59341D01*
Y-59315D01*
X88752D01*
Y-59289D01*
Y-59264D01*
X88778D01*
Y-59238D01*
X88804D01*
Y-59212D01*
Y-59186D01*
X88830D01*
Y-59160D01*
Y-59134D01*
X88856D01*
Y-59108D01*
Y-59082D01*
X88882D01*
Y-59056D01*
Y-59030D01*
X88908D01*
Y-59004D01*
X88934D01*
Y-58978D01*
Y-58952D01*
X88960D01*
Y-58926D01*
Y-58901D01*
X88986D01*
Y-58875D01*
Y-58849D01*
X89012D01*
Y-58823D01*
Y-58797D01*
X89038D01*
Y-58771D01*
X89063D01*
Y-58745D01*
Y-58719D01*
X89089D01*
Y-58693D01*
Y-58667D01*
X89115D01*
Y-58641D01*
Y-58615D01*
X89141D01*
Y-58589D01*
X89167D01*
Y-58564D01*
Y-58538D01*
X89193D01*
Y-58512D01*
Y-58486D01*
X89219D01*
Y-58460D01*
Y-58434D01*
X89245D01*
Y-58408D01*
Y-58382D01*
X89271D01*
Y-58356D01*
X89297D01*
Y-58330D01*
Y-58304D01*
X89323D01*
Y-58278D01*
Y-58252D01*
X89349D01*
Y-58226D01*
Y-58201D01*
X89375D01*
Y-58175D01*
X89401D01*
Y-58149D01*
Y-58123D01*
X89426D01*
Y-58097D01*
Y-58071D01*
X89452D01*
Y-58045D01*
Y-58019D01*
X89478D01*
Y-57993D01*
Y-57967D01*
X89504D01*
Y-57941D01*
X89530D01*
Y-57915D01*
Y-57889D01*
X89556D01*
Y-57863D01*
Y-57837D01*
X89582D01*
Y-57812D01*
Y-57786D01*
X89608D01*
Y-57760D01*
Y-57734D01*
X89634D01*
Y-57708D01*
X89660D01*
Y-57682D01*
Y-57656D01*
X89686D01*
Y-57630D01*
Y-57604D01*
X89712D01*
Y-57578D01*
Y-57552D01*
X89737D01*
Y-57526D01*
X89763D01*
Y-57500D01*
Y-57474D01*
X89789D01*
Y-57449D01*
Y-57423D01*
X89815D01*
Y-57397D01*
Y-57371D01*
X89841D01*
Y-57345D01*
Y-57319D01*
X89867D01*
Y-57293D01*
X89893D01*
Y-57267D01*
Y-57241D01*
X89919D01*
Y-57215D01*
Y-57189D01*
X89945D01*
Y-57163D01*
Y-57138D01*
X89971D01*
Y-57112D01*
Y-57086D01*
X89997D01*
Y-57060D01*
X90023D01*
Y-57034D01*
Y-57008D01*
X90049D01*
Y-56982D01*
Y-56956D01*
X90075D01*
Y-56930D01*
Y-56904D01*
X90101D01*
Y-56878D01*
X90127D01*
Y-56852D01*
Y-56826D01*
X90152D01*
Y-56800D01*
Y-56774D01*
X90178D01*
Y-56748D01*
Y-56723D01*
X90204D01*
Y-56697D01*
Y-56671D01*
X90230D01*
Y-56645D01*
X90256D01*
Y-56619D01*
Y-56593D01*
X90282D01*
Y-56567D01*
Y-56541D01*
X90308D01*
Y-56515D01*
Y-56489D01*
X90334D01*
Y-56463D01*
Y-56437D01*
X90360D01*
Y-56411D01*
X90386D01*
Y-56385D01*
Y-56360D01*
X90412D01*
Y-56334D01*
Y-56308D01*
X90438D01*
Y-56282D01*
Y-56256D01*
X90464D01*
Y-56230D01*
X90489D01*
Y-56204D01*
Y-56178D01*
X90515D01*
Y-56152D01*
Y-56126D01*
X90541D01*
Y-56100D01*
Y-56074D01*
X90567D01*
Y-56049D01*
Y-56023D01*
X90593D01*
Y-55997D01*
X90619D01*
Y-55971D01*
Y-55945D01*
X90645D01*
Y-55919D01*
Y-55893D01*
X90671D01*
Y-55867D01*
Y-55841D01*
X90697D01*
Y-55815D01*
X90723D01*
Y-55789D01*
Y-55763D01*
X90749D01*
Y-55737D01*
Y-55711D01*
X90775D01*
Y-55686D01*
Y-55660D01*
X90801D01*
Y-55634D01*
Y-55608D01*
X90826D01*
Y-55582D01*
X90852D01*
Y-55556D01*
Y-55530D01*
X90878D01*
Y-55504D01*
Y-55478D01*
X90904D01*
Y-55452D01*
Y-55426D01*
X90930D01*
Y-55400D01*
Y-55374D01*
X90956D01*
Y-55348D01*
X90982D01*
Y-55322D01*
Y-55297D01*
X91008D01*
Y-55271D01*
Y-55245D01*
X91034D01*
Y-55219D01*
Y-55193D01*
X91060D01*
Y-55167D01*
X91086D01*
Y-55141D01*
Y-55115D01*
X91112D01*
Y-55089D01*
Y-55063D01*
X91138D01*
Y-55037D01*
Y-55011D01*
X91164D01*
Y-54985D01*
Y-54959D01*
X91189D01*
Y-54934D01*
X91215D01*
Y-54908D01*
Y-54882D01*
X91241D01*
Y-54856D01*
Y-54830D01*
X91267D01*
Y-54804D01*
Y-54778D01*
X91293D01*
Y-54752D01*
X91319D01*
Y-54726D01*
Y-54700D01*
X91345D01*
Y-54674D01*
Y-54648D01*
X91371D01*
Y-54622D01*
Y-54597D01*
X91397D01*
Y-54571D01*
Y-54545D01*
X91423D01*
Y-54519D01*
X91449D01*
Y-54493D01*
Y-54467D01*
X91475D01*
Y-54441D01*
Y-54415D01*
X91501D01*
Y-54389D01*
Y-54363D01*
X91527D01*
Y-54337D01*
X91553D01*
Y-54311D01*
Y-54285D01*
X91578D01*
Y-54259D01*
Y-54233D01*
X91604D01*
Y-54208D01*
Y-54182D01*
X91630D01*
Y-54156D01*
Y-54130D01*
X91656D01*
Y-54104D01*
X91682D01*
Y-54078D01*
Y-54052D01*
X91708D01*
Y-54026D01*
Y-54000D01*
X91734D01*
Y-53974D01*
Y-53948D01*
X91760D01*
Y-53922D01*
X91786D01*
Y-53896D01*
Y-53870D01*
X91812D01*
Y-53845D01*
Y-53819D01*
X91838D01*
Y-53793D01*
Y-53767D01*
X91864D01*
Y-53741D01*
Y-53715D01*
X91890D01*
Y-53689D01*
X91916D01*
Y-53663D01*
Y-53637D01*
X91941D01*
Y-53611D01*
Y-53585D01*
X91967D01*
Y-53559D01*
Y-53533D01*
X91993D01*
Y-53508D01*
X92019D01*
Y-53482D01*
Y-53456D01*
X92045D01*
Y-53430D01*
Y-53404D01*
X92071D01*
Y-53378D01*
Y-53352D01*
X92097D01*
Y-53326D01*
Y-53300D01*
X92123D01*
Y-53274D01*
X92149D01*
Y-53248D01*
Y-53222D01*
X92175D01*
Y-53196D01*
Y-53170D01*
X92201D01*
Y-53145D01*
Y-53119D01*
X92227D01*
Y-53093D01*
X92253D01*
Y-53067D01*
Y-53041D01*
X92278D01*
Y-53015D01*
Y-52989D01*
X92304D01*
Y-52963D01*
Y-52937D01*
X92330D01*
Y-52911D01*
Y-52885D01*
X92356D01*
Y-52859D01*
X92382D01*
Y-52833D01*
Y-52807D01*
X92408D01*
Y-52781D01*
Y-52756D01*
X92434D01*
Y-52730D01*
Y-52704D01*
X92460D01*
Y-52678D01*
X92486D01*
Y-52652D01*
Y-52626D01*
X92512D01*
Y-52600D01*
Y-52574D01*
X92538D01*
Y-52548D01*
Y-52522D01*
X92564D01*
Y-52496D01*
X92590D01*
Y-52470D01*
Y-52444D01*
X92616D01*
Y-52419D01*
Y-52393D01*
X92667D01*
Y-52367D01*
Y-52341D01*
X92693D01*
Y-52315D01*
Y-52289D01*
X92719D01*
Y-52263D01*
X92745D01*
Y-52237D01*
Y-52211D01*
X92771D01*
Y-52185D01*
Y-52159D01*
X92797D01*
Y-52133D01*
Y-52107D01*
X92823D01*
Y-52082D01*
X92849D01*
Y-52056D01*
Y-52030D01*
X92875D01*
Y-52004D01*
Y-51978D01*
X92901D01*
Y-51952D01*
Y-51926D01*
X92927D01*
Y-51900D01*
Y-51874D01*
X92953D01*
Y-51848D01*
X92979D01*
Y-51822D01*
Y-51796D01*
X93005D01*
Y-51770D01*
Y-51744D01*
X93030D01*
Y-51718D01*
Y-51692D01*
X93056D01*
Y-51667D01*
X93082D01*
Y-51641D01*
Y-51615D01*
X93108D01*
Y-51589D01*
Y-51563D01*
X93134D01*
Y-51537D01*
Y-51511D01*
X93160D01*
Y-51485D01*
Y-51459D01*
X93186D01*
Y-51433D01*
X93212D01*
Y-51407D01*
Y-51381D01*
X93238D01*
Y-51355D01*
Y-51329D01*
X93264D01*
Y-51304D01*
Y-51278D01*
X93290D01*
Y-51252D01*
X93316D01*
Y-51226D01*
Y-51200D01*
X93341D01*
Y-51174D01*
Y-51148D01*
X93367D01*
Y-51122D01*
Y-51096D01*
X93393D01*
Y-51070D01*
Y-51044D01*
X93419D01*
Y-51018D01*
X93445D01*
Y-50993D01*
Y-50967D01*
X93471D01*
Y-50941D01*
Y-50915D01*
X93497D01*
Y-50889D01*
Y-50863D01*
X93523D01*
Y-50837D01*
X93549D01*
Y-50811D01*
Y-50785D01*
X93575D01*
Y-50759D01*
Y-50733D01*
X93601D01*
Y-50707D01*
Y-50681D01*
X93627D01*
Y-50655D01*
Y-50630D01*
X93653D01*
Y-50604D01*
X93679D01*
Y-50578D01*
Y-50552D01*
X93704D01*
Y-50526D01*
Y-50500D01*
X93730D01*
Y-50474D01*
Y-50448D01*
X93756D01*
Y-50422D01*
X93782D01*
Y-50396D01*
Y-50370D01*
X93808D01*
Y-50344D01*
Y-50318D01*
X93834D01*
Y-50292D01*
Y-50266D01*
X93860D01*
Y-50241D01*
Y-50215D01*
X93886D01*
Y-50189D01*
X93912D01*
Y-50163D01*
X93938D01*
Y-50137D01*
X93964D01*
Y-50111D01*
X94016D01*
Y-50085D01*
X94042D01*
Y-50059D01*
X94094D01*
Y-50033D01*
X94145D01*
Y-50007D01*
X94197D01*
Y-49981D01*
X94275D01*
Y-49955D01*
X94353D01*
Y-49929D01*
X94586D01*
Y-49955D01*
D02*
G37*
%LPC*%
G36*
X94508Y-53145D02*
X94327D01*
Y-53170D01*
X94171D01*
Y-53196D01*
X94068D01*
Y-53222D01*
X93990D01*
Y-53248D01*
X93938D01*
Y-53274D01*
X93886D01*
Y-53300D01*
X93834D01*
Y-53326D01*
X93808D01*
Y-53352D01*
X93756D01*
Y-53378D01*
X93730D01*
Y-53404D01*
X93704D01*
Y-53430D01*
X93679D01*
Y-53456D01*
X93653D01*
Y-53482D01*
X93627D01*
Y-53508D01*
X93601D01*
Y-53533D01*
X93575D01*
Y-53559D01*
X93549D01*
Y-53585D01*
Y-53611D01*
X93523D01*
Y-53637D01*
X93497D01*
Y-53663D01*
Y-53689D01*
Y-53715D01*
X93471D01*
Y-53741D01*
Y-53767D01*
Y-53793D01*
Y-53819D01*
X93445D01*
Y-53845D01*
Y-53870D01*
Y-53896D01*
Y-53922D01*
Y-53948D01*
Y-53974D01*
Y-54000D01*
Y-54026D01*
Y-54052D01*
Y-54078D01*
Y-54104D01*
X93471D01*
Y-54130D01*
X93445D01*
Y-54156D01*
Y-54182D01*
Y-54208D01*
Y-54233D01*
X93471D01*
Y-54259D01*
Y-54285D01*
Y-54311D01*
Y-54337D01*
Y-54363D01*
Y-54389D01*
Y-54415D01*
Y-54441D01*
Y-54467D01*
Y-54493D01*
Y-54519D01*
Y-54545D01*
Y-54571D01*
Y-54597D01*
Y-54622D01*
Y-54648D01*
Y-54674D01*
Y-54700D01*
Y-54726D01*
Y-54752D01*
Y-54778D01*
Y-54804D01*
Y-54830D01*
Y-54856D01*
Y-54882D01*
X93497D01*
Y-54908D01*
Y-54934D01*
Y-54959D01*
Y-54985D01*
Y-55011D01*
Y-55037D01*
Y-55063D01*
Y-55089D01*
Y-55115D01*
Y-55141D01*
Y-55167D01*
Y-55193D01*
Y-55219D01*
Y-55245D01*
Y-55271D01*
Y-55297D01*
Y-55322D01*
X93523D01*
Y-55348D01*
Y-55374D01*
Y-55400D01*
Y-55426D01*
Y-55452D01*
Y-55478D01*
Y-55504D01*
Y-55530D01*
Y-55556D01*
Y-55582D01*
Y-55608D01*
Y-55634D01*
Y-55660D01*
X93549D01*
Y-55686D01*
Y-55711D01*
Y-55737D01*
Y-55763D01*
Y-55789D01*
Y-55815D01*
Y-55841D01*
Y-55867D01*
Y-55893D01*
Y-55919D01*
Y-55945D01*
Y-55971D01*
Y-55997D01*
Y-56023D01*
X93575D01*
Y-56049D01*
Y-56074D01*
Y-56100D01*
Y-56126D01*
Y-56152D01*
Y-56178D01*
Y-56204D01*
Y-56230D01*
Y-56256D01*
Y-56282D01*
Y-56308D01*
Y-56334D01*
Y-56360D01*
X93601D01*
Y-56385D01*
Y-56411D01*
Y-56437D01*
Y-56463D01*
Y-56489D01*
Y-56515D01*
Y-56541D01*
Y-56567D01*
Y-56593D01*
Y-56619D01*
Y-56645D01*
Y-56671D01*
Y-56697D01*
X93627D01*
Y-56723D01*
Y-56748D01*
Y-56774D01*
Y-56800D01*
Y-56826D01*
Y-56852D01*
Y-56878D01*
Y-56904D01*
Y-56930D01*
Y-56956D01*
Y-56982D01*
X93653D01*
Y-57008D01*
Y-57034D01*
Y-57060D01*
Y-57086D01*
Y-57112D01*
Y-57138D01*
Y-57163D01*
Y-57189D01*
Y-57215D01*
Y-57241D01*
Y-57267D01*
X93679D01*
Y-57293D01*
Y-57319D01*
Y-57345D01*
Y-57371D01*
Y-57397D01*
Y-57423D01*
Y-57449D01*
Y-57474D01*
Y-57500D01*
Y-57526D01*
Y-57552D01*
X93704D01*
Y-57578D01*
Y-57604D01*
Y-57630D01*
Y-57656D01*
Y-57682D01*
Y-57708D01*
Y-57734D01*
Y-57760D01*
Y-57786D01*
Y-57812D01*
X93730D01*
Y-57837D01*
Y-57863D01*
Y-57889D01*
Y-57915D01*
Y-57941D01*
Y-57967D01*
Y-57993D01*
Y-58019D01*
Y-58045D01*
Y-58071D01*
Y-58097D01*
X93756D01*
Y-58123D01*
Y-58149D01*
Y-58175D01*
Y-58201D01*
Y-58226D01*
Y-58252D01*
Y-58278D01*
Y-58304D01*
Y-58330D01*
Y-58356D01*
Y-58382D01*
X93782D01*
Y-58408D01*
Y-58434D01*
Y-58460D01*
Y-58486D01*
Y-58512D01*
X93808D01*
Y-58538D01*
Y-58564D01*
X93834D01*
Y-58589D01*
Y-58615D01*
X93860D01*
Y-58641D01*
Y-58667D01*
X93886D01*
Y-58693D01*
Y-58719D01*
X93912D01*
Y-58745D01*
X93938D01*
Y-58771D01*
X93964D01*
Y-58797D01*
X93990D01*
Y-58823D01*
X94042D01*
Y-58849D01*
X94068D01*
Y-58875D01*
X94119D01*
Y-58901D01*
X94171D01*
Y-58926D01*
X94327D01*
Y-58952D01*
X94456D01*
Y-58926D01*
X94586D01*
Y-58901D01*
X94664D01*
Y-58875D01*
X94716D01*
Y-58849D01*
X94768D01*
Y-58823D01*
X94793D01*
Y-58797D01*
X94845D01*
Y-58771D01*
X94871D01*
Y-58745D01*
X94897D01*
Y-58719D01*
Y-58693D01*
X94923D01*
Y-58667D01*
X94949D01*
Y-58641D01*
X94975D01*
Y-58615D01*
Y-58589D01*
X95001D01*
Y-58564D01*
Y-58538D01*
X95027D01*
Y-58512D01*
Y-58486D01*
Y-58460D01*
Y-58434D01*
Y-58408D01*
Y-58382D01*
Y-58356D01*
Y-58330D01*
X95053D01*
Y-58304D01*
Y-58278D01*
Y-58252D01*
Y-58226D01*
Y-58201D01*
Y-58175D01*
Y-58149D01*
Y-58123D01*
Y-58097D01*
Y-58071D01*
X95079D01*
Y-58045D01*
Y-58019D01*
Y-57993D01*
Y-57967D01*
Y-57941D01*
Y-57915D01*
Y-57889D01*
Y-57863D01*
Y-57837D01*
Y-57812D01*
Y-57786D01*
X95105D01*
Y-57760D01*
Y-57734D01*
Y-57708D01*
Y-57682D01*
Y-57656D01*
Y-57630D01*
Y-57604D01*
Y-57578D01*
Y-57552D01*
Y-57526D01*
Y-57500D01*
X95131D01*
Y-57474D01*
Y-57449D01*
Y-57423D01*
Y-57397D01*
Y-57371D01*
Y-57345D01*
Y-57319D01*
Y-57293D01*
Y-57267D01*
Y-57241D01*
Y-57215D01*
X95157D01*
Y-57189D01*
Y-57163D01*
Y-57138D01*
Y-57112D01*
Y-57086D01*
Y-57060D01*
Y-57034D01*
Y-57008D01*
Y-56982D01*
Y-56956D01*
Y-56930D01*
X95182D01*
Y-56904D01*
Y-56878D01*
Y-56852D01*
Y-56826D01*
Y-56800D01*
Y-56774D01*
Y-56748D01*
Y-56723D01*
Y-56697D01*
Y-56671D01*
Y-56645D01*
Y-56619D01*
X95208D01*
Y-56593D01*
Y-56567D01*
Y-56541D01*
Y-56515D01*
Y-56489D01*
Y-56463D01*
Y-56437D01*
Y-56411D01*
Y-56385D01*
Y-56360D01*
Y-56334D01*
Y-56308D01*
Y-56282D01*
Y-56256D01*
X95234D01*
Y-56230D01*
Y-56204D01*
Y-56178D01*
Y-56152D01*
Y-56126D01*
Y-56100D01*
Y-56074D01*
Y-56049D01*
Y-56023D01*
Y-55997D01*
Y-55971D01*
Y-55945D01*
Y-55919D01*
Y-55893D01*
X95260D01*
Y-55867D01*
Y-55841D01*
Y-55815D01*
Y-55789D01*
Y-55763D01*
Y-55737D01*
Y-55711D01*
Y-55686D01*
Y-55660D01*
Y-55634D01*
Y-55608D01*
Y-55582D01*
Y-55556D01*
Y-55530D01*
X95286D01*
Y-55504D01*
Y-55478D01*
Y-55452D01*
Y-55426D01*
Y-55400D01*
Y-55374D01*
Y-55348D01*
Y-55322D01*
Y-55297D01*
Y-55271D01*
Y-55245D01*
Y-55219D01*
Y-55193D01*
Y-55167D01*
X95312D01*
Y-55141D01*
Y-55115D01*
Y-55089D01*
Y-55063D01*
Y-55037D01*
Y-55011D01*
Y-54985D01*
Y-54959D01*
Y-54934D01*
Y-54908D01*
Y-54882D01*
Y-54856D01*
Y-54830D01*
Y-54804D01*
Y-54778D01*
Y-54752D01*
Y-54726D01*
Y-54700D01*
Y-54674D01*
Y-54648D01*
X95338D01*
Y-54622D01*
Y-54597D01*
Y-54571D01*
Y-54545D01*
Y-54519D01*
Y-54493D01*
Y-54467D01*
Y-54441D01*
Y-54415D01*
Y-54389D01*
Y-54363D01*
Y-54337D01*
Y-54311D01*
Y-54285D01*
Y-54259D01*
Y-54233D01*
Y-54208D01*
Y-54182D01*
Y-54156D01*
Y-54130D01*
Y-54104D01*
Y-54078D01*
Y-54052D01*
Y-54026D01*
Y-54000D01*
Y-53974D01*
Y-53948D01*
Y-53922D01*
Y-53896D01*
Y-53870D01*
Y-53845D01*
Y-53819D01*
Y-53793D01*
Y-53767D01*
Y-53741D01*
X95312D01*
Y-53715D01*
Y-53689D01*
Y-53663D01*
X95286D01*
Y-53637D01*
X95260D01*
Y-53611D01*
Y-53585D01*
X95234D01*
Y-53559D01*
X95208D01*
Y-53533D01*
X95182D01*
Y-53508D01*
X95157D01*
Y-53482D01*
X95131D01*
Y-53456D01*
X95105D01*
Y-53430D01*
X95079D01*
Y-53404D01*
X95053D01*
Y-53378D01*
X95027D01*
Y-53352D01*
X94975D01*
Y-53326D01*
X94949D01*
Y-53300D01*
X94897D01*
Y-53274D01*
X94845D01*
Y-53248D01*
X94793D01*
Y-53222D01*
X94742D01*
Y-53196D01*
X94638D01*
Y-53170D01*
X94508D01*
Y-53145D01*
D02*
G37*
G36*
X94560Y-59782D02*
X94275D01*
Y-59808D01*
X94171D01*
Y-59834D01*
X94094D01*
Y-59860D01*
X94016D01*
Y-59886D01*
X93964D01*
Y-59912D01*
X93938D01*
Y-59938D01*
X93886D01*
Y-59964D01*
X93860D01*
Y-59990D01*
X93834D01*
Y-60015D01*
X93808D01*
Y-60041D01*
X93782D01*
Y-60067D01*
X93756D01*
Y-60093D01*
X93730D01*
Y-60119D01*
Y-60145D01*
X93704D01*
Y-60171D01*
Y-60197D01*
X93679D01*
Y-60223D01*
Y-60249D01*
X93653D01*
Y-60275D01*
Y-60301D01*
Y-60327D01*
Y-60352D01*
Y-60378D01*
X93627D01*
Y-60404D01*
Y-60430D01*
Y-60456D01*
X93653D01*
Y-60482D01*
Y-60508D01*
Y-60534D01*
Y-60560D01*
Y-60586D01*
X93679D01*
Y-60612D01*
Y-60638D01*
Y-60664D01*
X93704D01*
Y-60690D01*
X93730D01*
Y-60716D01*
Y-60742D01*
X93756D01*
Y-60767D01*
X93782D01*
Y-60793D01*
X93808D01*
Y-60819D01*
X93834D01*
Y-60845D01*
X93860D01*
Y-60871D01*
X93886D01*
Y-60897D01*
X93912D01*
Y-60923D01*
X93964D01*
Y-60949D01*
X94016D01*
Y-60975D01*
X94068D01*
Y-61001D01*
X94145D01*
Y-61027D01*
X94249D01*
Y-61053D01*
X94612D01*
Y-61027D01*
X94716D01*
Y-61001D01*
X94768D01*
Y-60975D01*
X94845D01*
Y-60949D01*
X94897D01*
Y-60923D01*
X94923D01*
Y-60897D01*
X94975D01*
Y-60871D01*
X95001D01*
Y-60845D01*
X95027D01*
Y-60819D01*
X95053D01*
Y-60793D01*
X95079D01*
Y-60767D01*
X95105D01*
Y-60742D01*
Y-60716D01*
X95131D01*
Y-60690D01*
X95157D01*
Y-60664D01*
Y-60638D01*
Y-60612D01*
X95182D01*
Y-60586D01*
Y-60560D01*
X95208D01*
Y-60534D01*
Y-60508D01*
Y-60482D01*
Y-60456D01*
Y-60430D01*
Y-60404D01*
Y-60378D01*
Y-60352D01*
Y-60327D01*
Y-60301D01*
X95182D01*
Y-60275D01*
Y-60249D01*
Y-60223D01*
X95157D01*
Y-60197D01*
Y-60171D01*
X95131D01*
Y-60145D01*
Y-60119D01*
X95105D01*
Y-60093D01*
X95079D01*
Y-60067D01*
Y-60041D01*
X95053D01*
Y-60015D01*
X95027D01*
Y-59990D01*
X95001D01*
Y-59964D01*
X94949D01*
Y-59938D01*
X94923D01*
Y-59912D01*
X94871D01*
Y-59886D01*
X94819D01*
Y-59860D01*
X94768D01*
Y-59834D01*
X94690D01*
Y-59808D01*
X94560D01*
Y-59782D01*
D02*
G37*
%LPD*%
D10*
X1713Y84646D02*
X12697D01*
Y126772D01*
X1713D02*
X12697D01*
X-84862Y-37303D02*
X-82264D01*
X-86713Y-32913D02*
Y-30276D01*
X-84862Y-25886D02*
X-82264D01*
X108563Y55413D02*
Y80216D01*
X92815Y55413D02*
Y80216D01*
X122638Y24409D02*
Y49213D01*
X138386Y24409D02*
Y49213D01*
X137795Y8779D02*
Y14055D01*
X131102Y8779D02*
Y14055D01*
X-146260Y1890D02*
Y7165D01*
X-152953Y1890D02*
Y7165D01*
D11*
X37607Y62795D02*
G03*
X37607Y62795I-13780J0D01*
G01*
X3641Y-80479D02*
G03*
X3714Y-80481I-98J-7611D01*
G01*
X105512Y-32283D02*
Y-11831D01*
X91732D02*
X105512D01*
X91732Y-32283D02*
Y-11831D01*
Y-32283D02*
X105512D01*
X-130118Y-32480D02*
Y-12027D01*
X-143898D02*
X-130118D01*
X-143898Y-32480D02*
Y-12027D01*
Y-32480D02*
X-130118D01*
X138583Y-17231D02*
Y-5784D01*
X133858D02*
X138583D01*
X133858Y-17231D02*
Y-5784D01*
Y-17231D02*
X138583D01*
X-124836Y-44446D02*
X-119112Y-54359D01*
X-128927Y-46808D02*
X-124836Y-44446D01*
X-128927Y-46808D02*
X-123204Y-56721D01*
X-119112Y-54359D01*
X23376Y47539D02*
X24262D01*
X23819Y47096D02*
Y47982D01*
X33268Y135531D02*
Y139469D01*
X31299Y137500D02*
X35236D01*
X146457Y-60630D02*
X148031D01*
X145276Y-65433D02*
Y-61417D01*
X149213Y-65433D02*
Y-61417D01*
X8268Y55807D02*
Y66240D01*
X1772Y55807D02*
X8268D01*
X1575Y58024D02*
Y64024D01*
Y55807D02*
Y58024D01*
Y66240D02*
X8268D01*
X1575Y64024D02*
Y66240D01*
X689Y55905D02*
Y66339D01*
X-5807Y55905D02*
X689D01*
X-6004Y58122D02*
Y64122D01*
Y55905D02*
Y58122D01*
Y66339D02*
X689D01*
X-6004Y64122D02*
Y66339D01*
X-51378Y74606D02*
Y85039D01*
X-57874Y74606D02*
X-51378D01*
X-58071Y76823D02*
Y82823D01*
Y74606D02*
Y76823D01*
Y85039D02*
X-51378D01*
X-58071Y82823D02*
Y85039D01*
X-59153Y74705D02*
Y85138D01*
X-65650Y74705D02*
X-59153D01*
X-65847Y76921D02*
Y82921D01*
Y74705D02*
Y76921D01*
Y85138D02*
X-59153D01*
X-65847Y82921D02*
Y85138D01*
X36718Y-126636D02*
X41935Y-135671D01*
X36718Y-126636D02*
X42344Y-123388D01*
X43622Y-125209D02*
X46622Y-130405D01*
X42514Y-123289D02*
X43622Y-125209D01*
X41935Y-135671D02*
X47731Y-132324D01*
X46622Y-130405D02*
X47731Y-132324D01*
X29927Y-130719D02*
X35143Y-139754D01*
X29927Y-130719D02*
X35552Y-127471D01*
X36831Y-129292D02*
X39831Y-134488D01*
X35723Y-127372D02*
X36831Y-129292D01*
X35143Y-139754D02*
X40939Y-136407D01*
X39831Y-134488D02*
X40939Y-136407D01*
X43805Y-122451D02*
X49021Y-131486D01*
X43805Y-122451D02*
X49430Y-119203D01*
X50709Y-121024D02*
X53709Y-126220D01*
X49601Y-119104D02*
X50709Y-121024D01*
X49021Y-131486D02*
X54817Y-128140D01*
X53709Y-126220D02*
X54817Y-128140D01*
X51088Y-118612D02*
X56305Y-127648D01*
X51088Y-118612D02*
X56714Y-115364D01*
X57993Y-117185D02*
X60993Y-122381D01*
X56884Y-115266D02*
X57993Y-117185D01*
X56305Y-127648D02*
X62101Y-124301D01*
X60993Y-122381D02*
X62101Y-124301D01*
X100787Y40748D02*
Y51181D01*
X107283D01*
X107480Y42965D02*
Y48965D01*
Y51181D01*
X100787Y40748D02*
X107480D01*
Y42965D01*
X92913Y40748D02*
Y51181D01*
X99410D01*
X99606Y42965D02*
Y48965D01*
Y51181D01*
X92913Y40748D02*
X99606D01*
Y42965D01*
X121653Y-59449D02*
Y-49016D01*
X128150D01*
X128347Y-57232D02*
Y-51232D01*
Y-49016D01*
X121653Y-59449D02*
X128347D01*
Y-57232D01*
X129429Y-59449D02*
Y-49016D01*
X135925D01*
X136122Y-57232D02*
Y-51232D01*
Y-49016D01*
X129429Y-59449D02*
X136122D01*
Y-57232D01*
X137106Y-59449D02*
Y-49016D01*
X143602D01*
X143799Y-57232D02*
Y-51232D01*
Y-49016D01*
X137106Y-59449D02*
X143799D01*
Y-57232D01*
X-122933Y8071D02*
Y18504D01*
X-129429Y8071D02*
X-122933D01*
X-129626Y10287D02*
Y16287D01*
Y8071D02*
Y10287D01*
Y18504D02*
X-122933D01*
X-129626Y16287D02*
Y18504D01*
X-114961Y8071D02*
Y18504D01*
X-121457Y8071D02*
X-114961D01*
X-121653Y10287D02*
Y16287D01*
Y8071D02*
Y10287D01*
Y18504D02*
X-114961D01*
X-121653Y16287D02*
Y18504D01*
X-69980Y-21654D02*
Y-11220D01*
X-76476Y-21654D02*
X-69980D01*
X-76673Y-19437D02*
Y-13437D01*
Y-21654D02*
Y-19437D01*
Y-11220D02*
X-69980D01*
X-76673Y-13437D02*
Y-11220D01*
X-62205Y-21752D02*
Y-11319D01*
X-68701Y-21752D02*
X-62205D01*
X-68898Y-19535D02*
Y-13535D01*
Y-21752D02*
Y-19535D01*
Y-11319D02*
X-62205D01*
X-68898Y-13535D02*
Y-11319D01*
X144291Y-39272D02*
X156102D01*
Y-32972D01*
X144291D02*
X156102D01*
X144291Y-39272D02*
Y-32972D01*
X98032Y115551D02*
Y127362D01*
X91732D02*
X98032D01*
X91732Y115551D02*
Y127362D01*
Y115551D02*
X98032D01*
X90551Y107874D02*
Y119685D01*
X84252D02*
X90551D01*
X84252Y107874D02*
Y119685D01*
Y107874D02*
X90551D01*
X-140643Y-9744D02*
Y-5020D01*
X-152090Y-9744D02*
X-140643D01*
X-152090D02*
Y-5020D01*
X-140643D01*
X144685Y-60144D02*
X149409D01*
X144685D02*
Y-48698D01*
X149409D01*
Y-60144D02*
Y-48698D01*
X120774Y-53642D02*
Y-48917D01*
X109327Y-53642D02*
X120774D01*
X109327D02*
Y-48917D01*
X120774D01*
X104134Y-35328D02*
X108858D01*
Y-46775D02*
Y-35328D01*
X104134Y-46775D02*
X108858D01*
X104134D02*
Y-35328D01*
X-104134Y-35735D02*
X-99410D01*
X-104134D02*
Y-24288D01*
X-99410D01*
Y-35735D02*
Y-24288D01*
X-116726Y-39173D02*
Y-34449D01*
X-128173Y-39173D02*
X-116726D01*
X-128173D02*
Y-34449D01*
X-116726D01*
X-109547Y-42231D02*
X-104823D01*
X-109547D02*
Y-30784D01*
X-104823D01*
Y-42231D02*
Y-30784D01*
X-63675Y-28839D02*
Y-24114D01*
X-75121Y-28839D02*
X-63675D01*
X-75121D02*
Y-24114D01*
X-63675D01*
Y-34449D02*
Y-29724D01*
X-75121Y-34449D02*
X-63675D01*
X-75121D02*
Y-29724D01*
X-63675D01*
X-91339Y-38773D02*
X-86614D01*
Y-50220D02*
Y-38773D01*
X-91339Y-50220D02*
X-86614D01*
X-91339D02*
Y-38773D01*
X-104239Y-55512D02*
Y-50787D01*
X-92792D01*
Y-55512D02*
Y-50787D01*
X-104239Y-55512D02*
X-92792D01*
X3150Y36220D02*
Y37402D01*
Y36220D02*
X25197D01*
Y37402D01*
Y45276D02*
Y46457D01*
X3150D02*
X25197D01*
X3150Y45276D02*
Y46457D01*
X58268Y103347D02*
Y104528D01*
Y103347D02*
X80315D01*
Y104528D01*
Y112402D02*
Y113583D01*
X58268D02*
X80315D01*
X58268Y112402D02*
Y113583D01*
X65552Y-123784D02*
X66142Y-124806D01*
X85236Y-113783D01*
X84645Y-112760D02*
X85236Y-113783D01*
X80118Y-104918D02*
X80708Y-105941D01*
X61024Y-115942D02*
X80118Y-104918D01*
X61024Y-115942D02*
X61615Y-116964D01*
X18898Y124803D02*
Y128740D01*
X16929Y126772D02*
X20866D01*
X16929D02*
X20866D01*
X-50394Y79035D02*
X-48425D01*
X-50394Y77067D02*
Y79035D01*
Y53051D02*
X-48425D01*
X-50394D02*
Y55020D01*
X-20866Y64075D02*
X-16142D01*
Y68012D01*
X-20866D02*
X-16142D01*
X-32677Y52658D02*
X-20866D01*
Y79429D01*
X-32677D02*
X-20866D01*
X141831Y-38780D02*
Y-37106D01*
X125098Y-47146D02*
Y-43504D01*
X125000Y-32972D02*
Y-29134D01*
X122244Y-13780D02*
Y-12205D01*
X121457Y-5118D02*
X123031D01*
X122244Y-5906D02*
Y-4331D01*
Y-5906D02*
Y-4331D01*
X-115256Y-8268D02*
Y-6693D01*
Y-8268D02*
Y-6693D01*
X-116043Y-7480D02*
X-114469D01*
X-115256Y-16142D02*
Y-14567D01*
D12*
X76968Y137500D02*
G03*
X76968Y137500I-20079J0D01*
G01*
X28445Y122835D02*
G03*
X28445Y122835I-394J0D01*
G01*
X112303Y5906D02*
X113484Y7382D01*
X112205Y8760D02*
X113484Y7382D01*
X107579D02*
X113484D01*
X98622Y16142D02*
X107579Y7382D01*
X-105905Y4331D02*
X-104232Y2657D01*
X-105905Y4331D02*
X-104035Y6201D01*
X-105905Y4331D02*
X-99606D01*
X-90650Y12205D01*
X40203Y46815D02*
X50394D01*
X40203Y98215D02*
X52165D01*
X40203Y46815D02*
Y98215D01*
X80315Y98141D02*
X91448D01*
X79823Y46741D02*
X91448D01*
Y98141D01*
X-27559Y136776D02*
X-23952Y133594D01*
X-27559Y136776D02*
Y156021D01*
X34252Y130512D02*
Y162992D01*
X-20470Y130512D02*
X34252D01*
X-23952Y133594D02*
X-20470Y130512D01*
X-20588Y162992D02*
X34252D01*
X-27559Y156021D02*
X-20588Y162992D01*
X-72145Y18995D02*
X-71554Y19586D01*
X-70374D01*
X-69784Y18995D01*
Y16634D01*
X-70374Y16043D01*
X-71554D01*
X-72145Y16634D01*
X-73326Y16043D02*
Y18405D01*
X-74506Y19586D01*
X-75687Y18405D01*
Y16043D01*
Y17814D01*
X-73326D01*
X-76868Y16043D02*
Y19586D01*
X-78048Y18405D01*
X-79229Y19586D01*
Y16043D01*
X-82771Y19586D02*
X-80410D01*
Y16043D01*
X-82771D01*
X-80410Y17814D02*
X-81591D01*
X-83952Y16043D02*
Y19586D01*
X-85723D01*
X-86313Y18995D01*
Y17814D01*
X-85723Y17224D01*
X-83952D01*
X-85133D02*
X-86313Y16043D01*
X-87494D02*
Y18405D01*
X-88675Y19586D01*
X-89856Y18405D01*
Y16043D01*
Y17814D01*
X-87494D01*
X95079Y20865D02*
X95670Y21455D01*
X96851D01*
X97441Y20865D01*
Y18504D01*
X96851Y17913D01*
X95670D01*
X95079Y18504D01*
X93899Y17913D02*
Y20275D01*
X92718Y21455D01*
X91537Y20275D01*
Y17913D01*
Y19684D01*
X93899D01*
X90357Y17913D02*
Y21455D01*
X88586D01*
X87995Y20865D01*
Y19684D01*
X88586Y19094D01*
X90357D01*
X84453Y20865D02*
X85043Y21455D01*
X86224D01*
X86814Y20865D01*
Y20275D01*
X86224Y19684D01*
X85043D01*
X84453Y19094D01*
Y18504D01*
X85043Y17913D01*
X86224D01*
X86814Y18504D01*
X83272Y21455D02*
Y18504D01*
X82682Y17913D01*
X81501D01*
X80911Y18504D01*
Y21455D01*
X79730D02*
Y17913D01*
X77369D01*
X73826Y21455D02*
X76188D01*
Y17913D01*
X73826D01*
X76188Y19684D02*
X75007D01*
D15*
X88090Y-34252D02*
G03*
X88090Y-34252I-394J0D01*
G01*
X-147539Y-34449D02*
G03*
X-147539Y-34449I-394J0D01*
G01*
D18*
X108169Y44291D02*
Y46132D01*
X121537Y44189D02*
Y46029D01*
X-130905Y12923D02*
Y14764D01*
X-144273Y13026D02*
Y14866D01*
X-77165Y-16801D02*
Y-14961D01*
X-90533Y-16699D02*
Y-14858D01*
D20*
X114862Y-34744D02*
X118701D01*
Y-37697D02*
Y-34744D01*
X114764Y-46555D02*
X118602D01*
Y-43602D01*
X-104331Y-44882D02*
Y-41043D01*
X-101378D01*
X-92520Y-44980D02*
Y-41142D01*
X-95472D02*
X-92520D01*
X106427Y-70887D02*
X105377D01*
X105902D01*
Y-67738D01*
X106427Y-68263D01*
X103803Y-70887D02*
Y-70362D01*
X103278D01*
Y-70887D01*
X103803D01*
X99080Y-67738D02*
X101179D01*
Y-69313D01*
X100129Y-68788D01*
X99605D01*
X99080Y-69313D01*
Y-70362D01*
X99605Y-70887D01*
X100654D01*
X101179Y-70362D01*
X98031Y-70887D02*
Y-68788D01*
X96981Y-67738D01*
X95931Y-68788D01*
Y-70887D01*
Y-69313D01*
X98031D01*
X91733Y-70887D02*
Y-67738D01*
X90684Y-68788D01*
X89634Y-67738D01*
Y-70887D01*
X88585D02*
Y-68788D01*
X87535Y-67738D01*
X86486Y-68788D01*
Y-70887D01*
Y-69313D01*
X88585D01*
X85436Y-67738D02*
X83337Y-70887D01*
Y-67738D02*
X85436Y-70887D01*
X108001Y-72934D02*
X110100D01*
Y-74508D01*
X109051D01*
X110100D01*
Y-76083D01*
X105377Y-72934D02*
X106427D01*
X106951Y-73459D01*
Y-75558D01*
X106427Y-76083D01*
X105377D01*
X104852Y-75558D01*
Y-73459D01*
X105377Y-72934D01*
X103803Y-76083D02*
Y-72934D01*
X102229D01*
X101704Y-73459D01*
Y-74508D01*
X102229Y-75033D01*
X103803D01*
X102753D02*
X101704Y-76083D01*
X95407Y-73459D02*
X95931Y-72934D01*
X96981D01*
X97506Y-73459D01*
Y-73984D01*
X96981Y-74508D01*
X95931D01*
X95407Y-75033D01*
Y-75558D01*
X95931Y-76083D01*
X96981D01*
X97506Y-75558D01*
X94357Y-76083D02*
Y-73984D01*
X93308Y-72934D01*
X92258Y-73984D01*
Y-76083D01*
Y-74508D01*
X94357D01*
X89109Y-72934D02*
X91208D01*
Y-74508D01*
X90159D01*
X91208D01*
Y-76083D01*
X85961Y-72934D02*
X88060D01*
Y-76083D01*
X85961D01*
X88060Y-74508D02*
X87010D01*
X84911Y-72934D02*
X82812D01*
X83862D01*
Y-76083D01*
X81763Y-72934D02*
Y-73459D01*
X80713Y-74508D01*
X79664Y-73459D01*
Y-72934D01*
X80713Y-74508D02*
Y-76083D01*
X156396Y-45965D02*
X155346D01*
X155871D01*
Y-42816D01*
X156396Y-43341D01*
X153772D02*
X153247Y-42816D01*
X152198D01*
X151673Y-43341D01*
Y-45440D01*
X152198Y-45965D01*
X153247D01*
X153772Y-45440D01*
Y-43341D01*
X150623Y-42816D02*
Y-45965D01*
Y-44915D01*
X148524Y-42816D01*
X150099Y-44390D01*
X148524Y-45965D01*
X147475D02*
Y-42816D01*
X145900D01*
X145376Y-43341D01*
Y-44390D01*
X145900Y-44915D01*
X147475D01*
X146425D02*
X145376Y-45965D01*
X19614Y-53422D02*
X20139Y-52897D01*
X21188D01*
X21713Y-53422D01*
Y-53947D01*
X21188Y-54471D01*
X20139D01*
X19614Y-54996D01*
Y-55521D01*
X20139Y-56046D01*
X21188D01*
X21713Y-55521D01*
X18040Y-53947D02*
X16990D01*
X16465Y-54471D01*
Y-56046D01*
X18040D01*
X18564Y-55521D01*
X18040Y-54996D01*
X16465D01*
X14891Y-53422D02*
Y-53947D01*
X15416D01*
X14366D01*
X14891D01*
Y-55521D01*
X14366Y-56046D01*
X12267Y-53422D02*
Y-53947D01*
X12792D01*
X11742D01*
X12267D01*
Y-55521D01*
X11742Y-56046D01*
X10168Y-52897D02*
Y-56046D01*
X9119Y-54996D01*
X8069Y-56046D01*
Y-52897D01*
X6495Y-53947D02*
X5445D01*
X4921Y-54471D01*
Y-56046D01*
X6495D01*
X7020Y-55521D01*
X6495Y-54996D01*
X4921D01*
X3871Y-53947D02*
Y-56046D01*
Y-54996D01*
X3346Y-54471D01*
X2821Y-53947D01*
X2297D01*
X-852Y-56046D02*
X198D01*
X722Y-55521D01*
Y-54471D01*
X198Y-53947D01*
X-852D01*
X-1377Y-54471D01*
Y-54996D01*
X722D01*
X-5575Y-53947D02*
X-6624Y-56046D01*
X-7674Y-53947D01*
X-10823Y-52897D02*
X-9773Y-53422D01*
X-8723Y-54471D01*
Y-55521D01*
X-9248Y-56046D01*
X-10298D01*
X-10823Y-55521D01*
Y-54996D01*
X-10298Y-54471D01*
X-8723D01*
X-11872Y-56046D02*
Y-55521D01*
X-12397D01*
Y-56046D01*
X-11872D01*
X-16595D02*
X-14496D01*
X-16595Y-53947D01*
Y-53422D01*
X-16070Y-52897D01*
X-15021D01*
X-14496Y-53422D01*
X15153Y-58618D02*
X14629Y-58093D01*
X13579D01*
X13054Y-58618D01*
Y-59142D01*
X13579Y-59667D01*
X14104D01*
X13579D01*
X13054Y-60192D01*
Y-60717D01*
X13579Y-61241D01*
X14629D01*
X15153Y-60717D01*
X12005Y-58618D02*
X11480Y-58093D01*
X10430D01*
X9906Y-58618D01*
Y-60717D01*
X10430Y-61241D01*
X11480D01*
X12005Y-60717D01*
Y-58618D01*
X8856Y-61241D02*
Y-60717D01*
X8331D01*
Y-61241D01*
X8856D01*
X6232Y-58093D02*
X4133D01*
Y-58618D01*
X6232Y-60717D01*
Y-61241D01*
X3084D02*
Y-60717D01*
X2559D01*
Y-61241D01*
X3084D01*
X-1639D02*
X460D01*
X-1639Y-59142D01*
Y-58618D01*
X-1114Y-58093D01*
X-65D01*
X460Y-58618D01*
X-2689D02*
X-3213Y-58093D01*
X-4263D01*
X-4788Y-58618D01*
Y-60717D01*
X-4263Y-61241D01*
X-3213D01*
X-2689Y-60717D01*
Y-58618D01*
X-7936Y-61241D02*
X-5837D01*
X-7936Y-59142D01*
Y-58618D01*
X-7412Y-58093D01*
X-6362D01*
X-5837Y-58618D01*
X-8986Y-61241D02*
X-10035D01*
X-9511D01*
Y-58093D01*
X-8986Y-58618D01*
X17253Y-63288D02*
X19352D01*
Y-66437D01*
X17253D01*
X19352Y-64863D02*
X18302D01*
X16203Y-66437D02*
Y-64338D01*
X14629D01*
X14104Y-64863D01*
Y-66437D01*
X11480D02*
X12530D01*
X13054Y-65912D01*
Y-64863D01*
X12530Y-64338D01*
X11480D01*
X10955Y-64863D01*
Y-65387D01*
X13054D01*
X9906Y-66437D02*
X8331D01*
X7807Y-65912D01*
X8331Y-65387D01*
X9381D01*
X9906Y-64863D01*
X9381Y-64338D01*
X7807D01*
X3609Y-66437D02*
Y-63288D01*
X2559Y-64338D01*
X1510Y-63288D01*
Y-66437D01*
X-1114D02*
X-65D01*
X460Y-65912D01*
Y-64863D01*
X-65Y-64338D01*
X-1114D01*
X-1639Y-64863D01*
Y-65387D01*
X460D01*
X-2689Y-64338D02*
Y-66437D01*
Y-65387D01*
X-3213Y-64863D01*
X-3738Y-64338D01*
X-4263D01*
X-7936D02*
X-6362D01*
X-5837Y-64863D01*
Y-65912D01*
X-6362Y-66437D01*
X-7936D01*
X-9510Y-64338D02*
X-10560D01*
X-11085Y-64863D01*
Y-66437D01*
X-9510D01*
X-8986Y-65912D01*
X-9510Y-65387D01*
X-11085D01*
X-12134Y-66437D02*
Y-64338D01*
X-13709D01*
X-14233Y-64863D01*
Y-66437D01*
X72703Y-103741D02*
Y-106889D01*
X71128D01*
X70604Y-106365D01*
Y-104265D01*
X71128Y-103741D01*
X72703D01*
X69554Y-106365D02*
X69029Y-106889D01*
X67980D01*
X67455Y-106365D01*
Y-104265D01*
X67980Y-103741D01*
X69029D01*
X69554Y-104265D01*
Y-104790D01*
X69029Y-105315D01*
X67455D01*
X-127724Y-6890D02*
X-125625D01*
Y-8465D01*
X-126675D01*
X-125625D01*
Y-10039D01*
X-130873Y-6890D02*
X-128774D01*
Y-10039D01*
X-130873D01*
X-128774Y-8465D02*
X-129823D01*
X-131922Y-6890D02*
X-134021D01*
X-132972D01*
Y-10039D01*
X-137170D02*
X-135071D01*
X-137170Y-7940D01*
Y-7415D01*
X-136645Y-6890D01*
X-135596D01*
X-135071Y-7415D01*
X132188Y-20582D02*
Y-23730D01*
X133762D01*
X134287Y-23205D01*
Y-22156D01*
X133762Y-21631D01*
X132188D01*
X133238D02*
X134287Y-20582D01*
X135337Y-23205D02*
X135862Y-23730D01*
X136911D01*
X137436Y-23205D01*
Y-22681D01*
X136911Y-22156D01*
X136386D01*
X136911D01*
X137436Y-21631D01*
Y-21106D01*
X136911Y-20582D01*
X135862D01*
X135337Y-21106D01*
X140584Y-23730D02*
X139535Y-23205D01*
X138485Y-22156D01*
Y-21106D01*
X139010Y-20582D01*
X140060D01*
X140584Y-21106D01*
Y-21631D01*
X140060Y-22156D01*
X138485D01*
X-130512Y-46491D02*
X-133661D01*
Y-48065D01*
X-133136Y-48590D01*
X-132087D01*
X-131562Y-48065D01*
Y-46491D01*
Y-47540D02*
X-130512Y-48590D01*
X-133136Y-49639D02*
X-133661Y-50164D01*
Y-51214D01*
X-133136Y-51739D01*
X-132611D01*
X-132087Y-51214D01*
Y-50689D01*
Y-51214D01*
X-131562Y-51739D01*
X-131037D01*
X-130512Y-51214D01*
Y-50164D01*
X-131037Y-49639D01*
X-133661Y-54887D02*
Y-52788D01*
X-132087D01*
X-132611Y-53838D01*
Y-54362D01*
X-132087Y-54887D01*
X-131037D01*
X-130512Y-54362D01*
Y-53313D01*
X-131037Y-52788D01*
X-76018Y-38879D02*
Y-41502D01*
X-76543Y-42027D01*
X-77592D01*
X-78117Y-41502D01*
Y-38879D01*
X-81266D02*
X-80216Y-39403D01*
X-79167Y-40453D01*
Y-41502D01*
X-79691Y-42027D01*
X-80741D01*
X-81266Y-41502D01*
Y-40977D01*
X-80741Y-40453D01*
X-79167D01*
X-32909Y46556D02*
Y49704D01*
X-34483D01*
X-35008Y49180D01*
Y48130D01*
X-34483Y47605D01*
X-32909D01*
X-33958D02*
X-35008Y46556D01*
X-38156Y49704D02*
X-36057D01*
Y46556D01*
X-38156D01*
X-36057Y48130D02*
X-37107D01*
X-41305Y49180D02*
X-40780Y49704D01*
X-39731D01*
X-39206Y49180D01*
Y47080D01*
X-39731Y46556D01*
X-40780D01*
X-41305Y47080D01*
Y48130D01*
X-40255D01*
X-44453Y46556D02*
X-42355D01*
X-44453Y48655D01*
Y49180D01*
X-43929Y49704D01*
X-42879D01*
X-42355Y49180D01*
X38386Y104300D02*
X41535D01*
Y105874D01*
X41010Y106399D01*
X39961D01*
X39436Y105874D01*
Y104300D01*
Y105349D02*
X38386Y106399D01*
X41535Y109547D02*
Y107448D01*
X38386D01*
Y109547D01*
X39961Y107448D02*
Y108498D01*
X41010Y112696D02*
X41535Y112171D01*
Y111121D01*
X41010Y110597D01*
X38911D01*
X38386Y111121D01*
Y112171D01*
X38911Y112696D01*
X39961D01*
Y111646D01*
X38386Y113745D02*
Y114795D01*
Y114270D01*
X41535D01*
X41010Y113745D01*
X88352Y122540D02*
Y125689D01*
X86777D01*
X86253Y125164D01*
Y124114D01*
X86777Y123589D01*
X88352D01*
X87302D02*
X86253Y122540D01*
X83104Y125689D02*
X85203D01*
Y124114D01*
X84153Y124639D01*
X83629D01*
X83104Y124114D01*
Y123065D01*
X83629Y122540D01*
X84678D01*
X85203Y123065D01*
X80480Y122540D02*
Y125689D01*
X82055Y124114D01*
X79955D01*
X98293Y129823D02*
Y132972D01*
X96718D01*
X96194Y132447D01*
Y131398D01*
X96718Y130873D01*
X98293D01*
X97243D02*
X96194Y129823D01*
X93045Y132972D02*
X95144D01*
Y131398D01*
X94095Y131922D01*
X93570D01*
X93045Y131398D01*
Y130348D01*
X93570Y129823D01*
X94619D01*
X95144Y130348D01*
X91995Y132447D02*
X91471Y132972D01*
X90421D01*
X89896Y132447D01*
Y130348D01*
X90421Y129823D01*
X91471D01*
X91995Y130348D01*
Y132447D01*
X-94621Y-60826D02*
Y-57678D01*
X-96195D01*
X-96720Y-58202D01*
Y-59252D01*
X-96195Y-59777D01*
X-94621D01*
X-95670D02*
X-96720Y-60826D01*
X-99344D02*
Y-57678D01*
X-97769Y-59252D01*
X-99868D01*
X-100918Y-60302D02*
X-101443Y-60826D01*
X-102492D01*
X-103017Y-60302D01*
Y-58202D01*
X-102492Y-57678D01*
X-101443D01*
X-100918Y-58202D01*
Y-58727D01*
X-101443Y-59252D01*
X-103017D01*
X-79759Y-55807D02*
Y-52658D01*
X-81333D01*
X-81858Y-53183D01*
Y-54232D01*
X-81333Y-54757D01*
X-79759D01*
X-80808D02*
X-81858Y-55807D01*
X-84482D02*
Y-52658D01*
X-82907Y-54232D01*
X-85006D01*
X-86056Y-53183D02*
X-86580Y-52658D01*
X-87630D01*
X-88155Y-53183D01*
Y-53707D01*
X-87630Y-54232D01*
X-88155Y-54757D01*
Y-55282D01*
X-87630Y-55807D01*
X-86580D01*
X-86056Y-55282D01*
Y-54757D01*
X-86580Y-54232D01*
X-86056Y-53707D01*
Y-53183D01*
X-86580Y-54232D02*
X-87630D01*
X-52987Y-34448D02*
Y-31300D01*
X-54561D01*
X-55086Y-31824D01*
Y-32874D01*
X-54561Y-33399D01*
X-52987D01*
X-54036D02*
X-55086Y-34448D01*
X-57710D02*
Y-31300D01*
X-56135Y-32874D01*
X-58235D01*
X-59284Y-31300D02*
X-61383D01*
Y-31824D01*
X-59284Y-33924D01*
Y-34448D01*
X-52889Y-27755D02*
Y-24607D01*
X-54463D01*
X-54988Y-25132D01*
Y-26181D01*
X-54463Y-26706D01*
X-52889D01*
X-53938D02*
X-54988Y-27755D01*
X-57611D02*
Y-24607D01*
X-56037Y-26181D01*
X-58136D01*
X-61285Y-24607D02*
X-60235Y-25132D01*
X-59186Y-26181D01*
Y-27231D01*
X-59710Y-27755D01*
X-60760D01*
X-61285Y-27231D01*
Y-26706D01*
X-60760Y-26181D01*
X-59186D01*
X-114665Y-46226D02*
X-111516D01*
Y-44651D01*
X-112041Y-44127D01*
X-113091D01*
X-113615Y-44651D01*
Y-46226D01*
Y-45176D02*
X-114665Y-44127D01*
Y-41503D02*
X-111516D01*
X-113091Y-43077D01*
Y-40978D01*
X-111516Y-37830D02*
Y-39928D01*
X-113091D01*
X-112566Y-38879D01*
Y-38354D01*
X-113091Y-37830D01*
X-114140D01*
X-114665Y-38354D01*
Y-39404D01*
X-114140Y-39928D01*
X-124936Y-44192D02*
Y-41044D01*
X-126510D01*
X-127035Y-41569D01*
Y-42618D01*
X-126510Y-43143D01*
X-124936D01*
X-125985D02*
X-127035Y-44192D01*
X-129659D02*
Y-41044D01*
X-128084Y-42618D01*
X-130183D01*
X-132807Y-44192D02*
Y-41044D01*
X-131233Y-42618D01*
X-133332D01*
X-97244Y-34611D02*
X-94095D01*
Y-33037D01*
X-94620Y-32513D01*
X-95669D01*
X-96194Y-33037D01*
Y-34611D01*
Y-33562D02*
X-97244Y-32513D01*
Y-29889D02*
X-94095D01*
X-95669Y-31463D01*
Y-29364D01*
X-94620Y-28314D02*
X-94095Y-27790D01*
Y-26740D01*
X-94620Y-26215D01*
X-95144D01*
X-95669Y-26740D01*
Y-27265D01*
Y-26740D01*
X-96194Y-26215D01*
X-96719D01*
X-97244Y-26740D01*
Y-27790D01*
X-96719Y-28314D01*
X88485Y-45635D02*
X91633D01*
Y-44061D01*
X91109Y-43536D01*
X90059D01*
X89534Y-44061D01*
Y-45635D01*
Y-44586D02*
X88485Y-43536D01*
Y-40912D02*
X91633D01*
X90059Y-42487D01*
Y-40387D01*
X88485Y-37239D02*
Y-39338D01*
X90584Y-37239D01*
X91109D01*
X91633Y-37764D01*
Y-38813D01*
X91109Y-39338D01*
X118962Y-59153D02*
Y-56004D01*
X117388D01*
X116863Y-56529D01*
Y-57579D01*
X117388Y-58104D01*
X118962D01*
X117912D02*
X116863Y-59153D01*
X114239D02*
Y-56004D01*
X115813Y-57579D01*
X113714D01*
X112665Y-56529D02*
X112140Y-56004D01*
X111090D01*
X110566Y-56529D01*
Y-58628D01*
X111090Y-59153D01*
X112140D01*
X112665Y-58628D01*
Y-56529D01*
X151379Y-58037D02*
X154527D01*
Y-56462D01*
X154002Y-55938D01*
X152953D01*
X152428Y-56462D01*
Y-58037D01*
Y-56987D02*
X151379Y-55938D01*
X154002Y-54888D02*
X154527Y-54363D01*
Y-53314D01*
X154002Y-52789D01*
X153478D01*
X152953Y-53314D01*
Y-53839D01*
Y-53314D01*
X152428Y-52789D01*
X151903D01*
X151379Y-53314D01*
Y-54363D01*
X151903Y-54888D01*
Y-51740D02*
X151379Y-51215D01*
Y-50165D01*
X151903Y-49641D01*
X154002D01*
X154527Y-50165D01*
Y-51215D01*
X154002Y-51740D01*
X153478D01*
X152953Y-51215D01*
Y-49641D01*
X98032Y-45734D02*
X101181D01*
Y-44159D01*
X100656Y-43635D01*
X99606D01*
X99082Y-44159D01*
Y-45734D01*
Y-44684D02*
X98032Y-43635D01*
X100656Y-42585D02*
X101181Y-42060D01*
Y-41011D01*
X100656Y-40486D01*
X100131D01*
X99606Y-41011D01*
Y-41535D01*
Y-41011D01*
X99082Y-40486D01*
X98557D01*
X98032Y-41011D01*
Y-42060D01*
X98557Y-42585D01*
X101181Y-39436D02*
Y-37337D01*
X100656D01*
X98557Y-39436D01*
X98032D01*
X158367Y-40025D02*
X161515D01*
Y-38451D01*
X160991Y-37926D01*
X159941D01*
X159416Y-38451D01*
Y-40025D01*
Y-38975D02*
X158367Y-37926D01*
X160991Y-36876D02*
X161515Y-36351D01*
Y-35302D01*
X160991Y-34777D01*
X160466D01*
X159941Y-35302D01*
Y-35827D01*
Y-35302D01*
X159416Y-34777D01*
X158891D01*
X158367Y-35302D01*
Y-36351D01*
X158891Y-36876D01*
X158367Y-32153D02*
X161515D01*
X159941Y-33728D01*
Y-31629D01*
X-157480Y-11482D02*
X-154331D01*
Y-9907D01*
X-154856Y-9382D01*
X-155905D01*
X-156430Y-9907D01*
Y-11482D01*
Y-10432D02*
X-157480Y-9382D01*
X-154856Y-8333D02*
X-154331Y-7808D01*
Y-6759D01*
X-154856Y-6234D01*
X-155381D01*
X-155905Y-6759D01*
Y-7283D01*
Y-6759D01*
X-156430Y-6234D01*
X-156955D01*
X-157480Y-6759D01*
Y-7808D01*
X-156955Y-8333D01*
X-154856Y-5184D02*
X-154331Y-4660D01*
Y-3610D01*
X-154856Y-3085D01*
X-155381D01*
X-155905Y-3610D01*
Y-4135D01*
Y-3610D01*
X-156430Y-3085D01*
X-156955D01*
X-157480Y-3610D01*
Y-4660D01*
X-156955Y-5184D01*
X134415Y54233D02*
Y57381D01*
X132840D01*
X132316Y56857D01*
Y55807D01*
X132840Y55282D01*
X134415D01*
X133365D02*
X132316Y54233D01*
X131266Y56857D02*
X130741Y57381D01*
X129692D01*
X129167Y56857D01*
Y56332D01*
X129692Y55807D01*
X130217D01*
X129692D01*
X129167Y55282D01*
Y54758D01*
X129692Y54233D01*
X130741D01*
X131266Y54758D01*
X126018Y54233D02*
X128118D01*
X126018Y56332D01*
Y56857D01*
X126543Y57381D01*
X127593D01*
X128118Y56857D01*
X104422Y86020D02*
Y89168D01*
X102847D01*
X102323Y88644D01*
Y87594D01*
X102847Y87069D01*
X104422D01*
X103372D02*
X102323Y86020D01*
X101273Y88644D02*
X100748Y89168D01*
X99699D01*
X99174Y88644D01*
Y88119D01*
X99699Y87594D01*
X100224D01*
X99699D01*
X99174Y87069D01*
Y86545D01*
X99699Y86020D01*
X100748D01*
X101273Y86545D01*
X98124Y86020D02*
X97075D01*
X97600D01*
Y89168D01*
X98124Y88644D01*
X-108530Y-51050D02*
Y-48950D01*
X-108006Y-48426D01*
X-106956D01*
X-106431Y-48950D01*
Y-51050D01*
X-106956Y-51574D01*
X-108006D01*
X-107481Y-50525D02*
X-108530Y-51574D01*
X-108006D02*
X-108530Y-51050D01*
X-111679Y-48426D02*
X-109580D01*
Y-50000D01*
X-110629Y-49475D01*
X-111154D01*
X-111679Y-50000D01*
Y-51050D01*
X-111154Y-51574D01*
X-110105D01*
X-109580Y-51050D01*
X94029Y-43733D02*
X96128D01*
X96653Y-44258D01*
Y-45308D01*
X96128Y-45832D01*
X94029D01*
X93505Y-45308D01*
Y-44258D01*
X94554Y-44783D02*
X93505Y-43733D01*
Y-44258D02*
X94029Y-43733D01*
X93505Y-41110D02*
X96653D01*
X95079Y-42684D01*
Y-40585D01*
X-106003Y-17879D02*
X-102855D01*
Y-16304D01*
X-103380Y-15780D01*
X-104429D01*
X-104954Y-16304D01*
Y-17879D01*
X-106003Y-14730D02*
X-103904D01*
X-102855Y-13681D01*
X-103904Y-12631D01*
X-106003D01*
X-104429D01*
Y-14730D01*
X-102855Y-11581D02*
X-106003D01*
Y-10007D01*
X-105479Y-9482D01*
X-103380D01*
X-102855Y-10007D01*
Y-11581D01*
X-106003Y-6334D02*
Y-8433D01*
X-103904Y-6334D01*
X-103380D01*
X-102855Y-6859D01*
Y-7908D01*
X-103380Y-8433D01*
X126606Y11221D02*
Y14370D01*
X125032D01*
X124507Y13845D01*
Y12795D01*
X125032Y12270D01*
X126606D01*
X123457Y11221D02*
Y13320D01*
X122408Y14370D01*
X121358Y13320D01*
Y11221D01*
Y12795D01*
X123457D01*
X120309Y14370D02*
Y11221D01*
X118734D01*
X118210Y11746D01*
Y13845D01*
X118734Y14370D01*
X120309D01*
X117160Y11221D02*
X116111D01*
X116635D01*
Y14370D01*
X117160Y13845D01*
X68438Y42421D02*
Y39272D01*
X66339D01*
X65289D02*
X64240D01*
X64764D01*
Y42421D01*
X65289Y41896D01*
X-27822Y164566D02*
X-26772D01*
X-27297D01*
Y161943D01*
X-26772Y161418D01*
X-26247D01*
X-25723Y161943D01*
X-30446Y161418D02*
Y164566D01*
X-28871Y162992D01*
X-30970D01*
X5839Y-77658D02*
X7938D01*
Y-79232D01*
X6888D01*
X7938D01*
Y-80807D01*
X4789Y-77658D02*
X3740D01*
X4265D01*
Y-80807D01*
X4789D01*
X3740D01*
X2166Y-77658D02*
Y-80807D01*
X591D01*
X67Y-80282D01*
Y-78183D01*
X591Y-77658D01*
X2166D01*
X-983Y-80807D02*
X-2032D01*
X-1508D01*
Y-77658D01*
X-983Y-78183D01*
X-140847Y1837D02*
Y-262D01*
X-142421D01*
Y788D01*
Y-262D01*
X-143996D01*
Y4986D02*
Y2887D01*
X-141896Y4986D01*
X-141372D01*
X-140847Y4461D01*
Y3412D01*
X-141372Y2887D01*
X142815Y12402D02*
Y10302D01*
X141240D01*
Y11352D01*
Y10302D01*
X139666D01*
Y13451D02*
Y14501D01*
Y13976D01*
X142815D01*
X142290Y13451D01*
X151081Y-68209D02*
Y-71358D01*
X149507D01*
X148982Y-70833D01*
Y-68734D01*
X149507Y-68209D01*
X151081D01*
X147933Y-71358D02*
X146883D01*
X147408D01*
Y-68209D01*
X147933Y-68734D01*
X145309D02*
X144784Y-68209D01*
X143735D01*
X143210Y-68734D01*
Y-70833D01*
X143735Y-71358D01*
X144784D01*
X145309Y-70833D01*
Y-68734D01*
X78903Y118602D02*
Y115453D01*
X77329D01*
X76804Y115978D01*
Y118077D01*
X77329Y118602D01*
X78903D01*
X74181Y115453D02*
Y118602D01*
X75755Y117028D01*
X73656D01*
X18372Y34153D02*
Y31005D01*
X16798D01*
X16273Y31529D01*
Y33628D01*
X16798Y34153D01*
X18372D01*
X15223Y33628D02*
X14698Y34153D01*
X13649D01*
X13124Y33628D01*
Y33103D01*
X13649Y32579D01*
X14174D01*
X13649D01*
X13124Y32054D01*
Y31529D01*
X13649Y31005D01*
X14698D01*
X15223Y31529D01*
X-81432Y-4364D02*
X-80907Y-3839D01*
X-79857D01*
X-79333Y-4364D01*
Y-6463D01*
X-79857Y-6988D01*
X-80907D01*
X-81432Y-6463D01*
X-82481Y-6988D02*
Y-3839D01*
X-84580Y-6988D01*
Y-3839D01*
X-85630Y-6988D02*
X-86679D01*
X-86154D01*
Y-3839D01*
X-85630Y-4364D01*
X-90353Y-6988D02*
X-88253D01*
X-90353Y-4889D01*
Y-4364D01*
X-89828Y-3839D01*
X-88778D01*
X-88253Y-4364D01*
X-132941Y24770D02*
X-132416Y25295D01*
X-131366D01*
X-130842Y24770D01*
Y22671D01*
X-131366Y22146D01*
X-132416D01*
X-132941Y22671D01*
X-133990Y22146D02*
Y25295D01*
X-136089Y22146D01*
Y25295D01*
X-137139Y22146D02*
X-138188D01*
X-137663D01*
Y25295D01*
X-137139Y24770D01*
X-139762Y22146D02*
X-140812D01*
X-140287D01*
Y25295D01*
X-139762Y24770D01*
X116404Y28971D02*
X116929Y28446D01*
Y27397D01*
X116404Y26872D01*
X114305D01*
X113780Y27397D01*
Y28446D01*
X114305Y28971D01*
X113780Y30020D02*
X116929D01*
X113780Y32120D01*
X116929D01*
X113780Y33169D02*
Y34219D01*
Y33694D01*
X116929D01*
X116404Y33169D01*
Y35793D02*
X116929Y36318D01*
Y37367D01*
X116404Y37892D01*
X114305D01*
X113780Y37367D01*
Y36318D01*
X114305Y35793D01*
X116404D01*
X-64206Y-6134D02*
X-63682Y-6659D01*
Y-7709D01*
X-64206Y-8234D01*
X-66305D01*
X-66830Y-7709D01*
Y-6659D01*
X-66305Y-6134D01*
X-66830Y-3511D02*
X-63682D01*
X-65256Y-5085D01*
Y-2986D01*
X-64206Y-1936D02*
X-63682Y-1412D01*
Y-362D01*
X-64206Y163D01*
X-64731D01*
X-65256Y-362D01*
Y-887D01*
Y-362D01*
X-65781Y163D01*
X-66305D01*
X-66830Y-362D01*
Y-1412D01*
X-66305Y-1936D01*
X-72277Y-5938D02*
X-71753Y-6462D01*
Y-7512D01*
X-72277Y-8037D01*
X-74376D01*
X-74901Y-7512D01*
Y-6462D01*
X-74376Y-5938D01*
X-74901Y-3314D02*
X-71753D01*
X-73327Y-4888D01*
Y-2789D01*
X-74901Y359D02*
Y-1740D01*
X-72802Y359D01*
X-72277D01*
X-71753Y-165D01*
Y-1215D01*
X-72277Y-1740D01*
X-117454Y22835D02*
X-116930Y22310D01*
Y21261D01*
X-117454Y20736D01*
X-119553D01*
X-120078Y21261D01*
Y22310D01*
X-119553Y22835D01*
X-120078Y25459D02*
X-116930D01*
X-118504Y23885D01*
Y25984D01*
X-120078Y27033D02*
Y28083D01*
Y27558D01*
X-116930D01*
X-117454Y27033D01*
X-125328Y22704D02*
X-124804Y22179D01*
Y21130D01*
X-125328Y20605D01*
X-127427D01*
X-127952Y21130D01*
Y22179D01*
X-127427Y22704D01*
X-127952Y25328D02*
X-124804D01*
X-126378Y23754D01*
Y25853D01*
X-125328Y26902D02*
X-124804Y27427D01*
Y28477D01*
X-125328Y29001D01*
X-127427D01*
X-127952Y28477D01*
Y27427D01*
X-127427Y26902D01*
X-125328D01*
X141207Y-67552D02*
X141732Y-68077D01*
Y-69126D01*
X141207Y-69651D01*
X139108D01*
X138583Y-69126D01*
Y-68077D01*
X139108Y-67552D01*
X141207Y-66502D02*
X141732Y-65978D01*
Y-64928D01*
X141207Y-64403D01*
X140682D01*
X140157Y-64928D01*
Y-65453D01*
Y-64928D01*
X139633Y-64403D01*
X139108D01*
X138583Y-64928D01*
Y-65978D01*
X139108Y-66502D01*
Y-63354D02*
X138583Y-62829D01*
Y-61779D01*
X139108Y-61255D01*
X141207D01*
X141732Y-61779D01*
Y-62829D01*
X141207Y-63354D01*
X140682D01*
X140157Y-62829D01*
Y-61255D01*
X134416Y-68044D02*
X134940Y-68569D01*
Y-69618D01*
X134416Y-70143D01*
X132317D01*
X131792Y-69618D01*
Y-68569D01*
X132317Y-68044D01*
X134416Y-66994D02*
X134940Y-66470D01*
Y-65420D01*
X134416Y-64895D01*
X133891D01*
X133366Y-65420D01*
Y-65945D01*
Y-65420D01*
X132841Y-64895D01*
X132317D01*
X131792Y-65420D01*
Y-66470D01*
X132317Y-66994D01*
X134416Y-63846D02*
X134940Y-63321D01*
Y-62271D01*
X134416Y-61747D01*
X133891D01*
X133366Y-62271D01*
X132841Y-61747D01*
X132317D01*
X131792Y-62271D01*
Y-63321D01*
X132317Y-63846D01*
X132841D01*
X133366Y-63321D01*
X133891Y-63846D01*
X134416D01*
X133366Y-63321D02*
Y-62271D01*
X125557Y-68044D02*
X126082Y-68569D01*
Y-69618D01*
X125557Y-70143D01*
X123458D01*
X122934Y-69618D01*
Y-68569D01*
X123458Y-68044D01*
X125557Y-66994D02*
X126082Y-66470D01*
Y-65420D01*
X125557Y-64895D01*
X125033D01*
X124508Y-65420D01*
Y-65945D01*
Y-65420D01*
X123983Y-64895D01*
X123458D01*
X122934Y-65420D01*
Y-66470D01*
X123458Y-66994D01*
X126082Y-63846D02*
Y-61747D01*
X125557D01*
X123458Y-63846D01*
X122934D01*
X98392Y32350D02*
X98917Y31825D01*
Y30775D01*
X98392Y30251D01*
X96293D01*
X95768Y30775D01*
Y31825D01*
X96293Y32350D01*
X98392Y33399D02*
X98917Y33924D01*
Y34974D01*
X98392Y35498D01*
X97867D01*
X97342Y34974D01*
Y34449D01*
Y34974D01*
X96818Y35498D01*
X96293D01*
X95768Y34974D01*
Y33924D01*
X96293Y33399D01*
X98917Y38647D02*
X98392Y37597D01*
X97342Y36548D01*
X96293D01*
X95768Y37073D01*
Y38122D01*
X96293Y38647D01*
X96818D01*
X97342Y38122D01*
Y36548D01*
X104691Y31759D02*
X105216Y31234D01*
Y30185D01*
X104691Y29660D01*
X102592D01*
X102067Y30185D01*
Y31234D01*
X102592Y31759D01*
X104691Y32809D02*
X105216Y33334D01*
Y34383D01*
X104691Y34908D01*
X104166D01*
X103642Y34383D01*
Y33858D01*
Y34383D01*
X103117Y34908D01*
X102592D01*
X102067Y34383D01*
Y33334D01*
X102592Y32809D01*
X105216Y38056D02*
Y35957D01*
X103642D01*
X104166Y37007D01*
Y37532D01*
X103642Y38056D01*
X102592D01*
X102067Y37532D01*
Y36482D01*
X102592Y35957D01*
X51607Y-112238D02*
X52132Y-111713D01*
X53181D01*
X53706Y-112238D01*
Y-114337D01*
X53181Y-114862D01*
X52132D01*
X51607Y-114337D01*
X50557Y-112238D02*
X50033Y-111713D01*
X48983D01*
X48458Y-112238D01*
Y-112763D01*
X48983Y-113287D01*
X49508D01*
X48983D01*
X48458Y-113812D01*
Y-114337D01*
X48983Y-114862D01*
X50033D01*
X50557Y-114337D01*
X45834Y-114862D02*
Y-111713D01*
X47409Y-113287D01*
X45310D01*
X43733Y-116667D02*
X44258Y-116142D01*
X45307D01*
X45832Y-116667D01*
Y-118766D01*
X45307Y-119291D01*
X44258D01*
X43733Y-118766D01*
X42683Y-116667D02*
X42159Y-116142D01*
X41109D01*
X40584Y-116667D01*
Y-117192D01*
X41109Y-117717D01*
X41634D01*
X41109D01*
X40584Y-118241D01*
Y-118766D01*
X41109Y-119291D01*
X42159D01*
X42683Y-118766D01*
X39535Y-116667D02*
X39010Y-116142D01*
X37960D01*
X37436Y-116667D01*
Y-117192D01*
X37960Y-117717D01*
X38485D01*
X37960D01*
X37436Y-118241D01*
Y-118766D01*
X37960Y-119291D01*
X39010D01*
X39535Y-118766D01*
X27788Y-126313D02*
X28313Y-125788D01*
X29362D01*
X29887Y-126313D01*
Y-128412D01*
X29362Y-128937D01*
X28313D01*
X27788Y-128412D01*
X26739Y-126313D02*
X26214Y-125788D01*
X25164D01*
X24639Y-126313D01*
Y-126837D01*
X25164Y-127362D01*
X25689D01*
X25164D01*
X24639Y-127887D01*
Y-128412D01*
X25164Y-128937D01*
X26214D01*
X26739Y-128412D01*
X21491Y-128937D02*
X23590D01*
X21491Y-126837D01*
Y-126313D01*
X22016Y-125788D01*
X23065D01*
X23590Y-126313D01*
X35433Y-121687D02*
X35957Y-121162D01*
X37007D01*
X37532Y-121687D01*
Y-123786D01*
X37007Y-124311D01*
X35957D01*
X35433Y-123786D01*
X34383Y-121687D02*
X33858Y-121162D01*
X32809D01*
X32284Y-121687D01*
Y-122211D01*
X32809Y-122736D01*
X33334D01*
X32809D01*
X32284Y-123261D01*
Y-123786D01*
X32809Y-124311D01*
X33858D01*
X34383Y-123786D01*
X31234Y-124311D02*
X30185D01*
X30710D01*
Y-121162D01*
X31234Y-121687D01*
X-62632Y89534D02*
X-62107Y90059D01*
X-61058D01*
X-60533Y89534D01*
Y87435D01*
X-61058Y86910D01*
X-62107D01*
X-62632Y87435D01*
X-63681Y86910D02*
X-64731D01*
X-64206D01*
Y90059D01*
X-63681Y89534D01*
X-67879Y86910D02*
Y90059D01*
X-66305Y88484D01*
X-68404D01*
X-51608Y89239D02*
X-51083Y89763D01*
X-50034D01*
X-49509Y89239D01*
Y87139D01*
X-50034Y86615D01*
X-51083D01*
X-51608Y87139D01*
X-52658Y86615D02*
X-53707D01*
X-53183D01*
Y89763D01*
X-52658Y89239D01*
X-55282D02*
X-55806Y89763D01*
X-56856D01*
X-57381Y89239D01*
Y88714D01*
X-56856Y88189D01*
X-56331D01*
X-56856D01*
X-57381Y87664D01*
Y87139D01*
X-56856Y86615D01*
X-55806D01*
X-55282Y87139D01*
X-1116Y70636D02*
X-591Y71161D01*
X458D01*
X983Y70636D01*
Y68537D01*
X458Y68012D01*
X-591D01*
X-1116Y68537D01*
X-2166Y68012D02*
X-3215D01*
X-2690D01*
Y71161D01*
X-2166Y70636D01*
X-6888Y68012D02*
X-4789D01*
X-6888Y70111D01*
Y70636D01*
X-6364Y71161D01*
X-5314D01*
X-4789Y70636D01*
X7119Y70538D02*
X7644Y71062D01*
X8693D01*
X9218Y70538D01*
Y68439D01*
X8693Y67914D01*
X7644D01*
X7119Y68439D01*
X6069Y67914D02*
X5020D01*
X5545D01*
Y71062D01*
X6069Y70538D01*
X3446Y67914D02*
X2396D01*
X2921D01*
Y71062D01*
X3446Y70538D01*
X25262Y81758D02*
X25787Y82283D01*
X26836D01*
X27361Y81758D01*
Y79659D01*
X26836Y79134D01*
X25787D01*
X25262Y79659D01*
X24212Y79134D02*
X23163D01*
X23688D01*
Y82283D01*
X24212Y81758D01*
X21588D02*
X21064Y82283D01*
X20014D01*
X19489Y81758D01*
Y79659D01*
X20014Y79134D01*
X21064D01*
X21588Y79659D01*
Y81758D01*
X45505Y161975D02*
X46030Y162499D01*
X47079D01*
X47604Y161975D01*
Y159876D01*
X47079Y159351D01*
X46030D01*
X45505Y159876D01*
X44456D02*
X43931Y159351D01*
X42881D01*
X42357Y159876D01*
Y161975D01*
X42881Y162499D01*
X43931D01*
X44456Y161975D01*
Y161450D01*
X43931Y160925D01*
X42357D01*
D21*
X53839Y-74016D02*
Y14272D01*
X-41634D02*
X53839D01*
X-41634Y-74016D02*
Y14272D01*
Y-74016D02*
X53839D01*
D22*
X-91732Y13976D02*
X-68307D01*
X-91732Y21850D02*
X-68307D01*
Y13976D02*
Y21850D01*
X-91732Y13976D02*
Y21850D01*
X72244Y16142D02*
X98622D01*
X72244Y23524D02*
X98622D01*
Y16142D02*
Y23524D01*
X72244Y16142D02*
Y23524D01*
X104522Y-1824D02*
X108520D01*
Y-4823D01*
X106521D01*
X108520D01*
Y-7822D01*
X98524Y-1824D02*
X102522D01*
Y-7822D01*
X98524D01*
X102522Y-4823D02*
X100523D01*
X96524Y-1824D02*
X92526D01*
X94525D01*
Y-7822D01*
X90526D02*
X88527D01*
X89526D01*
Y-1824D01*
X90526Y-2823D01*
D198*
X115059Y-27953D02*
X129429D01*
X115059Y9843D02*
X129429D01*
Y-27953D02*
Y9843D01*
X115059Y-27953D02*
Y9843D01*
D199*
X-108071Y-29921D02*
Y7087D01*
X-122441Y-29921D02*
X-108071D01*
X-122441D02*
Y7087D01*
X-108071D01*
D200*
X12992Y41339D02*
D03*
X68110Y108465D02*
D03*
D201*
X72107Y-115453D02*
D03*
M02*
