G04*
G04 #@! TF.GenerationSoftware,Altium Limited,Altium Designer,21.9.1 (22)*
G04*
G04 Layer_Color=32768*
%FSLAX25Y25*%
%MOIN*%
G70*
G04*
G04 #@! TF.SameCoordinates,BA265606-766D-4053-9833-5615DE46E1CD*
G04*
G04*
G04 #@! TF.FilePolarity,Positive*
G04*
G01*
G75*
%ADD11C,0.00394*%
%ADD12C,0.00787*%
%ADD15C,0.01181*%
%ADD16C,0.01575*%
%ADD20C,0.00591*%
%ADD202C,0.00197*%
%ADD203C,0.00236*%
%ADD204C,0.00630*%
G36*
X69685Y89755D02*
X68789D01*
Y93483D01*
X62121D01*
Y94488D01*
X69685D01*
Y89755D01*
D02*
G37*
G36*
X64821Y88072D02*
X64745Y87908D01*
X64668Y87744D01*
X64592Y87591D01*
X64526Y87460D01*
X64471Y87351D01*
X64428Y87285D01*
X64417Y87274D01*
Y87263D01*
X64297Y87067D01*
X64176Y86892D01*
X64067Y86739D01*
X63969Y86619D01*
X63892Y86509D01*
X63827Y86444D01*
X63783Y86389D01*
X63772Y86378D01*
X69685D01*
Y85449D01*
X62089D01*
Y86050D01*
X62274Y86159D01*
X62449Y86280D01*
X62624Y86422D01*
X62777Y86553D01*
X62908Y86684D01*
X63018Y86782D01*
X63051Y86826D01*
X63083Y86859D01*
X63094Y86870D01*
X63105Y86881D01*
X63291Y87110D01*
X63466Y87340D01*
X63619Y87559D01*
X63739Y87777D01*
X63848Y87963D01*
X63892Y88039D01*
X63925Y88105D01*
X63958Y88160D01*
X63969Y88203D01*
X63990Y88225D01*
Y88236D01*
X64887D01*
X64821Y88072D01*
D02*
G37*
D11*
X3641Y-80479D02*
G03*
X3714Y-80481I-98J-7611D01*
G01*
X138583Y-17231D02*
Y-5784D01*
X133858D02*
X138583D01*
X133858Y-17231D02*
Y-5784D01*
Y-17231D02*
X138583D01*
X-124836Y-44446D02*
X-119112Y-54359D01*
X-128927Y-46808D02*
X-124836Y-44446D01*
X-128927Y-46808D02*
X-123204Y-56721D01*
X-119112Y-54359D01*
X10433Y48622D02*
Y76575D01*
X37205D01*
Y48622D02*
Y76575D01*
X10433Y48622D02*
X37205D01*
X36614Y157973D02*
X77362D01*
Y117028D02*
Y157973D01*
X36417Y117028D02*
X77362D01*
X36417D02*
Y157973D01*
X36811D01*
X-31398Y83465D02*
X35531D01*
X-31398D02*
Y127953D01*
X35531Y83465D02*
Y127953D01*
X-31398D02*
X35531D01*
X-46358Y-132874D02*
Y-130512D01*
X-47539Y-131693D02*
X-45177D01*
X-42913Y-138583D02*
Y-124803D01*
X-49803Y-138583D02*
X-42913D01*
X-49803Y-124803D02*
X-42913D01*
X-49803Y-138583D02*
Y-124803D01*
X40551Y98032D02*
X91339D01*
Y46850D02*
Y98032D01*
X40551Y46850D02*
X91339D01*
X40551D02*
Y98032D01*
X108563Y39567D02*
Y50591D01*
Y39567D02*
X121555D01*
X108563Y50591D02*
X121555D01*
Y39567D02*
Y50591D01*
X-131299Y8465D02*
Y19488D01*
X-144291D02*
X-131299D01*
X-144291Y8465D02*
X-131299D01*
X-144291D02*
Y19488D01*
X-77559Y-21260D02*
Y-10236D01*
X-90551D02*
X-77559D01*
X-90551Y-21260D02*
X-77559D01*
X-90551D02*
Y-10236D01*
X6039Y66535D02*
X6539D01*
X7539D02*
X8465D01*
X1378D02*
X3803D01*
X6539D02*
X7539D01*
X1378Y55512D02*
X8465D01*
X1378D02*
Y66535D01*
X8465Y55512D02*
Y66535D01*
X3803D02*
X6039D01*
X-1539Y66634D02*
X-1039D01*
X-39D02*
X886D01*
X-6201D02*
X-3776D01*
X-1039D02*
X-39D01*
X-6201Y55610D02*
X886D01*
X-6201D02*
Y66634D01*
X886Y55610D02*
Y66634D01*
X-3776D02*
X-1539D01*
X-53606Y85335D02*
X-53106D01*
X-52106D02*
X-51181D01*
X-58268D02*
X-55843D01*
X-53106D02*
X-52106D01*
X-58268Y74311D02*
X-51181D01*
X-58268D02*
Y85335D01*
X-51181Y74311D02*
Y85335D01*
X-55843D02*
X-53606D01*
X-61382Y85433D02*
X-60882D01*
X-59882D02*
X-58957D01*
X-66043D02*
X-63618D01*
X-60882D02*
X-59882D01*
X-66043Y74410D02*
X-58957D01*
X-66043D02*
Y85433D01*
X-58957Y74410D02*
Y85433D01*
X-63618D02*
X-61382D01*
X43579Y-135062D02*
X44012Y-134812D01*
X41912Y-136025D02*
X42713Y-135562D01*
X45949Y-133694D02*
X48049Y-132482D01*
X42713Y-135562D02*
X43579Y-135062D01*
X36400Y-126478D02*
X42537Y-122935D01*
X48049Y-132482D01*
X36400Y-126478D02*
X41912Y-136025D01*
X44012Y-134812D02*
X45949Y-133694D01*
X36788Y-139145D02*
X37221Y-138895D01*
X35120Y-140108D02*
X35922Y-139645D01*
X39157Y-137777D02*
X41258Y-136565D01*
X35922Y-139645D02*
X36788Y-139145D01*
X29609Y-130561D02*
X35746Y-127018D01*
X41258Y-136565D01*
X29609Y-130561D02*
X35120Y-140108D01*
X37221Y-138895D02*
X39157Y-137777D01*
X50666Y-130878D02*
X51099Y-130628D01*
X48998Y-131840D02*
X49800Y-131378D01*
X53035Y-129510D02*
X55136Y-128297D01*
X49800Y-131378D02*
X50666Y-130878D01*
X43486Y-122294D02*
X49624Y-118750D01*
X55136Y-128297D01*
X43486Y-122294D02*
X48998Y-131840D01*
X51099Y-130628D02*
X53035Y-129510D01*
X57949Y-127039D02*
X58382Y-126789D01*
X56282Y-128002D02*
X57083Y-127539D01*
X60319Y-125671D02*
X62419Y-124458D01*
X57083Y-127539D02*
X57949Y-127039D01*
X50770Y-118455D02*
X56907Y-114912D01*
X62419Y-124458D01*
X50770Y-118455D02*
X56282Y-128002D01*
X58382Y-126789D02*
X60319Y-125671D01*
X102516Y40453D02*
X103016D01*
X100591D02*
X101516D01*
X105252D02*
X107677D01*
X101516D02*
X102516D01*
X100591Y51476D02*
X107677D01*
Y40453D02*
Y51476D01*
X100591Y40453D02*
Y51476D01*
X103016Y40453D02*
X105252D01*
X94642D02*
X95142D01*
X92716D02*
X93642D01*
X97378D02*
X99803D01*
X93642D02*
X94642D01*
X92716Y51476D02*
X99803D01*
Y40453D02*
Y51476D01*
X92716Y40453D02*
Y51476D01*
X95142Y40453D02*
X97378D01*
X123382Y-59744D02*
X123882D01*
X121457D02*
X122382D01*
X126118D02*
X128543D01*
X122382D02*
X123382D01*
X121457Y-48720D02*
X128543D01*
Y-59744D02*
Y-48720D01*
X121457Y-59744D02*
Y-48720D01*
X123882Y-59744D02*
X126118D01*
X131158D02*
X131658D01*
X129232D02*
X130157D01*
X133894D02*
X136319D01*
X130157D02*
X131158D01*
X129232Y-48720D02*
X136319D01*
Y-59744D02*
Y-48720D01*
X129232Y-59744D02*
Y-48720D01*
X131658Y-59744D02*
X133894D01*
X138835D02*
X139335D01*
X136909D02*
X137835D01*
X141571D02*
X143996D01*
X137835D02*
X138835D01*
X136909Y-48720D02*
X143996D01*
Y-59744D02*
Y-48720D01*
X136909Y-59744D02*
Y-48720D01*
X139335Y-59744D02*
X141571D01*
X-125161Y18799D02*
X-124661D01*
X-123661D02*
X-122736D01*
X-129823D02*
X-127398D01*
X-124661D02*
X-123661D01*
X-129823Y7776D02*
X-122736D01*
X-129823D02*
Y18799D01*
X-122736Y7776D02*
Y18799D01*
X-127398D02*
X-125161D01*
X-117189D02*
X-116689D01*
X-115689D02*
X-114764D01*
X-121850D02*
X-119425D01*
X-116689D02*
X-115689D01*
X-121850Y7776D02*
X-114764D01*
X-121850D02*
Y18799D01*
X-114764Y7776D02*
Y18799D01*
X-119425D02*
X-117189D01*
X-72209Y-10925D02*
X-71709D01*
X-70709D02*
X-69784D01*
X-76870D02*
X-74445D01*
X-71709D02*
X-70709D01*
X-76870Y-21949D02*
X-69784D01*
X-76870D02*
Y-10925D01*
X-69784Y-21949D02*
Y-10925D01*
X-74445D02*
X-72209D01*
X-64433Y-11024D02*
X-63933D01*
X-62933D02*
X-62008D01*
X-69095D02*
X-66669D01*
X-63933D02*
X-62933D01*
X-69095Y-22047D02*
X-62008D01*
X-69095D02*
Y-11024D01*
X-62008Y-22047D02*
Y-11024D01*
X-66669D02*
X-64433D01*
X-91831Y-37500D02*
Y-25689D01*
X-76083Y-37500D02*
Y-25689D01*
X-91831Y-37500D02*
X-76083D01*
X-91831Y-25689D02*
X-76083D01*
X144291Y-39272D02*
X156102D01*
Y-32972D01*
X144291D02*
X156102D01*
X144291Y-39272D02*
Y-32972D01*
X98032Y115551D02*
Y127362D01*
X91732D02*
X98032D01*
X91732Y115551D02*
Y127362D01*
Y115551D02*
X98032D01*
X90551Y107874D02*
Y119685D01*
X84252D02*
X90551D01*
X84252Y107874D02*
Y119685D01*
Y107874D02*
X90551D01*
X-140643Y-9744D02*
Y-5020D01*
X-152090Y-9744D02*
X-140643D01*
X-152090D02*
Y-5020D01*
X-140643D01*
X144685Y-60144D02*
X149409D01*
X144685D02*
Y-48698D01*
X149409D01*
Y-60144D02*
Y-48698D01*
X120774Y-53642D02*
Y-48917D01*
X109327Y-53642D02*
X120774D01*
X109327D02*
Y-48917D01*
X120774D01*
X104134Y-35328D02*
X108858D01*
Y-46775D02*
Y-35328D01*
X104134Y-46775D02*
X108858D01*
X104134D02*
Y-35328D01*
X-104134Y-35735D02*
X-99410D01*
X-104134D02*
Y-24288D01*
X-99410D01*
Y-35735D02*
Y-24288D01*
X-116726Y-39173D02*
Y-34449D01*
X-128173Y-39173D02*
X-116726D01*
X-128173D02*
Y-34449D01*
X-116726D01*
X-109547Y-42231D02*
X-104823D01*
X-109547D02*
Y-30784D01*
X-104823D01*
Y-42231D02*
Y-30784D01*
X-63675Y-28839D02*
Y-24114D01*
X-75121Y-28839D02*
X-63675D01*
X-75121D02*
Y-24114D01*
X-63675D01*
Y-34449D02*
Y-29724D01*
X-75121Y-34449D02*
X-63675D01*
X-75121D02*
Y-29724D01*
X-63675D01*
X-91339Y-38773D02*
X-86614D01*
Y-50220D02*
Y-38773D01*
X-91339Y-50220D02*
X-86614D01*
X-91339D02*
Y-38773D01*
X-104239Y-55512D02*
Y-50787D01*
X-92792D01*
Y-55512D02*
Y-50787D01*
X-104239Y-55512D02*
X-92792D01*
X-38878Y-125984D02*
X-37303D01*
X-38091Y-126772D02*
Y-125197D01*
X-41240Y-127559D02*
X-34941D01*
X-41240D02*
Y-124409D01*
X-34941D01*
Y-127559D02*
Y-124409D01*
X-52756Y-91929D02*
X-48819D01*
X-50787Y-93898D02*
Y-89961D01*
X-41831Y-137795D02*
Y-135039D01*
Y-137795D02*
X-35925D01*
Y-135039D01*
X-41831D02*
X-35925D01*
X-39370Y-136417D02*
X-38386D01*
X-38878Y-136909D02*
Y-135925D01*
X787Y46850D02*
X27559D01*
X787Y35827D02*
Y46850D01*
X27559Y35827D02*
Y46850D01*
X787Y35827D02*
X27559D01*
X55905Y113976D02*
X82677D01*
X55905Y102953D02*
Y113976D01*
X82677Y102953D02*
Y113976D01*
X55905Y102953D02*
X82677D01*
X58782Y-116782D02*
X81967Y-103396D01*
X58782Y-116782D02*
X64293Y-126329D01*
X81967Y-103396D02*
X87478Y-112943D01*
X64293Y-126329D02*
X87478Y-112943D01*
X109793Y-34843D02*
X121604D01*
X109793Y-46654D02*
X121604D01*
Y-34843D01*
X109793Y-46654D02*
Y-34843D01*
X-104232Y-49951D02*
Y-38140D01*
X-92421Y-49951D02*
Y-38140D01*
X-104232D02*
X-92421D01*
X-104232Y-49951D02*
X-92421D01*
X-50394Y52658D02*
Y79035D01*
X-7480D01*
X-50394Y52658D02*
X-7480D01*
Y79035D01*
X-65551Y-13385D02*
X-65944Y-12992D01*
Y-12205D01*
X-65551Y-11811D01*
X-63976D01*
X-63583Y-12205D01*
Y-12992D01*
X-63976Y-13385D01*
X-63583Y-15353D02*
X-65944D01*
X-64763Y-14173D01*
Y-15747D01*
X-65551Y-16534D02*
X-65944Y-16928D01*
Y-17715D01*
X-65551Y-18108D01*
X-65157D01*
X-64763Y-17715D01*
Y-17321D01*
Y-17715D01*
X-64370Y-18108D01*
X-63976D01*
X-63583Y-17715D01*
Y-16928D01*
X-63976Y-16534D01*
X-102953Y-34744D02*
X-101379D01*
Y-33957D01*
X-101641Y-33695D01*
X-102166D01*
X-102428Y-33957D01*
Y-34744D01*
Y-34219D02*
X-102953Y-33695D01*
Y-32383D02*
X-101379D01*
X-102166Y-33170D01*
Y-32120D01*
X-101641Y-31596D02*
X-101379Y-31333D01*
Y-30808D01*
X-101641Y-30546D01*
X-101903D01*
X-102166Y-30808D01*
Y-31071D01*
Y-30808D01*
X-102428Y-30546D01*
X-102690D01*
X-102953Y-30808D01*
Y-31333D01*
X-102690Y-31596D01*
X-141634Y-8563D02*
Y-6989D01*
X-142421D01*
X-142683Y-7251D01*
Y-7776D01*
X-142421Y-8038D01*
X-141634D01*
X-142159D02*
X-142683Y-8563D01*
X-143208Y-7251D02*
X-143471Y-6989D01*
X-143995D01*
X-144258Y-7251D01*
Y-7514D01*
X-143995Y-7776D01*
X-143733D01*
X-143995D01*
X-144258Y-8038D01*
Y-8301D01*
X-143995Y-8563D01*
X-143471D01*
X-143208Y-8301D01*
X-144782Y-7251D02*
X-145045Y-6989D01*
X-145570D01*
X-145832Y-7251D01*
Y-7514D01*
X-145570Y-7776D01*
X-145307D01*
X-145570D01*
X-145832Y-8038D01*
Y-8301D01*
X-145570Y-8563D01*
X-145045D01*
X-144782Y-8301D01*
X145866Y-59153D02*
X147440D01*
Y-58366D01*
X147178Y-58104D01*
X146653D01*
X146391Y-58366D01*
Y-59153D01*
Y-58629D02*
X145866Y-58104D01*
X147178Y-57579D02*
X147440Y-57317D01*
Y-56792D01*
X147178Y-56530D01*
X146916D01*
X146653Y-56792D01*
Y-57055D01*
Y-56792D01*
X146391Y-56530D01*
X146128D01*
X145866Y-56792D01*
Y-57317D01*
X146128Y-57579D01*
Y-56005D02*
X145866Y-55743D01*
Y-55218D01*
X146128Y-54955D01*
X147178D01*
X147440Y-55218D01*
Y-55743D01*
X147178Y-56005D01*
X146916D01*
X146653Y-55743D01*
Y-54955D01*
X43799Y-132208D02*
X44337Y-132352D01*
X44730Y-133034D01*
X44586Y-133572D01*
X43223Y-134359D01*
X42685Y-134215D01*
X42291Y-133533D01*
X42436Y-132995D01*
X43405Y-131527D02*
X43549Y-130989D01*
X43156Y-130307D01*
X42618Y-130163D01*
X42277Y-130360D01*
X42133Y-130898D01*
X42330Y-131239D01*
X42133Y-130898D01*
X41596Y-130754D01*
X41255Y-130950D01*
X41111Y-131488D01*
X41504Y-132170D01*
X42042Y-132314D01*
X40520Y-130466D02*
X40127Y-129784D01*
X40324Y-130125D01*
X42369Y-128944D01*
X42225Y-129482D01*
X4922Y64174D02*
X4528Y64567D01*
Y65355D01*
X4922Y65748D01*
X6496D01*
X6890Y65355D01*
Y64567D01*
X6496Y64174D01*
X6890Y63387D02*
Y62599D01*
Y62993D01*
X4528D01*
X4922Y63387D01*
X6890Y61419D02*
Y60632D01*
Y61025D01*
X4528D01*
X4922Y61419D01*
X132775Y-57382D02*
X133168Y-57776D01*
Y-58563D01*
X132775Y-58957D01*
X131201D01*
X130807Y-58563D01*
Y-57776D01*
X131201Y-57382D01*
X132775Y-56595D02*
X133168Y-56202D01*
Y-55414D01*
X132775Y-55021D01*
X132381D01*
X131988Y-55414D01*
Y-55808D01*
Y-55414D01*
X131594Y-55021D01*
X131201D01*
X130807Y-55414D01*
Y-56202D01*
X131201Y-56595D01*
X132775Y-54234D02*
X133168Y-53840D01*
Y-53053D01*
X132775Y-52659D01*
X132381D01*
X131988Y-53053D01*
X131594Y-52659D01*
X131201D01*
X130807Y-53053D01*
Y-53840D01*
X131201Y-54234D01*
X131594D01*
X131988Y-53840D01*
X132381Y-54234D01*
X132775D01*
X131988Y-53840D02*
Y-53053D01*
X85827Y108661D02*
X88188D01*
Y109842D01*
X87795Y110236D01*
X87007D01*
X86614Y109842D01*
Y108661D01*
Y109449D02*
X85827Y110236D01*
X88188Y112597D02*
Y111023D01*
X87007D01*
X87401Y111810D01*
Y112204D01*
X87007Y112597D01*
X86220D01*
X85827Y112204D01*
Y111416D01*
X86220Y111023D01*
X85827Y114565D02*
X88188D01*
X87007Y113384D01*
Y114959D01*
X-118307Y16438D02*
X-118700Y16831D01*
Y17618D01*
X-118307Y18012D01*
X-116732D01*
X-116339Y17618D01*
Y16831D01*
X-116732Y16438D01*
X-116339Y14470D02*
X-118700D01*
X-117519Y15650D01*
Y14076D01*
X-116339Y13289D02*
Y12502D01*
Y12895D01*
X-118700D01*
X-118307Y13289D01*
X-64665Y-33268D02*
Y-31693D01*
X-65452D01*
X-65715Y-31956D01*
Y-32481D01*
X-65452Y-32743D01*
X-64665D01*
X-65190D02*
X-65715Y-33268D01*
X-67027D02*
Y-31693D01*
X-66240Y-32481D01*
X-67289D01*
X-67814Y-31693D02*
X-68863D01*
Y-31956D01*
X-67814Y-33005D01*
Y-33268D01*
X96259Y42814D02*
X96653Y42421D01*
Y41634D01*
X96259Y41240D01*
X94685D01*
X94291Y41634D01*
Y42421D01*
X94685Y42814D01*
X96259Y43602D02*
X96653Y43995D01*
Y44782D01*
X96259Y45176D01*
X95866D01*
X95472Y44782D01*
Y44389D01*
Y44782D01*
X95078Y45176D01*
X94685D01*
X94291Y44782D01*
Y43995D01*
X94685Y43602D01*
X96653Y47537D02*
X96259Y46750D01*
X95472Y45963D01*
X94685D01*
X94291Y46357D01*
Y47144D01*
X94685Y47537D01*
X95078D01*
X95472Y47144D01*
Y45963D01*
X-103248Y-51968D02*
Y-53543D01*
X-102461D01*
X-102199Y-53280D01*
Y-52756D01*
X-102461Y-52493D01*
X-103248D01*
X-102723D02*
X-102199Y-51968D01*
X-100887D02*
Y-53543D01*
X-101674Y-52756D01*
X-100624D01*
X-100099Y-52231D02*
X-99837Y-51968D01*
X-99312D01*
X-99050Y-52231D01*
Y-53280D01*
X-99312Y-53543D01*
X-99837D01*
X-100099Y-53280D01*
Y-53018D01*
X-99837Y-52756D01*
X-99050D01*
X-87795Y-39764D02*
X-89370D01*
Y-40551D01*
X-89107Y-40813D01*
X-88582D01*
X-88320Y-40551D01*
Y-39764D01*
Y-40288D02*
X-87795Y-40813D01*
Y-42125D02*
X-89370D01*
X-88582Y-41338D01*
Y-42388D01*
X-89107Y-42912D02*
X-89370Y-43175D01*
Y-43699D01*
X-89107Y-43962D01*
X-88845D01*
X-88582Y-43699D01*
X-88320Y-43962D01*
X-88058D01*
X-87795Y-43699D01*
Y-43175D01*
X-88058Y-42912D01*
X-88320D01*
X-88582Y-43175D01*
X-88845Y-42912D01*
X-89107D01*
X-88582Y-43175D02*
Y-43699D01*
X-122676Y-55273D02*
X-121313Y-54485D01*
X-121707Y-53804D01*
X-122065Y-53708D01*
X-122520Y-53970D01*
X-122616Y-54328D01*
X-122222Y-55010D01*
X-122484Y-54556D02*
X-123201Y-54364D01*
X-122327Y-53253D02*
X-122231Y-52895D01*
X-122494Y-52440D01*
X-122852Y-52344D01*
X-123079Y-52476D01*
X-123176Y-52834D01*
X-123044Y-53061D01*
X-123176Y-52834D01*
X-123534Y-52738D01*
X-123761Y-52869D01*
X-123857Y-53227D01*
X-123595Y-53682D01*
X-123236Y-53778D01*
X-123412Y-50850D02*
X-122887Y-51759D01*
X-123569Y-52152D01*
X-123604Y-51566D01*
X-123735Y-51339D01*
X-124094Y-51243D01*
X-124548Y-51506D01*
X-124644Y-51864D01*
X-124382Y-52319D01*
X-124023Y-52415D01*
X3937Y-93340D02*
Y-94390D01*
X3149D01*
Y-93865D01*
Y-94390D01*
X2362D01*
X3937Y-92816D02*
Y-92291D01*
Y-92553D01*
X2362D01*
Y-92816D01*
Y-92291D01*
X3937Y-91504D02*
X2362D01*
Y-90716D01*
X2625Y-90454D01*
X3674D01*
X3937Y-90716D01*
Y-91504D01*
X2362Y-89929D02*
Y-89404D01*
Y-89667D01*
X3937D01*
X3674Y-89929D01*
X119783Y-52461D02*
Y-50886D01*
X118996D01*
X118734Y-51149D01*
Y-51674D01*
X118996Y-51936D01*
X119783D01*
X119259D02*
X118734Y-52461D01*
X117422D02*
Y-50886D01*
X118209Y-51674D01*
X117160D01*
X116635Y-51149D02*
X116373Y-50886D01*
X115848D01*
X115585Y-51149D01*
Y-52198D01*
X115848Y-52461D01*
X116373D01*
X116635Y-52198D01*
Y-51149D01*
X-62499Y83071D02*
X-62893Y83465D01*
Y84252D01*
X-62499Y84646D01*
X-60925D01*
X-60532Y84252D01*
Y83465D01*
X-60925Y83071D01*
X-60532Y82284D02*
Y81497D01*
Y81891D01*
X-62893D01*
X-62499Y82284D01*
X-60532Y79136D02*
X-62893D01*
X-61712Y80316D01*
Y78742D01*
X145079Y-34547D02*
Y-36909D01*
X146259D01*
X146653Y-36515D01*
Y-35728D01*
X146259Y-35334D01*
X145079D01*
X145866D02*
X146653Y-34547D01*
X147440Y-36515D02*
X147834Y-36909D01*
X148621D01*
X149014Y-36515D01*
Y-36121D01*
X148621Y-35728D01*
X148227D01*
X148621D01*
X149014Y-35334D01*
Y-34941D01*
X148621Y-34547D01*
X147834D01*
X147440Y-34941D01*
X150982Y-34547D02*
Y-36909D01*
X149802Y-35728D01*
X151376D01*
X-54724Y82973D02*
X-55117Y83367D01*
Y84154D01*
X-54724Y84547D01*
X-53149D01*
X-52756Y84154D01*
Y83367D01*
X-53149Y82973D01*
X-52756Y82186D02*
Y81399D01*
Y81792D01*
X-55117D01*
X-54724Y82186D01*
Y80218D02*
X-55117Y79824D01*
Y79037D01*
X-54724Y78644D01*
X-54330D01*
X-53937Y79037D01*
Y79431D01*
Y79037D01*
X-53543Y78644D01*
X-53149D01*
X-52756Y79037D01*
Y79824D01*
X-53149Y80218D01*
X107677Y-36319D02*
X106103D01*
Y-37106D01*
X106365Y-37368D01*
X106890D01*
X107152Y-37106D01*
Y-36319D01*
Y-36844D02*
X107677Y-37368D01*
Y-38680D02*
X106103D01*
X106890Y-37893D01*
Y-38943D01*
X107677Y-40517D02*
Y-39467D01*
X106628Y-40517D01*
X106365D01*
X106103Y-40255D01*
Y-39730D01*
X106365Y-39467D01*
X-2657Y64272D02*
X-3050Y64666D01*
Y65453D01*
X-2657Y65847D01*
X-1083D01*
X-689Y65453D01*
Y64666D01*
X-1083Y64272D01*
X-689Y63485D02*
Y62698D01*
Y63091D01*
X-3050D01*
X-2657Y63485D01*
X-689Y59943D02*
Y61517D01*
X-2263Y59943D01*
X-2657D01*
X-3050Y60337D01*
Y61124D01*
X-2657Y61517D01*
X93307Y116339D02*
X95669D01*
Y117519D01*
X95275Y117913D01*
X94488D01*
X94094Y117519D01*
Y116339D01*
Y117126D02*
X93307Y117913D01*
X95669Y120274D02*
Y118700D01*
X94488D01*
X94881Y119487D01*
Y119881D01*
X94488Y120274D01*
X93701D01*
X93307Y119881D01*
Y119094D01*
X93701Y118700D01*
X95275Y121062D02*
X95669Y121455D01*
Y122242D01*
X95275Y122636D01*
X93701D01*
X93307Y122242D01*
Y121455D01*
X93701Y121062D01*
X95275D01*
X58169Y-124185D02*
X58707Y-124329D01*
X59100Y-125011D01*
X58956Y-125549D01*
X57593Y-126336D01*
X57055Y-126192D01*
X56661Y-125510D01*
X56806Y-124972D01*
X57775Y-123503D02*
X57920Y-122966D01*
X57526Y-122284D01*
X56988Y-122140D01*
X56647Y-122337D01*
X56503Y-122874D01*
X56700Y-123215D01*
X56503Y-122874D01*
X55966Y-122730D01*
X55625Y-122927D01*
X55481Y-123465D01*
X55874Y-124146D01*
X56412Y-124291D01*
X54300Y-121420D02*
X56345Y-120239D01*
X55913Y-121852D01*
X55126Y-120489D01*
X140452Y-57382D02*
X140846Y-57776D01*
Y-58563D01*
X140452Y-58957D01*
X138878D01*
X138484Y-58563D01*
Y-57776D01*
X138878Y-57382D01*
X140452Y-56595D02*
X140846Y-56202D01*
Y-55414D01*
X140452Y-55021D01*
X140059D01*
X139665Y-55414D01*
Y-55808D01*
Y-55414D01*
X139271Y-55021D01*
X138878D01*
X138484Y-55414D01*
Y-56202D01*
X138878Y-56595D01*
Y-54234D02*
X138484Y-53840D01*
Y-53053D01*
X138878Y-52659D01*
X140452D01*
X140846Y-53053D01*
Y-53840D01*
X140452Y-54234D01*
X140059D01*
X139665Y-53840D01*
Y-52659D01*
X50885Y-128024D02*
X51423Y-128168D01*
X51817Y-128849D01*
X51673Y-129387D01*
X50309Y-130174D01*
X49772Y-130030D01*
X49378Y-129349D01*
X49522Y-128811D01*
X50492Y-127342D02*
X50636Y-126804D01*
X50242Y-126123D01*
X49705Y-125979D01*
X49364Y-126175D01*
X49220Y-126713D01*
X49417Y-127054D01*
X49220Y-126713D01*
X48682Y-126569D01*
X48341Y-126766D01*
X48197Y-127303D01*
X48591Y-127985D01*
X49129Y-128129D01*
X49311Y-125297D02*
X49455Y-124759D01*
X49062Y-124078D01*
X48524Y-123933D01*
X48183Y-124130D01*
X48039Y-124668D01*
X48236Y-125009D01*
X48039Y-124668D01*
X47502Y-124524D01*
X47161Y-124721D01*
X47017Y-125258D01*
X47410Y-125940D01*
X47948Y-126084D01*
X104133Y42814D02*
X104527Y42421D01*
Y41634D01*
X104133Y41240D01*
X102559D01*
X102165Y41634D01*
Y42421D01*
X102559Y42814D01*
X104133Y43602D02*
X104527Y43995D01*
Y44782D01*
X104133Y45176D01*
X103740D01*
X103346Y44782D01*
Y44389D01*
Y44782D01*
X102953Y45176D01*
X102559D01*
X102165Y44782D01*
Y43995D01*
X102559Y43602D01*
X104527Y47537D02*
Y45963D01*
X103346D01*
X103740Y46750D01*
Y47144D01*
X103346Y47537D01*
X102559D01*
X102165Y47144D01*
Y46357D01*
X102559Y45963D01*
X37007Y-136291D02*
X37545Y-136435D01*
X37939Y-137117D01*
X37795Y-137655D01*
X36431Y-138442D01*
X35894Y-138298D01*
X35500Y-137616D01*
X35644Y-137078D01*
X36614Y-135610D02*
X36758Y-135072D01*
X36364Y-134390D01*
X35827Y-134246D01*
X35486Y-134443D01*
X35342Y-134981D01*
X35539Y-135322D01*
X35342Y-134981D01*
X34804Y-134837D01*
X34464Y-135033D01*
X34319Y-135571D01*
X34713Y-136253D01*
X35251Y-136397D01*
X32942Y-133185D02*
X33729Y-134549D01*
X34305Y-132398D01*
X34646Y-132201D01*
X35184Y-132345D01*
X35577Y-133027D01*
X35433Y-133565D01*
X-117717Y-37992D02*
Y-36418D01*
X-118504D01*
X-118766Y-36680D01*
Y-37205D01*
X-118504Y-37467D01*
X-117717D01*
X-118241D02*
X-118766Y-37992D01*
X-120078D02*
Y-36418D01*
X-119291Y-37205D01*
X-120340D01*
X-121652Y-37992D02*
Y-36418D01*
X-120865Y-37205D01*
X-121915D01*
X124999Y-57382D02*
X125393Y-57776D01*
Y-58563D01*
X124999Y-58957D01*
X123425D01*
X123031Y-58563D01*
Y-57776D01*
X123425Y-57382D01*
X124999Y-56595D02*
X125393Y-56202D01*
Y-55414D01*
X124999Y-55021D01*
X124606D01*
X124212Y-55414D01*
Y-55808D01*
Y-55414D01*
X123819Y-55021D01*
X123425D01*
X123031Y-55414D01*
Y-56202D01*
X123425Y-56595D01*
X125393Y-54234D02*
Y-52659D01*
X124999D01*
X123425Y-54234D01*
X123031D01*
X-126279Y16438D02*
X-126672Y16831D01*
Y17618D01*
X-126279Y18012D01*
X-124705D01*
X-124311Y17618D01*
Y16831D01*
X-124705Y16438D01*
X-124311Y14470D02*
X-126672D01*
X-125492Y15650D01*
Y14076D01*
X-126279Y13289D02*
X-126672Y12895D01*
Y12108D01*
X-126279Y11715D01*
X-124705D01*
X-124311Y12108D01*
Y12895D01*
X-124705Y13289D01*
X-126279D01*
X-108366Y-41240D02*
X-106792D01*
Y-40453D01*
X-107054Y-40191D01*
X-107579D01*
X-107841Y-40453D01*
Y-41240D01*
Y-40715D02*
X-108366Y-40191D01*
Y-38879D02*
X-106792D01*
X-107579Y-39666D01*
Y-38616D01*
X-106792Y-37042D02*
Y-38092D01*
X-107579D01*
X-107317Y-37567D01*
Y-37304D01*
X-107579Y-37042D01*
X-108104D01*
X-108366Y-37304D01*
Y-37829D01*
X-108104Y-38092D01*
X135039Y-16240D02*
X136614D01*
Y-15453D01*
X136351Y-15191D01*
X135827D01*
X135564Y-15453D01*
Y-16240D01*
Y-15715D02*
X135039Y-15191D01*
X136351Y-14666D02*
X136614Y-14403D01*
Y-13879D01*
X136351Y-13616D01*
X136089D01*
X135827Y-13879D01*
Y-14141D01*
Y-13879D01*
X135564Y-13616D01*
X135302D01*
X135039Y-13879D01*
Y-14403D01*
X135302Y-14666D01*
X136614Y-12042D02*
X136351Y-12567D01*
X135827Y-13092D01*
X135302D01*
X135039Y-12829D01*
Y-12304D01*
X135302Y-12042D01*
X135564D01*
X135827Y-12304D01*
Y-13092D01*
X-73326Y-13287D02*
X-73720Y-12893D01*
Y-12106D01*
X-73326Y-11713D01*
X-71752D01*
X-71358Y-12106D01*
Y-12893D01*
X-71752Y-13287D01*
X-71358Y-15255D02*
X-73720D01*
X-72539Y-14074D01*
Y-15648D01*
X-71358Y-18010D02*
Y-16435D01*
X-72933Y-18010D01*
X-73326D01*
X-73720Y-17616D01*
Y-16829D01*
X-73326Y-16435D01*
X-64665Y-27657D02*
Y-26083D01*
X-65452D01*
X-65715Y-26346D01*
Y-26870D01*
X-65452Y-27133D01*
X-64665D01*
X-65190D02*
X-65715Y-27657D01*
X-67027D02*
Y-26083D01*
X-66240Y-26870D01*
X-67289D01*
X-68863Y-26083D02*
X-68339Y-26346D01*
X-67814Y-26870D01*
Y-27395D01*
X-68076Y-27657D01*
X-68601D01*
X-68863Y-27395D01*
Y-27133D01*
X-68601Y-26870D01*
X-67814D01*
D12*
X-82284Y-115945D02*
Y-67520D01*
X-19291Y-115945D02*
Y-67520D01*
X-82284Y-115945D02*
X-19291D01*
X-82284Y-67520D02*
X-19291D01*
X-23952Y133594D02*
X-20470Y130512D01*
X34252D01*
X-27559Y156021D02*
X-20588Y162992D01*
X34252Y130512D02*
Y162992D01*
X-27559Y136776D02*
X-23952Y133594D01*
X-27559Y136776D02*
Y156021D01*
X-20588Y162992D02*
X34252D01*
X105020Y81791D02*
X99116D01*
Y78839D01*
X100100Y77856D01*
X102068D01*
X103052Y78839D01*
Y81791D01*
Y79823D02*
X105020Y77856D01*
X100100Y75888D02*
X99116Y74904D01*
Y72936D01*
X100100Y71952D01*
X101084D01*
X102068Y72936D01*
Y73920D01*
Y72936D01*
X103052Y71952D01*
X104036D01*
X105020Y72936D01*
Y74904D01*
X104036Y75888D01*
X105020Y69984D02*
Y68016D01*
Y69000D01*
X99116D01*
X100100Y69984D01*
X126181Y22835D02*
X132085D01*
Y25787D01*
X131101Y26770D01*
X129133D01*
X128149Y25787D01*
Y22835D01*
Y24803D02*
X126181Y26770D01*
X131101Y28738D02*
X132085Y29722D01*
Y31690D01*
X131101Y32674D01*
X130117D01*
X129133Y31690D01*
Y30706D01*
Y31690D01*
X128149Y32674D01*
X127165D01*
X126181Y31690D01*
Y29722D01*
X127165Y28738D01*
X126181Y38578D02*
Y34642D01*
X130117Y38578D01*
X131101D01*
X132085Y37594D01*
Y35626D01*
X131101Y34642D01*
X15419Y62271D02*
X14763Y61615D01*
X13451D01*
X12795Y62271D01*
Y64895D01*
X13451Y65551D01*
X14763D01*
X15419Y64895D01*
X16731Y65551D02*
X18043D01*
X17387D01*
Y61615D01*
X16731Y62271D01*
X20011D02*
X20667Y61615D01*
X21979D01*
X22635Y62271D01*
Y64895D01*
X21979Y65551D01*
X20667D01*
X20011Y64895D01*
Y62271D01*
X-149999Y10302D02*
Y12402D01*
X-148425D01*
Y11352D01*
Y12402D01*
X-146850D01*
Y7154D02*
Y9253D01*
X-148950Y7154D01*
X-149474D01*
X-149999Y7679D01*
Y8728D01*
X-149474Y9253D01*
X134056Y17192D02*
Y19291D01*
X135630D01*
Y18242D01*
Y19291D01*
X137205D01*
Y16143D02*
Y15093D01*
Y15618D01*
X134056D01*
X134581Y16143D01*
D15*
X-19556Y144097D02*
X-22179D01*
X-20867D01*
Y150657D01*
X-22179Y151969D01*
X-23491D01*
X-24803Y150657D01*
X-12996Y151969D02*
Y144097D01*
X-16932Y148033D01*
X-11684D01*
X56695Y151281D02*
X55711Y152265D01*
Y154233D01*
X56695Y155217D01*
X60630D01*
X61614Y154233D01*
Y152265D01*
X60630Y151281D01*
Y149313D02*
X61614Y148329D01*
Y146361D01*
X60630Y145377D01*
X56695D01*
X55711Y146361D01*
Y148329D01*
X56695Y149313D01*
X57678D01*
X58662Y148329D01*
Y145377D01*
D16*
X29626Y100000D02*
Y107871D01*
X25690D01*
X24378Y106560D01*
Y103936D01*
X25690Y102624D01*
X29626D01*
X27002D02*
X24378Y100000D01*
X16507Y107871D02*
X21755D01*
Y100000D01*
X16507D01*
X21755Y103936D02*
X19131D01*
X8635Y106560D02*
X9947Y107871D01*
X12571D01*
X13883Y106560D01*
Y101312D01*
X12571Y100000D01*
X9947D01*
X8635Y101312D01*
Y103936D01*
X11259D01*
X6011Y100000D02*
X3388D01*
X4700D01*
Y107871D01*
X6011Y106560D01*
D20*
X58071Y107481D02*
Y110630D01*
X59645D01*
X60170Y110105D01*
Y108006D01*
X59645Y107481D01*
X58071D01*
X62794Y110630D02*
Y107481D01*
X61219Y109056D01*
X63319D01*
X-142127Y13780D02*
X-142520Y13387D01*
X-143307D01*
X-143701Y13780D01*
Y15355D01*
X-143307Y15748D01*
X-142520D01*
X-142127Y15355D01*
X-141339Y15748D02*
Y13387D01*
X-139765Y15748D01*
Y13387D01*
X-138978Y15748D02*
X-138191D01*
X-138584D01*
Y13387D01*
X-138978Y13780D01*
X-137010Y15748D02*
X-136223D01*
X-136617D01*
Y13387D01*
X-137010Y13780D01*
X114764Y-44095D02*
X116338D01*
X116732Y-44489D01*
Y-45276D01*
X116338Y-45669D01*
X114764D01*
X114370Y-45276D01*
Y-44489D01*
X115157Y-44882D02*
X114370Y-44095D01*
Y-44489D02*
X114764Y-44095D01*
X114370Y-42127D02*
X116732D01*
X115551Y-43308D01*
Y-41734D01*
X-94980Y-44980D02*
Y-43406D01*
X-94586Y-43013D01*
X-93799D01*
X-93405Y-43406D01*
Y-44980D01*
X-93799Y-45374D01*
X-94586D01*
X-94193Y-44587D02*
X-94980Y-45374D01*
X-94586D02*
X-94980Y-44980D01*
X-97341Y-43013D02*
X-95767D01*
Y-44193D01*
X-96554Y-43800D01*
X-96948D01*
X-97341Y-44193D01*
Y-44980D01*
X-96948Y-45374D01*
X-96161D01*
X-95767Y-44980D01*
X63904Y-121324D02*
X62330Y-118597D01*
X63693Y-117810D01*
X64410Y-118002D01*
X65460Y-119820D01*
X65268Y-120537D01*
X63904Y-121324D01*
X65319Y-117477D02*
X65511Y-116761D01*
X66420Y-116236D01*
X67137Y-116428D01*
X68186Y-118246D01*
X67994Y-118963D01*
X67085Y-119487D01*
X66369Y-119295D01*
X66106Y-118841D01*
X66298Y-118124D01*
X67662Y-117337D01*
X2953Y40355D02*
Y43504D01*
X4527D01*
X5052Y42979D01*
Y40880D01*
X4527Y40355D01*
X2953D01*
X6101Y40880D02*
X6626Y40355D01*
X7676D01*
X8200Y40880D01*
Y41405D01*
X7676Y41930D01*
X7151D01*
X7676D01*
X8200Y42454D01*
Y42979D01*
X7676Y43504D01*
X6626D01*
X6101Y42979D01*
X119390Y45275D02*
X119784Y45669D01*
X120571D01*
X120965Y45275D01*
Y43701D01*
X120571Y43307D01*
X119784D01*
X119390Y43701D01*
X118603Y43307D02*
Y45669D01*
X117029Y43307D01*
Y45669D01*
X116242Y43307D02*
X115454D01*
X115848D01*
Y45669D01*
X116242Y45275D01*
X114274D02*
X113880Y45669D01*
X113093D01*
X112699Y45275D01*
Y43701D01*
X113093Y43307D01*
X113880D01*
X114274Y43701D01*
Y45275D01*
X-88386Y-15944D02*
X-88780Y-16338D01*
X-89567D01*
X-89961Y-15944D01*
Y-14370D01*
X-89567Y-13976D01*
X-88780D01*
X-88386Y-14370D01*
X-87599Y-13976D02*
Y-16338D01*
X-86025Y-13976D01*
Y-16338D01*
X-85238Y-13976D02*
X-84451D01*
X-84844D01*
Y-16338D01*
X-85238Y-15944D01*
X-81696Y-13976D02*
X-83270D01*
X-81696Y-15551D01*
Y-15944D01*
X-82089Y-16338D01*
X-82876D01*
X-83270Y-15944D01*
X-26476Y76476D02*
X-29625D01*
Y74902D01*
X-29100Y74377D01*
X-28051D01*
X-27526Y74902D01*
Y76476D01*
Y75427D02*
X-26476Y74377D01*
X-29625Y71229D02*
Y73328D01*
X-26476D01*
Y71229D01*
X-28051Y73328D02*
Y72278D01*
X-29100Y68080D02*
X-29625Y68605D01*
Y69654D01*
X-29100Y70179D01*
X-27001D01*
X-26476Y69654D01*
Y68605D01*
X-27001Y68080D01*
X-28051D01*
Y69130D01*
X-26476Y64931D02*
Y67031D01*
X-28575Y64931D01*
X-29100D01*
X-29625Y65456D01*
Y66506D01*
X-29100Y67031D01*
D202*
X145866Y-65650D02*
Y-61221D01*
Y-61122D02*
X148622D01*
Y-65650D02*
Y-65453D01*
Y-61122D01*
X145866Y-65650D02*
X148622D01*
X108327Y52815D02*
Y83209D01*
X93051D02*
X108327D01*
X93051Y52815D02*
Y83209D01*
Y52815D02*
X108327D01*
X122874Y21417D02*
Y51811D01*
Y21417D02*
X138150D01*
Y51811D01*
X122874D02*
X138150D01*
X130059Y2697D02*
X138839D01*
X130059Y20138D02*
X138839D01*
X130059Y2697D02*
Y20138D01*
X138839Y2697D02*
Y20138D01*
X-153996Y-4193D02*
X-145217D01*
X-153996Y13248D02*
X-145217D01*
X-153996Y-4193D02*
Y13248D01*
X-145217Y-4193D02*
Y13248D01*
D203*
X146910Y-61555D02*
X148091D01*
Y-62146D01*
X147894Y-62342D01*
X147107D01*
X146910Y-62146D01*
Y-61555D01*
X148091Y-62736D02*
Y-63129D01*
Y-62933D01*
X146910D01*
X147107Y-62736D01*
Y-63720D02*
X146910Y-63917D01*
Y-64310D01*
X147107Y-64507D01*
X147894D01*
X148091Y-64310D01*
Y-63917D01*
X147894Y-63720D01*
X147107D01*
D204*
X-77106Y-30966D02*
Y-33261D01*
X-77565Y-33720D01*
X-78484D01*
X-78943Y-33261D01*
Y-30966D01*
X-81698D02*
X-80780Y-31425D01*
X-79861Y-32343D01*
Y-33261D01*
X-80321Y-33720D01*
X-81239D01*
X-81698Y-33261D01*
Y-32802D01*
X-81239Y-32343D01*
X-79861D01*
M02*
