G04*
G04 #@! TF.GenerationSoftware,Altium Limited,Altium Designer,21.9.1 (22)*
G04*
G04 Layer_Color=128*
%FSLAX25Y25*%
%MOIN*%
G70*
G04*
G04 #@! TF.SameCoordinates,BA265606-766D-4053-9833-5615DE46E1CD*
G04*
G04*
G04 #@! TF.FilePolarity,Positive*
G04*
G01*
G75*
%ADD206C,0.00200*%
%ADD209C,0.00050*%
D206*
X-138778Y-41909D02*
X-134841D01*
X-136809Y-43878D02*
Y-39941D01*
X-112797Y-56910D02*
X-108860D01*
X-110828Y-58878D02*
Y-54941D01*
X22629Y67693D02*
X24991D01*
X23810Y66512D02*
Y68874D01*
X22647Y57897D02*
X25009D01*
X23828Y56716D02*
Y59079D01*
X45669Y137500D02*
X48425D01*
X47047Y136122D02*
Y138878D01*
X65354Y137500D02*
X68110D01*
X66732Y136122D02*
Y138878D01*
X93146Y101610D02*
X110075D01*
X101610Y93146D02*
Y110075D01*
X-110076Y101612D02*
X-93147D01*
X-101612Y93147D02*
Y110076D01*
X-110076Y-101612D02*
X-93147D01*
X-101612Y-110076D02*
Y-93147D01*
X93147Y-101612D02*
X110076D01*
X101612Y-110076D02*
Y-93147D01*
X66892Y236D02*
X67892D01*
X67392Y-264D02*
Y736D01*
X66892Y7461D02*
X67892D01*
X67392Y6961D02*
Y7961D01*
X66892Y-6988D02*
X67892D01*
X67392Y-7488D02*
Y-6488D01*
X59667Y7461D02*
X60667D01*
X60167Y6961D02*
Y7961D01*
X59667Y236D02*
X60667D01*
X60167Y-264D02*
Y736D01*
X59667Y-6988D02*
X60667D01*
X60167Y-7488D02*
Y-6488D01*
X63279Y3848D02*
X64280D01*
X63779Y3348D02*
Y4348D01*
X63279Y-3376D02*
X64280D01*
X63779Y-3876D02*
Y-2876D01*
X70504Y3848D02*
X71504D01*
X71004Y3348D02*
Y4348D01*
X70504Y-3376D02*
X71504D01*
X71004Y-3876D02*
Y-2876D01*
X56055Y3848D02*
X57055D01*
X56555Y3348D02*
Y4348D01*
X56055Y-3376D02*
X57055D01*
X56555Y-3876D02*
Y-2876D01*
X136260Y66722D02*
X138819D01*
X137539Y65443D02*
Y68002D01*
X126713Y83258D02*
X129271D01*
X127992Y81979D02*
Y84538D01*
X133818Y95032D02*
X136574D01*
X135196Y93654D02*
Y96410D01*
X149960Y67074D02*
X152716D01*
X151338Y65696D02*
Y68452D01*
X110455Y-117788D02*
X114786D01*
X112621Y-119953D02*
Y-115622D01*
X102264Y-123524D02*
X106595D01*
X104429Y-125689D02*
Y-121358D01*
X94072Y-129259D02*
X98403D01*
X96238Y-131425D02*
Y-127094D01*
X85881Y-134995D02*
X90211D01*
X88046Y-137161D02*
Y-132830D01*
X-8563Y24685D02*
X-4232D01*
X-6398Y22520D02*
Y26850D01*
X-8563Y44685D02*
X-4232D01*
X-6398Y42520D02*
Y46850D01*
X-8563Y34685D02*
X-4232D01*
X-6398Y32520D02*
Y36850D01*
X8268Y146457D02*
X26378D01*
X17323Y137402D02*
Y155512D01*
X-20079Y146457D02*
X-1969D01*
X-11024Y137402D02*
Y155512D01*
X86618Y-8760D02*
X87800D01*
X87209Y-9351D02*
Y-8170D01*
X-139567Y-33957D02*
X-138386D01*
X-138976Y-34547D02*
Y-33366D01*
X-136909Y-12992D02*
X-135728D01*
X-136319Y-13583D02*
Y-12402D01*
X-123530Y-68015D02*
X-122348D01*
X-122939Y-68606D02*
Y-67425D01*
X-145866Y-61713D02*
X-144685D01*
X-145276Y-62303D02*
Y-61122D01*
X-66831Y64468D02*
X-65650D01*
X-66240Y63878D02*
Y65059D01*
X-65551Y29823D02*
X-64370D01*
X-64961Y29232D02*
Y30413D01*
X-12894Y10138D02*
X-11713D01*
X-12303Y9547D02*
Y10728D01*
X-17126Y2854D02*
X-15945D01*
X-16535Y2264D02*
Y3445D01*
X-32087Y-886D02*
X-30906D01*
X-31496Y-1476D02*
Y-295D01*
X-14961Y24114D02*
X-13780D01*
X-14370Y23524D02*
Y24705D01*
X112303Y81201D02*
X113484D01*
X112894Y80610D02*
Y81791D01*
X-122343Y37303D02*
X-121161D01*
X-121752Y36713D02*
Y37894D01*
X-134153Y46850D02*
X-132972D01*
X-133563Y46260D02*
Y47441D01*
Y62402D02*
X-132382D01*
X-132972Y61811D02*
Y62992D01*
X-165354Y10925D02*
X-164173D01*
X-164764Y10335D02*
Y11516D01*
X-165551Y-295D02*
X-164370D01*
X-164961Y-886D02*
Y295D01*
X104331Y65354D02*
X105512D01*
X104921Y64764D02*
Y65945D01*
X98327Y71457D02*
X99508D01*
X98917Y70866D02*
Y72047D01*
X111221Y75984D02*
X112402D01*
X111811Y75394D02*
Y76575D01*
X82579Y45669D02*
X83760D01*
X83169Y45079D02*
Y46260D01*
X145713Y58366D02*
X146894D01*
X146303Y57776D02*
Y58957D01*
X148381Y58366D02*
X149563D01*
X148972Y57776D02*
Y58957D01*
X94291Y-17826D02*
X95473D01*
X94882Y-18417D02*
Y-17235D01*
X94291Y-20494D02*
X95473D01*
X94882Y-21085D02*
Y-19904D01*
X-123031Y-97638D02*
X-121850D01*
X-122441Y-98228D02*
Y-97047D01*
X-117618Y-114173D02*
X-116437D01*
X-117028Y-114764D02*
Y-113583D01*
X-96358Y-127559D02*
X-95177D01*
X-95768Y-128150D02*
Y-126969D01*
X-93799Y-116929D02*
X-92618D01*
X-93209Y-117520D02*
Y-116339D01*
X-89075Y-101575D02*
X-87894D01*
X-88484Y-102165D02*
Y-100984D01*
X-84449Y-123622D02*
X-83268D01*
X-83858Y-124213D02*
Y-123031D01*
X-84449Y-118504D02*
X-83268D01*
X-83858Y-119095D02*
Y-117913D01*
X-84449Y-112992D02*
X-83268D01*
X-83858Y-113583D02*
Y-112402D01*
X-84350Y-137500D02*
X-83169D01*
X-83760Y-138091D02*
Y-136909D01*
X-83034Y-107844D02*
X-81852D01*
X-82443Y-108435D02*
Y-107254D01*
X-83034Y-102726D02*
X-81852D01*
X-82443Y-103317D02*
Y-102136D01*
X-83034Y-98002D02*
X-81852D01*
X-82443Y-98593D02*
Y-97411D01*
X-78937Y-123622D02*
X-77756D01*
X-78347Y-124213D02*
Y-123031D01*
X-77522Y-108927D02*
X-76341D01*
X-76931Y-109518D02*
Y-108337D01*
X-73819Y-123622D02*
X-72638D01*
X-73228Y-124213D02*
Y-123031D01*
X-73782Y-108927D02*
X-72600D01*
X-73191Y-109518D02*
Y-108337D01*
X-71223Y-104596D02*
X-70041D01*
X-70632Y-105187D02*
Y-104006D01*
X-71026Y-100463D02*
X-69845D01*
X-70435Y-101053D02*
Y-99872D01*
X-70238Y-108927D02*
X-69057D01*
X-69648Y-109518D02*
Y-108337D01*
X-68701Y-123622D02*
X-67520D01*
X-68110Y-124213D02*
Y-123031D01*
X-66498Y-108927D02*
X-65317D01*
X-65908Y-109518D02*
Y-108337D01*
X-66339Y-129134D02*
X-65158D01*
X-65748Y-129724D02*
Y-128543D01*
X-63976Y-143307D02*
X-62795D01*
X-63386Y-143898D02*
Y-142717D01*
X-63583Y-123622D02*
X-62402D01*
X-62992Y-124213D02*
Y-123031D01*
X-63053Y-108927D02*
X-61872D01*
X-62463Y-109518D02*
Y-108337D01*
X-60396Y-104596D02*
X-59215D01*
X-59805Y-105187D02*
Y-104006D01*
X-60199Y-100463D02*
X-59018D01*
X-59608Y-101053D02*
Y-99872D01*
X-59411Y-108927D02*
X-58230D01*
X-58821Y-109518D02*
Y-108337D01*
X-58858Y-123622D02*
X-57677D01*
X-58268Y-124213D02*
Y-123031D01*
X-58071Y-132677D02*
X-56890D01*
X-57480Y-133268D02*
Y-132087D01*
X-57677Y-140551D02*
X-56496D01*
X-57087Y-141142D02*
Y-139961D01*
X-140650Y-70472D02*
X-139469D01*
X-140059Y-71063D02*
Y-69882D01*
X-134252Y-85335D02*
X-133071D01*
X-133661Y-85925D02*
Y-84744D01*
X-115847Y-85433D02*
X-114665D01*
X-115256Y-86024D02*
Y-84842D01*
X-111024Y-75492D02*
X-109843D01*
X-110433Y-76083D02*
Y-74902D01*
X-99114Y-79528D02*
X-97933D01*
X-98524Y-80118D02*
Y-78937D01*
X-90945Y-87992D02*
X-89764D01*
X-90354Y-88583D02*
Y-87402D01*
X-84055Y-66929D02*
X-82874D01*
X-83465Y-67520D02*
Y-66339D01*
X-83034Y-93179D02*
X-81852D01*
X-82443Y-93770D02*
Y-92589D01*
X-83034Y-88160D02*
X-81852D01*
X-82443Y-88750D02*
Y-87569D01*
X-83034Y-83337D02*
X-81852D01*
X-82443Y-83927D02*
Y-82746D01*
X-83034Y-73494D02*
X-81852D01*
X-82443Y-74085D02*
Y-72904D01*
X-83034Y-78317D02*
X-81852D01*
X-82443Y-78908D02*
Y-77726D01*
X-77522Y-74675D02*
X-76341D01*
X-76931Y-75266D02*
Y-74085D01*
X-73782Y-74675D02*
X-72600D01*
X-73191Y-75266D02*
Y-74085D01*
X-71026Y-96526D02*
X-69845D01*
X-70435Y-97116D02*
Y-95935D01*
X-71026Y-92589D02*
X-69845D01*
X-70435Y-93179D02*
Y-91998D01*
X-71026Y-89045D02*
X-69845D01*
X-70435Y-89636D02*
Y-88455D01*
X-71026Y-85699D02*
X-69845D01*
X-70435Y-86289D02*
Y-85108D01*
X-71026Y-82451D02*
X-69845D01*
X-70435Y-83041D02*
Y-81860D01*
X-71026Y-78711D02*
X-69845D01*
X-70435Y-79301D02*
Y-78120D01*
X-70238Y-74675D02*
X-69057D01*
X-69648Y-75266D02*
Y-74085D01*
X-66498Y-74675D02*
X-65317D01*
X-65908Y-75266D02*
Y-74085D01*
X-63053Y-74675D02*
X-61872D01*
X-62463Y-75266D02*
Y-74085D01*
X-60199Y-96526D02*
X-59018D01*
X-59608Y-97116D02*
Y-95935D01*
X-60199Y-92589D02*
X-59018D01*
X-59608Y-93179D02*
Y-91998D01*
X-60199Y-89045D02*
X-59018D01*
X-59608Y-89636D02*
Y-88455D01*
X-60199Y-85699D02*
X-59018D01*
X-59608Y-86289D02*
Y-85108D01*
X-60199Y-78711D02*
X-59018D01*
X-59608Y-79301D02*
Y-78120D01*
X-60199Y-82451D02*
X-59018D01*
X-59608Y-83041D02*
Y-81860D01*
X-59411Y-74675D02*
X-58230D01*
X-58821Y-75266D02*
Y-74085D01*
X-55179Y-74675D02*
X-53998D01*
X-54589Y-75266D02*
Y-74085D01*
X-53740Y-123622D02*
X-52559D01*
X-53150Y-124213D02*
Y-123031D01*
X-52953Y-128740D02*
X-51772D01*
X-52362Y-129331D02*
Y-128150D01*
X-52559Y-136221D02*
X-51378D01*
X-51968Y-136811D02*
Y-135630D01*
X-50984Y-141732D02*
X-49803D01*
X-50394Y-142323D02*
Y-141142D01*
X-46260Y-120472D02*
X-45079D01*
X-45669Y-121063D02*
Y-119882D01*
X-45866Y-149213D02*
X-44685D01*
X-45276Y-149803D02*
Y-148622D01*
X-45472Y-153937D02*
X-44291D01*
X-44882Y-154528D02*
Y-153347D01*
X-45079Y-142520D02*
X-43898D01*
X-44488Y-143110D02*
Y-141929D01*
X-44291Y-158661D02*
X-43110D01*
X-43701Y-159252D02*
Y-158071D01*
X-43270Y-109911D02*
X-42089D01*
X-42679Y-110502D02*
Y-109321D01*
X-41634Y-162894D02*
X-40453D01*
X-41043Y-163484D02*
Y-162303D01*
X-39961Y-151279D02*
X-38780D01*
X-39370Y-151870D02*
Y-150689D01*
X-39567Y-131890D02*
X-38386D01*
X-38976Y-132480D02*
Y-131299D01*
X-39469Y-155610D02*
X-38287D01*
X-38878Y-156201D02*
Y-155020D01*
X-39370Y-146850D02*
X-38189D01*
X-38780Y-147441D02*
Y-146260D01*
X-39136Y-109911D02*
X-37955D01*
X-38545Y-110502D02*
Y-109321D01*
X-39075Y-143012D02*
X-37894D01*
X-38484Y-143602D02*
Y-142421D01*
X-36220Y-159252D02*
X-35039D01*
X-35630Y-159843D02*
Y-158661D01*
X-35789Y-109911D02*
X-34608D01*
X-35199Y-110502D02*
Y-109321D01*
X-35630Y-164173D02*
X-34449D01*
X-35039Y-164764D02*
Y-163583D01*
X-34055Y-142520D02*
X-32874D01*
X-33465Y-143110D02*
Y-141929D01*
X-32443Y-109911D02*
X-31262D01*
X-31852Y-110502D02*
Y-109321D01*
X-32382Y-123327D02*
X-31201D01*
X-31791Y-123917D02*
Y-122736D01*
X-32283Y-127756D02*
X-31102D01*
X-31693Y-128347D02*
Y-127165D01*
X-32185Y-132480D02*
X-31004D01*
X-31594Y-133071D02*
Y-131890D01*
X-31299Y-158957D02*
X-30118D01*
X-30709Y-159547D02*
Y-158366D01*
X-31299Y-139764D02*
X-30118D01*
X-30709Y-140354D02*
Y-139173D01*
X-29331Y-165354D02*
X-28150D01*
X-28740Y-165945D02*
Y-164764D01*
X-28900Y-109911D02*
X-27718D01*
X-28309Y-110502D02*
Y-109321D01*
X-26083Y-159055D02*
X-24902D01*
X-25492Y-159646D02*
Y-158465D01*
X-25258Y-109911D02*
X-24077D01*
X-24667Y-110502D02*
Y-109321D01*
X-55179Y-108927D02*
X-53998D01*
X-54589Y-109518D02*
Y-108337D01*
X-51341Y-108927D02*
X-50160D01*
X-50750Y-109518D02*
Y-108337D01*
X-51341Y-74675D02*
X-50160D01*
X-50750Y-75266D02*
Y-74085D01*
X-47305Y-106466D02*
X-46124D01*
X-46715Y-107057D02*
Y-105876D01*
X-47305Y-101250D02*
X-46124D01*
X-46715Y-101840D02*
Y-100660D01*
X-47305Y-96624D02*
X-46124D01*
X-46715Y-97215D02*
Y-96034D01*
X-47305Y-86782D02*
X-46124D01*
X-46715Y-87372D02*
Y-86191D01*
X-47305Y-76939D02*
X-46124D01*
X-46715Y-77530D02*
Y-76348D01*
X-47305Y-81860D02*
X-46124D01*
X-46715Y-82451D02*
Y-81270D01*
X-47305Y-91703D02*
X-46124D01*
X-46715Y-92293D02*
Y-91112D01*
X-43663Y-74577D02*
X-42482D01*
X-43073Y-75167D02*
Y-73986D01*
X-39726Y-74577D02*
X-38545D01*
X-39136Y-75167D02*
Y-73986D01*
X-36774Y-104498D02*
X-35592D01*
X-36183Y-105089D02*
Y-103908D01*
X-36577Y-100364D02*
X-35396D01*
X-35986Y-100955D02*
Y-99774D01*
X-36577Y-96427D02*
X-35396D01*
X-35986Y-97018D02*
Y-95837D01*
X-36577Y-78612D02*
X-35396D01*
X-35986Y-79203D02*
Y-78022D01*
X-36577Y-82352D02*
X-35396D01*
X-35986Y-82943D02*
Y-81762D01*
X-36577Y-92490D02*
X-35396D01*
X-35986Y-93081D02*
Y-91900D01*
X-36577Y-85600D02*
X-35396D01*
X-35986Y-86191D02*
Y-85010D01*
X-36577Y-88947D02*
X-35396D01*
X-35986Y-89537D02*
Y-88356D01*
X-35789Y-74577D02*
X-34608D01*
X-35199Y-75167D02*
Y-73986D01*
X-32246Y-74577D02*
X-31065D01*
X-31655Y-75167D02*
Y-73986D01*
X-28900Y-74577D02*
X-27718D01*
X-28309Y-75167D02*
Y-73986D01*
X-26636Y-104498D02*
X-25455D01*
X-26045Y-105089D02*
Y-103908D01*
X-26439Y-100364D02*
X-25258D01*
X-25848Y-100955D02*
Y-99774D01*
X-26439Y-96427D02*
X-25258D01*
X-25848Y-97018D02*
Y-95837D01*
X-26439Y-92490D02*
X-25258D01*
X-25848Y-93081D02*
Y-91900D01*
X-26439Y-85600D02*
X-25258D01*
X-25848Y-86191D02*
Y-85010D01*
X-26439Y-78612D02*
X-25258D01*
X-25848Y-79203D02*
Y-78022D01*
X-26439Y-88947D02*
X-25258D01*
X-25848Y-89537D02*
Y-88356D01*
X-26439Y-82352D02*
X-25258D01*
X-25848Y-82943D02*
Y-81762D01*
X-25652Y-74577D02*
X-24471D01*
X-25061Y-75167D02*
Y-73986D01*
X-162008Y-15551D02*
X-160827D01*
X-161417Y-16142D02*
Y-14961D01*
X-161909Y-25394D02*
X-160728D01*
X-161319Y-25984D02*
Y-24803D01*
X-160925Y26476D02*
X-159744D01*
X-160335Y25886D02*
Y27067D01*
X-159252Y-37795D02*
X-158071D01*
X-158661Y-38386D02*
Y-37205D01*
X-153347Y-29232D02*
X-152165D01*
X-152756Y-29823D02*
Y-28642D01*
X-153347Y-19980D02*
X-152165D01*
X-152756Y-20571D02*
Y-19390D01*
X-152264Y-50098D02*
X-151083D01*
X-151673Y-50689D02*
Y-49508D01*
X-134744Y26181D02*
X-133563D01*
X-134153Y25591D02*
Y26772D01*
X-127067Y28937D02*
X-125886D01*
X-126476Y28346D02*
Y29528D01*
X-118701Y24508D02*
X-117520D01*
X-118110Y23917D02*
Y25098D01*
X-110039Y25098D02*
X-108858D01*
X-109449Y24508D02*
Y25689D01*
X-105315Y7874D02*
X-104134D01*
X-104724Y7283D02*
Y8465D01*
X-103740Y31201D02*
X-102559D01*
X-103150Y30610D02*
Y31791D01*
X-99114Y7677D02*
X-97933D01*
X-98524Y7087D02*
Y8268D01*
X-97441Y-1969D02*
X-96260D01*
X-96850Y-2559D02*
Y-1378D01*
X-96653Y1969D02*
X-95472D01*
X-96063Y1378D02*
Y2559D01*
X-95177Y-12402D02*
X-93996D01*
X-94587Y-12992D02*
Y-11811D01*
X-92028Y16535D02*
X-90847D01*
X-91437Y15945D02*
Y17126D01*
X-92028Y32382D02*
X-90847D01*
X-91437Y31791D02*
Y32972D01*
X-91831Y24508D02*
X-90650D01*
X-91240Y23917D02*
Y25098D01*
X-86122Y-53740D02*
X-84941D01*
X-85532Y-54331D02*
Y-53150D01*
X-84055Y-61811D02*
X-82874D01*
X-83465Y-62402D02*
Y-61221D01*
X-81595Y-23524D02*
X-80413D01*
X-81004Y-24114D02*
Y-22933D01*
X-79331Y-61811D02*
X-78150D01*
X-78740Y-62402D02*
Y-61221D01*
X-157283Y38583D02*
X-156102D01*
X-156693Y37992D02*
Y39173D01*
X-156595Y58071D02*
X-155413D01*
X-156004Y57480D02*
Y58661D01*
X-147835Y72539D02*
X-146653D01*
X-147244Y71949D02*
Y73130D01*
X-140945Y86811D02*
X-139764D01*
X-140354Y86221D02*
Y87402D01*
X-132776Y36417D02*
X-131595D01*
X-132185Y35827D02*
Y37008D01*
X-132087Y73425D02*
X-130905D01*
X-131496Y72835D02*
Y74016D01*
X-123865Y55589D02*
X-122684D01*
X-123275Y54998D02*
Y56179D01*
X-121690Y48281D02*
X-120509D01*
X-121099Y47690D02*
Y48871D01*
X-119980Y91142D02*
X-118799D01*
X-119390Y90551D02*
Y91732D01*
X-116557Y43762D02*
X-115376D01*
X-115967Y43171D02*
Y44352D01*
X-116240Y62205D02*
X-115059D01*
X-115650Y61614D02*
Y62795D01*
X-112795Y70866D02*
X-111614D01*
X-112205Y70276D02*
Y71457D01*
X-110827Y83071D02*
X-109646D01*
X-110236Y82480D02*
Y83661D01*
X-109055Y60630D02*
X-107874D01*
X-108465Y60039D02*
Y61221D01*
X-103224Y60331D02*
X-102043D01*
X-102633Y59740D02*
Y60921D01*
X-103112Y41307D02*
X-101931D01*
X-102522Y40717D02*
Y41898D01*
X-100984Y82677D02*
X-99803D01*
X-100394Y82087D02*
Y83268D01*
X-96850Y132283D02*
X-95669D01*
X-96260Y131693D02*
Y132874D01*
X-95079Y70866D02*
X-93898D01*
X-94488Y70276D02*
Y71457D01*
X-95079Y82677D02*
X-93898D01*
X-94488Y82087D02*
Y83268D01*
X-92680Y41586D02*
X-91499D01*
X-92089Y40995D02*
Y42177D01*
X-92224Y60433D02*
X-91043D01*
X-91634Y59842D02*
Y61024D01*
X-89173Y82677D02*
X-87992D01*
X-88583Y82087D02*
Y83268D01*
X-88779Y114764D02*
X-87598D01*
X-88189Y114173D02*
Y115354D01*
X-85630Y93898D02*
X-84449D01*
X-85039Y93307D02*
Y94488D01*
X-83268Y64961D02*
X-82087D01*
X-82677Y64370D02*
Y65551D01*
X-83268Y76772D02*
X-82087D01*
X-82677Y76181D02*
Y77362D01*
X-83268Y82677D02*
X-82087D01*
X-82677Y82087D02*
Y83268D01*
X-82972Y141142D02*
X-81791D01*
X-82382Y140551D02*
Y141732D01*
X-33268Y-61024D02*
X-32087D01*
X-32677Y-61614D02*
Y-60433D01*
X-26575Y-61024D02*
X-25394D01*
X-25984Y-61614D02*
Y-60433D01*
X-53347Y-61024D02*
X-52165D01*
X-52756Y-61614D02*
Y-60433D01*
X-39567Y-60630D02*
X-38386D01*
X-38976Y-61221D02*
Y-60039D01*
X-46260Y-60630D02*
X-45079D01*
X-45669Y-61221D02*
Y-60039D01*
X-62008Y-58268D02*
X-60827D01*
X-61417Y-58858D02*
Y-57677D01*
X-62106Y-53150D02*
X-60925D01*
X-61516Y-53740D02*
Y-52559D01*
X-53642Y-50295D02*
X-52461D01*
X-53051Y-50886D02*
Y-49705D01*
X-45472Y-49606D02*
X-44291D01*
X-44882Y-50197D02*
Y-49016D01*
X-28937Y-49606D02*
X-27756D01*
X-28346Y-50197D02*
Y-49016D01*
X-58465Y-48425D02*
X-57284D01*
X-57874Y-49016D02*
Y-47835D01*
X-69882Y-48031D02*
X-68701D01*
X-69291Y-48622D02*
Y-47441D01*
X-69095Y-41732D02*
X-67913D01*
X-68504Y-42323D02*
Y-41142D01*
X-56496Y-40650D02*
X-55315D01*
X-55905Y-41240D02*
Y-40059D01*
X-62795Y-40551D02*
X-61614D01*
X-62205Y-41142D02*
Y-39961D01*
X-50689Y-40354D02*
X-49508D01*
X-50098Y-40945D02*
Y-39764D01*
X-46260Y-39173D02*
X-45079D01*
X-45669Y-39764D02*
Y-38583D01*
X-37500Y-33071D02*
X-36319D01*
X-36909Y-33661D02*
Y-32480D01*
X-43504Y-19390D02*
X-42323D01*
X-42913Y-19980D02*
Y-18799D01*
X-59449Y-19291D02*
X-58268D01*
X-58858Y-19882D02*
Y-18701D01*
X-56496Y-8661D02*
X-55315D01*
X-55905Y-9252D02*
Y-8071D01*
X-36811Y-5118D02*
X-35630D01*
X-36220Y-5709D02*
Y-4528D01*
X-58071Y787D02*
X-56890D01*
X-57480Y197D02*
Y1378D01*
X-36516Y3051D02*
X-35335D01*
X-35925Y2461D02*
Y3642D01*
X-62795Y6299D02*
X-61614D01*
X-62205Y5709D02*
Y6890D01*
X-25981Y6466D02*
X-24800D01*
X-25391Y5875D02*
Y7056D01*
X-41142Y10138D02*
X-39961D01*
X-40551Y9547D02*
Y10728D01*
X-54035Y10827D02*
X-52854D01*
X-53445Y10236D02*
Y11417D01*
X-65453Y14665D02*
X-64272D01*
X-64862Y14075D02*
Y15256D01*
X-55295Y16318D02*
X-54114D01*
X-54704Y15728D02*
Y16909D01*
X-30118Y17717D02*
X-28937D01*
X-29528Y17126D02*
Y18307D01*
X-77362Y82677D02*
X-76181D01*
X-76772Y82087D02*
Y83268D01*
X-73622Y59941D02*
X-72441D01*
X-73032Y59350D02*
Y60532D01*
X-73479Y71114D02*
X-72298D01*
X-72889Y70524D02*
Y71705D01*
X-72567Y76345D02*
X-71386D01*
X-71977Y75754D02*
Y76935D01*
X-70965Y120866D02*
X-69784D01*
X-70374Y120276D02*
Y121457D01*
X-69587Y49707D02*
X-68406D01*
X-68997Y49116D02*
Y50297D01*
X-67126Y101870D02*
X-65945D01*
X-66535Y101279D02*
Y102461D01*
X-63583Y153740D02*
X-62402D01*
X-62992Y153150D02*
Y154331D01*
X-63189Y118307D02*
X-62008D01*
X-62598Y117717D02*
Y118898D01*
X-56693Y142126D02*
X-55512D01*
X-56102Y141535D02*
Y142717D01*
X-53740Y34646D02*
X-52559D01*
X-53150Y34055D02*
Y35236D01*
X-53653Y27265D02*
X-52472D01*
X-53062Y26675D02*
Y27856D01*
X-51768Y44172D02*
X-50587D01*
X-51177Y43582D02*
Y44763D01*
X-48228Y35433D02*
X-47047D01*
X-47638Y34843D02*
Y36024D01*
X-47736Y106398D02*
X-46555D01*
X-47146Y105807D02*
Y106988D01*
X-47736Y161024D02*
X-46555D01*
X-47146Y160433D02*
Y161614D01*
X-46752Y154429D02*
X-45571D01*
X-46161Y153839D02*
Y155020D01*
X-44783Y84941D02*
X-43602D01*
X-44193Y84350D02*
Y85532D01*
X-41929Y41339D02*
X-40748D01*
X-41339Y40748D02*
Y41929D01*
X-41631Y18041D02*
X-40450D01*
X-41040Y17450D02*
Y18631D01*
X-38730Y112648D02*
X-37549D01*
X-38140Y112057D02*
Y113238D01*
X-36417Y97539D02*
X-35236D01*
X-35827Y96949D02*
Y98130D01*
X-36024Y29528D02*
X-34843D01*
X-35433Y28937D02*
Y30118D01*
X-34055Y121752D02*
X-32874D01*
X-33465Y121161D02*
Y122343D01*
X-30709Y144390D02*
X-29528D01*
X-30118Y143799D02*
Y144980D01*
X-30709Y148819D02*
X-29528D01*
X-30118Y148228D02*
Y149409D01*
X-30709Y135433D02*
X-29528D01*
X-30118Y134843D02*
Y136024D01*
X-30709Y140059D02*
X-29528D01*
X-30118Y139469D02*
Y140650D01*
X-30610Y153445D02*
X-29429D01*
X-30020Y152854D02*
Y154035D01*
X-30315Y157874D02*
X-29134D01*
X-29724Y157283D02*
Y158465D01*
X-29509Y43564D02*
X-28328D01*
X-28918Y42974D02*
Y44155D01*
X-27657Y133268D02*
X-26476D01*
X-27067Y132677D02*
Y133858D01*
X-24311Y-122933D02*
X-23130D01*
X-23720Y-123524D02*
Y-122343D01*
X-24213Y-132677D02*
X-23031D01*
X-23622Y-133268D02*
Y-132087D01*
X-24213Y-127854D02*
X-23031D01*
X-23622Y-128445D02*
Y-127264D01*
X-24016Y-137205D02*
X-22835D01*
X-23425Y-137795D02*
Y-136614D01*
Y-165354D02*
X-22244D01*
X-22835Y-165945D02*
Y-164764D01*
X-22244Y-142126D02*
X-21063D01*
X-21654Y-142717D02*
Y-141535D01*
X-21715Y-109911D02*
X-20534D01*
X-21124Y-110502D02*
Y-109321D01*
X-20866Y-158957D02*
X-19685D01*
X-20276Y-159547D02*
Y-158366D01*
X-19094Y-121260D02*
X-17913D01*
X-18504Y-121850D02*
Y-120669D01*
X-18171Y-96624D02*
X-16990D01*
X-17581Y-97215D02*
Y-96034D01*
X-18171Y-106466D02*
X-16990D01*
X-17581Y-107057D02*
Y-105876D01*
X-18171Y-101447D02*
X-16990D01*
X-17581Y-102037D02*
Y-100856D01*
X-18171Y-91506D02*
X-16990D01*
X-17581Y-92097D02*
Y-90915D01*
X-18171Y-86782D02*
X-16990D01*
X-17581Y-87372D02*
Y-86191D01*
X-17126Y-116929D02*
X-15945D01*
X-16535Y-117520D02*
Y-116339D01*
X-17126Y-164961D02*
X-15945D01*
X-16535Y-165551D02*
Y-164370D01*
X-11220Y-164173D02*
X-10039D01*
X-10630Y-164764D02*
Y-163583D01*
X-7677Y-159843D02*
X-6496D01*
X-7087Y-160433D02*
Y-159252D01*
X-15945Y-158465D02*
X-14764D01*
X-15354Y-159055D02*
Y-157874D01*
X10039Y-157283D02*
X11220D01*
X10630Y-157874D02*
Y-156693D01*
X-7677Y-154331D02*
X-6496D01*
X-7087Y-154921D02*
Y-153740D01*
X-15846Y-153839D02*
X-14665D01*
X-15256Y-154429D02*
Y-153248D01*
X-7677Y-149606D02*
X-6496D01*
X-7087Y-150197D02*
Y-149016D01*
X-16043Y-149213D02*
X-14862D01*
X-15453Y-149803D02*
Y-148622D01*
X-7677Y-144882D02*
X-6496D01*
X-7087Y-145472D02*
Y-144291D01*
X-16142Y-144193D02*
X-14961D01*
X-15551Y-144783D02*
Y-143602D01*
X31890Y-143504D02*
X33071D01*
X32480Y-144095D02*
Y-142913D01*
X-7677Y-139370D02*
X-6496D01*
X-7087Y-139961D02*
Y-138779D01*
X4134Y-138976D02*
X5315D01*
X4724Y-139567D02*
Y-138386D01*
X-16732Y-137402D02*
X-15551D01*
X-16142Y-137992D02*
Y-136811D01*
X-7677Y-134252D02*
X-6496D01*
X-7087Y-134843D02*
Y-133661D01*
X-7677Y-129528D02*
X-6496D01*
X-7087Y-130118D02*
Y-128937D01*
X-7677Y-124803D02*
X-6496D01*
X-7087Y-125394D02*
Y-124213D01*
X28740Y-123917D02*
X29921D01*
X29331Y-124508D02*
Y-123327D01*
X-7677Y-119685D02*
X-6496D01*
X-7087Y-120276D02*
Y-119095D01*
X-7677Y-114567D02*
X-6496D01*
X-7087Y-115157D02*
Y-113976D01*
X-16732Y-112205D02*
X-15551D01*
X-16142Y-112795D02*
Y-111614D01*
X17717Y-111417D02*
X18898D01*
X18307Y-112008D02*
Y-110827D01*
X32480Y-109153D02*
X33661D01*
X33071Y-109744D02*
Y-108563D01*
X-7677Y-109055D02*
X-6496D01*
X-7087Y-109646D02*
Y-108465D01*
X24606Y-108957D02*
X25787D01*
X25197Y-109547D02*
Y-108366D01*
X295Y-106004D02*
X1476D01*
X886Y-106595D02*
Y-105413D01*
X-7677Y-103937D02*
X-6496D01*
X-7087Y-104528D02*
Y-103347D01*
X-7677Y-99213D02*
X-6496D01*
X-7087Y-99803D02*
Y-98622D01*
X-7677Y-93701D02*
X-6496D01*
X-7087Y-94291D02*
Y-93110D01*
X10236Y-91339D02*
X11417D01*
X10827Y-91929D02*
Y-90748D01*
X-7677Y-88976D02*
X-6496D01*
X-7087Y-89567D02*
Y-88386D01*
X-7677Y-84252D02*
X-6496D01*
X-7087Y-84842D02*
Y-83661D01*
X-18171Y-81565D02*
X-16990D01*
X-17581Y-82156D02*
Y-80974D01*
X-19809Y-61772D02*
X-18628D01*
X-19219Y-62362D02*
Y-61181D01*
X-23819Y-32796D02*
X-22638D01*
X-23228Y-33387D02*
Y-32206D01*
X-18171Y-76939D02*
X-16990D01*
X-17581Y-77530D02*
Y-76348D01*
X-21911Y-74577D02*
X-20730D01*
X-21321Y-75167D02*
Y-73986D01*
X-23001Y24467D02*
X-21820D01*
X-22411Y23877D02*
Y25058D01*
X-17126Y-32796D02*
X-15945D01*
X-16535Y-33387D02*
Y-32206D01*
X-16339Y-71260D02*
X-15157D01*
X-15748Y-71850D02*
Y-70669D01*
X-15945Y-65748D02*
X-14764D01*
X-15354Y-66339D02*
Y-65158D01*
X-10433Y-32796D02*
X-9252D01*
X-9843Y-33387D02*
Y-32206D01*
X-7677Y-79134D02*
X-6496D01*
X-7087Y-79724D02*
Y-78543D01*
X-7677Y-74016D02*
X-6496D01*
X-7087Y-74606D02*
Y-73425D01*
X-7677Y-42126D02*
X-6496D01*
X-7087Y-42717D02*
Y-41535D01*
X-7677Y-68504D02*
X-6496D01*
X-7087Y-69095D02*
Y-67913D01*
X-7677Y-63386D02*
X-6496D01*
X-7087Y-63976D02*
Y-62795D01*
X-7677Y-58661D02*
X-6496D01*
X-7087Y-59252D02*
Y-58071D01*
X10039Y-79331D02*
X11220D01*
X10630Y-79921D02*
Y-78740D01*
X6496Y-71063D02*
X7677D01*
X7087Y-71653D02*
Y-70472D01*
X984Y-70866D02*
X2165D01*
X1575Y-71457D02*
Y-70276D01*
X34744Y-70472D02*
X35925D01*
X35335Y-71063D02*
Y-69882D01*
X29035Y-60728D02*
X30217D01*
X29626Y-61319D02*
Y-60138D01*
X24803Y-50000D02*
X25984D01*
X25394Y-50591D02*
Y-49409D01*
X-7677Y-49606D02*
X-6496D01*
X-7087Y-50197D02*
Y-49016D01*
X6102Y-49508D02*
X7283D01*
X6693Y-50098D02*
Y-48917D01*
X37500Y-45866D02*
X38681D01*
X38091Y-46457D02*
Y-45276D01*
X3248Y-41732D02*
X4429D01*
X3839Y-42323D02*
Y-41142D01*
X20276Y-39370D02*
X21457D01*
X20866Y-39961D02*
Y-38780D01*
X17126Y-36614D02*
X18307D01*
X17717Y-37205D02*
Y-36024D01*
X-7283Y-36220D02*
X-6102D01*
X-6693Y-36811D02*
Y-35630D01*
X16929Y-30315D02*
X18110D01*
X17520Y-30906D02*
Y-29724D01*
X32874Y-29921D02*
X34055D01*
X33465Y-30512D02*
Y-29331D01*
X32283Y-18701D02*
X33465D01*
X32874Y-19291D02*
Y-18110D01*
X15945Y-12716D02*
X17126D01*
X16535Y-13306D02*
Y-12125D01*
X31594Y-9154D02*
X32776D01*
X32185Y-9744D02*
Y-8563D01*
X16043Y98D02*
X17224D01*
X16634Y-492D02*
Y689D01*
X16142Y8465D02*
X17323D01*
X16732Y7874D02*
Y9055D01*
X30315Y8760D02*
X31496D01*
X30906Y8169D02*
Y9350D01*
X15945Y13780D02*
X17126D01*
X16535Y13189D02*
Y14370D01*
X15453Y19390D02*
X16634D01*
X16043Y18799D02*
Y19980D01*
X32874Y21260D02*
X34055D01*
X33465Y20669D02*
Y21850D01*
X6102Y24606D02*
X7283D01*
X6693Y24016D02*
Y25197D01*
X21457Y28740D02*
X22638D01*
X22047Y28150D02*
Y29331D01*
X15157Y30413D02*
X16339D01*
X15748Y29823D02*
Y31004D01*
X38681Y-143701D02*
X39862D01*
X39272Y-144291D02*
Y-143110D01*
X42913Y-48425D02*
X44094D01*
X43504Y-49016D02*
Y-47835D01*
X43799Y-140945D02*
X44980D01*
X44390Y-141535D02*
Y-140354D01*
X43898Y-87402D02*
X45079D01*
X44488Y-87992D02*
Y-86811D01*
X45965Y-115551D02*
X47146D01*
X46555Y-116142D02*
Y-114961D01*
X46063Y-148031D02*
X47244D01*
X46654Y-148622D02*
Y-147441D01*
X46555Y-135827D02*
X47736D01*
X47146Y-136417D02*
Y-135236D01*
X49311Y-97146D02*
X50492D01*
X49902Y-97736D02*
Y-96555D01*
X50394Y-75886D02*
X51575D01*
X50984Y-76476D02*
Y-75295D01*
X53051Y-56890D02*
X54232D01*
X53642Y-57480D02*
Y-56299D01*
X56693Y-69980D02*
X57874D01*
X57284Y-70571D02*
Y-69390D01*
X57579Y-45669D02*
X58760D01*
X58169Y-46260D02*
Y-45079D01*
X59646Y-129823D02*
X60827D01*
X60236Y-130413D02*
Y-129232D01*
X62205Y-45669D02*
X63386D01*
X62795Y-46260D02*
Y-45079D01*
X64468Y-86417D02*
X65650D01*
X65059Y-87008D02*
Y-85827D01*
X67913Y-57480D02*
X69095D01*
X68504Y-58071D02*
Y-56890D01*
X80807Y-143307D02*
X81988D01*
X81398Y-143898D02*
Y-142717D01*
X76575Y-134941D02*
X77756D01*
X77165Y-135531D02*
Y-134350D01*
X75000Y-125591D02*
X76181D01*
X75590Y-126181D02*
Y-125000D01*
X87008Y-122244D02*
X88189D01*
X87598Y-122835D02*
Y-121653D01*
X118701Y-112106D02*
X119882D01*
X119291Y-112697D02*
Y-111516D01*
X107087Y-112106D02*
X108268D01*
X107677Y-112697D02*
Y-111516D01*
X128445Y-98032D02*
X129626D01*
X129035Y-98622D02*
Y-97441D01*
X79429Y-93602D02*
X80610D01*
X80020Y-94193D02*
Y-93012D01*
X126378Y-88779D02*
X127559D01*
X126969Y-89370D02*
Y-88189D01*
X131201Y-87008D02*
X132382D01*
X131791Y-87598D02*
Y-86417D01*
X100394Y-80709D02*
X101575D01*
X100984Y-81299D02*
Y-80118D01*
X78248Y-78642D02*
X79429D01*
X78839Y-79232D02*
Y-78051D01*
X144980Y-78543D02*
X146161D01*
X145571Y-79134D02*
Y-77953D01*
X89468Y-72933D02*
X90650D01*
X90059Y-73524D02*
Y-72342D01*
X102756Y-64468D02*
X103937D01*
X103347Y-65059D02*
Y-63878D01*
X138484Y-62894D02*
X139665D01*
X139075Y-63484D02*
Y-62303D01*
X75394Y-57480D02*
X76575D01*
X75984Y-58071D02*
Y-56890D01*
X116043D02*
X117224D01*
X116634Y-57480D02*
Y-56299D01*
X90158Y-56791D02*
X91339D01*
X90748Y-57382D02*
Y-56201D01*
X82677Y-56496D02*
X83858D01*
X83268Y-57087D02*
Y-55905D01*
X157283Y-55315D02*
X158465D01*
X157874Y-55905D02*
Y-54724D01*
X101279Y-54134D02*
X102461D01*
X101870Y-54724D02*
Y-53543D01*
X148917Y-45669D02*
X150098D01*
X149508Y-46260D02*
Y-45079D01*
X94291Y-45669D02*
X95472D01*
X94882Y-46260D02*
Y-45079D01*
X152559Y-42028D02*
X153740D01*
X153150Y-42618D02*
Y-41437D01*
X160433Y-35827D02*
X161614D01*
X161024Y-36417D02*
Y-35236D01*
X42126Y-29528D02*
X43307D01*
X42717Y-30118D02*
Y-28937D01*
X53937Y-28740D02*
X55118D01*
X54528Y-29331D02*
Y-28150D01*
X71260Y-24114D02*
X72441D01*
X71850Y-24705D02*
Y-23524D01*
X77953Y-15157D02*
X79134D01*
X78543Y-15748D02*
Y-14567D01*
X43209Y-9350D02*
X44390D01*
X43799Y-9941D02*
Y-8760D01*
X85728Y-689D02*
X86910D01*
X86319Y-1280D02*
Y-98D01*
X44587Y39567D02*
X45768D01*
X45177Y38976D02*
Y40157D01*
X57677Y39764D02*
X58858D01*
X58268Y39173D02*
Y40354D01*
X67520Y40157D02*
X68701D01*
X68110Y39567D02*
Y40748D01*
X41043Y9449D02*
X42224D01*
X41634Y8858D02*
Y10039D01*
X65847Y16339D02*
X67028D01*
X66437Y15748D02*
Y16929D01*
X79724Y17717D02*
X80905D01*
X80315Y17126D02*
Y18307D01*
X82480Y20472D02*
X83661D01*
X83071Y19882D02*
Y21063D01*
X52461Y20866D02*
X53642D01*
X53051Y20276D02*
Y21457D01*
X86811Y22343D02*
X87992D01*
X87402Y21752D02*
Y22933D01*
X40059Y22539D02*
X41240D01*
X40650Y21949D02*
Y23130D01*
X68898Y22638D02*
X70079D01*
X69488Y22047D02*
Y23228D01*
X76870Y22835D02*
X78051D01*
X77461Y22244D02*
Y23425D01*
X71653Y37992D02*
X72835D01*
X72244Y37402D02*
Y38583D01*
X91732Y-29626D02*
X92913D01*
X92323Y-30217D02*
Y-29035D01*
X92421Y22441D02*
X93602D01*
X93012Y21850D02*
Y23031D01*
X109646Y23622D02*
X110827D01*
X110236Y23031D02*
Y24213D01*
X167618Y-13386D02*
X168799D01*
X168209Y-13976D02*
Y-12795D01*
X157677Y-12205D02*
X158858D01*
X158268Y-12795D02*
Y-11614D01*
X143110Y-10630D02*
X144291D01*
X143701Y-11220D02*
Y-10039D01*
X147441Y-9449D02*
X148622D01*
X148031Y-10039D02*
Y-8858D01*
X154921Y-9449D02*
X156102D01*
X155512Y-10039D02*
Y-8858D01*
X101279Y-5610D02*
X102461D01*
X101870Y-6201D02*
Y-5020D01*
X100394Y5315D02*
X101575D01*
X100984Y4724D02*
Y5906D01*
X105118Y5709D02*
X106299D01*
X105709Y5118D02*
Y6299D01*
X90354Y12303D02*
X91535D01*
X90945Y11713D02*
Y12894D01*
X162008Y19685D02*
X163189D01*
X162598Y19094D02*
Y20276D01*
X114370Y27165D02*
X115551D01*
X114961Y26575D02*
Y27756D01*
X109646Y27953D02*
X110827D01*
X110236Y27362D02*
Y28543D01*
X161516Y33465D02*
X162697D01*
X162106Y32874D02*
Y34055D01*
X145866Y35433D02*
X147047D01*
X146457Y34843D02*
Y36024D01*
X31890Y38189D02*
X33071D01*
X32480Y37598D02*
Y38780D01*
X43209Y105413D02*
X44390D01*
X43799Y104823D02*
Y106004D01*
X21457Y47638D02*
X22638D01*
X22047Y47047D02*
Y48228D01*
X36024Y49606D02*
X37205D01*
X36614Y49016D02*
Y50197D01*
X39961Y99606D02*
X41142D01*
X40551Y99016D02*
Y100197D01*
X45768Y94488D02*
X46949D01*
X46358Y93898D02*
Y95079D01*
X118307Y92126D02*
X119488D01*
X118898Y91535D02*
Y92716D01*
X122343Y59153D02*
X123524D01*
X122933Y58563D02*
Y59744D01*
X125000Y69685D02*
X126181D01*
X125591Y69095D02*
Y70276D01*
X127165Y106595D02*
X128347D01*
X127756Y106004D02*
Y107185D01*
X132776Y60138D02*
X133957D01*
X133366Y59547D02*
Y60728D01*
X155217Y60039D02*
X156398D01*
X155807Y59449D02*
Y60630D01*
X-24409Y130217D02*
X-23228D01*
X-23819Y129626D02*
Y130807D01*
X-18406Y129724D02*
X-17224D01*
X-17815Y129134D02*
Y130315D01*
X-12402Y129724D02*
X-11220D01*
X-11811Y129134D02*
Y130315D01*
X-6890Y129724D02*
X-5709D01*
X-6299Y129134D02*
Y130315D01*
X-2264Y129724D02*
X-1083D01*
X-1673Y129134D02*
Y130315D01*
X1673Y129724D02*
X2854D01*
X2264Y129134D02*
Y130315D01*
X5906Y129724D02*
X7087D01*
X6496Y129134D02*
Y130315D01*
X9449Y163878D02*
X10630D01*
X10039Y163287D02*
Y164469D01*
X10925Y129724D02*
X12106D01*
X11516Y129134D02*
Y130315D01*
X14370Y163878D02*
X15551D01*
X14961Y163287D02*
Y164469D01*
X16240Y129724D02*
X17421D01*
X16831Y129134D02*
Y130315D01*
X19291Y163878D02*
X20472D01*
X19882Y163287D02*
Y164469D01*
X21850Y129724D02*
X23031D01*
X22441Y129134D02*
Y130315D01*
X23622Y163878D02*
X24803D01*
X24213Y163287D02*
Y164469D01*
X27657Y129724D02*
X28839D01*
X28248Y129134D02*
Y130315D01*
X27756Y163878D02*
X28937D01*
X28346Y163287D02*
Y164469D01*
X32776Y162992D02*
X33957D01*
X33366Y162402D02*
Y163583D01*
X33071Y129724D02*
X34252D01*
X33661Y129134D02*
Y130315D01*
X35531Y160039D02*
X36713D01*
X36122Y159449D02*
Y160630D01*
X36024Y155315D02*
X37205D01*
X36614Y154724D02*
Y155905D01*
X38878Y129724D02*
X40059D01*
X39469Y129134D02*
Y130315D01*
X40551Y153347D02*
X41732D01*
X41142Y152756D02*
Y153937D01*
X62894Y148327D02*
X64075D01*
X63484Y147736D02*
Y148917D01*
X72342Y118110D02*
X73524D01*
X72933Y117520D02*
Y118701D01*
X80512Y117717D02*
X81693D01*
X81102Y117126D02*
Y118307D01*
X91142Y135039D02*
X92323D01*
X91732Y134449D02*
Y135630D01*
X110925Y110728D02*
X112106D01*
X111516Y110138D02*
Y111319D01*
X114862Y121358D02*
X116043D01*
X115453Y120768D02*
Y121949D01*
X63189Y64173D02*
X64370D01*
X63779Y63583D02*
Y64764D01*
X79724Y82185D02*
X80905D01*
X80315Y81595D02*
Y82776D01*
X81585Y64281D02*
X82766D01*
X82175Y63691D02*
Y64872D01*
X86713Y105413D02*
X87894D01*
X87303Y104823D02*
Y106004D01*
X91142Y91437D02*
X92323D01*
X91732Y90847D02*
Y92028D01*
X98622Y87106D02*
X99803D01*
X99213Y86516D02*
Y87697D01*
X-31890Y-7677D02*
X-30709D01*
X-31299Y-8268D02*
Y-7087D01*
D209*
X173228Y0D02*
G03*
X173228Y0I-173228J0D01*
G01*
M02*
