G04*
G04 #@! TF.GenerationSoftware,Altium Limited,Altium Designer,21.9.1 (22)*
G04*
G04 Layer_Color=65535*
%FSLAX25Y25*%
%MOIN*%
G70*
G04*
G04 #@! TF.SameCoordinates,BA265606-766D-4053-9833-5615DE46E1CD*
G04*
G04*
G04 #@! TF.FilePolarity,Positive*
G04*
G01*
G75*
%ADD10C,0.00500*%
%ADD11C,0.00394*%
%ADD12C,0.00787*%
%ADD13C,0.00984*%
%ADD14C,0.01260*%
%ADD15C,0.01181*%
%ADD16C,0.01575*%
%ADD17C,0.01600*%
%ADD18C,0.00600*%
%ADD19C,0.00276*%
%ADD20C,0.00591*%
%ADD21C,0.00800*%
%ADD22C,0.01000*%
G36*
X3086Y126719D02*
X3204D01*
Y126601D01*
X3086D01*
Y126482D01*
Y126364D01*
X2967D01*
Y126246D01*
X2849D01*
Y126128D01*
X2731D01*
Y126010D01*
X2613D01*
Y125892D01*
X2495D01*
Y125774D01*
X2377D01*
Y125655D01*
X2259D01*
Y125537D01*
X2140D01*
Y125419D01*
X2022D01*
Y125301D01*
X1904D01*
Y125183D01*
X1786D01*
Y125065D01*
X1668D01*
Y124946D01*
X1550D01*
Y124828D01*
X1431D01*
Y124710D01*
X1313D01*
Y124592D01*
X1195D01*
Y124474D01*
X1077D01*
Y124356D01*
X959D01*
Y124237D01*
X840D01*
Y124119D01*
X722D01*
Y124001D01*
X604D01*
Y123883D01*
X486D01*
Y123765D01*
X368D01*
Y123647D01*
X250D01*
Y123528D01*
X132D01*
Y123410D01*
X13D01*
Y123292D01*
X-105D01*
Y123174D01*
X-223D01*
Y123056D01*
X-341D01*
Y122938D01*
X-459D01*
Y122819D01*
X-577D01*
Y122701D01*
X-696D01*
Y122583D01*
X-814D01*
Y122465D01*
X-932D01*
Y122347D01*
X-1050D01*
Y122229D01*
X-1168D01*
Y122110D01*
X-1405D01*
Y121992D01*
X-1523D01*
Y121874D01*
X-1641D01*
Y121756D01*
X-1759D01*
Y121638D01*
Y121520D01*
X-1995D01*
Y121402D01*
Y121283D01*
X-1641D01*
Y121402D01*
X-696D01*
Y121283D01*
X-223D01*
Y121165D01*
X132D01*
Y121283D01*
X250D01*
Y121402D01*
X368D01*
Y121520D01*
X486D01*
Y121638D01*
X604D01*
Y121756D01*
X722D01*
Y121874D01*
X840D01*
Y121992D01*
X959D01*
Y122110D01*
X1077D01*
Y122229D01*
X1195D01*
Y122347D01*
X1313D01*
Y122465D01*
X1431D01*
Y122583D01*
X1550D01*
Y122701D01*
X1668D01*
Y122819D01*
X1786D01*
Y122938D01*
X1904D01*
Y123056D01*
X2022D01*
Y123174D01*
X2140D01*
Y123292D01*
X2259D01*
Y123410D01*
X2377D01*
Y123528D01*
X2495D01*
Y123647D01*
X2731D01*
Y123765D01*
X2967D01*
Y123647D01*
Y123528D01*
X2849D01*
Y123410D01*
X2731D01*
Y123292D01*
X2613D01*
Y123174D01*
X2495D01*
Y123056D01*
X2377D01*
Y122938D01*
X2259D01*
Y122819D01*
X2140D01*
Y122701D01*
X2022D01*
Y122583D01*
X1904D01*
Y122465D01*
X1786D01*
Y122347D01*
X1668D01*
Y122229D01*
X1550D01*
Y122110D01*
X1431D01*
Y121992D01*
X1313D01*
Y121874D01*
X1195D01*
Y121756D01*
X1077D01*
Y121638D01*
X959D01*
Y121520D01*
X840D01*
Y121402D01*
X722D01*
Y121283D01*
X604D01*
Y121165D01*
X486D01*
Y121047D01*
Y120929D01*
Y120811D01*
X722D01*
Y120693D01*
X840D01*
Y120574D01*
X959D01*
Y120456D01*
X1077D01*
Y120338D01*
X1195D01*
Y120220D01*
X1313D01*
Y120102D01*
X1431D01*
Y119984D01*
Y119866D01*
X1668D01*
Y119984D01*
X1786D01*
Y120102D01*
X1904D01*
Y120220D01*
X2022D01*
Y120338D01*
X2140D01*
Y120456D01*
X2259D01*
Y120574D01*
X2377D01*
Y120693D01*
X2495D01*
Y120811D01*
X2613D01*
Y120929D01*
X2731D01*
Y121047D01*
X2849D01*
Y121165D01*
X2967D01*
Y121283D01*
X3086D01*
Y121402D01*
X3204D01*
Y121520D01*
X3322D01*
Y121638D01*
X3440D01*
Y121756D01*
X3558D01*
Y121874D01*
X3676D01*
Y121992D01*
X3795D01*
Y122110D01*
X3913D01*
Y122229D01*
X4031D01*
Y122347D01*
X4149D01*
Y122465D01*
X4267D01*
Y122583D01*
X4385D01*
Y122701D01*
X4504D01*
Y122819D01*
X4622D01*
Y122938D01*
X4740D01*
Y123056D01*
X4858D01*
Y123174D01*
X4976D01*
Y123292D01*
X5094D01*
Y123410D01*
X5212D01*
Y123528D01*
X5331D01*
Y123647D01*
X5449D01*
Y123765D01*
X5567D01*
Y123883D01*
X5685D01*
Y124001D01*
X5922D01*
Y123883D01*
Y123765D01*
Y123647D01*
X5803D01*
Y123528D01*
X5685D01*
Y123410D01*
X5567D01*
Y123292D01*
X5449D01*
Y123174D01*
X5331D01*
Y123056D01*
X5212D01*
Y122938D01*
X5094D01*
Y122819D01*
X4976D01*
Y122701D01*
X4858D01*
Y122583D01*
X4740D01*
Y122465D01*
X4622D01*
Y122347D01*
X4504D01*
Y122229D01*
X4385D01*
Y122110D01*
X4267D01*
Y121992D01*
X4149D01*
Y121874D01*
X4031D01*
Y121756D01*
X3913D01*
Y121638D01*
X3795D01*
Y121520D01*
X3676D01*
Y121402D01*
X3558D01*
Y121283D01*
X3440D01*
Y121165D01*
X3322D01*
Y121047D01*
X3204D01*
Y120929D01*
X3086D01*
Y120811D01*
X2967D01*
Y120693D01*
X2849D01*
Y120574D01*
X2731D01*
Y120456D01*
X2613D01*
Y120338D01*
X2495D01*
Y120220D01*
X2377D01*
Y120102D01*
X2259D01*
Y119984D01*
X2140D01*
Y119866D01*
X2022D01*
Y119747D01*
X1904D01*
Y119629D01*
X1668D01*
Y119511D01*
Y119393D01*
Y119275D01*
X1786D01*
Y119157D01*
Y119038D01*
Y118920D01*
X1904D01*
Y118802D01*
Y118684D01*
Y118566D01*
Y118447D01*
Y118329D01*
Y118211D01*
Y118093D01*
Y117975D01*
Y117857D01*
Y117739D01*
Y117620D01*
Y117502D01*
X2022D01*
Y117620D01*
X2140D01*
Y117739D01*
X2259D01*
Y117857D01*
X2377D01*
Y117975D01*
X2495D01*
Y118093D01*
X2613D01*
Y118211D01*
X2731D01*
Y118329D01*
X2849D01*
Y118447D01*
X2967D01*
Y118566D01*
X3086D01*
Y118684D01*
X3204D01*
Y118802D01*
X3322D01*
Y118920D01*
X3440D01*
Y119038D01*
X3558D01*
Y119157D01*
X3676D01*
Y119275D01*
X3795D01*
Y119393D01*
X3913D01*
Y119511D01*
X4031D01*
Y119629D01*
X4149D01*
Y119747D01*
X4267D01*
Y119866D01*
X4385D01*
Y119984D01*
X4504D01*
Y120102D01*
X4622D01*
Y120220D01*
X4740D01*
Y120338D01*
X4858D01*
Y120456D01*
X4976D01*
Y120574D01*
X5094D01*
Y120693D01*
X5212D01*
Y120811D01*
X5331D01*
Y120929D01*
X5567D01*
Y121047D01*
X5803D01*
Y120929D01*
Y120811D01*
X5685D01*
Y120693D01*
Y120574D01*
X5567D01*
Y120456D01*
X5449D01*
Y120338D01*
X5331D01*
Y120220D01*
X5212D01*
Y120102D01*
X5094D01*
Y119984D01*
X4976D01*
Y119866D01*
X4740D01*
Y119747D01*
X4622D01*
Y119629D01*
X4504D01*
Y119511D01*
X4385D01*
Y119393D01*
X4267D01*
Y119275D01*
X4149D01*
Y119157D01*
X4031D01*
Y119038D01*
X3913D01*
Y118920D01*
X3795D01*
Y118802D01*
X3676D01*
Y118684D01*
X3558D01*
Y118566D01*
X3440D01*
Y118447D01*
X3322D01*
Y118329D01*
X3204D01*
Y118211D01*
X3086D01*
Y118093D01*
X2967D01*
Y117975D01*
X2849D01*
Y117857D01*
X2731D01*
Y117739D01*
X2613D01*
Y117620D01*
X2495D01*
Y117502D01*
X2377D01*
Y117384D01*
X2259D01*
Y117266D01*
X2140D01*
Y117148D01*
X2022D01*
Y117030D01*
X1904D01*
Y116911D01*
X1786D01*
Y116793D01*
X1668D01*
Y116675D01*
X1550D01*
Y116557D01*
X1431D01*
Y116439D01*
X1313D01*
Y116321D01*
X1195D01*
Y116202D01*
X1077D01*
Y116084D01*
X959D01*
Y115966D01*
X840D01*
Y115848D01*
X722D01*
Y115730D01*
X486D01*
Y115612D01*
X368D01*
Y115494D01*
X13D01*
Y115375D01*
X-341D01*
Y115257D01*
X-2114D01*
Y115375D01*
X-2468D01*
Y115494D01*
X-2704D01*
Y115612D01*
X-2822D01*
Y115730D01*
X-3059D01*
Y115848D01*
X-3177D01*
Y115966D01*
X-3295D01*
Y116084D01*
X-3413D01*
Y116202D01*
X-3531D01*
Y116321D01*
X-3650D01*
Y116439D01*
Y116557D01*
X-3768D01*
Y116675D01*
X-3886D01*
Y116793D01*
Y116911D01*
X-4004D01*
Y117030D01*
Y117148D01*
X-4122D01*
Y117266D01*
Y117384D01*
Y117502D01*
X-4240D01*
Y117620D01*
Y117739D01*
Y117857D01*
Y117975D01*
Y118093D01*
Y118211D01*
Y118329D01*
Y118447D01*
Y118566D01*
Y118684D01*
Y118802D01*
Y118920D01*
Y119038D01*
X-4122D01*
Y119157D01*
Y119275D01*
Y119393D01*
X-4004D01*
Y119511D01*
Y119629D01*
Y119747D01*
X-3886D01*
Y119866D01*
X-3768D01*
Y119984D01*
Y120102D01*
X-3650D01*
Y120220D01*
X-3531D01*
Y120338D01*
X-3413D01*
Y120456D01*
X-3295D01*
Y120574D01*
X-3177D01*
Y120693D01*
X-3059D01*
Y120811D01*
X-2941D01*
Y120929D01*
X-2822D01*
Y121047D01*
X-2704D01*
Y121165D01*
X-2586D01*
Y121283D01*
X-2468D01*
Y121402D01*
X-2350D01*
Y121520D01*
X-2232D01*
Y121638D01*
X-2114D01*
Y121756D01*
X-1995D01*
Y121874D01*
X-1877D01*
Y121992D01*
X-1759D01*
Y122110D01*
X-1641D01*
Y122229D01*
X-1523D01*
Y122347D01*
X-1405D01*
Y122465D01*
X-1286D01*
Y122583D01*
X-1168D01*
Y122701D01*
X-1050D01*
Y122819D01*
X-932D01*
Y122938D01*
X-814D01*
Y123056D01*
X-696D01*
Y123174D01*
X-577D01*
Y123292D01*
X-459D01*
Y123410D01*
X-341D01*
Y123528D01*
X-223D01*
Y123647D01*
X-105D01*
Y123765D01*
X13D01*
Y123883D01*
X132D01*
Y124001D01*
X250D01*
Y124119D01*
X368D01*
Y124237D01*
X486D01*
Y124356D01*
X604D01*
Y124474D01*
X722D01*
Y124592D01*
X840D01*
Y124710D01*
X959D01*
Y124828D01*
X1077D01*
Y124946D01*
X1195D01*
Y125065D01*
X1313D01*
Y125183D01*
X1431D01*
Y125301D01*
X1550D01*
Y125419D01*
X1668D01*
Y125537D01*
X1786D01*
Y125655D01*
X1904D01*
Y125774D01*
X2022D01*
Y125892D01*
X2140D01*
Y126010D01*
X2259D01*
Y126128D01*
X2377D01*
Y126246D01*
X2495D01*
Y126364D01*
X2613D01*
Y126482D01*
X2731D01*
Y126601D01*
X2849D01*
Y126719D01*
X2967D01*
Y126837D01*
X3086D01*
Y126719D01*
D02*
G37*
G36*
X47278Y124119D02*
Y124001D01*
Y123883D01*
Y123765D01*
Y123647D01*
Y123528D01*
Y123410D01*
Y123292D01*
Y123174D01*
Y123056D01*
X47396D01*
Y122938D01*
Y122819D01*
Y122701D01*
Y122583D01*
Y122465D01*
Y122347D01*
Y122229D01*
Y122110D01*
Y121992D01*
Y121874D01*
Y121756D01*
X47514D01*
Y121638D01*
Y121520D01*
Y121402D01*
Y121283D01*
Y121165D01*
Y121047D01*
Y120929D01*
Y120811D01*
Y120693D01*
Y120574D01*
Y120456D01*
Y120338D01*
X47632D01*
Y120220D01*
Y120102D01*
Y119984D01*
Y119866D01*
Y119747D01*
X47750D01*
Y119629D01*
X47868D01*
Y119511D01*
Y119393D01*
X47987D01*
Y119275D01*
X48223D01*
Y119157D01*
X48577D01*
Y119038D01*
X49523D01*
Y118920D01*
X50704D01*
Y118802D01*
X51768D01*
Y118684D01*
X52004D01*
Y118566D01*
X50941D01*
Y118447D01*
X49877D01*
Y118329D01*
X48814D01*
Y118211D01*
X48223D01*
Y118093D01*
X47987D01*
Y117975D01*
X47868D01*
Y117857D01*
Y117739D01*
X47750D01*
Y117620D01*
X47632D01*
Y117502D01*
Y117384D01*
Y117266D01*
Y117148D01*
Y117030D01*
X47514D01*
Y116911D01*
Y116793D01*
Y116675D01*
Y116557D01*
Y116439D01*
Y116321D01*
Y116202D01*
Y116084D01*
Y115966D01*
Y115848D01*
Y115730D01*
Y115612D01*
X47396D01*
Y115494D01*
Y115375D01*
Y115257D01*
Y115139D01*
Y115021D01*
Y114903D01*
Y114785D01*
Y114666D01*
Y114548D01*
Y114430D01*
Y114312D01*
X47278D01*
Y114194D01*
Y114076D01*
Y113957D01*
Y113839D01*
Y113721D01*
Y113603D01*
Y113485D01*
Y113367D01*
Y113249D01*
Y113130D01*
X47160D01*
Y113249D01*
Y113367D01*
Y113485D01*
Y113603D01*
Y113721D01*
Y113839D01*
Y113957D01*
Y114076D01*
Y114194D01*
Y114312D01*
X47041D01*
Y114430D01*
Y114548D01*
Y114666D01*
Y114785D01*
Y114903D01*
Y115021D01*
Y115139D01*
Y115257D01*
Y115375D01*
Y115494D01*
X46923D01*
Y115612D01*
Y115730D01*
Y115848D01*
Y115966D01*
Y116084D01*
Y116202D01*
Y116321D01*
Y116439D01*
Y116557D01*
Y116675D01*
Y116793D01*
Y116911D01*
X46805D01*
Y117030D01*
Y117148D01*
Y117266D01*
Y117384D01*
Y117502D01*
Y117620D01*
X46687D01*
Y117739D01*
X46569D01*
Y117857D01*
Y117975D01*
X46451D01*
Y118093D01*
X46214D01*
Y118211D01*
X45623D01*
Y118329D01*
X44560D01*
Y118447D01*
X43378D01*
Y118566D01*
X42788D01*
Y118684D01*
X42669D01*
Y118802D01*
X43733D01*
Y118920D01*
X44796D01*
Y119038D01*
X45860D01*
Y119157D01*
X46214D01*
Y119275D01*
X46451D01*
Y119393D01*
X46569D01*
Y119511D01*
Y119629D01*
X46687D01*
Y119747D01*
X46805D01*
Y119866D01*
Y119984D01*
Y120102D01*
Y120220D01*
Y120338D01*
Y120456D01*
X46923D01*
Y120574D01*
Y120693D01*
Y120811D01*
Y120929D01*
Y121047D01*
Y121165D01*
Y121283D01*
Y121402D01*
Y121520D01*
Y121638D01*
Y121756D01*
Y121874D01*
X47041D01*
Y121992D01*
Y122110D01*
Y122229D01*
Y122347D01*
Y122465D01*
Y122583D01*
Y122701D01*
Y122819D01*
Y122938D01*
Y123056D01*
X47160D01*
Y123174D01*
Y123292D01*
Y123410D01*
Y123528D01*
Y123647D01*
Y123765D01*
Y123883D01*
Y124001D01*
Y124119D01*
Y124237D01*
X47278D01*
Y124119D01*
D02*
G37*
G36*
X-6604Y116202D02*
Y116084D01*
Y115966D01*
Y115848D01*
Y115730D01*
Y115612D01*
Y115494D01*
Y115375D01*
Y115257D01*
Y115139D01*
Y115021D01*
Y114903D01*
Y114785D01*
Y114666D01*
Y114548D01*
Y114430D01*
Y114312D01*
Y114194D01*
Y114076D01*
Y113957D01*
Y113839D01*
Y113721D01*
Y113603D01*
Y113485D01*
Y113367D01*
Y113249D01*
Y113130D01*
Y113012D01*
Y112894D01*
Y112776D01*
Y112658D01*
Y112540D01*
Y112421D01*
Y112303D01*
Y112185D01*
Y112067D01*
Y111949D01*
Y111830D01*
Y111712D01*
Y111594D01*
Y111476D01*
Y111358D01*
Y111240D01*
Y111122D01*
Y111003D01*
Y110885D01*
Y110767D01*
Y110649D01*
Y110531D01*
Y110413D01*
Y110294D01*
Y110176D01*
Y110058D01*
Y109940D01*
Y109822D01*
Y109704D01*
Y109585D01*
Y109467D01*
Y109349D01*
Y109231D01*
Y109113D01*
Y108995D01*
Y108877D01*
Y108758D01*
Y108640D01*
Y108522D01*
Y108404D01*
Y108286D01*
Y108168D01*
Y108049D01*
Y107931D01*
Y107813D01*
Y107695D01*
Y107577D01*
Y107459D01*
Y107340D01*
Y107222D01*
Y107104D01*
Y106986D01*
Y106868D01*
Y106750D01*
Y106631D01*
Y106513D01*
X-8258D01*
Y106631D01*
Y106750D01*
Y106868D01*
Y106986D01*
Y107104D01*
Y107222D01*
Y107340D01*
Y107459D01*
Y107577D01*
Y107695D01*
Y107813D01*
Y107931D01*
Y108049D01*
Y108168D01*
Y108286D01*
Y108404D01*
Y108522D01*
Y108640D01*
Y108758D01*
Y108877D01*
Y108995D01*
Y109113D01*
Y109231D01*
Y109349D01*
Y109467D01*
Y109585D01*
Y109704D01*
Y109822D01*
Y109940D01*
Y110058D01*
Y110176D01*
Y110294D01*
Y110413D01*
Y110531D01*
X-14875D01*
Y110413D01*
Y110294D01*
Y110176D01*
Y110058D01*
Y109940D01*
Y109822D01*
Y109704D01*
Y109585D01*
Y109467D01*
Y109349D01*
Y109231D01*
Y109113D01*
Y108995D01*
Y108877D01*
Y108758D01*
Y108640D01*
Y108522D01*
Y108404D01*
Y108286D01*
Y108168D01*
Y108049D01*
Y107931D01*
Y107813D01*
Y107695D01*
Y107577D01*
Y107459D01*
Y107340D01*
Y107222D01*
Y107104D01*
Y106986D01*
Y106868D01*
Y106750D01*
Y106631D01*
Y106513D01*
X-16529D01*
Y106631D01*
Y106750D01*
Y106868D01*
Y106986D01*
Y107104D01*
Y107222D01*
Y107340D01*
Y107459D01*
Y107577D01*
Y107695D01*
Y107813D01*
Y107931D01*
Y108049D01*
Y108168D01*
Y108286D01*
Y108404D01*
Y108522D01*
Y108640D01*
Y108758D01*
Y108877D01*
Y108995D01*
Y109113D01*
Y109231D01*
Y109349D01*
Y109467D01*
Y109585D01*
Y109704D01*
Y109822D01*
Y109940D01*
Y110058D01*
Y110176D01*
Y110294D01*
Y110413D01*
Y110531D01*
Y110649D01*
Y110767D01*
Y110885D01*
Y111003D01*
Y111122D01*
Y111240D01*
Y111358D01*
Y111476D01*
Y111594D01*
Y111712D01*
Y111830D01*
Y111949D01*
Y112067D01*
Y112185D01*
Y112303D01*
Y112421D01*
Y112540D01*
Y112658D01*
Y112776D01*
Y112894D01*
Y113012D01*
Y113130D01*
Y113249D01*
Y113367D01*
Y113485D01*
Y113603D01*
Y113721D01*
Y113839D01*
Y113957D01*
Y114076D01*
Y114194D01*
Y114312D01*
Y114430D01*
Y114548D01*
Y114666D01*
Y114785D01*
Y114903D01*
Y115021D01*
Y115139D01*
Y115257D01*
Y115375D01*
Y115494D01*
Y115612D01*
Y115730D01*
Y115848D01*
Y115966D01*
Y116084D01*
Y116202D01*
X-14875D01*
Y116084D01*
Y115966D01*
Y115848D01*
Y115730D01*
Y115612D01*
Y115494D01*
Y115375D01*
Y115257D01*
Y115139D01*
Y115021D01*
Y114903D01*
Y114785D01*
Y114666D01*
Y114548D01*
Y114430D01*
Y114312D01*
Y114194D01*
Y114076D01*
Y113957D01*
Y113839D01*
Y113721D01*
Y113603D01*
Y113485D01*
Y113367D01*
Y113249D01*
Y113130D01*
Y113012D01*
Y112894D01*
Y112776D01*
Y112658D01*
Y112540D01*
Y112421D01*
Y112303D01*
Y112185D01*
X-8258D01*
Y112303D01*
Y112421D01*
Y112540D01*
Y112658D01*
Y112776D01*
Y112894D01*
Y113012D01*
Y113130D01*
Y113249D01*
Y113367D01*
Y113485D01*
Y113603D01*
Y113721D01*
Y113839D01*
Y113957D01*
Y114076D01*
Y114194D01*
Y114312D01*
Y114430D01*
Y114548D01*
Y114666D01*
Y114785D01*
Y114903D01*
Y115021D01*
Y115139D01*
Y115257D01*
Y115375D01*
Y115494D01*
Y115612D01*
Y115730D01*
Y115848D01*
Y115966D01*
Y116084D01*
Y116202D01*
Y116321D01*
X-6604D01*
Y116202D01*
D02*
G37*
G36*
X2967Y113721D02*
X2849D01*
Y113603D01*
Y113485D01*
Y113367D01*
Y113249D01*
Y113130D01*
Y113012D01*
Y112894D01*
Y112776D01*
Y112658D01*
Y112540D01*
Y112421D01*
Y112303D01*
Y112185D01*
Y112067D01*
Y111949D01*
Y111830D01*
Y111712D01*
Y111594D01*
Y111476D01*
Y111358D01*
Y111240D01*
Y111122D01*
Y111003D01*
Y110885D01*
Y110767D01*
Y110649D01*
Y110531D01*
Y110413D01*
Y110294D01*
Y110176D01*
Y110058D01*
Y109940D01*
Y109822D01*
Y109704D01*
Y109585D01*
Y109467D01*
Y109349D01*
Y109231D01*
Y109113D01*
Y108995D01*
Y108877D01*
Y108758D01*
Y108640D01*
Y108522D01*
Y108404D01*
Y108286D01*
Y108168D01*
Y108049D01*
Y107931D01*
Y107813D01*
Y107695D01*
Y107577D01*
Y107459D01*
X2967D01*
Y107340D01*
X2849D01*
Y107222D01*
Y107104D01*
Y106986D01*
Y106868D01*
X2731D01*
Y106750D01*
X2613D01*
Y106631D01*
X2495D01*
Y106513D01*
X-2822D01*
Y106631D01*
X-3177D01*
Y106750D01*
X-3531D01*
Y106868D01*
X-3768D01*
Y106986D01*
X-3886D01*
Y107104D01*
X-4122D01*
Y107222D01*
X-4240D01*
Y107340D01*
X-4358D01*
Y107459D01*
X-4477D01*
Y107577D01*
X-4595D01*
Y107695D01*
X-4713D01*
Y107813D01*
Y107931D01*
Y108049D01*
X-4831D01*
Y108168D01*
X-4949D01*
Y108286D01*
Y108404D01*
Y108522D01*
X-5068D01*
Y108640D01*
Y108758D01*
Y108877D01*
X-5186D01*
Y108995D01*
Y109113D01*
Y109231D01*
Y109349D01*
Y109467D01*
Y109585D01*
Y109704D01*
Y109822D01*
Y109940D01*
Y110058D01*
Y110176D01*
Y110294D01*
Y110413D01*
Y110531D01*
Y110649D01*
Y110767D01*
Y110885D01*
Y111003D01*
Y111122D01*
Y111240D01*
Y111358D01*
Y111476D01*
Y111594D01*
Y111712D01*
Y111830D01*
Y111949D01*
Y112067D01*
Y112185D01*
Y112303D01*
Y112421D01*
Y112540D01*
Y112658D01*
Y112776D01*
Y112894D01*
Y113012D01*
Y113130D01*
Y113249D01*
Y113367D01*
Y113485D01*
Y113603D01*
Y113721D01*
Y113839D01*
X-3650D01*
Y113721D01*
Y113603D01*
Y113485D01*
Y113367D01*
Y113249D01*
Y113130D01*
Y113012D01*
Y112894D01*
Y112776D01*
Y112658D01*
Y112540D01*
Y112421D01*
Y112303D01*
Y112185D01*
Y112067D01*
Y111949D01*
Y111830D01*
Y111712D01*
Y111594D01*
Y111476D01*
Y111358D01*
Y111240D01*
Y111122D01*
Y111003D01*
Y110885D01*
Y110767D01*
Y110649D01*
Y110531D01*
Y110413D01*
Y110294D01*
Y110176D01*
Y110058D01*
Y109940D01*
Y109822D01*
Y109704D01*
Y109585D01*
Y109467D01*
Y109349D01*
X-3531D01*
Y109231D01*
Y109113D01*
Y108995D01*
X-3413D01*
Y108877D01*
Y108758D01*
X-3295D01*
Y108640D01*
X-3177D01*
Y108522D01*
X-3059D01*
Y108404D01*
X-2822D01*
Y108286D01*
X-2586D01*
Y108168D01*
X1195D01*
Y108286D01*
Y108404D01*
Y108522D01*
Y108640D01*
Y108758D01*
Y108877D01*
Y108995D01*
Y109113D01*
Y109231D01*
Y109349D01*
Y109467D01*
Y109585D01*
Y109704D01*
Y109822D01*
Y109940D01*
Y110058D01*
Y110176D01*
Y110294D01*
Y110413D01*
Y110531D01*
Y110649D01*
Y110767D01*
Y110885D01*
Y111003D01*
Y111122D01*
Y111240D01*
Y111358D01*
Y111476D01*
Y111594D01*
Y111712D01*
Y111830D01*
Y111949D01*
Y112067D01*
Y112185D01*
Y112303D01*
Y112421D01*
Y112540D01*
Y112658D01*
Y112776D01*
Y112894D01*
Y113012D01*
Y113130D01*
Y113249D01*
Y113367D01*
Y113485D01*
Y113603D01*
Y113721D01*
Y113839D01*
X2967D01*
Y113721D01*
D02*
G37*
G36*
X32508Y116557D02*
X32862D01*
Y116439D01*
X33098D01*
Y116321D01*
Y116202D01*
X33217D01*
Y116084D01*
Y115966D01*
X33335D01*
Y115848D01*
Y115730D01*
Y115612D01*
Y115494D01*
Y115375D01*
Y115257D01*
Y115139D01*
Y115021D01*
Y114903D01*
Y114785D01*
Y114666D01*
Y114548D01*
Y114430D01*
Y114312D01*
Y114194D01*
Y114076D01*
Y113957D01*
Y113839D01*
Y113721D01*
Y113603D01*
Y113485D01*
Y113367D01*
Y113249D01*
Y113130D01*
Y113012D01*
Y112894D01*
Y112776D01*
Y112658D01*
Y112540D01*
Y112421D01*
Y112303D01*
Y112185D01*
Y112067D01*
Y111949D01*
Y111830D01*
Y111712D01*
Y111594D01*
Y111476D01*
Y111358D01*
Y111240D01*
Y111122D01*
Y111003D01*
Y110885D01*
Y110767D01*
Y110649D01*
Y110531D01*
Y110413D01*
Y110294D01*
Y110176D01*
Y110058D01*
Y109940D01*
Y109822D01*
Y109704D01*
Y109585D01*
Y109467D01*
Y109349D01*
Y109231D01*
Y109113D01*
Y108995D01*
Y108877D01*
Y108758D01*
Y108640D01*
Y108522D01*
Y108404D01*
Y108286D01*
Y108168D01*
Y108049D01*
Y107931D01*
Y107813D01*
Y107695D01*
Y107577D01*
Y107459D01*
Y107340D01*
Y107222D01*
Y107104D01*
Y106986D01*
Y106868D01*
X31681D01*
Y106986D01*
Y107104D01*
Y107222D01*
Y107340D01*
Y107459D01*
Y107577D01*
Y107695D01*
Y107813D01*
Y107931D01*
Y108049D01*
Y108168D01*
Y108286D01*
Y108404D01*
Y108522D01*
Y108640D01*
Y108758D01*
Y108877D01*
Y108995D01*
Y109113D01*
Y109231D01*
X25063D01*
Y109113D01*
Y108995D01*
Y108877D01*
Y108758D01*
Y108640D01*
Y108522D01*
Y108404D01*
Y108286D01*
Y108168D01*
Y108049D01*
Y107931D01*
Y107813D01*
Y107695D01*
Y107577D01*
Y107459D01*
Y107340D01*
Y107222D01*
Y107104D01*
Y106986D01*
Y106868D01*
X23409D01*
Y106986D01*
Y107104D01*
Y107222D01*
Y107340D01*
Y107459D01*
Y107577D01*
Y107695D01*
Y107813D01*
Y107931D01*
Y108049D01*
Y108168D01*
Y108286D01*
Y108404D01*
Y108522D01*
Y108640D01*
Y108758D01*
Y108877D01*
Y108995D01*
Y109113D01*
Y109231D01*
Y109349D01*
Y109467D01*
Y109585D01*
Y109704D01*
Y109822D01*
Y109940D01*
Y110058D01*
Y110176D01*
Y110294D01*
Y110413D01*
Y110531D01*
Y110649D01*
Y110767D01*
Y110885D01*
Y111003D01*
Y111122D01*
Y111240D01*
Y111358D01*
Y111476D01*
Y111594D01*
Y111712D01*
Y111830D01*
Y111949D01*
X23527D01*
Y112067D01*
Y112185D01*
Y112303D01*
Y112421D01*
Y112540D01*
Y112658D01*
Y112776D01*
Y112894D01*
X23646D01*
Y113012D01*
Y113130D01*
Y113249D01*
Y113367D01*
X23764D01*
Y113485D01*
Y113603D01*
X23882D01*
Y113721D01*
Y113839D01*
X24000D01*
Y113957D01*
Y114076D01*
X24118D01*
Y114194D01*
Y114312D01*
X24236D01*
Y114430D01*
Y114548D01*
X24354D01*
Y114666D01*
Y114785D01*
X24591D01*
Y114903D01*
Y115021D01*
X24709D01*
Y115139D01*
X24827D01*
Y115257D01*
X24945D01*
Y115375D01*
X25063D01*
Y115494D01*
X25182D01*
Y115612D01*
X25418D01*
Y115730D01*
X25536D01*
Y115848D01*
X25773D01*
Y115966D01*
X26009D01*
Y116084D01*
X26245D01*
Y116202D01*
X26481D01*
Y116321D01*
X26718D01*
Y116439D01*
X27190D01*
Y116557D01*
X28018D01*
Y116675D01*
X32508D01*
Y116557D01*
D02*
G37*
G36*
X21164Y116321D02*
Y116202D01*
Y116084D01*
Y115966D01*
Y115848D01*
Y115730D01*
Y115612D01*
Y115494D01*
Y115375D01*
Y115257D01*
Y115139D01*
Y115021D01*
X21046D01*
Y114903D01*
Y114785D01*
X14665D01*
Y114666D01*
X14311D01*
Y114548D01*
X14193D01*
Y114430D01*
X14074D01*
Y114312D01*
X13956D01*
Y114194D01*
Y114076D01*
X13838D01*
Y113957D01*
Y113839D01*
Y113721D01*
Y113603D01*
Y113485D01*
Y113367D01*
Y113249D01*
Y113130D01*
Y113012D01*
X13956D01*
Y112894D01*
Y112776D01*
X14074D01*
Y112658D01*
X14193D01*
Y112540D01*
X14429D01*
Y112421D01*
X14665D01*
Y112303D01*
X19864D01*
Y112185D01*
X20219D01*
Y112067D01*
X20455D01*
Y111949D01*
X20692D01*
Y111830D01*
X20928D01*
Y111712D01*
X21046D01*
Y111594D01*
X21164D01*
Y111476D01*
X21282D01*
Y111358D01*
X21400D01*
Y111240D01*
X21519D01*
Y111122D01*
Y111003D01*
X21637D01*
Y110885D01*
X21755D01*
Y110767D01*
Y110649D01*
X21873D01*
Y110531D01*
Y110413D01*
Y110294D01*
Y110176D01*
Y110058D01*
X21991D01*
Y109940D01*
Y109822D01*
Y109704D01*
Y109585D01*
Y109467D01*
Y109349D01*
Y109231D01*
Y109113D01*
Y108995D01*
Y108877D01*
Y108758D01*
X21873D01*
Y108640D01*
Y108522D01*
Y108404D01*
X21755D01*
Y108286D01*
Y108168D01*
Y108049D01*
X21637D01*
Y107931D01*
Y107813D01*
X21519D01*
Y107695D01*
X21400D01*
Y107577D01*
Y107459D01*
X21282D01*
Y107340D01*
X21164D01*
Y107222D01*
X20928D01*
Y107104D01*
X20810D01*
Y106986D01*
X20573D01*
Y106868D01*
X20337D01*
Y106750D01*
X19983D01*
Y106631D01*
X12184D01*
Y106750D01*
Y106868D01*
Y106986D01*
Y107104D01*
Y107222D01*
Y107340D01*
Y107459D01*
Y107577D01*
Y107695D01*
Y107813D01*
Y107931D01*
Y108049D01*
Y108168D01*
X12302D01*
Y108286D01*
X19746D01*
Y108404D01*
X19983D01*
Y108522D01*
X20101D01*
Y108640D01*
X20219D01*
Y108758D01*
Y108877D01*
X20337D01*
Y108995D01*
Y109113D01*
Y109231D01*
Y109349D01*
Y109467D01*
Y109585D01*
Y109704D01*
Y109822D01*
Y109940D01*
X20219D01*
Y110058D01*
Y110176D01*
X20101D01*
Y110294D01*
X19983D01*
Y110413D01*
X19864D01*
Y110531D01*
X19628D01*
Y110649D01*
X14547D01*
Y110767D01*
X14074D01*
Y110885D01*
X13838D01*
Y111003D01*
X13602D01*
Y111122D01*
X13366D01*
Y111240D01*
X13247D01*
Y111358D01*
X13011D01*
Y111476D01*
X12893D01*
Y111594D01*
X12775D01*
Y111712D01*
Y111830D01*
X12657D01*
Y111949D01*
X12539D01*
Y112067D01*
Y112185D01*
X12420D01*
Y112303D01*
Y112421D01*
X12302D01*
Y112540D01*
Y112658D01*
Y112776D01*
X12184D01*
Y112894D01*
Y113012D01*
Y113130D01*
Y113249D01*
Y113367D01*
Y113485D01*
Y113603D01*
Y113721D01*
Y113839D01*
Y113957D01*
Y114076D01*
Y114194D01*
Y114312D01*
X12302D01*
Y114430D01*
Y114548D01*
Y114666D01*
X12420D01*
Y114785D01*
Y114903D01*
X12539D01*
Y115021D01*
Y115139D01*
X12657D01*
Y115257D01*
Y115375D01*
X12775D01*
Y115494D01*
X12893D01*
Y115612D01*
X13011D01*
Y115730D01*
X13129D01*
Y115848D01*
X13366D01*
Y115966D01*
X13602D01*
Y116084D01*
X13838D01*
Y116202D01*
X14074D01*
Y116321D01*
X14547D01*
Y116439D01*
X21164D01*
Y116321D01*
D02*
G37*
G36*
X10766Y113839D02*
Y113721D01*
Y113603D01*
Y113485D01*
Y113367D01*
Y113249D01*
Y113130D01*
Y113012D01*
Y112894D01*
Y112776D01*
Y112658D01*
Y112540D01*
Y112421D01*
Y112303D01*
X6512D01*
Y112185D01*
X6276D01*
Y112067D01*
X6158D01*
Y111949D01*
X6040D01*
Y111830D01*
X5922D01*
Y111712D01*
Y111594D01*
Y111476D01*
Y111358D01*
Y111240D01*
Y111122D01*
Y111003D01*
Y110885D01*
Y110767D01*
Y110649D01*
Y110531D01*
Y110413D01*
Y110294D01*
Y110176D01*
Y110058D01*
Y109940D01*
Y109822D01*
Y109704D01*
Y109585D01*
Y109467D01*
Y109349D01*
Y109231D01*
Y109113D01*
Y108995D01*
Y108877D01*
Y108758D01*
Y108640D01*
Y108522D01*
Y108404D01*
Y108286D01*
Y108168D01*
Y108049D01*
Y107931D01*
Y107813D01*
Y107695D01*
Y107577D01*
Y107459D01*
Y107340D01*
Y107222D01*
Y107104D01*
Y106986D01*
Y106868D01*
Y106750D01*
Y106631D01*
X4267D01*
Y106750D01*
Y106868D01*
Y106986D01*
Y107104D01*
Y107222D01*
Y107340D01*
Y107459D01*
Y107577D01*
Y107695D01*
Y107813D01*
Y107931D01*
Y108049D01*
Y108168D01*
Y108286D01*
Y108404D01*
Y108522D01*
Y108640D01*
Y108758D01*
Y108877D01*
Y108995D01*
Y109113D01*
Y109231D01*
Y109349D01*
Y109467D01*
Y109585D01*
Y109704D01*
Y109822D01*
Y109940D01*
Y110058D01*
Y110176D01*
Y110294D01*
Y110413D01*
Y110531D01*
Y110649D01*
Y110767D01*
X4385D01*
Y110885D01*
Y111003D01*
Y111122D01*
Y111240D01*
Y111358D01*
Y111476D01*
Y111594D01*
Y111712D01*
Y111830D01*
Y111949D01*
Y112067D01*
Y112185D01*
Y112303D01*
X4504D01*
Y112421D01*
Y112540D01*
X4622D01*
Y112658D01*
Y112776D01*
X4740D01*
Y112894D01*
X4858D01*
Y113012D01*
Y113130D01*
X4976D01*
Y113249D01*
X5094D01*
Y113367D01*
X5331D01*
Y113485D01*
X5449D01*
Y113603D01*
X5685D01*
Y113721D01*
X6040D01*
Y113839D01*
X6630D01*
Y113957D01*
X10766D01*
Y113839D01*
D02*
G37*
G36*
X44324Y116202D02*
Y116084D01*
Y115966D01*
Y115848D01*
Y115730D01*
Y115612D01*
Y115494D01*
Y115375D01*
Y115257D01*
Y115139D01*
Y115021D01*
Y114903D01*
Y114785D01*
Y114666D01*
X40424D01*
Y114548D01*
Y114430D01*
Y114312D01*
Y114194D01*
Y114076D01*
Y113957D01*
Y113839D01*
Y113721D01*
Y113603D01*
Y113485D01*
Y113367D01*
Y113249D01*
Y113130D01*
Y113012D01*
Y112894D01*
Y112776D01*
Y112658D01*
Y112540D01*
Y112421D01*
Y112303D01*
Y112185D01*
Y112067D01*
Y111949D01*
Y111830D01*
Y111712D01*
Y111594D01*
Y111476D01*
Y111358D01*
Y111240D01*
Y111122D01*
Y111003D01*
Y110885D01*
Y110767D01*
Y110649D01*
Y110531D01*
Y110413D01*
Y110294D01*
Y110176D01*
Y110058D01*
Y109940D01*
Y109822D01*
Y109704D01*
Y109585D01*
Y109467D01*
Y109349D01*
Y109231D01*
Y109113D01*
Y108995D01*
Y108877D01*
Y108758D01*
Y108640D01*
Y108522D01*
Y108404D01*
Y108286D01*
Y108168D01*
Y108049D01*
Y107931D01*
Y107813D01*
Y107695D01*
Y107577D01*
Y107459D01*
Y107340D01*
Y107222D01*
Y107104D01*
Y106986D01*
Y106868D01*
Y106750D01*
Y106631D01*
Y106513D01*
X38770D01*
Y106631D01*
Y106750D01*
Y106868D01*
Y106986D01*
Y107104D01*
Y107222D01*
Y107340D01*
Y107459D01*
Y107577D01*
Y107695D01*
Y107813D01*
Y107931D01*
Y108049D01*
Y108168D01*
Y108286D01*
Y108404D01*
Y108522D01*
Y108640D01*
Y108758D01*
Y108877D01*
Y108995D01*
Y109113D01*
Y109231D01*
Y109349D01*
Y109467D01*
Y109585D01*
Y109704D01*
Y109822D01*
Y109940D01*
Y110058D01*
Y110176D01*
Y110294D01*
Y110413D01*
Y110531D01*
Y110649D01*
Y110767D01*
Y110885D01*
Y111003D01*
Y111122D01*
Y111240D01*
Y111358D01*
Y111476D01*
Y111594D01*
Y111712D01*
Y111830D01*
Y111949D01*
Y112067D01*
Y112185D01*
Y112303D01*
Y112421D01*
Y112540D01*
Y112658D01*
Y112776D01*
Y112894D01*
Y113012D01*
Y113130D01*
Y113249D01*
Y113367D01*
Y113485D01*
Y113603D01*
Y113721D01*
Y113839D01*
Y113957D01*
Y114076D01*
Y114194D01*
Y114312D01*
Y114430D01*
Y114548D01*
Y114666D01*
X34753D01*
Y114785D01*
Y114903D01*
Y115021D01*
Y115139D01*
Y115257D01*
Y115375D01*
Y115494D01*
Y115612D01*
Y115730D01*
Y115848D01*
Y115966D01*
Y116084D01*
Y116202D01*
Y116321D01*
X44324D01*
Y116202D01*
D02*
G37*
G36*
X-40904Y97354D02*
X-40066D01*
Y97144D01*
X-39437D01*
Y96935D01*
X-38809D01*
Y96725D01*
X-38390D01*
Y96516D01*
X-37971D01*
Y96306D01*
X-37761D01*
Y96096D01*
X-37342D01*
Y95887D01*
X-37133D01*
Y95677D01*
X-36923D01*
Y95468D01*
X-36504D01*
Y95258D01*
X-36294D01*
Y95049D01*
X-36085D01*
Y94839D01*
X-35875D01*
Y94630D01*
X-35666D01*
Y94420D01*
X-35456D01*
Y94211D01*
Y94001D01*
X-35247D01*
Y93792D01*
X-35037D01*
Y93582D01*
X-34828D01*
Y93372D01*
Y93163D01*
X-34618D01*
Y92953D01*
Y92744D01*
X-34409D01*
Y92534D01*
Y92325D01*
X-34199D01*
Y92115D01*
Y91906D01*
X-33990D01*
Y91696D01*
Y91487D01*
Y91277D01*
X-33780D01*
Y91068D01*
Y90858D01*
Y90649D01*
Y90439D01*
X-33571D01*
Y90229D01*
Y90020D01*
Y89810D01*
Y89601D01*
Y89391D01*
Y89182D01*
Y88972D01*
Y88763D01*
Y88553D01*
Y88344D01*
Y88134D01*
Y87924D01*
Y87715D01*
Y87505D01*
Y87296D01*
X-33780D01*
Y87086D01*
Y86877D01*
Y86667D01*
Y86458D01*
X-33990D01*
Y86248D01*
Y86039D01*
Y85829D01*
X-34199D01*
Y85620D01*
Y85410D01*
X-34409D01*
Y85201D01*
X-34618D01*
Y84991D01*
Y84781D01*
X-34828D01*
Y84572D01*
X-35037D01*
Y84362D01*
X-35247D01*
Y84153D01*
X-35456D01*
Y83943D01*
X-35666D01*
Y83734D01*
X-35875D01*
Y83524D01*
X-36085D01*
Y83315D01*
X-36294D01*
Y83105D01*
X-36713D01*
Y82896D01*
X-37133D01*
Y82686D01*
X-37552D01*
Y82477D01*
X-40904D01*
Y82686D01*
X-41114D01*
Y82477D01*
X-41323D01*
Y82267D01*
X-41533D01*
Y82057D01*
Y81848D01*
X-41742D01*
Y81638D01*
X-41952D01*
Y81429D01*
X-42161D01*
Y81219D01*
X-42371D01*
Y81010D01*
X-42581D01*
Y80800D01*
X-42790D01*
Y80591D01*
X-43000D01*
Y80381D01*
X-43209D01*
Y80172D01*
X-43419D01*
Y79962D01*
X-43628D01*
Y79753D01*
X-43838D01*
Y79543D01*
X-44047D01*
Y79334D01*
X-44257D01*
Y79124D01*
X-44466D01*
Y78914D01*
X-44676D01*
Y78705D01*
X-44885D01*
Y78495D01*
Y78286D01*
Y78076D01*
Y77867D01*
Y77657D01*
Y77448D01*
Y77238D01*
Y77029D01*
Y76819D01*
Y76610D01*
Y76400D01*
Y76191D01*
Y75981D01*
Y75771D01*
Y75562D01*
Y75352D01*
Y75143D01*
Y74933D01*
Y74724D01*
Y74514D01*
Y74305D01*
Y74095D01*
Y73886D01*
Y73676D01*
Y73466D01*
Y73257D01*
Y73048D01*
Y72838D01*
Y72628D01*
Y72419D01*
Y72209D01*
Y72000D01*
Y71790D01*
Y71581D01*
Y71371D01*
Y71162D01*
Y70952D01*
Y70743D01*
Y70533D01*
Y70323D01*
Y70114D01*
Y69904D01*
X-45095D01*
Y69695D01*
Y69485D01*
X-45305D01*
Y69276D01*
X-45514D01*
Y69066D01*
X-45724D01*
Y68857D01*
X-46143D01*
Y68647D01*
X-46771D01*
Y68438D01*
X-49495D01*
Y68647D01*
X-49914D01*
Y68857D01*
X-50333D01*
Y69066D01*
X-50543D01*
Y69276D01*
X-50752D01*
Y69485D01*
X-50962D01*
Y69695D01*
Y69904D01*
X-51171D01*
Y70114D01*
Y70323D01*
Y70533D01*
Y70743D01*
Y70952D01*
Y71162D01*
Y71371D01*
Y71581D01*
Y71790D01*
Y72000D01*
Y72209D01*
Y72419D01*
Y72628D01*
Y72838D01*
Y73048D01*
Y73257D01*
Y73466D01*
Y73676D01*
Y73886D01*
Y74095D01*
Y74305D01*
Y74514D01*
Y74724D01*
Y74933D01*
Y75143D01*
Y75352D01*
Y75562D01*
Y75771D01*
Y75981D01*
Y76191D01*
Y76400D01*
Y76610D01*
Y76819D01*
Y77029D01*
Y77238D01*
Y77448D01*
Y77657D01*
Y77867D01*
Y78076D01*
Y78286D01*
Y78495D01*
Y78705D01*
X-51381D01*
Y78914D01*
X-51591D01*
Y79124D01*
X-51800D01*
Y79334D01*
X-52010D01*
Y79543D01*
X-52219D01*
Y79753D01*
X-52429D01*
Y79962D01*
X-52638D01*
Y80172D01*
X-52848D01*
Y80381D01*
X-53057D01*
Y80591D01*
X-53267D01*
Y80800D01*
X-53476D01*
Y81010D01*
X-53686D01*
Y81219D01*
X-53895D01*
Y81429D01*
X-54105D01*
Y81638D01*
X-54315D01*
Y81848D01*
Y82057D01*
X-54524D01*
Y82267D01*
X-54734D01*
Y82477D01*
X-54943D01*
Y82686D01*
X-55153D01*
Y82896D01*
X-55362D01*
Y83105D01*
X-55572D01*
Y83315D01*
Y83524D01*
X-55781D01*
Y83734D01*
X-55991D01*
Y83943D01*
X-56200D01*
Y84153D01*
Y84362D01*
X-56410D01*
Y84572D01*
X-56619D01*
Y84781D01*
Y84991D01*
X-56829D01*
Y85201D01*
X-57038D01*
Y85410D01*
X-57248D01*
Y85620D01*
Y85829D01*
X-57458D01*
Y86039D01*
X-57667D01*
Y86248D01*
Y86458D01*
Y86667D01*
Y86877D01*
Y87086D01*
Y87296D01*
Y87505D01*
Y87715D01*
Y87924D01*
X-57458D01*
Y88134D01*
Y88344D01*
X-57248D01*
Y88553D01*
X-57038D01*
Y88763D01*
X-56829D01*
Y88972D01*
Y89182D01*
X-56619D01*
Y89391D01*
X-56200D01*
Y89601D01*
X-55991D01*
Y89810D01*
X-55362D01*
Y90020D01*
X-54105D01*
Y89810D01*
X-53686D01*
Y89601D01*
X-53476D01*
Y89391D01*
X-53267D01*
Y89182D01*
X-53057D01*
Y88972D01*
X-52848D01*
Y88763D01*
Y88553D01*
X-52638D01*
Y88344D01*
X-52429D01*
Y88134D01*
X-52219D01*
Y87924D01*
Y87715D01*
X-52010D01*
Y87505D01*
X-51800D01*
Y87715D01*
Y87924D01*
X-51591D01*
Y88134D01*
X-51381D01*
Y88344D01*
Y88553D01*
X-51171D01*
Y88763D01*
Y88972D01*
Y89182D01*
X-50962D01*
Y89391D01*
Y89601D01*
Y89810D01*
X-50752D01*
Y90020D01*
Y90229D01*
Y90439D01*
X-50543D01*
Y90649D01*
Y90858D01*
Y91068D01*
X-50333D01*
Y91277D01*
Y91487D01*
Y91696D01*
X-50124D01*
Y91906D01*
Y92115D01*
X-49914D01*
Y92325D01*
Y92534D01*
Y92744D01*
X-49705D01*
Y92953D01*
Y93163D01*
X-49495D01*
Y93372D01*
Y93582D01*
X-49286D01*
Y93792D01*
Y94001D01*
X-49076D01*
Y94211D01*
X-48867D01*
Y94420D01*
Y94630D01*
X-48657D01*
Y94839D01*
X-48447D01*
Y95049D01*
X-48238D01*
Y95258D01*
X-48028D01*
Y95468D01*
X-47819D01*
Y95677D01*
X-47609D01*
Y95887D01*
X-47400D01*
Y96096D01*
X-46981D01*
Y96306D01*
X-46771D01*
Y96516D01*
X-46352D01*
Y96725D01*
X-45933D01*
Y96935D01*
X-45514D01*
Y97144D01*
X-44885D01*
Y97354D01*
X-44257D01*
Y97563D01*
X-40904D01*
Y97354D01*
D02*
G37*
G36*
X-53895Y78914D02*
X-53476D01*
Y78705D01*
X-53057D01*
Y78495D01*
X-52848D01*
Y78286D01*
Y78076D01*
X-52638D01*
Y77867D01*
Y77657D01*
X-52429D01*
Y77448D01*
Y77238D01*
Y77029D01*
Y76819D01*
Y76610D01*
Y76400D01*
Y76191D01*
Y75981D01*
Y75771D01*
Y75562D01*
Y75352D01*
Y75143D01*
Y74933D01*
Y74724D01*
Y74514D01*
Y74305D01*
Y74095D01*
Y73886D01*
Y73676D01*
Y73466D01*
Y73257D01*
Y73048D01*
Y72838D01*
Y72628D01*
Y72419D01*
Y72209D01*
Y72000D01*
Y71790D01*
Y71581D01*
Y71371D01*
Y71162D01*
Y70952D01*
Y70743D01*
Y70533D01*
X-54524D01*
Y70743D01*
Y70952D01*
Y71162D01*
Y71371D01*
Y71581D01*
Y71790D01*
Y72000D01*
Y72209D01*
Y72419D01*
Y72628D01*
Y72838D01*
Y73048D01*
Y73257D01*
Y73466D01*
Y73676D01*
Y73886D01*
Y74095D01*
Y74305D01*
Y74514D01*
Y74724D01*
Y74933D01*
Y75143D01*
Y75352D01*
Y75562D01*
Y75771D01*
Y75981D01*
Y76191D01*
Y76400D01*
Y76610D01*
X-54734D01*
Y76819D01*
Y77029D01*
X-54943D01*
Y77238D01*
X-55362D01*
Y77448D01*
X-56410D01*
Y77238D01*
X-56829D01*
Y77029D01*
X-57248D01*
Y76819D01*
X-57458D01*
Y76610D01*
X-57667D01*
Y76400D01*
X-57877D01*
Y76191D01*
X-58086D01*
Y75981D01*
Y75771D01*
Y75562D01*
Y75352D01*
Y75143D01*
Y74933D01*
Y74724D01*
Y74514D01*
Y74305D01*
Y74095D01*
Y73886D01*
Y73676D01*
Y73466D01*
Y73257D01*
Y73048D01*
Y72838D01*
Y72628D01*
Y72419D01*
Y72209D01*
Y72000D01*
Y71790D01*
Y71581D01*
Y71371D01*
Y71162D01*
Y70952D01*
Y70743D01*
Y70533D01*
X-60181D01*
Y70743D01*
Y70952D01*
Y71162D01*
Y71371D01*
Y71581D01*
Y71790D01*
Y72000D01*
Y72209D01*
Y72419D01*
Y72628D01*
X-59972D01*
Y72838D01*
Y73048D01*
Y73257D01*
Y73466D01*
Y73676D01*
Y73886D01*
Y74095D01*
Y74305D01*
Y74514D01*
Y74724D01*
Y74933D01*
Y75143D01*
Y75352D01*
Y75562D01*
Y75771D01*
X-60181D01*
Y75981D01*
Y76191D01*
Y76400D01*
Y76610D01*
Y76819D01*
Y77029D01*
Y77238D01*
Y77448D01*
Y77657D01*
X-60391D01*
Y77867D01*
Y78076D01*
Y78286D01*
Y78495D01*
Y78705D01*
X-59553D01*
Y78914D01*
X-58296D01*
Y78705D01*
Y78495D01*
Y78286D01*
X-58086D01*
Y78076D01*
Y77867D01*
X-57877D01*
Y78076D01*
X-57458D01*
Y78286D01*
X-57248D01*
Y78495D01*
X-57038D01*
Y78705D01*
X-56619D01*
Y78914D01*
X-56200D01*
Y79124D01*
X-53895D01*
Y78914D01*
D02*
G37*
G36*
X-63325D02*
X-62906D01*
Y78705D01*
X-62696D01*
Y78495D01*
X-62486D01*
Y78286D01*
X-62277D01*
Y78076D01*
X-62067D01*
Y77867D01*
Y77657D01*
Y77448D01*
Y77238D01*
X-61858D01*
Y77029D01*
Y76819D01*
Y76610D01*
Y76400D01*
Y76191D01*
Y75981D01*
Y75771D01*
Y75562D01*
Y75352D01*
Y75143D01*
Y74933D01*
Y74724D01*
Y74514D01*
Y74305D01*
Y74095D01*
Y73886D01*
Y73676D01*
Y73466D01*
Y73257D01*
Y73048D01*
Y72838D01*
Y72628D01*
Y72419D01*
Y72209D01*
Y72000D01*
Y71790D01*
Y71581D01*
Y71371D01*
Y71162D01*
Y70952D01*
Y70743D01*
Y70533D01*
X-63953D01*
Y70743D01*
Y70952D01*
Y71162D01*
Y71371D01*
Y71581D01*
Y71790D01*
Y72000D01*
Y72209D01*
Y72419D01*
Y72628D01*
Y72838D01*
Y73048D01*
Y73257D01*
Y73466D01*
Y73676D01*
Y73886D01*
Y74095D01*
Y74305D01*
Y74514D01*
Y74724D01*
Y74933D01*
Y75143D01*
Y75352D01*
Y75562D01*
Y75771D01*
Y75981D01*
Y76191D01*
Y76400D01*
X-64163D01*
Y76610D01*
Y76819D01*
Y77029D01*
X-64372D01*
Y77238D01*
X-65001D01*
Y77448D01*
X-65839D01*
Y77238D01*
X-66258D01*
Y77029D01*
X-66677D01*
Y76819D01*
X-66887D01*
Y76610D01*
X-67306D01*
Y76400D01*
Y76191D01*
X-67515D01*
Y75981D01*
Y75771D01*
Y75562D01*
Y75352D01*
Y75143D01*
Y74933D01*
Y74724D01*
Y74514D01*
Y74305D01*
Y74095D01*
Y73886D01*
Y73676D01*
Y73466D01*
Y73257D01*
Y73048D01*
Y72838D01*
Y72628D01*
Y72419D01*
Y72209D01*
Y72000D01*
Y71790D01*
Y71581D01*
Y71371D01*
Y71162D01*
Y70952D01*
Y70743D01*
Y70533D01*
X-69611D01*
Y70743D01*
Y70952D01*
Y71162D01*
Y71371D01*
Y71581D01*
Y71790D01*
Y72000D01*
Y72209D01*
Y72419D01*
Y72628D01*
Y72838D01*
Y73048D01*
Y73257D01*
Y73466D01*
Y73676D01*
Y73886D01*
Y74095D01*
Y74305D01*
Y74514D01*
Y74724D01*
Y74933D01*
Y75143D01*
Y75352D01*
Y75562D01*
Y75771D01*
Y75981D01*
Y76191D01*
Y76400D01*
Y76610D01*
Y76819D01*
Y77029D01*
Y77238D01*
X-69820D01*
Y77448D01*
Y77657D01*
Y77867D01*
Y78076D01*
Y78286D01*
X-70030D01*
Y78495D01*
Y78705D01*
X-68982D01*
Y78914D01*
X-67725D01*
Y78705D01*
Y78495D01*
Y78286D01*
Y78076D01*
X-67515D01*
Y77867D01*
X-67306D01*
Y78076D01*
X-67096D01*
Y78286D01*
X-66677D01*
Y78495D01*
X-66468D01*
Y78705D01*
X-66049D01*
Y78914D01*
X-65629D01*
Y79124D01*
X-63325D01*
Y78914D01*
D02*
G37*
G36*
X-123944Y70441D02*
X-125126Y72016D01*
X-122763D01*
X-123944Y70441D01*
D02*
G37*
G36*
X-73382Y79124D02*
X-72963D01*
Y78914D01*
X-72544D01*
Y78705D01*
X-72335D01*
Y78495D01*
X-72125D01*
Y78286D01*
X-71916D01*
Y78076D01*
X-71706D01*
Y77867D01*
X-71496D01*
Y77657D01*
Y77448D01*
X-71287D01*
Y77238D01*
Y77029D01*
X-71077D01*
Y76819D01*
Y76610D01*
Y76400D01*
X-70868D01*
Y76191D01*
Y75981D01*
Y75771D01*
Y75562D01*
Y75352D01*
Y75143D01*
Y74933D01*
Y74724D01*
X-71077D01*
Y74514D01*
X-71287D01*
Y74305D01*
X-72754D01*
Y74095D01*
X-75059D01*
Y73886D01*
X-76735D01*
Y73676D01*
Y73466D01*
Y73257D01*
X-76525D01*
Y73048D01*
X-76316D01*
Y72838D01*
X-76106D01*
Y72628D01*
X-75897D01*
Y72419D01*
X-75478D01*
Y72209D01*
X-74849D01*
Y72000D01*
X-74011D01*
Y72209D01*
X-73173D01*
Y72419D01*
X-72754D01*
Y72628D01*
X-72335D01*
Y72838D01*
X-71916D01*
Y73048D01*
X-71706D01*
Y73257D01*
X-71496D01*
Y73048D01*
Y72838D01*
X-71287D01*
Y72628D01*
Y72419D01*
X-71077D01*
Y72209D01*
Y72000D01*
X-70868D01*
Y71790D01*
X-71077D01*
Y71581D01*
X-71287D01*
Y71371D01*
X-71496D01*
Y71162D01*
X-71706D01*
Y70952D01*
X-72125D01*
Y70743D01*
X-72544D01*
Y70533D01*
X-73173D01*
Y70323D01*
X-75687D01*
Y70533D01*
X-76316D01*
Y70743D01*
X-76735D01*
Y70952D01*
X-77154D01*
Y71162D01*
X-77364D01*
Y71371D01*
X-77573D01*
Y71581D01*
X-77782D01*
Y71790D01*
X-77992D01*
Y72000D01*
X-78202D01*
Y72209D01*
X-78411D01*
Y72419D01*
Y72628D01*
X-78621D01*
Y72838D01*
Y73048D01*
Y73257D01*
X-78830D01*
Y73466D01*
Y73676D01*
Y73886D01*
Y74095D01*
Y74305D01*
Y74514D01*
Y74724D01*
Y74933D01*
Y75143D01*
Y75352D01*
Y75562D01*
Y75771D01*
Y75981D01*
Y76191D01*
X-78621D01*
Y76400D01*
Y76610D01*
Y76819D01*
X-78411D01*
Y77029D01*
Y77238D01*
X-78202D01*
Y77448D01*
X-77992D01*
Y77657D01*
Y77867D01*
X-77782D01*
Y78076D01*
X-77573D01*
Y78286D01*
X-77364D01*
Y78495D01*
X-77154D01*
Y78705D01*
X-76735D01*
Y78914D01*
X-76525D01*
Y79124D01*
X-76106D01*
Y79334D01*
X-73382D01*
Y79124D01*
D02*
G37*
G36*
X-18079Y35209D02*
X-19654Y34028D01*
Y36390D01*
X-18079Y35209D01*
D02*
G37*
G36*
X127590Y-5145D02*
X126015Y-6326D01*
Y-3964D01*
X127590Y-5145D01*
D02*
G37*
G36*
Y-11248D02*
X126015Y-12429D01*
Y-10067D01*
X127590Y-11248D01*
D02*
G37*
G36*
X101311Y-27273D02*
X101503D01*
Y-27321D01*
X101599D01*
Y-27369D01*
X101695D01*
Y-27417D01*
X101742D01*
Y-27465D01*
X101838D01*
Y-27513D01*
X101886D01*
Y-27561D01*
X101934D01*
Y-27608D01*
X101982D01*
Y-27656D01*
X102030D01*
Y-27752D01*
X102078D01*
Y-27800D01*
X102126D01*
Y-27944D01*
X102174D01*
Y-28088D01*
X102222D01*
Y-28375D01*
X102269D01*
Y-28423D01*
X102222D01*
Y-28710D01*
X102174D01*
Y-28854D01*
X102126D01*
Y-28950D01*
X102078D01*
Y-28998D01*
X102030D01*
Y-29094D01*
X101982D01*
Y-29142D01*
X101934D01*
Y-29190D01*
X101886D01*
Y-29237D01*
X101838D01*
Y-29285D01*
X101742D01*
Y-29333D01*
X101695D01*
Y-29381D01*
X101599D01*
Y-29429D01*
X101503D01*
Y-29477D01*
X101311D01*
Y-29525D01*
X100880D01*
Y-29477D01*
X100689D01*
Y-29429D01*
X100593D01*
Y-29381D01*
X100497D01*
Y-29333D01*
X100401D01*
Y-29285D01*
X100353D01*
Y-29237D01*
X100305D01*
Y-29190D01*
X100257D01*
Y-29142D01*
X100209D01*
Y-29094D01*
X100161D01*
Y-28998D01*
X100113D01*
Y-28950D01*
X100066D01*
Y-28854D01*
X100018D01*
Y-28710D01*
X99970D01*
Y-28423D01*
X99922D01*
Y-28375D01*
X99970D01*
Y-28088D01*
X100018D01*
Y-27944D01*
X100066D01*
Y-27800D01*
X100113D01*
Y-27752D01*
X100161D01*
Y-27656D01*
X100209D01*
Y-27608D01*
X100257D01*
Y-27561D01*
X100305D01*
Y-27513D01*
X100353D01*
Y-27465D01*
X100449D01*
Y-27417D01*
X100497D01*
Y-27369D01*
X100593D01*
Y-27321D01*
X100689D01*
Y-27273D01*
X100832D01*
Y-27225D01*
X101311D01*
Y-27273D01*
D02*
G37*
G36*
X104234Y-25309D02*
X104282D01*
Y-25357D01*
X104330D01*
Y-25405D01*
X104377D01*
Y-25453D01*
X104426D01*
Y-25548D01*
X104473D01*
Y-25596D01*
X104521D01*
Y-25644D01*
X104569D01*
Y-25692D01*
X104617D01*
Y-25788D01*
X104665D01*
Y-25836D01*
X104713D01*
Y-25884D01*
X104761D01*
Y-25980D01*
X104809D01*
Y-26028D01*
X104857D01*
Y-26123D01*
X104904D01*
Y-26219D01*
X104953D01*
Y-26267D01*
X105000D01*
Y-26411D01*
X105048D01*
Y-26459D01*
X105096D01*
Y-26602D01*
X105144D01*
Y-26698D01*
X105192D01*
Y-26794D01*
X105240D01*
Y-26938D01*
X105288D01*
Y-27082D01*
X105336D01*
Y-27273D01*
X105384D01*
Y-27465D01*
X105432D01*
Y-27752D01*
X105480D01*
Y-28998D01*
X105432D01*
Y-29285D01*
X105384D01*
Y-29477D01*
X105336D01*
Y-29669D01*
X105288D01*
Y-29812D01*
X105240D01*
Y-29908D01*
X105192D01*
Y-30052D01*
X105144D01*
Y-30148D01*
X105096D01*
Y-30244D01*
X105048D01*
Y-30387D01*
X105000D01*
Y-30435D01*
X104953D01*
Y-30531D01*
X104904D01*
Y-30627D01*
X104857D01*
Y-30723D01*
X104809D01*
Y-30771D01*
X104761D01*
Y-30866D01*
X104713D01*
Y-30914D01*
X104665D01*
Y-30962D01*
X104617D01*
Y-31058D01*
X104569D01*
Y-31106D01*
X104521D01*
Y-31154D01*
X104473D01*
Y-31202D01*
X104426D01*
Y-31298D01*
X104377D01*
Y-31345D01*
X104330D01*
Y-31394D01*
X104282D01*
Y-31441D01*
X104234D01*
Y-31489D01*
X104138D01*
Y-31441D01*
X104090D01*
Y-31394D01*
X104042D01*
Y-31345D01*
X103994D01*
Y-31298D01*
X103946D01*
Y-31250D01*
X103898D01*
Y-31202D01*
X103850D01*
Y-31154D01*
X103803D01*
Y-31106D01*
X103755D01*
Y-31058D01*
X103707D01*
Y-31010D01*
X103659D01*
Y-30962D01*
X103611D01*
Y-30914D01*
X103563D01*
Y-30866D01*
X103515D01*
Y-30819D01*
X103467D01*
Y-30771D01*
X103419D01*
Y-30723D01*
X103371D01*
Y-30675D01*
X103323D01*
Y-30627D01*
X103276D01*
Y-30579D01*
X103228D01*
Y-30531D01*
X103180D01*
Y-30483D01*
X103132D01*
Y-30435D01*
X103084D01*
Y-30387D01*
X103036D01*
Y-30339D01*
X102988D01*
Y-30292D01*
X103036D01*
Y-30244D01*
X103084D01*
Y-30196D01*
X103132D01*
Y-30100D01*
X103180D01*
Y-30052D01*
X103228D01*
Y-30004D01*
X103276D01*
Y-29908D01*
X103323D01*
Y-29860D01*
X103371D01*
Y-29765D01*
X103419D01*
Y-29717D01*
X103467D01*
Y-29621D01*
X103515D01*
Y-29525D01*
X103563D01*
Y-29381D01*
X103611D01*
Y-29237D01*
X103659D01*
Y-29094D01*
X103707D01*
Y-28854D01*
X103755D01*
Y-27944D01*
X103707D01*
Y-27704D01*
X103659D01*
Y-27561D01*
X103611D01*
Y-27417D01*
X103563D01*
Y-27273D01*
X103515D01*
Y-27177D01*
X103467D01*
Y-27082D01*
X103419D01*
Y-27034D01*
X103371D01*
Y-26938D01*
X103323D01*
Y-26842D01*
X103276D01*
Y-26794D01*
X103228D01*
Y-26746D01*
X103180D01*
Y-26698D01*
X103132D01*
Y-26602D01*
X103084D01*
Y-26555D01*
X103036D01*
Y-26507D01*
X102988D01*
Y-26459D01*
X102940D01*
Y-26411D01*
X102988D01*
Y-26363D01*
X103036D01*
Y-26315D01*
X103084D01*
Y-26267D01*
X103132D01*
Y-26219D01*
X103180D01*
Y-26171D01*
X103228D01*
Y-26123D01*
X103276D01*
Y-26075D01*
X103323D01*
Y-26028D01*
X103371D01*
Y-25980D01*
X103419D01*
Y-25932D01*
X103467D01*
Y-25884D01*
X103515D01*
Y-25836D01*
X103563D01*
Y-25788D01*
X103611D01*
Y-25740D01*
X103707D01*
Y-25692D01*
X103755D01*
Y-25644D01*
X103803D01*
Y-25596D01*
X103850D01*
Y-25548D01*
X103898D01*
Y-25501D01*
X103946D01*
Y-25453D01*
X103994D01*
Y-25405D01*
X104042D01*
Y-25357D01*
X104090D01*
Y-25309D01*
X104138D01*
Y-25261D01*
X104234D01*
Y-25309D01*
D02*
G37*
G36*
X106581Y-23009D02*
X106629D01*
Y-23057D01*
X106677D01*
Y-23105D01*
X106725D01*
Y-23153D01*
X106773D01*
Y-23201D01*
X106821D01*
Y-23249D01*
X106869D01*
Y-23297D01*
X106917D01*
Y-23345D01*
X106965D01*
Y-23392D01*
X107013D01*
Y-23488D01*
X107061D01*
Y-23536D01*
X107108D01*
Y-23584D01*
X107156D01*
Y-23632D01*
X107204D01*
Y-23728D01*
X107252D01*
Y-23776D01*
X107300D01*
Y-23824D01*
X107348D01*
Y-23920D01*
X107396D01*
Y-23967D01*
X107444D01*
Y-24063D01*
X107492D01*
Y-24111D01*
X107540D01*
Y-24207D01*
X107588D01*
Y-24255D01*
X107635D01*
Y-24351D01*
X107683D01*
Y-24399D01*
X107731D01*
Y-24494D01*
X107779D01*
Y-24590D01*
X107827D01*
Y-24686D01*
X107875D01*
Y-24734D01*
X107923D01*
Y-24830D01*
X107971D01*
Y-24926D01*
X108019D01*
Y-25021D01*
X108067D01*
Y-25117D01*
X108115D01*
Y-25261D01*
X108162D01*
Y-25357D01*
X108210D01*
Y-25453D01*
X108258D01*
Y-25596D01*
X108306D01*
Y-25692D01*
X108354D01*
Y-25836D01*
X108402D01*
Y-25980D01*
X108450D01*
Y-26123D01*
X108498D01*
Y-26315D01*
X108546D01*
Y-26507D01*
X108594D01*
Y-26698D01*
X108642D01*
Y-26890D01*
X108689D01*
Y-27177D01*
X108737D01*
Y-27561D01*
X108785D01*
Y-29190D01*
X108737D01*
Y-29573D01*
X108689D01*
Y-29812D01*
X108642D01*
Y-30052D01*
X108594D01*
Y-30244D01*
X108546D01*
Y-30435D01*
X108498D01*
Y-30627D01*
X108450D01*
Y-30771D01*
X108402D01*
Y-30914D01*
X108354D01*
Y-31058D01*
X108306D01*
Y-31154D01*
X108258D01*
Y-31298D01*
X108210D01*
Y-31394D01*
X108162D01*
Y-31489D01*
X108115D01*
Y-31633D01*
X108067D01*
Y-31729D01*
X108019D01*
Y-31825D01*
X107971D01*
Y-31920D01*
X107923D01*
Y-32016D01*
X107875D01*
Y-32064D01*
X107827D01*
Y-32160D01*
X107779D01*
Y-32256D01*
X107731D01*
Y-32352D01*
X107683D01*
Y-32400D01*
X107635D01*
Y-32495D01*
X107588D01*
Y-32543D01*
X107540D01*
Y-32639D01*
X107492D01*
Y-32687D01*
X107444D01*
Y-32783D01*
X107396D01*
Y-32831D01*
X107348D01*
Y-32927D01*
X107300D01*
Y-32974D01*
X107252D01*
Y-33022D01*
X107204D01*
Y-33118D01*
X107156D01*
Y-33166D01*
X107108D01*
Y-33214D01*
X107061D01*
Y-33262D01*
X107013D01*
Y-33358D01*
X106965D01*
Y-33406D01*
X106917D01*
Y-33454D01*
X106869D01*
Y-33501D01*
X106821D01*
Y-33549D01*
X106773D01*
Y-33597D01*
X106725D01*
Y-33645D01*
X106677D01*
Y-33693D01*
X106629D01*
Y-33741D01*
X106581D01*
Y-33789D01*
X106534D01*
Y-33837D01*
X106438D01*
Y-33789D01*
X106390D01*
Y-33741D01*
X106342D01*
Y-33693D01*
X106294D01*
Y-33645D01*
X106246D01*
Y-33597D01*
X106198D01*
Y-33549D01*
X106150D01*
Y-33501D01*
X106102D01*
Y-33406D01*
X106007D01*
Y-33358D01*
X105959D01*
Y-33310D01*
X105911D01*
Y-33262D01*
X105863D01*
Y-33166D01*
X105815D01*
Y-33118D01*
X105767D01*
Y-33070D01*
X105671D01*
Y-32974D01*
X105623D01*
Y-32927D01*
X105575D01*
Y-32879D01*
X105527D01*
Y-32831D01*
X105432D01*
Y-32735D01*
X105384D01*
Y-32687D01*
X105336D01*
Y-32591D01*
X105384D01*
Y-32543D01*
X105432D01*
Y-32495D01*
X105480D01*
Y-32447D01*
X105527D01*
Y-32400D01*
X105575D01*
Y-32352D01*
X105623D01*
Y-32304D01*
X105671D01*
Y-32256D01*
X105719D01*
Y-32160D01*
X105767D01*
Y-32112D01*
X105815D01*
Y-32064D01*
X105863D01*
Y-31968D01*
X105911D01*
Y-31920D01*
X105959D01*
Y-31873D01*
X106007D01*
Y-31777D01*
X106054D01*
Y-31729D01*
X106102D01*
Y-31633D01*
X106150D01*
Y-31585D01*
X106198D01*
Y-31489D01*
X106246D01*
Y-31394D01*
X106294D01*
Y-31345D01*
X106342D01*
Y-31250D01*
X106390D01*
Y-31154D01*
X106438D01*
Y-31058D01*
X106486D01*
Y-30962D01*
X106534D01*
Y-30866D01*
X106581D01*
Y-30723D01*
X106629D01*
Y-30627D01*
X106677D01*
Y-30483D01*
X106725D01*
Y-30339D01*
X106773D01*
Y-30196D01*
X106821D01*
Y-30052D01*
X106869D01*
Y-29860D01*
X106917D01*
Y-29669D01*
X106965D01*
Y-29429D01*
X107013D01*
Y-29046D01*
X107061D01*
Y-27752D01*
X107013D01*
Y-27369D01*
X106965D01*
Y-27129D01*
X106917D01*
Y-26938D01*
X106869D01*
Y-26746D01*
X106821D01*
Y-26602D01*
X106773D01*
Y-26411D01*
X106725D01*
Y-26315D01*
X106677D01*
Y-26171D01*
X106629D01*
Y-26075D01*
X106581D01*
Y-25932D01*
X106534D01*
Y-25836D01*
X106486D01*
Y-25740D01*
X106438D01*
Y-25644D01*
X106390D01*
Y-25548D01*
X106342D01*
Y-25453D01*
X106294D01*
Y-25405D01*
X106246D01*
Y-25309D01*
X106198D01*
Y-25213D01*
X106150D01*
Y-25165D01*
X106102D01*
Y-25069D01*
X106054D01*
Y-25021D01*
X106007D01*
Y-24926D01*
X105959D01*
Y-24878D01*
X105911D01*
Y-24782D01*
X105863D01*
Y-24734D01*
X105815D01*
Y-24686D01*
X105767D01*
Y-24638D01*
X105719D01*
Y-24542D01*
X105671D01*
Y-24494D01*
X105623D01*
Y-24446D01*
X105575D01*
Y-24399D01*
X105527D01*
Y-24351D01*
X105480D01*
Y-24303D01*
X105432D01*
Y-24255D01*
X105384D01*
Y-24207D01*
X105336D01*
Y-24111D01*
X105384D01*
Y-24063D01*
X105432D01*
Y-24015D01*
X105480D01*
Y-23967D01*
X105527D01*
Y-23920D01*
X105575D01*
Y-23871D01*
X105623D01*
Y-23824D01*
X105671D01*
Y-23776D01*
X105719D01*
Y-23728D01*
X105767D01*
Y-23680D01*
X105815D01*
Y-23632D01*
X105863D01*
Y-23584D01*
X105911D01*
Y-23536D01*
X105959D01*
Y-23488D01*
X106007D01*
Y-23440D01*
X106054D01*
Y-23392D01*
X106102D01*
Y-23345D01*
X106150D01*
Y-23297D01*
X106198D01*
Y-23249D01*
X106246D01*
Y-23201D01*
X106294D01*
Y-23153D01*
X106342D01*
Y-23105D01*
X106390D01*
Y-23057D01*
X106438D01*
Y-23009D01*
X106534D01*
Y-22961D01*
X106581D01*
Y-23009D01*
D02*
G37*
G36*
X108977Y-20662D02*
X109025D01*
Y-20709D01*
X109073D01*
Y-20757D01*
X109121D01*
Y-20805D01*
X109169D01*
Y-20853D01*
X109216D01*
Y-20901D01*
X109264D01*
Y-20949D01*
X109312D01*
Y-20997D01*
X109360D01*
Y-21045D01*
X109408D01*
Y-21093D01*
X109456D01*
Y-21141D01*
X109504D01*
Y-21237D01*
X109552D01*
Y-21284D01*
X109600D01*
Y-21332D01*
X109648D01*
Y-21380D01*
X109696D01*
Y-21428D01*
X109743D01*
Y-21524D01*
X109791D01*
Y-21572D01*
X109839D01*
Y-21620D01*
X109887D01*
Y-21668D01*
X109935D01*
Y-21764D01*
X109983D01*
Y-21811D01*
X110031D01*
Y-21907D01*
X110079D01*
Y-21955D01*
X110127D01*
Y-22003D01*
X110175D01*
Y-22099D01*
X110223D01*
Y-22147D01*
X110271D01*
Y-22243D01*
X110318D01*
Y-22290D01*
X110366D01*
Y-22386D01*
X110414D01*
Y-22434D01*
X110462D01*
Y-22530D01*
X110510D01*
Y-22578D01*
X110558D01*
Y-22674D01*
X110606D01*
Y-22770D01*
X110654D01*
Y-22817D01*
X110702D01*
Y-22913D01*
X110750D01*
Y-23009D01*
X110798D01*
Y-23105D01*
X110845D01*
Y-23201D01*
X110893D01*
Y-23249D01*
X110941D01*
Y-23345D01*
X110989D01*
Y-23440D01*
X111037D01*
Y-23536D01*
X111085D01*
Y-23632D01*
X111133D01*
Y-23776D01*
X111181D01*
Y-23871D01*
X111229D01*
Y-23967D01*
X111277D01*
Y-24063D01*
X111325D01*
Y-24207D01*
X111372D01*
Y-24303D01*
X111420D01*
Y-24446D01*
X111468D01*
Y-24590D01*
X111516D01*
Y-24686D01*
X111564D01*
Y-24830D01*
X111612D01*
Y-24973D01*
X111660D01*
Y-25117D01*
X111708D01*
Y-25309D01*
X111756D01*
Y-25453D01*
X111804D01*
Y-25644D01*
X111852D01*
Y-25836D01*
X111899D01*
Y-26075D01*
X111947D01*
Y-26315D01*
X111995D01*
Y-26602D01*
X112043D01*
Y-26890D01*
X112091D01*
Y-27321D01*
X112139D01*
Y-28279D01*
X112187D01*
Y-28519D01*
X112139D01*
Y-29429D01*
X112091D01*
Y-29860D01*
X112043D01*
Y-30196D01*
X111995D01*
Y-30435D01*
X111947D01*
Y-30675D01*
X111899D01*
Y-30914D01*
X111852D01*
Y-31106D01*
X111804D01*
Y-31298D01*
X111756D01*
Y-31441D01*
X111708D01*
Y-31633D01*
X111660D01*
Y-31777D01*
X111612D01*
Y-31920D01*
X111564D01*
Y-32064D01*
X111516D01*
Y-32208D01*
X111468D01*
Y-32304D01*
X111420D01*
Y-32447D01*
X111372D01*
Y-32543D01*
X111325D01*
Y-32687D01*
X111277D01*
Y-32783D01*
X111229D01*
Y-32879D01*
X111181D01*
Y-33022D01*
X111133D01*
Y-33118D01*
X111085D01*
Y-33214D01*
X111037D01*
Y-33310D01*
X110989D01*
Y-33406D01*
X110941D01*
Y-33501D01*
X110893D01*
Y-33597D01*
X110845D01*
Y-33645D01*
X110798D01*
Y-33741D01*
X110750D01*
Y-33837D01*
X110702D01*
Y-33933D01*
X110654D01*
Y-33981D01*
X110606D01*
Y-34076D01*
X110558D01*
Y-34172D01*
X110510D01*
Y-34220D01*
X110462D01*
Y-34316D01*
X110414D01*
Y-34364D01*
X110366D01*
Y-34460D01*
X110318D01*
Y-34556D01*
X110271D01*
Y-34603D01*
X110223D01*
Y-34651D01*
X110175D01*
Y-34747D01*
X110127D01*
Y-34795D01*
X110079D01*
Y-34891D01*
X110031D01*
Y-34939D01*
X109983D01*
Y-34987D01*
X109935D01*
Y-35083D01*
X109887D01*
Y-35130D01*
X109839D01*
Y-35178D01*
X109791D01*
Y-35226D01*
X109743D01*
Y-35322D01*
X109696D01*
Y-35370D01*
X109648D01*
Y-35418D01*
X109600D01*
Y-35466D01*
X109552D01*
Y-35562D01*
X109504D01*
Y-35610D01*
X109456D01*
Y-35658D01*
X109408D01*
Y-35705D01*
X109360D01*
Y-35753D01*
X109312D01*
Y-35801D01*
X109264D01*
Y-35849D01*
X109216D01*
Y-35897D01*
X109169D01*
Y-35945D01*
X109121D01*
Y-35993D01*
X109073D01*
Y-36041D01*
X109025D01*
Y-36137D01*
X108977D01*
Y-36184D01*
X108929D01*
Y-36232D01*
X108833D01*
Y-36184D01*
X108785D01*
Y-36137D01*
X108737D01*
Y-36089D01*
X108689D01*
Y-36041D01*
X108642D01*
Y-35993D01*
X108594D01*
Y-35945D01*
X108546D01*
Y-35897D01*
X108498D01*
Y-35849D01*
X108450D01*
Y-35801D01*
X108402D01*
Y-35753D01*
X108354D01*
Y-35705D01*
X108306D01*
Y-35658D01*
X108258D01*
Y-35610D01*
X108210D01*
Y-35562D01*
X108162D01*
Y-35514D01*
X108115D01*
Y-35466D01*
X108067D01*
Y-35418D01*
X108019D01*
Y-35370D01*
X107971D01*
Y-35322D01*
X107923D01*
Y-35274D01*
X107875D01*
Y-35226D01*
X107827D01*
Y-35178D01*
X107779D01*
Y-35130D01*
X107731D01*
Y-35083D01*
X107683D01*
Y-34987D01*
X107731D01*
Y-34939D01*
X107779D01*
Y-34891D01*
X107827D01*
Y-34843D01*
X107875D01*
Y-34795D01*
X107923D01*
Y-34747D01*
X107971D01*
Y-34699D01*
X108019D01*
Y-34651D01*
X108067D01*
Y-34603D01*
X108115D01*
Y-34556D01*
X108162D01*
Y-34508D01*
X108210D01*
Y-34412D01*
X108258D01*
Y-34364D01*
X108306D01*
Y-34316D01*
X108354D01*
Y-34268D01*
X108402D01*
Y-34220D01*
X108450D01*
Y-34124D01*
X108498D01*
Y-34076D01*
X108546D01*
Y-34029D01*
X108594D01*
Y-33933D01*
X108642D01*
Y-33885D01*
X108689D01*
Y-33837D01*
X108737D01*
Y-33741D01*
X108785D01*
Y-33693D01*
X108833D01*
Y-33597D01*
X108881D01*
Y-33549D01*
X108929D01*
Y-33454D01*
X108977D01*
Y-33406D01*
X109025D01*
Y-33310D01*
X109073D01*
Y-33214D01*
X109121D01*
Y-33166D01*
X109169D01*
Y-33070D01*
X109216D01*
Y-32974D01*
X109264D01*
Y-32879D01*
X109312D01*
Y-32783D01*
X109360D01*
Y-32735D01*
X109408D01*
Y-32639D01*
X109456D01*
Y-32543D01*
X109504D01*
Y-32447D01*
X109552D01*
Y-32352D01*
X109600D01*
Y-32208D01*
X109648D01*
Y-32112D01*
X109696D01*
Y-32016D01*
X109743D01*
Y-31873D01*
X109791D01*
Y-31777D01*
X109839D01*
Y-31633D01*
X109887D01*
Y-31489D01*
X109935D01*
Y-31345D01*
X109983D01*
Y-31202D01*
X110031D01*
Y-31058D01*
X110079D01*
Y-30866D01*
X110127D01*
Y-30675D01*
X110175D01*
Y-30483D01*
X110223D01*
Y-30292D01*
X110271D01*
Y-30004D01*
X110318D01*
Y-29717D01*
X110366D01*
Y-29285D01*
X110414D01*
Y-27513D01*
X110366D01*
Y-27082D01*
X110318D01*
Y-26794D01*
X110271D01*
Y-26555D01*
X110223D01*
Y-26315D01*
X110175D01*
Y-26123D01*
X110127D01*
Y-25932D01*
X110079D01*
Y-25740D01*
X110031D01*
Y-25596D01*
X109983D01*
Y-25453D01*
X109935D01*
Y-25309D01*
X109887D01*
Y-25165D01*
X109839D01*
Y-25021D01*
X109791D01*
Y-24926D01*
X109743D01*
Y-24782D01*
X109696D01*
Y-24686D01*
X109648D01*
Y-24590D01*
X109600D01*
Y-24494D01*
X109552D01*
Y-24351D01*
X109504D01*
Y-24255D01*
X109456D01*
Y-24159D01*
X109408D01*
Y-24063D01*
X109360D01*
Y-24015D01*
X109312D01*
Y-23920D01*
X109264D01*
Y-23824D01*
X109216D01*
Y-23728D01*
X109169D01*
Y-23632D01*
X109121D01*
Y-23584D01*
X109073D01*
Y-23488D01*
X109025D01*
Y-23392D01*
X108977D01*
Y-23345D01*
X108929D01*
Y-23249D01*
X108881D01*
Y-23201D01*
X108833D01*
Y-23105D01*
X108785D01*
Y-23057D01*
X108737D01*
Y-22961D01*
X108689D01*
Y-22913D01*
X108642D01*
Y-22865D01*
X108594D01*
Y-22770D01*
X108546D01*
Y-22722D01*
X108498D01*
Y-22674D01*
X108450D01*
Y-22578D01*
X108402D01*
Y-22530D01*
X108354D01*
Y-22482D01*
X108306D01*
Y-22434D01*
X108258D01*
Y-22386D01*
X108210D01*
Y-22290D01*
X108162D01*
Y-22243D01*
X108115D01*
Y-22195D01*
X108067D01*
Y-22147D01*
X108019D01*
Y-22099D01*
X107971D01*
Y-22051D01*
X107923D01*
Y-22003D01*
X107875D01*
Y-21955D01*
X107827D01*
Y-21907D01*
X107779D01*
Y-21859D01*
X107731D01*
Y-21764D01*
X107779D01*
Y-21716D01*
X107827D01*
Y-21668D01*
X107923D01*
Y-21620D01*
X107971D01*
Y-21572D01*
X108019D01*
Y-21524D01*
X108067D01*
Y-21476D01*
X108115D01*
Y-21428D01*
X108162D01*
Y-21380D01*
X108210D01*
Y-21332D01*
X108258D01*
Y-21284D01*
X108306D01*
Y-21237D01*
X108354D01*
Y-21189D01*
X108402D01*
Y-21141D01*
X108450D01*
Y-21093D01*
X108498D01*
Y-21045D01*
X108546D01*
Y-20997D01*
X108594D01*
Y-20949D01*
X108642D01*
Y-20901D01*
X108689D01*
Y-20853D01*
X108737D01*
Y-20805D01*
X108785D01*
Y-20757D01*
X108833D01*
Y-20709D01*
X108881D01*
Y-20662D01*
X108929D01*
Y-20614D01*
X108977D01*
Y-20662D01*
D02*
G37*
G36*
X-58489Y-43552D02*
Y-43683D01*
X-58358D01*
Y-43813D01*
X-58227D01*
Y-43944D01*
Y-44074D01*
X-58097D01*
Y-44205D01*
Y-44335D01*
X-57966D01*
Y-44466D01*
X-57836D01*
Y-44597D01*
Y-44727D01*
X-57705D01*
Y-44858D01*
Y-44988D01*
X-57575D01*
Y-45119D01*
Y-45250D01*
X-57444D01*
Y-45380D01*
X-57314D01*
Y-45511D01*
Y-45641D01*
X-57183D01*
Y-45772D01*
Y-45902D01*
X-57052D01*
Y-46033D01*
X-56922D01*
Y-46163D01*
Y-46294D01*
X-56791D01*
Y-46425D01*
Y-46555D01*
X-56661D01*
Y-46686D01*
Y-46816D01*
X-56530D01*
Y-46947D01*
X-56400D01*
Y-47077D01*
Y-47208D01*
X-56269D01*
Y-47339D01*
Y-47469D01*
X-56138D01*
Y-47600D01*
Y-47730D01*
X-56008D01*
Y-47861D01*
X-55877D01*
Y-47991D01*
Y-48122D01*
X-55747D01*
Y-48252D01*
Y-48383D01*
X-55616D01*
Y-48514D01*
Y-48644D01*
X-55486D01*
Y-48775D01*
X-55355D01*
Y-48905D01*
Y-49036D01*
X-55225D01*
Y-49166D01*
Y-49297D01*
Y-49428D01*
X-55355D01*
Y-49558D01*
X-55486D01*
Y-49689D01*
X-55616D01*
Y-49819D01*
X-55747D01*
Y-49950D01*
X-55877D01*
Y-50080D01*
X-56138D01*
Y-50211D01*
X-56530D01*
Y-50341D01*
X-57183D01*
Y-50472D01*
X-58358D01*
Y-50603D01*
X-59533D01*
Y-50733D01*
X-60447D01*
Y-50864D01*
X-61492D01*
Y-50994D01*
X-61883D01*
Y-51125D01*
X-62014D01*
Y-51256D01*
X-62145D01*
Y-51386D01*
X-62275D01*
Y-51517D01*
X-62406D01*
Y-51647D01*
X-62536D01*
Y-51778D01*
Y-51908D01*
X-62667D01*
Y-52039D01*
X-62797D01*
Y-51908D01*
X-63059D01*
Y-51778D01*
X-63189D01*
Y-51647D01*
X-63450D01*
Y-51517D01*
X-63320D01*
Y-51386D01*
X-63189D01*
Y-51256D01*
Y-51125D01*
X-63059D01*
Y-50994D01*
Y-50864D01*
X-62928D01*
Y-50733D01*
Y-50603D01*
X-62797D01*
Y-50472D01*
X-62667D01*
Y-50341D01*
Y-50211D01*
X-62536D01*
Y-50080D01*
Y-49950D01*
X-62406D01*
Y-49819D01*
Y-49689D01*
X-62275D01*
Y-49558D01*
X-62145D01*
Y-49428D01*
Y-49297D01*
X-62014D01*
Y-49166D01*
Y-49036D01*
X-61883D01*
Y-48905D01*
X-61753D01*
Y-48775D01*
Y-48644D01*
X-61622D01*
Y-48514D01*
Y-48383D01*
X-61492D01*
Y-48252D01*
Y-48122D01*
X-61361D01*
Y-47991D01*
X-61230D01*
Y-47861D01*
Y-47730D01*
X-61100D01*
Y-47600D01*
Y-47469D01*
X-60969D01*
Y-47339D01*
X-60839D01*
Y-47208D01*
Y-47077D01*
X-60708D01*
Y-46947D01*
Y-46816D01*
X-60578D01*
Y-46686D01*
Y-46555D01*
X-60447D01*
Y-46425D01*
X-60317D01*
Y-46294D01*
Y-46163D01*
X-60186D01*
Y-46033D01*
Y-45902D01*
X-60055D01*
Y-45772D01*
Y-45641D01*
X-59925D01*
Y-45511D01*
X-59794D01*
Y-45380D01*
Y-45250D01*
X-59664D01*
Y-45119D01*
Y-44988D01*
X-59533D01*
Y-44858D01*
X-59403D01*
Y-44727D01*
Y-44597D01*
X-59272D01*
Y-44466D01*
Y-44335D01*
X-59141D01*
Y-44205D01*
Y-44074D01*
X-59011D01*
Y-43944D01*
X-58880D01*
Y-43813D01*
Y-43683D01*
X-58750D01*
Y-43552D01*
Y-43422D01*
X-58489D01*
Y-43552D01*
D02*
G37*
G36*
X-62928Y-58959D02*
X-62797D01*
Y-59089D01*
Y-59220D01*
Y-59351D01*
X-62928D01*
Y-59220D01*
Y-59089D01*
Y-58959D01*
X-63059D01*
Y-58828D01*
X-62928D01*
Y-58959D01*
D02*
G37*
G36*
X-52874Y-53214D02*
Y-53345D01*
X-52744D01*
Y-53475D01*
Y-53606D01*
X-52613D01*
Y-53736D01*
X-52483D01*
Y-53867D01*
Y-53997D01*
X-52352D01*
Y-54128D01*
Y-54258D01*
X-52222D01*
Y-54389D01*
X-52091D01*
Y-54520D01*
Y-54650D01*
X-51960D01*
Y-54781D01*
Y-54911D01*
X-51830D01*
Y-55042D01*
X-51699D01*
Y-55172D01*
Y-55303D01*
X-51569D01*
Y-55433D01*
Y-55564D01*
X-51438D01*
Y-55695D01*
X-51308D01*
Y-55825D01*
Y-55956D01*
X-51177D01*
Y-56086D01*
Y-56217D01*
X-51047D01*
Y-56348D01*
Y-56478D01*
X-50916D01*
Y-56609D01*
Y-56739D01*
X-50785D01*
Y-56870D01*
X-50655D01*
Y-57000D01*
Y-57131D01*
X-50524D01*
Y-57261D01*
Y-57392D01*
X-50394D01*
Y-57523D01*
X-50263D01*
Y-57653D01*
Y-57784D01*
X-50133D01*
Y-57914D01*
Y-58045D01*
X-50002D01*
Y-58175D01*
X-49871D01*
Y-58306D01*
Y-58437D01*
X-49741D01*
Y-58567D01*
Y-58698D01*
X-49610D01*
Y-58828D01*
X-49480D01*
Y-58959D01*
Y-59089D01*
X-49349D01*
Y-59220D01*
Y-59351D01*
X-49219D01*
Y-59481D01*
X-49088D01*
Y-59612D01*
Y-59742D01*
X-48957D01*
Y-59873D01*
X-49219D01*
Y-59742D01*
X-49349D01*
Y-59612D01*
X-49610D01*
Y-59481D01*
X-49871D01*
Y-59351D01*
X-50133D01*
Y-59220D01*
X-50394D01*
Y-59089D01*
X-50524D01*
Y-58959D01*
X-50785D01*
Y-58828D01*
X-51047D01*
Y-58698D01*
X-51177D01*
Y-58567D01*
X-51438D01*
Y-58437D01*
X-51699D01*
Y-58306D01*
X-51960D01*
Y-58175D01*
X-52091D01*
Y-58045D01*
X-52352D01*
Y-57914D01*
X-52613D01*
Y-57784D01*
X-52874D01*
Y-57653D01*
X-53136D01*
Y-57523D01*
X-53266D01*
Y-57392D01*
X-53527D01*
Y-57261D01*
X-53788D01*
Y-57131D01*
X-53919D01*
Y-57000D01*
X-54180D01*
Y-56870D01*
X-54441D01*
Y-56739D01*
X-54702D01*
Y-56609D01*
X-54963D01*
Y-56478D01*
X-55094D01*
Y-56348D01*
X-55355D01*
Y-56217D01*
X-55616D01*
Y-56086D01*
X-55877D01*
Y-55956D01*
Y-55825D01*
Y-55695D01*
X-55747D01*
Y-55564D01*
X-55616D01*
Y-55433D01*
X-55486D01*
Y-55303D01*
X-55355D01*
Y-55172D01*
X-55094D01*
Y-55042D01*
X-54963D01*
Y-54911D01*
X-54833D01*
Y-54781D01*
X-54702D01*
Y-54650D01*
Y-54520D01*
X-54572D01*
Y-54389D01*
X-54441D01*
Y-54258D01*
X-54311D01*
Y-54128D01*
Y-53997D01*
X-54180D01*
Y-53867D01*
Y-53736D01*
X-54049D01*
Y-53606D01*
Y-53475D01*
X-53919D01*
Y-53345D01*
X-53658D01*
Y-53214D01*
X-53266D01*
Y-53083D01*
X-52874D01*
Y-53214D01*
D02*
G37*
G36*
X-62667Y-59612D02*
Y-59742D01*
Y-59873D01*
Y-60003D01*
X-62797D01*
Y-59873D01*
Y-59742D01*
Y-59612D01*
Y-59481D01*
X-62667D01*
Y-59612D01*
D02*
G37*
G36*
X-64233Y-53214D02*
X-63972D01*
Y-53345D01*
X-63711D01*
Y-53475D01*
X-63581D01*
Y-53606D01*
Y-53736D01*
X-63711D01*
Y-53867D01*
Y-53997D01*
Y-54128D01*
X-63842D01*
Y-54258D01*
Y-54389D01*
X-63972D01*
Y-54520D01*
Y-54650D01*
X-64103D01*
Y-54781D01*
Y-54911D01*
X-64233D01*
Y-55042D01*
Y-55172D01*
X-64364D01*
Y-55303D01*
Y-55433D01*
Y-55564D01*
Y-55695D01*
Y-55825D01*
Y-55956D01*
Y-56086D01*
Y-56217D01*
Y-56348D01*
X-64233D01*
Y-56478D01*
Y-56609D01*
Y-56739D01*
X-64103D01*
Y-56870D01*
Y-57000D01*
Y-57131D01*
Y-57261D01*
Y-57392D01*
X-63972D01*
Y-57523D01*
Y-57653D01*
Y-57784D01*
Y-57914D01*
X-63842D01*
Y-58045D01*
Y-58175D01*
X-63711D01*
Y-58306D01*
Y-58437D01*
Y-58567D01*
X-63581D01*
Y-58698D01*
Y-58828D01*
X-63450D01*
Y-58959D01*
Y-59089D01*
Y-59220D01*
X-63320D01*
Y-59351D01*
Y-59481D01*
Y-59612D01*
Y-59742D01*
X-63189D01*
Y-59873D01*
Y-60003D01*
X-63059D01*
Y-60134D01*
Y-60264D01*
X-62667D01*
Y-60395D01*
X-62406D01*
Y-60264D01*
X-62145D01*
Y-60134D01*
Y-60003D01*
X-62014D01*
Y-59873D01*
X-61883D01*
Y-59742D01*
Y-59612D01*
Y-59481D01*
Y-59351D01*
Y-59220D01*
Y-59089D01*
Y-58959D01*
Y-58828D01*
Y-58698D01*
Y-58567D01*
Y-58437D01*
X-62014D01*
Y-58306D01*
Y-58175D01*
X-62145D01*
Y-58045D01*
Y-57914D01*
Y-57784D01*
X-62275D01*
Y-57653D01*
X-62406D01*
Y-57523D01*
Y-57392D01*
Y-57261D01*
Y-57131D01*
X-62275D01*
Y-57000D01*
Y-56870D01*
Y-56739D01*
X-62145D01*
Y-56609D01*
X-62275D01*
Y-56478D01*
Y-56348D01*
Y-56217D01*
X-62406D01*
Y-56086D01*
Y-55956D01*
Y-55825D01*
X-62536D01*
Y-55695D01*
Y-55564D01*
X-62406D01*
Y-55433D01*
X-62275D01*
Y-55303D01*
X-62145D01*
Y-55172D01*
X-62014D01*
Y-55042D01*
X-61883D01*
Y-54911D01*
Y-54781D01*
X-61753D01*
Y-54650D01*
Y-54520D01*
X-61622D01*
Y-54650D01*
X-61492D01*
Y-54781D01*
Y-54911D01*
Y-55042D01*
X-61622D01*
Y-55172D01*
Y-55303D01*
X-61753D01*
Y-55433D01*
X-61883D01*
Y-55564D01*
X-62014D01*
Y-55695D01*
Y-55825D01*
Y-55956D01*
Y-56086D01*
Y-56217D01*
Y-56348D01*
Y-56478D01*
Y-56609D01*
Y-56739D01*
Y-56870D01*
Y-57000D01*
Y-57131D01*
Y-57261D01*
Y-57392D01*
Y-57523D01*
Y-57653D01*
X-61883D01*
Y-57784D01*
Y-57914D01*
Y-58045D01*
X-61753D01*
Y-58175D01*
X-61492D01*
Y-58045D01*
X-61361D01*
Y-57914D01*
Y-57784D01*
X-61230D01*
Y-57653D01*
Y-57523D01*
X-61100D01*
Y-57392D01*
X-61230D01*
Y-57261D01*
Y-57131D01*
X-61361D01*
Y-57000D01*
X-61492D01*
Y-56870D01*
Y-56739D01*
X-61622D01*
Y-56609D01*
X-61753D01*
Y-56478D01*
Y-56348D01*
Y-56217D01*
X-61622D01*
Y-56086D01*
Y-55956D01*
X-61492D01*
Y-55825D01*
Y-55695D01*
Y-55564D01*
Y-55433D01*
Y-55303D01*
X-61361D01*
Y-55172D01*
X-61230D01*
Y-55042D01*
Y-54911D01*
X-60969D01*
Y-55042D01*
Y-55172D01*
Y-55303D01*
X-61100D01*
Y-55433D01*
X-61230D01*
Y-55564D01*
Y-55695D01*
Y-55825D01*
X-61361D01*
Y-55956D01*
Y-56086D01*
Y-56217D01*
Y-56348D01*
Y-56478D01*
Y-56609D01*
X-61230D01*
Y-56739D01*
Y-56870D01*
X-61100D01*
Y-57000D01*
Y-57131D01*
X-60839D01*
Y-57000D01*
Y-56870D01*
X-60708D01*
Y-56739D01*
Y-56609D01*
X-60839D01*
Y-56478D01*
X-60969D01*
Y-56348D01*
Y-56217D01*
Y-56086D01*
Y-55956D01*
Y-55825D01*
Y-55695D01*
X-60839D01*
Y-55564D01*
Y-55433D01*
X-60708D01*
Y-55303D01*
Y-55172D01*
X-60578D01*
Y-55303D01*
X-60447D01*
Y-55433D01*
X-60578D01*
Y-55564D01*
X-60708D01*
Y-55695D01*
Y-55825D01*
X-60839D01*
Y-55956D01*
Y-56086D01*
X-60708D01*
Y-56217D01*
Y-56348D01*
X-60578D01*
Y-56478D01*
X-60317D01*
Y-56348D01*
X-60186D01*
Y-56217D01*
X-60317D01*
Y-56086D01*
Y-55956D01*
X-60447D01*
Y-55825D01*
X-60317D01*
Y-55695D01*
Y-55564D01*
X-59925D01*
Y-55695D01*
X-59794D01*
Y-55825D01*
X-59664D01*
Y-55956D01*
X-59403D01*
Y-56086D01*
X-59533D01*
Y-56217D01*
X-59664D01*
Y-56348D01*
X-59794D01*
Y-56478D01*
X-59925D01*
Y-56609D01*
X-60186D01*
Y-56739D01*
X-60317D01*
Y-56870D01*
X-60447D01*
Y-57000D01*
X-60578D01*
Y-57131D01*
X-60708D01*
Y-57261D01*
Y-57392D01*
X-60839D01*
Y-57523D01*
X-60969D01*
Y-57653D01*
Y-57784D01*
X-61100D01*
Y-57914D01*
Y-58045D01*
Y-58175D01*
X-61230D01*
Y-58306D01*
Y-58437D01*
X-61361D01*
Y-58567D01*
Y-58698D01*
Y-58828D01*
Y-58959D01*
Y-59089D01*
Y-59220D01*
Y-59351D01*
Y-59481D01*
Y-59612D01*
X-61100D01*
Y-59481D01*
Y-59351D01*
X-60969D01*
Y-59220D01*
Y-59089D01*
Y-58959D01*
X-60839D01*
Y-58828D01*
Y-58698D01*
X-60578D01*
Y-58567D01*
X-59664D01*
Y-58698D01*
X-59533D01*
Y-58828D01*
X-59794D01*
Y-58698D01*
X-60447D01*
Y-58828D01*
X-60578D01*
Y-58959D01*
X-60708D01*
Y-59089D01*
Y-59220D01*
X-60839D01*
Y-59351D01*
Y-59481D01*
X-60969D01*
Y-59612D01*
Y-59742D01*
Y-59873D01*
X-61100D01*
Y-60003D01*
Y-60134D01*
Y-60264D01*
X-60969D01*
Y-60395D01*
X-60839D01*
Y-60526D01*
X-60708D01*
Y-60395D01*
X-60186D01*
Y-60264D01*
X-60055D01*
Y-60134D01*
X-59925D01*
Y-60003D01*
Y-59873D01*
X-59794D01*
Y-59742D01*
X-59664D01*
Y-59612D01*
Y-59481D01*
X-59533D01*
Y-59351D01*
Y-59220D01*
Y-59089D01*
Y-58959D01*
X-59141D01*
Y-58828D01*
Y-58698D01*
X-59011D01*
Y-58567D01*
Y-58437D01*
X-58880D01*
Y-58306D01*
X-58750D01*
Y-58175D01*
X-58619D01*
Y-58045D01*
Y-57914D01*
X-58489D01*
Y-57784D01*
X-58358D01*
Y-57653D01*
X-58227D01*
Y-57523D01*
X-57966D01*
Y-57392D01*
X-57836D01*
Y-57261D01*
X-57705D01*
Y-57131D01*
X-57575D01*
Y-57000D01*
X-57444D01*
Y-57131D01*
X-57314D01*
Y-57261D01*
X-57052D01*
Y-57392D01*
X-56791D01*
Y-57523D01*
X-56530D01*
Y-57653D01*
X-56400D01*
Y-57784D01*
X-56138D01*
Y-57914D01*
X-55877D01*
Y-58045D01*
X-55616D01*
Y-58175D01*
X-55355D01*
Y-58306D01*
X-55225D01*
Y-58437D01*
X-54963D01*
Y-58567D01*
X-54702D01*
Y-58698D01*
X-54441D01*
Y-58828D01*
X-54311D01*
Y-58959D01*
X-54049D01*
Y-59089D01*
X-53788D01*
Y-59220D01*
X-53527D01*
Y-59351D01*
X-53397D01*
Y-59481D01*
X-53136D01*
Y-59612D01*
X-52874D01*
Y-59742D01*
X-52613D01*
Y-59873D01*
X-52483D01*
Y-60003D01*
X-52222D01*
Y-60134D01*
X-51960D01*
Y-60264D01*
X-51699D01*
Y-60395D01*
X-51569D01*
Y-60526D01*
X-51308D01*
Y-60656D01*
X-51047D01*
Y-60787D01*
X-50785D01*
Y-60917D01*
X-50655D01*
Y-61048D01*
X-50394D01*
Y-61178D01*
X-50133D01*
Y-61309D01*
X-69064D01*
Y-61178D01*
X-68934D01*
Y-61048D01*
Y-60917D01*
X-68803D01*
Y-60787D01*
Y-60656D01*
X-68673D01*
Y-60526D01*
X-68542D01*
Y-60395D01*
Y-60264D01*
X-68412D01*
Y-60134D01*
Y-60003D01*
X-68281D01*
Y-59873D01*
X-68151D01*
Y-59742D01*
Y-59612D01*
X-68020D01*
Y-59481D01*
Y-59351D01*
X-67889D01*
Y-59220D01*
Y-59089D01*
X-67759D01*
Y-58959D01*
X-67628D01*
Y-58828D01*
Y-58698D01*
X-67498D01*
Y-58567D01*
Y-58437D01*
X-67367D01*
Y-58306D01*
X-67237D01*
Y-58175D01*
Y-58045D01*
X-67106D01*
Y-57914D01*
Y-57784D01*
X-66975D01*
Y-57653D01*
Y-57523D01*
X-66845D01*
Y-57392D01*
X-66714D01*
Y-57261D01*
Y-57131D01*
X-66584D01*
Y-57000D01*
Y-56870D01*
X-66453D01*
Y-56739D01*
X-66323D01*
Y-56609D01*
Y-56478D01*
X-66192D01*
Y-56348D01*
Y-56217D01*
X-66061D01*
Y-56086D01*
Y-55956D01*
X-65931D01*
Y-55825D01*
X-65800D01*
Y-55695D01*
Y-55564D01*
X-65670D01*
Y-55433D01*
Y-55303D01*
X-65539D01*
Y-55172D01*
Y-55042D01*
X-65409D01*
Y-54911D01*
X-65278D01*
Y-54781D01*
Y-54650D01*
X-65148D01*
Y-54520D01*
Y-54389D01*
X-65017D01*
Y-54258D01*
Y-54128D01*
X-64886D01*
Y-53997D01*
X-64756D01*
Y-53867D01*
Y-53736D01*
X-64625D01*
Y-53606D01*
Y-53475D01*
X-64495D01*
Y-53345D01*
Y-53214D01*
X-64364D01*
Y-53083D01*
X-64233D01*
Y-53214D01*
D02*
G37*
G36*
X-7417Y-78692D02*
X-6721D01*
Y-78745D01*
X-6507D01*
Y-78799D01*
X-6347D01*
Y-78852D01*
X-6132D01*
Y-78906D01*
X-5972D01*
Y-78960D01*
X-5865D01*
Y-79013D01*
X-5597D01*
Y-79067D01*
X-5490D01*
Y-79120D01*
X-5436D01*
Y-79174D01*
X-5276D01*
Y-79227D01*
X-5169D01*
Y-79281D01*
X-5062D01*
Y-79334D01*
X-4901D01*
Y-79388D01*
X-4847D01*
Y-79441D01*
X-4740D01*
Y-79495D01*
X-4633D01*
Y-79549D01*
X-4580D01*
Y-79602D01*
X-4473D01*
Y-79656D01*
X-4366D01*
Y-79709D01*
X-4312D01*
Y-79763D01*
X-4205D01*
Y-79816D01*
X-4151D01*
Y-79870D01*
X-4098D01*
Y-79923D01*
X-3991D01*
Y-79977D01*
X-3937D01*
Y-80030D01*
X-3884D01*
Y-80084D01*
X-3830D01*
Y-80137D01*
X-3777D01*
Y-80191D01*
X-3669D01*
Y-80245D01*
X-3616D01*
Y-80298D01*
X-3562D01*
Y-80352D01*
X-3509D01*
Y-80405D01*
X-3455D01*
Y-80459D01*
X-3402D01*
Y-80512D01*
X-3348D01*
Y-80566D01*
X-3295D01*
Y-80619D01*
X-3241D01*
Y-80673D01*
X-3188D01*
Y-80726D01*
X-3134D01*
Y-80780D01*
X-3081D01*
Y-80834D01*
X-3027D01*
Y-80887D01*
X-2974D01*
Y-80941D01*
X-2920D01*
Y-80994D01*
Y-81048D01*
X-2866D01*
Y-81101D01*
X-2813D01*
Y-81155D01*
Y-81208D01*
X-2706D01*
Y-81262D01*
Y-81315D01*
X-2652D01*
Y-81369D01*
Y-81423D01*
X-2545D01*
Y-81476D01*
X-2492D01*
Y-81530D01*
Y-81583D01*
X-2438D01*
Y-81637D01*
Y-81690D01*
Y-81744D01*
X-2385D01*
Y-81797D01*
X-2331D01*
Y-81851D01*
X-2277D01*
Y-81904D01*
Y-81958D01*
X-2224D01*
Y-82011D01*
Y-82065D01*
X-2170D01*
Y-82118D01*
X-2117D01*
Y-82172D01*
Y-82226D01*
Y-82279D01*
Y-82333D01*
X-2063D01*
Y-82386D01*
X-2010D01*
Y-82440D01*
Y-82493D01*
X-1956D01*
Y-82547D01*
Y-82600D01*
X-1903D01*
Y-82654D01*
Y-82708D01*
Y-82761D01*
Y-82815D01*
X-1849D01*
Y-82868D01*
Y-82922D01*
X-1796D01*
Y-82975D01*
Y-83029D01*
X-1742D01*
Y-83082D01*
Y-83136D01*
Y-83189D01*
X-1688D01*
Y-83243D01*
Y-83297D01*
X-1635D01*
Y-83350D01*
Y-83403D01*
Y-83457D01*
X-1581D01*
Y-83511D01*
Y-83564D01*
Y-83618D01*
Y-83671D01*
Y-83725D01*
Y-83778D01*
X-1528D01*
Y-83832D01*
Y-83885D01*
Y-83939D01*
Y-83992D01*
Y-84046D01*
X-1474D01*
Y-84100D01*
Y-84153D01*
Y-84207D01*
Y-84260D01*
X-1421D01*
Y-84314D01*
Y-84367D01*
Y-84421D01*
Y-84474D01*
Y-84528D01*
Y-84581D01*
Y-84635D01*
X-1367D01*
Y-84689D01*
Y-84742D01*
Y-84796D01*
Y-84849D01*
Y-84903D01*
Y-84956D01*
Y-85010D01*
Y-85063D01*
Y-85117D01*
Y-85170D01*
Y-85224D01*
Y-85277D01*
Y-85331D01*
Y-85385D01*
Y-85438D01*
Y-85492D01*
Y-85545D01*
Y-85599D01*
Y-85652D01*
Y-85706D01*
Y-85759D01*
Y-85813D01*
Y-85866D01*
Y-85920D01*
X-1421D01*
Y-85974D01*
Y-86027D01*
Y-86081D01*
Y-86134D01*
Y-86188D01*
Y-86241D01*
X-1474D01*
Y-86295D01*
Y-86348D01*
Y-86402D01*
Y-86455D01*
Y-86509D01*
X-1528D01*
Y-86563D01*
Y-86616D01*
Y-86670D01*
Y-86723D01*
Y-86777D01*
X-1581D01*
Y-86830D01*
Y-86884D01*
Y-86937D01*
Y-86991D01*
Y-87044D01*
X-1635D01*
Y-87098D01*
Y-87151D01*
Y-87205D01*
Y-87258D01*
X-1688D01*
Y-87312D01*
Y-87366D01*
X-1742D01*
Y-87419D01*
Y-87473D01*
X-1796D01*
Y-87526D01*
Y-87580D01*
Y-87633D01*
Y-87687D01*
X-1849D01*
Y-87740D01*
X-1903D01*
Y-87794D01*
Y-87848D01*
X-1849D01*
Y-87901D01*
X-1903D01*
Y-87954D01*
X-1956D01*
Y-88008D01*
Y-88062D01*
Y-88115D01*
X-2010D01*
Y-88169D01*
Y-88222D01*
Y-88276D01*
X-2063D01*
Y-88329D01*
X-2117D01*
Y-88383D01*
Y-88436D01*
X-2170D01*
Y-88490D01*
Y-88543D01*
Y-88597D01*
Y-88651D01*
X-2224D01*
Y-88704D01*
Y-88758D01*
Y-88811D01*
X-2277D01*
Y-88865D01*
X-2331D01*
Y-88918D01*
Y-88972D01*
X-2385D01*
Y-89025D01*
Y-89079D01*
X-2438D01*
Y-89132D01*
Y-89186D01*
X-2492D01*
Y-89240D01*
Y-89293D01*
Y-89347D01*
Y-89400D01*
X-2545D01*
Y-89454D01*
Y-89507D01*
X-2599D01*
Y-89561D01*
X-2652D01*
Y-89614D01*
Y-89668D01*
X-2706D01*
Y-89721D01*
Y-89775D01*
X-2759D01*
Y-89828D01*
X-2813D01*
Y-89882D01*
X-2759D01*
Y-89936D01*
X-2813D01*
Y-89989D01*
Y-90043D01*
X-2866D01*
Y-90096D01*
X-2920D01*
Y-90150D01*
Y-90203D01*
X-2974D01*
Y-90257D01*
Y-90310D01*
X-3027D01*
Y-90364D01*
Y-90417D01*
X-3081D01*
Y-90471D01*
X-3134D01*
Y-90525D01*
X-3081D01*
Y-90578D01*
X-3134D01*
Y-90632D01*
Y-90685D01*
X-3188D01*
Y-90739D01*
X-3241D01*
Y-90792D01*
X-3295D01*
Y-90846D01*
Y-90899D01*
X-3348D01*
Y-90953D01*
Y-91006D01*
X-3402D01*
Y-91060D01*
Y-91114D01*
X-3455D01*
Y-91167D01*
Y-91221D01*
X-3509D01*
Y-91274D01*
Y-91328D01*
X-3562D01*
Y-91381D01*
Y-91435D01*
X-3669D01*
Y-91488D01*
Y-91542D01*
X-3723D01*
Y-91595D01*
Y-91649D01*
Y-91702D01*
X-3777D01*
Y-91756D01*
X-3830D01*
Y-91809D01*
Y-91863D01*
X-3884D01*
Y-91917D01*
Y-91970D01*
X-3991D01*
Y-92024D01*
Y-92077D01*
X-4044D01*
Y-92131D01*
X-3991D01*
Y-92184D01*
X-4044D01*
Y-92238D01*
X-4098D01*
Y-92291D01*
X-4151D01*
Y-92345D01*
X-4205D01*
Y-92399D01*
Y-92452D01*
X-4259D01*
Y-92506D01*
Y-92559D01*
X-4312D01*
Y-92613D01*
Y-92666D01*
X-4366D01*
Y-92720D01*
Y-92773D01*
X-4419D01*
Y-92827D01*
X-4473D01*
Y-92880D01*
X-4526D01*
Y-92934D01*
Y-92987D01*
Y-93041D01*
X-4633D01*
Y-93094D01*
Y-93148D01*
X-4687D01*
Y-93202D01*
Y-93255D01*
X-4740D01*
Y-93309D01*
X-4794D01*
Y-93362D01*
Y-93416D01*
X-4847D01*
Y-93469D01*
Y-93523D01*
X-4955D01*
Y-93576D01*
X-4901D01*
Y-93630D01*
X-4955D01*
Y-93683D01*
X-5008D01*
Y-93737D01*
Y-93791D01*
X-5115D01*
Y-93844D01*
Y-93898D01*
X-5169D01*
Y-93951D01*
Y-94005D01*
X-5222D01*
Y-94058D01*
Y-94112D01*
X-5276D01*
Y-94165D01*
X-5329D01*
Y-94219D01*
Y-94272D01*
X-5383D01*
Y-94326D01*
X-5436D01*
Y-94380D01*
Y-94433D01*
X-5544D01*
Y-94487D01*
X-5490D01*
Y-94540D01*
X-5544D01*
Y-94594D01*
X-5597D01*
Y-94647D01*
Y-94701D01*
X-5704D01*
Y-94754D01*
Y-94808D01*
X-5758D01*
Y-94861D01*
X-5811D01*
Y-94915D01*
Y-94968D01*
X-5865D01*
Y-95022D01*
Y-95076D01*
X-5918D01*
Y-95129D01*
X-5972D01*
Y-95183D01*
Y-95236D01*
X-6079D01*
Y-95290D01*
Y-95343D01*
Y-95397D01*
X-6132D01*
Y-95450D01*
Y-95504D01*
X-6186D01*
Y-95557D01*
X-6293D01*
Y-95611D01*
Y-95665D01*
X-6347D01*
Y-95718D01*
X-6400D01*
Y-95772D01*
Y-95825D01*
X-6454D01*
Y-95879D01*
Y-95932D01*
X-6507D01*
Y-95986D01*
X-6561D01*
Y-96039D01*
Y-96093D01*
X-6614D01*
Y-96146D01*
X-6668D01*
Y-96200D01*
Y-96254D01*
X-6721D01*
Y-96307D01*
X-6775D01*
Y-96360D01*
Y-96414D01*
X-6829D01*
Y-96468D01*
X-6882D01*
Y-96521D01*
Y-96575D01*
X-6989D01*
Y-96628D01*
Y-96682D01*
Y-96735D01*
X-7043D01*
Y-96789D01*
X-7096D01*
Y-96842D01*
X-7150D01*
Y-96896D01*
X-7203D01*
Y-96949D01*
Y-97003D01*
X-7257D01*
Y-97057D01*
X-7310D01*
Y-97110D01*
Y-97164D01*
X-7364D01*
Y-97217D01*
Y-97271D01*
X-7417D01*
Y-97324D01*
X-7471D01*
Y-97378D01*
Y-97431D01*
X-7578D01*
Y-97485D01*
Y-97539D01*
Y-97592D01*
X-7632D01*
Y-97645D01*
Y-97699D01*
X-7739D01*
Y-97753D01*
X-7792D01*
Y-97806D01*
Y-97860D01*
X-7846D01*
Y-97913D01*
X-7899D01*
Y-97860D01*
X-7953D01*
Y-97806D01*
X-8006D01*
Y-97753D01*
Y-97699D01*
X-8113D01*
Y-97645D01*
X-8167D01*
Y-97592D01*
X-8113D01*
Y-97539D01*
X-8221D01*
Y-97485D01*
Y-97431D01*
Y-97378D01*
X-8328D01*
Y-97324D01*
Y-97271D01*
X-8381D01*
Y-97217D01*
X-8435D01*
Y-97164D01*
X-8488D01*
Y-97110D01*
Y-97057D01*
X-8542D01*
Y-97003D01*
Y-96949D01*
X-8595D01*
Y-96896D01*
X-8649D01*
Y-96842D01*
Y-96789D01*
X-8756D01*
Y-96735D01*
Y-96682D01*
Y-96628D01*
X-8863D01*
Y-96575D01*
Y-96521D01*
Y-96468D01*
X-8970D01*
Y-96414D01*
Y-96360D01*
X-9024D01*
Y-96307D01*
X-9077D01*
Y-96254D01*
Y-96200D01*
X-9131D01*
Y-96146D01*
X-9184D01*
Y-96093D01*
Y-96039D01*
X-9238D01*
Y-95986D01*
X-9291D01*
Y-95932D01*
Y-95879D01*
X-9345D01*
Y-95825D01*
X-9398D01*
Y-95772D01*
Y-95718D01*
X-9452D01*
Y-95665D01*
X-9505D01*
Y-95611D01*
Y-95557D01*
X-9613D01*
Y-95504D01*
Y-95450D01*
X-9666D01*
Y-95397D01*
Y-95343D01*
Y-95290D01*
X-9773D01*
Y-95236D01*
Y-95183D01*
X-9827D01*
Y-95129D01*
X-9880D01*
Y-95076D01*
Y-95022D01*
X-9934D01*
Y-94968D01*
X-9987D01*
Y-94915D01*
Y-94861D01*
X-10041D01*
Y-94808D01*
X-10095D01*
Y-94754D01*
Y-94701D01*
X-10202D01*
Y-94647D01*
Y-94594D01*
X-10255D01*
Y-94540D01*
X-10309D01*
Y-94487D01*
X-10255D01*
Y-94433D01*
X-10362D01*
Y-94380D01*
Y-94326D01*
X-10416D01*
Y-94272D01*
X-10469D01*
Y-94219D01*
Y-94165D01*
X-10523D01*
Y-94112D01*
X-10576D01*
Y-94058D01*
Y-94005D01*
X-10630D01*
Y-93951D01*
Y-93898D01*
X-10684D01*
Y-93844D01*
X-10737D01*
Y-93791D01*
Y-93737D01*
X-10791D01*
Y-93683D01*
X-10844D01*
Y-93630D01*
X-10898D01*
Y-93576D01*
X-10844D01*
Y-93523D01*
X-10951D01*
Y-93469D01*
Y-93416D01*
X-11005D01*
Y-93362D01*
X-11058D01*
Y-93309D01*
Y-93255D01*
X-11112D01*
Y-93202D01*
X-11165D01*
Y-93148D01*
Y-93094D01*
X-11219D01*
Y-93041D01*
Y-92987D01*
X-11272D01*
Y-92934D01*
Y-92880D01*
X-11326D01*
Y-92827D01*
X-11379D01*
Y-92773D01*
X-11433D01*
Y-92720D01*
Y-92666D01*
X-11487D01*
Y-92613D01*
Y-92559D01*
X-11540D01*
Y-92506D01*
Y-92452D01*
X-11594D01*
Y-92399D01*
X-11647D01*
Y-92345D01*
Y-92291D01*
X-11701D01*
Y-92238D01*
X-11754D01*
Y-92184D01*
X-11808D01*
Y-92131D01*
X-11754D01*
Y-92077D01*
X-11808D01*
Y-92024D01*
Y-91970D01*
X-11915D01*
Y-91917D01*
Y-91863D01*
X-11968D01*
Y-91809D01*
Y-91756D01*
X-12022D01*
Y-91702D01*
Y-91649D01*
X-12076D01*
Y-91595D01*
Y-91542D01*
X-12129D01*
Y-91488D01*
Y-91435D01*
X-12183D01*
Y-91381D01*
Y-91328D01*
X-12290D01*
Y-91274D01*
Y-91221D01*
X-12343D01*
Y-91167D01*
Y-91114D01*
X-12397D01*
Y-91060D01*
Y-91006D01*
Y-90953D01*
X-12450D01*
Y-90899D01*
X-12504D01*
Y-90846D01*
Y-90792D01*
X-12557D01*
Y-90739D01*
Y-90685D01*
X-12611D01*
Y-90632D01*
X-12664D01*
Y-90578D01*
Y-90525D01*
X-12718D01*
Y-90471D01*
Y-90417D01*
Y-90364D01*
X-12772D01*
Y-90310D01*
Y-90257D01*
X-12825D01*
Y-90203D01*
Y-90150D01*
X-12879D01*
Y-90096D01*
X-12932D01*
Y-90043D01*
Y-89989D01*
X-12986D01*
Y-89936D01*
Y-89882D01*
X-13039D01*
Y-89828D01*
Y-89775D01*
Y-89721D01*
X-13093D01*
Y-89668D01*
Y-89614D01*
X-13146D01*
Y-89561D01*
Y-89507D01*
X-13200D01*
Y-89454D01*
Y-89400D01*
X-13253D01*
Y-89347D01*
Y-89293D01*
X-13307D01*
Y-89240D01*
Y-89186D01*
Y-89132D01*
X-13361D01*
Y-89079D01*
Y-89025D01*
X-13414D01*
Y-88972D01*
Y-88918D01*
X-13468D01*
Y-88865D01*
Y-88811D01*
X-13521D01*
Y-88758D01*
Y-88704D01*
X-13575D01*
Y-88651D01*
Y-88597D01*
Y-88543D01*
X-13628D01*
Y-88490D01*
Y-88436D01*
Y-88383D01*
X-13682D01*
Y-88329D01*
Y-88276D01*
X-13735D01*
Y-88222D01*
Y-88169D01*
X-13789D01*
Y-88115D01*
Y-88062D01*
Y-88008D01*
X-13842D01*
Y-87954D01*
X-13896D01*
Y-87901D01*
Y-87848D01*
Y-87794D01*
X-13950D01*
Y-87740D01*
X-13896D01*
Y-87687D01*
X-13950D01*
Y-87633D01*
Y-87580D01*
X-14003D01*
Y-87526D01*
Y-87473D01*
Y-87419D01*
X-14057D01*
Y-87366D01*
Y-87312D01*
X-14110D01*
Y-87258D01*
Y-87205D01*
Y-87151D01*
X-14164D01*
Y-87098D01*
Y-87044D01*
Y-86991D01*
X-14217D01*
Y-86937D01*
Y-86884D01*
Y-86830D01*
Y-86777D01*
Y-86723D01*
X-14271D01*
Y-86670D01*
Y-86616D01*
Y-86563D01*
Y-86509D01*
Y-86455D01*
X-14324D01*
Y-86402D01*
Y-86348D01*
Y-86295D01*
Y-86241D01*
X-14378D01*
Y-86188D01*
Y-86134D01*
Y-86081D01*
Y-86027D01*
Y-85974D01*
Y-85920D01*
Y-85866D01*
X-14431D01*
Y-85813D01*
Y-85759D01*
Y-85706D01*
Y-85652D01*
Y-85599D01*
Y-85545D01*
Y-85492D01*
Y-85438D01*
Y-85385D01*
Y-85331D01*
Y-85277D01*
Y-85224D01*
Y-85170D01*
Y-85117D01*
Y-85063D01*
Y-85010D01*
Y-84956D01*
Y-84903D01*
Y-84849D01*
Y-84796D01*
Y-84742D01*
Y-84689D01*
Y-84635D01*
X-14378D01*
Y-84581D01*
Y-84528D01*
Y-84474D01*
Y-84421D01*
Y-84367D01*
Y-84314D01*
X-14324D01*
Y-84260D01*
Y-84207D01*
Y-84153D01*
Y-84100D01*
Y-84046D01*
X-14271D01*
Y-83992D01*
Y-83939D01*
Y-83885D01*
Y-83832D01*
X-14217D01*
Y-83778D01*
Y-83725D01*
Y-83671D01*
Y-83618D01*
Y-83564D01*
Y-83511D01*
X-14164D01*
Y-83457D01*
Y-83403D01*
Y-83350D01*
Y-83297D01*
X-14110D01*
Y-83243D01*
Y-83189D01*
X-14057D01*
Y-83136D01*
Y-83082D01*
Y-83029D01*
X-14003D01*
Y-82975D01*
Y-82922D01*
X-13950D01*
Y-82868D01*
Y-82815D01*
X-13896D01*
Y-82761D01*
Y-82708D01*
Y-82654D01*
Y-82600D01*
X-13842D01*
Y-82547D01*
Y-82493D01*
X-13789D01*
Y-82440D01*
Y-82386D01*
X-13735D01*
Y-82333D01*
X-13682D01*
Y-82279D01*
Y-82226D01*
X-13628D01*
Y-82172D01*
Y-82118D01*
Y-82065D01*
X-13575D01*
Y-82011D01*
Y-81958D01*
X-13521D01*
Y-81904D01*
X-13468D01*
Y-81851D01*
Y-81797D01*
X-13414D01*
Y-81744D01*
Y-81690D01*
X-13307D01*
Y-81637D01*
Y-81583D01*
Y-81530D01*
X-13253D01*
Y-81476D01*
Y-81423D01*
X-13146D01*
Y-81369D01*
Y-81315D01*
X-13093D01*
Y-81262D01*
Y-81208D01*
X-13039D01*
Y-81155D01*
X-12986D01*
Y-81101D01*
X-12932D01*
Y-81048D01*
X-12879D01*
Y-80994D01*
X-12825D01*
Y-80941D01*
X-12772D01*
Y-80887D01*
Y-80834D01*
X-12718D01*
Y-80780D01*
X-12664D01*
Y-80726D01*
X-12611D01*
Y-80673D01*
X-12557D01*
Y-80619D01*
X-12504D01*
Y-80566D01*
X-12450D01*
Y-80512D01*
X-12397D01*
Y-80459D01*
X-12343D01*
Y-80405D01*
X-12290D01*
Y-80352D01*
X-12236D01*
Y-80298D01*
X-12183D01*
Y-80245D01*
X-12076D01*
Y-80191D01*
X-12022D01*
Y-80137D01*
X-11968D01*
Y-80084D01*
X-11915D01*
Y-80030D01*
X-11861D01*
Y-79977D01*
X-11808D01*
Y-79923D01*
X-11701D01*
Y-79870D01*
X-11647D01*
Y-79816D01*
X-11540D01*
Y-79763D01*
X-11487D01*
Y-79709D01*
X-11433D01*
Y-79656D01*
X-11326D01*
Y-79602D01*
X-11165D01*
Y-79549D01*
X-11112D01*
Y-79495D01*
X-11005D01*
Y-79441D01*
X-10951D01*
Y-79388D01*
X-10844D01*
Y-79334D01*
X-10684D01*
Y-79281D01*
X-10576D01*
Y-79227D01*
X-10469D01*
Y-79174D01*
X-10362D01*
Y-79120D01*
X-10309D01*
Y-79067D01*
X-10148D01*
Y-79013D01*
X-9880D01*
Y-78960D01*
X-9827D01*
Y-78906D01*
X-9613D01*
Y-78852D01*
X-9452D01*
Y-78799D01*
X-9238D01*
Y-78745D01*
X-9077D01*
Y-78692D01*
X-8381D01*
Y-78638D01*
X-7417D01*
Y-78692D01*
D02*
G37*
G36*
X-4847Y-97860D02*
X-4633D01*
Y-97913D01*
X-4526D01*
Y-97967D01*
X-4366D01*
Y-98020D01*
X-4259D01*
Y-98074D01*
X-4151D01*
Y-98127D01*
X-3991D01*
Y-98181D01*
X-3937D01*
Y-98234D01*
X-3884D01*
Y-98288D01*
X-3830D01*
Y-98342D01*
Y-98395D01*
X-3777D01*
Y-98449D01*
Y-98502D01*
Y-98556D01*
X-3830D01*
Y-98609D01*
Y-98663D01*
X-3884D01*
Y-98716D01*
X-3991D01*
Y-98770D01*
X-4098D01*
Y-98823D01*
X-4205D01*
Y-98877D01*
X-4312D01*
Y-98931D01*
X-4473D01*
Y-98984D01*
X-4633D01*
Y-99038D01*
X-4847D01*
Y-99091D01*
X-5008D01*
Y-99145D01*
X-5222D01*
Y-99198D01*
X-5811D01*
Y-99252D01*
X-6239D01*
Y-99305D01*
X-6721D01*
Y-99359D01*
X-9077D01*
Y-99305D01*
X-9559D01*
Y-99252D01*
X-9987D01*
Y-99198D01*
X-10576D01*
Y-99145D01*
X-10791D01*
Y-99091D01*
X-10951D01*
Y-99038D01*
X-11112D01*
Y-98984D01*
X-11326D01*
Y-98931D01*
X-11487D01*
Y-98877D01*
X-11594D01*
Y-98823D01*
X-11701D01*
Y-98770D01*
X-11808D01*
Y-98716D01*
X-11915D01*
Y-98663D01*
X-11968D01*
Y-98609D01*
Y-98556D01*
X-12022D01*
Y-98502D01*
Y-98449D01*
Y-98395D01*
X-11968D01*
Y-98342D01*
Y-98288D01*
X-11915D01*
Y-98234D01*
X-11861D01*
Y-98181D01*
X-11808D01*
Y-98127D01*
X-11647D01*
Y-98074D01*
X-11540D01*
Y-98020D01*
X-11433D01*
Y-97967D01*
X-11272D01*
Y-97913D01*
X-11165D01*
Y-97860D01*
X-10951D01*
Y-97806D01*
X-10844D01*
Y-97860D01*
X-10898D01*
Y-97913D01*
X-11005D01*
Y-97967D01*
X-11058D01*
Y-98020D01*
X-11112D01*
Y-98074D01*
X-11219D01*
Y-98127D01*
Y-98181D01*
Y-98234D01*
Y-98288D01*
Y-98342D01*
X-11112D01*
Y-98395D01*
X-11058D01*
Y-98449D01*
X-11005D01*
Y-98502D01*
X-10898D01*
Y-98556D01*
X-10844D01*
Y-98609D01*
X-10684D01*
Y-98663D01*
X-10523D01*
Y-98716D01*
X-10255D01*
Y-98770D01*
X-10041D01*
Y-98823D01*
X-9720D01*
Y-98877D01*
X-9345D01*
Y-98931D01*
X-8970D01*
Y-98984D01*
X-6829D01*
Y-98931D01*
X-6454D01*
Y-98877D01*
X-6079D01*
Y-98823D01*
X-5758D01*
Y-98770D01*
X-5544D01*
Y-98716D01*
X-5276D01*
Y-98663D01*
X-5115D01*
Y-98609D01*
X-4955D01*
Y-98556D01*
X-4901D01*
Y-98502D01*
X-4794D01*
Y-98449D01*
X-4740D01*
Y-98395D01*
X-4687D01*
Y-98342D01*
X-4580D01*
Y-98288D01*
Y-98234D01*
Y-98181D01*
Y-98127D01*
Y-98074D01*
X-4687D01*
Y-98020D01*
X-4740D01*
Y-97967D01*
X-4794D01*
Y-97913D01*
X-4901D01*
Y-97860D01*
X-4955D01*
Y-97806D01*
X-4847D01*
Y-97860D01*
D02*
G37*
G36*
X-3295Y-98020D02*
X-3134D01*
Y-98074D01*
X-2920D01*
Y-98127D01*
X-2652D01*
Y-98181D01*
X-2438D01*
Y-98234D01*
X-2385D01*
Y-98288D01*
X-2224D01*
Y-98342D01*
X-2117D01*
Y-98395D01*
X-1956D01*
Y-98449D01*
X-1849D01*
Y-98502D01*
X-1796D01*
Y-98556D01*
X-1688D01*
Y-98609D01*
X-1635D01*
Y-98663D01*
X-1581D01*
Y-98716D01*
X-1528D01*
Y-98770D01*
X-1474D01*
Y-98823D01*
X-1421D01*
Y-98877D01*
Y-98931D01*
X-1367D01*
Y-98984D01*
Y-99038D01*
Y-99091D01*
Y-99145D01*
X-1421D01*
Y-99198D01*
Y-99252D01*
X-1528D01*
Y-99305D01*
Y-99359D01*
X-1581D01*
Y-99412D01*
X-1635D01*
Y-99466D01*
X-1688D01*
Y-99519D01*
X-1849D01*
Y-99573D01*
X-1903D01*
Y-99627D01*
X-2010D01*
Y-99680D01*
X-2117D01*
Y-99734D01*
X-2224D01*
Y-99787D01*
X-2438D01*
Y-99841D01*
X-2652D01*
Y-99894D01*
X-2813D01*
Y-99948D01*
X-2974D01*
Y-100001D01*
X-3134D01*
Y-100055D01*
X-3348D01*
Y-100108D01*
X-3777D01*
Y-100162D01*
X-4044D01*
Y-100215D01*
X-4259D01*
Y-100269D01*
X-4633D01*
Y-100323D01*
X-5008D01*
Y-100376D01*
X-5436D01*
Y-100430D01*
X-6882D01*
Y-100483D01*
X-8970D01*
Y-100430D01*
X-10362D01*
Y-100376D01*
X-10791D01*
Y-100323D01*
X-11165D01*
Y-100269D01*
X-11540D01*
Y-100215D01*
X-11754D01*
Y-100162D01*
X-12022D01*
Y-100108D01*
X-12450D01*
Y-100055D01*
X-12664D01*
Y-100001D01*
X-12825D01*
Y-99948D01*
X-12986D01*
Y-99894D01*
X-13146D01*
Y-99841D01*
X-13361D01*
Y-99787D01*
X-13575D01*
Y-99734D01*
X-13682D01*
Y-99680D01*
X-13789D01*
Y-99627D01*
X-13896D01*
Y-99573D01*
X-13950D01*
Y-99519D01*
X-14110D01*
Y-99466D01*
X-14164D01*
Y-99412D01*
X-14217D01*
Y-99359D01*
X-14271D01*
Y-99305D01*
Y-99252D01*
X-14378D01*
Y-99198D01*
Y-99145D01*
X-14431D01*
Y-99091D01*
Y-99038D01*
Y-98984D01*
Y-98931D01*
X-14378D01*
Y-98877D01*
Y-98823D01*
X-14324D01*
Y-98770D01*
X-14271D01*
Y-98716D01*
X-14217D01*
Y-98663D01*
X-14164D01*
Y-98609D01*
X-14110D01*
Y-98556D01*
X-14003D01*
Y-98502D01*
X-13950D01*
Y-98449D01*
X-13842D01*
Y-98395D01*
X-13682D01*
Y-98342D01*
X-13575D01*
Y-98288D01*
X-13414D01*
Y-98234D01*
X-13361D01*
Y-98181D01*
X-13146D01*
Y-98127D01*
X-12879D01*
Y-98074D01*
X-12664D01*
Y-98127D01*
X-12718D01*
Y-98181D01*
X-12772D01*
Y-98234D01*
X-12825D01*
Y-98288D01*
X-12932D01*
Y-98342D01*
X-13039D01*
Y-98395D01*
Y-98449D01*
X-13093D01*
Y-98502D01*
Y-98556D01*
X-13146D01*
Y-98609D01*
Y-98663D01*
X-13093D01*
Y-98716D01*
Y-98770D01*
Y-98823D01*
X-13039D01*
Y-98877D01*
X-12986D01*
Y-98931D01*
X-12932D01*
Y-98984D01*
X-12879D01*
Y-99038D01*
X-12772D01*
Y-99091D01*
X-12664D01*
Y-99145D01*
X-12557D01*
Y-99198D01*
X-12450D01*
Y-99252D01*
X-12343D01*
Y-99305D01*
X-12183D01*
Y-99359D01*
X-11915D01*
Y-99412D01*
X-11808D01*
Y-99466D01*
X-11540D01*
Y-99519D01*
X-11379D01*
Y-99573D01*
X-11112D01*
Y-99627D01*
X-10576D01*
Y-99680D01*
X-10148D01*
Y-99734D01*
X-9720D01*
Y-99787D01*
X-9077D01*
Y-99841D01*
X-6775D01*
Y-99787D01*
X-6079D01*
Y-99734D01*
X-5597D01*
Y-99680D01*
X-5222D01*
Y-99627D01*
X-4687D01*
Y-99573D01*
X-4419D01*
Y-99519D01*
X-4259D01*
Y-99466D01*
X-3991D01*
Y-99412D01*
X-3884D01*
Y-99359D01*
X-3616D01*
Y-99305D01*
X-3455D01*
Y-99252D01*
X-3348D01*
Y-99198D01*
X-3241D01*
Y-99145D01*
X-3134D01*
Y-99091D01*
X-3027D01*
Y-99038D01*
X-2920D01*
Y-98984D01*
X-2866D01*
Y-98931D01*
X-2813D01*
Y-98877D01*
X-2759D01*
Y-98823D01*
X-2706D01*
Y-98770D01*
Y-98716D01*
Y-98663D01*
X-2652D01*
Y-98609D01*
Y-98556D01*
X-2706D01*
Y-98502D01*
Y-98449D01*
X-2759D01*
Y-98395D01*
Y-98342D01*
X-2866D01*
Y-98288D01*
X-2974D01*
Y-98234D01*
X-3027D01*
Y-98181D01*
X-3081D01*
Y-98127D01*
X-3188D01*
Y-98074D01*
X-3295D01*
Y-98020D01*
X-3509D01*
Y-97967D01*
X-3295D01*
Y-98020D01*
D02*
G37*
G36*
X-72508Y-136838D02*
X-74083Y-138019D01*
Y-135657D01*
X-72508Y-136838D01*
D02*
G37*
G36*
X-27505Y-156088D02*
X-27218D01*
Y-156136D01*
X-27074D01*
Y-156184D01*
X-26930D01*
Y-156232D01*
X-26882D01*
Y-156280D01*
X-26786D01*
Y-156328D01*
X-26738D01*
Y-156376D01*
X-26690D01*
Y-156424D01*
X-26643D01*
Y-156472D01*
X-26595D01*
Y-156520D01*
Y-156568D01*
X-26547D01*
Y-156615D01*
X-26499D01*
Y-156663D01*
Y-156711D01*
X-26451D01*
Y-156759D01*
Y-156807D01*
X-26403D01*
Y-156855D01*
Y-156903D01*
Y-156951D01*
X-26355D01*
Y-156999D01*
Y-157047D01*
Y-157095D01*
Y-157142D01*
Y-157190D01*
Y-157238D01*
Y-157286D01*
Y-157334D01*
Y-157382D01*
Y-157430D01*
X-26403D01*
Y-157478D01*
Y-157526D01*
Y-157574D01*
Y-157622D01*
X-26451D01*
Y-157669D01*
Y-157717D01*
X-26499D01*
Y-157765D01*
Y-157813D01*
X-26547D01*
Y-157861D01*
X-26595D01*
Y-157909D01*
Y-157957D01*
X-26643D01*
Y-158005D01*
X-26690D01*
Y-158053D01*
X-26738D01*
Y-158101D01*
X-26786D01*
Y-158149D01*
X-26882D01*
Y-158196D01*
X-26930D01*
Y-158244D01*
X-27074D01*
Y-158292D01*
X-27218D01*
Y-158340D01*
X-27505D01*
Y-158388D01*
X-27553D01*
Y-158340D01*
X-27840D01*
Y-158292D01*
X-27984D01*
Y-158244D01*
X-28080D01*
Y-158196D01*
X-28128D01*
Y-158149D01*
X-28224D01*
Y-158101D01*
X-28271D01*
Y-158053D01*
X-28319D01*
Y-158005D01*
X-28367D01*
Y-157957D01*
X-28415D01*
Y-157909D01*
Y-157861D01*
X-28463D01*
Y-157813D01*
X-28511D01*
Y-157765D01*
Y-157717D01*
X-28559D01*
Y-157669D01*
Y-157622D01*
X-28607D01*
Y-157574D01*
Y-157526D01*
Y-157478D01*
Y-157430D01*
X-28655D01*
Y-157382D01*
Y-157334D01*
Y-157286D01*
Y-157238D01*
Y-157190D01*
Y-157142D01*
Y-157095D01*
Y-157047D01*
Y-156999D01*
X-28607D01*
Y-156951D01*
Y-156903D01*
Y-156855D01*
Y-156807D01*
X-28559D01*
Y-156759D01*
Y-156711D01*
X-28511D01*
Y-156663D01*
Y-156615D01*
X-28463D01*
Y-156568D01*
Y-156520D01*
X-28415D01*
Y-156472D01*
X-28367D01*
Y-156424D01*
X-28319D01*
Y-156376D01*
X-28271D01*
Y-156328D01*
X-28224D01*
Y-156280D01*
X-28128D01*
Y-156232D01*
X-28080D01*
Y-156184D01*
X-27984D01*
Y-156136D01*
X-27840D01*
Y-156088D01*
X-27553D01*
Y-156041D01*
X-27505D01*
Y-156088D01*
D02*
G37*
G36*
X-25541Y-159107D02*
X-25493D01*
Y-159155D01*
X-25445D01*
Y-159203D01*
X-25397D01*
Y-159250D01*
X-25349D01*
Y-159298D01*
X-25301D01*
Y-159346D01*
X-25253D01*
Y-159394D01*
X-25205D01*
Y-159442D01*
X-25157D01*
Y-159490D01*
X-25109D01*
Y-159538D01*
X-25062D01*
Y-159586D01*
X-25014D01*
Y-159634D01*
X-24966D01*
Y-159682D01*
X-24918D01*
Y-159730D01*
X-24870D01*
Y-159777D01*
Y-159825D01*
X-24822D01*
Y-159873D01*
X-24774D01*
Y-159921D01*
X-24726D01*
Y-159969D01*
X-24678D01*
Y-160017D01*
X-24630D01*
Y-160065D01*
X-24582D01*
Y-160113D01*
X-24534D01*
Y-160161D01*
X-24487D01*
Y-160209D01*
X-24439D01*
Y-160257D01*
X-24391D01*
Y-160304D01*
Y-160352D01*
X-24439D01*
Y-160400D01*
X-24487D01*
Y-160448D01*
X-24534D01*
Y-160496D01*
X-24582D01*
Y-160544D01*
X-24678D01*
Y-160592D01*
X-24726D01*
Y-160640D01*
X-24774D01*
Y-160688D01*
X-24822D01*
Y-160736D01*
X-24918D01*
Y-160784D01*
X-24966D01*
Y-160831D01*
X-25014D01*
Y-160879D01*
X-25109D01*
Y-160927D01*
X-25157D01*
Y-160975D01*
X-25253D01*
Y-161023D01*
X-25349D01*
Y-161071D01*
X-25397D01*
Y-161119D01*
X-25541D01*
Y-161167D01*
X-25589D01*
Y-161215D01*
X-25732D01*
Y-161263D01*
X-25828D01*
Y-161311D01*
X-25924D01*
Y-161358D01*
X-26068D01*
Y-161406D01*
X-26211D01*
Y-161454D01*
X-26403D01*
Y-161502D01*
X-26595D01*
Y-161550D01*
X-26882D01*
Y-161598D01*
X-28128D01*
Y-161550D01*
X-28415D01*
Y-161502D01*
X-28607D01*
Y-161454D01*
X-28798D01*
Y-161406D01*
X-28942D01*
Y-161358D01*
X-29038D01*
Y-161311D01*
X-29182D01*
Y-161263D01*
X-29278D01*
Y-161215D01*
X-29373D01*
Y-161167D01*
X-29517D01*
Y-161119D01*
X-29565D01*
Y-161071D01*
X-29661D01*
Y-161023D01*
X-29757D01*
Y-160975D01*
X-29853D01*
Y-160927D01*
X-29900D01*
Y-160879D01*
X-29996D01*
Y-160831D01*
X-30044D01*
Y-160784D01*
X-30092D01*
Y-160736D01*
X-30188D01*
Y-160688D01*
X-30236D01*
Y-160640D01*
X-30284D01*
Y-160592D01*
X-30332D01*
Y-160544D01*
X-30427D01*
Y-160496D01*
X-30475D01*
Y-160448D01*
X-30523D01*
Y-160400D01*
X-30571D01*
Y-160352D01*
X-30619D01*
Y-160304D01*
Y-160257D01*
X-30571D01*
Y-160209D01*
X-30523D01*
Y-160161D01*
X-30475D01*
Y-160113D01*
X-30427D01*
Y-160065D01*
X-30380D01*
Y-160017D01*
X-30332D01*
Y-159969D01*
X-30284D01*
Y-159921D01*
X-30236D01*
Y-159873D01*
X-30188D01*
Y-159825D01*
X-30140D01*
Y-159777D01*
X-30092D01*
Y-159730D01*
X-30044D01*
Y-159682D01*
X-29996D01*
Y-159634D01*
X-29948D01*
Y-159586D01*
X-29900D01*
Y-159538D01*
X-29853D01*
Y-159490D01*
X-29805D01*
Y-159442D01*
X-29757D01*
Y-159394D01*
X-29709D01*
Y-159346D01*
X-29661D01*
Y-159298D01*
X-29613D01*
Y-159250D01*
X-29565D01*
Y-159203D01*
X-29517D01*
Y-159155D01*
X-29469D01*
Y-159107D01*
X-29421D01*
Y-159155D01*
X-29373D01*
Y-159203D01*
X-29326D01*
Y-159250D01*
X-29230D01*
Y-159298D01*
X-29182D01*
Y-159346D01*
X-29134D01*
Y-159394D01*
X-29038D01*
Y-159442D01*
X-28990D01*
Y-159490D01*
X-28894D01*
Y-159538D01*
X-28846D01*
Y-159586D01*
X-28751D01*
Y-159634D01*
X-28655D01*
Y-159682D01*
X-28511D01*
Y-159730D01*
X-28367D01*
Y-159777D01*
X-28224D01*
Y-159825D01*
X-27984D01*
Y-159873D01*
X-27074D01*
Y-159825D01*
X-26834D01*
Y-159777D01*
X-26690D01*
Y-159730D01*
X-26547D01*
Y-159682D01*
X-26403D01*
Y-159634D01*
X-26307D01*
Y-159586D01*
X-26211D01*
Y-159538D01*
X-26163D01*
Y-159490D01*
X-26068D01*
Y-159442D01*
X-25972D01*
Y-159394D01*
X-25924D01*
Y-159346D01*
X-25876D01*
Y-159298D01*
X-25828D01*
Y-159250D01*
X-25732D01*
Y-159203D01*
X-25684D01*
Y-159155D01*
X-25636D01*
Y-159107D01*
X-25589D01*
Y-159059D01*
X-25541D01*
Y-159107D01*
D02*
G37*
G36*
X-23241Y-161502D02*
X-23193D01*
Y-161550D01*
X-23145D01*
Y-161598D01*
X-23097D01*
Y-161646D01*
X-23049D01*
Y-161694D01*
X-23001D01*
Y-161742D01*
X-22953D01*
Y-161790D01*
X-22906D01*
Y-161838D01*
X-22858D01*
Y-161885D01*
X-22810D01*
Y-161933D01*
X-22762D01*
Y-161981D01*
X-22714D01*
Y-162029D01*
X-22666D01*
Y-162077D01*
X-22618D01*
Y-162125D01*
X-22570D01*
Y-162173D01*
X-22522D01*
Y-162221D01*
X-22474D01*
Y-162269D01*
X-22426D01*
Y-162317D01*
X-22378D01*
Y-162365D01*
X-22331D01*
Y-162413D01*
X-22283D01*
Y-162460D01*
X-22235D01*
Y-162508D01*
X-22187D01*
Y-162556D01*
X-22139D01*
Y-162604D01*
Y-162652D01*
X-22091D01*
Y-162700D01*
X-22139D01*
Y-162748D01*
X-22187D01*
Y-162796D01*
X-22235D01*
Y-162844D01*
X-22283D01*
Y-162892D01*
X-22331D01*
Y-162940D01*
X-22378D01*
Y-162987D01*
X-22426D01*
Y-163035D01*
X-22474D01*
Y-163083D01*
X-22522D01*
Y-163131D01*
X-22618D01*
Y-163179D01*
X-22666D01*
Y-163227D01*
X-22714D01*
Y-163275D01*
X-22762D01*
Y-163323D01*
X-22858D01*
Y-163371D01*
X-22906D01*
Y-163419D01*
X-22953D01*
Y-163467D01*
X-23049D01*
Y-163514D01*
X-23097D01*
Y-163562D01*
X-23193D01*
Y-163610D01*
X-23241D01*
Y-163658D01*
X-23337D01*
Y-163706D01*
X-23385D01*
Y-163754D01*
X-23480D01*
Y-163802D01*
X-23528D01*
Y-163850D01*
X-23624D01*
Y-163898D01*
X-23720D01*
Y-163946D01*
X-23816D01*
Y-163994D01*
X-23864D01*
Y-164041D01*
X-23959D01*
Y-164089D01*
X-24055D01*
Y-164137D01*
X-24151D01*
Y-164185D01*
X-24247D01*
Y-164233D01*
X-24391D01*
Y-164281D01*
X-24487D01*
Y-164329D01*
X-24582D01*
Y-164377D01*
X-24726D01*
Y-164425D01*
X-24822D01*
Y-164473D01*
X-24966D01*
Y-164521D01*
X-25109D01*
Y-164568D01*
X-25253D01*
Y-164616D01*
X-25445D01*
Y-164664D01*
X-25636D01*
Y-164712D01*
X-25828D01*
Y-164760D01*
X-26020D01*
Y-164808D01*
X-26307D01*
Y-164856D01*
X-26690D01*
Y-164904D01*
X-28319D01*
Y-164856D01*
X-28703D01*
Y-164808D01*
X-28942D01*
Y-164760D01*
X-29182D01*
Y-164712D01*
X-29373D01*
Y-164664D01*
X-29565D01*
Y-164616D01*
X-29757D01*
Y-164568D01*
X-29900D01*
Y-164521D01*
X-30044D01*
Y-164473D01*
X-30188D01*
Y-164425D01*
X-30284D01*
Y-164377D01*
X-30427D01*
Y-164329D01*
X-30523D01*
Y-164281D01*
X-30619D01*
Y-164233D01*
X-30763D01*
Y-164185D01*
X-30859D01*
Y-164137D01*
X-30955D01*
Y-164089D01*
X-31050D01*
Y-164041D01*
X-31146D01*
Y-163994D01*
X-31194D01*
Y-163946D01*
X-31290D01*
Y-163898D01*
X-31386D01*
Y-163850D01*
X-31482D01*
Y-163802D01*
X-31529D01*
Y-163754D01*
X-31625D01*
Y-163706D01*
X-31673D01*
Y-163658D01*
X-31769D01*
Y-163610D01*
X-31817D01*
Y-163562D01*
X-31913D01*
Y-163514D01*
X-31961D01*
Y-163467D01*
X-32056D01*
Y-163419D01*
X-32104D01*
Y-163371D01*
X-32152D01*
Y-163323D01*
X-32248D01*
Y-163275D01*
X-32296D01*
Y-163227D01*
X-32344D01*
Y-163179D01*
X-32392D01*
Y-163131D01*
X-32488D01*
Y-163083D01*
X-32535D01*
Y-163035D01*
X-32583D01*
Y-162987D01*
X-32631D01*
Y-162940D01*
X-32679D01*
Y-162892D01*
X-32727D01*
Y-162844D01*
X-32775D01*
Y-162796D01*
X-32823D01*
Y-162748D01*
X-32871D01*
Y-162700D01*
X-32919D01*
Y-162652D01*
X-32967D01*
Y-162604D01*
Y-162556D01*
X-32919D01*
Y-162508D01*
X-32871D01*
Y-162460D01*
X-32823D01*
Y-162413D01*
X-32775D01*
Y-162365D01*
X-32727D01*
Y-162317D01*
X-32679D01*
Y-162269D01*
X-32631D01*
Y-162221D01*
X-32535D01*
Y-162173D01*
Y-162125D01*
X-32488D01*
Y-162077D01*
X-32440D01*
Y-162029D01*
X-32392D01*
Y-161981D01*
X-32296D01*
Y-161933D01*
X-32248D01*
Y-161885D01*
X-32200D01*
Y-161838D01*
Y-161790D01*
X-32104D01*
Y-161742D01*
X-32056D01*
Y-161694D01*
X-32008D01*
Y-161646D01*
X-31961D01*
Y-161598D01*
Y-161550D01*
X-31865D01*
Y-161502D01*
X-31817D01*
Y-161454D01*
X-31721D01*
Y-161502D01*
X-31673D01*
Y-161550D01*
X-31625D01*
Y-161598D01*
X-31577D01*
Y-161646D01*
X-31529D01*
Y-161694D01*
X-31482D01*
Y-161742D01*
X-31434D01*
Y-161790D01*
X-31386D01*
Y-161838D01*
X-31290D01*
Y-161885D01*
X-31242D01*
Y-161933D01*
X-31194D01*
Y-161981D01*
X-31098D01*
Y-162029D01*
X-31050D01*
Y-162077D01*
X-31002D01*
Y-162125D01*
X-30907D01*
Y-162173D01*
X-30859D01*
Y-162221D01*
X-30763D01*
Y-162269D01*
X-30715D01*
Y-162317D01*
X-30619D01*
Y-162365D01*
X-30523D01*
Y-162413D01*
X-30475D01*
Y-162460D01*
X-30380D01*
Y-162508D01*
X-30284D01*
Y-162556D01*
X-30188D01*
Y-162604D01*
X-30092D01*
Y-162652D01*
X-29996D01*
Y-162700D01*
X-29853D01*
Y-162748D01*
X-29757D01*
Y-162796D01*
X-29613D01*
Y-162844D01*
X-29469D01*
Y-162892D01*
X-29326D01*
Y-162940D01*
X-29182D01*
Y-162987D01*
X-28990D01*
Y-163035D01*
X-28798D01*
Y-163083D01*
X-28559D01*
Y-163131D01*
X-28176D01*
Y-163179D01*
X-26882D01*
Y-163131D01*
X-26499D01*
Y-163083D01*
X-26259D01*
Y-163035D01*
X-26068D01*
Y-162987D01*
X-25876D01*
Y-162940D01*
X-25732D01*
Y-162892D01*
X-25541D01*
Y-162844D01*
X-25445D01*
Y-162796D01*
X-25301D01*
Y-162748D01*
X-25205D01*
Y-162700D01*
X-25062D01*
Y-162652D01*
X-24966D01*
Y-162604D01*
X-24870D01*
Y-162556D01*
X-24774D01*
Y-162508D01*
X-24678D01*
Y-162460D01*
X-24582D01*
Y-162413D01*
X-24534D01*
Y-162365D01*
X-24439D01*
Y-162317D01*
X-24343D01*
Y-162269D01*
X-24295D01*
Y-162221D01*
X-24199D01*
Y-162173D01*
X-24151D01*
Y-162125D01*
X-24055D01*
Y-162077D01*
X-24008D01*
Y-162029D01*
X-23912D01*
Y-161981D01*
X-23864D01*
Y-161933D01*
X-23816D01*
Y-161885D01*
X-23768D01*
Y-161838D01*
X-23672D01*
Y-161790D01*
X-23624D01*
Y-161742D01*
X-23576D01*
Y-161694D01*
X-23528D01*
Y-161646D01*
X-23480D01*
Y-161598D01*
X-23433D01*
Y-161550D01*
X-23385D01*
Y-161502D01*
X-23337D01*
Y-161454D01*
X-23241D01*
Y-161502D01*
D02*
G37*
G36*
X-34117Y-163850D02*
X-34069D01*
Y-163898D01*
X-34021D01*
Y-163946D01*
X-33973D01*
Y-163994D01*
X-33925D01*
Y-164041D01*
X-33877D01*
Y-164089D01*
X-33829D01*
Y-164137D01*
X-33781D01*
Y-164185D01*
X-33733D01*
Y-164233D01*
X-33685D01*
Y-164281D01*
X-33637D01*
Y-164329D01*
X-33542D01*
Y-164377D01*
X-33494D01*
Y-164425D01*
X-33446D01*
Y-164473D01*
X-33398D01*
Y-164521D01*
X-33350D01*
Y-164568D01*
X-33254D01*
Y-164616D01*
X-33206D01*
Y-164664D01*
X-33158D01*
Y-164712D01*
X-33062D01*
Y-164760D01*
X-33015D01*
Y-164808D01*
X-32967D01*
Y-164856D01*
X-32871D01*
Y-164904D01*
X-32823D01*
Y-164952D01*
X-32727D01*
Y-165000D01*
X-32679D01*
Y-165048D01*
X-32583D01*
Y-165095D01*
X-32535D01*
Y-165143D01*
X-32440D01*
Y-165191D01*
X-32344D01*
Y-165239D01*
X-32296D01*
Y-165287D01*
X-32200D01*
Y-165335D01*
X-32104D01*
Y-165383D01*
X-32008D01*
Y-165431D01*
X-31913D01*
Y-165479D01*
X-31865D01*
Y-165527D01*
X-31769D01*
Y-165575D01*
X-31673D01*
Y-165622D01*
X-31577D01*
Y-165671D01*
X-31482D01*
Y-165718D01*
X-31338D01*
Y-165766D01*
X-31242D01*
Y-165814D01*
X-31146D01*
Y-165862D01*
X-31002D01*
Y-165910D01*
X-30907D01*
Y-165958D01*
X-30763D01*
Y-166006D01*
X-30619D01*
Y-166054D01*
X-30475D01*
Y-166102D01*
X-30332D01*
Y-166149D01*
X-30188D01*
Y-166198D01*
X-29996D01*
Y-166245D01*
X-29805D01*
Y-166293D01*
X-29613D01*
Y-166341D01*
X-29421D01*
Y-166389D01*
X-29134D01*
Y-166437D01*
X-28846D01*
Y-166485D01*
X-28415D01*
Y-166533D01*
X-26643D01*
Y-166485D01*
X-26211D01*
Y-166437D01*
X-25924D01*
Y-166389D01*
X-25684D01*
Y-166341D01*
X-25445D01*
Y-166293D01*
X-25253D01*
Y-166245D01*
X-25062D01*
Y-166198D01*
X-24870D01*
Y-166149D01*
X-24726D01*
Y-166102D01*
X-24582D01*
Y-166054D01*
X-24439D01*
Y-166006D01*
X-24295D01*
Y-165958D01*
X-24151D01*
Y-165910D01*
X-24055D01*
Y-165862D01*
X-23912D01*
Y-165814D01*
X-23816D01*
Y-165766D01*
X-23720D01*
Y-165718D01*
X-23624D01*
Y-165671D01*
X-23480D01*
Y-165622D01*
X-23385D01*
Y-165575D01*
X-23289D01*
Y-165527D01*
X-23193D01*
Y-165479D01*
X-23145D01*
Y-165431D01*
X-23049D01*
Y-165383D01*
X-22953D01*
Y-165335D01*
X-22858D01*
Y-165287D01*
X-22762D01*
Y-165239D01*
X-22714D01*
Y-165191D01*
X-22618D01*
Y-165143D01*
X-22522D01*
Y-165095D01*
X-22474D01*
Y-165048D01*
X-22378D01*
Y-165000D01*
X-22331D01*
Y-164952D01*
X-22235D01*
Y-164904D01*
X-22187D01*
Y-164856D01*
X-22091D01*
Y-164808D01*
X-22043D01*
Y-164760D01*
X-21995D01*
Y-164712D01*
X-21899D01*
Y-164664D01*
X-21851D01*
Y-164616D01*
X-21804D01*
Y-164568D01*
X-21708D01*
Y-164521D01*
X-21660D01*
Y-164473D01*
X-21612D01*
Y-164425D01*
X-21564D01*
Y-164377D01*
X-21516D01*
Y-164329D01*
X-21420D01*
Y-164281D01*
X-21372D01*
Y-164233D01*
X-21325D01*
Y-164185D01*
X-21277D01*
Y-164137D01*
X-21229D01*
Y-164089D01*
X-21181D01*
Y-164041D01*
X-21133D01*
Y-163994D01*
X-21085D01*
Y-163946D01*
X-21037D01*
Y-163898D01*
X-20989D01*
Y-163850D01*
X-20893D01*
Y-163898D01*
X-20845D01*
Y-163946D01*
X-20798D01*
Y-163994D01*
Y-164041D01*
X-20750D01*
Y-164089D01*
X-20702D01*
Y-164137D01*
X-20654D01*
Y-164185D01*
X-20606D01*
Y-164233D01*
X-20558D01*
Y-164281D01*
X-20510D01*
Y-164329D01*
X-20462D01*
Y-164377D01*
X-20414D01*
Y-164425D01*
X-20366D01*
Y-164473D01*
X-20318D01*
Y-164521D01*
X-20270D01*
Y-164568D01*
X-20223D01*
Y-164616D01*
X-20175D01*
Y-164664D01*
X-20127D01*
Y-164712D01*
X-20079D01*
Y-164760D01*
X-20031D01*
Y-164808D01*
X-19983D01*
Y-164856D01*
X-19935D01*
Y-164904D01*
X-19887D01*
Y-164952D01*
X-19839D01*
Y-165000D01*
X-19791D01*
Y-165048D01*
X-19744D01*
Y-165095D01*
X-19791D01*
Y-165143D01*
X-19839D01*
Y-165191D01*
X-19887D01*
Y-165239D01*
X-19935D01*
Y-165287D01*
X-19983D01*
Y-165335D01*
X-20031D01*
Y-165383D01*
X-20079D01*
Y-165431D01*
X-20127D01*
Y-165479D01*
X-20175D01*
Y-165527D01*
X-20223D01*
Y-165575D01*
X-20270D01*
Y-165622D01*
X-20366D01*
Y-165671D01*
X-20414D01*
Y-165718D01*
X-20462D01*
Y-165766D01*
X-20510D01*
Y-165814D01*
X-20558D01*
Y-165862D01*
X-20654D01*
Y-165910D01*
X-20702D01*
Y-165958D01*
X-20750D01*
Y-166006D01*
X-20798D01*
Y-166054D01*
X-20893D01*
Y-166102D01*
X-20941D01*
Y-166149D01*
X-21037D01*
Y-166198D01*
X-21085D01*
Y-166245D01*
X-21133D01*
Y-166293D01*
X-21229D01*
Y-166341D01*
X-21277D01*
Y-166389D01*
X-21372D01*
Y-166437D01*
X-21420D01*
Y-166485D01*
X-21516D01*
Y-166533D01*
X-21564D01*
Y-166581D01*
X-21660D01*
Y-166629D01*
X-21708D01*
Y-166677D01*
X-21804D01*
Y-166725D01*
X-21899D01*
Y-166772D01*
X-21947D01*
Y-166820D01*
X-22043D01*
Y-166868D01*
X-22139D01*
Y-166916D01*
X-22235D01*
Y-166964D01*
X-22331D01*
Y-167012D01*
X-22378D01*
Y-167060D01*
X-22474D01*
Y-167108D01*
X-22570D01*
Y-167156D01*
X-22666D01*
Y-167204D01*
X-22762D01*
Y-167252D01*
X-22906D01*
Y-167299D01*
X-23001D01*
Y-167347D01*
X-23097D01*
Y-167395D01*
X-23193D01*
Y-167443D01*
X-23337D01*
Y-167491D01*
X-23433D01*
Y-167539D01*
X-23576D01*
Y-167587D01*
X-23720D01*
Y-167635D01*
X-23816D01*
Y-167683D01*
X-23959D01*
Y-167731D01*
X-24103D01*
Y-167779D01*
X-24247D01*
Y-167826D01*
X-24439D01*
Y-167874D01*
X-24582D01*
Y-167922D01*
X-24774D01*
Y-167970D01*
X-24966D01*
Y-168018D01*
X-25205D01*
Y-168066D01*
X-25445D01*
Y-168114D01*
X-25732D01*
Y-168162D01*
X-26020D01*
Y-168210D01*
X-26451D01*
Y-168258D01*
X-27409D01*
Y-168306D01*
X-27649D01*
Y-168258D01*
X-28559D01*
Y-168210D01*
X-28990D01*
Y-168162D01*
X-29326D01*
Y-168114D01*
X-29565D01*
Y-168066D01*
X-29805D01*
Y-168018D01*
X-30044D01*
Y-167970D01*
X-30236D01*
Y-167922D01*
X-30427D01*
Y-167874D01*
X-30571D01*
Y-167826D01*
X-30763D01*
Y-167779D01*
X-30907D01*
Y-167731D01*
X-31050D01*
Y-167683D01*
X-31194D01*
Y-167635D01*
X-31338D01*
Y-167587D01*
X-31434D01*
Y-167539D01*
X-31577D01*
Y-167491D01*
X-31673D01*
Y-167443D01*
X-31817D01*
Y-167395D01*
X-31913D01*
Y-167347D01*
X-32008D01*
Y-167299D01*
X-32152D01*
Y-167252D01*
X-32248D01*
Y-167204D01*
X-32344D01*
Y-167156D01*
X-32440D01*
Y-167108D01*
X-32535D01*
Y-167060D01*
X-32631D01*
Y-167012D01*
X-32727D01*
Y-166964D01*
X-32775D01*
Y-166916D01*
X-32871D01*
Y-166868D01*
X-32967D01*
Y-166820D01*
X-33062D01*
Y-166772D01*
X-33110D01*
Y-166725D01*
X-33206D01*
Y-166677D01*
X-33302D01*
Y-166629D01*
X-33350D01*
Y-166581D01*
X-33446D01*
Y-166533D01*
X-33494D01*
Y-166485D01*
X-33590D01*
Y-166437D01*
X-33685D01*
Y-166389D01*
X-33733D01*
Y-166341D01*
X-33781D01*
Y-166293D01*
X-33877D01*
Y-166245D01*
X-33925D01*
Y-166198D01*
X-34021D01*
Y-166149D01*
X-34069D01*
Y-166102D01*
X-34117D01*
Y-166054D01*
X-34212D01*
Y-166006D01*
X-34260D01*
Y-165958D01*
X-34308D01*
Y-165910D01*
X-34356D01*
Y-165862D01*
X-34452D01*
Y-165814D01*
X-34500D01*
Y-165766D01*
X-34548D01*
Y-165718D01*
X-34596D01*
Y-165671D01*
X-34691D01*
Y-165622D01*
X-34739D01*
Y-165575D01*
X-34787D01*
Y-165527D01*
X-34835D01*
Y-165479D01*
X-34883D01*
Y-165431D01*
X-34931D01*
Y-165383D01*
X-34979D01*
Y-165335D01*
X-35027D01*
Y-165287D01*
X-35075D01*
Y-165239D01*
X-35123D01*
Y-165191D01*
X-35171D01*
Y-165143D01*
X-35266D01*
Y-165095D01*
X-35314D01*
Y-165048D01*
X-35362D01*
Y-165000D01*
Y-164952D01*
X-35314D01*
Y-164904D01*
X-35266D01*
Y-164856D01*
X-35219D01*
Y-164808D01*
X-35171D01*
Y-164760D01*
X-35123D01*
Y-164712D01*
X-35075D01*
Y-164664D01*
X-35027D01*
Y-164616D01*
X-34979D01*
Y-164568D01*
X-34931D01*
Y-164521D01*
X-34883D01*
Y-164473D01*
X-34835D01*
Y-164425D01*
X-34787D01*
Y-164377D01*
X-34739D01*
Y-164329D01*
X-34691D01*
Y-164281D01*
X-34644D01*
Y-164233D01*
X-34596D01*
Y-164185D01*
X-34548D01*
Y-164137D01*
X-34500D01*
Y-164089D01*
X-34452D01*
Y-164041D01*
X-34404D01*
Y-163994D01*
X-34356D01*
Y-163946D01*
X-34308D01*
Y-163898D01*
X-34260D01*
Y-163850D01*
X-34212D01*
Y-163802D01*
X-34117D01*
Y-163850D01*
D02*
G37*
%LPC*%
G36*
X-459Y121047D02*
X-1877D01*
Y120929D01*
X-2232D01*
Y120811D01*
X-2468D01*
Y120693D01*
X-2704D01*
Y120574D01*
X-2822D01*
Y120456D01*
X-2941D01*
Y120338D01*
X-3177D01*
Y120220D01*
X-3295D01*
Y120102D01*
Y119984D01*
X-3531D01*
Y119866D01*
Y119747D01*
X-3650D01*
Y119629D01*
Y119511D01*
X-3768D01*
Y119393D01*
Y119275D01*
X-3886D01*
Y119157D01*
Y119038D01*
Y118920D01*
Y118802D01*
X-4004D01*
Y118684D01*
Y118566D01*
Y118447D01*
Y118329D01*
Y118211D01*
Y118093D01*
Y117975D01*
Y117857D01*
X-3886D01*
Y117739D01*
Y117620D01*
Y117502D01*
Y117384D01*
X-3768D01*
Y117266D01*
Y117148D01*
Y117030D01*
X-3650D01*
Y116911D01*
Y116793D01*
X-3531D01*
Y116675D01*
X-3413D01*
Y116557D01*
X-3295D01*
Y116439D01*
Y116321D01*
X-3177D01*
Y116202D01*
X-3059D01*
Y116084D01*
X-2822D01*
Y115966D01*
X-2704D01*
Y115848D01*
X-2468D01*
Y115730D01*
X-2114D01*
Y115612D01*
X-1877D01*
Y115494D01*
X-459D01*
Y115612D01*
X-223D01*
Y115730D01*
X132D01*
Y115848D01*
X250D01*
Y115966D01*
X486D01*
Y116084D01*
X604D01*
Y116202D01*
X722D01*
Y116321D01*
X840D01*
Y116439D01*
X959D01*
Y116557D01*
X1077D01*
Y116675D01*
X1195D01*
Y116793D01*
Y116911D01*
X1313D01*
Y117030D01*
Y117148D01*
X1431D01*
Y117266D01*
Y117384D01*
Y117502D01*
X1550D01*
Y117620D01*
Y117739D01*
X1668D01*
Y117857D01*
Y117975D01*
Y118093D01*
Y118211D01*
Y118329D01*
Y118447D01*
Y118566D01*
Y118684D01*
Y118802D01*
X1550D01*
Y118920D01*
Y119038D01*
Y119157D01*
X1195D01*
Y119038D01*
X1077D01*
Y118920D01*
X959D01*
Y118802D01*
X840D01*
Y118684D01*
X722D01*
Y118566D01*
X604D01*
Y118447D01*
X486D01*
Y118329D01*
X368D01*
Y118211D01*
X250D01*
Y118093D01*
X132D01*
Y117975D01*
X13D01*
Y117857D01*
X-105D01*
Y117739D01*
X-223D01*
Y117620D01*
X-459D01*
Y117739D01*
Y117857D01*
X-341D01*
Y117975D01*
X-223D01*
Y118093D01*
X-105D01*
Y118211D01*
X13D01*
Y118329D01*
X132D01*
Y118447D01*
X250D01*
Y118566D01*
X368D01*
Y118684D01*
X486D01*
Y118802D01*
X604D01*
Y118920D01*
X722D01*
Y119038D01*
X840D01*
Y119157D01*
X959D01*
Y119275D01*
X1077D01*
Y119393D01*
X1195D01*
Y119511D01*
Y119629D01*
Y119747D01*
Y119866D01*
X1077D01*
Y119984D01*
Y120102D01*
X840D01*
Y120220D01*
X722D01*
Y120338D01*
X604D01*
Y120456D01*
X486D01*
Y120574D01*
X368D01*
Y120693D01*
X132D01*
Y120811D01*
X-105D01*
Y120929D01*
X-459D01*
Y121047D01*
D02*
G37*
G36*
X31681Y115021D02*
X28136D01*
Y114903D01*
X27427D01*
Y114785D01*
X27072D01*
Y114666D01*
X26836D01*
Y114548D01*
X26600D01*
Y114430D01*
X26363D01*
Y114312D01*
X26245D01*
Y114194D01*
X26127D01*
Y114076D01*
X26009D01*
Y113957D01*
X25891D01*
Y113839D01*
X25773D01*
Y113721D01*
X25654D01*
Y113603D01*
X25536D01*
Y113485D01*
Y113367D01*
X25418D01*
Y113249D01*
Y113130D01*
X25300D01*
Y113012D01*
Y112894D01*
Y112776D01*
X25182D01*
Y112658D01*
Y112540D01*
Y112421D01*
Y112303D01*
Y112185D01*
X25063D01*
Y112067D01*
Y111949D01*
Y111830D01*
Y111712D01*
Y111594D01*
Y111476D01*
Y111358D01*
Y111240D01*
Y111122D01*
Y111003D01*
Y110885D01*
X31681D01*
Y111003D01*
Y111122D01*
Y111240D01*
Y111358D01*
Y111476D01*
Y111594D01*
Y111712D01*
Y111830D01*
Y111949D01*
Y112067D01*
Y112185D01*
Y112303D01*
Y112421D01*
Y112540D01*
Y112658D01*
Y112776D01*
Y112894D01*
Y113012D01*
Y113130D01*
Y113249D01*
Y113367D01*
Y113485D01*
Y113603D01*
Y113721D01*
Y113839D01*
Y113957D01*
Y114076D01*
Y114194D01*
Y114312D01*
Y114430D01*
Y114548D01*
Y114666D01*
Y114785D01*
Y114903D01*
Y115021D01*
D02*
G37*
G36*
X-40695Y88344D02*
X-41742D01*
Y88134D01*
Y87924D01*
X-41533D01*
Y87715D01*
Y87505D01*
X-41323D01*
Y87296D01*
X-41114D01*
Y87086D01*
X-40904D01*
Y86877D01*
X-40695D01*
Y86667D01*
X-39856D01*
Y86877D01*
Y87086D01*
Y87296D01*
X-40066D01*
Y87505D01*
Y87715D01*
X-40276D01*
Y87924D01*
X-40485D01*
Y88134D01*
X-40695D01*
Y88344D01*
D02*
G37*
G36*
X-54315D02*
X-55362D01*
Y88134D01*
X-55572D01*
Y87924D01*
X-55781D01*
Y87715D01*
X-55991D01*
Y87505D01*
Y87296D01*
X-56200D01*
Y87086D01*
Y86877D01*
Y86667D01*
X-55362D01*
Y86877D01*
X-55153D01*
Y87086D01*
X-54943D01*
Y87296D01*
X-54734D01*
Y87505D01*
X-54524D01*
Y87715D01*
Y87924D01*
X-54315D01*
Y88134D01*
Y88344D01*
D02*
G37*
G36*
X-41533Y96096D02*
X-43628D01*
Y95887D01*
X-44466D01*
Y95677D01*
X-44885D01*
Y95468D01*
X-45514D01*
Y95258D01*
X-45724D01*
Y95049D01*
X-46143D01*
Y94839D01*
X-46352D01*
Y94630D01*
X-46562D01*
Y94420D01*
X-46981D01*
Y94211D01*
X-47190D01*
Y94001D01*
X-47400D01*
Y93792D01*
Y93582D01*
X-47609D01*
Y93372D01*
X-47819D01*
Y93163D01*
X-48028D01*
Y92953D01*
Y92744D01*
X-48238D01*
Y92534D01*
Y92325D01*
X-48447D01*
Y92115D01*
Y91906D01*
Y91696D01*
X-48657D01*
Y91487D01*
Y91277D01*
X-48867D01*
Y91068D01*
Y90858D01*
Y90649D01*
Y90439D01*
X-49076D01*
Y90229D01*
Y90020D01*
Y89810D01*
X-49286D01*
Y89601D01*
Y89391D01*
Y89182D01*
X-49495D01*
Y88972D01*
Y88763D01*
X-49705D01*
Y88553D01*
Y88344D01*
Y88134D01*
X-49914D01*
Y87924D01*
Y87715D01*
X-50124D01*
Y87505D01*
Y87296D01*
X-50333D01*
Y87086D01*
X-50543D01*
Y86877D01*
Y86667D01*
X-50752D01*
Y86458D01*
X-50962D01*
Y86248D01*
Y86039D01*
X-50752D01*
Y85829D01*
X-50543D01*
Y85620D01*
X-50333D01*
Y85410D01*
X-50124D01*
Y85201D01*
X-49914D01*
Y84991D01*
X-49705D01*
Y84781D01*
X-49495D01*
Y84572D01*
X-49286D01*
Y84362D01*
X-48867D01*
Y84153D01*
X-48657D01*
Y83943D01*
X-48238D01*
Y83734D01*
X-47819D01*
Y83943D01*
X-47400D01*
Y84153D01*
X-47190D01*
Y84362D01*
X-46771D01*
Y84572D01*
X-46562D01*
Y84781D01*
X-46352D01*
Y84991D01*
X-46143D01*
Y85201D01*
X-45933D01*
Y85410D01*
X-45724D01*
Y85620D01*
X-45514D01*
Y85829D01*
X-45305D01*
Y86039D01*
Y86248D01*
X-45095D01*
Y86458D01*
X-44885D01*
Y86667D01*
X-44676D01*
Y86877D01*
X-44466D01*
Y87086D01*
X-44257D01*
Y87296D01*
Y87505D01*
X-44047D01*
Y87715D01*
X-43838D01*
Y87924D01*
Y88134D01*
X-43628D01*
Y88344D01*
X-43419D01*
Y88553D01*
X-43209D01*
Y88763D01*
Y88972D01*
X-43000D01*
Y89182D01*
X-42790D01*
Y89391D01*
X-42581D01*
Y89601D01*
X-42371D01*
Y89810D01*
X-41952D01*
Y90020D01*
X-40695D01*
Y89810D01*
X-40066D01*
Y89601D01*
X-39856D01*
Y89391D01*
X-39647D01*
Y89182D01*
X-39437D01*
Y88972D01*
X-39228D01*
Y88763D01*
X-39018D01*
Y88553D01*
X-38809D01*
Y88344D01*
X-38599D01*
Y88134D01*
Y87924D01*
X-38390D01*
Y87715D01*
Y87505D01*
Y87296D01*
Y87086D01*
Y86877D01*
Y86667D01*
Y86458D01*
Y86248D01*
X-38599D01*
Y86039D01*
Y85829D01*
X-38809D01*
Y85620D01*
Y85410D01*
X-39018D01*
Y85201D01*
X-39228D01*
Y84991D01*
X-39437D01*
Y84781D01*
Y84572D01*
X-39647D01*
Y84362D01*
X-39856D01*
Y84153D01*
Y83943D01*
X-38180D01*
Y84153D01*
X-37552D01*
Y84362D01*
X-37133D01*
Y84572D01*
X-36923D01*
Y84781D01*
X-36713D01*
Y84991D01*
X-36504D01*
Y85201D01*
X-36294D01*
Y85410D01*
X-36085D01*
Y85620D01*
X-35875D01*
Y85829D01*
Y86039D01*
X-35666D01*
Y86248D01*
Y86458D01*
X-35456D01*
Y86667D01*
Y86877D01*
X-35247D01*
Y87086D01*
Y87296D01*
Y87505D01*
Y87715D01*
Y87924D01*
X-35037D01*
Y88134D01*
Y88344D01*
Y88553D01*
Y88763D01*
Y88972D01*
Y89182D01*
Y89391D01*
Y89601D01*
Y89810D01*
X-35247D01*
Y90020D01*
Y90229D01*
Y90439D01*
Y90649D01*
Y90858D01*
X-35456D01*
Y91068D01*
Y91277D01*
Y91487D01*
X-35666D01*
Y91696D01*
Y91906D01*
X-35875D01*
Y92115D01*
Y92325D01*
X-36085D01*
Y92534D01*
X-36294D01*
Y92744D01*
Y92953D01*
X-36504D01*
Y93163D01*
X-36713D01*
Y93372D01*
X-36923D01*
Y93582D01*
X-37133D01*
Y93792D01*
X-37342D01*
Y94001D01*
X-37552D01*
Y94211D01*
X-37761D01*
Y94420D01*
X-37971D01*
Y94630D01*
X-38180D01*
Y94839D01*
X-38599D01*
Y95049D01*
X-39018D01*
Y95258D01*
X-39437D01*
Y95468D01*
X-39856D01*
Y95677D01*
X-40485D01*
Y95887D01*
X-41533D01*
Y96096D01*
D02*
G37*
G36*
X-42581Y86667D02*
X-43000D01*
Y86458D01*
Y86248D01*
X-43209D01*
Y86039D01*
X-43419D01*
Y85829D01*
X-43628D01*
Y85620D01*
Y85410D01*
X-43838D01*
Y85201D01*
X-44047D01*
Y84991D01*
X-44257D01*
Y84781D01*
X-44466D01*
Y84572D01*
X-44676D01*
Y84362D01*
X-44885D01*
Y84153D01*
X-45095D01*
Y83943D01*
X-45305D01*
Y83734D01*
X-45514D01*
Y83524D01*
X-45724D01*
Y83315D01*
X-45933D01*
Y83105D01*
X-46352D01*
Y82896D01*
X-46562D01*
Y82686D01*
X-46981D01*
Y82477D01*
X-47400D01*
Y82267D01*
X-48657D01*
Y82477D01*
X-49076D01*
Y82686D01*
X-49495D01*
Y82896D01*
X-49705D01*
Y83105D01*
X-50124D01*
Y83315D01*
X-50333D01*
Y83524D01*
X-50543D01*
Y83734D01*
X-50752D01*
Y83943D01*
X-50962D01*
Y84153D01*
X-51171D01*
Y84362D01*
X-51381D01*
Y84572D01*
X-51591D01*
Y84781D01*
X-51800D01*
Y84991D01*
X-52010D01*
Y85201D01*
X-52219D01*
Y85410D01*
X-52429D01*
Y85620D01*
Y85829D01*
X-52638D01*
Y86039D01*
X-52848D01*
Y86248D01*
X-53057D01*
Y86458D01*
Y86667D01*
X-53476D01*
Y86458D01*
Y86248D01*
X-53686D01*
Y86039D01*
X-53895D01*
Y85829D01*
X-54105D01*
Y85620D01*
X-54524D01*
Y85410D01*
X-54943D01*
Y85201D01*
Y84991D01*
X-54734D01*
Y84781D01*
Y84572D01*
X-54524D01*
Y84362D01*
X-54315D01*
Y84153D01*
X-54105D01*
Y83943D01*
Y83734D01*
X-53895D01*
Y83524D01*
X-53686D01*
Y83315D01*
X-53476D01*
Y83105D01*
X-53267D01*
Y82896D01*
X-53057D01*
Y82686D01*
X-52848D01*
Y82477D01*
X-52638D01*
Y82267D01*
X-52429D01*
Y82057D01*
X-52219D01*
Y81848D01*
X-52010D01*
Y81638D01*
X-51800D01*
Y81429D01*
X-51591D01*
Y81219D01*
X-51381D01*
Y81010D01*
X-51171D01*
Y80800D01*
X-50962D01*
Y80591D01*
X-50752D01*
Y80381D01*
X-50543D01*
Y80172D01*
X-50333D01*
Y79962D01*
X-50124D01*
Y79753D01*
Y79543D01*
X-49914D01*
Y79334D01*
Y79124D01*
X-49705D01*
Y78914D01*
Y78705D01*
Y78495D01*
Y78286D01*
Y78076D01*
Y77867D01*
Y77657D01*
Y77448D01*
Y77238D01*
Y77029D01*
Y76819D01*
Y76610D01*
Y76400D01*
Y76191D01*
Y75981D01*
Y75771D01*
Y75562D01*
Y75352D01*
Y75143D01*
Y74933D01*
Y74724D01*
Y74514D01*
Y74305D01*
Y74095D01*
Y73886D01*
Y73676D01*
Y73466D01*
Y73257D01*
Y73048D01*
Y72838D01*
Y72628D01*
Y72419D01*
Y72209D01*
Y72000D01*
Y71790D01*
Y71581D01*
Y71371D01*
Y71162D01*
Y70952D01*
Y70743D01*
Y70533D01*
X-49495D01*
Y70323D01*
X-49286D01*
Y70114D01*
X-48867D01*
Y69904D01*
X-47190D01*
Y70114D01*
X-46562D01*
Y70323D01*
Y70533D01*
X-46352D01*
Y70743D01*
Y70952D01*
Y71162D01*
Y71371D01*
Y71581D01*
Y71790D01*
Y72000D01*
Y72209D01*
Y72419D01*
Y72628D01*
Y72838D01*
Y73048D01*
Y73257D01*
Y73466D01*
Y73676D01*
Y73886D01*
Y74095D01*
Y74305D01*
Y74514D01*
Y74724D01*
Y74933D01*
Y75143D01*
Y75352D01*
Y75562D01*
Y75771D01*
Y75981D01*
Y76191D01*
Y76400D01*
Y76610D01*
Y76819D01*
Y77029D01*
Y77238D01*
Y77448D01*
Y77657D01*
Y77867D01*
Y78076D01*
Y78286D01*
Y78495D01*
Y78705D01*
Y78914D01*
Y79124D01*
X-46143D01*
Y79334D01*
Y79543D01*
X-45933D01*
Y79753D01*
Y79962D01*
X-45724D01*
Y80172D01*
X-45514D01*
Y80381D01*
X-45305D01*
Y80591D01*
X-45095D01*
Y80800D01*
X-44885D01*
Y81010D01*
X-44676D01*
Y81219D01*
X-44466D01*
Y81429D01*
X-44257D01*
Y81638D01*
X-44047D01*
Y81848D01*
X-43838D01*
Y82057D01*
X-43628D01*
Y82267D01*
X-43419D01*
Y82477D01*
X-43209D01*
Y82686D01*
X-43000D01*
Y82896D01*
X-42790D01*
Y83105D01*
X-42581D01*
Y83315D01*
X-42371D01*
Y83524D01*
X-42161D01*
Y83734D01*
Y83943D01*
X-41952D01*
Y84153D01*
X-41742D01*
Y84362D01*
X-41533D01*
Y84572D01*
X-41323D01*
Y84781D01*
Y84991D01*
X-41114D01*
Y85201D01*
Y85410D01*
X-41533D01*
Y85620D01*
X-41952D01*
Y85829D01*
X-42161D01*
Y86039D01*
X-42371D01*
Y86248D01*
X-42581D01*
Y86458D01*
Y86667D01*
D02*
G37*
G36*
X-74220Y77657D02*
X-75478D01*
Y77448D01*
X-75897D01*
Y77238D01*
X-76106D01*
Y77029D01*
X-76316D01*
Y76819D01*
X-76525D01*
Y76610D01*
Y76400D01*
X-76735D01*
Y76191D01*
Y75981D01*
Y75771D01*
X-76944D01*
Y75562D01*
X-76735D01*
Y75352D01*
X-75059D01*
Y75562D01*
X-73592D01*
Y75771D01*
X-72963D01*
Y75981D01*
Y76191D01*
X-73173D01*
Y76400D01*
Y76610D01*
Y76819D01*
X-73382D01*
Y77029D01*
X-73592D01*
Y77238D01*
X-73801D01*
Y77448D01*
X-74220D01*
Y77657D01*
D02*
G37*
G36*
X-57836Y-57914D02*
X-58097D01*
Y-58045D01*
X-58227D01*
Y-58175D01*
X-58489D01*
Y-58306D01*
X-58619D01*
Y-58437D01*
X-58750D01*
Y-58567D01*
X-58619D01*
Y-58698D01*
Y-58828D01*
X-58489D01*
Y-58959D01*
Y-59089D01*
X-58358D01*
Y-59220D01*
Y-59351D01*
X-58097D01*
Y-59481D01*
X-57836D01*
Y-59351D01*
X-57705D01*
Y-59220D01*
X-57575D01*
Y-59089D01*
X-57444D01*
Y-58959D01*
Y-58828D01*
Y-58698D01*
Y-58567D01*
X-57575D01*
Y-58437D01*
Y-58306D01*
X-57705D01*
Y-58175D01*
Y-58045D01*
X-57836D01*
Y-57914D01*
D02*
G37*
G36*
X-58619Y-58828D02*
X-59011D01*
Y-58959D01*
Y-59089D01*
X-59141D01*
Y-59220D01*
Y-59351D01*
X-59272D01*
Y-59481D01*
Y-59612D01*
X-59403D01*
Y-59742D01*
Y-59873D01*
Y-60003D01*
Y-60134D01*
Y-60264D01*
X-58619D01*
Y-60134D01*
Y-60003D01*
X-58489D01*
Y-59873D01*
X-58358D01*
Y-59742D01*
Y-59612D01*
Y-59481D01*
Y-59351D01*
X-58489D01*
Y-59220D01*
Y-59089D01*
X-58619D01*
Y-58959D01*
Y-58828D01*
D02*
G37*
G36*
X-7257Y-82226D02*
X-8595D01*
Y-82279D01*
X-8756D01*
Y-82333D01*
X-8863D01*
Y-82386D01*
X-9024D01*
Y-82440D01*
X-9131D01*
Y-82493D01*
X-9238D01*
Y-82547D01*
X-9345D01*
Y-82600D01*
X-9398D01*
Y-82654D01*
X-9505D01*
Y-82708D01*
X-9559D01*
Y-82761D01*
X-9666D01*
Y-82815D01*
X-9720D01*
Y-82868D01*
X-9773D01*
Y-82922D01*
X-9827D01*
Y-82975D01*
X-9880D01*
Y-83029D01*
X-9934D01*
Y-83082D01*
X-9987D01*
Y-83136D01*
X-10041D01*
Y-83189D01*
X-10095D01*
Y-83243D01*
X-10148D01*
Y-83297D01*
Y-83350D01*
X-10202D01*
Y-83403D01*
X-10309D01*
Y-83457D01*
Y-83511D01*
Y-83564D01*
X-10416D01*
Y-83618D01*
X-10362D01*
Y-83671D01*
X-10416D01*
Y-83725D01*
X-10469D01*
Y-83778D01*
Y-83832D01*
X-10523D01*
Y-83885D01*
Y-83939D01*
X-10576D01*
Y-83992D01*
Y-84046D01*
X-10630D01*
Y-84100D01*
Y-84153D01*
Y-84207D01*
X-10684D01*
Y-84260D01*
Y-84314D01*
Y-84367D01*
Y-84421D01*
Y-84474D01*
Y-84528D01*
Y-84581D01*
X-10737D01*
Y-84635D01*
Y-84689D01*
Y-84742D01*
Y-84796D01*
Y-84849D01*
Y-84903D01*
Y-84956D01*
Y-85010D01*
Y-85063D01*
Y-85117D01*
Y-85170D01*
Y-85224D01*
Y-85277D01*
Y-85331D01*
Y-85385D01*
Y-85438D01*
Y-85492D01*
Y-85545D01*
Y-85599D01*
X-10684D01*
Y-85652D01*
Y-85706D01*
Y-85759D01*
Y-85813D01*
Y-85866D01*
Y-85920D01*
Y-85974D01*
X-10630D01*
Y-86027D01*
Y-86081D01*
X-10576D01*
Y-86134D01*
Y-86188D01*
X-10523D01*
Y-86241D01*
Y-86295D01*
X-10469D01*
Y-86348D01*
Y-86402D01*
X-10416D01*
Y-86455D01*
Y-86509D01*
X-10362D01*
Y-86563D01*
Y-86616D01*
X-10309D01*
Y-86670D01*
X-10255D01*
Y-86723D01*
Y-86777D01*
X-10202D01*
Y-86830D01*
X-10148D01*
Y-86884D01*
X-10095D01*
Y-86937D01*
X-10041D01*
Y-86991D01*
X-9987D01*
Y-87044D01*
Y-87098D01*
X-9934D01*
Y-87151D01*
X-9880D01*
Y-87205D01*
X-9773D01*
Y-87258D01*
X-9720D01*
Y-87312D01*
X-9666D01*
Y-87366D01*
X-9613D01*
Y-87419D01*
X-9505D01*
Y-87473D01*
X-9452D01*
Y-87526D01*
X-9345D01*
Y-87580D01*
X-9238D01*
Y-87633D01*
X-9131D01*
Y-87687D01*
X-9024D01*
Y-87740D01*
X-8917D01*
Y-87794D01*
X-8649D01*
Y-87848D01*
X-8435D01*
Y-87901D01*
X-7417D01*
Y-87848D01*
X-7203D01*
Y-87794D01*
X-6936D01*
Y-87740D01*
X-6775D01*
Y-87687D01*
X-6721D01*
Y-87633D01*
X-6614D01*
Y-87580D01*
X-6507D01*
Y-87526D01*
X-6400D01*
Y-87473D01*
X-6293D01*
Y-87419D01*
X-6239D01*
Y-87366D01*
X-6186D01*
Y-87312D01*
X-6079D01*
Y-87258D01*
X-6025D01*
Y-87205D01*
X-5972D01*
Y-87151D01*
X-5918D01*
Y-87098D01*
X-5865D01*
Y-87044D01*
X-5811D01*
Y-86991D01*
X-5758D01*
Y-86937D01*
X-5704D01*
Y-86884D01*
X-5651D01*
Y-86830D01*
Y-86777D01*
X-5597D01*
Y-86723D01*
X-5544D01*
Y-86670D01*
X-5490D01*
Y-86616D01*
Y-86563D01*
X-5436D01*
Y-86509D01*
Y-86455D01*
X-5383D01*
Y-86402D01*
Y-86348D01*
X-5329D01*
Y-86295D01*
X-5276D01*
Y-86241D01*
Y-86188D01*
X-5222D01*
Y-86134D01*
Y-86081D01*
Y-86027D01*
X-5169D01*
Y-85974D01*
X-5115D01*
Y-85920D01*
Y-85866D01*
Y-85813D01*
Y-85759D01*
Y-85706D01*
Y-85652D01*
Y-85599D01*
Y-85545D01*
X-5062D01*
Y-85492D01*
Y-85438D01*
Y-85385D01*
Y-85331D01*
Y-85277D01*
Y-85224D01*
Y-85170D01*
Y-85117D01*
Y-85063D01*
Y-85010D01*
Y-84956D01*
Y-84903D01*
Y-84849D01*
Y-84796D01*
Y-84742D01*
Y-84689D01*
Y-84635D01*
X-5115D01*
Y-84581D01*
Y-84528D01*
Y-84474D01*
Y-84421D01*
Y-84367D01*
Y-84314D01*
Y-84260D01*
Y-84207D01*
X-5169D01*
Y-84153D01*
Y-84100D01*
Y-84046D01*
X-5222D01*
Y-83992D01*
X-5276D01*
Y-83939D01*
Y-83885D01*
X-5329D01*
Y-83832D01*
Y-83778D01*
X-5383D01*
Y-83725D01*
X-5436D01*
Y-83671D01*
Y-83618D01*
X-5490D01*
Y-83564D01*
Y-83511D01*
Y-83457D01*
X-5597D01*
Y-83403D01*
Y-83350D01*
X-5651D01*
Y-83297D01*
X-5704D01*
Y-83243D01*
X-5758D01*
Y-83189D01*
Y-83136D01*
X-5811D01*
Y-83082D01*
X-5865D01*
Y-83029D01*
X-5918D01*
Y-82975D01*
X-5972D01*
Y-82922D01*
X-6079D01*
Y-82868D01*
X-6132D01*
Y-82815D01*
X-6186D01*
Y-82761D01*
X-6293D01*
Y-82708D01*
X-6347D01*
Y-82654D01*
X-6454D01*
Y-82600D01*
X-6507D01*
Y-82547D01*
X-6614D01*
Y-82493D01*
X-6721D01*
Y-82440D01*
X-6829D01*
Y-82386D01*
X-6989D01*
Y-82333D01*
X-7096D01*
Y-82279D01*
X-7257D01*
Y-82226D01*
D02*
G37*
%LPD*%
D10*
X-96850Y-49409D02*
G03*
X-96850Y-49409I-26969J0D01*
G01*
X-31671Y-46423D02*
G03*
X-15811Y-53650I9427J-329D01*
G01*
X-18987Y-37812D02*
G03*
X-23110Y-37232I-3705J-11403D01*
G01*
X-72092Y4967D02*
X-69291D01*
X-84252D02*
X-81451D01*
X-84252Y26136D02*
X-81451D01*
X-72092D02*
X-69291D01*
X-49331Y14370D02*
X-45158D01*
X-49213Y16535D02*
X-45039D01*
X-50197Y13268D02*
Y17441D01*
X-44291Y13268D02*
Y17441D01*
X-32579Y-155610D02*
X-22343D01*
X-24823Y-145374D02*
X-22343D01*
X-32579D02*
X-30098D01*
X141521Y36378D02*
X143687D01*
X124002D02*
X126167D01*
X141521Y16693D02*
X143687D01*
X124002D02*
X126167D01*
X143687Y34212D02*
Y36378D01*
X124002Y34212D02*
Y36378D01*
X143687Y16693D02*
Y18858D01*
X124002Y16693D02*
Y18858D01*
X134291Y-81791D02*
Y-69980D01*
X114606Y-81791D02*
Y-69980D01*
X96811Y31732D02*
X97992D01*
Y-39134D02*
Y31732D01*
X96811Y-39134D02*
X97992D01*
X22402Y31732D02*
X23583D01*
X22402Y21850D02*
Y31732D01*
Y-39134D02*
Y-29252D01*
Y-39134D02*
X23583D01*
X-61909Y133760D02*
X-50098D01*
X-61909Y121949D02*
X-50098D01*
X137588Y58890D02*
X140363Y60492D01*
X135808Y61972D02*
X137588Y58890D01*
X121233Y87216D02*
X123013Y84134D01*
X121233Y87216D02*
X124009Y88819D01*
X151484Y62885D02*
X154893Y64853D01*
X131641Y97253D02*
X135050Y99221D01*
X-82284Y-115945D02*
Y-67913D01*
X-19291Y-115945D02*
Y-67913D01*
D11*
X-67126Y25394D02*
G03*
X-67126Y25394I-197J0D01*
G01*
X111059Y101610D02*
G03*
X111059Y101610I-9449J0D01*
G01*
X-92163Y101612D02*
G03*
X-92163Y101612I-9449J0D01*
G01*
Y-101612D02*
G03*
X-92163Y-101612I-9449J0D01*
G01*
X111061D02*
G03*
X111061Y-101612I-9449J0D01*
G01*
X-19265Y93929D02*
G03*
X-19192Y93930I171J-7610D01*
G01*
X-117494Y-1051D02*
G03*
X-117420Y-1050I171J-7610D01*
G01*
X-124114Y14642D02*
Y26089D01*
X-128839Y14642D02*
X-124114D01*
X-128839D02*
Y26089D01*
X-124114D01*
X-78642Y125781D02*
Y137228D01*
X-73917D01*
Y125781D02*
Y137228D01*
X-78642Y125781D02*
X-73917D01*
X-31398Y119580D02*
Y131027D01*
X-26673D01*
Y119580D02*
Y131027D01*
X-31398Y119580D02*
X-26673D01*
X-49705Y-129232D02*
Y-125886D01*
X-42913Y-137697D02*
Y-134350D01*
X-49803Y-137500D02*
Y-134153D01*
X-42913Y-129232D02*
Y-125886D01*
X-31594Y-25000D02*
Y-23425D01*
X-36398Y-26181D02*
X-32382D01*
X-36398Y-22244D02*
X-32382D01*
X120866Y-2648D02*
X132677D01*
X120866Y-7565D02*
Y-2648D01*
Y-7565D02*
X132677D01*
Y-6299D02*
Y-3543D01*
X127590Y-6326D02*
Y-3964D01*
X85335Y70473D02*
X95768D01*
X85335Y63976D02*
Y70473D01*
X87551Y63779D02*
X93551D01*
X85335D02*
X87551D01*
X95768D02*
Y70473D01*
X93551Y63779D02*
X95768D01*
X85335Y78543D02*
X95768D01*
X85335Y72047D02*
Y78543D01*
X87551Y71850D02*
X93551D01*
X85335D02*
X87551D01*
X95768D02*
Y78543D01*
X93551Y71850D02*
X95768D01*
X85335Y86417D02*
X95768D01*
X85335Y79921D02*
Y86417D01*
X87551Y79724D02*
X93551D01*
X85335D02*
X87551D01*
X95768D02*
Y86417D01*
X93551Y79724D02*
X95768D01*
X77461Y89173D02*
X87894D01*
Y95669D01*
X79677Y95866D02*
X85677D01*
X87894D01*
X77461Y89173D02*
Y95866D01*
X79677D01*
X107185Y37205D02*
X117618D01*
Y43701D01*
X109402Y43898D02*
X115402D01*
X117618D01*
X107185Y37205D02*
Y43898D01*
X109402D01*
X67716Y60335D02*
X78150D01*
Y66831D01*
X69933Y67028D02*
X75933D01*
X78150D01*
X67716Y60335D02*
Y67028D01*
X69933D01*
X-70768Y-37992D02*
Y-27559D01*
Y-37992D02*
X-64272D01*
X-64075Y-35776D02*
Y-29776D01*
Y-37992D02*
Y-35776D01*
X-70768Y-27559D02*
X-64075D01*
Y-29776D02*
Y-27559D01*
X-62992Y-37795D02*
Y-27362D01*
Y-37795D02*
X-56496D01*
X-56299Y-35579D02*
Y-29579D01*
Y-37795D02*
Y-35579D01*
X-62992Y-27362D02*
X-56299D01*
Y-29579D02*
Y-27362D01*
X-55315Y-37795D02*
Y-27362D01*
Y-37795D02*
X-48819D01*
X-48622Y-35579D02*
Y-29579D01*
Y-37795D02*
Y-35579D01*
X-55315Y-27362D02*
X-48622D01*
Y-29579D02*
Y-27362D01*
X-47638Y-37795D02*
Y-27362D01*
Y-37795D02*
X-41142D01*
X-40945Y-35579D02*
Y-29579D01*
Y-37795D02*
Y-35579D01*
X-47638Y-27362D02*
X-40945D01*
Y-29579D02*
Y-27362D01*
X-33957Y-51870D02*
Y-41437D01*
X-40453D02*
X-33957D01*
X-40650Y-49654D02*
Y-43654D01*
Y-41437D01*
Y-51870D02*
X-33957D01*
X-40650D02*
Y-49654D01*
X20421Y-68701D02*
Y-58268D01*
Y-68701D02*
X26917D01*
X27114Y-66484D02*
Y-60484D01*
Y-68701D02*
Y-66484D01*
X20421Y-58268D02*
X27114D01*
Y-60484D02*
Y-58268D01*
X12646Y-68701D02*
Y-58268D01*
Y-68701D02*
X19142D01*
X19339Y-66484D02*
Y-60484D01*
Y-68701D02*
Y-66484D01*
X12646Y-58268D02*
X19339D01*
Y-60484D02*
Y-58268D01*
X4969Y-68701D02*
Y-58268D01*
Y-68701D02*
X11465D01*
X11661Y-66484D02*
Y-60484D01*
Y-68701D02*
Y-66484D01*
X4969Y-58268D02*
X11661D01*
Y-60484D02*
Y-58268D01*
X-2854Y-68701D02*
Y-58268D01*
Y-68701D02*
X3642D01*
X3839Y-66484D02*
Y-60484D01*
Y-68701D02*
Y-66484D01*
X-2854Y-58268D02*
X3839D01*
Y-60484D02*
Y-58268D01*
X-102657Y45571D02*
Y56004D01*
Y45571D02*
X-96161D01*
X-95964Y47787D02*
Y53787D01*
Y45571D02*
Y47787D01*
X-102657Y56004D02*
X-95964D01*
Y53787D02*
Y56004D01*
X-94882Y45669D02*
Y56102D01*
Y45669D02*
X-88386D01*
X-88189Y47886D02*
Y53886D01*
Y45669D02*
Y47886D01*
X-94882Y56102D02*
X-88189D01*
Y53886D02*
Y56102D01*
X-118504Y45768D02*
Y56201D01*
Y45768D02*
X-112008D01*
X-111811Y47984D02*
Y53984D01*
Y45768D02*
Y47984D01*
X-118504Y56201D02*
X-111811D01*
Y53984D02*
Y56201D01*
X-110531Y45768D02*
Y56201D01*
Y45768D02*
X-104035D01*
X-103839Y47984D02*
Y53984D01*
Y45768D02*
Y47984D01*
X-110531Y56201D02*
X-103839D01*
Y53984D02*
Y56201D01*
X-52461Y-14370D02*
X-42028D01*
Y-7874D01*
X-50244Y-7677D02*
X-44244D01*
X-42028D01*
X-52461Y-14370D02*
Y-7677D01*
X-50244D01*
X-79724Y126575D02*
Y137008D01*
X-86221D02*
X-79724D01*
X-86417Y128791D02*
Y134791D01*
Y137008D01*
Y126575D02*
X-79724D01*
X-86417D02*
Y128791D01*
X134449Y-42913D02*
Y-32480D01*
Y-42913D02*
X140945D01*
X141142Y-40697D02*
Y-34697D01*
Y-42913D02*
Y-40697D01*
X134449Y-32480D02*
X141142D01*
Y-34697D02*
Y-32480D01*
X142323Y-42815D02*
Y-32382D01*
Y-42815D02*
X148819D01*
X149016Y-40598D02*
Y-34598D01*
Y-42815D02*
Y-40598D01*
X142323Y-32382D02*
X149016D01*
Y-34598D02*
Y-32382D01*
X79128Y102357D02*
X79134Y102362D01*
X76045Y102357D02*
X79128D01*
X76045Y96814D02*
Y102357D01*
X79134Y102362D02*
X84646D01*
X87697Y96814D02*
Y102362D01*
X76045Y96814D02*
X87697D01*
X84646Y102362D02*
X87697D01*
X109134Y36569D02*
X109139Y36575D01*
X106051Y36569D02*
X109134D01*
X106051Y31027D02*
Y36569D01*
X109139Y36575D02*
X114651D01*
X117702Y31027D02*
Y36575D01*
X106051Y31027D02*
X117702D01*
X114651Y36575D02*
X117702D01*
X-101777Y21943D02*
X-101772Y21949D01*
X-104860Y21943D02*
X-101777D01*
X-104860Y16401D02*
Y21943D01*
X-101772Y21949D02*
X-96260D01*
X-93209Y16401D02*
Y21949D01*
X-104860Y16401D02*
X-93209D01*
X-96260Y21949D02*
X-93209D01*
X117006Y59477D02*
X128213Y57299D01*
X128664Y59617D01*
X117456Y61796D02*
X128664Y59617D01*
X117006Y59477D02*
X117456Y61796D01*
X127590Y-12429D02*
Y-10067D01*
X120866Y-8750D02*
X132677D01*
X120866Y-13668D02*
Y-8750D01*
Y-13668D02*
X132677D01*
Y-12402D02*
Y-9646D01*
X-18079Y34028D02*
Y36390D01*
X-24803Y37707D02*
X-12992D01*
X-24803Y32789D02*
Y37707D01*
Y32789D02*
X-12992D01*
Y34055D02*
Y36811D01*
X-125126Y70441D02*
X-122763D01*
X-121447Y65354D02*
Y77165D01*
X-126365D02*
X-121447D01*
X-126365Y65354D02*
Y77165D01*
X-125098Y65354D02*
X-122343D01*
X-72508Y-138019D02*
Y-135657D01*
X-79232Y-134341D02*
X-67421D01*
X-79232Y-139258D02*
Y-134341D01*
Y-139258D02*
X-67421D01*
Y-137992D02*
Y-135236D01*
X66929Y-72047D02*
Y-60236D01*
X60630Y-72047D02*
X66929D01*
X60630D02*
Y-60236D01*
X66929D01*
X89764Y-71260D02*
Y-59449D01*
X83465Y-71260D02*
X89764D01*
X83465D02*
Y-59449D01*
X89764D01*
X140157Y-1575D02*
Y10236D01*
X133858Y-1575D02*
X140157D01*
X133858D02*
Y10236D01*
X140157D01*
X132677Y-1575D02*
Y10236D01*
X126378Y-1575D02*
X132677D01*
X126378D02*
Y10236D01*
X132677D01*
X116929Y3543D02*
Y15354D01*
X123228D01*
Y3543D02*
Y15354D01*
X116929Y3543D02*
X123228D01*
X-24705Y47638D02*
X-12894D01*
Y41339D02*
Y47638D01*
X-24705Y41339D02*
X-12894D01*
X-24705D02*
Y47638D01*
X82087Y-108071D02*
Y-96260D01*
X88386D01*
Y-108071D02*
Y-96260D01*
X82087Y-108071D02*
X88386D01*
X73721Y-111221D02*
Y-99410D01*
X80020D01*
Y-111221D02*
Y-99410D01*
X73721Y-111221D02*
X80020D01*
X886Y-17913D02*
X12697D01*
Y-24213D02*
Y-17913D01*
X886Y-24213D02*
X12697D01*
X886D02*
Y-17913D01*
X66535Y74311D02*
X78347D01*
Y68012D02*
Y74311D01*
X66535Y68012D02*
X78347D01*
X66535D02*
Y74311D01*
X1280Y-26772D02*
X13091D01*
Y-33071D02*
Y-26772D01*
X1280Y-33071D02*
X13091D01*
X1280D02*
Y-26772D01*
X154499Y53146D02*
X160405Y42917D01*
X154949Y39768D02*
X160405Y42917D01*
X149044Y49996D02*
X154949Y39768D01*
X149044Y49996D02*
X154499Y53146D01*
X142531Y54255D02*
X148436Y44026D01*
X142981Y40877D02*
X148436Y44026D01*
X137075Y51105D02*
X142981Y40877D01*
X137075Y51105D02*
X142531Y54255D01*
X-66142Y-15748D02*
Y-3937D01*
X-59842D01*
Y-15748D02*
Y-3937D01*
X-66142Y-15748D02*
X-59842D01*
X72533Y54724D02*
Y59449D01*
Y54724D02*
X83979D01*
Y59449D01*
X72533D02*
X83979D01*
X12900Y-38878D02*
Y-34154D01*
X1453D02*
X12900D01*
X1453Y-38878D02*
Y-34154D01*
Y-38878D02*
X12900D01*
X80905Y-42710D02*
X85630D01*
X80905Y-54157D02*
Y-42710D01*
Y-54157D02*
X85630D01*
Y-42710D01*
X71162Y-59737D02*
X75886D01*
X71162Y-71184D02*
Y-59737D01*
Y-71184D02*
X75886D01*
Y-59737D01*
X65945Y-43104D02*
X70669D01*
X65945Y-54550D02*
Y-43104D01*
Y-54550D02*
X70669D01*
Y-43104D01*
X51083D02*
X55807D01*
X51083Y-54550D02*
Y-43104D01*
Y-54550D02*
X55807D01*
Y-43104D01*
X104915Y16535D02*
Y21260D01*
Y16535D02*
X116361D01*
Y21260D01*
X104915D02*
X116361D01*
X72730Y49016D02*
Y53740D01*
Y49016D02*
X84176D01*
Y53740D01*
X72730D02*
X84176D01*
X104521Y11024D02*
Y15748D01*
Y11024D02*
X115968D01*
Y15748D01*
X104521D02*
X115968D01*
X160203Y13597D02*
Y18321D01*
X148757D02*
X160203D01*
X148757Y13597D02*
Y18321D01*
Y13597D02*
X160203D01*
X148616Y20866D02*
Y25591D01*
Y20866D02*
X160062D01*
Y25591D01*
X148616D02*
X160062D01*
X-120374Y72730D02*
X-115650D01*
Y84176D01*
X-120374D02*
X-115650D01*
X-120374Y72730D02*
Y84176D01*
X-67612Y-145571D02*
Y-140847D01*
X-79058D02*
X-67612D01*
X-79058Y-145571D02*
Y-140847D01*
Y-145571D02*
X-67612D01*
X-74501Y-133169D02*
Y-128445D01*
X-85948D02*
X-74501D01*
X-85948Y-133169D02*
Y-128445D01*
Y-133169D02*
X-74501D01*
X-30807Y-33668D02*
X-26083D01*
Y-22221D01*
X-30807D02*
X-26083D01*
X-30807Y-33668D02*
Y-22221D01*
X-93300Y11024D02*
Y15748D01*
X-104747D02*
X-93300D01*
X-104747Y11024D02*
Y15748D01*
Y11024D02*
X-93300D01*
X29521Y-92716D02*
Y-87992D01*
Y-92716D02*
X40968D01*
Y-87992D01*
X29521D02*
X40968D01*
X-82677Y-14869D02*
X-77953D01*
Y-3422D01*
X-82677D02*
X-77953D01*
X-82677Y-14869D02*
Y-3422D01*
X-87992Y-14869D02*
X-83268D01*
Y-3422D01*
X-87992D02*
X-83268D01*
X-87992Y-14869D02*
Y-3422D01*
X-75984Y-3734D02*
X-71260D01*
X-75984Y-15180D02*
Y-3734D01*
Y-15180D02*
X-71260D01*
Y-3734D01*
X-84744Y32375D02*
X-80020D01*
Y43822D01*
X-84744D02*
X-80020D01*
X-84744Y32375D02*
Y43822D01*
X-93300Y22638D02*
Y27362D01*
X-104747D02*
X-93300D01*
X-104747Y22638D02*
Y27362D01*
Y22638D02*
X-93300D01*
X-135440Y9154D02*
Y13878D01*
Y9154D02*
X-123993D01*
Y13878D01*
X-135440D02*
X-123993D01*
X-40354Y127467D02*
X-35630D01*
X-40354Y116020D02*
Y127467D01*
Y116020D02*
X-35630D01*
Y127467D01*
X-35919Y142126D02*
Y146850D01*
X-47365D02*
X-35919D01*
X-47365Y142126D02*
Y146850D01*
Y142126D02*
X-35919D01*
X135433Y-78156D02*
X140157D01*
Y-66709D01*
X135433D02*
X140157D01*
X135433Y-78156D02*
Y-66709D01*
X108661Y-73825D02*
X113386D01*
Y-62379D01*
X108661D02*
X113386D01*
X108661Y-73825D02*
Y-62379D01*
X-40354Y128537D02*
X-35630D01*
Y139983D01*
X-40354D02*
X-35630D01*
X-40354Y128537D02*
Y139983D01*
X-49902Y109245D02*
X-45177D01*
Y120692D01*
X-49902D02*
X-45177D01*
X-49902Y109245D02*
Y120692D01*
X76575Y-59639D02*
X81299D01*
X76575Y-71086D02*
Y-59639D01*
Y-71086D02*
X81299D01*
Y-59639D01*
D12*
X-49665Y25000D02*
G03*
X-49665Y25000I-394J0D01*
G01*
X140143Y40472D02*
G03*
X140143Y40472I-394J0D01*
G01*
X132217Y-66528D02*
G03*
X132217Y-66528I-394J0D01*
G01*
X37756Y-96667D02*
X50897Y-91357D01*
X71088Y-137126D02*
X71825Y-138952D01*
X68359Y-130373D02*
X69170Y-132381D01*
X60321Y-110479D02*
X65631Y-123620D01*
X54791Y-96790D02*
X57593Y-103726D01*
X20713Y-157479D02*
X21450Y-159304D01*
X17911Y-150543D02*
X18796Y-152734D01*
X13929Y-140688D02*
X15994Y-145798D01*
X4416Y-117143D02*
X11200Y-133934D01*
X24695Y-167335D02*
X75070Y-146982D01*
X86402Y-142875D02*
X120587Y-118938D01*
X80079Y-133845D02*
X86402Y-142875D01*
X114265Y-109908D02*
X120587Y-118938D01*
X80079Y-133845D02*
X114265Y-109908D01*
X-6398Y18543D02*
X-4035D01*
X-6398Y50827D02*
X-4429D01*
X-1280Y18543D02*
Y50827D01*
X-11516D02*
X-1280D01*
X-11516Y18543D02*
Y50827D01*
Y18543D02*
X-1280D01*
X17677Y76772D02*
X79409D01*
X17677D02*
Y87795D01*
Y87795D02*
X79409D01*
Y76772D02*
Y87795D01*
X-9603Y-134086D02*
X-10444Y-133694D01*
X-11676Y-134143D01*
X-12069Y-134984D01*
X-11844Y-135600D01*
X-11003Y-135992D01*
X-9771Y-135543D01*
X-8930Y-135935D01*
X-8705Y-136552D01*
X-9098Y-137392D01*
X-10330Y-137841D01*
X-11171Y-137449D01*
X-8594Y-133021D02*
X-7248Y-136720D01*
X-5399Y-136046D01*
X-5007Y-135206D01*
X-5904Y-132740D01*
X-6745Y-132348D01*
X-8594Y-133021D01*
X-1198Y-130329D02*
X35Y-129880D01*
X-581Y-130104D01*
X765Y-133803D01*
X148Y-134027D01*
X1381Y-133579D01*
X3230Y-132905D02*
X1884Y-129207D01*
X5696Y-132008D01*
X4350Y-128310D01*
D13*
X94213Y38228D02*
G03*
X94213Y38228I-394J0D01*
G01*
D14*
X126509Y76674D02*
G03*
X126509Y76674I-591J0D01*
G01*
D15*
X117636Y51410D02*
G03*
X117636Y51410I-394J0D01*
G01*
X83923Y-128545D02*
G03*
X83923Y-128545I-394J0D01*
G01*
X1870Y24685D02*
G03*
X1870Y24685I-394J0D01*
G01*
D16*
X74331Y90945D02*
G03*
X74331Y90945I-787J0D01*
G01*
D17*
X-77953Y-122244D02*
G03*
X-77953Y-122244I-787J0D01*
G01*
D18*
X90876Y48917D02*
X92716D01*
X90978Y35550D02*
X92819D01*
X90679Y63091D02*
X92520D01*
X90782Y49723D02*
X92622D01*
X-78248Y-59547D02*
X-76407D01*
X-78351Y-46180D02*
X-76510D01*
X-78150Y-45768D02*
X-76309D01*
X-78252Y-32400D02*
X-76412D01*
X19685Y-97492D02*
X21526D01*
X19582Y-84125D02*
X21423D01*
X19587Y-83417D02*
X21427D01*
X19484Y-70050D02*
X21325D01*
X-73297Y45669D02*
X-71457D01*
X-73195Y32302D02*
X-71354D01*
X-87205Y50620D02*
Y52461D01*
X-73837Y50723D02*
Y52563D01*
X-49114Y-6988D02*
X-47274D01*
X-49217Y6379D02*
X-47376D01*
X126969Y-65158D02*
X128809D01*
X126866Y-51790D02*
X128707D01*
X127165Y-50787D02*
X129006D01*
X127063Y-37420D02*
X128903D01*
X-80512Y111319D02*
X-78671D01*
X-80614Y124686D02*
X-78774D01*
D19*
X-41634Y-127953D02*
X-34547D01*
X-41634D02*
Y-124016D01*
X-34547D01*
Y-127953D02*
Y-124016D01*
D20*
X141988Y3164D02*
Y7002D01*
Y3164D02*
X144941D01*
X153799Y3262D02*
Y7101D01*
X150846Y3262D02*
X153799D01*
X155276Y3410D02*
Y7248D01*
Y3410D02*
X158228D01*
X167087Y3508D02*
Y7347D01*
X164134Y3508D02*
X167087D01*
X-135630Y-591D02*
Y3248D01*
Y-591D02*
X-132677D01*
X-123819Y-492D02*
Y3347D01*
X-126772Y-492D02*
X-123819D01*
X3674Y25852D02*
X3149Y26377D01*
X2100D01*
X1575Y25852D01*
Y25327D01*
X2100Y24803D01*
X3149D01*
X3674Y24278D01*
Y23753D01*
X3149Y23228D01*
X2100D01*
X1575Y23753D01*
X4723Y26377D02*
X5773D01*
X5248D01*
Y23228D01*
X4723D01*
X5773D01*
X9446Y25852D02*
X8922Y26377D01*
X7872D01*
X7347Y25852D01*
Y23753D01*
X7872Y23228D01*
X8922D01*
X9446Y23753D01*
Y24803D01*
X8397D01*
X29724Y90256D02*
Y93405D01*
X30774Y92355D01*
X31824Y93405D01*
Y90256D01*
X32873Y92880D02*
X33398Y93405D01*
X34447D01*
X34972Y92880D01*
Y92355D01*
X34447Y91830D01*
X33922D01*
X34447D01*
X34972Y91305D01*
Y90781D01*
X34447Y90256D01*
X33398D01*
X32873Y90781D01*
X82579Y-112403D02*
X84678D01*
X83628D01*
Y-115551D01*
X85727Y-112403D02*
X87826Y-115551D01*
Y-112403D02*
X85727Y-115551D01*
X88876Y-112403D02*
Y-115551D01*
X90450D01*
X90975Y-115026D01*
Y-112927D01*
X90450Y-112403D01*
X88876D01*
X72835Y-120866D02*
Y-117718D01*
X74409D01*
X74934Y-118242D01*
Y-119292D01*
X74409Y-119817D01*
X72835D01*
X73884D02*
X74934Y-120866D01*
X75983Y-117718D02*
X78082Y-120866D01*
Y-117718D02*
X75983Y-120866D01*
X79132Y-117718D02*
Y-120866D01*
X80706D01*
X81231Y-120341D01*
Y-118242D01*
X80706Y-117718D01*
X79132D01*
X3772Y35990D02*
X3247Y36515D01*
X2198D01*
X1673Y35990D01*
Y33891D01*
X2198Y33366D01*
X3247D01*
X3772Y33891D01*
Y34940D01*
X2723D01*
X4822Y33366D02*
Y36515D01*
X6921Y33366D01*
Y36515D01*
X7970D02*
Y33366D01*
X9545D01*
X10069Y33891D01*
Y35990D01*
X9545Y36515D01*
X7970D01*
X-98393Y-115135D02*
X-98918Y-114610D01*
X-99967D01*
X-100492Y-115135D01*
Y-117234D01*
X-99967Y-117758D01*
X-98918D01*
X-98393Y-117234D01*
Y-116184D01*
X-99443D01*
X-97344Y-117758D02*
Y-114610D01*
X-95244Y-117758D01*
Y-114610D01*
X-92096Y-115135D02*
X-92621Y-114610D01*
X-93670D01*
X-94195Y-115135D01*
Y-115659D01*
X-93670Y-116184D01*
X-92621D01*
X-92096Y-116709D01*
Y-117234D01*
X-92621Y-117758D01*
X-93670D01*
X-94195Y-117234D01*
X-88947Y-115135D02*
X-89472Y-114610D01*
X-90522D01*
X-91046Y-115135D01*
Y-115659D01*
X-90522Y-116184D01*
X-89472D01*
X-88947Y-116709D01*
Y-117234D01*
X-89472Y-117758D01*
X-90522D01*
X-91046Y-117234D01*
X-100492Y-122954D02*
Y-119805D01*
X-98918D01*
X-98393Y-120330D01*
Y-121380D01*
X-98918Y-121905D01*
X-100492D01*
X-97344Y-122954D02*
Y-119805D01*
X-95769D01*
X-95244Y-120330D01*
Y-121380D01*
X-95769Y-121905D01*
X-97344D01*
X-94195Y-122954D02*
Y-119805D01*
X-93145Y-120855D01*
X-92096Y-119805D01*
Y-122954D01*
X-100492Y-125001D02*
Y-128150D01*
X-98393D01*
X-95244Y-125001D02*
X-97344D01*
Y-128150D01*
X-95244D01*
X-97344Y-126575D02*
X-96294D01*
X-94195Y-125001D02*
Y-128150D01*
X-92621D01*
X-92096Y-127625D01*
Y-125526D01*
X-92621Y-125001D01*
X-94195D01*
X49705Y90256D02*
Y93405D01*
X50754Y92355D01*
X51804Y93405D01*
Y90256D01*
X52853D02*
X53903D01*
X53378D01*
Y93405D01*
X52853Y92880D01*
X3182Y46488D02*
X1083D01*
Y44914D01*
X2132Y45439D01*
X2657D01*
X3182Y44914D01*
Y43865D01*
X2657Y43340D01*
X1607D01*
X1083Y43865D01*
X4231Y46488D02*
Y44389D01*
X5281Y43340D01*
X6330Y44389D01*
Y46488D01*
X7380Y42815D02*
X9479D01*
X12103Y46488D02*
X11053D01*
X10528Y45963D01*
Y43865D01*
X11053Y43340D01*
X12103D01*
X12628Y43865D01*
Y45963D01*
X12103Y46488D01*
X13677D02*
Y43865D01*
X14202Y43340D01*
X15251D01*
X15776Y43865D01*
Y46488D01*
X16826D02*
X18925D01*
X17875D01*
Y43340D01*
X119848Y-110785D02*
X119117Y-110656D01*
X118257Y-111258D01*
X118128Y-111989D01*
X119332Y-113708D01*
X120063Y-113837D01*
X120923Y-113235D01*
X121052Y-112504D01*
X120450Y-111645D01*
X119590Y-112247D01*
X122212Y-112332D02*
X120406Y-109753D01*
X123932Y-111128D01*
X122126Y-108549D01*
X122986Y-107947D02*
X124792Y-110526D01*
X126081Y-109623D01*
X126210Y-108892D01*
X125006Y-107173D01*
X124275Y-107044D01*
X122986Y-107947D01*
X-133760Y91141D02*
X-133235Y91666D01*
X-132185D01*
X-131661Y91141D01*
Y90616D01*
X-132185Y90091D01*
X-132710D01*
X-132185D01*
X-131661Y89566D01*
Y89042D01*
X-132185Y88517D01*
X-133235D01*
X-133760Y89042D01*
X-130611Y91666D02*
Y89566D01*
X-129562Y88517D01*
X-128512Y89566D01*
Y91666D01*
X-127463Y91141D02*
X-126938Y91666D01*
X-125888D01*
X-125364Y91141D01*
Y90616D01*
X-125888Y90091D01*
X-126413D01*
X-125888D01*
X-125364Y89566D01*
Y89042D01*
X-125888Y88517D01*
X-126938D01*
X-127463Y89042D01*
X-124314Y87992D02*
X-122215D01*
X-121166Y91666D02*
Y88517D01*
X-119066D01*
X-115918Y91666D02*
X-118017D01*
Y88517D01*
X-115918D01*
X-118017Y90091D02*
X-116967D01*
X-114868Y91666D02*
Y88517D01*
X-113294D01*
X-112769Y89042D01*
Y91141D01*
X-113294Y91666D01*
X-114868D01*
X117027Y-15815D02*
Y-18439D01*
X117552Y-18963D01*
X118602D01*
X119127Y-18439D01*
Y-15815D01*
X122275Y-16340D02*
X121750Y-15815D01*
X120701D01*
X120176Y-16340D01*
Y-16864D01*
X120701Y-17389D01*
X121750D01*
X122275Y-17914D01*
Y-18439D01*
X121750Y-18963D01*
X120701D01*
X120176Y-18439D01*
X123325Y-15815D02*
Y-18963D01*
X124899D01*
X125424Y-18439D01*
Y-17914D01*
X124899Y-17389D01*
X123325D01*
X124899D01*
X125424Y-16864D01*
Y-16340D01*
X124899Y-15815D01*
X123325D01*
X126473Y-19488D02*
X128572D01*
X129622Y-15815D02*
Y-18963D01*
X131721D01*
X134870Y-15815D02*
X132771D01*
Y-18963D01*
X134870D01*
X132771Y-17389D02*
X133820D01*
X135919Y-15815D02*
Y-18963D01*
X137493D01*
X138018Y-18439D01*
Y-16340D01*
X137493Y-15815D01*
X135919D01*
X70012Y-84319D02*
X67913D01*
Y-85893D01*
X68963D01*
X67913D01*
Y-87467D01*
X71062Y-84319D02*
X73161D01*
X72111D01*
Y-87467D01*
X74211Y-84319D02*
Y-87467D01*
X75785D01*
X76310Y-86943D01*
Y-84843D01*
X75785Y-84319D01*
X74211D01*
X77359D02*
X78409D01*
X77884D01*
Y-87467D01*
X77359D01*
X78409D01*
X79983Y-87992D02*
X82082D01*
X85231Y-84319D02*
X83132D01*
Y-87467D01*
X85231D01*
X83132Y-85893D02*
X84181D01*
X86280Y-87467D02*
Y-84319D01*
X88379Y-87467D01*
Y-84319D01*
X80119Y70505D02*
Y68406D01*
X83268D01*
Y70505D01*
X81693Y68406D02*
Y69455D01*
X83268Y71554D02*
X80119D01*
X83268Y73653D01*
X80119D01*
X-34318Y54854D02*
X-36417D01*
Y53280D01*
X-35368Y53805D01*
X-34843D01*
X-34318Y53280D01*
Y52231D01*
X-34843Y51706D01*
X-35893D01*
X-36417Y52231D01*
X-33269Y54854D02*
Y52755D01*
X-32219Y51706D01*
X-31170Y52755D01*
Y54854D01*
X-30120Y51181D02*
X-28021D01*
X-26972Y54854D02*
Y51706D01*
X-24872D01*
X-21724Y54854D02*
X-23823D01*
Y51706D01*
X-21724D01*
X-23823Y53280D02*
X-22773D01*
X-20674Y54854D02*
Y51706D01*
X-19100D01*
X-18575Y52231D01*
Y54330D01*
X-19100Y54854D01*
X-20674D01*
X19094Y90256D02*
Y93405D01*
X20144Y92355D01*
X21193Y93405D01*
Y90256D01*
X23817D02*
Y93405D01*
X22243Y91830D01*
X24342D01*
X93817Y-118190D02*
X93946Y-117459D01*
X94806Y-116857D01*
X95537Y-116986D01*
X95838Y-117416D01*
X95709Y-118146D01*
X95279Y-118447D01*
X95709Y-118146D01*
X96440Y-118275D01*
X96741Y-118705D01*
X96612Y-119436D01*
X95752Y-120038D01*
X95021Y-119909D01*
X96095Y-115954D02*
X97299Y-117673D01*
X98761Y-117931D01*
X99019Y-116469D01*
X97815Y-114750D01*
X98976Y-114578D02*
X99104Y-113847D01*
X99964Y-113245D01*
X100695Y-113374D01*
X100996Y-113804D01*
X100867Y-114534D01*
X100437Y-114836D01*
X100867Y-114534D01*
X101598Y-114663D01*
X101899Y-115093D01*
X101770Y-115824D01*
X100910Y-116426D01*
X100180Y-116297D01*
X38878Y90256D02*
Y93405D01*
X39928Y92355D01*
X40977Y93405D01*
Y90256D01*
X44126D02*
X42026D01*
X44126Y92355D01*
Y92880D01*
X43601Y93405D01*
X42551D01*
X42026Y92880D01*
X58268Y93536D02*
Y91436D01*
X59317Y90387D01*
X60367Y91436D01*
Y93536D01*
X61416Y89862D02*
X63515D01*
X64565Y93536D02*
Y90387D01*
X66139D01*
X66664Y90912D01*
Y91436D01*
X66139Y91961D01*
X64565D01*
X66139D01*
X66664Y92486D01*
Y93011D01*
X66139Y93536D01*
X64565D01*
X67713Y90387D02*
Y92486D01*
X68763Y93536D01*
X69813Y92486D01*
Y90387D01*
Y91961D01*
X67713D01*
X70862Y93536D02*
X72961D01*
X71912D01*
Y90387D01*
X-131856Y27855D02*
Y31003D01*
X-130281D01*
X-129756Y30479D01*
Y29429D01*
X-130281Y28904D01*
X-131856D01*
X-130806D02*
X-129756Y27855D01*
X-128707Y30479D02*
X-128182Y31003D01*
X-127133D01*
X-126608Y30479D01*
Y29954D01*
X-127133Y29429D01*
X-127657D01*
X-127133D01*
X-126608Y28904D01*
Y28380D01*
X-127133Y27855D01*
X-128182D01*
X-128707Y28380D01*
X-125558Y30479D02*
X-125034Y31003D01*
X-123984D01*
X-123459Y30479D01*
Y29954D01*
X-123984Y29429D01*
X-123459Y28904D01*
Y28380D01*
X-123984Y27855D01*
X-125034D01*
X-125558Y28380D01*
Y28904D01*
X-125034Y29429D01*
X-125558Y29954D01*
Y30479D01*
X-125034Y29429D02*
X-123984D01*
X-128870Y-17127D02*
Y-20275D01*
X-127295D01*
X-126771Y-19750D01*
Y-19226D01*
X-127295Y-18701D01*
X-128870D01*
X-127295D01*
X-126771Y-18176D01*
Y-17651D01*
X-127295Y-17127D01*
X-128870D01*
X-125721D02*
Y-19750D01*
X-125196Y-20275D01*
X-124147D01*
X-123622Y-19750D01*
Y-17127D01*
X-122573D02*
X-120474D01*
Y-17651D01*
X-122573Y-19750D01*
Y-20275D01*
X-120474D01*
X-119424D02*
X-118374D01*
X-118899D01*
Y-17127D01*
X-119424Y-17651D01*
X28216Y40846D02*
Y38222D01*
X28741Y37697D01*
X29790D01*
X30315Y38222D01*
Y40846D01*
X31365Y37697D02*
X32414D01*
X31889D01*
Y40846D01*
X31365Y40321D01*
X81003Y-78116D02*
X77855D01*
Y-76542D01*
X78380Y-76017D01*
X79429D01*
X79954Y-76542D01*
Y-78116D01*
Y-77066D02*
X81003Y-76017D01*
X77855Y-72868D02*
X78380Y-73918D01*
X79429Y-74967D01*
X80479D01*
X81003Y-74443D01*
Y-73393D01*
X80479Y-72868D01*
X79954D01*
X79429Y-73393D01*
Y-74967D01*
X-57873Y10402D02*
X-54725Y12502D01*
X-57873D02*
X-54725Y10402D01*
X-57873Y13551D02*
Y15650D01*
Y14601D01*
X-54725D01*
Y16700D02*
X-56824D01*
X-57873Y17749D01*
X-56824Y18799D01*
X-54725D01*
X-56299D01*
Y16700D01*
X-57873Y19848D02*
X-54725D01*
Y21947D01*
Y22997D02*
Y24046D01*
Y23522D01*
X-57873D01*
X-57349Y22997D01*
X115914Y98326D02*
Y95702D01*
X116438Y95178D01*
X117488D01*
X118013Y95702D01*
Y98326D01*
X121161Y97802D02*
X120637Y98326D01*
X119587D01*
X119062Y97802D01*
Y97277D01*
X119587Y96752D01*
X120637D01*
X121161Y96227D01*
Y95702D01*
X120637Y95178D01*
X119587D01*
X119062Y95702D01*
X122211Y98326D02*
Y95178D01*
X123785D01*
X124310Y95702D01*
Y96227D01*
X123785Y96752D01*
X122211D01*
X123785D01*
X124310Y97277D01*
Y97802D01*
X123785Y98326D01*
X122211D01*
X125359Y95178D02*
X126409D01*
X125884D01*
Y98326D01*
X125359Y97802D01*
X-61974Y139665D02*
Y137041D01*
X-61449Y136516D01*
X-60400D01*
X-59875Y137041D01*
Y139665D01*
X-58826Y139140D02*
X-58301Y139665D01*
X-57251D01*
X-56727Y139140D01*
Y138615D01*
X-57251Y138091D01*
X-56727Y137566D01*
Y137041D01*
X-57251Y136516D01*
X-58301D01*
X-58826Y137041D01*
Y137566D01*
X-58301Y138091D01*
X-58826Y138615D01*
Y139140D01*
X-58301Y138091D02*
X-57251D01*
X115290Y-62697D02*
Y-65321D01*
X115814Y-65846D01*
X116864D01*
X117389Y-65321D01*
Y-62697D01*
X118438D02*
X120537D01*
Y-63222D01*
X118438Y-65321D01*
Y-65846D01*
X-89763Y14994D02*
X-87139D01*
X-86615Y15519D01*
Y16569D01*
X-87139Y17093D01*
X-89763D01*
Y20242D02*
Y18143D01*
X-88189D01*
X-88714Y19192D01*
Y19717D01*
X-88189Y20242D01*
X-87139D01*
X-86615Y19717D01*
Y18668D01*
X-87139Y18143D01*
X-33628Y-58957D02*
Y-61581D01*
X-33103Y-62106D01*
X-32054D01*
X-31529Y-61581D01*
Y-58957D01*
X-28905Y-62106D02*
Y-58957D01*
X-30479Y-60532D01*
X-28380D01*
X111353Y67125D02*
Y64502D01*
X111877Y63977D01*
X112927D01*
X113452Y64502D01*
Y67125D01*
X114501Y66601D02*
X115026Y67125D01*
X116076D01*
X116600Y66601D01*
Y66076D01*
X116076Y65551D01*
X115551D01*
X116076D01*
X116600Y65026D01*
Y64502D01*
X116076Y63977D01*
X115026D01*
X114501Y64502D01*
X123000Y47049D02*
Y44425D01*
X123525Y43900D01*
X124574D01*
X125099Y44425D01*
Y47049D01*
X128248Y43900D02*
X126149D01*
X128248Y45999D01*
Y46524D01*
X127723Y47049D01*
X126673D01*
X126149Y46524D01*
X-68536Y557D02*
X-69061Y1082D01*
X-70110D01*
X-70635Y557D01*
Y33D01*
X-70110Y-492D01*
X-69061D01*
X-68536Y-1017D01*
Y-1542D01*
X-69061Y-2066D01*
X-70110D01*
X-70635Y-1542D01*
X-65387Y1082D02*
X-66437D01*
X-65912D01*
Y-1542D01*
X-66437Y-2066D01*
X-66962D01*
X-67487Y-1542D01*
X-64338Y557D02*
X-63813Y1082D01*
X-62764D01*
X-62239Y557D01*
Y33D01*
X-62764Y-492D01*
X-62239Y-1017D01*
Y-1542D01*
X-62764Y-2066D01*
X-63813D01*
X-64338Y-1542D01*
Y-1017D01*
X-63813Y-492D01*
X-64338Y33D01*
Y557D01*
X-63813Y-492D02*
X-62764D01*
X132054Y55282D02*
X131530Y55807D01*
X130480D01*
X129955Y55282D01*
Y54757D01*
X130480Y54232D01*
X131530D01*
X132054Y53707D01*
Y53183D01*
X131530Y52658D01*
X130480D01*
X129955Y53183D01*
X135203Y55807D02*
X134153D01*
X134678D01*
Y53183D01*
X134153Y52658D01*
X133629D01*
X133104Y53183D01*
X136253Y55807D02*
X138352D01*
Y55282D01*
X136253Y53183D01*
Y52658D01*
X149574Y57152D02*
X149049Y57677D01*
X148000D01*
X147475Y57152D01*
Y56627D01*
X148000Y56102D01*
X149049D01*
X149574Y55578D01*
Y55053D01*
X149049Y54528D01*
X148000D01*
X147475Y55053D01*
X152723Y57677D02*
X151673D01*
X152198D01*
Y55053D01*
X151673Y54528D01*
X151148D01*
X150624Y55053D01*
X155871Y57677D02*
X154822Y57152D01*
X153772Y56102D01*
Y55053D01*
X154297Y54528D01*
X155347D01*
X155871Y55053D01*
Y55578D01*
X155347Y56102D01*
X153772D01*
X4988Y-8694D02*
X4463Y-8170D01*
X3413D01*
X2888Y-8694D01*
Y-9219D01*
X3413Y-9744D01*
X4463D01*
X4988Y-10269D01*
Y-10794D01*
X4463Y-11318D01*
X3413D01*
X2888Y-10794D01*
X8136Y-8170D02*
X7087D01*
X7611D01*
Y-10794D01*
X7087Y-11318D01*
X6562D01*
X6037Y-10794D01*
X11285Y-8170D02*
X9186D01*
Y-9744D01*
X10235Y-9219D01*
X10760D01*
X11285Y-9744D01*
Y-10794D01*
X10760Y-11318D01*
X9710D01*
X9186Y-10794D01*
X58728Y71916D02*
X58203Y72440D01*
X57153D01*
X56629Y71916D01*
Y71391D01*
X57153Y70866D01*
X58203D01*
X58728Y70341D01*
Y69817D01*
X58203Y69292D01*
X57153D01*
X56629Y69817D01*
X61876Y72440D02*
X60827D01*
X61352D01*
Y69817D01*
X60827Y69292D01*
X60302D01*
X59777Y69817D01*
X64500Y69292D02*
Y72440D01*
X62926Y70866D01*
X65025D01*
X4988Y-3675D02*
X4463Y-3150D01*
X3413D01*
X2888Y-3675D01*
Y-4200D01*
X3413Y-4724D01*
X4463D01*
X4988Y-5249D01*
Y-5774D01*
X4463Y-6299D01*
X3413D01*
X2888Y-5774D01*
X8136Y-3150D02*
X7087D01*
X7611D01*
Y-5774D01*
X7087Y-6299D01*
X6562D01*
X6037Y-5774D01*
X9186Y-3675D02*
X9710Y-3150D01*
X10760D01*
X11285Y-3675D01*
Y-4200D01*
X10760Y-4724D01*
X10235D01*
X10760D01*
X11285Y-5249D01*
Y-5774D01*
X10760Y-6299D01*
X9710D01*
X9186Y-5774D01*
X73196Y-94718D02*
X72672Y-94193D01*
X71622D01*
X71097Y-94718D01*
Y-95243D01*
X71622Y-95768D01*
X72672D01*
X73196Y-96293D01*
Y-96817D01*
X72672Y-97342D01*
X71622D01*
X71097Y-96817D01*
X76345Y-94193D02*
X75295D01*
X75820D01*
Y-96817D01*
X75295Y-97342D01*
X74770D01*
X74246Y-96817D01*
X79493Y-97342D02*
X77394D01*
X79493Y-95243D01*
Y-94718D01*
X78969Y-94193D01*
X77919D01*
X77394Y-94718D01*
X83859Y-92159D02*
X83334Y-91634D01*
X82284D01*
X81760Y-92159D01*
Y-92684D01*
X82284Y-93209D01*
X83334D01*
X83859Y-93733D01*
Y-94258D01*
X83334Y-94783D01*
X82284D01*
X81760Y-94258D01*
X87007Y-91634D02*
X85958D01*
X86483D01*
Y-94258D01*
X85958Y-94783D01*
X85433D01*
X84908Y-94258D01*
X88057Y-94783D02*
X89106D01*
X88582D01*
Y-91634D01*
X88057Y-92159D01*
X-51147Y103544D02*
Y106692D01*
X-49573D01*
X-49048Y106168D01*
Y105118D01*
X-49573Y104593D01*
X-51147D01*
X-50097D02*
X-49048Y103544D01*
X-45899Y106692D02*
X-47998D01*
Y105118D01*
X-46949Y105643D01*
X-46424D01*
X-45899Y105118D01*
Y104069D01*
X-46424Y103544D01*
X-47474D01*
X-47998Y104069D01*
X-44850Y106692D02*
X-42751D01*
Y106168D01*
X-44850Y104069D01*
Y103544D01*
X-30119Y137042D02*
X-33267D01*
Y138616D01*
X-32743Y139141D01*
X-31693D01*
X-31168Y138616D01*
Y137042D01*
Y138092D02*
X-30119Y139141D01*
X-33267Y142290D02*
Y140191D01*
X-31693D01*
X-32218Y141240D01*
Y141765D01*
X-31693Y142290D01*
X-30643D01*
X-30119Y141765D01*
Y140715D01*
X-30643Y140191D01*
X-33267Y145438D02*
X-32743Y144389D01*
X-31693Y143339D01*
X-30643D01*
X-30119Y143864D01*
Y144913D01*
X-30643Y145438D01*
X-31168D01*
X-31693Y144913D01*
Y143339D01*
X105841Y-60531D02*
Y-57382D01*
X107416D01*
X107940Y-57907D01*
Y-58957D01*
X107416Y-59481D01*
X105841D01*
X106891D02*
X107940Y-60531D01*
X111089Y-57382D02*
X108990D01*
Y-58957D01*
X110039Y-58432D01*
X110564D01*
X111089Y-58957D01*
Y-60006D01*
X110564Y-60531D01*
X109515D01*
X108990Y-60006D01*
X114237Y-57382D02*
X112138D01*
Y-58957D01*
X113188Y-58432D01*
X113713D01*
X114237Y-58957D01*
Y-60006D01*
X113713Y-60531D01*
X112663D01*
X112138Y-60006D01*
X135172Y-64074D02*
Y-60926D01*
X136746D01*
X137271Y-61450D01*
Y-62500D01*
X136746Y-63025D01*
X135172D01*
X136222D02*
X137271Y-64074D01*
X140420Y-60926D02*
X138321D01*
Y-62500D01*
X139370Y-61975D01*
X139895D01*
X140420Y-62500D01*
Y-63550D01*
X139895Y-64074D01*
X138845D01*
X138321Y-63550D01*
X141469Y-61450D02*
X141994Y-60926D01*
X143043D01*
X143568Y-61450D01*
Y-61975D01*
X143043Y-62500D01*
X142519D01*
X143043D01*
X143568Y-63025D01*
Y-63550D01*
X143043Y-64074D01*
X141994D01*
X141469Y-63550D01*
X-49277Y149804D02*
Y152952D01*
X-47703D01*
X-47178Y152427D01*
Y151378D01*
X-47703Y150853D01*
X-49277D01*
X-48227D02*
X-47178Y149804D01*
X-44029Y152952D02*
X-46128D01*
Y151378D01*
X-45079Y151903D01*
X-44554D01*
X-44029Y151378D01*
Y150328D01*
X-44554Y149804D01*
X-45603D01*
X-46128Y150328D01*
X-40881Y149804D02*
X-42980D01*
X-40881Y151903D01*
Y152427D01*
X-41405Y152952D01*
X-42455D01*
X-42980Y152427D01*
X-41469Y110335D02*
Y113484D01*
X-39894D01*
X-39370Y112959D01*
Y111909D01*
X-39894Y111385D01*
X-41469D01*
X-40419D02*
X-39370Y110335D01*
X-36221Y113484D02*
X-38320D01*
Y111909D01*
X-37271Y112434D01*
X-36746D01*
X-36221Y111909D01*
Y110860D01*
X-36746Y110335D01*
X-37795D01*
X-38320Y110860D01*
X-35171Y110335D02*
X-34122D01*
X-34647D01*
Y113484D01*
X-35171Y112959D01*
X-146193Y9646D02*
Y12795D01*
X-144619D01*
X-144094Y12270D01*
Y11220D01*
X-144619Y10696D01*
X-146193D01*
X-145143D02*
X-144094Y9646D01*
X-141470D02*
Y12795D01*
X-143044Y11220D01*
X-140945D01*
X-139896Y9646D02*
X-138846D01*
X-139371D01*
Y12795D01*
X-139896Y12270D01*
X-115419Y23819D02*
Y26968D01*
X-113844D01*
X-113320Y26443D01*
Y25394D01*
X-113844Y24869D01*
X-115419D01*
X-114369D02*
X-113320Y23819D01*
X-112270Y26443D02*
X-111745Y26968D01*
X-110696D01*
X-110171Y26443D01*
Y25918D01*
X-110696Y25394D01*
X-111221D01*
X-110696D01*
X-110171Y24869D01*
Y24344D01*
X-110696Y23819D01*
X-111745D01*
X-112270Y24344D01*
X-109121Y26443D02*
X-108597Y26968D01*
X-107547D01*
X-107022Y26443D01*
Y24344D01*
X-107547Y23819D01*
X-108597D01*
X-109121Y24344D01*
Y26443D01*
X-87107Y33794D02*
X-90255D01*
Y35368D01*
X-89731Y35893D01*
X-88681D01*
X-88156Y35368D01*
Y33794D01*
Y34844D02*
X-87107Y35893D01*
Y39042D02*
Y36943D01*
X-89206Y39042D01*
X-89731D01*
X-90255Y38517D01*
Y37467D01*
X-89731Y36943D01*
X-87632Y40091D02*
X-87107Y40616D01*
Y41666D01*
X-87632Y42190D01*
X-89731D01*
X-90255Y41666D01*
Y40616D01*
X-89731Y40091D01*
X-89206D01*
X-88681Y40616D01*
Y42190D01*
X-89961Y-12663D02*
X-93110D01*
Y-11088D01*
X-92585Y-10564D01*
X-91535D01*
X-91011Y-11088D01*
Y-12663D01*
Y-11613D02*
X-89961Y-10564D01*
Y-7415D02*
Y-9514D01*
X-92060Y-7415D01*
X-92585D01*
X-93110Y-7940D01*
Y-8989D01*
X-92585Y-9514D01*
Y-6365D02*
X-93110Y-5841D01*
Y-4791D01*
X-92585Y-4266D01*
X-92060D01*
X-91535Y-4791D01*
X-91011Y-4266D01*
X-90486D01*
X-89961Y-4791D01*
Y-5841D01*
X-90486Y-6365D01*
X-91011D01*
X-91535Y-5841D01*
X-92060Y-6365D01*
X-92585D01*
X-91535Y-5841D02*
Y-4791D01*
X-99312Y-12663D02*
X-102460D01*
Y-11088D01*
X-101935Y-10564D01*
X-100886D01*
X-100361Y-11088D01*
Y-12663D01*
Y-11613D02*
X-99312Y-10564D01*
Y-7415D02*
Y-9514D01*
X-101411Y-7415D01*
X-101935D01*
X-102460Y-7940D01*
Y-8989D01*
X-101935Y-9514D01*
X-102460Y-6365D02*
Y-4266D01*
X-101935D01*
X-99836Y-6365D01*
X-99312D01*
X-94587Y-12663D02*
X-97736D01*
Y-11088D01*
X-97211Y-10564D01*
X-96161D01*
X-95637Y-11088D01*
Y-12663D01*
Y-11613D02*
X-94587Y-10564D01*
Y-7415D02*
Y-9514D01*
X-96686Y-7415D01*
X-97211D01*
X-97736Y-7940D01*
Y-8989D01*
X-97211Y-9514D01*
X-97736Y-4266D02*
X-97211Y-5316D01*
X-96161Y-6365D01*
X-95112D01*
X-94587Y-5841D01*
Y-4791D01*
X-95112Y-4266D01*
X-95637D01*
X-96161Y-4791D01*
Y-6365D01*
X30152Y-86417D02*
Y-83268D01*
X31727D01*
X32251Y-83793D01*
Y-84842D01*
X31727Y-85367D01*
X30152D01*
X31202D02*
X32251Y-86417D01*
X35400D02*
X33301D01*
X35400Y-84318D01*
Y-83793D01*
X34875Y-83268D01*
X33826D01*
X33301Y-83793D01*
X38548Y-83268D02*
X36450D01*
Y-84842D01*
X37499Y-84318D01*
X38024D01*
X38548Y-84842D01*
Y-85892D01*
X38024Y-86417D01*
X36974D01*
X36450Y-85892D01*
X-115025Y11713D02*
Y14862D01*
X-113451D01*
X-112926Y14337D01*
Y13287D01*
X-113451Y12763D01*
X-115025D01*
X-113975D02*
X-112926Y11713D01*
X-109777D02*
X-111876D01*
X-109777Y13812D01*
Y14337D01*
X-110302Y14862D01*
X-111352D01*
X-111876Y14337D01*
X-107153Y11713D02*
Y14862D01*
X-108728Y13287D01*
X-106629D01*
X-40123Y-132578D02*
Y-129430D01*
X-38549D01*
X-38024Y-129954D01*
Y-131004D01*
X-38549Y-131529D01*
X-40123D01*
X-39074D02*
X-38024Y-132578D01*
X-34876D02*
X-36975D01*
X-34876Y-130479D01*
Y-129954D01*
X-35400Y-129430D01*
X-36450D01*
X-36975Y-129954D01*
X-33826D02*
X-33301Y-129430D01*
X-32252D01*
X-31727Y-129954D01*
Y-130479D01*
X-32252Y-131004D01*
X-32777D01*
X-32252D01*
X-31727Y-131529D01*
Y-132053D01*
X-32252Y-132578D01*
X-33301D01*
X-33826Y-132053D01*
X-30478Y-20275D02*
Y-17127D01*
X-28903D01*
X-28379Y-17651D01*
Y-18701D01*
X-28903Y-19226D01*
X-30478D01*
X-29428D02*
X-28379Y-20275D01*
X-25230D02*
X-27329D01*
X-25230Y-18176D01*
Y-17651D01*
X-25755Y-17127D01*
X-26804D01*
X-27329Y-17651D01*
X-22081Y-20275D02*
X-24181D01*
X-22081Y-18176D01*
Y-17651D01*
X-22606Y-17127D01*
X-23656D01*
X-24181Y-17651D01*
X-71882Y-132283D02*
Y-129134D01*
X-70308D01*
X-69783Y-129659D01*
Y-130709D01*
X-70308Y-131233D01*
X-71882D01*
X-70833D02*
X-69783Y-132283D01*
X-66634D02*
X-68733D01*
X-66634Y-130184D01*
Y-129659D01*
X-67159Y-129134D01*
X-68209D01*
X-68733Y-129659D01*
X-65585Y-132283D02*
X-64535D01*
X-65060D01*
Y-129134D01*
X-65585Y-129659D01*
X-63844Y-145078D02*
Y-141930D01*
X-62270D01*
X-61745Y-142454D01*
Y-143504D01*
X-62270Y-144029D01*
X-63844D01*
X-62794D02*
X-61745Y-145078D01*
X-58596D02*
X-60695D01*
X-58596Y-142979D01*
Y-142454D01*
X-59121Y-141930D01*
X-60170D01*
X-60695Y-142454D01*
X-57547D02*
X-57022Y-141930D01*
X-55972D01*
X-55448Y-142454D01*
Y-144553D01*
X-55972Y-145078D01*
X-57022D01*
X-57547Y-144553D01*
Y-142454D01*
X-113483Y77264D02*
Y80413D01*
X-111909D01*
X-111384Y79888D01*
Y78839D01*
X-111909Y78314D01*
X-113483D01*
X-112433D02*
X-111384Y77264D01*
X-110334D02*
X-109285D01*
X-109810D01*
Y80413D01*
X-110334Y79888D01*
X-107711Y77789D02*
X-107186Y77264D01*
X-106136D01*
X-105612Y77789D01*
Y79888D01*
X-106136Y80413D01*
X-107186D01*
X-107711Y79888D01*
Y79363D01*
X-107186Y78839D01*
X-105612D01*
X-34448Y43308D02*
Y46456D01*
X-32873D01*
X-32348Y45931D01*
Y44882D01*
X-32873Y44357D01*
X-34448D01*
X-33398D02*
X-32348Y43308D01*
X-31299D02*
X-30249D01*
X-30774D01*
Y46456D01*
X-31299Y45931D01*
X-28675D02*
X-28150Y46456D01*
X-27101D01*
X-26576Y45931D01*
Y45407D01*
X-27101Y44882D01*
X-26576Y44357D01*
Y43832D01*
X-27101Y43308D01*
X-28150D01*
X-28675Y43832D01*
Y44357D01*
X-28150Y44882D01*
X-28675Y45407D01*
Y45931D01*
X-28150Y44882D02*
X-27101D01*
X149903Y32087D02*
Y35236D01*
X151477D01*
X152002Y34711D01*
Y33661D01*
X151477Y33137D01*
X149903D01*
X150952D02*
X152002Y32087D01*
X153051D02*
X154101D01*
X153576D01*
Y35236D01*
X153051Y34711D01*
X155675Y35236D02*
X157774D01*
Y34711D01*
X155675Y32612D01*
Y32087D01*
X150198Y27363D02*
Y30511D01*
X151772D01*
X152297Y29987D01*
Y28937D01*
X151772Y28412D01*
X150198D01*
X151248D02*
X152297Y27363D01*
X153347D02*
X154396D01*
X153872D01*
Y30511D01*
X153347Y29987D01*
X158070Y30511D02*
X157020Y29987D01*
X155971Y28937D01*
Y27887D01*
X156495Y27363D01*
X157545D01*
X158070Y27887D01*
Y28412D01*
X157545Y28937D01*
X155971D01*
X121063Y17915D02*
X117914D01*
Y19489D01*
X118439Y20014D01*
X119488D01*
X120013Y19489D01*
Y17915D01*
Y18964D02*
X121063Y20014D01*
Y21063D02*
Y22113D01*
Y21588D01*
X117914D01*
X118439Y21063D01*
X117914Y25786D02*
Y23687D01*
X119488D01*
X118963Y24737D01*
Y25261D01*
X119488Y25786D01*
X120538D01*
X121063Y25261D01*
Y24212D01*
X120538Y23687D01*
X106891Y99D02*
Y3247D01*
X108465D01*
X108990Y2723D01*
Y1673D01*
X108465Y1149D01*
X106891D01*
X107941D02*
X108990Y99D01*
X110040D02*
X111089D01*
X110564D01*
Y3247D01*
X110040Y2723D01*
X114238Y99D02*
Y3247D01*
X112663Y1673D01*
X114762D01*
X74903Y39075D02*
Y42224D01*
X76477D01*
X77002Y41699D01*
Y40650D01*
X76477Y40125D01*
X74903D01*
X75952D02*
X77002Y39075D01*
X78051D02*
X79101D01*
X78576D01*
Y42224D01*
X78051Y41699D01*
X80675D02*
X81200Y42224D01*
X82250D01*
X82774Y41699D01*
Y41174D01*
X82250Y40650D01*
X81725D01*
X82250D01*
X82774Y40125D01*
Y39600D01*
X82250Y39075D01*
X81200D01*
X80675Y39600D01*
X106891Y5119D02*
Y8267D01*
X108465D01*
X108990Y7742D01*
Y6693D01*
X108465Y6168D01*
X106891D01*
X107941D02*
X108990Y5119D01*
X110040D02*
X111089D01*
X110564D01*
Y8267D01*
X110040Y7742D01*
X114762Y5119D02*
X112663D01*
X114762Y7218D01*
Y7742D01*
X114238Y8267D01*
X113188D01*
X112663Y7742D01*
X150885Y-18076D02*
X147737D01*
Y-16502D01*
X148261Y-15977D01*
X149311D01*
X149836Y-16502D01*
Y-18076D01*
Y-17027D02*
X150885Y-15977D01*
Y-14928D02*
Y-13878D01*
Y-14403D01*
X147737D01*
X148261Y-14928D01*
X150885Y-12304D02*
Y-11254D01*
Y-11779D01*
X147737D01*
X148261Y-12304D01*
X156495Y-18306D02*
X153347D01*
Y-16732D01*
X153872Y-16207D01*
X154921D01*
X155446Y-16732D01*
Y-18306D01*
Y-17256D02*
X156495Y-16207D01*
Y-15157D02*
Y-14108D01*
Y-14633D01*
X153347D01*
X153872Y-15157D01*
Y-12533D02*
X153347Y-12009D01*
Y-10959D01*
X153872Y-10434D01*
X155971D01*
X156495Y-10959D01*
Y-12009D01*
X155971Y-12533D01*
X153872D01*
X49212Y-50951D02*
X46064D01*
Y-49376D01*
X46588Y-48851D01*
X47638D01*
X48163Y-49376D01*
Y-50951D01*
Y-49901D02*
X49212Y-48851D01*
X48687Y-47802D02*
X49212Y-47277D01*
Y-46228D01*
X48687Y-45703D01*
X46588D01*
X46064Y-46228D01*
Y-47277D01*
X46588Y-47802D01*
X47113D01*
X47638Y-47277D01*
Y-45703D01*
X63976Y-50951D02*
X60827D01*
Y-49376D01*
X61352Y-48851D01*
X62402D01*
X62926Y-49376D01*
Y-50951D01*
Y-49901D02*
X63976Y-48851D01*
X61352Y-47802D02*
X60827Y-47277D01*
Y-46228D01*
X61352Y-45703D01*
X61877D01*
X62402Y-46228D01*
X62926Y-45703D01*
X63451D01*
X63976Y-46228D01*
Y-47277D01*
X63451Y-47802D01*
X62926D01*
X62402Y-47277D01*
X61877Y-47802D01*
X61352D01*
X62402Y-47277D02*
Y-46228D01*
X75196Y-78116D02*
X72048D01*
Y-76542D01*
X72572Y-76017D01*
X73622D01*
X74147Y-76542D01*
Y-78116D01*
Y-77066D02*
X75196Y-76017D01*
X72048Y-74967D02*
Y-72868D01*
X72572D01*
X74672Y-74967D01*
X75196D01*
X79429Y-50951D02*
X76280D01*
Y-49376D01*
X76805Y-48851D01*
X77854D01*
X78379Y-49376D01*
Y-50951D01*
Y-49901D02*
X79429Y-48851D01*
X76280Y-45703D02*
Y-47802D01*
X77854D01*
X77330Y-46753D01*
Y-46228D01*
X77854Y-45703D01*
X78904D01*
X79429Y-46228D01*
Y-47277D01*
X78904Y-47802D01*
X2888Y-16240D02*
Y-13091D01*
X4463D01*
X4988Y-13616D01*
Y-14665D01*
X4463Y-15190D01*
X2888D01*
X3938D02*
X4988Y-16240D01*
X7611D02*
Y-13091D01*
X6037Y-14665D01*
X8136D01*
X75132Y43800D02*
Y46948D01*
X76706D01*
X77231Y46424D01*
Y45374D01*
X76706Y44849D01*
X75132D01*
X76182D02*
X77231Y43800D01*
X78281Y46424D02*
X78805Y46948D01*
X79855D01*
X80380Y46424D01*
Y45899D01*
X79855Y45374D01*
X79330D01*
X79855D01*
X80380Y44849D01*
Y44324D01*
X79855Y43800D01*
X78805D01*
X78281Y44324D01*
X88582Y-78116D02*
X85434D01*
Y-76542D01*
X85958Y-76017D01*
X87008D01*
X87533Y-76542D01*
Y-78116D01*
Y-77066D02*
X88582Y-76017D01*
Y-72868D02*
Y-74967D01*
X86483Y-72868D01*
X85958D01*
X85434Y-73393D01*
Y-74443D01*
X85958Y-74967D01*
X65846Y-78116D02*
X62697D01*
Y-76542D01*
X63222Y-76017D01*
X64272D01*
X64796Y-76542D01*
Y-78116D01*
Y-77066D02*
X65846Y-76017D01*
Y-74967D02*
Y-73918D01*
Y-74443D01*
X62697D01*
X63222Y-74967D01*
X-141470Y3084D02*
Y5183D01*
X-141995Y5708D01*
X-143044D01*
X-143569Y5183D01*
Y3084D01*
X-143044Y2560D01*
X-141995D01*
X-142520Y3609D02*
X-141470Y2560D01*
X-141995D02*
X-141470Y3084D01*
X-140421Y5183D02*
X-139896Y5708D01*
X-138846D01*
X-138322Y5183D01*
Y4659D01*
X-138846Y4134D01*
X-139371D01*
X-138846D01*
X-138322Y3609D01*
Y3084D01*
X-138846Y2560D01*
X-139896D01*
X-140421Y3084D01*
X160794Y-5183D02*
Y-3084D01*
X160269Y-2560D01*
X159220D01*
X158695Y-3084D01*
Y-5183D01*
X159220Y-5708D01*
X160269D01*
X159745Y-4659D02*
X160794Y-5708D01*
X160269D02*
X160794Y-5183D01*
X163943Y-5708D02*
X161844D01*
X163943Y-3609D01*
Y-3084D01*
X163418Y-2560D01*
X162368D01*
X161844Y-3084D01*
X148130Y-4298D02*
Y-2198D01*
X147605Y-1674D01*
X146556D01*
X146031Y-2198D01*
Y-4298D01*
X146556Y-4822D01*
X147605D01*
X147080Y-3773D02*
X148130Y-4822D01*
X147605D02*
X148130Y-4298D01*
X149179Y-4822D02*
X150229D01*
X149704D01*
Y-1674D01*
X149179Y-2198D01*
X-40714Y-139567D02*
Y-142716D01*
X-38615D01*
X-35467D02*
X-37566D01*
X-35467Y-140617D01*
Y-140092D01*
X-35991Y-139567D01*
X-37041D01*
X-37566Y-140092D01*
X113944Y-104627D02*
X112894D01*
X113419D01*
Y-107250D01*
X112894Y-107775D01*
X112370D01*
X111845Y-107250D01*
X117092Y-104627D02*
X114993D01*
Y-106201D01*
X116043Y-105676D01*
X116568D01*
X117092Y-106201D01*
Y-107250D01*
X116568Y-107775D01*
X115518D01*
X114993Y-107250D01*
X10991Y84547D02*
X9941D01*
X10466D01*
Y81923D01*
X9941Y81398D01*
X9417D01*
X8892Y81923D01*
X12041Y84022D02*
X12565Y84547D01*
X13615D01*
X14140Y84022D01*
Y83497D01*
X13615Y82973D01*
X13090D01*
X13615D01*
X14140Y82448D01*
Y81923D01*
X13615Y81398D01*
X12565D01*
X12041Y81923D01*
X-6725Y16436D02*
X-7775D01*
X-7250D01*
Y13813D01*
X-7775Y13288D01*
X-8300D01*
X-8825Y13813D01*
X-3577Y13288D02*
X-5676D01*
X-3577Y15387D01*
Y15912D01*
X-4102Y16436D01*
X-5151D01*
X-5676Y15912D01*
X48622Y-85237D02*
X47572D01*
X48097D01*
Y-87861D01*
X47572Y-88385D01*
X47048D01*
X46523Y-87861D01*
X49672Y-88385D02*
X50721D01*
X50196D01*
Y-85237D01*
X49672Y-85761D01*
X-118470Y689D02*
X-120569D01*
Y-886D01*
X-119520D01*
X-120569D01*
Y-2460D01*
X-117420Y689D02*
X-116371D01*
X-116896D01*
Y-2460D01*
X-117420D01*
X-116371D01*
X-114797Y689D02*
Y-2460D01*
X-113222D01*
X-112698Y-1935D01*
Y164D01*
X-113222Y689D01*
X-114797D01*
X-111648Y164D02*
X-111123Y689D01*
X-110074D01*
X-109549Y164D01*
Y-361D01*
X-110074Y-886D01*
X-110599D01*
X-110074D01*
X-109549Y-1411D01*
Y-1935D01*
X-110074Y-2460D01*
X-111123D01*
X-111648Y-1935D01*
X-22801Y97145D02*
X-24900D01*
Y95571D01*
X-23850D01*
X-24900D01*
Y93997D01*
X-21751Y97145D02*
X-20702D01*
X-21226D01*
Y93997D01*
X-21751D01*
X-20702D01*
X-19127Y97145D02*
Y93997D01*
X-17553D01*
X-17028Y94521D01*
Y96620D01*
X-17553Y97145D01*
X-19127D01*
X-13880Y93997D02*
X-15979D01*
X-13880Y96096D01*
Y96620D01*
X-14404Y97145D01*
X-15454D01*
X-15979Y96620D01*
X-22079Y128444D02*
X-24178D01*
Y126870D01*
X-23129D01*
X-24178D01*
Y125296D01*
X-21030Y128444D02*
Y125296D01*
X-19455D01*
X-18931Y125821D01*
Y126345D01*
X-19455Y126870D01*
X-21030D01*
X-19455D01*
X-18931Y127395D01*
Y127920D01*
X-19455Y128444D01*
X-21030D01*
X-15782Y125296D02*
X-17881D01*
X-15782Y127395D01*
Y127920D01*
X-16307Y128444D01*
X-17357D01*
X-17881Y127920D01*
X-76279Y143602D02*
X-78378D01*
Y142028D01*
X-77328D01*
X-78378D01*
Y140453D01*
X-75230Y143602D02*
Y140453D01*
X-73655D01*
X-73130Y140978D01*
Y141503D01*
X-73655Y142028D01*
X-75230D01*
X-73655D01*
X-73130Y142552D01*
Y143077D01*
X-73655Y143602D01*
X-75230D01*
X-72081Y140453D02*
X-71031D01*
X-71556D01*
Y143602D01*
X-72081Y143077D01*
X-63844Y-135237D02*
Y-138385D01*
X-62270D01*
X-61745Y-137861D01*
Y-135761D01*
X-62270Y-135237D01*
X-63844D01*
X-60695Y-135761D02*
X-60170Y-135237D01*
X-59121D01*
X-58596Y-135761D01*
Y-136286D01*
X-59121Y-136811D01*
X-58596Y-137336D01*
Y-137861D01*
X-59121Y-138385D01*
X-60170D01*
X-60695Y-137861D01*
Y-137336D01*
X-60170Y-136811D01*
X-60695Y-136286D01*
Y-135761D01*
X-60170Y-136811D02*
X-59121D01*
X-37663Y-17127D02*
Y-20275D01*
X-36089D01*
X-35564Y-19750D01*
Y-17651D01*
X-36089Y-17127D01*
X-37663D01*
X-34515D02*
X-32416D01*
Y-17651D01*
X-34515Y-19750D01*
Y-20275D01*
X-128510Y82381D02*
Y79233D01*
X-126935D01*
X-126411Y79758D01*
Y81857D01*
X-126935Y82381D01*
X-128510D01*
X-123262D02*
X-124311Y81857D01*
X-125361Y80807D01*
Y79758D01*
X-124836Y79233D01*
X-123787D01*
X-123262Y79758D01*
Y80282D01*
X-123787Y80807D01*
X-125361D01*
X-32643Y36417D02*
Y33268D01*
X-31069D01*
X-30544Y33793D01*
Y35892D01*
X-31069Y36417D01*
X-32643D01*
X-27396D02*
X-29495D01*
Y34843D01*
X-28445Y35367D01*
X-27921D01*
X-27396Y34843D01*
Y33793D01*
X-27921Y33268D01*
X-28970D01*
X-29495Y33793D01*
X113419Y-4036D02*
Y-7185D01*
X114994D01*
X115519Y-6660D01*
Y-4561D01*
X114994Y-4036D01*
X113419D01*
X118667Y-7185D02*
X116568D01*
X118667Y-5085D01*
Y-4561D01*
X118142Y-4036D01*
X117093D01*
X116568Y-4561D01*
X113649Y-9941D02*
Y-13090D01*
X115223D01*
X115748Y-12565D01*
Y-10466D01*
X115223Y-9941D01*
X113649D01*
X116798Y-13090D02*
X117847D01*
X117322D01*
Y-9941D01*
X116798Y-10466D01*
X-90518Y114207D02*
X-91043Y113682D01*
Y112633D01*
X-90518Y112108D01*
X-88419D01*
X-87894Y112633D01*
Y113682D01*
X-88419Y114207D01*
X-87894Y115257D02*
X-91043D01*
X-87894Y117356D01*
X-91043D01*
X-87894Y118405D02*
Y119455D01*
Y118930D01*
X-91043D01*
X-90518Y118405D01*
X-91043Y123128D02*
Y121029D01*
X-89468D01*
X-89993Y122079D01*
Y122603D01*
X-89468Y123128D01*
X-88419D01*
X-87894Y122603D01*
Y121554D01*
X-88419Y121029D01*
X117848Y-42387D02*
X117323Y-42912D01*
Y-43962D01*
X117848Y-44486D01*
X119947D01*
X120472Y-43962D01*
Y-42912D01*
X119947Y-42387D01*
X120472Y-41338D02*
X117323D01*
X120472Y-39239D01*
X117323D01*
X120472Y-38189D02*
Y-37140D01*
Y-37664D01*
X117323D01*
X117848Y-38189D01*
X120472Y-33991D02*
X117323D01*
X118898Y-35565D01*
Y-33466D01*
X117553Y-56757D02*
X117028Y-57282D01*
Y-58332D01*
X117553Y-58856D01*
X119652D01*
X120177Y-58332D01*
Y-57282D01*
X119652Y-56757D01*
X120177Y-55708D02*
X117028D01*
X120177Y-53609D01*
X117028D01*
X120177Y-52559D02*
Y-51510D01*
Y-52034D01*
X117028D01*
X117553Y-52559D01*
Y-49935D02*
X117028Y-49411D01*
Y-48361D01*
X117553Y-47836D01*
X118078D01*
X118602Y-48361D01*
Y-48886D01*
Y-48361D01*
X119127Y-47836D01*
X119652D01*
X120177Y-48361D01*
Y-49411D01*
X119652Y-49935D01*
X-58235Y-819D02*
X-58759Y-1344D01*
Y-2394D01*
X-58235Y-2919D01*
X-56135D01*
X-55611Y-2394D01*
Y-1344D01*
X-56135Y-819D01*
X-55611Y230D02*
X-58759D01*
X-55611Y2329D01*
X-58759D01*
X-56135Y3379D02*
X-55611Y3903D01*
Y4953D01*
X-56135Y5478D01*
X-58235D01*
X-58759Y4953D01*
Y3903D01*
X-58235Y3379D01*
X-57710D01*
X-57185Y3903D01*
Y5478D01*
X-82414Y62959D02*
X-82939Y63484D01*
X-83988D01*
X-84513Y62959D01*
Y60860D01*
X-83988Y60335D01*
X-82939D01*
X-82414Y60860D01*
X-81365Y60335D02*
Y63484D01*
X-79265Y60335D01*
Y63484D01*
X-78216Y62959D02*
X-77691Y63484D01*
X-76642D01*
X-76117Y62959D01*
Y62434D01*
X-76642Y61910D01*
X-76117Y61385D01*
Y60860D01*
X-76642Y60335D01*
X-77691D01*
X-78216Y60860D01*
Y61385D01*
X-77691Y61910D01*
X-78216Y62434D01*
Y62959D01*
X-77691Y61910D02*
X-76642D01*
X-68142Y50557D02*
X-68667Y51082D01*
X-69717D01*
X-70241Y50557D01*
Y48458D01*
X-69717Y47934D01*
X-68667D01*
X-68142Y48458D01*
X-67093Y47934D02*
Y51082D01*
X-64994Y47934D01*
Y51082D01*
X-63944D02*
X-61845D01*
Y50557D01*
X-63944Y48458D01*
Y47934D01*
X9679Y-79068D02*
X9154Y-79592D01*
Y-80642D01*
X9679Y-81167D01*
X11778D01*
X12303Y-80642D01*
Y-79592D01*
X11778Y-79068D01*
X12303Y-78018D02*
X9154D01*
X12303Y-75919D01*
X9154D01*
Y-72770D02*
X9679Y-73820D01*
X10728Y-74869D01*
X11778D01*
X12303Y-74345D01*
Y-73295D01*
X11778Y-72770D01*
X11253D01*
X10728Y-73295D01*
Y-74869D01*
X9679Y-92749D02*
X9154Y-93273D01*
Y-94323D01*
X9679Y-94848D01*
X11778D01*
X12303Y-94323D01*
Y-93273D01*
X11778Y-92749D01*
X12303Y-91699D02*
X9154D01*
X12303Y-89600D01*
X9154D01*
Y-86452D02*
Y-88551D01*
X10728D01*
X10204Y-87501D01*
Y-86976D01*
X10728Y-86452D01*
X11778D01*
X12303Y-86976D01*
Y-88026D01*
X11778Y-88551D01*
X-87172Y-41961D02*
X-87696Y-42486D01*
Y-43536D01*
X-87172Y-44060D01*
X-85072D01*
X-84548Y-43536D01*
Y-42486D01*
X-85072Y-41961D01*
X-84548Y-40912D02*
X-87696D01*
X-84548Y-38813D01*
X-87696D01*
X-84548Y-36189D02*
X-87696D01*
X-86122Y-37763D01*
Y-35664D01*
X-87172Y-54166D02*
X-87696Y-54691D01*
Y-55740D01*
X-87172Y-56265D01*
X-85072D01*
X-84548Y-55740D01*
Y-54691D01*
X-85072Y-54166D01*
X-84548Y-53116D02*
X-87696D01*
X-84548Y-51017D01*
X-87696D01*
X-87172Y-49968D02*
X-87696Y-49443D01*
Y-48394D01*
X-87172Y-47869D01*
X-86647D01*
X-86122Y-48394D01*
Y-48918D01*
Y-48394D01*
X-85597Y-47869D01*
X-85072D01*
X-84548Y-48394D01*
Y-49443D01*
X-85072Y-49968D01*
X99443Y54889D02*
X98918Y54364D01*
Y53315D01*
X99443Y52790D01*
X101542D01*
X102066Y53315D01*
Y54364D01*
X101542Y54889D01*
X102066Y55939D02*
X98918D01*
X102066Y58038D01*
X98918D01*
X102066Y61186D02*
Y59087D01*
X99967Y61186D01*
X99443D01*
X98918Y60662D01*
Y59612D01*
X99443Y59087D01*
Y42422D02*
X98918Y41897D01*
Y40848D01*
X99443Y40323D01*
X101542D01*
X102066Y40848D01*
Y41897D01*
X101542Y42422D01*
X102066Y43471D02*
X98918D01*
X102066Y45570D01*
X98918D01*
X102066Y46620D02*
Y47669D01*
Y47145D01*
X98918D01*
X99443Y46620D01*
X144599Y-26676D02*
X144074Y-26151D01*
X143025D01*
X142500Y-26676D01*
Y-28775D01*
X143025Y-29300D01*
X144074D01*
X144599Y-28775D01*
X147223Y-29300D02*
Y-26151D01*
X145649Y-27726D01*
X147748D01*
X150896Y-26151D02*
X149847Y-26676D01*
X148797Y-27726D01*
Y-28775D01*
X149322Y-29300D01*
X150372D01*
X150896Y-28775D01*
Y-28251D01*
X150372Y-27726D01*
X148797D01*
X131562Y-26676D02*
X131038Y-26151D01*
X129988D01*
X129463Y-26676D01*
Y-28775D01*
X129988Y-29300D01*
X131038D01*
X131562Y-28775D01*
X134186Y-29300D02*
Y-26151D01*
X132612Y-27726D01*
X134711D01*
X137859Y-26151D02*
X135760D01*
Y-27726D01*
X136810Y-27201D01*
X137335D01*
X137859Y-27726D01*
Y-28775D01*
X137335Y-29300D01*
X136285D01*
X135760Y-28775D01*
X-87237Y142979D02*
X-87762Y143503D01*
X-88811D01*
X-89336Y142979D01*
Y140880D01*
X-88811Y140355D01*
X-87762D01*
X-87237Y140880D01*
X-84613Y140355D02*
Y143503D01*
X-86187Y141929D01*
X-84088D01*
X-81464Y140355D02*
Y143503D01*
X-83039Y141929D01*
X-80940D01*
X-38320Y-9777D02*
X-38844Y-9252D01*
X-39894D01*
X-40419Y-9777D01*
Y-11876D01*
X-39894Y-12401D01*
X-38844D01*
X-38320Y-11876D01*
X-37270Y-9777D02*
X-36745Y-9252D01*
X-35696D01*
X-35171Y-9777D01*
Y-10302D01*
X-35696Y-10827D01*
X-36220D01*
X-35696D01*
X-35171Y-11351D01*
Y-11876D01*
X-35696Y-12401D01*
X-36745D01*
X-37270Y-11876D01*
X-34121Y-9777D02*
X-33597Y-9252D01*
X-32547D01*
X-32022Y-9777D01*
Y-11876D01*
X-32547Y-12401D01*
X-33597D01*
X-34121Y-11876D01*
Y-9777D01*
X-108333Y60303D02*
X-108858Y59778D01*
Y58728D01*
X-108333Y58203D01*
X-106234D01*
X-105709Y58728D01*
Y59778D01*
X-106234Y60303D01*
X-105709Y63451D02*
Y61352D01*
X-107808Y63451D01*
X-108333D01*
X-108858Y62926D01*
Y61877D01*
X-108333Y61352D01*
X-106234Y64501D02*
X-105709Y65025D01*
Y66075D01*
X-106234Y66600D01*
X-108333D01*
X-108858Y66075D01*
Y65025D01*
X-108333Y64501D01*
X-107808D01*
X-107283Y65025D01*
Y66600D01*
X-116305Y60303D02*
X-116830Y59778D01*
Y58728D01*
X-116305Y58204D01*
X-114206D01*
X-113682Y58728D01*
Y59778D01*
X-114206Y60303D01*
X-113682Y63451D02*
Y61352D01*
X-115781Y63451D01*
X-116305D01*
X-116830Y62926D01*
Y61877D01*
X-116305Y61352D01*
Y64501D02*
X-116830Y65025D01*
Y66075D01*
X-116305Y66600D01*
X-115781D01*
X-115256Y66075D01*
X-114731Y66600D01*
X-114206D01*
X-113682Y66075D01*
Y65025D01*
X-114206Y64501D01*
X-114731D01*
X-115256Y65025D01*
X-115781Y64501D01*
X-116305D01*
X-115256Y65025D02*
Y66075D01*
X-92290Y60303D02*
X-92814Y59778D01*
Y58728D01*
X-92290Y58203D01*
X-90191D01*
X-89666Y58728D01*
Y59778D01*
X-90191Y60303D01*
X-89666Y63451D02*
Y61352D01*
X-91765Y63451D01*
X-92290D01*
X-92814Y62926D01*
Y61877D01*
X-92290Y61352D01*
X-92814Y64501D02*
Y66600D01*
X-92290D01*
X-90191Y64501D01*
X-89666D01*
X-100853Y60303D02*
X-101377Y59778D01*
Y58728D01*
X-100853Y58204D01*
X-98754D01*
X-98229Y58728D01*
Y59778D01*
X-98754Y60303D01*
X-98229Y63451D02*
Y61352D01*
X-100328Y63451D01*
X-100853D01*
X-101377Y62926D01*
Y61877D01*
X-100853Y61352D01*
X-101377Y66600D02*
X-100853Y65550D01*
X-99803Y64501D01*
X-98754D01*
X-98229Y65025D01*
Y66075D01*
X-98754Y66600D01*
X-99278D01*
X-99803Y66075D01*
Y64501D01*
X132Y-54166D02*
X-393Y-54691D01*
Y-55740D01*
X132Y-56265D01*
X2231D01*
X2755Y-55740D01*
Y-54691D01*
X2231Y-54166D01*
X2755Y-51017D02*
Y-53117D01*
X656Y-51017D01*
X132D01*
X-393Y-51542D01*
Y-52592D01*
X132Y-53117D01*
X-393Y-47869D02*
Y-49968D01*
X1181D01*
X656Y-48918D01*
Y-48394D01*
X1181Y-47869D01*
X2231D01*
X2755Y-48394D01*
Y-49443D01*
X2231Y-49968D01*
X7218Y-54166D02*
X6693Y-54691D01*
Y-55740D01*
X7218Y-56265D01*
X9317D01*
X9842Y-55740D01*
Y-54691D01*
X9317Y-54166D01*
X9842Y-51017D02*
Y-53117D01*
X7743Y-51017D01*
X7218D01*
X6693Y-51542D01*
Y-52592D01*
X7218Y-53117D01*
X9842Y-48394D02*
X6693D01*
X8268Y-49968D01*
Y-47869D01*
X14502Y-54166D02*
X13977Y-54691D01*
Y-55740D01*
X14502Y-56265D01*
X16601D01*
X17126Y-55740D01*
Y-54691D01*
X16601Y-54166D01*
X17126Y-51017D02*
Y-53116D01*
X15026Y-51017D01*
X14502D01*
X13977Y-51542D01*
Y-52592D01*
X14502Y-53116D01*
Y-49968D02*
X13977Y-49443D01*
Y-48394D01*
X14502Y-47869D01*
X15026D01*
X15551Y-48394D01*
Y-48918D01*
Y-48394D01*
X16076Y-47869D01*
X16601D01*
X17126Y-48394D01*
Y-49443D01*
X16601Y-49968D01*
X22277Y-54166D02*
X21753Y-54691D01*
Y-55740D01*
X22277Y-56265D01*
X24376D01*
X24901Y-55740D01*
Y-54691D01*
X24376Y-54166D01*
X24901Y-51017D02*
Y-53117D01*
X22802Y-51017D01*
X22277D01*
X21753Y-51542D01*
Y-52592D01*
X22277Y-53117D01*
X24901Y-47869D02*
Y-49968D01*
X22802Y-47869D01*
X22277D01*
X21753Y-48394D01*
Y-49443D01*
X22277Y-49968D01*
X-113090Y20538D02*
X-113615Y21062D01*
X-114664D01*
X-115189Y20538D01*
Y18439D01*
X-114664Y17914D01*
X-113615D01*
X-113090Y18439D01*
X-109941Y17914D02*
X-112040D01*
X-109941Y20013D01*
Y20538D01*
X-110466Y21062D01*
X-111516D01*
X-112040Y20538D01*
X-108892Y17914D02*
X-107842D01*
X-108367D01*
Y21062D01*
X-108892Y20538D01*
X-46424Y-48949D02*
X-46948Y-49474D01*
Y-50524D01*
X-46424Y-51048D01*
X-44324D01*
X-43800Y-50524D01*
Y-49474D01*
X-44324Y-48949D01*
X-43800Y-45801D02*
Y-47900D01*
X-45899Y-45801D01*
X-46424D01*
X-46948Y-46326D01*
Y-47375D01*
X-46424Y-47900D01*
Y-44751D02*
X-46948Y-44227D01*
Y-43177D01*
X-46424Y-42652D01*
X-44324D01*
X-43800Y-43177D01*
Y-44227D01*
X-44324Y-44751D01*
X-46424D01*
X-45439Y-23293D02*
X-45964Y-23818D01*
Y-24868D01*
X-45439Y-25392D01*
X-43340D01*
X-42816Y-24868D01*
Y-23818D01*
X-43340Y-23293D01*
X-42816Y-22244D02*
Y-21194D01*
Y-21719D01*
X-45964D01*
X-45439Y-22244D01*
X-43340Y-19620D02*
X-42816Y-19095D01*
Y-18046D01*
X-43340Y-17521D01*
X-45439D01*
X-45964Y-18046D01*
Y-19095D01*
X-45439Y-19620D01*
X-44914D01*
X-44390Y-19095D01*
Y-17521D01*
X-52624Y-23293D02*
X-53149Y-23818D01*
Y-24868D01*
X-52624Y-25392D01*
X-50525D01*
X-50001Y-24868D01*
Y-23818D01*
X-50525Y-23293D01*
X-50001Y-22244D02*
Y-21194D01*
Y-21719D01*
X-53149D01*
X-52624Y-22244D01*
Y-19620D02*
X-53149Y-19095D01*
Y-18046D01*
X-52624Y-17521D01*
X-52100D01*
X-51575Y-18046D01*
X-51050Y-17521D01*
X-50525D01*
X-50001Y-18046D01*
Y-19095D01*
X-50525Y-19620D01*
X-51050D01*
X-51575Y-19095D01*
X-52100Y-19620D01*
X-52624D01*
X-51575Y-19095D02*
Y-18046D01*
X-60498Y-23293D02*
X-61023Y-23818D01*
Y-24868D01*
X-60498Y-25392D01*
X-58399D01*
X-57875Y-24868D01*
Y-23818D01*
X-58399Y-23293D01*
X-57875Y-22244D02*
Y-21194D01*
Y-21719D01*
X-61023D01*
X-60498Y-22244D01*
X-61023Y-19620D02*
Y-17521D01*
X-60498D01*
X-58399Y-19620D01*
X-57875D01*
X-68471Y-23293D02*
X-68996Y-23818D01*
Y-24868D01*
X-68471Y-25392D01*
X-66372D01*
X-65847Y-24868D01*
Y-23818D01*
X-66372Y-23293D01*
X-65847Y-22244D02*
Y-21194D01*
Y-21719D01*
X-68996D01*
X-68471Y-22244D01*
X-68996Y-17521D02*
X-68471Y-18571D01*
X-67421Y-19620D01*
X-66372D01*
X-65847Y-19095D01*
Y-18046D01*
X-66372Y-17521D01*
X-66896D01*
X-67421Y-18046D01*
Y-19620D01*
X-54298Y-133628D02*
X-54822Y-134153D01*
Y-135202D01*
X-54298Y-135727D01*
X-52198D01*
X-51674Y-135202D01*
Y-134153D01*
X-52198Y-133628D01*
X-51674Y-132579D02*
Y-131529D01*
Y-132054D01*
X-54822D01*
X-54298Y-132579D01*
X-54822Y-127856D02*
Y-129955D01*
X-53248D01*
X-53773Y-128905D01*
Y-128380D01*
X-53248Y-127856D01*
X-52198D01*
X-51674Y-128380D01*
Y-129430D01*
X-52198Y-129955D01*
X62467Y64632D02*
X61943Y65157D01*
X60893D01*
X60368Y64632D01*
Y62533D01*
X60893Y62008D01*
X61943D01*
X62467Y62533D01*
X63517Y64632D02*
X64042Y65157D01*
X65091D01*
X65616Y64632D01*
Y64107D01*
X65091Y63583D01*
X65616Y63058D01*
Y62533D01*
X65091Y62008D01*
X64042D01*
X63517Y62533D01*
Y63058D01*
X64042Y63583D01*
X63517Y64107D01*
Y64632D01*
X64042Y63583D02*
X65091D01*
X110400Y48294D02*
X109876Y48818D01*
X108826D01*
X108301Y48294D01*
Y46195D01*
X108826Y45670D01*
X109876D01*
X110400Y46195D01*
X111450Y48818D02*
X113549D01*
Y48294D01*
X111450Y46195D01*
Y45670D01*
X110302Y53904D02*
X109777Y54429D01*
X108728D01*
X108203Y53904D01*
Y51805D01*
X108728Y51280D01*
X109777D01*
X110302Y51805D01*
X113451Y54429D02*
X112401Y53904D01*
X111352Y52854D01*
Y51805D01*
X111876Y51280D01*
X112926D01*
X113451Y51805D01*
Y52330D01*
X112926Y52854D01*
X111352D01*
X80578Y111778D02*
X80053Y112303D01*
X79003D01*
X78478Y111778D01*
Y109679D01*
X79003Y109154D01*
X80053D01*
X80578Y109679D01*
X83726Y112303D02*
X81627D01*
Y110728D01*
X82677Y111253D01*
X83201D01*
X83726Y110728D01*
Y109679D01*
X83201Y109154D01*
X82152D01*
X81627Y109679D01*
X80578Y106758D02*
X80053Y107283D01*
X79003D01*
X78478Y106758D01*
Y104659D01*
X79003Y104134D01*
X80053D01*
X80578Y104659D01*
X83201Y104134D02*
Y107283D01*
X81627Y105709D01*
X83726D01*
X99443Y83038D02*
X98918Y82513D01*
Y81464D01*
X99443Y80939D01*
X101542D01*
X102066Y81464D01*
Y82513D01*
X101542Y83038D01*
X99443Y84088D02*
X98918Y84613D01*
Y85662D01*
X99443Y86187D01*
X99967D01*
X100492Y85662D01*
Y85137D01*
Y85662D01*
X101017Y86187D01*
X101542D01*
X102066Y85662D01*
Y84613D01*
X101542Y84088D01*
X99443Y74475D02*
X98918Y73950D01*
Y72901D01*
X99443Y72376D01*
X101542D01*
X102066Y72901D01*
Y73950D01*
X101542Y74475D01*
X102066Y77624D02*
Y75525D01*
X99967Y77624D01*
X99443D01*
X98918Y77099D01*
Y76050D01*
X99443Y75525D01*
X99443Y67618D02*
X98918Y67093D01*
Y66044D01*
X99443Y65519D01*
X101542D01*
X102066Y66044D01*
Y67093D01*
X101542Y67618D01*
X102066Y68668D02*
Y69717D01*
Y69192D01*
X98918D01*
X99443Y68668D01*
X-22866Y-30119D02*
Y-33267D01*
X-21292D01*
X-20767Y-32742D01*
Y-32218D01*
X-21292Y-31693D01*
X-22866D01*
X-21292D01*
X-20767Y-31168D01*
Y-30643D01*
X-21292Y-30119D01*
X-22866D01*
X-19717Y-33267D02*
Y-31168D01*
X-18668Y-30119D01*
X-17618Y-31168D01*
Y-33267D01*
Y-31693D01*
X-19717D01*
X-16569Y-30119D02*
X-14469D01*
X-15519D01*
Y-33267D01*
X-13420D02*
X-12370D01*
X-12895D01*
Y-30119D01*
X-13420Y-30643D01*
X-28575Y-140354D02*
Y-138255D01*
X-27526Y-137205D01*
X-26476Y-138255D01*
Y-140354D01*
Y-138779D01*
X-28575D01*
X-25427Y-140354D02*
X-24377D01*
X-24902D01*
Y-137205D01*
X-25427Y-137730D01*
X97574Y-90157D02*
Y-87008D01*
X98623Y-88058D01*
X99673Y-87008D01*
Y-90157D01*
X100722Y-87008D02*
Y-90157D01*
Y-88583D01*
X102821D01*
Y-87008D01*
Y-90157D01*
X105445D02*
Y-87008D01*
X103871Y-88583D01*
X105970D01*
X-105478Y-90551D02*
Y-87402D01*
X-104428Y-88452D01*
X-103379Y-87402D01*
Y-90551D01*
X-102329Y-87402D02*
Y-90551D01*
Y-88976D01*
X-100230D01*
Y-87402D01*
Y-90551D01*
X-99181Y-87927D02*
X-98656Y-87402D01*
X-97606D01*
X-97081Y-87927D01*
Y-88452D01*
X-97606Y-88976D01*
X-98131D01*
X-97606D01*
X-97081Y-89501D01*
Y-90026D01*
X-97606Y-90551D01*
X-98656D01*
X-99181Y-90026D01*
X-105576Y112894D02*
Y116043D01*
X-104526Y114993D01*
X-103477Y116043D01*
Y112894D01*
X-102427Y116043D02*
Y112894D01*
Y114469D01*
X-100328D01*
Y116043D01*
Y112894D01*
X-97180D02*
X-99279D01*
X-97180Y114993D01*
Y115518D01*
X-97705Y116043D01*
X-98754D01*
X-99279Y115518D01*
X96819Y113189D02*
Y116338D01*
X97868Y115289D01*
X98918Y116338D01*
Y113189D01*
X99967Y116338D02*
Y113189D01*
Y114764D01*
X102066D01*
Y116338D01*
Y113189D01*
X103116D02*
X104165D01*
X103641D01*
Y116338D01*
X103116Y115813D01*
D21*
X16240Y163189D02*
Y167421D01*
X13780Y165551D02*
X18307D01*
X-14469Y165059D02*
X-8858D01*
X-111270Y86762D02*
X-108661Y89370D01*
X-136122Y86614D02*
X-111417D01*
X-111270Y86762D01*
X-137894Y89665D02*
X-136122Y86614D01*
X139665Y-19980D02*
X141831Y-17815D01*
X138779Y-20866D02*
X139665Y-19980D01*
X114961Y-20866D02*
X138779D01*
X113189Y-17815D02*
X114961Y-20866D01*
X-12795Y-142323D02*
X-11220Y-141831D01*
X-16339Y-132283D02*
X-12795Y-142323D01*
X-16339Y-132283D02*
X7087Y-124016D01*
X11200Y-133934D01*
X-11220Y-141831D02*
X11200Y-133934D01*
X1969Y-140551D02*
X6398Y-143209D01*
X591Y-144980D02*
X1969Y-140551D01*
X591Y-144980D02*
X1969Y-140551D01*
X10236Y-163091D01*
X64862Y-86417D02*
X66634Y-89468D01*
X88976D01*
X91339Y-87106D01*
X86713Y-117913D02*
X90748Y-123327D01*
Y-121063D01*
X88287Y-122835D02*
X90748Y-123327D01*
X78740Y-123524D02*
X81201Y-124016D01*
X78740Y-125787D02*
Y-123524D01*
X82776Y-128937D01*
X-16437Y49803D02*
X-14075Y52165D01*
X-38780Y49803D02*
X-16437D01*
X-40551Y52854D02*
X-38780Y49803D01*
X135701Y-8946D02*
X145374Y-13484D01*
X133858Y-1575D02*
X135701Y-8946D01*
D22*
X-152445Y-32130D02*
X-149548Y-33803D01*
X-150161Y-31518D02*
X-151833Y-34415D01*
X-98138Y-66054D02*
X-96466Y-63158D01*
X-29683Y-34154D02*
Y-29484D01*
X-32018Y-31819D02*
X-27349D01*
M02*
