G04*
G04 #@! TF.GenerationSoftware,Altium Limited,Altium Designer,21.9.1 (22)*
G04*
G04 Layer_Color=16711935*
%FSLAX25Y25*%
%MOIN*%
G70*
G04*
G04 #@! TF.SameCoordinates,BA265606-766D-4053-9833-5615DE46E1CD*
G04*
G04*
G04 #@! TF.FilePolarity,Positive*
G04*
G01*
G75*
%ADD11C,0.00394*%
%ADD12C,0.00787*%
%ADD15C,0.01181*%
%ADD203C,0.00236*%
D11*
X-49803Y-124803D02*
X-42913D01*
X-49803Y-138583D02*
Y-124803D01*
Y-138583D02*
X-42913D01*
Y-124803D01*
X-41240Y-127559D02*
Y-124409D01*
Y-127559D02*
X-34941D01*
X-41240Y-124409D02*
X-34941D01*
Y-127559D02*
Y-124409D01*
X-41831Y-135039D02*
X-35925D01*
Y-137795D02*
Y-135039D01*
X-41831Y-137795D02*
X-35925D01*
X-41831D02*
Y-135039D01*
X-46204Y-134992D02*
X-46541Y-135104D01*
X-45867D01*
X-46204Y-134992D01*
X-45979Y-134767D01*
X-45867Y-134429D01*
Y-134204D01*
X-45979Y-133867D01*
X-46204Y-133642D01*
X-46429Y-133530D01*
X-46766Y-133417D01*
X-47329D01*
X-47666Y-133530D01*
X-47891Y-133642D01*
X-48116Y-133867D01*
X-48228Y-134204D01*
Y-134429D01*
X-48116Y-134767D01*
X-47891Y-134992D01*
X-47666Y-135104D01*
X-45867Y-134204D02*
X-45979Y-133980D01*
X-46204Y-133755D01*
X-46429Y-133642D01*
X-46766Y-133530D01*
X-47329D01*
X-47666Y-133642D01*
X-47891Y-133755D01*
X-48116Y-133980D01*
X-48228Y-134204D01*
X-46316Y-135442D02*
X-46204Y-135667D01*
X-45867Y-136004D01*
X-48228D01*
X-45979Y-135891D02*
X-48228D01*
Y-135442D02*
Y-136454D01*
X-45867Y-137083D02*
X-46991Y-136859D01*
X-46766Y-137083D01*
X-46654Y-137421D01*
Y-137758D01*
X-46766Y-138096D01*
X-46991Y-138321D01*
X-47329Y-138433D01*
X-47554D01*
X-47891Y-138321D01*
X-48116Y-138096D01*
X-48228Y-137758D01*
Y-137421D01*
X-48116Y-137083D01*
X-48003Y-136971D01*
X-47778Y-136859D01*
X-47666D01*
X-47554Y-136971D01*
X-47666Y-137083D01*
X-47778Y-136971D01*
X-46654Y-137758D02*
X-46766Y-137983D01*
X-46991Y-138208D01*
X-47329Y-138321D01*
X-47554D01*
X-47891Y-138208D01*
X-48116Y-137983D01*
X-48228Y-137758D01*
X-45867Y-137083D02*
Y-138208D01*
X-45979Y-137083D02*
Y-137646D01*
X-45867Y-138208D01*
D12*
X-82284Y-115945D02*
Y-67520D01*
X-19291Y-115945D02*
Y-67520D01*
X-82284Y-115945D02*
X-19291D01*
X-82284Y-67520D02*
X-19291D01*
D15*
X-59976Y-93501D02*
Y-86942D01*
X-61288Y-85630D01*
X-63912D01*
X-65223Y-86942D01*
Y-93501D01*
X-71783Y-85630D02*
Y-93501D01*
X-67847Y-89566D01*
X-73095D01*
D203*
X-41207Y-136165D02*
Y-137149D01*
X-40551D01*
X-39567D02*
X-40223D01*
X-39567Y-136493D01*
Y-136329D01*
X-39731Y-136165D01*
X-40059D01*
X-40223Y-136329D01*
X-35743Y-125055D02*
Y-126235D01*
X-36334D01*
X-36531Y-126039D01*
Y-125645D01*
X-36334Y-125448D01*
X-35743D01*
X-36137D02*
X-36531Y-125055D01*
X-37711D02*
X-36924D01*
X-37711Y-125842D01*
Y-126039D01*
X-37514Y-126235D01*
X-37121D01*
X-36924Y-126039D01*
X-38105D02*
X-38302Y-126235D01*
X-38695D01*
X-38892Y-126039D01*
Y-125842D01*
X-38695Y-125645D01*
X-38498D01*
X-38695D01*
X-38892Y-125448D01*
Y-125251D01*
X-38695Y-125055D01*
X-38302D01*
X-38105Y-125251D01*
M02*
