G04*
G04 #@! TF.GenerationSoftware,Altium Limited,Altium Designer,21.9.1 (22)*
G04*
G04 Layer_Color=16711935*
%FSLAX25Y25*%
%MOIN*%
G70*
G04*
G04 #@! TF.SameCoordinates,BA265606-766D-4053-9833-5615DE46E1CD*
G04*
G04*
G04 #@! TF.FilePolarity,Negative*
G04*
G01*
G75*
%ADD67R,0.03740X0.03740*%
%ADD91R,0.02638X0.04528*%
%ADD93R,0.05709X0.04134*%
%ADD102C,0.14000*%
%ADD105R,0.05512X0.03543*%
%ADD106R,0.03543X0.05512*%
%ADD108R,0.03740X0.03740*%
%ADD112R,0.03543X0.03937*%
%ADD113C,0.06331*%
%ADD114C,0.04331*%
%ADD115C,0.04724*%
%ADD116C,0.16929*%
%ADD117C,0.03394*%
G04:AMPARAMS|DCode=118|XSize=66.93mil|YSize=35.43mil|CornerRadius=0mil|HoleSize=0mil|Usage=FLASHONLY|Rotation=210.000|XOffset=0mil|YOffset=0mil|HoleType=Round|Shape=Round|*
%AMOVALD118*
21,1,0.03150,0.03543,0.00000,0.00000,210.0*
1,1,0.03543,0.01364,0.00787*
1,1,0.03543,-0.01364,-0.00787*
%
%ADD118OVALD118*%

G04:AMPARAMS|DCode=119|XSize=86.61mil|YSize=45.28mil|CornerRadius=0mil|HoleSize=0mil|Usage=FLASHONLY|Rotation=210.000|XOffset=0mil|YOffset=0mil|HoleType=Round|Shape=Round|*
%AMOVALD119*
21,1,0.04134,0.04528,0.00000,0.00000,210.0*
1,1,0.04528,0.01790,0.01034*
1,1,0.04528,-0.01790,-0.01034*
%
%ADD119OVALD119*%

G04:AMPARAMS|DCode=120|XSize=82.68mil|YSize=66.93mil|CornerRadius=0mil|HoleSize=0mil|Usage=FLASHONLY|Rotation=125.000|XOffset=0mil|YOffset=0mil|HoleType=Round|Shape=Round|*
%AMOVALD120*
21,1,0.01575,0.06693,0.00000,0.00000,125.0*
1,1,0.06693,0.00452,-0.00645*
1,1,0.06693,-0.00452,0.00645*
%
%ADD120OVALD120*%

G04:AMPARAMS|DCode=121|XSize=82.68mil|YSize=66.93mil|CornerRadius=0mil|HoleSize=0mil|Usage=FLASHONLY|Rotation=125.000|XOffset=0mil|YOffset=0mil|HoleType=Round|Shape=Rectangle|*
%AMROTATEDRECTD121*
4,1,4,0.05112,-0.01467,-0.00370,-0.05306,-0.05112,0.01467,0.00370,0.05306,0.05112,-0.01467,0.0*
%
%ADD121ROTATEDRECTD121*%

%ADD122R,0.08268X0.06693*%
%ADD123O,0.08268X0.06693*%
%ADD124C,0.24016*%
%ADD125R,0.24016X0.24016*%
%ADD126C,0.02362*%
%ADD167R,0.21300X0.11400*%
%ADD181R,0.05118X0.02795*%
%ADD182P,0.05289X4X165.0*%
%ADD183R,0.15315X0.04291*%
%ADD184R,0.31417X0.43071*%
%ADD185R,0.02441X0.01496*%
G04:AMPARAMS|DCode=186|XSize=41.34mil|YSize=57.09mil|CornerRadius=0mil|HoleSize=0mil|Usage=FLASHONLY|Rotation=120.000|XOffset=0mil|YOffset=0mil|HoleType=Round|Shape=Rectangle|*
%AMROTATEDRECTD186*
4,1,4,0.03505,-0.00363,-0.01439,-0.03217,-0.03505,0.00363,0.01439,0.03217,0.03505,-0.00363,0.0*
%
%ADD186ROTATEDRECTD186*%

G04:AMPARAMS|DCode=187|XSize=51.58mil|YSize=27.17mil|CornerRadius=7.78mil|HoleSize=0mil|Usage=FLASHONLY|Rotation=180.000|XOffset=0mil|YOffset=0mil|HoleType=Round|Shape=RoundedRectangle|*
%AMROUNDEDRECTD187*
21,1,0.05158,0.01161,0,0,180.0*
21,1,0.03602,0.02717,0,0,180.0*
1,1,0.01555,-0.01801,0.00581*
1,1,0.01555,0.01801,0.00581*
1,1,0.01555,0.01801,-0.00581*
1,1,0.01555,-0.01801,-0.00581*
%
%ADD187ROUNDEDRECTD187*%
G04:AMPARAMS|DCode=188|XSize=78.74mil|YSize=136.61mil|CornerRadius=4.59mil|HoleSize=0mil|Usage=FLASHONLY|Rotation=270.000|XOffset=0mil|YOffset=0mil|HoleType=Round|Shape=RoundedRectangle|*
%AMROUNDEDRECTD188*
21,1,0.07874,0.12744,0,0,270.0*
21,1,0.06957,0.13661,0,0,270.0*
1,1,0.00917,-0.06372,-0.03478*
1,1,0.00917,-0.06372,0.03478*
1,1,0.00917,0.06372,0.03478*
1,1,0.00917,0.06372,-0.03478*
%
%ADD188ROUNDEDRECTD188*%
%ADD189R,0.07402X0.04410*%
%ADD190R,0.10433X0.07284*%
G04:AMPARAMS|DCode=191|XSize=72.84mil|YSize=104.33mil|CornerRadius=0mil|HoleSize=0mil|Usage=FLASHONLY|Rotation=300.000|XOffset=0mil|YOffset=0mil|HoleType=Round|Shape=Rectangle|*
%AMROTATEDRECTD191*
4,1,4,-0.06339,0.00546,0.02697,0.05762,0.06339,-0.00546,-0.02697,-0.05762,-0.06339,0.00546,0.0*
%
%ADD191ROTATEDRECTD191*%

%ADD192R,0.03937X0.03543*%
%ADD193R,0.11614X0.06496*%
%ADD194R,0.24606X0.25394*%
%ADD195R,0.06693X0.08268*%
%ADD196R,0.06693X0.05512*%
%ADD197R,0.12205X0.12205*%
D67*
X136221Y-8169D02*
D03*
Y-14862D02*
D03*
X147047Y-57776D02*
D03*
Y-51083D02*
D03*
X106496Y-37697D02*
D03*
Y-44390D02*
D03*
X-101772Y-33366D02*
D03*
Y-26673D02*
D03*
X-107185Y-39862D02*
D03*
Y-33169D02*
D03*
X-88976Y-41142D02*
D03*
Y-47835D02*
D03*
D91*
X119587Y48622D02*
D03*
X116437D02*
D03*
X113287D02*
D03*
X110138D02*
D03*
Y41535D02*
D03*
X113287D02*
D03*
X116437D02*
D03*
X119587D02*
D03*
X-142323Y10433D02*
D03*
X-139173D02*
D03*
X-136024D02*
D03*
X-132874D02*
D03*
Y17520D02*
D03*
X-136024D02*
D03*
X-139173D02*
D03*
X-142323D02*
D03*
X-88583Y-19291D02*
D03*
X-85433D02*
D03*
X-82284D02*
D03*
X-79134D02*
D03*
Y-12205D02*
D03*
X-82284D02*
D03*
X-85433D02*
D03*
X-88583D02*
D03*
D93*
X4921Y58465D02*
D03*
Y63583D02*
D03*
X-2657Y58563D02*
D03*
Y63681D02*
D03*
X-54724Y77264D02*
D03*
Y82382D02*
D03*
X-62500Y77362D02*
D03*
Y82480D02*
D03*
X104134Y48524D02*
D03*
Y43406D02*
D03*
X96260Y48524D02*
D03*
Y43406D02*
D03*
X125000Y-51673D02*
D03*
Y-56791D02*
D03*
X132776Y-51673D02*
D03*
Y-56791D02*
D03*
X140453Y-51673D02*
D03*
Y-56791D02*
D03*
X-126279Y10728D02*
D03*
Y15846D02*
D03*
X-118307Y10728D02*
D03*
Y15846D02*
D03*
X-73327Y-18996D02*
D03*
Y-13878D02*
D03*
X-65551Y-19094D02*
D03*
Y-13976D02*
D03*
D102*
X3543Y-88090D02*
D03*
D105*
X94882Y125197D02*
D03*
Y117717D02*
D03*
X87402Y117520D02*
D03*
Y110039D02*
D03*
D106*
X153937Y-36122D02*
D03*
X146457D02*
D03*
D108*
X-143012Y-7382D02*
D03*
X-149705D02*
D03*
X118405Y-51279D02*
D03*
X111713D02*
D03*
X-119095Y-36811D02*
D03*
X-125787D02*
D03*
X-66043Y-26476D02*
D03*
X-72736D02*
D03*
X-66043Y-32087D02*
D03*
X-72736D02*
D03*
X-101870Y-53150D02*
D03*
X-95177D02*
D03*
D112*
X-98327Y-40010D02*
D03*
X-102067Y-47982D02*
D03*
X-94587D02*
D03*
D113*
X-136809Y-41909D02*
D03*
X-110828Y-56910D02*
D03*
D114*
X23810Y67693D02*
D03*
X23828Y57897D02*
D03*
D115*
X47047Y137500D02*
D03*
X66732D02*
D03*
D116*
X101610Y101610D02*
D03*
X-101612Y101612D02*
D03*
Y-101612D02*
D03*
X101612D02*
D03*
D117*
X67392Y236D02*
D03*
Y7461D02*
D03*
Y-6988D02*
D03*
X60167Y7461D02*
D03*
Y236D02*
D03*
Y-6988D02*
D03*
X63779Y3848D02*
D03*
Y-3376D02*
D03*
X71004Y3848D02*
D03*
Y-3376D02*
D03*
X56555Y3848D02*
D03*
Y-3376D02*
D03*
D118*
X137539Y66722D02*
D03*
X127992Y83258D02*
D03*
D119*
X135196Y95032D02*
D03*
X151338Y67074D02*
D03*
D120*
X112621Y-117788D02*
D03*
X104429Y-123524D02*
D03*
X96238Y-129259D02*
D03*
D121*
X88046Y-134995D02*
D03*
D122*
X-6398Y24685D02*
D03*
D123*
Y44685D02*
D03*
Y34685D02*
D03*
D124*
X17323Y146457D02*
D03*
D125*
X-11024D02*
D03*
D126*
X-138976Y-33957D02*
D03*
X-136319Y-12992D02*
D03*
D167*
X65748Y53341D02*
D03*
Y91541D02*
D03*
D181*
X87795Y-29547D02*
D03*
Y-19547D02*
D03*
Y-14547D02*
D03*
X109646D02*
D03*
Y-19547D02*
D03*
Y-24547D02*
D03*
Y-29547D02*
D03*
X87795Y-24547D02*
D03*
X-147835Y-29744D02*
D03*
Y-19744D02*
D03*
Y-14744D02*
D03*
X-125984D02*
D03*
Y-19744D02*
D03*
Y-24744D02*
D03*
Y-29744D02*
D03*
X-147835Y-24744D02*
D03*
D182*
X-125689Y-47692D02*
D03*
X-122343Y-53489D02*
D03*
D183*
X27264Y119004D02*
D03*
Y112311D02*
D03*
Y105618D02*
D03*
Y98925D02*
D03*
Y92232D02*
D03*
D184*
X-15059Y105618D02*
D03*
D185*
X147244Y-64665D02*
D03*
Y-62106D02*
D03*
D186*
X40945Y-127264D02*
D03*
X43504Y-131696D02*
D03*
X34154Y-131347D02*
D03*
X36713Y-135779D02*
D03*
X48031Y-123079D02*
D03*
X50591Y-127512D02*
D03*
X55315Y-119240D02*
D03*
X57874Y-123673D02*
D03*
D187*
X-78622Y-27854D02*
D03*
Y-31594D02*
D03*
Y-35335D02*
D03*
X-88504D02*
D03*
Y-27854D02*
D03*
D188*
X100689Y57539D02*
D03*
Y78484D02*
D03*
X130512Y47087D02*
D03*
Y26142D02*
D03*
D189*
X134449Y5591D02*
D03*
Y17244D02*
D03*
X-149606Y-1299D02*
D03*
Y10354D02*
D03*
D190*
X6299Y41339D02*
D03*
X22047D02*
D03*
X61417Y108465D02*
D03*
X77165D02*
D03*
D191*
X66311Y-118799D02*
D03*
X79949Y-110925D02*
D03*
D192*
X119734Y-40748D02*
D03*
X111762Y-37008D02*
D03*
Y-44488D02*
D03*
D193*
X-13189Y75098D02*
D03*
Y56988D02*
D03*
D194*
X-37795Y66043D02*
D03*
D195*
X127756Y-38189D02*
D03*
D196*
X139173Y-33071D02*
D03*
Y-43110D02*
D03*
D197*
X122244Y-20866D02*
D03*
Y2756D02*
D03*
X-115256Y394D02*
D03*
Y-23228D02*
D03*
M02*
